<svg viewBox="0 0 1000 600" xmlns="http://www.w3.org/2000/svg" xmlns:xlink="http://www.w3.org/1999/xlink" width="100%" height="100%">

<rect x="50.0" y="30.0" width="940.0" height="467.99999999999994" stroke="#000" fill="#EEE"/>
<line x1="42.0" y1="497.9999999999999" x2="50.0" y2="497.9999999999999" stroke="#000"/>
<text x="26.000000000000004" y="497.9999999999999" text-anchor="end" font-weight="bold" font-size="small" fill="#111">
0.0
</text>
<line x1="42.0" y1="442.1841284888919" x2="50.0" y2="442.1841284888919" stroke="#000"/>
<text x="26.000000000000004" y="442.1841284888919" text-anchor="end" font-weight="bold" font-size="small" fill="#111">
0.2
</text>
<line x1="42.0" y1="386.36825697778386" x2="50.0" y2="386.36825697778386" stroke="#000"/>
<text x="26.000000000000004" y="386.36825697778386" text-anchor="end" font-weight="bold" font-size="small" fill="#111">
0.4
</text>
<line x1="42.0" y1="330.55238546667584" x2="50.0" y2="330.55238546667584" stroke="#000"/>
<text x="26.000000000000004" y="330.55238546667584" text-anchor="end" font-weight="bold" font-size="small" fill="#111">
0.6
</text>
<line x1="42.0" y1="274.7365139555678" x2="50.0" y2="274.7365139555678" stroke="#000"/>
<text x="26.000000000000004" y="274.7365139555678" text-anchor="end" font-weight="bold" font-size="small" fill="#111">
0.8
</text>
<line x1="42.0" y1="218.92064244445976" x2="50.0" y2="218.92064244445976" stroke="#000"/>
<text x="26.000000000000004" y="218.92064244445976" text-anchor="end" font-weight="bold" font-size="small" fill="#111">
1.0
</text>
<line x1="42.0" y1="163.10477093335174" x2="50.0" y2="163.10477093335174" stroke="#000"/>
<text x="26.000000000000004" y="163.10477093335174" text-anchor="end" font-weight="bold" font-size="small" fill="#111">
1.2
</text>
<line x1="42.0" y1="107.28889942224376" x2="50.0" y2="107.28889942224376" stroke="#000"/>
<text x="26.000000000000004" y="107.28889942224376" text-anchor="end" font-weight="bold" font-size="small" fill="#111">
1.4
</text>
<rect x="268.5" y="36.00000000000001" width="80.0" height="18.0" fill="#7070f8" stroke="#888"/>
<text x="308.5" y="52.50000000000001" font-size="small" text-anchor="middle" font-weight="bold" fill="#EEE">
No JIT
</text>
<rect x="691.4999999999999" y="36.00000000000001" width="80.0" height="18.0" fill="orange" stroke="#888"/>
<text x="731.4999999999999" y="52.50000000000001" font-size="small" text-anchor="middle" font-weight="bold" fill="#EEE">
YJIT
</text>
<rect x="97.0" y="218.92064244445976" width="31.333333333333332" height="279.0793575555402" fill="#7070f8" data-tooltip="1.00x baseline speed (No JIT)"/>
<line x1="97.0" y1="218.32088962764902" x2="128.33333333333331" y2="218.32088962764902" stroke="#000"/>
<line x1="97.0" y1="219.52039526127052" x2="128.33333333333331" y2="219.52039526127052" stroke="#000"/>
<line x1="112.66666666666667" y1="218.32088962764902" x2="112.66666666666667" y2="219.52039526127052" stroke="#000"/>
<rect x="128.33333333333331" y="143.82591989960292" width="31.333333333333332" height="354.174080100397" fill="orange" data-tooltip="1.27x baseline speed (YJIT)"/>
<line x1="128.33333333333331" y1="142.71043938131442" x2="159.66666666666666" y2="142.71043938131442" stroke="#000"/>
<line x1="128.33333333333331" y1="144.94140041789143" x2="159.66666666666666" y2="144.94140041789143" stroke="#000"/>
<line x1="144.0" y1="142.71043938131442" x2="144.0" y2="144.94140041789143" stroke="#000"/>
<line x1="144.00000000000003" y1="498.0" x2="144.00000000000003" y2="502.79999999999995" stroke="#000"/>
<text x="144.00000000000003" y="512.4" fill="#111" font-size="small" font-family="monospace" font-weight="bold" text-anchor="end" transform="rotate(-60, 144.00000000000003, 512.4)">
activerecord
</text>
<rect x="191.0" y="218.92064244445976" width="31.333333333333332" height="279.0793575555402" fill="#7070f8" data-tooltip="1.00x baseline speed (No JIT)"/>
<line x1="191.0" y1="217.16628289238116" x2="222.33333333333331" y2="217.16628289238116" stroke="#000"/>
<line x1="191.0" y1="220.67500199653838" x2="222.33333333333331" y2="220.67500199653838" stroke="#000"/>
<line x1="206.66666666666666" y1="217.16628289238116" x2="206.66666666666666" y2="220.67500199653838" stroke="#000"/>
<rect x="222.33333333333331" y="153.07736890738175" width="31.333333333333332" height="344.92263109261813" fill="orange" data-tooltip="1.24x baseline speed (YJIT)"/>
<line x1="222.33333333333331" y1="148.52691355532454" x2="253.66666666666666" y2="148.52691355532454" stroke="#000"/>
<line x1="222.33333333333331" y1="157.62782425943894" x2="253.66666666666666" y2="157.62782425943894" stroke="#000"/>
<line x1="238.0" y1="148.52691355532454" x2="238.0" y2="157.62782425943894" stroke="#000"/>
<line x1="238.0" y1="498.0" x2="238.0" y2="502.79999999999995" stroke="#000"/>
<text x="238.0" y="512.4" fill="#111" font-size="small" font-family="monospace" font-weight="bold" text-anchor="end" transform="rotate(-60, 238.0, 512.4)">
hexapdf
</text>
<rect x="285.00000000000006" y="218.92064244445976" width="31.333333333333332" height="279.0793575555402" fill="#7070f8" data-tooltip="1.00x baseline speed (No JIT)"/>
<line x1="285.00000000000006" y1="215.04471697313124" x2="316.33333333333337" y2="215.04471697313124" stroke="#000"/>
<line x1="285.00000000000006" y1="222.79656791578827" x2="316.33333333333337" y2="222.79656791578827" stroke="#000"/>
<line x1="300.6666666666667" y1="215.04471697313124" x2="300.6666666666667" y2="222.79656791578827" stroke="#000"/>
<rect x="316.33333333333337" y="166.93091110489448" width="31.333333333333332" height="331.06908889510544" fill="orange" data-tooltip="1.19x baseline speed (YJIT)"/>
<line x1="316.33333333333337" y1="159.24018534338938" x2="347.6666666666667" y2="159.24018534338938" stroke="#000"/>
<line x1="316.33333333333337" y1="174.62163686639954" x2="347.6666666666667" y2="174.62163686639954" stroke="#000"/>
<line x1="332.0" y1="159.24018534338938" x2="332.0" y2="174.62163686639954" stroke="#000"/>
<line x1="332.0" y1="498.0" x2="332.0" y2="502.79999999999995" stroke="#000"/>
<text x="332.0" y="512.4" fill="#111" font-size="small" font-family="monospace" font-weight="bold" text-anchor="end" transform="rotate(-60, 332.0, 512.4)">
liquid-c
</text>
<rect x="379.0" y="218.92064244445976" width="31.333333333333332" height="279.0793575555402" fill="#7070f8" data-tooltip="1.00x baseline speed (No JIT)"/>
<line x1="379.0" y1="215.27066600006003" x2="410.3333333333333" y2="215.27066600006003" stroke="#000"/>
<line x1="379.0" y1="222.57061888885949" x2="410.3333333333333" y2="222.57061888885949" stroke="#000"/>
<line x1="394.6666666666667" y1="215.27066600006003" x2="394.6666666666667" y2="222.57061888885949" stroke="#000"/>
<rect x="410.3333333333333" y="100.19999999999999" width="31.333333333333332" height="397.79999999999995" fill="orange" data-tooltip="1.43x baseline speed (YJIT)"/>
<line x1="410.3333333333333" y1="90.23832844160225" x2="441.66666666666663" y2="90.23832844160225" stroke="#000"/>
<line x1="410.3333333333333" y1="110.16167155839773" x2="441.66666666666663" y2="110.16167155839773" stroke="#000"/>
<line x1="426.0" y1="90.23832844160225" x2="426.0" y2="110.16167155839773" stroke="#000"/>
<line x1="426.0" y1="498.0" x2="426.0" y2="502.79999999999995" stroke="#000"/>
<text x="426.0" y="512.4" fill="#111" font-size="small" font-family="monospace" font-weight="bold" text-anchor="end" transform="rotate(-60, 426.0, 512.4)">
liquid-render
</text>
<rect x="473.0" y="218.92064244445976" width="31.333333333333332" height="279.0793575555402" fill="#7070f8" data-tooltip="1.00x baseline speed (No JIT)"/>
<line x1="473.0" y1="218.63378563862497" x2="504.3333333333333" y2="218.63378563862497" stroke="#000"/>
<line x1="473.0" y1="219.20749925029455" x2="504.3333333333333" y2="219.20749925029455" stroke="#000"/>
<line x1="488.66666666666663" y1="218.63378563862497" x2="488.66666666666663" y2="219.20749925029455" stroke="#000"/>
<rect x="504.3333333333333" y="178.65219295946935" width="31.333333333333332" height="319.3478070405306" fill="orange" data-tooltip="1.14x baseline speed (YJIT)"/>
<line x1="504.3333333333333" y1="177.9197010092443" x2="535.6666666666666" y2="177.9197010092443" stroke="#000"/>
<line x1="504.3333333333333" y1="179.3846849096944" x2="535.6666666666666" y2="179.3846849096944" stroke="#000"/>
<line x1="520.0" y1="177.9197010092443" x2="520.0" y2="179.3846849096944" stroke="#000"/>
<line x1="520.0" y1="498.0" x2="520.0" y2="502.79999999999995" stroke="#000"/>
<text x="520.0" y="512.4" fill="#111" font-size="small" font-family="monospace" font-weight="bold" text-anchor="end" transform="rotate(-60, 520.0, 512.4)">
mail
</text>
<rect x="567.0" y="218.92064244445976" width="31.333333333333332" height="279.0793575555402" fill="#7070f8" data-tooltip="1.00x baseline speed (No JIT)"/>
<line x1="567.0" y1="218.50214323658707" x2="598.3333333333333" y2="218.50214323658707" stroke="#000"/>
<line x1="567.0" y1="219.33914165233244" x2="598.3333333333333" y2="219.33914165233244" stroke="#000"/>
<line x1="582.6666666666666" y1="218.50214323658707" x2="582.6666666666666" y2="219.33914165233244" stroke="#000"/>
<rect x="598.3333333333333" y="143.08182307046724" width="31.333333333333332" height="354.9181769295327" fill="orange" data-tooltip="1.27x baseline speed (YJIT)"/>
<line x1="598.3333333333333" y1="142.46534307378002" x2="629.6666666666666" y2="142.46534307378002" stroke="#000"/>
<line x1="598.3333333333333" y1="143.69830306715448" x2="629.6666666666666" y2="143.69830306715448" stroke="#000"/>
<line x1="614.0" y1="142.46534307378002" x2="614.0" y2="143.69830306715448" stroke="#000"/>
<line x1="614.0" y1="498.0" x2="614.0" y2="502.79999999999995" stroke="#000"/>
<text x="614.0" y="512.4" fill="#111" font-size="small" font-family="monospace" font-weight="bold" text-anchor="end" transform="rotate(-60, 614.0, 512.4)">
psych-load
</text>
<rect x="661.0" y="218.92064244445976" width="31.333333333333332" height="279.0793575555402" fill="#7070f8" data-tooltip="1.00x baseline speed (No JIT)"/>
<line x1="661.0" y1="217.58729790109587" x2="692.3333333333334" y2="217.58729790109587" stroke="#000"/>
<line x1="661.0" y1="220.25398698782368" x2="692.3333333333334" y2="220.25398698782368" stroke="#000"/>
<line x1="676.6666666666667" y1="217.58729790109587" x2="676.6666666666667" y2="220.25398698782368" stroke="#000"/>
<rect x="692.3333333333334" y="131.46541208339553" width="31.333333333333332" height="366.53458791660444" fill="orange" data-tooltip="1.31x baseline speed (YJIT)"/>
<line x1="692.3333333333334" y1="128.08945758882018" x2="723.6666666666666" y2="128.08945758882018" stroke="#000"/>
<line x1="692.3333333333334" y1="134.8413665779709" x2="723.6666666666666" y2="134.8413665779709" stroke="#000"/>
<line x1="708.0000000000001" y1="128.08945758882018" x2="708.0000000000001" y2="134.8413665779709" stroke="#000"/>
<line x1="708.0000000000001" y1="498.0" x2="708.0000000000001" y2="502.79999999999995" stroke="#000"/>
<text x="708.0000000000001" y="512.4" fill="#111" font-size="small" font-family="monospace" font-weight="bold" text-anchor="end" transform="rotate(-60, 708.0000000000001, 512.4)">
railsbench
</text>
<rect x="755.0" y="218.92064244445976" width="31.333333333333332" height="279.0793575555402" fill="#7070f8" data-tooltip="1.00x baseline speed (No JIT)"/>
<line x1="755.0" y1="199.9145987492034" x2="786.3333333333334" y2="199.9145987492034" stroke="#000"/>
<line x1="755.0" y1="237.92668613971614" x2="786.3333333333334" y2="237.92668613971614" stroke="#000"/>
<line x1="770.6666666666667" y1="199.9145987492034" x2="770.6666666666667" y2="237.92668613971614" stroke="#000"/>
<rect x="786.3333333333334" y="190.81368402125543" width="31.333333333333332" height="307.1863159787446" fill="orange" data-tooltip="1.10x baseline speed (YJIT)"/>
<line x1="786.3333333333334" y1="154.23377116838586" x2="817.6666666666666" y2="154.23377116838586" stroke="#000"/>
<line x1="786.3333333333334" y1="227.393596874125" x2="817.6666666666666" y2="227.393596874125" stroke="#000"/>
<line x1="802.0" y1="154.23377116838586" x2="802.0" y2="227.393596874125" stroke="#000"/>
<line x1="802.0" y1="498.0" x2="802.0" y2="502.79999999999995" stroke="#000"/>
<text x="802.0" y="512.4" fill="#111" font-size="small" font-family="monospace" font-weight="bold" text-anchor="end" transform="rotate(-60, 802.0, 512.4)">
ruby-lsp
</text>
<rect x="849.0" y="218.92064244445976" width="31.333333333333332" height="279.0793575555402" fill="#7070f8" data-tooltip="1.00x baseline speed (No JIT)"/>
<line x1="849.0" y1="214.21518777473688" x2="880.3333333333333" y2="214.21518777473688" stroke="#000"/>
<line x1="849.0" y1="223.62609711418264" x2="880.3333333333333" y2="223.62609711418264" stroke="#000"/>
<line x1="864.6666666666667" y1="214.21518777473688" x2="864.6666666666667" y2="223.62609711418264" stroke="#000"/>
<rect x="880.3333333333333" y="215.53525853978948" width="31.333333333333332" height="282.46474146021046" fill="orange" data-tooltip="1.01x baseline speed (YJIT)"/>
<line x1="880.3333333333333" y1="207.7638929790286" x2="911.6666666666666" y2="207.7638929790286" stroke="#000"/>
<line x1="880.3333333333333" y1="223.30662410055038" x2="911.6666666666666" y2="223.30662410055038" stroke="#000"/>
<line x1="896.0" y1="207.7638929790286" x2="896.0" y2="223.30662410055038" stroke="#000"/>
<line x1="896.0" y1="498.0" x2="896.0" y2="502.79999999999995" stroke="#000"/>
<text x="896.0" y="512.4" fill="#111" font-size="small" font-family="monospace" font-weight="bold" text-anchor="end" transform="rotate(-60, 896.0, 512.4)">
sequel
</text>
</svg>