<svg viewBox="0 0 1000 600" xmlns="http://www.w3.org/2000/svg" xmlns:xlink="http://www.w3.org/1999/xlink" width="100%" height="100%">

<rect x="50.0" y="30.0" width="940.0" height="467.99999999999994" stroke="#000" fill="#EEE"/>
<line x1="42.0" y1="497.9999999999999" x2="50.0" y2="497.9999999999999" stroke="#000"/>
<text x="26.000000000000004" y="497.9999999999999" text-anchor="end" font-weight="bold" font-size="small" fill="#111">
0.0
</text>
<line x1="42.0" y1="416.4548952579658" x2="50.0" y2="416.4548952579658" stroke="#000"/>
<text x="26.000000000000004" y="416.4548952579658" text-anchor="end" font-weight="bold" font-size="small" fill="#111">
2.0
</text>
<line x1="42.0" y1="334.9097905159317" x2="50.0" y2="334.9097905159317" stroke="#000"/>
<text x="26.000000000000004" y="334.9097905159317" text-anchor="end" font-weight="bold" font-size="small" fill="#111">
4.0
</text>
<line x1="42.0" y1="253.36468577389763" x2="50.0" y2="253.36468577389763" stroke="#000"/>
<text x="26.000000000000004" y="253.36468577389763" text-anchor="end" font-weight="bold" font-size="small" fill="#111">
6.0
</text>
<line x1="42.0" y1="171.81958103186355" x2="50.0" y2="171.81958103186355" stroke="#000"/>
<text x="26.000000000000004" y="171.81958103186355" text-anchor="end" font-weight="bold" font-size="small" fill="#111">
8.0
</text>
<rect x="268.5" y="36.00000000000001" width="80.0" height="18.0" fill="#7070f8" stroke="#888"/>
<text x="308.5" y="52.50000000000001" font-size="small" text-anchor="middle" font-weight="bold" fill="#EEE">
No JIT
</text>
<rect x="691.4999999999999" y="36.00000000000001" width="80.0" height="18.0" fill="orange" stroke="#888"/>
<text x="731.4999999999999" y="52.50000000000001" font-size="small" text-anchor="middle" font-weight="bold" fill="#EEE">
YJIT
</text>
<rect x="97.0" y="457.2274476289829" width="23.499999999999996" height="40.772552371017056" fill="#7070f8" data-tooltip="1.00x baseline speed (No JIT)"/>
<line x1="97.0" y1="457.2146245528976" x2="120.5" y2="457.2146245528976" stroke="#000"/>
<line x1="97.0" y1="457.24027070506816" x2="120.5" y2="457.24027070506816" stroke="#000"/>
<line x1="108.75" y1="457.2146245528976" x2="108.75" y2="457.24027070506816" stroke="#000"/>
<rect x="120.5" y="339.983684996262" width="23.499999999999996" height="158.01631500373787" fill="orange" data-tooltip="3.88x baseline speed (YJIT)"/>
<line x1="120.5" y1="339.9066374486072" x2="144.0" y2="339.9066374486072" stroke="#000"/>
<line x1="120.5" y1="340.0607325439168" x2="144.0" y2="340.0607325439168" stroke="#000"/>
<line x1="132.25" y1="339.9066374486072" x2="132.25" y2="340.0607325439168" stroke="#000"/>
<line x1="132.25" y1="498.0" x2="132.25" y2="502.79999999999995" stroke="#000"/>
<text x="132.25" y="512.4" fill="#111" font-size="small" font-family="monospace" font-weight="bold" text-anchor="end" transform="rotate(-60, 132.25, 512.4)">
30k_ifelse
</text>
<rect x="167.49999999999997" y="457.2274476289829" width="23.499999999999996" height="40.772552371017056" fill="#7070f8" data-tooltip="1.00x baseline speed (No JIT)"/>
<line x1="167.49999999999997" y1="457.16016107664063" x2="190.99999999999997" y2="457.16016107664063" stroke="#000"/>
<line x1="167.49999999999997" y1="457.2947341813251" x2="190.99999999999997" y2="457.2947341813251" stroke="#000"/>
<line x1="179.25" y1="457.16016107664063" x2="179.25" y2="457.2947341813251" stroke="#000"/>
<rect x="190.99999999999997" y="293.63912309592314" width="23.499999999999996" height="204.36087690407683" fill="orange" data-tooltip="5.01x baseline speed (YJIT)"/>
<line x1="190.99999999999997" y1="293.27724854649176" x2="214.49999999999997" y2="293.27724854649176" stroke="#000"/>
<line x1="190.99999999999997" y1="294.00099764535446" x2="214.49999999999997" y2="294.00099764535446" stroke="#000"/>
<line x1="202.75" y1="293.27724854649176" x2="202.75" y2="294.00099764535446" stroke="#000"/>
<line x1="202.75" y1="498.0" x2="202.75" y2="502.79999999999995" stroke="#000"/>
<text x="202.75" y="512.4" fill="#111" font-size="small" font-family="monospace" font-weight="bold" text-anchor="end" transform="rotate(-60, 202.75, 512.4)">
30k_methods
</text>
<rect x="238.0" y="457.2274476289829" width="23.499999999999996" height="40.772552371017056" fill="#7070f8" data-tooltip="1.00x baseline speed (No JIT)"/>
<line x1="238.0" y1="457.19523624011697" x2="261.5" y2="457.19523624011697" stroke="#000"/>
<line x1="238.0" y1="457.2596590178488" x2="261.5" y2="457.2596590178488" stroke="#000"/>
<line x1="249.75" y1="457.19523624011697" x2="249.75" y2="457.2596590178488" stroke="#000"/>
<rect x="261.5" y="362.4572383987894" width="23.499999999999996" height="135.54276160121054" fill="orange" data-tooltip="3.32x baseline speed (YJIT)"/>
<line x1="261.5" y1="362.33567207561384" x2="285.00000000000006" y2="362.33567207561384" stroke="#000"/>
<line x1="261.5" y1="362.57880472196496" x2="285.00000000000006" y2="362.57880472196496" stroke="#000"/>
<line x1="273.25" y1="362.33567207561384" x2="273.25" y2="362.57880472196496" stroke="#000"/>
<line x1="273.25" y1="498.0" x2="273.25" y2="502.79999999999995" stroke="#000"/>
<text x="273.25" y="512.4" fill="#111" font-size="small" font-family="monospace" font-weight="bold" text-anchor="end" transform="rotate(-60, 273.25, 512.4)">
cfunc_itself
</text>
<rect x="308.5" y="457.2274476289829" width="23.499999999999996" height="40.772552371017056" fill="#7070f8" data-tooltip="1.00x baseline speed (No JIT)"/>
<line x1="308.5" y1="457.04364372224154" x2="332.0" y2="457.04364372224154" stroke="#000"/>
<line x1="308.5" y1="457.41125153572415" x2="332.0" y2="457.41125153572415" stroke="#000"/>
<line x1="320.25" y1="457.04364372224154" x2="320.25" y2="457.41125153572415" stroke="#000"/>
<rect x="332.0" y="334.5682047512474" width="23.499999999999996" height="163.4317952487525" fill="orange" data-tooltip="4.01x baseline speed (YJIT)"/>
<line x1="332.0" y1="333.8313669987275" x2="355.50000000000006" y2="333.8313669987275" stroke="#000"/>
<line x1="332.0" y1="335.3050425037673" x2="355.50000000000006" y2="335.3050425037673" stroke="#000"/>
<line x1="343.75" y1="333.8313669987275" x2="343.75" y2="335.3050425037673" stroke="#000"/>
<line x1="343.75" y1="498.0" x2="343.75" y2="502.79999999999995" stroke="#000"/>
<text x="343.75" y="512.4" fill="#111" font-size="small" font-family="monospace" font-weight="bold" text-anchor="end" transform="rotate(-60, 343.75, 512.4)">
fib
</text>
<rect x="379.0" y="457.2274476289829" width="23.499999999999996" height="40.772552371017056" fill="#7070f8" data-tooltip="1.00x baseline speed (No JIT)"/>
<line x1="379.0" y1="456.3711653794196" x2="402.5" y2="456.3711653794196" stroke="#000"/>
<line x1="379.0" y1="458.08372987854614" x2="402.5" y2="458.08372987854614" stroke="#000"/>
<line x1="390.75" y1="456.3711653794196" x2="390.75" y2="458.08372987854614" stroke="#000"/>
<rect x="402.5" y="323.96473245121433" width="23.499999999999996" height="174.0352675487856" fill="orange" data-tooltip="4.27x baseline speed (YJIT)"/>
<line x1="402.5" y1="320.3091958858234" x2="426.00000000000006" y2="320.3091958858234" stroke="#000"/>
<line x1="402.5" y1="327.6202690166053" x2="426.00000000000006" y2="327.6202690166053" stroke="#000"/>
<line x1="414.25" y1="320.3091958858234" x2="414.25" y2="327.6202690166053" stroke="#000"/>
<line x1="414.25" y1="498.0" x2="414.25" y2="502.79999999999995" stroke="#000"/>
<text x="414.25" y="512.4" fill="#111" font-size="small" font-family="monospace" font-weight="bold" text-anchor="end" transform="rotate(-60, 414.25, 512.4)">
getivar
</text>
<rect x="449.5" y="457.2274476289829" width="23.499999999999996" height="40.772552371017056" fill="#7070f8" data-tooltip="1.00x baseline speed (No JIT)"/>
<line x1="449.5" y1="457.02068689878996" x2="473.00000000000006" y2="457.02068689878996" stroke="#000"/>
<line x1="449.5" y1="457.4342083591758" x2="473.00000000000006" y2="457.4342083591758" stroke="#000"/>
<line x1="461.25" y1="457.02068689878996" x2="461.25" y2="457.4342083591758" stroke="#000"/>
<rect x="473.00000000000006" y="292.1022087646973" width="23.499999999999996" height="205.89779123530263" fill="orange" data-tooltip="5.05x baseline speed (YJIT)"/>
<line x1="473.00000000000006" y1="290.88616795394444" x2="496.50000000000006" y2="290.88616795394444" stroke="#000"/>
<line x1="473.00000000000006" y1="293.3182495754502" x2="496.50000000000006" y2="293.3182495754502" stroke="#000"/>
<line x1="484.75" y1="290.88616795394444" x2="484.75" y2="293.3182495754502" stroke="#000"/>
<line x1="484.75" y1="498.0" x2="484.75" y2="502.79999999999995" stroke="#000"/>
<text x="484.75" y="512.4" fill="#111" font-size="small" font-family="monospace" font-weight="bold" text-anchor="end" transform="rotate(-60, 484.75, 512.4)">
keyword_args
</text>
<rect x="519.9999999999999" y="457.2274476289829" width="23.499999999999996" height="40.772552371017056" fill="#7070f8" data-tooltip="1.00x baseline speed (No JIT)"/>
<line x1="519.9999999999999" y1="456.8242983322551" x2="543.4999999999999" y2="456.8242983322551" stroke="#000"/>
<line x1="519.9999999999999" y1="457.6305969257106" x2="543.4999999999999" y2="457.6305969257106" stroke="#000"/>
<line x1="531.75" y1="456.8242983322551" x2="531.75" y2="457.6305969257106" stroke="#000"/>
<rect x="543.4999999999999" y="100.19999999999999" width="23.499999999999996" height="397.79999999999995" fill="orange" data-tooltip="9.76x baseline speed (YJIT)"/>
<line x1="543.4999999999999" y1="95.62630985460933" x2="566.9999999999999" y2="95.62630985460933" stroke="#000"/>
<line x1="543.4999999999999" y1="104.77369014539065" x2="566.9999999999999" y2="104.77369014539065" stroke="#000"/>
<line x1="555.2499999999999" y1="95.62630985460933" x2="555.2499999999999" y2="104.77369014539065" stroke="#000"/>
<line x1="555.2499999999999" y1="498.0" x2="555.2499999999999" y2="502.79999999999995" stroke="#000"/>
<text x="555.2499999999999" y="512.4" fill="#111" font-size="small" font-family="monospace" font-weight="bold" text-anchor="end" transform="rotate(-60, 555.2499999999999, 512.4)">
respond_to
</text>
<rect x="590.4999999999999" y="457.2274476289829" width="23.499999999999996" height="40.772552371017056" fill="#7070f8" data-tooltip="1.00x baseline speed (No JIT)"/>
<line x1="590.4999999999999" y1="457.0992689563267" x2="613.9999999999999" y2="457.0992689563267" stroke="#000"/>
<line x1="590.4999999999999" y1="457.35562630163906" x2="613.9999999999999" y2="457.35562630163906" stroke="#000"/>
<line x1="602.25" y1="457.0992689563267" x2="602.25" y2="457.35562630163906" stroke="#000"/>
<rect x="613.9999999999999" y="272.0402595970327" width="23.499999999999996" height="225.9597404029673" fill="orange" data-tooltip="5.54x baseline speed (YJIT)"/>
<line x1="613.9999999999999" y1="271.32895144803695" x2="637.4999999999999" y2="271.32895144803695" stroke="#000"/>
<line x1="613.9999999999999" y1="272.75156774602834" x2="637.4999999999999" y2="272.75156774602834" stroke="#000"/>
<line x1="625.7499999999999" y1="271.32895144803695" x2="625.7499999999999" y2="272.75156774602834" stroke="#000"/>
<line x1="625.7499999999999" y1="498.0" x2="625.7499999999999" y2="502.79999999999995" stroke="#000"/>
<text x="625.7499999999999" y="512.4" fill="#111" font-size="small" font-family="monospace" font-weight="bold" text-anchor="end" transform="rotate(-60, 625.7499999999999, 512.4)">
setivar
</text>
<rect x="660.9999999999999" y="457.2274476289829" width="23.499999999999996" height="40.772552371017056" fill="#7070f8" data-tooltip="1.00x baseline speed (No JIT)"/>
<line x1="660.9999999999999" y1="456.97174744796536" x2="684.4999999999999" y2="456.97174744796536" stroke="#000"/>
<line x1="660.9999999999999" y1="457.4831478100004" x2="684.4999999999999" y2="457.4831478100004" stroke="#000"/>
<line x1="672.75" y1="456.97174744796536" x2="672.75" y2="457.4831478100004" stroke="#000"/>
<rect x="684.4999999999999" y="400.14262180584404" width="23.499999999999996" height="97.85737819415587" fill="orange" data-tooltip="2.40x baseline speed (YJIT)"/>
<line x1="684.4999999999999" y1="398.8091588769393" x2="707.9999999999999" y2="398.8091588769393" stroke="#000"/>
<line x1="684.4999999999999" y1="401.4760847347488" x2="707.9999999999999" y2="401.4760847347488" stroke="#000"/>
<line x1="696.2499999999999" y1="398.8091588769393" x2="696.2499999999999" y2="401.4760847347488" stroke="#000"/>
<line x1="696.2499999999999" y1="498.0" x2="696.2499999999999" y2="502.79999999999995" stroke="#000"/>
<text x="696.2499999999999" y="512.4" fill="#111" font-size="small" font-family="monospace" font-weight="bold" text-anchor="end" transform="rotate(-60, 696.2499999999999, 512.4)">
setivar_object
</text>
<rect x="731.4999999999999" y="457.2274476289829" width="23.499999999999996" height="40.772552371017056" fill="#7070f8" data-tooltip="1.00x baseline speed (No JIT)"/>
<line x1="731.4999999999999" y1="457.17822365838003" x2="754.9999999999999" y2="457.17822365838003" stroke="#000"/>
<line x1="731.4999999999999" y1="457.2766715995857" x2="754.9999999999999" y2="457.2766715995857" stroke="#000"/>
<line x1="743.25" y1="457.17822365838003" x2="743.25" y2="457.2766715995857" stroke="#000"/>
<rect x="754.9999999999999" y="399.04234823546994" width="23.499999999999996" height="98.95765176453" fill="orange" data-tooltip="2.43x baseline speed (YJIT)"/>
<line x1="754.9999999999999" y1="398.9226184391056" x2="778.4999999999999" y2="398.9226184391056" stroke="#000"/>
<line x1="754.9999999999999" y1="399.16207803183437" x2="778.4999999999999" y2="399.16207803183437" stroke="#000"/>
<line x1="766.7499999999999" y1="398.9226184391056" x2="766.7499999999999" y2="399.16207803183437" stroke="#000"/>
<line x1="766.7499999999999" y1="498.0" x2="766.7499999999999" y2="502.79999999999995" stroke="#000"/>
<text x="766.7499999999999" y="512.4" fill="#111" font-size="small" font-family="monospace" font-weight="bold" text-anchor="end" transform="rotate(-60, 766.7499999999999, 512.4)">
setivar_young
</text>
<rect x="801.9999999999999" y="457.2274476289829" width="23.499999999999996" height="40.772552371017056" fill="#7070f8" data-tooltip="1.00x baseline speed (No JIT)"/>
<line x1="801.9999999999999" y1="457.0395881568278" x2="825.4999999999999" y2="457.0395881568278" stroke="#000"/>
<line x1="801.9999999999999" y1="457.41530710113796" x2="825.4999999999999" y2="457.41530710113796" stroke="#000"/>
<line x1="813.75" y1="457.0395881568278" x2="813.75" y2="457.41530710113796" stroke="#000"/>
<rect x="825.4999999999999" y="419.34337025171243" width="23.499999999999996" height="78.6566297482875" fill="orange" data-tooltip="1.93x baseline speed (YJIT)"/>
<line x1="825.4999999999999" y1="418.53086374412254" x2="848.9999999999999" y2="418.53086374412254" stroke="#000"/>
<line x1="825.4999999999999" y1="420.15587675930226" x2="848.9999999999999" y2="420.15587675930226" stroke="#000"/>
<line x1="837.2499999999999" y1="418.53086374412254" x2="837.2499999999999" y2="420.15587675930226" stroke="#000"/>
<line x1="837.2499999999999" y1="498.0" x2="837.2499999999999" y2="502.79999999999995" stroke="#000"/>
<text x="837.2499999999999" y="512.4" fill="#111" font-size="small" font-family="monospace" font-weight="bold" text-anchor="end" transform="rotate(-60, 837.2499999999999, 512.4)">
str_concat
</text>
<rect x="872.4999999999999" y="457.2274476289829" width="23.499999999999996" height="40.772552371017056" fill="#7070f8" data-tooltip="1.00x baseline speed (No JIT)"/>
<line x1="872.4999999999999" y1="457.0555471591446" x2="895.9999999999999" y2="457.0555471591446" stroke="#000"/>
<line x1="872.4999999999999" y1="457.39934809882106" x2="895.9999999999999" y2="457.39934809882106" stroke="#000"/>
<line x1="884.25" y1="457.0555471591446" x2="884.25" y2="457.39934809882106" stroke="#000"/>
<rect x="895.9999999999999" y="444.7168199211358" width="23.499999999999996" height="53.28318007886408" fill="orange" data-tooltip="1.31x baseline speed (YJIT)"/>
<line x1="895.9999999999999" y1="444.4761625413448" x2="919.4999999999999" y2="444.4761625413448" stroke="#000"/>
<line x1="895.9999999999999" y1="444.95747730092677" x2="919.4999999999999" y2="444.95747730092677" stroke="#000"/>
<line x1="907.75" y1="444.4761625413448" x2="907.75" y2="444.95747730092677" stroke="#000"/>
<line x1="907.75" y1="498.0" x2="907.75" y2="502.79999999999995" stroke="#000"/>
<text x="907.75" y="512.4" fill="#111" font-size="small" font-family="monospace" font-weight="bold" text-anchor="end" transform="rotate(-60, 907.75, 512.4)">
throw
</text>
</svg>