<svg viewBox="0 0 1000 600" xmlns="http://www.w3.org/2000/svg" xmlns:xlink="http://www.w3.org/1999/xlink" width="100%" height="100%">

<rect x="50.0" y="30.0" width="940.0" height="467.99999999999994" stroke="#000" fill="#EEE"/>
<line x1="42.0" y1="497.9999999999999" x2="50.0" y2="497.9999999999999" stroke="#000"/>
<text x="26.000000000000004" y="497.9999999999999" text-anchor="end" font-weight="bold" font-size="small" fill="#111">
0.0
</text>
<line x1="42.0" y1="441.16489478798616" x2="50.0" y2="441.16489478798616" stroke="#000"/>
<text x="26.000000000000004" y="441.16489478798616" text-anchor="end" font-weight="bold" font-size="small" fill="#111">
1.0
</text>
<line x1="42.0" y1="384.3297895759725" x2="50.0" y2="384.3297895759725" stroke="#000"/>
<text x="26.000000000000004" y="384.3297895759725" text-anchor="end" font-weight="bold" font-size="small" fill="#111">
2.0
</text>
<line x1="42.0" y1="327.4946843639588" x2="50.0" y2="327.4946843639588" stroke="#000"/>
<text x="26.000000000000004" y="327.4946843639588" text-anchor="end" font-weight="bold" font-size="small" fill="#111">
3.0
</text>
<line x1="42.0" y1="270.6595791519451" x2="50.0" y2="270.6595791519451" stroke="#000"/>
<text x="26.000000000000004" y="270.6595791519451" text-anchor="end" font-weight="bold" font-size="small" fill="#111">
4.0
</text>
<line x1="42.0" y1="213.82447393993135" x2="50.0" y2="213.82447393993135" stroke="#000"/>
<text x="26.000000000000004" y="213.82447393993135" text-anchor="end" font-weight="bold" font-size="small" fill="#111">
5.0
</text>
<line x1="42.0" y1="156.98936872791762" x2="50.0" y2="156.98936872791762" stroke="#000"/>
<text x="26.000000000000004" y="156.98936872791762" text-anchor="end" font-weight="bold" font-size="small" fill="#111">
6.0
</text>
<rect x="268.5" y="36.00000000000001" width="80.0" height="18.0" fill="#7070f8" stroke="#888"/>
<text x="308.5" y="52.50000000000001" font-size="small" text-anchor="middle" font-weight="bold" fill="#EEE">
No JIT
</text>
<rect x="691.4999999999999" y="36.00000000000001" width="80.0" height="18.0" fill="orange" stroke="#888"/>
<text x="731.4999999999999" y="52.50000000000001" font-size="small" text-anchor="middle" font-weight="bold" fill="#EEE">
YJIT
</text>
<rect x="97.0" y="441.16489478798616" width="10.444444444444443" height="56.83510521201372" fill="#7070f8" data-tooltip="1.00x baseline speed (No JIT)"/>
<line x1="97.0" y1="440.86122544922057" x2="107.44444444444446" y2="440.86122544922057" stroke="#000"/>
<line x1="97.0" y1="441.46856412675174" x2="107.44444444444446" y2="441.46856412675174" stroke="#000"/>
<line x1="102.22222222222223" y1="440.86122544922057" x2="102.22222222222223" y2="441.46856412675174" stroke="#000"/>
<rect x="107.44444444444446" y="427.25950227215424" width="10.444444444444443" height="70.74049772784568" fill="orange" data-tooltip="1.24x baseline speed (YJIT)"/>
<line x1="107.44444444444446" y1="426.7907510392641" x2="117.8888888888889" y2="426.7907510392641" stroke="#000"/>
<line x1="107.44444444444446" y1="427.7282535050444" x2="117.8888888888889" y2="427.7282535050444" stroke="#000"/>
<line x1="112.66666666666669" y1="426.7907510392641" x2="112.66666666666669" y2="427.7282535050444" stroke="#000"/>
<line x1="112.66666666666667" y1="498.0" x2="112.66666666666667" y2="502.79999999999995" stroke="#000"/>
<text x="112.66666666666667" y="512.4" fill="#111" font-size="small" font-family="monospace" font-weight="bold" text-anchor="end" transform="rotate(-60, 112.66666666666667, 512.4)">
activerecord
</text>
<rect x="128.33333333333331" y="441.16489478798616" width="10.444444444444443" height="56.83510521201372" fill="#7070f8" data-tooltip="1.00x baseline speed (No JIT)"/>
<line x1="128.33333333333331" y1="440.7683704184129" x2="138.77777777777777" y2="440.7683704184129" stroke="#000"/>
<line x1="128.33333333333331" y1="441.5614191575594" x2="138.77777777777777" y2="441.5614191575594" stroke="#000"/>
<line x1="133.55555555555554" y1="440.7683704184129" x2="133.55555555555554" y2="441.5614191575594" stroke="#000"/>
<rect x="138.77777777777777" y="432.22572423517505" width="10.444444444444443" height="65.77427576482496" fill="orange" data-tooltip="1.16x baseline speed (YJIT)"/>
<line x1="138.77777777777777" y1="431.520164224634" x2="149.22222222222223" y2="431.520164224634" stroke="#000"/>
<line x1="138.77777777777777" y1="432.93128424571603" x2="149.22222222222223" y2="432.93128424571603" stroke="#000"/>
<line x1="144.0" y1="431.520164224634" x2="144.0" y2="432.93128424571603" stroke="#000"/>
<line x1="144.0" y1="498.0" x2="144.0" y2="502.79999999999995" stroke="#000"/>
<text x="144.0" y="512.4" fill="#111" font-size="small" font-family="monospace" font-weight="bold" text-anchor="end" transform="rotate(-60, 144.0, 512.4)">
hexapdf
</text>
<rect x="159.66666666666669" y="441.16489478798616" width="10.444444444444443" height="56.83510521201372" fill="#7070f8" data-tooltip="1.00x baseline speed (No JIT)"/>
<line x1="159.66666666666669" y1="440.742124191743" x2="170.11111111111114" y2="440.742124191743" stroke="#000"/>
<line x1="159.66666666666669" y1="441.58766538422935" x2="170.11111111111114" y2="441.58766538422935" stroke="#000"/>
<line x1="164.88888888888889" y1="440.742124191743" x2="164.88888888888889" y2="441.58766538422935" stroke="#000"/>
<rect x="170.11111111111114" y="427.92944265006685" width="10.444444444444443" height="70.07055734993314" fill="orange" data-tooltip="1.23x baseline speed (YJIT)"/>
<line x1="170.11111111111114" y1="427.1256279261467" x2="180.55555555555557" y2="427.1256279261467" stroke="#000"/>
<line x1="170.11111111111114" y1="428.73325737398693" x2="180.55555555555557" y2="428.73325737398693" stroke="#000"/>
<line x1="175.33333333333334" y1="427.1256279261467" x2="175.33333333333334" y2="428.73325737398693" stroke="#000"/>
<line x1="175.33333333333334" y1="498.0" x2="175.33333333333334" y2="502.79999999999995" stroke="#000"/>
<text x="175.33333333333334" y="512.4" fill="#111" font-size="small" font-family="monospace" font-weight="bold" text-anchor="end" transform="rotate(-60, 175.33333333333334, 512.4)">
liquid-render
</text>
<rect x="191.0" y="441.16489478798616" width="10.444444444444443" height="56.83510521201372" fill="#7070f8" data-tooltip="1.00x baseline speed (No JIT)"/>
<line x1="191.0" y1="441.10018518395674" x2="201.44444444444446" y2="441.10018518395674" stroke="#000"/>
<line x1="191.0" y1="441.2296043920156" x2="201.44444444444446" y2="441.2296043920156" stroke="#000"/>
<line x1="196.22222222222223" y1="441.10018518395674" x2="196.22222222222223" y2="441.2296043920156" stroke="#000"/>
<rect x="201.44444444444446" y="435.0053213256996" width="10.444444444444443" height="62.99467867430033" fill="orange" data-tooltip="1.11x baseline speed (YJIT)"/>
<line x1="201.44444444444446" y1="434.8716615721678" x2="211.8888888888889" y2="434.8716615721678" stroke="#000"/>
<line x1="201.44444444444446" y1="435.1389810792314" x2="211.8888888888889" y2="435.1389810792314" stroke="#000"/>
<line x1="206.66666666666666" y1="434.8716615721678" x2="206.66666666666666" y2="435.1389810792314" stroke="#000"/>
<line x1="206.66666666666666" y1="498.0" x2="206.66666666666666" y2="502.79999999999995" stroke="#000"/>
<text x="206.66666666666666" y="512.4" fill="#111" font-size="small" font-family="monospace" font-weight="bold" text-anchor="end" transform="rotate(-60, 206.66666666666666, 512.4)">
mail
</text>
<rect x="222.33333333333331" y="441.16489478798616" width="10.444444444444443" height="56.83510521201372" fill="#7070f8" data-tooltip="1.00x baseline speed (No JIT)"/>
<line x1="222.33333333333331" y1="441.12087925915705" x2="232.77777777777777" y2="441.12087925915705" stroke="#000"/>
<line x1="222.33333333333331" y1="441.20891031681526" x2="232.77777777777777" y2="441.20891031681526" stroke="#000"/>
<line x1="227.55555555555554" y1="441.12087925915705" x2="227.55555555555554" y2="441.20891031681526" stroke="#000"/>
<rect x="232.77777777777777" y="428.9852588402665" width="10.444444444444443" height="69.01474115973348" fill="orange" data-tooltip="1.21x baseline speed (YJIT)"/>
<line x1="232.77777777777777" y1="428.92445944136136" x2="243.22222222222223" y2="428.92445944136136" stroke="#000"/>
<line x1="232.77777777777777" y1="429.04605823917166" x2="243.22222222222223" y2="429.04605823917166" stroke="#000"/>
<line x1="238.0" y1="428.92445944136136" x2="238.0" y2="429.04605823917166" stroke="#000"/>
<line x1="238.0" y1="498.0" x2="238.0" y2="502.79999999999995" stroke="#000"/>
<text x="238.0" y="512.4" fill="#111" font-size="small" font-family="monospace" font-weight="bold" text-anchor="end" transform="rotate(-60, 238.0, 512.4)">
psych-load
</text>
<rect x="253.66666666666666" y="441.16489478798616" width="10.444444444444443" height="56.83510521201372" fill="#7070f8" data-tooltip="1.00x baseline speed (No JIT)"/>
<line x1="253.66666666666666" y1="440.8583317703383" x2="264.1111111111111" y2="440.8583317703383" stroke="#000"/>
<line x1="253.66666666666666" y1="441.4714578056341" x2="264.1111111111111" y2="441.4714578056341" stroke="#000"/>
<line x1="258.8888888888889" y1="440.8583317703383" x2="258.8888888888889" y2="441.4714578056341" stroke="#000"/>
<rect x="264.1111111111111" y="428.9056649762322" width="10.444444444444443" height="69.09433502376774" fill="orange" data-tooltip="1.22x baseline speed (YJIT)"/>
<line x1="264.1111111111111" y1="428.2817058150239" x2="274.5555555555555" y2="428.2817058150239" stroke="#000"/>
<line x1="264.1111111111111" y1="429.52962413744046" x2="274.5555555555555" y2="429.52962413744046" stroke="#000"/>
<line x1="269.3333333333333" y1="428.2817058150239" x2="269.3333333333333" y2="429.52962413744046" stroke="#000"/>
<line x1="269.3333333333333" y1="498.0" x2="269.3333333333333" y2="502.79999999999995" stroke="#000"/>
<text x="269.3333333333333" y="512.4" fill="#111" font-size="small" font-family="monospace" font-weight="bold" text-anchor="end" transform="rotate(-60, 269.3333333333333, 512.4)">
railsbench
</text>
<rect x="285.00000000000006" y="441.16489478798616" width="10.444444444444443" height="56.83510521201372" fill="#7070f8" data-tooltip="1.00x baseline speed (No JIT)"/>
<line x1="285.00000000000006" y1="437.03957317036344" x2="295.44444444444446" y2="437.03957317036344" stroke="#000"/>
<line x1="285.00000000000006" y1="445.2902164056089" x2="295.44444444444446" y2="445.2902164056089" stroke="#000"/>
<line x1="290.2222222222223" y1="437.03957317036344" x2="290.2222222222223" y2="445.2902164056089" stroke="#000"/>
<rect x="295.44444444444446" y="439.02236127115526" width="10.444444444444443" height="58.97763872884467" fill="orange" data-tooltip="1.04x baseline speed (YJIT)"/>
<line x1="295.44444444444446" y1="431.21750041892165" x2="305.88888888888886" y2="431.21750041892165" stroke="#000"/>
<line x1="295.44444444444446" y1="446.82722212338894" x2="305.88888888888886" y2="446.82722212338894" stroke="#000"/>
<line x1="300.6666666666667" y1="431.21750041892165" x2="300.6666666666667" y2="446.82722212338894" stroke="#000"/>
<line x1="300.6666666666667" y1="498.0" x2="300.6666666666667" y2="502.79999999999995" stroke="#000"/>
<text x="300.6666666666667" y="512.4" fill="#111" font-size="small" font-family="monospace" font-weight="bold" text-anchor="end" transform="rotate(-60, 300.6666666666667, 512.4)">
ruby-lsp
</text>
<rect x="316.33333333333337" y="441.16489478798616" width="10.444444444444443" height="56.83510521201372" fill="#7070f8" data-tooltip="1.00x baseline speed (No JIT)"/>
<line x1="316.33333333333337" y1="440.98036377913695" x2="326.77777777777777" y2="440.98036377913695" stroke="#000"/>
<line x1="316.33333333333337" y1="441.3494257968354" x2="326.77777777777777" y2="441.3494257968354" stroke="#000"/>
<line x1="321.5555555555556" y1="440.98036377913695" x2="321.5555555555556" y2="441.3494257968354" stroke="#000"/>
<rect x="326.77777777777777" y="393.99999948156244" width="10.444444444444443" height="104.00000051843753" fill="orange" data-tooltip="1.83x baseline speed (YJIT)"/>
<line x1="326.77777777777777" y1="393.5947778515913" x2="337.22222222222223" y2="393.5947778515913" stroke="#000"/>
<line x1="326.77777777777777" y1="394.40522111153354" x2="337.22222222222223" y2="394.40522111153354" stroke="#000"/>
<line x1="332.0" y1="393.5947778515913" x2="332.0" y2="394.40522111153354" stroke="#000"/>
<line x1="332.0" y1="498.0" x2="332.0" y2="502.79999999999995" stroke="#000"/>
<text x="332.0" y="512.4" fill="#111" font-size="small" font-family="monospace" font-weight="bold" text-anchor="end" transform="rotate(-60, 332.0, 512.4)">
binarytrees
</text>
<rect x="347.6666666666667" y="441.16489478798616" width="10.444444444444443" height="56.83510521201372" fill="#7070f8" data-tooltip="1.00x baseline speed (No JIT)"/>
<line x1="347.6666666666667" y1="440.8999687435357" x2="358.1111111111111" y2="440.8999687435357" stroke="#000"/>
<line x1="347.6666666666667" y1="441.4298208324367" x2="358.1111111111111" y2="441.4298208324367" stroke="#000"/>
<line x1="352.8888888888889" y1="440.8999687435357" x2="352.8888888888889" y2="441.4298208324367" stroke="#000"/>
<rect x="358.1111111111111" y="414.0180813439406" width="10.444444444444443" height="83.9819186560593" fill="orange" data-tooltip="1.48x baseline speed (YJIT)"/>
<line x1="358.1111111111111" y1="413.6124844728409" x2="368.55555555555554" y2="413.6124844728409" stroke="#000"/>
<line x1="358.1111111111111" y1="414.42367821504035" x2="368.55555555555554" y2="414.42367821504035" stroke="#000"/>
<line x1="363.3333333333333" y1="413.6124844728409" x2="363.3333333333333" y2="414.42367821504035" stroke="#000"/>
<line x1="363.3333333333333" y1="498.0" x2="363.3333333333333" y2="502.79999999999995" stroke="#000"/>
<text x="363.3333333333333" y="512.4" fill="#111" font-size="small" font-family="monospace" font-weight="bold" text-anchor="end" transform="rotate(-60, 363.3333333333333, 512.4)">
chunky_png
</text>
<rect x="379.0" y="441.16489478798616" width="10.444444444444443" height="56.83510521201372" fill="#7070f8" data-tooltip="1.00x baseline speed (No JIT)"/>
<line x1="379.0" y1="440.65194559354313" x2="389.4444444444444" y2="440.65194559354313" stroke="#000"/>
<line x1="379.0" y1="441.67784398242924" x2="389.4444444444444" y2="441.67784398242924" stroke="#000"/>
<line x1="384.22222222222223" y1="440.65194559354313" x2="384.22222222222223" y2="441.67784398242924" stroke="#000"/>
<rect x="389.4444444444444" y="437.9737624961612" width="10.444444444444443" height="60.026237503838765" fill="orange" data-tooltip="1.06x baseline speed (YJIT)"/>
<line x1="389.4444444444444" y1="437.0851223517899" x2="399.88888888888886" y2="437.0851223517899" stroke="#000"/>
<line x1="389.4444444444444" y1="438.86240264053254" x2="399.88888888888886" y2="438.86240264053254" stroke="#000"/>
<line x1="394.6666666666667" y1="437.0851223517899" x2="394.6666666666667" y2="438.86240264053254" stroke="#000"/>
<line x1="394.6666666666667" y1="498.0" x2="394.6666666666667" y2="502.79999999999995" stroke="#000"/>
<text x="394.6666666666667" y="512.4" fill="#111" font-size="small" font-family="monospace" font-weight="bold" text-anchor="end" transform="rotate(-60, 394.6666666666667, 512.4)">
erubi
</text>
<rect x="410.3333333333333" y="441.16489478798616" width="10.444444444444443" height="56.83510521201372" fill="#7070f8" data-tooltip="1.00x baseline speed (No JIT)"/>
<line x1="410.3333333333333" y1="439.8453251313141" x2="420.77777777777777" y2="439.8453251313141" stroke="#000"/>
<line x1="410.3333333333333" y1="442.4844644446583" x2="420.77777777777777" y2="442.4844644446583" stroke="#000"/>
<line x1="415.55555555555554" y1="439.8453251313141" x2="415.55555555555554" y2="442.4844644446583" stroke="#000"/>
<rect x="420.77777777777777" y="427.81868476763873" width="10.444444444444443" height="70.18131523236123" fill="orange" data-tooltip="1.23x baseline speed (YJIT)"/>
<line x1="420.77777777777777" y1="425.4869336608448" x2="431.2222222222222" y2="425.4869336608448" stroke="#000"/>
<line x1="420.77777777777777" y1="430.15043587443273" x2="431.2222222222222" y2="430.15043587443273" stroke="#000"/>
<line x1="426.0" y1="425.4869336608448" x2="426.0" y2="430.15043587443273" stroke="#000"/>
<line x1="426.0" y1="498.0" x2="426.0" y2="502.79999999999995" stroke="#000"/>
<text x="426.0" y="512.4" fill="#111" font-size="small" font-family="monospace" font-weight="bold" text-anchor="end" transform="rotate(-60, 426.0, 512.4)">
erubi_rails
</text>
<rect x="441.66666666666663" y="441.16489478798616" width="10.444444444444443" height="56.83510521201372" fill="#7070f8" data-tooltip="1.00x baseline speed (No JIT)"/>
<line x1="441.66666666666663" y1="440.94064315891615" x2="452.1111111111111" y2="440.94064315891615" stroke="#000"/>
<line x1="441.66666666666663" y1="441.3891464170562" x2="452.1111111111111" y2="441.3891464170562" stroke="#000"/>
<line x1="446.8888888888889" y1="440.94064315891615" x2="446.8888888888889" y2="441.3891464170562" stroke="#000"/>
<rect x="452.1111111111111" y="442.4211077922738" width="10.444444444444443" height="55.5788922077261" fill="orange" data-tooltip="0.98x baseline speed (YJIT)"/>
<line x1="452.1111111111111" y1="442.0856811138872" x2="462.5555555555555" y2="442.0856811138872" stroke="#000"/>
<line x1="452.1111111111111" y1="442.7565344706604" x2="462.5555555555555" y2="442.7565344706604" stroke="#000"/>
<line x1="457.3333333333333" y1="442.0856811138872" x2="457.3333333333333" y2="442.7565344706604" stroke="#000"/>
<line x1="457.3333333333333" y1="498.0" x2="457.3333333333333" y2="502.79999999999995" stroke="#000"/>
<text x="457.3333333333333" y="512.4" fill="#111" font-size="small" font-family="monospace" font-weight="bold" text-anchor="end" transform="rotate(-60, 457.3333333333333, 512.4)">
etanni
</text>
<rect x="473.0" y="441.16489478798616" width="10.444444444444443" height="56.83510521201372" fill="#7070f8" data-tooltip="1.00x baseline speed (No JIT)"/>
<line x1="473.0" y1="440.7080476794836" x2="483.4444444444444" y2="440.7080476794836" stroke="#000"/>
<line x1="473.0" y1="441.6217418964887" x2="483.4444444444444" y2="441.6217418964887" stroke="#000"/>
<line x1="478.22222222222223" y1="440.7080476794836" x2="478.22222222222223" y2="441.6217418964887" stroke="#000"/>
<rect x="483.4444444444444" y="363.86210126569813" width="10.444444444444443" height="134.13789873430176" fill="orange" data-tooltip="2.36x baseline speed (YJIT)"/>
<line x1="483.4444444444444" y1="362.75159292996915" x2="493.8888888888888" y2="362.75159292996915" stroke="#000"/>
<line x1="483.4444444444444" y1="364.9726096014271" x2="493.8888888888888" y2="364.9726096014271" stroke="#000"/>
<line x1="488.66666666666663" y1="362.75159292996915" x2="488.66666666666663" y2="364.9726096014271" stroke="#000"/>
<line x1="488.66666666666663" y1="498.0" x2="488.66666666666663" y2="502.79999999999995" stroke="#000"/>
<text x="488.66666666666663" y="512.4" fill="#111" font-size="small" font-family="monospace" font-weight="bold" text-anchor="end" transform="rotate(-60, 488.66666666666663, 512.4)">
fannkuchredux
</text>
<rect x="504.3333333333333" y="441.16489478798616" width="10.444444444444443" height="56.83510521201372" fill="#7070f8" data-tooltip="1.00x baseline speed (No JIT)"/>
<line x1="504.3333333333333" y1="440.23093330698646" x2="514.7777777777778" y2="440.23093330698646" stroke="#000"/>
<line x1="504.3333333333333" y1="442.0988562689859" x2="514.7777777777778" y2="442.0988562689859" stroke="#000"/>
<line x1="509.55555555555554" y1="440.23093330698646" x2="509.55555555555554" y2="442.0988562689859" stroke="#000"/>
<rect x="514.7777777777778" y="424.18634829163125" width="10.444444444444443" height="73.81365170836867" fill="orange" data-tooltip="1.30x baseline speed (YJIT)"/>
<line x1="514.7777777777778" y1="422.96776537164425" x2="525.2222222222223" y2="422.96776537164425" stroke="#000"/>
<line x1="514.7777777777778" y1="425.40493121161825" x2="525.2222222222223" y2="425.40493121161825" stroke="#000"/>
<line x1="520.0" y1="422.96776537164425" x2="520.0" y2="425.40493121161825" stroke="#000"/>
<line x1="520.0" y1="498.0" x2="520.0" y2="502.79999999999995" stroke="#000"/>
<text x="520.0" y="512.4" fill="#111" font-size="small" font-family="monospace" font-weight="bold" text-anchor="end" transform="rotate(-60, 520.0, 512.4)">
lee
</text>
<rect x="535.6666666666666" y="441.16489478798616" width="10.444444444444443" height="56.83510521201372" fill="#7070f8" data-tooltip="1.00x baseline speed (No JIT)"/>
<line x1="535.6666666666666" y1="440.5758599687893" x2="546.1111111111111" y2="440.5758599687893" stroke="#000"/>
<line x1="535.6666666666666" y1="441.753929607183" x2="546.1111111111111" y2="441.753929607183" stroke="#000"/>
<line x1="540.8888888888889" y1="440.5758599687893" x2="540.8888888888889" y2="441.753929607183" stroke="#000"/>
<rect x="546.1111111111111" y="408.00461534704107" width="10.444444444444443" height="89.99538465295885" fill="orange" data-tooltip="1.58x baseline speed (YJIT)"/>
<line x1="546.1111111111111" y1="407.0701137722173" x2="556.5555555555555" y2="407.0701137722173" stroke="#000"/>
<line x1="546.1111111111111" y1="408.93911692186475" x2="556.5555555555555" y2="408.93911692186475" stroke="#000"/>
<line x1="551.3333333333334" y1="407.0701137722173" x2="551.3333333333334" y2="408.93911692186475" stroke="#000"/>
<line x1="551.3333333333334" y1="498.0" x2="551.3333333333334" y2="502.79999999999995" stroke="#000"/>
<text x="551.3333333333334" y="512.4" fill="#111" font-size="small" font-family="monospace" font-weight="bold" text-anchor="end" transform="rotate(-60, 551.3333333333334, 512.4)">
nbody
</text>
<rect x="567.0" y="441.16489478798616" width="10.444444444444443" height="56.83510521201372" fill="#7070f8" data-tooltip="1.00x baseline speed (No JIT)"/>
<line x1="567.0" y1="440.89918390700996" x2="577.4444444444445" y2="440.89918390700996" stroke="#000"/>
<line x1="567.0" y1="441.4306056689624" x2="577.4444444444445" y2="441.4306056689624" stroke="#000"/>
<line x1="572.2222222222222" y1="440.89918390700996" x2="572.2222222222222" y2="441.4306056689624" stroke="#000"/>
<rect x="577.4444444444445" y="413.2418648323614" width="10.444444444444443" height="84.75813516763853" fill="orange" data-tooltip="1.49x baseline speed (YJIT)"/>
<line x1="577.4444444444445" y1="412.734699917888" x2="587.8888888888889" y2="412.734699917888" stroke="#000"/>
<line x1="577.4444444444445" y1="413.74902974683476" x2="587.8888888888889" y2="413.74902974683476" stroke="#000"/>
<line x1="582.6666666666666" y1="412.734699917888" x2="582.6666666666666" y2="413.74902974683476" stroke="#000"/>
<line x1="582.6666666666666" y1="498.0" x2="582.6666666666666" y2="502.79999999999995" stroke="#000"/>
<text x="582.6666666666666" y="512.4" fill="#111" font-size="small" font-family="monospace" font-weight="bold" text-anchor="end" transform="rotate(-60, 582.6666666666666, 512.4)">
optcarrot
</text>
<rect x="598.3333333333333" y="441.16489478798616" width="10.444444444444443" height="56.83510521201372" fill="#7070f8" data-tooltip="1.00x baseline speed (No JIT)"/>
<line x1="598.3333333333333" y1="440.93100244814474" x2="608.7777777777777" y2="440.93100244814474" stroke="#000"/>
<line x1="598.3333333333333" y1="441.3987871278276" x2="608.7777777777777" y2="441.3987871278276" stroke="#000"/>
<line x1="603.5555555555555" y1="440.93100244814474" x2="603.5555555555555" y2="441.3987871278276" stroke="#000"/>
<rect x="608.7777777777777" y="410.8014063669712" width="10.444444444444443" height="87.19859363302878" fill="orange" data-tooltip="1.53x baseline speed (YJIT)"/>
<line x1="608.7777777777777" y1="410.25095207641726" x2="619.2222222222223" y2="410.25095207641726" stroke="#000"/>
<line x1="608.7777777777777" y1="411.3518606575251" x2="619.2222222222223" y2="411.3518606575251" stroke="#000"/>
<line x1="614.0" y1="410.25095207641726" x2="614.0" y2="411.3518606575251" stroke="#000"/>
<line x1="614.0" y1="498.0" x2="614.0" y2="502.79999999999995" stroke="#000"/>
<text x="614.0" y="512.4" fill="#111" font-size="small" font-family="monospace" font-weight="bold" text-anchor="end" transform="rotate(-60, 614.0, 512.4)">
rubykon
</text>
<rect x="629.6666666666666" y="441.16489478798616" width="10.444444444444443" height="56.83510521201372" fill="#7070f8" data-tooltip="1.00x baseline speed (No JIT)"/>
<line x1="629.6666666666666" y1="441.00169726565076" x2="640.1111111111111" y2="441.00169726565076" stroke="#000"/>
<line x1="629.6666666666666" y1="441.3280923103216" x2="640.1111111111111" y2="441.3280923103216" stroke="#000"/>
<line x1="634.8888888888888" y1="441.00169726565076" x2="634.8888888888888" y2="441.3280923103216" stroke="#000"/>
<rect x="640.1111111111111" y="366.48272966913555" width="10.444444444444443" height="131.5172703308644" fill="orange" data-tooltip="2.31x baseline speed (YJIT)"/>
<line x1="640.1111111111111" y1="366.10485933190455" x2="650.5555555555555" y2="366.10485933190455" stroke="#000"/>
<line x1="640.1111111111111" y1="366.8606000063665" x2="650.5555555555555" y2="366.8606000063665" stroke="#000"/>
<line x1="645.3333333333333" y1="366.10485933190455" x2="645.3333333333333" y2="366.8606000063665" stroke="#000"/>
<line x1="645.3333333333333" y1="498.0" x2="645.3333333333333" y2="502.79999999999995" stroke="#000"/>
<text x="645.3333333333333" y="512.4" fill="#111" font-size="small" font-family="monospace" font-weight="bold" text-anchor="end" transform="rotate(-60, 645.3333333333333, 512.4)">
setivar_object
</text>
<rect x="660.9999999999999" y="441.16489478798616" width="10.444444444444443" height="56.83510521201372" fill="#7070f8" data-tooltip="1.00x baseline speed (No JIT)"/>
<line x1="660.9999999999999" y1="440.50851082560456" x2="671.4444444444443" y2="440.50851082560456" stroke="#000"/>
<line x1="660.9999999999999" y1="441.82127875036775" x2="671.4444444444443" y2="441.82127875036775" stroke="#000"/>
<line x1="666.2222222222222" y1="440.50851082560456" x2="666.2222222222222" y2="441.82127875036775" stroke="#000"/>
<rect x="671.4444444444443" y="302.9936868595059" width="10.444444444444443" height="195.00631314049406" fill="orange" data-tooltip="3.43x baseline speed (YJIT)"/>
<line x1="671.4444444444443" y1="300.7394036475666" x2="681.8888888888889" y2="300.7394036475666" stroke="#000"/>
<line x1="671.4444444444443" y1="305.24797007144525" x2="681.8888888888889" y2="305.24797007144525" stroke="#000"/>
<line x1="676.6666666666666" y1="300.7394036475666" x2="676.6666666666666" y2="305.24797007144525" stroke="#000"/>
<line x1="676.6666666666666" y1="498.0" x2="676.6666666666666" y2="502.79999999999995" stroke="#000"/>
<text x="676.6666666666666" y="512.4" fill="#111" font-size="small" font-family="monospace" font-weight="bold" text-anchor="end" transform="rotate(-60, 676.6666666666666, 512.4)">
30k_ifelse
</text>
<rect x="692.3333333333333" y="441.16489478798616" width="10.444444444444443" height="56.83510521201372" fill="#7070f8" data-tooltip="1.00x baseline speed (No JIT)"/>
<line x1="692.3333333333333" y1="441.1307418846087" x2="702.7777777777777" y2="441.1307418846087" stroke="#000"/>
<line x1="692.3333333333333" y1="441.1990476913636" x2="702.7777777777777" y2="441.1990476913636" stroke="#000"/>
<line x1="697.5555555555554" y1="441.1307418846087" x2="697.5555555555554" y2="441.1990476913636" stroke="#000"/>
<rect x="702.7777777777777" y="252.90394965197916" width="10.444444444444443" height="245.09605034802078" fill="orange" data-tooltip="4.31x baseline speed (YJIT)"/>
<line x1="702.7777777777777" y1="252.61186043482755" x2="713.2222222222222" y2="252.61186043482755" stroke="#000"/>
<line x1="702.7777777777777" y1="253.19603886913077" x2="713.2222222222222" y2="253.19603886913077" stroke="#000"/>
<line x1="708.0" y1="252.61186043482755" x2="708.0" y2="253.19603886913077" stroke="#000"/>
<line x1="708.0" y1="498.0" x2="708.0" y2="502.79999999999995" stroke="#000"/>
<text x="708.0" y="512.4" fill="#111" font-size="small" font-family="monospace" font-weight="bold" text-anchor="end" transform="rotate(-60, 708.0, 512.4)">
30k_methods
</text>
<rect x="723.6666666666665" y="441.16489478798616" width="10.444444444444443" height="56.83510521201372" fill="#7070f8" data-tooltip="1.00x baseline speed (No JIT)"/>
<line x1="723.6666666666665" y1="441.1436725768786" x2="734.1111111111111" y2="441.1436725768786" stroke="#000"/>
<line x1="723.6666666666665" y1="441.18611699909377" x2="734.1111111111111" y2="441.18611699909377" stroke="#000"/>
<line x1="728.8888888888888" y1="441.1436725768786" x2="728.8888888888888" y2="441.18611699909377" stroke="#000"/>
<rect x="734.1111111111111" y="352.07951843288606" width="10.444444444444443" height="145.92048156711385" fill="orange" data-tooltip="2.57x baseline speed (YJIT)"/>
<line x1="734.1111111111111" y1="352.0168081880162" x2="744.5555555555555" y2="352.0168081880162" stroke="#000"/>
<line x1="734.1111111111111" y1="352.14222867775595" x2="744.5555555555555" y2="352.14222867775595" stroke="#000"/>
<line x1="739.3333333333333" y1="352.0168081880162" x2="739.3333333333333" y2="352.14222867775595" stroke="#000"/>
<line x1="739.3333333333333" y1="498.0" x2="739.3333333333333" y2="502.79999999999995" stroke="#000"/>
<text x="739.3333333333333" y="512.4" fill="#111" font-size="small" font-family="monospace" font-weight="bold" text-anchor="end" transform="rotate(-60, 739.3333333333333, 512.4)">
cfunc_itself
</text>
<rect x="754.9999999999999" y="441.16489478798616" width="10.444444444444443" height="56.83510521201372" fill="#7070f8" data-tooltip="1.00x baseline speed (No JIT)"/>
<line x1="754.9999999999999" y1="439.8576293550409" x2="765.4444444444443" y2="439.8576293550409" stroke="#000"/>
<line x1="754.9999999999999" y1="442.4721602209314" x2="765.4444444444443" y2="442.4721602209314" stroke="#000"/>
<line x1="760.2222222222222" y1="439.8576293550409" x2="760.2222222222222" y2="442.4721602209314" stroke="#000"/>
<rect x="765.4444444444443" y="326.4313325174262" width="10.444444444444443" height="171.56866748257372" fill="orange" data-tooltip="3.02x baseline speed (YJIT)"/>
<line x1="765.4444444444443" y1="322.48505319631636" x2="775.8888888888888" y2="322.48505319631636" stroke="#000"/>
<line x1="765.4444444444443" y1="330.37761183853604" x2="775.8888888888888" y2="330.37761183853604" stroke="#000"/>
<line x1="770.6666666666666" y1="322.48505319631636" x2="770.6666666666666" y2="330.37761183853604" stroke="#000"/>
<line x1="770.6666666666666" y1="498.0" x2="770.6666666666666" y2="502.79999999999995" stroke="#000"/>
<text x="770.6666666666666" y="512.4" fill="#111" font-size="small" font-family="monospace" font-weight="bold" text-anchor="end" transform="rotate(-60, 770.6666666666666, 512.4)">
fib
</text>
<rect x="786.3333333333333" y="441.16489478798616" width="10.444444444444443" height="56.83510521201372" fill="#7070f8" data-tooltip="1.00x baseline speed (No JIT)"/>
<line x1="786.3333333333333" y1="440.3678946284287" x2="796.7777777777777" y2="440.3678946284287" stroke="#000"/>
<line x1="786.3333333333333" y1="441.9618949475436" x2="796.7777777777777" y2="441.9618949475436" stroke="#000"/>
<line x1="791.5555555555554" y1="440.3678946284287" x2="791.5555555555554" y2="441.9618949475436" stroke="#000"/>
<rect x="796.7777777777777" y="373.1271497935997" width="10.444444444444443" height="124.8728502064002" fill="orange" data-tooltip="2.20x baseline speed (YJIT)"/>
<line x1="796.7777777777777" y1="371.3760337770427" x2="807.2222222222222" y2="371.3760337770427" stroke="#000"/>
<line x1="796.7777777777777" y1="374.8782658101567" x2="807.2222222222222" y2="374.8782658101567" stroke="#000"/>
<line x1="801.9999999999999" y1="371.3760337770427" x2="801.9999999999999" y2="374.8782658101567" stroke="#000"/>
<line x1="801.9999999999999" y1="498.0" x2="801.9999999999999" y2="502.79999999999995" stroke="#000"/>
<text x="801.9999999999999" y="512.4" fill="#111" font-size="small" font-family="monospace" font-weight="bold" text-anchor="end" transform="rotate(-60, 801.9999999999999, 512.4)">
getivar
</text>
<rect x="817.6666666666665" y="441.16489478798616" width="10.444444444444443" height="56.83510521201372" fill="#7070f8" data-tooltip="1.00x baseline speed (No JIT)"/>
<line x1="817.6666666666665" y1="441.0097836318095" x2="828.111111111111" y2="441.0097836318095" stroke="#000"/>
<line x1="817.6666666666665" y1="441.32000594416286" x2="828.111111111111" y2="441.32000594416286" stroke="#000"/>
<line x1="822.8888888888888" y1="441.0097836318095" x2="822.8888888888888" y2="441.32000594416286" stroke="#000"/>
<rect x="828.111111111111" y="239.16953126048003" width="10.444444444444443" height="258.8304687395199" fill="orange" data-tooltip="4.55x baseline speed (YJIT)"/>
<line x1="828.111111111111" y1="238.4624705252726" x2="838.5555555555555" y2="238.4624705252726" stroke="#000"/>
<line x1="828.111111111111" y1="239.87659199568748" x2="838.5555555555555" y2="239.87659199568748" stroke="#000"/>
<line x1="833.3333333333333" y1="238.4624705252726" x2="833.3333333333333" y2="239.87659199568748" stroke="#000"/>
<line x1="833.3333333333333" y1="498.0" x2="833.3333333333333" y2="502.79999999999995" stroke="#000"/>
<text x="833.3333333333333" y="512.4" fill="#111" font-size="small" font-family="monospace" font-weight="bold" text-anchor="end" transform="rotate(-60, 833.3333333333333, 512.4)">
keyword_args
</text>
<rect x="849.0" y="441.16489478798616" width="10.444444444444443" height="56.83510521201372" fill="#7070f8" data-tooltip="1.00x baseline speed (No JIT)"/>
<line x1="849.0" y1="440.6726741666799" x2="859.4444444444445" y2="440.6726741666799" stroke="#000"/>
<line x1="849.0" y1="441.6571154092925" x2="859.4444444444445" y2="441.6571154092925" stroke="#000"/>
<line x1="854.2222222222222" y1="440.6726741666799" x2="854.2222222222222" y2="441.6571154092925" stroke="#000"/>
<rect x="859.4444444444445" y="100.19999999999999" width="10.444444444444443" height="397.79999999999995" fill="orange" data-tooltip="7.00x baseline speed (YJIT)"/>
<line x1="859.4444444444445" y1="93.73804068260235" x2="869.8888888888889" y2="93.73804068260235" stroke="#000"/>
<line x1="859.4444444444445" y1="106.66195931739763" x2="869.8888888888889" y2="106.66195931739763" stroke="#000"/>
<line x1="864.6666666666667" y1="93.73804068260235" x2="864.6666666666667" y2="106.66195931739763" stroke="#000"/>
<line x1="864.6666666666667" y1="498.0" x2="864.6666666666667" y2="502.79999999999995" stroke="#000"/>
<text x="864.6666666666667" y="512.4" fill="#111" font-size="small" font-family="monospace" font-weight="bold" text-anchor="end" transform="rotate(-60, 864.6666666666667, 512.4)">
respond_to
</text>
<rect x="880.3333333333333" y="441.16489478798616" width="10.444444444444443" height="56.83510521201372" fill="#7070f8" data-tooltip="1.00x baseline speed (No JIT)"/>
<line x1="880.3333333333333" y1="440.9662997743611" x2="890.7777777777778" y2="440.9662997743611" stroke="#000"/>
<line x1="880.3333333333333" y1="441.36348980161125" x2="890.7777777777778" y2="441.36348980161125" stroke="#000"/>
<line x1="885.5555555555555" y1="440.9662997743611" x2="885.5555555555555" y2="441.36348980161125" stroke="#000"/>
<rect x="890.7777777777778" y="295.6452700275622" width="10.444444444444443" height="202.35472997243772" fill="orange" data-tooltip="3.56x baseline speed (YJIT)"/>
<line x1="890.7777777777778" y1="294.93779394402975" x2="901.2222222222223" y2="294.93779394402975" stroke="#000"/>
<line x1="890.7777777777778" y1="296.35274611109475" x2="901.2222222222223" y2="296.35274611109475" stroke="#000"/>
<line x1="896.0" y1="294.93779394402975" x2="896.0" y2="296.35274611109475" stroke="#000"/>
<line x1="896.0" y1="498.0" x2="896.0" y2="502.79999999999995" stroke="#000"/>
<text x="896.0" y="512.4" fill="#111" font-size="small" font-family="monospace" font-weight="bold" text-anchor="end" transform="rotate(-60, 896.0, 512.4)">
setivar
</text>
<rect x="911.6666666666666" y="441.16489478798616" width="10.444444444444443" height="56.83510521201372" fill="#7070f8" data-tooltip="1.00x baseline speed (No JIT)"/>
<line x1="911.6666666666666" y1="440.6492868768685" x2="922.1111111111111" y2="440.6492868768685" stroke="#000"/>
<line x1="911.6666666666666" y1="441.68050269910384" x2="922.1111111111111" y2="441.68050269910384" stroke="#000"/>
<line x1="916.8888888888889" y1="440.6492868768685" x2="916.8888888888889" y2="441.68050269910384" stroke="#000"/>
<rect x="922.1111111111111" y="409.6979105829002" width="10.444444444444443" height="88.30208941709981" fill="orange" data-tooltip="1.55x baseline speed (YJIT)"/>
<line x1="922.1111111111111" y1="408.4960828646769" x2="932.5555555555555" y2="408.4960828646769" stroke="#000"/>
<line x1="922.1111111111111" y1="410.8997383011234" x2="932.5555555555555" y2="410.8997383011234" stroke="#000"/>
<line x1="927.3333333333334" y1="408.4960828646769" x2="927.3333333333334" y2="410.8997383011234" stroke="#000"/>
<line x1="927.3333333333334" y1="498.0" x2="927.3333333333334" y2="502.79999999999995" stroke="#000"/>
<text x="927.3333333333334" y="512.4" fill="#111" font-size="small" font-family="monospace" font-weight="bold" text-anchor="end" transform="rotate(-60, 927.3333333333334, 512.4)">
str_concat
</text>
</svg>