<svg viewBox="0 0 1000 600" xmlns="http://www.w3.org/2000/svg" xmlns:xlink="http://www.w3.org/1999/xlink" width="100%" height="100%">

<rect x="50.0" y="30.0" width="940.0" height="467.99999999999994" stroke="#000" fill="#EEE"/>
<line x1="42.0" y1="497.9999999999999" x2="50.0" y2="497.9999999999999" stroke="#000"/>
<text x="26.000000000000004" y="497.9999999999999" text-anchor="end" font-weight="bold" font-size="small" fill="#111">
0.0
</text>
<line x1="42.0" y1="442.79747101007985" x2="50.0" y2="442.79747101007985" stroke="#000"/>
<text x="26.000000000000004" y="442.79747101007985" text-anchor="end" font-weight="bold" font-size="small" fill="#111">
0.5
</text>
<line x1="42.0" y1="387.5949420201598" x2="50.0" y2="387.5949420201598" stroke="#000"/>
<text x="26.000000000000004" y="387.5949420201598" text-anchor="end" font-weight="bold" font-size="small" fill="#111">
1.0
</text>
<line x1="42.0" y1="332.3924130302397" x2="50.0" y2="332.3924130302397" stroke="#000"/>
<text x="26.000000000000004" y="332.3924130302397" text-anchor="end" font-weight="bold" font-size="small" fill="#111">
1.5
</text>
<line x1="42.0" y1="277.1898840403196" x2="50.0" y2="277.1898840403196" stroke="#000"/>
<text x="26.000000000000004" y="277.1898840403196" text-anchor="end" font-weight="bold" font-size="small" fill="#111">
2.0
</text>
<line x1="42.0" y1="221.98735505039957" x2="50.0" y2="221.98735505039957" stroke="#000"/>
<text x="26.000000000000004" y="221.98735505039957" text-anchor="end" font-weight="bold" font-size="small" fill="#111">
2.5
</text>
<line x1="42.0" y1="166.78482606047947" x2="50.0" y2="166.78482606047947" stroke="#000"/>
<text x="26.000000000000004" y="166.78482606047947" text-anchor="end" font-weight="bold" font-size="small" fill="#111">
3.0
</text>
<line x1="42.0" y1="111.5822970705594" x2="50.0" y2="111.5822970705594" stroke="#000"/>
<text x="26.000000000000004" y="111.5822970705594" text-anchor="end" font-weight="bold" font-size="small" fill="#111">
3.5
</text>
<rect x="268.5" y="36.00000000000001" width="80.0" height="18.0" fill="#7070f8" stroke="#888"/>
<text x="308.5" y="52.50000000000001" font-size="small" text-anchor="middle" font-weight="bold" fill="#EEE">
No JIT
</text>
<rect x="691.4999999999999" y="36.00000000000001" width="80.0" height="18.0" fill="orange" stroke="#888"/>
<text x="731.4999999999999" y="52.50000000000001" font-size="small" text-anchor="middle" font-weight="bold" fill="#EEE">
YJIT
</text>
<rect x="97.0" y="387.5949420201598" width="28.2" height="110.40505797984017" fill="#7070f8" data-tooltip="1.00x baseline speed (No JIT)"/>
<line x1="97.0" y1="387.3837791769967" x2="125.2" y2="387.3837791769967" stroke="#000"/>
<line x1="97.0" y1="387.80610486332284" x2="125.2" y2="387.80610486332284" stroke="#000"/>
<line x1="111.10000000000001" y1="387.3837791769967" x2="111.10000000000001" y2="387.80610486332284" stroke="#000"/>
<rect x="125.2" y="269.2750127165892" width="28.2" height="228.72498728341074" fill="orange" data-tooltip="2.07x baseline speed (YJIT)"/>
<line x1="125.2" y1="268.76081846852423" x2="153.4" y2="268.76081846852423" stroke="#000"/>
<line x1="125.2" y1="269.78920696465417" x2="153.4" y2="269.78920696465417" stroke="#000"/>
<line x1="139.3" y1="268.76081846852423" x2="139.3" y2="269.78920696465417" stroke="#000"/>
<line x1="139.3" y1="498.0" x2="139.3" y2="502.79999999999995" stroke="#000"/>
<text x="139.3" y="512.4" fill="#111" font-size="small" font-family="monospace" font-weight="bold" text-anchor="end" transform="rotate(-60, 139.3, 512.4)">
binarytrees
</text>
<rect x="181.6" y="387.5949420201598" width="28.2" height="110.40505797984017" fill="#7070f8" data-tooltip="1.00x baseline speed (No JIT)"/>
<line x1="181.6" y1="387.2110882136711" x2="209.79999999999998" y2="387.2110882136711" stroke="#000"/>
<line x1="181.6" y1="387.9787958266485" x2="209.79999999999998" y2="387.9787958266485" stroke="#000"/>
<line x1="195.7" y1="387.2110882136711" x2="195.7" y2="387.9787958266485" stroke="#000"/>
<rect x="209.79999999999998" y="325.73970055520596" width="28.2" height="172.260299444794" fill="orange" data-tooltip="1.56x baseline speed (YJIT)"/>
<line x1="209.79999999999998" y1="325.08759559740645" x2="238.0" y2="325.08759559740645" stroke="#000"/>
<line x1="209.79999999999998" y1="326.3918055130054" x2="238.0" y2="326.3918055130054" stroke="#000"/>
<line x1="223.89999999999998" y1="325.08759559740645" x2="223.89999999999998" y2="326.3918055130054" stroke="#000"/>
<line x1="223.89999999999998" y1="498.0" x2="223.89999999999998" y2="502.79999999999995" stroke="#000"/>
<text x="223.89999999999998" y="512.4" fill="#111" font-size="small" font-family="monospace" font-weight="bold" text-anchor="end" transform="rotate(-60, 223.89999999999998, 512.4)">
chunky_png
</text>
<rect x="266.2" y="387.5949420201598" width="28.2" height="110.40505797984017" fill="#7070f8" data-tooltip="1.00x baseline speed (No JIT)"/>
<line x1="266.2" y1="386.83489916591947" x2="294.4" y2="386.83489916591947" stroke="#000"/>
<line x1="266.2" y1="388.35498487440015" x2="294.4" y2="388.35498487440015" stroke="#000"/>
<line x1="280.3" y1="386.83489916591947" x2="280.3" y2="388.35498487440015" stroke="#000"/>
<rect x="294.4" y="374.54607025353425" width="28.2" height="123.45392974646565" fill="orange" data-tooltip="1.12x baseline speed (YJIT)"/>
<line x1="294.4" y1="372.99221292396396" x2="322.6" y2="372.99221292396396" stroke="#000"/>
<line x1="294.4" y1="376.0999275831046" x2="322.6" y2="376.0999275831046" stroke="#000"/>
<line x1="308.5" y1="372.99221292396396" x2="308.5" y2="376.0999275831046" stroke="#000"/>
<line x1="308.5" y1="498.0" x2="308.5" y2="502.79999999999995" stroke="#000"/>
<text x="308.5" y="512.4" fill="#111" font-size="small" font-family="monospace" font-weight="bold" text-anchor="end" transform="rotate(-60, 308.5, 512.4)">
erubi
</text>
<rect x="350.8" y="387.5949420201598" width="28.2" height="110.40505797984017" fill="#7070f8" data-tooltip="1.00x baseline speed (No JIT)"/>
<line x1="350.8" y1="387.155872692231" x2="379.0" y2="387.155872692231" stroke="#000"/>
<line x1="350.8" y1="388.03401134808854" x2="379.0" y2="388.03401134808854" stroke="#000"/>
<line x1="364.9" y1="387.155872692231" x2="364.9" y2="388.03401134808854" stroke="#000"/>
<rect x="379.0" y="387.7407547279386" width="28.2" height="110.2592452720614" fill="orange" data-tooltip="1.00x baseline speed (YJIT)"/>
<line x1="379.0" y1="387.1187119876323" x2="407.2" y2="387.1187119876323" stroke="#000"/>
<line x1="379.0" y1="388.36279746824493" x2="407.2" y2="388.36279746824493" stroke="#000"/>
<line x1="393.1" y1="387.1187119876323" x2="393.1" y2="388.36279746824493" stroke="#000"/>
<line x1="393.1" y1="498.0" x2="393.1" y2="502.79999999999995" stroke="#000"/>
<text x="393.1" y="512.4" fill="#111" font-size="small" font-family="monospace" font-weight="bold" text-anchor="end" transform="rotate(-60, 393.1, 512.4)">
etanni
</text>
<rect x="435.40000000000003" y="387.5949420201598" width="28.2" height="110.40505797984017" fill="#7070f8" data-tooltip="1.00x baseline speed (No JIT)"/>
<line x1="435.40000000000003" y1="386.0493709135878" x2="463.6" y2="386.0493709135878" stroke="#000"/>
<line x1="435.40000000000003" y1="389.14051312673183" x2="463.6" y2="389.14051312673183" stroke="#000"/>
<line x1="449.5" y1="386.0493709135878" x2="449.5" y2="389.14051312673183" stroke="#000"/>
<rect x="463.6" y="100.19999999999999" width="28.2" height="397.79999999999995" fill="orange" data-tooltip="3.60x baseline speed (YJIT)"/>
<line x1="463.6" y1="94.51411769456004" x2="491.8" y2="94.51411769456004" stroke="#000"/>
<line x1="463.6" y1="105.88588230543994" x2="491.8" y2="105.88588230543994" stroke="#000"/>
<line x1="477.7" y1="94.51411769456004" x2="477.7" y2="105.88588230543994" stroke="#000"/>
<line x1="477.7" y1="498.0" x2="477.7" y2="502.79999999999995" stroke="#000"/>
<text x="477.7" y="512.4" fill="#111" font-size="small" font-family="monospace" font-weight="bold" text-anchor="end" transform="rotate(-60, 477.7, 512.4)">
fannkuchredux
</text>
<rect x="520.0" y="387.5949420201598" width="28.2" height="110.40505797984017" fill="#7070f8" data-tooltip="1.00x baseline speed (No JIT)"/>
<line x1="520.0" y1="387.15905552761757" x2="548.2" y2="387.15905552761757" stroke="#000"/>
<line x1="520.0" y1="388.030828512702" x2="548.2" y2="388.030828512702" stroke="#000"/>
<line x1="534.1" y1="387.15905552761757" x2="534.1" y2="388.030828512702" stroke="#000"/>
<rect x="548.2" y="355.84424227968367" width="28.2" height="142.1557577203163" fill="orange" data-tooltip="1.29x baseline speed (YJIT)"/>
<line x1="548.2" y1="355.17319137338" x2="576.4" y2="355.17319137338" stroke="#000"/>
<line x1="548.2" y1="356.5152931859873" x2="576.4" y2="356.5152931859873" stroke="#000"/>
<line x1="562.3000000000001" y1="355.17319137338" x2="562.3000000000001" y2="356.5152931859873" stroke="#000"/>
<line x1="562.3000000000001" y1="498.0" x2="562.3000000000001" y2="502.79999999999995" stroke="#000"/>
<text x="562.3000000000001" y="512.4" fill="#111" font-size="small" font-family="monospace" font-weight="bold" text-anchor="end" transform="rotate(-60, 562.3000000000001, 512.4)">
lee
</text>
<rect x="604.5999999999999" y="387.5949420201598" width="28.2" height="110.40505797984017" fill="#7070f8" data-tooltip="1.00x baseline speed (No JIT)"/>
<line x1="604.5999999999999" y1="386.8966793868804" x2="632.8" y2="386.8966793868804" stroke="#000"/>
<line x1="604.5999999999999" y1="388.29320465343915" x2="632.8" y2="388.29320465343915" stroke="#000"/>
<line x1="618.6999999999999" y1="386.8966793868804" x2="618.6999999999999" y2="388.29320465343915" stroke="#000"/>
<rect x="632.8" y="289.29386084998447" width="28.2" height="208.70613915001545" fill="orange" data-tooltip="1.89x baseline speed (YJIT)"/>
<line x1="632.8" y1="287.95916669169696" x2="660.9999999999999" y2="287.95916669169696" stroke="#000"/>
<line x1="632.8" y1="290.62855500827203" x2="660.9999999999999" y2="290.62855500827203" stroke="#000"/>
<line x1="646.8999999999999" y1="287.95916669169696" x2="646.8999999999999" y2="290.62855500827203" stroke="#000"/>
<line x1="646.8999999999999" y1="498.0" x2="646.8999999999999" y2="502.79999999999995" stroke="#000"/>
<text x="646.8999999999999" y="512.4" fill="#111" font-size="small" font-family="monospace" font-weight="bold" text-anchor="end" transform="rotate(-60, 646.8999999999999, 512.4)">
nbody
</text>
<rect x="689.1999999999999" y="387.5949420201598" width="28.2" height="110.40505797984017" fill="#7070f8" data-tooltip="1.00x baseline speed (No JIT)"/>
<line x1="689.1999999999999" y1="386.87276732548054" x2="717.4" y2="386.87276732548054" stroke="#000"/>
<line x1="689.1999999999999" y1="388.317116714839" x2="717.4" y2="388.317116714839" stroke="#000"/>
<line x1="703.3" y1="386.87276732548054" x2="703.3" y2="388.317116714839" stroke="#000"/>
<rect x="717.4" y="303.2323555049711" width="28.2" height="194.76764449502883" fill="orange" data-tooltip="1.76x baseline speed (YJIT)"/>
<line x1="717.4" y1="301.6908718227232" x2="745.5999999999999" y2="301.6908718227232" stroke="#000"/>
<line x1="717.4" y1="304.7738391872191" x2="745.5999999999999" y2="304.7738391872191" stroke="#000"/>
<line x1="731.4999999999999" y1="301.6908718227232" x2="731.4999999999999" y2="304.7738391872191" stroke="#000"/>
<line x1="731.4999999999999" y1="498.0" x2="731.4999999999999" y2="502.79999999999995" stroke="#000"/>
<text x="731.4999999999999" y="512.4" fill="#111" font-size="small" font-family="monospace" font-weight="bold" text-anchor="end" transform="rotate(-60, 731.4999999999999, 512.4)">
optcarrot
</text>
<rect x="773.8" y="387.5949420201598" width="28.2" height="110.40505797984017" fill="#7070f8" data-tooltip="1.00x baseline speed (No JIT)"/>
<line x1="773.8" y1="387.45356105683277" x2="801.9999999999999" y2="387.45356105683277" stroke="#000"/>
<line x1="773.8" y1="387.7363229834868" x2="801.9999999999999" y2="387.7363229834868" stroke="#000"/>
<line x1="787.9" y1="387.45356105683277" x2="787.9" y2="387.7363229834868" stroke="#000"/>
<rect x="801.9999999999999" y="363.2925553029104" width="28.2" height="134.70744469708956" fill="orange" data-tooltip="1.22x baseline speed (YJIT)"/>
<line x1="801.9999999999999" y1="363.0953878990109" x2="830.1999999999999" y2="363.0953878990109" stroke="#000"/>
<line x1="801.9999999999999" y1="363.4897227068098" x2="830.1999999999999" y2="363.4897227068098" stroke="#000"/>
<line x1="816.0999999999999" y1="363.0953878990109" x2="816.0999999999999" y2="363.4897227068098" stroke="#000"/>
<line x1="816.0999999999999" y1="498.0" x2="816.0999999999999" y2="502.79999999999995" stroke="#000"/>
<text x="816.0999999999999" y="512.4" fill="#111" font-size="small" font-family="monospace" font-weight="bold" text-anchor="end" transform="rotate(-60, 816.0999999999999, 512.4)">
ruby-json
</text>
<rect x="858.4" y="387.5949420201598" width="28.2" height="110.40505797984017" fill="#7070f8" data-tooltip="1.00x baseline speed (No JIT)"/>
<line x1="858.4" y1="387.14841041621867" x2="886.5999999999999" y2="387.14841041621867" stroke="#000"/>
<line x1="858.4" y1="388.0414736241009" x2="886.5999999999999" y2="388.0414736241009" stroke="#000"/>
<line x1="872.4999999999999" y1="387.14841041621867" x2="872.4999999999999" y2="388.0414736241009" stroke="#000"/>
<rect x="886.5999999999999" y="316.69032055472263" width="28.2" height="181.3096794452773" fill="orange" data-tooltip="1.64x baseline speed (YJIT)"/>
<line x1="886.5999999999999" y1="315.69823464135214" x2="914.8" y2="315.69823464135214" stroke="#000"/>
<line x1="886.5999999999999" y1="317.6824064680932" x2="914.8" y2="317.6824064680932" stroke="#000"/>
<line x1="900.6999999999999" y1="315.69823464135214" x2="900.6999999999999" y2="317.6824064680932" stroke="#000"/>
<line x1="900.6999999999999" y1="498.0" x2="900.6999999999999" y2="502.79999999999995" stroke="#000"/>
<text x="900.6999999999999" y="512.4" fill="#111" font-size="small" font-family="monospace" font-weight="bold" text-anchor="end" transform="rotate(-60, 900.6999999999999, 512.4)">
rubykon
</text>
</svg>