<svg viewBox="0 0 1000 600" xmlns="http://www.w3.org/2000/svg" xmlns:xlink="http://www.w3.org/1999/xlink" width="100%" height="100%">

<rect x="50.0" y="30.0" width="940.0" height="467.99999999999994" stroke="#000" fill="#EEE"/>
<line x1="42.0" y1="497.9999999999999" x2="50.0" y2="497.9999999999999" stroke="#000"/>
<text x="26.000000000000004" y="497.9999999999999" text-anchor="end" font-weight="bold" font-size="small" fill="#111">
0.0
</text>
<line x1="42.0" y1="411.74913264095875" x2="50.0" y2="411.74913264095875" stroke="#000"/>
<text x="26.000000000000004" y="411.74913264095875" text-anchor="end" font-weight="bold" font-size="small" fill="#111">
0.5
</text>
<line x1="42.0" y1="325.49826528191755" x2="50.0" y2="325.49826528191755" stroke="#000"/>
<text x="26.000000000000004" y="325.49826528191755" text-anchor="end" font-weight="bold" font-size="small" fill="#111">
1.0
</text>
<line x1="42.0" y1="239.24739792287636" x2="50.0" y2="239.24739792287636" stroke="#000"/>
<text x="26.000000000000004" y="239.24739792287636" text-anchor="end" font-weight="bold" font-size="small" fill="#111">
1.5
</text>
<line x1="42.0" y1="152.99653056383517" x2="50.0" y2="152.99653056383517" stroke="#000"/>
<text x="26.000000000000004" y="152.99653056383517" text-anchor="end" font-weight="bold" font-size="small" fill="#111">
2.0
</text>
<rect x="268.5" y="36.00000000000001" width="80.0" height="18.0" fill="#7070f8" stroke="#888"/>
<text x="308.5" y="52.50000000000001" font-size="small" text-anchor="middle" font-weight="bold" fill="#EEE">
No JIT
</text>
<rect x="691.4999999999999" y="36.00000000000001" width="80.0" height="18.0" fill="orange" stroke="#888"/>
<text x="731.4999999999999" y="52.50000000000001" font-size="small" text-anchor="middle" font-weight="bold" fill="#EEE">
YJIT
</text>
<rect x="97.0" y="325.49826528191755" width="28.2" height="172.5017347180824" fill="#7070f8" data-tooltip="1.00x baseline speed (No JIT)"/>
<line x1="97.0" y1="325.3578422982435" x2="125.2" y2="325.3578422982435" stroke="#000"/>
<line x1="97.0" y1="325.6386882655916" x2="125.2" y2="325.6386882655916" stroke="#000"/>
<line x1="111.10000000000001" y1="325.3578422982435" x2="111.10000000000001" y2="325.6386882655916" stroke="#000"/>
<rect x="125.2" y="167.16778087756043" width="28.2" height="330.8322191224395" fill="orange" data-tooltip="1.92x baseline speed (YJIT)"/>
<line x1="125.2" y1="166.70698684249155" x2="153.4" y2="166.70698684249155" stroke="#000"/>
<line x1="125.2" y1="167.62857491262932" x2="153.4" y2="167.62857491262932" stroke="#000"/>
<line x1="139.3" y1="166.70698684249155" x2="139.3" y2="167.62857491262932" stroke="#000"/>
<line x1="139.3" y1="498.0" x2="139.3" y2="502.79999999999995" stroke="#000"/>
<text x="139.3" y="512.4" fill="#111" font-size="small" font-family="monospace" font-weight="bold" text-anchor="end" transform="rotate(-60, 139.3, 512.4)">
binarytrees
</text>
<rect x="181.6" y="325.49826528191755" width="28.2" height="172.5017347180824" fill="#7070f8" data-tooltip="1.00x baseline speed (No JIT)"/>
<line x1="181.6" y1="325.0378870441753" x2="209.79999999999998" y2="325.0378870441753" stroke="#000"/>
<line x1="181.6" y1="325.95864351965974" x2="209.79999999999998" y2="325.95864351965974" stroke="#000"/>
<line x1="195.7" y1="325.0378870441753" x2="195.7" y2="325.95864351965974" stroke="#000"/>
<rect x="209.79999999999998" y="241.22692306342762" width="28.2" height="256.77307693657235" fill="orange" data-tooltip="1.49x baseline speed (YJIT)"/>
<line x1="209.79999999999998" y1="240.50563789285337" x2="238.0" y2="240.50563789285337" stroke="#000"/>
<line x1="209.79999999999998" y1="241.94820823400187" x2="238.0" y2="241.94820823400187" stroke="#000"/>
<line x1="223.89999999999998" y1="240.50563789285337" x2="223.89999999999998" y2="241.94820823400187" stroke="#000"/>
<line x1="223.89999999999998" y1="498.0" x2="223.89999999999998" y2="502.79999999999995" stroke="#000"/>
<text x="223.89999999999998" y="512.4" fill="#111" font-size="small" font-family="monospace" font-weight="bold" text-anchor="end" transform="rotate(-60, 223.89999999999998, 512.4)">
chunky_png
</text>
<rect x="266.2" y="325.49826528191755" width="28.2" height="172.5017347180824" fill="#7070f8" data-tooltip="1.00x baseline speed (No JIT)"/>
<line x1="266.2" y1="323.1473129812262" x2="294.4" y2="323.1473129812262" stroke="#000"/>
<line x1="266.2" y1="327.84921758260884" x2="294.4" y2="327.84921758260884" stroke="#000"/>
<line x1="280.3" y1="323.1473129812262" x2="280.3" y2="327.84921758260884" stroke="#000"/>
<rect x="294.4" y="312.63732635005545" width="28.2" height="185.3626736499445" fill="orange" data-tooltip="1.07x baseline speed (YJIT)"/>
<line x1="294.4" y1="309.39145599005576" x2="322.6" y2="309.39145599005576" stroke="#000"/>
<line x1="294.4" y1="315.88319671005513" x2="322.6" y2="315.88319671005513" stroke="#000"/>
<line x1="308.5" y1="309.39145599005576" x2="308.5" y2="315.88319671005513" stroke="#000"/>
<line x1="308.5" y1="498.0" x2="308.5" y2="502.79999999999995" stroke="#000"/>
<text x="308.5" y="512.4" fill="#111" font-size="small" font-family="monospace" font-weight="bold" text-anchor="end" transform="rotate(-60, 308.5, 512.4)">
erubi
</text>
<rect x="350.8" y="325.49826528191755" width="28.2" height="172.5017347180824" fill="#7070f8" data-tooltip="1.00x baseline speed (No JIT)"/>
<line x1="350.8" y1="322.01513289085375" x2="379.0" y2="322.01513289085375" stroke="#000"/>
<line x1="350.8" y1="328.98139767298136" x2="379.0" y2="328.98139767298136" stroke="#000"/>
<line x1="364.9" y1="322.01513289085375" x2="364.9" y2="328.98139767298136" stroke="#000"/>
<rect x="379.0" y="287.8620520619973" width="28.2" height="210.13794793800264" fill="orange" data-tooltip="1.22x baseline speed (YJIT)"/>
<line x1="379.0" y1="281.16580894308584" x2="407.2" y2="281.16580894308584" stroke="#000"/>
<line x1="379.0" y1="294.5582951809088" x2="407.2" y2="294.5582951809088" stroke="#000"/>
<line x1="393.1" y1="281.16580894308584" x2="393.1" y2="294.5582951809088" stroke="#000"/>
<line x1="393.1" y1="498.0" x2="393.1" y2="502.79999999999995" stroke="#000"/>
<text x="393.1" y="512.4" fill="#111" font-size="small" font-family="monospace" font-weight="bold" text-anchor="end" transform="rotate(-60, 393.1, 512.4)">
erubi_rails
</text>
<rect x="435.40000000000003" y="325.49826528191755" width="28.2" height="172.5017347180824" fill="#7070f8" data-tooltip="1.00x baseline speed (No JIT)"/>
<line x1="435.40000000000003" y1="324.8080826356478" x2="463.6" y2="324.8080826356478" stroke="#000"/>
<line x1="435.40000000000003" y1="326.1884479281873" x2="463.6" y2="326.1884479281873" stroke="#000"/>
<line x1="449.5" y1="324.8080826356478" x2="449.5" y2="326.1884479281873" stroke="#000"/>
<rect x="463.6" y="325.18454526263434" width="28.2" height="172.81545473736557" fill="orange" data-tooltip="1.00x baseline speed (YJIT)"/>
<line x1="463.6" y1="323.9089138386175" x2="491.8" y2="323.9089138386175" stroke="#000"/>
<line x1="463.6" y1="326.46017668665127" x2="491.8" y2="326.46017668665127" stroke="#000"/>
<line x1="477.7" y1="323.9089138386175" x2="477.7" y2="326.46017668665127" stroke="#000"/>
<line x1="477.7" y1="498.0" x2="477.7" y2="502.79999999999995" stroke="#000"/>
<text x="477.7" y="512.4" fill="#111" font-size="small" font-family="monospace" font-weight="bold" text-anchor="end" transform="rotate(-60, 477.7, 512.4)">
etanni
</text>
<rect x="520.0" y="325.49826528191755" width="28.2" height="172.5017347180824" fill="#7070f8" data-tooltip="1.00x baseline speed (No JIT)"/>
<line x1="520.0" y1="324.3828077785395" x2="548.2" y2="324.3828077785395" stroke="#000"/>
<line x1="520.0" y1="326.61372278529564" x2="548.2" y2="326.61372278529564" stroke="#000"/>
<line x1="534.1" y1="324.3828077785395" x2="534.1" y2="326.61372278529564" stroke="#000"/>
<rect x="548.2" y="100.19999999999999" width="28.2" height="397.79999999999995" fill="orange" data-tooltip="2.31x baseline speed (YJIT)"/>
<line x1="548.2" y1="97.61895221149166" x2="576.4" y2="97.61895221149166" stroke="#000"/>
<line x1="548.2" y1="102.78104778850832" x2="576.4" y2="102.78104778850832" stroke="#000"/>
<line x1="562.3000000000001" y1="97.61895221149166" x2="562.3000000000001" y2="102.78104778850832" stroke="#000"/>
<line x1="562.3000000000001" y1="498.0" x2="562.3000000000001" y2="502.79999999999995" stroke="#000"/>
<text x="562.3000000000001" y="512.4" fill="#111" font-size="small" font-family="monospace" font-weight="bold" text-anchor="end" transform="rotate(-60, 562.3000000000001, 512.4)">
fannkuchredux
</text>
<rect x="604.5999999999999" y="325.49826528191755" width="28.2" height="172.5017347180824" fill="#7070f8" data-tooltip="1.00x baseline speed (No JIT)"/>
<line x1="604.5999999999999" y1="325.2417723913158" x2="632.8" y2="325.2417723913158" stroke="#000"/>
<line x1="604.5999999999999" y1="325.7547581725193" x2="632.8" y2="325.7547581725193" stroke="#000"/>
<line x1="618.6999999999999" y1="325.2417723913158" x2="618.6999999999999" y2="325.7547581725193" stroke="#000"/>
<rect x="632.8" y="280.1115048170584" width="28.2" height="217.88849518294157" fill="orange" data-tooltip="1.26x baseline speed (YJIT)"/>
<line x1="632.8" y1="276.85221807992764" x2="660.9999999999999" y2="276.85221807992764" stroke="#000"/>
<line x1="632.8" y1="283.3707915541891" x2="660.9999999999999" y2="283.3707915541891" stroke="#000"/>
<line x1="646.8999999999999" y1="276.85221807992764" x2="646.8999999999999" y2="283.3707915541891" stroke="#000"/>
<line x1="646.8999999999999" y1="498.0" x2="646.8999999999999" y2="502.79999999999995" stroke="#000"/>
<text x="646.8999999999999" y="512.4" fill="#111" font-size="small" font-family="monospace" font-weight="bold" text-anchor="end" transform="rotate(-60, 646.8999999999999, 512.4)">
lee
</text>
<rect x="689.1999999999999" y="325.49826528191755" width="28.2" height="172.5017347180824" fill="#7070f8" data-tooltip="1.00x baseline speed (No JIT)"/>
<line x1="689.1999999999999" y1="322.49140149101584" x2="717.4" y2="322.49140149101584" stroke="#000"/>
<line x1="689.1999999999999" y1="328.5051290728193" x2="717.4" y2="328.5051290728193" stroke="#000"/>
<line x1="703.3" y1="322.49140149101584" x2="703.3" y2="328.5051290728193" stroke="#000"/>
<rect x="717.4" y="231.9983323473706" width="28.2" height="266.00166765262935" fill="orange" data-tooltip="1.54x baseline speed (YJIT)"/>
<line x1="717.4" y1="227.35771873957057" x2="745.5999999999999" y2="227.35771873957057" stroke="#000"/>
<line x1="717.4" y1="236.63894595517064" x2="745.5999999999999" y2="236.63894595517064" stroke="#000"/>
<line x1="731.4999999999999" y1="227.35771873957057" x2="731.4999999999999" y2="236.63894595517064" stroke="#000"/>
<line x1="731.4999999999999" y1="498.0" x2="731.4999999999999" y2="502.79999999999995" stroke="#000"/>
<text x="731.4999999999999" y="512.4" fill="#111" font-size="small" font-family="monospace" font-weight="bold" text-anchor="end" transform="rotate(-60, 731.4999999999999, 512.4)">
nbody
</text>
<rect x="773.8" y="325.49826528191755" width="28.2" height="172.5017347180824" fill="#7070f8" data-tooltip="1.00x baseline speed (No JIT)"/>
<line x1="773.8" y1="324.7369339040973" x2="801.9999999999999" y2="324.7369339040973" stroke="#000"/>
<line x1="773.8" y1="326.2595966597378" x2="801.9999999999999" y2="326.2595966597378" stroke="#000"/>
<line x1="787.9" y1="324.7369339040973" x2="787.9" y2="326.2595966597378" stroke="#000"/>
<rect x="801.9999999999999" y="257.63708621716927" width="28.2" height="240.36291378283065" fill="orange" data-tooltip="1.39x baseline speed (YJIT)"/>
<line x1="801.9999999999999" y1="256.17098859730345" x2="830.1999999999999" y2="256.17098859730345" stroke="#000"/>
<line x1="801.9999999999999" y1="259.10318383703515" x2="830.1999999999999" y2="259.10318383703515" stroke="#000"/>
<line x1="816.0999999999999" y1="256.17098859730345" x2="816.0999999999999" y2="259.10318383703515" stroke="#000"/>
<line x1="816.0999999999999" y1="498.0" x2="816.0999999999999" y2="502.79999999999995" stroke="#000"/>
<text x="816.0999999999999" y="512.4" fill="#111" font-size="small" font-family="monospace" font-weight="bold" text-anchor="end" transform="rotate(-60, 816.0999999999999, 512.4)">
optcarrot
</text>
<rect x="858.4" y="325.49826528191755" width="28.2" height="172.5017347180824" fill="#7070f8" data-tooltip="1.00x baseline speed (No JIT)"/>
<line x1="858.4" y1="324.7447739880828" x2="886.5999999999999" y2="324.7447739880828" stroke="#000"/>
<line x1="858.4" y1="326.25175657575227" x2="886.5999999999999" y2="326.25175657575227" stroke="#000"/>
<line x1="872.4999999999999" y1="324.7447739880828" x2="872.4999999999999" y2="326.25175657575227" stroke="#000"/>
<rect x="886.5999999999999" y="233.7682975998339" width="28.2" height="264.23170240016606" fill="orange" data-tooltip="1.53x baseline speed (YJIT)"/>
<line x1="886.5999999999999" y1="232.14908353304216" x2="914.8" y2="232.14908353304216" stroke="#000"/>
<line x1="886.5999999999999" y1="235.38751166662564" x2="914.8" y2="235.38751166662564" stroke="#000"/>
<line x1="900.6999999999999" y1="232.14908353304216" x2="900.6999999999999" y2="235.38751166662564" stroke="#000"/>
<line x1="900.6999999999999" y1="498.0" x2="900.6999999999999" y2="502.79999999999995" stroke="#000"/>
<text x="900.6999999999999" y="512.4" fill="#111" font-size="small" font-family="monospace" font-weight="bold" text-anchor="end" transform="rotate(-60, 900.6999999999999, 512.4)">
rubykon
</text>
</svg>