<svg viewBox="0 0 1000 600" xmlns="http://www.w3.org/2000/svg" xmlns:xlink="http://www.w3.org/1999/xlink" width="100%" height="100%">

<rect x="50.0" y="30.0" width="940.0" height="467.99999999999994" stroke="#000" fill="#EEE"/>
<line x1="42.0" y1="497.9999999999999" x2="50.0" y2="497.9999999999999" stroke="#000"/>
<text x="26.000000000000004" y="497.9999999999999" text-anchor="end" font-weight="bold" font-size="small" fill="#111">
0.0
</text>
<line x1="42.0" y1="444.17849698985606" x2="50.0" y2="444.17849698985606" stroke="#000"/>
<text x="26.000000000000004" y="444.17849698985606" text-anchor="end" font-weight="bold" font-size="small" fill="#111">
1.0
</text>
<line x1="42.0" y1="390.35699397971223" x2="50.0" y2="390.35699397971223" stroke="#000"/>
<text x="26.000000000000004" y="390.35699397971223" text-anchor="end" font-weight="bold" font-size="small" fill="#111">
2.0
</text>
<line x1="42.0" y1="336.5354909695684" x2="50.0" y2="336.5354909695684" stroke="#000"/>
<text x="26.000000000000004" y="336.5354909695684" text-anchor="end" font-weight="bold" font-size="small" fill="#111">
3.0
</text>
<line x1="42.0" y1="282.71398795942457" x2="50.0" y2="282.71398795942457" stroke="#000"/>
<text x="26.000000000000004" y="282.71398795942457" text-anchor="end" font-weight="bold" font-size="small" fill="#111">
4.0
</text>
<line x1="42.0" y1="228.89248494928077" x2="50.0" y2="228.89248494928077" stroke="#000"/>
<text x="26.000000000000004" y="228.89248494928077" text-anchor="end" font-weight="bold" font-size="small" fill="#111">
5.0
</text>
<line x1="42.0" y1="175.0709819391369" x2="50.0" y2="175.0709819391369" stroke="#000"/>
<text x="26.000000000000004" y="175.0709819391369" text-anchor="end" font-weight="bold" font-size="small" fill="#111">
6.0
</text>
<line x1="42.0" y1="121.24947892899306" x2="50.0" y2="121.24947892899306" stroke="#000"/>
<text x="26.000000000000004" y="121.24947892899306" text-anchor="end" font-weight="bold" font-size="small" fill="#111">
7.0
</text>
<rect x="197.99999999999997" y="36.00000000000001" width="80.0" height="18.0" fill="#7070f8" stroke="#888"/>
<text x="238.0" y="52.50000000000001" font-size="small" text-anchor="middle" font-weight="bold" fill="#EEE">
No JIT
</text>
<rect x="479.99999999999994" y="36.00000000000001" width="80.0" height="18.0" fill="orange" stroke="#888"/>
<text x="519.9999999999999" y="52.50000000000001" font-size="small" text-anchor="middle" font-weight="bold" fill="#EEE">
MJIT
</text>
<rect x="761.9999999999999" y="36.00000000000001" width="80.0" height="18.0" fill="green" stroke="#888"/>
<text x="801.9999999999999" y="52.50000000000001" font-size="small" text-anchor="middle" font-weight="bold" fill="#EEE">
YJIT
</text>
<rect x="97.0" y="444.17849698985606" width="8.8125" height="53.82150301014384" fill="#7070f8" data-tooltip="1.00x baseline speed (No JIT)"/>
<line x1="97.0" y1="443.9674506527417" x2="105.8125" y2="443.9674506527417" stroke="#000"/>
<line x1="97.0" y1="444.38954332697034" x2="105.8125" y2="444.38954332697034" stroke="#000"/>
<line x1="101.40625" y1="443.9674506527417" x2="101.40625" y2="444.38954332697034" stroke="#000"/>
<rect x="105.8125" y="450.99747187986253" width="8.8125" height="47.002528120137406" fill="orange" data-tooltip="0.87x baseline speed (MJIT)"/>
<line x1="105.8125" y1="449.37027879437954" x2="114.625" y2="449.37027879437954" stroke="#000"/>
<line x1="105.8125" y1="452.6246649653455" x2="114.625" y2="452.6246649653455" stroke="#000"/>
<line x1="110.21875" y1="449.37027879437954" x2="110.21875" y2="452.6246649653455" stroke="#000"/>
<rect x="114.625" y="424.2800637532202" width="8.8125" height="73.71993624677974" fill="green" data-tooltip="1.37x baseline speed (YJIT)"/>
<line x1="114.625" y1="423.8422326916433" x2="123.4375" y2="423.8422326916433" stroke="#000"/>
<line x1="114.625" y1="424.7178948147971" x2="123.4375" y2="424.7178948147971" stroke="#000"/>
<line x1="119.03125" y1="423.8422326916433" x2="119.03125" y2="424.7178948147971" stroke="#000"/>
<line x1="114.625" y1="498.0" x2="114.625" y2="502.79999999999995" stroke="#000"/>
<text x="114.625" y="512.4" fill="#111" font-size="small" font-family="monospace" font-weight="bold" text-anchor="end" transform="rotate(-60, 114.625, 512.4)">
activerecord
</text>
<rect x="132.25" y="444.17849698985606" width="8.8125" height="53.82150301014384" fill="#7070f8" data-tooltip="1.00x baseline speed (No JIT)"/>
<line x1="132.25" y1="443.54242402846546" x2="141.0625" y2="443.54242402846546" stroke="#000"/>
<line x1="132.25" y1="444.8145699512466" x2="141.0625" y2="444.8145699512466" stroke="#000"/>
<line x1="136.65625" y1="443.54242402846546" x2="136.65625" y2="444.8145699512466" stroke="#000"/>
<rect x="149.875" y="425.1197153042125" width="8.8125" height="72.8802846957875" fill="green" data-tooltip="1.35x baseline speed (YJIT)"/>
<line x1="149.875" y1="423.49182296426" x2="158.6875" y2="423.49182296426" stroke="#000"/>
<line x1="149.875" y1="426.74760764416493" x2="158.6875" y2="426.74760764416493" stroke="#000"/>
<line x1="154.28125" y1="423.49182296426" x2="154.28125" y2="426.74760764416493" stroke="#000"/>
<line x1="149.875" y1="498.0" x2="149.875" y2="502.79999999999995" stroke="#000"/>
<text x="149.875" y="512.4" fill="#111" font-size="small" font-family="monospace" font-weight="bold" text-anchor="end" transform="rotate(-60, 149.875, 512.4)">
hexapdf
</text>
<rect x="167.49999999999997" y="444.17849698985606" width="8.8125" height="53.82150301014384" fill="#7070f8" data-tooltip="1.00x baseline speed (No JIT)"/>
<line x1="167.49999999999997" y1="443.58125612853956" x2="176.31249999999997" y2="443.58125612853956" stroke="#000"/>
<line x1="167.49999999999997" y1="444.7757378511725" x2="176.31249999999997" y2="444.7757378511725" stroke="#000"/>
<line x1="171.90624999999997" y1="443.58125612853956" x2="171.90624999999997" y2="444.7757378511725" stroke="#000"/>
<rect x="176.31249999999997" y="440.5230903043039" width="8.8125" height="57.476909695696" fill="orange" data-tooltip="1.07x baseline speed (MJIT)"/>
<line x1="176.31249999999997" y1="439.43595283942756" x2="185.12499999999997" y2="439.43595283942756" stroke="#000"/>
<line x1="176.31249999999997" y1="441.61022776918026" x2="185.12499999999997" y2="441.61022776918026" stroke="#000"/>
<line x1="180.71874999999997" y1="439.43595283942756" x2="180.71874999999997" y2="441.61022776918026" stroke="#000"/>
<rect x="185.12499999999997" y="415.75752217723283" width="8.8125" height="82.2424778227671" fill="green" data-tooltip="1.53x baseline speed (YJIT)"/>
<line x1="185.12499999999997" y1="413.91352994061447" x2="193.93749999999997" y2="413.91352994061447" stroke="#000"/>
<line x1="185.12499999999997" y1="417.60151441385113" x2="193.93749999999997" y2="417.60151441385113" stroke="#000"/>
<line x1="189.53124999999997" y1="413.91352994061447" x2="189.53124999999997" y2="417.60151441385113" stroke="#000"/>
<line x1="185.12499999999997" y1="498.0" x2="185.12499999999997" y2="502.79999999999995" stroke="#000"/>
<text x="185.12499999999997" y="512.4" fill="#111" font-size="small" font-family="monospace" font-weight="bold" text-anchor="end" transform="rotate(-60, 185.12499999999997, 512.4)">
liquid-render
</text>
<rect x="202.75" y="444.17849698985606" width="8.8125" height="53.82150301014384" fill="#7070f8" data-tooltip="1.00x baseline speed (No JIT)"/>
<line x1="202.75" y1="442.22818727233107" x2="211.5625" y2="442.22818727233107" stroke="#000"/>
<line x1="202.75" y1="446.128806707381" x2="211.5625" y2="446.128806707381" stroke="#000"/>
<line x1="207.15625" y1="442.22818727233107" x2="207.15625" y2="446.128806707381" stroke="#000"/>
<rect x="211.5625" y="442.3345670697974" width="8.8125" height="55.66543293020259" fill="orange" data-tooltip="1.03x baseline speed (MJIT)"/>
<line x1="211.5625" y1="440.1247758070304" x2="220.375" y2="440.1247758070304" stroke="#000"/>
<line x1="211.5625" y1="444.5443583325644" x2="220.375" y2="444.5443583325644" stroke="#000"/>
<line x1="215.96875" y1="440.1247758070304" x2="215.96875" y2="444.5443583325644" stroke="#000"/>
<rect x="220.375" y="437.5198757081087" width="8.8125" height="60.48012429189118" fill="green" data-tooltip="1.12x baseline speed (YJIT)"/>
<line x1="220.375" y1="435.31529955586666" x2="229.1875" y2="435.31529955586666" stroke="#000"/>
<line x1="220.375" y1="439.7244518603508" x2="229.1875" y2="439.7244518603508" stroke="#000"/>
<line x1="224.78125" y1="435.31529955586666" x2="224.78125" y2="439.7244518603508" stroke="#000"/>
<line x1="220.375" y1="498.0" x2="220.375" y2="502.79999999999995" stroke="#000"/>
<text x="220.375" y="512.4" fill="#111" font-size="small" font-family="monospace" font-weight="bold" text-anchor="end" transform="rotate(-60, 220.375, 512.4)">
mail
</text>
<rect x="238.0" y="444.17849698985606" width="8.8125" height="53.82150301014384" fill="#7070f8" data-tooltip="1.00x baseline speed (No JIT)"/>
<line x1="238.0" y1="444.10881736211763" x2="246.8125" y2="444.10881736211763" stroke="#000"/>
<line x1="238.0" y1="444.2481766175944" x2="246.8125" y2="444.2481766175944" stroke="#000"/>
<line x1="242.40625" y1="444.10881736211763" x2="242.40625" y2="444.2481766175944" stroke="#000"/>
<rect x="246.8125" y="433.4233244158254" width="8.8125" height="64.57667558417454" fill="orange" data-tooltip="1.20x baseline speed (MJIT)"/>
<line x1="246.8125" y1="433.31823032287895" x2="255.625" y2="433.31823032287895" stroke="#000"/>
<line x1="246.8125" y1="433.52841850877184" x2="255.625" y2="433.52841850877184" stroke="#000"/>
<line x1="251.21875" y1="433.31823032287895" x2="251.21875" y2="433.52841850877184" stroke="#000"/>
<rect x="255.625" y="425.3377478496861" width="8.8125" height="72.66225215031382" fill="green" data-tooltip="1.35x baseline speed (YJIT)"/>
<line x1="255.625" y1="425.2365963618209" x2="264.4375" y2="425.2365963618209" stroke="#000"/>
<line x1="255.625" y1="425.4388993375513" x2="264.4375" y2="425.4388993375513" stroke="#000"/>
<line x1="260.03125" y1="425.2365963618209" x2="260.03125" y2="425.4388993375513" stroke="#000"/>
<line x1="255.625" y1="498.0" x2="255.625" y2="502.79999999999995" stroke="#000"/>
<text x="255.625" y="512.4" fill="#111" font-size="small" font-family="monospace" font-weight="bold" text-anchor="end" transform="rotate(-60, 255.625, 512.4)">
psych-load
</text>
<rect x="273.25" y="444.17849698985606" width="8.8125" height="53.82150301014384" fill="#7070f8" data-tooltip="1.00x baseline speed (No JIT)"/>
<line x1="273.25" y1="443.6566045233566" x2="282.0625" y2="443.6566045233566" stroke="#000"/>
<line x1="273.25" y1="444.7003894563555" x2="282.0625" y2="444.7003894563555" stroke="#000"/>
<line x1="277.65625" y1="443.6566045233566" x2="277.65625" y2="444.7003894563555" stroke="#000"/>
<rect x="282.0625" y="448.5590663700852" width="8.8125" height="49.44093362991476" fill="orange" data-tooltip="0.92x baseline speed (MJIT)"/>
<line x1="282.0625" y1="447.7975955959662" x2="290.875" y2="447.7975955959662" stroke="#000"/>
<line x1="282.0625" y1="449.3205371442042" x2="290.875" y2="449.3205371442042" stroke="#000"/>
<line x1="286.46875" y1="447.7975955959662" x2="286.46875" y2="449.3205371442042" stroke="#000"/>
<rect x="290.875" y="428.80437504914784" width="8.8125" height="69.19562495085208" fill="green" data-tooltip="1.29x baseline speed (YJIT)"/>
<line x1="290.875" y1="427.55378638806036" x2="299.6875" y2="427.55378638806036" stroke="#000"/>
<line x1="290.875" y1="430.0549637102353" x2="299.6875" y2="430.0549637102353" stroke="#000"/>
<line x1="295.28125" y1="427.55378638806036" x2="295.28125" y2="430.0549637102353" stroke="#000"/>
<line x1="290.875" y1="498.0" x2="290.875" y2="502.79999999999995" stroke="#000"/>
<text x="290.875" y="512.4" fill="#111" font-size="small" font-family="monospace" font-weight="bold" text-anchor="end" transform="rotate(-60, 290.875, 512.4)">
railsbench
</text>
<rect x="308.5" y="444.17849698985606" width="8.8125" height="53.82150301014384" fill="#7070f8" data-tooltip="1.00x baseline speed (No JIT)"/>
<line x1="308.5" y1="444.12246620838954" x2="317.3125" y2="444.12246620838954" stroke="#000"/>
<line x1="308.5" y1="444.2345277713225" x2="317.3125" y2="444.2345277713225" stroke="#000"/>
<line x1="312.90625" y1="444.12246620838954" x2="312.90625" y2="444.2345277713225" stroke="#000"/>
<rect x="317.3125" y="416.23769688266157" width="8.8125" height="81.76230311733836" fill="orange" data-tooltip="1.52x baseline speed (MJIT)"/>
<line x1="317.3125" y1="415.96794785745897" x2="326.125" y2="415.96794785745897" stroke="#000"/>
<line x1="317.3125" y1="416.5074459078641" x2="326.125" y2="416.5074459078641" stroke="#000"/>
<line x1="321.71875" y1="415.96794785745897" x2="321.71875" y2="416.5074459078641" stroke="#000"/>
<rect x="326.125" y="428.0401740115048" width="8.8125" height="69.95982598849514" fill="green" data-tooltip="1.30x baseline speed (YJIT)"/>
<line x1="326.125" y1="427.9053843477296" x2="334.9375" y2="427.9053843477296" stroke="#000"/>
<line x1="326.125" y1="428.1749636752801" x2="334.9375" y2="428.1749636752801" stroke="#000"/>
<line x1="330.53125" y1="427.9053843477296" x2="330.53125" y2="428.1749636752801" stroke="#000"/>
<line x1="326.125" y1="498.0" x2="326.125" y2="502.79999999999995" stroke="#000"/>
<text x="326.125" y="512.4" fill="#111" font-size="small" font-family="monospace" font-weight="bold" text-anchor="end" transform="rotate(-60, 326.125, 512.4)">
binarytrees
</text>
<rect x="343.75" y="444.17849698985606" width="8.8125" height="53.82150301014384" fill="#7070f8" data-tooltip="1.00x baseline speed (No JIT)"/>
<line x1="343.75" y1="444.16011136363284" x2="352.5625" y2="444.16011136363284" stroke="#000"/>
<line x1="343.75" y1="444.1968826160792" x2="352.5625" y2="444.1968826160792" stroke="#000"/>
<line x1="348.15625" y1="444.16011136363284" x2="348.15625" y2="444.1968826160792" stroke="#000"/>
<rect x="352.5625" y="432.408508051819" width="8.8125" height="65.5914919481809" fill="orange" data-tooltip="1.22x baseline speed (MJIT)"/>
<line x1="352.5625" y1="432.2285108696321" x2="361.375" y2="432.2285108696321" stroke="#000"/>
<line x1="352.5625" y1="432.58850523400594" x2="361.375" y2="432.58850523400594" stroke="#000"/>
<line x1="356.96875" y1="432.2285108696321" x2="356.96875" y2="432.58850523400594" stroke="#000"/>
<rect x="361.375" y="419.3104588183077" width="8.8125" height="78.68954118169219" fill="green" data-tooltip="1.46x baseline speed (YJIT)"/>
<line x1="361.375" y1="419.22698794340783" x2="370.1875" y2="419.22698794340783" stroke="#000"/>
<line x1="361.375" y1="419.3939296932076" x2="370.1875" y2="419.3939296932076" stroke="#000"/>
<line x1="365.78125" y1="419.22698794340783" x2="365.78125" y2="419.3939296932076" stroke="#000"/>
<line x1="361.375" y1="498.0" x2="361.375" y2="502.79999999999995" stroke="#000"/>
<text x="361.375" y="512.4" fill="#111" font-size="small" font-family="monospace" font-weight="bold" text-anchor="end" transform="rotate(-60, 361.375, 512.4)">
chunky_png
</text>
<rect x="379.0" y="444.17849698985606" width="8.8125" height="53.82150301014384" fill="#7070f8" data-tooltip="1.00x baseline speed (No JIT)"/>
<line x1="379.0" y1="443.37441792048253" x2="387.8125" y2="443.37441792048253" stroke="#000"/>
<line x1="379.0" y1="444.98257605922953" x2="387.8125" y2="444.98257605922953" stroke="#000"/>
<line x1="383.40625" y1="443.37441792048253" x2="383.40625" y2="444.98257605922953" stroke="#000"/>
<rect x="387.8125" y="446.9996430241826" width="8.8125" height="51.00035697581729" fill="orange" data-tooltip="0.95x baseline speed (MJIT)"/>
<line x1="387.8125" y1="445.8396835909073" x2="396.625" y2="445.8396835909073" stroke="#000"/>
<line x1="387.8125" y1="448.15960245745794" x2="396.625" y2="448.15960245745794" stroke="#000"/>
<line x1="392.21875" y1="445.8396835909073" x2="392.21875" y2="448.15960245745794" stroke="#000"/>
<rect x="396.625" y="446.5217183053878" width="8.8125" height="51.47828169461216" fill="green" data-tooltip="0.96x baseline speed (YJIT)"/>
<line x1="396.625" y1="445.44202853570675" x2="405.4375" y2="445.44202853570675" stroke="#000"/>
<line x1="396.625" y1="447.6014080750689" x2="405.4375" y2="447.6014080750689" stroke="#000"/>
<line x1="401.03125" y1="445.44202853570675" x2="401.03125" y2="447.6014080750689" stroke="#000"/>
<line x1="396.625" y1="498.0" x2="396.625" y2="502.79999999999995" stroke="#000"/>
<text x="396.625" y="512.4" fill="#111" font-size="small" font-family="monospace" font-weight="bold" text-anchor="end" transform="rotate(-60, 396.625, 512.4)">
discourse
</text>
<rect x="414.25" y="444.17849698985606" width="8.8125" height="53.82150301014384" fill="#7070f8" data-tooltip="1.00x baseline speed (No JIT)"/>
<line x1="414.25" y1="443.85203680624596" x2="423.0625" y2="443.85203680624596" stroke="#000"/>
<line x1="414.25" y1="444.5049571734661" x2="423.0625" y2="444.5049571734661" stroke="#000"/>
<line x1="418.65625" y1="443.85203680624596" x2="418.65625" y2="444.5049571734661" stroke="#000"/>
<rect x="423.0625" y="439.9298134985894" width="8.8125" height="58.0701865014106" fill="orange" data-tooltip="1.08x baseline speed (MJIT)"/>
<line x1="423.0625" y1="439.4182723501537" x2="431.875" y2="439.4182723501537" stroke="#000"/>
<line x1="423.0625" y1="440.4413546470251" x2="431.875" y2="440.4413546470251" stroke="#000"/>
<line x1="427.46875" y1="439.4182723501537" x2="427.46875" y2="440.4413546470251" stroke="#000"/>
<rect x="431.875" y="439.18623106209094" width="8.8125" height="58.81376893790894" fill="green" data-tooltip="1.09x baseline speed (YJIT)"/>
<line x1="431.875" y1="438.6352988158541" x2="440.6875" y2="438.6352988158541" stroke="#000"/>
<line x1="431.875" y1="439.73716330832775" x2="440.6875" y2="439.73716330832775" stroke="#000"/>
<line x1="436.28125" y1="438.6352988158541" x2="436.28125" y2="439.73716330832775" stroke="#000"/>
<line x1="431.875" y1="498.0" x2="431.875" y2="502.79999999999995" stroke="#000"/>
<text x="431.875" y="512.4" fill="#111" font-size="small" font-family="monospace" font-weight="bold" text-anchor="end" transform="rotate(-60, 431.875, 512.4)">
erubi
</text>
<rect x="449.5" y="444.17849698985606" width="8.8125" height="53.82150301014384" fill="#7070f8" data-tooltip="1.00x baseline speed (No JIT)"/>
<line x1="449.5" y1="442.83178113770737" x2="458.3125" y2="442.83178113770737" stroke="#000"/>
<line x1="449.5" y1="445.5252128420047" x2="458.3125" y2="445.5252128420047" stroke="#000"/>
<line x1="453.90625" y1="442.83178113770737" x2="453.90625" y2="445.5252128420047" stroke="#000"/>
<rect x="458.3125" y="446.23566336649276" width="8.8125" height="51.76433663350714" fill="orange" data-tooltip="0.96x baseline speed (MJIT)"/>
<line x1="458.3125" y1="443.6834951405925" x2="467.125" y2="443.6834951405925" stroke="#000"/>
<line x1="458.3125" y1="448.78783159239305" x2="467.125" y2="448.78783159239305" stroke="#000"/>
<line x1="462.71875" y1="443.6834951405925" x2="462.71875" y2="448.78783159239305" stroke="#000"/>
<rect x="467.125" y="424.8789239694132" width="8.8125" height="73.12107603058668" fill="green" data-tooltip="1.36x baseline speed (YJIT)"/>
<line x1="467.125" y1="421.7663931981447" x2="475.9375" y2="421.7663931981447" stroke="#000"/>
<line x1="467.125" y1="427.99145474068166" x2="475.9375" y2="427.99145474068166" stroke="#000"/>
<line x1="471.53125" y1="421.7663931981447" x2="471.53125" y2="427.99145474068166" stroke="#000"/>
<line x1="467.125" y1="498.0" x2="467.125" y2="502.79999999999995" stroke="#000"/>
<text x="467.125" y="512.4" fill="#111" font-size="small" font-family="monospace" font-weight="bold" text-anchor="end" transform="rotate(-60, 467.125, 512.4)">
erubi_rails
</text>
<rect x="484.75" y="444.17849698985606" width="8.8125" height="53.82150301014384" fill="#7070f8" data-tooltip="1.00x baseline speed (No JIT)"/>
<line x1="484.75" y1="444.1237192380564" x2="493.5625" y2="444.1237192380564" stroke="#000"/>
<line x1="484.75" y1="444.23327474165563" x2="493.5625" y2="444.23327474165563" stroke="#000"/>
<line x1="489.15625" y1="444.1237192380564" x2="489.15625" y2="444.23327474165563" stroke="#000"/>
<rect x="493.5625" y="390.6274832573176" width="8.8125" height="107.37251674268235" fill="orange" data-tooltip="1.99x baseline speed (MJIT)"/>
<line x1="493.5625" y1="390.4810960980464" x2="502.375" y2="390.4810960980464" stroke="#000"/>
<line x1="493.5625" y1="390.7738704165887" x2="502.375" y2="390.7738704165887" stroke="#000"/>
<line x1="497.96875" y1="390.4810960980464" x2="497.96875" y2="390.7738704165887" stroke="#000"/>
<rect x="502.375" y="445.33945880476375" width="8.8125" height="52.660541195236185" fill="green" data-tooltip="0.98x baseline speed (YJIT)"/>
<line x1="502.375" y1="445.22357096754206" x2="511.1875" y2="445.22357096754206" stroke="#000"/>
<line x1="502.375" y1="445.45534664198544" x2="511.1875" y2="445.45534664198544" stroke="#000"/>
<line x1="506.78124999999994" y1="445.22357096754206" x2="506.78124999999994" y2="445.45534664198544" stroke="#000"/>
<line x1="502.375" y1="498.0" x2="502.375" y2="502.79999999999995" stroke="#000"/>
<text x="502.375" y="512.4" fill="#111" font-size="small" font-family="monospace" font-weight="bold" text-anchor="end" transform="rotate(-60, 502.375, 512.4)">
fannkuchredux
</text>
<rect x="519.9999999999999" y="444.17849698985606" width="8.8125" height="53.82150301014384" fill="#7070f8" data-tooltip="1.00x baseline speed (No JIT)"/>
<line x1="519.9999999999999" y1="443.6166229969638" x2="528.8124999999999" y2="443.6166229969638" stroke="#000"/>
<line x1="519.9999999999999" y1="444.74037098274823" x2="528.8124999999999" y2="444.74037098274823" stroke="#000"/>
<line x1="524.4062499999999" y1="443.6166229969638" x2="524.4062499999999" y2="444.74037098274823" stroke="#000"/>
<rect x="528.8124999999999" y="432.0621162557754" width="8.8125" height="65.93788374422459" fill="orange" data-tooltip="1.23x baseline speed (MJIT)"/>
<line x1="528.8124999999999" y1="430.26420006049744" x2="537.6249999999999" y2="430.26420006049744" stroke="#000"/>
<line x1="528.8124999999999" y1="433.86003245105337" x2="537.6249999999999" y2="433.86003245105337" stroke="#000"/>
<line x1="533.2187499999999" y1="430.26420006049744" x2="533.2187499999999" y2="433.86003245105337" stroke="#000"/>
<rect x="537.6249999999999" y="423.48992660542393" width="8.8125" height="74.51007339457608" fill="green" data-tooltip="1.38x baseline speed (YJIT)"/>
<line x1="537.6249999999999" y1="421.9556737211502" x2="546.4374999999999" y2="421.9556737211502" stroke="#000"/>
<line x1="537.6249999999999" y1="425.02417948969764" x2="546.4374999999999" y2="425.02417948969764" stroke="#000"/>
<line x1="542.0312499999999" y1="421.9556737211502" x2="542.0312499999999" y2="425.02417948969764" stroke="#000"/>
<line x1="537.6249999999999" y1="498.0" x2="537.6249999999999" y2="502.79999999999995" stroke="#000"/>
<text x="537.6249999999999" y="512.4" fill="#111" font-size="small" font-family="monospace" font-weight="bold" text-anchor="end" transform="rotate(-60, 537.6249999999999, 512.4)">
lee
</text>
<rect x="555.2499999999999" y="444.17849698985606" width="8.8125" height="53.82150301014384" fill="#7070f8" data-tooltip="1.00x baseline speed (No JIT)"/>
<line x1="555.2499999999999" y1="443.97450911433754" x2="564.0624999999999" y2="443.97450911433754" stroke="#000"/>
<line x1="555.2499999999999" y1="444.3824848653745" x2="564.0624999999999" y2="444.3824848653745" stroke="#000"/>
<line x1="559.6562499999999" y1="443.97450911433754" x2="559.6562499999999" y2="444.3824848653745" stroke="#000"/>
<rect x="564.0624999999999" y="403.83065570163706" width="8.8125" height="94.16934429836283" fill="orange" data-tooltip="1.75x baseline speed (MJIT)"/>
<line x1="564.0624999999999" y1="403.47007668418524" x2="572.8749999999999" y2="403.47007668418524" stroke="#000"/>
<line x1="564.0624999999999" y1="404.19123471908887" x2="572.8749999999999" y2="404.19123471908887" stroke="#000"/>
<line x1="568.4687499999999" y1="403.47007668418524" x2="568.4687499999999" y2="404.19123471908887" stroke="#000"/>
<rect x="572.8749999999999" y="422.24953754741944" width="8.8125" height="75.75046245258054" fill="green" data-tooltip="1.41x baseline speed (YJIT)"/>
<line x1="572.8749999999999" y1="421.76919717130306" x2="581.6874999999999" y2="421.76919717130306" stroke="#000"/>
<line x1="572.8749999999999" y1="422.7298779235358" x2="581.6874999999999" y2="422.7298779235358" stroke="#000"/>
<line x1="577.2812499999999" y1="421.76919717130306" x2="577.2812499999999" y2="422.7298779235358" stroke="#000"/>
<line x1="572.8749999999999" y1="498.0" x2="572.8749999999999" y2="502.79999999999995" stroke="#000"/>
<text x="572.8749999999999" y="512.4" fill="#111" font-size="small" font-family="monospace" font-weight="bold" text-anchor="end" transform="rotate(-60, 572.8749999999999, 512.4)">
nbody
</text>
<rect x="590.4999999999999" y="444.17849698985606" width="8.8125" height="53.82150301014384" fill="#7070f8" data-tooltip="1.00x baseline speed (No JIT)"/>
<line x1="590.4999999999999" y1="443.9522722000665" x2="599.3124999999999" y2="443.9522722000665" stroke="#000"/>
<line x1="590.4999999999999" y1="444.40472177964557" x2="599.3124999999999" y2="444.40472177964557" stroke="#000"/>
<line x1="594.9062499999999" y1="443.9522722000665" x2="594.9062499999999" y2="444.40472177964557" stroke="#000"/>
<rect x="599.3124999999999" y="364.2970295087185" width="8.8125" height="133.7029704912814" fill="orange" data-tooltip="2.48x baseline speed (MJIT)"/>
<line x1="599.3124999999999" y1="363.30621811127685" x2="608.1249999999999" y2="363.30621811127685" stroke="#000"/>
<line x1="599.3124999999999" y1="365.28784090616017" x2="608.1249999999999" y2="365.28784090616017" stroke="#000"/>
<line x1="603.7187499999999" y1="363.30621811127685" x2="603.7187499999999" y2="365.28784090616017" stroke="#000"/>
<rect x="608.1249999999999" y="401.15437894170174" width="8.8125" height="96.84562105829819" fill="green" data-tooltip="1.80x baseline speed (YJIT)"/>
<line x1="608.1249999999999" y1="400.4570805220226" x2="616.9374999999999" y2="400.4570805220226" stroke="#000"/>
<line x1="608.1249999999999" y1="401.85167736138095" x2="616.9374999999999" y2="401.85167736138095" stroke="#000"/>
<line x1="612.5312499999999" y1="400.4570805220226" x2="612.5312499999999" y2="401.85167736138095" stroke="#000"/>
<line x1="608.1249999999999" y1="498.0" x2="608.1249999999999" y2="502.79999999999995" stroke="#000"/>
<text x="608.1249999999999" y="512.4" fill="#111" font-size="small" font-family="monospace" font-weight="bold" text-anchor="end" transform="rotate(-60, 608.1249999999999, 512.4)">
optcarrot
</text>
<rect x="625.7499999999999" y="444.17849698985606" width="8.8125" height="53.82150301014384" fill="#7070f8" data-tooltip="1.00x baseline speed (No JIT)"/>
<line x1="625.7499999999999" y1="443.9472565021537" x2="634.5624999999999" y2="443.9472565021537" stroke="#000"/>
<line x1="625.7499999999999" y1="444.40973747755834" x2="634.5624999999999" y2="444.40973747755834" stroke="#000"/>
<line x1="630.1562499999999" y1="443.9472565021537" x2="630.1562499999999" y2="444.40973747755834" stroke="#000"/>
<rect x="634.5624999999999" y="414.3758094686535" width="8.8125" height="83.62419053134644" fill="orange" data-tooltip="1.55x baseline speed (MJIT)"/>
<line x1="634.5624999999999" y1="413.9143697019812" x2="643.3749999999999" y2="413.9143697019812" stroke="#000"/>
<line x1="634.5624999999999" y1="414.83724923532577" x2="643.3749999999999" y2="414.83724923532577" stroke="#000"/>
<line x1="638.9687499999999" y1="413.9143697019812" x2="638.9687499999999" y2="414.83724923532577" stroke="#000"/>
<rect x="643.3749999999999" y="397.5633151485708" width="8.8125" height="100.43668485142923" fill="green" data-tooltip="1.87x baseline speed (YJIT)"/>
<line x1="643.3749999999999" y1="397.0046265885286" x2="652.1874999999999" y2="397.0046265885286" stroke="#000"/>
<line x1="643.3749999999999" y1="398.12200370861297" x2="652.1874999999999" y2="398.12200370861297" stroke="#000"/>
<line x1="647.7812499999999" y1="397.0046265885286" x2="647.7812499999999" y2="398.12200370861297" stroke="#000"/>
<line x1="643.3749999999999" y1="498.0" x2="643.3749999999999" y2="502.79999999999995" stroke="#000"/>
<text x="643.3749999999999" y="512.4" fill="#111" font-size="small" font-family="monospace" font-weight="bold" text-anchor="end" transform="rotate(-60, 643.3749999999999, 512.4)">
rubykon
</text>
<rect x="660.9999999999999" y="444.17849698985606" width="8.8125" height="53.82150301014384" fill="#7070f8" data-tooltip="1.00x baseline speed (No JIT)"/>
<line x1="660.9999999999999" y1="444.1707224719977" x2="669.8124999999999" y2="444.1707224719977" stroke="#000"/>
<line x1="660.9999999999999" y1="444.18627150771437" x2="669.8124999999999" y2="444.18627150771437" stroke="#000"/>
<line x1="665.4062499999999" y1="444.1707224719977" x2="665.4062499999999" y2="444.18627150771437" stroke="#000"/>
<rect x="669.8124999999999" y="462.5568632783265" width="8.8125" height="35.443136721673426" fill="orange" data-tooltip="0.66x baseline speed (MJIT)"/>
<line x1="669.8124999999999" y1="461.2474289268603" x2="678.6249999999999" y2="461.2474289268603" stroke="#000"/>
<line x1="669.8124999999999" y1="463.86629762979265" x2="678.6249999999999" y2="463.86629762979265" stroke="#000"/>
<line x1="674.2187499999999" y1="461.2474289268603" x2="674.2187499999999" y2="463.86629762979265" stroke="#000"/>
<rect x="678.6249999999999" y="142.947746237779" width="8.8125" height="355.0522537622209" fill="green" data-tooltip="6.60x baseline speed (YJIT)"/>
<line x1="678.6249999999999" y1="142.32548629325285" x2="687.4374999999999" y2="142.32548629325285" stroke="#000"/>
<line x1="678.6249999999999" y1="143.57000618230515" x2="687.4374999999999" y2="143.57000618230515" stroke="#000"/>
<line x1="683.0312499999999" y1="142.32548629325285" x2="683.0312499999999" y2="143.57000618230515" stroke="#000"/>
<line x1="678.6249999999999" y1="498.0" x2="678.6249999999999" y2="502.79999999999995" stroke="#000"/>
<text x="678.6249999999999" y="512.4" fill="#111" font-size="small" font-family="monospace" font-weight="bold" text-anchor="end" transform="rotate(-60, 678.6249999999999, 512.4)">
30k_ifelse
</text>
<rect x="696.2499999999999" y="444.17849698985606" width="8.8125" height="53.82150301014384" fill="#7070f8" data-tooltip="1.00x baseline speed (No JIT)"/>
<line x1="696.2499999999999" y1="444.1758915982677" x2="705.0624999999999" y2="444.1758915982677" stroke="#000"/>
<line x1="696.2499999999999" y1="444.18110238144436" x2="705.0624999999999" y2="444.18110238144436" stroke="#000"/>
<line x1="700.6562499999999" y1="444.1758915982677" x2="700.6562499999999" y2="444.18110238144436" stroke="#000"/>
<rect x="705.0624999999999" y="464.12192486840684" width="8.8125" height="33.878075131593135" fill="orange" data-tooltip="0.63x baseline speed (MJIT)"/>
<line x1="705.0624999999999" y1="458.7901673296176" x2="713.8749999999999" y2="458.7901673296176" stroke="#000"/>
<line x1="705.0624999999999" y1="469.4536824071961" x2="713.8749999999999" y2="469.4536824071961" stroke="#000"/>
<line x1="709.4687499999999" y1="458.7901673296176" x2="709.4687499999999" y2="469.4536824071961" stroke="#000"/>
<rect x="713.8749999999999" y="102.00495562078545" width="8.8125" height="395.9950443792145" fill="green" data-tooltip="7.36x baseline speed (YJIT)"/>
<line x1="713.8749999999999" y1="101.75074272333227" x2="722.6874999999999" y2="101.75074272333227" stroke="#000"/>
<line x1="713.8749999999999" y1="102.25916851823864" x2="722.6874999999999" y2="102.25916851823864" stroke="#000"/>
<line x1="718.2812499999999" y1="101.75074272333227" x2="718.2812499999999" y2="102.25916851823864" stroke="#000"/>
<line x1="713.8749999999999" y1="498.0" x2="713.8749999999999" y2="502.79999999999995" stroke="#000"/>
<text x="713.8749999999999" y="512.4" fill="#111" font-size="small" font-family="monospace" font-weight="bold" text-anchor="end" transform="rotate(-60, 713.8749999999999, 512.4)">
30k_methods
</text>
<rect x="731.4999999999999" y="444.17849698985606" width="8.8125" height="53.82150301014384" fill="#7070f8" data-tooltip="1.00x baseline speed (No JIT)"/>
<line x1="731.4999999999999" y1="444.08836018229744" x2="740.3124999999999" y2="444.08836018229744" stroke="#000"/>
<line x1="731.4999999999999" y1="444.2686337974146" x2="740.3124999999999" y2="444.2686337974146" stroke="#000"/>
<line x1="735.9062499999999" y1="444.08836018229744" x2="735.9062499999999" y2="444.2686337974146" stroke="#000"/>
<rect x="740.3124999999999" y="409.3631949770409" width="8.8125" height="88.63680502295914" fill="orange" data-tooltip="1.65x baseline speed (MJIT)"/>
<line x1="740.3124999999999" y1="408.6497828174148" x2="749.1249999999999" y2="408.6497828174148" stroke="#000"/>
<line x1="740.3124999999999" y1="410.076607136667" x2="749.1249999999999" y2="410.076607136667" stroke="#000"/>
<line x1="744.7187499999999" y1="408.6497828174148" x2="744.7187499999999" y2="410.076607136667" stroke="#000"/>
<rect x="749.1249999999999" y="365.45000027759534" width="8.8125" height="132.54999972240455" fill="green" data-tooltip="2.46x baseline speed (YJIT)"/>
<line x1="749.1249999999999" y1="364.26069954415505" x2="757.9374999999999" y2="364.26069954415505" stroke="#000"/>
<line x1="749.1249999999999" y1="366.6393010110356" x2="757.9374999999999" y2="366.6393010110356" stroke="#000"/>
<line x1="753.5312499999999" y1="364.26069954415505" x2="753.5312499999999" y2="366.6393010110356" stroke="#000"/>
<line x1="749.1249999999999" y1="498.0" x2="749.1249999999999" y2="502.79999999999995" stroke="#000"/>
<text x="749.1249999999999" y="512.4" fill="#111" font-size="small" font-family="monospace" font-weight="bold" text-anchor="end" transform="rotate(-60, 749.1249999999999, 512.4)">
cfunc_itself
</text>
<rect x="766.7499999999999" y="444.17849698985606" width="8.8125" height="53.82150301014384" fill="#7070f8" data-tooltip="1.00x baseline speed (No JIT)"/>
<line x1="766.7499999999999" y1="444.10375269318394" x2="775.5624999999999" y2="444.10375269318394" stroke="#000"/>
<line x1="766.7499999999999" y1="444.2532412865281" x2="775.5624999999999" y2="444.2532412865281" stroke="#000"/>
<line x1="771.1562499999999" y1="444.10375269318394" x2="771.1562499999999" y2="444.2532412865281" stroke="#000"/>
<rect x="775.5624999999999" y="348.82073927326445" width="8.8125" height="149.17926072673558" fill="orange" data-tooltip="2.77x baseline speed (MJIT)"/>
<line x1="775.5624999999999" y1="348.6079757001903" x2="784.3749999999999" y2="348.6079757001903" stroke="#000"/>
<line x1="775.5624999999999" y1="349.03350284633854" x2="784.3749999999999" y2="349.03350284633854" stroke="#000"/>
<line x1="779.9687499999999" y1="348.6079757001903" x2="779.9687499999999" y2="349.03350284633854" stroke="#000"/>
<rect x="784.3749999999999" y="292.4641103818767" width="8.8125" height="205.53588961812324" fill="green" data-tooltip="3.82x baseline speed (YJIT)"/>
<line x1="784.3749999999999" y1="291.1693131032318" x2="793.1874999999999" y2="291.1693131032318" stroke="#000"/>
<line x1="784.3749999999999" y1="293.75890766052163" x2="793.1874999999999" y2="293.75890766052163" stroke="#000"/>
<line x1="788.7812499999999" y1="291.1693131032318" x2="788.7812499999999" y2="293.75890766052163" stroke="#000"/>
<line x1="784.3749999999999" y1="498.0" x2="784.3749999999999" y2="502.79999999999995" stroke="#000"/>
<text x="784.3749999999999" y="512.4" fill="#111" font-size="small" font-family="monospace" font-weight="bold" text-anchor="end" transform="rotate(-60, 784.3749999999999, 512.4)">
fib
</text>
<rect x="801.9999999999999" y="444.17849698985606" width="8.8125" height="53.82150301014384" fill="#7070f8" data-tooltip="1.00x baseline speed (No JIT)"/>
<line x1="801.9999999999999" y1="444.0988563924085" x2="810.8124999999999" y2="444.0988563924085" stroke="#000"/>
<line x1="801.9999999999999" y1="444.25813758730357" x2="810.8124999999999" y2="444.25813758730357" stroke="#000"/>
<line x1="806.4062499999999" y1="444.0988563924085" x2="806.4062499999999" y2="444.25813758730357" stroke="#000"/>
<rect x="810.8124999999999" y="227.18700916655015" width="8.8125" height="270.81299083344976" fill="orange" data-tooltip="5.03x baseline speed (MJIT)"/>
<line x1="810.8124999999999" y1="51.95201620576545" x2="819.6249999999999" y2="51.95201620576545" stroke="#000"/>
<line x1="810.8124999999999" y1="402.4220021273349" x2="819.6249999999999" y2="402.4220021273349" stroke="#000"/>
<line x1="815.2187499999999" y1="51.95201620576545" x2="815.2187499999999" y2="402.4220021273349" stroke="#000"/>
<rect x="819.6249999999999" y="339.34942394303147" width="8.8125" height="158.65057605696845" fill="green" data-tooltip="2.95x baseline speed (YJIT)"/>
<line x1="819.6249999999999" y1="338.1824550681416" x2="828.4374999999999" y2="338.1824550681416" stroke="#000"/>
<line x1="819.6249999999999" y1="340.5163928179213" x2="828.4374999999999" y2="340.5163928179213" stroke="#000"/>
<line x1="824.0312499999999" y1="338.1824550681416" x2="824.0312499999999" y2="340.5163928179213" stroke="#000"/>
<line x1="819.6249999999999" y1="498.0" x2="819.6249999999999" y2="502.79999999999995" stroke="#000"/>
<text x="819.6249999999999" y="512.4" fill="#111" font-size="small" font-family="monospace" font-weight="bold" text-anchor="end" transform="rotate(-60, 819.6249999999999, 512.4)">
getivar
</text>
<rect x="837.2499999999999" y="444.17849698985606" width="8.8125" height="53.82150301014384" fill="#7070f8" data-tooltip="1.00x baseline speed (No JIT)"/>
<line x1="837.2499999999999" y1="444.13729214481606" x2="846.0624999999999" y2="444.13729214481606" stroke="#000"/>
<line x1="837.2499999999999" y1="444.21970183489606" x2="846.0624999999999" y2="444.21970183489606" stroke="#000"/>
<line x1="841.6562499999999" y1="444.13729214481606" x2="841.6562499999999" y2="444.21970183489606" stroke="#000"/>
<rect x="846.0624999999999" y="430.3477098011453" width="8.8125" height="67.65229019885473" fill="orange" data-tooltip="1.26x baseline speed (MJIT)"/>
<line x1="846.0624999999999" y1="429.19312248850684" x2="854.8749999999999" y2="429.19312248850684" stroke="#000"/>
<line x1="846.0624999999999" y1="431.5022971137837" x2="854.8749999999999" y2="431.5022971137837" stroke="#000"/>
<line x1="850.4687499999999" y1="429.19312248850684" x2="850.4687499999999" y2="431.5022971137837" stroke="#000"/>
<rect x="854.8749999999999" y="217.07046959612092" width="8.8125" height="280.929530403879" fill="green" data-tooltip="5.22x baseline speed (YJIT)"/>
<line x1="854.8749999999999" y1="215.15265427103205" x2="863.6874999999999" y2="215.15265427103205" stroke="#000"/>
<line x1="854.8749999999999" y1="218.9882849212098" x2="863.6874999999999" y2="218.9882849212098" stroke="#000"/>
<line x1="859.2812499999999" y1="215.15265427103205" x2="859.2812499999999" y2="218.9882849212098" stroke="#000"/>
<line x1="854.8749999999999" y1="498.0" x2="854.8749999999999" y2="502.79999999999995" stroke="#000"/>
<text x="854.8749999999999" y="512.4" fill="#111" font-size="small" font-family="monospace" font-weight="bold" text-anchor="end" transform="rotate(-60, 854.8749999999999, 512.4)">
keyword_args
</text>
<rect x="872.4999999999999" y="444.17849698985606" width="8.8125" height="53.82150301014384" fill="#7070f8" data-tooltip="1.00x baseline speed (No JIT)"/>
<line x1="872.4999999999999" y1="444.0702261565867" x2="881.3125" y2="444.0702261565867" stroke="#000"/>
<line x1="872.4999999999999" y1="444.28676782312533" x2="881.3125" y2="444.28676782312533" stroke="#000"/>
<line x1="876.9062499999999" y1="444.0702261565867" x2="876.9062499999999" y2="444.28676782312533" stroke="#000"/>
<rect x="881.3125" y="433.57893095567994" width="8.8125" height="64.42106904432002" fill="orange" data-tooltip="1.20x baseline speed (MJIT)"/>
<line x1="881.3125" y1="433.2744359023307" x2="890.125" y2="433.2744359023307" stroke="#000"/>
<line x1="881.3125" y1="433.88342600902917" x2="890.125" y2="433.88342600902917" stroke="#000"/>
<line x1="885.7187499999999" y1="433.2744359023307" x2="885.7187499999999" y2="433.88342600902917" stroke="#000"/>
<rect x="890.125" y="421.5482191126805" width="8.8125" height="76.45178088731936" fill="green" data-tooltip="1.42x baseline speed (YJIT)"/>
<line x1="890.125" y1="421.28053222493946" x2="898.9375" y2="421.28053222493946" stroke="#000"/>
<line x1="890.125" y1="421.81590600042153" x2="898.9375" y2="421.81590600042153" stroke="#000"/>
<line x1="894.5312499999999" y1="421.28053222493946" x2="894.5312499999999" y2="421.81590600042153" stroke="#000"/>
<line x1="890.125" y1="498.0" x2="890.125" y2="502.79999999999995" stroke="#000"/>
<text x="890.125" y="512.4" fill="#111" font-size="small" font-family="monospace" font-weight="bold" text-anchor="end" transform="rotate(-60, 890.125, 512.4)">
respond_to
</text>
<rect x="907.75" y="444.17849698985606" width="8.8125" height="53.82150301014384" fill="#7070f8" data-tooltip="1.00x baseline speed (No JIT)"/>
<line x1="907.75" y1="443.9250779402583" x2="916.5625" y2="443.9250779402583" stroke="#000"/>
<line x1="907.75" y1="444.43191603945377" x2="916.5625" y2="444.43191603945377" stroke="#000"/>
<line x1="912.1562499999999" y1="443.9250779402583" x2="912.1562499999999" y2="444.43191603945377" stroke="#000"/>
<rect x="916.5625" y="100.19999999999999" width="8.8125" height="397.79999999999995" fill="orange" data-tooltip="7.39x baseline speed (MJIT)"/>
<line x1="916.5625" y1="-273.1249311295903" x2="925.375" y2="-273.1249311295903" stroke="#000"/>
<line x1="916.5625" y1="473.52493112959036" x2="925.375" y2="473.52493112959036" stroke="#000"/>
<line x1="920.9687499999999" y1="-273.1249311295903" x2="920.9687499999999" y2="473.52493112959036" stroke="#000"/>
<rect x="925.375" y="419.04964599330776" width="8.8125" height="78.9503540066921" fill="green" data-tooltip="1.47x baseline speed (YJIT)"/>
<line x1="925.375" y1="418.40953113063546" x2="934.1875" y2="418.40953113063546" stroke="#000"/>
<line x1="925.375" y1="419.68976085598007" x2="934.1875" y2="419.68976085598007" stroke="#000"/>
<line x1="929.7812499999999" y1="418.40953113063546" x2="929.7812499999999" y2="419.68976085598007" stroke="#000"/>
<line x1="925.375" y1="498.0" x2="925.375" y2="502.79999999999995" stroke="#000"/>
<text x="925.375" y="512.4" fill="#111" font-size="small" font-family="monospace" font-weight="bold" text-anchor="end" transform="rotate(-60, 925.375, 512.4)">
setivar
</text>
</svg>