<svg viewBox="0 0 1000 600" xmlns="http://www.w3.org/2000/svg" xmlns:xlink="http://www.w3.org/1999/xlink" width="100%" height="100%">

<rect x="50.0" y="30.0" width="940.0" height="467.99999999999994" stroke="#000" fill="#EEE"/>
<line x1="42.0" y1="497.9999999999999" x2="50.0" y2="497.9999999999999" stroke="#000"/>
<text x="26.000000000000004" y="497.9999999999999" text-anchor="end" font-weight="bold" font-size="small" fill="#111">
0.0
</text>
<line x1="42.0" y1="412.50584423976704" x2="50.0" y2="412.50584423976704" stroke="#000"/>
<text x="26.000000000000004" y="412.50584423976704" text-anchor="end" font-weight="bold" font-size="small" fill="#111">
0.5
</text>
<line x1="42.0" y1="327.0116884795342" x2="50.0" y2="327.0116884795342" stroke="#000"/>
<text x="26.000000000000004" y="327.0116884795342" text-anchor="end" font-weight="bold" font-size="small" fill="#111">
1.0
</text>
<line x1="42.0" y1="241.51753271930127" x2="50.0" y2="241.51753271930127" stroke="#000"/>
<text x="26.000000000000004" y="241.51753271930127" text-anchor="end" font-weight="bold" font-size="small" fill="#111">
1.5
</text>
<line x1="42.0" y1="156.02337695906837" x2="50.0" y2="156.02337695906837" stroke="#000"/>
<text x="26.000000000000004" y="156.02337695906837" text-anchor="end" font-weight="bold" font-size="small" fill="#111">
2.0
</text>
<rect x="268.5" y="36.00000000000001" width="80.0" height="18.0" fill="#7070f8" stroke="#888"/>
<text x="308.5" y="52.50000000000001" font-size="small" text-anchor="middle" font-weight="bold" fill="#EEE">
No JIT
</text>
<rect x="691.4999999999999" y="36.00000000000001" width="80.0" height="18.0" fill="orange" stroke="#888"/>
<text x="731.4999999999999" y="52.50000000000001" font-size="small" text-anchor="middle" font-weight="bold" fill="#EEE">
YJIT
</text>
<rect x="97.0" y="327.0116884795342" width="31.333333333333332" height="170.98831152046577" fill="#7070f8" data-tooltip="1.00x baseline speed (No JIT)"/>
<line x1="97.0" y1="326.6908762974656" x2="128.33333333333331" y2="326.6908762974656" stroke="#000"/>
<line x1="97.0" y1="327.33250066160286" x2="128.33333333333331" y2="327.33250066160286" stroke="#000"/>
<line x1="112.66666666666667" y1="326.6908762974656" x2="112.66666666666667" y2="327.33250066160286" stroke="#000"/>
<rect x="128.33333333333331" y="189.48341269049845" width="31.333333333333332" height="308.51658730950146" fill="orange" data-tooltip="1.80x baseline speed (YJIT)"/>
<line x1="128.33333333333331" y1="188.78892055490857" x2="159.66666666666666" y2="188.78892055490857" stroke="#000"/>
<line x1="128.33333333333331" y1="190.1779048260883" x2="159.66666666666666" y2="190.1779048260883" stroke="#000"/>
<line x1="144.0" y1="188.78892055490857" x2="144.0" y2="190.1779048260883" stroke="#000"/>
<line x1="144.00000000000003" y1="498.0" x2="144.00000000000003" y2="502.79999999999995" stroke="#000"/>
<text x="144.00000000000003" y="512.4" fill="#111" font-size="small" font-family="monospace" font-weight="bold" text-anchor="end" transform="rotate(-60, 144.00000000000003, 512.4)">
binarytrees
</text>
<rect x="191.0" y="327.0116884795342" width="31.333333333333332" height="170.98831152046577" fill="#7070f8" data-tooltip="1.00x baseline speed (No JIT)"/>
<line x1="191.0" y1="326.728290290877" x2="222.33333333333331" y2="326.728290290877" stroke="#000"/>
<line x1="191.0" y1="327.29508666819146" x2="222.33333333333331" y2="327.29508666819146" stroke="#000"/>
<line x1="206.66666666666666" y1="326.728290290877" x2="206.66666666666666" y2="327.29508666819146" stroke="#000"/>
<rect x="222.33333333333331" y="246.99257108009587" width="31.333333333333332" height="251.00742891990407" fill="orange" data-tooltip="1.47x baseline speed (YJIT)"/>
<line x1="222.33333333333331" y1="246.37844211433728" x2="253.66666666666666" y2="246.37844211433728" stroke="#000"/>
<line x1="222.33333333333331" y1="247.60670004585447" x2="253.66666666666666" y2="247.60670004585447" stroke="#000"/>
<line x1="238.0" y1="246.37844211433728" x2="238.0" y2="247.60670004585447" stroke="#000"/>
<line x1="238.0" y1="498.0" x2="238.0" y2="502.79999999999995" stroke="#000"/>
<text x="238.0" y="512.4" fill="#111" font-size="small" font-family="monospace" font-weight="bold" text-anchor="end" transform="rotate(-60, 238.0, 512.4)">
chunky_png
</text>
<rect x="285.00000000000006" y="327.0116884795342" width="31.333333333333332" height="170.98831152046577" fill="#7070f8" data-tooltip="1.00x baseline speed (No JIT)"/>
<line x1="285.00000000000006" y1="325.4958463983508" x2="316.33333333333337" y2="325.4958463983508" stroke="#000"/>
<line x1="285.00000000000006" y1="328.5275305607176" x2="316.33333333333337" y2="328.5275305607176" stroke="#000"/>
<line x1="300.6666666666667" y1="325.4958463983508" x2="300.6666666666667" y2="328.5275305607176" stroke="#000"/>
<rect x="316.33333333333337" y="311.02141135599413" width="31.333333333333332" height="186.9785886440058" fill="orange" data-tooltip="1.09x baseline speed (YJIT)"/>
<line x1="316.33333333333337" y1="308.93049135935877" x2="347.6666666666667" y2="308.93049135935877" stroke="#000"/>
<line x1="316.33333333333337" y1="313.1123313526295" x2="347.6666666666667" y2="313.1123313526295" stroke="#000"/>
<line x1="332.0" y1="308.93049135935877" x2="332.0" y2="313.1123313526295" stroke="#000"/>
<line x1="332.0" y1="498.0" x2="332.0" y2="502.79999999999995" stroke="#000"/>
<text x="332.0" y="512.4" fill="#111" font-size="small" font-family="monospace" font-weight="bold" text-anchor="end" transform="rotate(-60, 332.0, 512.4)">
erubi
</text>
<rect x="379.0" y="327.0116884795342" width="31.333333333333332" height="170.98831152046577" fill="#7070f8" data-tooltip="1.00x baseline speed (No JIT)"/>
<line x1="379.0" y1="323.3363118629207" x2="410.3333333333333" y2="323.3363118629207" stroke="#000"/>
<line x1="379.0" y1="330.68706509614776" x2="410.3333333333333" y2="330.68706509614776" stroke="#000"/>
<line x1="394.6666666666667" y1="323.3363118629207" x2="394.6666666666667" y2="330.68706509614776" stroke="#000"/>
<rect x="410.3333333333333" y="309.8721046961253" width="31.333333333333332" height="188.12789530387462" fill="orange" data-tooltip="1.10x baseline speed (YJIT)"/>
<line x1="410.3333333333333" y1="304.2799982185943" x2="441.66666666666663" y2="304.2799982185943" stroke="#000"/>
<line x1="410.3333333333333" y1="315.4642111736563" x2="441.66666666666663" y2="315.4642111736563" stroke="#000"/>
<line x1="426.0" y1="304.2799982185943" x2="426.0" y2="315.4642111736563" stroke="#000"/>
<line x1="426.0" y1="498.0" x2="426.0" y2="502.79999999999995" stroke="#000"/>
<text x="426.0" y="512.4" fill="#111" font-size="small" font-family="monospace" font-weight="bold" text-anchor="end" transform="rotate(-60, 426.0, 512.4)">
erubi_rails
</text>
<rect x="473.0" y="327.0116884795342" width="31.333333333333332" height="170.98831152046577" fill="#7070f8" data-tooltip="1.00x baseline speed (No JIT)"/>
<line x1="473.0" y1="325.2829795516045" x2="504.3333333333333" y2="325.2829795516045" stroke="#000"/>
<line x1="473.0" y1="328.7403974074639" x2="504.3333333333333" y2="328.7403974074639" stroke="#000"/>
<line x1="488.66666666666663" y1="325.2829795516045" x2="488.66666666666663" y2="328.7403974074639" stroke="#000"/>
<rect x="504.3333333333333" y="100.19999999999999" width="31.333333333333332" height="397.79999999999995" fill="orange" data-tooltip="2.33x baseline speed (YJIT)"/>
<line x1="504.3333333333333" y1="96.07381585805345" x2="535.6666666666666" y2="96.07381585805345" stroke="#000"/>
<line x1="504.3333333333333" y1="104.32618414194653" x2="535.6666666666666" y2="104.32618414194653" stroke="#000"/>
<line x1="520.0" y1="96.07381585805345" x2="520.0" y2="104.32618414194653" stroke="#000"/>
<line x1="520.0" y1="498.0" x2="520.0" y2="502.79999999999995" stroke="#000"/>
<text x="520.0" y="512.4" fill="#111" font-size="small" font-family="monospace" font-weight="bold" text-anchor="end" transform="rotate(-60, 520.0, 512.4)">
fannkuchredux
</text>
<rect x="567.0" y="327.0116884795342" width="31.333333333333332" height="170.98831152046577" fill="#7070f8" data-tooltip="1.00x baseline speed (No JIT)"/>
<line x1="567.0" y1="325.7896643949198" x2="598.3333333333333" y2="325.7896643949198" stroke="#000"/>
<line x1="567.0" y1="328.2337125641487" x2="598.3333333333333" y2="328.2337125641487" stroke="#000"/>
<line x1="582.6666666666666" y1="325.7896643949198" x2="582.6666666666666" y2="328.2337125641487" stroke="#000"/>
<rect x="598.3333333333333" y="274.1177016718736" width="31.333333333333332" height="223.88229832812638" fill="orange" data-tooltip="1.31x baseline speed (YJIT)"/>
<line x1="598.3333333333333" y1="269.5448992604684" x2="629.6666666666666" y2="269.5448992604684" stroke="#000"/>
<line x1="598.3333333333333" y1="278.6905040832787" x2="629.6666666666666" y2="278.6905040832787" stroke="#000"/>
<line x1="614.0" y1="269.5448992604684" x2="614.0" y2="278.6905040832787" stroke="#000"/>
<line x1="614.0" y1="498.0" x2="614.0" y2="502.79999999999995" stroke="#000"/>
<text x="614.0" y="512.4" fill="#111" font-size="small" font-family="monospace" font-weight="bold" text-anchor="end" transform="rotate(-60, 614.0, 512.4)">
lee
</text>
<rect x="661.0" y="327.0116884795342" width="31.333333333333332" height="170.98831152046577" fill="#7070f8" data-tooltip="1.00x baseline speed (No JIT)"/>
<line x1="661.0" y1="325.4069390192004" x2="692.3333333333334" y2="325.4069390192004" stroke="#000"/>
<line x1="661.0" y1="328.616437939868" x2="692.3333333333334" y2="328.616437939868" stroke="#000"/>
<line x1="676.6666666666667" y1="325.4069390192004" x2="676.6666666666667" y2="328.616437939868" stroke="#000"/>
<rect x="692.3333333333334" y="262.26193236748344" width="31.333333333333332" height="235.7380676325165" fill="orange" data-tooltip="1.38x baseline speed (YJIT)"/>
<line x1="692.3333333333334" y1="260.0413769188571" x2="723.6666666666666" y2="260.0413769188571" stroke="#000"/>
<line x1="692.3333333333334" y1="264.48248781610977" x2="723.6666666666666" y2="264.48248781610977" stroke="#000"/>
<line x1="708.0000000000001" y1="260.0413769188571" x2="708.0000000000001" y2="264.48248781610977" stroke="#000"/>
<line x1="708.0000000000001" y1="498.0" x2="708.0000000000001" y2="502.79999999999995" stroke="#000"/>
<text x="708.0000000000001" y="512.4" fill="#111" font-size="small" font-family="monospace" font-weight="bold" text-anchor="end" transform="rotate(-60, 708.0000000000001, 512.4)">
nbody
</text>
<rect x="755.0" y="327.0116884795342" width="31.333333333333332" height="170.98831152046577" fill="#7070f8" data-tooltip="1.00x baseline speed (No JIT)"/>
<line x1="755.0" y1="326.2441131571201" x2="786.3333333333334" y2="326.2441131571201" stroke="#000"/>
<line x1="755.0" y1="327.7792638019483" x2="786.3333333333334" y2="327.7792638019483" stroke="#000"/>
<line x1="770.6666666666667" y1="326.2441131571201" x2="770.6666666666667" y2="327.7792638019483" stroke="#000"/>
<rect x="786.3333333333334" y="267.5491327754445" width="31.333333333333332" height="230.45086722455548" fill="orange" data-tooltip="1.35x baseline speed (YJIT)"/>
<line x1="786.3333333333334" y1="265.47876614173225" x2="817.6666666666666" y2="265.47876614173225" stroke="#000"/>
<line x1="786.3333333333334" y1="269.61949940915673" x2="817.6666666666666" y2="269.61949940915673" stroke="#000"/>
<line x1="802.0" y1="265.47876614173225" x2="802.0" y2="269.61949940915673" stroke="#000"/>
<line x1="802.0" y1="498.0" x2="802.0" y2="502.79999999999995" stroke="#000"/>
<text x="802.0" y="512.4" fill="#111" font-size="small" font-family="monospace" font-weight="bold" text-anchor="end" transform="rotate(-60, 802.0, 512.4)">
optcarrot
</text>
<rect x="849.0" y="327.0116884795342" width="31.333333333333332" height="170.98831152046577" fill="#7070f8" data-tooltip="1.00x baseline speed (No JIT)"/>
<line x1="849.0" y1="326.1901555986806" x2="880.3333333333333" y2="326.1901555986806" stroke="#000"/>
<line x1="849.0" y1="327.8332213603878" x2="880.3333333333333" y2="327.8332213603878" stroke="#000"/>
<line x1="864.6666666666667" y1="326.1901555986806" x2="864.6666666666667" y2="327.8332213603878" stroke="#000"/>
<rect x="880.3333333333333" y="268.6098809415651" width="31.333333333333332" height="229.39011905843483" fill="orange" data-tooltip="1.34x baseline speed (YJIT)"/>
<line x1="880.3333333333333" y1="267.1081526468211" x2="911.6666666666666" y2="267.1081526468211" stroke="#000"/>
<line x1="880.3333333333333" y1="270.11160923630916" x2="911.6666666666666" y2="270.11160923630916" stroke="#000"/>
<line x1="896.0" y1="267.1081526468211" x2="896.0" y2="270.11160923630916" stroke="#000"/>
<line x1="896.0" y1="498.0" x2="896.0" y2="502.79999999999995" stroke="#000"/>
<text x="896.0" y="512.4" fill="#111" font-size="small" font-family="monospace" font-weight="bold" text-anchor="end" transform="rotate(-60, 896.0, 512.4)">
rubykon
</text>
</svg>