<svg viewBox="0 0 1000 600" xmlns="http://www.w3.org/2000/svg" xmlns:xlink="http://www.w3.org/1999/xlink" width="100%" height="100%">

<rect x="50.0" y="30.0" width="940.0" height="467.99999999999994" stroke="#000" fill="#EEE"/>
<line x1="42.0" y1="497.9999999999999" x2="50.0" y2="497.9999999999999" stroke="#000"/>
<text x="26.000000000000004" y="497.9999999999999" text-anchor="end" font-weight="bold" font-size="small" fill="#111">
0.0
</text>
<line x1="42.0" y1="428.44073139681655" x2="50.0" y2="428.44073139681655" stroke="#000"/>
<text x="26.000000000000004" y="428.44073139681655" text-anchor="end" font-weight="bold" font-size="small" fill="#111">
0.5
</text>
<line x1="42.0" y1="358.88146279363315" x2="50.0" y2="358.88146279363315" stroke="#000"/>
<text x="26.000000000000004" y="358.88146279363315" text-anchor="end" font-weight="bold" font-size="small" fill="#111">
1.0
</text>
<line x1="42.0" y1="289.32219419044975" x2="50.0" y2="289.32219419044975" stroke="#000"/>
<text x="26.000000000000004" y="289.32219419044975" text-anchor="end" font-weight="bold" font-size="small" fill="#111">
1.5
</text>
<line x1="42.0" y1="219.76292558726638" x2="50.0" y2="219.76292558726638" stroke="#000"/>
<text x="26.000000000000004" y="219.76292558726638" text-anchor="end" font-weight="bold" font-size="small" fill="#111">
2.0
</text>
<line x1="42.0" y1="150.203656984083" x2="50.0" y2="150.203656984083" stroke="#000"/>
<text x="26.000000000000004" y="150.203656984083" text-anchor="end" font-weight="bold" font-size="small" fill="#111">
2.5
</text>
<rect x="162.74999999999997" y="36.00000000000001" width="80.0" height="18.0" fill="#7070f8" stroke="#888"/>
<text x="202.75" y="52.50000000000001" font-size="small" text-anchor="middle" font-weight="bold" fill="#EEE">
No JIT
</text>
<rect x="374.25" y="36.00000000000001" width="80.0" height="18.0" fill="orange" stroke="#888"/>
<text x="414.25" y="52.50000000000001" font-size="small" text-anchor="middle" font-weight="bold" fill="#EEE">
MJIT3.0
</text>
<rect x="585.7499999999999" y="36.00000000000001" width="80.0" height="18.0" fill="green" stroke="#888"/>
<text x="625.7499999999999" y="52.50000000000001" font-size="small" text-anchor="middle" font-weight="bold" fill="#EEE">
MJIT
</text>
<rect x="797.2499999999999" y="36.00000000000001" width="80.0" height="18.0" fill="#4F3A7A" stroke="#888"/>
<text x="837.2499999999999" y="52.50000000000001" font-size="small" text-anchor="middle" font-weight="bold" fill="#EEE">
YJIT
</text>
<rect x="97.0" y="358.88146279363315" width="18.8" height="139.11853720636677" fill="#7070f8" data-tooltip="1.00x baseline speed (No JIT)"/>
<line x1="97.0" y1="358.80736709940663" x2="115.8" y2="358.80736709940663" stroke="#000"/>
<line x1="97.0" y1="358.9555584878596" x2="115.8" y2="358.9555584878596" stroke="#000"/>
<line x1="106.4" y1="358.80736709940663" x2="106.4" y2="358.9555584878596" stroke="#000"/>
<rect x="115.8" y="256.44238571707166" width="18.8" height="241.55761428292828" fill="orange" data-tooltip="1.74x baseline speed (MJIT3.0)"/>
<line x1="115.8" y1="255.74427046953394" x2="134.6" y2="255.74427046953394" stroke="#000"/>
<line x1="115.8" y1="257.1405009646094" x2="134.6" y2="257.1405009646094" stroke="#000"/>
<line x1="125.2" y1="255.74427046953394" x2="125.2" y2="257.1405009646094" stroke="#000"/>
<rect x="134.6" y="279.53849401146186" width="18.8" height="218.4615059885381" fill="green" data-tooltip="1.57x baseline speed (MJIT)"/>
<line x1="134.6" y1="278.80731356337566" x2="153.4" y2="278.80731356337566" stroke="#000"/>
<line x1="134.6" y1="280.26967445954807" x2="153.4" y2="280.26967445954807" stroke="#000"/>
<line x1="144.0" y1="278.80731356337566" x2="144.0" y2="280.26967445954807" stroke="#000"/>
<rect x="153.4" y="312.5446465456112" width="18.8" height="185.45535345438873" fill="#4F3A7A" data-tooltip="1.33x baseline speed (YJIT)"/>
<line x1="153.4" y1="312.2450858362468" x2="172.20000000000002" y2="312.2450858362468" stroke="#000"/>
<line x1="153.4" y1="312.8442072549757" x2="172.20000000000002" y2="312.8442072549757" stroke="#000"/>
<line x1="162.8" y1="312.2450858362468" x2="162.8" y2="312.8442072549757" stroke="#000"/>
<line x1="144.00000000000003" y1="498.0" x2="144.00000000000003" y2="502.79999999999995" stroke="#000"/>
<text x="144.00000000000003" y="512.4" fill="#111" font-size="small" font-family="monospace" font-weight="bold" text-anchor="end" transform="rotate(-60, 144.00000000000003, 512.4)">
binarytrees
</text>
<rect x="191.0" y="358.88146279363315" width="18.8" height="139.11853720636677" fill="#7070f8" data-tooltip="1.00x baseline speed (No JIT)"/>
<line x1="191.0" y1="340.6264436880782" x2="209.8" y2="340.6264436880782" stroke="#000"/>
<line x1="191.0" y1="377.136481899188" x2="209.8" y2="377.136481899188" stroke="#000"/>
<line x1="200.4" y1="340.6264436880782" x2="200.4" y2="377.136481899188" stroke="#000"/>
<rect x="209.8" y="355.3345131948159" width="18.8" height="142.66548680518406" fill="orange" data-tooltip="1.03x baseline speed (MJIT3.0)"/>
<line x1="209.8" y1="336.508805972621" x2="228.60000000000002" y2="336.508805972621" stroke="#000"/>
<line x1="209.8" y1="374.1602204170108" x2="228.60000000000002" y2="374.1602204170108" stroke="#000"/>
<line x1="219.20000000000002" y1="336.508805972621" x2="219.20000000000002" y2="374.1602204170108" stroke="#000"/>
<rect x="228.6" y="355.8973997060314" width="18.8" height="142.10260029396855" fill="green" data-tooltip="1.02x baseline speed (MJIT)"/>
<line x1="228.6" y1="334.44789893700346" x2="247.4" y2="334.44789893700346" stroke="#000"/>
<line x1="228.6" y1="377.3469004750594" x2="247.4" y2="377.3469004750594" stroke="#000"/>
<line x1="238.0" y1="334.44789893700346" x2="238.0" y2="377.3469004750594" stroke="#000"/>
<rect x="247.4" y="364.4410010310647" width="18.8" height="133.55899896893524" fill="#4F3A7A" data-tooltip="0.96x baseline speed (YJIT)"/>
<line x1="247.4" y1="337.282291572293" x2="266.2" y2="337.282291572293" stroke="#000"/>
<line x1="247.4" y1="391.59971048983635" x2="266.2" y2="391.59971048983635" stroke="#000"/>
<line x1="256.8" y1="337.282291572293" x2="256.8" y2="391.59971048983635" stroke="#000"/>
<line x1="238.0" y1="498.0" x2="238.0" y2="502.79999999999995" stroke="#000"/>
<text x="238.0" y="512.4" fill="#111" font-size="small" font-family="monospace" font-weight="bold" text-anchor="end" transform="rotate(-60, 238.0, 512.4)">
discourse
</text>
<rect x="285.00000000000006" y="358.88146279363315" width="18.8" height="139.11853720636677" fill="#7070f8" data-tooltip="1.00x baseline speed (No JIT)"/>
<line x1="285.00000000000006" y1="357.95026407108594" x2="303.8" y2="357.95026407108594" stroke="#000"/>
<line x1="285.00000000000006" y1="359.8126615161803" x2="303.8" y2="359.8126615161803" stroke="#000"/>
<line x1="294.40000000000003" y1="357.95026407108594" x2="294.40000000000003" y2="359.8126615161803" stroke="#000"/>
<rect x="303.8" y="360.21663789477077" width="18.8" height="137.7833621052292" fill="orange" data-tooltip="0.99x baseline speed (MJIT3.0)"/>
<line x1="303.8" y1="358.7793915060758" x2="322.6" y2="358.7793915060758" stroke="#000"/>
<line x1="303.8" y1="361.6538842834657" x2="322.6" y2="361.6538842834657" stroke="#000"/>
<line x1="313.20000000000005" y1="358.7793915060758" x2="313.20000000000005" y2="361.6538842834657" stroke="#000"/>
<rect x="322.6000000000001" y="347.531327371001" width="18.8" height="150.46867262899897" fill="green" data-tooltip="1.08x baseline speed (MJIT)"/>
<line x1="322.6000000000001" y1="346.1586585108243" x2="341.40000000000003" y2="346.1586585108243" stroke="#000"/>
<line x1="322.6000000000001" y1="348.9039962311777" x2="341.40000000000003" y2="348.9039962311777" stroke="#000"/>
<line x1="332.00000000000006" y1="346.1586585108243" x2="332.00000000000006" y2="348.9039962311777" stroke="#000"/>
<rect x="341.40000000000003" y="345.29804231630766" width="18.8" height="152.70195768369229" fill="#4F3A7A" data-tooltip="1.10x baseline speed (YJIT)"/>
<line x1="341.40000000000003" y1="343.6595803824756" x2="360.20000000000005" y2="343.6595803824756" stroke="#000"/>
<line x1="341.40000000000003" y1="346.9365042501397" x2="360.20000000000005" y2="346.9365042501397" stroke="#000"/>
<line x1="350.80000000000007" y1="343.6595803824756" x2="350.80000000000007" y2="346.9365042501397" stroke="#000"/>
<line x1="332.0" y1="498.0" x2="332.0" y2="502.79999999999995" stroke="#000"/>
<text x="332.0" y="512.4" fill="#111" font-size="small" font-family="monospace" font-weight="bold" text-anchor="end" transform="rotate(-60, 332.0, 512.4)">
erubi
</text>
<rect x="379.0" y="358.88146279363315" width="18.8" height="139.11853720636677" fill="#7070f8" data-tooltip="1.00x baseline speed (No JIT)"/>
<line x1="379.0" y1="355.4996501357328" x2="397.8" y2="355.4996501357328" stroke="#000"/>
<line x1="379.0" y1="362.26327545153345" x2="397.8" y2="362.26327545153345" stroke="#000"/>
<line x1="388.40000000000003" y1="355.4996501357328" x2="388.40000000000003" y2="362.26327545153345" stroke="#000"/>
<rect x="397.8" y="372.49785313646225" width="18.8" height="125.50214686353769" fill="orange" data-tooltip="0.90x baseline speed (MJIT3.0)"/>
<line x1="397.8" y1="367.4176310117563" x2="416.59999999999997" y2="367.4176310117563" stroke="#000"/>
<line x1="397.8" y1="377.5780752611682" x2="416.59999999999997" y2="377.5780752611682" stroke="#000"/>
<line x1="407.2" y1="367.4176310117563" x2="407.2" y2="377.5780752611682" stroke="#000"/>
<rect x="416.6" y="368.52414738550266" width="18.8" height="129.47585261449728" fill="green" data-tooltip="0.93x baseline speed (MJIT)"/>
<line x1="416.6" y1="362.219608697296" x2="435.40000000000003" y2="362.219608697296" stroke="#000"/>
<line x1="416.6" y1="374.8286860737094" x2="435.40000000000003" y2="374.8286860737094" stroke="#000"/>
<line x1="426.00000000000006" y1="362.219608697296" x2="426.00000000000006" y2="374.8286860737094" stroke="#000"/>
<rect x="435.40000000000003" y="315.55344660413726" width="18.8" height="182.4465533958627" fill="#4F3A7A" data-tooltip="1.31x baseline speed (YJIT)"/>
<line x1="435.40000000000003" y1="307.5427329458995" x2="454.2" y2="307.5427329458995" stroke="#000"/>
<line x1="435.40000000000003" y1="323.564160262375" x2="454.2" y2="323.564160262375" stroke="#000"/>
<line x1="444.8" y1="307.5427329458995" x2="444.8" y2="323.564160262375" stroke="#000"/>
<line x1="426.0" y1="498.0" x2="426.0" y2="502.79999999999995" stroke="#000"/>
<text x="426.0" y="512.4" fill="#111" font-size="small" font-family="monospace" font-weight="bold" text-anchor="end" transform="rotate(-60, 426.0, 512.4)">
erubi_rails
</text>
<rect x="473.0" y="358.88146279363315" width="18.8" height="139.11853720636677" fill="#7070f8" data-tooltip="1.00x baseline speed (No JIT)"/>
<line x1="473.0" y1="358.78718777733695" x2="491.79999999999995" y2="358.78718777733695" stroke="#000"/>
<line x1="473.0" y1="358.9757378099293" x2="491.79999999999995" y2="358.9757378099293" stroke="#000"/>
<line x1="482.4" y1="358.78718777733695" x2="482.4" y2="358.9757378099293" stroke="#000"/>
<rect x="491.79999999999995" y="100.19999999999999" width="18.8" height="397.79999999999995" fill="orange" data-tooltip="2.86x baseline speed (MJIT3.0)"/>
<line x1="491.79999999999995" y1="99.82608259777221" x2="510.59999999999997" y2="99.82608259777221" stroke="#000"/>
<line x1="491.79999999999995" y1="100.57391740222776" x2="510.59999999999997" y2="100.57391740222776" stroke="#000"/>
<line x1="501.2" y1="99.82608259777221" x2="501.2" y2="100.57391740222776" stroke="#000"/>
<rect x="510.59999999999997" y="250.02374876286865" width="18.8" height="247.9762512371313" fill="green" data-tooltip="1.78x baseline speed (MJIT)"/>
<line x1="510.59999999999997" y1="249.43494239338685" x2="529.4" y2="249.43494239338685" stroke="#000"/>
<line x1="510.59999999999997" y1="250.61255513235042" x2="529.4" y2="250.61255513235042" stroke="#000"/>
<line x1="519.9999999999999" y1="249.43494239338685" x2="519.9999999999999" y2="250.61255513235042" stroke="#000"/>
<rect x="529.4" y="361.0031530713256" width="18.8" height="136.99684692867436" fill="#4F3A7A" data-tooltip="0.98x baseline speed (YJIT)"/>
<line x1="529.4" y1="360.87693138322487" x2="548.2" y2="360.87693138322487" stroke="#000"/>
<line x1="529.4" y1="361.1293747594263" x2="548.2" y2="361.1293747594263" stroke="#000"/>
<line x1="538.8" y1="360.87693138322487" x2="538.8" y2="361.1293747594263" stroke="#000"/>
<line x1="520.0" y1="498.0" x2="520.0" y2="502.79999999999995" stroke="#000"/>
<text x="520.0" y="512.4" fill="#111" font-size="small" font-family="monospace" font-weight="bold" text-anchor="end" transform="rotate(-60, 520.0, 512.4)">
fannkuchredux
</text>
<rect x="567.0" y="358.88146279363315" width="18.8" height="139.11853720636677" fill="#7070f8" data-tooltip="1.00x baseline speed (No JIT)"/>
<line x1="567.0" y1="357.56524743103887" x2="585.8" y2="357.56524743103887" stroke="#000"/>
<line x1="567.0" y1="360.19767815622737" x2="585.8" y2="360.19767815622737" stroke="#000"/>
<line x1="576.3999999999999" y1="357.56524743103887" x2="576.3999999999999" y2="360.19767815622737" stroke="#000"/>
<rect x="585.8" y="338.45335131928005" width="18.8" height="159.54664868071993" fill="orange" data-tooltip="1.15x baseline speed (MJIT3.0)"/>
<line x1="585.8" y1="335.9522456484364" x2="604.6" y2="335.9522456484364" stroke="#000"/>
<line x1="585.8" y1="340.9544569901237" x2="604.6" y2="340.9544569901237" stroke="#000"/>
<line x1="595.1999999999999" y1="335.9522456484364" x2="595.1999999999999" y2="340.9544569901237" stroke="#000"/>
<rect x="604.5999999999999" y="330.7178890825219" width="18.8" height="167.28211091747804" fill="green" data-tooltip="1.20x baseline speed (MJIT)"/>
<line x1="604.5999999999999" y1="327.8867465000541" x2="623.4" y2="327.8867465000541" stroke="#000"/>
<line x1="604.5999999999999" y1="333.5490316649897" x2="623.4" y2="333.5490316649897" stroke="#000"/>
<line x1="613.9999999999999" y1="327.8867465000541" x2="613.9999999999999" y2="333.5490316649897" stroke="#000"/>
<rect x="623.4" y="310.071017940716" width="18.8" height="187.92898205928395" fill="#4F3A7A" data-tooltip="1.35x baseline speed (YJIT)"/>
<line x1="623.4" y1="306.6862823935467" x2="642.2" y2="306.6862823935467" stroke="#000"/>
<line x1="623.4" y1="313.4557534878853" x2="642.2" y2="313.4557534878853" stroke="#000"/>
<line x1="632.8" y1="306.6862823935467" x2="632.8" y2="313.4557534878853" stroke="#000"/>
<line x1="614.0" y1="498.0" x2="614.0" y2="502.79999999999995" stroke="#000"/>
<text x="614.0" y="512.4" fill="#111" font-size="small" font-family="monospace" font-weight="bold" text-anchor="end" transform="rotate(-60, 614.0, 512.4)">
lee
</text>
<rect x="661.0" y="358.88146279363315" width="18.8" height="139.11853720636677" fill="#7070f8" data-tooltip="1.00x baseline speed (No JIT)"/>
<line x1="661.0" y1="358.8111803839059" x2="679.8000000000001" y2="358.8111803839059" stroke="#000"/>
<line x1="661.0" y1="358.9517452033604" x2="679.8000000000001" y2="358.9517452033604" stroke="#000"/>
<line x1="670.4" y1="358.8111803839059" x2="670.4" y2="358.9517452033604" stroke="#000"/>
<rect x="679.8000000000001" y="265.0652137363642" width="18.8" height="232.93478626363571" fill="orange" data-tooltip="1.67x baseline speed (MJIT3.0)"/>
<line x1="679.8000000000001" y1="264.69849351491877" x2="698.6000000000001" y2="264.69849351491877" stroke="#000"/>
<line x1="679.8000000000001" y1="265.4319339578097" x2="698.6000000000001" y2="265.4319339578097" stroke="#000"/>
<line x1="689.2" y1="264.69849351491877" x2="689.2" y2="265.4319339578097" stroke="#000"/>
<rect x="698.6" y="267.5141913937746" width="18.8" height="230.48580860622536" fill="green" data-tooltip="1.66x baseline speed (MJIT)"/>
<line x1="698.6" y1="267.3567650358687" x2="717.4000000000001" y2="267.3567650358687" stroke="#000"/>
<line x1="698.6" y1="267.6716177516804" x2="717.4000000000001" y2="267.6716177516804" stroke="#000"/>
<line x1="708.0" y1="267.3567650358687" x2="708.0" y2="267.6716177516804" stroke="#000"/>
<rect x="717.4000000000001" y="314.86307712344137" width="18.8" height="183.13692287655857" fill="#4F3A7A" data-tooltip="1.32x baseline speed (YJIT)"/>
<line x1="717.4000000000001" y1="314.0280089632162" x2="736.2" y2="314.0280089632162" stroke="#000"/>
<line x1="717.4000000000001" y1="315.69814528366646" x2="736.2" y2="315.69814528366646" stroke="#000"/>
<line x1="726.8" y1="314.0280089632162" x2="726.8" y2="315.69814528366646" stroke="#000"/>
<line x1="708.0000000000001" y1="498.0" x2="708.0000000000001" y2="502.79999999999995" stroke="#000"/>
<text x="708.0000000000001" y="512.4" fill="#111" font-size="small" font-family="monospace" font-weight="bold" text-anchor="end" transform="rotate(-60, 708.0000000000001, 512.4)">
nbody
</text>
<rect x="755.0" y="358.88146279363315" width="18.8" height="139.11853720636677" fill="#7070f8" data-tooltip="1.00x baseline speed (No JIT)"/>
<line x1="755.0" y1="358.2999078897464" x2="773.8000000000001" y2="358.2999078897464" stroke="#000"/>
<line x1="755.0" y1="359.46301769751983" x2="773.8000000000001" y2="359.46301769751983" stroke="#000"/>
<line x1="764.4" y1="358.2999078897464" x2="764.4" y2="359.46301769751983" stroke="#000"/>
<rect x="773.8000000000001" y="169.39047482720244" width="18.8" height="328.6095251727975" fill="orange" data-tooltip="2.36x baseline speed (MJIT3.0)"/>
<line x1="773.8000000000001" y1="167.064462425706" x2="792.6000000000001" y2="167.064462425706" stroke="#000"/>
<line x1="773.8000000000001" y1="171.7164872286989" x2="792.6000000000001" y2="171.7164872286989" stroke="#000"/>
<line x1="783.2" y1="167.064462425706" x2="783.2" y2="171.7164872286989" stroke="#000"/>
<rect x="792.6" y="160.06633935443475" width="18.8" height="337.9336606455652" fill="green" data-tooltip="2.43x baseline speed (MJIT)"/>
<line x1="792.6" y1="157.55153223582732" x2="811.4" y2="157.55153223582732" stroke="#000"/>
<line x1="792.6" y1="162.58114647304217" x2="811.4" y2="162.58114647304217" stroke="#000"/>
<line x1="801.9999999999999" y1="157.55153223582732" x2="801.9999999999999" y2="162.58114647304217" stroke="#000"/>
<rect x="811.4" y="253.6315958716942" width="18.8" height="244.36840412830574" fill="#4F3A7A" data-tooltip="1.76x baseline speed (YJIT)"/>
<line x1="811.4" y1="251.9277041436677" x2="830.2" y2="251.9277041436677" stroke="#000"/>
<line x1="811.4" y1="255.3354875997207" x2="830.2" y2="255.3354875997207" stroke="#000"/>
<line x1="820.8" y1="251.9277041436677" x2="820.8" y2="255.3354875997207" stroke="#000"/>
<line x1="802.0" y1="498.0" x2="802.0" y2="502.79999999999995" stroke="#000"/>
<text x="802.0" y="512.4" fill="#111" font-size="small" font-family="monospace" font-weight="bold" text-anchor="end" transform="rotate(-60, 802.0, 512.4)">
optcarrot
</text>
<rect x="849.0" y="358.88146279363315" width="18.8" height="139.11853720636677" fill="#7070f8" data-tooltip="1.00x baseline speed (No JIT)"/>
<line x1="849.0" y1="358.3680767073567" x2="867.8000000000001" y2="358.3680767073567" stroke="#000"/>
<line x1="849.0" y1="359.3948488799096" x2="867.8000000000001" y2="359.3948488799096" stroke="#000"/>
<line x1="858.4" y1="358.3680767073567" x2="858.4" y2="359.3948488799096" stroke="#000"/>
<rect x="867.8000000000001" y="285.61009891934714" width="18.8" height="212.3899010806528" fill="orange" data-tooltip="1.53x baseline speed (MJIT3.0)"/>
<line x1="867.8000000000001" y1="284.2199026990188" x2="886.6" y2="284.2199026990188" stroke="#000"/>
<line x1="867.8000000000001" y1="287.0002951396755" x2="886.6" y2="287.0002951396755" stroke="#000"/>
<line x1="877.1999999999999" y1="284.2199026990188" x2="877.1999999999999" y2="287.0002951396755" stroke="#000"/>
<rect x="886.5999999999999" y="283.40109856578295" width="18.8" height="214.59890143421697" fill="green" data-tooltip="1.54x baseline speed (MJIT)"/>
<line x1="886.5999999999999" y1="282.24122821873095" x2="905.4" y2="282.24122821873095" stroke="#000"/>
<line x1="886.5999999999999" y1="284.560968912835" x2="905.4" y2="284.560968912835" stroke="#000"/>
<line x1="895.9999999999999" y1="282.24122821873095" x2="895.9999999999999" y2="284.560968912835" stroke="#000"/>
<rect x="905.4" y="240.50468468649808" width="18.8" height="257.49531531350186" fill="#4F3A7A" data-tooltip="1.85x baseline speed (YJIT)"/>
<line x1="905.4" y1="239.23081249146867" x2="924.2" y2="239.23081249146867" stroke="#000"/>
<line x1="905.4" y1="241.7785568815275" x2="924.2" y2="241.7785568815275" stroke="#000"/>
<line x1="914.8" y1="239.23081249146867" x2="914.8" y2="241.7785568815275" stroke="#000"/>
<line x1="896.0" y1="498.0" x2="896.0" y2="502.79999999999995" stroke="#000"/>
<text x="896.0" y="512.4" fill="#111" font-size="small" font-family="monospace" font-weight="bold" text-anchor="end" transform="rotate(-60, 896.0, 512.4)">
rubykon
</text>
</svg>