<svg viewBox="0 0 1000 600" xmlns="http://www.w3.org/2000/svg" xmlns:xlink="http://www.w3.org/1999/xlink" width="100%" height="100%">

<rect x="50.0" y="30.0" width="940.0" height="467.99999999999994" stroke="#000" fill="#EEE"/>
<line x1="42.0" y1="497.9999999999999" x2="50.0" y2="497.9999999999999" stroke="#000"/>
<text x="26.000000000000004" y="497.9999999999999" text-anchor="end" font-weight="bold" font-size="small" fill="#111">
0.0
</text>
<line x1="42.0" y1="427.3847912423154" x2="50.0" y2="427.3847912423154" stroke="#000"/>
<text x="26.000000000000004" y="427.3847912423154" text-anchor="end" font-weight="bold" font-size="small" fill="#111">
0.5
</text>
<line x1="42.0" y1="356.76958248463086" x2="50.0" y2="356.76958248463086" stroke="#000"/>
<text x="26.000000000000004" y="356.76958248463086" text-anchor="end" font-weight="bold" font-size="small" fill="#111">
1.0
</text>
<line x1="42.0" y1="286.15437372694623" x2="50.0" y2="286.15437372694623" stroke="#000"/>
<text x="26.000000000000004" y="286.15437372694623" text-anchor="end" font-weight="bold" font-size="small" fill="#111">
1.5
</text>
<line x1="42.0" y1="215.53916496926166" x2="50.0" y2="215.53916496926166" stroke="#000"/>
<text x="26.000000000000004" y="215.53916496926166" text-anchor="end" font-weight="bold" font-size="small" fill="#111">
2.0
</text>
<line x1="42.0" y1="144.92395621157704" x2="50.0" y2="144.92395621157704" stroke="#000"/>
<text x="26.000000000000004" y="144.92395621157704" text-anchor="end" font-weight="bold" font-size="small" fill="#111">
2.5
</text>
<rect x="268.5" y="36.00000000000001" width="80.0" height="18.0" fill="#7070f8" stroke="#888"/>
<text x="308.5" y="52.50000000000001" font-size="small" text-anchor="middle" font-weight="bold" fill="#EEE">
No JIT
</text>
<rect x="691.4999999999999" y="36.00000000000001" width="80.0" height="18.0" fill="orange" stroke="#888"/>
<text x="731.4999999999999" y="52.50000000000001" font-size="small" text-anchor="middle" font-weight="bold" fill="#EEE">
YJIT
</text>
<rect x="97.0" y="356.76958248463086" width="28.2" height="141.23041751536914" fill="#7070f8" data-tooltip="1.00x baseline speed (No JIT)"/>
<line x1="97.0" y1="356.66828755683844" x2="125.2" y2="356.66828755683844" stroke="#000"/>
<line x1="97.0" y1="356.87087741242334" x2="125.2" y2="356.87087741242334" stroke="#000"/>
<line x1="111.10000000000001" y1="356.66828755683844" x2="111.10000000000001" y2="356.87087741242334" stroke="#000"/>
<rect x="125.2" y="211.13672001243077" width="28.2" height="286.8632799875692" fill="orange" data-tooltip="2.03x baseline speed (YJIT)"/>
<line x1="125.2" y1="210.7747681893465" x2="153.4" y2="210.7747681893465" stroke="#000"/>
<line x1="125.2" y1="211.49867183551507" x2="153.4" y2="211.49867183551507" stroke="#000"/>
<line x1="139.3" y1="210.7747681893465" x2="139.3" y2="211.49867183551507" stroke="#000"/>
<line x1="139.3" y1="498.0" x2="139.3" y2="502.79999999999995" stroke="#000"/>
<text x="139.3" y="512.4" fill="#111" font-size="small" font-family="monospace" font-weight="bold" text-anchor="end" transform="rotate(-60, 139.3, 512.4)">
binarytrees
</text>
<rect x="181.6" y="356.76958248463086" width="28.2" height="141.23041751536914" fill="#7070f8" data-tooltip="1.00x baseline speed (No JIT)"/>
<line x1="181.6" y1="356.69866536506277" x2="209.79999999999998" y2="356.69866536506277" stroke="#000"/>
<line x1="181.6" y1="356.84049960419895" x2="209.79999999999998" y2="356.84049960419895" stroke="#000"/>
<line x1="195.7" y1="356.69866536506277" x2="195.7" y2="356.84049960419895" stroke="#000"/>
<rect x="209.79999999999998" y="279.0013769342101" width="28.2" height="218.99862306578984" fill="orange" data-tooltip="1.55x baseline speed (YJIT)"/>
<line x1="209.79999999999998" y1="278.8401913610881" x2="238.0" y2="278.8401913610881" stroke="#000"/>
<line x1="209.79999999999998" y1="279.1625625073321" x2="238.0" y2="279.1625625073321" stroke="#000"/>
<line x1="223.89999999999998" y1="278.8401913610881" x2="223.89999999999998" y2="279.1625625073321" stroke="#000"/>
<line x1="223.89999999999998" y1="498.0" x2="223.89999999999998" y2="502.79999999999995" stroke="#000"/>
<text x="223.89999999999998" y="512.4" fill="#111" font-size="small" font-family="monospace" font-weight="bold" text-anchor="end" transform="rotate(-60, 223.89999999999998, 512.4)">
chunky_png
</text>
<rect x="266.2" y="356.76958248463086" width="28.2" height="141.23041751536914" fill="#7070f8" data-tooltip="1.00x baseline speed (No JIT)"/>
<line x1="266.2" y1="355.84920878574627" x2="294.4" y2="355.84920878574627" stroke="#000"/>
<line x1="266.2" y1="357.68995618351545" x2="294.4" y2="357.68995618351545" stroke="#000"/>
<line x1="280.3" y1="355.84920878574627" x2="280.3" y2="357.68995618351545" stroke="#000"/>
<rect x="294.4" y="327.31062846591715" width="28.2" height="170.6893715340827" fill="orange" data-tooltip="1.21x baseline speed (YJIT)"/>
<line x1="294.4" y1="325.4793605556256" x2="322.6" y2="325.4793605556256" stroke="#000"/>
<line x1="294.4" y1="329.1418963762087" x2="322.6" y2="329.1418963762087" stroke="#000"/>
<line x1="308.5" y1="325.4793605556256" x2="308.5" y2="329.1418963762087" stroke="#000"/>
<line x1="308.5" y1="498.0" x2="308.5" y2="502.79999999999995" stroke="#000"/>
<text x="308.5" y="512.4" fill="#111" font-size="small" font-family="monospace" font-weight="bold" text-anchor="end" transform="rotate(-60, 308.5, 512.4)">
erubi
</text>
<rect x="350.8" y="356.76958248463086" width="28.2" height="141.23041751536914" fill="#7070f8" data-tooltip="1.00x baseline speed (No JIT)"/>
<line x1="350.8" y1="356.13120737516886" x2="379.0" y2="356.13120737516886" stroke="#000"/>
<line x1="350.8" y1="357.40795759409286" x2="379.0" y2="357.40795759409286" stroke="#000"/>
<line x1="364.9" y1="356.13120737516886" x2="364.9" y2="357.40795759409286" stroke="#000"/>
<rect x="379.0" y="356.98839283700414" width="28.2" height="141.01160716299577" fill="orange" data-tooltip="1.00x baseline speed (YJIT)"/>
<line x1="379.0" y1="356.0772476034694" x2="407.2" y2="356.0772476034694" stroke="#000"/>
<line x1="379.0" y1="357.89953807053894" x2="407.2" y2="357.89953807053894" stroke="#000"/>
<line x1="393.1" y1="356.0772476034694" x2="393.1" y2="357.89953807053894" stroke="#000"/>
<line x1="393.1" y1="498.0" x2="393.1" y2="502.79999999999995" stroke="#000"/>
<text x="393.1" y="512.4" fill="#111" font-size="small" font-family="monospace" font-weight="bold" text-anchor="end" transform="rotate(-60, 393.1, 512.4)">
etanni
</text>
<rect x="435.40000000000003" y="356.76958248463086" width="28.2" height="141.23041751536914" fill="#7070f8" data-tooltip="1.00x baseline speed (No JIT)"/>
<line x1="435.40000000000003" y1="356.3970110361303" x2="463.6" y2="356.3970110361303" stroke="#000"/>
<line x1="435.40000000000003" y1="357.1421539331314" x2="463.6" y2="357.1421539331314" stroke="#000"/>
<line x1="449.5" y1="356.3970110361303" x2="449.5" y2="357.1421539331314" stroke="#000"/>
<rect x="463.6" y="100.19999999999999" width="28.2" height="397.79999999999995" fill="orange" data-tooltip="2.82x baseline speed (YJIT)"/>
<line x1="463.6" y1="99.1122394298288" x2="491.8" y2="99.1122394298288" stroke="#000"/>
<line x1="463.6" y1="101.28776057017117" x2="491.8" y2="101.28776057017117" stroke="#000"/>
<line x1="477.7" y1="99.1122394298288" x2="477.7" y2="101.28776057017117" stroke="#000"/>
<line x1="477.7" y1="498.0" x2="477.7" y2="502.79999999999995" stroke="#000"/>
<text x="477.7" y="512.4" fill="#111" font-size="small" font-family="monospace" font-weight="bold" text-anchor="end" transform="rotate(-60, 477.7, 512.4)">
fannkuchredux
</text>
<rect x="520.0" y="356.76958248463086" width="28.2" height="141.23041751536914" fill="#7070f8" data-tooltip="1.00x baseline speed (No JIT)"/>
<line x1="520.0" y1="356.0635246387859" x2="548.2" y2="356.0635246387859" stroke="#000"/>
<line x1="520.0" y1="357.4756403304758" x2="548.2" y2="357.4756403304758" stroke="#000"/>
<line x1="534.1" y1="356.0635246387859" x2="534.1" y2="357.4756403304758" stroke="#000"/>
<rect x="548.2" y="300.9504808272415" width="28.2" height="197.04951917275844" fill="orange" data-tooltip="1.40x baseline speed (YJIT)"/>
<line x1="548.2" y1="299.75321082567166" x2="576.4" y2="299.75321082567166" stroke="#000"/>
<line x1="548.2" y1="302.14775082881135" x2="576.4" y2="302.14775082881135" stroke="#000"/>
<line x1="562.3000000000001" y1="299.75321082567166" x2="562.3000000000001" y2="302.14775082881135" stroke="#000"/>
<line x1="562.3000000000001" y1="498.0" x2="562.3000000000001" y2="502.79999999999995" stroke="#000"/>
<text x="562.3000000000001" y="512.4" fill="#111" font-size="small" font-family="monospace" font-weight="bold" text-anchor="end" transform="rotate(-60, 562.3000000000001, 512.4)">
lee
</text>
<rect x="604.5999999999999" y="356.76958248463086" width="28.2" height="141.23041751536914" fill="#7070f8" data-tooltip="1.00x baseline speed (No JIT)"/>
<line x1="604.5999999999999" y1="356.52976804572654" x2="632.8" y2="356.52976804572654" stroke="#000"/>
<line x1="604.5999999999999" y1="357.00939692353523" x2="632.8" y2="357.00939692353523" stroke="#000"/>
<line x1="618.6999999999999" y1="356.52976804572654" x2="618.6999999999999" y2="357.00939692353523" stroke="#000"/>
<rect x="632.8" y="227.0279449821628" width="28.2" height="270.97205501783714" fill="orange" data-tooltip="1.92x baseline speed (YJIT)"/>
<line x1="632.8" y1="226.5119632834496" x2="660.9999999999999" y2="226.5119632834496" stroke="#000"/>
<line x1="632.8" y1="227.543926680876" x2="660.9999999999999" y2="227.543926680876" stroke="#000"/>
<line x1="646.8999999999999" y1="226.5119632834496" x2="646.8999999999999" y2="227.543926680876" stroke="#000"/>
<line x1="646.8999999999999" y1="498.0" x2="646.8999999999999" y2="502.79999999999995" stroke="#000"/>
<text x="646.8999999999999" y="512.4" fill="#111" font-size="small" font-family="monospace" font-weight="bold" text-anchor="end" transform="rotate(-60, 646.8999999999999, 512.4)">
nbody
</text>
<rect x="689.1999999999999" y="356.76958248463086" width="28.2" height="141.23041751536914" fill="#7070f8" data-tooltip="1.00x baseline speed (No JIT)"/>
<line x1="689.1999999999999" y1="355.82237230320044" x2="717.4" y2="355.82237230320044" stroke="#000"/>
<line x1="689.1999999999999" y1="357.7167926660613" x2="717.4" y2="357.7167926660613" stroke="#000"/>
<line x1="703.3" y1="355.82237230320044" x2="703.3" y2="357.7167926660613" stroke="#000"/>
<rect x="717.4" y="128.13180118537352" width="28.2" height="369.86819881462645" fill="orange" data-tooltip="2.62x baseline speed (YJIT)"/>
<line x1="717.4" y1="124.74505065660021" x2="745.5999999999999" y2="124.74505065660021" stroke="#000"/>
<line x1="717.4" y1="131.5185517141468" x2="745.5999999999999" y2="131.5185517141468" stroke="#000"/>
<line x1="731.4999999999999" y1="124.74505065660021" x2="731.4999999999999" y2="131.5185517141468" stroke="#000"/>
<line x1="731.4999999999999" y1="498.0" x2="731.4999999999999" y2="502.79999999999995" stroke="#000"/>
<text x="731.4999999999999" y="512.4" fill="#111" font-size="small" font-family="monospace" font-weight="bold" text-anchor="end" transform="rotate(-60, 731.4999999999999, 512.4)">
optcarrot
</text>
<rect x="773.8" y="356.76958248463086" width="28.2" height="141.23041751536914" fill="#7070f8" data-tooltip="1.00x baseline speed (No JIT)"/>
<line x1="773.8" y1="356.2112074887544" x2="801.9999999999999" y2="356.2112074887544" stroke="#000"/>
<line x1="773.8" y1="357.32795748050734" x2="801.9999999999999" y2="357.32795748050734" stroke="#000"/>
<line x1="787.9" y1="356.2112074887544" x2="787.9" y2="357.32795748050734" stroke="#000"/>
<rect x="801.9999999999999" y="333.21503373400236" width="28.2" height="164.78496626599758" fill="orange" data-tooltip="1.17x baseline speed (YJIT)"/>
<line x1="801.9999999999999" y1="332.4931855757078" x2="830.1999999999999" y2="332.4931855757078" stroke="#000"/>
<line x1="801.9999999999999" y1="333.936881892297" x2="830.1999999999999" y2="333.936881892297" stroke="#000"/>
<line x1="816.0999999999999" y1="332.4931855757078" x2="816.0999999999999" y2="333.936881892297" stroke="#000"/>
<line x1="816.0999999999999" y1="498.0" x2="816.0999999999999" y2="502.79999999999995" stroke="#000"/>
<text x="816.0999999999999" y="512.4" fill="#111" font-size="small" font-family="monospace" font-weight="bold" text-anchor="end" transform="rotate(-60, 816.0999999999999, 512.4)">
ruby-json
</text>
<rect x="858.4" y="356.76958248463086" width="28.2" height="141.23041751536914" fill="#7070f8" data-tooltip="1.00x baseline speed (No JIT)"/>
<line x1="858.4" y1="356.1796290562569" x2="886.5999999999999" y2="356.1796290562569" stroke="#000"/>
<line x1="858.4" y1="357.35953591300483" x2="886.5999999999999" y2="357.35953591300483" stroke="#000"/>
<line x1="872.4999999999999" y1="356.1796290562569" x2="872.4999999999999" y2="357.35953591300483" stroke="#000"/>
<rect x="886.5999999999999" y="225.43675453605744" width="28.2" height="272.5632454639425" fill="orange" data-tooltip="1.93x baseline speed (YJIT)"/>
<line x1="886.5999999999999" y1="223.90937910707223" x2="914.8" y2="223.90937910707223" stroke="#000"/>
<line x1="886.5999999999999" y1="226.96412996504264" x2="914.8" y2="226.96412996504264" stroke="#000"/>
<line x1="900.6999999999999" y1="223.90937910707223" x2="900.6999999999999" y2="226.96412996504264" stroke="#000"/>
<line x1="900.6999999999999" y1="498.0" x2="900.6999999999999" y2="502.79999999999995" stroke="#000"/>
<text x="900.6999999999999" y="512.4" fill="#111" font-size="small" font-family="monospace" font-weight="bold" text-anchor="end" transform="rotate(-60, 900.6999999999999, 512.4)">
rubykon
</text>
</svg>