<svg viewBox="0 0 1000 600" xmlns="http://www.w3.org/2000/svg" xmlns:xlink="http://www.w3.org/1999/xlink" width="100%" height="100%">

<rect x="50.0" y="30.0" width="940.0" height="467.99999999999994" stroke="#000" fill="#EEE"/>
<line x1="42.0" y1="497.9999999999999" x2="50.0" y2="497.9999999999999" stroke="#000"/>
<text x="26.000000000000004" y="497.9999999999999" text-anchor="end" font-weight="bold" font-size="small" fill="#111">
0.0
</text>
<line x1="42.0" y1="412.3527072398588" x2="50.0" y2="412.3527072398588" stroke="#000"/>
<text x="26.000000000000004" y="412.3527072398588" text-anchor="end" font-weight="bold" font-size="small" fill="#111">
2.0
</text>
<line x1="42.0" y1="326.7054144797175" x2="50.0" y2="326.7054144797175" stroke="#000"/>
<text x="26.000000000000004" y="326.7054144797175" text-anchor="end" font-weight="bold" font-size="small" fill="#111">
4.0
</text>
<line x1="42.0" y1="241.05812171957623" x2="50.0" y2="241.05812171957623" stroke="#000"/>
<text x="26.000000000000004" y="241.05812171957623" text-anchor="end" font-weight="bold" font-size="small" fill="#111">
6.0
</text>
<line x1="42.0" y1="155.410828959435" x2="50.0" y2="155.410828959435" stroke="#000"/>
<text x="26.000000000000004" y="155.410828959435" text-anchor="end" font-weight="bold" font-size="small" fill="#111">
8.0
</text>
<rect x="197.99999999999997" y="36.00000000000001" width="80.0" height="18.0" fill="#7070f8" stroke="#888"/>
<text x="238.0" y="52.50000000000001" font-size="small" text-anchor="middle" font-weight="bold" fill="#EEE">
No JIT
</text>
<rect x="479.99999999999994" y="36.00000000000001" width="80.0" height="18.0" fill="orange" stroke="#888"/>
<text x="519.9999999999999" y="52.50000000000001" font-size="small" text-anchor="middle" font-weight="bold" fill="#EEE">
MJIT
</text>
<rect x="761.9999999999999" y="36.00000000000001" width="80.0" height="18.0" fill="green" stroke="#888"/>
<text x="801.9999999999999" y="52.50000000000001" font-size="small" text-anchor="middle" font-weight="bold" fill="#EEE">
YJIT
</text>
<rect x="97.0" y="455.1763536199293" width="8.8125" height="42.82364638007062" fill="#7070f8" data-tooltip="1.00x baseline speed (No JIT)"/>
<line x1="97.0" y1="454.9510884086603" x2="105.8125" y2="454.9510884086603" stroke="#000"/>
<line x1="97.0" y1="455.4016188311982" x2="105.8125" y2="455.4016188311982" stroke="#000"/>
<line x1="101.40625" y1="454.9510884086603" x2="101.40625" y2="455.4016188311982" stroke="#000"/>
<rect x="105.8125" y="461.5223435537375" width="8.8125" height="36.47765644626236" fill="orange" data-tooltip="0.85x baseline speed (MJIT)"/>
<line x1="105.8125" y1="459.9177738132391" x2="114.625" y2="459.9177738132391" stroke="#000"/>
<line x1="105.8125" y1="463.126913294236" x2="114.625" y2="463.126913294236" stroke="#000"/>
<line x1="110.21875" y1="459.9177738132391" x2="110.21875" y2="463.126913294236" stroke="#000"/>
<rect x="114.625" y="435.244448063213" width="8.8125" height="62.7555519367869" fill="green" data-tooltip="1.47x baseline speed (YJIT)"/>
<line x1="114.625" y1="434.73714653758435" x2="123.4375" y2="434.73714653758435" stroke="#000"/>
<line x1="114.625" y1="435.7517495888416" x2="123.4375" y2="435.7517495888416" stroke="#000"/>
<line x1="119.03125" y1="434.73714653758435" x2="119.03125" y2="435.7517495888416" stroke="#000"/>
<line x1="114.625" y1="498.0" x2="114.625" y2="502.79999999999995" stroke="#000"/>
<text x="114.625" y="512.4" fill="#111" font-size="small" font-family="monospace" font-weight="bold" text-anchor="end" transform="rotate(-60, 114.625, 512.4)">
activerecord
</text>
<rect x="132.25" y="455.1763536199293" width="8.8125" height="42.82364638007062" fill="#7070f8" data-tooltip="1.00x baseline speed (No JIT)"/>
<line x1="132.25" y1="454.5799060045254" x2="141.0625" y2="454.5799060045254" stroke="#000"/>
<line x1="132.25" y1="455.77280123533313" x2="141.0625" y2="455.77280123533313" stroke="#000"/>
<line x1="136.65625" y1="454.5799060045254" x2="136.65625" y2="455.77280123533313" stroke="#000"/>
<rect x="149.875" y="439.1367037514017" width="8.8125" height="58.86329624859828" fill="green" data-tooltip="1.37x baseline speed (YJIT)"/>
<line x1="149.875" y1="437.49418536512064" x2="158.6875" y2="437.49418536512064" stroke="#000"/>
<line x1="149.875" y1="440.77922213768267" x2="158.6875" y2="440.77922213768267" stroke="#000"/>
<line x1="154.28125" y1="437.49418536512064" x2="154.28125" y2="440.77922213768267" stroke="#000"/>
<line x1="149.875" y1="498.0" x2="149.875" y2="502.79999999999995" stroke="#000"/>
<text x="149.875" y="512.4" fill="#111" font-size="small" font-family="monospace" font-weight="bold" text-anchor="end" transform="rotate(-60, 149.875, 512.4)">
hexapdf
</text>
<rect x="167.49999999999997" y="455.1763536199293" width="8.8125" height="42.82364638007062" fill="#7070f8" data-tooltip="1.00x baseline speed (No JIT)"/>
<line x1="167.49999999999997" y1="454.7639584181766" x2="176.31249999999997" y2="454.7639584181766" stroke="#000"/>
<line x1="167.49999999999997" y1="455.5887488216819" x2="176.31249999999997" y2="455.5887488216819" stroke="#000"/>
<line x1="171.90624999999997" y1="454.7639584181766" x2="171.90624999999997" y2="455.5887488216819" stroke="#000"/>
<rect x="176.31249999999997" y="449.66670670512104" width="8.8125" height="48.33329329487883" fill="orange" data-tooltip="1.13x baseline speed (MJIT)"/>
<line x1="176.31249999999997" y1="448.9245199792599" x2="185.12499999999997" y2="448.9245199792599" stroke="#000"/>
<line x1="176.31249999999997" y1="450.4088934309821" x2="185.12499999999997" y2="450.4088934309821" stroke="#000"/>
<line x1="180.71874999999997" y1="448.9245199792599" x2="180.71874999999997" y2="450.4088934309821" stroke="#000"/>
<rect x="185.12499999999997" y="425.0947906716461" width="8.8125" height="72.90520932835385" fill="green" data-tooltip="1.70x baseline speed (YJIT)"/>
<line x1="185.12499999999997" y1="423.5576194247884" x2="193.93749999999997" y2="423.5576194247884" stroke="#000"/>
<line x1="185.12499999999997" y1="426.6319619185037" x2="193.93749999999997" y2="426.6319619185037" stroke="#000"/>
<line x1="189.53124999999997" y1="423.5576194247884" x2="189.53124999999997" y2="426.6319619185037" stroke="#000"/>
<line x1="185.12499999999997" y1="498.0" x2="185.12499999999997" y2="502.79999999999995" stroke="#000"/>
<text x="185.12499999999997" y="512.4" fill="#111" font-size="small" font-family="monospace" font-weight="bold" text-anchor="end" transform="rotate(-60, 185.12499999999997, 512.4)">
liquid-render
</text>
<rect x="202.75" y="455.1763536199293" width="8.8125" height="42.82364638007062" fill="#7070f8" data-tooltip="1.00x baseline speed (No JIT)"/>
<line x1="202.75" y1="455.1167104887166" x2="211.5625" y2="455.1167104887166" stroke="#000"/>
<line x1="202.75" y1="455.23599675114195" x2="211.5625" y2="455.23599675114195" stroke="#000"/>
<line x1="207.15625" y1="455.1167104887166" x2="207.15625" y2="455.23599675114195" stroke="#000"/>
<rect x="211.5625" y="455.002294968822" width="8.8125" height="42.997705031177865" fill="orange" data-tooltip="1.00x baseline speed (MJIT)"/>
<line x1="211.5625" y1="453.9781456756537" x2="220.375" y2="453.9781456756537" stroke="#000"/>
<line x1="211.5625" y1="456.0264442619904" x2="220.375" y2="456.0264442619904" stroke="#000"/>
<line x1="215.96875" y1="453.9781456756537" x2="215.96875" y2="456.0264442619904" stroke="#000"/>
<rect x="220.375" y="449.7246988851566" width="8.8125" height="48.275301114843295" fill="green" data-tooltip="1.13x baseline speed (YJIT)"/>
<line x1="220.375" y1="449.5591247622187" x2="229.1875" y2="449.5591247622187" stroke="#000"/>
<line x1="220.375" y1="449.89027300809454" x2="229.1875" y2="449.89027300809454" stroke="#000"/>
<line x1="224.78125" y1="449.5591247622187" x2="224.78125" y2="449.89027300809454" stroke="#000"/>
<line x1="220.375" y1="498.0" x2="220.375" y2="502.79999999999995" stroke="#000"/>
<text x="220.375" y="512.4" fill="#111" font-size="small" font-family="monospace" font-weight="bold" text-anchor="end" transform="rotate(-60, 220.375, 512.4)">
mail
</text>
<rect x="238.0" y="455.1763536199293" width="8.8125" height="42.82364638007062" fill="#7070f8" data-tooltip="1.00x baseline speed (No JIT)"/>
<line x1="238.0" y1="455.16498660593476" x2="246.8125" y2="455.16498660593476" stroke="#000"/>
<line x1="238.0" y1="455.1877206339238" x2="246.8125" y2="455.1877206339238" stroke="#000"/>
<line x1="242.40625" y1="455.16498660593476" x2="242.40625" y2="455.1877206339238" stroke="#000"/>
<rect x="246.8125" y="449.02606415609444" width="8.8125" height="48.97393584390546" fill="orange" data-tooltip="1.14x baseline speed (MJIT)"/>
<line x1="246.8125" y1="449.01192247670394" x2="255.625" y2="449.01192247670394" stroke="#000"/>
<line x1="246.8125" y1="449.040205835485" x2="255.625" y2="449.040205835485" stroke="#000"/>
<line x1="251.21875" y1="449.01192247670394" x2="251.21875" y2="449.040205835485" stroke="#000"/>
<rect x="255.625" y="445.0900052706271" width="8.8125" height="52.90999472937288" fill="green" data-tooltip="1.24x baseline speed (YJIT)"/>
<line x1="255.625" y1="445.0684559253187" x2="264.4375" y2="445.0684559253187" stroke="#000"/>
<line x1="255.625" y1="445.11155461593546" x2="264.4375" y2="445.11155461593546" stroke="#000"/>
<line x1="260.03125" y1="445.0684559253187" x2="260.03125" y2="445.11155461593546" stroke="#000"/>
<line x1="255.625" y1="498.0" x2="255.625" y2="502.79999999999995" stroke="#000"/>
<text x="255.625" y="512.4" fill="#111" font-size="small" font-family="monospace" font-weight="bold" text-anchor="end" transform="rotate(-60, 255.625, 512.4)">
psych-load
</text>
<rect x="273.25" y="455.1763536199293" width="8.8125" height="42.82364638007062" fill="#7070f8" data-tooltip="1.00x baseline speed (No JIT)"/>
<line x1="273.25" y1="454.9212624739322" x2="282.0625" y2="454.9212624739322" stroke="#000"/>
<line x1="273.25" y1="455.43144476592636" x2="282.0625" y2="455.43144476592636" stroke="#000"/>
<line x1="277.65625" y1="454.9212624739322" x2="277.65625" y2="455.43144476592636" stroke="#000"/>
<rect x="282.0625" y="459.1074446543749" width="8.8125" height="38.89255534562506" fill="orange" data-tooltip="0.91x baseline speed (MJIT)"/>
<line x1="282.0625" y1="458.86903695068725" x2="290.875" y2="458.86903695068725" stroke="#000"/>
<line x1="282.0625" y1="459.34585235806253" x2="290.875" y2="459.34585235806253" stroke="#000"/>
<line x1="286.46875" y1="458.86903695068725" x2="286.46875" y2="459.34585235806253" stroke="#000"/>
<rect x="290.875" y="440.9971353683526" width="8.8125" height="57.00286463164737" fill="green" data-tooltip="1.33x baseline speed (YJIT)"/>
<line x1="290.875" y1="440.4880506102904" x2="299.6875" y2="440.4880506102904" stroke="#000"/>
<line x1="290.875" y1="441.50622012641475" x2="299.6875" y2="441.50622012641475" stroke="#000"/>
<line x1="295.28125" y1="440.4880506102904" x2="295.28125" y2="441.50622012641475" stroke="#000"/>
<line x1="290.875" y1="498.0" x2="290.875" y2="502.79999999999995" stroke="#000"/>
<text x="290.875" y="512.4" fill="#111" font-size="small" font-family="monospace" font-weight="bold" text-anchor="end" transform="rotate(-60, 290.875, 512.4)">
railsbench
</text>
<rect x="308.5" y="455.1763536199293" width="8.8125" height="42.82364638007062" fill="#7070f8" data-tooltip="1.00x baseline speed (No JIT)"/>
<line x1="308.5" y1="455.1634673827364" x2="317.3125" y2="455.1634673827364" stroke="#000"/>
<line x1="308.5" y1="455.1892398571221" x2="317.3125" y2="455.1892398571221" stroke="#000"/>
<line x1="312.90625" y1="455.1634673827364" x2="312.90625" y2="455.1892398571221" stroke="#000"/>
<rect x="317.3125" y="432.2454510216023" width="8.8125" height="65.75454897839762" fill="orange" data-tooltip="1.54x baseline speed (MJIT)"/>
<line x1="317.3125" y1="432.2102919815749" x2="326.125" y2="432.2102919815749" stroke="#000"/>
<line x1="317.3125" y1="432.2806100616297" x2="326.125" y2="432.2806100616297" stroke="#000"/>
<line x1="321.71875" y1="432.2102919815749" x2="321.71875" y2="432.2806100616297" stroke="#000"/>
<rect x="326.125" y="441.85453522983437" width="8.8125" height="56.14546477016557" fill="green" data-tooltip="1.31x baseline speed (YJIT)"/>
<line x1="326.125" y1="441.8258023073949" x2="334.9375" y2="441.8258023073949" stroke="#000"/>
<line x1="326.125" y1="441.88326815227384" x2="334.9375" y2="441.88326815227384" stroke="#000"/>
<line x1="330.53125" y1="441.8258023073949" x2="330.53125" y2="441.88326815227384" stroke="#000"/>
<line x1="326.125" y1="498.0" x2="326.125" y2="502.79999999999995" stroke="#000"/>
<text x="326.125" y="512.4" fill="#111" font-size="small" font-family="monospace" font-weight="bold" text-anchor="end" transform="rotate(-60, 326.125, 512.4)">
binarytrees
</text>
<rect x="343.75" y="455.1763536199293" width="8.8125" height="42.82364638007062" fill="#7070f8" data-tooltip="1.00x baseline speed (No JIT)"/>
<line x1="343.75" y1="455.1598361268653" x2="352.5625" y2="455.1598361268653" stroke="#000"/>
<line x1="343.75" y1="455.19287111299326" x2="352.5625" y2="455.19287111299326" stroke="#000"/>
<line x1="348.15625" y1="455.1598361268653" x2="348.15625" y2="455.19287111299326" stroke="#000"/>
<rect x="352.5625" y="444.8457489065805" width="8.8125" height="53.154251093419376" fill="orange" data-tooltip="1.24x baseline speed (MJIT)"/>
<line x1="352.5625" y1="444.8145424065628" x2="361.375" y2="444.8145424065628" stroke="#000"/>
<line x1="352.5625" y1="444.8769554065983" x2="361.375" y2="444.8769554065983" stroke="#000"/>
<line x1="356.96875" y1="444.8145424065628" x2="356.96875" y2="444.8769554065983" stroke="#000"/>
<rect x="361.375" y="434.6482729791445" width="8.8125" height="63.35172702085544" fill="green" data-tooltip="1.48x baseline speed (YJIT)"/>
<line x1="361.375" y1="434.51671601139077" x2="370.1875" y2="434.51671601139077" stroke="#000"/>
<line x1="361.375" y1="434.7798299468982" x2="370.1875" y2="434.7798299468982" stroke="#000"/>
<line x1="365.78125" y1="434.51671601139077" x2="365.78125" y2="434.7798299468982" stroke="#000"/>
<line x1="361.375" y1="498.0" x2="361.375" y2="502.79999999999995" stroke="#000"/>
<text x="361.375" y="512.4" fill="#111" font-size="small" font-family="monospace" font-weight="bold" text-anchor="end" transform="rotate(-60, 361.375, 512.4)">
chunky_png
</text>
<rect x="379.0" y="455.1763536199293" width="8.8125" height="42.82364638007062" fill="#7070f8" data-tooltip="1.00x baseline speed (No JIT)"/>
<line x1="379.0" y1="454.89329793662245" x2="387.8125" y2="454.89329793662245" stroke="#000"/>
<line x1="379.0" y1="455.4594093032361" x2="387.8125" y2="455.4594093032361" stroke="#000"/>
<line x1="383.40625" y1="454.89329793662245" x2="383.40625" y2="455.4594093032361" stroke="#000"/>
<rect x="387.8125" y="452.62267871221536" width="8.8125" height="45.37732128778451" fill="orange" data-tooltip="1.06x baseline speed (MJIT)"/>
<line x1="387.8125" y1="451.2265597670309" x2="396.625" y2="451.2265597670309" stroke="#000"/>
<line x1="387.8125" y1="454.01879765739983" x2="396.625" y2="454.01879765739983" stroke="#000"/>
<line x1="392.21875" y1="451.2265597670309" x2="392.21875" y2="454.01879765739983" stroke="#000"/>
<rect x="396.625" y="449.0440219895215" width="8.8125" height="48.955978010478375" fill="green" data-tooltip="1.14x baseline speed (YJIT)"/>
<line x1="396.625" y1="448.5486275494718" x2="405.4375" y2="448.5486275494718" stroke="#000"/>
<line x1="396.625" y1="449.53941642957125" x2="405.4375" y2="449.53941642957125" stroke="#000"/>
<line x1="401.03125" y1="448.5486275494718" x2="401.03125" y2="449.53941642957125" stroke="#000"/>
<line x1="396.625" y1="498.0" x2="396.625" y2="502.79999999999995" stroke="#000"/>
<text x="396.625" y="512.4" fill="#111" font-size="small" font-family="monospace" font-weight="bold" text-anchor="end" transform="rotate(-60, 396.625, 512.4)">
erubi
</text>
<rect x="414.25" y="455.1763536199293" width="8.8125" height="42.82364638007062" fill="#7070f8" data-tooltip="1.00x baseline speed (No JIT)"/>
<line x1="414.25" y1="454.06012350600895" x2="423.0625" y2="454.06012350600895" stroke="#000"/>
<line x1="414.25" y1="456.2925837338496" x2="423.0625" y2="456.2925837338496" stroke="#000"/>
<line x1="418.65625" y1="454.06012350600895" x2="418.65625" y2="456.2925837338496" stroke="#000"/>
<rect x="423.0625" y="458.2166623176413" width="8.8125" height="39.7833376823587" fill="orange" data-tooltip="0.93x baseline speed (MJIT)"/>
<line x1="423.0625" y1="454.28674822426774" x2="431.875" y2="454.28674822426774" stroke="#000"/>
<line x1="423.0625" y1="462.14657641101485" x2="431.875" y2="462.14657641101485" stroke="#000"/>
<line x1="427.46875" y1="454.28674822426774" x2="427.46875" y2="462.14657641101485" stroke="#000"/>
<rect x="431.875" y="439.74224181693654" width="8.8125" height="58.25775818306339" fill="green" data-tooltip="1.36x baseline speed (YJIT)"/>
<line x1="431.875" y1="437.11434099645766" x2="440.6875" y2="437.11434099645766" stroke="#000"/>
<line x1="431.875" y1="442.3701426374154" x2="440.6875" y2="442.3701426374154" stroke="#000"/>
<line x1="436.28125" y1="437.11434099645766" x2="436.28125" y2="442.3701426374154" stroke="#000"/>
<line x1="431.875" y1="498.0" x2="431.875" y2="502.79999999999995" stroke="#000"/>
<text x="431.875" y="512.4" fill="#111" font-size="small" font-family="monospace" font-weight="bold" text-anchor="end" transform="rotate(-60, 431.875, 512.4)">
erubi_rails
</text>
<rect x="449.5" y="455.1763536199293" width="8.8125" height="42.82364638007062" fill="#7070f8" data-tooltip="1.00x baseline speed (No JIT)"/>
<line x1="449.5" y1="454.89892718046383" x2="458.3125" y2="454.89892718046383" stroke="#000"/>
<line x1="449.5" y1="455.4537800593947" x2="458.3125" y2="455.4537800593947" stroke="#000"/>
<line x1="453.90625" y1="454.89892718046383" x2="453.90625" y2="455.4537800593947" stroke="#000"/>
<rect x="458.3125" y="455.34927792366966" width="8.8125" height="42.650722076330304" fill="orange" data-tooltip="1.00x baseline speed (MJIT)"/>
<line x1="458.3125" y1="455.0720531748473" x2="467.125" y2="455.0720531748473" stroke="#000"/>
<line x1="458.3125" y1="455.62650267249205" x2="467.125" y2="455.62650267249205" stroke="#000"/>
<line x1="462.71875" y1="455.0720531748473" x2="462.71875" y2="455.62650267249205" stroke="#000"/>
<rect x="467.125" y="401.47472522692505" width="8.8125" height="96.52527477307488" fill="green" data-tooltip="2.25x baseline speed (YJIT)"/>
<line x1="467.125" y1="400.8466685350176" x2="475.9375" y2="400.8466685350176" stroke="#000"/>
<line x1="467.125" y1="402.1027819188324" x2="475.9375" y2="402.1027819188324" stroke="#000"/>
<line x1="471.53125" y1="400.8466685350176" x2="471.53125" y2="402.1027819188324" stroke="#000"/>
<line x1="467.125" y1="498.0" x2="467.125" y2="502.79999999999995" stroke="#000"/>
<text x="467.125" y="512.4" fill="#111" font-size="small" font-family="monospace" font-weight="bold" text-anchor="end" transform="rotate(-60, 467.125, 512.4)">
fannkuchredux
</text>
<rect x="484.75" y="455.1763536199293" width="8.8125" height="42.82364638007062" fill="#7070f8" data-tooltip="1.00x baseline speed (No JIT)"/>
<line x1="484.75" y1="454.85163727274846" x2="493.5625" y2="454.85163727274846" stroke="#000"/>
<line x1="484.75" y1="455.5010699671101" x2="493.5625" y2="455.5010699671101" stroke="#000"/>
<line x1="489.15625" y1="454.85163727274846" x2="489.15625" y2="455.5010699671101" stroke="#000"/>
<rect x="493.5625" y="448.67861932367475" width="8.8125" height="49.32138067632515" fill="orange" data-tooltip="1.15x baseline speed (MJIT)"/>
<line x1="493.5625" y1="448.29852594797796" x2="502.375" y2="448.29852594797796" stroke="#000"/>
<line x1="493.5625" y1="449.05871269937154" x2="502.375" y2="449.05871269937154" stroke="#000"/>
<line x1="497.96875" y1="448.29852594797796" x2="497.96875" y2="449.05871269937154" stroke="#000"/>
<rect x="502.375" y="442.6067784226524" width="8.8125" height="55.393221577347504" fill="green" data-tooltip="1.29x baseline speed (YJIT)"/>
<line x1="502.375" y1="441.93100429338654" x2="511.1875" y2="441.93100429338654" stroke="#000"/>
<line x1="502.375" y1="443.28255255191823" x2="511.1875" y2="443.28255255191823" stroke="#000"/>
<line x1="506.78124999999994" y1="441.93100429338654" x2="506.78124999999994" y2="443.28255255191823" stroke="#000"/>
<line x1="502.375" y1="498.0" x2="502.375" y2="502.79999999999995" stroke="#000"/>
<text x="502.375" y="512.4" fill="#111" font-size="small" font-family="monospace" font-weight="bold" text-anchor="end" transform="rotate(-60, 502.375, 512.4)">
lee
</text>
<rect x="519.9999999999999" y="455.1763536199293" width="8.8125" height="42.82364638007062" fill="#7070f8" data-tooltip="1.00x baseline speed (No JIT)"/>
<line x1="519.9999999999999" y1="455.0474227350466" x2="528.8124999999999" y2="455.0474227350466" stroke="#000"/>
<line x1="519.9999999999999" y1="455.30528450481194" x2="528.8124999999999" y2="455.30528450481194" stroke="#000"/>
<line x1="524.4062499999999" y1="455.0474227350466" x2="524.4062499999999" y2="455.30528450481194" stroke="#000"/>
<rect x="528.8124999999999" y="429.8596501255499" width="8.8125" height="68.14034987444998" fill="orange" data-tooltip="1.59x baseline speed (MJIT)"/>
<line x1="528.8124999999999" y1="429.6522886836642" x2="537.6249999999999" y2="429.6522886836642" stroke="#000"/>
<line x1="528.8124999999999" y1="430.06701156743554" x2="537.6249999999999" y2="430.06701156743554" stroke="#000"/>
<line x1="533.2187499999999" y1="429.6522886836642" x2="533.2187499999999" y2="430.06701156743554" stroke="#000"/>
<rect x="537.6249999999999" y="441.80368434796947" width="8.8125" height="56.1963156520305" fill="green" data-tooltip="1.31x baseline speed (YJIT)"/>
<line x1="537.6249999999999" y1="441.6208457575168" x2="546.4374999999999" y2="441.6208457575168" stroke="#000"/>
<line x1="537.6249999999999" y1="441.9865229384221" x2="546.4374999999999" y2="441.9865229384221" stroke="#000"/>
<line x1="542.0312499999999" y1="441.6208457575168" x2="542.0312499999999" y2="441.9865229384221" stroke="#000"/>
<line x1="537.6249999999999" y1="498.0" x2="537.6249999999999" y2="502.79999999999995" stroke="#000"/>
<text x="537.6249999999999" y="512.4" fill="#111" font-size="small" font-family="monospace" font-weight="bold" text-anchor="end" transform="rotate(-60, 537.6249999999999, 512.4)">
nbody
</text>
<rect x="555.2499999999999" y="455.1763536199293" width="8.8125" height="42.82364638007062" fill="#7070f8" data-tooltip="1.00x baseline speed (No JIT)"/>
<line x1="555.2499999999999" y1="454.9908939432297" x2="564.0624999999999" y2="454.9908939432297" stroke="#000"/>
<line x1="555.2499999999999" y1="455.36181329662884" x2="564.0624999999999" y2="455.36181329662884" stroke="#000"/>
<line x1="559.6562499999999" y1="454.9908939432297" x2="559.6562499999999" y2="455.36181329662884" stroke="#000"/>
<rect x="564.0624999999999" y="400.6990699862858" width="8.8125" height="97.30093001371414" fill="orange" data-tooltip="2.27x baseline speed (MJIT)"/>
<line x1="564.0624999999999" y1="399.9384601567071" x2="572.8749999999999" y2="399.9384601567071" stroke="#000"/>
<line x1="564.0624999999999" y1="401.4596798158645" x2="572.8749999999999" y2="401.4596798158645" stroke="#000"/>
<line x1="568.4687499999999" y1="399.9384601567071" x2="568.4687499999999" y2="401.4596798158645" stroke="#000"/>
<rect x="572.8749999999999" y="423.9536341985496" width="8.8125" height="74.04636580145035" fill="green" data-tooltip="1.73x baseline speed (YJIT)"/>
<line x1="572.8749999999999" y1="423.3919683814741" x2="581.6874999999999" y2="423.3919683814741" stroke="#000"/>
<line x1="572.8749999999999" y1="424.51530001562503" x2="581.6874999999999" y2="424.51530001562503" stroke="#000"/>
<line x1="577.2812499999999" y1="423.3919683814741" x2="577.2812499999999" y2="424.51530001562503" stroke="#000"/>
<line x1="572.8749999999999" y1="498.0" x2="572.8749999999999" y2="502.79999999999995" stroke="#000"/>
<text x="572.8749999999999" y="512.4" fill="#111" font-size="small" font-family="monospace" font-weight="bold" text-anchor="end" transform="rotate(-60, 572.8749999999999, 512.4)">
optcarrot
</text>
<rect x="590.4999999999999" y="455.1763536199293" width="8.8125" height="42.82364638007062" fill="#7070f8" data-tooltip="1.00x baseline speed (No JIT)"/>
<line x1="590.4999999999999" y1="454.97192374667907" x2="599.3124999999999" y2="454.97192374667907" stroke="#000"/>
<line x1="590.4999999999999" y1="455.3807834931795" x2="599.3124999999999" y2="455.3807834931795" stroke="#000"/>
<line x1="594.9062499999999" y1="454.97192374667907" x2="594.9062499999999" y2="455.3807834931795" stroke="#000"/>
<rect x="599.3124999999999" y="439.25469508345395" width="8.8125" height="58.745304916545955" fill="orange" data-tooltip="1.37x baseline speed (MJIT)"/>
<line x1="599.3124999999999" y1="438.48357885050893" x2="608.1249999999999" y2="438.48357885050893" stroke="#000"/>
<line x1="599.3124999999999" y1="440.0258113163989" x2="608.1249999999999" y2="440.0258113163989" stroke="#000"/>
<line x1="603.7187499999999" y1="438.48357885050893" x2="603.7187499999999" y2="440.0258113163989" stroke="#000"/>
<rect x="608.1249999999999" y="419.85045118731597" width="8.8125" height="78.14954881268392" fill="green" data-tooltip="1.82x baseline speed (YJIT)"/>
<line x1="608.1249999999999" y1="419.2828085628792" x2="616.9374999999999" y2="419.2828085628792" stroke="#000"/>
<line x1="608.1249999999999" y1="420.4180938117527" x2="616.9374999999999" y2="420.4180938117527" stroke="#000"/>
<line x1="612.5312499999999" y1="419.2828085628792" x2="612.5312499999999" y2="420.4180938117527" stroke="#000"/>
<line x1="608.1249999999999" y1="498.0" x2="608.1249999999999" y2="502.79999999999995" stroke="#000"/>
<text x="608.1249999999999" y="512.4" fill="#111" font-size="small" font-family="monospace" font-weight="bold" text-anchor="end" transform="rotate(-60, 608.1249999999999, 512.4)">
rubykon
</text>
<rect x="625.7499999999999" y="455.1763536199293" width="8.8125" height="42.82364638007062" fill="#7070f8" data-tooltip="1.00x baseline speed (No JIT)"/>
<line x1="625.7499999999999" y1="455.1712724891353" x2="634.5624999999999" y2="455.1712724891353" stroke="#000"/>
<line x1="625.7499999999999" y1="455.18143475072327" x2="634.5624999999999" y2="455.18143475072327" stroke="#000"/>
<line x1="630.1562499999999" y1="455.1712724891353" x2="630.1562499999999" y2="455.18143475072327" stroke="#000"/>
<rect x="634.5624999999999" y="473.96339898365414" width="8.8125" height="24.03660101634571" fill="orange" data-tooltip="0.56x baseline speed (MJIT)"/>
<line x1="634.5624999999999" y1="473.24392504082084" x2="643.3749999999999" y2="473.24392504082084" stroke="#000"/>
<line x1="634.5624999999999" y1="474.68287292648745" x2="643.3749999999999" y2="474.68287292648745" stroke="#000"/>
<line x1="638.9687499999999" y1="473.24392504082084" x2="638.9687499999999" y2="474.68287292648745" stroke="#000"/>
<rect x="643.3749999999999" y="216.88941619405765" width="8.8125" height="281.1105838059423" fill="green" data-tooltip="6.56x baseline speed (YJIT)"/>
<line x1="643.3749999999999" y1="216.6146822321931" x2="652.1874999999999" y2="216.6146822321931" stroke="#000"/>
<line x1="643.3749999999999" y1="217.1641501559222" x2="652.1874999999999" y2="217.1641501559222" stroke="#000"/>
<line x1="647.7812499999999" y1="216.6146822321931" x2="647.7812499999999" y2="217.1641501559222" stroke="#000"/>
<line x1="643.3749999999999" y1="498.0" x2="643.3749999999999" y2="502.79999999999995" stroke="#000"/>
<text x="643.3749999999999" y="512.4" fill="#111" font-size="small" font-family="monospace" font-weight="bold" text-anchor="end" transform="rotate(-60, 643.3749999999999, 512.4)">
30k_ifelse
</text>
<rect x="660.9999999999999" y="455.1763536199293" width="8.8125" height="42.82364638007062" fill="#7070f8" data-tooltip="1.00x baseline speed (No JIT)"/>
<line x1="660.9999999999999" y1="455.1731686279174" x2="669.8124999999999" y2="455.1731686279174" stroke="#000"/>
<line x1="660.9999999999999" y1="455.17953861194115" x2="669.8124999999999" y2="455.17953861194115" stroke="#000"/>
<line x1="665.4062499999999" y1="455.1731686279174" x2="665.4062499999999" y2="455.17953861194115" stroke="#000"/>
<rect x="669.8124999999999" y="476.1294857987511" width="8.8125" height="21.870514201248863" fill="orange" data-tooltip="0.51x baseline speed (MJIT)"/>
<line x1="669.8124999999999" y1="475.2506794157893" x2="678.6249999999999" y2="475.2506794157893" stroke="#000"/>
<line x1="669.8124999999999" y1="477.0082921817128" x2="678.6249999999999" y2="477.0082921817128" stroke="#000"/>
<line x1="674.2187499999999" y1="475.2506794157893" x2="674.2187499999999" y2="477.0082921817128" stroke="#000"/>
<rect x="678.6249999999999" y="137.01824278227596" width="8.8125" height="360.98175721772395" fill="green" data-tooltip="8.43x baseline speed (YJIT)"/>
<line x1="678.6249999999999" y1="136.93327292155988" x2="687.4374999999999" y2="136.93327292155988" stroke="#000"/>
<line x1="678.6249999999999" y1="137.10321264299208" x2="687.4374999999999" y2="137.10321264299208" stroke="#000"/>
<line x1="683.0312499999999" y1="136.93327292155988" x2="683.0312499999999" y2="137.10321264299208" stroke="#000"/>
<line x1="678.6249999999999" y1="498.0" x2="678.6249999999999" y2="502.79999999999995" stroke="#000"/>
<text x="678.6249999999999" y="512.4" fill="#111" font-size="small" font-family="monospace" font-weight="bold" text-anchor="end" transform="rotate(-60, 678.6249999999999, 512.4)">
30k_methods
</text>
<rect x="696.2499999999999" y="455.1763536199293" width="8.8125" height="42.82364638007062" fill="#7070f8" data-tooltip="1.00x baseline speed (No JIT)"/>
<line x1="696.2499999999999" y1="455.0972449996102" x2="705.0624999999999" y2="455.0972449996102" stroke="#000"/>
<line x1="696.2499999999999" y1="455.25546224024833" x2="705.0624999999999" y2="455.25546224024833" stroke="#000"/>
<line x1="700.6562499999999" y1="455.0972449996102" x2="700.6562499999999" y2="455.25546224024833" stroke="#000"/>
<rect x="705.0624999999999" y="450.6756221700977" width="8.8125" height="47.324377829902225" fill="orange" data-tooltip="1.11x baseline speed (MJIT)"/>
<line x1="705.0624999999999" y1="450.54220212292427" x2="713.8749999999999" y2="450.54220212292427" stroke="#000"/>
<line x1="705.0624999999999" y1="450.80904221727116" x2="713.8749999999999" y2="450.80904221727116" stroke="#000"/>
<line x1="709.4687499999999" y1="450.54220212292427" x2="709.4687499999999" y2="450.80904221727116" stroke="#000"/>
<rect x="713.8749999999999" y="398.0286580042249" width="8.8125" height="99.97134199577509" fill="green" data-tooltip="2.33x baseline speed (YJIT)"/>
<line x1="713.8749999999999" y1="397.2587173458179" x2="722.6874999999999" y2="397.2587173458179" stroke="#000"/>
<line x1="713.8749999999999" y1="398.7985986626319" x2="722.6874999999999" y2="398.7985986626319" stroke="#000"/>
<line x1="718.2812499999999" y1="397.2587173458179" x2="718.2812499999999" y2="398.7985986626319" stroke="#000"/>
<line x1="713.8749999999999" y1="498.0" x2="713.8749999999999" y2="502.79999999999995" stroke="#000"/>
<text x="713.8749999999999" y="512.4" fill="#111" font-size="small" font-family="monospace" font-weight="bold" text-anchor="end" transform="rotate(-60, 713.8749999999999, 512.4)">
cfunc_itself
</text>
<rect x="731.4999999999999" y="455.1763536199293" width="8.8125" height="42.82364638007062" fill="#7070f8" data-tooltip="1.00x baseline speed (No JIT)"/>
<line x1="731.4999999999999" y1="455.151390100929" x2="740.3124999999999" y2="455.151390100929" stroke="#000"/>
<line x1="731.4999999999999" y1="455.20131713892954" x2="740.3124999999999" y2="455.20131713892954" stroke="#000"/>
<line x1="735.9062499999999" y1="455.151390100929" x2="735.9062499999999" y2="455.20131713892954" stroke="#000"/>
<rect x="740.3124999999999" y="361.2638995073139" width="8.8125" height="136.73610049268603" fill="orange" data-tooltip="3.19x baseline speed (MJIT)"/>
<line x1="740.3124999999999" y1="361.1584039886119" x2="749.1249999999999" y2="361.1584039886119" stroke="#000"/>
<line x1="740.3124999999999" y1="361.3693950260159" x2="749.1249999999999" y2="361.3693950260159" stroke="#000"/>
<line x1="744.7187499999999" y1="361.1584039886119" x2="744.7187499999999" y2="361.3693950260159" stroke="#000"/>
<rect x="749.1249999999999" y="325.64420062192016" width="8.8125" height="172.35579937807978" fill="green" data-tooltip="4.02x baseline speed (YJIT)"/>
<line x1="749.1249999999999" y1="325.5197752423896" x2="757.9374999999999" y2="325.5197752423896" stroke="#000"/>
<line x1="749.1249999999999" y1="325.7686260014507" x2="757.9374999999999" y2="325.7686260014507" stroke="#000"/>
<line x1="753.5312499999999" y1="325.5197752423896" x2="753.5312499999999" y2="325.7686260014507" stroke="#000"/>
<line x1="749.1249999999999" y1="498.0" x2="749.1249999999999" y2="502.79999999999995" stroke="#000"/>
<text x="749.1249999999999" y="512.4" fill="#111" font-size="small" font-family="monospace" font-weight="bold" text-anchor="end" transform="rotate(-60, 749.1249999999999, 512.4)">
fib
</text>
<rect x="766.7499999999999" y="455.1763536199293" width="8.8125" height="42.82364638007062" fill="#7070f8" data-tooltip="1.00x baseline speed (No JIT)"/>
<line x1="766.7499999999999" y1="454.3271542906671" x2="775.5624999999999" y2="454.3271542906671" stroke="#000"/>
<line x1="766.7499999999999" y1="456.0255529491914" x2="775.5624999999999" y2="456.0255529491914" stroke="#000"/>
<line x1="771.1562499999999" y1="454.3271542906671" x2="771.1562499999999" y2="456.0255529491914" stroke="#000"/>
<rect x="775.5624999999999" y="455.06111130430094" width="8.8125" height="42.93888869569895" fill="orange" data-tooltip="1.00x baseline speed (MJIT)"/>
<line x1="775.5624999999999" y1="454.20801584909384" x2="784.3749999999999" y2="454.20801584909384" stroke="#000"/>
<line x1="775.5624999999999" y1="455.9142067595081" x2="784.3749999999999" y2="455.9142067595081" stroke="#000"/>
<line x1="779.9687499999999" y1="454.20801584909384" x2="779.9687499999999" y2="455.9142067595081" stroke="#000"/>
<rect x="784.3749999999999" y="392.2327164291048" width="8.8125" height="105.76728357089513" fill="green" data-tooltip="2.47x baseline speed (YJIT)"/>
<line x1="784.3749999999999" y1="390.13473811392913" x2="793.1874999999999" y2="390.13473811392913" stroke="#000"/>
<line x1="784.3749999999999" y1="394.3306947442805" x2="793.1874999999999" y2="394.3306947442805" stroke="#000"/>
<line x1="788.7812499999999" y1="390.13473811392913" x2="788.7812499999999" y2="394.3306947442805" stroke="#000"/>
<line x1="784.3749999999999" y1="498.0" x2="784.3749999999999" y2="502.79999999999995" stroke="#000"/>
<text x="784.3749999999999" y="512.4" fill="#111" font-size="small" font-family="monospace" font-weight="bold" text-anchor="end" transform="rotate(-60, 784.3749999999999, 512.4)">
getivar
</text>
<rect x="801.9999999999999" y="455.1763536199293" width="8.8125" height="42.82364638007062" fill="#7070f8" data-tooltip="1.00x baseline speed (No JIT)"/>
<line x1="801.9999999999999" y1="455.1463633385604" x2="810.8124999999999" y2="455.1463633385604" stroke="#000"/>
<line x1="801.9999999999999" y1="455.20634390129817" x2="810.8124999999999" y2="455.20634390129817" stroke="#000"/>
<line x1="806.4062499999999" y1="455.1463633385604" x2="806.4062499999999" y2="455.20634390129817" stroke="#000"/>
<rect x="810.8124999999999" y="444.7034760525019" width="8.8125" height="53.29652394749805" fill="orange" data-tooltip="1.24x baseline speed (MJIT)"/>
<line x1="810.8124999999999" y1="444.66210524601996" x2="819.6249999999999" y2="444.66210524601996" stroke="#000"/>
<line x1="810.8124999999999" y1="444.7448468589838" x2="819.6249999999999" y2="444.7448468589838" stroke="#000"/>
<line x1="815.2187499999999" y1="444.66210524601996" x2="815.2187499999999" y2="444.7448468589838" stroke="#000"/>
<rect x="819.6249999999999" y="270.93602016521186" width="8.8125" height="227.06397983478809" fill="green" data-tooltip="5.30x baseline speed (YJIT)"/>
<line x1="819.6249999999999" y1="270.5231557201719" x2="828.4374999999999" y2="270.5231557201719" stroke="#000"/>
<line x1="819.6249999999999" y1="271.3488846102518" x2="828.4374999999999" y2="271.3488846102518" stroke="#000"/>
<line x1="824.0312499999999" y1="270.5231557201719" x2="824.0312499999999" y2="271.3488846102518" stroke="#000"/>
<line x1="819.6249999999999" y1="498.0" x2="819.6249999999999" y2="502.79999999999995" stroke="#000"/>
<text x="819.6249999999999" y="512.4" fill="#111" font-size="small" font-family="monospace" font-weight="bold" text-anchor="end" transform="rotate(-60, 819.6249999999999, 512.4)">
keyword_args
</text>
<rect x="837.2499999999999" y="455.1763536199293" width="8.8125" height="42.82364638007062" fill="#7070f8" data-tooltip="1.00x baseline speed (No JIT)"/>
<line x1="837.2499999999999" y1="455.1554812134775" x2="846.0624999999999" y2="455.1554812134775" stroke="#000"/>
<line x1="837.2499999999999" y1="455.19722602638103" x2="846.0624999999999" y2="455.19722602638103" stroke="#000"/>
<line x1="841.6562499999999" y1="455.1554812134775" x2="841.6562499999999" y2="455.19722602638103" stroke="#000"/>
<rect x="846.0624999999999" y="451.8088830720777" width="8.8125" height="46.19111692792224" fill="orange" data-tooltip="1.08x baseline speed (MJIT)"/>
<line x1="846.0624999999999" y1="451.43623788467715" x2="854.8749999999999" y2="451.43623788467715" stroke="#000"/>
<line x1="846.0624999999999" y1="452.1815282594783" x2="854.8749999999999" y2="452.1815282594783" stroke="#000"/>
<line x1="850.4687499999999" y1="451.43623788467715" x2="850.4687499999999" y2="452.1815282594783" stroke="#000"/>
<rect x="854.8749999999999" y="100.19999999999999" width="8.8125" height="397.79999999999995" fill="green" data-tooltip="9.29x baseline speed (YJIT)"/>
<line x1="854.8749999999999" y1="99.07423549139651" x2="863.6874999999999" y2="99.07423549139651" stroke="#000"/>
<line x1="854.8749999999999" y1="101.32576450860347" x2="863.6874999999999" y2="101.32576450860347" stroke="#000"/>
<line x1="859.2812499999999" y1="99.07423549139651" x2="859.2812499999999" y2="101.32576450860347" stroke="#000"/>
<line x1="854.8749999999999" y1="498.0" x2="854.8749999999999" y2="502.79999999999995" stroke="#000"/>
<text x="854.8749999999999" y="512.4" fill="#111" font-size="small" font-family="monospace" font-weight="bold" text-anchor="end" transform="rotate(-60, 854.8749999999999, 512.4)">
respond_to
</text>
<rect x="872.4999999999999" y="455.1763536199293" width="8.8125" height="42.82364638007062" fill="#7070f8" data-tooltip="1.00x baseline speed (No JIT)"/>
<line x1="872.4999999999999" y1="455.060571719568" x2="881.3125" y2="455.060571719568" stroke="#000"/>
<line x1="872.4999999999999" y1="455.29213552029057" x2="881.3125" y2="455.29213552029057" stroke="#000"/>
<line x1="876.9062499999999" y1="455.060571719568" x2="876.9062499999999" y2="455.29213552029057" stroke="#000"/>
<rect x="881.3125" y="453.0072436649128" width="8.8125" height="44.99275633508723" fill="orange" data-tooltip="1.05x baseline speed (MJIT)"/>
<line x1="881.3125" y1="452.86641856374916" x2="890.125" y2="452.86641856374916" stroke="#000"/>
<line x1="881.3125" y1="453.14806876607634" x2="890.125" y2="453.14806876607634" stroke="#000"/>
<line x1="885.7187499999999" y1="452.86641856374916" x2="885.7187499999999" y2="453.14806876607634" stroke="#000"/>
<rect x="890.125" y="423.8973553289866" width="8.8125" height="74.10264467101342" fill="green" data-tooltip="1.73x baseline speed (YJIT)"/>
<line x1="890.125" y1="423.41968643920205" x2="898.9375" y2="423.41968643920205" stroke="#000"/>
<line x1="890.125" y1="424.37502421877105" x2="898.9375" y2="424.37502421877105" stroke="#000"/>
<line x1="894.5312499999999" y1="423.41968643920205" x2="894.5312499999999" y2="424.37502421877105" stroke="#000"/>
<line x1="890.125" y1="498.0" x2="890.125" y2="502.79999999999995" stroke="#000"/>
<text x="890.125" y="512.4" fill="#111" font-size="small" font-family="monospace" font-weight="bold" text-anchor="end" transform="rotate(-60, 890.125, 512.4)">
setivar
</text>
<rect x="907.75" y="455.1763536199293" width="8.8125" height="42.82364638007062" fill="#7070f8" data-tooltip="1.00x baseline speed (No JIT)"/>
<line x1="907.75" y1="454.72889885671447" x2="916.5625" y2="454.72889885671447" stroke="#000"/>
<line x1="907.75" y1="455.6238083831441" x2="916.5625" y2="455.6238083831441" stroke="#000"/>
<line x1="912.1562499999999" y1="454.72889885671447" x2="912.1562499999999" y2="455.6238083831441" stroke="#000"/>
<rect x="916.5625" y="430.52470193857465" width="8.8125" height="67.47529806142525" fill="orange" data-tooltip="1.58x baseline speed (MJIT)"/>
<line x1="916.5625" y1="425.0766794893246" x2="925.375" y2="425.0766794893246" stroke="#000"/>
<line x1="916.5625" y1="435.97272438782466" x2="925.375" y2="435.97272438782466" stroke="#000"/>
<line x1="920.9687499999999" y1="425.0766794893246" x2="920.9687499999999" y2="435.97272438782466" stroke="#000"/>
<rect x="925.375" y="419.8179197908661" width="8.8125" height="78.18208020913386" fill="green" data-tooltip="1.83x baseline speed (YJIT)"/>
<line x1="925.375" y1="418.56433680870026" x2="934.1875" y2="418.56433680870026" stroke="#000"/>
<line x1="925.375" y1="421.0715027730319" x2="934.1875" y2="421.0715027730319" stroke="#000"/>
<line x1="929.7812499999999" y1="418.56433680870026" x2="929.7812499999999" y2="421.0715027730319" stroke="#000"/>
<line x1="925.375" y1="498.0" x2="925.375" y2="502.79999999999995" stroke="#000"/>
<text x="925.375" y="512.4" fill="#111" font-size="small" font-family="monospace" font-weight="bold" text-anchor="end" transform="rotate(-60, 925.375, 512.4)">
str_concat
</text>
</svg>