<svg viewBox="0 0 1000 600" xmlns="http://www.w3.org/2000/svg" xmlns:xlink="http://www.w3.org/1999/xlink" width="100%" height="100%">

<rect x="50.0" y="30.0" width="940.0" height="467.99999999999994" stroke="#000" fill="#EEE"/>
<line x1="42.0" y1="497.9999999999999" x2="50.0" y2="497.9999999999999" stroke="#000"/>
<text x="26.000000000000004" y="497.9999999999999" text-anchor="end" font-weight="bold" font-size="small" fill="#111">
0.0
</text>
<line x1="42.0" y1="444.9862478664895" x2="50.0" y2="444.9862478664895" stroke="#000"/>
<text x="26.000000000000004" y="444.9862478664895" text-anchor="end" font-weight="bold" font-size="small" fill="#111">
0.2
</text>
<line x1="42.0" y1="391.972495732979" x2="50.0" y2="391.972495732979" stroke="#000"/>
<text x="26.000000000000004" y="391.972495732979" text-anchor="end" font-weight="bold" font-size="small" fill="#111">
0.4
</text>
<line x1="42.0" y1="338.9587435994685" x2="50.0" y2="338.9587435994685" stroke="#000"/>
<text x="26.000000000000004" y="338.9587435994685" text-anchor="end" font-weight="bold" font-size="small" fill="#111">
0.6
</text>
<line x1="42.0" y1="285.9449914659581" x2="50.0" y2="285.9449914659581" stroke="#000"/>
<text x="26.000000000000004" y="285.9449914659581" text-anchor="end" font-weight="bold" font-size="small" fill="#111">
0.8
</text>
<line x1="42.0" y1="232.9312393324476" x2="50.0" y2="232.9312393324476" stroke="#000"/>
<text x="26.000000000000004" y="232.9312393324476" text-anchor="end" font-weight="bold" font-size="small" fill="#111">
1.0
</text>
<line x1="42.0" y1="179.91748719893715" x2="50.0" y2="179.91748719893715" stroke="#000"/>
<text x="26.000000000000004" y="179.91748719893715" text-anchor="end" font-weight="bold" font-size="small" fill="#111">
1.2
</text>
<line x1="42.0" y1="126.90373506542672" x2="50.0" y2="126.90373506542672" stroke="#000"/>
<text x="26.000000000000004" y="126.90373506542672" text-anchor="end" font-weight="bold" font-size="small" fill="#111">
1.4
</text>
<rect x="197.99999999999997" y="36.00000000000001" width="80.0" height="18.0" fill="#7070f8" stroke="#888"/>
<text x="238.0" y="52.50000000000001" font-size="small" text-anchor="middle" font-weight="bold" fill="#EEE">
No JIT
</text>
<rect x="479.99999999999994" y="36.00000000000001" width="80.0" height="18.0" fill="orange" stroke="#888"/>
<text x="519.9999999999999" y="52.50000000000001" font-size="small" text-anchor="middle" font-weight="bold" fill="#EEE">
MJIT3.0
</text>
<rect x="761.9999999999999" y="36.00000000000001" width="80.0" height="18.0" fill="green" stroke="#888"/>
<text x="801.9999999999999" y="52.50000000000001" font-size="small" text-anchor="middle" font-weight="bold" fill="#EEE">
YJIT
</text>
<rect x="97.0" y="232.9312393324476" width="30.214285714285715" height="265.06876066755234" fill="#7070f8" data-tooltip="1.00x baseline speed (No JIT)"/>
<line x1="97.0" y1="232.2011075288861" x2="127.21428571428572" y2="232.2011075288861" stroke="#000"/>
<line x1="97.0" y1="233.66137113600908" x2="127.21428571428572" y2="233.66137113600908" stroke="#000"/>
<line x1="112.10714285714286" y1="232.2011075288861" x2="112.10714285714286" y2="233.66137113600908" stroke="#000"/>
<rect x="127.21428571428572" y="240.57402980342337" width="30.214285714285715" height="257.42597019657654" fill="orange" data-tooltip="0.97x baseline speed (MJIT3.0)"/>
<line x1="127.21428571428572" y1="239.40313390855474" x2="157.42857142857144" y2="239.40313390855474" stroke="#000"/>
<line x1="127.21428571428572" y1="241.744925698292" x2="157.42857142857144" y2="241.744925698292" stroke="#000"/>
<line x1="142.32142857142858" y1="239.40313390855474" x2="142.32142857142858" y2="241.744925698292" stroke="#000"/>
<rect x="157.42857142857142" y="129.6715317697039" width="30.214285714285715" height="368.32846823029604" fill="green" data-tooltip="1.39x baseline speed (YJIT)"/>
<line x1="157.42857142857142" y1="126.73578856344669" x2="187.64285714285714" y2="126.73578856344669" stroke="#000"/>
<line x1="157.42857142857142" y1="132.60727497596116" x2="187.64285714285714" y2="132.60727497596116" stroke="#000"/>
<line x1="172.53571428571428" y1="126.73578856344669" x2="172.53571428571428" y2="132.60727497596116" stroke="#000"/>
<line x1="157.42857142857142" y1="498.0" x2="157.42857142857142" y2="502.79999999999995" stroke="#000"/>
<text x="157.42857142857142" y="512.4" fill="#111" font-size="small" font-family="monospace" font-weight="bold" text-anchor="end" transform="rotate(-60, 157.42857142857142, 512.4)">
activerecord
</text>
<rect x="217.85714285714286" y="232.9312393324476" width="30.214285714285715" height="265.06876066755234" fill="#7070f8" data-tooltip="1.00x baseline speed (No JIT)"/>
<line x1="217.85714285714286" y1="231.20558029793992" x2="248.07142857142858" y2="231.20558029793992" stroke="#000"/>
<line x1="217.85714285714286" y1="234.65689836695526" x2="248.07142857142858" y2="234.65689836695526" stroke="#000"/>
<line x1="232.9642857142857" y1="231.20558029793992" x2="232.9642857142857" y2="234.65689836695526" stroke="#000"/>
<rect x="248.07142857142858" y="228.69190624847926" width="30.214285714285715" height="269.3080937515207" fill="orange" data-tooltip="1.02x baseline speed (MJIT3.0)"/>
<line x1="248.07142857142858" y1="222.41595705069614" x2="278.2857142857143" y2="222.41595705069614" stroke="#000"/>
<line x1="248.07142857142858" y1="234.96785544626238" x2="278.2857142857143" y2="234.96785544626238" stroke="#000"/>
<line x1="263.17857142857144" y1="222.41595705069614" x2="263.17857142857144" y2="234.96785544626238" stroke="#000"/>
<rect x="278.2857142857143" y="156.69927640171625" width="30.214285714285715" height="341.3007235982837" fill="green" data-tooltip="1.29x baseline speed (YJIT)"/>
<line x1="278.2857142857143" y1="150.8187594262261" x2="308.5" y2="150.8187594262261" stroke="#000"/>
<line x1="278.2857142857143" y1="162.57979337720639" x2="308.5" y2="162.57979337720639" stroke="#000"/>
<line x1="293.39285714285717" y1="150.8187594262261" x2="293.39285714285717" y2="162.57979337720639" stroke="#000"/>
<line x1="278.2857142857143" y1="498.0" x2="278.2857142857143" y2="502.79999999999995" stroke="#000"/>
<text x="278.2857142857143" y="512.4" fill="#111" font-size="small" font-family="monospace" font-weight="bold" text-anchor="end" transform="rotate(-60, 278.2857142857143, 512.4)">
hexapdf
</text>
<rect x="338.7142857142857" y="232.9312393324476" width="30.214285714285715" height="265.06876066755234" fill="#7070f8" data-tooltip="1.00x baseline speed (No JIT)"/>
<line x1="338.7142857142857" y1="227.11951920256936" x2="368.92857142857144" y2="227.11951920256936" stroke="#000"/>
<line x1="338.7142857142857" y1="238.7429594623258" x2="368.92857142857144" y2="238.7429594623258" stroke="#000"/>
<line x1="353.8214285714286" y1="227.11951920256936" x2="353.8214285714286" y2="238.7429594623258" stroke="#000"/>
<rect x="368.92857142857144" y="225.75673464754487" width="30.214285714285715" height="272.24326535245507" fill="orange" data-tooltip="1.03x baseline speed (MJIT3.0)"/>
<line x1="368.92857142857144" y1="217.8729164782715" x2="399.1428571428571" y2="217.8729164782715" stroke="#000"/>
<line x1="368.92857142857144" y1="233.64055281681826" x2="399.1428571428571" y2="233.64055281681826" stroke="#000"/>
<line x1="384.03571428571433" y1="217.8729164782715" x2="384.03571428571433" y2="233.64055281681826" stroke="#000"/>
<rect x="399.14285714285717" y="191.06566721281044" width="30.214285714285715" height="306.93433278718953" fill="green" data-tooltip="1.16x baseline speed (YJIT)"/>
<line x1="399.14285714285717" y1="182.09367893282987" x2="429.3571428571429" y2="182.09367893282987" stroke="#000"/>
<line x1="399.14285714285717" y1="200.037655492791" x2="429.3571428571429" y2="200.037655492791" stroke="#000"/>
<line x1="414.25000000000006" y1="182.09367893282987" x2="414.25000000000006" y2="200.037655492791" stroke="#000"/>
<line x1="399.14285714285717" y1="498.0" x2="399.14285714285717" y2="502.79999999999995" stroke="#000"/>
<text x="399.14285714285717" y="512.4" fill="#111" font-size="small" font-family="monospace" font-weight="bold" text-anchor="end" transform="rotate(-60, 399.14285714285717, 512.4)">
jekyll
</text>
<rect x="459.5714285714285" y="232.9312393324476" width="30.214285714285715" height="265.06876066755234" fill="#7070f8" data-tooltip="1.00x baseline speed (No JIT)"/>
<line x1="459.5714285714285" y1="228.7310248932562" x2="489.7857142857142" y2="228.7310248932562" stroke="#000"/>
<line x1="459.5714285714285" y1="237.13145377163897" x2="489.7857142857142" y2="237.13145377163897" stroke="#000"/>
<line x1="474.6785714285714" y1="228.7310248932562" x2="474.6785714285714" y2="237.13145377163897" stroke="#000"/>
<rect x="489.7857142857142" y="212.68207938067508" width="30.214285714285715" height="285.3179206193249" fill="orange" data-tooltip="1.08x baseline speed (MJIT3.0)"/>
<line x1="489.7857142857142" y1="204.22504081115235" x2="519.9999999999999" y2="204.22504081115235" stroke="#000"/>
<line x1="489.7857142857142" y1="221.1391179501978" x2="519.9999999999999" y2="221.1391179501978" stroke="#000"/>
<line x1="504.89285714285705" y1="204.22504081115235" x2="504.89285714285705" y2="221.1391179501978" stroke="#000"/>
<rect x="519.9999999999999" y="100.19999999999999" width="30.214285714285715" height="397.79999999999995" fill="green" data-tooltip="1.50x baseline speed (YJIT)"/>
<line x1="519.9999999999999" y1="89.44377928672148" x2="550.2142857142857" y2="89.44377928672148" stroke="#000"/>
<line x1="519.9999999999999" y1="110.9562207132785" x2="550.2142857142857" y2="110.9562207132785" stroke="#000"/>
<line x1="535.1071428571428" y1="89.44377928672148" x2="535.1071428571428" y2="110.9562207132785" stroke="#000"/>
<line x1="519.9999999999999" y1="498.0" x2="519.9999999999999" y2="502.79999999999995" stroke="#000"/>
<text x="519.9999999999999" y="512.4" fill="#111" font-size="small" font-family="monospace" font-weight="bold" text-anchor="end" transform="rotate(-60, 519.9999999999999, 512.4)">
liquid-render
</text>
<rect x="580.4285714285714" y="232.9312393324476" width="30.214285714285715" height="265.06876066755234" fill="#7070f8" data-tooltip="1.00x baseline speed (No JIT)"/>
<line x1="580.4285714285714" y1="231.31226628193278" x2="610.6428571428571" y2="231.31226628193278" stroke="#000"/>
<line x1="580.4285714285714" y1="234.5502123829624" x2="610.6428571428571" y2="234.5502123829624" stroke="#000"/>
<line x1="595.5357142857143" y1="231.31226628193278" x2="595.5357142857143" y2="234.5502123829624" stroke="#000"/>
<rect x="610.6428571428571" y="221.98372317821224" width="30.214285714285715" height="276.0162768217877" fill="orange" data-tooltip="1.04x baseline speed (MJIT3.0)"/>
<line x1="610.6428571428571" y1="218.60479979903232" x2="640.8571428571429" y2="218.60479979903232" stroke="#000"/>
<line x1="610.6428571428571" y1="225.36264655739214" x2="640.8571428571429" y2="225.36264655739214" stroke="#000"/>
<line x1="625.75" y1="218.60479979903232" x2="625.75" y2="225.36264655739214" stroke="#000"/>
<rect x="640.8571428571428" y="196.7791611866616" width="30.214285714285715" height="301.22083881333833" fill="green" data-tooltip="1.14x baseline speed (YJIT)"/>
<line x1="640.8571428571428" y1="194.5474212662326" x2="671.0714285714286" y2="194.5474212662326" stroke="#000"/>
<line x1="640.8571428571428" y1="199.01090110709063" x2="671.0714285714286" y2="199.01090110709063" stroke="#000"/>
<line x1="655.9642857142857" y1="194.5474212662326" x2="655.9642857142857" y2="199.01090110709063" stroke="#000"/>
<line x1="640.8571428571428" y1="498.0" x2="640.8571428571428" y2="502.79999999999995" stroke="#000"/>
<text x="640.8571428571428" y="512.4" fill="#111" font-size="small" font-family="monospace" font-weight="bold" text-anchor="end" transform="rotate(-60, 640.8571428571428, 512.4)">
mail
</text>
<rect x="701.2857142857143" y="232.9312393324476" width="30.214285714285715" height="265.06876066755234" fill="#7070f8" data-tooltip="1.00x baseline speed (No JIT)"/>
<line x1="701.2857142857143" y1="231.6138338875786" x2="731.5" y2="231.6138338875786" stroke="#000"/>
<line x1="701.2857142857143" y1="234.24864477731657" x2="731.5" y2="234.24864477731657" stroke="#000"/>
<line x1="716.3928571428571" y1="231.6138338875786" x2="716.3928571428571" y2="234.24864477731657" stroke="#000"/>
<rect x="731.5" y="233.56401452417697" width="30.214285714285715" height="264.435985475823" fill="orange" data-tooltip="1.00x baseline speed (MJIT3.0)"/>
<line x1="731.5" y1="228.68483721927652" x2="761.7142857142858" y2="228.68483721927652" stroke="#000"/>
<line x1="731.5" y1="238.44319182907742" x2="761.7142857142858" y2="238.44319182907742" stroke="#000"/>
<line x1="746.6071428571429" y1="228.68483721927652" x2="746.6071428571429" y2="238.44319182907742" stroke="#000"/>
<rect x="761.7142857142857" y="160.47421928824073" width="30.214285714285715" height="337.5257807117592" fill="green" data-tooltip="1.27x baseline speed (YJIT)"/>
<line x1="761.7142857142857" y1="157.14998257097798" x2="791.9285714285714" y2="157.14998257097798" stroke="#000"/>
<line x1="761.7142857142857" y1="163.79845600550348" x2="791.9285714285714" y2="163.79845600550348" stroke="#000"/>
<line x1="776.8214285714286" y1="157.14998257097798" x2="776.8214285714286" y2="163.79845600550348" stroke="#000"/>
<line x1="761.7142857142857" y1="498.0" x2="761.7142857142857" y2="502.79999999999995" stroke="#000"/>
<text x="761.7142857142857" y="512.4" fill="#111" font-size="small" font-family="monospace" font-weight="bold" text-anchor="end" transform="rotate(-60, 761.7142857142857, 512.4)">
psych-load
</text>
<rect x="822.1428571428571" y="232.9312393324476" width="30.214285714285715" height="265.06876066755234" fill="#7070f8" data-tooltip="1.00x baseline speed (No JIT)"/>
<line x1="822.1428571428571" y1="229.81168184978193" x2="852.3571428571428" y2="229.81168184978193" stroke="#000"/>
<line x1="822.1428571428571" y1="236.05079681511324" x2="852.3571428571428" y2="236.05079681511324" stroke="#000"/>
<line x1="837.2499999999999" y1="229.81168184978193" x2="837.2499999999999" y2="236.05079681511324" stroke="#000"/>
<rect x="852.3571428571428" y="245.93513502011322" width="30.214285714285715" height="252.06486497988672" fill="orange" data-tooltip="0.95x baseline speed (MJIT3.0)"/>
<line x1="852.3571428571428" y1="242.6152900448832" x2="882.5714285714286" y2="242.6152900448832" stroke="#000"/>
<line x1="852.3571428571428" y1="249.25497999534323" x2="882.5714285714286" y2="249.25497999534323" stroke="#000"/>
<line x1="867.4642857142857" y1="242.6152900448832" x2="867.4642857142857" y2="249.25497999534323" stroke="#000"/>
<rect x="882.5714285714284" y="181.4167161648823" width="30.214285714285715" height="316.58328383511764" fill="green" data-tooltip="1.19x baseline speed (YJIT)"/>
<line x1="882.5714285714284" y1="175.90548787097774" x2="912.7857142857142" y2="175.90548787097774" stroke="#000"/>
<line x1="882.5714285714284" y1="186.9279444587869" x2="912.7857142857142" y2="186.9279444587869" stroke="#000"/>
<line x1="897.6785714285713" y1="175.90548787097774" x2="897.6785714285713" y2="186.9279444587869" stroke="#000"/>
<line x1="882.5714285714284" y1="498.0" x2="882.5714285714284" y2="502.79999999999995" stroke="#000"/>
<text x="882.5714285714284" y="512.4" fill="#111" font-size="small" font-family="monospace" font-weight="bold" text-anchor="end" transform="rotate(-60, 882.5714285714284, 512.4)">
railsbench
</text>
</svg>