<svg viewBox="0 0 1000 600" xmlns="http://www.w3.org/2000/svg" xmlns:xlink="http://www.w3.org/1999/xlink" width="100%" height="100%">

<rect x="50.0" y="30.0" width="940.0" height="467.99999999999994" stroke="#000" fill="#EEE"/>
<line x1="42.0" y1="497.9999999999999" x2="50.0" y2="497.9999999999999" stroke="#000"/>
<text x="26.000000000000004" y="497.9999999999999" text-anchor="end" font-weight="bold" font-size="small" fill="#111">
0.0
</text>
<line x1="42.0" y1="435.6852419426374" x2="50.0" y2="435.6852419426374" stroke="#000"/>
<text x="26.000000000000004" y="435.6852419426374" text-anchor="end" font-weight="bold" font-size="small" fill="#111">
0.2
</text>
<line x1="42.0" y1="373.3704838852749" x2="50.0" y2="373.3704838852749" stroke="#000"/>
<text x="26.000000000000004" y="373.3704838852749" text-anchor="end" font-weight="bold" font-size="small" fill="#111">
0.4
</text>
<line x1="42.0" y1="311.0557258279123" x2="50.0" y2="311.0557258279123" stroke="#000"/>
<text x="26.000000000000004" y="311.0557258279123" text-anchor="end" font-weight="bold" font-size="small" fill="#111">
0.6
</text>
<line x1="42.0" y1="248.74096777054976" x2="50.0" y2="248.74096777054976" stroke="#000"/>
<text x="26.000000000000004" y="248.74096777054976" text-anchor="end" font-weight="bold" font-size="small" fill="#111">
0.8
</text>
<line x1="42.0" y1="186.4262097131872" x2="50.0" y2="186.4262097131872" stroke="#000"/>
<text x="26.000000000000004" y="186.4262097131872" text-anchor="end" font-weight="bold" font-size="small" fill="#111">
1.0
</text>
<line x1="42.0" y1="124.11145165582467" x2="50.0" y2="124.11145165582467" stroke="#000"/>
<text x="26.000000000000004" y="124.11145165582467" text-anchor="end" font-weight="bold" font-size="small" fill="#111">
1.2
</text>
<rect x="268.5" y="36.00000000000001" width="80.0" height="18.0" fill="#7070f8" stroke="#888"/>
<text x="308.5" y="52.50000000000001" font-size="small" text-anchor="middle" font-weight="bold" fill="#EEE">
No JIT
</text>
<rect x="691.4999999999999" y="36.00000000000001" width="80.0" height="18.0" fill="orange" stroke="#888"/>
<text x="731.4999999999999" y="52.50000000000001" font-size="small" text-anchor="middle" font-weight="bold" fill="#EEE">
YJIT
</text>
<rect x="97.0" y="186.4262097131872" width="40.285714285714285" height="311.5737902868127" fill="#7070f8" data-tooltip="1.00x baseline speed (No JIT)"/>
<line x1="97.0" y1="185.86319951001792" x2="137.28571428571428" y2="185.86319951001792" stroke="#000"/>
<line x1="97.0" y1="186.98921991635652" x2="137.28571428571428" y2="186.98921991635652" stroke="#000"/>
<line x1="117.14285714285714" y1="185.86319951001792" x2="117.14285714285714" y2="186.98921991635652" stroke="#000"/>
<rect x="137.28571428571428" y="132.50119456134914" width="40.285714285714285" height="365.49880543865083" fill="orange" data-tooltip="1.17x baseline speed (YJIT)"/>
<line x1="137.28571428571428" y1="130.49481969798865" x2="177.57142857142858" y2="130.49481969798865" stroke="#000"/>
<line x1="137.28571428571428" y1="134.50756942470963" x2="177.57142857142858" y2="134.50756942470963" stroke="#000"/>
<line x1="157.42857142857142" y1="130.49481969798865" x2="157.42857142857142" y2="134.50756942470963" stroke="#000"/>
<line x1="157.42857142857142" y1="498.0" x2="157.42857142857142" y2="502.79999999999995" stroke="#000"/>
<text x="157.42857142857142" y="512.4" fill="#111" font-size="small" font-family="monospace" font-weight="bold" text-anchor="end" transform="rotate(-60, 157.42857142857142, 512.4)">
activerecord
</text>
<rect x="217.85714285714286" y="186.4262097131872" width="40.285714285714285" height="311.5737902868127" fill="#7070f8" data-tooltip="1.00x baseline speed (No JIT)"/>
<line x1="217.85714285714286" y1="184.64850548375156" x2="258.1428571428571" y2="184.64850548375156" stroke="#000"/>
<line x1="217.85714285714286" y1="188.20391394262285" x2="258.1428571428571" y2="188.20391394262285" stroke="#000"/>
<line x1="238.0" y1="184.64850548375156" x2="238.0" y2="188.20391394262285" stroke="#000"/>
<rect x="258.1428571428571" y="139.24549823918605" width="40.285714285714285" height="358.7545017608139" fill="orange" data-tooltip="1.15x baseline speed (YJIT)"/>
<line x1="258.1428571428571" y1="133.95793248203827" x2="298.4285714285714" y2="133.95793248203827" stroke="#000"/>
<line x1="258.1428571428571" y1="144.53306399633385" x2="298.4285714285714" y2="144.53306399633385" stroke="#000"/>
<line x1="278.2857142857142" y1="133.95793248203827" x2="278.2857142857142" y2="144.53306399633385" stroke="#000"/>
<line x1="278.2857142857143" y1="498.0" x2="278.2857142857143" y2="502.79999999999995" stroke="#000"/>
<text x="278.2857142857143" y="512.4" fill="#111" font-size="small" font-family="monospace" font-weight="bold" text-anchor="end" transform="rotate(-60, 278.2857142857143, 512.4)">
hexapdf
</text>
<rect x="338.7142857142857" y="186.4262097131872" width="40.285714285714285" height="311.5737902868127" fill="#7070f8" data-tooltip="1.00x baseline speed (No JIT)"/>
<line x1="338.7142857142857" y1="183.68832319764218" x2="379.0" y2="183.68832319764218" stroke="#000"/>
<line x1="338.7142857142857" y1="189.16409622873223" x2="379.0" y2="189.16409622873223" stroke="#000"/>
<line x1="358.8571428571429" y1="183.68832319764218" x2="358.8571428571429" y2="189.16409622873223" stroke="#000"/>
<rect x="379.0" y="100.19999999999999" width="40.285714285714285" height="397.79999999999995" fill="orange" data-tooltip="1.28x baseline speed (YJIT)"/>
<line x1="379.0" y1="93.62985501343985" x2="419.2857142857143" y2="93.62985501343985" stroke="#000"/>
<line x1="379.0" y1="106.77014498656013" x2="419.2857142857143" y2="106.77014498656013" stroke="#000"/>
<line x1="399.1428571428571" y1="93.62985501343985" x2="399.1428571428571" y2="106.77014498656013" stroke="#000"/>
<line x1="399.14285714285717" y1="498.0" x2="399.14285714285717" y2="502.79999999999995" stroke="#000"/>
<text x="399.14285714285717" y="512.4" fill="#111" font-size="small" font-family="monospace" font-weight="bold" text-anchor="end" transform="rotate(-60, 399.14285714285717, 512.4)">
liquid-render
</text>
<rect x="459.5714285714285" y="186.4262097131872" width="40.285714285714285" height="311.5737902868127" fill="#7070f8" data-tooltip="1.00x baseline speed (No JIT)"/>
<line x1="459.5714285714285" y1="184.6788374677955" x2="499.8571428571428" y2="184.6788374677955" stroke="#000"/>
<line x1="459.5714285714285" y1="188.17358195857895" x2="499.8571428571428" y2="188.17358195857895" stroke="#000"/>
<line x1="479.71428571428567" y1="184.6788374677955" x2="479.71428571428567" y2="188.17358195857895" stroke="#000"/>
<rect x="499.8571428571428" y="165.39741776072626" width="40.285714285714285" height="332.60258223927366" fill="orange" data-tooltip="1.07x baseline speed (YJIT)"/>
<line x1="499.8571428571428" y1="163.51042746228467" x2="540.142857142857" y2="163.51042746228467" stroke="#000"/>
<line x1="499.8571428571428" y1="167.28440805916784" x2="540.142857142857" y2="167.28440805916784" stroke="#000"/>
<line x1="519.9999999999999" y1="163.51042746228467" x2="519.9999999999999" y2="167.28440805916784" stroke="#000"/>
<line x1="519.9999999999999" y1="498.0" x2="519.9999999999999" y2="502.79999999999995" stroke="#000"/>
<text x="519.9999999999999" y="512.4" fill="#111" font-size="small" font-family="monospace" font-weight="bold" text-anchor="end" transform="rotate(-60, 519.9999999999999, 512.4)">
mail
</text>
<rect x="580.4285714285714" y="186.4262097131872" width="40.285714285714285" height="311.5737902868127" fill="#7070f8" data-tooltip="1.00x baseline speed (No JIT)"/>
<line x1="580.4285714285714" y1="186.16506847762798" x2="620.7142857142857" y2="186.16506847762798" stroke="#000"/>
<line x1="580.4285714285714" y1="186.68735094874643" x2="620.7142857142857" y2="186.68735094874643" stroke="#000"/>
<line x1="600.5714285714286" y1="186.16506847762798" x2="600.5714285714286" y2="186.68735094874643" stroke="#000"/>
<rect x="620.7142857142857" y="103.00517317950386" width="40.285714285714285" height="394.9948268204961" fill="orange" data-tooltip="1.27x baseline speed (YJIT)"/>
<line x1="620.7142857142857" y1="102.63515531776979" x2="660.9999999999999" y2="102.63515531776979" stroke="#000"/>
<line x1="620.7142857142857" y1="103.37519104123791" x2="660.9999999999999" y2="103.37519104123791" stroke="#000"/>
<line x1="640.8571428571428" y1="102.63515531776979" x2="640.8571428571428" y2="103.37519104123791" stroke="#000"/>
<line x1="640.8571428571428" y1="498.0" x2="640.8571428571428" y2="502.79999999999995" stroke="#000"/>
<text x="640.8571428571428" y="512.4" fill="#111" font-size="small" font-family="monospace" font-weight="bold" text-anchor="end" transform="rotate(-60, 640.8571428571428, 512.4)">
psych-load
</text>
<rect x="701.2857142857143" y="186.4262097131872" width="40.285714285714285" height="311.5737902868127" fill="#7070f8" data-tooltip="1.00x baseline speed (No JIT)"/>
<line x1="701.2857142857143" y1="184.7215811876481" x2="741.5714285714286" y2="184.7215811876481" stroke="#000"/>
<line x1="701.2857142857143" y1="188.13083823872634" x2="741.5714285714286" y2="188.13083823872634" stroke="#000"/>
<line x1="721.4285714285714" y1="184.7215811876481" x2="721.4285714285714" y2="188.13083823872634" stroke="#000"/>
<rect x="741.5714285714286" y="118.95618932889529" width="40.285714285714285" height="379.04381067110467" fill="orange" data-tooltip="1.22x baseline speed (YJIT)"/>
<line x1="741.5714285714286" y1="115.60836847291544" x2="781.8571428571428" y2="115.60836847291544" stroke="#000"/>
<line x1="741.5714285714286" y1="122.30401018487514" x2="781.8571428571428" y2="122.30401018487514" stroke="#000"/>
<line x1="761.7142857142857" y1="115.60836847291544" x2="761.7142857142857" y2="122.30401018487514" stroke="#000"/>
<line x1="761.7142857142857" y1="498.0" x2="761.7142857142857" y2="502.79999999999995" stroke="#000"/>
<text x="761.7142857142857" y="512.4" fill="#111" font-size="small" font-family="monospace" font-weight="bold" text-anchor="end" transform="rotate(-60, 761.7142857142857, 512.4)">
railsbench
</text>
<rect x="822.1428571428571" y="186.4262097131872" width="40.285714285714285" height="311.5737902868127" fill="#7070f8" data-tooltip="1.00x baseline speed (No JIT)"/>
<line x1="822.1428571428571" y1="163.29446438339698" x2="862.4285714285713" y2="163.29446438339698" stroke="#000"/>
<line x1="822.1428571428571" y1="209.55795504297743" x2="862.4285714285713" y2="209.55795504297743" stroke="#000"/>
<line x1="842.2857142857142" y1="163.29446438339698" x2="842.2857142857142" y2="209.55795504297743" stroke="#000"/>
<rect x="862.4285714285713" y="172.45068329965437" width="40.285714285714285" height="325.54931670034557" fill="orange" data-tooltip="1.04x baseline speed (YJIT)"/>
<line x1="862.4285714285713" y1="128.41742267467473" x2="902.7142857142856" y2="128.41742267467473" stroke="#000"/>
<line x1="862.4285714285713" y1="216.48394392463405" x2="902.7142857142856" y2="216.48394392463405" stroke="#000"/>
<line x1="882.5714285714284" y1="128.41742267467473" x2="882.5714285714284" y2="216.48394392463405" stroke="#000"/>
<line x1="882.5714285714284" y1="498.0" x2="882.5714285714284" y2="502.79999999999995" stroke="#000"/>
<text x="882.5714285714284" y="512.4" fill="#111" font-size="small" font-family="monospace" font-weight="bold" text-anchor="end" transform="rotate(-60, 882.5714285714284, 512.4)">
ruby-lsp
</text>
</svg>