<svg viewBox="0 0 1000 600" xmlns="http://www.w3.org/2000/svg" xmlns:xlink="http://www.w3.org/1999/xlink" width="100%" height="100%">

<rect x="50.0" y="30.0" width="940.0" height="467.99999999999994" stroke="#000" fill="#EEE"/>
<line x1="42.0" y1="497.9999999999999" x2="50.0" y2="497.9999999999999" stroke="#000"/>
<text x="26.000000000000004" y="497.9999999999999" text-anchor="end" font-weight="bold" font-size="small" fill="#111">
0.0
</text>
<line x1="42.0" y1="402.2499033679759" x2="50.0" y2="402.2499033679759" stroke="#000"/>
<text x="26.000000000000004" y="402.2499033679759" text-anchor="end" font-weight="bold" font-size="small" fill="#111">
2.0
</text>
<line x1="42.0" y1="306.4998067359519" x2="50.0" y2="306.4998067359519" stroke="#000"/>
<text x="26.000000000000004" y="306.4998067359519" text-anchor="end" font-weight="bold" font-size="small" fill="#111">
4.0
</text>
<line x1="42.0" y1="210.74971010392795" x2="50.0" y2="210.74971010392795" stroke="#000"/>
<text x="26.000000000000004" y="210.74971010392795" text-anchor="end" font-weight="bold" font-size="small" fill="#111">
6.0
</text>
<line x1="42.0" y1="114.99961347190393" x2="50.0" y2="114.99961347190393" stroke="#000"/>
<text x="26.000000000000004" y="114.99961347190393" text-anchor="end" font-weight="bold" font-size="small" fill="#111">
8.0
</text>
<rect x="197.99999999999997" y="36.00000000000001" width="80.0" height="18.0" fill="#7070f8" stroke="#888"/>
<text x="238.0" y="52.50000000000001" font-size="small" text-anchor="middle" font-weight="bold" fill="#EEE">
No JIT
</text>
<rect x="479.99999999999994" y="36.00000000000001" width="80.0" height="18.0" fill="orange" stroke="#888"/>
<text x="519.9999999999999" y="52.50000000000001" font-size="small" text-anchor="middle" font-weight="bold" fill="#EEE">
MJIT
</text>
<rect x="761.9999999999999" y="36.00000000000001" width="80.0" height="18.0" fill="green" stroke="#888"/>
<text x="801.9999999999999" y="52.50000000000001" font-size="small" text-anchor="middle" font-weight="bold" fill="#EEE">
YJIT
</text>
<rect x="97.0" y="450.1249516839879" width="8.8125" height="47.875048316012" fill="#7070f8" data-tooltip="1.00x baseline speed (No JIT)"/>
<line x1="97.0" y1="449.9744608662486" x2="105.8125" y2="449.9744608662486" stroke="#000"/>
<line x1="97.0" y1="450.2754425017272" x2="105.8125" y2="450.2754425017272" stroke="#000"/>
<line x1="101.40625" y1="449.9744608662486" x2="101.40625" y2="450.2754425017272" stroke="#000"/>
<rect x="105.8125" y="451.87876627223307" width="8.8125" height="46.12123372776693" fill="orange" data-tooltip="0.96x baseline speed (MJIT)"/>
<line x1="105.8125" y1="451.6679204004919" x2="114.625" y2="451.6679204004919" stroke="#000"/>
<line x1="105.8125" y1="452.0896121439742" x2="114.625" y2="452.0896121439742" stroke="#000"/>
<line x1="110.21875" y1="451.6679204004919" x2="110.21875" y2="452.0896121439742" stroke="#000"/>
<rect x="114.625" y="427.1978607201217" width="8.8125" height="70.80213927987828" fill="green" data-tooltip="1.48x baseline speed (YJIT)"/>
<line x1="114.625" y1="426.65797858293155" x2="123.4375" y2="426.65797858293155" stroke="#000"/>
<line x1="114.625" y1="427.7377428573118" x2="123.4375" y2="427.7377428573118" stroke="#000"/>
<line x1="119.03125" y1="426.65797858293155" x2="119.03125" y2="427.7377428573118" stroke="#000"/>
<line x1="114.625" y1="498.0" x2="114.625" y2="502.79999999999995" stroke="#000"/>
<text x="114.625" y="512.4" fill="#111" font-size="small" font-family="monospace" font-weight="bold" text-anchor="end" transform="rotate(-60, 114.625, 512.4)">
activerecord
</text>
<rect x="132.25" y="450.1249516839879" width="8.8125" height="47.875048316012" fill="#7070f8" data-tooltip="1.00x baseline speed (No JIT)"/>
<line x1="132.25" y1="449.55576126416616" x2="141.0625" y2="449.55576126416616" stroke="#000"/>
<line x1="132.25" y1="450.6941421038096" x2="141.0625" y2="450.6941421038096" stroke="#000"/>
<line x1="136.65625" y1="449.55576126416616" x2="136.65625" y2="450.6941421038096" stroke="#000"/>
<rect x="149.875" y="433.7815825770168" width="8.8125" height="64.21841742298307" fill="green" data-tooltip="1.34x baseline speed (YJIT)"/>
<line x1="149.875" y1="432.2980695422178" x2="158.6875" y2="432.2980695422178" stroke="#000"/>
<line x1="149.875" y1="435.26509561181587" x2="158.6875" y2="435.26509561181587" stroke="#000"/>
<line x1="154.28125" y1="432.2980695422178" x2="154.28125" y2="435.26509561181587" stroke="#000"/>
<line x1="149.875" y1="498.0" x2="149.875" y2="502.79999999999995" stroke="#000"/>
<text x="149.875" y="512.4" fill="#111" font-size="small" font-family="monospace" font-weight="bold" text-anchor="end" transform="rotate(-60, 149.875, 512.4)">
hexapdf
</text>
<rect x="167.49999999999997" y="450.1249516839879" width="8.8125" height="47.875048316012" fill="#7070f8" data-tooltip="1.00x baseline speed (No JIT)"/>
<line x1="167.49999999999997" y1="449.6548446920605" x2="176.31249999999997" y2="449.6548446920605" stroke="#000"/>
<line x1="167.49999999999997" y1="450.5950586759153" x2="176.31249999999997" y2="450.5950586759153" stroke="#000"/>
<line x1="171.90624999999997" y1="449.6548446920605" x2="171.90624999999997" y2="450.5950586759153" stroke="#000"/>
<rect x="176.31249999999997" y="442.0249349906262" width="8.8125" height="55.97506500937373" fill="orange" data-tooltip="1.17x baseline speed (MJIT)"/>
<line x1="176.31249999999997" y1="441.1448399957637" x2="185.12499999999997" y2="441.1448399957637" stroke="#000"/>
<line x1="176.31249999999997" y1="442.9050299854888" x2="185.12499999999997" y2="442.9050299854888" stroke="#000"/>
<line x1="180.71874999999997" y1="441.1448399957637" x2="180.71874999999997" y2="442.9050299854888" stroke="#000"/>
<rect x="185.12499999999997" y="423.8320100544369" width="8.8125" height="74.167989945563" fill="green" data-tooltip="1.55x baseline speed (YJIT)"/>
<line x1="185.12499999999997" y1="422.38188455053285" x2="193.93749999999997" y2="422.38188455053285" stroke="#000"/>
<line x1="185.12499999999997" y1="425.28213555834094" x2="193.93749999999997" y2="425.28213555834094" stroke="#000"/>
<line x1="189.53124999999997" y1="422.38188455053285" x2="189.53124999999997" y2="425.28213555834094" stroke="#000"/>
<line x1="185.12499999999997" y1="498.0" x2="185.12499999999997" y2="502.79999999999995" stroke="#000"/>
<text x="185.12499999999997" y="512.4" fill="#111" font-size="small" font-family="monospace" font-weight="bold" text-anchor="end" transform="rotate(-60, 185.12499999999997, 512.4)">
liquid-render
</text>
<rect x="202.75" y="450.1249516839879" width="8.8125" height="47.875048316012" fill="#7070f8" data-tooltip="1.00x baseline speed (No JIT)"/>
<line x1="202.75" y1="450.05698101201745" x2="211.5625" y2="450.05698101201745" stroke="#000"/>
<line x1="202.75" y1="450.19292235595833" x2="211.5625" y2="450.19292235595833" stroke="#000"/>
<line x1="207.15625" y1="450.05698101201745" x2="207.15625" y2="450.19292235595833" stroke="#000"/>
<rect x="211.5625" y="450.34728472463945" width="8.8125" height="47.65271527536045" fill="orange" data-tooltip="1.00x baseline speed (MJIT)"/>
<line x1="211.5625" y1="449.1870744927762" x2="220.375" y2="449.1870744927762" stroke="#000"/>
<line x1="211.5625" y1="451.50749495650274" x2="220.375" y2="451.50749495650274" stroke="#000"/>
<line x1="215.96875" y1="449.1870744927762" x2="215.96875" y2="451.50749495650274" stroke="#000"/>
<rect x="220.375" y="443.9355506748333" width="8.8125" height="54.064449325166606" fill="green" data-tooltip="1.13x baseline speed (YJIT)"/>
<line x1="220.375" y1="443.79285060222793" x2="229.1875" y2="443.79285060222793" stroke="#000"/>
<line x1="220.375" y1="444.07825074743863" x2="229.1875" y2="444.07825074743863" stroke="#000"/>
<line x1="224.78125" y1="443.79285060222793" x2="224.78125" y2="444.07825074743863" stroke="#000"/>
<line x1="220.375" y1="498.0" x2="220.375" y2="502.79999999999995" stroke="#000"/>
<text x="220.375" y="512.4" fill="#111" font-size="small" font-family="monospace" font-weight="bold" text-anchor="end" transform="rotate(-60, 220.375, 512.4)">
mail
</text>
<rect x="238.0" y="450.1249516839879" width="8.8125" height="47.875048316012" fill="#7070f8" data-tooltip="1.00x baseline speed (No JIT)"/>
<line x1="238.0" y1="450.07033057390595" x2="246.8125" y2="450.07033057390595" stroke="#000"/>
<line x1="238.0" y1="450.1795727940698" x2="246.8125" y2="450.1795727940698" stroke="#000"/>
<line x1="242.40625" y1="450.07033057390595" x2="242.40625" y2="450.1795727940698" stroke="#000"/>
<rect x="246.8125" y="443.3369592173856" width="8.8125" height="54.663040782614424" fill="orange" data-tooltip="1.14x baseline speed (MJIT)"/>
<line x1="246.8125" y1="443.273654257756" x2="255.625" y2="443.273654257756" stroke="#000"/>
<line x1="246.8125" y1="443.4002641770151" x2="255.625" y2="443.4002641770151" stroke="#000"/>
<line x1="251.21875" y1="443.273654257756" x2="251.21875" y2="443.4002641770151" stroke="#000"/>
<rect x="255.625" y="437.1309959695532" width="8.8125" height="60.869004030446675" fill="green" data-tooltip="1.27x baseline speed (YJIT)"/>
<line x1="255.625" y1="437.0569518774407" x2="264.4375" y2="437.0569518774407" stroke="#000"/>
<line x1="255.625" y1="437.2050400616658" x2="264.4375" y2="437.2050400616658" stroke="#000"/>
<line x1="260.03125" y1="437.0569518774407" x2="260.03125" y2="437.2050400616658" stroke="#000"/>
<line x1="255.625" y1="498.0" x2="255.625" y2="502.79999999999995" stroke="#000"/>
<text x="255.625" y="512.4" fill="#111" font-size="small" font-family="monospace" font-weight="bold" text-anchor="end" transform="rotate(-60, 255.625, 512.4)">
psych-load
</text>
<rect x="273.25" y="450.1249516839879" width="8.8125" height="47.875048316012" fill="#7070f8" data-tooltip="1.00x baseline speed (No JIT)"/>
<line x1="273.25" y1="449.77415597546604" x2="282.0625" y2="449.77415597546604" stroke="#000"/>
<line x1="273.25" y1="450.47574739250973" x2="282.0625" y2="450.47574739250973" stroke="#000"/>
<line x1="277.65625" y1="449.77415597546604" x2="277.65625" y2="450.47574739250973" stroke="#000"/>
<rect x="282.0625" y="450.53063077809645" width="8.8125" height="47.46936922190353" fill="orange" data-tooltip="0.99x baseline speed (MJIT)"/>
<line x1="282.0625" y1="450.12432611953005" x2="290.875" y2="450.12432611953005" stroke="#000"/>
<line x1="282.0625" y1="450.9369354366628" x2="290.875" y2="450.9369354366628" stroke="#000"/>
<line x1="286.46875" y1="450.12432611953005" x2="286.46875" y2="450.9369354366628" stroke="#000"/>
<rect x="290.875" y="434.5121222099082" width="8.8125" height="63.48787779009175" fill="green" data-tooltip="1.33x baseline speed (YJIT)"/>
<line x1="290.875" y1="433.69266073805125" x2="299.6875" y2="433.69266073805125" stroke="#000"/>
<line x1="290.875" y1="435.33158368176527" x2="299.6875" y2="435.33158368176527" stroke="#000"/>
<line x1="295.28125" y1="433.69266073805125" x2="295.28125" y2="435.33158368176527" stroke="#000"/>
<line x1="290.875" y1="498.0" x2="290.875" y2="502.79999999999995" stroke="#000"/>
<text x="290.875" y="512.4" fill="#111" font-size="small" font-family="monospace" font-weight="bold" text-anchor="end" transform="rotate(-60, 290.875, 512.4)">
railsbench
</text>
<rect x="308.5" y="450.1249516839879" width="8.8125" height="47.875048316012" fill="#7070f8" data-tooltip="1.00x baseline speed (No JIT)"/>
<line x1="308.5" y1="450.10844068403617" x2="317.3125" y2="450.10844068403617" stroke="#000"/>
<line x1="308.5" y1="450.1414626839396" x2="317.3125" y2="450.1414626839396" stroke="#000"/>
<line x1="312.90625" y1="450.10844068403617" x2="312.90625" y2="450.1414626839396" stroke="#000"/>
<rect x="317.3125" y="424.4942657508493" width="8.8125" height="73.50573424915069" fill="orange" data-tooltip="1.54x baseline speed (MJIT)"/>
<line x1="317.3125" y1="424.45506850371856" x2="326.125" y2="424.45506850371856" stroke="#000"/>
<line x1="317.3125" y1="424.53346299798005" x2="326.125" y2="424.53346299798005" stroke="#000"/>
<line x1="321.71875" y1="424.45506850371856" x2="321.71875" y2="424.53346299798005" stroke="#000"/>
<rect x="326.125" y="436.90002760596803" width="8.8125" height="61.0999723940319" fill="green" data-tooltip="1.28x baseline speed (YJIT)"/>
<line x1="326.125" y1="436.86219334185233" x2="334.9375" y2="436.86219334185233" stroke="#000"/>
<line x1="326.125" y1="436.93786187008374" x2="334.9375" y2="436.93786187008374" stroke="#000"/>
<line x1="330.53125" y1="436.86219334185233" x2="330.53125" y2="436.93786187008374" stroke="#000"/>
<line x1="326.125" y1="498.0" x2="326.125" y2="502.79999999999995" stroke="#000"/>
<text x="326.125" y="512.4" fill="#111" font-size="small" font-family="monospace" font-weight="bold" text-anchor="end" transform="rotate(-60, 326.125, 512.4)">
binarytrees
</text>
<rect x="343.75" y="450.1249516839879" width="8.8125" height="47.875048316012" fill="#7070f8" data-tooltip="1.00x baseline speed (No JIT)"/>
<line x1="343.75" y1="450.0684803640894" x2="352.5625" y2="450.0684803640894" stroke="#000"/>
<line x1="343.75" y1="450.1814230038864" x2="352.5625" y2="450.1814230038864" stroke="#000"/>
<line x1="348.15625" y1="450.0684803640894" x2="348.15625" y2="450.1814230038864" stroke="#000"/>
<rect x="352.5625" y="438.9049409368746" width="8.8125" height="59.09505906312528" fill="orange" data-tooltip="1.23x baseline speed (MJIT)"/>
<line x1="352.5625" y1="438.8290946002962" x2="361.375" y2="438.8290946002962" stroke="#000"/>
<line x1="352.5625" y1="438.980787273453" x2="361.375" y2="438.980787273453" stroke="#000"/>
<line x1="356.96875" y1="438.8290946002962" x2="356.96875" y2="438.980787273453" stroke="#000"/>
<rect x="361.375" y="427.34048252688495" width="8.8125" height="70.659517473115" fill="green" data-tooltip="1.48x baseline speed (YJIT)"/>
<line x1="361.375" y1="427.17249683413445" x2="370.1875" y2="427.17249683413445" stroke="#000"/>
<line x1="361.375" y1="427.50846821963546" x2="370.1875" y2="427.50846821963546" stroke="#000"/>
<line x1="365.78125" y1="427.17249683413445" x2="365.78125" y2="427.50846821963546" stroke="#000"/>
<line x1="361.375" y1="498.0" x2="361.375" y2="502.79999999999995" stroke="#000"/>
<text x="361.375" y="512.4" fill="#111" font-size="small" font-family="monospace" font-weight="bold" text-anchor="end" transform="rotate(-60, 361.375, 512.4)">
chunky_png
</text>
<rect x="379.0" y="450.1249516839879" width="8.8125" height="47.875048316012" fill="#7070f8" data-tooltip="1.00x baseline speed (No JIT)"/>
<line x1="379.0" y1="449.827348218339" x2="387.8125" y2="449.827348218339" stroke="#000"/>
<line x1="379.0" y1="450.42255514963676" x2="387.8125" y2="450.42255514963676" stroke="#000"/>
<line x1="383.40625" y1="449.827348218339" x2="383.40625" y2="450.42255514963676" stroke="#000"/>
<rect x="387.8125" y="445.4429627443718" width="8.8125" height="52.55703725562813" fill="orange" data-tooltip="1.10x baseline speed (MJIT)"/>
<line x1="387.8125" y1="445.00999820689896" x2="396.625" y2="445.00999820689896" stroke="#000"/>
<line x1="387.8125" y1="445.87592728184467" x2="396.625" y2="445.87592728184467" stroke="#000"/>
<line x1="392.21875" y1="445.00999820689896" x2="392.21875" y2="445.87592728184467" stroke="#000"/>
<rect x="396.625" y="442.98912591852553" width="8.8125" height="55.010874081474455" fill="green" data-tooltip="1.15x baseline speed (YJIT)"/>
<line x1="396.625" y1="442.46067318675296" x2="405.4375" y2="442.46067318675296" stroke="#000"/>
<line x1="396.625" y1="443.51757865029805" x2="405.4375" y2="443.51757865029805" stroke="#000"/>
<line x1="401.03125" y1="442.46067318675296" x2="401.03125" y2="443.51757865029805" stroke="#000"/>
<line x1="396.625" y1="498.0" x2="396.625" y2="502.79999999999995" stroke="#000"/>
<text x="396.625" y="512.4" fill="#111" font-size="small" font-family="monospace" font-weight="bold" text-anchor="end" transform="rotate(-60, 396.625, 512.4)">
erubi
</text>
<rect x="414.25" y="450.1249516839879" width="8.8125" height="47.875048316012" fill="#7070f8" data-tooltip="1.00x baseline speed (No JIT)"/>
<line x1="414.25" y1="448.9092749198478" x2="423.0625" y2="448.9092749198478" stroke="#000"/>
<line x1="414.25" y1="451.340628448128" x2="423.0625" y2="451.340628448128" stroke="#000"/>
<line x1="418.65625" y1="448.9092749198478" x2="418.65625" y2="451.340628448128" stroke="#000"/>
<rect x="423.0625" y="450.2990148687875" width="8.8125" height="47.7009851312125" fill="orange" data-tooltip="1.00x baseline speed (MJIT)"/>
<line x1="423.0625" y1="448.61959453534087" x2="431.875" y2="448.61959453534087" stroke="#000"/>
<line x1="423.0625" y1="451.97843520223415" x2="431.875" y2="451.97843520223415" stroke="#000"/>
<line x1="427.46875" y1="448.61959453534087" x2="427.46875" y2="451.97843520223415" stroke="#000"/>
<rect x="431.875" y="432.02460864669797" width="8.8125" height="65.97539135330189" fill="green" data-tooltip="1.38x baseline speed (YJIT)"/>
<line x1="431.875" y1="429.07986998133447" x2="440.6875" y2="429.07986998133447" stroke="#000"/>
<line x1="431.875" y1="434.9693473120615" x2="440.6875" y2="434.9693473120615" stroke="#000"/>
<line x1="436.28125" y1="429.07986998133447" x2="436.28125" y2="434.9693473120615" stroke="#000"/>
<line x1="431.875" y1="498.0" x2="431.875" y2="502.79999999999995" stroke="#000"/>
<text x="431.875" y="512.4" fill="#111" font-size="small" font-family="monospace" font-weight="bold" text-anchor="end" transform="rotate(-60, 431.875, 512.4)">
erubi_rails
</text>
<rect x="449.5" y="450.1249516839879" width="8.8125" height="47.875048316012" fill="#7070f8" data-tooltip="1.00x baseline speed (No JIT)"/>
<line x1="449.5" y1="450.0013647311213" x2="458.3125" y2="450.0013647311213" stroke="#000"/>
<line x1="449.5" y1="450.2485386368545" x2="458.3125" y2="450.2485386368545" stroke="#000"/>
<line x1="453.90625" y1="450.0013647311213" x2="453.90625" y2="450.2485386368545" stroke="#000"/>
<rect x="458.3125" y="450.4478892448701" width="8.8125" height="47.552110755129746" fill="orange" data-tooltip="0.99x baseline speed (MJIT)"/>
<line x1="458.3125" y1="450.3031212416458" x2="467.125" y2="450.3031212416458" stroke="#000"/>
<line x1="458.3125" y1="450.5926572480945" x2="467.125" y2="450.5926572480945" stroke="#000"/>
<line x1="462.71875" y1="450.3031212416458" x2="462.71875" y2="450.5926572480945" stroke="#000"/>
<rect x="467.125" y="392.35488212649756" width="8.8125" height="105.64511787350241" fill="green" data-tooltip="2.21x baseline speed (YJIT)"/>
<line x1="467.125" y1="392.07495461263784" x2="475.9375" y2="392.07495461263784" stroke="#000"/>
<line x1="467.125" y1="392.63480964035733" x2="475.9375" y2="392.63480964035733" stroke="#000"/>
<line x1="471.53125" y1="392.07495461263784" x2="471.53125" y2="392.63480964035733" stroke="#000"/>
<line x1="467.125" y1="498.0" x2="467.125" y2="502.79999999999995" stroke="#000"/>
<text x="467.125" y="512.4" fill="#111" font-size="small" font-family="monospace" font-weight="bold" text-anchor="end" transform="rotate(-60, 467.125, 512.4)">
fannkuchredux
</text>
<rect x="484.75" y="450.1249516839879" width="8.8125" height="47.875048316012" fill="#7070f8" data-tooltip="1.00x baseline speed (No JIT)"/>
<line x1="484.75" y1="449.7522674475415" x2="493.5625" y2="449.7522674475415" stroke="#000"/>
<line x1="484.75" y1="450.4976359204343" x2="493.5625" y2="450.4976359204343" stroke="#000"/>
<line x1="489.15625" y1="449.7522674475415" x2="489.15625" y2="450.4976359204343" stroke="#000"/>
<rect x="493.5625" y="441.6291844331167" width="8.8125" height="56.370815566883216" fill="orange" data-tooltip="1.18x baseline speed (MJIT)"/>
<line x1="493.5625" y1="441.18645612510426" x2="502.375" y2="441.18645612510426" stroke="#000"/>
<line x1="493.5625" y1="442.07191274112915" x2="502.375" y2="442.07191274112915" stroke="#000"/>
<line x1="497.96875" y1="441.18645612510426" x2="497.96875" y2="442.07191274112915" stroke="#000"/>
<rect x="502.375" y="435.352056212422" width="8.8125" height="62.64794378757789" fill="green" data-tooltip="1.31x baseline speed (YJIT)"/>
<line x1="502.375" y1="434.56547457086407" x2="511.1875" y2="434.56547457086407" stroke="#000"/>
<line x1="502.375" y1="436.13863785397996" x2="511.1875" y2="436.13863785397996" stroke="#000"/>
<line x1="506.78124999999994" y1="434.56547457086407" x2="506.78124999999994" y2="436.13863785397996" stroke="#000"/>
<line x1="502.375" y1="498.0" x2="502.375" y2="502.79999999999995" stroke="#000"/>
<text x="502.375" y="512.4" fill="#111" font-size="small" font-family="monospace" font-weight="bold" text-anchor="end" transform="rotate(-60, 502.375, 512.4)">
lee
</text>
<rect x="519.9999999999999" y="450.1249516839879" width="8.8125" height="47.875048316012" fill="#7070f8" data-tooltip="1.00x baseline speed (No JIT)"/>
<line x1="519.9999999999999" y1="450.04324664735043" x2="528.8124999999999" y2="450.04324664735043" stroke="#000"/>
<line x1="519.9999999999999" y1="450.20665672062535" x2="528.8124999999999" y2="450.20665672062535" stroke="#000"/>
<line x1="524.4062499999999" y1="450.04324664735043" x2="524.4062499999999" y2="450.20665672062535" stroke="#000"/>
<rect x="528.8124999999999" y="422.0127948122917" width="8.8125" height="75.98720518770831" fill="orange" data-tooltip="1.59x baseline speed (MJIT)"/>
<line x1="528.8124999999999" y1="421.87827592867893" x2="537.6249999999999" y2="421.87827592867893" stroke="#000"/>
<line x1="528.8124999999999" y1="422.1473136959044" x2="537.6249999999999" y2="422.1473136959044" stroke="#000"/>
<line x1="533.2187499999999" y1="421.87827592867893" x2="533.2187499999999" y2="422.1473136959044" stroke="#000"/>
<rect x="537.6249999999999" y="436.0953184136801" width="8.8125" height="61.90468158631983" fill="green" data-tooltip="1.29x baseline speed (YJIT)"/>
<line x1="537.6249999999999" y1="435.9734424465808" x2="546.4374999999999" y2="435.9734424465808" stroke="#000"/>
<line x1="537.6249999999999" y1="436.21719438077946" x2="546.4374999999999" y2="436.21719438077946" stroke="#000"/>
<line x1="542.0312499999999" y1="435.9734424465808" x2="542.0312499999999" y2="436.21719438077946" stroke="#000"/>
<line x1="537.6249999999999" y1="498.0" x2="537.6249999999999" y2="502.79999999999995" stroke="#000"/>
<text x="537.6249999999999" y="512.4" fill="#111" font-size="small" font-family="monospace" font-weight="bold" text-anchor="end" transform="rotate(-60, 537.6249999999999, 512.4)">
nbody
</text>
<rect x="555.2499999999999" y="450.1249516839879" width="8.8125" height="47.875048316012" fill="#7070f8" data-tooltip="1.00x baseline speed (No JIT)"/>
<line x1="555.2499999999999" y1="449.91906197134284" x2="564.0624999999999" y2="449.91906197134284" stroke="#000"/>
<line x1="555.2499999999999" y1="450.33084139663293" x2="564.0624999999999" y2="450.33084139663293" stroke="#000"/>
<line x1="559.6562499999999" y1="449.91906197134284" x2="559.6562499999999" y2="450.33084139663293" stroke="#000"/>
<rect x="564.0624999999999" y="386.4451524686581" width="8.8125" height="111.55484753134192" fill="orange" data-tooltip="2.33x baseline speed (MJIT)"/>
<line x1="564.0624999999999" y1="385.58916089168207" x2="572.8749999999999" y2="385.58916089168207" stroke="#000"/>
<line x1="564.0624999999999" y1="387.3011440456341" x2="572.8749999999999" y2="387.3011440456341" stroke="#000"/>
<line x1="568.4687499999999" y1="385.58916089168207" x2="568.4687499999999" y2="387.3011440456341" stroke="#000"/>
<rect x="572.8749999999999" y="412.52194354456793" width="8.8125" height="85.47805645543195" fill="green" data-tooltip="1.79x baseline speed (YJIT)"/>
<line x1="572.8749999999999" y1="411.8747043054529" x2="581.6874999999999" y2="411.8747043054529" stroke="#000"/>
<line x1="572.8749999999999" y1="413.16918278368297" x2="581.6874999999999" y2="413.16918278368297" stroke="#000"/>
<line x1="577.2812499999999" y1="411.8747043054529" x2="577.2812499999999" y2="413.16918278368297" stroke="#000"/>
<line x1="572.8749999999999" y1="498.0" x2="572.8749999999999" y2="502.79999999999995" stroke="#000"/>
<text x="572.8749999999999" y="512.4" fill="#111" font-size="small" font-family="monospace" font-weight="bold" text-anchor="end" transform="rotate(-60, 572.8749999999999, 512.4)">
optcarrot
</text>
<rect x="590.4999999999999" y="450.1249516839879" width="8.8125" height="47.875048316012" fill="#7070f8" data-tooltip="1.00x baseline speed (No JIT)"/>
<line x1="590.4999999999999" y1="449.93367799999396" x2="599.3124999999999" y2="449.93367799999396" stroke="#000"/>
<line x1="590.4999999999999" y1="450.3162253679818" x2="599.3124999999999" y2="450.3162253679818" stroke="#000"/>
<line x1="594.9062499999999" y1="449.93367799999396" x2="594.9062499999999" y2="450.3162253679818" stroke="#000"/>
<rect x="599.3124999999999" y="431.3903328798205" width="8.8125" height="66.60966712017948" fill="orange" data-tooltip="1.39x baseline speed (MJIT)"/>
<line x1="599.3124999999999" y1="430.7295876628898" x2="608.1249999999999" y2="430.7295876628898" stroke="#000"/>
<line x1="599.3124999999999" y1="432.0510780967512" x2="608.1249999999999" y2="432.0510780967512" stroke="#000"/>
<line x1="603.7187499999999" y1="430.7295876628898" x2="603.7187499999999" y2="432.0510780967512" stroke="#000"/>
<rect x="608.1249999999999" y="409.88328125593046" width="8.8125" height="88.11671874406946" fill="green" data-tooltip="1.84x baseline speed (YJIT)"/>
<line x1="608.1249999999999" y1="409.2051482785227" x2="616.9374999999999" y2="409.2051482785227" stroke="#000"/>
<line x1="608.1249999999999" y1="410.5614142333382" x2="616.9374999999999" y2="410.5614142333382" stroke="#000"/>
<line x1="612.5312499999999" y1="409.2051482785227" x2="612.5312499999999" y2="410.5614142333382" stroke="#000"/>
<line x1="608.1249999999999" y1="498.0" x2="608.1249999999999" y2="502.79999999999995" stroke="#000"/>
<text x="608.1249999999999" y="512.4" fill="#111" font-size="small" font-family="monospace" font-weight="bold" text-anchor="end" transform="rotate(-60, 608.1249999999999, 512.4)">
rubykon
</text>
<rect x="625.7499999999999" y="450.1249516839879" width="8.8125" height="47.875048316012" fill="#7070f8" data-tooltip="1.00x baseline speed (No JIT)"/>
<line x1="625.7499999999999" y1="450.1168853193634" x2="634.5624999999999" y2="450.1168853193634" stroke="#000"/>
<line x1="625.7499999999999" y1="450.1330180486124" x2="634.5624999999999" y2="450.1330180486124" stroke="#000"/>
<line x1="630.1562499999999" y1="450.1168853193634" x2="630.1562499999999" y2="450.1330180486124" stroke="#000"/>
<rect x="634.5624999999999" y="470.174692772688" width="8.8125" height="27.825307227311878" fill="orange" data-tooltip="0.58x baseline speed (MJIT)"/>
<line x1="634.5624999999999" y1="469.34058237529297" x2="643.3749999999999" y2="469.34058237529297" stroke="#000"/>
<line x1="634.5624999999999" y1="471.00880317008307" x2="643.3749999999999" y2="471.00880317008307" stroke="#000"/>
<line x1="638.9687499999999" y1="469.34058237529297" x2="638.9687499999999" y2="471.00880317008307" stroke="#000"/>
<rect x="643.3749999999999" y="194.5118303585574" width="8.8125" height="303.4881696414425" fill="green" data-tooltip="6.34x baseline speed (YJIT)"/>
<line x1="643.3749999999999" y1="194.22670851502306" x2="652.1874999999999" y2="194.22670851502306" stroke="#000"/>
<line x1="643.3749999999999" y1="194.79695220209177" x2="652.1874999999999" y2="194.79695220209177" stroke="#000"/>
<line x1="647.7812499999999" y1="194.22670851502306" x2="647.7812499999999" y2="194.79695220209177" stroke="#000"/>
<line x1="643.3749999999999" y1="498.0" x2="643.3749999999999" y2="502.79999999999995" stroke="#000"/>
<text x="643.3749999999999" y="512.4" fill="#111" font-size="small" font-family="monospace" font-weight="bold" text-anchor="end" transform="rotate(-60, 643.3749999999999, 512.4)">
30k_ifelse
</text>
<rect x="660.9999999999999" y="450.1249516839879" width="8.8125" height="47.875048316012" fill="#7070f8" data-tooltip="1.00x baseline speed (No JIT)"/>
<line x1="660.9999999999999" y1="450.1190524129796" x2="669.8124999999999" y2="450.1190524129796" stroke="#000"/>
<line x1="660.9999999999999" y1="450.13085095499616" x2="669.8124999999999" y2="450.13085095499616" stroke="#000"/>
<line x1="665.4062499999999" y1="450.1190524129796" x2="665.4062499999999" y2="450.13085095499616" stroke="#000"/>
<rect x="669.8124999999999" y="473.23748921219976" width="8.8125" height="24.762510787800153" fill="orange" data-tooltip="0.52x baseline speed (MJIT)"/>
<line x1="669.8124999999999" y1="472.23620933871473" x2="678.6249999999999" y2="472.23620933871473" stroke="#000"/>
<line x1="669.8124999999999" y1="474.2387690856848" x2="678.6249999999999" y2="474.2387690856848" stroke="#000"/>
<line x1="674.2187499999999" y1="472.23620933871473" x2="674.2187499999999" y2="474.2387690856848" stroke="#000"/>
<rect x="678.6249999999999" y="100.19999999999999" width="8.8125" height="397.79999999999995" fill="green" data-tooltip="8.31x baseline speed (YJIT)"/>
<line x1="678.6249999999999" y1="100.08827856347577" x2="687.4374999999999" y2="100.08827856347577" stroke="#000"/>
<line x1="678.6249999999999" y1="100.31172143652421" x2="687.4374999999999" y2="100.31172143652421" stroke="#000"/>
<line x1="683.0312499999999" y1="100.08827856347577" x2="683.0312499999999" y2="100.31172143652421" stroke="#000"/>
<line x1="678.6249999999999" y1="498.0" x2="678.6249999999999" y2="502.79999999999995" stroke="#000"/>
<text x="678.6249999999999" y="512.4" fill="#111" font-size="small" font-family="monospace" font-weight="bold" text-anchor="end" transform="rotate(-60, 678.6249999999999, 512.4)">
30k_methods
</text>
<rect x="696.2499999999999" y="450.1249516839879" width="8.8125" height="47.875048316012" fill="#7070f8" data-tooltip="1.00x baseline speed (No JIT)"/>
<line x1="696.2499999999999" y1="450.0646964604308" x2="705.0624999999999" y2="450.0646964604308" stroke="#000"/>
<line x1="696.2499999999999" y1="450.18520690754497" x2="705.0624999999999" y2="450.18520690754497" stroke="#000"/>
<line x1="700.6562499999999" y1="450.0646964604308" x2="700.6562499999999" y2="450.18520690754497" stroke="#000"/>
<rect x="705.0624999999999" y="445.9865319411068" width="8.8125" height="52.013468058893125" fill="orange" data-tooltip="1.09x baseline speed (MJIT)"/>
<line x1="705.0624999999999" y1="445.39303750803396" x2="713.8749999999999" y2="445.39303750803396" stroke="#000"/>
<line x1="705.0624999999999" y1="446.58002637417974" x2="713.8749999999999" y2="446.58002637417974" stroke="#000"/>
<line x1="709.4687499999999" y1="445.39303750803396" x2="709.4687499999999" y2="446.58002637417974" stroke="#000"/>
<rect x="713.8749999999999" y="388.5422465541463" width="8.8125" height="109.45775344585363" fill="green" data-tooltip="2.29x baseline speed (YJIT)"/>
<line x1="713.8749999999999" y1="387.78729852284596" x2="722.6874999999999" y2="387.78729852284596" stroke="#000"/>
<line x1="713.8749999999999" y1="389.2971945854466" x2="722.6874999999999" y2="389.2971945854466" stroke="#000"/>
<line x1="718.2812499999999" y1="387.78729852284596" x2="718.2812499999999" y2="389.2971945854466" stroke="#000"/>
<line x1="713.8749999999999" y1="498.0" x2="713.8749999999999" y2="502.79999999999995" stroke="#000"/>
<text x="713.8749999999999" y="512.4" fill="#111" font-size="small" font-family="monospace" font-weight="bold" text-anchor="end" transform="rotate(-60, 713.8749999999999, 512.4)">
cfunc_itself
</text>
<rect x="731.4999999999999" y="450.1249516839879" width="8.8125" height="47.875048316012" fill="#7070f8" data-tooltip="1.00x baseline speed (No JIT)"/>
<line x1="731.4999999999999" y1="450.1088679117238" x2="740.3124999999999" y2="450.1088679117238" stroke="#000"/>
<line x1="731.4999999999999" y1="450.141035456252" x2="740.3124999999999" y2="450.141035456252" stroke="#000"/>
<line x1="735.9062499999999" y1="450.1088679117238" x2="735.9062499999999" y2="450.141035456252" stroke="#000"/>
<rect x="740.3124999999999" y="351.8821094081226" width="8.8125" height="146.11789059187734" fill="orange" data-tooltip="3.05x baseline speed (MJIT)"/>
<line x1="740.3124999999999" y1="351.7354214727438" x2="749.1249999999999" y2="351.7354214727438" stroke="#000"/>
<line x1="740.3124999999999" y1="352.0287973435014" x2="749.1249999999999" y2="352.0287973435014" stroke="#000"/>
<line x1="744.7187499999999" y1="351.7354214727438" x2="744.7187499999999" y2="352.0287973435014" stroke="#000"/>
<rect x="749.1249999999999" y="318.8828493933112" width="8.8125" height="179.1171506066888" fill="green" data-tooltip="3.74x baseline speed (YJIT)"/>
<line x1="749.1249999999999" y1="318.6299510080328" x2="757.9374999999999" y2="318.6299510080328" stroke="#000"/>
<line x1="749.1249999999999" y1="319.1357477785895" x2="757.9374999999999" y2="319.1357477785895" stroke="#000"/>
<line x1="753.5312499999999" y1="318.6299510080328" x2="753.5312499999999" y2="319.1357477785895" stroke="#000"/>
<line x1="749.1249999999999" y1="498.0" x2="749.1249999999999" y2="502.79999999999995" stroke="#000"/>
<text x="749.1249999999999" y="512.4" fill="#111" font-size="small" font-family="monospace" font-weight="bold" text-anchor="end" transform="rotate(-60, 749.1249999999999, 512.4)">
fib
</text>
<rect x="766.7499999999999" y="450.1249516839879" width="8.8125" height="47.875048316012" fill="#7070f8" data-tooltip="1.00x baseline speed (No JIT)"/>
<line x1="766.7499999999999" y1="449.97234922920245" x2="775.5624999999999" y2="449.97234922920245" stroke="#000"/>
<line x1="766.7499999999999" y1="450.2775541387733" x2="775.5624999999999" y2="450.2775541387733" stroke="#000"/>
<line x1="771.1562499999999" y1="449.97234922920245" x2="771.1562499999999" y2="450.2775541387733" stroke="#000"/>
<rect x="775.5624999999999" y="450.1484584172278" width="8.8125" height="47.85154158277212" fill="orange" data-tooltip="1.00x baseline speed (MJIT)"/>
<line x1="775.5624999999999" y1="449.9338762702628" x2="784.3749999999999" y2="449.9338762702628" stroke="#000"/>
<line x1="775.5624999999999" y1="450.36304056419283" x2="784.3749999999999" y2="450.36304056419283" stroke="#000"/>
<line x1="779.9687499999999" y1="449.9338762702628" x2="779.9687499999999" y2="450.36304056419283" stroke="#000"/>
<rect x="784.3749999999999" y="371.3171348399114" width="8.8125" height="126.68286516008861" fill="green" data-tooltip="2.65x baseline speed (YJIT)"/>
<line x1="784.3749999999999" y1="370.90824011468163" x2="793.1874999999999" y2="370.90824011468163" stroke="#000"/>
<line x1="784.3749999999999" y1="371.72602956514106" x2="793.1874999999999" y2="371.72602956514106" stroke="#000"/>
<line x1="788.7812499999999" y1="370.90824011468163" x2="788.7812499999999" y2="371.72602956514106" stroke="#000"/>
<line x1="784.3749999999999" y1="498.0" x2="784.3749999999999" y2="502.79999999999995" stroke="#000"/>
<text x="784.3749999999999" y="512.4" fill="#111" font-size="small" font-family="monospace" font-weight="bold" text-anchor="end" transform="rotate(-60, 784.3749999999999, 512.4)">
getivar
</text>
<rect x="801.9999999999999" y="450.1249516839879" width="8.8125" height="47.875048316012" fill="#7070f8" data-tooltip="1.00x baseline speed (No JIT)"/>
<line x1="801.9999999999999" y1="450.08924258009824" x2="810.8124999999999" y2="450.08924258009824" stroke="#000"/>
<line x1="801.9999999999999" y1="450.16066078787753" x2="810.8124999999999" y2="450.16066078787753" stroke="#000"/>
<line x1="806.4062499999999" y1="450.08924258009824" x2="806.4062499999999" y2="450.16066078787753" stroke="#000"/>
<rect x="810.8124999999999" y="437.5540355290743" width="8.8125" height="60.44596447092557" fill="orange" data-tooltip="1.26x baseline speed (MJIT)"/>
<line x1="810.8124999999999" y1="437.4969671643191" x2="819.6249999999999" y2="437.4969671643191" stroke="#000"/>
<line x1="810.8124999999999" y1="437.61110389382964" x2="819.6249999999999" y2="437.61110389382964" stroke="#000"/>
<line x1="815.2187499999999" y1="437.4969671643191" x2="815.2187499999999" y2="437.61110389382964" stroke="#000"/>
<rect x="819.6249999999999" y="234.87588784329355" width="8.8125" height="263.12411215670636" fill="green" data-tooltip="5.50x baseline speed (YJIT)"/>
<line x1="819.6249999999999" y1="233.9689643565244" x2="828.4374999999999" y2="233.9689643565244" stroke="#000"/>
<line x1="819.6249999999999" y1="235.7828113300627" x2="828.4374999999999" y2="235.7828113300627" stroke="#000"/>
<line x1="824.0312499999999" y1="233.9689643565244" x2="824.0312499999999" y2="235.7828113300627" stroke="#000"/>
<line x1="819.6249999999999" y1="498.0" x2="819.6249999999999" y2="502.79999999999995" stroke="#000"/>
<text x="819.6249999999999" y="512.4" fill="#111" font-size="small" font-family="monospace" font-weight="bold" text-anchor="end" transform="rotate(-60, 819.6249999999999, 512.4)">
keyword_args
</text>
<rect x="837.2499999999999" y="450.1249516839879" width="8.8125" height="47.875048316012" fill="#7070f8" data-tooltip="1.00x baseline speed (No JIT)"/>
<line x1="837.2499999999999" y1="450.04537061817797" x2="846.0624999999999" y2="450.04537061817797" stroke="#000"/>
<line x1="837.2499999999999" y1="450.2045327497978" x2="846.0624999999999" y2="450.2045327497978" stroke="#000"/>
<line x1="841.6562499999999" y1="450.04537061817797" x2="841.6562499999999" y2="450.2045327497978" stroke="#000"/>
<rect x="846.0624999999999" y="447.31361670834116" width="8.8125" height="50.68638329165874" fill="orange" data-tooltip="1.06x baseline speed (MJIT)"/>
<line x1="846.0624999999999" y1="447.22108869954315" x2="854.8749999999999" y2="447.22108869954315" stroke="#000"/>
<line x1="846.0624999999999" y1="447.40614471713917" x2="854.8749999999999" y2="447.40614471713917" stroke="#000"/>
<line x1="850.4687499999999" y1="447.22108869954315" x2="850.4687499999999" y2="447.40614471713917" stroke="#000"/>
<rect x="854.8749999999999" y="429.86694941498007" width="8.8125" height="68.13305058501979" fill="green" data-tooltip="1.42x baseline speed (YJIT)"/>
<line x1="854.8749999999999" y1="429.67423329322315" x2="863.6874999999999" y2="429.67423329322315" stroke="#000"/>
<line x1="854.8749999999999" y1="430.05966553673704" x2="863.6874999999999" y2="430.05966553673704" stroke="#000"/>
<line x1="859.2812499999999" y1="429.67423329322315" x2="859.2812499999999" y2="430.05966553673704" stroke="#000"/>
<line x1="854.8749999999999" y1="498.0" x2="854.8749999999999" y2="502.79999999999995" stroke="#000"/>
<text x="854.8749999999999" y="512.4" fill="#111" font-size="small" font-family="monospace" font-weight="bold" text-anchor="end" transform="rotate(-60, 854.8749999999999, 512.4)">
respond_to
</text>
<rect x="872.4999999999999" y="450.1249516839879" width="8.8125" height="47.875048316012" fill="#7070f8" data-tooltip="1.00x baseline speed (No JIT)"/>
<line x1="872.4999999999999" y1="450.0833618772709" x2="881.3125" y2="450.0833618772709" stroke="#000"/>
<line x1="872.4999999999999" y1="450.1665414907049" x2="881.3125" y2="450.1665414907049" stroke="#000"/>
<line x1="876.9062499999999" y1="450.0833618772709" x2="876.9062499999999" y2="450.1665414907049" stroke="#000"/>
<rect x="881.3125" y="450.14110699506386" width="8.8125" height="47.858893004936036" fill="orange" data-tooltip="1.00x baseline speed (MJIT)"/>
<line x1="881.3125" y1="450.08356195514705" x2="890.125" y2="450.08356195514705" stroke="#000"/>
<line x1="881.3125" y1="450.1986520349807" x2="890.125" y2="450.1986520349807" stroke="#000"/>
<line x1="885.7187499999999" y1="450.08356195514705" x2="885.7187499999999" y2="450.1986520349807" stroke="#000"/>
<rect x="890.125" y="413.6074603621407" width="8.8125" height="84.39253963785916" fill="green" data-tooltip="1.76x baseline speed (YJIT)"/>
<line x1="890.125" y1="413.2700186147651" x2="898.9375" y2="413.2700186147651" stroke="#000"/>
<line x1="890.125" y1="413.94490210951636" x2="898.9375" y2="413.94490210951636" stroke="#000"/>
<line x1="894.5312499999999" y1="413.2700186147651" x2="894.5312499999999" y2="413.94490210951636" stroke="#000"/>
<line x1="890.125" y1="498.0" x2="890.125" y2="502.79999999999995" stroke="#000"/>
<text x="890.125" y="512.4" fill="#111" font-size="small" font-family="monospace" font-weight="bold" text-anchor="end" transform="rotate(-60, 890.125, 512.4)">
setivar
</text>
<rect x="907.75" y="450.1249516839879" width="8.8125" height="47.875048316012" fill="#7070f8" data-tooltip="1.00x baseline speed (No JIT)"/>
<line x1="907.75" y1="449.61256439097593" x2="916.5625" y2="449.61256439097593" stroke="#000"/>
<line x1="907.75" y1="450.63733897699984" x2="916.5625" y2="450.63733897699984" stroke="#000"/>
<line x1="912.1562499999999" y1="449.61256439097593" x2="912.1562499999999" y2="450.63733897699984" stroke="#000"/>
<rect x="916.5625" y="421.2678758943998" width="8.8125" height="76.73212410560006" fill="orange" data-tooltip="1.60x baseline speed (MJIT)"/>
<line x1="916.5625" y1="414.4445154109475" x2="925.375" y2="414.4445154109475" stroke="#000"/>
<line x1="916.5625" y1="428.09123637785217" x2="925.375" y2="428.09123637785217" stroke="#000"/>
<line x1="920.9687499999999" y1="414.4445154109475" x2="920.9687499999999" y2="428.09123637785217" stroke="#000"/>
<rect x="925.375" y="407.72725023805566" width="8.8125" height="90.27274976194424" fill="green" data-tooltip="1.89x baseline speed (YJIT)"/>
<line x1="925.375" y1="405.8033636510045" x2="934.1875" y2="405.8033636510045" stroke="#000"/>
<line x1="925.375" y1="409.65113682510685" x2="934.1875" y2="409.65113682510685" stroke="#000"/>
<line x1="929.7812499999999" y1="405.8033636510045" x2="929.7812499999999" y2="409.65113682510685" stroke="#000"/>
<line x1="925.375" y1="498.0" x2="925.375" y2="502.79999999999995" stroke="#000"/>
<text x="925.375" y="512.4" fill="#111" font-size="small" font-family="monospace" font-weight="bold" text-anchor="end" transform="rotate(-60, 925.375, 512.4)">
str_concat
</text>
</svg>