<svg viewBox="0 0 1000 600" xmlns="http://www.w3.org/2000/svg" xmlns:xlink="http://www.w3.org/1999/xlink" width="100%" height="100%">

<rect x="50.0" y="30.0" width="940.0" height="467.99999999999994" stroke="#000" fill="#EEE"/>
<line x1="42.0" y1="497.9999999999999" x2="50.0" y2="497.9999999999999" stroke="#000"/>
<text x="26.000000000000004" y="497.9999999999999" text-anchor="end" font-weight="bold" font-size="small" fill="#111">
0.0
</text>
<line x1="42.0" y1="398.63176363286647" x2="50.0" y2="398.63176363286647" stroke="#000"/>
<text x="26.000000000000004" y="398.63176363286647" text-anchor="end" font-weight="bold" font-size="small" fill="#111">
2.0
</text>
<line x1="42.0" y1="299.263527265733" x2="50.0" y2="299.263527265733" stroke="#000"/>
<text x="26.000000000000004" y="299.263527265733" text-anchor="end" font-weight="bold" font-size="small" fill="#111">
4.0
</text>
<line x1="42.0" y1="199.89529089859954" x2="50.0" y2="199.89529089859954" stroke="#000"/>
<text x="26.000000000000004" y="199.89529089859954" text-anchor="end" font-weight="bold" font-size="small" fill="#111">
6.0
</text>
<line x1="42.0" y1="100.52705453146609" x2="50.0" y2="100.52705453146609" stroke="#000"/>
<text x="26.000000000000004" y="100.52705453146609" text-anchor="end" font-weight="bold" font-size="small" fill="#111">
8.0
</text>
<rect x="162.74999999999997" y="36.00000000000001" width="80.0" height="18.0" fill="#7070f8" stroke="#888"/>
<text x="202.75" y="52.50000000000001" font-size="small" text-anchor="middle" font-weight="bold" fill="#EEE">
No JIT
</text>
<rect x="374.25" y="36.00000000000001" width="80.0" height="18.0" fill="orange" stroke="#888"/>
<text x="414.25" y="52.50000000000001" font-size="small" text-anchor="middle" font-weight="bold" fill="#EEE">
MJIT3.0
</text>
<rect x="585.7499999999999" y="36.00000000000001" width="80.0" height="18.0" fill="green" stroke="#888"/>
<text x="625.7499999999999" y="52.50000000000001" font-size="small" text-anchor="middle" font-weight="bold" fill="#EEE">
MJIT
</text>
<rect x="797.2499999999999" y="36.00000000000001" width="80.0" height="18.0" fill="#4F3A7A" stroke="#888"/>
<text x="837.2499999999999" y="52.50000000000001" font-size="small" text-anchor="middle" font-weight="bold" fill="#EEE">
YJIT
</text>
<rect x="97.0" y="448.3158818164332" width="21.15" height="49.68411818356673" fill="#7070f8" data-tooltip="1.00x baseline speed (No JIT)"/>
<line x1="97.0" y1="448.2242314357217" x2="118.15" y2="448.2242314357217" stroke="#000"/>
<line x1="97.0" y1="448.4075321971447" x2="118.15" y2="448.4075321971447" stroke="#000"/>
<line x1="107.575" y1="448.2242314357217" x2="107.575" y2="448.4075321971447" stroke="#000"/>
<rect x="118.15" y="458.0314313309857" width="21.15" height="39.96856866901419" fill="orange" data-tooltip="0.80x baseline speed (MJIT3.0)"/>
<line x1="118.15" y1="455.0825725302768" x2="139.3" y2="455.0825725302768" stroke="#000"/>
<line x1="118.15" y1="460.9802901316946" x2="139.3" y2="460.9802901316946" stroke="#000"/>
<line x1="128.725" y1="455.0825725302768" x2="128.725" y2="460.9802901316946" stroke="#000"/>
<rect x="139.3" y="467.643045122247" width="21.15" height="30.35695487775301" fill="green" data-tooltip="0.61x baseline speed (MJIT)"/>
<line x1="139.3" y1="466.04380869807494" x2="160.45000000000002" y2="466.04380869807494" stroke="#000"/>
<line x1="139.3" y1="469.24228154641895" x2="160.45000000000002" y2="469.24228154641895" stroke="#000"/>
<line x1="149.875" y1="466.04380869807494" x2="149.875" y2="469.24228154641895" stroke="#000"/>
<rect x="160.45" y="124.5317541162078" width="21.15" height="373.4682458837921" fill="#4F3A7A" data-tooltip="7.52x baseline speed (YJIT)"/>
<line x1="160.45" y1="123.73298868282325" x2="181.6" y2="123.73298868282325" stroke="#000"/>
<line x1="160.45" y1="125.33051954959234" x2="181.6" y2="125.33051954959234" stroke="#000"/>
<line x1="171.02499999999998" y1="123.73298868282325" x2="171.02499999999998" y2="125.33051954959234" stroke="#000"/>
<line x1="149.875" y1="498.0" x2="149.875" y2="502.79999999999995" stroke="#000"/>
<text x="149.875" y="512.4" fill="#111" font-size="small" font-family="monospace" font-weight="bold" text-anchor="end" transform="rotate(-60, 149.875, 512.4)">
30k_ifelse
</text>
<rect x="202.75" y="448.3158818164332" width="21.15" height="49.68411818356673" fill="#7070f8" data-tooltip="1.00x baseline speed (No JIT)"/>
<line x1="202.75" y1="447.80374755923356" x2="223.89999999999998" y2="447.80374755923356" stroke="#000"/>
<line x1="202.75" y1="448.82801607363285" x2="223.89999999999998" y2="448.82801607363285" stroke="#000"/>
<line x1="213.325" y1="447.80374755923356" x2="213.325" y2="448.82801607363285" stroke="#000"/>
<rect x="223.89999999999998" y="465.606789988674" width="21.15" height="32.39321001132595" fill="orange" data-tooltip="0.65x baseline speed (MJIT3.0)"/>
<line x1="223.89999999999998" y1="460.7176879695435" x2="245.04999999999998" y2="460.7176879695435" stroke="#000"/>
<line x1="223.89999999999998" y1="470.4958920078045" x2="245.04999999999998" y2="470.4958920078045" stroke="#000"/>
<line x1="234.475" y1="460.7176879695435" x2="234.475" y2="470.4958920078045" stroke="#000"/>
<rect x="245.04999999999998" y="454.05752876609444" width="21.15" height="43.942471233905486" fill="green" data-tooltip="0.88x baseline speed (MJIT)"/>
<line x1="245.04999999999998" y1="452.37901799800073" x2="266.2" y2="452.37901799800073" stroke="#000"/>
<line x1="245.04999999999998" y1="455.73603953418814" x2="266.2" y2="455.73603953418814" stroke="#000"/>
<line x1="255.625" y1="452.37901799800073" x2="255.625" y2="455.73603953418814" stroke="#000"/>
<rect x="266.2" y="100.19999999999999" width="21.15" height="397.79999999999995" fill="#4F3A7A" data-tooltip="8.01x baseline speed (YJIT)"/>
<line x1="266.2" y1="96.0975348122643" x2="287.35" y2="96.0975348122643" stroke="#000"/>
<line x1="266.2" y1="104.30246518773568" x2="287.35" y2="104.30246518773568" stroke="#000"/>
<line x1="276.775" y1="96.0975348122643" x2="276.775" y2="104.30246518773568" stroke="#000"/>
<line x1="255.625" y1="498.0" x2="255.625" y2="502.79999999999995" stroke="#000"/>
<text x="255.625" y="512.4" fill="#111" font-size="small" font-family="monospace" font-weight="bold" text-anchor="end" transform="rotate(-60, 255.625, 512.4)">
30k_methods
</text>
<rect x="308.5" y="448.3158818164332" width="21.15" height="49.68411818356673" fill="#7070f8" data-tooltip="1.00x baseline speed (No JIT)"/>
<line x1="308.5" y1="448.27984948954787" x2="329.65" y2="448.27984948954787" stroke="#000"/>
<line x1="308.5" y1="448.35191414331854" x2="329.65" y2="448.35191414331854" stroke="#000"/>
<line x1="319.075" y1="448.27984948954787" x2="319.075" y2="448.35191414331854" stroke="#000"/>
<rect x="329.65" y="424.1870859048729" width="21.15" height="73.81291409512697" fill="orange" data-tooltip="1.49x baseline speed (MJIT3.0)"/>
<line x1="329.65" y1="423.1167734139257" x2="350.8" y2="423.1167734139257" stroke="#000"/>
<line x1="329.65" y1="425.25739839582013" x2="350.8" y2="425.25739839582013" stroke="#000"/>
<line x1="340.225" y1="423.1167734139257" x2="340.225" y2="425.25739839582013" stroke="#000"/>
<rect x="350.8" y="423.55493934239064" width="21.15" height="74.44506065760928" fill="green" data-tooltip="1.50x baseline speed (MJIT)"/>
<line x1="350.8" y1="421.45818814365157" x2="371.95" y2="421.45818814365157" stroke="#000"/>
<line x1="350.8" y1="425.65169054112965" x2="371.95" y2="425.65169054112965" stroke="#000"/>
<line x1="361.375" y1="421.45818814365157" x2="361.375" y2="425.65169054112965" stroke="#000"/>
<rect x="371.95" y="382.63347270867433" width="21.15" height="115.36652729132564" fill="#4F3A7A" data-tooltip="2.32x baseline speed (YJIT)"/>
<line x1="371.95" y1="382.38842468597255" x2="393.1" y2="382.38842468597255" stroke="#000"/>
<line x1="371.95" y1="382.87852073137606" x2="393.1" y2="382.87852073137606" stroke="#000"/>
<line x1="382.525" y1="382.38842468597255" x2="382.525" y2="382.87852073137606" stroke="#000"/>
<line x1="361.375" y1="498.0" x2="361.375" y2="502.79999999999995" stroke="#000"/>
<text x="361.375" y="512.4" fill="#111" font-size="small" font-family="monospace" font-weight="bold" text-anchor="end" transform="rotate(-60, 361.375, 512.4)">
cfunc_itself
</text>
<rect x="414.25" y="448.3158818164332" width="21.15" height="49.68411818356673" fill="#7070f8" data-tooltip="1.00x baseline speed (No JIT)"/>
<line x1="414.25" y1="448.18364337717554" x2="435.40000000000003" y2="448.18364337717554" stroke="#000"/>
<line x1="414.25" y1="448.4481202556909" x2="435.40000000000003" y2="448.4481202556909" stroke="#000"/>
<line x1="424.825" y1="448.18364337717554" x2="424.825" y2="448.4481202556909" stroke="#000"/>
<rect x="435.40000000000003" y="334.9951745624936" width="21.15" height="163.00482543750627" fill="orange" data-tooltip="3.28x baseline speed (MJIT3.0)"/>
<line x1="435.40000000000003" y1="334.53586844606247" x2="456.55" y2="334.53586844606247" stroke="#000"/>
<line x1="435.40000000000003" y1="335.45448067892477" x2="456.55" y2="335.45448067892477" stroke="#000"/>
<line x1="445.975" y1="334.53586844606247" x2="445.975" y2="335.45448067892477" stroke="#000"/>
<rect x="456.55" y="333.75273291745367" width="21.15" height="164.24726708254624" fill="green" data-tooltip="3.31x baseline speed (MJIT)"/>
<line x1="456.55" y1="333.2114766336208" x2="477.7" y2="333.2114766336208" stroke="#000"/>
<line x1="456.55" y1="334.2939892012866" x2="477.7" y2="334.2939892012866" stroke="#000"/>
<line x1="467.125" y1="333.2114766336208" x2="467.125" y2="334.2939892012866" stroke="#000"/>
<rect x="477.7" y="297.81156710964444" width="21.15" height="200.18843289035553" fill="#4F3A7A" data-tooltip="4.03x baseline speed (YJIT)"/>
<line x1="477.7" y1="297.26643618801404" x2="498.85" y2="297.26643618801404" stroke="#000"/>
<line x1="477.7" y1="298.35669803127485" x2="498.85" y2="298.35669803127485" stroke="#000"/>
<line x1="488.27500000000003" y1="297.26643618801404" x2="488.27500000000003" y2="298.35669803127485" stroke="#000"/>
<line x1="467.125" y1="498.0" x2="467.125" y2="502.79999999999995" stroke="#000"/>
<text x="467.125" y="512.4" fill="#111" font-size="small" font-family="monospace" font-weight="bold" text-anchor="end" transform="rotate(-60, 467.125, 512.4)">
fib
</text>
<rect x="520.0" y="448.3158818164332" width="21.15" height="49.68411818356673" fill="#7070f8" data-tooltip="1.00x baseline speed (No JIT)"/>
<line x1="520.0" y1="448.26126010115127" x2="541.15" y2="448.26126010115127" stroke="#000"/>
<line x1="520.0" y1="448.37050353171514" x2="541.15" y2="448.37050353171514" stroke="#000"/>
<line x1="530.575" y1="448.26126010115127" x2="530.575" y2="448.37050353171514" stroke="#000"/>
<rect x="541.15" y="301.319614495284" width="21.15" height="196.68038550471596" fill="orange" data-tooltip="3.96x baseline speed (MJIT3.0)"/>
<line x1="541.15" y1="140.70140195425415" x2="562.3000000000001" y2="140.70140195425415" stroke="#000"/>
<line x1="541.15" y1="461.9378270363138" x2="562.3000000000001" y2="461.9378270363138" stroke="#000"/>
<line x1="551.725" y1="140.70140195425415" x2="551.725" y2="461.9378270363138" stroke="#000"/>
<rect x="562.3000000000001" y="255.5777213667557" width="21.15" height="242.42227863324425" fill="green" data-tooltip="4.88x baseline speed (MJIT)"/>
<line x1="562.3000000000001" y1="117.35582649136954" x2="583.45" y2="117.35582649136954" stroke="#000"/>
<line x1="562.3000000000001" y1="393.7996162421419" x2="583.45" y2="393.7996162421419" stroke="#000"/>
<line x1="572.875" y1="117.35582649136954" x2="572.875" y2="393.7996162421419" stroke="#000"/>
<rect x="583.45" y="358.8332048662328" width="21.15" height="139.16679513376718" fill="#4F3A7A" data-tooltip="2.80x baseline speed (YJIT)"/>
<line x1="583.45" y1="358.6727274144076" x2="604.6" y2="358.6727274144076" stroke="#000"/>
<line x1="583.45" y1="358.99368231805795" x2="604.6" y2="358.99368231805795" stroke="#000"/>
<line x1="594.025" y1="358.6727274144076" x2="594.025" y2="358.99368231805795" stroke="#000"/>
<line x1="572.875" y1="498.0" x2="572.875" y2="502.79999999999995" stroke="#000"/>
<text x="572.875" y="512.4" fill="#111" font-size="small" font-family="monospace" font-weight="bold" text-anchor="end" transform="rotate(-60, 572.875, 512.4)">
getivar
</text>
<rect x="625.7499999999999" y="448.3158818164332" width="21.15" height="49.68411818356673" fill="#7070f8" data-tooltip="1.00x baseline speed (No JIT)"/>
<line x1="625.7499999999999" y1="448.291088863546" x2="646.8999999999999" y2="448.291088863546" stroke="#000"/>
<line x1="625.7499999999999" y1="448.34067476932046" x2="646.8999999999999" y2="448.34067476932046" stroke="#000"/>
<line x1="636.3249999999999" y1="448.291088863546" x2="636.3249999999999" y2="448.34067476932046" stroke="#000"/>
<rect x="646.8999999999999" y="435.5461546892365" width="21.15" height="62.453845310763384" fill="orange" data-tooltip="1.26x baseline speed (MJIT3.0)"/>
<line x1="646.8999999999999" y1="435.1112251847593" x2="668.05" y2="435.1112251847593" stroke="#000"/>
<line x1="646.8999999999999" y1="435.98108419371374" x2="668.05" y2="435.98108419371374" stroke="#000"/>
<line x1="657.4749999999999" y1="435.1112251847593" x2="657.4749999999999" y2="435.98108419371374" stroke="#000"/>
<rect x="668.05" y="434.39732463094396" width="21.15" height="63.602675369056016" fill="green" data-tooltip="1.28x baseline speed (MJIT)"/>
<line x1="668.05" y1="434.2400766308563" x2="689.1999999999999" y2="434.2400766308563" stroke="#000"/>
<line x1="668.05" y1="434.5545726310316" x2="689.1999999999999" y2="434.5545726310316" stroke="#000"/>
<line x1="678.6249999999999" y1="434.2400766308563" x2="678.6249999999999" y2="434.5545726310316" stroke="#000"/>
<rect x="689.1999999999999" y="225.45438590959571" width="21.15" height="272.54561409040423" fill="#4F3A7A" data-tooltip="5.49x baseline speed (YJIT)"/>
<line x1="689.1999999999999" y1="224.61004072497977" x2="710.3499999999999" y2="224.61004072497977" stroke="#000"/>
<line x1="689.1999999999999" y1="226.2987310942117" x2="710.3499999999999" y2="226.2987310942117" stroke="#000"/>
<line x1="699.775" y1="224.61004072497977" x2="699.775" y2="226.2987310942117" stroke="#000"/>
<line x1="678.6249999999999" y1="498.0" x2="678.6249999999999" y2="502.79999999999995" stroke="#000"/>
<text x="678.6249999999999" y="512.4" fill="#111" font-size="small" font-family="monospace" font-weight="bold" text-anchor="end" transform="rotate(-60, 678.6249999999999, 512.4)">
keyword_args
</text>
<rect x="731.4999999999999" y="448.3158818164332" width="21.15" height="49.68411818356673" fill="#7070f8" data-tooltip="1.00x baseline speed (No JIT)"/>
<line x1="731.4999999999999" y1="448.2495785551401" x2="752.65" y2="448.2495785551401" stroke="#000"/>
<line x1="731.4999999999999" y1="448.3821850777263" x2="752.65" y2="448.3821850777263" stroke="#000"/>
<line x1="742.0749999999999" y1="448.2495785551401" x2="742.0749999999999" y2="448.3821850777263" stroke="#000"/>
<rect x="752.65" y="438.0108862976059" width="21.15" height="59.98911370239404" fill="orange" data-tooltip="1.21x baseline speed (MJIT3.0)"/>
<line x1="752.65" y1="437.50192408966905" x2="773.8" y2="437.50192408966905" stroke="#000"/>
<line x1="752.65" y1="438.51984850554277" x2="773.8" y2="438.51984850554277" stroke="#000"/>
<line x1="763.2249999999999" y1="437.50192408966905" x2="763.2249999999999" y2="438.51984850554277" stroke="#000"/>
<rect x="773.8" y="440.5174691943353" width="21.15" height="57.48253080566455" fill="green" data-tooltip="1.16x baseline speed (MJIT)"/>
<line x1="773.8" y1="440.14896140869575" x2="794.9499999999999" y2="440.14896140869575" stroke="#000"/>
<line x1="773.8" y1="440.88597697997494" x2="794.9499999999999" y2="440.88597697997494" stroke="#000"/>
<line x1="784.3749999999999" y1="440.14896140869575" x2="784.3749999999999" y2="440.88597697997494" stroke="#000"/>
<rect x="794.9499999999999" y="432.14691264725656" width="21.15" height="65.85308735274334" fill="#4F3A7A" data-tooltip="1.33x baseline speed (YJIT)"/>
<line x1="794.9499999999999" y1="431.85610850406823" x2="816.0999999999999" y2="431.85610850406823" stroke="#000"/>
<line x1="794.9499999999999" y1="432.43771679044494" x2="816.0999999999999" y2="432.43771679044494" stroke="#000"/>
<line x1="805.525" y1="431.85610850406823" x2="805.525" y2="432.43771679044494" stroke="#000"/>
<line x1="784.3749999999999" y1="498.0" x2="784.3749999999999" y2="502.79999999999995" stroke="#000"/>
<text x="784.3749999999999" y="512.4" fill="#111" font-size="small" font-family="monospace" font-weight="bold" text-anchor="end" transform="rotate(-60, 784.3749999999999, 512.4)">
respond_to
</text>
<rect x="837.2499999999999" y="448.3158818164332" width="21.15" height="49.68411818356673" fill="#7070f8" data-tooltip="1.00x baseline speed (No JIT)"/>
<line x1="837.2499999999999" y1="448.1572063784292" x2="858.4" y2="448.1572063784292" stroke="#000"/>
<line x1="837.2499999999999" y1="448.47455725443723" x2="858.4" y2="448.47455725443723" stroke="#000"/>
<line x1="847.8249999999999" y1="448.1572063784292" x2="847.8249999999999" y2="448.47455725443723" stroke="#000"/>
<rect x="858.4" y="202.61016666946605" width="21.15" height="295.38983333053386" fill="orange" data-tooltip="5.95x baseline speed (MJIT3.0)"/>
<line x1="858.4" y1="-137.80391460734387" x2="879.55" y2="-137.80391460734387" stroke="#000"/>
<line x1="858.4" y1="543.024247946276" x2="879.55" y2="543.024247946276" stroke="#000"/>
<line x1="868.9749999999999" y1="-137.80391460734387" x2="868.9749999999999" y2="543.024247946276" stroke="#000"/>
<rect x="879.55" y="150.5066801372826" width="21.15" height="347.4933198627174" fill="green" data-tooltip="6.99x baseline speed (MJIT)"/>
<line x1="879.55" y1="-138.5528605375996" x2="900.6999999999999" y2="-138.5528605375996" stroke="#000"/>
<line x1="879.55" y1="439.5662208121647" x2="900.6999999999999" y2="439.5662208121647" stroke="#000"/>
<line x1="890.125" y1="-138.5528605375996" x2="890.125" y2="439.5662208121647" stroke="#000"/>
<rect x="900.6999999999999" y="425.08659107735343" width="21.15" height="72.9134089226465" fill="#4F3A7A" data-tooltip="1.47x baseline speed (YJIT)"/>
<line x1="900.6999999999999" y1="424.85128072664713" x2="921.8499999999999" y2="424.85128072664713" stroke="#000"/>
<line x1="900.6999999999999" y1="425.3219014280598" x2="921.8499999999999" y2="425.3219014280598" stroke="#000"/>
<line x1="911.275" y1="424.85128072664713" x2="911.275" y2="425.3219014280598" stroke="#000"/>
<line x1="890.125" y1="498.0" x2="890.125" y2="502.79999999999995" stroke="#000"/>
<text x="890.125" y="512.4" fill="#111" font-size="small" font-family="monospace" font-weight="bold" text-anchor="end" transform="rotate(-60, 890.125, 512.4)">
setivar
</text>
</svg>