<svg viewBox="0 0 1000 600" xmlns="http://www.w3.org/2000/svg" xmlns:xlink="http://www.w3.org/1999/xlink" width="100%" height="100%">

<rect x="50.0" y="30.0" width="940.0" height="467.99999999999994" stroke="#000" fill="#EEE"/>
<line x1="42.0" y1="497.9999999999999" x2="50.0" y2="497.9999999999999" stroke="#000"/>
<text x="26.000000000000004" y="497.9999999999999" text-anchor="end" font-weight="bold" font-size="small" fill="#111">
0.0
</text>
<line x1="42.0" y1="428.5137940294903" x2="50.0" y2="428.5137940294903" stroke="#000"/>
<text x="26.000000000000004" y="428.5137940294903" text-anchor="end" font-weight="bold" font-size="small" fill="#111">
2.0
</text>
<line x1="42.0" y1="359.0275880589807" x2="50.0" y2="359.0275880589807" stroke="#000"/>
<text x="26.000000000000004" y="359.0275880589807" text-anchor="end" font-weight="bold" font-size="small" fill="#111">
4.0
</text>
<line x1="42.0" y1="289.5413820884711" x2="50.0" y2="289.5413820884711" stroke="#000"/>
<text x="26.000000000000004" y="289.5413820884711" text-anchor="end" font-weight="bold" font-size="small" fill="#111">
6.0
</text>
<line x1="42.0" y1="220.05517611796145" x2="50.0" y2="220.05517611796145" stroke="#000"/>
<text x="26.000000000000004" y="220.05517611796145" text-anchor="end" font-weight="bold" font-size="small" fill="#111">
8.0
</text>
<line x1="42.0" y1="150.56897014745186" x2="50.0" y2="150.56897014745186" stroke="#000"/>
<text x="26.000000000000004" y="150.56897014745186" text-anchor="end" font-weight="bold" font-size="small" fill="#111">
10.0
</text>
<rect x="268.5" y="36.00000000000001" width="80.0" height="18.0" fill="#7070f8" stroke="#888"/>
<text x="308.5" y="52.50000000000001" font-size="small" text-anchor="middle" font-weight="bold" fill="#EEE">
No JIT
</text>
<rect x="691.4999999999999" y="36.00000000000001" width="80.0" height="18.0" fill="orange" stroke="#888"/>
<text x="731.4999999999999" y="52.50000000000001" font-size="small" text-anchor="middle" font-weight="bold" fill="#EEE">
YJIT
</text>
<rect x="97.0" y="463.2568970147451" width="23.499999999999996" height="34.74310298525481" fill="#7070f8" data-tooltip="1.00x baseline speed (No JIT)"/>
<line x1="97.0" y1="463.25299932368193" x2="120.5" y2="463.25299932368193" stroke="#000"/>
<line x1="97.0" y1="463.2607947058083" x2="120.5" y2="463.2607947058083" stroke="#000"/>
<line x1="108.75" y1="463.25299932368193" x2="108.75" y2="463.2607947058083" stroke="#000"/>
<rect x="120.5" y="273.7090272239738" width="23.499999999999996" height="224.29097277602614" fill="orange" data-tooltip="6.46x baseline speed (YJIT)"/>
<line x1="120.5" y1="273.5391061715505" x2="144.0" y2="273.5391061715505" stroke="#000"/>
<line x1="120.5" y1="273.8789482763971" x2="144.0" y2="273.8789482763971" stroke="#000"/>
<line x1="132.25" y1="273.5391061715505" x2="132.25" y2="273.8789482763971" stroke="#000"/>
<line x1="132.25" y1="498.0" x2="132.25" y2="502.79999999999995" stroke="#000"/>
<text x="132.25" y="512.4" fill="#111" font-size="small" font-family="monospace" font-weight="bold" text-anchor="end" transform="rotate(-60, 132.25, 512.4)">
30k_ifelse
</text>
<rect x="167.49999999999997" y="463.2568970147451" width="23.499999999999996" height="34.74310298525481" fill="#7070f8" data-tooltip="1.00x baseline speed (No JIT)"/>
<line x1="167.49999999999997" y1="463.24820062063975" x2="190.99999999999997" y2="463.24820062063975" stroke="#000"/>
<line x1="167.49999999999997" y1="463.2655934088505" x2="190.99999999999997" y2="463.2655934088505" stroke="#000"/>
<line x1="179.25" y1="463.24820062063975" x2="179.25" y2="463.2655934088505" stroke="#000"/>
<rect x="190.99999999999997" y="213.95846659464416" width="23.499999999999996" height="284.0415334053558" fill="orange" data-tooltip="8.18x baseline speed (YJIT)"/>
<line x1="190.99999999999997" y1="213.84371657560297" x2="214.49999999999997" y2="213.84371657560297" stroke="#000"/>
<line x1="190.99999999999997" y1="214.07321661368536" x2="214.49999999999997" y2="214.07321661368536" stroke="#000"/>
<line x1="202.75" y1="213.84371657560297" x2="202.75" y2="214.07321661368536" stroke="#000"/>
<line x1="202.75" y1="498.0" x2="202.75" y2="502.79999999999995" stroke="#000"/>
<text x="202.75" y="512.4" fill="#111" font-size="small" font-family="monospace" font-weight="bold" text-anchor="end" transform="rotate(-60, 202.75, 512.4)">
30k_methods
</text>
<rect x="238.0" y="463.2568970147451" width="23.499999999999996" height="34.74310298525481" fill="#7070f8" data-tooltip="1.00x baseline speed (No JIT)"/>
<line x1="238.0" y1="463.14073737169633" x2="261.5" y2="463.14073737169633" stroke="#000"/>
<line x1="238.0" y1="463.37305665779394" x2="261.5" y2="463.37305665779394" stroke="#000"/>
<line x1="249.75" y1="463.14073737169633" x2="249.75" y2="463.37305665779394" stroke="#000"/>
<rect x="261.5" y="405.84955755638504" width="23.499999999999996" height="92.1504424436149" fill="orange" data-tooltip="2.65x baseline speed (YJIT)"/>
<line x1="261.5" y1="405.4554149327502" x2="285.00000000000006" y2="405.4554149327502" stroke="#000"/>
<line x1="261.5" y1="406.24370018001986" x2="285.00000000000006" y2="406.24370018001986" stroke="#000"/>
<line x1="273.25" y1="405.4554149327502" x2="273.25" y2="406.24370018001986" stroke="#000"/>
<line x1="273.25" y1="498.0" x2="273.25" y2="502.79999999999995" stroke="#000"/>
<text x="273.25" y="512.4" fill="#111" font-size="small" font-family="monospace" font-weight="bold" text-anchor="end" transform="rotate(-60, 273.25, 512.4)">
cfunc_itself
</text>
<rect x="308.5" y="463.2568970147451" width="23.499999999999996" height="34.74310298525481" fill="#7070f8" data-tooltip="1.00x baseline speed (No JIT)"/>
<line x1="308.5" y1="463.24240163268087" x2="332.0" y2="463.24240163268087" stroke="#000"/>
<line x1="308.5" y1="463.2713923968094" x2="332.0" y2="463.2713923968094" stroke="#000"/>
<line x1="320.25" y1="463.24240163268087" x2="320.25" y2="463.2713923968094" stroke="#000"/>
<rect x="332.0" y="319.3456422217739" width="23.499999999999996" height="178.65435777822606" fill="orange" data-tooltip="5.14x baseline speed (YJIT)"/>
<line x1="332.0" y1="317.50378003761523" x2="355.50000000000006" y2="317.50378003761523" stroke="#000"/>
<line x1="332.0" y1="321.1875044059326" x2="355.50000000000006" y2="321.1875044059326" stroke="#000"/>
<line x1="343.75" y1="317.50378003761523" x2="343.75" y2="321.1875044059326" stroke="#000"/>
<line x1="343.75" y1="498.0" x2="343.75" y2="502.79999999999995" stroke="#000"/>
<text x="343.75" y="512.4" fill="#111" font-size="small" font-family="monospace" font-weight="bold" text-anchor="end" transform="rotate(-60, 343.75, 512.4)">
fib
</text>
<rect x="379.0" y="463.2568970147451" width="23.499999999999996" height="34.74310298525481" fill="#7070f8" data-tooltip="1.00x baseline speed (No JIT)"/>
<line x1="379.0" y1="463.15361505377905" x2="402.5" y2="463.15361505377905" stroke="#000"/>
<line x1="379.0" y1="463.36017897571116" x2="402.5" y2="463.36017897571116" stroke="#000"/>
<line x1="390.75" y1="463.15361505377905" x2="390.75" y2="463.36017897571116" stroke="#000"/>
<rect x="402.5" y="304.49585033499784" width="23.499999999999996" height="193.5041496650021" fill="orange" data-tooltip="5.57x baseline speed (YJIT)"/>
<line x1="402.5" y1="303.7532252204728" x2="426.00000000000006" y2="303.7532252204728" stroke="#000"/>
<line x1="402.5" y1="305.2384754495228" x2="426.00000000000006" y2="305.2384754495228" stroke="#000"/>
<line x1="414.25" y1="303.7532252204728" x2="414.25" y2="305.2384754495228" stroke="#000"/>
<line x1="414.25" y1="498.0" x2="414.25" y2="502.79999999999995" stroke="#000"/>
<text x="414.25" y="512.4" fill="#111" font-size="small" font-family="monospace" font-weight="bold" text-anchor="end" transform="rotate(-60, 414.25, 512.4)">
getivar
</text>
<rect x="449.5" y="463.2568970147451" width="23.499999999999996" height="34.74310298525481" fill="#7070f8" data-tooltip="1.00x baseline speed (No JIT)"/>
<line x1="449.5" y1="463.2240019871301" x2="473.00000000000006" y2="463.2240019871301" stroke="#000"/>
<line x1="449.5" y1="463.28979204236015" x2="473.00000000000006" y2="463.28979204236015" stroke="#000"/>
<line x1="461.25" y1="463.2240019871301" x2="461.25" y2="463.28979204236015" stroke="#000"/>
<rect x="473.00000000000006" y="287.2511517117442" width="23.499999999999996" height="210.74884828825574" fill="orange" data-tooltip="6.07x baseline speed (YJIT)"/>
<line x1="473.00000000000006" y1="286.9529399086019" x2="496.50000000000006" y2="286.9529399086019" stroke="#000"/>
<line x1="473.00000000000006" y1="287.5493635148865" x2="496.50000000000006" y2="287.5493635148865" stroke="#000"/>
<line x1="484.75" y1="286.9529399086019" x2="484.75" y2="287.5493635148865" stroke="#000"/>
<line x1="484.75" y1="498.0" x2="484.75" y2="502.79999999999995" stroke="#000"/>
<text x="484.75" y="512.4" fill="#111" font-size="small" font-family="monospace" font-weight="bold" text-anchor="end" transform="rotate(-60, 484.75, 512.4)">
keyword_args
</text>
<rect x="519.9999999999999" y="463.2568970147451" width="23.499999999999996" height="34.74310298525481" fill="#7070f8" data-tooltip="1.00x baseline speed (No JIT)"/>
<line x1="519.9999999999999" y1="462.9383542162733" x2="543.4999999999999" y2="462.9383542162733" stroke="#000"/>
<line x1="519.9999999999999" y1="463.575439813217" x2="543.4999999999999" y2="463.575439813217" stroke="#000"/>
<line x1="531.75" y1="462.9383542162733" x2="531.75" y2="463.575439813217" stroke="#000"/>
<rect x="543.4999999999999" y="100.19999999999999" width="23.499999999999996" height="397.79999999999995" fill="orange" data-tooltip="11.45x baseline speed (YJIT)"/>
<line x1="543.4999999999999" y1="96.07930951397948" x2="566.9999999999999" y2="96.07930951397948" stroke="#000"/>
<line x1="543.4999999999999" y1="104.3206904860205" x2="566.9999999999999" y2="104.3206904860205" stroke="#000"/>
<line x1="555.2499999999999" y1="96.07930951397948" x2="555.2499999999999" y2="104.3206904860205" stroke="#000"/>
<line x1="555.2499999999999" y1="498.0" x2="555.2499999999999" y2="502.79999999999995" stroke="#000"/>
<text x="555.2499999999999" y="512.4" fill="#111" font-size="small" font-family="monospace" font-weight="bold" text-anchor="end" transform="rotate(-60, 555.2499999999999, 512.4)">
respond_to
</text>
<rect x="590.4999999999999" y="463.2568970147451" width="23.499999999999996" height="34.74310298525481" fill="#7070f8" data-tooltip="1.00x baseline speed (No JIT)"/>
<line x1="590.4999999999999" y1="463.2148194421612" x2="613.9999999999999" y2="463.2148194421612" stroke="#000"/>
<line x1="590.4999999999999" y1="463.2989745873291" x2="613.9999999999999" y2="463.2989745873291" stroke="#000"/>
<line x1="602.25" y1="463.2148194421612" x2="602.25" y2="463.2989745873291" stroke="#000"/>
<rect x="613.9999999999999" y="256.25305405910825" width="23.499999999999996" height="241.74694594089172" fill="orange" data-tooltip="6.96x baseline speed (YJIT)"/>
<line x1="613.9999999999999" y1="255.89220629482944" x2="637.4999999999999" y2="255.89220629482944" stroke="#000"/>
<line x1="613.9999999999999" y1="256.61390182338704" x2="637.4999999999999" y2="256.61390182338704" stroke="#000"/>
<line x1="625.7499999999999" y1="255.89220629482944" x2="625.7499999999999" y2="256.61390182338704" stroke="#000"/>
<line x1="625.7499999999999" y1="498.0" x2="625.7499999999999" y2="502.79999999999995" stroke="#000"/>
<text x="625.7499999999999" y="512.4" fill="#111" font-size="small" font-family="monospace" font-weight="bold" text-anchor="end" transform="rotate(-60, 625.7499999999999, 512.4)">
setivar
</text>
<rect x="660.9999999999999" y="463.2568970147451" width="23.499999999999996" height="34.74310298525481" fill="#7070f8" data-tooltip="1.00x baseline speed (No JIT)"/>
<line x1="660.9999999999999" y1="462.4605715600291" x2="684.4999999999999" y2="462.4605715600291" stroke="#000"/>
<line x1="660.9999999999999" y1="464.0532224694611" x2="684.4999999999999" y2="464.0532224694611" stroke="#000"/>
<line x1="672.75" y1="462.4605715600291" x2="672.75" y2="464.0532224694611" stroke="#000"/>
<rect x="684.4999999999999" y="403.51258758975166" width="23.499999999999996" height="94.48741241024824" fill="orange" data-tooltip="2.72x baseline speed (YJIT)"/>
<line x1="684.4999999999999" y1="400.71795946159074" x2="707.9999999999999" y2="400.71795946159074" stroke="#000"/>
<line x1="684.4999999999999" y1="406.3072157179126" x2="707.9999999999999" y2="406.3072157179126" stroke="#000"/>
<line x1="696.2499999999999" y1="400.71795946159074" x2="696.2499999999999" y2="406.3072157179126" stroke="#000"/>
<line x1="696.2499999999999" y1="498.0" x2="696.2499999999999" y2="502.79999999999995" stroke="#000"/>
<text x="696.2499999999999" y="512.4" fill="#111" font-size="small" font-family="monospace" font-weight="bold" text-anchor="end" transform="rotate(-60, 696.2499999999999, 512.4)">
setivar_object
</text>
<rect x="731.4999999999999" y="463.2568970147451" width="23.499999999999996" height="34.74310298525481" fill="#7070f8" data-tooltip="1.00x baseline speed (No JIT)"/>
<line x1="731.4999999999999" y1="463.201793011919" x2="754.9999999999999" y2="463.201793011919" stroke="#000"/>
<line x1="731.4999999999999" y1="463.3120010175712" x2="754.9999999999999" y2="463.3120010175712" stroke="#000"/>
<line x1="743.25" y1="463.201793011919" x2="743.25" y2="463.3120010175712" stroke="#000"/>
<rect x="754.9999999999999" y="403.662479491009" width="23.499999999999996" height="94.33752050899099" fill="orange" data-tooltip="2.72x baseline speed (YJIT)"/>
<line x1="754.9999999999999" y1="402.57491554148396" x2="778.4999999999999" y2="402.57491554148396" stroke="#000"/>
<line x1="754.9999999999999" y1="404.75004344053394" x2="778.4999999999999" y2="404.75004344053394" stroke="#000"/>
<line x1="766.7499999999999" y1="402.57491554148396" x2="766.7499999999999" y2="404.75004344053394" stroke="#000"/>
<line x1="766.7499999999999" y1="498.0" x2="766.7499999999999" y2="502.79999999999995" stroke="#000"/>
<text x="766.7499999999999" y="512.4" fill="#111" font-size="small" font-family="monospace" font-weight="bold" text-anchor="end" transform="rotate(-60, 766.7499999999999, 512.4)">
setivar_young
</text>
<rect x="801.9999999999999" y="463.2568970147451" width="23.499999999999996" height="34.74310298525481" fill="#7070f8" data-tooltip="1.00x baseline speed (No JIT)"/>
<line x1="801.9999999999999" y1="462.97844345231175" x2="825.4999999999999" y2="462.97844345231175" stroke="#000"/>
<line x1="801.9999999999999" y1="463.5353505771785" x2="825.4999999999999" y2="463.5353505771785" stroke="#000"/>
<line x1="813.75" y1="462.97844345231175" x2="813.75" y2="463.5353505771785" stroke="#000"/>
<rect x="825.4999999999999" y="430.6582955239212" width="23.499999999999996" height="67.3417044760787" fill="orange" data-tooltip="1.94x baseline speed (YJIT)"/>
<line x1="825.4999999999999" y1="429.54253076185273" x2="848.9999999999999" y2="429.54253076185273" stroke="#000"/>
<line x1="825.4999999999999" y1="431.77406028598966" x2="848.9999999999999" y2="431.77406028598966" stroke="#000"/>
<line x1="837.2499999999999" y1="429.54253076185273" x2="837.2499999999999" y2="431.77406028598966" stroke="#000"/>
<line x1="837.2499999999999" y1="498.0" x2="837.2499999999999" y2="502.79999999999995" stroke="#000"/>
<text x="837.2499999999999" y="512.4" fill="#111" font-size="small" font-family="monospace" font-weight="bold" text-anchor="end" transform="rotate(-60, 837.2499999999999, 512.4)">
str_concat
</text>
<rect x="872.4999999999999" y="463.2568970147451" width="23.499999999999996" height="34.74310298525481" fill="#7070f8" data-tooltip="1.00x baseline speed (No JIT)"/>
<line x1="872.4999999999999" y1="463.13320119595153" x2="895.9999999999999" y2="463.13320119595153" stroke="#000"/>
<line x1="872.4999999999999" y1="463.38059283353874" x2="895.9999999999999" y2="463.38059283353874" stroke="#000"/>
<line x1="884.25" y1="463.13320119595153" x2="884.25" y2="463.38059283353874" stroke="#000"/>
<rect x="895.9999999999999" y="455.7667776125751" width="23.499999999999996" height="42.233222387424796" fill="orange" data-tooltip="1.22x baseline speed (YJIT)"/>
<line x1="895.9999999999999" y1="455.5589857903073" x2="919.4999999999999" y2="455.5589857903073" stroke="#000"/>
<line x1="895.9999999999999" y1="455.97456943484286" x2="919.4999999999999" y2="455.97456943484286" stroke="#000"/>
<line x1="907.75" y1="455.5589857903073" x2="907.75" y2="455.97456943484286" stroke="#000"/>
<line x1="907.75" y1="498.0" x2="907.75" y2="502.79999999999995" stroke="#000"/>
<text x="907.75" y="512.4" fill="#111" font-size="small" font-family="monospace" font-weight="bold" text-anchor="end" transform="rotate(-60, 907.75, 512.4)">
throw
</text>
</svg>