<svg viewBox="0 0 1000 600" xmlns="http://www.w3.org/2000/svg" xmlns:xlink="http://www.w3.org/1999/xlink" width="100%" height="100%">

<rect x="50.0" y="30.0" width="940.0" height="467.99999999999994" stroke="#000" fill="#EEE"/>
<line x1="42.0" y1="497.9999999999999" x2="50.0" y2="497.9999999999999" stroke="#000"/>
<text x="26.000000000000004" y="497.9999999999999" text-anchor="end" font-weight="bold" font-size="small" fill="#111">
0.0
</text>
<line x1="42.0" y1="445.1397928920665" x2="50.0" y2="445.1397928920665" stroke="#000"/>
<text x="26.000000000000004" y="445.1397928920665" text-anchor="end" font-weight="bold" font-size="small" fill="#111">
1.0
</text>
<line x1="42.0" y1="392.27958578413313" x2="50.0" y2="392.27958578413313" stroke="#000"/>
<text x="26.000000000000004" y="392.27958578413313" text-anchor="end" font-weight="bold" font-size="small" fill="#111">
2.0
</text>
<line x1="42.0" y1="339.41937867619976" x2="50.0" y2="339.41937867619976" stroke="#000"/>
<text x="26.000000000000004" y="339.41937867619976" text-anchor="end" font-weight="bold" font-size="small" fill="#111">
3.0
</text>
<line x1="42.0" y1="286.55917156826644" x2="50.0" y2="286.55917156826644" stroke="#000"/>
<text x="26.000000000000004" y="286.55917156826644" text-anchor="end" font-weight="bold" font-size="small" fill="#111">
4.0
</text>
<line x1="42.0" y1="233.69896446033303" x2="50.0" y2="233.69896446033303" stroke="#000"/>
<text x="26.000000000000004" y="233.69896446033303" text-anchor="end" font-weight="bold" font-size="small" fill="#111">
5.0
</text>
<line x1="42.0" y1="180.83875735239965" x2="50.0" y2="180.83875735239965" stroke="#000"/>
<text x="26.000000000000004" y="180.83875735239965" text-anchor="end" font-weight="bold" font-size="small" fill="#111">
6.0
</text>
<line x1="42.0" y1="127.97855024446625" x2="50.0" y2="127.97855024446625" stroke="#000"/>
<text x="26.000000000000004" y="127.97855024446625" text-anchor="end" font-weight="bold" font-size="small" fill="#111">
7.0
</text>
<rect x="162.74999999999997" y="36.00000000000001" width="80.0" height="18.0" fill="#7070f8" stroke="#888"/>
<text x="202.75" y="52.50000000000001" font-size="small" text-anchor="middle" font-weight="bold" fill="#EEE">
No JIT
</text>
<rect x="374.25" y="36.00000000000001" width="80.0" height="18.0" fill="orange" stroke="#888"/>
<text x="414.25" y="52.50000000000001" font-size="small" text-anchor="middle" font-weight="bold" fill="#EEE">
MJIT3.0
</text>
<rect x="585.7499999999999" y="36.00000000000001" width="80.0" height="18.0" fill="green" stroke="#888"/>
<text x="625.7499999999999" y="52.50000000000001" font-size="small" text-anchor="middle" font-weight="bold" fill="#EEE">
MJIT
</text>
<rect x="797.2499999999999" y="36.00000000000001" width="80.0" height="18.0" fill="#4F3A7A" stroke="#888"/>
<text x="837.2499999999999" y="52.50000000000001" font-size="small" text-anchor="middle" font-weight="bold" fill="#EEE">
YJIT
</text>
<rect x="97.0" y="445.1397928920665" width="21.15" height="52.86020710793338" fill="#7070f8" data-tooltip="1.00x baseline speed (No JIT)"/>
<line x1="97.0" y1="445.11463815174636" x2="118.15" y2="445.11463815174636" stroke="#000"/>
<line x1="97.0" y1="445.1649476323867" x2="118.15" y2="445.1649476323867" stroke="#000"/>
<line x1="107.575" y1="445.11463815174636" x2="107.575" y2="445.1649476323867" stroke="#000"/>
<rect x="118.15" y="456.04123326855887" width="21.15" height="41.95876673144101" fill="orange" data-tooltip="0.79x baseline speed (MJIT3.0)"/>
<line x1="118.15" y1="453.45585596892863" x2="139.3" y2="453.45585596892863" stroke="#000"/>
<line x1="118.15" y1="458.6266105681891" x2="139.3" y2="458.6266105681891" stroke="#000"/>
<line x1="128.725" y1="453.45585596892863" x2="128.725" y2="458.6266105681891" stroke="#000"/>
<rect x="139.3" y="464.60780355001975" width="21.15" height="33.39219644998019" fill="green" data-tooltip="0.63x baseline speed (MJIT)"/>
<line x1="139.3" y1="463.3063344478525" x2="160.45000000000002" y2="463.3063344478525" stroke="#000"/>
<line x1="139.3" y1="465.909272652187" x2="160.45000000000002" y2="465.909272652187" stroke="#000"/>
<line x1="149.875" y1="463.3063344478525" x2="149.875" y2="465.909272652187" stroke="#000"/>
<rect x="160.45" y="151.042925909103" width="21.15" height="346.957074090897" fill="#4F3A7A" data-tooltip="6.56x baseline speed (YJIT)"/>
<line x1="160.45" y1="150.44295115455415" x2="181.6" y2="150.44295115455415" stroke="#000"/>
<line x1="160.45" y1="151.64290066365183" x2="181.6" y2="151.64290066365183" stroke="#000"/>
<line x1="171.02499999999998" y1="150.44295115455415" x2="171.02499999999998" y2="151.64290066365183" stroke="#000"/>
<line x1="149.875" y1="498.0" x2="149.875" y2="502.79999999999995" stroke="#000"/>
<text x="149.875" y="512.4" fill="#111" font-size="small" font-family="monospace" font-weight="bold" text-anchor="end" transform="rotate(-60, 149.875, 512.4)">
30k_ifelse
</text>
<rect x="202.75" y="445.1397928920665" width="21.15" height="52.86020710793338" fill="#7070f8" data-tooltip="1.00x baseline speed (No JIT)"/>
<line x1="202.75" y1="445.1349705588006" x2="223.89999999999998" y2="445.1349705588006" stroke="#000"/>
<line x1="202.75" y1="445.1446152253324" x2="223.89999999999998" y2="445.1446152253324" stroke="#000"/>
<line x1="213.325" y1="445.1349705588006" x2="213.325" y2="445.1446152253324" stroke="#000"/>
<rect x="223.89999999999998" y="464.3394799347963" width="21.15" height="33.66052006520359" fill="orange" data-tooltip="0.64x baseline speed (MJIT3.0)"/>
<line x1="223.89999999999998" y1="463.9253114731196" x2="245.04999999999998" y2="463.9253114731196" stroke="#000"/>
<line x1="223.89999999999998" y1="464.75364839647307" x2="245.04999999999998" y2="464.75364839647307" stroke="#000"/>
<line x1="234.475" y1="463.9253114731196" x2="234.475" y2="464.75364839647307" stroke="#000"/>
<rect x="245.04999999999998" y="462.35575207105376" width="21.15" height="35.64424792894616" fill="green" data-tooltip="0.67x baseline speed (MJIT)"/>
<line x1="245.04999999999998" y1="456.1158825360298" x2="266.2" y2="456.1158825360298" stroke="#000"/>
<line x1="245.04999999999998" y1="468.5956216060777" x2="266.2" y2="468.5956216060777" stroke="#000"/>
<line x1="255.625" y1="456.1158825360298" x2="255.625" y2="468.5956216060777" stroke="#000"/>
<rect x="266.2" y="100.19999999999999" width="21.15" height="397.79999999999995" fill="#4F3A7A" data-tooltip="7.53x baseline speed (YJIT)"/>
<line x1="266.2" y1="99.97320749304129" x2="287.35" y2="99.97320749304129" stroke="#000"/>
<line x1="266.2" y1="100.42679250695869" x2="287.35" y2="100.42679250695869" stroke="#000"/>
<line x1="276.775" y1="99.97320749304129" x2="276.775" y2="100.42679250695869" stroke="#000"/>
<line x1="255.625" y1="498.0" x2="255.625" y2="502.79999999999995" stroke="#000"/>
<text x="255.625" y="512.4" fill="#111" font-size="small" font-family="monospace" font-weight="bold" text-anchor="end" transform="rotate(-60, 255.625, 512.4)">
30k_methods
</text>
<rect x="308.5" y="445.1397928920665" width="21.15" height="52.86020710793338" fill="#7070f8" data-tooltip="1.00x baseline speed (No JIT)"/>
<line x1="308.5" y1="445.068503741124" x2="329.65" y2="445.068503741124" stroke="#000"/>
<line x1="308.5" y1="445.21108204300907" x2="329.65" y2="445.21108204300907" stroke="#000"/>
<line x1="319.075" y1="445.068503741124" x2="319.075" y2="445.21108204300907" stroke="#000"/>
<rect x="329.65" y="415.73797123319736" width="21.15" height="82.26202876680253" fill="orange" data-tooltip="1.56x baseline speed (MJIT3.0)"/>
<line x1="329.65" y1="415.2756336768927" x2="350.8" y2="415.2756336768927" stroke="#000"/>
<line x1="329.65" y1="416.200308789502" x2="350.8" y2="416.200308789502" stroke="#000"/>
<line x1="340.225" y1="415.2756336768927" x2="340.225" y2="416.200308789502" stroke="#000"/>
<rect x="350.8" y="417.35414453313075" width="21.15" height="80.64585546686924" fill="green" data-tooltip="1.53x baseline speed (MJIT)"/>
<line x1="350.8" y1="416.85387791686816" x2="371.95" y2="416.85387791686816" stroke="#000"/>
<line x1="350.8" y1="417.85441114939334" x2="371.95" y2="417.85441114939334" stroke="#000"/>
<line x1="361.375" y1="416.85387791686816" x2="361.375" y2="417.85441114939334" stroke="#000"/>
<rect x="371.95" y="371.6986052445923" width="21.15" height="126.30139475540767" fill="#4F3A7A" data-tooltip="2.39x baseline speed (YJIT)"/>
<line x1="371.95" y1="370.58446368480213" x2="393.1" y2="370.58446368480213" stroke="#000"/>
<line x1="371.95" y1="372.8127468043824" x2="393.1" y2="372.8127468043824" stroke="#000"/>
<line x1="382.525" y1="370.58446368480213" x2="382.525" y2="372.8127468043824" stroke="#000"/>
<line x1="361.375" y1="498.0" x2="361.375" y2="502.79999999999995" stroke="#000"/>
<text x="361.375" y="512.4" fill="#111" font-size="small" font-family="monospace" font-weight="bold" text-anchor="end" transform="rotate(-60, 361.375, 512.4)">
cfunc_itself
</text>
<rect x="414.25" y="445.1397928920665" width="21.15" height="52.86020710793338" fill="#7070f8" data-tooltip="1.00x baseline speed (No JIT)"/>
<line x1="414.25" y1="445.0924710318544" x2="435.40000000000003" y2="445.0924710318544" stroke="#000"/>
<line x1="414.25" y1="445.18711475227866" x2="435.40000000000003" y2="445.18711475227866" stroke="#000"/>
<line x1="424.825" y1="445.0924710318544" x2="424.825" y2="445.18711475227866" stroke="#000"/>
<rect x="435.40000000000003" y="332.51986653316357" width="21.15" height="165.4801334668364" fill="orange" data-tooltip="3.13x baseline speed (MJIT3.0)"/>
<line x1="435.40000000000003" y1="332.18960972590276" x2="456.55" y2="332.18960972590276" stroke="#000"/>
<line x1="435.40000000000003" y1="332.8501233404244" x2="456.55" y2="332.8501233404244" stroke="#000"/>
<line x1="445.975" y1="332.18960972590276" x2="445.975" y2="332.8501233404244" stroke="#000"/>
<rect x="456.55" y="334.1271633248514" width="21.15" height="163.8728366751485" fill="green" data-tooltip="3.10x baseline speed (MJIT)"/>
<line x1="456.55" y1="332.95390887066895" x2="477.7" y2="332.95390887066895" stroke="#000"/>
<line x1="456.55" y1="335.3004177790338" x2="477.7" y2="335.3004177790338" stroke="#000"/>
<line x1="467.125" y1="332.95390887066895" x2="467.125" y2="335.3004177790338" stroke="#000"/>
<rect x="477.7" y="294.92284751461824" width="21.15" height="203.07715248538173" fill="#4F3A7A" data-tooltip="3.84x baseline speed (YJIT)"/>
<line x1="477.7" y1="293.73166004597823" x2="498.85" y2="293.73166004597823" stroke="#000"/>
<line x1="477.7" y1="296.11403498325825" x2="498.85" y2="296.11403498325825" stroke="#000"/>
<line x1="488.27500000000003" y1="293.73166004597823" x2="488.27500000000003" y2="296.11403498325825" stroke="#000"/>
<line x1="467.125" y1="498.0" x2="467.125" y2="502.79999999999995" stroke="#000"/>
<text x="467.125" y="512.4" fill="#111" font-size="small" font-family="monospace" font-weight="bold" text-anchor="end" transform="rotate(-60, 467.125, 512.4)">
fib
</text>
<rect x="520.0" y="445.1397928920665" width="21.15" height="52.86020710793338" fill="#7070f8" data-tooltip="1.00x baseline speed (No JIT)"/>
<line x1="520.0" y1="445.1086058092226" x2="541.15" y2="445.1086058092226" stroke="#000"/>
<line x1="520.0" y1="445.1709799749105" x2="541.15" y2="445.1709799749105" stroke="#000"/>
<line x1="530.575" y1="445.1086058092226" x2="530.575" y2="445.1709799749105" stroke="#000"/>
<rect x="541.15" y="293.8759880754731" width="21.15" height="204.12401192452683" fill="orange" data-tooltip="3.86x baseline speed (MJIT3.0)"/>
<line x1="541.15" y1="117.98169210147164" x2="562.3000000000001" y2="117.98169210147164" stroke="#000"/>
<line x1="541.15" y1="469.77028404947464" x2="562.3000000000001" y2="469.77028404947464" stroke="#000"/>
<line x1="551.725" y1="117.98169210147164" x2="551.725" y2="469.77028404947464" stroke="#000"/>
<rect x="562.3000000000001" y="237.6274408247961" width="21.15" height="260.37255917520383" fill="green" data-tooltip="4.93x baseline speed (MJIT)"/>
<line x1="562.3000000000001" y1="69.94639980229923" x2="583.45" y2="69.94639980229923" stroke="#000"/>
<line x1="562.3000000000001" y1="405.308481847293" x2="583.45" y2="405.308481847293" stroke="#000"/>
<line x1="572.875" y1="69.94639980229923" x2="572.875" y2="405.308481847293" stroke="#000"/>
<rect x="583.45" y="345.1132818868723" width="21.15" height="152.88671811312767" fill="#4F3A7A" data-tooltip="2.89x baseline speed (YJIT)"/>
<line x1="583.45" y1="344.0626743793561" x2="604.6" y2="344.0626743793561" stroke="#000"/>
<line x1="583.45" y1="346.1638893943885" x2="604.6" y2="346.1638893943885" stroke="#000"/>
<line x1="594.025" y1="344.0626743793561" x2="594.025" y2="346.1638893943885" stroke="#000"/>
<line x1="572.875" y1="498.0" x2="572.875" y2="502.79999999999995" stroke="#000"/>
<text x="572.875" y="512.4" fill="#111" font-size="small" font-family="monospace" font-weight="bold" text-anchor="end" transform="rotate(-60, 572.875, 512.4)">
getivar
</text>
<rect x="625.7499999999999" y="445.1397928920665" width="21.15" height="52.86020710793338" fill="#7070f8" data-tooltip="1.00x baseline speed (No JIT)"/>
<line x1="625.7499999999999" y1="445.0896010411875" x2="646.8999999999999" y2="445.0896010411875" stroke="#000"/>
<line x1="625.7499999999999" y1="445.18998474294557" x2="646.8999999999999" y2="445.18998474294557" stroke="#000"/>
<line x1="636.3249999999999" y1="445.0896010411875" x2="636.3249999999999" y2="445.18998474294557" stroke="#000"/>
<rect x="646.8999999999999" y="432.0307718143409" width="21.15" height="65.96922818565909" fill="orange" data-tooltip="1.25x baseline speed (MJIT3.0)"/>
<line x1="646.8999999999999" y1="431.7341558685166" x2="668.05" y2="431.7341558685166" stroke="#000"/>
<line x1="646.8999999999999" y1="432.32738776016515" x2="668.05" y2="432.32738776016515" stroke="#000"/>
<line x1="657.4749999999999" y1="431.7341558685166" x2="657.4749999999999" y2="432.32738776016515" stroke="#000"/>
<rect x="668.05" y="431.752939998234" width="21.15" height="66.24706000176599" fill="green" data-tooltip="1.25x baseline speed (MJIT)"/>
<line x1="668.05" y1="430.9127966344948" x2="689.1999999999999" y2="430.9127966344948" stroke="#000"/>
<line x1="668.05" y1="432.59308336197324" x2="689.1999999999999" y2="432.59308336197324" stroke="#000"/>
<line x1="678.6249999999999" y1="430.9127966344948" x2="678.6249999999999" y2="432.59308336197324" stroke="#000"/>
<rect x="689.1999999999999" y="215.73775997027957" width="21.15" height="282.2622400297203" fill="#4F3A7A" data-tooltip="5.34x baseline speed (YJIT)"/>
<line x1="689.1999999999999" y1="213.02895891765672" x2="710.3499999999999" y2="213.02895891765672" stroke="#000"/>
<line x1="689.1999999999999" y1="218.44656102290244" x2="710.3499999999999" y2="218.44656102290244" stroke="#000"/>
<line x1="699.775" y1="213.02895891765672" x2="699.775" y2="218.44656102290244" stroke="#000"/>
<line x1="678.6249999999999" y1="498.0" x2="678.6249999999999" y2="502.79999999999995" stroke="#000"/>
<text x="678.6249999999999" y="512.4" fill="#111" font-size="small" font-family="monospace" font-weight="bold" text-anchor="end" transform="rotate(-60, 678.6249999999999, 512.4)">
keyword_args
</text>
<rect x="731.4999999999999" y="445.1397928920665" width="21.15" height="52.86020710793338" fill="#7070f8" data-tooltip="1.00x baseline speed (No JIT)"/>
<line x1="731.4999999999999" y1="445.0462056369771" x2="752.65" y2="445.0462056369771" stroke="#000"/>
<line x1="731.4999999999999" y1="445.23338014715597" x2="752.65" y2="445.23338014715597" stroke="#000"/>
<line x1="742.0749999999999" y1="445.0462056369771" x2="742.0749999999999" y2="445.23338014715597" stroke="#000"/>
<rect x="752.65" y="434.3568819297144" width="21.15" height="63.64311807028549" fill="orange" data-tooltip="1.20x baseline speed (MJIT3.0)"/>
<line x1="752.65" y1="433.8216857854277" x2="773.8" y2="433.8216857854277" stroke="#000"/>
<line x1="752.65" y1="434.8920780740011" x2="773.8" y2="434.8920780740011" stroke="#000"/>
<line x1="763.2249999999999" y1="433.8216857854277" x2="763.2249999999999" y2="434.8920780740011" stroke="#000"/>
<rect x="773.8" y="434.7462426017255" width="21.15" height="63.25375739827445" fill="green" data-tooltip="1.20x baseline speed (MJIT)"/>
<line x1="773.8" y1="434.27851752906577" x2="794.9499999999999" y2="434.27851752906577" stroke="#000"/>
<line x1="773.8" y1="435.21396767438523" x2="794.9499999999999" y2="435.21396767438523" stroke="#000"/>
<line x1="784.3749999999999" y1="434.27851752906577" x2="784.3749999999999" y2="435.21396767438523" stroke="#000"/>
<rect x="794.9499999999999" y="424.6441486418764" width="21.15" height="73.35585135812345" fill="#4F3A7A" data-tooltip="1.39x baseline speed (YJIT)"/>
<line x1="794.9499999999999" y1="424.39387629654965" x2="816.0999999999999" y2="424.39387629654965" stroke="#000"/>
<line x1="794.9499999999999" y1="424.8944209872032" x2="816.0999999999999" y2="424.8944209872032" stroke="#000"/>
<line x1="805.525" y1="424.39387629654965" x2="805.525" y2="424.8944209872032" stroke="#000"/>
<line x1="784.3749999999999" y1="498.0" x2="784.3749999999999" y2="502.79999999999995" stroke="#000"/>
<text x="784.3749999999999" y="512.4" fill="#111" font-size="small" font-family="monospace" font-weight="bold" text-anchor="end" transform="rotate(-60, 784.3749999999999, 512.4)">
respond_to
</text>
<rect x="837.2499999999999" y="445.1397928920665" width="21.15" height="52.86020710793338" fill="#7070f8" data-tooltip="1.00x baseline speed (No JIT)"/>
<line x1="837.2499999999999" y1="445.03923230648326" x2="858.4" y2="445.03923230648326" stroke="#000"/>
<line x1="837.2499999999999" y1="445.2403534776498" x2="858.4" y2="445.2403534776498" stroke="#000"/>
<line x1="847.8249999999999" y1="445.03923230648326" x2="847.8249999999999" y2="445.2403534776498" stroke="#000"/>
<rect x="858.4" y="200.0176407084862" width="21.15" height="297.9823592915137" fill="orange" data-tooltip="5.64x baseline speed (MJIT3.0)"/>
<line x1="858.4" y1="-161.07109852920445" x2="879.55" y2="-161.07109852920445" stroke="#000"/>
<line x1="858.4" y1="561.1063799461768" x2="879.55" y2="561.1063799461768" stroke="#000"/>
<line x1="868.9749999999999" y1="-161.07109852920445" x2="868.9749999999999" y2="561.1063799461768" stroke="#000"/>
<rect x="879.55" y="134.31640302328822" width="21.15" height="363.6835969767117" fill="green" data-tooltip="6.88x baseline speed (MJIT)"/>
<line x1="879.55" y1="-194.2962771061421" x2="900.6999999999999" y2="-194.2962771061421" stroke="#000"/>
<line x1="879.55" y1="462.92908315271853" x2="900.6999999999999" y2="462.92908315271853" stroke="#000"/>
<line x1="890.125" y1="-194.2962771061421" x2="890.125" y2="462.92908315271853" stroke="#000"/>
<rect x="900.6999999999999" y="415.5215452521704" width="21.15" height="82.4784547478295" fill="#4F3A7A" data-tooltip="1.56x baseline speed (YJIT)"/>
<line x1="900.6999999999999" y1="414.9068922278352" x2="921.8499999999999" y2="414.9068922278352" stroke="#000"/>
<line x1="900.6999999999999" y1="416.13619827650564" x2="921.8499999999999" y2="416.13619827650564" stroke="#000"/>
<line x1="911.275" y1="414.9068922278352" x2="911.275" y2="416.13619827650564" stroke="#000"/>
<line x1="890.125" y1="498.0" x2="890.125" y2="502.79999999999995" stroke="#000"/>
<text x="890.125" y="512.4" fill="#111" font-size="small" font-family="monospace" font-weight="bold" text-anchor="end" transform="rotate(-60, 890.125, 512.4)">
setivar
</text>
</svg>