<svg viewBox="0 0 1000 600" xmlns="http://www.w3.org/2000/svg" xmlns:xlink="http://www.w3.org/1999/xlink" width="100%" height="100%">

<rect x="50.0" y="30.0" width="940.0" height="467.99999999999994" stroke="#000" fill="#EEE"/>
<line x1="42.0" y1="497.9999999999999" x2="50.0" y2="497.9999999999999" stroke="#000"/>
<text x="26.000000000000004" y="497.9999999999999" text-anchor="end" font-weight="bold" font-size="small" fill="#EEE">
0.0
</text>
<line x1="42.0" y1="401.2736177369101" x2="50.0" y2="401.2736177369101" stroke="#000"/>
<text x="26.000000000000004" y="401.2736177369101" text-anchor="end" font-weight="bold" font-size="small" fill="#EEE">
2.0
</text>
<line x1="42.0" y1="304.54723547382036" x2="50.0" y2="304.54723547382036" stroke="#000"/>
<text x="26.000000000000004" y="304.54723547382036" text-anchor="end" font-weight="bold" font-size="small" fill="#EEE">
4.0
</text>
<line x1="42.0" y1="207.82085321073055" x2="50.0" y2="207.82085321073055" stroke="#000"/>
<text x="26.000000000000004" y="207.82085321073055" text-anchor="end" font-weight="bold" font-size="small" fill="#EEE">
6.0
</text>
<line x1="42.0" y1="111.0944709476408" x2="50.0" y2="111.0944709476408" stroke="#000"/>
<text x="26.000000000000004" y="111.0944709476408" text-anchor="end" font-weight="bold" font-size="small" fill="#EEE">
8.0
</text>
<rect x="197.99999999999997" y="36.00000000000001" width="80.0" height="18.0" fill="#7070f8" stroke="#888"/>
<text x="238.0" y="52.50000000000001" font-size="small" text-anchor="middle" font-weight="bold" fill="#111">
No JIT
</text>
<rect x="479.99999999999994" y="36.00000000000001" width="80.0" height="18.0" fill="orange" stroke="#888"/>
<text x="519.9999999999999" y="52.50000000000001" font-size="small" text-anchor="middle" font-weight="bold" fill="#111">
MJIT3.0
</text>
<rect x="761.9999999999999" y="36.00000000000001" width="80.0" height="18.0" fill="green" stroke="#888"/>
<text x="801.9999999999999" y="52.50000000000001" font-size="small" text-anchor="middle" font-weight="bold" fill="#111">
YJIT
</text>
<rect x="97.0" y="449.63680886845503" width="10.071428571428571" height="48.36319113154489" fill="#7070f8" data-tooltip="1.00x baseline speed (No JIT)"/>
<line x1="97.0" y1="448.58399109850313" x2="107.07142857142857" y2="448.58399109850313" stroke="#000"/>
<line x1="97.0" y1="450.68962663840693" x2="107.07142857142857" y2="450.68962663840693" stroke="#000"/>
<line x1="102.03571428571429" y1="448.58399109850313" x2="102.03571428571429" y2="450.68962663840693" stroke="#000"/>
<rect x="107.07142857142857" y="452.7390449481593" width="10.071428571428571" height="45.260955051840604" fill="orange" data-tooltip="0.94x baseline speed (MJIT3.0)"/>
<line x1="107.07142857142857" y1="451.7105070135591" x2="117.14285714285714" y2="451.7105070135591" stroke="#000"/>
<line x1="107.07142857142857" y1="453.7675828827595" x2="117.14285714285714" y2="453.7675828827595" stroke="#000"/>
<line x1="112.10714285714285" y1="451.7105070135591" x2="112.10714285714285" y2="453.7675828827595" stroke="#000"/>
<rect x="117.14285714285714" y="434.41361883090883" width="10.071428571428571" height="63.58638116909105" fill="green" data-tooltip="1.31x baseline speed (YJIT)"/>
<line x1="117.14285714285714" y1="432.7470214461489" x2="127.21428571428572" y2="432.7470214461489" stroke="#000"/>
<line x1="117.14285714285714" y1="436.0802162156688" x2="127.21428571428572" y2="436.0802162156688" stroke="#000"/>
<line x1="122.17857142857143" y1="432.7470214461489" x2="122.17857142857143" y2="436.0802162156688" stroke="#000"/>
<line x1="117.14285714285714" y1="498.0" x2="117.14285714285714" y2="502.79999999999995" stroke="#000"/>
<text x="117.14285714285714" y="512.4" fill="#111" font-size="small" font-family="monospace" font-weight="bold" text-anchor="end" transform="rotate(-60, 117.14285714285714, 512.4)">
activerecord
</text>
<rect x="137.28571428571428" y="449.63680886845503" width="10.071428571428571" height="48.36319113154489" fill="#7070f8" data-tooltip="1.00x baseline speed (No JIT)"/>
<line x1="137.28571428571428" y1="449.258087562849" x2="147.35714285714286" y2="449.258087562849" stroke="#000"/>
<line x1="137.28571428571428" y1="450.01553017406104" x2="147.35714285714286" y2="450.01553017406104" stroke="#000"/>
<line x1="142.32142857142858" y1="449.258087562849" x2="142.32142857142858" y2="450.01553017406104" stroke="#000"/>
<rect x="147.35714285714286" y="448.33628859356213" width="10.071428571428571" height="49.6637114064378" fill="orange" data-tooltip="1.03x baseline speed (MJIT3.0)"/>
<line x1="147.35714285714286" y1="447.29711658889215" x2="157.42857142857142" y2="447.29711658889215" stroke="#000"/>
<line x1="147.35714285714286" y1="449.3754605982321" x2="157.42857142857142" y2="449.3754605982321" stroke="#000"/>
<line x1="152.39285714285714" y1="447.29711658889215" x2="152.39285714285714" y2="449.3754605982321" stroke="#000"/>
<rect x="157.42857142857142" y="434.83255921465246" width="10.071428571428571" height="63.16744078534751" fill="green" data-tooltip="1.31x baseline speed (YJIT)"/>
<line x1="157.42857142857142" y1="433.43045895492037" x2="167.49999999999997" y2="433.43045895492037" stroke="#000"/>
<line x1="157.42857142857142" y1="436.23465947438456" x2="167.49999999999997" y2="436.23465947438456" stroke="#000"/>
<line x1="162.4642857142857" y1="433.43045895492037" x2="162.4642857142857" y2="436.23465947438456" stroke="#000"/>
<line x1="157.42857142857142" y1="498.0" x2="157.42857142857142" y2="502.79999999999995" stroke="#000"/>
<text x="157.42857142857142" y="512.4" fill="#111" font-size="small" font-family="monospace" font-weight="bold" text-anchor="end" transform="rotate(-60, 157.42857142857142, 512.4)">
hexapdf
</text>
<rect x="177.57142857142858" y="449.63680886845503" width="10.071428571428571" height="48.36319113154489" fill="#7070f8" data-tooltip="1.00x baseline speed (No JIT)"/>
<line x1="177.57142857142858" y1="448.76880091984725" x2="187.64285714285714" y2="448.76880091984725" stroke="#000"/>
<line x1="177.57142857142858" y1="450.5048168170628" x2="187.64285714285714" y2="450.5048168170628" stroke="#000"/>
<line x1="182.60714285714286" y1="448.76880091984725" x2="182.60714285714286" y2="450.5048168170628" stroke="#000"/>
<rect x="187.64285714285714" y="447.92017751836545" width="10.071428571428571" height="50.07982248163451" fill="orange" data-tooltip="1.04x baseline speed (MJIT3.0)"/>
<line x1="187.64285714285714" y1="446.7539155475297" x2="197.7142857142857" y2="446.7539155475297" stroke="#000"/>
<line x1="187.64285714285714" y1="449.08643948920115" x2="197.7142857142857" y2="449.08643948920115" stroke="#000"/>
<line x1="192.67857142857142" y1="446.7539155475297" x2="192.67857142857142" y2="449.08643948920115" stroke="#000"/>
<rect x="197.71428571428572" y="443.25837276325205" width="10.071428571428571" height="54.74162723674783" fill="green" data-tooltip="1.13x baseline speed (YJIT)"/>
<line x1="197.71428571428572" y1="441.32421383738915" x2="207.7857142857143" y2="441.32421383738915" stroke="#000"/>
<line x1="197.71428571428572" y1="445.19253168911496" x2="207.7857142857143" y2="445.19253168911496" stroke="#000"/>
<line x1="202.75" y1="441.32421383738915" x2="202.75" y2="445.19253168911496" stroke="#000"/>
<line x1="197.71428571428572" y1="498.0" x2="197.71428571428572" y2="502.79999999999995" stroke="#000"/>
<text x="197.71428571428572" y="512.4" fill="#111" font-size="small" font-family="monospace" font-weight="bold" text-anchor="end" transform="rotate(-60, 197.71428571428572, 512.4)">
jekyll
</text>
<rect x="217.85714285714286" y="449.63680886845503" width="10.071428571428571" height="48.36319113154489" fill="#7070f8" data-tooltip="1.00x baseline speed (No JIT)"/>
<line x1="217.85714285714286" y1="448.899690053866" x2="227.92857142857142" y2="448.899690053866" stroke="#000"/>
<line x1="217.85714285714286" y1="450.3739276830441" x2="227.92857142857142" y2="450.3739276830441" stroke="#000"/>
<line x1="222.89285714285714" y1="448.899690053866" x2="222.89285714285714" y2="450.3739276830441" stroke="#000"/>
<rect x="227.92857142857142" y="446.8604436720075" width="10.071428571428571" height="51.13955632799243" fill="orange" data-tooltip="1.06x baseline speed (MJIT3.0)"/>
<line x1="227.92857142857142" y1="445.5682143401608" x2="238.0" y2="445.5682143401608" stroke="#000"/>
<line x1="227.92857142857142" y1="448.15267300385415" x2="238.0" y2="448.15267300385415" stroke="#000"/>
<line x1="232.9642857142857" y1="445.5682143401608" x2="232.9642857142857" y2="448.15267300385415" stroke="#000"/>
<rect x="238.0" y="425.496325559524" width="10.071428571428571" height="72.50367444047596" fill="green" data-tooltip="1.50x baseline speed (YJIT)"/>
<line x1="238.0" y1="423.1160547585096" x2="248.07142857142856" y2="423.1160547585096" stroke="#000"/>
<line x1="238.0" y1="427.87659636053843" x2="248.07142857142856" y2="427.87659636053843" stroke="#000"/>
<line x1="243.03571428571428" y1="423.1160547585096" x2="243.03571428571428" y2="427.87659636053843" stroke="#000"/>
<line x1="238.0" y1="498.0" x2="238.0" y2="502.79999999999995" stroke="#000"/>
<text x="238.0" y="512.4" fill="#111" font-size="small" font-family="monospace" font-weight="bold" text-anchor="end" transform="rotate(-60, 238.0, 512.4)">
liquid-render
</text>
<rect x="258.1428571428571" y="449.63680886845503" width="10.071428571428571" height="48.36319113154489" fill="#7070f8" data-tooltip="1.00x baseline speed (No JIT)"/>
<line x1="258.1428571428571" y1="449.05863705190245" x2="268.21428571428567" y2="449.05863705190245" stroke="#000"/>
<line x1="258.1428571428571" y1="450.2149806850076" x2="268.21428571428567" y2="450.2149806850076" stroke="#000"/>
<line x1="263.17857142857144" y1="449.05863705190245" x2="263.17857142857144" y2="450.2149806850076" stroke="#000"/>
<rect x="268.21428571428567" y="446.3905886514427" width="10.071428571428571" height="51.609411348557195" fill="orange" data-tooltip="1.07x baseline speed (MJIT3.0)"/>
<line x1="268.21428571428567" y1="445.429398328468" x2="278.2857142857142" y2="445.429398328468" stroke="#000"/>
<line x1="268.21428571428567" y1="447.35177897441747" x2="278.2857142857142" y2="447.35177897441747" stroke="#000"/>
<line x1="273.25" y1="445.429398328468" x2="273.25" y2="447.35177897441747" stroke="#000"/>
<rect x="278.2857142857142" y="444.85389846466984" width="10.071428571428571" height="53.14610153533007" fill="green" data-tooltip="1.10x baseline speed (YJIT)"/>
<line x1="278.2857142857142" y1="443.66953415690296" x2="288.35714285714283" y2="443.66953415690296" stroke="#000"/>
<line x1="278.2857142857142" y1="446.0382627724368" x2="288.35714285714283" y2="446.0382627724368" stroke="#000"/>
<line x1="283.32142857142856" y1="443.66953415690296" x2="283.32142857142856" y2="446.0382627724368" stroke="#000"/>
<line x1="278.2857142857142" y1="498.0" x2="278.2857142857142" y2="502.79999999999995" stroke="#000"/>
<text x="278.2857142857142" y="512.4" fill="#111" font-size="small" font-family="monospace" font-weight="bold" text-anchor="end" transform="rotate(-60, 278.2857142857142, 512.4)">
mail
</text>
<rect x="298.42857142857144" y="449.63680886845503" width="10.071428571428571" height="48.36319113154489" fill="#7070f8" data-tooltip="1.00x baseline speed (No JIT)"/>
<line x1="298.42857142857144" y1="449.36898188649974" x2="308.5" y2="449.36898188649974" stroke="#000"/>
<line x1="298.42857142857144" y1="449.9046358504103" x2="308.5" y2="449.9046358504103" stroke="#000"/>
<line x1="303.4642857142857" y1="449.36898188649974" x2="303.4642857142857" y2="449.9046358504103" stroke="#000"/>
<rect x="308.5" y="449.71583137279487" width="10.071428571428571" height="48.28416862720501" fill="orange" data-tooltip="1.00x baseline speed (MJIT3.0)"/>
<line x1="308.5" y1="448.9098202626675" x2="318.57142857142856" y2="448.9098202626675" stroke="#000"/>
<line x1="308.5" y1="450.52184248292224" x2="318.57142857142856" y2="450.52184248292224" stroke="#000"/>
<line x1="313.53571428571433" y1="448.9098202626675" x2="313.53571428571433" y2="450.52184248292224" stroke="#000"/>
<rect x="318.57142857142856" y="438.75095300574617" width="10.071428571428571" height="59.249046994253796" fill="green" data-tooltip="1.23x baseline speed (YJIT)"/>
<line x1="318.57142857142856" y1="437.5144007514502" x2="328.6428571428571" y2="437.5144007514502" stroke="#000"/>
<line x1="318.57142857142856" y1="439.98750526004216" x2="328.6428571428571" y2="439.98750526004216" stroke="#000"/>
<line x1="323.6071428571429" y1="437.5144007514502" x2="323.6071428571429" y2="439.98750526004216" stroke="#000"/>
<line x1="318.57142857142856" y1="498.0" x2="318.57142857142856" y2="502.79999999999995" stroke="#000"/>
<text x="318.57142857142856" y="512.4" fill="#111" font-size="small" font-family="monospace" font-weight="bold" text-anchor="end" transform="rotate(-60, 318.57142857142856, 512.4)">
psych-load
</text>
<rect x="338.7142857142857" y="449.63680886845503" width="10.071428571428571" height="48.36319113154489" fill="#7070f8" data-tooltip="1.00x baseline speed (No JIT)"/>
<line x1="338.7142857142857" y1="449.1063195910578" x2="348.78571428571433" y2="449.1063195910578" stroke="#000"/>
<line x1="338.7142857142857" y1="450.1672981458522" x2="348.78571428571433" y2="450.1672981458522" stroke="#000"/>
<line x1="343.75000000000006" y1="449.1063195910578" x2="343.75000000000006" y2="450.1672981458522" stroke="#000"/>
<rect x="348.78571428571433" y="448.3443503366935" width="10.071428571428571" height="49.65564966330641" fill="orange" data-tooltip="1.03x baseline speed (MJIT3.0)"/>
<line x1="348.78571428571433" y1="447.19045733426964" x2="358.8571428571429" y2="447.19045733426964" stroke="#000"/>
<line x1="348.78571428571433" y1="449.4982433391173" x2="358.8571428571429" y2="449.4982433391173" stroke="#000"/>
<line x1="353.8214285714286" y1="447.19045733426964" x2="353.8214285714286" y2="449.4982433391173" stroke="#000"/>
<rect x="358.8571428571429" y="435.62499493041605" width="10.071428571428571" height="62.375005069583864" fill="green" data-tooltip="1.29x baseline speed (YJIT)"/>
<line x1="358.8571428571429" y1="433.74095980377433" x2="368.92857142857144" y2="433.74095980377433" stroke="#000"/>
<line x1="358.8571428571429" y1="437.5090300570578" x2="368.92857142857144" y2="437.5090300570578" stroke="#000"/>
<line x1="363.89285714285717" y1="433.74095980377433" x2="363.89285714285717" y2="437.5090300570578" stroke="#000"/>
<line x1="358.8571428571429" y1="498.0" x2="358.8571428571429" y2="502.79999999999995" stroke="#000"/>
<text x="358.8571428571429" y="512.4" fill="#111" font-size="small" font-family="monospace" font-weight="bold" text-anchor="end" transform="rotate(-60, 358.8571428571429, 512.4)">
railsbench
</text>
<rect x="379.0" y="449.63680886845503" width="10.071428571428571" height="48.36319113154489" fill="#7070f8" data-tooltip="1.00x baseline speed (No JIT)"/>
<line x1="379.0" y1="449.5414918634719" x2="389.07142857142856" y2="449.5414918634719" stroke="#000"/>
<line x1="379.0" y1="449.7321258734382" x2="389.07142857142856" y2="449.7321258734382" stroke="#000"/>
<line x1="384.03571428571433" y1="449.5414918634719" x2="384.03571428571433" y2="449.7321258734382" stroke="#000"/>
<rect x="389.07142857142856" y="429.49621330645715" width="10.071428571428571" height="68.50378669354275" fill="orange" data-tooltip="1.42x baseline speed (MJIT3.0)"/>
<line x1="389.07142857142856" y1="429.20121329723355" x2="399.1428571428571" y2="429.20121329723355" stroke="#000"/>
<line x1="389.07142857142856" y1="429.7912133156807" x2="399.1428571428571" y2="429.7912133156807" stroke="#000"/>
<line x1="394.1071428571429" y1="429.20121329723355" x2="394.1071428571429" y2="429.7912133156807" stroke="#000"/>
<rect x="399.1428571428571" y="438.4979114284843" width="10.071428571428571" height="59.50208857151561" fill="green" data-tooltip="1.23x baseline speed (YJIT)"/>
<line x1="399.1428571428571" y1="436.95364829030507" x2="409.2142857142857" y2="436.95364829030507" stroke="#000"/>
<line x1="399.1428571428571" y1="440.04217456666356" x2="409.2142857142857" y2="440.04217456666356" stroke="#000"/>
<line x1="404.17857142857144" y1="436.95364829030507" x2="404.17857142857144" y2="440.04217456666356" stroke="#000"/>
<line x1="399.1428571428571" y1="498.0" x2="399.1428571428571" y2="502.79999999999995" stroke="#000"/>
<text x="399.1428571428571" y="512.4" fill="#111" font-size="small" font-family="monospace" font-weight="bold" text-anchor="end" transform="rotate(-60, 399.1428571428571, 512.4)">
binarytrees
</text>
<rect x="419.2857142857143" y="449.63680886845503" width="10.071428571428571" height="48.36319113154489" fill="#7070f8" data-tooltip="1.00x baseline speed (No JIT)"/>
<line x1="419.2857142857143" y1="449.6207227455542" x2="429.35714285714283" y2="449.6207227455542" stroke="#000"/>
<line x1="419.2857142857143" y1="449.6528949913559" x2="429.35714285714283" y2="449.6528949913559" stroke="#000"/>
<line x1="424.32142857142856" y1="449.6207227455542" x2="424.32142857142856" y2="449.6528949913559" stroke="#000"/>
<rect x="429.35714285714283" y="431.7125052758069" width="10.071428571428571" height="66.2874947241931" fill="orange" data-tooltip="1.37x baseline speed (MJIT3.0)"/>
<line x1="429.35714285714283" y1="431.6859486831445" x2="439.4285714285714" y2="431.6859486831445" stroke="#000"/>
<line x1="429.35714285714283" y1="431.73906186846926" x2="439.4285714285714" y2="431.73906186846926" stroke="#000"/>
<line x1="434.3928571428571" y1="431.6859486831445" x2="434.3928571428571" y2="431.73906186846926" stroke="#000"/>
<rect x="439.4285714285714" y="450.0979995162676" width="10.071428571428571" height="47.90200048373234" fill="green" data-tooltip="0.99x baseline speed (YJIT)"/>
<line x1="439.4285714285714" y1="450.056075900355" x2="449.49999999999994" y2="450.056075900355" stroke="#000"/>
<line x1="439.4285714285714" y1="450.13992313218023" x2="449.49999999999994" y2="450.13992313218023" stroke="#000"/>
<line x1="444.4642857142857" y1="450.056075900355" x2="444.4642857142857" y2="450.13992313218023" stroke="#000"/>
<line x1="439.4285714285714" y1="498.0" x2="439.4285714285714" y2="502.79999999999995" stroke="#000"/>
<text x="439.4285714285714" y="512.4" fill="#111" font-size="small" font-family="monospace" font-weight="bold" text-anchor="end" transform="rotate(-60, 439.4285714285714, 512.4)">
fannkuchredux
</text>
<rect x="459.5714285714285" y="449.63680886845503" width="10.071428571428571" height="48.36319113154489" fill="#7070f8" data-tooltip="1.00x baseline speed (No JIT)"/>
<line x1="459.5714285714285" y1="448.9823839270812" x2="469.6428571428571" y2="448.9823839270812" stroke="#000"/>
<line x1="459.5714285714285" y1="450.2912338098289" x2="469.6428571428571" y2="450.2912338098289" stroke="#000"/>
<line x1="464.60714285714283" y1="448.9823839270812" x2="464.60714285714283" y2="450.2912338098289" stroke="#000"/>
<rect x="469.6428571428571" y="434.02886569175797" width="10.071428571428571" height="63.97113430824201" fill="orange" data-tooltip="1.32x baseline speed (MJIT3.0)"/>
<line x1="469.6428571428571" y1="431.10013596956895" x2="479.71428571428567" y2="431.10013596956895" stroke="#000"/>
<line x1="469.6428571428571" y1="436.957595413947" x2="479.71428571428567" y2="436.957595413947" stroke="#000"/>
<line x1="474.6785714285714" y1="431.10013596956895" x2="474.6785714285714" y2="436.957595413947" stroke="#000"/>
<rect x="479.71428571428567" y="430.83540526348855" width="10.071428571428571" height="67.16459473651138" fill="green" data-tooltip="1.39x baseline speed (YJIT)"/>
<line x1="479.71428571428567" y1="429.5788056800321" x2="489.7857142857142" y2="429.5788056800321" stroke="#000"/>
<line x1="479.71428571428567" y1="432.0920048469451" x2="489.7857142857142" y2="432.0920048469451" stroke="#000"/>
<line x1="484.74999999999994" y1="429.5788056800321" x2="484.74999999999994" y2="432.0920048469451" stroke="#000"/>
<line x1="479.71428571428567" y1="498.0" x2="479.71428571428567" y2="502.79999999999995" stroke="#000"/>
<text x="479.71428571428567" y="512.4" fill="#111" font-size="small" font-family="monospace" font-weight="bold" text-anchor="end" transform="rotate(-60, 479.71428571428567, 512.4)">
lee
</text>
<rect x="499.8571428571429" y="449.63680886845503" width="10.071428571428571" height="48.36319113154489" fill="#7070f8" data-tooltip="1.00x baseline speed (No JIT)"/>
<line x1="499.8571428571429" y1="449.60434190696196" x2="509.9285714285715" y2="449.60434190696196" stroke="#000"/>
<line x1="499.8571428571429" y1="449.6692758299481" x2="509.9285714285715" y2="449.6692758299481" stroke="#000"/>
<line x1="504.89285714285717" y1="449.60434190696196" x2="504.89285714285717" y2="449.6692758299481" stroke="#000"/>
<rect x="509.9285714285715" y="406.91835021385987" width="10.071428571428571" height="91.08164978614015" fill="orange" data-tooltip="1.88x baseline speed (MJIT3.0)"/>
<line x1="509.9285714285715" y1="406.36230666252726" x2="520.0000000000001" y2="406.36230666252726" stroke="#000"/>
<line x1="509.9285714285715" y1="407.4743937651924" x2="520.0000000000001" y2="407.4743937651924" stroke="#000"/>
<line x1="514.9642857142858" y1="406.36230666252726" x2="514.9642857142858" y2="407.4743937651924" stroke="#000"/>
<rect x="520.0" y="426.5709201112288" width="10.071428571428571" height="71.42907988877113" fill="green" data-tooltip="1.48x baseline speed (YJIT)"/>
<line x1="520.0" y1="426.4969503703135" x2="530.0714285714287" y2="426.4969503703135" stroke="#000"/>
<line x1="520.0" y1="426.64488985214405" x2="530.0714285714287" y2="426.64488985214405" stroke="#000"/>
<line x1="525.0357142857142" y1="426.4969503703135" x2="525.0357142857142" y2="426.64488985214405" stroke="#000"/>
<line x1="520.0" y1="498.0" x2="520.0" y2="502.79999999999995" stroke="#000"/>
<text x="520.0" y="512.4" fill="#111" font-size="small" font-family="monospace" font-weight="bold" text-anchor="end" transform="rotate(-60, 520.0, 512.4)">
nbody
</text>
<rect x="540.1428571428571" y="449.63680886845503" width="10.071428571428571" height="48.36319113154489" fill="#7070f8" data-tooltip="1.00x baseline speed (No JIT)"/>
<line x1="540.1428571428571" y1="449.36026444947237" x2="550.2142857142858" y2="449.36026444947237" stroke="#000"/>
<line x1="540.1428571428571" y1="449.91335328743764" x2="550.2142857142858" y2="449.91335328743764" stroke="#000"/>
<line x1="545.1785714285714" y1="449.36026444947237" x2="545.1785714285714" y2="449.91335328743764" stroke="#000"/>
<rect x="550.2142857142858" y="440.43852236658597" width="10.071428571428571" height="57.56147763341398" fill="orange" data-tooltip="1.19x baseline speed (MJIT3.0)"/>
<line x1="550.2142857142858" y1="439.9588829153193" x2="560.2857142857143" y2="439.9588829153193" stroke="#000"/>
<line x1="550.2142857142858" y1="440.91816181785265" x2="560.2857142857143" y2="440.91816181785265" stroke="#000"/>
<line x1="555.25" y1="439.9588829153193" x2="555.25" y2="440.91816181785265" stroke="#000"/>
<rect x="560.2857142857142" y="417.7124028057158" width="10.071428571428571" height="80.28759719428427" fill="green" data-tooltip="1.66x baseline speed (YJIT)"/>
<line x1="560.2857142857142" y1="417.0493461489291" x2="570.3571428571429" y2="417.0493461489291" stroke="#000"/>
<line x1="560.2857142857142" y1="418.3754594625024" x2="570.3571428571429" y2="418.3754594625024" stroke="#000"/>
<line x1="565.3214285714286" y1="417.0493461489291" x2="565.3214285714286" y2="418.3754594625024" stroke="#000"/>
<line x1="560.2857142857142" y1="498.0" x2="560.2857142857142" y2="502.79999999999995" stroke="#000"/>
<text x="560.2857142857142" y="512.4" fill="#111" font-size="small" font-family="monospace" font-weight="bold" text-anchor="end" transform="rotate(-60, 560.2857142857142, 512.4)">
optcarrot
</text>
<rect x="580.4285714285714" y="449.63680886845503" width="10.071428571428571" height="48.36319113154489" fill="#7070f8" data-tooltip="1.00x baseline speed (No JIT)"/>
<line x1="580.4285714285714" y1="449.5092679212355" x2="590.5" y2="449.5092679212355" stroke="#000"/>
<line x1="580.4285714285714" y1="449.76434981567456" x2="590.5" y2="449.76434981567456" stroke="#000"/>
<line x1="585.4642857142857" y1="449.5092679212355" x2="585.4642857142857" y2="449.76434981567456" stroke="#000"/>
<rect x="590.5" y="434.73753175138523" width="10.071428571428571" height="63.26246824861465" fill="orange" data-tooltip="1.31x baseline speed (MJIT3.0)"/>
<line x1="590.5" y1="434.3165261057809" x2="600.5714285714287" y2="434.3165261057809" stroke="#000"/>
<line x1="590.5" y1="435.1585373969896" x2="600.5714285714287" y2="435.1585373969896" stroke="#000"/>
<line x1="595.5357142857143" y1="434.3165261057809" x2="595.5357142857143" y2="435.1585373969896" stroke="#000"/>
<rect x="600.5714285714286" y="408.33503168261507" width="10.071428571428571" height="89.66496831738483" fill="green" data-tooltip="1.85x baseline speed (YJIT)"/>
<line x1="600.5714285714286" y1="407.6636392172557" x2="610.6428571428571" y2="407.6636392172557" stroke="#000"/>
<line x1="600.5714285714286" y1="409.0064241479745" x2="610.6428571428571" y2="409.0064241479745" stroke="#000"/>
<line x1="605.6071428571428" y1="407.6636392172557" x2="605.6071428571428" y2="409.0064241479745" stroke="#000"/>
<line x1="600.5714285714286" y1="498.0" x2="600.5714285714286" y2="502.79999999999995" stroke="#000"/>
<text x="600.5714285714286" y="512.4" fill="#111" font-size="small" font-family="monospace" font-weight="bold" text-anchor="end" transform="rotate(-60, 600.5714285714286, 512.4)">
rubykon
</text>
<rect x="620.7142857142857" y="449.63680886845503" width="10.071428571428571" height="48.36319113154489" fill="#7070f8" data-tooltip="1.00x baseline speed (No JIT)"/>
<line x1="620.7142857142857" y1="448.34043531629845" x2="630.7857142857143" y2="448.34043531629845" stroke="#000"/>
<line x1="620.7142857142857" y1="450.9331824206116" x2="630.7857142857143" y2="450.9331824206116" stroke="#000"/>
<line x1="625.7499999999999" y1="448.34043531629845" x2="625.7499999999999" y2="450.9331824206116" stroke="#000"/>
<rect x="630.7857142857143" y="447.97827147085457" width="10.071428571428571" height="50.0217285291454" fill="orange" data-tooltip="1.03x baseline speed (MJIT3.0)"/>
<line x1="630.7857142857143" y1="446.53788154963627" x2="640.8571428571429" y2="446.53788154963627" stroke="#000"/>
<line x1="630.7857142857143" y1="449.4186613920728" x2="640.8571428571429" y2="449.4186613920728" stroke="#000"/>
<line x1="635.8214285714286" y1="446.53788154963627" x2="635.8214285714286" y2="449.4186613920728" stroke="#000"/>
<rect x="640.8571428571428" y="149.8281769638766" width="10.071428571428571" height="348.1718230361233" fill="green" data-tooltip="7.20x baseline speed (YJIT)"/>
<line x1="640.8571428571428" y1="140.47800763791315" x2="650.9285714285714" y2="140.47800763791315" stroke="#000"/>
<line x1="640.8571428571428" y1="159.17834628984002" x2="650.9285714285714" y2="159.17834628984002" stroke="#000"/>
<line x1="645.892857142857" y1="140.47800763791315" x2="645.892857142857" y2="159.17834628984002" stroke="#000"/>
<line x1="640.8571428571428" y1="498.0" x2="640.8571428571428" y2="502.79999999999995" stroke="#000"/>
<text x="640.8571428571428" y="512.4" fill="#111" font-size="small" font-family="monospace" font-weight="bold" text-anchor="end" transform="rotate(-60, 640.8571428571428, 512.4)">
30k_ifelse
</text>
<rect x="661.0" y="449.63680886845503" width="10.071428571428571" height="48.36319113154489" fill="#7070f8" data-tooltip="1.00x baseline speed (No JIT)"/>
<line x1="661.0" y1="449.3315622541451" x2="671.0714285714287" y2="449.3315622541451" stroke="#000"/>
<line x1="661.0" y1="449.94205548276494" x2="671.0714285714287" y2="449.94205548276494" stroke="#000"/>
<line x1="666.0357142857143" y1="449.3315622541451" x2="666.0357142857143" y2="449.94205548276494" stroke="#000"/>
<rect x="671.0714285714287" y="448.76512856842527" width="10.071428571428571" height="49.234871431574625" fill="orange" data-tooltip="1.02x baseline speed (MJIT3.0)"/>
<line x1="671.0714285714287" y1="448.32660577885304" x2="681.1428571428572" y2="448.32660577885304" stroke="#000"/>
<line x1="671.0714285714287" y1="449.2036513579975" x2="681.1428571428572" y2="449.2036513579975" stroke="#000"/>
<line x1="676.1071428571429" y1="448.32660577885304" x2="676.1071428571429" y2="449.2036513579975" stroke="#000"/>
<rect x="681.1428571428571" y="100.19999999999999" width="10.071428571428571" height="397.79999999999995" fill="green" data-tooltip="8.23x baseline speed (YJIT)"/>
<line x1="681.1428571428571" y1="97.67894219133166" x2="691.2142857142858" y2="97.67894219133166" stroke="#000"/>
<line x1="681.1428571428571" y1="102.72105780866832" x2="691.2142857142858" y2="102.72105780866832" stroke="#000"/>
<line x1="686.1785714285714" y1="97.67894219133166" x2="686.1785714285714" y2="102.72105780866832" stroke="#000"/>
<line x1="681.1428571428571" y1="498.0" x2="681.1428571428571" y2="502.79999999999995" stroke="#000"/>
<text x="681.1428571428571" y="512.4" fill="#111" font-size="small" font-family="monospace" font-weight="bold" text-anchor="end" transform="rotate(-60, 681.1428571428571, 512.4)">
30k_methods
</text>
<rect x="701.2857142857143" y="449.63680886845503" width="10.071428571428571" height="48.36319113154489" fill="#7070f8" data-tooltip="1.00x baseline speed (No JIT)"/>
<line x1="701.2857142857143" y1="449.5622606182333" x2="711.3571428571429" y2="449.5622606182333" stroke="#000"/>
<line x1="701.2857142857143" y1="449.71135711867674" x2="711.3571428571429" y2="449.71135711867674" stroke="#000"/>
<line x1="706.3214285714286" y1="449.5622606182333" x2="706.3214285714286" y2="449.71135711867674" stroke="#000"/>
<rect x="711.3571428571429" y="423.2595347249237" width="10.071428571428571" height="74.74046527507629" fill="orange" data-tooltip="1.55x baseline speed (MJIT3.0)"/>
<line x1="711.3571428571429" y1="422.9282557865633" x2="721.4285714285716" y2="422.9282557865633" stroke="#000"/>
<line x1="711.3571428571429" y1="423.59081366328405" x2="721.4285714285716" y2="423.59081366328405" stroke="#000"/>
<line x1="716.3928571428571" y1="422.9282557865633" x2="716.3928571428571" y2="423.59081366328405" stroke="#000"/>
<rect x="721.4285714285714" y="386.31611494413454" width="10.071428571428571" height="111.68388505586542" fill="green" data-tooltip="2.31x baseline speed (YJIT)"/>
<line x1="721.4285714285714" y1="386.0095987651925" x2="731.5" y2="386.0095987651925" stroke="#000"/>
<line x1="721.4285714285714" y1="386.6226311230766" x2="731.5" y2="386.6226311230766" stroke="#000"/>
<line x1="726.4642857142857" y1="386.0095987651925" x2="726.4642857142857" y2="386.6226311230766" stroke="#000"/>
<line x1="721.4285714285714" y1="498.0" x2="721.4285714285714" y2="502.79999999999995" stroke="#000"/>
<text x="721.4285714285714" y="512.4" fill="#111" font-size="small" font-family="monospace" font-weight="bold" text-anchor="end" transform="rotate(-60, 721.4285714285714, 512.4)">
cfunc_itself
</text>
<rect x="741.5714285714286" y="449.63680886845503" width="10.071428571428571" height="48.36319113154489" fill="#7070f8" data-tooltip="1.00x baseline speed (No JIT)"/>
<line x1="741.5714285714286" y1="449.61619028493755" x2="751.6428571428572" y2="449.61619028493755" stroke="#000"/>
<line x1="741.5714285714286" y1="449.6574274519725" x2="751.6428571428572" y2="449.6574274519725" stroke="#000"/>
<line x1="746.6071428571428" y1="449.61619028493755" x2="746.6071428571428" y2="449.6574274519725" stroke="#000"/>
<rect x="751.6428571428572" y="347.51115812930215" width="10.071428571428571" height="150.48884187069783" fill="orange" data-tooltip="3.11x baseline speed (MJIT3.0)"/>
<line x1="751.6428571428572" y1="347.42044759813393" x2="761.7142857142858" y2="347.42044759813393" stroke="#000"/>
<line x1="751.6428571428572" y1="347.60186866047036" x2="761.7142857142858" y2="347.60186866047036" stroke="#000"/>
<line x1="756.6785714285714" y1="347.42044759813393" x2="756.6785714285714" y2="347.60186866047036" stroke="#000"/>
<rect x="761.7142857142857" y="316.9894942010243" width="10.071428571428571" height="181.01050579897563" fill="green" data-tooltip="3.74x baseline speed (YJIT)"/>
<line x1="761.7142857142857" y1="316.86182238348044" x2="771.7857142857143" y2="316.86182238348044" stroke="#000"/>
<line x1="761.7142857142857" y1="317.1171660185681" x2="771.7857142857143" y2="317.1171660185681" stroke="#000"/>
<line x1="766.7499999999999" y1="316.86182238348044" x2="766.7499999999999" y2="317.1171660185681" stroke="#000"/>
<line x1="761.7142857142857" y1="498.0" x2="761.7142857142857" y2="502.79999999999995" stroke="#000"/>
<text x="761.7142857142857" y="512.4" fill="#111" font-size="small" font-family="monospace" font-weight="bold" text-anchor="end" transform="rotate(-60, 761.7142857142857, 512.4)">
fib
</text>
<rect x="781.8571428571428" y="449.63680886845503" width="10.071428571428571" height="48.36319113154489" fill="#7070f8" data-tooltip="1.00x baseline speed (No JIT)"/>
<line x1="781.8571428571428" y1="449.3236329320285" x2="791.9285714285714" y2="449.3236329320285" stroke="#000"/>
<line x1="781.8571428571428" y1="449.9499848048816" x2="791.9285714285714" y2="449.9499848048816" stroke="#000"/>
<line x1="786.8928571428571" y1="449.3236329320285" x2="786.8928571428571" y2="449.9499848048816" stroke="#000"/>
<rect x="791.9285714285714" y="446.27053303501435" width="10.071428571428571" height="51.72946696498555" fill="orange" data-tooltip="1.07x baseline speed (MJIT3.0)"/>
<line x1="791.9285714285714" y1="445.92697207390665" x2="802.0" y2="445.92697207390665" stroke="#000"/>
<line x1="791.9285714285714" y1="446.614093996122" x2="802.0" y2="446.614093996122" stroke="#000"/>
<line x1="796.9642857142857" y1="445.92697207390665" x2="796.9642857142857" y2="446.614093996122" stroke="#000"/>
<rect x="801.9999999999999" y="368.5719539192462" width="10.071428571428571" height="129.42804608075377" fill="green" data-tooltip="2.68x baseline speed (YJIT)"/>
<line x1="801.9999999999999" y1="367.71435878532174" x2="812.0714285714286" y2="367.71435878532174" stroke="#000"/>
<line x1="801.9999999999999" y1="369.4295490531706" x2="812.0714285714286" y2="369.4295490531706" stroke="#000"/>
<line x1="807.0357142857142" y1="367.71435878532174" x2="807.0357142857142" y2="369.4295490531706" stroke="#000"/>
<line x1="801.9999999999999" y1="498.0" x2="801.9999999999999" y2="502.79999999999995" stroke="#000"/>
<text x="801.9999999999999" y="512.4" fill="#111" font-size="small" font-family="monospace" font-weight="bold" text-anchor="end" transform="rotate(-60, 801.9999999999999, 512.4)">
getivar
</text>
<rect x="822.1428571428571" y="449.63680886845503" width="10.071428571428571" height="48.36319113154489" fill="#7070f8" data-tooltip="1.00x baseline speed (No JIT)"/>
<line x1="822.1428571428571" y1="449.6097087763608" x2="832.2142857142857" y2="449.6097087763608" stroke="#000"/>
<line x1="822.1428571428571" y1="449.6639089605493" x2="832.2142857142857" y2="449.6639089605493" stroke="#000"/>
<line x1="827.1785714285713" y1="449.6097087763608" x2="827.1785714285713" y2="449.6639089605493" stroke="#000"/>
<rect x="832.2142857142857" y="438.02238062090134" width="10.071428571428571" height="59.977619379098556" fill="orange" data-tooltip="1.24x baseline speed (MJIT3.0)"/>
<line x1="832.2142857142857" y1="437.97844050459156" x2="842.2857142857143" y2="437.97844050459156" stroke="#000"/>
<line x1="832.2142857142857" y1="438.0663207372111" x2="842.2857142857143" y2="438.0663207372111" stroke="#000"/>
<line x1="837.2499999999999" y1="437.97844050459156" x2="837.2499999999999" y2="438.0663207372111" stroke="#000"/>
<rect x="842.2857142857142" y="254.2259779876279" width="10.071428571428571" height="243.77402201237203" fill="green" data-tooltip="5.04x baseline speed (YJIT)"/>
<line x1="842.2857142857142" y1="253.85159256896407" x2="852.3571428571428" y2="253.85159256896407" stroke="#000"/>
<line x1="842.2857142857142" y1="254.6003634062918" x2="852.3571428571428" y2="254.6003634062918" stroke="#000"/>
<line x1="847.3214285714284" y1="253.85159256896407" x2="847.3214285714284" y2="254.6003634062918" stroke="#000"/>
<line x1="842.2857142857142" y1="498.0" x2="842.2857142857142" y2="502.79999999999995" stroke="#000"/>
<text x="842.2857142857142" y="512.4" fill="#111" font-size="small" font-family="monospace" font-weight="bold" text-anchor="end" transform="rotate(-60, 842.2857142857142, 512.4)">
keyword_args
</text>
<rect x="862.4285714285714" y="449.63680886845503" width="10.071428571428571" height="48.36319113154489" fill="#7070f8" data-tooltip="1.00x baseline speed (No JIT)"/>
<line x1="862.4285714285714" y1="449.33339444042326" x2="872.5" y2="449.33339444042326" stroke="#000"/>
<line x1="862.4285714285714" y1="449.94022329648675" x2="872.5" y2="449.94022329648675" stroke="#000"/>
<line x1="867.4642857142857" y1="449.33339444042326" x2="867.4642857142857" y2="449.94022329648675" stroke="#000"/>
<rect x="872.5" y="444.0168932002913" width="10.071428571428571" height="53.98310679970861" fill="orange" data-tooltip="1.12x baseline speed (MJIT3.0)"/>
<line x1="872.5" y1="443.6390984141101" x2="882.5714285714287" y2="443.6390984141101" stroke="#000"/>
<line x1="872.5" y1="444.3946879864725" x2="882.5714285714287" y2="444.3946879864725" stroke="#000"/>
<line x1="877.5357142857143" y1="443.6390984141101" x2="877.5357142857143" y2="444.3946879864725" stroke="#000"/>
<rect x="882.5714285714286" y="425.2039077925387" width="10.071428571428571" height="72.79609220746127" fill="green" data-tooltip="1.51x baseline speed (YJIT)"/>
<line x1="882.5714285714286" y1="424.6479094675218" x2="892.6428571428572" y2="424.6479094675218" stroke="#000"/>
<line x1="882.5714285714286" y1="425.7599061175556" x2="892.6428571428572" y2="425.7599061175556" stroke="#000"/>
<line x1="887.6071428571428" y1="424.6479094675218" x2="887.6071428571428" y2="425.7599061175556" stroke="#000"/>
<line x1="882.5714285714286" y1="498.0" x2="882.5714285714286" y2="502.79999999999995" stroke="#000"/>
<text x="882.5714285714286" y="512.4" fill="#111" font-size="small" font-family="monospace" font-weight="bold" text-anchor="end" transform="rotate(-60, 882.5714285714286, 512.4)">
respond_to
</text>
<rect x="902.7142857142857" y="449.63680886845503" width="10.071428571428571" height="48.36319113154489" fill="#7070f8" data-tooltip="1.00x baseline speed (No JIT)"/>
<line x1="902.7142857142857" y1="449.00464664850807" x2="912.7857142857143" y2="449.00464664850807" stroke="#000"/>
<line x1="902.7142857142857" y1="450.268971088402" x2="912.7857142857143" y2="450.268971088402" stroke="#000"/>
<line x1="907.75" y1="449.00464664850807" x2="907.75" y2="450.268971088402" stroke="#000"/>
<rect x="912.7857142857143" y="448.4574384264048" width="10.071428571428571" height="49.54256157359514" fill="orange" data-tooltip="1.02x baseline speed (MJIT3.0)"/>
<line x1="912.7857142857143" y1="447.7904129417811" x2="922.8571428571429" y2="447.7904129417811" stroke="#000"/>
<line x1="912.7857142857143" y1="449.1244639110285" x2="922.8571428571429" y2="449.1244639110285" stroke="#000"/>
<line x1="917.8214285714286" y1="447.7904129417811" x2="917.8214285714286" y2="449.1244639110285" stroke="#000"/>
<rect x="922.8571428571428" y="406.3211656356792" width="10.071428571428571" height="91.67883436432075" fill="green" data-tooltip="1.90x baseline speed (YJIT)"/>
<line x1="922.8571428571428" y1="405.11848647818596" x2="932.9285714285714" y2="405.11848647818596" stroke="#000"/>
<line x1="922.8571428571428" y1="407.52384479317243" x2="932.9285714285714" y2="407.52384479317243" stroke="#000"/>
<line x1="927.8928571428571" y1="405.11848647818596" x2="927.8928571428571" y2="407.52384479317243" stroke="#000"/>
<line x1="922.8571428571428" y1="498.0" x2="922.8571428571428" y2="502.79999999999995" stroke="#000"/>
<text x="922.8571428571428" y="512.4" fill="#111" font-size="small" font-family="monospace" font-weight="bold" text-anchor="end" transform="rotate(-60, 922.8571428571428, 512.4)">
setivar
</text>
</svg>