<svg viewBox="0 0 1000 600" xmlns="http://www.w3.org/2000/svg" xmlns:xlink="http://www.w3.org/1999/xlink" width="100%" height="100%">

<rect x="50.0" y="30.0" width="940.0" height="467.99999999999994" stroke="#000" fill="#EEE"/>
<line x1="42.0" y1="497.9999999999999" x2="50.0" y2="497.9999999999999" stroke="#000"/>
<text x="26.000000000000004" y="497.9999999999999" text-anchor="end" font-weight="bold" font-size="small" fill="#111">
0.0
</text>
<line x1="42.0" y1="444.80484996601365" x2="50.0" y2="444.80484996601365" stroke="#000"/>
<text x="26.000000000000004" y="444.80484996601365" text-anchor="end" font-weight="bold" font-size="small" fill="#111">
1.0
</text>
<line x1="42.0" y1="391.60969993202735" x2="50.0" y2="391.60969993202735" stroke="#000"/>
<text x="26.000000000000004" y="391.60969993202735" text-anchor="end" font-weight="bold" font-size="small" fill="#111">
2.0
</text>
<line x1="42.0" y1="338.4145498980411" x2="50.0" y2="338.4145498980411" stroke="#000"/>
<text x="26.000000000000004" y="338.4145498980411" text-anchor="end" font-weight="bold" font-size="small" fill="#111">
3.0
</text>
<line x1="42.0" y1="285.21939986405476" x2="50.0" y2="285.21939986405476" stroke="#000"/>
<text x="26.000000000000004" y="285.21939986405476" text-anchor="end" font-weight="bold" font-size="small" fill="#111">
4.0
</text>
<line x1="42.0" y1="232.0242498300685" x2="50.0" y2="232.0242498300685" stroke="#000"/>
<text x="26.000000000000004" y="232.0242498300685" text-anchor="end" font-weight="bold" font-size="small" fill="#111">
5.0
</text>
<line x1="42.0" y1="178.8290997960822" x2="50.0" y2="178.8290997960822" stroke="#000"/>
<text x="26.000000000000004" y="178.8290997960822" text-anchor="end" font-weight="bold" font-size="small" fill="#111">
6.0
</text>
<line x1="42.0" y1="125.63394976209591" x2="50.0" y2="125.63394976209591" stroke="#000"/>
<text x="26.000000000000004" y="125.63394976209591" text-anchor="end" font-weight="bold" font-size="small" fill="#111">
7.0
</text>
<rect x="197.99999999999997" y="36.00000000000001" width="80.0" height="18.0" fill="#7070f8" stroke="#888"/>
<text x="238.0" y="52.50000000000001" font-size="small" text-anchor="middle" font-weight="bold" fill="#EEE">
No JIT
</text>
<rect x="479.99999999999994" y="36.00000000000001" width="80.0" height="18.0" fill="orange" stroke="#888"/>
<text x="519.9999999999999" y="52.50000000000001" font-size="small" text-anchor="middle" font-weight="bold" fill="#EEE">
MJIT
</text>
<rect x="761.9999999999999" y="36.00000000000001" width="80.0" height="18.0" fill="green" stroke="#888"/>
<text x="801.9999999999999" y="52.50000000000001" font-size="small" text-anchor="middle" font-weight="bold" fill="#EEE">
YJIT
</text>
<rect x="97.0" y="444.80484996601365" width="23.5" height="53.19515003398629" fill="#7070f8" data-tooltip="1.00x baseline speed (No JIT)"/>
<line x1="97.0" y1="444.79501760172855" x2="120.5" y2="444.79501760172855" stroke="#000"/>
<line x1="97.0" y1="444.81468233029875" x2="120.5" y2="444.81468233029875" stroke="#000"/>
<line x1="108.75" y1="444.79501760172855" x2="108.75" y2="444.81468233029875" stroke="#000"/>
<rect x="120.5" y="461.77430020446127" width="23.5" height="36.2256997955386" fill="orange" data-tooltip="0.68x baseline speed (MJIT)"/>
<line x1="120.5" y1="460.430093226891" x2="144.0" y2="460.430093226891" stroke="#000"/>
<line x1="120.5" y1="463.1185071820316" x2="144.0" y2="463.1185071820316" stroke="#000"/>
<line x1="132.25" y1="460.430093226891" x2="132.25" y2="463.1185071820316" stroke="#000"/>
<rect x="144.00000000000003" y="150.17804267193472" width="23.5" height="347.8219573280652" fill="green" data-tooltip="6.54x baseline speed (YJIT)"/>
<line x1="144.00000000000003" y1="149.53403780978707" x2="167.5" y2="149.53403780978707" stroke="#000"/>
<line x1="144.00000000000003" y1="150.82204753408237" x2="167.5" y2="150.82204753408237" stroke="#000"/>
<line x1="155.75000000000003" y1="149.53403780978707" x2="155.75000000000003" y2="150.82204753408237" stroke="#000"/>
<line x1="144.00000000000003" y1="498.0" x2="144.00000000000003" y2="502.79999999999995" stroke="#000"/>
<text x="144.00000000000003" y="512.4" fill="#111" font-size="small" font-family="monospace" font-weight="bold" text-anchor="end" transform="rotate(-60, 144.00000000000003, 512.4)">
30k_ifelse
</text>
<rect x="191.0" y="444.80484996601365" width="23.5" height="53.19515003398629" fill="#7070f8" data-tooltip="1.00x baseline speed (No JIT)"/>
<line x1="191.0" y1="444.7987581020053" x2="214.5" y2="444.7987581020053" stroke="#000"/>
<line x1="191.0" y1="444.81094183002193" x2="214.5" y2="444.81094183002193" stroke="#000"/>
<line x1="202.75" y1="444.7987581020053" x2="202.75" y2="444.81094183002193" stroke="#000"/>
<rect x="214.5" y="462.8656264284756" width="23.5" height="35.1343735715243" fill="orange" data-tooltip="0.66x baseline speed (MJIT)"/>
<line x1="214.5" y1="456.61177308053453" x2="238.0" y2="456.61177308053453" stroke="#000"/>
<line x1="214.5" y1="469.1194797764166" x2="238.0" y2="469.1194797764166" stroke="#000"/>
<line x1="226.25" y1="456.61177308053453" x2="226.25" y2="469.1194797764166" stroke="#000"/>
<rect x="238.0" y="100.59984614384983" width="23.5" height="397.4001538561501" fill="green" data-tooltip="7.47x baseline speed (YJIT)"/>
<line x1="238.0" y1="100.34405581714323" x2="261.5" y2="100.34405581714323" stroke="#000"/>
<line x1="238.0" y1="100.85563647055642" x2="261.5" y2="100.85563647055642" stroke="#000"/>
<line x1="249.75" y1="100.34405581714323" x2="249.75" y2="100.85563647055642" stroke="#000"/>
<line x1="238.0" y1="498.0" x2="238.0" y2="502.79999999999995" stroke="#000"/>
<text x="238.0" y="512.4" fill="#111" font-size="small" font-family="monospace" font-weight="bold" text-anchor="end" transform="rotate(-60, 238.0, 512.4)">
30k_methods
</text>
<rect x="285.00000000000006" y="444.80484996601365" width="23.5" height="53.19515003398629" fill="#7070f8" data-tooltip="1.00x baseline speed (No JIT)"/>
<line x1="285.00000000000006" y1="444.7115017743392" x2="308.50000000000006" y2="444.7115017743392" stroke="#000"/>
<line x1="285.00000000000006" y1="444.89819815768806" x2="308.50000000000006" y2="444.89819815768806" stroke="#000"/>
<line x1="296.75" y1="444.7115017743392" x2="296.75" y2="444.89819815768806" stroke="#000"/>
<rect x="308.50000000000006" y="421.0559933012739" width="23.5" height="76.94400669872611" fill="orange" data-tooltip="1.45x baseline speed (MJIT)"/>
<line x1="308.50000000000006" y1="420.69671070420543" x2="332.00000000000006" y2="420.69671070420543" stroke="#000"/>
<line x1="308.50000000000006" y1="421.4152758983423" x2="332.00000000000006" y2="421.4152758983423" stroke="#000"/>
<line x1="320.25000000000006" y1="420.69671070420543" x2="320.25000000000006" y2="421.4152758983423" stroke="#000"/>
<rect x="332.0" y="383.9072671625487" width="23.5" height="114.09273283745127" fill="green" data-tooltip="2.14x baseline speed (YJIT)"/>
<line x1="332.0" y1="382.76248906385644" x2="355.50000000000006" y2="382.76248906385644" stroke="#000"/>
<line x1="332.0" y1="385.05204526124095" x2="355.50000000000006" y2="385.05204526124095" stroke="#000"/>
<line x1="343.75" y1="382.76248906385644" x2="343.75" y2="385.05204526124095" stroke="#000"/>
<line x1="332.0" y1="498.0" x2="332.0" y2="502.79999999999995" stroke="#000"/>
<text x="332.0" y="512.4" fill="#111" font-size="small" font-family="monospace" font-weight="bold" text-anchor="end" transform="rotate(-60, 332.0, 512.4)">
cfunc_itself
</text>
<rect x="379.0" y="444.80484996601365" width="23.5" height="53.19515003398629" fill="#7070f8" data-tooltip="1.00x baseline speed (No JIT)"/>
<line x1="379.0" y1="444.69954437687795" x2="402.5" y2="444.69954437687795" stroke="#000"/>
<line x1="379.0" y1="444.91015555514934" x2="402.5" y2="444.91015555514934" stroke="#000"/>
<line x1="390.75" y1="444.69954437687795" x2="390.75" y2="444.91015555514934" stroke="#000"/>
<rect x="402.5" y="347.6431147043648" width="23.5" height="150.35688529563512" fill="orange" data-tooltip="2.83x baseline speed (MJIT)"/>
<line x1="402.5" y1="347.3426428309739" x2="426.00000000000006" y2="347.3426428309739" stroke="#000"/>
<line x1="402.5" y1="347.94358657775564" x2="426.00000000000006" y2="347.94358657775564" stroke="#000"/>
<line x1="414.25" y1="347.3426428309739" x2="414.25" y2="347.94358657775564" stroke="#000"/>
<rect x="426.0" y="291.4575922309072" width="23.5" height="206.54240776909273" fill="green" data-tooltip="3.88x baseline speed (YJIT)"/>
<line x1="426.0" y1="290.12018032138946" x2="449.5" y2="290.12018032138946" stroke="#000"/>
<line x1="426.0" y1="292.79500414042496" x2="449.5" y2="292.79500414042496" stroke="#000"/>
<line x1="437.75" y1="290.12018032138946" x2="437.75" y2="292.79500414042496" stroke="#000"/>
<line x1="426.0" y1="498.0" x2="426.0" y2="502.79999999999995" stroke="#000"/>
<text x="426.0" y="512.4" fill="#111" font-size="small" font-family="monospace" font-weight="bold" text-anchor="end" transform="rotate(-60, 426.0, 512.4)">
fib
</text>
<rect x="473.0" y="444.80484996601365" width="23.5" height="53.19515003398629" fill="#7070f8" data-tooltip="1.00x baseline speed (No JIT)"/>
<line x1="473.0" y1="444.69877473740365" x2="496.5" y2="444.69877473740365" stroke="#000"/>
<line x1="473.0" y1="444.9109251946236" x2="496.5" y2="444.9109251946236" stroke="#000"/>
<line x1="484.74999999999994" y1="444.69877473740365" x2="484.74999999999994" y2="444.9109251946236" stroke="#000"/>
<rect x="496.5" y="275.528908767395" width="23.5" height="222.47109123260492" fill="orange" data-tooltip="4.18x baseline speed (MJIT)"/>
<line x1="496.5" y1="124.36447319191687" x2="520.0" y2="124.36447319191687" stroke="#000"/>
<line x1="496.5" y1="426.69334434287316" x2="520.0" y2="426.69334434287316" stroke="#000"/>
<line x1="508.25" y1="124.36447319191687" x2="508.25" y2="426.69334434287316" stroke="#000"/>
<rect x="520.0" y="446.1958183865902" width="23.5" height="51.80418161340975" fill="green" data-tooltip="0.97x baseline speed (YJIT)"/>
<line x1="520.0" y1="445.94028560369117" x2="543.5" y2="445.94028560369117" stroke="#000"/>
<line x1="520.0" y1="446.45135116948927" x2="543.5" y2="446.45135116948927" stroke="#000"/>
<line x1="531.75" y1="445.94028560369117" x2="531.75" y2="446.45135116948927" stroke="#000"/>
<line x1="520.0" y1="498.0" x2="520.0" y2="502.79999999999995" stroke="#000"/>
<text x="520.0" y="512.4" fill="#111" font-size="small" font-family="monospace" font-weight="bold" text-anchor="end" transform="rotate(-60, 520.0, 512.4)">
getivar
</text>
<rect x="567.0" y="444.80484996601365" width="23.5" height="53.19515003398629" fill="#7070f8" data-tooltip="1.00x baseline speed (No JIT)"/>
<line x1="567.0" y1="444.7644287968869" x2="590.4999999999999" y2="444.7644287968869" stroke="#000"/>
<line x1="567.0" y1="444.8452711351404" x2="590.4999999999999" y2="444.8452711351404" stroke="#000"/>
<line x1="578.75" y1="444.7644287968869" x2="578.75" y2="444.8452711351404" stroke="#000"/>
<rect x="590.4999999999999" y="432.3786068277845" width="23.5" height="65.6213931722155" fill="orange" data-tooltip="1.23x baseline speed (MJIT)"/>
<line x1="590.4999999999999" y1="431.8690706124899" x2="613.9999999999999" y2="431.8690706124899" stroke="#000"/>
<line x1="590.4999999999999" y1="432.888143043079" x2="613.9999999999999" y2="432.888143043079" stroke="#000"/>
<line x1="602.25" y1="431.8690706124899" x2="602.25" y2="432.888143043079" stroke="#000"/>
<rect x="614.0" y="215.29426989856137" width="23.5" height="282.7057301014386" fill="green" data-tooltip="5.31x baseline speed (YJIT)"/>
<line x1="614.0" y1="213.3117685917562" x2="637.5" y2="213.3117685917562" stroke="#000"/>
<line x1="614.0" y1="217.27677120536652" x2="637.5" y2="217.27677120536652" stroke="#000"/>
<line x1="625.75" y1="213.3117685917562" x2="625.75" y2="217.27677120536652" stroke="#000"/>
<line x1="614.0" y1="498.0" x2="614.0" y2="502.79999999999995" stroke="#000"/>
<text x="614.0" y="512.4" fill="#111" font-size="small" font-family="monospace" font-weight="bold" text-anchor="end" transform="rotate(-60, 614.0, 512.4)">
keyword_args
</text>
<rect x="661.0" y="444.80484996601365" width="23.5" height="53.19515003398629" fill="#7070f8" data-tooltip="1.00x baseline speed (No JIT)"/>
<line x1="661.0" y1="444.7451768548345" x2="684.5" y2="444.7451768548345" stroke="#000"/>
<line x1="661.0" y1="444.8645230771928" x2="684.5" y2="444.8645230771928" stroke="#000"/>
<line x1="672.7500000000001" y1="444.7451768548345" x2="672.7500000000001" y2="444.8645230771928" stroke="#000"/>
<rect x="684.5" y="434.18506257941874" width="23.5" height="63.81493742058123" fill="orange" data-tooltip="1.20x baseline speed (MJIT)"/>
<line x1="684.5" y1="433.92386752300564" x2="708.0" y2="433.92386752300564" stroke="#000"/>
<line x1="684.5" y1="434.4462576358319" x2="708.0" y2="434.4462576358319" stroke="#000"/>
<line x1="696.25" y1="433.92386752300564" x2="696.25" y2="434.4462576358319" stroke="#000"/>
<rect x="708.0000000000001" y="423.2168424501945" width="23.5" height="74.78315754980538" fill="green" data-tooltip="1.41x baseline speed (YJIT)"/>
<line x1="708.0000000000001" y1="422.9741532938301" x2="731.5" y2="422.9741532938301" stroke="#000"/>
<line x1="708.0000000000001" y1="423.459531606559" x2="731.5" y2="423.459531606559" stroke="#000"/>
<line x1="719.7500000000001" y1="422.9741532938301" x2="719.7500000000001" y2="423.459531606559" stroke="#000"/>
<line x1="708.0000000000001" y1="498.0" x2="708.0000000000001" y2="502.79999999999995" stroke="#000"/>
<text x="708.0000000000001" y="512.4" fill="#111" font-size="small" font-family="monospace" font-weight="bold" text-anchor="end" transform="rotate(-60, 708.0000000000001, 512.4)">
respond_to
</text>
<rect x="755.0" y="444.80484996601365" width="23.5" height="53.19515003398629" fill="#7070f8" data-tooltip="1.00x baseline speed (No JIT)"/>
<line x1="755.0" y1="444.4860990913877" x2="778.5" y2="444.4860990913877" stroke="#000"/>
<line x1="755.0" y1="445.1236008406396" x2="778.5" y2="445.1236008406396" stroke="#000"/>
<line x1="766.75" y1="444.4860990913877" x2="766.75" y2="445.1236008406396" stroke="#000"/>
<rect x="778.5" y="100.19999999999999" width="23.5" height="397.79999999999995" fill="orange" data-tooltip="7.48x baseline speed (MJIT)"/>
<line x1="778.5" y1="-302.87996108192453" x2="801.9999999999999" y2="-302.87996108192453" stroke="#000"/>
<line x1="778.5" y1="503.27996108192445" x2="801.9999999999999" y2="503.27996108192445" stroke="#000"/>
<line x1="790.25" y1="-302.87996108192453" x2="790.25" y2="503.27996108192445" stroke="#000"/>
<rect x="802.0" y="413.8446455837176" width="23.5" height="84.1553544162823" fill="green" data-tooltip="1.58x baseline speed (YJIT)"/>
<line x1="802.0" y1="412.3654534956712" x2="825.5" y2="412.3654534956712" stroke="#000"/>
<line x1="802.0" y1="415.32383767176395" x2="825.5" y2="415.32383767176395" stroke="#000"/>
<line x1="813.7500000000001" y1="412.3654534956712" x2="813.7500000000001" y2="415.32383767176395" stroke="#000"/>
<line x1="802.0" y1="498.0" x2="802.0" y2="502.79999999999995" stroke="#000"/>
<text x="802.0" y="512.4" fill="#111" font-size="small" font-family="monospace" font-weight="bold" text-anchor="end" transform="rotate(-60, 802.0, 512.4)">
setivar
</text>
<rect x="849.0" y="444.80484996601365" width="23.5" height="53.19515003398629" fill="#7070f8" data-tooltip="1.00x baseline speed (No JIT)"/>
<line x1="849.0" y1="444.37000736782096" x2="872.4999999999999" y2="444.37000736782096" stroke="#000"/>
<line x1="849.0" y1="445.2396925642063" x2="872.4999999999999" y2="445.2396925642063" stroke="#000"/>
<line x1="860.75" y1="444.37000736782096" x2="860.75" y2="445.2396925642063" stroke="#000"/>
<rect x="872.4999999999999" y="427.92533206958484" width="23.5" height="70.0746679304151" fill="orange" data-tooltip="1.32x baseline speed (MJIT)"/>
<line x1="872.4999999999999" y1="426.8069861863938" x2="895.9999999999999" y2="426.8069861863938" stroke="#000"/>
<line x1="872.4999999999999" y1="429.0436779527759" x2="895.9999999999999" y2="429.0436779527759" stroke="#000"/>
<line x1="884.25" y1="426.8069861863938" x2="884.25" y2="429.0436779527759" stroke="#000"/>
<rect x="896.0" y="445.1789966545739" width="23.5" height="52.82100334542599" fill="green" data-tooltip="0.99x baseline speed (YJIT)"/>
<line x1="896.0" y1="444.4427781906631" x2="919.5" y2="444.4427781906631" stroke="#000"/>
<line x1="896.0" y1="445.91521511848475" x2="919.5" y2="445.91521511848475" stroke="#000"/>
<line x1="907.75" y1="444.4427781906631" x2="907.75" y2="445.91521511848475" stroke="#000"/>
<line x1="896.0" y1="498.0" x2="896.0" y2="502.79999999999995" stroke="#000"/>
<text x="896.0" y="512.4" fill="#111" font-size="small" font-family="monospace" font-weight="bold" text-anchor="end" transform="rotate(-60, 896.0, 512.4)">
str_concat
</text>
</svg>