<svg viewBox="0 0 1000 600" xmlns="http://www.w3.org/2000/svg" xmlns:xlink="http://www.w3.org/1999/xlink" width="100%" height="100%">

<rect x="50.0" y="30.0" width="940.0" height="467.99999999999994" stroke="#000" fill="#EEE"/>
<line x1="42.0" y1="497.9999999999999" x2="50.0" y2="497.9999999999999" stroke="#000"/>
<text x="26.000000000000004" y="497.9999999999999" text-anchor="end" font-weight="bold" font-size="small" fill="#111">
0.0
</text>
<line x1="42.0" y1="416.54134106606426" x2="50.0" y2="416.54134106606426" stroke="#000"/>
<text x="26.000000000000004" y="416.54134106606426" text-anchor="end" font-weight="bold" font-size="small" fill="#111">
2.0
</text>
<line x1="42.0" y1="335.08268213212864" x2="50.0" y2="335.08268213212864" stroke="#000"/>
<text x="26.000000000000004" y="335.08268213212864" text-anchor="end" font-weight="bold" font-size="small" fill="#111">
4.0
</text>
<line x1="42.0" y1="253.62402319819302" x2="50.0" y2="253.62402319819302" stroke="#000"/>
<text x="26.000000000000004" y="253.62402319819302" text-anchor="end" font-weight="bold" font-size="small" fill="#111">
6.0
</text>
<line x1="42.0" y1="172.16536426425742" x2="50.0" y2="172.16536426425742" stroke="#000"/>
<text x="26.000000000000004" y="172.16536426425742" text-anchor="end" font-weight="bold" font-size="small" fill="#111">
8.0
</text>
<rect x="268.5" y="36.00000000000001" width="80.0" height="18.0" fill="#7070f8" stroke="#888"/>
<text x="308.5" y="52.50000000000001" font-size="small" text-anchor="middle" font-weight="bold" fill="#EEE">
No JIT
</text>
<rect x="691.4999999999999" y="36.00000000000001" width="80.0" height="18.0" fill="orange" stroke="#888"/>
<text x="731.4999999999999" y="52.50000000000001" font-size="small" text-anchor="middle" font-weight="bold" fill="#EEE">
YJIT
</text>
<rect x="97.0" y="457.2706705330321" width="8.545454545454545" height="40.72932946696782" fill="#7070f8" data-tooltip="1.00x baseline speed (No JIT)"/>
<line x1="97.0" y1="456.6032031268049" x2="105.54545454545455" y2="456.6032031268049" stroke="#000"/>
<line x1="97.0" y1="457.9381379392593" x2="105.54545454545455" y2="457.9381379392593" stroke="#000"/>
<line x1="101.27272727272728" y1="456.6032031268049" x2="101.27272727272728" y2="457.9381379392593" stroke="#000"/>
<rect x="105.54545454545455" y="440.97881352490896" width="8.545454545454545" height="57.02118647509096" fill="orange" data-tooltip="1.40x baseline speed (YJIT)"/>
<line x1="105.54545454545455" y1="439.20626467665437" x2="114.09090909090911" y2="439.20626467665437" stroke="#000"/>
<line x1="105.54545454545455" y1="442.75136237316354" x2="114.09090909090911" y2="442.75136237316354" stroke="#000"/>
<line x1="109.81818181818183" y1="439.20626467665437" x2="109.81818181818183" y2="442.75136237316354" stroke="#000"/>
<line x1="109.81818181818181" y1="498.0" x2="109.81818181818181" y2="502.79999999999995" stroke="#000"/>
<text x="109.81818181818181" y="512.4" fill="#111" font-size="small" font-family="monospace" font-weight="bold" text-anchor="end" transform="rotate(-60, 109.81818181818181, 512.4)">
activerecord
</text>
<rect x="122.63636363636364" y="457.2706705330321" width="8.545454545454545" height="40.72932946696782" fill="#7070f8" data-tooltip="1.00x baseline speed (No JIT)"/>
<line x1="122.63636363636364" y1="453.7285732677345" x2="131.1818181818182" y2="453.7285732677345" stroke="#000"/>
<line x1="122.63636363636364" y1="460.81276779832973" x2="131.1818181818182" y2="460.81276779832973" stroke="#000"/>
<line x1="126.90909090909092" y1="453.7285732677345" x2="126.90909090909092" y2="460.81276779832973" stroke="#000"/>
<rect x="131.1818181818182" y="440.5945114729165" width="8.545454545454545" height="57.40548852708352" fill="orange" data-tooltip="1.41x baseline speed (YJIT)"/>
<line x1="131.1818181818182" y1="431.58780798441444" x2="139.72727272727272" y2="431.58780798441444" stroke="#000"/>
<line x1="131.1818181818182" y1="449.6012149614185" x2="139.72727272727272" y2="449.6012149614185" stroke="#000"/>
<line x1="135.45454545454544" y1="431.58780798441444" x2="135.45454545454544" y2="449.6012149614185" stroke="#000"/>
<line x1="135.45454545454547" y1="498.0" x2="135.45454545454547" y2="502.79999999999995" stroke="#000"/>
<text x="135.45454545454547" y="512.4" fill="#111" font-size="small" font-family="monospace" font-weight="bold" text-anchor="end" transform="rotate(-60, 135.45454545454547, 512.4)">
erubi_rails
</text>
<rect x="148.27272727272728" y="457.2706705330321" width="8.545454545454545" height="40.72932946696782" fill="#7070f8" data-tooltip="1.00x baseline speed (No JIT)"/>
<line x1="148.27272727272728" y1="457.1121159573916" x2="156.81818181818184" y2="457.1121159573916" stroke="#000"/>
<line x1="148.27272727272728" y1="457.4292251086726" x2="156.81818181818184" y2="457.4292251086726" stroke="#000"/>
<line x1="152.54545454545453" y1="457.1121159573916" x2="152.54545454545453" y2="457.4292251086726" stroke="#000"/>
<rect x="156.81818181818184" y="439.8555975741146" width="8.545454545454545" height="58.14440242588534" fill="orange" data-tooltip="1.43x baseline speed (YJIT)"/>
<line x1="156.81818181818184" y1="439.3203560728067" x2="165.36363636363637" y2="439.3203560728067" stroke="#000"/>
<line x1="156.81818181818184" y1="440.39083907542255" x2="165.36363636363637" y2="440.39083907542255" stroke="#000"/>
<line x1="161.0909090909091" y1="439.3203560728067" x2="161.0909090909091" y2="440.39083907542255" stroke="#000"/>
<line x1="161.0909090909091" y1="498.0" x2="161.0909090909091" y2="502.79999999999995" stroke="#000"/>
<text x="161.0909090909091" y="512.4" fill="#111" font-size="small" font-family="monospace" font-weight="bold" text-anchor="end" transform="rotate(-60, 161.0909090909091, 512.4)">
hexapdf
</text>
<rect x="173.9090909090909" y="457.2706705330321" width="8.545454545454545" height="40.72932946696782" fill="#7070f8" data-tooltip="1.00x baseline speed (No JIT)"/>
<line x1="173.9090909090909" y1="456.82391090999755" x2="182.45454545454544" y2="456.82391090999755" stroke="#000"/>
<line x1="173.9090909090909" y1="457.71743015606665" x2="182.45454545454544" y2="457.71743015606665" stroke="#000"/>
<line x1="178.18181818181816" y1="456.82391090999755" x2="178.18181818181816" y2="457.71743015606665" stroke="#000"/>
<rect x="182.45454545454544" y="448.8547614911883" width="8.545454545454545" height="49.14523850881166" fill="orange" data-tooltip="1.21x baseline speed (YJIT)"/>
<line x1="182.45454545454544" y1="447.9512516759229" x2="191.0" y2="447.9512516759229" stroke="#000"/>
<line x1="182.45454545454544" y1="449.75827130645376" x2="191.0" y2="449.75827130645376" stroke="#000"/>
<line x1="186.72727272727272" y1="447.9512516759229" x2="186.72727272727272" y2="449.75827130645376" stroke="#000"/>
<line x1="186.72727272727272" y1="498.0" x2="186.72727272727272" y2="502.79999999999995" stroke="#000"/>
<text x="186.72727272727272" y="512.4" fill="#111" font-size="small" font-family="monospace" font-weight="bold" text-anchor="end" transform="rotate(-60, 186.72727272727272, 512.4)">
liquid-c
</text>
<rect x="199.54545454545453" y="457.2706705330321" width="8.545454545454545" height="40.72932946696782" fill="#7070f8" data-tooltip="1.00x baseline speed (No JIT)"/>
<line x1="199.54545454545453" y1="457.08532271050416" x2="208.09090909090907" y2="457.08532271050416" stroke="#000"/>
<line x1="199.54545454545453" y1="457.45601835556005" x2="208.09090909090907" y2="457.45601835556005" stroke="#000"/>
<line x1="203.81818181818178" y1="457.08532271050416" x2="203.81818181818178" y2="457.45601835556005" stroke="#000"/>
<rect x="208.09090909090907" y="450.62733660802235" width="8.545454545454545" height="47.37266339197756" fill="orange" data-tooltip="1.16x baseline speed (YJIT)"/>
<line x1="208.09090909090907" y1="450.3006573113858" x2="216.63636363636363" y2="450.3006573113858" stroke="#000"/>
<line x1="208.09090909090907" y1="450.9540159046589" x2="216.63636363636363" y2="450.9540159046589" stroke="#000"/>
<line x1="212.36363636363635" y1="450.3006573113858" x2="212.36363636363635" y2="450.9540159046589" stroke="#000"/>
<line x1="212.36363636363635" y1="498.0" x2="212.36363636363635" y2="502.79999999999995" stroke="#000"/>
<text x="212.36363636363635" y="512.4" fill="#111" font-size="small" font-family="monospace" font-weight="bold" text-anchor="end" transform="rotate(-60, 212.36363636363635, 512.4)">
liquid-compile
</text>
<rect x="225.1818181818182" y="457.2706705330321" width="8.545454545454545" height="40.72932946696782" fill="#7070f8" data-tooltip="1.00x baseline speed (No JIT)"/>
<line x1="225.1818181818182" y1="456.8091911419985" x2="233.72727272727272" y2="456.8091911419985" stroke="#000"/>
<line x1="225.1818181818182" y1="457.7321499240657" x2="233.72727272727272" y2="457.7321499240657" stroke="#000"/>
<line x1="229.45454545454544" y1="456.8091911419985" x2="229.45454545454544" y2="457.7321499240657" stroke="#000"/>
<rect x="233.72727272727272" y="434.1492275774695" width="8.545454545454545" height="63.85077242253044" fill="orange" data-tooltip="1.57x baseline speed (YJIT)"/>
<line x1="233.72727272727272" y1="432.6412093639682" x2="242.27272727272728" y2="432.6412093639682" stroke="#000"/>
<line x1="233.72727272727272" y1="435.65724579097076" x2="242.27272727272728" y2="435.65724579097076" stroke="#000"/>
<line x1="238.0" y1="432.6412093639682" x2="238.0" y2="435.65724579097076" stroke="#000"/>
<line x1="238.0" y1="498.0" x2="238.0" y2="502.79999999999995" stroke="#000"/>
<text x="238.0" y="512.4" fill="#111" font-size="small" font-family="monospace" font-weight="bold" text-anchor="end" transform="rotate(-60, 238.0, 512.4)">
liquid-render
</text>
<rect x="250.81818181818184" y="457.2706705330321" width="8.545454545454545" height="40.72932946696782" fill="#7070f8" data-tooltip="1.00x baseline speed (No JIT)"/>
<line x1="250.81818181818184" y1="457.2329125887481" x2="259.3636363636364" y2="457.2329125887481" stroke="#000"/>
<line x1="250.81818181818184" y1="457.30842847731606" x2="259.3636363636364" y2="457.30842847731606" stroke="#000"/>
<line x1="255.0909090909091" y1="457.2329125887481" x2="255.0909090909091" y2="457.30842847731606" stroke="#000"/>
<rect x="259.3636363636364" y="447.1558362556281" width="8.545454545454545" height="50.84416374437183" fill="orange" data-tooltip="1.25x baseline speed (YJIT)"/>
<line x1="259.3636363636364" y1="446.95803581286907" x2="267.9090909090909" y2="446.95803581286907" stroke="#000"/>
<line x1="259.3636363636364" y1="447.3536366983871" x2="267.9090909090909" y2="447.3536366983871" stroke="#000"/>
<line x1="263.6363636363636" y1="446.95803581286907" x2="263.6363636363636" y2="447.3536366983871" stroke="#000"/>
<line x1="263.6363636363637" y1="498.0" x2="263.6363636363637" y2="502.79999999999995" stroke="#000"/>
<text x="263.6363636363637" y="512.4" fill="#111" font-size="small" font-family="monospace" font-weight="bold" text-anchor="end" transform="rotate(-60, 263.6363636363637, 512.4)">
mail
</text>
<rect x="276.45454545454544" y="457.2706705330321" width="8.545454545454545" height="40.72932946696782" fill="#7070f8" data-tooltip="1.00x baseline speed (No JIT)"/>
<line x1="276.45454545454544" y1="457.24284930978934" x2="285.0" y2="457.24284930978934" stroke="#000"/>
<line x1="276.45454545454544" y1="457.29849175627487" x2="285.0" y2="457.29849175627487" stroke="#000"/>
<line x1="280.7272727272727" y1="457.24284930978934" x2="280.7272727272727" y2="457.29849175627487" stroke="#000"/>
<rect x="285.0" y="439.2103471551708" width="8.545454545454545" height="58.78965284482912" fill="orange" data-tooltip="1.44x baseline speed (YJIT)"/>
<line x1="285.0" y1="439.1388420306773" x2="293.5454545454545" y2="439.1388420306773" stroke="#000"/>
<line x1="285.0" y1="439.2818522796643" x2="293.5454545454545" y2="439.2818522796643" stroke="#000"/>
<line x1="289.27272727272725" y1="439.1388420306773" x2="289.27272727272725" y2="439.2818522796643" stroke="#000"/>
<line x1="289.2727272727273" y1="498.0" x2="289.2727272727273" y2="502.79999999999995" stroke="#000"/>
<text x="289.2727272727273" y="512.4" fill="#111" font-size="small" font-family="monospace" font-weight="bold" text-anchor="end" transform="rotate(-60, 289.2727272727273, 512.4)">
psych-load
</text>
<rect x="302.09090909090907" y="457.2706705330321" width="8.545454545454545" height="40.72932946696782" fill="#7070f8" data-tooltip="1.00x baseline speed (No JIT)"/>
<line x1="302.09090909090907" y1="457.1117700218974" x2="310.6363636363636" y2="457.1117700218974" stroke="#000"/>
<line x1="302.09090909090907" y1="457.4295710441668" x2="310.6363636363636" y2="457.4295710441668" stroke="#000"/>
<line x1="306.3636363636363" y1="457.1117700218974" x2="306.3636363636363" y2="457.4295710441668" stroke="#000"/>
<rect x="310.6363636363636" y="441.6239248158675" width="8.545454545454545" height="56.37607518413244" fill="orange" data-tooltip="1.38x baseline speed (YJIT)"/>
<line x1="310.6363636363636" y1="441.19612673794694" x2="319.18181818181813" y2="441.19612673794694" stroke="#000"/>
<line x1="310.6363636363636" y1="442.05172289378805" x2="319.18181818181813" y2="442.05172289378805" stroke="#000"/>
<line x1="314.9090909090909" y1="441.19612673794694" x2="314.9090909090909" y2="442.05172289378805" stroke="#000"/>
<line x1="314.90909090909093" y1="498.0" x2="314.90909090909093" y2="502.79999999999995" stroke="#000"/>
<text x="314.90909090909093" y="512.4" fill="#111" font-size="small" font-family="monospace" font-weight="bold" text-anchor="end" transform="rotate(-60, 314.90909090909093, 512.4)">
railsbench
</text>
<rect x="327.7272727272727" y="457.2706705330321" width="8.545454545454545" height="40.72932946696782" fill="#7070f8" data-tooltip="1.00x baseline speed (No JIT)"/>
<line x1="327.7272727272727" y1="453.0489996323559" x2="336.2727272727272" y2="453.0489996323559" stroke="#000"/>
<line x1="327.7272727272727" y1="461.4923414337083" x2="336.2727272727272" y2="461.4923414337083" stroke="#000"/>
<line x1="331.99999999999994" y1="453.0489996323559" x2="331.99999999999994" y2="461.4923414337083" stroke="#000"/>
<rect x="336.2727272727272" y="450.8911785928369" width="8.545454545454545" height="47.10882140716311" fill="orange" data-tooltip="1.16x baseline speed (YJIT)"/>
<line x1="336.2727272727272" y1="440.5465174065841" x2="344.81818181818176" y2="440.5465174065841" stroke="#000"/>
<line x1="336.2727272727272" y1="461.2358397790897" x2="344.81818181818176" y2="461.2358397790897" stroke="#000"/>
<line x1="340.5454545454545" y1="440.5465174065841" x2="340.5454545454545" y2="461.2358397790897" stroke="#000"/>
<line x1="340.54545454545456" y1="498.0" x2="340.54545454545456" y2="502.79999999999995" stroke="#000"/>
<text x="340.54545454545456" y="512.4" fill="#111" font-size="small" font-family="monospace" font-weight="bold" text-anchor="end" transform="rotate(-60, 340.54545454545456, 512.4)">
ruby-lsp
</text>
<rect x="353.3636363636363" y="457.2706705330321" width="8.545454545454545" height="40.72932946696782" fill="#7070f8" data-tooltip="1.00x baseline speed (No JIT)"/>
<line x1="353.3636363636363" y1="456.86794581537504" x2="361.9090909090908" y2="456.86794581537504" stroke="#000"/>
<line x1="353.3636363636363" y1="457.67339525068917" x2="361.9090909090908" y2="457.67339525068917" stroke="#000"/>
<line x1="357.63636363636357" y1="456.86794581537504" x2="357.63636363636357" y2="457.67339525068917" stroke="#000"/>
<rect x="361.9090909090908" y="452.032454312176" width="8.545454545454545" height="45.96754568782395" fill="orange" data-tooltip="1.13x baseline speed (YJIT)"/>
<line x1="361.9090909090908" y1="451.285368596627" x2="370.4545454545454" y2="451.285368596627" stroke="#000"/>
<line x1="361.9090909090908" y1="452.77954002772503" x2="370.4545454545454" y2="452.77954002772503" stroke="#000"/>
<line x1="366.18181818181813" y1="451.285368596627" x2="366.18181818181813" y2="452.77954002772503" stroke="#000"/>
<line x1="366.1818181818182" y1="498.0" x2="366.1818181818182" y2="502.79999999999995" stroke="#000"/>
<text x="366.1818181818182" y="512.4" fill="#111" font-size="small" font-family="monospace" font-weight="bold" text-anchor="end" transform="rotate(-60, 366.1818181818182, 512.4)">
sequel
</text>
<rect x="379.0" y="457.2706705330321" width="8.545454545454545" height="40.72932946696782" fill="#7070f8" data-tooltip="1.00x baseline speed (No JIT)"/>
<line x1="379.0" y1="457.2106521428372" x2="387.5454545454545" y2="457.2106521428372" stroke="#000"/>
<line x1="379.0" y1="457.330688923227" x2="387.5454545454545" y2="457.330688923227" stroke="#000"/>
<line x1="383.27272727272725" y1="457.2106521428372" x2="383.27272727272725" y2="457.330688923227" stroke="#000"/>
<rect x="387.5454545454545" y="413.12670252827274" width="8.545454545454545" height="84.87329747172723" fill="orange" data-tooltip="2.08x baseline speed (YJIT)"/>
<line x1="387.5454545454545" y1="412.9258429295986" x2="396.09090909090907" y2="412.9258429295986" stroke="#000"/>
<line x1="387.5454545454545" y1="413.3275621269468" x2="396.09090909090907" y2="413.3275621269468" stroke="#000"/>
<line x1="391.8181818181818" y1="412.9258429295986" x2="391.8181818181818" y2="413.3275621269468" stroke="#000"/>
<line x1="391.81818181818187" y1="498.0" x2="391.81818181818187" y2="502.79999999999995" stroke="#000"/>
<text x="391.81818181818187" y="512.4" fill="#111" font-size="small" font-family="monospace" font-weight="bold" text-anchor="end" transform="rotate(-60, 391.81818181818187, 512.4)">
binarytrees
</text>
<rect x="404.63636363636357" y="457.2706705330321" width="8.545454545454545" height="40.72932946696782" fill="#7070f8" data-tooltip="1.00x baseline speed (No JIT)"/>
<line x1="404.63636363636357" y1="457.1631720532361" x2="413.1818181818181" y2="457.1631720532361" stroke="#000"/>
<line x1="404.63636363636357" y1="457.3781690128281" x2="413.1818181818181" y2="457.3781690128281" stroke="#000"/>
<line x1="408.9090909090908" y1="457.1631720532361" x2="408.9090909090908" y2="457.3781690128281" stroke="#000"/>
<rect x="413.1818181818181" y="431.5236342640801" width="8.545454545454545" height="66.47636573591987" fill="orange" data-tooltip="1.63x baseline speed (YJIT)"/>
<line x1="413.1818181818181" y1="431.22738905114846" x2="421.72727272727263" y2="431.22738905114846" stroke="#000"/>
<line x1="413.1818181818181" y1="431.81987947701174" x2="421.72727272727263" y2="431.81987947701174" stroke="#000"/>
<line x1="417.4545454545454" y1="431.22738905114846" x2="417.4545454545454" y2="431.81987947701174" stroke="#000"/>
<line x1="417.45454545454544" y1="498.0" x2="417.45454545454544" y2="502.79999999999995" stroke="#000"/>
<text x="417.45454545454544" y="512.4" fill="#111" font-size="small" font-family="monospace" font-weight="bold" text-anchor="end" transform="rotate(-60, 417.45454545454544, 512.4)">
chunky_png
</text>
<rect x="430.27272727272725" y="457.2706705330321" width="8.545454545454545" height="40.72932946696782" fill="#7070f8" data-tooltip="1.00x baseline speed (No JIT)"/>
<line x1="430.27272727272725" y1="456.979262876834" x2="438.81818181818176" y2="456.979262876834" stroke="#000"/>
<line x1="430.27272727272725" y1="457.5620781892302" x2="438.81818181818176" y2="457.5620781892302" stroke="#000"/>
<line x1="434.5454545454545" y1="456.979262876834" x2="434.5454545454545" y2="457.5620781892302" stroke="#000"/>
<rect x="438.81818181818176" y="451.3436744853" width="8.545454545454545" height="46.65632551469996" fill="orange" data-tooltip="1.15x baseline speed (YJIT)"/>
<line x1="438.81818181818176" y1="450.7980644214466" x2="447.3636363636363" y2="450.7980644214466" stroke="#000"/>
<line x1="438.81818181818176" y1="451.88928454915344" x2="447.3636363636363" y2="451.88928454915344" stroke="#000"/>
<line x1="443.090909090909" y1="450.7980644214466" x2="443.090909090909" y2="451.88928454915344" stroke="#000"/>
<line x1="443.09090909090907" y1="498.0" x2="443.09090909090907" y2="502.79999999999995" stroke="#000"/>
<text x="443.09090909090907" y="512.4" fill="#111" font-size="small" font-family="monospace" font-weight="bold" text-anchor="end" transform="rotate(-60, 443.09090909090907, 512.4)">
erubi
</text>
<rect x="455.90909090909093" y="457.2706705330321" width="8.545454545454545" height="40.72932946696782" fill="#7070f8" data-tooltip="1.00x baseline speed (No JIT)"/>
<line x1="455.90909090909093" y1="457.023509872428" x2="464.45454545454544" y2="457.023509872428" stroke="#000"/>
<line x1="455.90909090909093" y1="457.5178311936362" x2="464.45454545454544" y2="457.5178311936362" stroke="#000"/>
<line x1="460.1818181818182" y1="457.023509872428" x2="460.1818181818182" y2="457.5178311936362" stroke="#000"/>
<rect x="464.45454545454544" y="457.2424356592631" width="8.545454545454545" height="40.75756434073686" fill="orange" data-tooltip="1.00x baseline speed (YJIT)"/>
<line x1="464.45454545454544" y1="456.9276677377231" x2="473.0" y2="456.9276677377231" stroke="#000"/>
<line x1="464.45454545454544" y1="457.5572035808031" x2="473.0" y2="457.5572035808031" stroke="#000"/>
<line x1="468.7272727272727" y1="456.9276677377231" x2="468.7272727272727" y2="457.5572035808031" stroke="#000"/>
<line x1="468.72727272727275" y1="498.0" x2="468.72727272727275" y2="502.79999999999995" stroke="#000"/>
<text x="468.72727272727275" y="512.4" fill="#111" font-size="small" font-family="monospace" font-weight="bold" text-anchor="end" transform="rotate(-60, 468.72727272727275, 512.4)">
etanni
</text>
<rect x="481.5454545454545" y="457.2706705330321" width="8.545454545454545" height="40.72932946696782" fill="#7070f8" data-tooltip="1.00x baseline speed (No JIT)"/>
<line x1="481.5454545454545" y1="456.9094078759389" x2="490.090909090909" y2="456.9094078759389" stroke="#000"/>
<line x1="481.5454545454545" y1="457.6319331901253" x2="490.090909090909" y2="457.6319331901253" stroke="#000"/>
<line x1="485.81818181818176" y1="456.9094078759389" x2="485.81818181818176" y2="457.6319331901253" stroke="#000"/>
<rect x="490.090909090909" y="346.8020029899305" width="8.545454545454545" height="151.19799701006946" fill="orange" data-tooltip="3.71x baseline speed (YJIT)"/>
<line x1="490.090909090909" y1="345.27469155239055" x2="498.63636363636357" y2="345.27469155239055" stroke="#000"/>
<line x1="490.090909090909" y1="348.3293144274705" x2="498.63636363636357" y2="348.3293144274705" stroke="#000"/>
<line x1="494.36363636363626" y1="345.27469155239055" x2="494.36363636363626" y2="348.3293144274705" stroke="#000"/>
<line x1="494.3636363636363" y1="498.0" x2="494.3636363636363" y2="502.79999999999995" stroke="#000"/>
<text x="494.3636363636363" y="512.4" fill="#111" font-size="small" font-family="monospace" font-weight="bold" text-anchor="end" transform="rotate(-60, 494.3636363636363, 512.4)">
fannkuchredux
</text>
<rect x="507.1818181818182" y="457.2706705330321" width="8.545454545454545" height="40.72932946696782" fill="#7070f8" data-tooltip="1.00x baseline speed (No JIT)"/>
<line x1="507.1818181818182" y1="457.10354813654413" x2="515.7272727272727" y2="457.10354813654413" stroke="#000"/>
<line x1="507.1818181818182" y1="457.43779292952007" x2="515.7272727272727" y2="457.43779292952007" stroke="#000"/>
<line x1="511.4545454545455" y1="457.10354813654413" x2="511.4545454545455" y2="457.43779292952007" stroke="#000"/>
<rect x="515.7272727272727" y="441.0962731856593" width="8.545454545454545" height="56.90372681434067" fill="orange" data-tooltip="1.40x baseline speed (YJIT)"/>
<line x1="515.7272727272727" y1="440.80446967286065" x2="524.2727272727273" y2="440.80446967286065" stroke="#000"/>
<line x1="515.7272727272727" y1="441.388076698458" x2="524.2727272727273" y2="441.388076698458" stroke="#000"/>
<line x1="520.0" y1="440.80446967286065" x2="520.0" y2="441.388076698458" stroke="#000"/>
<line x1="520.0" y1="498.0" x2="520.0" y2="502.79999999999995" stroke="#000"/>
<text x="520.0" y="512.4" fill="#111" font-size="small" font-family="monospace" font-weight="bold" text-anchor="end" transform="rotate(-60, 520.0, 512.4)">
lee
</text>
<rect x="532.8181818181818" y="457.2706705330321" width="8.545454545454545" height="40.72932946696782" fill="#7070f8" data-tooltip="1.00x baseline speed (No JIT)"/>
<line x1="532.8181818181818" y1="456.8181930945273" x2="541.3636363636363" y2="456.8181930945273" stroke="#000"/>
<line x1="532.8181818181818" y1="457.72314797153683" x2="541.3636363636363" y2="457.72314797153683" stroke="#000"/>
<line x1="537.090909090909" y1="456.8181930945273" x2="537.090909090909" y2="457.72314797153683" stroke="#000"/>
<rect x="541.3636363636363" y="424.42296500685364" width="8.545454545454545" height="73.57703499314624" fill="orange" data-tooltip="1.81x baseline speed (YJIT)"/>
<line x1="541.3636363636363" y1="423.59859610242586" x2="549.9090909090908" y2="423.59859610242586" stroke="#000"/>
<line x1="541.3636363636363" y1="425.2473339112815" x2="549.9090909090908" y2="425.2473339112815" stroke="#000"/>
<line x1="545.6363636363636" y1="423.59859610242586" x2="545.6363636363636" y2="425.2473339112815" stroke="#000"/>
<line x1="545.6363636363636" y1="498.0" x2="545.6363636363636" y2="502.79999999999995" stroke="#000"/>
<text x="545.6363636363636" y="512.4" fill="#111" font-size="small" font-family="monospace" font-weight="bold" text-anchor="end" transform="rotate(-60, 545.6363636363636, 512.4)">
nbody
</text>
<rect x="558.4545454545454" y="457.2706705330321" width="8.545454545454545" height="40.72932946696782" fill="#7070f8" data-tooltip="1.00x baseline speed (No JIT)"/>
<line x1="558.4545454545454" y1="457.04548177028425" x2="567.0" y2="457.04548177028425" stroke="#000"/>
<line x1="558.4545454545454" y1="457.49585929577995" x2="567.0" y2="457.49585929577995" stroke="#000"/>
<line x1="562.7272727272727" y1="457.04548177028425" x2="562.7272727272727" y2="457.49585929577995" stroke="#000"/>
<rect x="567.0" y="422.0525484271515" width="8.545454545454545" height="75.94745157284844" fill="orange" data-tooltip="1.86x baseline speed (YJIT)"/>
<line x1="567.0" y1="421.50617369052645" x2="575.5454545454545" y2="421.50617369052645" stroke="#000"/>
<line x1="567.0" y1="422.5989231637766" x2="575.5454545454545" y2="422.5989231637766" stroke="#000"/>
<line x1="571.2727272727273" y1="421.50617369052645" x2="571.2727272727273" y2="422.5989231637766" stroke="#000"/>
<line x1="571.2727272727273" y1="498.0" x2="571.2727272727273" y2="502.79999999999995" stroke="#000"/>
<text x="571.2727272727273" y="512.4" fill="#111" font-size="small" font-family="monospace" font-weight="bold" text-anchor="end" transform="rotate(-60, 571.2727272727273, 512.4)">
optcarrot
</text>
<rect x="584.0909090909091" y="457.2706705330321" width="8.545454545454545" height="40.72932946696782" fill="#7070f8" data-tooltip="1.00x baseline speed (No JIT)"/>
<line x1="584.0909090909091" y1="457.1921442214627" x2="592.6363636363636" y2="457.1921442214627" stroke="#000"/>
<line x1="584.0909090909091" y1="457.3491968446015" x2="592.6363636363636" y2="457.3491968446015" stroke="#000"/>
<line x1="588.3636363636364" y1="457.1921442214627" x2="588.3636363636364" y2="457.3491968446015" stroke="#000"/>
<rect x="592.6363636363636" y="450.23549846778366" width="8.545454545454545" height="47.76450153221632" fill="orange" data-tooltip="1.17x baseline speed (YJIT)"/>
<line x1="592.6363636363636" y1="450.0991935425598" x2="601.1818181818181" y2="450.0991935425598" stroke="#000"/>
<line x1="592.6363636363636" y1="450.3718033930075" x2="601.1818181818181" y2="450.3718033930075" stroke="#000"/>
<line x1="596.909090909091" y1="450.0991935425598" x2="596.909090909091" y2="450.3718033930075" stroke="#000"/>
<line x1="596.909090909091" y1="498.0" x2="596.909090909091" y2="502.79999999999995" stroke="#000"/>
<text x="596.909090909091" y="512.4" fill="#111" font-size="small" font-family="monospace" font-weight="bold" text-anchor="end" transform="rotate(-60, 596.909090909091, 512.4)">
ruby-json
</text>
<rect x="609.7272727272726" y="457.2706705330321" width="8.545454545454545" height="40.72932946696782" fill="#7070f8" data-tooltip="1.00x baseline speed (No JIT)"/>
<line x1="609.7272727272726" y1="457.0937537125268" x2="618.2727272727273" y2="457.0937537125268" stroke="#000"/>
<line x1="609.7272727272726" y1="457.4475873535374" x2="618.2727272727273" y2="457.4475873535374" stroke="#000"/>
<line x1="614.0" y1="457.0937537125268" x2="614.0" y2="457.4475873535374" stroke="#000"/>
<rect x="618.2727272727273" y="426.48864667308294" width="8.545454545454545" height="71.51135332691697" fill="orange" data-tooltip="1.76x baseline speed (YJIT)"/>
<line x1="618.2727272727273" y1="426.05384307968944" x2="626.8181818181818" y2="426.05384307968944" stroke="#000"/>
<line x1="618.2727272727273" y1="426.9234502664764" x2="626.8181818181818" y2="426.9234502664764" stroke="#000"/>
<line x1="622.5454545454545" y1="426.05384307968944" x2="622.5454545454545" y2="426.9234502664764" stroke="#000"/>
<line x1="622.5454545454545" y1="498.0" x2="622.5454545454545" y2="502.79999999999995" stroke="#000"/>
<text x="622.5454545454545" y="512.4" fill="#111" font-size="small" font-family="monospace" font-weight="bold" text-anchor="end" transform="rotate(-60, 622.5454545454545, 512.4)">
rubykon
</text>
<rect x="635.3636363636363" y="457.2706705330321" width="8.545454545454545" height="40.72932946696782" fill="#7070f8" data-tooltip="1.00x baseline speed (No JIT)"/>
<line x1="635.3636363636363" y1="457.22139778229985" x2="643.9090909090908" y2="457.22139778229985" stroke="#000"/>
<line x1="635.3636363636363" y1="457.31994328376436" x2="643.9090909090908" y2="457.31994328376436" stroke="#000"/>
<line x1="639.6363636363635" y1="457.22139778229985" x2="639.6363636363635" y2="457.31994328376436" stroke="#000"/>
<rect x="643.9090909090908" y="338.36644926867024" width="8.545454545454545" height="159.63355073132973" fill="orange" data-tooltip="3.92x baseline speed (YJIT)"/>
<line x1="643.9090909090908" y1="338.1674616796495" x2="652.4545454545453" y2="338.1674616796495" stroke="#000"/>
<line x1="643.9090909090908" y1="338.56543685769094" x2="652.4545454545453" y2="338.56543685769094" stroke="#000"/>
<line x1="648.1818181818181" y1="338.1674616796495" x2="648.1818181818181" y2="338.56543685769094" stroke="#000"/>
<line x1="648.1818181818181" y1="498.0" x2="648.1818181818181" y2="502.79999999999995" stroke="#000"/>
<text x="648.1818181818181" y="512.4" fill="#111" font-size="small" font-family="monospace" font-weight="bold" text-anchor="end" transform="rotate(-60, 648.1818181818181, 512.4)">
30k_ifelse
</text>
<rect x="660.9999999999999" y="457.2706705330321" width="8.545454545454545" height="40.72932946696782" fill="#7070f8" data-tooltip="1.00x baseline speed (No JIT)"/>
<line x1="660.9999999999999" y1="457.2405719554056" x2="669.5454545454544" y2="457.2405719554056" stroke="#000"/>
<line x1="660.9999999999999" y1="457.3007691106586" x2="669.5454545454544" y2="457.3007691106586" stroke="#000"/>
<line x1="665.2727272727273" y1="457.2405719554056" x2="665.2727272727273" y2="457.3007691106586" stroke="#000"/>
<rect x="669.5454545454544" y="273.20203320306985" width="8.545454545454545" height="224.79796679693007" fill="orange" data-tooltip="5.52x baseline speed (YJIT)"/>
<line x1="669.5454545454544" y1="272.9741517842488" x2="678.090909090909" y2="272.9741517842488" stroke="#000"/>
<line x1="669.5454545454544" y1="273.42991462189093" x2="678.090909090909" y2="273.42991462189093" stroke="#000"/>
<line x1="673.8181818181818" y1="272.9741517842488" x2="673.8181818181818" y2="273.42991462189093" stroke="#000"/>
<line x1="673.8181818181818" y1="498.0" x2="673.8181818181818" y2="502.79999999999995" stroke="#000"/>
<text x="673.8181818181818" y="512.4" fill="#111" font-size="small" font-family="monospace" font-weight="bold" text-anchor="end" transform="rotate(-60, 673.8181818181818, 512.4)">
30k_methods
</text>
<rect x="686.6363636363636" y="457.2706705330321" width="8.545454545454545" height="40.72932946696782" fill="#7070f8" data-tooltip="1.00x baseline speed (No JIT)"/>
<line x1="686.6363636363636" y1="457.23999424207295" x2="695.1818181818181" y2="457.23999424207295" stroke="#000"/>
<line x1="686.6363636363636" y1="457.30134682399125" x2="695.1818181818181" y2="457.30134682399125" stroke="#000"/>
<line x1="690.9090909090909" y1="457.23999424207295" x2="690.9090909090909" y2="457.30134682399125" stroke="#000"/>
<rect x="695.1818181818181" y="365.35387711427086" width="8.545454545454545" height="132.64612288572914" fill="orange" data-tooltip="3.26x baseline speed (YJIT)"/>
<line x1="695.1818181818181" y1="365.25263524670714" x2="703.7272727272726" y2="365.25263524670714" stroke="#000"/>
<line x1="695.1818181818181" y1="365.4551189818345" x2="703.7272727272726" y2="365.4551189818345" stroke="#000"/>
<line x1="699.4545454545455" y1="365.25263524670714" x2="699.4545454545455" y2="365.4551189818345" stroke="#000"/>
<line x1="699.4545454545455" y1="498.0" x2="699.4545454545455" y2="502.79999999999995" stroke="#000"/>
<text x="699.4545454545455" y="512.4" fill="#111" font-size="small" font-family="monospace" font-weight="bold" text-anchor="end" transform="rotate(-60, 699.4545454545455, 512.4)">
cfunc_itself
</text>
<rect x="712.2727272727271" y="457.2706705330321" width="8.545454545454545" height="40.72932946696782" fill="#7070f8" data-tooltip="1.00x baseline speed (No JIT)"/>
<line x1="712.2727272727271" y1="456.92257411597075" x2="720.8181818181816" y2="456.92257411597075" stroke="#000"/>
<line x1="712.2727272727271" y1="457.61876695009346" x2="720.8181818181816" y2="457.61876695009346" stroke="#000"/>
<line x1="716.5454545454545" y1="456.92257411597075" x2="716.5454545454545" y2="457.61876695009346" stroke="#000"/>
<rect x="720.8181818181816" y="318.13499085553684" width="8.545454545454545" height="179.8650091444631" fill="orange" data-tooltip="4.42x baseline speed (YJIT)"/>
<line x1="720.8181818181816" y1="316.59079272754695" x2="729.3636363636363" y2="316.59079272754695" stroke="#000"/>
<line x1="720.8181818181816" y1="319.6791889835267" x2="729.3636363636363" y2="319.6791889835267" stroke="#000"/>
<line x1="725.090909090909" y1="316.59079272754695" x2="725.090909090909" y2="319.6791889835267" stroke="#000"/>
<line x1="725.090909090909" y1="498.0" x2="725.090909090909" y2="502.79999999999995" stroke="#000"/>
<text x="725.090909090909" y="512.4" fill="#111" font-size="small" font-family="monospace" font-weight="bold" text-anchor="end" transform="rotate(-60, 725.090909090909, 512.4)">
fib
</text>
<rect x="737.9090909090909" y="457.2706705330321" width="8.545454545454545" height="40.72932946696782" fill="#7070f8" data-tooltip="1.00x baseline speed (No JIT)"/>
<line x1="737.9090909090909" y1="457.1677812935623" x2="746.4545454545454" y2="457.1677812935623" stroke="#000"/>
<line x1="737.9090909090909" y1="457.3735597725019" x2="746.4545454545454" y2="457.3735597725019" stroke="#000"/>
<line x1="742.1818181818181" y1="457.1677812935623" x2="742.1818181818181" y2="457.3735597725019" stroke="#000"/>
<rect x="746.4545454545454" y="266.42186444108955" width="8.545454545454545" height="231.5781355589104" fill="orange" data-tooltip="5.69x baseline speed (YJIT)"/>
<line x1="746.4545454545454" y1="265.8359421969434" x2="754.9999999999999" y2="265.8359421969434" stroke="#000"/>
<line x1="746.4545454545454" y1="267.0077866852357" x2="754.9999999999999" y2="267.0077866852357" stroke="#000"/>
<line x1="750.7272727272726" y1="265.8359421969434" x2="750.7272727272726" y2="267.0077866852357" stroke="#000"/>
<line x1="750.7272727272726" y1="498.0" x2="750.7272727272726" y2="502.79999999999995" stroke="#000"/>
<text x="750.7272727272726" y="512.4" fill="#111" font-size="small" font-family="monospace" font-weight="bold" text-anchor="end" transform="rotate(-60, 750.7272727272726, 512.4)">
getivar
</text>
<rect x="763.5454545454544" y="457.2706705330321" width="8.545454545454545" height="40.72932946696782" fill="#7070f8" data-tooltip="1.00x baseline speed (No JIT)"/>
<line x1="763.5454545454544" y1="457.20461117385145" x2="772.0909090909089" y2="457.20461117385145" stroke="#000"/>
<line x1="763.5454545454544" y1="457.33672989221276" x2="772.0909090909089" y2="457.33672989221276" stroke="#000"/>
<line x1="767.8181818181818" y1="457.20461117385145" x2="767.8181818181818" y2="457.33672989221276" stroke="#000"/>
<rect x="772.0909090909089" y="270.09214213222265" width="8.545454545454545" height="227.9078578677773" fill="orange" data-tooltip="5.60x baseline speed (YJIT)"/>
<line x1="772.0909090909089" y1="267.76530475770784" x2="780.6363636363635" y2="267.76530475770784" stroke="#000"/>
<line x1="772.0909090909089" y1="272.4189795067374" x2="780.6363636363635" y2="272.4189795067374" stroke="#000"/>
<line x1="776.3636363636363" y1="267.76530475770784" x2="776.3636363636363" y2="272.4189795067374" stroke="#000"/>
<line x1="776.3636363636363" y1="498.0" x2="776.3636363636363" y2="502.79999999999995" stroke="#000"/>
<text x="776.3636363636363" y="512.4" fill="#111" font-size="small" font-family="monospace" font-weight="bold" text-anchor="end" transform="rotate(-60, 776.3636363636363, 512.4)">
keyword_args
</text>
<rect x="789.1818181818181" y="457.2706705330321" width="8.545454545454545" height="40.72932946696782" fill="#7070f8" data-tooltip="1.00x baseline speed (No JIT)"/>
<line x1="789.1818181818181" y1="457.0591714376417" x2="797.7272727272726" y2="457.0591714376417" stroke="#000"/>
<line x1="789.1818181818181" y1="457.4821696284225" x2="797.7272727272726" y2="457.4821696284225" stroke="#000"/>
<line x1="793.4545454545454" y1="457.0591714376417" x2="793.4545454545454" y2="457.4821696284225" stroke="#000"/>
<rect x="797.7272727272726" y="100.19999999999999" width="8.545454545454545" height="397.79999999999995" fill="orange" data-tooltip="9.77x baseline speed (YJIT)"/>
<line x1="797.7272727272726" y1="96.25149932773641" x2="806.2727272727271" y2="96.25149932773641" stroke="#000"/>
<line x1="797.7272727272726" y1="104.14850067226357" x2="806.2727272727271" y2="104.14850067226357" stroke="#000"/>
<line x1="801.9999999999999" y1="96.25149932773641" x2="801.9999999999999" y2="104.14850067226357" stroke="#000"/>
<line x1="801.9999999999999" y1="498.0" x2="801.9999999999999" y2="502.79999999999995" stroke="#000"/>
<text x="801.9999999999999" y="512.4" fill="#111" font-size="small" font-family="monospace" font-weight="bold" text-anchor="end" transform="rotate(-60, 801.9999999999999, 512.4)">
respond_to
</text>
<rect x="814.8181818181818" y="457.2706705330321" width="8.545454545454545" height="40.72932946696782" fill="#7070f8" data-tooltip="1.00x baseline speed (No JIT)"/>
<line x1="814.8181818181818" y1="457.0813195760346" x2="823.3636363636363" y2="457.0813195760346" stroke="#000"/>
<line x1="814.8181818181818" y1="457.4600214900296" x2="823.3636363636363" y2="457.4600214900296" stroke="#000"/>
<line x1="819.0909090909091" y1="457.0813195760346" x2="819.0909090909091" y2="457.4600214900296" stroke="#000"/>
<rect x="823.3636363636363" y="255.30407262574866" width="8.545454545454545" height="242.69592737425128" fill="orange" data-tooltip="5.96x baseline speed (YJIT)"/>
<line x1="823.3636363636363" y1="254.17409289031207" x2="831.9090909090908" y2="254.17409289031207" stroke="#000"/>
<line x1="823.3636363636363" y1="256.4340523611853" x2="831.9090909090908" y2="256.4340523611853" stroke="#000"/>
<line x1="827.6363636363636" y1="254.17409289031207" x2="827.6363636363636" y2="256.4340523611853" stroke="#000"/>
<line x1="827.6363636363636" y1="498.0" x2="827.6363636363636" y2="502.79999999999995" stroke="#000"/>
<text x="827.6363636363636" y="512.4" fill="#111" font-size="small" font-family="monospace" font-weight="bold" text-anchor="end" transform="rotate(-60, 827.6363636363636, 512.4)">
setivar
</text>
<rect x="840.4545454545454" y="457.2706705330321" width="8.545454545454545" height="40.72932946696782" fill="#7070f8" data-tooltip="1.00x baseline speed (No JIT)"/>
<line x1="840.4545454545454" y1="456.9461762554808" x2="848.9999999999999" y2="456.9461762554808" stroke="#000"/>
<line x1="840.4545454545454" y1="457.59516481058336" x2="848.9999999999999" y2="457.59516481058336" stroke="#000"/>
<line x1="844.7272727272726" y1="456.9461762554808" x2="844.7272727272726" y2="457.59516481058336" stroke="#000"/>
<rect x="848.9999999999999" y="395.23712316614774" width="8.545454545454545" height="102.76287683385218" fill="orange" data-tooltip="2.52x baseline speed (YJIT)"/>
<line x1="848.9999999999999" y1="393.37662882786907" x2="857.5454545454544" y2="393.37662882786907" stroke="#000"/>
<line x1="848.9999999999999" y1="397.09761750442647" x2="857.5454545454544" y2="397.09761750442647" stroke="#000"/>
<line x1="853.2727272727271" y1="393.37662882786907" x2="853.2727272727271" y2="397.09761750442647" stroke="#000"/>
<line x1="853.2727272727271" y1="498.0" x2="853.2727272727271" y2="502.79999999999995" stroke="#000"/>
<text x="853.2727272727271" y="512.4" fill="#111" font-size="small" font-family="monospace" font-weight="bold" text-anchor="end" transform="rotate(-60, 853.2727272727271, 512.4)">
setivar_object
</text>
<rect x="866.090909090909" y="457.2706705330321" width="8.545454545454545" height="40.72932946696782" fill="#7070f8" data-tooltip="1.00x baseline speed (No JIT)"/>
<line x1="866.090909090909" y1="457.165843999903" x2="874.6363636363635" y2="457.165843999903" stroke="#000"/>
<line x1="866.090909090909" y1="457.3754970661612" x2="874.6363636363635" y2="457.3754970661612" stroke="#000"/>
<line x1="870.3636363636364" y1="457.165843999903" x2="870.3636363636364" y2="457.3754970661612" stroke="#000"/>
<rect x="874.6363636363635" y="393.43952673483784" width="8.545454545454545" height="104.56047326516209" fill="orange" data-tooltip="2.57x baseline speed (YJIT)"/>
<line x1="874.6363636363635" y1="393.16963954523004" x2="883.181818181818" y2="393.16963954523004" stroke="#000"/>
<line x1="874.6363636363635" y1="393.70941392444564" x2="883.181818181818" y2="393.70941392444564" stroke="#000"/>
<line x1="878.9090909090909" y1="393.16963954523004" x2="878.9090909090909" y2="393.70941392444564" stroke="#000"/>
<line x1="878.9090909090909" y1="498.0" x2="878.9090909090909" y2="502.79999999999995" stroke="#000"/>
<text x="878.9090909090909" y="512.4" fill="#111" font-size="small" font-family="monospace" font-weight="bold" text-anchor="end" transform="rotate(-60, 878.9090909090909, 512.4)">
setivar_young
</text>
<rect x="891.7272727272726" y="457.2706705330321" width="8.545454545454545" height="40.72932946696782" fill="#7070f8" data-tooltip="1.00x baseline speed (No JIT)"/>
<line x1="891.7272727272726" y1="457.0779361520004" x2="900.2727272727271" y2="457.0779361520004" stroke="#000"/>
<line x1="891.7272727272726" y1="457.4634049140638" x2="900.2727272727271" y2="457.4634049140638" stroke="#000"/>
<line x1="895.9999999999999" y1="457.0779361520004" x2="895.9999999999999" y2="457.4634049140638" stroke="#000"/>
<rect x="900.2727272727271" y="418.74411655643587" width="8.545454545454545" height="79.25588344356419" fill="orange" data-tooltip="1.95x baseline speed (YJIT)"/>
<line x1="900.2727272727271" y1="417.88145625129994" x2="908.8181818181816" y2="417.88145625129994" stroke="#000"/>
<line x1="900.2727272727271" y1="419.60677686157175" x2="908.8181818181816" y2="419.60677686157175" stroke="#000"/>
<line x1="904.5454545454544" y1="417.88145625129994" x2="904.5454545454544" y2="419.60677686157175" stroke="#000"/>
<line x1="904.5454545454544" y1="498.0" x2="904.5454545454544" y2="502.79999999999995" stroke="#000"/>
<text x="904.5454545454544" y="512.4" fill="#111" font-size="small" font-family="monospace" font-weight="bold" text-anchor="end" transform="rotate(-60, 904.5454545454544, 512.4)">
str_concat
</text>
<rect x="917.3636363636363" y="457.2706705330321" width="8.545454545454545" height="40.72932946696782" fill="#7070f8" data-tooltip="1.00x baseline speed (No JIT)"/>
<line x1="917.3636363636363" y1="457.0998092971404" x2="925.9090909090908" y2="457.0998092971404" stroke="#000"/>
<line x1="917.3636363636363" y1="457.4415317689238" x2="925.9090909090908" y2="457.4415317689238" stroke="#000"/>
<line x1="921.6363636363636" y1="457.0998092971404" x2="921.6363636363636" y2="457.4415317689238" stroke="#000"/>
<rect x="925.9090909090908" y="443.8006397709036" width="8.545454545454545" height="54.19936022909633" fill="orange" data-tooltip="1.33x baseline speed (YJIT)"/>
<line x1="925.9090909090908" y1="443.547103380401" x2="934.4545454545453" y2="443.547103380401" stroke="#000"/>
<line x1="925.9090909090908" y1="444.0541761614062" x2="934.4545454545453" y2="444.0541761614062" stroke="#000"/>
<line x1="930.1818181818181" y1="443.547103380401" x2="930.1818181818181" y2="444.0541761614062" stroke="#000"/>
<line x1="930.1818181818181" y1="498.0" x2="930.1818181818181" y2="502.79999999999995" stroke="#000"/>
<text x="930.1818181818181" y="512.4" fill="#111" font-size="small" font-family="monospace" font-weight="bold" text-anchor="end" transform="rotate(-60, 930.1818181818181, 512.4)">
throw
</text>
</svg>