<svg viewBox="0 0 1000 600" xmlns="http://www.w3.org/2000/svg" xmlns:xlink="http://www.w3.org/1999/xlink" width="100%" height="100%">

<rect x="50.0" y="30.0" width="940.0" height="467.99999999999994" stroke="#000" fill="#EEE"/>
<line x1="42.0" y1="497.9999999999999" x2="50.0" y2="497.9999999999999" stroke="#000"/>
<text x="26.000000000000004" y="497.9999999999999" text-anchor="end" font-weight="bold" font-size="small" fill="#111">
0.0
</text>
<line x1="42.0" y1="445.02084420833154" x2="50.0" y2="445.02084420833154" stroke="#000"/>
<text x="26.000000000000004" y="445.02084420833154" text-anchor="end" font-weight="bold" font-size="small" fill="#111">
1.0
</text>
<line x1="42.0" y1="392.04168841666313" x2="50.0" y2="392.04168841666313" stroke="#000"/>
<text x="26.000000000000004" y="392.04168841666313" text-anchor="end" font-weight="bold" font-size="small" fill="#111">
2.0
</text>
<line x1="42.0" y1="339.06253262499473" x2="50.0" y2="339.06253262499473" stroke="#000"/>
<text x="26.000000000000004" y="339.06253262499473" text-anchor="end" font-weight="bold" font-size="small" fill="#111">
3.0
</text>
<line x1="42.0" y1="286.0833768333264" x2="50.0" y2="286.0833768333264" stroke="#000"/>
<text x="26.000000000000004" y="286.0833768333264" text-anchor="end" font-weight="bold" font-size="small" fill="#111">
4.0
</text>
<line x1="42.0" y1="233.104221041658" x2="50.0" y2="233.104221041658" stroke="#000"/>
<text x="26.000000000000004" y="233.104221041658" text-anchor="end" font-weight="bold" font-size="small" fill="#111">
5.0
</text>
<line x1="42.0" y1="180.12506524998963" x2="50.0" y2="180.12506524998963" stroke="#000"/>
<text x="26.000000000000004" y="180.12506524998963" text-anchor="end" font-weight="bold" font-size="small" fill="#111">
6.0
</text>
<line x1="42.0" y1="127.14590945832123" x2="50.0" y2="127.14590945832123" stroke="#000"/>
<text x="26.000000000000004" y="127.14590945832123" text-anchor="end" font-weight="bold" font-size="small" fill="#111">
7.0
</text>
<rect x="197.99999999999997" y="36.00000000000001" width="80.0" height="18.0" fill="#7070f8" stroke="#888"/>
<text x="238.0" y="52.50000000000001" font-size="small" text-anchor="middle" font-weight="bold" fill="#EEE">
No JIT
</text>
<rect x="479.99999999999994" y="36.00000000000001" width="80.0" height="18.0" fill="orange" stroke="#888"/>
<text x="519.9999999999999" y="52.50000000000001" font-size="small" text-anchor="middle" font-weight="bold" fill="#EEE">
MJIT
</text>
<rect x="761.9999999999999" y="36.00000000000001" width="80.0" height="18.0" fill="green" stroke="#888"/>
<text x="801.9999999999999" y="52.50000000000001" font-size="small" text-anchor="middle" font-weight="bold" fill="#EEE">
YJIT
</text>
<rect x="97.0" y="445.02084420833154" width="8.8125" height="52.97915579166839" fill="#7070f8" data-tooltip="1.00x baseline speed (No JIT)"/>
<line x1="97.0" y1="444.83404878199605" x2="105.8125" y2="444.83404878199605" stroke="#000"/>
<line x1="97.0" y1="445.20763963466703" x2="105.8125" y2="445.20763963466703" stroke="#000"/>
<line x1="101.40625" y1="444.83404878199605" x2="101.40625" y2="445.20763963466703" stroke="#000"/>
<rect x="105.8125" y="451.1283488479367" width="8.8125" height="46.87165115206321" fill="orange" data-tooltip="0.88x baseline speed (MJIT)"/>
<line x1="105.8125" y1="449.5721467996675" x2="114.625" y2="449.5721467996675" stroke="#000"/>
<line x1="105.8125" y1="452.68455089620596" x2="114.625" y2="452.68455089620596" stroke="#000"/>
<line x1="110.21875" y1="449.5721467996675" x2="110.21875" y2="452.68455089620596" stroke="#000"/>
<rect x="114.625" y="423.1242885936348" width="8.8125" height="74.87571140636516" fill="green" data-tooltip="1.41x baseline speed (YJIT)"/>
<line x1="114.625" y1="422.67245556516616" x2="123.4375" y2="422.67245556516616" stroke="#000"/>
<line x1="114.625" y1="423.5761216221034" x2="123.4375" y2="423.5761216221034" stroke="#000"/>
<line x1="119.03125" y1="422.67245556516616" x2="119.03125" y2="423.5761216221034" stroke="#000"/>
<line x1="114.625" y1="498.0" x2="114.625" y2="502.79999999999995" stroke="#000"/>
<text x="114.625" y="512.4" fill="#111" font-size="small" font-family="monospace" font-weight="bold" text-anchor="end" transform="rotate(-60, 114.625, 512.4)">
activerecord
</text>
<rect x="132.25" y="445.02084420833154" width="8.8125" height="52.97915579166839" fill="#7070f8" data-tooltip="1.00x baseline speed (No JIT)"/>
<line x1="132.25" y1="444.2670248726199" x2="141.0625" y2="444.2670248726199" stroke="#000"/>
<line x1="132.25" y1="445.77466354404316" x2="141.0625" y2="445.77466354404316" stroke="#000"/>
<line x1="136.65625" y1="444.2670248726199" x2="136.65625" y2="445.77466354404316" stroke="#000"/>
<rect x="149.875" y="426.63503017440445" width="8.8125" height="71.36496982559554" fill="green" data-tooltip="1.35x baseline speed (YJIT)"/>
<line x1="149.875" y1="425.04380358257646" x2="158.6875" y2="425.04380358257646" stroke="#000"/>
<line x1="149.875" y1="428.22625676623244" x2="158.6875" y2="428.22625676623244" stroke="#000"/>
<line x1="154.28125" y1="425.04380358257646" x2="154.28125" y2="428.22625676623244" stroke="#000"/>
<line x1="149.875" y1="498.0" x2="149.875" y2="502.79999999999995" stroke="#000"/>
<text x="149.875" y="512.4" fill="#111" font-size="small" font-family="monospace" font-weight="bold" text-anchor="end" transform="rotate(-60, 149.875, 512.4)">
hexapdf
</text>
<rect x="167.49999999999997" y="445.02084420833154" width="8.8125" height="52.97915579166839" fill="#7070f8" data-tooltip="1.00x baseline speed (No JIT)"/>
<line x1="167.49999999999997" y1="444.45162189221156" x2="176.31249999999997" y2="444.45162189221156" stroke="#000"/>
<line x1="167.49999999999997" y1="445.5900665244515" x2="176.31249999999997" y2="445.5900665244515" stroke="#000"/>
<line x1="171.90624999999997" y1="444.45162189221156" x2="171.90624999999997" y2="445.5900665244515" stroke="#000"/>
<rect x="176.31249999999997" y="443.4148235430788" width="8.8125" height="54.58517645692114" fill="orange" data-tooltip="1.03x baseline speed (MJIT)"/>
<line x1="176.31249999999997" y1="442.3933958706359" x2="185.12499999999997" y2="442.3933958706359" stroke="#000"/>
<line x1="176.31249999999997" y1="444.4362512155217" x2="185.12499999999997" y2="444.4362512155217" stroke="#000"/>
<line x1="180.71874999999997" y1="442.3933958706359" x2="180.71874999999997" y2="444.4362512155217" stroke="#000"/>
<rect x="185.12499999999997" y="418.0507713351244" width="8.8125" height="79.94922866487545" fill="green" data-tooltip="1.51x baseline speed (YJIT)"/>
<line x1="185.12499999999997" y1="416.431918591866" x2="193.93749999999997" y2="416.431918591866" stroke="#000"/>
<line x1="185.12499999999997" y1="419.66962407838287" x2="193.93749999999997" y2="419.66962407838287" stroke="#000"/>
<line x1="189.53124999999997" y1="416.431918591866" x2="189.53124999999997" y2="419.66962407838287" stroke="#000"/>
<line x1="185.12499999999997" y1="498.0" x2="185.12499999999997" y2="502.79999999999995" stroke="#000"/>
<text x="185.12499999999997" y="512.4" fill="#111" font-size="small" font-family="monospace" font-weight="bold" text-anchor="end" transform="rotate(-60, 185.12499999999997, 512.4)">
liquid-render
</text>
<rect x="202.75" y="445.02084420833154" width="8.8125" height="52.97915579166839" fill="#7070f8" data-tooltip="1.00x baseline speed (No JIT)"/>
<line x1="202.75" y1="444.95248821174715" x2="211.5625" y2="444.95248821174715" stroke="#000"/>
<line x1="202.75" y1="445.0892002049159" x2="211.5625" y2="445.0892002049159" stroke="#000"/>
<line x1="207.15625" y1="444.95248821174715" x2="207.15625" y2="445.0892002049159" stroke="#000"/>
<rect x="211.5625" y="444.08816934679345" width="8.8125" height="53.911830653206565" fill="orange" data-tooltip="1.02x baseline speed (MJIT)"/>
<line x1="211.5625" y1="443.410954173623" x2="220.375" y2="443.410954173623" stroke="#000"/>
<line x1="211.5625" y1="444.7653845199639" x2="220.375" y2="444.7653845199639" stroke="#000"/>
<line x1="215.96875" y1="443.410954173623" x2="215.96875" y2="444.7653845199639" stroke="#000"/>
<rect x="220.375" y="439.358477225682" width="8.8125" height="58.641522774318005" fill="green" data-tooltip="1.11x baseline speed (YJIT)"/>
<line x1="220.375" y1="439.1343445497489" x2="229.1875" y2="439.1343445497489" stroke="#000"/>
<line x1="220.375" y1="439.5826099016151" x2="229.1875" y2="439.5826099016151" stroke="#000"/>
<line x1="224.78125" y1="439.1343445497489" x2="224.78125" y2="439.5826099016151" stroke="#000"/>
<line x1="220.375" y1="498.0" x2="220.375" y2="502.79999999999995" stroke="#000"/>
<text x="220.375" y="512.4" fill="#111" font-size="small" font-family="monospace" font-weight="bold" text-anchor="end" transform="rotate(-60, 220.375, 512.4)">
mail
</text>
<rect x="238.0" y="445.02084420833154" width="8.8125" height="52.97915579166839" fill="#7070f8" data-tooltip="1.00x baseline speed (No JIT)"/>
<line x1="238.0" y1="444.99215183743274" x2="246.8125" y2="444.99215183743274" stroke="#000"/>
<line x1="238.0" y1="445.04953657923033" x2="246.8125" y2="445.04953657923033" stroke="#000"/>
<line x1="242.40625" y1="444.99215183743274" x2="242.40625" y2="445.04953657923033" stroke="#000"/>
<rect x="246.8125" y="438.99000514242204" width="8.8125" height="59.00999485757791" fill="orange" data-tooltip="1.11x baseline speed (MJIT)"/>
<line x1="246.8125" y1="438.9484533277083" x2="255.625" y2="438.9484533277083" stroke="#000"/>
<line x1="246.8125" y1="439.03155695713576" x2="255.625" y2="439.03155695713576" stroke="#000"/>
<line x1="251.21875" y1="438.9484533277083" x2="251.21875" y2="439.03155695713576" stroke="#000"/>
<rect x="255.625" y="431.67703417967147" width="8.8125" height="66.3229658203285" fill="green" data-tooltip="1.25x baseline speed (YJIT)"/>
<line x1="255.625" y1="431.60776481715106" x2="264.4375" y2="431.60776481715106" stroke="#000"/>
<line x1="255.625" y1="431.7463035421919" x2="264.4375" y2="431.7463035421919" stroke="#000"/>
<line x1="260.03125" y1="431.60776481715106" x2="260.03125" y2="431.7463035421919" stroke="#000"/>
<line x1="255.625" y1="498.0" x2="255.625" y2="502.79999999999995" stroke="#000"/>
<text x="255.625" y="512.4" fill="#111" font-size="small" font-family="monospace" font-weight="bold" text-anchor="end" transform="rotate(-60, 255.625, 512.4)">
psych-load
</text>
<rect x="273.25" y="445.02084420833154" width="8.8125" height="52.97915579166839" fill="#7070f8" data-tooltip="1.00x baseline speed (No JIT)"/>
<line x1="273.25" y1="444.58814476461237" x2="282.0625" y2="444.58814476461237" stroke="#000"/>
<line x1="273.25" y1="445.4535436520507" x2="282.0625" y2="445.4535436520507" stroke="#000"/>
<line x1="277.65625" y1="444.58814476461237" x2="277.65625" y2="445.4535436520507" stroke="#000"/>
<rect x="282.0625" y="452.54361176088287" width="8.8125" height="45.45638823911706" fill="orange" data-tooltip="0.86x baseline speed (MJIT)"/>
<line x1="282.0625" y1="451.9793174422489" x2="290.875" y2="451.9793174422489" stroke="#000"/>
<line x1="282.0625" y1="453.1079060795169" x2="290.875" y2="453.1079060795169" stroke="#000"/>
<line x1="286.46875" y1="451.9793174422489" x2="286.46875" y2="453.1079060795169" stroke="#000"/>
<rect x="290.875" y="430.9988020023955" width="8.8125" height="67.00119799760444" fill="green" data-tooltip="1.26x baseline speed (YJIT)"/>
<line x1="290.875" y1="430.03012967674067" x2="299.6875" y2="430.03012967674067" stroke="#000"/>
<line x1="290.875" y1="431.96747432805034" x2="299.6875" y2="431.96747432805034" stroke="#000"/>
<line x1="295.28125" y1="430.03012967674067" x2="295.28125" y2="431.96747432805034" stroke="#000"/>
<line x1="290.875" y1="498.0" x2="290.875" y2="502.79999999999995" stroke="#000"/>
<text x="290.875" y="512.4" fill="#111" font-size="small" font-family="monospace" font-weight="bold" text-anchor="end" transform="rotate(-60, 290.875, 512.4)">
railsbench
</text>
<rect x="308.5" y="445.02084420833154" width="8.8125" height="52.97915579166839" fill="#7070f8" data-tooltip="1.00x baseline speed (No JIT)"/>
<line x1="308.5" y1="444.44009525882257" x2="317.3125" y2="444.44009525882257" stroke="#000"/>
<line x1="308.5" y1="445.60159315784045" x2="317.3125" y2="445.60159315784045" stroke="#000"/>
<line x1="312.90625" y1="444.44009525882257" x2="312.90625" y2="445.60159315784045" stroke="#000"/>
<rect x="317.3125" y="416.6917047191828" width="8.8125" height="81.30829528081723" fill="orange" data-tooltip="1.53x baseline speed (MJIT)"/>
<line x1="317.3125" y1="415.5927463242023" x2="326.125" y2="415.5927463242023" stroke="#000"/>
<line x1="317.3125" y1="417.7906631141632" x2="326.125" y2="417.7906631141632" stroke="#000"/>
<line x1="321.71875" y1="415.5927463242023" x2="321.71875" y2="417.7906631141632" stroke="#000"/>
<rect x="326.125" y="429.34650120346186" width="8.8125" height="68.65349879653807" fill="green" data-tooltip="1.30x baseline speed (YJIT)"/>
<line x1="326.125" y1="428.10122472054246" x2="334.9375" y2="428.10122472054246" stroke="#000"/>
<line x1="326.125" y1="430.59177768638125" x2="334.9375" y2="430.59177768638125" stroke="#000"/>
<line x1="330.53125" y1="428.10122472054246" x2="330.53125" y2="430.59177768638125" stroke="#000"/>
<line x1="326.125" y1="498.0" x2="326.125" y2="502.79999999999995" stroke="#000"/>
<text x="326.125" y="512.4" fill="#111" font-size="small" font-family="monospace" font-weight="bold" text-anchor="end" transform="rotate(-60, 326.125, 512.4)">
binarytrees
</text>
<rect x="343.75" y="445.02084420833154" width="8.8125" height="52.97915579166839" fill="#7070f8" data-tooltip="1.00x baseline speed (No JIT)"/>
<line x1="343.75" y1="445.0053993808792" x2="352.5625" y2="445.0053993808792" stroke="#000"/>
<line x1="343.75" y1="445.03628903578385" x2="352.5625" y2="445.03628903578385" stroke="#000"/>
<line x1="348.15625" y1="445.0053993808792" x2="348.15625" y2="445.03628903578385" stroke="#000"/>
<rect x="352.5625" y="431.4576390052154" width="8.8125" height="66.54236099478456" fill="orange" data-tooltip="1.26x baseline speed (MJIT)"/>
<line x1="352.5625" y1="430.8808119638415" x2="361.375" y2="430.8808119638415" stroke="#000"/>
<line x1="352.5625" y1="432.0344660465894" x2="361.375" y2="432.0344660465894" stroke="#000"/>
<line x1="356.96875" y1="430.8808119638415" x2="356.96875" y2="432.0344660465894" stroke="#000"/>
<rect x="361.375" y="418.3852365101266" width="8.8125" height="79.61476348987327" fill="green" data-tooltip="1.50x baseline speed (YJIT)"/>
<line x1="361.375" y1="418.3033149689563" x2="370.1875" y2="418.3033149689563" stroke="#000"/>
<line x1="361.375" y1="418.4671580512969" x2="370.1875" y2="418.4671580512969" stroke="#000"/>
<line x1="365.78125" y1="418.3033149689563" x2="365.78125" y2="418.4671580512969" stroke="#000"/>
<line x1="361.375" y1="498.0" x2="361.375" y2="502.79999999999995" stroke="#000"/>
<text x="361.375" y="512.4" fill="#111" font-size="small" font-family="monospace" font-weight="bold" text-anchor="end" transform="rotate(-60, 361.375, 512.4)">
chunky_png
</text>
<rect x="379.0" y="445.02084420833154" width="8.8125" height="52.97915579166839" fill="#7070f8" data-tooltip="1.00x baseline speed (No JIT)"/>
<line x1="379.0" y1="439.46238112465903" x2="387.8125" y2="439.46238112465903" stroke="#000"/>
<line x1="379.0" y1="450.57930729200405" x2="387.8125" y2="450.57930729200405" stroke="#000"/>
<line x1="383.40625" y1="439.46238112465903" x2="383.40625" y2="450.57930729200405" stroke="#000"/>
<rect x="387.8125" y="444.48144970780777" width="8.8125" height="53.518550292192224" fill="orange" data-tooltip="1.01x baseline speed (MJIT)"/>
<line x1="387.8125" y1="437.4308936822405" x2="396.625" y2="437.4308936822405" stroke="#000"/>
<line x1="387.8125" y1="451.532005733375" x2="396.625" y2="451.532005733375" stroke="#000"/>
<line x1="392.21875" y1="437.4308936822405" x2="392.21875" y2="451.532005733375" stroke="#000"/>
<rect x="396.625" y="455.81937730673945" width="8.8125" height="42.18062269326043" fill="green" data-tooltip="0.80x baseline speed (YJIT)"/>
<line x1="396.625" y1="446.12369685563186" x2="405.4375" y2="446.12369685563186" stroke="#000"/>
<line x1="396.625" y1="465.5150577578471" x2="405.4375" y2="465.5150577578471" stroke="#000"/>
<line x1="401.03125" y1="446.12369685563186" x2="401.03125" y2="465.5150577578471" stroke="#000"/>
<line x1="396.625" y1="498.0" x2="396.625" y2="502.79999999999995" stroke="#000"/>
<text x="396.625" y="512.4" fill="#111" font-size="small" font-family="monospace" font-weight="bold" text-anchor="end" transform="rotate(-60, 396.625, 512.4)">
discourse
</text>
<rect x="414.25" y="445.02084420833154" width="8.8125" height="52.97915579166839" fill="#7070f8" data-tooltip="1.00x baseline speed (No JIT)"/>
<line x1="414.25" y1="444.64821406999573" x2="423.0625" y2="444.64821406999573" stroke="#000"/>
<line x1="414.25" y1="445.39347434666735" x2="423.0625" y2="445.39347434666735" stroke="#000"/>
<line x1="418.65625" y1="444.64821406999573" x2="418.65625" y2="445.39347434666735" stroke="#000"/>
<rect x="423.0625" y="440.33476580897116" width="8.8125" height="57.66523419102882" fill="orange" data-tooltip="1.09x baseline speed (MJIT)"/>
<line x1="423.0625" y1="439.78082091619126" x2="431.875" y2="439.78082091619126" stroke="#000"/>
<line x1="423.0625" y1="440.888710701751" x2="431.875" y2="440.888710701751" stroke="#000"/>
<line x1="427.46875" y1="439.78082091619126" x2="427.46875" y2="440.888710701751" stroke="#000"/>
<rect x="431.875" y="439.79948163004417" width="8.8125" height="58.200518369955795" fill="green" data-tooltip="1.10x baseline speed (YJIT)"/>
<line x1="431.875" y1="439.16746176783283" x2="440.6875" y2="439.16746176783283" stroke="#000"/>
<line x1="431.875" y1="440.4315014922555" x2="440.6875" y2="440.4315014922555" stroke="#000"/>
<line x1="436.28125" y1="439.16746176783283" x2="436.28125" y2="440.4315014922555" stroke="#000"/>
<line x1="431.875" y1="498.0" x2="431.875" y2="502.79999999999995" stroke="#000"/>
<text x="431.875" y="512.4" fill="#111" font-size="small" font-family="monospace" font-weight="bold" text-anchor="end" transform="rotate(-60, 431.875, 512.4)">
erubi
</text>
<rect x="449.5" y="445.02084420833154" width="8.8125" height="52.97915579166839" fill="#7070f8" data-tooltip="1.00x baseline speed (No JIT)"/>
<line x1="449.5" y1="443.754878837095" x2="458.3125" y2="443.754878837095" stroke="#000"/>
<line x1="449.5" y1="446.28680957956806" x2="458.3125" y2="446.28680957956806" stroke="#000"/>
<line x1="453.90625" y1="443.754878837095" x2="453.90625" y2="446.28680957956806" stroke="#000"/>
<rect x="458.3125" y="447.2438282982672" width="8.8125" height="50.75617170173273" fill="orange" data-tooltip="0.96x baseline speed (MJIT)"/>
<line x1="458.3125" y1="444.97211740896535" x2="467.125" y2="444.97211740896535" stroke="#000"/>
<line x1="458.3125" y1="449.5155391875692" x2="467.125" y2="449.5155391875692" stroke="#000"/>
<line x1="462.71875" y1="444.97211740896535" x2="462.71875" y2="449.5155391875692" stroke="#000"/>
<rect x="467.125" y="425.44625924839534" width="8.8125" height="72.55374075160452" fill="green" data-tooltip="1.37x baseline speed (YJIT)"/>
<line x1="467.125" y1="422.54356124876955" x2="475.9375" y2="422.54356124876955" stroke="#000"/>
<line x1="467.125" y1="428.3489572480212" x2="475.9375" y2="428.3489572480212" stroke="#000"/>
<line x1="471.53125" y1="422.54356124876955" x2="471.53125" y2="428.3489572480212" stroke="#000"/>
<line x1="467.125" y1="498.0" x2="467.125" y2="502.79999999999995" stroke="#000"/>
<text x="467.125" y="512.4" fill="#111" font-size="small" font-family="monospace" font-weight="bold" text-anchor="end" transform="rotate(-60, 467.125, 512.4)">
erubi_rails
</text>
<rect x="484.75" y="445.02084420833154" width="8.8125" height="52.97915579166839" fill="#7070f8" data-tooltip="1.00x baseline speed (No JIT)"/>
<line x1="484.75" y1="444.8764141720897" x2="493.5625" y2="444.8764141720897" stroke="#000"/>
<line x1="484.75" y1="445.16527424457337" x2="493.5625" y2="445.16527424457337" stroke="#000"/>
<line x1="489.15625" y1="444.8764141720897" x2="489.15625" y2="445.16527424457337" stroke="#000"/>
<rect x="493.5625" y="407.0162664196487" width="8.8125" height="90.98373358035133" fill="orange" data-tooltip="1.72x baseline speed (MJIT)"/>
<line x1="493.5625" y1="406.743449902072" x2="502.375" y2="406.743449902072" stroke="#000"/>
<line x1="493.5625" y1="407.2890829372253" x2="502.375" y2="407.2890829372253" stroke="#000"/>
<line x1="497.96875" y1="406.743449902072" x2="497.96875" y2="407.2890829372253" stroke="#000"/>
<rect x="502.375" y="445.98810036052055" width="8.8125" height="52.011899639479445" fill="green" data-tooltip="0.98x baseline speed (YJIT)"/>
<line x1="502.375" y1="445.83185143746704" x2="511.1875" y2="445.83185143746704" stroke="#000"/>
<line x1="502.375" y1="446.144349283574" x2="511.1875" y2="446.144349283574" stroke="#000"/>
<line x1="506.78124999999994" y1="445.83185143746704" x2="506.78124999999994" y2="446.144349283574" stroke="#000"/>
<line x1="502.375" y1="498.0" x2="502.375" y2="502.79999999999995" stroke="#000"/>
<text x="502.375" y="512.4" fill="#111" font-size="small" font-family="monospace" font-weight="bold" text-anchor="end" transform="rotate(-60, 502.375, 512.4)">
fannkuchredux
</text>
<rect x="519.9999999999999" y="445.02084420833154" width="8.8125" height="52.97915579166839" fill="#7070f8" data-tooltip="1.00x baseline speed (No JIT)"/>
<line x1="519.9999999999999" y1="444.443768720256" x2="528.8124999999999" y2="444.443768720256" stroke="#000"/>
<line x1="519.9999999999999" y1="445.597919696407" x2="528.8124999999999" y2="445.597919696407" stroke="#000"/>
<line x1="524.4062499999999" y1="444.443768720256" x2="524.4062499999999" y2="445.597919696407" stroke="#000"/>
<rect x="528.8124999999999" y="433.1198977421482" width="8.8125" height="64.88010225785173" fill="orange" data-tooltip="1.22x baseline speed (MJIT)"/>
<line x1="528.8124999999999" y1="431.9959740756789" x2="537.6249999999999" y2="431.9959740756789" stroke="#000"/>
<line x1="528.8124999999999" y1="434.2438214086175" x2="537.6249999999999" y2="434.2438214086175" stroke="#000"/>
<line x1="533.2187499999999" y1="431.9959740756789" x2="533.2187499999999" y2="434.2438214086175" stroke="#000"/>
<rect x="537.6249999999999" y="427.38949933715605" width="8.8125" height="70.61050066284386" fill="green" data-tooltip="1.33x baseline speed (YJIT)"/>
<line x1="537.6249999999999" y1="426.5953638870349" x2="546.4374999999999" y2="426.5953638870349" stroke="#000"/>
<line x1="537.6249999999999" y1="428.1836347872772" x2="546.4374999999999" y2="428.1836347872772" stroke="#000"/>
<line x1="542.0312499999999" y1="426.5953638870349" x2="542.0312499999999" y2="428.1836347872772" stroke="#000"/>
<line x1="537.6249999999999" y1="498.0" x2="537.6249999999999" y2="502.79999999999995" stroke="#000"/>
<text x="537.6249999999999" y="512.4" fill="#111" font-size="small" font-family="monospace" font-weight="bold" text-anchor="end" transform="rotate(-60, 537.6249999999999, 512.4)">
lee
</text>
<rect x="555.2499999999999" y="445.02084420833154" width="8.8125" height="52.97915579166839" fill="#7070f8" data-tooltip="1.00x baseline speed (No JIT)"/>
<line x1="555.2499999999999" y1="444.97173192409423" x2="564.0624999999999" y2="444.97173192409423" stroke="#000"/>
<line x1="555.2499999999999" y1="445.0699564925688" x2="564.0624999999999" y2="445.0699564925688" stroke="#000"/>
<line x1="559.6562499999999" y1="444.97173192409423" x2="559.6562499999999" y2="445.0699564925688" stroke="#000"/>
<rect x="564.0624999999999" y="410.41487100844785" width="8.8125" height="87.58512899155207" fill="orange" data-tooltip="1.65x baseline speed (MJIT)"/>
<line x1="564.0624999999999" y1="410.3203162331137" x2="572.8749999999999" y2="410.3203162331137" stroke="#000"/>
<line x1="564.0624999999999" y1="410.5094257837819" x2="572.8749999999999" y2="410.5094257837819" stroke="#000"/>
<line x1="568.4687499999999" y1="410.3203162331137" x2="568.4687499999999" y2="410.5094257837819" stroke="#000"/>
<rect x="572.8749999999999" y="426.74450714732285" width="8.8125" height="71.25549285267704" fill="green" data-tooltip="1.34x baseline speed (YJIT)"/>
<line x1="572.8749999999999" y1="426.4209780660207" x2="581.6874999999999" y2="426.4209780660207" stroke="#000"/>
<line x1="572.8749999999999" y1="427.06803622862503" x2="581.6874999999999" y2="427.06803622862503" stroke="#000"/>
<line x1="577.2812499999999" y1="426.4209780660207" x2="577.2812499999999" y2="427.06803622862503" stroke="#000"/>
<line x1="572.8749999999999" y1="498.0" x2="572.8749999999999" y2="502.79999999999995" stroke="#000"/>
<text x="572.8749999999999" y="512.4" fill="#111" font-size="small" font-family="monospace" font-weight="bold" text-anchor="end" transform="rotate(-60, 572.8749999999999, 512.4)">
nbody
</text>
<rect x="590.4999999999999" y="445.02084420833154" width="8.8125" height="52.97915579166839" fill="#7070f8" data-tooltip="1.00x baseline speed (No JIT)"/>
<line x1="590.4999999999999" y1="444.79011388147194" x2="599.3124999999999" y2="444.79011388147194" stroke="#000"/>
<line x1="590.4999999999999" y1="445.2515745351911" x2="599.3124999999999" y2="445.2515745351911" stroke="#000"/>
<line x1="594.9062499999999" y1="444.79011388147194" x2="594.9062499999999" y2="445.2515745351911" stroke="#000"/>
<rect x="599.3124999999999" y="372.46382096851426" width="8.8125" height="125.53617903148564" fill="orange" data-tooltip="2.37x baseline speed (MJIT)"/>
<line x1="599.3124999999999" y1="371.4984849965546" x2="608.1249999999999" y2="371.4984849965546" stroke="#000"/>
<line x1="599.3124999999999" y1="373.42915694047394" x2="608.1249999999999" y2="373.42915694047394" stroke="#000"/>
<line x1="603.7187499999999" y1="371.4984849965546" x2="603.7187499999999" y2="373.42915694047394" stroke="#000"/>
<rect x="608.1249999999999" y="408.7122255464363" width="8.8125" height="89.28777445356359" fill="green" data-tooltip="1.69x baseline speed (YJIT)"/>
<line x1="608.1249999999999" y1="408.05891224346385" x2="616.9374999999999" y2="408.05891224346385" stroke="#000"/>
<line x1="608.1249999999999" y1="409.3655388494087" x2="616.9374999999999" y2="409.3655388494087" stroke="#000"/>
<line x1="612.5312499999999" y1="408.05891224346385" x2="612.5312499999999" y2="409.3655388494087" stroke="#000"/>
<line x1="608.1249999999999" y1="498.0" x2="608.1249999999999" y2="502.79999999999995" stroke="#000"/>
<text x="608.1249999999999" y="512.4" fill="#111" font-size="small" font-family="monospace" font-weight="bold" text-anchor="end" transform="rotate(-60, 608.1249999999999, 512.4)">
optcarrot
</text>
<rect x="625.7499999999999" y="445.02084420833154" width="8.8125" height="52.97915579166839" fill="#7070f8" data-tooltip="1.00x baseline speed (No JIT)"/>
<line x1="625.7499999999999" y1="444.81381111556516" x2="634.5624999999999" y2="444.81381111556516" stroke="#000"/>
<line x1="625.7499999999999" y1="445.22787730109786" x2="634.5624999999999" y2="445.22787730109786" stroke="#000"/>
<line x1="630.1562499999999" y1="444.81381111556516" x2="630.1562499999999" y2="445.22787730109786" stroke="#000"/>
<rect x="634.5624999999999" y="430.0112053171241" width="8.8125" height="67.98879468287579" fill="orange" data-tooltip="1.28x baseline speed (MJIT)"/>
<line x1="634.5624999999999" y1="429.02283621084644" x2="643.3749999999999" y2="429.02283621084644" stroke="#000"/>
<line x1="634.5624999999999" y1="430.9995744234018" x2="643.3749999999999" y2="430.9995744234018" stroke="#000"/>
<line x1="638.9687499999999" y1="429.02283621084644" x2="638.9687499999999" y2="430.9995744234018" stroke="#000"/>
<rect x="643.3749999999999" y="406.53710948863693" width="8.8125" height="91.46289051136309" fill="green" data-tooltip="1.73x baseline speed (YJIT)"/>
<line x1="643.3749999999999" y1="405.999978963752" x2="652.1874999999999" y2="405.999978963752" stroke="#000"/>
<line x1="643.3749999999999" y1="407.07424001352183" x2="652.1874999999999" y2="407.07424001352183" stroke="#000"/>
<line x1="647.7812499999999" y1="405.999978963752" x2="647.7812499999999" y2="407.07424001352183" stroke="#000"/>
<line x1="643.3749999999999" y1="498.0" x2="643.3749999999999" y2="502.79999999999995" stroke="#000"/>
<text x="643.3749999999999" y="512.4" fill="#111" font-size="small" font-family="monospace" font-weight="bold" text-anchor="end" transform="rotate(-60, 643.3749999999999, 512.4)">
rubykon
</text>
<rect x="660.9999999999999" y="445.02084420833154" width="8.8125" height="52.97915579166839" fill="#7070f8" data-tooltip="1.00x baseline speed (No JIT)"/>
<line x1="660.9999999999999" y1="445.00160098080187" x2="669.8124999999999" y2="445.00160098080187" stroke="#000"/>
<line x1="660.9999999999999" y1="445.04008743586115" x2="669.8124999999999" y2="445.04008743586115" stroke="#000"/>
<line x1="665.4062499999999" y1="445.00160098080187" x2="665.4062499999999" y2="445.04008743586115" stroke="#000"/>
<rect x="669.8124999999999" y="461.6692622965623" width="8.8125" height="36.33073770343766" fill="orange" data-tooltip="0.69x baseline speed (MJIT)"/>
<line x1="669.8124999999999" y1="460.2648152123956" x2="678.6249999999999" y2="460.2648152123956" stroke="#000"/>
<line x1="669.8124999999999" y1="463.073709380729" x2="678.6249999999999" y2="463.073709380729" stroke="#000"/>
<line x1="674.2187499999999" y1="460.2648152123956" x2="674.2187499999999" y2="463.073709380729" stroke="#000"/>
<rect x="678.6249999999999" y="149.49151328727658" width="8.8125" height="348.50848671272337" fill="green" data-tooltip="6.58x baseline speed (YJIT)"/>
<line x1="678.6249999999999" y1="148.9073912322646" x2="687.4374999999999" y2="148.9073912322646" stroke="#000"/>
<line x1="678.6249999999999" y1="150.07563534228856" x2="687.4374999999999" y2="150.07563534228856" stroke="#000"/>
<line x1="683.0312499999999" y1="148.9073912322646" x2="683.0312499999999" y2="150.07563534228856" stroke="#000"/>
<line x1="678.6249999999999" y1="498.0" x2="678.6249999999999" y2="502.79999999999995" stroke="#000"/>
<text x="678.6249999999999" y="512.4" fill="#111" font-size="small" font-family="monospace" font-weight="bold" text-anchor="end" transform="rotate(-60, 678.6249999999999, 512.4)">
30k_ifelse
</text>
<rect x="696.2499999999999" y="445.02084420833154" width="8.8125" height="52.97915579166839" fill="#7070f8" data-tooltip="1.00x baseline speed (No JIT)"/>
<line x1="696.2499999999999" y1="445.0172283829671" x2="705.0624999999999" y2="445.0172283829671" stroke="#000"/>
<line x1="696.2499999999999" y1="445.0244600336959" x2="705.0624999999999" y2="445.0244600336959" stroke="#000"/>
<line x1="700.6562499999999" y1="445.0172283829671" x2="700.6562499999999" y2="445.0244600336959" stroke="#000"/>
<rect x="705.0624999999999" y="463.8688172465074" width="8.8125" height="34.131182753492574" fill="orange" data-tooltip="0.64x baseline speed (MJIT)"/>
<line x1="705.0624999999999" y1="458.59111432928745" x2="713.8749999999999" y2="458.59111432928745" stroke="#000"/>
<line x1="705.0624999999999" y1="469.14652016372736" x2="713.8749999999999" y2="469.14652016372736" stroke="#000"/>
<line x1="709.4687499999999" y1="458.59111432928745" x2="709.4687499999999" y2="469.14652016372736" stroke="#000"/>
<rect x="713.8749999999999" y="100.19999999999999" width="8.8125" height="397.79999999999995" fill="green" data-tooltip="7.51x baseline speed (YJIT)"/>
<line x1="713.8749999999999" y1="99.96702683989902" x2="722.6874999999999" y2="99.96702683989902" stroke="#000"/>
<line x1="713.8749999999999" y1="100.43297316010096" x2="722.6874999999999" y2="100.43297316010096" stroke="#000"/>
<line x1="718.2812499999999" y1="99.96702683989902" x2="718.2812499999999" y2="100.43297316010096" stroke="#000"/>
<line x1="713.8749999999999" y1="498.0" x2="713.8749999999999" y2="502.79999999999995" stroke="#000"/>
<text x="713.8749999999999" y="512.4" fill="#111" font-size="small" font-family="monospace" font-weight="bold" text-anchor="end" transform="rotate(-60, 713.8749999999999, 512.4)">
30k_methods
</text>
<rect x="731.4999999999999" y="445.02084420833154" width="8.8125" height="52.97915579166839" fill="#7070f8" data-tooltip="1.00x baseline speed (No JIT)"/>
<line x1="731.4999999999999" y1="444.90813096825264" x2="740.3124999999999" y2="444.90813096825264" stroke="#000"/>
<line x1="731.4999999999999" y1="445.1335574484104" x2="740.3124999999999" y2="445.1335574484104" stroke="#000"/>
<line x1="735.9062499999999" y1="444.90813096825264" x2="735.9062499999999" y2="445.1335574484104" stroke="#000"/>
<rect x="740.3124999999999" y="416.49870850057897" width="8.8125" height="81.50129149942103" fill="orange" data-tooltip="1.54x baseline speed (MJIT)"/>
<line x1="740.3124999999999" y1="416.26761953333767" x2="749.1249999999999" y2="416.26761953333767" stroke="#000"/>
<line x1="740.3124999999999" y1="416.7297974678202" x2="749.1249999999999" y2="416.7297974678202" stroke="#000"/>
<line x1="744.7187499999999" y1="416.26761953333767" x2="744.7187499999999" y2="416.7297974678202" stroke="#000"/>
<rect x="749.1249999999999" y="380.65259811936534" width="8.8125" height="117.34740188063455" fill="green" data-tooltip="2.21x baseline speed (YJIT)"/>
<line x1="749.1249999999999" y1="379.58301465926314" x2="757.9374999999999" y2="379.58301465926314" stroke="#000"/>
<line x1="749.1249999999999" y1="381.7221815794676" x2="757.9374999999999" y2="381.7221815794676" stroke="#000"/>
<line x1="753.5312499999999" y1="379.58301465926314" x2="753.5312499999999" y2="381.7221815794676" stroke="#000"/>
<line x1="749.1249999999999" y1="498.0" x2="749.1249999999999" y2="502.79999999999995" stroke="#000"/>
<text x="749.1249999999999" y="512.4" fill="#111" font-size="small" font-family="monospace" font-weight="bold" text-anchor="end" transform="rotate(-60, 749.1249999999999, 512.4)">
cfunc_itself
</text>
<rect x="766.7499999999999" y="445.02084420833154" width="8.8125" height="52.97915579166839" fill="#7070f8" data-tooltip="1.00x baseline speed (No JIT)"/>
<line x1="766.7499999999999" y1="444.97363002546984" x2="775.5624999999999" y2="444.97363002546984" stroke="#000"/>
<line x1="766.7499999999999" y1="445.06805839119323" x2="775.5624999999999" y2="445.06805839119323" stroke="#000"/>
<line x1="771.1562499999999" y1="444.97363002546984" x2="771.1562499999999" y2="445.06805839119323" stroke="#000"/>
<rect x="775.5624999999999" y="349.3836239941977" width="8.8125" height="148.61637600580232" fill="orange" data-tooltip="2.81x baseline speed (MJIT)"/>
<line x1="775.5624999999999" y1="349.05990367106574" x2="784.3749999999999" y2="349.05990367106574" stroke="#000"/>
<line x1="775.5624999999999" y1="349.7073443173296" x2="784.3749999999999" y2="349.7073443173296" stroke="#000"/>
<line x1="779.9687499999999" y1="349.05990367106574" x2="779.9687499999999" y2="349.7073443173296" stroke="#000"/>
<rect x="784.3749999999999" y="293.0053135733047" width="8.8125" height="204.9946864266952" fill="green" data-tooltip="3.87x baseline speed (YJIT)"/>
<line x1="784.3749999999999" y1="291.85768055313997" x2="793.1874999999999" y2="291.85768055313997" stroke="#000"/>
<line x1="784.3749999999999" y1="294.1529465934695" x2="793.1874999999999" y2="294.1529465934695" stroke="#000"/>
<line x1="788.7812499999999" y1="291.85768055313997" x2="788.7812499999999" y2="294.1529465934695" stroke="#000"/>
<line x1="784.3749999999999" y1="498.0" x2="784.3749999999999" y2="502.79999999999995" stroke="#000"/>
<text x="784.3749999999999" y="512.4" fill="#111" font-size="small" font-family="monospace" font-weight="bold" text-anchor="end" transform="rotate(-60, 784.3749999999999, 512.4)">
fib
</text>
<rect x="801.9999999999999" y="445.02084420833154" width="8.8125" height="52.97915579166839" fill="#7070f8" data-tooltip="1.00x baseline speed (No JIT)"/>
<line x1="801.9999999999999" y1="444.78930212273656" x2="810.8124999999999" y2="444.78930212273656" stroke="#000"/>
<line x1="801.9999999999999" y1="445.2523862939265" x2="810.8124999999999" y2="445.2523862939265" stroke="#000"/>
<line x1="806.4062499999999" y1="444.78930212273656" x2="806.4062499999999" y2="445.2523862939265" stroke="#000"/>
<rect x="810.8124999999999" y="282.5939196183873" width="8.8125" height="215.40608038161264" fill="orange" data-tooltip="4.07x baseline speed (MJIT)"/>
<line x1="810.8124999999999" y1="142.5832687313917" x2="819.6249999999999" y2="142.5832687313917" stroke="#000"/>
<line x1="810.8124999999999" y1="422.6045705053829" x2="819.6249999999999" y2="422.6045705053829" stroke="#000"/>
<line x1="815.2187499999999" y1="142.5832687313917" x2="815.2187499999999" y2="422.6045705053829" stroke="#000"/>
<rect x="819.6249999999999" y="366.67277073434826" width="8.8125" height="131.32722926565168" fill="green" data-tooltip="2.48x baseline speed (YJIT)"/>
<line x1="819.6249999999999" y1="365.67616238549914" x2="828.4374999999999" y2="365.67616238549914" stroke="#000"/>
<line x1="819.6249999999999" y1="367.66937908319744" x2="828.4374999999999" y2="367.66937908319744" stroke="#000"/>
<line x1="824.0312499999999" y1="365.67616238549914" x2="824.0312499999999" y2="367.66937908319744" stroke="#000"/>
<line x1="819.6249999999999" y1="498.0" x2="819.6249999999999" y2="502.79999999999995" stroke="#000"/>
<text x="819.6249999999999" y="512.4" fill="#111" font-size="small" font-family="monospace" font-weight="bold" text-anchor="end" transform="rotate(-60, 819.6249999999999, 512.4)">
getivar
</text>
<rect x="837.2499999999999" y="445.02084420833154" width="8.8125" height="52.97915579166839" fill="#7070f8" data-tooltip="1.00x baseline speed (No JIT)"/>
<line x1="837.2499999999999" y1="444.98188838012794" x2="846.0624999999999" y2="444.98188838012794" stroke="#000"/>
<line x1="837.2499999999999" y1="445.0598000365351" x2="846.0624999999999" y2="445.0598000365351" stroke="#000"/>
<line x1="841.6562499999999" y1="444.98188838012794" x2="841.6562499999999" y2="445.0598000365351" stroke="#000"/>
<rect x="846.0624999999999" y="431.77755523707805" width="8.8125" height="66.2224447629219" fill="orange" data-tooltip="1.25x baseline speed (MJIT)"/>
<line x1="846.0624999999999" y1="431.2349459808312" x2="854.8749999999999" y2="431.2349459808312" stroke="#000"/>
<line x1="846.0624999999999" y1="432.3201644933249" x2="854.8749999999999" y2="432.3201644933249" stroke="#000"/>
<line x1="850.4687499999999" y1="431.2349459808312" x2="850.4687499999999" y2="432.3201644933249" stroke="#000"/>
<rect x="854.8749999999999" y="219.02995638612182" width="8.8125" height="278.97004361387815" fill="green" data-tooltip="5.27x baseline speed (YJIT)"/>
<line x1="854.8749999999999" y1="217.04855790577884" x2="863.6874999999999" y2="217.04855790577884" stroke="#000"/>
<line x1="854.8749999999999" y1="221.01135486646479" x2="863.6874999999999" y2="221.01135486646479" stroke="#000"/>
<line x1="859.2812499999999" y1="217.04855790577884" x2="859.2812499999999" y2="221.01135486646479" stroke="#000"/>
<line x1="854.8749999999999" y1="498.0" x2="854.8749999999999" y2="502.79999999999995" stroke="#000"/>
<text x="854.8749999999999" y="512.4" fill="#111" font-size="small" font-family="monospace" font-weight="bold" text-anchor="end" transform="rotate(-60, 854.8749999999999, 512.4)">
keyword_args
</text>
<rect x="872.4999999999999" y="445.02084420833154" width="8.8125" height="52.97915579166839" fill="#7070f8" data-tooltip="1.00x baseline speed (No JIT)"/>
<line x1="872.4999999999999" y1="444.97314995505474" x2="881.3125" y2="444.97314995505474" stroke="#000"/>
<line x1="872.4999999999999" y1="445.0685384616083" x2="881.3125" y2="445.0685384616083" stroke="#000"/>
<line x1="876.9062499999999" y1="444.97314995505474" x2="876.9062499999999" y2="445.0685384616083" stroke="#000"/>
<rect x="881.3125" y="439.4234189042911" width="8.8125" height="58.5765810957088" fill="orange" data-tooltip="1.11x baseline speed (MJIT)"/>
<line x1="881.3125" y1="438.9151601945377" x2="890.125" y2="438.9151601945377" stroke="#000"/>
<line x1="881.3125" y1="439.93167761404453" x2="890.125" y2="439.93167761404453" stroke="#000"/>
<line x1="885.7187499999999" y1="438.9151601945377" x2="885.7187499999999" y2="439.93167761404453" stroke="#000"/>
<rect x="890.125" y="418.9232682879168" width="8.8125" height="79.0767317120832" fill="green" data-tooltip="1.49x baseline speed (YJIT)"/>
<line x1="890.125" y1="418.6174534199191" x2="898.9375" y2="418.6174534199191" stroke="#000"/>
<line x1="890.125" y1="419.22908315591445" x2="898.9375" y2="419.22908315591445" stroke="#000"/>
<line x1="894.5312499999999" y1="418.6174534199191" x2="894.5312499999999" y2="419.22908315591445" stroke="#000"/>
<line x1="890.125" y1="498.0" x2="890.125" y2="502.79999999999995" stroke="#000"/>
<text x="890.125" y="512.4" fill="#111" font-size="small" font-family="monospace" font-weight="bold" text-anchor="end" transform="rotate(-60, 890.125, 512.4)">
respond_to
</text>
<rect x="907.75" y="445.02084420833154" width="8.8125" height="52.97915579166839" fill="#7070f8" data-tooltip="1.00x baseline speed (No JIT)"/>
<line x1="907.75" y1="444.80703100201544" x2="916.5625" y2="444.80703100201544" stroke="#000"/>
<line x1="907.75" y1="445.2346574146476" x2="916.5625" y2="445.2346574146476" stroke="#000"/>
<line x1="912.1562499999999" y1="444.80703100201544" x2="912.1562499999999" y2="445.2346574146476" stroke="#000"/>
<rect x="916.5625" y="128.87221273034115" width="8.8125" height="369.1277872696588" fill="orange" data-tooltip="6.97x baseline speed (MJIT)"/>
<line x1="916.5625" y1="-278.81924563343193" x2="925.375" y2="-278.81924563343193" stroke="#000"/>
<line x1="916.5625" y1="536.5636710941142" x2="925.375" y2="536.5636710941142" stroke="#000"/>
<line x1="920.9687499999999" y1="-278.81924563343193" x2="920.9687499999999" y2="536.5636710941142" stroke="#000"/>
<rect x="925.375" y="413.15959447439485" width="8.8125" height="84.84040552560514" fill="green" data-tooltip="1.60x baseline speed (YJIT)"/>
<line x1="925.375" y1="412.50313417762874" x2="934.1875" y2="412.50313417762874" stroke="#000"/>
<line x1="925.375" y1="413.8160547711609" x2="934.1875" y2="413.8160547711609" stroke="#000"/>
<line x1="929.7812499999999" y1="412.50313417762874" x2="929.7812499999999" y2="413.8160547711609" stroke="#000"/>
<line x1="925.375" y1="498.0" x2="925.375" y2="502.79999999999995" stroke="#000"/>
<text x="925.375" y="512.4" fill="#111" font-size="small" font-family="monospace" font-weight="bold" text-anchor="end" transform="rotate(-60, 925.375, 512.4)">
setivar
</text>
</svg>