<svg viewBox="0 0 1000 600" xmlns="http://www.w3.org/2000/svg" xmlns:xlink="http://www.w3.org/1999/xlink" width="100%" height="100%">

<rect x="50.0" y="30.0" width="940.0" height="467.99999999999994" stroke="#000" fill="#EEE"/>
<line x1="42.0" y1="497.9999999999999" x2="50.0" y2="497.9999999999999" stroke="#000"/>
<text x="26.000000000000004" y="497.9999999999999" text-anchor="end" font-weight="bold" font-size="small" fill="#111">
0.0
</text>
<line x1="42.0" y1="399.9072945531446" x2="50.0" y2="399.9072945531446" stroke="#000"/>
<text x="26.000000000000004" y="399.9072945531446" text-anchor="end" font-weight="bold" font-size="small" fill="#111">
2.0
</text>
<line x1="42.0" y1="301.81458910628925" x2="50.0" y2="301.81458910628925" stroke="#000"/>
<text x="26.000000000000004" y="301.81458910628925" text-anchor="end" font-weight="bold" font-size="small" fill="#111">
4.0
</text>
<line x1="42.0" y1="203.72188365943381" x2="50.0" y2="203.72188365943381" stroke="#000"/>
<text x="26.000000000000004" y="203.72188365943381" text-anchor="end" font-weight="bold" font-size="small" fill="#111">
6.0
</text>
<line x1="42.0" y1="105.62917821257844" x2="50.0" y2="105.62917821257844" stroke="#000"/>
<text x="26.000000000000004" y="105.62917821257844" text-anchor="end" font-weight="bold" font-size="small" fill="#111">
8.0
</text>
<rect x="197.99999999999997" y="36.00000000000001" width="80.0" height="18.0" fill="#7070f8" stroke="#888"/>
<text x="238.0" y="52.50000000000001" font-size="small" text-anchor="middle" font-weight="bold" fill="#EEE">
No JIT
</text>
<rect x="479.99999999999994" y="36.00000000000001" width="80.0" height="18.0" fill="orange" stroke="#888"/>
<text x="519.9999999999999" y="52.50000000000001" font-size="small" text-anchor="middle" font-weight="bold" fill="#EEE">
MJIT3.0
</text>
<rect x="761.9999999999999" y="36.00000000000001" width="80.0" height="18.0" fill="green" stroke="#888"/>
<text x="801.9999999999999" y="52.50000000000001" font-size="small" text-anchor="middle" font-weight="bold" fill="#EEE">
YJIT
</text>
<rect x="97.0" y="448.95364727657227" width="26.4375" height="49.04635272342769" fill="#7070f8" data-tooltip="1.00x baseline speed (No JIT)"/>
<line x1="97.0" y1="447.0540086134291" x2="123.4375" y2="447.0540086134291" stroke="#000"/>
<line x1="97.0" y1="450.8532859397154" x2="123.4375" y2="450.8532859397154" stroke="#000"/>
<line x1="110.21875" y1="447.0540086134291" x2="110.21875" y2="450.8532859397154" stroke="#000"/>
<rect x="123.4375" y="446.2391251196164" width="26.4375" height="51.76087488038348" fill="orange" data-tooltip="1.06x baseline speed (MJIT3.0)"/>
<line x1="123.4375" y1="444.2197019897547" x2="149.875" y2="444.2197019897547" stroke="#000"/>
<line x1="123.4375" y1="448.2585482494781" x2="149.875" y2="448.2585482494781" stroke="#000"/>
<line x1="136.65625" y1="444.2197019897547" x2="136.65625" y2="448.2585482494781" stroke="#000"/>
<rect x="149.875" y="148.6543552651446" width="26.4375" height="349.3456447348553" fill="green" data-tooltip="7.12x baseline speed (YJIT)"/>
<line x1="149.875" y1="135.11096010466275" x2="176.3125" y2="135.11096010466275" stroke="#000"/>
<line x1="149.875" y1="162.19775042562648" x2="176.3125" y2="162.19775042562648" stroke="#000"/>
<line x1="163.09375" y1="135.11096010466275" x2="163.09375" y2="162.19775042562648" stroke="#000"/>
<line x1="149.875" y1="498.0" x2="149.875" y2="502.79999999999995" stroke="#000"/>
<text x="149.875" y="512.4" fill="#111" font-size="small" font-family="monospace" font-weight="bold" text-anchor="end" transform="rotate(-60, 149.875, 512.4)">
30k_ifelse
</text>
<rect x="202.75" y="448.95364727657227" width="26.4375" height="49.04635272342769" fill="#7070f8" data-tooltip="1.00x baseline speed (No JIT)"/>
<line x1="202.75" y1="448.139504694134" x2="229.1875" y2="448.139504694134" stroke="#000"/>
<line x1="202.75" y1="449.7677898590105" x2="229.1875" y2="449.7677898590105" stroke="#000"/>
<line x1="215.96875" y1="448.139504694134" x2="215.96875" y2="449.7677898590105" stroke="#000"/>
<rect x="229.1875" y="449.0717703166324" width="26.4375" height="48.92822968336751" fill="orange" data-tooltip="1.00x baseline speed (MJIT3.0)"/>
<line x1="229.1875" y1="448.25308502953436" x2="255.625" y2="448.25308502953436" stroke="#000"/>
<line x1="229.1875" y1="449.8904556037304" x2="255.625" y2="449.8904556037304" stroke="#000"/>
<line x1="242.40625" y1="448.25308502953436" x2="242.40625" y2="449.8904556037304" stroke="#000"/>
<rect x="255.625" y="100.19999999999999" width="26.4375" height="397.79999999999995" fill="green" data-tooltip="8.11x baseline speed (YJIT)"/>
<line x1="255.625" y1="93.59486914353452" x2="282.0625" y2="93.59486914353452" stroke="#000"/>
<line x1="255.625" y1="106.80513085646545" x2="282.0625" y2="106.80513085646545" stroke="#000"/>
<line x1="268.84375" y1="93.59486914353452" x2="268.84375" y2="106.80513085646545" stroke="#000"/>
<line x1="255.625" y1="498.0" x2="255.625" y2="502.79999999999995" stroke="#000"/>
<text x="255.625" y="512.4" fill="#111" font-size="small" font-family="monospace" font-weight="bold" text-anchor="end" transform="rotate(-60, 255.625, 512.4)">
30k_methods
</text>
<rect x="308.5" y="448.95364727657227" width="26.4375" height="49.04635272342769" fill="#7070f8" data-tooltip="1.00x baseline speed (No JIT)"/>
<line x1="308.5" y1="448.858589324739" x2="334.9375" y2="448.858589324739" stroke="#000"/>
<line x1="308.5" y1="449.04870522840554" x2="334.9375" y2="449.04870522840554" stroke="#000"/>
<line x1="321.71875" y1="448.858589324739" x2="321.71875" y2="449.04870522840554" stroke="#000"/>
<rect x="334.9375" y="417.3160891283508" width="26.4375" height="80.68391087164915" fill="orange" data-tooltip="1.65x baseline speed (MJIT3.0)"/>
<line x1="334.9375" y1="417.104342597599" x2="361.375" y2="417.104342597599" stroke="#000"/>
<line x1="334.9375" y1="417.5278356591026" x2="361.375" y2="417.5278356591026" stroke="#000"/>
<line x1="348.15625" y1="417.104342597599" x2="348.15625" y2="417.5278356591026" stroke="#000"/>
<rect x="361.375" y="379.3078359539162" width="26.4375" height="118.69216404608378" fill="green" data-tooltip="2.42x baseline speed (YJIT)"/>
<line x1="361.375" y1="378.9134757872047" x2="387.8125" y2="378.9134757872047" stroke="#000"/>
<line x1="361.375" y1="379.7021961206277" x2="387.8125" y2="379.7021961206277" stroke="#000"/>
<line x1="374.59375" y1="378.9134757872047" x2="374.59375" y2="379.7021961206277" stroke="#000"/>
<line x1="361.375" y1="498.0" x2="361.375" y2="502.79999999999995" stroke="#000"/>
<text x="361.375" y="512.4" fill="#111" font-size="small" font-family="monospace" font-weight="bold" text-anchor="end" transform="rotate(-60, 361.375, 512.4)">
cfunc_itself
</text>
<rect x="414.25" y="448.95364727657227" width="26.4375" height="49.04635272342769" fill="#7070f8" data-tooltip="1.00x baseline speed (No JIT)"/>
<line x1="414.25" y1="448.9008680924219" x2="440.6875" y2="448.9008680924219" stroke="#000"/>
<line x1="414.25" y1="449.0064264607227" x2="440.6875" y2="449.0064264607227" stroke="#000"/>
<line x1="427.46875" y1="448.9008680924219" x2="427.46875" y2="449.0064264607227" stroke="#000"/>
<rect x="440.6875" y="343.705237727989" width="26.4375" height="154.29476227201093" fill="orange" data-tooltip="3.15x baseline speed (MJIT3.0)"/>
<line x1="440.6875" y1="343.5321790367" x2="467.125" y2="343.5321790367" stroke="#000"/>
<line x1="440.6875" y1="343.8782964192781" x2="467.125" y2="343.8782964192781" stroke="#000"/>
<line x1="453.90625" y1="343.5321790367" x2="453.90625" y2="343.8782964192781" stroke="#000"/>
<rect x="467.125" y="311.27913658477064" width="26.4375" height="186.7208634152293" fill="green" data-tooltip="3.81x baseline speed (YJIT)"/>
<line x1="467.125" y1="311.0616219459371" x2="493.5625" y2="311.0616219459371" stroke="#000"/>
<line x1="467.125" y1="311.4966512236042" x2="493.5625" y2="311.4966512236042" stroke="#000"/>
<line x1="480.34375" y1="311.0616219459371" x2="480.34375" y2="311.4966512236042" stroke="#000"/>
<line x1="467.125" y1="498.0" x2="467.125" y2="502.79999999999995" stroke="#000"/>
<text x="467.125" y="512.4" fill="#111" font-size="small" font-family="monospace" font-weight="bold" text-anchor="end" transform="rotate(-60, 467.125, 512.4)">
fib
</text>
<rect x="520.0" y="448.95364727657227" width="26.4375" height="49.04635272342769" fill="#7070f8" data-tooltip="1.00x baseline speed (No JIT)"/>
<line x1="520.0" y1="448.89297570252364" x2="546.4375" y2="448.89297570252364" stroke="#000"/>
<line x1="520.0" y1="449.0143188506209" x2="546.4375" y2="449.0143188506209" stroke="#000"/>
<line x1="533.21875" y1="448.89297570252364" x2="533.21875" y2="449.0143188506209" stroke="#000"/>
<rect x="546.4375" y="449.10794111233236" width="26.4375" height="48.89205888766758" fill="orange" data-tooltip="1.00x baseline speed (MJIT3.0)"/>
<line x1="546.4375" y1="449.0140308420166" x2="572.875" y2="449.0140308420166" stroke="#000"/>
<line x1="546.4375" y1="449.2018513826481" x2="572.875" y2="449.2018513826481" stroke="#000"/>
<line x1="559.65625" y1="449.0140308420166" x2="559.65625" y2="449.2018513826481" stroke="#000"/>
<rect x="572.875" y="375.6264617892781" width="26.4375" height="122.37353821072188" fill="green" data-tooltip="2.50x baseline speed (YJIT)"/>
<line x1="572.875" y1="375.4461002603423" x2="599.3125" y2="375.4461002603423" stroke="#000"/>
<line x1="572.875" y1="375.80682331821396" x2="599.3125" y2="375.80682331821396" stroke="#000"/>
<line x1="586.09375" y1="375.4461002603423" x2="586.09375" y2="375.80682331821396" stroke="#000"/>
<line x1="572.875" y1="498.0" x2="572.875" y2="502.79999999999995" stroke="#000"/>
<text x="572.875" y="512.4" fill="#111" font-size="small" font-family="monospace" font-weight="bold" text-anchor="end" transform="rotate(-60, 572.875, 512.4)">
getivar
</text>
<rect x="625.7499999999999" y="448.95364727657227" width="26.4375" height="49.04635272342769" fill="#7070f8" data-tooltip="1.00x baseline speed (No JIT)"/>
<line x1="625.7499999999999" y1="448.92086625253495" x2="652.1874999999999" y2="448.92086625253495" stroke="#000"/>
<line x1="625.7499999999999" y1="448.9864283006096" x2="652.1874999999999" y2="448.9864283006096" stroke="#000"/>
<line x1="638.9687499999999" y1="448.92086625253495" x2="638.9687499999999" y2="448.9864283006096" stroke="#000"/>
<rect x="652.1874999999999" y="434.88972196672677" width="26.4375" height="63.11027803327314" fill="orange" data-tooltip="1.29x baseline speed (MJIT3.0)"/>
<line x1="652.1874999999999" y1="434.8403440154309" x2="678.6249999999999" y2="434.8403440154309" stroke="#000"/>
<line x1="652.1874999999999" y1="434.9390999180227" x2="678.6249999999999" y2="434.9390999180227" stroke="#000"/>
<line x1="665.4062499999999" y1="434.8403440154309" x2="665.4062499999999" y2="434.9390999180227" stroke="#000"/>
<rect x="678.6249999999999" y="239.00512287892806" width="26.4375" height="258.9948771210719" fill="green" data-tooltip="5.28x baseline speed (YJIT)"/>
<line x1="678.6249999999999" y1="238.76757579329717" x2="705.0624999999999" y2="238.76757579329717" stroke="#000"/>
<line x1="678.6249999999999" y1="239.24266996455893" x2="705.0624999999999" y2="239.24266996455893" stroke="#000"/>
<line x1="691.8437499999999" y1="238.76757579329717" x2="691.8437499999999" y2="239.24266996455893" stroke="#000"/>
<line x1="678.6249999999999" y1="498.0" x2="678.6249999999999" y2="502.79999999999995" stroke="#000"/>
<text x="678.6249999999999" y="512.4" fill="#111" font-size="small" font-family="monospace" font-weight="bold" text-anchor="end" transform="rotate(-60, 678.6249999999999, 512.4)">
keyword_args
</text>
<rect x="731.4999999999999" y="448.95364727657227" width="26.4375" height="49.04635272342769" fill="#7070f8" data-tooltip="1.00x baseline speed (No JIT)"/>
<line x1="731.4999999999999" y1="448.7952348519847" x2="757.9374999999999" y2="448.7952348519847" stroke="#000"/>
<line x1="731.4999999999999" y1="449.11205970115986" x2="757.9374999999999" y2="449.11205970115986" stroke="#000"/>
<line x1="744.7187499999999" y1="448.7952348519847" x2="744.7187499999999" y2="449.11205970115986" stroke="#000"/>
<rect x="757.9374999999999" y="442.7529742796789" width="26.4375" height="55.24702572032108" fill="orange" data-tooltip="1.13x baseline speed (MJIT3.0)"/>
<line x1="757.9374999999999" y1="442.47323630957004" x2="784.3749999999999" y2="442.47323630957004" stroke="#000"/>
<line x1="757.9374999999999" y1="443.0327122497877" x2="784.3749999999999" y2="443.0327122497877" stroke="#000"/>
<line x1="771.1562499999999" y1="442.47323630957004" x2="771.1562499999999" y2="443.0327122497877" stroke="#000"/>
<rect x="784.3749999999999" y="431.4033022801222" width="26.4375" height="66.59669771987772" fill="green" data-tooltip="1.36x baseline speed (YJIT)"/>
<line x1="784.3749999999999" y1="431.1547270306768" x2="810.8124999999999" y2="431.1547270306768" stroke="#000"/>
<line x1="784.3749999999999" y1="431.6518775295676" x2="810.8124999999999" y2="431.6518775295676" stroke="#000"/>
<line x1="797.5937499999999" y1="431.1547270306768" x2="797.5937499999999" y2="431.6518775295676" stroke="#000"/>
<line x1="784.3749999999999" y1="498.0" x2="784.3749999999999" y2="502.79999999999995" stroke="#000"/>
<text x="784.3749999999999" y="512.4" fill="#111" font-size="small" font-family="monospace" font-weight="bold" text-anchor="end" transform="rotate(-60, 784.3749999999999, 512.4)">
respond_to
</text>
<rect x="837.2499999999999" y="448.95364727657227" width="26.4375" height="49.04635272342769" fill="#7070f8" data-tooltip="1.00x baseline speed (No JIT)"/>
<line x1="837.2499999999999" y1="447.4649009187871" x2="863.6874999999999" y2="447.4649009187871" stroke="#000"/>
<line x1="837.2499999999999" y1="450.4423936343574" x2="863.6874999999999" y2="450.4423936343574" stroke="#000"/>
<line x1="850.4687499999999" y1="447.4649009187871" x2="850.4687499999999" y2="450.4423936343574" stroke="#000"/>
<rect x="863.6874999999999" y="449.6326087368516" width="26.4375" height="48.3673912631484" fill="orange" data-tooltip="0.99x baseline speed (MJIT3.0)"/>
<line x1="863.6874999999999" y1="448.16420656093885" x2="890.125" y2="448.16420656093885" stroke="#000"/>
<line x1="863.6874999999999" y1="451.1010109127643" x2="890.125" y2="451.1010109127643" stroke="#000"/>
<line x1="876.9062499999999" y1="448.16420656093885" x2="876.9062499999999" y2="451.1010109127643" stroke="#000"/>
<rect x="890.125" y="414.0189437948496" width="26.4375" height="83.98105620515037" fill="green" data-tooltip="1.71x baseline speed (YJIT)"/>
<line x1="890.125" y1="411.46669118510715" x2="916.5625" y2="411.46669118510715" stroke="#000"/>
<line x1="890.125" y1="416.57119640459194" x2="916.5625" y2="416.57119640459194" stroke="#000"/>
<line x1="903.3437499999999" y1="411.46669118510715" x2="903.3437499999999" y2="416.57119640459194" stroke="#000"/>
<line x1="890.125" y1="498.0" x2="890.125" y2="502.79999999999995" stroke="#000"/>
<text x="890.125" y="512.4" fill="#111" font-size="small" font-family="monospace" font-weight="bold" text-anchor="end" transform="rotate(-60, 890.125, 512.4)">
setivar
</text>
</svg>