<svg viewBox="0 0 1000 600" xmlns="http://www.w3.org/2000/svg" xmlns:xlink="http://www.w3.org/1999/xlink" width="100%" height="100%">

<rect x="50.0" y="30.0" width="940.0" height="467.99999999999994" stroke="#000" fill="#EEE"/>
<line x1="42.0" y1="497.9999999999999" x2="50.0" y2="497.9999999999999" stroke="#000"/>
<text x="26.000000000000004" y="497.9999999999999" text-anchor="end" font-weight="bold" font-size="small" fill="#111">
0.0
</text>
<line x1="42.0" y1="445.4698750689239" x2="50.0" y2="445.4698750689239" stroke="#000"/>
<text x="26.000000000000004" y="445.4698750689239" text-anchor="end" font-weight="bold" font-size="small" fill="#111">
1.0
</text>
<line x1="42.0" y1="392.93975013784785" x2="50.0" y2="392.93975013784785" stroke="#000"/>
<text x="26.000000000000004" y="392.93975013784785" text-anchor="end" font-weight="bold" font-size="small" fill="#111">
2.0
</text>
<line x1="42.0" y1="340.4096252067719" x2="50.0" y2="340.4096252067719" stroke="#000"/>
<text x="26.000000000000004" y="340.4096252067719" text-anchor="end" font-weight="bold" font-size="small" fill="#111">
3.0
</text>
<line x1="42.0" y1="287.8795002756959" x2="50.0" y2="287.8795002756959" stroke="#000"/>
<text x="26.000000000000004" y="287.8795002756959" text-anchor="end" font-weight="bold" font-size="small" fill="#111">
4.0
</text>
<line x1="42.0" y1="235.34937534461983" x2="50.0" y2="235.34937534461983" stroke="#000"/>
<text x="26.000000000000004" y="235.34937534461983" text-anchor="end" font-weight="bold" font-size="small" fill="#111">
5.0
</text>
<line x1="42.0" y1="182.81925041354387" x2="50.0" y2="182.81925041354387" stroke="#000"/>
<text x="26.000000000000004" y="182.81925041354387" text-anchor="end" font-weight="bold" font-size="small" fill="#111">
6.0
</text>
<line x1="42.0" y1="130.28912548246785" x2="50.0" y2="130.28912548246785" stroke="#000"/>
<text x="26.000000000000004" y="130.28912548246785" text-anchor="end" font-weight="bold" font-size="small" fill="#111">
7.0
</text>
<rect x="162.74999999999997" y="36.00000000000001" width="80.0" height="18.0" fill="#7070f8" stroke="#888"/>
<text x="202.75" y="52.50000000000001" font-size="small" text-anchor="middle" font-weight="bold" fill="#EEE">
No JIT
</text>
<rect x="374.25" y="36.00000000000001" width="80.0" height="18.0" fill="orange" stroke="#888"/>
<text x="414.25" y="52.50000000000001" font-size="small" text-anchor="middle" font-weight="bold" fill="#EEE">
MJIT3.0
</text>
<rect x="585.7499999999999" y="36.00000000000001" width="80.0" height="18.0" fill="green" stroke="#888"/>
<text x="625.7499999999999" y="52.50000000000001" font-size="small" text-anchor="middle" font-weight="bold" fill="#EEE">
MJIT
</text>
<rect x="797.2499999999999" y="36.00000000000001" width="80.0" height="18.0" fill="#4F3A7A" stroke="#888"/>
<text x="837.2499999999999" y="52.50000000000001" font-size="small" text-anchor="middle" font-weight="bold" fill="#EEE">
YJIT
</text>
<rect x="97.0" y="445.4698750689239" width="7.356521739130435" height="52.53012493107602" fill="#7070f8" data-tooltip="1.00x baseline speed (No JIT)"/>
<line x1="97.0" y1="445.26802168972756" x2="104.35652173913043" y2="445.26802168972756" stroke="#000"/>
<line x1="97.0" y1="445.6717284481202" x2="104.35652173913043" y2="445.6717284481202" stroke="#000"/>
<line x1="100.67826086956522" y1="445.26802168972756" x2="100.67826086956522" y2="445.6717284481202" stroke="#000"/>
<rect x="104.35652173913043" y="447.8785907732475" width="7.356521739130435" height="50.121409226752434" fill="orange" data-tooltip="0.95x baseline speed (MJIT3.0)"/>
<line x1="104.35652173913043" y1="446.357671613323" x2="111.71304347826086" y2="446.357671613323" stroke="#000"/>
<line x1="104.35652173913043" y1="449.39950993317194" x2="111.71304347826086" y2="449.39950993317194" stroke="#000"/>
<line x1="108.03478260869565" y1="446.357671613323" x2="108.03478260869565" y2="449.39950993317194" stroke="#000"/>
<rect x="111.71304347826087" y="450.4405718788914" width="7.356521739130435" height="47.55942812110853" fill="green" data-tooltip="0.91x baseline speed (MJIT)"/>
<line x1="111.71304347826087" y1="448.93801648498027" x2="119.06956521739131" y2="448.93801648498027" stroke="#000"/>
<line x1="111.71304347826087" y1="451.9431272728025" x2="119.06956521739131" y2="451.9431272728025" stroke="#000"/>
<line x1="115.3913043478261" y1="448.93801648498027" x2="115.3913043478261" y2="451.9431272728025" stroke="#000"/>
<rect x="119.06956521739131" y="426.4144517589135" width="7.356521739130435" height="71.58554824108641" fill="#4F3A7A" data-tooltip="1.36x baseline speed (YJIT)"/>
<line x1="119.06956521739131" y1="425.9480193380898" x2="126.42608695652174" y2="425.9480193380898" stroke="#000"/>
<line x1="119.06956521739131" y1="426.88088417973717" x2="126.42608695652174" y2="426.88088417973717" stroke="#000"/>
<line x1="122.74782608695654" y1="425.9480193380898" x2="122.74782608695654" y2="426.88088417973717" stroke="#000"/>
<line x1="115.3913043478261" y1="498.0" x2="115.3913043478261" y2="502.79999999999995" stroke="#000"/>
<text x="115.3913043478261" y="512.4" fill="#111" font-size="small" font-family="monospace" font-weight="bold" text-anchor="end" transform="rotate(-60, 115.3913043478261, 512.4)">
activerecord
</text>
<rect x="133.7826086956522" y="445.4698750689239" width="7.356521739130435" height="52.53012493107602" fill="#7070f8" data-tooltip="1.00x baseline speed (No JIT)"/>
<line x1="133.7826086956522" y1="445.053264588949" x2="141.1391304347826" y2="445.053264588949" stroke="#000"/>
<line x1="133.7826086956522" y1="445.8864855488988" x2="141.1391304347826" y2="445.8864855488988" stroke="#000"/>
<line x1="137.4608695652174" y1="445.053264588949" x2="137.4608695652174" y2="445.8864855488988" stroke="#000"/>
<rect x="141.1391304347826" y="444.0713388178621" width="7.356521739130435" height="53.92866118213781" fill="orange" data-tooltip="1.03x baseline speed (MJIT3.0)"/>
<line x1="141.1391304347826" y1="443.1471152398706" x2="148.49565217391302" y2="443.1471152398706" stroke="#000"/>
<line x1="141.1391304347826" y1="444.9955623958536" x2="148.49565217391302" y2="444.9955623958536" stroke="#000"/>
<line x1="144.8173913043478" y1="443.1471152398706" x2="144.8173913043478" y2="444.9955623958536" stroke="#000"/>
<rect x="155.8521739130435" y="427.65635394735494" width="7.356521739130435" height="70.343646052645" fill="#4F3A7A" data-tooltip="1.34x baseline speed (YJIT)"/>
<line x1="155.8521739130435" y1="426.6421366874896" x2="163.2086956521739" y2="426.6421366874896" stroke="#000"/>
<line x1="155.8521739130435" y1="428.6705712072203" x2="163.2086956521739" y2="428.6705712072203" stroke="#000"/>
<line x1="159.5304347826087" y1="426.6421366874896" x2="159.5304347826087" y2="428.6705712072203" stroke="#000"/>
<line x1="152.17391304347828" y1="498.0" x2="152.17391304347828" y2="502.79999999999995" stroke="#000"/>
<text x="152.17391304347828" y="512.4" fill="#111" font-size="small" font-family="monospace" font-weight="bold" text-anchor="end" transform="rotate(-60, 152.17391304347828, 512.4)">
hexapdf
</text>
<rect x="170.56521739130437" y="445.4698750689239" width="7.356521739130435" height="52.53012493107602" fill="#7070f8" data-tooltip="1.00x baseline speed (No JIT)"/>
<line x1="170.56521739130437" y1="444.8933587995555" x2="177.9217391304348" y2="444.8933587995555" stroke="#000"/>
<line x1="170.56521739130437" y1="446.0463913382923" x2="177.9217391304348" y2="446.0463913382923" stroke="#000"/>
<line x1="174.24347826086958" y1="444.8933587995555" x2="174.24347826086958" y2="446.0463913382923" stroke="#000"/>
<rect x="177.9217391304348" y="446.1442236661342" width="7.356521739130435" height="51.855776333865805" fill="orange" data-tooltip="0.99x baseline speed (MJIT3.0)"/>
<line x1="177.9217391304348" y1="445.15810820554975" x2="185.27826086956523" y2="445.15810820554975" stroke="#000"/>
<line x1="177.9217391304348" y1="447.13033912671864" x2="185.27826086956523" y2="447.13033912671864" stroke="#000"/>
<line x1="181.60000000000002" y1="445.15810820554975" x2="181.60000000000002" y2="447.13033912671864" stroke="#000"/>
<rect x="185.27826086956523" y="442.5192567494112" width="7.356521739130435" height="55.48074325058879" fill="green" data-tooltip="1.06x baseline speed (MJIT)"/>
<line x1="185.27826086956523" y1="441.49659520561806" x2="192.63478260869564" y2="441.49659520561806" stroke="#000"/>
<line x1="185.27826086956523" y1="443.5419182932044" x2="192.63478260869564" y2="443.5419182932044" stroke="#000"/>
<line x1="188.95652173913044" y1="441.49659520561806" x2="188.95652173913044" y2="443.5419182932044" stroke="#000"/>
<rect x="192.63478260869567" y="420.6595455870886" width="7.356521739130435" height="77.34045441291131" fill="#4F3A7A" data-tooltip="1.47x baseline speed (YJIT)"/>
<line x1="192.63478260869567" y1="419.03376792057867" x2="199.99130434782612" y2="419.03376792057867" stroke="#000"/>
<line x1="192.63478260869567" y1="422.2853232535985" x2="199.99130434782612" y2="422.2853232535985" stroke="#000"/>
<line x1="196.3130434782609" y1="419.03376792057867" x2="196.3130434782609" y2="422.2853232535985" stroke="#000"/>
<line x1="188.95652173913047" y1="498.0" x2="188.95652173913047" y2="502.79999999999995" stroke="#000"/>
<text x="188.95652173913047" y="512.4" fill="#111" font-size="small" font-family="monospace" font-weight="bold" text-anchor="end" transform="rotate(-60, 188.95652173913047, 512.4)">
liquid-render
</text>
<rect x="207.34782608695653" y="445.4698750689239" width="7.356521739130435" height="52.53012493107602" fill="#7070f8" data-tooltip="1.00x baseline speed (No JIT)"/>
<line x1="207.34782608695653" y1="445.4052723047768" x2="214.70434782608697" y2="445.4052723047768" stroke="#000"/>
<line x1="207.34782608695653" y1="445.534477833071" x2="214.70434782608697" y2="445.534477833071" stroke="#000"/>
<line x1="211.02608695652177" y1="445.4052723047768" x2="211.02608695652177" y2="445.534477833071" stroke="#000"/>
<rect x="214.70434782608697" y="442.5181828371453" width="7.356521739130435" height="55.48181716285462" fill="orange" data-tooltip="1.06x baseline speed (MJIT3.0)"/>
<line x1="214.70434782608697" y1="442.0222061768607" x2="222.0608695652174" y2="442.0222061768607" stroke="#000"/>
<line x1="214.70434782608697" y1="443.0141594974299" x2="222.0608695652174" y2="443.0141594974299" stroke="#000"/>
<line x1="218.38260869565218" y1="442.0222061768607" x2="218.38260869565218" y2="443.0141594974299" stroke="#000"/>
<rect x="222.06086956521742" y="444.522002196561" width="7.356521739130435" height="53.47799780343886" fill="green" data-tooltip="1.02x baseline speed (MJIT)"/>
<line x1="222.06086956521742" y1="443.4535495470724" x2="229.41739130434786" y2="443.4535495470724" stroke="#000"/>
<line x1="222.06086956521742" y1="445.5904548460496" x2="229.41739130434786" y2="445.5904548460496" stroke="#000"/>
<line x1="225.73913043478262" y1="443.4535495470724" x2="225.73913043478262" y2="445.5904548460496" stroke="#000"/>
<rect x="229.41739130434786" y="438.77702271865337" width="7.356521739130435" height="59.222977281346566" fill="#4F3A7A" data-tooltip="1.13x baseline speed (YJIT)"/>
<line x1="229.41739130434786" y1="438.5427959404608" x2="236.77391304347827" y2="438.5427959404608" stroke="#000"/>
<line x1="229.41739130434786" y1="439.01124949684595" x2="236.77391304347827" y2="439.01124949684595" stroke="#000"/>
<line x1="233.09565217391307" y1="438.5427959404608" x2="233.09565217391307" y2="439.01124949684595" stroke="#000"/>
<line x1="225.73913043478262" y1="498.0" x2="225.73913043478262" y2="502.79999999999995" stroke="#000"/>
<text x="225.73913043478262" y="512.4" fill="#111" font-size="small" font-family="monospace" font-weight="bold" text-anchor="end" transform="rotate(-60, 225.73913043478262, 512.4)">
mail
</text>
<rect x="244.13043478260872" y="445.4698750689239" width="7.356521739130435" height="52.53012493107602" fill="#7070f8" data-tooltip="1.00x baseline speed (No JIT)"/>
<line x1="244.13043478260872" y1="445.409309110964" x2="251.48695652173913" y2="445.409309110964" stroke="#000"/>
<line x1="244.13043478260872" y1="445.53044102688375" x2="251.48695652173913" y2="445.53044102688375" stroke="#000"/>
<line x1="247.80869565217392" y1="445.409309110964" x2="247.80869565217392" y2="445.53044102688375" stroke="#000"/>
<rect x="251.48695652173913" y="445.8152072727916" width="7.356521739130435" height="52.18479272720828" fill="orange" data-tooltip="0.99x baseline speed (MJIT3.0)"/>
<line x1="251.48695652173913" y1="445.7369502968667" x2="258.8434782608696" y2="445.7369502968667" stroke="#000"/>
<line x1="251.48695652173913" y1="445.89346424871655" x2="258.8434782608696" y2="445.89346424871655" stroke="#000"/>
<line x1="255.16521739130437" y1="445.7369502968667" x2="255.16521739130437" y2="445.89346424871655" stroke="#000"/>
<rect x="258.8434782608696" y="439.32715127339037" width="7.356521739130435" height="58.67284872660952" fill="green" data-tooltip="1.12x baseline speed (MJIT)"/>
<line x1="258.8434782608696" y1="439.24468917913237" x2="266.2" y2="439.24468917913237" stroke="#000"/>
<line x1="258.8434782608696" y1="439.4096133676484" x2="266.2" y2="439.4096133676484" stroke="#000"/>
<line x1="262.5217391304348" y1="439.24468917913237" x2="262.5217391304348" y2="439.4096133676484" stroke="#000"/>
<rect x="266.2" y="431.19666168387533" width="7.356521739130435" height="66.80333831612461" fill="#4F3A7A" data-tooltip="1.27x baseline speed (YJIT)"/>
<line x1="266.2" y1="431.1106929129256" x2="273.5565217391304" y2="431.1106929129256" stroke="#000"/>
<line x1="266.2" y1="431.2826304548251" x2="273.5565217391304" y2="431.2826304548251" stroke="#000"/>
<line x1="269.8782608695652" y1="431.1106929129256" x2="269.8782608695652" y2="431.2826304548251" stroke="#000"/>
<line x1="262.5217391304348" y1="498.0" x2="262.5217391304348" y2="502.79999999999995" stroke="#000"/>
<text x="262.5217391304348" y="512.4" fill="#111" font-size="small" font-family="monospace" font-weight="bold" text-anchor="end" transform="rotate(-60, 262.5217391304348, 512.4)">
psych-load
</text>
<rect x="280.9130434782609" y="445.4698750689239" width="7.356521739130435" height="52.53012493107602" fill="#7070f8" data-tooltip="1.00x baseline speed (No JIT)"/>
<line x1="280.9130434782609" y1="445.0246203279324" x2="288.2695652173913" y2="445.0246203279324" stroke="#000"/>
<line x1="280.9130434782609" y1="445.91512980991536" x2="288.2695652173913" y2="445.91512980991536" stroke="#000"/>
<line x1="284.5913043478261" y1="445.0246203279324" x2="284.5913043478261" y2="445.91512980991536" stroke="#000"/>
<rect x="288.2695652173913" y="450.7341436216089" width="7.356521739130435" height="47.26585637839101" fill="orange" data-tooltip="0.90x baseline speed (MJIT3.0)"/>
<line x1="288.2695652173913" y1="450.1237615158593" x2="295.6260869565217" y2="450.1237615158593" stroke="#000"/>
<line x1="288.2695652173913" y1="451.3445257273585" x2="295.6260869565217" y2="451.3445257273585" stroke="#000"/>
<line x1="291.9478260869565" y1="450.1237615158593" x2="291.9478260869565" y2="451.3445257273585" stroke="#000"/>
<rect x="295.6260869565217" y="450.3050822007106" width="7.356521739130435" height="47.694917799289335" fill="green" data-tooltip="0.91x baseline speed (MJIT)"/>
<line x1="295.6260869565217" y1="449.6579829101022" x2="302.9826086956521" y2="449.6579829101022" stroke="#000"/>
<line x1="295.6260869565217" y1="450.9521814913191" x2="302.9826086956521" y2="450.9521814913191" stroke="#000"/>
<line x1="299.30434782608694" y1="449.6579829101022" x2="299.30434782608694" y2="450.9521814913191" stroke="#000"/>
<rect x="302.9826086956521" y="428.93187470125423" width="7.356521739130435" height="69.06812529874568" fill="#4F3A7A" data-tooltip="1.31x baseline speed (YJIT)"/>
<line x1="302.9826086956521" y1="427.8396540985211" x2="310.3391304347826" y2="427.8396540985211" stroke="#000"/>
<line x1="302.9826086956521" y1="430.02409530398734" x2="310.3391304347826" y2="430.02409530398734" stroke="#000"/>
<line x1="306.66086956521735" y1="427.8396540985211" x2="306.66086956521735" y2="430.02409530398734" stroke="#000"/>
<line x1="299.30434782608694" y1="498.0" x2="299.30434782608694" y2="502.79999999999995" stroke="#000"/>
<text x="299.30434782608694" y="512.4" fill="#111" font-size="small" font-family="monospace" font-weight="bold" text-anchor="end" transform="rotate(-60, 299.30434782608694, 512.4)">
railsbench
</text>
<rect x="317.69565217391306" y="445.4698750689239" width="7.356521739130435" height="52.53012493107602" fill="#7070f8" data-tooltip="1.00x baseline speed (No JIT)"/>
<line x1="317.69565217391306" y1="445.447747208866" x2="325.0521739130435" y2="445.447747208866" stroke="#000"/>
<line x1="317.69565217391306" y1="445.4920029289818" x2="325.0521739130435" y2="445.4920029289818" stroke="#000"/>
<line x1="321.3739130434783" y1="445.447747208866" x2="321.3739130434783" y2="445.4920029289818" stroke="#000"/>
<rect x="325.0521739130435" y="408.89286358542296" width="7.356521739130435" height="89.10713641457694" fill="orange" data-tooltip="1.70x baseline speed (MJIT3.0)"/>
<line x1="325.0521739130435" y1="408.56092176275916" x2="332.4086956521739" y2="408.56092176275916" stroke="#000"/>
<line x1="325.0521739130435" y1="409.2248054080868" x2="332.4086956521739" y2="409.2248054080868" stroke="#000"/>
<line x1="328.7304347826087" y1="408.56092176275916" x2="328.7304347826087" y2="409.2248054080868" stroke="#000"/>
<rect x="332.4086956521739" y="418.1809743786152" width="7.356521739130435" height="79.81902562138474" fill="green" data-tooltip="1.52x baseline speed (MJIT)"/>
<line x1="332.4086956521739" y1="417.87563495471693" x2="339.7652173913043" y2="417.87563495471693" stroke="#000"/>
<line x1="332.4086956521739" y1="418.4863138025134" x2="339.7652173913043" y2="418.4863138025134" stroke="#000"/>
<line x1="336.0869565217391" y1="417.87563495471693" x2="336.0869565217391" y2="418.4863138025134" stroke="#000"/>
<rect x="339.7652173913043" y="432.2631437333724" width="7.356521739130435" height="65.73685626662751" fill="#4F3A7A" data-tooltip="1.25x baseline speed (YJIT)"/>
<line x1="339.7652173913043" y1="432.14338865852176" x2="347.1217391304348" y2="432.14338865852176" stroke="#000"/>
<line x1="339.7652173913043" y1="432.382898808223" x2="347.1217391304348" y2="432.382898808223" stroke="#000"/>
<line x1="343.4434782608696" y1="432.14338865852176" x2="343.4434782608696" y2="432.382898808223" stroke="#000"/>
<line x1="336.0869565217391" y1="498.0" x2="336.0869565217391" y2="502.79999999999995" stroke="#000"/>
<text x="336.0869565217391" y="512.4" fill="#111" font-size="small" font-family="monospace" font-weight="bold" text-anchor="end" transform="rotate(-60, 336.0869565217391, 512.4)">
binarytrees
</text>
<rect x="354.47826086956525" y="445.4698750689239" width="7.356521739130435" height="52.53012493107602" fill="#7070f8" data-tooltip="1.00x baseline speed (No JIT)"/>
<line x1="354.47826086956525" y1="439.1193237250454" x2="361.83478260869566" y2="439.1193237250454" stroke="#000"/>
<line x1="354.47826086956525" y1="451.8204264128024" x2="361.83478260869566" y2="451.8204264128024" stroke="#000"/>
<line x1="358.1565217391305" y1="439.1193237250454" x2="358.1565217391305" y2="451.8204264128024" stroke="#000"/>
<rect x="361.83478260869566" y="445.0076397740447" width="7.356521739130435" height="52.99236022595517" fill="orange" data-tooltip="1.01x baseline speed (MJIT3.0)"/>
<line x1="361.83478260869566" y1="438.56570607820436" x2="369.1913043478261" y2="438.56570607820436" stroke="#000"/>
<line x1="361.83478260869566" y1="451.44957346988514" x2="369.1913043478261" y2="451.44957346988514" stroke="#000"/>
<line x1="365.5130434782609" y1="438.56570607820436" x2="365.5130434782609" y2="451.44957346988514" stroke="#000"/>
<rect x="369.1913043478261" y="445.79883242060106" width="7.356521739130435" height="52.201167579398906" fill="green" data-tooltip="0.99x baseline speed (MJIT)"/>
<line x1="369.1913043478261" y1="438.3575200868143" x2="376.54782608695655" y2="438.3575200868143" stroke="#000"/>
<line x1="369.1913043478261" y1="453.2401447543878" x2="376.54782608695655" y2="453.2401447543878" stroke="#000"/>
<line x1="372.86956521739137" y1="438.3575200868143" x2="372.86956521739137" y2="453.2401447543878" stroke="#000"/>
<rect x="376.54782608695655" y="445.05093142009457" width="7.356521739130435" height="52.94906857990529" fill="#4F3A7A" data-tooltip="1.01x baseline speed (YJIT)"/>
<line x1="376.54782608695655" y1="437.94255127669857" x2="383.90434782608696" y2="437.94255127669857" stroke="#000"/>
<line x1="376.54782608695655" y1="452.15931156349063" x2="383.90434782608696" y2="452.15931156349063" stroke="#000"/>
<line x1="380.2260869565218" y1="437.94255127669857" x2="380.2260869565218" y2="452.15931156349063" stroke="#000"/>
<line x1="372.86956521739137" y1="498.0" x2="372.86956521739137" y2="502.79999999999995" stroke="#000"/>
<text x="372.86956521739137" y="512.4" fill="#111" font-size="small" font-family="monospace" font-weight="bold" text-anchor="end" transform="rotate(-60, 372.86956521739137, 512.4)">
discourse
</text>
<rect x="391.26086956521743" y="445.4698750689239" width="7.356521739130435" height="52.53012493107602" fill="#7070f8" data-tooltip="1.00x baseline speed (No JIT)"/>
<line x1="391.26086956521743" y1="445.1151170877222" x2="398.61739130434785" y2="445.1151170877222" stroke="#000"/>
<line x1="391.26086956521743" y1="445.8246330501256" x2="398.61739130434785" y2="445.8246330501256" stroke="#000"/>
<line x1="394.93913043478267" y1="445.1151170877222" x2="394.93913043478267" y2="445.8246330501256" stroke="#000"/>
<rect x="398.61739130434785" y="445.8676492909017" width="7.356521739130435" height="52.132350709098205" fill="orange" data-tooltip="0.99x baseline speed (MJIT3.0)"/>
<line x1="398.61739130434785" y1="445.2989664814687" x2="405.9739130434783" y2="445.2989664814687" stroke="#000"/>
<line x1="398.61739130434785" y1="446.43633210033465" x2="405.9739130434783" y2="446.43633210033465" stroke="#000"/>
<line x1="402.2956521739131" y1="445.2989664814687" x2="402.2956521739131" y2="446.43633210033465" stroke="#000"/>
<rect x="405.9739130434783" y="441.3911072683278" width="7.356521739130435" height="56.608892731672114" fill="green" data-tooltip="1.08x baseline speed (MJIT)"/>
<line x1="405.9739130434783" y1="440.8778044469989" x2="413.33043478260873" y2="440.8778044469989" stroke="#000"/>
<line x1="405.9739130434783" y1="441.90441008965666" x2="413.33043478260873" y2="441.90441008965666" stroke="#000"/>
<line x1="409.65217391304355" y1="440.8778044469989" x2="409.65217391304355" y2="441.90441008965666" stroke="#000"/>
<rect x="413.33043478260873" y="440.6584353744901" width="7.356521739130435" height="57.341564625509776" fill="#4F3A7A" data-tooltip="1.09x baseline speed (YJIT)"/>
<line x1="413.33043478260873" y1="440.038628473773" x2="420.68695652173915" y2="440.038628473773" stroke="#000"/>
<line x1="413.33043478260873" y1="441.27824227520733" x2="420.68695652173915" y2="441.27824227520733" stroke="#000"/>
<line x1="417.00869565217397" y1="440.038628473773" x2="417.00869565217397" y2="441.27824227520733" stroke="#000"/>
<line x1="409.65217391304355" y1="498.0" x2="409.65217391304355" y2="502.79999999999995" stroke="#000"/>
<text x="409.65217391304355" y="512.4" fill="#111" font-size="small" font-family="monospace" font-weight="bold" text-anchor="end" transform="rotate(-60, 409.65217391304355, 512.4)">
erubi
</text>
<rect x="428.0434782608696" y="445.4698750689239" width="7.356521739130435" height="52.53012493107602" fill="#7070f8" data-tooltip="1.00x baseline speed (No JIT)"/>
<line x1="428.0434782608696" y1="444.24655320350996" x2="435.4000000000001" y2="444.24655320350996" stroke="#000"/>
<line x1="428.0434782608696" y1="446.69319693433783" x2="435.4000000000001" y2="446.69319693433783" stroke="#000"/>
<line x1="431.72173913043486" y1="444.24655320350996" x2="431.72173913043486" y2="446.69319693433783" stroke="#000"/>
<rect x="435.4000000000001" y="449.0993304302907" width="7.356521739130435" height="48.900669569709244" fill="orange" data-tooltip="0.93x baseline speed (MJIT3.0)"/>
<line x1="435.4000000000001" y1="447.46202474668246" x2="442.7565217391305" y2="447.46202474668246" stroke="#000"/>
<line x1="435.4000000000001" y1="450.7366361138989" x2="442.7565217391305" y2="450.7366361138989" stroke="#000"/>
<line x1="439.0782608695653" y1="447.46202474668246" x2="439.0782608695653" y2="450.7366361138989" stroke="#000"/>
<rect x="442.7565217391305" y="447.6018257551527" width="7.356521739130435" height="50.39817424484732" fill="green" data-tooltip="0.96x baseline speed (MJIT)"/>
<line x1="442.7565217391305" y1="445.30154063275995" x2="450.1130434782609" y2="445.30154063275995" stroke="#000"/>
<line x1="442.7565217391305" y1="449.9021108775454" x2="450.1130434782609" y2="449.9021108775454" stroke="#000"/>
<line x1="446.43478260869574" y1="445.30154063275995" x2="446.43478260869574" y2="449.9021108775454" stroke="#000"/>
<rect x="450.1130434782609" y="427.46650854220326" width="7.356521739130435" height="70.53349145779664" fill="#4F3A7A" data-tooltip="1.34x baseline speed (YJIT)"/>
<line x1="450.1130434782609" y1="424.56926885837595" x2="457.46956521739133" y2="424.56926885837595" stroke="#000"/>
<line x1="450.1130434782609" y1="430.36374822603057" x2="457.46956521739133" y2="430.36374822603057" stroke="#000"/>
<line x1="453.79130434782616" y1="424.56926885837595" x2="453.79130434782616" y2="430.36374822603057" stroke="#000"/>
<line x1="446.43478260869574" y1="498.0" x2="446.43478260869574" y2="502.79999999999995" stroke="#000"/>
<text x="446.43478260869574" y="512.4" fill="#111" font-size="small" font-family="monospace" font-weight="bold" text-anchor="end" transform="rotate(-60, 446.43478260869574, 512.4)">
erubi_rails
</text>
<rect x="464.82608695652175" y="445.4698750689239" width="7.356521739130435" height="52.53012493107602" fill="#7070f8" data-tooltip="1.00x baseline speed (No JIT)"/>
<line x1="464.82608695652175" y1="445.4432635144912" x2="472.18260869565216" y2="445.4432635144912" stroke="#000"/>
<line x1="464.82608695652175" y1="445.49648662335653" x2="472.18260869565216" y2="445.49648662335653" stroke="#000"/>
<line x1="468.504347826087" y1="445.4432635144912" x2="468.504347826087" y2="445.49648662335653" stroke="#000"/>
<rect x="472.18260869565216" y="348.20867946408436" width="7.356521739130435" height="149.79132053591562" fill="orange" data-tooltip="2.85x baseline speed (MJIT3.0)"/>
<line x1="472.18260869565216" y1="348.09840578234395" x2="479.5391304347826" y2="348.09840578234395" stroke="#000"/>
<line x1="472.18260869565216" y1="348.3189531458247" x2="479.5391304347826" y2="348.3189531458247" stroke="#000"/>
<line x1="475.8608695652174" y1="348.09840578234395" x2="475.8608695652174" y2="348.3189531458247" stroke="#000"/>
<rect x="479.5391304347826" y="405.5765364049677" width="7.356521739130435" height="92.42346359503225" fill="green" data-tooltip="1.76x baseline speed (MJIT)"/>
<line x1="479.5391304347826" y1="405.5055678175009" x2="486.895652173913" y2="405.5055678175009" stroke="#000"/>
<line x1="479.5391304347826" y1="405.64750499243456" x2="486.895652173913" y2="405.64750499243456" stroke="#000"/>
<line x1="483.2173913043478" y1="405.5055678175009" x2="483.2173913043478" y2="405.64750499243456" stroke="#000"/>
<rect x="486.895652173913" y="447.9450250318289" width="7.356521739130435" height="50.054974968171116" fill="#4F3A7A" data-tooltip="0.95x baseline speed (YJIT)"/>
<line x1="486.895652173913" y1="447.8984193659615" x2="494.2521739130434" y2="447.8984193659615" stroke="#000"/>
<line x1="486.895652173913" y1="447.9916306976962" x2="494.2521739130434" y2="447.9916306976962" stroke="#000"/>
<line x1="490.5739130434782" y1="447.8984193659615" x2="490.5739130434782" y2="447.9916306976962" stroke="#000"/>
<line x1="483.2173913043478" y1="498.0" x2="483.2173913043478" y2="502.79999999999995" stroke="#000"/>
<text x="483.2173913043478" y="512.4" fill="#111" font-size="small" font-family="monospace" font-weight="bold" text-anchor="end" transform="rotate(-60, 483.2173913043478, 512.4)">
fannkuchredux
</text>
<rect x="501.60869565217394" y="445.4698750689239" width="7.356521739130435" height="52.53012493107602" fill="#7070f8" data-tooltip="1.00x baseline speed (No JIT)"/>
<line x1="501.60869565217394" y1="444.9163417240253" x2="508.9652173913044" y2="444.9163417240253" stroke="#000"/>
<line x1="501.60869565217394" y1="446.0234084138225" x2="508.9652173913044" y2="446.0234084138225" stroke="#000"/>
<line x1="505.28695652173917" y1="444.9163417240253" x2="505.28695652173917" y2="446.0234084138225" stroke="#000"/>
<rect x="508.9652173913044" y="438.6648744426397" width="7.356521739130435" height="59.33512555736022" fill="orange" data-tooltip="1.13x baseline speed (MJIT3.0)"/>
<line x1="508.9652173913044" y1="437.68792927329736" x2="516.3217391304349" y2="437.68792927329736" stroke="#000"/>
<line x1="508.9652173913044" y1="439.64181961198204" x2="516.3217391304349" y2="439.64181961198204" stroke="#000"/>
<line x1="512.6434782608696" y1="437.68792927329736" x2="512.6434782608696" y2="439.64181961198204" stroke="#000"/>
<rect x="516.3217391304348" y="434.95129362638545" width="7.356521739130435" height="63.04870637361442" fill="green" data-tooltip="1.20x baseline speed (MJIT)"/>
<line x1="516.3217391304348" y1="433.84766367502016" x2="523.6782608695653" y2="433.84766367502016" stroke="#000"/>
<line x1="516.3217391304348" y1="436.0549235777508" x2="523.6782608695653" y2="436.0549235777508" stroke="#000"/>
<line x1="520.0" y1="433.84766367502016" x2="520.0" y2="436.0549235777508" stroke="#000"/>
<rect x="523.6782608695653" y="427.18136704580536" width="7.356521739130435" height="70.81863295419457" fill="#4F3A7A" data-tooltip="1.35x baseline speed (YJIT)"/>
<line x1="523.6782608695653" y1="425.83745456325954" x2="531.0347826086958" y2="425.83745456325954" stroke="#000"/>
<line x1="523.6782608695653" y1="428.5252795283511" x2="531.0347826086958" y2="428.5252795283511" stroke="#000"/>
<line x1="527.3565217391305" y1="425.83745456325954" x2="527.3565217391305" y2="428.5252795283511" stroke="#000"/>
<line x1="520.0" y1="498.0" x2="520.0" y2="502.79999999999995" stroke="#000"/>
<text x="520.0" y="512.4" fill="#111" font-size="small" font-family="monospace" font-weight="bold" text-anchor="end" transform="rotate(-60, 520.0, 512.4)">
lee
</text>
<rect x="538.3913043478261" y="445.4698750689239" width="7.356521739130435" height="52.53012493107602" fill="#7070f8" data-tooltip="1.00x baseline speed (No JIT)"/>
<line x1="538.3913043478261" y1="445.4470236734441" x2="545.7478260869566" y2="445.4470236734441" stroke="#000"/>
<line x1="538.3913043478261" y1="445.4927264644037" x2="545.7478260869566" y2="445.4927264644037" stroke="#000"/>
<line x1="542.0695652173914" y1="445.4470236734441" x2="542.0695652173914" y2="445.4927264644037" stroke="#000"/>
<rect x="545.7478260869566" y="410.6081940115142" width="7.356521739130435" height="87.39180598848576" fill="orange" data-tooltip="1.66x baseline speed (MJIT3.0)"/>
<line x1="545.7478260869566" y1="410.5489158305397" x2="553.1043478260871" y2="410.5489158305397" stroke="#000"/>
<line x1="545.7478260869566" y1="410.6674721924886" x2="553.1043478260871" y2="410.6674721924886" stroke="#000"/>
<line x1="549.4260869565219" y1="410.5489158305397" x2="549.4260869565219" y2="410.6674721924886" stroke="#000"/>
<rect x="553.104347826087" y="411.63168362669796" width="7.356521739130435" height="86.36831637330195" fill="green" data-tooltip="1.64x baseline speed (MJIT)"/>
<line x1="553.104347826087" y1="411.57974490288746" x2="560.4608695652174" y2="411.57974490288746" stroke="#000"/>
<line x1="553.104347826087" y1="411.6836223505084" x2="560.4608695652174" y2="411.6836223505084" stroke="#000"/>
<line x1="556.7826086956522" y1="411.57974490288746" x2="556.7826086956522" y2="411.6836223505084" stroke="#000"/>
<rect x="560.4608695652174" y="430.6934253257182" width="7.356521739130435" height="67.30657467428175" fill="#4F3A7A" data-tooltip="1.28x baseline speed (YJIT)"/>
<line x1="560.4608695652174" y1="430.4051899426377" x2="567.8173913043479" y2="430.4051899426377" stroke="#000"/>
<line x1="560.4608695652174" y1="430.98166070879864" x2="567.8173913043479" y2="430.98166070879864" stroke="#000"/>
<line x1="564.1391304347827" y1="430.4051899426377" x2="564.1391304347827" y2="430.98166070879864" stroke="#000"/>
<line x1="556.7826086956522" y1="498.0" x2="556.7826086956522" y2="502.79999999999995" stroke="#000"/>
<text x="556.7826086956522" y="512.4" fill="#111" font-size="small" font-family="monospace" font-weight="bold" text-anchor="end" transform="rotate(-60, 556.7826086956522, 512.4)">
nbody
</text>
<rect x="575.1739130434784" y="445.4698750689239" width="7.356521739130435" height="52.53012493107602" fill="#7070f8" data-tooltip="1.00x baseline speed (No JIT)"/>
<line x1="575.1739130434784" y1="445.24702074376233" x2="582.5304347826088" y2="445.24702074376233" stroke="#000"/>
<line x1="575.1739130434784" y1="445.6927293940854" x2="582.5304347826088" y2="445.6927293940854" stroke="#000"/>
<line x1="578.8521739130435" y1="445.24702074376233" x2="578.8521739130435" y2="445.6927293940854" stroke="#000"/>
<rect x="582.5304347826088" y="375.62505137935506" width="7.356521739130435" height="122.37494862064484" fill="orange" data-tooltip="2.33x baseline speed (MJIT3.0)"/>
<line x1="582.5304347826088" y1="374.73684024175736" x2="589.8869565217393" y2="374.73684024175736" stroke="#000"/>
<line x1="582.5304347826088" y1="376.51326251695275" x2="589.8869565217393" y2="376.51326251695275" stroke="#000"/>
<line x1="586.208695652174" y1="374.73684024175736" x2="586.208695652174" y2="376.51326251695275" stroke="#000"/>
<rect x="589.8869565217392" y="372.31958289264605" width="7.356521739130435" height="125.68041710735389" fill="green" data-tooltip="2.39x baseline speed (MJIT)"/>
<line x1="589.8869565217392" y1="371.3986797925265" x2="597.2434782608697" y2="371.3986797925265" stroke="#000"/>
<line x1="589.8869565217392" y1="373.2404859927656" x2="597.2434782608697" y2="373.2404859927656" stroke="#000"/>
<line x1="593.5652173913044" y1="371.3986797925265" x2="593.5652173913044" y2="373.2404859927656" stroke="#000"/>
<rect x="597.2434782608697" y="409.83142348249635" width="7.356521739130435" height="88.1685765175036" fill="#4F3A7A" data-tooltip="1.68x baseline speed (YJIT)"/>
<line x1="597.2434782608697" y1="409.3588690632784" x2="604.6000000000001" y2="409.3588690632784" stroke="#000"/>
<line x1="597.2434782608697" y1="410.30397790171435" x2="604.6000000000001" y2="410.30397790171435" stroke="#000"/>
<line x1="600.9217391304348" y1="409.3588690632784" x2="600.9217391304348" y2="410.30397790171435" stroke="#000"/>
<line x1="593.5652173913044" y1="498.0" x2="593.5652173913044" y2="502.79999999999995" stroke="#000"/>
<text x="593.5652173913044" y="512.4" fill="#111" font-size="small" font-family="monospace" font-weight="bold" text-anchor="end" transform="rotate(-60, 593.5652173913044, 512.4)">
optcarrot
</text>
<rect x="611.9565217391304" y="445.4698750689239" width="7.356521739130435" height="52.53012493107602" fill="#7070f8" data-tooltip="1.00x baseline speed (No JIT)"/>
<line x1="611.9565217391304" y1="445.2643599962462" x2="619.3130434782609" y2="445.2643599962462" stroke="#000"/>
<line x1="611.9565217391304" y1="445.6753901416016" x2="619.3130434782609" y2="445.6753901416016" stroke="#000"/>
<line x1="615.6347826086957" y1="445.2643599962462" x2="615.6347826086957" y2="445.6753901416016" stroke="#000"/>
<rect x="619.3130434782609" y="414.1955852953272" width="7.356521739130435" height="83.80441470467275" fill="orange" data-tooltip="1.60x baseline speed (MJIT3.0)"/>
<line x1="619.3130434782609" y1="413.6920910719326" x2="626.6695652173913" y2="413.6920910719326" stroke="#000"/>
<line x1="619.3130434782609" y1="414.69907951872176" x2="626.6695652173913" y2="414.69907951872176" stroke="#000"/>
<line x1="622.9913043478261" y1="413.6920910719326" x2="622.9913043478261" y2="414.69907951872176" stroke="#000"/>
<rect x="626.6695652173912" y="414.8380333221349" width="7.356521739130435" height="83.16196667786502" fill="green" data-tooltip="1.58x baseline speed (MJIT)"/>
<line x1="626.6695652173912" y1="414.198379647501" x2="634.0260869565218" y2="414.198379647501" stroke="#000"/>
<line x1="626.6695652173912" y1="415.47768699676885" x2="634.0260869565218" y2="415.47768699676885" stroke="#000"/>
<line x1="630.3478260869565" y1="414.198379647501" x2="630.3478260869565" y2="415.47768699676885" stroke="#000"/>
<rect x="634.0260869565218" y="400.0671352111438" width="7.356521739130435" height="97.93286478885615" fill="#4F3A7A" data-tooltip="1.86x baseline speed (YJIT)"/>
<line x1="634.0260869565218" y1="399.5080983623227" x2="641.3826086956523" y2="399.5080983623227" stroke="#000"/>
<line x1="634.0260869565218" y1="400.626172059965" x2="641.3826086956523" y2="400.626172059965" stroke="#000"/>
<line x1="637.704347826087" y1="399.5080983623227" x2="637.704347826087" y2="400.626172059965" stroke="#000"/>
<line x1="630.3478260869565" y1="498.0" x2="630.3478260869565" y2="502.79999999999995" stroke="#000"/>
<text x="630.3478260869565" y="512.4" fill="#111" font-size="small" font-family="monospace" font-weight="bold" text-anchor="end" transform="rotate(-60, 630.3478260869565, 512.4)">
rubykon
</text>
<rect x="648.7391304347826" y="445.4698750689239" width="7.356521739130435" height="52.53012493107602" fill="#7070f8" data-tooltip="1.00x baseline speed (No JIT)"/>
<line x1="648.7391304347826" y1="445.46476783856514" x2="656.0956521739131" y2="445.46476783856514" stroke="#000"/>
<line x1="648.7391304347826" y1="445.47498229928266" x2="656.0956521739131" y2="445.47498229928266" stroke="#000"/>
<line x1="652.4173913043478" y1="445.46476783856514" x2="652.4173913043478" y2="445.47498229928266" stroke="#000"/>
<rect x="656.0956521739131" y="454.4903153122019" width="7.356521739130435" height="43.509684687798014" fill="orange" data-tooltip="0.83x baseline speed (MJIT3.0)"/>
<line x1="656.0956521739131" y1="451.9854449734394" x2="663.4521739130436" y2="451.9854449734394" stroke="#000"/>
<line x1="656.0956521739131" y1="456.9951856509644" x2="663.4521739130436" y2="456.9951856509644" stroke="#000"/>
<line x1="659.7739130434783" y1="451.9854449734394" x2="659.7739130434783" y2="456.9951856509644" stroke="#000"/>
<rect x="663.4521739130435" y="463.52132937600123" width="7.356521739130435" height="34.47867062399872" fill="green" data-tooltip="0.66x baseline speed (MJIT)"/>
<line x1="663.4521739130435" y1="462.18690542555146" x2="670.8086956521739" y2="462.18690542555146" stroke="#000"/>
<line x1="663.4521739130435" y1="464.85575332645107" x2="670.8086956521739" y2="464.85575332645107" stroke="#000"/>
<line x1="667.1304347826087" y1="462.18690542555146" x2="667.1304347826087" y2="464.85575332645107" stroke="#000"/>
<rect x="670.8086956521739" y="153.9777041429818" width="7.356521739130435" height="344.0222958570181" fill="#4F3A7A" data-tooltip="6.55x baseline speed (YJIT)"/>
<line x1="670.8086956521739" y1="153.40307130550977" x2="678.1652173913044" y2="153.40307130550977" stroke="#000"/>
<line x1="670.8086956521739" y1="154.55233698045382" x2="678.1652173913044" y2="154.55233698045382" stroke="#000"/>
<line x1="674.4869565217392" y1="153.40307130550977" x2="674.4869565217392" y2="154.55233698045382" stroke="#000"/>
<line x1="667.1304347826087" y1="498.0" x2="667.1304347826087" y2="502.79999999999995" stroke="#000"/>
<text x="667.1304347826087" y="512.4" fill="#111" font-size="small" font-family="monospace" font-weight="bold" text-anchor="end" transform="rotate(-60, 667.1304347826087, 512.4)">
30k_ifelse
</text>
<rect x="685.5217391304348" y="445.4698750689239" width="7.356521739130435" height="52.53012493107602" fill="#7070f8" data-tooltip="1.00x baseline speed (No JIT)"/>
<line x1="685.5217391304348" y1="445.46514825723176" x2="692.8782608695652" y2="445.46514825723176" stroke="#000"/>
<line x1="685.5217391304348" y1="445.474601880616" x2="692.8782608695652" y2="445.474601880616" stroke="#000"/>
<line x1="689.2" y1="445.46514825723176" x2="689.2" y2="445.474601880616" stroke="#000"/>
<rect x="692.8782608695652" y="463.1320255196476" width="7.356521739130435" height="34.86797448035241" fill="orange" data-tooltip="0.66x baseline speed (MJIT3.0)"/>
<line x1="692.8782608695652" y1="462.43286956031045" x2="700.2347826086958" y2="462.43286956031045" stroke="#000"/>
<line x1="692.8782608695652" y1="463.83118147898466" x2="700.2347826086958" y2="463.83118147898466" stroke="#000"/>
<line x1="696.5565217391305" y1="462.43286956031045" x2="696.5565217391305" y2="463.83118147898466" stroke="#000"/>
<rect x="700.2347826086957" y="462.3889130221003" width="7.356521739130435" height="35.611086977899596" fill="green" data-tooltip="0.68x baseline speed (MJIT)"/>
<line x1="700.2347826086957" y1="456.25502132784277" x2="707.5913043478262" y2="456.25502132784277" stroke="#000"/>
<line x1="700.2347826086957" y1="468.52280471635794" x2="707.5913043478262" y2="468.52280471635794" stroke="#000"/>
<line x1="703.9130434782609" y1="456.25502132784277" x2="703.9130434782609" y2="468.52280471635794" stroke="#000"/>
<rect x="707.5913043478262" y="100.19999999999999" width="7.356521739130435" height="397.79999999999995" fill="#4F3A7A" data-tooltip="7.57x baseline speed (YJIT)"/>
<line x1="707.5913043478262" y1="99.96469025014694" x2="714.9478260869566" y2="99.96469025014694" stroke="#000"/>
<line x1="707.5913043478262" y1="100.43530974985303" x2="714.9478260869566" y2="100.43530974985303" stroke="#000"/>
<line x1="711.2695652173913" y1="99.96469025014694" x2="711.2695652173913" y2="100.43530974985303" stroke="#000"/>
<line x1="703.9130434782609" y1="498.0" x2="703.9130434782609" y2="502.79999999999995" stroke="#000"/>
<text x="703.9130434782609" y="512.4" fill="#111" font-size="small" font-family="monospace" font-weight="bold" text-anchor="end" transform="rotate(-60, 703.9130434782609, 512.4)">
30k_methods
</text>
<rect x="722.304347826087" y="445.4698750689239" width="7.356521739130435" height="52.53012493107602" fill="#7070f8" data-tooltip="1.00x baseline speed (No JIT)"/>
<line x1="722.304347826087" y1="445.36769165941763" x2="729.6608695652175" y2="445.36769165941763" stroke="#000"/>
<line x1="722.304347826087" y1="445.5720584784301" x2="729.6608695652175" y2="445.5720584784301" stroke="#000"/>
<line x1="725.9826086956523" y1="445.36769165941763" x2="725.9826086956523" y2="445.5720584784301" stroke="#000"/>
<rect x="729.6608695652175" y="416.65544766570923" width="7.356521739130435" height="81.34455233429071" fill="orange" data-tooltip="1.55x baseline speed (MJIT3.0)"/>
<line x1="729.6608695652175" y1="416.26898778036343" x2="737.0173913043479" y2="416.26898778036343" stroke="#000"/>
<line x1="729.6608695652175" y1="417.04190755105503" x2="737.0173913043479" y2="417.04190755105503" stroke="#000"/>
<line x1="733.3391304347828" y1="416.26898778036343" x2="733.3391304347828" y2="417.04190755105503" stroke="#000"/>
<rect x="737.0173913043478" y="423.4143125855895" width="7.356521739130435" height="74.5856874144104" fill="green" data-tooltip="1.42x baseline speed (MJIT)"/>
<line x1="737.0173913043478" y1="420.7645919565892" x2="744.3739130434783" y2="420.7645919565892" stroke="#000"/>
<line x1="737.0173913043478" y1="426.0640332145898" x2="744.3739130434783" y2="426.0640332145898" stroke="#000"/>
<line x1="740.6956521739131" y1="420.7645919565892" x2="740.6956521739131" y2="426.0640332145898" stroke="#000"/>
<rect x="744.3739130434783" y="371.89670859041917" width="7.356521739130435" height="126.10329140958079" fill="#4F3A7A" data-tooltip="2.40x baseline speed (YJIT)"/>
<line x1="744.3739130434783" y1="370.81585140009344" x2="751.7304347826088" y2="370.81585140009344" stroke="#000"/>
<line x1="744.3739130434783" y1="372.9775657807449" x2="751.7304347826088" y2="372.9775657807449" stroke="#000"/>
<line x1="748.0521739130436" y1="370.81585140009344" x2="748.0521739130436" y2="372.9775657807449" stroke="#000"/>
<line x1="740.6956521739131" y1="498.0" x2="740.6956521739131" y2="502.79999999999995" stroke="#000"/>
<text x="740.6956521739131" y="512.4" fill="#111" font-size="small" font-family="monospace" font-weight="bold" text-anchor="end" transform="rotate(-60, 740.6956521739131, 512.4)">
cfunc_itself
</text>
<rect x="759.0869565217392" y="445.4698750689239" width="7.356521739130435" height="52.53012493107602" fill="#7070f8" data-tooltip="1.00x baseline speed (No JIT)"/>
<line x1="759.0869565217392" y1="445.42946235904907" x2="766.4434782608697" y2="445.42946235904907" stroke="#000"/>
<line x1="759.0869565217392" y1="445.51028777879867" x2="766.4434782608697" y2="445.51028777879867" stroke="#000"/>
<line x1="762.7652173913044" y1="445.42946235904907" x2="762.7652173913044" y2="445.51028777879867" stroke="#000"/>
<rect x="766.4434782608697" y="333.48080982506104" width="7.356521739130435" height="164.51919017493893" fill="orange" data-tooltip="3.13x baseline speed (MJIT3.0)"/>
<line x1="766.4434782608697" y1="333.06476597805363" x2="773.8000000000002" y2="333.06476597805363" stroke="#000"/>
<line x1="766.4434782608697" y1="333.89685367206846" x2="773.8000000000002" y2="333.89685367206846" stroke="#000"/>
<line x1="770.1217391304349" y1="333.06476597805363" x2="770.1217391304349" y2="333.89685367206846" stroke="#000"/>
<rect x="773.8000000000001" y="331.26392711794085" width="7.356521739130435" height="166.736072882059" fill="green" data-tooltip="3.17x baseline speed (MJIT)"/>
<line x1="773.8000000000001" y1="330.51785575558193" x2="781.1565217391305" y2="330.51785575558193" stroke="#000"/>
<line x1="773.8000000000001" y1="332.00999848029977" x2="781.1565217391305" y2="332.00999848029977" stroke="#000"/>
<line x1="777.4782608695652" y1="330.51785575558193" x2="777.4782608695652" y2="332.00999848029977" stroke="#000"/>
<rect x="781.1565217391305" y="296.24752498351063" width="7.356521739130435" height="201.75247501648929" fill="#4F3A7A" data-tooltip="3.84x baseline speed (YJIT)"/>
<line x1="781.1565217391305" y1="295.10178847630766" x2="788.513043478261" y2="295.10178847630766" stroke="#000"/>
<line x1="781.1565217391305" y1="297.39326149071366" x2="788.513043478261" y2="297.39326149071366" stroke="#000"/>
<line x1="784.8347826086957" y1="295.10178847630766" x2="784.8347826086957" y2="297.39326149071366" stroke="#000"/>
<line x1="777.4782608695652" y1="498.0" x2="777.4782608695652" y2="502.79999999999995" stroke="#000"/>
<text x="777.4782608695652" y="512.4" fill="#111" font-size="small" font-family="monospace" font-weight="bold" text-anchor="end" transform="rotate(-60, 777.4782608695652, 512.4)">
fib
</text>
<rect x="795.8695652173913" y="445.4698750689239" width="7.356521739130435" height="52.53012493107602" fill="#7070f8" data-tooltip="1.00x baseline speed (No JIT)"/>
<line x1="795.8695652173913" y1="445.26727204490504" x2="803.2260869565217" y2="445.26727204490504" stroke="#000"/>
<line x1="795.8695652173913" y1="445.6724780929427" x2="803.2260869565217" y2="445.6724780929427" stroke="#000"/>
<line x1="799.5478260869565" y1="445.26727204490504" x2="799.5478260869565" y2="445.6724780929427" stroke="#000"/>
<rect x="803.2260869565217" y="337.77821421475403" width="7.356521739130435" height="160.22178578524588" fill="orange" data-tooltip="3.05x baseline speed (MJIT3.0)"/>
<line x1="803.2260869565217" y1="192.94402484985557" x2="810.5826086956522" y2="192.94402484985557" stroke="#000"/>
<line x1="803.2260869565217" y1="482.61240357965244" x2="810.5826086956522" y2="482.61240357965244" stroke="#000"/>
<line x1="806.904347826087" y1="192.94402484985557" x2="806.904347826087" y2="482.61240357965244" stroke="#000"/>
<rect x="810.5826086956521" y="292.08732867329024" width="7.356521739130435" height="205.9126713267097" fill="green" data-tooltip="3.92x baseline speed (MJIT)"/>
<line x1="810.5826086956521" y1="163.24487786972261" x2="817.9391304347827" y2="163.24487786972261" stroke="#000"/>
<line x1="810.5826086956521" y1="420.92977947685785" x2="817.9391304347827" y2="420.92977947685785" stroke="#000"/>
<line x1="814.2608695652174" y1="163.24487786972261" x2="814.2608695652174" y2="420.92977947685785" stroke="#000"/>
<rect x="817.9391304347827" y="373.11853050385355" width="7.356521739130435" height="124.88146949614635" fill="#4F3A7A" data-tooltip="2.38x baseline speed (YJIT)"/>
<line x1="817.9391304347827" y1="372.1591871248754" x2="825.2956521739131" y2="372.1591871248754" stroke="#000"/>
<line x1="817.9391304347827" y1="374.07787388283174" x2="825.2956521739131" y2="374.07787388283174" stroke="#000"/>
<line x1="821.6173913043478" y1="372.1591871248754" x2="821.6173913043478" y2="374.07787388283174" stroke="#000"/>
<line x1="814.2608695652174" y1="498.0" x2="814.2608695652174" y2="502.79999999999995" stroke="#000"/>
<text x="814.2608695652174" y="512.4" fill="#111" font-size="small" font-family="monospace" font-weight="bold" text-anchor="end" transform="rotate(-60, 814.2608695652174, 512.4)">
getivar
</text>
<rect x="832.6521739130435" y="445.4698750689239" width="7.356521739130435" height="52.53012493107602" fill="#7070f8" data-tooltip="1.00x baseline speed (No JIT)"/>
<line x1="832.6521739130435" y1="445.4325023191239" x2="840.008695652174" y2="445.4325023191239" stroke="#000"/>
<line x1="832.6521739130435" y1="445.5072478187239" x2="840.008695652174" y2="445.5072478187239" stroke="#000"/>
<line x1="836.3304347826087" y1="445.4325023191239" x2="836.3304347826087" y2="445.5072478187239" stroke="#000"/>
<rect x="840.008695652174" y="432.82704241421624" width="7.356521739130435" height="65.17295758578369" fill="orange" data-tooltip="1.24x baseline speed (MJIT3.0)"/>
<line x1="840.008695652174" y1="432.52173701478586" x2="847.3652173913044" y2="432.52173701478586" stroke="#000"/>
<line x1="840.008695652174" y1="433.13234781364656" x2="847.3652173913044" y2="433.13234781364656" stroke="#000"/>
<line x1="843.6869565217391" y1="432.52173701478586" x2="843.6869565217391" y2="433.13234781364656" stroke="#000"/>
<rect x="847.3652173913043" y="432.8876589857142" width="7.356521739130435" height="65.11234101428582" fill="green" data-tooltip="1.24x baseline speed (MJIT)"/>
<line x1="847.3652173913043" y1="431.79556781362965" x2="854.7217391304348" y2="431.79556781362965" stroke="#000"/>
<line x1="847.3652173913043" y1="433.9797501577988" x2="854.7217391304348" y2="433.9797501577988" stroke="#000"/>
<line x1="851.0434782608696" y1="431.79556781362965" x2="851.0434782608696" y2="433.9797501577988" stroke="#000"/>
<rect x="854.7217391304348" y="215.678320223589" width="7.356521739130435" height="282.3216797764109" fill="#4F3A7A" data-tooltip="5.37x baseline speed (YJIT)"/>
<line x1="854.7217391304348" y1="213.77389531177167" x2="862.0782608695653" y2="213.77389531177167" stroke="#000"/>
<line x1="854.7217391304348" y1="217.5827451354063" x2="862.0782608695653" y2="217.5827451354063" stroke="#000"/>
<line x1="858.4000000000001" y1="213.77389531177167" x2="858.4000000000001" y2="217.5827451354063" stroke="#000"/>
<line x1="851.0434782608696" y1="498.0" x2="851.0434782608696" y2="502.79999999999995" stroke="#000"/>
<text x="851.0434782608696" y="512.4" fill="#111" font-size="small" font-family="monospace" font-weight="bold" text-anchor="end" transform="rotate(-60, 851.0434782608696, 512.4)">
keyword_args
</text>
<rect x="869.4347826086956" y="445.4698750689239" width="7.356521739130435" height="52.53012493107602" fill="#7070f8" data-tooltip="1.00x baseline speed (No JIT)"/>
<line x1="869.4347826086956" y1="445.3892210004326" x2="876.7913043478261" y2="445.3892210004326" stroke="#000"/>
<line x1="869.4347826086956" y1="445.5505291374152" x2="876.7913043478261" y2="445.5505291374152" stroke="#000"/>
<line x1="873.1130434782609" y1="445.3892210004326" x2="873.1130434782609" y2="445.5505291374152" stroke="#000"/>
<rect x="876.7913043478261" y="433.5225186782218" width="7.356521739130435" height="64.47748132177814" fill="orange" data-tooltip="1.23x baseline speed (MJIT3.0)"/>
<line x1="876.7913043478261" y1="432.9370112816558" x2="884.1478260869567" y2="432.9370112816558" stroke="#000"/>
<line x1="876.7913043478261" y1="434.1080260747878" x2="884.1478260869567" y2="434.1080260747878" stroke="#000"/>
<line x1="880.4695652173914" y1="432.9370112816558" x2="880.4695652173914" y2="434.1080260747878" stroke="#000"/>
<rect x="884.1478260869566" y="435.67220542583027" width="7.356521739130435" height="62.32779457416964" fill="green" data-tooltip="1.19x baseline speed (MJIT)"/>
<line x1="884.1478260869566" y1="435.3067965317261" x2="891.504347826087" y2="435.3067965317261" stroke="#000"/>
<line x1="884.1478260869566" y1="436.03761431993445" x2="891.504347826087" y2="436.03761431993445" stroke="#000"/>
<line x1="887.8260869565217" y1="435.3067965317261" x2="887.8260869565217" y2="436.03761431993445" stroke="#000"/>
<rect x="891.504347826087" y="421.7794390357643" width="7.356521739130435" height="76.22056096423563" fill="#4F3A7A" data-tooltip="1.45x baseline speed (YJIT)"/>
<line x1="891.504347826087" y1="421.4977074082013" x2="898.8608695652175" y2="421.4977074082013" stroke="#000"/>
<line x1="891.504347826087" y1="422.06117066332735" x2="898.8608695652175" y2="422.06117066332735" stroke="#000"/>
<line x1="895.1826086956522" y1="421.4977074082013" x2="895.1826086956522" y2="422.06117066332735" stroke="#000"/>
<line x1="887.8260869565217" y1="498.0" x2="887.8260869565217" y2="502.79999999999995" stroke="#000"/>
<text x="887.8260869565217" y="512.4" fill="#111" font-size="small" font-family="monospace" font-weight="bold" text-anchor="end" transform="rotate(-60, 887.8260869565217, 512.4)">
respond_to
</text>
<rect x="906.2173913043479" y="445.4698750689239" width="7.356521739130435" height="52.53012493107602" fill="#7070f8" data-tooltip="1.00x baseline speed (No JIT)"/>
<line x1="906.2173913043479" y1="445.33594443116044" x2="913.5739130434783" y2="445.33594443116044" stroke="#000"/>
<line x1="906.2173913043479" y1="445.60380570668735" x2="913.5739130434783" y2="445.60380570668735" stroke="#000"/>
<line x1="909.895652173913" y1="445.33594443116044" x2="909.895652173913" y2="445.60380570668735" stroke="#000"/>
<rect x="913.5739130434783" y="211.9077176769801" width="7.356521739130435" height="286.09228232301984" fill="orange" data-tooltip="5.45x baseline speed (MJIT3.0)"/>
<line x1="913.5739130434783" y1="-136.39870874300647" x2="920.9304347826088" y2="-136.39870874300647" stroke="#000"/>
<line x1="913.5739130434783" y1="560.2141440969667" x2="920.9304347826088" y2="560.2141440969667" stroke="#000"/>
<line x1="917.2521739130436" y1="-136.39870874300647" x2="917.2521739130436" y2="560.2141440969667" stroke="#000"/>
<rect x="920.9304347826087" y="149.86144909466591" width="7.356521739130435" height="348.13855090533406" fill="green" data-tooltip="6.63x baseline speed (MJIT)"/>
<line x1="920.9304347826087" y1="-163.52233429557552" x2="928.2869565217392" y2="-163.52233429557552" stroke="#000"/>
<line x1="920.9304347826087" y1="463.2452324849074" x2="928.2869565217392" y2="463.2452324849074" stroke="#000"/>
<line x1="924.608695652174" y1="-163.52233429557552" x2="924.608695652174" y2="463.2452324849074" stroke="#000"/>
<rect x="928.2869565217392" y="418.99928389950213" width="7.356521739130435" height="79.00071610049787" fill="#4F3A7A" data-tooltip="1.50x baseline speed (YJIT)"/>
<line x1="928.2869565217392" y1="418.4221003883319" x2="935.6434782608696" y2="418.4221003883319" stroke="#000"/>
<line x1="928.2869565217392" y1="419.57646741067236" x2="935.6434782608696" y2="419.57646741067236" stroke="#000"/>
<line x1="931.9652173913045" y1="418.4221003883319" x2="931.9652173913045" y2="419.57646741067236" stroke="#000"/>
<line x1="924.608695652174" y1="498.0" x2="924.608695652174" y2="502.79999999999995" stroke="#000"/>
<text x="924.608695652174" y="512.4" fill="#111" font-size="small" font-family="monospace" font-weight="bold" text-anchor="end" transform="rotate(-60, 924.608695652174, 512.4)">
setivar
</text>
</svg>