<svg viewBox="0 0 1000 600" xmlns="http://www.w3.org/2000/svg" xmlns:xlink="http://www.w3.org/1999/xlink" width="100%" height="100%">

<rect x="50.0" y="30.0" width="940.0" height="467.99999999999994" stroke="#000" fill="#EEE"/>
<line x1="42.0" y1="497.9999999999999" x2="50.0" y2="497.9999999999999" stroke="#000"/>
<text x="26.000000000000004" y="497.9999999999999" text-anchor="end" font-weight="bold" font-size="small" fill="#111">
0.0
</text>
<line x1="42.0" y1="444.2964420524822" x2="50.0" y2="444.2964420524822" stroke="#000"/>
<text x="26.000000000000004" y="444.2964420524822" text-anchor="end" font-weight="bold" font-size="small" fill="#111">
0.2
</text>
<line x1="42.0" y1="390.5928841049644" x2="50.0" y2="390.5928841049644" stroke="#000"/>
<text x="26.000000000000004" y="390.5928841049644" text-anchor="end" font-weight="bold" font-size="small" fill="#111">
0.4
</text>
<line x1="42.0" y1="336.88932615744665" x2="50.0" y2="336.88932615744665" stroke="#000"/>
<text x="26.000000000000004" y="336.88932615744665" text-anchor="end" font-weight="bold" font-size="small" fill="#111">
0.6
</text>
<line x1="42.0" y1="283.18576820992894" x2="50.0" y2="283.18576820992894" stroke="#000"/>
<text x="26.000000000000004" y="283.18576820992894" text-anchor="end" font-weight="bold" font-size="small" fill="#111">
0.8
</text>
<line x1="42.0" y1="229.48221026241117" x2="50.0" y2="229.48221026241117" stroke="#000"/>
<text x="26.000000000000004" y="229.48221026241117" text-anchor="end" font-weight="bold" font-size="small" fill="#111">
1.0
</text>
<line x1="42.0" y1="175.77865231489344" x2="50.0" y2="175.77865231489344" stroke="#000"/>
<text x="26.000000000000004" y="175.77865231489344" text-anchor="end" font-weight="bold" font-size="small" fill="#111">
1.2
</text>
<line x1="42.0" y1="122.0750943673757" x2="50.0" y2="122.0750943673757" stroke="#000"/>
<text x="26.000000000000004" y="122.0750943673757" text-anchor="end" font-weight="bold" font-size="small" fill="#111">
1.4
</text>
<rect x="197.99999999999997" y="36.00000000000001" width="80.0" height="18.0" fill="#7070f8" stroke="#888"/>
<text x="238.0" y="52.50000000000001" font-size="small" text-anchor="middle" font-weight="bold" fill="#EEE">
No JIT
</text>
<rect x="479.99999999999994" y="36.00000000000001" width="80.0" height="18.0" fill="orange" stroke="#888"/>
<text x="519.9999999999999" y="52.50000000000001" font-size="small" text-anchor="middle" font-weight="bold" fill="#EEE">
MJIT
</text>
<rect x="761.9999999999999" y="36.00000000000001" width="80.0" height="18.0" fill="green" stroke="#888"/>
<text x="801.9999999999999" y="52.50000000000001" font-size="small" text-anchor="middle" font-weight="bold" fill="#EEE">
YJIT
</text>
<rect x="97.0" y="229.48221026241117" width="35.25" height="268.51778973758877" fill="#7070f8" data-tooltip="1.00x baseline speed (No JIT)"/>
<line x1="97.0" y1="224.96267238029407" x2="132.25" y2="224.96267238029407" stroke="#000"/>
<line x1="97.0" y1="234.00174814452828" x2="132.25" y2="234.00174814452828" stroke="#000"/>
<line x1="114.625" y1="224.96267238029407" x2="114.625" y2="234.00174814452828" stroke="#000"/>
<rect x="132.25" y="263.91954008088123" width="35.25" height="234.08045991911868" fill="orange" data-tooltip="0.87x baseline speed (MJIT)"/>
<line x1="132.25" y1="252.68195350237903" x2="167.5" y2="252.68195350237903" stroke="#000"/>
<line x1="132.25" y1="275.1571266593835" x2="167.5" y2="275.1571266593835" stroke="#000"/>
<line x1="149.875" y1="252.68195350237903" x2="149.875" y2="275.1571266593835" stroke="#000"/>
<rect x="167.49999999999997" y="102.63680179930931" width="35.25" height="395.36319820069065" fill="green" data-tooltip="1.47x baseline speed (YJIT)"/>
<line x1="167.49999999999997" y1="95.75271870404684" x2="202.75" y2="95.75271870404684" stroke="#000"/>
<line x1="167.49999999999997" y1="109.52088489457178" x2="202.75" y2="109.52088489457178" stroke="#000"/>
<line x1="185.12499999999997" y1="95.75271870404684" x2="185.12499999999997" y2="109.52088489457178" stroke="#000"/>
<line x1="167.49999999999997" y1="498.0" x2="167.49999999999997" y2="502.79999999999995" stroke="#000"/>
<text x="167.49999999999997" y="512.4" fill="#111" font-size="small" font-family="monospace" font-weight="bold" text-anchor="end" transform="rotate(-60, 167.49999999999997, 512.4)">
activerecord
</text>
<rect x="238.0" y="229.48221026241117" width="35.25" height="268.51778973758877" fill="#7070f8" data-tooltip="1.00x baseline speed (No JIT)"/>
<line x1="238.0" y1="227.4765067472045" x2="273.25" y2="227.4765067472045" stroke="#000"/>
<line x1="238.0" y1="231.48791377761785" x2="273.25" y2="231.48791377761785" stroke="#000"/>
<line x1="255.625" y1="227.4765067472045" x2="255.625" y2="231.48791377761785" stroke="#000"/>
<rect x="308.5" y="134.94012518716525" width="35.25" height="363.05987481283466" fill="green" data-tooltip="1.35x baseline speed (YJIT)"/>
<line x1="308.5" y1="128.9843380876661" x2="343.75" y2="128.9843380876661" stroke="#000"/>
<line x1="308.5" y1="140.8959122866644" x2="343.75" y2="140.8959122866644" stroke="#000"/>
<line x1="326.125" y1="128.9843380876661" x2="326.125" y2="140.8959122866644" stroke="#000"/>
<line x1="308.5" y1="498.0" x2="308.5" y2="502.79999999999995" stroke="#000"/>
<text x="308.5" y="512.4" fill="#111" font-size="small" font-family="monospace" font-weight="bold" text-anchor="end" transform="rotate(-60, 308.5, 512.4)">
hexapdf
</text>
<rect x="379.0" y="229.48221026241117" width="35.25" height="268.51778973758877" fill="#7070f8" data-tooltip="1.00x baseline speed (No JIT)"/>
<line x1="379.0" y1="223.5574081472817" x2="414.25" y2="223.5574081472817" stroke="#000"/>
<line x1="379.0" y1="235.40701237754064" x2="414.25" y2="235.40701237754064" stroke="#000"/>
<line x1="396.625" y1="223.5574081472817" x2="396.625" y2="235.40701237754064" stroke="#000"/>
<rect x="414.25" y="215.52362561640334" width="35.25" height="282.47637438359664" fill="orange" data-tooltip="1.05x baseline speed (MJIT)"/>
<line x1="414.25" y1="208.1208341595845" x2="449.5" y2="208.1208341595845" stroke="#000"/>
<line x1="414.25" y1="222.92641707322218" x2="449.5" y2="222.92641707322218" stroke="#000"/>
<line x1="431.875" y1="208.1208341595845" x2="431.875" y2="222.92641707322218" stroke="#000"/>
<rect x="449.5" y="100.19999999999999" width="35.25" height="397.79999999999995" fill="green" data-tooltip="1.48x baseline speed (YJIT)"/>
<line x1="449.5" y1="88.68587522372619" x2="484.75" y2="88.68587522372619" stroke="#000"/>
<line x1="449.5" y1="111.71412477627379" x2="484.75" y2="111.71412477627379" stroke="#000"/>
<line x1="467.125" y1="88.68587522372619" x2="467.125" y2="111.71412477627379" stroke="#000"/>
<line x1="449.5" y1="498.0" x2="449.5" y2="502.79999999999995" stroke="#000"/>
<text x="449.5" y="512.4" fill="#111" font-size="small" font-family="monospace" font-weight="bold" text-anchor="end" transform="rotate(-60, 449.5, 512.4)">
liquid-render
</text>
<rect x="519.9999999999999" y="229.48221026241117" width="35.25" height="268.51778973758877" fill="#7070f8" data-tooltip="1.00x baseline speed (No JIT)"/>
<line x1="519.9999999999999" y1="224.09045842453637" x2="555.2499999999999" y2="224.09045842453637" stroke="#000"/>
<line x1="519.9999999999999" y1="234.87396210028598" x2="555.2499999999999" y2="234.87396210028598" stroke="#000"/>
<line x1="537.6249999999999" y1="224.09045842453637" x2="537.6249999999999" y2="234.87396210028598" stroke="#000"/>
<rect x="555.2499999999999" y="232.02344221356088" width="35.25" height="265.97655778643906" fill="orange" data-tooltip="0.99x baseline speed (MJIT)"/>
<line x1="555.2499999999999" y1="221.80956857483608" x2="590.4999999999999" y2="221.80956857483608" stroke="#000"/>
<line x1="555.2499999999999" y1="242.23731585228566" x2="590.4999999999999" y2="242.23731585228566" stroke="#000"/>
<line x1="572.8749999999999" y1="221.80956857483608" x2="572.8749999999999" y2="242.23731585228566" stroke="#000"/>
<rect x="590.4999999999999" y="205.85013598390205" width="35.25" height="292.14986401609787" fill="green" data-tooltip="1.09x baseline speed (YJIT)"/>
<line x1="590.4999999999999" y1="195.977962044574" x2="625.7499999999999" y2="195.977962044574" stroke="#000"/>
<line x1="590.4999999999999" y1="215.72230992323009" x2="625.7499999999999" y2="215.72230992323009" stroke="#000"/>
<line x1="608.1249999999999" y1="195.977962044574" x2="608.1249999999999" y2="215.72230992323009" stroke="#000"/>
<line x1="590.4999999999999" y1="498.0" x2="590.4999999999999" y2="502.79999999999995" stroke="#000"/>
<text x="590.4999999999999" y="512.4" fill="#111" font-size="small" font-family="monospace" font-weight="bold" text-anchor="end" transform="rotate(-60, 590.4999999999999, 512.4)">
mail
</text>
<rect x="660.9999999999999" y="229.48221026241117" width="35.25" height="268.51778973758877" fill="#7070f8" data-tooltip="1.00x baseline speed (No JIT)"/>
<line x1="660.9999999999999" y1="229.42609680475047" x2="696.2499999999999" y2="229.42609680475047" stroke="#000"/>
<line x1="660.9999999999999" y1="229.53832372007187" x2="696.2499999999999" y2="229.53832372007187" stroke="#000"/>
<line x1="678.6249999999999" y1="229.42609680475047" x2="678.6249999999999" y2="229.53832372007187" stroke="#000"/>
<rect x="696.2499999999999" y="192.13750006741336" width="35.25" height="305.86249993258656" fill="orange" data-tooltip="1.14x baseline speed (MJIT)"/>
<line x1="696.2499999999999" y1="191.8139594353778" x2="731.4999999999999" y2="191.8139594353778" stroke="#000"/>
<line x1="696.2499999999999" y1="192.46104069944892" x2="731.4999999999999" y2="192.46104069944892" stroke="#000"/>
<line x1="713.8749999999999" y1="191.8139594353778" x2="713.8749999999999" y2="192.46104069944892" stroke="#000"/>
<rect x="731.4999999999999" y="163.14045325087466" width="35.25" height="334.85954674912534" fill="green" data-tooltip="1.25x baseline speed (YJIT)"/>
<line x1="731.4999999999999" y1="162.97603096821962" x2="766.7499999999999" y2="162.97603096821962" stroke="#000"/>
<line x1="731.4999999999999" y1="163.30487553352967" x2="766.7499999999999" y2="163.30487553352967" stroke="#000"/>
<line x1="749.1249999999999" y1="162.97603096821962" x2="749.1249999999999" y2="163.30487553352967" stroke="#000"/>
<line x1="731.4999999999999" y1="498.0" x2="731.4999999999999" y2="502.79999999999995" stroke="#000"/>
<text x="731.4999999999999" y="512.4" fill="#111" font-size="small" font-family="monospace" font-weight="bold" text-anchor="end" transform="rotate(-60, 731.4999999999999, 512.4)">
psych-load
</text>
<rect x="801.9999999999999" y="229.48221026241117" width="35.25" height="268.51778973758877" fill="#7070f8" data-tooltip="1.00x baseline speed (No JIT)"/>
<line x1="801.9999999999999" y1="228.0364693909911" x2="837.2499999999999" y2="228.0364693909911" stroke="#000"/>
<line x1="801.9999999999999" y1="230.92795113383121" x2="837.2499999999999" y2="230.92795113383121" stroke="#000"/>
<line x1="819.6249999999999" y1="228.0364693909911" x2="819.6249999999999" y2="230.92795113383121" stroke="#000"/>
<rect x="837.2499999999999" y="258.8427419297495" width="35.25" height="239.15725807025046" fill="orange" data-tooltip="0.89x baseline speed (MJIT)"/>
<line x1="837.2499999999999" y1="256.9018267288804" x2="872.4999999999999" y2="256.9018267288804" stroke="#000"/>
<line x1="837.2499999999999" y1="260.78365713061856" x2="872.4999999999999" y2="260.78365713061856" stroke="#000"/>
<line x1="854.8749999999999" y1="256.9018267288804" x2="854.8749999999999" y2="260.78365713061856" stroke="#000"/>
<rect x="872.4999999999999" y="154.50813448497908" width="35.25" height="343.4918655150209" fill="green" data-tooltip="1.28x baseline speed (YJIT)"/>
<line x1="872.4999999999999" y1="150.7704314552241" x2="907.75" y2="150.7704314552241" stroke="#000"/>
<line x1="872.4999999999999" y1="158.24583751473406" x2="907.75" y2="158.24583751473406" stroke="#000"/>
<line x1="890.125" y1="150.7704314552241" x2="890.125" y2="158.24583751473406" stroke="#000"/>
<line x1="872.4999999999999" y1="498.0" x2="872.4999999999999" y2="502.79999999999995" stroke="#000"/>
<text x="872.4999999999999" y="512.4" fill="#111" font-size="small" font-family="monospace" font-weight="bold" text-anchor="end" transform="rotate(-60, 872.4999999999999, 512.4)">
railsbench
</text>
</svg>