<svg viewBox="0 0 1000 600" xmlns="http://www.w3.org/2000/svg" xmlns:xlink="http://www.w3.org/1999/xlink" width="100%" height="100%">

<rect x="50.0" y="30.0" width="940.0" height="467.99999999999994" stroke="#000" fill="#EEE"/>
<line x1="42.0" y1="497.9999999999999" x2="50.0" y2="497.9999999999999" stroke="#000"/>
<text x="26.000000000000004" y="497.9999999999999" text-anchor="end" font-weight="bold" font-size="small" fill="#111">
0.0
</text>
<line x1="42.0" y1="413.9059885195252" x2="50.0" y2="413.9059885195252" stroke="#000"/>
<text x="26.000000000000004" y="413.9059885195252" text-anchor="end" font-weight="bold" font-size="small" fill="#111">
2.0
</text>
<line x1="42.0" y1="329.8119770390505" x2="50.0" y2="329.8119770390505" stroke="#000"/>
<text x="26.000000000000004" y="329.8119770390505" text-anchor="end" font-weight="bold" font-size="small" fill="#111">
4.0
</text>
<line x1="42.0" y1="245.71796555857566" x2="50.0" y2="245.71796555857566" stroke="#000"/>
<text x="26.000000000000004" y="245.71796555857566" text-anchor="end" font-weight="bold" font-size="small" fill="#111">
6.0
</text>
<line x1="42.0" y1="161.62395407810092" x2="50.0" y2="161.62395407810092" stroke="#000"/>
<text x="26.000000000000004" y="161.62395407810092" text-anchor="end" font-weight="bold" font-size="small" fill="#111">
8.0
</text>
<rect x="268.5" y="36.00000000000001" width="80.0" height="18.0" fill="#7070f8" stroke="#888"/>
<text x="308.5" y="52.50000000000001" font-size="small" text-anchor="middle" font-weight="bold" fill="#EEE">
No JIT
</text>
<rect x="691.4999999999999" y="36.00000000000001" width="80.0" height="18.0" fill="orange" stroke="#888"/>
<text x="731.4999999999999" y="52.50000000000001" font-size="small" text-anchor="middle" font-weight="bold" fill="#EEE">
YJIT
</text>
<rect x="97.0" y="455.9529942597626" width="9.724137931034482" height="42.04700574023738" fill="#7070f8" data-tooltip="1.00x baseline speed (No JIT)"/>
<line x1="97.0" y1="455.8163757683838" x2="106.72413793103448" y2="455.8163757683838" stroke="#000"/>
<line x1="97.0" y1="456.08961275114143" x2="106.72413793103448" y2="456.08961275114143" stroke="#000"/>
<line x1="101.86206896551725" y1="455.8163757683838" x2="101.86206896551725" y2="456.08961275114143" stroke="#000"/>
<rect x="106.72413793103448" y="426.35346162174125" width="9.724137931034482" height="71.64653837825873" fill="orange" data-tooltip="1.70x baseline speed (YJIT)"/>
<line x1="106.72413793103448" y1="425.9020864137126" x2="116.44827586206897" y2="425.9020864137126" stroke="#000"/>
<line x1="106.72413793103448" y1="426.80483682976995" x2="116.44827586206897" y2="426.80483682976995" stroke="#000"/>
<line x1="111.58620689655173" y1="425.9020864137126" x2="111.58620689655173" y2="426.80483682976995" stroke="#000"/>
<line x1="111.58620689655173" y1="498.0" x2="111.58620689655173" y2="502.79999999999995" stroke="#000"/>
<text x="111.58620689655173" y="512.4" fill="#111" font-size="small" font-family="monospace" font-weight="bold" text-anchor="end" transform="rotate(-60, 111.58620689655173, 512.4)">
activerecord
</text>
<rect x="126.17241379310346" y="455.9529942597626" width="9.724137931034482" height="42.04700574023738" fill="#7070f8" data-tooltip="1.00x baseline speed (No JIT)"/>
<line x1="126.17241379310346" y1="455.64155272395186" x2="135.89655172413794" y2="455.64155272395186" stroke="#000"/>
<line x1="126.17241379310346" y1="456.2644357955734" x2="135.89655172413794" y2="456.2644357955734" stroke="#000"/>
<line x1="131.0344827586207" y1="455.64155272395186" x2="131.0344827586207" y2="456.2644357955734" stroke="#000"/>
<rect x="135.89655172413794" y="431.3400346450489" width="9.724137931034482" height="66.65996535495107" fill="orange" data-tooltip="1.59x baseline speed (YJIT)"/>
<line x1="135.89655172413794" y1="429.6083902709698" x2="145.62068965517244" y2="429.6083902709698" stroke="#000"/>
<line x1="135.89655172413794" y1="433.071679019128" x2="145.62068965517244" y2="433.071679019128" stroke="#000"/>
<line x1="140.7586206896552" y1="429.6083902709698" x2="140.7586206896552" y2="433.071679019128" stroke="#000"/>
<line x1="140.75862068965517" y1="498.0" x2="140.75862068965517" y2="502.79999999999995" stroke="#000"/>
<text x="140.75862068965517" y="512.4" fill="#111" font-size="small" font-family="monospace" font-weight="bold" text-anchor="end" transform="rotate(-60, 140.75862068965517, 512.4)">
hexapdf
</text>
<rect x="155.34482758620692" y="455.9529942597626" width="9.724137931034482" height="42.04700574023738" fill="#7070f8" data-tooltip="1.00x baseline speed (No JIT)"/>
<line x1="155.34482758620692" y1="455.39123641614685" x2="165.0689655172414" y2="455.39123641614685" stroke="#000"/>
<line x1="155.34482758620692" y1="456.5147521033783" x2="165.0689655172414" y2="456.5147521033783" stroke="#000"/>
<line x1="160.20689655172416" y1="455.39123641614685" x2="160.20689655172416" y2="456.5147521033783" stroke="#000"/>
<rect x="165.0689655172414" y="441.0161658174284" width="9.724137931034482" height="56.98383418257158" fill="orange" data-tooltip="1.36x baseline speed (YJIT)"/>
<line x1="165.0689655172414" y1="439.630947042532" x2="174.7931034482759" y2="439.630947042532" stroke="#000"/>
<line x1="165.0689655172414" y1="442.4013845923247" x2="174.7931034482759" y2="442.4013845923247" stroke="#000"/>
<line x1="169.93103448275863" y1="439.630947042532" x2="169.93103448275863" y2="442.4013845923247" stroke="#000"/>
<line x1="169.93103448275863" y1="498.0" x2="169.93103448275863" y2="502.79999999999995" stroke="#000"/>
<text x="169.93103448275863" y="512.4" fill="#111" font-size="small" font-family="monospace" font-weight="bold" text-anchor="end" transform="rotate(-60, 169.93103448275863, 512.4)">
liquid-c
</text>
<rect x="184.51724137931035" y="455.9529942597626" width="9.724137931034482" height="42.04700574023738" fill="#7070f8" data-tooltip="1.00x baseline speed (No JIT)"/>
<line x1="184.51724137931035" y1="455.2346759971085" x2="194.24137931034485" y2="455.2346759971085" stroke="#000"/>
<line x1="184.51724137931035" y1="456.67131252241666" x2="194.24137931034485" y2="456.67131252241666" stroke="#000"/>
<line x1="189.37931034482762" y1="455.2346759971085" x2="189.37931034482762" y2="456.67131252241666" stroke="#000"/>
<rect x="194.24137931034485" y="421.30875144807874" width="9.724137931034482" height="76.69124855192128" fill="orange" data-tooltip="1.82x baseline speed (YJIT)"/>
<line x1="194.24137931034485" y1="418.94758385499296" x2="203.96551724137936" y2="418.94758385499296" stroke="#000"/>
<line x1="194.24137931034485" y1="423.66991904116446" x2="203.96551724137936" y2="423.66991904116446" stroke="#000"/>
<line x1="199.1034482758621" y1="418.94758385499296" x2="199.1034482758621" y2="423.66991904116446" stroke="#000"/>
<line x1="199.10344827586206" y1="498.0" x2="199.10344827586206" y2="502.79999999999995" stroke="#000"/>
<text x="199.10344827586206" y="512.4" fill="#111" font-size="small" font-family="monospace" font-weight="bold" text-anchor="end" transform="rotate(-60, 199.10344827586206, 512.4)">
liquid-render
</text>
<rect x="213.68965517241378" y="455.9529942597626" width="9.724137931034482" height="42.04700574023738" fill="#7070f8" data-tooltip="1.00x baseline speed (No JIT)"/>
<line x1="213.68965517241378" y1="455.8895561871645" x2="223.41379310344828" y2="455.8895561871645" stroke="#000"/>
<line x1="213.68965517241378" y1="456.01643233236075" x2="223.41379310344828" y2="456.01643233236075" stroke="#000"/>
<line x1="218.55172413793102" y1="455.8895561871645" x2="218.55172413793102" y2="456.01643233236075" stroke="#000"/>
<rect x="223.41379310344828" y="444.50016243010475" width="9.724137931034482" height="53.49983756989512" fill="orange" data-tooltip="1.27x baseline speed (YJIT)"/>
<line x1="223.41379310344828" y1="444.38079429916763" x2="233.13793103448276" y2="444.38079429916763" stroke="#000"/>
<line x1="223.41379310344828" y1="444.61953056104187" x2="233.13793103448276" y2="444.61953056104187" stroke="#000"/>
<line x1="228.27586206896552" y1="444.38079429916763" x2="228.27586206896552" y2="444.61953056104187" stroke="#000"/>
<line x1="228.2758620689655" y1="498.0" x2="228.2758620689655" y2="502.79999999999995" stroke="#000"/>
<text x="228.2758620689655" y="512.4" fill="#111" font-size="small" font-family="monospace" font-weight="bold" text-anchor="end" transform="rotate(-60, 228.2758620689655, 512.4)">
mail
</text>
<rect x="242.86206896551724" y="455.9529942597626" width="9.724137931034482" height="42.04700574023738" fill="#7070f8" data-tooltip="1.00x baseline speed (No JIT)"/>
<line x1="242.86206896551724" y1="455.93342072727825" x2="252.58620689655172" y2="455.93342072727825" stroke="#000"/>
<line x1="242.86206896551724" y1="455.972567792247" x2="252.58620689655172" y2="455.972567792247" stroke="#000"/>
<line x1="247.72413793103448" y1="455.93342072727825" x2="247.72413793103448" y2="455.972567792247" stroke="#000"/>
<rect x="252.58620689655172" y="439.6993179969035" width="9.724137931034482" height="58.30068200309633" fill="orange" data-tooltip="1.39x baseline speed (YJIT)"/>
<line x1="252.58620689655172" y1="439.6696630960426" x2="262.3103448275862" y2="439.6696630960426" stroke="#000"/>
<line x1="252.58620689655172" y1="439.7289728977645" x2="262.3103448275862" y2="439.7289728977645" stroke="#000"/>
<line x1="257.4482758620689" y1="439.6696630960426" x2="257.4482758620689" y2="439.7289728977645" stroke="#000"/>
<line x1="257.44827586206895" y1="498.0" x2="257.44827586206895" y2="502.79999999999995" stroke="#000"/>
<text x="257.44827586206895" y="512.4" fill="#111" font-size="small" font-family="monospace" font-weight="bold" text-anchor="end" transform="rotate(-60, 257.44827586206895, 512.4)">
psych-load
</text>
<rect x="272.0344827586207" y="455.9529942597626" width="9.724137931034482" height="42.04700574023738" fill="#7070f8" data-tooltip="1.00x baseline speed (No JIT)"/>
<line x1="272.0344827586207" y1="455.70039886948626" x2="281.7586206896552" y2="455.70039886948626" stroke="#000"/>
<line x1="272.0344827586207" y1="456.205589650039" x2="281.7586206896552" y2="456.205589650039" stroke="#000"/>
<line x1="276.8965517241379" y1="455.70039886948626" x2="276.8965517241379" y2="456.205589650039" stroke="#000"/>
<rect x="281.7586206896552" y="434.95637504053667" width="9.724137931034482" height="63.04362495946324" fill="orange" data-tooltip="1.50x baseline speed (YJIT)"/>
<line x1="281.7586206896552" y1="434.1652443882481" x2="291.48275862068965" y2="434.1652443882481" stroke="#000"/>
<line x1="281.7586206896552" y1="435.74750569282526" x2="291.48275862068965" y2="435.74750569282526" stroke="#000"/>
<line x1="286.6206896551724" y1="434.1652443882481" x2="286.6206896551724" y2="435.74750569282526" stroke="#000"/>
<line x1="286.6206896551724" y1="498.0" x2="286.6206896551724" y2="502.79999999999995" stroke="#000"/>
<text x="286.6206896551724" y="512.4" fill="#111" font-size="small" font-family="monospace" font-weight="bold" text-anchor="end" transform="rotate(-60, 286.6206896551724, 512.4)">
railsbench
</text>
<rect x="301.2068965517242" y="455.9529942597626" width="9.724137931034482" height="42.04700574023738" fill="#7070f8" data-tooltip="1.00x baseline speed (No JIT)"/>
<line x1="301.2068965517242" y1="452.4191241082051" x2="310.93103448275866" y2="452.4191241082051" stroke="#000"/>
<line x1="301.2068965517242" y1="459.48686441132014" x2="310.93103448275866" y2="459.48686441132014" stroke="#000"/>
<line x1="306.0689655172414" y1="452.4191241082051" x2="306.0689655172414" y2="459.48686441132014" stroke="#000"/>
<rect x="310.93103448275866" y="444.09910057382126" width="9.724137931034482" height="53.900899426178675" fill="orange" data-tooltip="1.28x baseline speed (YJIT)"/>
<line x1="310.93103448275866" y1="432.3320416074282" x2="320.65517241379314" y2="432.3320416074282" stroke="#000"/>
<line x1="310.93103448275866" y1="455.8661595402143" x2="320.65517241379314" y2="455.8661595402143" stroke="#000"/>
<line x1="315.7931034482759" y1="432.3320416074282" x2="315.7931034482759" y2="455.8661595402143" stroke="#000"/>
<line x1="315.7931034482759" y1="498.0" x2="315.7931034482759" y2="502.79999999999995" stroke="#000"/>
<text x="315.7931034482759" y="512.4" fill="#111" font-size="small" font-family="monospace" font-weight="bold" text-anchor="end" transform="rotate(-60, 315.7931034482759, 512.4)">
ruby-lsp
</text>
<rect x="330.3793103448276" y="455.9529942597626" width="9.724137931034482" height="42.04700574023738" fill="#7070f8" data-tooltip="1.00x baseline speed (No JIT)"/>
<line x1="330.3793103448276" y1="455.4648032555278" x2="340.1034482758621" y2="455.4648032555278" stroke="#000"/>
<line x1="330.3793103448276" y1="456.44118526399745" x2="340.1034482758621" y2="456.44118526399745" stroke="#000"/>
<line x1="335.2413793103448" y1="455.4648032555278" x2="335.2413793103448" y2="456.44118526399745" stroke="#000"/>
<rect x="340.1034482758621" y="450.4436610966883" width="9.724137931034482" height="47.55633890331157" fill="orange" data-tooltip="1.13x baseline speed (YJIT)"/>
<line x1="340.1034482758621" y1="449.44630849750877" x2="349.82758620689657" y2="449.44630849750877" stroke="#000"/>
<line x1="340.1034482758621" y1="451.4410136958678" x2="349.82758620689657" y2="451.4410136958678" stroke="#000"/>
<line x1="344.9655172413793" y1="449.44630849750877" x2="344.9655172413793" y2="451.4410136958678" stroke="#000"/>
<line x1="344.9655172413793" y1="498.0" x2="344.9655172413793" y2="502.79999999999995" stroke="#000"/>
<text x="344.9655172413793" y="512.4" fill="#111" font-size="small" font-family="monospace" font-weight="bold" text-anchor="end" transform="rotate(-60, 344.9655172413793, 512.4)">
sequel
</text>
<rect x="359.551724137931" y="455.9529942597626" width="9.724137931034482" height="42.04700574023738" fill="#7070f8" data-tooltip="1.00x baseline speed (No JIT)"/>
<line x1="359.551724137931" y1="455.48292149244077" x2="369.2758620689655" y2="455.48292149244077" stroke="#000"/>
<line x1="359.551724137931" y1="456.42306702708447" x2="369.2758620689655" y2="456.42306702708447" stroke="#000"/>
<line x1="364.41379310344826" y1="455.48292149244077" x2="364.41379310344826" y2="456.42306702708447" stroke="#000"/>
<rect x="369.2758620689655" y="416.0346802908475" width="9.724137931034482" height="81.96531970915242" fill="orange" data-tooltip="1.95x baseline speed (YJIT)"/>
<line x1="369.2758620689655" y1="415.1164212938785" x2="379.0" y2="415.1164212938785" stroke="#000"/>
<line x1="369.2758620689655" y1="416.9529392878165" x2="379.0" y2="416.9529392878165" stroke="#000"/>
<line x1="374.13793103448273" y1="415.1164212938785" x2="374.13793103448273" y2="416.9529392878165" stroke="#000"/>
<line x1="374.13793103448273" y1="498.0" x2="374.13793103448273" y2="502.79999999999995" stroke="#000"/>
<text x="374.13793103448273" y="512.4" fill="#111" font-size="small" font-family="monospace" font-weight="bold" text-anchor="end" transform="rotate(-60, 374.13793103448273, 512.4)">
binarytrees
</text>
<rect x="388.7241379310344" y="455.9529942597626" width="9.724137931034482" height="42.04700574023738" fill="#7070f8" data-tooltip="1.00x baseline speed (No JIT)"/>
<line x1="388.7241379310344" y1="455.92297127701494" x2="398.44827586206895" y2="455.92297127701494" stroke="#000"/>
<line x1="388.7241379310344" y1="455.9830172425103" x2="398.44827586206895" y2="455.9830172425103" stroke="#000"/>
<line x1="393.5862068965517" y1="455.92297127701494" x2="393.5862068965517" y2="455.9830172425103" stroke="#000"/>
<rect x="398.44827586206895" y="432.04403909770576" width="9.724137931034482" height="65.95596090229424" fill="orange" data-tooltip="1.57x baseline speed (YJIT)"/>
<line x1="398.44827586206895" y1="431.98618272705386" x2="408.17241379310343" y2="431.98618272705386" stroke="#000"/>
<line x1="398.44827586206895" y1="432.10189546835767" x2="408.17241379310343" y2="432.10189546835767" stroke="#000"/>
<line x1="403.31034482758616" y1="431.98618272705386" x2="403.31034482758616" y2="432.10189546835767" stroke="#000"/>
<line x1="403.31034482758616" y1="498.0" x2="403.31034482758616" y2="502.79999999999995" stroke="#000"/>
<text x="403.31034482758616" y="512.4" fill="#111" font-size="small" font-family="monospace" font-weight="bold" text-anchor="end" transform="rotate(-60, 403.31034482758616, 512.4)">
chunky_png
</text>
<rect x="417.89655172413796" y="455.9529942597626" width="9.724137931034482" height="42.04700574023738" fill="#7070f8" data-tooltip="1.00x baseline speed (No JIT)"/>
<line x1="417.89655172413796" y1="455.6514405495278" x2="427.6206896551725" y2="455.6514405495278" stroke="#000"/>
<line x1="417.89655172413796" y1="456.25454796999736" x2="427.6206896551725" y2="456.25454796999736" stroke="#000"/>
<line x1="422.7586206896552" y1="455.6514405495278" x2="422.7586206896552" y2="456.25454796999736" stroke="#000"/>
<rect x="427.6206896551725" y="447.99846255970556" width="9.724137931034482" height="50.00153744029436" fill="orange" data-tooltip="1.19x baseline speed (YJIT)"/>
<line x1="427.6206896551725" y1="447.44240499652483" x2="437.344827586207" y2="447.44240499652483" stroke="#000"/>
<line x1="427.6206896551725" y1="448.5545201228863" x2="437.344827586207" y2="448.5545201228863" stroke="#000"/>
<line x1="432.4827586206897" y1="447.44240499652483" x2="432.4827586206897" y2="448.5545201228863" stroke="#000"/>
<line x1="432.4827586206897" y1="498.0" x2="432.4827586206897" y2="502.79999999999995" stroke="#000"/>
<text x="432.4827586206897" y="512.4" fill="#111" font-size="small" font-family="monospace" font-weight="bold" text-anchor="end" transform="rotate(-60, 432.4827586206897, 512.4)">
erubi
</text>
<rect x="447.0689655172414" y="455.9529942597626" width="9.724137931034482" height="42.04700574023738" fill="#7070f8" data-tooltip="1.00x baseline speed (No JIT)"/>
<line x1="447.0689655172414" y1="454.9684293107393" x2="456.7931034482759" y2="454.9684293107393" stroke="#000"/>
<line x1="447.0689655172414" y1="456.93755920878596" x2="456.7931034482759" y2="456.93755920878596" stroke="#000"/>
<line x1="451.9310344827586" y1="454.9684293107393" x2="451.9310344827586" y2="456.93755920878596" stroke="#000"/>
<rect x="456.7931034482759" y="429.73933162909896" width="9.724137931034482" height="68.26066837090103" fill="orange" data-tooltip="1.62x baseline speed (YJIT)"/>
<line x1="456.7931034482759" y1="426.9695834195128" x2="466.5172413793104" y2="426.9695834195128" stroke="#000"/>
<line x1="456.7931034482759" y1="432.5090798386851" x2="466.5172413793104" y2="432.5090798386851" stroke="#000"/>
<line x1="461.65517241379314" y1="426.9695834195128" x2="461.65517241379314" y2="432.5090798386851" stroke="#000"/>
<line x1="461.65517241379314" y1="498.0" x2="461.65517241379314" y2="502.79999999999995" stroke="#000"/>
<text x="461.65517241379314" y="512.4" fill="#111" font-size="small" font-family="monospace" font-weight="bold" text-anchor="end" transform="rotate(-60, 461.65517241379314, 512.4)">
erubi_rails
</text>
<rect x="476.2413793103448" y="455.9529942597626" width="9.724137931034482" height="42.04700574023738" fill="#7070f8" data-tooltip="1.00x baseline speed (No JIT)"/>
<line x1="476.2413793103448" y1="455.7570128797443" x2="485.9655172413793" y2="455.7570128797443" stroke="#000"/>
<line x1="476.2413793103448" y1="456.14897563978093" x2="485.9655172413793" y2="456.14897563978093" stroke="#000"/>
<line x1="481.10344827586204" y1="455.7570128797443" x2="481.10344827586204" y2="456.14897563978093" stroke="#000"/>
<rect x="485.9655172413793" y="456.0500047520692" width="9.724137931034482" height="41.94999524793072" fill="orange" data-tooltip="1.00x baseline speed (YJIT)"/>
<line x1="485.9655172413793" y1="455.7706980227044" x2="495.68965517241384" y2="455.7706980227044" stroke="#000"/>
<line x1="485.9655172413793" y1="456.329311481434" x2="495.68965517241384" y2="456.329311481434" stroke="#000"/>
<line x1="490.8275862068965" y1="455.7706980227044" x2="490.8275862068965" y2="456.329311481434" stroke="#000"/>
<line x1="490.8275862068965" y1="498.0" x2="490.8275862068965" y2="502.79999999999995" stroke="#000"/>
<text x="490.8275862068965" y="512.4" fill="#111" font-size="small" font-family="monospace" font-weight="bold" text-anchor="end" transform="rotate(-60, 490.8275862068965, 512.4)">
etanni
</text>
<rect x="505.41379310344826" y="455.9529942597626" width="9.724137931034482" height="42.04700574023738" fill="#7070f8" data-tooltip="1.00x baseline speed (No JIT)"/>
<line x1="505.41379310344826" y1="455.8228636103536" x2="515.1379310344827" y2="455.8228636103536" stroke="#000"/>
<line x1="505.41379310344826" y1="456.0831249091716" x2="515.1379310344827" y2="456.0831249091716" stroke="#000"/>
<line x1="510.27586206896547" y1="455.8228636103536" x2="510.27586206896547" y2="456.0831249091716" stroke="#000"/>
<rect x="515.1379310344827" y="387.02331002195854" width="9.724137931034482" height="110.9766899780414" fill="orange" data-tooltip="2.64x baseline speed (YJIT)"/>
<line x1="515.1379310344827" y1="386.67193815740774" x2="524.8620689655171" y2="386.67193815740774" stroke="#000"/>
<line x1="515.1379310344827" y1="387.37468188650934" x2="524.8620689655171" y2="387.37468188650934" stroke="#000"/>
<line x1="519.9999999999999" y1="386.67193815740774" x2="519.9999999999999" y2="387.37468188650934" stroke="#000"/>
<line x1="520.0" y1="498.0" x2="520.0" y2="502.79999999999995" stroke="#000"/>
<text x="520.0" y="512.4" fill="#111" font-size="small" font-family="monospace" font-weight="bold" text-anchor="end" transform="rotate(-60, 520.0, 512.4)">
fannkuchredux
</text>
<rect x="534.5862068965517" y="455.9529942597626" width="9.724137931034482" height="42.04700574023738" fill="#7070f8" data-tooltip="1.00x baseline speed (No JIT)"/>
<line x1="534.5862068965517" y1="455.9026926815753" x2="544.3103448275863" y2="455.9026926815753" stroke="#000"/>
<line x1="534.5862068965517" y1="456.00329583794996" x2="544.3103448275863" y2="456.00329583794996" stroke="#000"/>
<line x1="539.448275862069" y1="455.9026926815753" x2="539.448275862069" y2="456.00329583794996" stroke="#000"/>
<rect x="544.3103448275863" y="440.2123020424445" width="9.724137931034482" height="57.78769795755544" fill="orange" data-tooltip="1.37x baseline speed (YJIT)"/>
<line x1="544.3103448275863" y1="440.11887983868826" x2="554.0344827586207" y2="440.11887983868826" stroke="#000"/>
<line x1="544.3103448275863" y1="440.3057242462007" x2="554.0344827586207" y2="440.3057242462007" stroke="#000"/>
<line x1="549.1724137931035" y1="440.11887983868826" x2="549.1724137931035" y2="440.3057242462007" stroke="#000"/>
<line x1="549.1724137931036" y1="498.0" x2="549.1724137931036" y2="502.79999999999995" stroke="#000"/>
<text x="549.1724137931036" y="512.4" fill="#111" font-size="small" font-family="monospace" font-weight="bold" text-anchor="end" transform="rotate(-60, 549.1724137931036, 512.4)">
lee
</text>
<rect x="563.7586206896552" y="455.9529942597626" width="9.724137931034482" height="42.04700574023738" fill="#7070f8" data-tooltip="1.00x baseline speed (No JIT)"/>
<line x1="563.7586206896552" y1="455.93594224428983" x2="573.4827586206897" y2="455.93594224428983" stroke="#000"/>
<line x1="563.7586206896552" y1="455.9700462752354" x2="573.4827586206897" y2="455.9700462752354" stroke="#000"/>
<line x1="568.6206896551724" y1="455.93594224428983" x2="568.6206896551724" y2="455.9700462752354" stroke="#000"/>
<rect x="573.4827586206897" y="421.06800259455406" width="9.724137931034482" height="76.9319974054459" fill="orange" data-tooltip="1.83x baseline speed (YJIT)"/>
<line x1="573.4827586206897" y1="421.0017337713834" x2="583.2068965517241" y2="421.0017337713834" stroke="#000"/>
<line x1="573.4827586206897" y1="421.1342714177248" x2="583.2068965517241" y2="421.1342714177248" stroke="#000"/>
<line x1="578.3448275862069" y1="421.0017337713834" x2="578.3448275862069" y2="421.1342714177248" stroke="#000"/>
<line x1="578.344827586207" y1="498.0" x2="578.344827586207" y2="502.79999999999995" stroke="#000"/>
<text x="578.344827586207" y="512.4" fill="#111" font-size="small" font-family="monospace" font-weight="bold" text-anchor="end" transform="rotate(-60, 578.344827586207, 512.4)">
nbody
</text>
<rect x="592.9310344827586" y="455.9529942597626" width="9.724137931034482" height="42.04700574023738" fill="#7070f8" data-tooltip="1.00x baseline speed (No JIT)"/>
<line x1="592.9310344827586" y1="455.65356298696446" x2="602.655172413793" y2="455.65356298696446" stroke="#000"/>
<line x1="592.9310344827586" y1="456.2524255325608" x2="602.655172413793" y2="456.2524255325608" stroke="#000"/>
<line x1="597.7931034482758" y1="455.65356298696446" x2="597.7931034482758" y2="456.2524255325608" stroke="#000"/>
<rect x="602.655172413793" y="390.1827979899619" width="9.724137931034482" height="107.81720201003805" fill="orange" data-tooltip="2.56x baseline speed (YJIT)"/>
<line x1="602.655172413793" y1="389.1075499629644" x2="612.3793103448276" y2="389.1075499629644" stroke="#000"/>
<line x1="602.655172413793" y1="391.25804601695944" x2="612.3793103448276" y2="391.25804601695944" stroke="#000"/>
<line x1="607.5172413793102" y1="389.1075499629644" x2="607.5172413793102" y2="391.25804601695944" stroke="#000"/>
<line x1="607.5172413793103" y1="498.0" x2="607.5172413793103" y2="502.79999999999995" stroke="#000"/>
<text x="607.5172413793103" y="512.4" fill="#111" font-size="small" font-family="monospace" font-weight="bold" text-anchor="end" transform="rotate(-60, 607.5172413793103, 512.4)">
optcarrot
</text>
<rect x="622.1034482758621" y="455.9529942597626" width="9.724137931034482" height="42.04700574023738" fill="#7070f8" data-tooltip="1.00x baseline speed (No JIT)"/>
<line x1="622.1034482758621" y1="455.7756695769413" x2="631.8275862068965" y2="455.7756695769413" stroke="#000"/>
<line x1="622.1034482758621" y1="456.1303189425839" x2="631.8275862068965" y2="456.1303189425839" stroke="#000"/>
<line x1="626.9655172413793" y1="455.7756695769413" x2="626.9655172413793" y2="456.1303189425839" stroke="#000"/>
<rect x="631.8275862068965" y="418.1757106162066" width="9.724137931034482" height="79.82428938379344" fill="orange" data-tooltip="1.90x baseline speed (YJIT)"/>
<line x1="631.8275862068965" y1="417.731030678302" x2="641.5517241379309" y2="417.731030678302" stroke="#000"/>
<line x1="631.8275862068965" y1="418.6203905541111" x2="641.5517241379309" y2="418.6203905541111" stroke="#000"/>
<line x1="636.6896551724137" y1="417.731030678302" x2="636.6896551724137" y2="418.6203905541111" stroke="#000"/>
<line x1="636.6896551724138" y1="498.0" x2="636.6896551724138" y2="502.79999999999995" stroke="#000"/>
<text x="636.6896551724138" y="512.4" fill="#111" font-size="small" font-family="monospace" font-weight="bold" text-anchor="end" transform="rotate(-60, 636.6896551724138, 512.4)">
rubykon
</text>
<rect x="651.2758620689655" y="455.9529942597626" width="9.724137931034482" height="42.04700574023738" fill="#7070f8" data-tooltip="1.00x baseline speed (No JIT)"/>
<line x1="651.2758620689655" y1="455.9480173865039" x2="660.9999999999999" y2="455.9480173865039" stroke="#000"/>
<line x1="651.2758620689655" y1="455.9579711330213" x2="660.9999999999999" y2="455.9579711330213" stroke="#000"/>
<line x1="656.1379310344827" y1="455.9480173865039" x2="656.1379310344827" y2="455.9579711330213" stroke="#000"/>
<rect x="660.9999999999999" y="262.60815767321265" width="9.724137931034482" height="235.39184232678733" fill="orange" data-tooltip="5.60x baseline speed (YJIT)"/>
<line x1="660.9999999999999" y1="262.45226167768743" x2="670.7241379310343" y2="262.45226167768743" stroke="#000"/>
<line x1="660.9999999999999" y1="262.7640536687378" x2="670.7241379310343" y2="262.7640536687378" stroke="#000"/>
<line x1="665.8620689655171" y1="262.45226167768743" x2="665.8620689655171" y2="262.7640536687378" stroke="#000"/>
<line x1="665.8620689655172" y1="498.0" x2="665.8620689655172" y2="502.79999999999995" stroke="#000"/>
<text x="665.8620689655172" y="512.4" fill="#111" font-size="small" font-family="monospace" font-weight="bold" text-anchor="end" transform="rotate(-60, 665.8620689655172, 512.4)">
30k_ifelse
</text>
<rect x="680.448275862069" y="455.9529942597626" width="9.724137931034482" height="42.04700574023738" fill="#7070f8" data-tooltip="1.00x baseline speed (No JIT)"/>
<line x1="680.448275862069" y1="455.94652707114636" x2="690.1724137931034" y2="455.94652707114636" stroke="#000"/>
<line x1="680.448275862069" y1="455.9594614483788" x2="690.1724137931034" y2="455.9594614483788" stroke="#000"/>
<line x1="685.3103448275862" y1="455.94652707114636" x2="685.3103448275862" y2="455.9594614483788" stroke="#000"/>
<rect x="690.1724137931034" y="211.2521371062624" width="9.724137931034482" height="286.7478628937375" fill="orange" data-tooltip="6.82x baseline speed (YJIT)"/>
<line x1="690.1724137931034" y1="211.1350959484797" x2="699.8965517241378" y2="211.1350959484797" stroke="#000"/>
<line x1="690.1724137931034" y1="211.36917826404513" x2="699.8965517241378" y2="211.36917826404513" stroke="#000"/>
<line x1="695.0344827586206" y1="211.1350959484797" x2="695.0344827586206" y2="211.36917826404513" stroke="#000"/>
<line x1="695.0344827586207" y1="498.0" x2="695.0344827586207" y2="502.79999999999995" stroke="#000"/>
<text x="695.0344827586207" y="512.4" fill="#111" font-size="small" font-family="monospace" font-weight="bold" text-anchor="end" transform="rotate(-60, 695.0344827586207, 512.4)">
30k_methods
</text>
<rect x="709.6206896551724" y="455.9529942597626" width="9.724137931034482" height="42.04700574023738" fill="#7070f8" data-tooltip="1.00x baseline speed (No JIT)"/>
<line x1="709.6206896551724" y1="455.7838818818568" x2="719.3448275862069" y2="455.7838818818568" stroke="#000"/>
<line x1="709.6206896551724" y1="456.1221066376684" x2="719.3448275862069" y2="456.1221066376684" stroke="#000"/>
<line x1="714.4827586206897" y1="455.7838818818568" x2="714.4827586206897" y2="456.1221066376684" stroke="#000"/>
<rect x="719.3448275862069" y="394.9452136895192" width="9.724137931034482" height="103.05478631048065" fill="orange" data-tooltip="2.45x baseline speed (YJIT)"/>
<line x1="719.3448275862069" y1="394.5086741763382" x2="729.0689655172413" y2="394.5086741763382" stroke="#000"/>
<line x1="719.3448275862069" y1="395.3817532027003" x2="729.0689655172413" y2="395.3817532027003" stroke="#000"/>
<line x1="724.2068965517241" y1="394.5086741763382" x2="724.2068965517241" y2="395.3817532027003" stroke="#000"/>
<line x1="724.2068965517242" y1="498.0" x2="724.2068965517242" y2="502.79999999999995" stroke="#000"/>
<text x="724.2068965517242" y="512.4" fill="#111" font-size="small" font-family="monospace" font-weight="bold" text-anchor="end" transform="rotate(-60, 724.2068965517242, 512.4)">
cfunc_itself
</text>
<rect x="738.7931034482758" y="455.9529942597626" width="9.724137931034482" height="42.04700574023738" fill="#7070f8" data-tooltip="1.00x baseline speed (No JIT)"/>
<line x1="738.7931034482758" y1="455.9344447491894" x2="748.5172413793103" y2="455.9344447491894" stroke="#000"/>
<line x1="738.7931034482758" y1="455.97154377033576" x2="748.5172413793103" y2="455.97154377033576" stroke="#000"/>
<line x1="743.6551724137931" y1="455.9344447491894" x2="743.6551724137931" y2="455.97154377033576" stroke="#000"/>
<rect x="748.5172413793103" y="337.4892273536087" width="9.724137931034482" height="160.51077264639122" fill="orange" data-tooltip="3.82x baseline speed (YJIT)"/>
<line x1="748.5172413793103" y1="337.3100007568171" x2="758.2413793103448" y2="337.3100007568171" stroke="#000"/>
<line x1="748.5172413793103" y1="337.66845395040036" x2="758.2413793103448" y2="337.66845395040036" stroke="#000"/>
<line x1="753.3793103448276" y1="337.3100007568171" x2="753.3793103448276" y2="337.66845395040036" stroke="#000"/>
<line x1="753.3793103448277" y1="498.0" x2="753.3793103448277" y2="502.79999999999995" stroke="#000"/>
<text x="753.3793103448277" y="512.4" fill="#111" font-size="small" font-family="monospace" font-weight="bold" text-anchor="end" transform="rotate(-60, 753.3793103448277, 512.4)">
fib
</text>
<rect x="767.9655172413793" y="455.9529942597626" width="9.724137931034482" height="42.04700574023738" fill="#7070f8" data-tooltip="1.00x baseline speed (No JIT)"/>
<line x1="767.9655172413793" y1="455.9348678136951" x2="777.6896551724137" y2="455.9348678136951" stroke="#000"/>
<line x1="767.9655172413793" y1="455.97112070583006" x2="777.6896551724137" y2="455.97112070583006" stroke="#000"/>
<line x1="772.8275862068965" y1="455.9348678136951" x2="772.8275862068965" y2="455.97112070583006" stroke="#000"/>
<rect x="777.6896551724137" y="391.2811545594265" width="9.724137931034482" height="106.7188454405734" fill="orange" data-tooltip="2.54x baseline speed (YJIT)"/>
<line x1="777.6896551724137" y1="391.07459149609673" x2="787.4137931034481" y2="391.07459149609673" stroke="#000"/>
<line x1="777.6896551724137" y1="391.4877176227563" x2="787.4137931034481" y2="391.4877176227563" stroke="#000"/>
<line x1="782.5517241379309" y1="391.07459149609673" x2="782.5517241379309" y2="391.4877176227563" stroke="#000"/>
<line x1="782.551724137931" y1="498.0" x2="782.551724137931" y2="502.79999999999995" stroke="#000"/>
<text x="782.551724137931" y="512.4" fill="#111" font-size="small" font-family="monospace" font-weight="bold" text-anchor="end" transform="rotate(-60, 782.551724137931, 512.4)">
getivar
</text>
<rect x="797.1379310344827" y="455.9529942597626" width="9.724137931034482" height="42.04700574023738" fill="#7070f8" data-tooltip="1.00x baseline speed (No JIT)"/>
<line x1="797.1379310344827" y1="455.9150463679282" x2="806.8620689655172" y2="455.9150463679282" stroke="#000"/>
<line x1="797.1379310344827" y1="455.99094215159704" x2="806.8620689655172" y2="455.99094215159704" stroke="#000"/>
<line x1="801.9999999999999" y1="455.9150463679282" x2="801.9999999999999" y2="455.99094215159704" stroke="#000"/>
<rect x="806.8620689655172" y="268.83337754486405" width="9.724137931034482" height="229.16662245513592" fill="orange" data-tooltip="5.45x baseline speed (YJIT)"/>
<line x1="806.8620689655172" y1="268.1513742291237" x2="816.5862068965516" y2="268.1513742291237" stroke="#000"/>
<line x1="806.8620689655172" y1="269.5153808606044" x2="816.5862068965516" y2="269.5153808606044" stroke="#000"/>
<line x1="811.7241379310344" y1="268.1513742291237" x2="811.7241379310344" y2="269.5153808606044" stroke="#000"/>
<line x1="811.7241379310345" y1="498.0" x2="811.7241379310345" y2="502.79999999999995" stroke="#000"/>
<text x="811.7241379310345" y="512.4" fill="#111" font-size="small" font-family="monospace" font-weight="bold" text-anchor="end" transform="rotate(-60, 811.7241379310345, 512.4)">
keyword_args
</text>
<rect x="826.3103448275862" y="455.9529942597626" width="9.724137931034482" height="42.04700574023738" fill="#7070f8" data-tooltip="1.00x baseline speed (No JIT)"/>
<line x1="826.3103448275862" y1="455.8018253152332" x2="836.0344827586206" y2="455.8018253152332" stroke="#000"/>
<line x1="826.3103448275862" y1="456.10416320429204" x2="836.0344827586206" y2="456.10416320429204" stroke="#000"/>
<line x1="831.1724137931034" y1="455.8018253152332" x2="831.1724137931034" y2="456.10416320429204" stroke="#000"/>
<rect x="836.0344827586206" y="100.19999999999999" width="9.724137931034482" height="397.79999999999995" fill="orange" data-tooltip="9.46x baseline speed (YJIT)"/>
<line x1="836.0344827586206" y1="97.9299745017495" x2="845.758620689655" y2="97.9299745017495" stroke="#000"/>
<line x1="836.0344827586206" y1="102.47002549825048" x2="845.758620689655" y2="102.47002549825048" stroke="#000"/>
<line x1="840.8965517241378" y1="97.9299745017495" x2="840.8965517241378" y2="102.47002549825048" stroke="#000"/>
<line x1="840.8965517241379" y1="498.0" x2="840.8965517241379" y2="502.79999999999995" stroke="#000"/>
<text x="840.8965517241379" y="512.4" fill="#111" font-size="small" font-family="monospace" font-weight="bold" text-anchor="end" transform="rotate(-60, 840.8965517241379, 512.4)">
respond_to
</text>
<rect x="855.4827586206897" y="455.9529942597626" width="9.724137931034482" height="42.04700574023738" fill="#7070f8" data-tooltip="1.00x baseline speed (No JIT)"/>
<line x1="855.4827586206897" y1="455.8881408671423" x2="865.2068965517241" y2="455.8881408671423" stroke="#000"/>
<line x1="855.4827586206897" y1="456.01784765238295" x2="865.2068965517241" y2="456.01784765238295" stroke="#000"/>
<line x1="860.3448275862069" y1="455.8881408671423" x2="860.3448275862069" y2="456.01784765238295" stroke="#000"/>
<rect x="865.2068965517241" y="285.5346883708781" width="9.724137931034482" height="212.46531162912186" fill="orange" data-tooltip="5.05x baseline speed (YJIT)"/>
<line x1="865.2068965517241" y1="285.1679232969744" x2="874.9310344827586" y2="285.1679232969744" stroke="#000"/>
<line x1="865.2068965517241" y1="285.9014534447818" x2="874.9310344827586" y2="285.9014534447818" stroke="#000"/>
<line x1="870.0689655172413" y1="285.1679232969744" x2="870.0689655172413" y2="285.9014534447818" stroke="#000"/>
<line x1="870.0689655172414" y1="498.0" x2="870.0689655172414" y2="502.79999999999995" stroke="#000"/>
<text x="870.0689655172414" y="512.4" fill="#111" font-size="small" font-family="monospace" font-weight="bold" text-anchor="end" transform="rotate(-60, 870.0689655172414, 512.4)">
setivar
</text>
<rect x="884.6551724137931" y="455.9529942597626" width="9.724137931034482" height="42.04700574023738" fill="#7070f8" data-tooltip="1.00x baseline speed (No JIT)"/>
<line x1="884.6551724137931" y1="455.1682798320246" x2="894.3793103448276" y2="455.1682798320246" stroke="#000"/>
<line x1="884.6551724137931" y1="456.7377086875006" x2="894.3793103448276" y2="456.7377086875006" stroke="#000"/>
<line x1="889.5172413793103" y1="455.1682798320246" x2="889.5172413793103" y2="456.7377086875006" stroke="#000"/>
<rect x="894.3793103448276" y="402.66659605771605" width="9.724137931034482" height="95.3334039422839" fill="orange" data-tooltip="2.27x baseline speed (YJIT)"/>
<line x1="894.3793103448276" y1="400.6973397202547" x2="904.103448275862" y2="400.6973397202547" stroke="#000"/>
<line x1="894.3793103448276" y1="404.6358523951773" x2="904.103448275862" y2="404.6358523951773" stroke="#000"/>
<line x1="899.2413793103448" y1="400.6973397202547" x2="899.2413793103448" y2="404.6358523951773" stroke="#000"/>
<line x1="899.2413793103449" y1="498.0" x2="899.2413793103449" y2="502.79999999999995" stroke="#000"/>
<text x="899.2413793103449" y="512.4" fill="#111" font-size="small" font-family="monospace" font-weight="bold" text-anchor="end" transform="rotate(-60, 899.2413793103449, 512.4)">
setivar_object
</text>
<rect x="913.8275862068965" y="455.9529942597626" width="9.724137931034482" height="42.04700574023738" fill="#7070f8" data-tooltip="1.00x baseline speed (No JIT)"/>
<line x1="913.8275862068965" y1="455.6657454084062" x2="923.5517241379309" y2="455.6657454084062" stroke="#000"/>
<line x1="913.8275862068965" y1="456.240243111119" x2="923.5517241379309" y2="456.240243111119" stroke="#000"/>
<line x1="918.6896551724137" y1="455.6657454084062" x2="918.6896551724137" y2="456.240243111119" stroke="#000"/>
<rect x="923.5517241379309" y="412.98222846871204" width="9.724137931034482" height="85.01777153128783" fill="orange" data-tooltip="2.02x baseline speed (YJIT)"/>
<line x1="923.5517241379309" y1="411.56208556773976" x2="933.2758620689654" y2="411.56208556773976" stroke="#000"/>
<line x1="923.5517241379309" y1="414.4023713696843" x2="933.2758620689654" y2="414.4023713696843" stroke="#000"/>
<line x1="928.4137931034481" y1="411.56208556773976" x2="928.4137931034481" y2="414.4023713696843" stroke="#000"/>
<line x1="928.4137931034483" y1="498.0" x2="928.4137931034483" y2="502.79999999999995" stroke="#000"/>
<text x="928.4137931034483" y="512.4" fill="#111" font-size="small" font-family="monospace" font-weight="bold" text-anchor="end" transform="rotate(-60, 928.4137931034483, 512.4)">
str_concat
</text>
</svg>