<svg viewBox="0 0 1000 600" xmlns="http://www.w3.org/2000/svg" xmlns:xlink="http://www.w3.org/1999/xlink" width="100%" height="100%">

<rect x="50.0" y="30.0" width="940.0" height="467.99999999999994" stroke="#000" fill="#EEE"/>
<line x1="42.0" y1="497.9999999999999" x2="50.0" y2="497.9999999999999" stroke="#000"/>
<text x="26.000000000000004" y="497.9999999999999" text-anchor="end" font-weight="bold" font-size="small" fill="#111">
0.0
</text>
<line x1="42.0" y1="445.7316576476862" x2="50.0" y2="445.7316576476862" stroke="#000"/>
<text x="26.000000000000004" y="445.7316576476862" text-anchor="end" font-weight="bold" font-size="small" fill="#111">
0.2
</text>
<line x1="42.0" y1="393.4633152953725" x2="50.0" y2="393.4633152953725" stroke="#000"/>
<text x="26.000000000000004" y="393.4633152953725" text-anchor="end" font-weight="bold" font-size="small" fill="#111">
0.4
</text>
<line x1="42.0" y1="341.19497294305876" x2="50.0" y2="341.19497294305876" stroke="#000"/>
<text x="26.000000000000004" y="341.19497294305876" text-anchor="end" font-weight="bold" font-size="small" fill="#111">
0.6
</text>
<line x1="42.0" y1="288.92663059074505" x2="50.0" y2="288.92663059074505" stroke="#000"/>
<text x="26.000000000000004" y="288.92663059074505" text-anchor="end" font-weight="bold" font-size="small" fill="#111">
0.8
</text>
<line x1="42.0" y1="236.65828823843137" x2="50.0" y2="236.65828823843137" stroke="#000"/>
<text x="26.000000000000004" y="236.65828823843137" text-anchor="end" font-weight="bold" font-size="small" fill="#111">
1.0
</text>
<line x1="42.0" y1="184.38994588611763" x2="50.0" y2="184.38994588611763" stroke="#000"/>
<text x="26.000000000000004" y="184.38994588611763" text-anchor="end" font-weight="bold" font-size="small" fill="#111">
1.2
</text>
<line x1="42.0" y1="132.12160353380395" x2="50.0" y2="132.12160353380395" stroke="#000"/>
<text x="26.000000000000004" y="132.12160353380395" text-anchor="end" font-weight="bold" font-size="small" fill="#111">
1.4
</text>
<rect x="268.5" y="36.00000000000001" width="80.0" height="18.0" fill="#7070f8" stroke="#888"/>
<text x="308.5" y="52.50000000000001" font-size="small" text-anchor="middle" font-weight="bold" fill="#EEE">
No JIT
</text>
<rect x="691.4999999999999" y="36.00000000000001" width="80.0" height="18.0" fill="orange" stroke="#888"/>
<text x="731.4999999999999" y="52.50000000000001" font-size="small" text-anchor="middle" font-weight="bold" fill="#EEE">
YJIT
</text>
<rect x="97.0" y="236.65828823843137" width="25.636363636363637" height="261.3417117615686" fill="#7070f8" data-tooltip="1.00x baseline speed (No JIT)"/>
<line x1="97.0" y1="232.3994517379436" x2="122.63636363636364" y2="232.3994517379436" stroke="#000"/>
<line x1="97.0" y1="240.9171247389191" x2="122.63636363636364" y2="240.9171247389191" stroke="#000"/>
<line x1="109.81818181818181" y1="232.3994517379436" x2="109.81818181818181" y2="240.9171247389191" stroke="#000"/>
<rect x="122.63636363636364" y="135.8405471552982" width="25.636363636363637" height="362.1594528447017" fill="orange" data-tooltip="1.39x baseline speed (YJIT)"/>
<line x1="122.63636363636364" y1="124.73183388319559" x2="148.27272727272728" y2="124.73183388319559" stroke="#000"/>
<line x1="122.63636363636364" y1="146.94926042740082" x2="148.27272727272728" y2="146.94926042740082" stroke="#000"/>
<line x1="135.45454545454547" y1="124.73183388319559" x2="135.45454545454547" y2="146.94926042740082" stroke="#000"/>
<line x1="135.45454545454547" y1="498.0" x2="135.45454545454547" y2="502.79999999999995" stroke="#000"/>
<text x="135.45454545454547" y="512.4" fill="#111" font-size="small" font-family="monospace" font-weight="bold" text-anchor="end" transform="rotate(-60, 135.45454545454547, 512.4)">
activerecord
</text>
<rect x="173.9090909090909" y="236.65828823843137" width="25.636363636363637" height="261.3417117615686" fill="#7070f8" data-tooltip="1.00x baseline speed (No JIT)"/>
<line x1="173.9090909090909" y1="214.098444060566" x2="199.54545454545453" y2="214.098444060566" stroke="#000"/>
<line x1="173.9090909090909" y1="259.2181324162967" x2="199.54545454545453" y2="259.2181324162967" stroke="#000"/>
<line x1="186.72727272727272" y1="214.098444060566" x2="186.72727272727272" y2="259.2181324162967" stroke="#000"/>
<rect x="199.54545454545453" y="131.93703861030843" width="25.636363636363637" height="366.0629613896915" fill="orange" data-tooltip="1.40x baseline speed (YJIT)"/>
<line x1="199.54545454545453" y1="75.01146391643037" x2="225.18181818181816" y2="75.01146391643037" stroke="#000"/>
<line x1="199.54545454545453" y1="188.8626133041865" x2="225.18181818181816" y2="188.8626133041865" stroke="#000"/>
<line x1="212.36363636363635" y1="75.01146391643037" x2="212.36363636363635" y2="188.8626133041865" stroke="#000"/>
<line x1="212.36363636363637" y1="498.0" x2="212.36363636363637" y2="502.79999999999995" stroke="#000"/>
<text x="212.36363636363637" y="512.4" fill="#111" font-size="small" font-family="monospace" font-weight="bold" text-anchor="end" transform="rotate(-60, 212.36363636363637, 512.4)">
erubi_rails
</text>
<rect x="250.81818181818184" y="236.65828823843137" width="25.636363636363637" height="261.3417117615686" fill="#7070f8" data-tooltip="1.00x baseline speed (No JIT)"/>
<line x1="250.81818181818184" y1="235.27775817167688" x2="276.45454545454544" y2="235.27775817167688" stroke="#000"/>
<line x1="250.81818181818184" y1="238.03881830518583" x2="276.45454545454544" y2="238.03881830518583" stroke="#000"/>
<line x1="263.6363636363637" y1="235.27775817167688" x2="263.6363636363637" y2="238.03881830518583" stroke="#000"/>
<rect x="276.45454545454544" y="135.6418642689417" width="25.636363636363637" height="362.3581357310582" fill="orange" data-tooltip="1.39x baseline speed (YJIT)"/>
<line x1="276.45454545454544" y1="128.17768319867713" x2="302.09090909090907" y2="128.17768319867713" stroke="#000"/>
<line x1="276.45454545454544" y1="143.10604533920628" x2="302.09090909090907" y2="143.10604533920628" stroke="#000"/>
<line x1="289.2727272727273" y1="128.17768319867713" x2="289.2727272727273" y2="143.10604533920628" stroke="#000"/>
<line x1="289.2727272727273" y1="498.0" x2="289.2727272727273" y2="502.79999999999995" stroke="#000"/>
<text x="289.2727272727273" y="512.4" fill="#111" font-size="small" font-family="monospace" font-weight="bold" text-anchor="end" transform="rotate(-60, 289.2727272727273, 512.4)">
hexapdf
</text>
<rect x="327.72727272727275" y="236.65828823843137" width="25.636363636363637" height="261.3417117615686" fill="#7070f8" data-tooltip="1.00x baseline speed (No JIT)"/>
<line x1="327.72727272727275" y1="233.72021005668617" x2="353.3636363636364" y2="233.72021005668617" stroke="#000"/>
<line x1="327.72727272727275" y1="239.59636642017654" x2="353.3636363636364" y2="239.59636642017654" stroke="#000"/>
<line x1="340.5454545454546" y1="233.72021005668617" x2="340.5454545454546" y2="239.59636642017654" stroke="#000"/>
<rect x="353.3636363636364" y="179.9455399910664" width="25.636363636363637" height="318.0544600089335" fill="orange" data-tooltip="1.22x baseline speed (YJIT)"/>
<line x1="353.3636363636364" y1="173.94960035670337" x2="379.0" y2="173.94960035670337" stroke="#000"/>
<line x1="353.3636363636364" y1="185.94147962542942" x2="379.0" y2="185.94147962542942" stroke="#000"/>
<line x1="366.18181818181824" y1="173.94960035670337" x2="366.18181818181824" y2="185.94147962542942" stroke="#000"/>
<line x1="366.18181818181824" y1="498.0" x2="366.18181818181824" y2="502.79999999999995" stroke="#000"/>
<text x="366.18181818181824" y="512.4" fill="#111" font-size="small" font-family="monospace" font-weight="bold" text-anchor="end" transform="rotate(-60, 366.18181818181824, 512.4)">
liquid-c
</text>
<rect x="404.6363636363637" y="236.65828823843137" width="25.636363636363637" height="261.3417117615686" fill="#7070f8" data-tooltip="1.00x baseline speed (No JIT)"/>
<line x1="404.6363636363637" y1="235.4300006049279" x2="430.2727272727273" y2="235.4300006049279" stroke="#000"/>
<line x1="404.6363636363637" y1="237.88657587193484" x2="430.2727272727273" y2="237.88657587193484" stroke="#000"/>
<line x1="417.4545454545455" y1="235.4300006049279" x2="417.4545454545455" y2="237.88657587193484" stroke="#000"/>
<rect x="430.2727272727273" y="196.9891233075681" width="25.636363636363637" height="301.0108766924318" fill="orange" data-tooltip="1.15x baseline speed (YJIT)"/>
<line x1="430.2727272727273" y1="194.83952822365606" x2="455.90909090909093" y2="194.83952822365606" stroke="#000"/>
<line x1="430.2727272727273" y1="199.13871839148015" x2="455.90909090909093" y2="199.13871839148015" stroke="#000"/>
<line x1="443.0909090909091" y1="194.83952822365606" x2="443.0909090909091" y2="199.13871839148015" stroke="#000"/>
<line x1="443.0909090909091" y1="498.0" x2="443.0909090909091" y2="502.79999999999995" stroke="#000"/>
<text x="443.0909090909091" y="512.4" fill="#111" font-size="small" font-family="monospace" font-weight="bold" text-anchor="end" transform="rotate(-60, 443.0909090909091, 512.4)">
liquid-compile
</text>
<rect x="481.5454545454546" y="236.65828823843137" width="25.636363636363637" height="261.3417117615686" fill="#7070f8" data-tooltip="1.00x baseline speed (No JIT)"/>
<line x1="481.5454545454546" y1="233.69689135400878" x2="507.1818181818183" y2="233.69689135400878" stroke="#000"/>
<line x1="481.5454545454546" y1="239.61968512285392" x2="507.1818181818183" y2="239.61968512285392" stroke="#000"/>
<line x1="494.36363636363643" y1="233.69689135400878" x2="494.36363636363643" y2="239.61968512285392" stroke="#000"/>
<rect x="507.1818181818183" y="100.19999999999999" width="25.636363636363637" height="397.79999999999995" fill="orange" data-tooltip="1.52x baseline speed (YJIT)"/>
<line x1="507.1818181818183" y1="91.10409352090437" x2="532.818181818182" y2="91.10409352090437" stroke="#000"/>
<line x1="507.1818181818183" y1="109.2959064790956" x2="532.818181818182" y2="109.2959064790956" stroke="#000"/>
<line x1="520.0000000000001" y1="91.10409352090437" x2="520.0000000000001" y2="109.2959064790956" stroke="#000"/>
<line x1="520.0" y1="498.0" x2="520.0" y2="502.79999999999995" stroke="#000"/>
<text x="520.0" y="512.4" fill="#111" font-size="small" font-family="monospace" font-weight="bold" text-anchor="end" transform="rotate(-60, 520.0, 512.4)">
liquid-render
</text>
<rect x="558.4545454545454" y="236.65828823843137" width="25.636363636363637" height="261.3417117615686" fill="#7070f8" data-tooltip="1.00x baseline speed (No JIT)"/>
<line x1="558.4545454545454" y1="236.43072809358154" x2="584.0909090909091" y2="236.43072809358154" stroke="#000"/>
<line x1="558.4545454545454" y1="236.88584838328117" x2="584.0909090909091" y2="236.88584838328117" stroke="#000"/>
<line x1="571.2727272727273" y1="236.43072809358154" x2="571.2727272727273" y2="236.88584838328117" stroke="#000"/>
<rect x="584.0909090909091" y="169.58698291883044" width="25.636363636363637" height="328.4130170811695" fill="orange" data-tooltip="1.26x baseline speed (YJIT)"/>
<line x1="584.0909090909091" y1="168.54159511129362" x2="609.7272727272727" y2="168.54159511129362" stroke="#000"/>
<line x1="584.0909090909091" y1="170.63237072636727" x2="609.7272727272727" y2="170.63237072636727" stroke="#000"/>
<line x1="596.909090909091" y1="168.54159511129362" x2="596.909090909091" y2="170.63237072636727" stroke="#000"/>
<line x1="596.9090909090909" y1="498.0" x2="596.9090909090909" y2="502.79999999999995" stroke="#000"/>
<text x="596.9090909090909" y="512.4" fill="#111" font-size="small" font-family="monospace" font-weight="bold" text-anchor="end" transform="rotate(-60, 596.9090909090909, 512.4)">
mail
</text>
<rect x="635.3636363636364" y="236.65828823843137" width="25.636363636363637" height="261.3417117615686" fill="#7070f8" data-tooltip="1.00x baseline speed (No JIT)"/>
<line x1="635.3636363636364" y1="236.22495544950223" x2="661.0" y2="236.22495544950223" stroke="#000"/>
<line x1="635.3636363636364" y1="237.09162102736047" x2="661.0" y2="237.09162102736047" stroke="#000"/>
<line x1="648.1818181818182" y1="236.22495544950223" x2="648.1818181818182" y2="237.09162102736047" stroke="#000"/>
<rect x="661.0" y="130.63444435639875" width="25.636363636363637" height="367.3655556436012" fill="orange" data-tooltip="1.41x baseline speed (YJIT)"/>
<line x1="661.0" y1="129.90744996747696" x2="686.6363636363637" y2="129.90744996747696" stroke="#000"/>
<line x1="661.0" y1="131.36143874532056" x2="686.6363636363637" y2="131.36143874532056" stroke="#000"/>
<line x1="673.8181818181819" y1="129.90744996747696" x2="673.8181818181819" y2="131.36143874532056" stroke="#000"/>
<line x1="673.8181818181818" y1="498.0" x2="673.8181818181818" y2="502.79999999999995" stroke="#000"/>
<text x="673.8181818181818" y="512.4" fill="#111" font-size="small" font-family="monospace" font-weight="bold" text-anchor="end" transform="rotate(-60, 673.8181818181818, 512.4)">
psych-load
</text>
<rect x="712.2727272727273" y="236.65828823843137" width="25.636363636363637" height="261.3417117615686" fill="#7070f8" data-tooltip="1.00x baseline speed (No JIT)"/>
<line x1="712.2727272727273" y1="235.52937344713322" x2="737.909090909091" y2="235.52937344713322" stroke="#000"/>
<line x1="712.2727272727273" y1="237.7872030297295" x2="737.909090909091" y2="237.7872030297295" stroke="#000"/>
<line x1="725.0909090909091" y1="235.52937344713322" x2="725.0909090909091" y2="237.7872030297295" stroke="#000"/>
<rect x="737.909090909091" y="135.08321894689928" width="25.636363636363637" height="362.91678105310064" fill="orange" data-tooltip="1.39x baseline speed (YJIT)"/>
<line x1="737.909090909091" y1="132.33013801537177" x2="763.5454545454546" y2="132.33013801537177" stroke="#000"/>
<line x1="737.909090909091" y1="137.83629987842681" x2="763.5454545454546" y2="137.83629987842681" stroke="#000"/>
<line x1="750.7272727272727" y1="132.33013801537177" x2="750.7272727272727" y2="137.83629987842681" stroke="#000"/>
<line x1="750.7272727272726" y1="498.0" x2="750.7272727272726" y2="502.79999999999995" stroke="#000"/>
<text x="750.7272727272726" y="512.4" fill="#111" font-size="small" font-family="monospace" font-weight="bold" text-anchor="end" transform="rotate(-60, 750.7272727272726, 512.4)">
railsbench
</text>
<rect x="789.1818181818182" y="236.65828823843137" width="25.636363636363637" height="261.3417117615686" fill="#7070f8" data-tooltip="1.00x baseline speed (No JIT)"/>
<line x1="789.1818181818182" y1="209.18626436153374" x2="814.8181818181819" y2="209.18626436153374" stroke="#000"/>
<line x1="789.1818181818182" y1="264.130312115329" x2="814.8181818181819" y2="264.130312115329" stroke="#000"/>
<line x1="802.0" y1="209.18626436153374" x2="802.0" y2="264.130312115329" stroke="#000"/>
<rect x="814.8181818181819" y="164.32940503143718" width="25.636363636363637" height="333.6705949685628" fill="orange" data-tooltip="1.28x baseline speed (YJIT)"/>
<line x1="814.8181818181819" y1="112.49745357845957" x2="840.4545454545456" y2="112.49745357845957" stroke="#000"/>
<line x1="814.8181818181819" y1="216.16135648441477" x2="840.4545454545456" y2="216.16135648441477" stroke="#000"/>
<line x1="827.6363636363637" y1="112.49745357845957" x2="827.6363636363637" y2="216.16135648441477" stroke="#000"/>
<line x1="827.6363636363636" y1="498.0" x2="827.6363636363636" y2="502.79999999999995" stroke="#000"/>
<text x="827.6363636363636" y="512.4" fill="#111" font-size="small" font-family="monospace" font-weight="bold" text-anchor="end" transform="rotate(-60, 827.6363636363636, 512.4)">
ruby-lsp
</text>
<rect x="866.0909090909091" y="236.65828823843137" width="25.636363636363637" height="261.3417117615686" fill="#7070f8" data-tooltip="1.00x baseline speed (No JIT)"/>
<line x1="866.0909090909091" y1="234.14771210421839" x2="891.7272727272729" y2="234.14771210421839" stroke="#000"/>
<line x1="866.0909090909091" y1="239.16886437264432" x2="891.7272727272729" y2="239.16886437264432" stroke="#000"/>
<line x1="878.909090909091" y1="234.14771210421839" x2="878.909090909091" y2="239.16886437264432" stroke="#000"/>
<rect x="891.7272727272729" y="201.77171027794313" width="25.636363636363637" height="296.22828972205684" fill="orange" data-tooltip="1.13x baseline speed (YJIT)"/>
<line x1="891.7272727272729" y1="197.06180356870294" x2="917.3636363636365" y2="197.06180356870294" stroke="#000"/>
<line x1="891.7272727272729" y1="206.48161698718332" x2="917.3636363636365" y2="206.48161698718332" stroke="#000"/>
<line x1="904.5454545454546" y1="197.06180356870294" x2="904.5454545454546" y2="206.48161698718332" stroke="#000"/>
<line x1="904.5454545454545" y1="498.0" x2="904.5454545454545" y2="502.79999999999995" stroke="#000"/>
<text x="904.5454545454545" y="512.4" fill="#111" font-size="small" font-family="monospace" font-weight="bold" text-anchor="end" transform="rotate(-60, 904.5454545454545, 512.4)">
sequel
</text>
</svg>