<svg viewBox="0 0 1000 600" xmlns="http://www.w3.org/2000/svg" xmlns:xlink="http://www.w3.org/1999/xlink" width="100%" height="100%">

<rect x="50.0" y="30.0" width="940.0" height="467.99999999999994" stroke="#000" fill="#EEE"/>
<line x1="42.0" y1="497.9999999999999" x2="50.0" y2="497.9999999999999" stroke="#000"/>
<text x="26.000000000000004" y="497.9999999999999" text-anchor="end" font-weight="bold" font-size="small" fill="#111">
0.0
</text>
<line x1="42.0" y1="443.49872839766823" x2="50.0" y2="443.49872839766823" stroke="#000"/>
<text x="26.000000000000004" y="443.49872839766823" text-anchor="end" font-weight="bold" font-size="small" fill="#111">
1.0
</text>
<line x1="42.0" y1="388.9974567953366" x2="50.0" y2="388.9974567953366" stroke="#000"/>
<text x="26.000000000000004" y="388.9974567953366" text-anchor="end" font-weight="bold" font-size="small" fill="#111">
2.0
</text>
<line x1="42.0" y1="334.496185193005" x2="50.0" y2="334.496185193005" stroke="#000"/>
<text x="26.000000000000004" y="334.496185193005" text-anchor="end" font-weight="bold" font-size="small" fill="#111">
3.0
</text>
<line x1="42.0" y1="279.9949135906733" x2="50.0" y2="279.9949135906733" stroke="#000"/>
<text x="26.000000000000004" y="279.9949135906733" text-anchor="end" font-weight="bold" font-size="small" fill="#111">
4.0
</text>
<line x1="42.0" y1="225.49364198834166" x2="50.0" y2="225.49364198834166" stroke="#000"/>
<text x="26.000000000000004" y="225.49364198834166" text-anchor="end" font-weight="bold" font-size="small" fill="#111">
5.0
</text>
<line x1="42.0" y1="170.99237038601004" x2="50.0" y2="170.99237038601004" stroke="#000"/>
<text x="26.000000000000004" y="170.99237038601004" text-anchor="end" font-weight="bold" font-size="small" fill="#111">
6.0
</text>
<line x1="42.0" y1="116.49109878367834" x2="50.0" y2="116.49109878367834" stroke="#000"/>
<text x="26.000000000000004" y="116.49109878367834" text-anchor="end" font-weight="bold" font-size="small" fill="#111">
7.0
</text>
<rect x="197.99999999999997" y="36.00000000000001" width="80.0" height="18.0" fill="#7070f8" stroke="#888"/>
<text x="238.0" y="52.50000000000001" font-size="small" text-anchor="middle" font-weight="bold" fill="#EEE">
No JIT
</text>
<rect x="479.99999999999994" y="36.00000000000001" width="80.0" height="18.0" fill="orange" stroke="#888"/>
<text x="519.9999999999999" y="52.50000000000001" font-size="small" text-anchor="middle" font-weight="bold" fill="#EEE">
MJIT
</text>
<rect x="761.9999999999999" y="36.00000000000001" width="80.0" height="18.0" fill="green" stroke="#888"/>
<text x="801.9999999999999" y="52.50000000000001" font-size="small" text-anchor="middle" font-weight="bold" fill="#EEE">
YJIT
</text>
<rect x="97.0" y="443.49872839766823" width="23.5" height="54.501271602331656" fill="#7070f8" data-tooltip="1.00x baseline speed (No JIT)"/>
<line x1="97.0" y1="443.468672740418" x2="120.5" y2="443.468672740418" stroke="#000"/>
<line x1="97.0" y1="443.52878405491845" x2="120.5" y2="443.52878405491845" stroke="#000"/>
<line x1="108.75" y1="443.468672740418" x2="108.75" y2="443.52878405491845" stroke="#000"/>
<rect x="120.5" y="468.72758351829515" width="23.5" height="29.272416481704777" fill="orange" data-tooltip="0.54x baseline speed (MJIT)"/>
<line x1="120.5" y1="468.0144471546398" x2="144.0" y2="468.0144471546398" stroke="#000"/>
<line x1="120.5" y1="469.44071988195043" x2="144.0" y2="469.44071988195043" stroke="#000"/>
<line x1="132.25" y1="468.0144471546398" x2="132.25" y2="469.44071988195043" stroke="#000"/>
<rect x="144.00000000000003" y="140.59339551531033" width="23.5" height="357.40660448468964" fill="green" data-tooltip="6.56x baseline speed (YJIT)"/>
<line x1="144.00000000000003" y1="140.262563995989" x2="167.5" y2="140.262563995989" stroke="#000"/>
<line x1="144.00000000000003" y1="140.92422703463163" x2="167.5" y2="140.92422703463163" stroke="#000"/>
<line x1="155.75000000000003" y1="140.262563995989" x2="155.75000000000003" y2="140.92422703463163" stroke="#000"/>
<line x1="144.00000000000003" y1="498.0" x2="144.00000000000003" y2="502.79999999999995" stroke="#000"/>
<text x="144.00000000000003" y="512.4" fill="#111" font-size="small" font-family="monospace" font-weight="bold" text-anchor="end" transform="rotate(-60, 144.00000000000003, 512.4)">
30k_ifelse
</text>
<rect x="191.0" y="443.49872839766823" width="23.5" height="54.501271602331656" fill="#7070f8" data-tooltip="1.00x baseline speed (No JIT)"/>
<line x1="191.0" y1="443.4868250261196" x2="214.5" y2="443.4868250261196" stroke="#000"/>
<line x1="191.0" y1="443.5106317692168" x2="214.5" y2="443.5106317692168" stroke="#000"/>
<line x1="202.75" y1="443.4868250261196" x2="202.75" y2="443.5106317692168" stroke="#000"/>
<rect x="214.5" y="471.6980906245501" width="23.5" height="26.30190937544975" fill="orange" data-tooltip="0.48x baseline speed (MJIT)"/>
<line x1="214.5" y1="470.3583147797881" x2="238.0" y2="470.3583147797881" stroke="#000"/>
<line x1="214.5" y1="473.0378664693121" x2="238.0" y2="473.0378664693121" stroke="#000"/>
<line x1="226.25" y1="470.3583147797881" x2="226.25" y2="473.0378664693121" stroke="#000"/>
<rect x="238.0" y="100.19999999999999" width="23.5" height="397.79999999999995" fill="green" data-tooltip="7.30x baseline speed (YJIT)"/>
<line x1="238.0" y1="100.09058736743796" x2="261.5" y2="100.09058736743796" stroke="#000"/>
<line x1="238.0" y1="100.30941263256203" x2="261.5" y2="100.30941263256203" stroke="#000"/>
<line x1="249.75" y1="100.09058736743796" x2="249.75" y2="100.30941263256203" stroke="#000"/>
<line x1="238.0" y1="498.0" x2="238.0" y2="502.79999999999995" stroke="#000"/>
<text x="238.0" y="512.4" fill="#111" font-size="small" font-family="monospace" font-weight="bold" text-anchor="end" transform="rotate(-60, 238.0, 512.4)">
30k_methods
</text>
<rect x="285.00000000000006" y="443.49872839766823" width="23.5" height="54.501271602331656" fill="#7070f8" data-tooltip="1.00x baseline speed (No JIT)"/>
<line x1="285.00000000000006" y1="443.3554963808935" x2="308.50000000000006" y2="443.3554963808935" stroke="#000"/>
<line x1="285.00000000000006" y1="443.64196041444296" x2="308.50000000000006" y2="443.64196041444296" stroke="#000"/>
<line x1="296.75" y1="443.3554963808935" x2="296.75" y2="443.64196041444296" stroke="#000"/>
<rect x="308.50000000000006" y="416.05131808414615" width="23.5" height="81.94868191585381" fill="orange" data-tooltip="1.50x baseline speed (MJIT)"/>
<line x1="308.50000000000006" y1="415.45309324532593" x2="332.00000000000006" y2="415.45309324532593" stroke="#000"/>
<line x1="308.50000000000006" y1="416.64954292296636" x2="332.00000000000006" y2="416.64954292296636" stroke="#000"/>
<line x1="320.25000000000006" y1="415.45309324532593" x2="320.25000000000006" y2="416.64954292296636" stroke="#000"/>
<rect x="332.0" y="373.4058263858305" width="23.5" height="124.59417361416946" fill="green" data-tooltip="2.29x baseline speed (YJIT)"/>
<line x1="332.0" y1="372.63243555467784" x2="355.50000000000006" y2="372.63243555467784" stroke="#000"/>
<line x1="332.0" y1="374.17921721698315" x2="355.50000000000006" y2="374.17921721698315" stroke="#000"/>
<line x1="343.75" y1="372.63243555467784" x2="343.75" y2="374.17921721698315" stroke="#000"/>
<line x1="332.0" y1="498.0" x2="332.0" y2="502.79999999999995" stroke="#000"/>
<text x="332.0" y="512.4" fill="#111" font-size="small" font-family="monospace" font-weight="bold" text-anchor="end" transform="rotate(-60, 332.0, 512.4)">
cfunc_itself
</text>
<rect x="379.0" y="443.49872839766823" width="23.5" height="54.501271602331656" fill="#7070f8" data-tooltip="1.00x baseline speed (No JIT)"/>
<line x1="379.0" y1="443.45463381049615" x2="402.5" y2="443.45463381049615" stroke="#000"/>
<line x1="379.0" y1="443.54282298484026" x2="402.5" y2="443.54282298484026" stroke="#000"/>
<line x1="390.75" y1="443.45463381049615" x2="390.75" y2="443.54282298484026" stroke="#000"/>
<rect x="402.5" y="342.0466218990433" width="23.5" height="155.9533781009566" fill="orange" data-tooltip="2.86x baseline speed (MJIT)"/>
<line x1="402.5" y1="340.92951045425207" x2="426.00000000000006" y2="340.92951045425207" stroke="#000"/>
<line x1="402.5" y1="343.16373334383456" x2="426.00000000000006" y2="343.16373334383456" stroke="#000"/>
<line x1="414.25" y1="340.92951045425207" x2="414.25" y2="343.16373334383456" stroke="#000"/>
<rect x="426.0" y="284.34788924833646" width="23.5" height="213.65211075166346" fill="green" data-tooltip="3.92x baseline speed (YJIT)"/>
<line x1="426.0" y1="284.1557633113233" x2="449.5" y2="284.1557633113233" stroke="#000"/>
<line x1="426.0" y1="284.5400151853496" x2="449.5" y2="284.5400151853496" stroke="#000"/>
<line x1="437.75" y1="284.1557633113233" x2="437.75" y2="284.5400151853496" stroke="#000"/>
<line x1="426.0" y1="498.0" x2="426.0" y2="502.79999999999995" stroke="#000"/>
<text x="426.0" y="512.4" fill="#111" font-size="small" font-family="monospace" font-weight="bold" text-anchor="end" transform="rotate(-60, 426.0, 512.4)">
fib
</text>
<rect x="473.0" y="443.49872839766823" width="23.5" height="54.501271602331656" fill="#7070f8" data-tooltip="1.00x baseline speed (No JIT)"/>
<line x1="473.0" y1="443.2677991719794" x2="496.5" y2="443.2677991719794" stroke="#000"/>
<line x1="473.0" y1="443.72965762335707" x2="496.5" y2="443.72965762335707" stroke="#000"/>
<line x1="484.74999999999994" y1="443.2677991719794" x2="484.74999999999994" y2="443.72965762335707" stroke="#000"/>
<rect x="496.5" y="316.95795305207173" width="23.5" height="181.04204694792824" fill="orange" data-tooltip="3.32x baseline speed (MJIT)"/>
<line x1="496.5" y1="216.46360498675992" x2="520.0" y2="216.46360498675992" stroke="#000"/>
<line x1="496.5" y1="417.4523011173835" x2="520.0" y2="417.4523011173835" stroke="#000"/>
<line x1="508.25" y1="216.46360498675992" x2="508.25" y2="417.4523011173835" stroke="#000"/>
<rect x="520.0" y="364.7579328655382" width="23.5" height="133.24206713446176" fill="green" data-tooltip="2.44x baseline speed (YJIT)"/>
<line x1="520.0" y1="364.1699230257615" x2="543.5" y2="364.1699230257615" stroke="#000"/>
<line x1="520.0" y1="365.3459427053149" x2="543.5" y2="365.3459427053149" stroke="#000"/>
<line x1="531.75" y1="364.1699230257615" x2="531.75" y2="365.3459427053149" stroke="#000"/>
<line x1="520.0" y1="498.0" x2="520.0" y2="502.79999999999995" stroke="#000"/>
<text x="520.0" y="512.4" fill="#111" font-size="small" font-family="monospace" font-weight="bold" text-anchor="end" transform="rotate(-60, 520.0, 512.4)">
getivar
</text>
<rect x="567.0" y="443.49872839766823" width="23.5" height="54.501271602331656" fill="#7070f8" data-tooltip="1.00x baseline speed (No JIT)"/>
<line x1="567.0" y1="443.44357781732805" x2="590.4999999999999" y2="443.44357781732805" stroke="#000"/>
<line x1="567.0" y1="443.55387897800836" x2="590.4999999999999" y2="443.55387897800836" stroke="#000"/>
<line x1="578.75" y1="443.44357781732805" x2="578.75" y2="443.55387897800836" stroke="#000"/>
<rect x="590.4999999999999" y="430.79636714942336" width="23.5" height="67.20363285057662" fill="orange" data-tooltip="1.23x baseline speed (MJIT)"/>
<line x1="590.4999999999999" y1="430.5179612327395" x2="613.9999999999999" y2="430.5179612327395" stroke="#000"/>
<line x1="590.4999999999999" y1="431.07477306610724" x2="613.9999999999999" y2="431.07477306610724" stroke="#000"/>
<line x1="602.25" y1="430.5179612327395" x2="602.25" y2="431.07477306610724" stroke="#000"/>
<rect x="614.0" y="219.14465654712686" width="23.5" height="278.85534345287306" fill="green" data-tooltip="5.12x baseline speed (YJIT)"/>
<line x1="614.0" y1="218.54752031850254" x2="637.5" y2="218.54752031850254" stroke="#000"/>
<line x1="614.0" y1="219.7417927757512" x2="637.5" y2="219.7417927757512" stroke="#000"/>
<line x1="625.75" y1="218.54752031850254" x2="625.75" y2="219.7417927757512" stroke="#000"/>
<line x1="614.0" y1="498.0" x2="614.0" y2="502.79999999999995" stroke="#000"/>
<text x="614.0" y="512.4" fill="#111" font-size="small" font-family="monospace" font-weight="bold" text-anchor="end" transform="rotate(-60, 614.0, 512.4)">
keyword_args
</text>
<rect x="661.0" y="443.49872839766823" width="23.5" height="54.501271602331656" fill="#7070f8" data-tooltip="1.00x baseline speed (No JIT)"/>
<line x1="661.0" y1="443.46647345428045" x2="684.5" y2="443.46647345428045" stroke="#000"/>
<line x1="661.0" y1="443.53098334105596" x2="684.5" y2="443.53098334105596" stroke="#000"/>
<line x1="672.7500000000001" y1="443.46647345428045" x2="672.7500000000001" y2="443.53098334105596" stroke="#000"/>
<rect x="684.5" y="431.2558234032091" width="23.5" height="66.74417659679082" fill="orange" data-tooltip="1.22x baseline speed (MJIT)"/>
<line x1="684.5" y1="430.64423365537726" x2="708.0" y2="430.64423365537726" stroke="#000"/>
<line x1="684.5" y1="431.867413151041" x2="708.0" y2="431.867413151041" stroke="#000"/>
<line x1="696.25" y1="430.64423365537726" x2="696.25" y2="431.867413151041" stroke="#000"/>
<rect x="708.0000000000001" y="419.1002722113049" width="23.5" height="78.89972778869507" fill="green" data-tooltip="1.45x baseline speed (YJIT)"/>
<line x1="708.0000000000001" y1="418.8853083805254" x2="731.5" y2="418.8853083805254" stroke="#000"/>
<line x1="708.0000000000001" y1="419.31523604208445" x2="731.5" y2="419.31523604208445" stroke="#000"/>
<line x1="719.7500000000001" y1="418.8853083805254" x2="719.7500000000001" y2="419.31523604208445" stroke="#000"/>
<line x1="708.0000000000001" y1="498.0" x2="708.0000000000001" y2="502.79999999999995" stroke="#000"/>
<text x="708.0000000000001" y="512.4" fill="#111" font-size="small" font-family="monospace" font-weight="bold" text-anchor="end" transform="rotate(-60, 708.0000000000001, 512.4)">
respond_to
</text>
<rect x="755.0" y="443.49872839766823" width="23.5" height="54.501271602331656" fill="#7070f8" data-tooltip="1.00x baseline speed (No JIT)"/>
<line x1="755.0" y1="443.4378298867933" x2="778.5" y2="443.4378298867933" stroke="#000"/>
<line x1="755.0" y1="443.5596269085432" x2="778.5" y2="443.5596269085432" stroke="#000"/>
<line x1="766.75" y1="443.4378298867933" x2="766.75" y2="443.5596269085432" stroke="#000"/>
<rect x="778.5" y="279.2074536135191" width="23.5" height="218.79254638648086" fill="orange" data-tooltip="4.01x baseline speed (MJIT)"/>
<line x1="778.5" y1="144.56541321303706" x2="801.9999999999999" y2="144.56541321303706" stroke="#000"/>
<line x1="778.5" y1="413.8494940140011" x2="801.9999999999999" y2="413.8494940140011" stroke="#000"/>
<line x1="790.25" y1="144.56541321303706" x2="790.25" y2="413.8494940140011" stroke="#000"/>
<rect x="802.0" y="408.2985429167805" width="23.5" height="89.7014570832194" fill="green" data-tooltip="1.65x baseline speed (YJIT)"/>
<line x1="802.0" y1="408.15408422779797" x2="825.5" y2="408.15408422779797" stroke="#000"/>
<line x1="802.0" y1="408.4430016057631" x2="825.5" y2="408.4430016057631" stroke="#000"/>
<line x1="813.7500000000001" y1="408.15408422779797" x2="813.7500000000001" y2="408.4430016057631" stroke="#000"/>
<line x1="802.0" y1="498.0" x2="802.0" y2="502.79999999999995" stroke="#000"/>
<text x="802.0" y="512.4" fill="#111" font-size="small" font-family="monospace" font-weight="bold" text-anchor="end" transform="rotate(-60, 802.0, 512.4)">
setivar
</text>
<rect x="849.0" y="443.49872839766823" width="23.5" height="54.501271602331656" fill="#7070f8" data-tooltip="1.00x baseline speed (No JIT)"/>
<line x1="849.0" y1="442.94249020679996" x2="872.4999999999999" y2="442.94249020679996" stroke="#000"/>
<line x1="849.0" y1="444.0549665885365" x2="872.4999999999999" y2="444.0549665885365" stroke="#000"/>
<line x1="860.75" y1="442.94249020679996" x2="860.75" y2="444.0549665885365" stroke="#000"/>
<rect x="872.4999999999999" y="417.1754756236006" width="23.5" height="80.82452437639934" fill="orange" data-tooltip="1.48x baseline speed (MJIT)"/>
<line x1="872.4999999999999" y1="409.6195361931259" x2="895.9999999999999" y2="409.6195361931259" stroke="#000"/>
<line x1="872.4999999999999" y1="424.73141505407534" x2="895.9999999999999" y2="424.73141505407534" stroke="#000"/>
<line x1="884.25" y1="409.6195361931259" x2="884.25" y2="424.73141505407534" stroke="#000"/>
<rect x="896.0" y="399.57155282999634" width="23.5" height="98.42844717000357" fill="green" data-tooltip="1.81x baseline speed (YJIT)"/>
<line x1="896.0" y1="397.98502188798744" x2="919.5" y2="397.98502188798744" stroke="#000"/>
<line x1="896.0" y1="401.1580837720052" x2="919.5" y2="401.1580837720052" stroke="#000"/>
<line x1="907.75" y1="397.98502188798744" x2="907.75" y2="401.1580837720052" stroke="#000"/>
<line x1="896.0" y1="498.0" x2="896.0" y2="502.79999999999995" stroke="#000"/>
<text x="896.0" y="512.4" fill="#111" font-size="small" font-family="monospace" font-weight="bold" text-anchor="end" transform="rotate(-60, 896.0, 512.4)">
str_concat
</text>
</svg>