<svg viewBox="0 0 1000 600" xmlns="http://www.w3.org/2000/svg" xmlns:xlink="http://www.w3.org/1999/xlink" width="100%" height="100%">

<rect x="50.0" y="30.0" width="940.0" height="467.99999999999994" stroke="#000" fill="#EEE"/>
<line x1="42.0" y1="497.9999999999999" x2="50.0" y2="497.9999999999999" stroke="#000"/>
<text x="26.000000000000004" y="497.9999999999999" text-anchor="end" font-weight="bold" font-size="small" fill="#111">
0.0
</text>
<line x1="42.0" y1="435.4941956514944" x2="50.0" y2="435.4941956514944" stroke="#000"/>
<text x="26.000000000000004" y="435.4941956514944" text-anchor="end" font-weight="bold" font-size="small" fill="#111">
1.0
</text>
<line x1="42.0" y1="372.9883913029888" x2="50.0" y2="372.9883913029888" stroke="#000"/>
<text x="26.000000000000004" y="372.9883913029888" text-anchor="end" font-weight="bold" font-size="small" fill="#111">
2.0
</text>
<line x1="42.0" y1="310.4825869544832" x2="50.0" y2="310.4825869544832" stroke="#000"/>
<text x="26.000000000000004" y="310.4825869544832" text-anchor="end" font-weight="bold" font-size="small" fill="#111">
3.0
</text>
<line x1="42.0" y1="247.97678260597766" x2="50.0" y2="247.97678260597766" stroke="#000"/>
<text x="26.000000000000004" y="247.97678260597766" text-anchor="end" font-weight="bold" font-size="small" fill="#111">
4.0
</text>
<line x1="42.0" y1="185.4709782574721" x2="50.0" y2="185.4709782574721" stroke="#000"/>
<text x="26.000000000000004" y="185.4709782574721" text-anchor="end" font-weight="bold" font-size="small" fill="#111">
5.0
</text>
<line x1="42.0" y1="122.96517390896653" x2="50.0" y2="122.96517390896653" stroke="#000"/>
<text x="26.000000000000004" y="122.96517390896653" text-anchor="end" font-weight="bold" font-size="small" fill="#111">
6.0
</text>
<rect x="268.5" y="36.00000000000001" width="80.0" height="18.0" fill="#7070f8" stroke="#888"/>
<text x="308.5" y="52.50000000000001" font-size="small" text-anchor="middle" font-weight="bold" fill="#EEE">
No JIT
</text>
<rect x="691.4999999999999" y="36.00000000000001" width="80.0" height="18.0" fill="orange" stroke="#888"/>
<text x="731.4999999999999" y="52.50000000000001" font-size="small" text-anchor="middle" font-weight="bold" fill="#EEE">
YJIT
</text>
<rect x="97.0" y="435.4941956514944" width="10.846153846153845" height="62.50580434850557" fill="#7070f8" data-tooltip="1.00x baseline speed (No JIT)"/>
<line x1="97.0" y1="435.3542632865155" x2="107.84615384615384" y2="435.3542632865155" stroke="#000"/>
<line x1="97.0" y1="435.63412801647337" x2="107.84615384615384" y2="435.63412801647337" stroke="#000"/>
<line x1="102.42307692307692" y1="435.3542632865155" x2="102.42307692307692" y2="435.63412801647337" stroke="#000"/>
<rect x="107.84615384615384" y="426.56860427783494" width="10.846153846153845" height="71.43139572216504" fill="orange" data-tooltip="1.14x baseline speed (YJIT)"/>
<line x1="107.84615384615384" y1="426.3272940157234" x2="118.69230769230768" y2="426.3272940157234" stroke="#000"/>
<line x1="107.84615384615384" y1="426.8099145399465" x2="118.69230769230768" y2="426.8099145399465" stroke="#000"/>
<line x1="113.26923076923076" y1="426.3272940157234" x2="113.26923076923076" y2="426.8099145399465" stroke="#000"/>
<line x1="113.26923076923077" y1="498.0" x2="113.26923076923077" y2="502.79999999999995" stroke="#000"/>
<text x="113.26923076923077" y="512.4" fill="#111" font-size="small" font-family="monospace" font-weight="bold" text-anchor="end" transform="rotate(-60, 113.26923076923077, 512.4)">
activerecord
</text>
<rect x="129.53846153846155" y="435.4941956514944" width="10.846153846153845" height="62.50580434850557" fill="#7070f8" data-tooltip="1.00x baseline speed (No JIT)"/>
<line x1="129.53846153846155" y1="435.15116105961715" x2="140.3846153846154" y2="435.15116105961715" stroke="#000"/>
<line x1="129.53846153846155" y1="435.8372302433717" x2="140.3846153846154" y2="435.8372302433717" stroke="#000"/>
<line x1="134.96153846153845" y1="435.15116105961715" x2="134.96153846153845" y2="435.8372302433717" stroke="#000"/>
<rect x="140.3846153846154" y="431.76901812125175" width="10.846153846153845" height="66.23098187874815" fill="orange" data-tooltip="1.06x baseline speed (YJIT)"/>
<line x1="140.3846153846154" y1="430.47055111991784" x2="151.23076923076923" y2="430.47055111991784" stroke="#000"/>
<line x1="140.3846153846154" y1="433.0674851225857" x2="151.23076923076923" y2="433.0674851225857" stroke="#000"/>
<line x1="145.8076923076923" y1="430.47055111991784" x2="145.8076923076923" y2="433.0674851225857" stroke="#000"/>
<line x1="145.8076923076923" y1="498.0" x2="145.8076923076923" y2="502.79999999999995" stroke="#000"/>
<text x="145.8076923076923" y="512.4" fill="#111" font-size="small" font-family="monospace" font-weight="bold" text-anchor="end" transform="rotate(-60, 145.8076923076923, 512.4)">
hexapdf
</text>
<rect x="162.07692307692307" y="435.4941956514944" width="10.846153846153845" height="62.50580434850557" fill="#7070f8" data-tooltip="1.00x baseline speed (No JIT)"/>
<line x1="162.07692307692307" y1="434.91654611889146" x2="172.9230769230769" y2="434.91654611889146" stroke="#000"/>
<line x1="162.07692307692307" y1="436.07184518409736" x2="172.9230769230769" y2="436.07184518409736" stroke="#000"/>
<line x1="167.49999999999997" y1="434.91654611889146" x2="167.49999999999997" y2="436.07184518409736" stroke="#000"/>
<rect x="172.9230769230769" y="420.06123810524775" width="10.846153846153845" height="77.93876189475215" fill="orange" data-tooltip="1.25x baseline speed (YJIT)"/>
<line x1="172.9230769230769" y1="418.81271563527633" x2="183.76923076923075" y2="418.81271563527633" stroke="#000"/>
<line x1="172.9230769230769" y1="421.3097605752192" x2="183.76923076923075" y2="421.3097605752192" stroke="#000"/>
<line x1="178.3461538461538" y1="418.81271563527633" x2="178.3461538461538" y2="421.3097605752192" stroke="#000"/>
<line x1="178.3461538461538" y1="498.0" x2="178.3461538461538" y2="502.79999999999995" stroke="#000"/>
<text x="178.3461538461538" y="512.4" fill="#111" font-size="small" font-family="monospace" font-weight="bold" text-anchor="end" transform="rotate(-60, 178.3461538461538, 512.4)">
liquid-render
</text>
<rect x="194.6153846153846" y="435.4941956514944" width="10.846153846153845" height="62.50580434850557" fill="#7070f8" data-tooltip="1.00x baseline speed (No JIT)"/>
<line x1="194.6153846153846" y1="435.4482106736582" x2="205.46153846153845" y2="435.4482106736582" stroke="#000"/>
<line x1="194.6153846153846" y1="435.5401806293307" x2="205.46153846153845" y2="435.5401806293307" stroke="#000"/>
<line x1="200.03846153846152" y1="435.4482106736582" x2="200.03846153846152" y2="435.5401806293307" stroke="#000"/>
<rect x="205.46153846153845" y="447.963824826538" width="10.846153846153845" height="50.03617517346198" fill="orange" data-tooltip="0.80x baseline speed (YJIT)"/>
<line x1="205.46153846153845" y1="447.749192090324" x2="216.3076923076923" y2="447.749192090324" stroke="#000"/>
<line x1="205.46153846153845" y1="448.17845756275193" x2="216.3076923076923" y2="448.17845756275193" stroke="#000"/>
<line x1="210.88461538461536" y1="447.749192090324" x2="210.88461538461536" y2="448.17845756275193" stroke="#000"/>
<line x1="210.88461538461536" y1="498.0" x2="210.88461538461536" y2="502.79999999999995" stroke="#000"/>
<text x="210.88461538461536" y="512.4" fill="#111" font-size="small" font-family="monospace" font-weight="bold" text-anchor="end" transform="rotate(-60, 210.88461538461536, 512.4)">
mail
</text>
<rect x="227.15384615384616" y="435.4941956514944" width="10.846153846153845" height="62.50580434850557" fill="#7070f8" data-tooltip="1.00x baseline speed (No JIT)"/>
<line x1="227.15384615384616" y1="435.40639984423376" x2="238.0" y2="435.40639984423376" stroke="#000"/>
<line x1="227.15384615384616" y1="435.5819914587551" x2="238.0" y2="435.5819914587551" stroke="#000"/>
<line x1="232.57692307692307" y1="435.40639984423376" x2="232.57692307692307" y2="435.5819914587551" stroke="#000"/>
<rect x="238.0" y="425.0426680181589" width="10.846153846153845" height="72.957331981841" fill="orange" data-tooltip="1.17x baseline speed (YJIT)"/>
<line x1="238.0" y1="424.92746947731786" x2="248.84615384615384" y2="424.92746947731786" stroke="#000"/>
<line x1="238.0" y1="425.15786655899996" x2="248.84615384615384" y2="425.15786655899996" stroke="#000"/>
<line x1="243.4230769230769" y1="424.92746947731786" x2="243.4230769230769" y2="425.15786655899996" stroke="#000"/>
<line x1="243.4230769230769" y1="498.0" x2="243.4230769230769" y2="502.79999999999995" stroke="#000"/>
<text x="243.4230769230769" y="512.4" fill="#111" font-size="small" font-family="monospace" font-weight="bold" text-anchor="end" transform="rotate(-60, 243.4230769230769, 512.4)">
psych-load
</text>
<rect x="259.6923076923077" y="435.4941956514944" width="10.846153846153845" height="62.50580434850557" fill="#7070f8" data-tooltip="1.00x baseline speed (No JIT)"/>
<line x1="259.6923076923077" y1="435.336167690647" x2="270.5384615384615" y2="435.336167690647" stroke="#000"/>
<line x1="259.6923076923077" y1="435.65222361234186" x2="270.5384615384615" y2="435.65222361234186" stroke="#000"/>
<line x1="265.1153846153846" y1="435.336167690647" x2="265.1153846153846" y2="435.65222361234186" stroke="#000"/>
<rect x="270.5384615384615" y="425.3887312720718" width="10.846153846153845" height="72.61126872792815" fill="orange" data-tooltip="1.16x baseline speed (YJIT)"/>
<line x1="270.5384615384615" y1="424.16984375443155" x2="281.38461538461536" y2="424.16984375443155" stroke="#000"/>
<line x1="270.5384615384615" y1="426.60761878971203" x2="281.38461538461536" y2="426.60761878971203" stroke="#000"/>
<line x1="275.96153846153845" y1="424.16984375443155" x2="275.96153846153845" y2="426.60761878971203" stroke="#000"/>
<line x1="275.96153846153845" y1="498.0" x2="275.96153846153845" y2="502.79999999999995" stroke="#000"/>
<text x="275.96153846153845" y="512.4" fill="#111" font-size="small" font-family="monospace" font-weight="bold" text-anchor="end" transform="rotate(-60, 275.96153846153845, 512.4)">
railsbench
</text>
<rect x="292.23076923076917" y="435.4941956514944" width="10.846153846153845" height="62.50580434850557" fill="#7070f8" data-tooltip="1.00x baseline speed (No JIT)"/>
<line x1="292.23076923076917" y1="431.54758637201854" x2="303.07692307692304" y2="431.54758637201854" stroke="#000"/>
<line x1="292.23076923076917" y1="439.44080493097033" x2="303.07692307692304" y2="439.44080493097033" stroke="#000"/>
<line x1="297.6538461538461" y1="431.54758637201854" x2="297.6538461538461" y2="439.44080493097033" stroke="#000"/>
<rect x="303.07692307692304" y="442.36645676040956" width="10.846153846153845" height="55.63354323959031" fill="orange" data-tooltip="0.89x baseline speed (YJIT)"/>
<line x1="303.07692307692304" y1="433.5284649829027" x2="313.92307692307685" y2="433.5284649829027" stroke="#000"/>
<line x1="303.07692307692304" y1="451.2044485379165" x2="313.92307692307685" y2="451.2044485379165" stroke="#000"/>
<line x1="308.49999999999994" y1="433.5284649829027" x2="308.49999999999994" y2="451.2044485379165" stroke="#000"/>
<line x1="308.49999999999994" y1="498.0" x2="308.49999999999994" y2="502.79999999999995" stroke="#000"/>
<text x="308.49999999999994" y="512.4" fill="#111" font-size="small" font-family="monospace" font-weight="bold" text-anchor="end" transform="rotate(-60, 308.49999999999994, 512.4)">
ruby-lsp
</text>
<rect x="324.7692307692308" y="435.4941956514944" width="10.846153846153845" height="62.50580434850557" fill="#7070f8" data-tooltip="1.00x baseline speed (No JIT)"/>
<line x1="324.7692307692308" y1="435.0529857683628" x2="335.6153846153846" y2="435.0529857683628" stroke="#000"/>
<line x1="324.7692307692308" y1="435.93540553462606" x2="335.6153846153846" y2="435.93540553462606" stroke="#000"/>
<line x1="330.1923076923077" y1="435.0529857683628" x2="330.1923076923077" y2="435.93540553462606" stroke="#000"/>
<rect x="335.6153846153846" y="393.7216087343726" width="10.846153846153845" height="104.27839126562729" fill="orange" data-tooltip="1.67x baseline speed (YJIT)"/>
<line x1="335.6153846153846" y1="392.97880071637195" x2="346.46153846153845" y2="392.97880071637195" stroke="#000"/>
<line x1="335.6153846153846" y1="394.4644167523732" x2="346.46153846153845" y2="394.4644167523732" stroke="#000"/>
<line x1="341.0384615384615" y1="392.97880071637195" x2="341.0384615384615" y2="394.4644167523732" stroke="#000"/>
<line x1="341.0384615384615" y1="498.0" x2="341.0384615384615" y2="502.79999999999995" stroke="#000"/>
<text x="341.0384615384615" y="512.4" fill="#111" font-size="small" font-family="monospace" font-weight="bold" text-anchor="end" transform="rotate(-60, 341.0384615384615, 512.4)">
binarytrees
</text>
<rect x="357.3076923076923" y="435.4941956514944" width="10.846153846153845" height="62.50580434850557" fill="#7070f8" data-tooltip="1.00x baseline speed (No JIT)"/>
<line x1="357.3076923076923" y1="435.41872837817056" x2="368.1538461538462" y2="435.41872837817056" stroke="#000"/>
<line x1="357.3076923076923" y1="435.5696629248183" x2="368.1538461538462" y2="435.5696629248183" stroke="#000"/>
<line x1="362.7307692307692" y1="435.41872837817056" x2="362.7307692307692" y2="435.5696629248183" stroke="#000"/>
<rect x="368.1538461538462" y="408.51525893322645" width="10.846153846153845" height="89.48474106677354" fill="orange" data-tooltip="1.43x baseline speed (YJIT)"/>
<line x1="368.1538461538462" y1="408.37624029037835" x2="379.0" y2="408.37624029037835" stroke="#000"/>
<line x1="368.1538461538462" y1="408.65427757607455" x2="379.0" y2="408.65427757607455" stroke="#000"/>
<line x1="373.5769230769231" y1="408.37624029037835" x2="373.5769230769231" y2="408.65427757607455" stroke="#000"/>
<line x1="373.5769230769231" y1="498.0" x2="373.5769230769231" y2="502.79999999999995" stroke="#000"/>
<text x="373.5769230769231" y="512.4" fill="#111" font-size="small" font-family="monospace" font-weight="bold" text-anchor="end" transform="rotate(-60, 373.5769230769231, 512.4)">
chunky_png
</text>
<rect x="389.84615384615387" y="435.4941956514944" width="10.846153846153845" height="62.50580434850557" fill="#7070f8" data-tooltip="1.00x baseline speed (No JIT)"/>
<line x1="389.84615384615387" y1="434.51429946211596" x2="400.6923076923077" y2="434.51429946211596" stroke="#000"/>
<line x1="389.84615384615387" y1="436.4740918408729" x2="400.6923076923077" y2="436.4740918408729" stroke="#000"/>
<line x1="395.2692307692308" y1="434.51429946211596" x2="395.2692307692308" y2="436.4740918408729" stroke="#000"/>
<rect x="400.6923076923077" y="429.0058880668236" width="10.846153846153845" height="68.99411193317627" fill="orange" data-tooltip="1.10x baseline speed (YJIT)"/>
<line x1="400.6923076923077" y1="427.566699546717" x2="411.53846153846155" y2="427.566699546717" stroke="#000"/>
<line x1="400.6923076923077" y1="430.44507658693027" x2="411.53846153846155" y2="430.44507658693027" stroke="#000"/>
<line x1="406.1153846153846" y1="427.566699546717" x2="406.1153846153846" y2="430.44507658693027" stroke="#000"/>
<line x1="406.1153846153846" y1="498.0" x2="406.1153846153846" y2="502.79999999999995" stroke="#000"/>
<text x="406.1153846153846" y="512.4" fill="#111" font-size="small" font-family="monospace" font-weight="bold" text-anchor="end" transform="rotate(-60, 406.1153846153846, 512.4)">
erubi
</text>
<rect x="422.38461538461536" y="435.4941956514944" width="10.846153846153845" height="62.50580434850557" fill="#7070f8" data-tooltip="1.00x baseline speed (No JIT)"/>
<line x1="422.38461538461536" y1="434.1884561383093" x2="433.23076923076917" y2="434.1884561383093" stroke="#000"/>
<line x1="422.38461538461536" y1="436.7999351646796" x2="433.23076923076917" y2="436.7999351646796" stroke="#000"/>
<line x1="427.80769230769226" y1="434.1884561383093" x2="427.80769230769226" y2="436.7999351646796" stroke="#000"/>
<rect x="433.23076923076917" y="422.7690184390929" width="10.846153846153845" height="75.23098156090701" fill="orange" data-tooltip="1.20x baseline speed (YJIT)"/>
<line x1="433.23076923076917" y1="420.54074779627734" x2="444.07692307692304" y2="420.54074779627734" stroke="#000"/>
<line x1="433.23076923076917" y1="424.9972890819085" x2="444.07692307692304" y2="424.9972890819085" stroke="#000"/>
<line x1="438.65384615384613" y1="420.54074779627734" x2="438.65384615384613" y2="424.9972890819085" stroke="#000"/>
<line x1="438.65384615384613" y1="498.0" x2="438.65384615384613" y2="502.79999999999995" stroke="#000"/>
<text x="438.65384615384613" y="512.4" fill="#111" font-size="small" font-family="monospace" font-weight="bold" text-anchor="end" transform="rotate(-60, 438.65384615384613, 512.4)">
erubi_rails
</text>
<rect x="454.92307692307685" y="435.4941956514944" width="10.846153846153845" height="62.50580434850557" fill="#7070f8" data-tooltip="1.00x baseline speed (No JIT)"/>
<line x1="454.92307692307685" y1="435.14569863453374" x2="465.7692307692307" y2="435.14569863453374" stroke="#000"/>
<line x1="454.92307692307685" y1="435.84269266845513" x2="465.7692307692307" y2="435.84269266845513" stroke="#000"/>
<line x1="460.3461538461538" y1="435.14569863453374" x2="460.3461538461538" y2="435.84269266845513" stroke="#000"/>
<rect x="465.7692307692307" y="436.09282207858257" width="10.846153846153845" height="61.907177921417414" fill="orange" data-tooltip="0.99x baseline speed (YJIT)"/>
<line x1="465.7692307692307" y1="435.54407840421607" x2="476.6153846153845" y2="435.54407840421607" stroke="#000"/>
<line x1="465.7692307692307" y1="436.641565752949" x2="476.6153846153845" y2="436.641565752949" stroke="#000"/>
<line x1="471.1923076923076" y1="435.54407840421607" x2="471.1923076923076" y2="436.641565752949" stroke="#000"/>
<line x1="471.1923076923076" y1="498.0" x2="471.1923076923076" y2="502.79999999999995" stroke="#000"/>
<text x="471.1923076923076" y="512.4" fill="#111" font-size="small" font-family="monospace" font-weight="bold" text-anchor="end" transform="rotate(-60, 471.1923076923076, 512.4)">
etanni
</text>
<rect x="487.4615384615384" y="435.4941956514944" width="10.846153846153845" height="62.50580434850557" fill="#7070f8" data-tooltip="1.00x baseline speed (No JIT)"/>
<line x1="487.4615384615384" y1="435.0383484822973" x2="498.3076923076922" y2="435.0383484822973" stroke="#000"/>
<line x1="487.4615384615384" y1="435.9500428206915" x2="498.3076923076922" y2="435.9500428206915" stroke="#000"/>
<line x1="492.8846153846153" y1="435.0383484822973" x2="492.8846153846153" y2="435.9500428206915" stroke="#000"/>
<rect x="498.3076923076922" y="350.36105630256407" width="10.846153846153845" height="147.63894369743588" fill="orange" data-tooltip="2.36x baseline speed (YJIT)"/>
<line x1="498.3076923076922" y1="349.183106283353" x2="509.1538461538461" y2="349.183106283353" stroke="#000"/>
<line x1="498.3076923076922" y1="351.5390063217751" x2="509.1538461538461" y2="351.5390063217751" stroke="#000"/>
<line x1="503.7307692307692" y1="349.183106283353" x2="503.7307692307692" y2="351.5390063217751" stroke="#000"/>
<line x1="503.7307692307692" y1="498.0" x2="503.7307692307692" y2="502.79999999999995" stroke="#000"/>
<text x="503.7307692307692" y="512.4" fill="#111" font-size="small" font-family="monospace" font-weight="bold" text-anchor="end" transform="rotate(-60, 503.7307692307692, 512.4)">
fannkuchredux
</text>
<rect x="520.0" y="435.4941956514944" width="10.846153846153845" height="62.50580434850557" fill="#7070f8" data-tooltip="1.00x baseline speed (No JIT)"/>
<line x1="520.0" y1="434.96892634384494" x2="530.8461538461538" y2="434.96892634384494" stroke="#000"/>
<line x1="520.0" y1="436.01946495914393" x2="530.8461538461538" y2="436.01946495914393" stroke="#000"/>
<line x1="525.423076923077" y1="434.96892634384494" x2="525.423076923077" y2="436.01946495914393" stroke="#000"/>
<rect x="530.8461538461538" y="410.3851164879016" width="10.846153846153845" height="87.61488351209832" fill="orange" data-tooltip="1.40x baseline speed (YJIT)"/>
<line x1="530.8461538461538" y1="409.29816950168805" x2="541.6923076923077" y2="409.29816950168805" stroke="#000"/>
<line x1="530.8461538461538" y1="411.47206347411515" x2="541.6923076923077" y2="411.47206347411515" stroke="#000"/>
<line x1="536.2692307692308" y1="409.29816950168805" x2="536.2692307692308" y2="411.47206347411515" stroke="#000"/>
<line x1="536.2692307692308" y1="498.0" x2="536.2692307692308" y2="502.79999999999995" stroke="#000"/>
<text x="536.2692307692308" y="512.4" fill="#111" font-size="small" font-family="monospace" font-weight="bold" text-anchor="end" transform="rotate(-60, 536.2692307692308, 512.4)">
lee
</text>
<rect x="552.5384615384615" y="435.4941956514944" width="10.846153846153845" height="62.50580434850557" fill="#7070f8" data-tooltip="1.00x baseline speed (No JIT)"/>
<line x1="552.5384615384615" y1="434.971950340425" x2="563.3846153846154" y2="434.971950340425" stroke="#000"/>
<line x1="552.5384615384615" y1="436.0164409625638" x2="563.3846153846154" y2="436.0164409625638" stroke="#000"/>
<line x1="557.9615384615385" y1="434.971950340425" x2="557.9615384615385" y2="436.0164409625638" stroke="#000"/>
<rect x="563.3846153846154" y="414.6556437466862" width="10.846153846153845" height="83.34435625331376" fill="orange" data-tooltip="1.33x baseline speed (YJIT)"/>
<line x1="563.3846153846154" y1="413.95330272778165" x2="574.2307692307692" y2="413.95330272778165" stroke="#000"/>
<line x1="563.3846153846154" y1="415.3579847655908" x2="574.2307692307692" y2="415.3579847655908" stroke="#000"/>
<line x1="568.8076923076924" y1="413.95330272778165" x2="568.8076923076924" y2="415.3579847655908" stroke="#000"/>
<line x1="568.8076923076924" y1="498.0" x2="568.8076923076924" y2="502.79999999999995" stroke="#000"/>
<text x="568.8076923076924" y="512.4" fill="#111" font-size="small" font-family="monospace" font-weight="bold" text-anchor="end" transform="rotate(-60, 568.8076923076924, 512.4)">
nbody
</text>
<rect x="585.0769230769231" y="435.4941956514944" width="10.846153846153845" height="62.50580434850557" fill="#7070f8" data-tooltip="1.00x baseline speed (No JIT)"/>
<line x1="585.0769230769231" y1="435.11585520424535" x2="595.9230769230769" y2="435.11585520424535" stroke="#000"/>
<line x1="585.0769230769231" y1="435.8725360987435" x2="595.9230769230769" y2="435.8725360987435" stroke="#000"/>
<line x1="590.5" y1="435.11585520424535" x2="590.5" y2="435.8725360987435" stroke="#000"/>
<rect x="595.9230769230769" y="430.27281584265234" width="10.846153846153845" height="67.72718415734752" fill="orange" data-tooltip="1.08x baseline speed (YJIT)"/>
<line x1="595.9230769230769" y1="429.7537939314107" x2="606.7692307692307" y2="429.7537939314107" stroke="#000"/>
<line x1="595.9230769230769" y1="430.79183775389396" x2="606.7692307692307" y2="430.79183775389396" stroke="#000"/>
<line x1="601.3461538461538" y1="429.7537939314107" x2="601.3461538461538" y2="430.79183775389396" stroke="#000"/>
<line x1="601.3461538461538" y1="498.0" x2="601.3461538461538" y2="502.79999999999995" stroke="#000"/>
<text x="601.3461538461538" y="512.4" fill="#111" font-size="small" font-family="monospace" font-weight="bold" text-anchor="end" transform="rotate(-60, 601.3461538461538, 512.4)">
optcarrot
</text>
<rect x="617.6153846153845" y="435.4941956514944" width="10.846153846153845" height="62.50580434850557" fill="#7070f8" data-tooltip="1.00x baseline speed (No JIT)"/>
<line x1="617.6153846153845" y1="435.25725764425187" x2="628.4615384615385" y2="435.25725764425187" stroke="#000"/>
<line x1="617.6153846153845" y1="435.731133658737" x2="628.4615384615385" y2="435.731133658737" stroke="#000"/>
<line x1="623.0384615384615" y1="435.25725764425187" x2="623.0384615384615" y2="435.731133658737" stroke="#000"/>
<rect x="628.4615384615385" y="413.2624307917487" width="10.846153846153845" height="84.73756920825119" fill="orange" data-tooltip="1.36x baseline speed (YJIT)"/>
<line x1="628.4615384615385" y1="412.80919368367455" x2="639.3076923076923" y2="412.80919368367455" stroke="#000"/>
<line x1="628.4615384615385" y1="413.71566789982296" x2="639.3076923076923" y2="413.71566789982296" stroke="#000"/>
<line x1="633.8846153846154" y1="412.80919368367455" x2="633.8846153846154" y2="413.71566789982296" stroke="#000"/>
<line x1="633.8846153846154" y1="498.0" x2="633.8846153846154" y2="502.79999999999995" stroke="#000"/>
<text x="633.8846153846154" y="512.4" fill="#111" font-size="small" font-family="monospace" font-weight="bold" text-anchor="end" transform="rotate(-60, 633.8846153846154, 512.4)">
rubykon
</text>
<rect x="650.1538461538461" y="435.4941956514944" width="10.846153846153845" height="62.50580434850557" fill="#7070f8" data-tooltip="1.00x baseline speed (No JIT)"/>
<line x1="650.1538461538461" y1="435.4184743429038" x2="660.9999999999999" y2="435.4184743429038" stroke="#000"/>
<line x1="650.1538461538461" y1="435.5699169600851" x2="660.9999999999999" y2="435.5699169600851" stroke="#000"/>
<line x1="655.5769230769231" y1="435.4184743429038" x2="655.5769230769231" y2="435.5699169600851" stroke="#000"/>
<rect x="660.9999999999999" y="329.46332500870307" width="10.846153846153845" height="168.53667499129688" fill="orange" data-tooltip="2.70x baseline speed (YJIT)"/>
<line x1="660.9999999999999" y1="328.2444377475565" x2="671.8461538461538" y2="328.2444377475565" stroke="#000"/>
<line x1="660.9999999999999" y1="330.6822122698496" x2="671.8461538461538" y2="330.6822122698496" stroke="#000"/>
<line x1="666.4230769230769" y1="328.2444377475565" x2="666.4230769230769" y2="330.6822122698496" stroke="#000"/>
<line x1="666.4230769230769" y1="498.0" x2="666.4230769230769" y2="502.79999999999995" stroke="#000"/>
<text x="666.4230769230769" y="512.4" fill="#111" font-size="small" font-family="monospace" font-weight="bold" text-anchor="end" transform="rotate(-60, 666.4230769230769, 512.4)">
30k_ifelse
</text>
<rect x="682.6923076923076" y="435.4941956514944" width="10.846153846153845" height="62.50580434850557" fill="#7070f8" data-tooltip="1.00x baseline speed (No JIT)"/>
<line x1="682.6923076923076" y1="435.45342167547176" x2="693.5384615384614" y2="435.45342167547176" stroke="#000"/>
<line x1="682.6923076923076" y1="435.5349696275171" x2="693.5384615384614" y2="435.5349696275171" stroke="#000"/>
<line x1="688.1153846153845" y1="435.45342167547176" x2="688.1153846153845" y2="435.5349696275171" stroke="#000"/>
<rect x="693.5384615384614" y="275.59699764044126" width="10.846153846153845" height="222.40300235955868" fill="orange" data-tooltip="3.56x baseline speed (YJIT)"/>
<line x1="693.5384615384614" y1="275.3716839468585" x2="704.3846153846152" y2="275.3716839468585" stroke="#000"/>
<line x1="693.5384615384614" y1="275.822311334024" x2="704.3846153846152" y2="275.822311334024" stroke="#000"/>
<line x1="698.9615384615385" y1="275.3716839468585" x2="698.9615384615385" y2="275.822311334024" stroke="#000"/>
<line x1="698.9615384615385" y1="498.0" x2="698.9615384615385" y2="502.79999999999995" stroke="#000"/>
<text x="698.9615384615385" y="512.4" fill="#111" font-size="small" font-family="monospace" font-weight="bold" text-anchor="end" transform="rotate(-60, 698.9615384615385, 512.4)">
30k_methods
</text>
<rect x="715.2307692307692" y="435.4941956514944" width="10.846153846153845" height="62.50580434850557" fill="#7070f8" data-tooltip="1.00x baseline speed (No JIT)"/>
<line x1="715.2307692307692" y1="435.4434573809061" x2="726.0769230769231" y2="435.4434573809061" stroke="#000"/>
<line x1="715.2307692307692" y1="435.54493392208275" x2="726.0769230769231" y2="435.54493392208275" stroke="#000"/>
<line x1="720.6538461538462" y1="435.4434573809061" x2="720.6538461538462" y2="435.54493392208275" stroke="#000"/>
<rect x="726.0769230769231" y="355.9614514527956" width="10.846153846153845" height="142.03854854720439" fill="orange" data-tooltip="2.27x baseline speed (YJIT)"/>
<line x1="726.0769230769231" y1="355.84165656407293" x2="736.9230769230769" y2="355.84165656407293" stroke="#000"/>
<line x1="726.0769230769231" y1="356.0812463415182" x2="736.9230769230769" y2="356.0812463415182" stroke="#000"/>
<line x1="731.5" y1="355.84165656407293" x2="731.5" y2="356.0812463415182" stroke="#000"/>
<line x1="731.5" y1="498.0" x2="731.5" y2="502.79999999999995" stroke="#000"/>
<text x="731.5" y="512.4" fill="#111" font-size="small" font-family="monospace" font-weight="bold" text-anchor="end" transform="rotate(-60, 731.5, 512.4)">
cfunc_itself
</text>
<rect x="747.7692307692307" y="435.4941956514944" width="10.846153846153845" height="62.50580434850557" fill="#7070f8" data-tooltip="1.00x baseline speed (No JIT)"/>
<line x1="747.7692307692307" y1="434.47150333289363" x2="758.6153846153845" y2="434.47150333289363" stroke="#000"/>
<line x1="747.7692307692307" y1="436.51688797009524" x2="758.6153846153845" y2="436.51688797009524" stroke="#000"/>
<line x1="753.1923076923077" y1="434.47150333289363" x2="753.1923076923077" y2="436.51688797009524" stroke="#000"/>
<rect x="758.6153846153845" y="348.00864848279815" width="10.846153846153845" height="149.99135151720176" fill="orange" data-tooltip="2.40x baseline speed (YJIT)"/>
<line x1="758.6153846153845" y1="345.55454108913335" x2="769.4615384615385" y2="345.55454108913335" stroke="#000"/>
<line x1="758.6153846153845" y1="350.46275587646295" x2="769.4615384615385" y2="350.46275587646295" stroke="#000"/>
<line x1="764.0384615384615" y1="345.55454108913335" x2="764.0384615384615" y2="350.46275587646295" stroke="#000"/>
<line x1="764.0384615384615" y1="498.0" x2="764.0384615384615" y2="502.79999999999995" stroke="#000"/>
<text x="764.0384615384615" y="512.4" fill="#111" font-size="small" font-family="monospace" font-weight="bold" text-anchor="end" transform="rotate(-60, 764.0384615384615, 512.4)">
fib
</text>
<rect x="780.3076923076923" y="435.4941956514944" width="10.846153846153845" height="62.50580434850557" fill="#7070f8" data-tooltip="1.00x baseline speed (No JIT)"/>
<line x1="780.3076923076923" y1="434.57421567259104" x2="791.1538461538461" y2="434.57421567259104" stroke="#000"/>
<line x1="780.3076923076923" y1="436.41417563039784" x2="791.1538461538461" y2="436.41417563039784" stroke="#000"/>
<line x1="785.7307692307693" y1="434.57421567259104" x2="785.7307692307693" y2="436.41417563039784" stroke="#000"/>
<rect x="791.1538461538461" y="368.43597144927463" width="10.846153846153845" height="129.56402855072528" fill="orange" data-tooltip="2.07x baseline speed (YJIT)"/>
<line x1="791.1538461538461" y1="366.5289481410267" x2="801.9999999999999" y2="366.5289481410267" stroke="#000"/>
<line x1="791.1538461538461" y1="370.34299475752255" x2="801.9999999999999" y2="370.34299475752255" stroke="#000"/>
<line x1="796.5769230769231" y1="366.5289481410267" x2="796.5769230769231" y2="370.34299475752255" stroke="#000"/>
<line x1="796.5769230769231" y1="498.0" x2="796.5769230769231" y2="502.79999999999995" stroke="#000"/>
<text x="796.5769230769231" y="512.4" fill="#111" font-size="small" font-family="monospace" font-weight="bold" text-anchor="end" transform="rotate(-60, 796.5769230769231, 512.4)">
getivar
</text>
<rect x="812.8461538461538" y="435.4941956514944" width="10.846153846153845" height="62.50580434850557" fill="#7070f8" data-tooltip="1.00x baseline speed (No JIT)"/>
<line x1="812.8461538461538" y1="435.35030773272877" x2="823.6923076923076" y2="435.35030773272877" stroke="#000"/>
<line x1="812.8461538461538" y1="435.6380835702601" x2="823.6923076923076" y2="435.6380835702601" stroke="#000"/>
<line x1="818.2692307692307" y1="435.35030773272877" x2="818.2692307692307" y2="435.6380835702601" stroke="#000"/>
<rect x="823.6923076923076" y="210.31542807471257" width="10.846153846153845" height="287.6845719252874" fill="orange" data-tooltip="4.60x baseline speed (YJIT)"/>
<line x1="823.6923076923076" y1="209.65066964644902" x2="834.5384615384614" y2="209.65066964644902" stroke="#000"/>
<line x1="823.6923076923076" y1="210.9801865029761" x2="834.5384615384614" y2="210.9801865029761" stroke="#000"/>
<line x1="829.1153846153846" y1="209.65066964644902" x2="829.1153846153846" y2="210.9801865029761" stroke="#000"/>
<line x1="829.1153846153846" y1="498.0" x2="829.1153846153846" y2="502.79999999999995" stroke="#000"/>
<text x="829.1153846153846" y="512.4" fill="#111" font-size="small" font-family="monospace" font-weight="bold" text-anchor="end" transform="rotate(-60, 829.1153846153846, 512.4)">
keyword_args
</text>
<rect x="845.3846153846152" y="435.4941956514944" width="10.846153846153845" height="62.50580434850557" fill="#7070f8" data-tooltip="1.00x baseline speed (No JIT)"/>
<line x1="845.3846153846152" y1="434.90217884696443" x2="856.2307692307692" y2="434.90217884696443" stroke="#000"/>
<line x1="845.3846153846152" y1="436.08621245602444" x2="856.2307692307692" y2="436.08621245602444" stroke="#000"/>
<line x1="850.8076923076923" y1="434.90217884696443" x2="850.8076923076923" y2="436.08621245602444" stroke="#000"/>
<rect x="856.2307692307692" y="100.19999999999999" width="10.846153846153845" height="397.79999999999995" fill="orange" data-tooltip="6.36x baseline speed (YJIT)"/>
<line x1="856.2307692307692" y1="96.03715999763234" x2="867.076923076923" y2="96.03715999763234" stroke="#000"/>
<line x1="856.2307692307692" y1="104.36284000236765" x2="867.076923076923" y2="104.36284000236765" stroke="#000"/>
<line x1="861.6538461538461" y1="96.03715999763234" x2="861.6538461538461" y2="104.36284000236765" stroke="#000"/>
<line x1="861.6538461538461" y1="498.0" x2="861.6538461538461" y2="502.79999999999995" stroke="#000"/>
<text x="861.6538461538461" y="512.4" fill="#111" font-size="small" font-family="monospace" font-weight="bold" text-anchor="end" transform="rotate(-60, 861.6538461538461, 512.4)">
respond_to
</text>
<rect x="877.9230769230768" y="435.4941956514944" width="10.846153846153845" height="62.50580434850557" fill="#7070f8" data-tooltip="1.00x baseline speed (No JIT)"/>
<line x1="877.9230769230768" y1="435.1621653441133" x2="888.7692307692306" y2="435.1621653441133" stroke="#000"/>
<line x1="877.9230769230768" y1="435.82622595887557" x2="888.7692307692306" y2="435.82622595887557" stroke="#000"/>
<line x1="883.3461538461538" y1="435.1621653441133" x2="883.3461538461538" y2="435.82622595887557" stroke="#000"/>
<rect x="888.7692307692306" y="398.599456176823" width="10.846153846153845" height="99.40054382317692" fill="orange" data-tooltip="1.59x baseline speed (YJIT)"/>
<line x1="888.7692307692306" y1="398.0713676471063" x2="899.6153846153845" y2="398.0713676471063" stroke="#000"/>
<line x1="888.7692307692306" y1="399.12754470653977" x2="899.6153846153845" y2="399.12754470653977" stroke="#000"/>
<line x1="894.1923076923076" y1="398.0713676471063" x2="894.1923076923076" y2="399.12754470653977" stroke="#000"/>
<line x1="894.1923076923076" y1="498.0" x2="894.1923076923076" y2="502.79999999999995" stroke="#000"/>
<text x="894.1923076923076" y="512.4" fill="#111" font-size="small" font-family="monospace" font-weight="bold" text-anchor="end" transform="rotate(-60, 894.1923076923076, 512.4)">
setivar
</text>
<rect x="910.4615384615385" y="435.4941956514944" width="10.846153846153845" height="62.50580434850557" fill="#7070f8" data-tooltip="1.00x baseline speed (No JIT)"/>
<line x1="910.4615384615385" y1="435.20695822637975" x2="921.3076923076923" y2="435.20695822637975" stroke="#000"/>
<line x1="910.4615384615385" y1="435.78143307660906" x2="921.3076923076923" y2="435.78143307660906" stroke="#000"/>
<line x1="915.8846153846154" y1="435.20695822637975" x2="915.8846153846154" y2="435.78143307660906" stroke="#000"/>
<rect x="921.3076923076923" y="408.7987899723918" width="10.846153846153845" height="89.20121002760813" fill="orange" data-tooltip="1.43x baseline speed (YJIT)"/>
<line x1="921.3076923076923" y1="408.0353980296452" x2="932.1538461538461" y2="408.0353980296452" stroke="#000"/>
<line x1="921.3076923076923" y1="409.56218191513835" x2="932.1538461538461" y2="409.56218191513835" stroke="#000"/>
<line x1="926.7307692307693" y1="408.0353980296452" x2="926.7307692307693" y2="409.56218191513835" stroke="#000"/>
<line x1="926.7307692307693" y1="498.0" x2="926.7307692307693" y2="502.79999999999995" stroke="#000"/>
<text x="926.7307692307693" y="512.4" fill="#111" font-size="small" font-family="monospace" font-weight="bold" text-anchor="end" transform="rotate(-60, 926.7307692307693, 512.4)">
str_concat
</text>
</svg>