<svg viewBox="0 0 1000 600" xmlns="http://www.w3.org/2000/svg" xmlns:xlink="http://www.w3.org/1999/xlink" width="100%" height="100%">

<rect x="50.0" y="30.0" width="940.0" height="467.99999999999994" stroke="#000" fill="#EEE"/>
<line x1="42.0" y1="497.9999999999999" x2="50.0" y2="497.9999999999999" stroke="#000"/>
<text x="26.000000000000004" y="497.9999999999999" text-anchor="end" font-weight="bold" font-size="small" fill="#111">
0.0
</text>
<line x1="42.0" y1="406.9015541987317" x2="50.0" y2="406.9015541987317" stroke="#000"/>
<text x="26.000000000000004" y="406.9015541987317" text-anchor="end" font-weight="bold" font-size="small" fill="#111">
2.0
</text>
<line x1="42.0" y1="315.8031083974633" x2="50.0" y2="315.8031083974633" stroke="#000"/>
<text x="26.000000000000004" y="315.8031083974633" text-anchor="end" font-weight="bold" font-size="small" fill="#111">
4.0
</text>
<line x1="42.0" y1="224.7046625961949" x2="50.0" y2="224.7046625961949" stroke="#000"/>
<text x="26.000000000000004" y="224.7046625961949" text-anchor="end" font-weight="bold" font-size="small" fill="#111">
6.0
</text>
<line x1="42.0" y1="133.6062167949266" x2="50.0" y2="133.6062167949266" stroke="#000"/>
<text x="26.000000000000004" y="133.6062167949266" text-anchor="end" font-weight="bold" font-size="small" fill="#111">
8.0
</text>
<rect x="268.5" y="36.00000000000001" width="80.0" height="18.0" fill="#7070f8" stroke="#888"/>
<text x="308.5" y="52.50000000000001" font-size="small" text-anchor="middle" font-weight="bold" fill="#EEE">
No JIT
</text>
<rect x="691.4999999999999" y="36.00000000000001" width="80.0" height="18.0" fill="orange" stroke="#888"/>
<text x="731.4999999999999" y="52.50000000000001" font-size="small" text-anchor="middle" font-weight="bold" fill="#EEE">
YJIT
</text>
<rect x="97.0" y="452.4507770993657" width="23.499999999999996" height="45.54922290063416" fill="#7070f8" data-tooltip="1.00x baseline speed (No JIT)"/>
<line x1="97.0" y1="452.3359326078662" x2="120.5" y2="452.3359326078662" stroke="#000"/>
<line x1="97.0" y1="452.56562159086525" x2="120.5" y2="452.56562159086525" stroke="#000"/>
<line x1="108.75" y1="452.3359326078662" x2="108.75" y2="452.56562159086525" stroke="#000"/>
<rect x="120.5" y="318.79691866215876" width="23.499999999999996" height="179.20308133784113" fill="orange" data-tooltip="3.93x baseline speed (YJIT)"/>
<line x1="120.5" y1="318.3421833329477" x2="144.0" y2="318.3421833329477" stroke="#000"/>
<line x1="120.5" y1="319.2516539913699" x2="144.0" y2="319.2516539913699" stroke="#000"/>
<line x1="132.25" y1="318.3421833329477" x2="132.25" y2="319.2516539913699" stroke="#000"/>
<line x1="132.25" y1="498.0" x2="132.25" y2="502.79999999999995" stroke="#000"/>
<text x="132.25" y="512.4" fill="#111" font-size="small" font-family="monospace" font-weight="bold" text-anchor="end" transform="rotate(-60, 132.25, 512.4)">
30k_ifelse
</text>
<rect x="167.49999999999997" y="452.4507770993657" width="23.499999999999996" height="45.54922290063416" fill="#7070f8" data-tooltip="1.00x baseline speed (No JIT)"/>
<line x1="167.49999999999997" y1="452.4180350293146" x2="190.99999999999997" y2="452.4180350293146" stroke="#000"/>
<line x1="167.49999999999997" y1="452.48351916941687" x2="190.99999999999997" y2="452.48351916941687" stroke="#000"/>
<line x1="179.25" y1="452.4180350293146" x2="179.25" y2="452.48351916941687" stroke="#000"/>
<rect x="190.99999999999997" y="261.7102466952218" width="23.499999999999996" height="236.28975330477812" fill="orange" data-tooltip="5.19x baseline speed (YJIT)"/>
<line x1="190.99999999999997" y1="261.43795621735626" x2="214.49999999999997" y2="261.43795621735626" stroke="#000"/>
<line x1="190.99999999999997" y1="261.9825371730874" x2="214.49999999999997" y2="261.9825371730874" stroke="#000"/>
<line x1="202.75" y1="261.43795621735626" x2="202.75" y2="261.9825371730874" stroke="#000"/>
<line x1="202.75" y1="498.0" x2="202.75" y2="502.79999999999995" stroke="#000"/>
<text x="202.75" y="512.4" fill="#111" font-size="small" font-family="monospace" font-weight="bold" text-anchor="end" transform="rotate(-60, 202.75, 512.4)">
30k_methods
</text>
<rect x="238.0" y="452.4507770993657" width="23.499999999999996" height="45.54922290063416" fill="#7070f8" data-tooltip="1.00x baseline speed (No JIT)"/>
<line x1="238.0" y1="452.4258008834961" x2="261.5" y2="452.4258008834961" stroke="#000"/>
<line x1="238.0" y1="452.47575331523535" x2="261.5" y2="452.47575331523535" stroke="#000"/>
<line x1="249.75" y1="452.4258008834961" x2="249.75" y2="452.47575331523535" stroke="#000"/>
<rect x="261.5" y="348.2334340578078" width="23.499999999999996" height="149.76656594219216" fill="orange" data-tooltip="3.29x baseline speed (YJIT)"/>
<line x1="261.5" y1="348.0949520385785" x2="285.00000000000006" y2="348.0949520385785" stroke="#000"/>
<line x1="261.5" y1="348.3719160770371" x2="285.00000000000006" y2="348.3719160770371" stroke="#000"/>
<line x1="273.25" y1="348.0949520385785" x2="273.25" y2="348.3719160770371" stroke="#000"/>
<line x1="273.25" y1="498.0" x2="273.25" y2="502.79999999999995" stroke="#000"/>
<text x="273.25" y="512.4" fill="#111" font-size="small" font-family="monospace" font-weight="bold" text-anchor="end" transform="rotate(-60, 273.25, 512.4)">
cfunc_itself
</text>
<rect x="308.5" y="452.4507770993657" width="23.499999999999996" height="45.54922290063416" fill="#7070f8" data-tooltip="1.00x baseline speed (No JIT)"/>
<line x1="308.5" y1="452.0401041015063" x2="332.0" y2="452.0401041015063" stroke="#000"/>
<line x1="308.5" y1="452.8614500972251" x2="332.0" y2="452.8614500972251" stroke="#000"/>
<line x1="320.25" y1="452.0401041015063" x2="320.25" y2="452.8614500972251" stroke="#000"/>
<rect x="332.0" y="314.0804702860643" width="23.499999999999996" height="183.91952971393562" fill="orange" data-tooltip="4.04x baseline speed (YJIT)"/>
<line x1="332.0" y1="312.42220237709785" x2="355.50000000000006" y2="312.42220237709785" stroke="#000"/>
<line x1="332.0" y1="315.7387381950308" x2="355.50000000000006" y2="315.7387381950308" stroke="#000"/>
<line x1="343.75" y1="312.42220237709785" x2="343.75" y2="315.7387381950308" stroke="#000"/>
<line x1="343.75" y1="498.0" x2="343.75" y2="502.79999999999995" stroke="#000"/>
<text x="343.75" y="512.4" fill="#111" font-size="small" font-family="monospace" font-weight="bold" text-anchor="end" transform="rotate(-60, 343.75, 512.4)">
fib
</text>
<rect x="379.0" y="452.4507770993657" width="23.499999999999996" height="45.54922290063416" fill="#7070f8" data-tooltip="1.00x baseline speed (No JIT)"/>
<line x1="379.0" y1="451.1187646201446" x2="402.5" y2="451.1187646201446" stroke="#000"/>
<line x1="379.0" y1="453.78278957858686" x2="402.5" y2="453.78278957858686" stroke="#000"/>
<line x1="390.75" y1="451.1187646201446" x2="390.75" y2="453.78278957858686" stroke="#000"/>
<rect x="402.5" y="291.90499475750414" width="23.499999999999996" height="206.09500524249583" fill="orange" data-tooltip="4.52x baseline speed (YJIT)"/>
<line x1="402.5" y1="285.87771561767977" x2="426.00000000000006" y2="285.87771561767977" stroke="#000"/>
<line x1="402.5" y1="297.93227389732846" x2="426.00000000000006" y2="297.93227389732846" stroke="#000"/>
<line x1="414.25" y1="285.87771561767977" x2="414.25" y2="297.93227389732846" stroke="#000"/>
<line x1="414.25" y1="498.0" x2="414.25" y2="502.79999999999995" stroke="#000"/>
<text x="414.25" y="512.4" fill="#111" font-size="small" font-family="monospace" font-weight="bold" text-anchor="end" transform="rotate(-60, 414.25, 512.4)">
getivar
</text>
<rect x="449.5" y="452.4507770993657" width="23.499999999999996" height="45.54922290063416" fill="#7070f8" data-tooltip="1.00x baseline speed (No JIT)"/>
<line x1="449.5" y1="452.39730208827456" x2="473.00000000000006" y2="452.39730208827456" stroke="#000"/>
<line x1="449.5" y1="452.5042521104569" x2="473.00000000000006" y2="452.5042521104569" stroke="#000"/>
<line x1="461.25" y1="452.39730208827456" x2="461.25" y2="452.5042521104569" stroke="#000"/>
<rect x="473.00000000000006" y="257.91465470388323" width="23.499999999999996" height="240.0853452961167" fill="orange" data-tooltip="5.27x baseline speed (YJIT)"/>
<line x1="473.00000000000006" y1="257.4902602761273" x2="496.50000000000006" y2="257.4902602761273" stroke="#000"/>
<line x1="473.00000000000006" y1="258.33904913163923" x2="496.50000000000006" y2="258.33904913163923" stroke="#000"/>
<line x1="484.75" y1="257.4902602761273" x2="484.75" y2="258.33904913163923" stroke="#000"/>
<line x1="484.75" y1="498.0" x2="484.75" y2="502.79999999999995" stroke="#000"/>
<text x="484.75" y="512.4" fill="#111" font-size="small" font-family="monospace" font-weight="bold" text-anchor="end" transform="rotate(-60, 484.75, 512.4)">
keyword_args
</text>
<rect x="519.9999999999999" y="452.4507770993657" width="23.499999999999996" height="45.54922290063416" fill="#7070f8" data-tooltip="1.00x baseline speed (No JIT)"/>
<line x1="519.9999999999999" y1="452.19725025271265" x2="543.4999999999999" y2="452.19725025271265" stroke="#000"/>
<line x1="519.9999999999999" y1="452.7043039460188" x2="543.4999999999999" y2="452.7043039460188" stroke="#000"/>
<line x1="531.75" y1="452.19725025271265" x2="531.75" y2="452.7043039460188" stroke="#000"/>
<rect x="543.4999999999999" y="100.19999999999999" width="23.499999999999996" height="397.79999999999995" fill="orange" data-tooltip="8.73x baseline speed (YJIT)"/>
<line x1="543.4999999999999" y1="95.63611958886095" x2="566.9999999999999" y2="95.63611958886095" stroke="#000"/>
<line x1="543.4999999999999" y1="104.76388041113903" x2="566.9999999999999" y2="104.76388041113903" stroke="#000"/>
<line x1="555.2499999999999" y1="95.63611958886095" x2="555.2499999999999" y2="104.76388041113903" stroke="#000"/>
<line x1="555.2499999999999" y1="498.0" x2="555.2499999999999" y2="502.79999999999995" stroke="#000"/>
<text x="555.2499999999999" y="512.4" fill="#111" font-size="small" font-family="monospace" font-weight="bold" text-anchor="end" transform="rotate(-60, 555.2499999999999, 512.4)">
respond_to
</text>
<rect x="590.4999999999999" y="452.4507770993657" width="23.499999999999996" height="45.54922290063416" fill="#7070f8" data-tooltip="1.00x baseline speed (No JIT)"/>
<line x1="590.4999999999999" y1="451.9435236701672" x2="613.9999999999999" y2="451.9435236701672" stroke="#000"/>
<line x1="590.4999999999999" y1="452.9580305285642" x2="613.9999999999999" y2="452.9580305285642" stroke="#000"/>
<line x1="602.25" y1="451.9435236701672" x2="602.25" y2="452.9580305285642" stroke="#000"/>
<rect x="613.9999999999999" y="243.10797765888563" width="23.499999999999996" height="254.8920223411143" fill="orange" data-tooltip="5.60x baseline speed (YJIT)"/>
<line x1="613.9999999999999" y1="240.2691138366976" x2="637.4999999999999" y2="240.2691138366976" stroke="#000"/>
<line x1="613.9999999999999" y1="245.94684148107365" x2="637.4999999999999" y2="245.94684148107365" stroke="#000"/>
<line x1="625.7499999999999" y1="240.2691138366976" x2="625.7499999999999" y2="245.94684148107365" stroke="#000"/>
<line x1="625.7499999999999" y1="498.0" x2="625.7499999999999" y2="502.79999999999995" stroke="#000"/>
<text x="625.7499999999999" y="512.4" fill="#111" font-size="small" font-family="monospace" font-weight="bold" text-anchor="end" transform="rotate(-60, 625.7499999999999, 512.4)">
setivar
</text>
<rect x="660.9999999999999" y="452.4507770993657" width="23.499999999999996" height="45.54922290063416" fill="#7070f8" data-tooltip="1.00x baseline speed (No JIT)"/>
<line x1="660.9999999999999" y1="452.026454702789" x2="684.4999999999999" y2="452.026454702789" stroke="#000"/>
<line x1="660.9999999999999" y1="452.8750994959424" x2="684.4999999999999" y2="452.8750994959424" stroke="#000"/>
<line x1="672.75" y1="452.026454702789" x2="672.75" y2="452.8750994959424" stroke="#000"/>
<rect x="684.4999999999999" y="388.0581715604651" width="23.499999999999996" height="109.94182843953485" fill="orange" data-tooltip="2.41x baseline speed (YJIT)"/>
<line x1="684.4999999999999" y1="386.40353181446517" x2="707.9999999999999" y2="386.40353181446517" stroke="#000"/>
<line x1="684.4999999999999" y1="389.7128113064651" x2="707.9999999999999" y2="389.7128113064651" stroke="#000"/>
<line x1="696.2499999999999" y1="386.40353181446517" x2="696.2499999999999" y2="389.7128113064651" stroke="#000"/>
<line x1="696.2499999999999" y1="498.0" x2="696.2499999999999" y2="502.79999999999995" stroke="#000"/>
<text x="696.2499999999999" y="512.4" fill="#111" font-size="small" font-family="monospace" font-weight="bold" text-anchor="end" transform="rotate(-60, 696.2499999999999, 512.4)">
setivar_object
</text>
<rect x="731.4999999999999" y="452.4507770993657" width="23.499999999999996" height="45.54922290063416" fill="#7070f8" data-tooltip="1.00x baseline speed (No JIT)"/>
<line x1="731.4999999999999" y1="452.2205911712981" x2="754.9999999999999" y2="452.2205911712981" stroke="#000"/>
<line x1="731.4999999999999" y1="452.6809630274333" x2="754.9999999999999" y2="452.6809630274333" stroke="#000"/>
<line x1="743.25" y1="452.2205911712981" x2="743.25" y2="452.6809630274333" stroke="#000"/>
<rect x="754.9999999999999" y="386.31219205666986" width="23.499999999999996" height="111.68780794333004" fill="orange" data-tooltip="2.45x baseline speed (YJIT)"/>
<line x1="754.9999999999999" y1="385.747712717888" x2="778.4999999999999" y2="385.747712717888" stroke="#000"/>
<line x1="754.9999999999999" y1="386.8766713954517" x2="778.4999999999999" y2="386.8766713954517" stroke="#000"/>
<line x1="766.7499999999999" y1="385.747712717888" x2="766.7499999999999" y2="386.8766713954517" stroke="#000"/>
<line x1="766.7499999999999" y1="498.0" x2="766.7499999999999" y2="502.79999999999995" stroke="#000"/>
<text x="766.7499999999999" y="512.4" fill="#111" font-size="small" font-family="monospace" font-weight="bold" text-anchor="end" transform="rotate(-60, 766.7499999999999, 512.4)">
setivar_young
</text>
<rect x="801.9999999999999" y="452.4507770993657" width="23.499999999999996" height="45.54922290063416" fill="#7070f8" data-tooltip="1.00x baseline speed (No JIT)"/>
<line x1="801.9999999999999" y1="448.6858075844107" x2="825.4999999999999" y2="448.6858075844107" stroke="#000"/>
<line x1="801.9999999999999" y1="456.2157466143207" x2="825.4999999999999" y2="456.2157466143207" stroke="#000"/>
<line x1="813.75" y1="448.6858075844107" x2="813.75" y2="456.2157466143207" stroke="#000"/>
<rect x="825.4999999999999" y="402.93269742486444" width="23.499999999999996" height="95.06730257513541" fill="orange" data-tooltip="2.09x baseline speed (YJIT)"/>
<line x1="825.4999999999999" y1="394.999624180412" x2="848.9999999999999" y2="394.999624180412" stroke="#000"/>
<line x1="825.4999999999999" y1="410.86577066931693" x2="848.9999999999999" y2="410.86577066931693" stroke="#000"/>
<line x1="837.2499999999999" y1="394.999624180412" x2="837.2499999999999" y2="410.86577066931693" stroke="#000"/>
<line x1="837.2499999999999" y1="498.0" x2="837.2499999999999" y2="502.79999999999995" stroke="#000"/>
<text x="837.2499999999999" y="512.4" fill="#111" font-size="small" font-family="monospace" font-weight="bold" text-anchor="end" transform="rotate(-60, 837.2499999999999, 512.4)">
str_concat
</text>
<rect x="872.4999999999999" y="452.4507770993657" width="23.499999999999996" height="45.54922290063416" fill="#7070f8" data-tooltip="1.00x baseline speed (No JIT)"/>
<line x1="872.4999999999999" y1="452.32419544117363" x2="895.9999999999999" y2="452.32419544117363" stroke="#000"/>
<line x1="872.4999999999999" y1="452.5773587575578" x2="895.9999999999999" y2="452.5773587575578" stroke="#000"/>
<line x1="884.25" y1="452.32419544117363" x2="884.25" y2="452.5773587575578" stroke="#000"/>
<rect x="895.9999999999999" y="438.2302910029538" width="23.499999999999996" height="59.76970899704619" fill="orange" data-tooltip="1.31x baseline speed (YJIT)"/>
<line x1="895.9999999999999" y1="438.0373682400969" x2="919.4999999999999" y2="438.0373682400969" stroke="#000"/>
<line x1="895.9999999999999" y1="438.4232137658106" x2="919.4999999999999" y2="438.4232137658106" stroke="#000"/>
<line x1="907.75" y1="438.0373682400969" x2="907.75" y2="438.4232137658106" stroke="#000"/>
<line x1="907.75" y1="498.0" x2="907.75" y2="502.79999999999995" stroke="#000"/>
<text x="907.75" y="512.4" fill="#111" font-size="small" font-family="monospace" font-weight="bold" text-anchor="end" transform="rotate(-60, 907.75, 512.4)">
throw
</text>
</svg>