<svg viewBox="0 0 1000 600" xmlns="http://www.w3.org/2000/svg" xmlns:xlink="http://www.w3.org/1999/xlink" width="100%" height="100%">

<rect x="50.0" y="30.0" width="940.0" height="467.99999999999994" stroke="#000" fill="#EEE"/>
<line x1="42.0" y1="497.9999999999999" x2="50.0" y2="497.9999999999999" stroke="#000"/>
<text x="26.000000000000004" y="497.9999999999999" text-anchor="end" font-weight="bold" font-size="small" fill="#111">
0.0
</text>
<line x1="42.0" y1="407.78129202184215" x2="50.0" y2="407.78129202184215" stroke="#000"/>
<text x="26.000000000000004" y="407.78129202184215" text-anchor="end" font-weight="bold" font-size="small" fill="#111">
2.0
</text>
<line x1="42.0" y1="317.56258404368447" x2="50.0" y2="317.56258404368447" stroke="#000"/>
<text x="26.000000000000004" y="317.56258404368447" text-anchor="end" font-weight="bold" font-size="small" fill="#111">
4.0
</text>
<line x1="42.0" y1="227.34387606552676" x2="50.0" y2="227.34387606552676" stroke="#000"/>
<text x="26.000000000000004" y="227.34387606552676" text-anchor="end" font-weight="bold" font-size="small" fill="#111">
6.0
</text>
<line x1="42.0" y1="137.12516808736902" x2="50.0" y2="137.12516808736902" stroke="#000"/>
<text x="26.000000000000004" y="137.12516808736902" text-anchor="end" font-weight="bold" font-size="small" fill="#111">
8.0
</text>
<rect x="162.74999999999997" y="36.00000000000001" width="80.0" height="18.0" fill="#7070f8" stroke="#888"/>
<text x="202.75" y="52.50000000000001" font-size="small" text-anchor="middle" font-weight="bold" fill="#111">
No JIT
</text>
<rect x="374.25" y="36.00000000000001" width="80.0" height="18.0" fill="orange" stroke="#888"/>
<text x="414.25" y="52.50000000000001" font-size="small" text-anchor="middle" font-weight="bold" fill="#111">
MJIT3.0
</text>
<rect x="585.7499999999999" y="36.00000000000001" width="80.0" height="18.0" fill="green" stroke="#888"/>
<text x="625.7499999999999" y="52.50000000000001" font-size="small" text-anchor="middle" font-weight="bold" fill="#111">
MJIT3.1
</text>
<rect x="797.2499999999999" y="36.00000000000001" width="80.0" height="18.0" fill="#4F3A7A" stroke="#888"/>
<text x="837.2499999999999" y="52.50000000000001" font-size="small" text-anchor="middle" font-weight="bold" fill="#111">
YJIT
</text>
<rect x="97.0" y="452.89064601092105" width="7.356521739130435" height="45.10935398907886" fill="#7070f8" data-tooltip="1.00x No-JIT time (No JIT)"/>
<line x1="97.0" y1="452.4408746423871" x2="104.35652173913043" y2="452.4408746423871" stroke="#000"/>
<line x1="97.0" y1="453.34041737945495" x2="104.35652173913043" y2="453.34041737945495" stroke="#000"/>
<line x1="100.67826086956522" y1="452.4408746423871" x2="100.67826086956522" y2="453.34041737945495" stroke="#000"/>
<rect x="104.35652173913043" y="457.268403856453" width="7.356521739130435" height="40.731596143546994" fill="orange" data-tooltip="0.90x No-JIT time (MJIT3.0)"/>
<line x1="104.35652173913043" y1="456.8307832635048" x2="111.71304347826086" y2="456.8307832635048" stroke="#000"/>
<line x1="104.35652173913043" y1="457.7060244494012" x2="111.71304347826086" y2="457.7060244494012" stroke="#000"/>
<line x1="108.03478260869565" y1="456.8307832635048" x2="108.03478260869565" y2="457.7060244494012" stroke="#000"/>
<rect x="111.71304347826087" y="460.18217406924686" width="7.356521739130435" height="37.817825930753095" fill="green" data-tooltip="0.84x No-JIT time (MJIT3.1)"/>
<line x1="111.71304347826087" y1="458.43506327604223" x2="119.06956521739131" y2="458.43506327604223" stroke="#000"/>
<line x1="111.71304347826087" y1="461.9292848624514" x2="119.06956521739131" y2="461.9292848624514" stroke="#000"/>
<line x1="115.3913043478261" y1="458.43506327604223" x2="115.3913043478261" y2="461.9292848624514" stroke="#000"/>
<rect x="119.06956521739131" y="436.6081912591194" width="7.356521739130435" height="61.39180874088056" fill="#4F3A7A" data-tooltip="1.36x No-JIT time (YJIT)"/>
<line x1="119.06956521739131" y1="435.4921237649347" x2="126.42608695652174" y2="435.4921237649347" stroke="#000"/>
<line x1="119.06956521739131" y1="437.72425875330407" x2="126.42608695652174" y2="437.72425875330407" stroke="#000"/>
<line x1="122.74782608695654" y1="435.4921237649347" x2="122.74782608695654" y2="437.72425875330407" stroke="#000"/>
<line x1="115.3913043478261" y1="498.0" x2="115.3913043478261" y2="502.79999999999995" stroke="#000"/>
<text x="115.3913043478261" y="512.4" fill="#111" font-size="small" font-family="monospace" font-weight="bold" text-anchor="end" transform="rotate(-60, 115.3913043478261, 512.4)">
activerecord
</text>
<rect x="133.7826086956522" y="452.89064601092105" width="7.356521739130435" height="45.10935398907886" fill="#7070f8" data-tooltip="1.00x No-JIT time (No JIT)"/>
<line x1="133.7826086956522" y1="452.36291576250665" x2="141.1391304347826" y2="452.36291576250665" stroke="#000"/>
<line x1="133.7826086956522" y1="453.41837625933545" x2="141.1391304347826" y2="453.41837625933545" stroke="#000"/>
<line x1="137.4608695652174" y1="452.36291576250665" x2="137.4608695652174" y2="453.41837625933545" stroke="#000"/>
<rect x="141.1391304347826" y="448.7208508461388" width="7.356521739130435" height="49.27914915386116" fill="orange" data-tooltip="1.09x No-JIT time (MJIT3.0)"/>
<line x1="141.1391304347826" y1="448.083299752213" x2="148.49565217391302" y2="448.083299752213" stroke="#000"/>
<line x1="141.1391304347826" y1="449.3584019400645" x2="148.49565217391302" y2="449.3584019400645" stroke="#000"/>
<line x1="144.8173913043478" y1="448.083299752213" x2="144.8173913043478" y2="449.3584019400645" stroke="#000"/>
<rect x="155.8521739130435" y="438.31838516135343" width="7.356521739130435" height="59.681614838646496" fill="#4F3A7A" data-tooltip="1.32x No-JIT time (YJIT)"/>
<line x1="155.8521739130435" y1="437.3056411646588" x2="163.2086956521739" y2="437.3056411646588" stroke="#000"/>
<line x1="155.8521739130435" y1="439.33112915804804" x2="163.2086956521739" y2="439.33112915804804" stroke="#000"/>
<line x1="159.5304347826087" y1="437.3056411646588" x2="159.5304347826087" y2="439.33112915804804" stroke="#000"/>
<line x1="152.17391304347828" y1="498.0" x2="152.17391304347828" y2="502.79999999999995" stroke="#000"/>
<text x="152.17391304347828" y="512.4" fill="#111" font-size="small" font-family="monospace" font-weight="bold" text-anchor="end" transform="rotate(-60, 152.17391304347828, 512.4)">
hexapdf
</text>
<rect x="170.56521739130437" y="452.89064601092105" width="7.356521739130435" height="45.10935398907886" fill="#7070f8" data-tooltip="1.00x No-JIT time (No JIT)"/>
<line x1="170.56521739130437" y1="452.4772514961988" x2="177.9217391304348" y2="452.4772514961988" stroke="#000"/>
<line x1="170.56521739130437" y1="453.3040405256433" x2="177.9217391304348" y2="453.3040405256433" stroke="#000"/>
<line x1="174.24347826086958" y1="452.4772514961988" x2="174.24347826086958" y2="453.3040405256433" stroke="#000"/>
<rect x="177.9217391304348" y="450.1670789409903" width="7.356521739130435" height="47.83292105900968" fill="orange" data-tooltip="1.06x No-JIT time (MJIT3.0)"/>
<line x1="177.9217391304348" y1="448.8451028463674" x2="185.27826086956523" y2="448.8451028463674" stroke="#000"/>
<line x1="177.9217391304348" y1="451.4890550356132" x2="185.27826086956523" y2="451.4890550356132" stroke="#000"/>
<line x1="181.60000000000002" y1="448.8451028463674" x2="181.60000000000002" y2="451.4890550356132" stroke="#000"/>
<rect x="185.27826086956523" y="452.33311983145205" width="7.356521739130435" height="45.66688016854784" fill="green" data-tooltip="1.01x No-JIT time (MJIT3.1)"/>
<line x1="185.27826086956523" y1="450.54232343819996" x2="192.63478260869564" y2="450.54232343819996" stroke="#000"/>
<line x1="185.27826086956523" y1="454.12391622470415" x2="192.63478260869564" y2="454.12391622470415" stroke="#000"/>
<line x1="188.95652173913044" y1="450.54232343819996" x2="188.95652173913044" y2="454.12391622470415" stroke="#000"/>
<rect x="192.63478260869567" y="446.80014484909987" width="7.356521739130435" height="51.19985515090012" fill="#4F3A7A" data-tooltip="1.14x No-JIT time (YJIT)"/>
<line x1="192.63478260869567" y1="445.55404098022973" x2="199.99130434782612" y2="445.55404098022973" stroke="#000"/>
<line x1="192.63478260869567" y1="448.04624871797" x2="199.99130434782612" y2="448.04624871797" stroke="#000"/>
<line x1="196.3130434782609" y1="445.55404098022973" x2="196.3130434782609" y2="448.04624871797" stroke="#000"/>
<line x1="188.95652173913047" y1="498.0" x2="188.95652173913047" y2="502.79999999999995" stroke="#000"/>
<text x="188.95652173913047" y="512.4" fill="#111" font-size="small" font-family="monospace" font-weight="bold" text-anchor="end" transform="rotate(-60, 188.95652173913047, 512.4)">
jekyll
</text>
<rect x="207.34782608695653" y="452.89064601092105" width="7.356521739130435" height="45.10935398907886" fill="#7070f8" data-tooltip="1.00x No-JIT time (No JIT)"/>
<line x1="207.34782608695653" y1="452.3519627584209" x2="214.70434782608697" y2="452.3519627584209" stroke="#000"/>
<line x1="207.34782608695653" y1="453.4293292634212" x2="214.70434782608697" y2="453.4293292634212" stroke="#000"/>
<line x1="211.02608695652177" y1="452.3519627584209" x2="211.02608695652177" y2="453.4293292634212" stroke="#000"/>
<rect x="214.70434782608697" y="449.19914068205185" width="7.356521739130435" height="48.80085931794815" fill="orange" data-tooltip="1.08x No-JIT time (MJIT3.0)"/>
<line x1="214.70434782608697" y1="448.064797904569" x2="222.0608695652174" y2="448.064797904569" stroke="#000"/>
<line x1="214.70434782608697" y1="450.33348345953465" x2="222.0608695652174" y2="450.33348345953465" stroke="#000"/>
<line x1="218.38260869565218" y1="448.064797904569" x2="218.38260869565218" y2="450.33348345953465" stroke="#000"/>
<rect x="222.06086956521742" y="448.5614479973595" width="7.356521739130435" height="49.438552002640456" fill="green" data-tooltip="1.10x No-JIT time (MJIT3.1)"/>
<line x1="222.06086956521742" y1="446.6141073949524" x2="229.41739130434786" y2="446.6141073949524" stroke="#000"/>
<line x1="222.06086956521742" y1="450.5087885997666" x2="229.41739130434786" y2="450.5087885997666" stroke="#000"/>
<line x1="225.73913043478262" y1="446.6141073949524" x2="225.73913043478262" y2="450.5087885997666" stroke="#000"/>
<rect x="229.41739130434786" y="430.9752997788065" width="7.356521739130435" height="67.02470022119341" fill="#4F3A7A" data-tooltip="1.49x No-JIT time (YJIT)"/>
<line x1="229.41739130434786" y1="429.359439871848" x2="236.77391304347827" y2="429.359439871848" stroke="#000"/>
<line x1="229.41739130434786" y1="432.591159685765" x2="236.77391304347827" y2="432.591159685765" stroke="#000"/>
<line x1="233.09565217391307" y1="429.359439871848" x2="233.09565217391307" y2="432.591159685765" stroke="#000"/>
<line x1="225.73913043478262" y1="498.0" x2="225.73913043478262" y2="502.79999999999995" stroke="#000"/>
<text x="225.73913043478262" y="512.4" fill="#111" font-size="small" font-family="monospace" font-weight="bold" text-anchor="end" transform="rotate(-60, 225.73913043478262, 512.4)">
liquid-render
</text>
<rect x="244.13043478260872" y="452.89064601092105" width="7.356521739130435" height="45.10935398907886" fill="#7070f8" data-tooltip="1.00x No-JIT time (No JIT)"/>
<line x1="244.13043478260872" y1="452.70664886335646" x2="251.48695652173913" y2="452.70664886335646" stroke="#000"/>
<line x1="244.13043478260872" y1="453.0746431584856" x2="251.48695652173913" y2="453.0746431584856" stroke="#000"/>
<line x1="247.80869565217392" y1="452.70664886335646" x2="247.80869565217392" y2="453.0746431584856" stroke="#000"/>
<rect x="251.48695652173913" y="449.5704625764927" width="7.356521739130435" height="48.429537423507234" fill="orange" data-tooltip="1.07x No-JIT time (MJIT3.0)"/>
<line x1="251.48695652173913" y1="449.3290788624073" x2="258.8434782608696" y2="449.3290788624073" stroke="#000"/>
<line x1="251.48695652173913" y1="449.8118462905781" x2="258.8434782608696" y2="449.8118462905781" stroke="#000"/>
<line x1="255.16521739130437" y1="449.3290788624073" x2="255.16521739130437" y2="449.8118462905781" stroke="#000"/>
<rect x="258.8434782608696" y="452.7827716161051" width="7.356521739130435" height="45.217228383894856" fill="green" data-tooltip="1.00x No-JIT time (MJIT3.1)"/>
<line x1="258.8434782608696" y1="452.05215090835793" x2="266.2" y2="452.05215090835793" stroke="#000"/>
<line x1="258.8434782608696" y1="453.5133923238523" x2="266.2" y2="453.5133923238523" stroke="#000"/>
<line x1="262.5217391304348" y1="452.05215090835793" x2="262.5217391304348" y2="453.5133923238523" stroke="#000"/>
<rect x="266.2" y="447.57649458525435" width="7.356521739130435" height="50.42350541474569" fill="#4F3A7A" data-tooltip="1.12x No-JIT time (YJIT)"/>
<line x1="266.2" y1="447.31365251967395" x2="273.5565217391304" y2="447.31365251967395" stroke="#000"/>
<line x1="266.2" y1="447.8393366508347" x2="273.5565217391304" y2="447.8393366508347" stroke="#000"/>
<line x1="269.8782608695652" y1="447.31365251967395" x2="269.8782608695652" y2="447.8393366508347" stroke="#000"/>
<line x1="262.5217391304348" y1="498.0" x2="262.5217391304348" y2="502.79999999999995" stroke="#000"/>
<text x="262.5217391304348" y="512.4" fill="#111" font-size="small" font-family="monospace" font-weight="bold" text-anchor="end" transform="rotate(-60, 262.5217391304348, 512.4)">
mail
</text>
<rect x="280.9130434782609" y="452.89064601092105" width="7.356521739130435" height="45.10935398907886" fill="#7070f8" data-tooltip="1.00x No-JIT time (No JIT)"/>
<line x1="280.9130434782609" y1="452.8040903465144" x2="288.2695652173913" y2="452.8040903465144" stroke="#000"/>
<line x1="280.9130434782609" y1="452.9772016753277" x2="288.2695652173913" y2="452.9772016753277" stroke="#000"/>
<line x1="284.5913043478261" y1="452.8040903465144" x2="284.5913043478261" y2="452.9772016753277" stroke="#000"/>
<rect x="288.2695652173913" y="446.7054285918533" width="7.356521739130435" height="51.29457140814667" fill="orange" data-tooltip="1.14x No-JIT time (MJIT3.0)"/>
<line x1="288.2695652173913" y1="446.3863594524648" x2="295.6260869565217" y2="446.3863594524648" stroke="#000"/>
<line x1="288.2695652173913" y1="447.0244977312419" x2="295.6260869565217" y2="447.0244977312419" stroke="#000"/>
<line x1="291.9478260869565" y1="446.3863594524648" x2="291.9478260869565" y2="447.0244977312419" stroke="#000"/>
<rect x="295.6260869565217" y="445.2424090253204" width="7.356521739130435" height="52.75759097467946" fill="green" data-tooltip="1.17x No-JIT time (MJIT3.1)"/>
<line x1="295.6260869565217" y1="444.9648932539762" x2="302.9826086956521" y2="444.9648932539762" stroke="#000"/>
<line x1="295.6260869565217" y1="445.51992479666467" x2="302.9826086956521" y2="445.51992479666467" stroke="#000"/>
<line x1="299.30434782608694" y1="444.9648932539762" x2="299.30434782608694" y2="445.51992479666467" stroke="#000"/>
<rect x="302.9826086956521" y="439.5408181635531" width="7.356521739130435" height="58.45918183644675" fill="#4F3A7A" data-tooltip="1.30x No-JIT time (YJIT)"/>
<line x1="302.9826086956521" y1="439.3739797632848" x2="310.3391304347826" y2="439.3739797632848" stroke="#000"/>
<line x1="302.9826086956521" y1="439.70765656382144" x2="310.3391304347826" y2="439.70765656382144" stroke="#000"/>
<line x1="306.66086956521735" y1="439.3739797632848" x2="306.66086956521735" y2="439.70765656382144" stroke="#000"/>
<line x1="299.30434782608694" y1="498.0" x2="299.30434782608694" y2="502.79999999999995" stroke="#000"/>
<text x="299.30434782608694" y="512.4" fill="#111" font-size="small" font-family="monospace" font-weight="bold" text-anchor="end" transform="rotate(-60, 299.30434782608694, 512.4)">
psych-load
</text>
<rect x="317.69565217391306" y="452.89064601092105" width="7.356521739130435" height="45.10935398907886" fill="#7070f8" data-tooltip="1.00x No-JIT time (No JIT)"/>
<line x1="317.69565217391306" y1="452.4059689673587" x2="325.0521739130435" y2="452.4059689673587" stroke="#000"/>
<line x1="317.69565217391306" y1="453.3753230544834" x2="325.0521739130435" y2="453.3753230544834" stroke="#000"/>
<line x1="321.3739130434783" y1="452.4059689673587" x2="321.3739130434783" y2="453.3753230544834" stroke="#000"/>
<rect x="325.0521739130435" y="455.9467128902887" width="7.356521739130435" height="42.05328710971125" fill="orange" data-tooltip="0.93x No-JIT time (MJIT3.0)"/>
<line x1="325.0521739130435" y1="455.37443094750716" x2="332.4086956521739" y2="455.37443094750716" stroke="#000"/>
<line x1="325.0521739130435" y1="456.5189948330703" x2="332.4086956521739" y2="456.5189948330703" stroke="#000"/>
<line x1="328.7304347826087" y1="455.37443094750716" x2="328.7304347826087" y2="456.5189948330703" stroke="#000"/>
<rect x="332.4086956521739" y="458.48362582255834" width="7.356521739130435" height="39.516374177441676" fill="green" data-tooltip="0.88x No-JIT time (MJIT3.1)"/>
<line x1="332.4086956521739" y1="457.8208378219174" x2="339.7652173913043" y2="457.8208378219174" stroke="#000"/>
<line x1="332.4086956521739" y1="459.1464138231993" x2="339.7652173913043" y2="459.1464138231993" stroke="#000"/>
<line x1="336.0869565217391" y1="457.8208378219174" x2="336.0869565217391" y2="459.1464138231993" stroke="#000"/>
<rect x="339.7652173913043" y="440.6437793104113" width="7.356521739130435" height="57.356220689588646" fill="#4F3A7A" data-tooltip="1.27x No-JIT time (YJIT)"/>
<line x1="339.7652173913043" y1="439.61919772703794" x2="347.1217391304348" y2="439.61919772703794" stroke="#000"/>
<line x1="339.7652173913043" y1="441.66836089378455" x2="347.1217391304348" y2="441.66836089378455" stroke="#000"/>
<line x1="343.4434782608696" y1="439.61919772703794" x2="343.4434782608696" y2="441.66836089378455" stroke="#000"/>
<line x1="336.0869565217391" y1="498.0" x2="336.0869565217391" y2="502.79999999999995" stroke="#000"/>
<text x="336.0869565217391" y="512.4" fill="#111" font-size="small" font-family="monospace" font-weight="bold" text-anchor="end" transform="rotate(-60, 336.0869565217391, 512.4)">
railsbench
</text>
<rect x="354.47826086956525" y="452.89064601092105" width="7.356521739130435" height="45.10935398907886" fill="#7070f8" data-tooltip="1.00x No-JIT time (No JIT)"/>
<line x1="354.47826086956525" y1="451.96736352183535" x2="361.83478260869566" y2="451.96736352183535" stroke="#000"/>
<line x1="354.47826086956525" y1="453.81392850000674" x2="361.83478260869566" y2="453.81392850000674" stroke="#000"/>
<line x1="358.1565217391305" y1="451.96736352183535" x2="358.1565217391305" y2="453.81392850000674" stroke="#000"/>
<rect x="361.83478260869566" y="426.54510786048394" width="7.356521739130435" height="71.45489213951592" fill="orange" data-tooltip="1.58x No-JIT time (MJIT3.0)"/>
<line x1="361.83478260869566" y1="425.0753563579279" x2="369.1913043478261" y2="425.0753563579279" stroke="#000"/>
<line x1="361.83478260869566" y1="428.01485936304005" x2="369.1913043478261" y2="428.01485936304005" stroke="#000"/>
<line x1="365.5130434782609" y1="425.0753563579279" x2="365.5130434782609" y2="428.01485936304005" stroke="#000"/>
<rect x="369.1913043478261" y="428.95375212871824" width="7.356521739130435" height="69.04624787128164" fill="green" data-tooltip="1.53x No-JIT time (MJIT3.1)"/>
<line x1="369.1913043478261" y1="427.53807002269775" x2="376.54782608695655" y2="427.53807002269775" stroke="#000"/>
<line x1="369.1913043478261" y1="430.3694342347387" x2="376.54782608695655" y2="430.3694342347387" stroke="#000"/>
<line x1="372.86956521739137" y1="427.53807002269775" x2="372.86956521739137" y2="430.3694342347387" stroke="#000"/>
<rect x="376.54782608695655" y="439.78117885613756" width="7.356521739130435" height="58.21882114386235" fill="#4F3A7A" data-tooltip="1.29x No-JIT time (YJIT)"/>
<line x1="376.54782608695655" y1="438.5879445857856" x2="383.90434782608696" y2="438.5879445857856" stroke="#000"/>
<line x1="376.54782608695655" y1="440.9744131264896" x2="383.90434782608696" y2="440.9744131264896" stroke="#000"/>
<line x1="380.2260869565218" y1="438.5879445857856" x2="380.2260869565218" y2="440.9744131264896" stroke="#000"/>
<line x1="372.86956521739137" y1="498.0" x2="372.86956521739137" y2="502.79999999999995" stroke="#000"/>
<text x="372.86956521739137" y="512.4" fill="#111" font-size="small" font-family="monospace" font-weight="bold" text-anchor="end" transform="rotate(-60, 372.86956521739137, 512.4)">
binarytrees
</text>
<rect x="391.26086956521743" y="452.89064601092105" width="7.356521739130435" height="45.10935398907886" fill="#7070f8" data-tooltip="1.00x No-JIT time (No JIT)"/>
<line x1="391.26086956521743" y1="452.5303544244271" x2="398.61739130434785" y2="452.5303544244271" stroke="#000"/>
<line x1="391.26086956521743" y1="453.250937597415" x2="398.61739130434785" y2="453.250937597415" stroke="#000"/>
<line x1="394.93913043478267" y1="452.5303544244271" x2="394.93913043478267" y2="453.250937597415" stroke="#000"/>
<rect x="398.61739130434785" y="451.3806401579625" width="7.356521739130435" height="46.61935984203748" fill="orange" data-tooltip="1.03x No-JIT time (MJIT3.0)"/>
<line x1="398.61739130434785" y1="450.7927530544083" x2="405.9739130434783" y2="450.7927530544083" stroke="#000"/>
<line x1="398.61739130434785" y1="451.96852726151667" x2="405.9739130434783" y2="451.96852726151667" stroke="#000"/>
<line x1="402.2956521739131" y1="450.7927530544083" x2="402.2956521739131" y2="451.96852726151667" stroke="#000"/>
<rect x="405.9739130434783" y="449.6950744361254" width="7.356521739130435" height="48.3049255638745" fill="green" data-tooltip="1.07x No-JIT time (MJIT3.1)"/>
<line x1="405.9739130434783" y1="449.24335023430706" x2="413.33043478260873" y2="449.24335023430706" stroke="#000"/>
<line x1="405.9739130434783" y1="450.14679863794373" x2="413.33043478260873" y2="450.14679863794373" stroke="#000"/>
<line x1="409.65217391304355" y1="449.24335023430706" x2="409.65217391304355" y2="450.14679863794373" stroke="#000"/>
<rect x="413.33043478260873" y="452.04157164742014" width="7.356521739130435" height="45.95842835257988" fill="#4F3A7A" data-tooltip="1.02x No-JIT time (YJIT)"/>
<line x1="413.33043478260873" y1="451.57051199021305" x2="420.68695652173915" y2="451.57051199021305" stroke="#000"/>
<line x1="413.33043478260873" y1="452.5126313046272" x2="420.68695652173915" y2="452.5126313046272" stroke="#000"/>
<line x1="417.00869565217397" y1="451.57051199021305" x2="417.00869565217397" y2="452.5126313046272" stroke="#000"/>
<line x1="409.65217391304355" y1="498.0" x2="409.65217391304355" y2="502.79999999999995" stroke="#000"/>
<text x="409.65217391304355" y="512.4" fill="#111" font-size="small" font-family="monospace" font-weight="bold" text-anchor="end" transform="rotate(-60, 409.65217391304355, 512.4)">
erubi
</text>
<rect x="428.0434782608696" y="452.89064601092105" width="7.356521739130435" height="45.10935398907886" fill="#7070f8" data-tooltip="1.00x No-JIT time (No JIT)"/>
<line x1="428.0434782608696" y1="448.01627780810054" x2="435.4000000000001" y2="448.01627780810054" stroke="#000"/>
<line x1="428.0434782608696" y1="457.76501421374155" x2="435.4000000000001" y2="457.76501421374155" stroke="#000"/>
<line x1="431.72173913043486" y1="448.01627780810054" x2="431.72173913043486" y2="457.76501421374155" stroke="#000"/>
<rect x="435.4000000000001" y="462.52534787169515" width="7.356521739130435" height="35.47465212830475" fill="orange" data-tooltip="0.79x No-JIT time (MJIT3.0)"/>
<line x1="435.4000000000001" y1="457.7976569384838" x2="442.7565217391305" y2="457.7976569384838" stroke="#000"/>
<line x1="435.4000000000001" y1="467.25303880490657" x2="442.7565217391305" y2="467.25303880490657" stroke="#000"/>
<line x1="439.0782608695653" y1="457.7976569384838" x2="439.0782608695653" y2="467.25303880490657" stroke="#000"/>
<rect x="442.7565217391305" y="458.10113842758307" width="7.356521739130435" height="39.898861572416834" fill="green" data-tooltip="0.88x No-JIT time (MJIT3.1)"/>
<line x1="442.7565217391305" y1="452.193288570759" x2="450.1130434782609" y2="452.193288570759" stroke="#000"/>
<line x1="442.7565217391305" y1="464.0089882844071" x2="450.1130434782609" y2="464.0089882844071" stroke="#000"/>
<line x1="446.43478260869574" y1="452.193288570759" x2="446.43478260869574" y2="464.0089882844071" stroke="#000"/>
<rect x="450.1130434782609" y="444.07738393222024" width="7.356521739130435" height="53.92261606777972" fill="#4F3A7A" data-tooltip="1.20x No-JIT time (YJIT)"/>
<line x1="450.1130434782609" y1="437.87928058935745" x2="457.46956521739133" y2="437.87928058935745" stroke="#000"/>
<line x1="450.1130434782609" y1="450.27548727508304" x2="457.46956521739133" y2="450.27548727508304" stroke="#000"/>
<line x1="453.79130434782616" y1="437.87928058935745" x2="453.79130434782616" y2="450.27548727508304" stroke="#000"/>
<line x1="446.43478260869574" y1="498.0" x2="446.43478260869574" y2="502.79999999999995" stroke="#000"/>
<text x="446.43478260869574" y="512.4" fill="#111" font-size="small" font-family="monospace" font-weight="bold" text-anchor="end" transform="rotate(-60, 446.43478260869574, 512.4)">
erubi_rails
</text>
<rect x="464.82608695652175" y="452.89064601092105" width="7.356521739130435" height="45.10935398907886" fill="#7070f8" data-tooltip="1.00x No-JIT time (No JIT)"/>
<line x1="464.82608695652175" y1="452.6884746061781" x2="472.18260869565216" y2="452.6884746061781" stroke="#000"/>
<line x1="464.82608695652175" y1="453.09281741566394" x2="472.18260869565216" y2="453.09281741566394" stroke="#000"/>
<line x1="468.504347826087" y1="452.6884746061781" x2="468.504347826087" y2="453.09281741566394" stroke="#000"/>
<rect x="472.18260869565216" y="436.4173459311123" width="7.356521739130435" height="61.58265406888762" fill="orange" data-tooltip="1.37x No-JIT time (MJIT3.0)"/>
<line x1="472.18260869565216" y1="436.1362873746061" x2="479.5391304347826" y2="436.1362873746061" stroke="#000"/>
<line x1="472.18260869565216" y1="436.69840448761846" x2="479.5391304347826" y2="436.69840448761846" stroke="#000"/>
<line x1="475.8608695652174" y1="436.1362873746061" x2="475.8608695652174" y2="436.69840448761846" stroke="#000"/>
<rect x="479.5391304347826" y="452.87699243175126" width="7.356521739130435" height="45.12300756824863" fill="green" data-tooltip="1.00x No-JIT time (MJIT3.1)"/>
<line x1="479.5391304347826" y1="452.6731187732056" x2="486.895652173913" y2="452.6731187732056" stroke="#000"/>
<line x1="479.5391304347826" y1="453.08086609029687" x2="486.895652173913" y2="453.08086609029687" stroke="#000"/>
<line x1="483.2173913043478" y1="452.6731187732056" x2="483.2173913043478" y2="453.08086609029687" stroke="#000"/>
<rect x="486.895652173913" y="454.187599936228" width="7.356521739130435" height="43.81240006377187" fill="#4F3A7A" data-tooltip="0.97x No-JIT time (YJIT)"/>
<line x1="486.895652173913" y1="453.9887747677103" x2="494.2521739130434" y2="453.9887747677103" stroke="#000"/>
<line x1="486.895652173913" y1="454.3864251047457" x2="494.2521739130434" y2="454.3864251047457" stroke="#000"/>
<line x1="490.5739130434782" y1="453.9887747677103" x2="490.5739130434782" y2="454.3864251047457" stroke="#000"/>
<line x1="483.2173913043478" y1="498.0" x2="483.2173913043478" y2="502.79999999999995" stroke="#000"/>
<text x="483.2173913043478" y="512.4" fill="#111" font-size="small" font-family="monospace" font-weight="bold" text-anchor="end" transform="rotate(-60, 483.2173913043478, 512.4)">
fannkuchredux
</text>
<rect x="501.60869565217394" y="452.89064601092105" width="7.356521739130435" height="45.10935398907886" fill="#7070f8" data-tooltip="1.00x No-JIT time (No JIT)"/>
<line x1="501.60869565217394" y1="452.40767068886" x2="508.9652173913044" y2="452.40767068886" stroke="#000"/>
<line x1="501.60869565217394" y1="453.3736213329821" x2="508.9652173913044" y2="453.3736213329821" stroke="#000"/>
<line x1="505.28695652173917" y1="452.40767068886" x2="505.28695652173917" y2="453.3736213329821" stroke="#000"/>
<rect x="508.9652173913044" y="448.64761023058065" width="7.356521739130435" height="49.352389769419304" fill="orange" data-tooltip="1.09x No-JIT time (MJIT3.0)"/>
<line x1="508.9652173913044" y1="447.79844345804" x2="516.3217391304349" y2="447.79844345804" stroke="#000"/>
<line x1="508.9652173913044" y1="449.4967770031213" x2="516.3217391304349" y2="449.4967770031213" stroke="#000"/>
<line x1="512.6434782608696" y1="447.79844345804" x2="512.6434782608696" y2="449.4967770031213" stroke="#000"/>
<rect x="516.3217391304348" y="442.94741180397403" width="7.356521739130435" height="55.052588196025894" fill="green" data-tooltip="1.22x No-JIT time (MJIT3.1)"/>
<line x1="516.3217391304348" y1="442.04737314663305" x2="523.6782608695653" y2="442.04737314663305" stroke="#000"/>
<line x1="516.3217391304348" y1="443.84745046131496" x2="523.6782608695653" y2="443.84745046131496" stroke="#000"/>
<line x1="520.0" y1="442.04737314663305" x2="520.0" y2="443.84745046131496" stroke="#000"/>
<rect x="523.6782608695653" y="435.40193424658213" width="7.356521739130435" height="62.59806575341778" fill="#4F3A7A" data-tooltip="1.39x No-JIT time (YJIT)"/>
<line x1="523.6782608695653" y1="434.30007062818515" x2="531.0347826086958" y2="434.30007062818515" stroke="#000"/>
<line x1="523.6782608695653" y1="436.50379786497905" x2="531.0347826086958" y2="436.50379786497905" stroke="#000"/>
<line x1="527.3565217391305" y1="434.30007062818515" x2="527.3565217391305" y2="436.50379786497905" stroke="#000"/>
<line x1="520.0" y1="498.0" x2="520.0" y2="502.79999999999995" stroke="#000"/>
<text x="520.0" y="512.4" fill="#111" font-size="small" font-family="monospace" font-weight="bold" text-anchor="end" transform="rotate(-60, 520.0, 512.4)">
lee
</text>
<rect x="538.3913043478261" y="452.89064601092105" width="7.356521739130435" height="45.10935398907886" fill="#7070f8" data-tooltip="1.00x No-JIT time (No JIT)"/>
<line x1="538.3913043478261" y1="452.6741095894766" x2="545.7478260869566" y2="452.6741095894766" stroke="#000"/>
<line x1="538.3913043478261" y1="453.1071824323655" x2="545.7478260869566" y2="453.1071824323655" stroke="#000"/>
<line x1="542.0695652173914" y1="452.6741095894766" x2="542.0695652173914" y2="453.1071824323655" stroke="#000"/>
<rect x="545.7478260869566" y="421.7565401416813" width="7.356521739130435" height="76.2434598583186" fill="orange" data-tooltip="1.69x No-JIT time (MJIT3.0)"/>
<line x1="545.7478260869566" y1="421.1858746879588" x2="553.1043478260871" y2="421.1858746879588" stroke="#000"/>
<line x1="545.7478260869566" y1="422.3272055954037" x2="553.1043478260871" y2="422.3272055954037" stroke="#000"/>
<line x1="549.4260869565219" y1="421.1858746879588" x2="549.4260869565219" y2="422.3272055954037" stroke="#000"/>
<rect x="553.104347826087" y="418.80011372074557" width="7.356521739130435" height="79.19988627925439" fill="green" data-tooltip="1.76x No-JIT time (MJIT3.1)"/>
<line x1="553.104347826087" y1="418.41740974606034" x2="560.4608695652174" y2="418.41740974606034" stroke="#000"/>
<line x1="553.104347826087" y1="419.18281769543086" x2="560.4608695652174" y2="419.18281769543086" stroke="#000"/>
<line x1="556.7826086956522" y1="418.41740974606034" x2="556.7826086956522" y2="419.18281769543086" stroke="#000"/>
<rect x="560.4608695652174" y="434.47649638035597" width="7.356521739130435" height="63.523503619643954" fill="#4F3A7A" data-tooltip="1.41x No-JIT time (YJIT)"/>
<line x1="560.4608695652174" y1="434.169662230122" x2="567.8173913043479" y2="434.169662230122" stroke="#000"/>
<line x1="560.4608695652174" y1="434.7833305305899" x2="567.8173913043479" y2="434.7833305305899" stroke="#000"/>
<line x1="564.1391304347827" y1="434.169662230122" x2="564.1391304347827" y2="434.7833305305899" stroke="#000"/>
<line x1="556.7826086956522" y1="498.0" x2="556.7826086956522" y2="502.79999999999995" stroke="#000"/>
<text x="556.7826086956522" y="512.4" fill="#111" font-size="small" font-family="monospace" font-weight="bold" text-anchor="end" transform="rotate(-60, 556.7826086956522, 512.4)">
nbody
</text>
<rect x="575.1739130434784" y="452.89064601092105" width="7.356521739130435" height="45.10935398907886" fill="#7070f8" data-tooltip="1.00x No-JIT time (No JIT)"/>
<line x1="575.1739130434784" y1="452.6946390062357" x2="582.5304347826088" y2="452.6946390062357" stroke="#000"/>
<line x1="575.1739130434784" y1="453.0866530156064" x2="582.5304347826088" y2="453.0866530156064" stroke="#000"/>
<line x1="578.8521739130435" y1="452.6946390062357" x2="578.8521739130435" y2="453.0866530156064" stroke="#000"/>
<rect x="582.5304347826088" y="392.64683387761374" width="7.356521739130435" height="105.35316612238624" fill="orange" data-tooltip="2.34x No-JIT time (MJIT3.0)"/>
<line x1="582.5304347826088" y1="391.857808070717" x2="589.8869565217393" y2="391.857808070717" stroke="#000"/>
<line x1="582.5304347826088" y1="393.43585968451043" x2="589.8869565217393" y2="393.43585968451043" stroke="#000"/>
<line x1="586.208695652174" y1="391.857808070717" x2="586.208695652174" y2="393.43585968451043" stroke="#000"/>
<rect x="589.8869565217392" y="388.3880462906261" width="7.356521739130435" height="109.61195370937382" fill="green" data-tooltip="2.43x No-JIT time (MJIT3.1)"/>
<line x1="589.8869565217392" y1="387.54959216544796" x2="597.2434782608697" y2="387.54959216544796" stroke="#000"/>
<line x1="589.8869565217392" y1="389.22650041580425" x2="597.2434782608697" y2="389.22650041580425" stroke="#000"/>
<line x1="593.5652173913044" y1="387.54959216544796" x2="593.5652173913044" y2="389.22650041580425" stroke="#000"/>
<rect x="597.2434782608697" y="424.3713355353373" width="7.356521739130435" height="73.62866446466259" fill="#4F3A7A" data-tooltip="1.63x No-JIT time (YJIT)"/>
<line x1="597.2434782608697" y1="423.8674918003763" x2="604.6000000000001" y2="423.8674918003763" stroke="#000"/>
<line x1="597.2434782608697" y1="424.8751792702984" x2="604.6000000000001" y2="424.8751792702984" stroke="#000"/>
<line x1="600.9217391304348" y1="423.8674918003763" x2="600.9217391304348" y2="424.8751792702984" stroke="#000"/>
<line x1="593.5652173913044" y1="498.0" x2="593.5652173913044" y2="502.79999999999995" stroke="#000"/>
<text x="593.5652173913044" y="512.4" fill="#111" font-size="small" font-family="monospace" font-weight="bold" text-anchor="end" transform="rotate(-60, 593.5652173913044, 512.4)">
optcarrot
</text>
<rect x="611.9565217391304" y="452.89064601092105" width="7.356521739130435" height="45.10935398907886" fill="#7070f8" data-tooltip="1.00x No-JIT time (No JIT)"/>
<line x1="611.9565217391304" y1="452.67761348082183" x2="619.3130434782609" y2="452.67761348082183" stroke="#000"/>
<line x1="611.9565217391304" y1="453.10367854102026" x2="619.3130434782609" y2="453.10367854102026" stroke="#000"/>
<line x1="615.6347826086957" y1="452.67761348082183" x2="615.6347826086957" y2="453.10367854102026" stroke="#000"/>
<rect x="619.3130434782609" y="423.0020846662956" width="7.356521739130435" height="74.99791533370438" fill="orange" data-tooltip="1.66x No-JIT time (MJIT3.0)"/>
<line x1="619.3130434782609" y1="422.4674121125892" x2="626.6695652173913" y2="422.4674121125892" stroke="#000"/>
<line x1="619.3130434782609" y1="423.5367572200021" x2="626.6695652173913" y2="423.5367572200021" stroke="#000"/>
<line x1="622.9913043478261" y1="422.4674121125892" x2="622.9913043478261" y2="423.5367572200021" stroke="#000"/>
<rect x="626.6695652173912" y="431.06706607815084" width="7.356521739130435" height="66.93293392184911" fill="green" data-tooltip="1.48x No-JIT time (MJIT3.1)"/>
<line x1="626.6695652173912" y1="430.5543500190365" x2="634.0260869565218" y2="430.5543500190365" stroke="#000"/>
<line x1="626.6695652173912" y1="431.5797821372651" x2="634.0260869565218" y2="431.5797821372651" stroke="#000"/>
<line x1="630.3478260869565" y1="430.5543500190365" x2="630.3478260869565" y2="431.5797821372651" stroke="#000"/>
<rect x="634.0260869565218" y="413.62175873167473" width="7.356521739130435" height="84.37824126832527" fill="#4F3A7A" data-tooltip="1.87x No-JIT time (YJIT)"/>
<line x1="634.0260869565218" y1="412.83117742217087" x2="641.3826086956523" y2="412.83117742217087" stroke="#000"/>
<line x1="634.0260869565218" y1="414.41234004117854" x2="641.3826086956523" y2="414.41234004117854" stroke="#000"/>
<line x1="637.704347826087" y1="412.83117742217087" x2="637.704347826087" y2="414.41234004117854" stroke="#000"/>
<line x1="630.3478260869565" y1="498.0" x2="630.3478260869565" y2="502.79999999999995" stroke="#000"/>
<text x="630.3478260869565" y="512.4" fill="#111" font-size="small" font-family="monospace" font-weight="bold" text-anchor="end" transform="rotate(-60, 630.3478260869565, 512.4)">
rubykon
</text>
<rect x="648.7391304347826" y="452.89064601092105" width="7.356521739130435" height="45.10935398907886" fill="#7070f8" data-tooltip="1.00x No-JIT time (No JIT)"/>
<line x1="648.7391304347826" y1="452.8011155114096" x2="656.0956521739131" y2="452.8011155114096" stroke="#000"/>
<line x1="648.7391304347826" y1="452.9801765104325" x2="656.0956521739131" y2="452.9801765104325" stroke="#000"/>
<line x1="652.4173913043478" y1="452.8011155114096" x2="652.4173913043478" y2="452.9801765104325" stroke="#000"/>
<rect x="656.0956521739131" y="451.2419033013889" width="7.356521739130435" height="46.7580966986111" fill="orange" data-tooltip="1.04x No-JIT time (MJIT3.0)"/>
<line x1="656.0956521739131" y1="451.0970957872873" x2="663.4521739130436" y2="451.0970957872873" stroke="#000"/>
<line x1="656.0956521739131" y1="451.38671081549046" x2="663.4521739130436" y2="451.38671081549046" stroke="#000"/>
<line x1="659.7739130434783" y1="451.0970957872873" x2="659.7739130434783" y2="451.38671081549046" stroke="#000"/>
<rect x="663.4521739130435" y="470.45391863394184" width="7.356521739130435" height="27.546081366058115" fill="green" data-tooltip="0.61x No-JIT time (MJIT3.1)"/>
<line x1="663.4521739130435" y1="468.8757671271095" x2="670.8086956521739" y2="468.8757671271095" stroke="#000"/>
<line x1="663.4521739130435" y1="472.0320701407741" x2="670.8086956521739" y2="472.0320701407741" stroke="#000"/>
<line x1="667.1304347826087" y1="468.8757671271095" x2="667.1304347826087" y2="472.0320701407741" stroke="#000"/>
<rect x="670.8086956521739" y="178.78709631194292" width="7.356521739130435" height="319.212903688057" fill="#4F3A7A" data-tooltip="7.08x No-JIT time (YJIT)"/>
<line x1="670.8086956521739" y1="178.11923821156427" x2="678.1652173913044" y2="178.11923821156427" stroke="#000"/>
<line x1="670.8086956521739" y1="179.4549544123216" x2="678.1652173913044" y2="179.4549544123216" stroke="#000"/>
<line x1="674.4869565217392" y1="178.11923821156427" x2="674.4869565217392" y2="179.4549544123216" stroke="#000"/>
<line x1="667.1304347826087" y1="498.0" x2="667.1304347826087" y2="502.79999999999995" stroke="#000"/>
<text x="667.1304347826087" y="512.4" fill="#111" font-size="small" font-family="monospace" font-weight="bold" text-anchor="end" transform="rotate(-60, 667.1304347826087, 512.4)">
30k_ifelse
</text>
<rect x="685.5217391304348" y="452.89064601092105" width="7.356521739130435" height="45.10935398907886" fill="#7070f8" data-tooltip="1.00x No-JIT time (No JIT)"/>
<line x1="685.5217391304348" y1="452.86412440823347" x2="692.8782608695652" y2="452.86412440823347" stroke="#000"/>
<line x1="685.5217391304348" y1="452.91716761360857" x2="692.8782608695652" y2="452.91716761360857" stroke="#000"/>
<line x1="689.2" y1="452.86412440823347" x2="689.2" y2="452.91716761360857" stroke="#000"/>
<rect x="692.8782608695652" y="449.6577424105022" width="7.356521739130435" height="48.342257589497805" fill="orange" data-tooltip="1.07x No-JIT time (MJIT3.0)"/>
<line x1="692.8782608695652" y1="449.4753164666408" x2="700.2347826086958" y2="449.4753164666408" stroke="#000"/>
<line x1="692.8782608695652" y1="449.8401683543635" x2="700.2347826086958" y2="449.8401683543635" stroke="#000"/>
<line x1="696.5565217391305" y1="449.4753164666408" x2="696.5565217391305" y2="449.8401683543635" stroke="#000"/>
<rect x="700.2347826086957" y="455.0254058939631" width="7.356521739130435" height="42.974594106036776" fill="green" data-tooltip="0.95x No-JIT time (MJIT3.1)"/>
<line x1="700.2347826086957" y1="454.9895680543583" x2="707.5913043478262" y2="454.9895680543583" stroke="#000"/>
<line x1="700.2347826086957" y1="455.0612437335679" x2="707.5913043478262" y2="455.0612437335679" stroke="#000"/>
<line x1="703.9130434782609" y1="454.9895680543583" x2="703.9130434782609" y2="455.0612437335679" stroke="#000"/>
<rect x="707.5913043478262" y="100.19999999999999" width="7.356521739130435" height="397.79999999999995" fill="#4F3A7A" data-tooltip="8.82x No-JIT time (YJIT)"/>
<line x1="707.5913043478262" y1="99.95067679565118" x2="714.9478260869566" y2="99.95067679565118" stroke="#000"/>
<line x1="707.5913043478262" y1="100.4493232043488" x2="714.9478260869566" y2="100.4493232043488" stroke="#000"/>
<line x1="711.2695652173913" y1="99.95067679565118" x2="711.2695652173913" y2="100.4493232043488" stroke="#000"/>
<line x1="703.9130434782609" y1="498.0" x2="703.9130434782609" y2="502.79999999999995" stroke="#000"/>
<text x="703.9130434782609" y="512.4" fill="#111" font-size="small" font-family="monospace" font-weight="bold" text-anchor="end" transform="rotate(-60, 703.9130434782609, 512.4)">
30k_methods
</text>
<rect x="722.304347826087" y="452.89064601092105" width="7.356521739130435" height="45.10935398907886" fill="#7070f8" data-tooltip="1.00x No-JIT time (No JIT)"/>
<line x1="722.304347826087" y1="452.8208358455124" x2="729.6608695652175" y2="452.8208358455124" stroke="#000"/>
<line x1="722.304347826087" y1="452.96045617632967" x2="729.6608695652175" y2="452.96045617632967" stroke="#000"/>
<line x1="725.9826086956523" y1="452.8208358455124" x2="725.9826086956523" y2="452.96045617632967" stroke="#000"/>
<rect x="729.6608695652175" y="429.82522018255764" width="7.356521739130435" height="68.17477981744231" fill="orange" data-tooltip="1.51x No-JIT time (MJIT3.0)"/>
<line x1="729.6608695652175" y1="429.70128639910337" x2="737.0173913043479" y2="429.70128639910337" stroke="#000"/>
<line x1="729.6608695652175" y1="429.9491539660119" x2="737.0173913043479" y2="429.9491539660119" stroke="#000"/>
<line x1="733.3391304347828" y1="429.70128639910337" x2="733.3391304347828" y2="429.9491539660119" stroke="#000"/>
<rect x="737.0173913043478" y="437.1958981172322" width="7.356521739130435" height="60.80410188276774" fill="green" data-tooltip="1.35x No-JIT time (MJIT3.1)"/>
<line x1="737.0173913043478" y1="437.0045183300783" x2="744.3739130434783" y2="437.0045183300783" stroke="#000"/>
<line x1="737.0173913043478" y1="437.38727790438617" x2="744.3739130434783" y2="437.38727790438617" stroke="#000"/>
<line x1="740.6956521739131" y1="437.0045183300783" x2="740.6956521739131" y2="437.38727790438617" stroke="#000"/>
<rect x="744.3739130434783" y="401.5333944215447" width="7.356521739130435" height="96.46660557845526" fill="#4F3A7A" data-tooltip="2.14x No-JIT time (YJIT)"/>
<line x1="744.3739130434783" y1="401.2058089026412" x2="751.7304347826088" y2="401.2058089026412" stroke="#000"/>
<line x1="744.3739130434783" y1="401.8609799404482" x2="751.7304347826088" y2="401.8609799404482" stroke="#000"/>
<line x1="748.0521739130436" y1="401.2058089026412" x2="748.0521739130436" y2="401.8609799404482" stroke="#000"/>
<line x1="740.6956521739131" y1="498.0" x2="740.6956521739131" y2="502.79999999999995" stroke="#000"/>
<text x="740.6956521739131" y="512.4" fill="#111" font-size="small" font-family="monospace" font-weight="bold" text-anchor="end" transform="rotate(-60, 740.6956521739131, 512.4)">
cfunc_itself
</text>
<rect x="759.0869565217392" y="452.89064601092105" width="7.356521739130435" height="45.10935398907886" fill="#7070f8" data-tooltip="1.00x No-JIT time (No JIT)"/>
<line x1="759.0869565217392" y1="452.87060602214615" x2="766.4434782608697" y2="452.87060602214615" stroke="#000"/>
<line x1="759.0869565217392" y1="452.91068599969594" x2="766.4434782608697" y2="452.91068599969594" stroke="#000"/>
<line x1="762.7652173913044" y1="452.87060602214615" x2="762.7652173913044" y2="452.91068599969594" stroke="#000"/>
<rect x="766.4434782608697" y="346.0698458914456" width="7.356521739130435" height="151.93015410855438" fill="orange" data-tooltip="3.37x No-JIT time (MJIT3.0)"/>
<line x1="766.4434782608697" y1="345.98583076008305" x2="773.8000000000002" y2="345.98583076008305" stroke="#000"/>
<line x1="766.4434782608697" y1="346.1538610228082" x2="773.8000000000002" y2="346.1538610228082" stroke="#000"/>
<line x1="770.1217391304349" y1="345.98583076008305" x2="770.1217391304349" y2="346.1538610228082" stroke="#000"/>
<rect x="773.8000000000001" y="359.84070821582657" width="7.356521739130435" height="138.15929178417335" fill="green" data-tooltip="3.06x No-JIT time (MJIT3.1)"/>
<line x1="773.8000000000001" y1="359.764804233023" x2="781.1565217391305" y2="359.764804233023" stroke="#000"/>
<line x1="773.8000000000001" y1="359.91661219863016" x2="781.1565217391305" y2="359.91661219863016" stroke="#000"/>
<line x1="777.4782608695652" y1="359.764804233023" x2="777.4782608695652" y2="359.91661219863016" stroke="#000"/>
<rect x="781.1565217391305" y="323.22629476244566" width="7.356521739130435" height="174.77370523755428" fill="#4F3A7A" data-tooltip="3.87x No-JIT time (YJIT)"/>
<line x1="781.1565217391305" y1="323.0709228787847" x2="788.513043478261" y2="323.0709228787847" stroke="#000"/>
<line x1="781.1565217391305" y1="323.3816666461066" x2="788.513043478261" y2="323.3816666461066" stroke="#000"/>
<line x1="784.8347826086957" y1="323.0709228787847" x2="784.8347826086957" y2="323.3816666461066" stroke="#000"/>
<line x1="777.4782608695652" y1="498.0" x2="777.4782608695652" y2="502.79999999999995" stroke="#000"/>
<text x="777.4782608695652" y="512.4" fill="#111" font-size="small" font-family="monospace" font-weight="bold" text-anchor="end" transform="rotate(-60, 777.4782608695652, 512.4)">
fib
</text>
<rect x="795.8695652173913" y="452.89064601092105" width="7.356521739130435" height="45.10935398907886" fill="#7070f8" data-tooltip="1.00x No-JIT time (No JIT)"/>
<line x1="795.8695652173913" y1="452.7896807038771" x2="803.2260869565217" y2="452.7896807038771" stroke="#000"/>
<line x1="795.8695652173913" y1="452.991611317965" x2="803.2260869565217" y2="452.991611317965" stroke="#000"/>
<line x1="799.5478260869565" y1="452.7896807038771" x2="799.5478260869565" y2="452.991611317965" stroke="#000"/>
<rect x="803.2260869565217" y="453.50055625277105" width="7.356521739130435" height="44.49944374722885" fill="orange" data-tooltip="0.99x No-JIT time (MJIT3.0)"/>
<line x1="803.2260869565217" y1="453.3527592463644" x2="810.5826086956522" y2="453.3527592463644" stroke="#000"/>
<line x1="803.2260869565217" y1="453.64835325917767" x2="810.5826086956522" y2="453.64835325917767" stroke="#000"/>
<line x1="806.904347826087" y1="453.3527592463644" x2="806.904347826087" y2="453.64835325917767" stroke="#000"/>
<rect x="810.5826086956521" y="453.10670669359695" width="7.356521739130435" height="44.89329330640307" fill="green" data-tooltip="1.00x No-JIT time (MJIT3.1)"/>
<line x1="810.5826086956521" y1="453.0017655372033" x2="817.9391304347827" y2="453.0017655372033" stroke="#000"/>
<line x1="810.5826086956521" y1="453.2116478499906" x2="817.9391304347827" y2="453.2116478499906" stroke="#000"/>
<line x1="814.2608695652174" y1="453.0017655372033" x2="814.2608695652174" y2="453.2116478499906" stroke="#000"/>
<rect x="817.9391304347827" y="384.34764388911134" width="7.356521739130435" height="113.65235611088865" fill="#4F3A7A" data-tooltip="2.52x No-JIT time (YJIT)"/>
<line x1="817.9391304347827" y1="384.09099210779897" x2="825.2956521739131" y2="384.09099210779897" stroke="#000"/>
<line x1="817.9391304347827" y1="384.60429567042365" x2="825.2956521739131" y2="384.60429567042365" stroke="#000"/>
<line x1="821.6173913043478" y1="384.09099210779897" x2="821.6173913043478" y2="384.60429567042365" stroke="#000"/>
<line x1="814.2608695652174" y1="498.0" x2="814.2608695652174" y2="502.79999999999995" stroke="#000"/>
<text x="814.2608695652174" y="512.4" fill="#111" font-size="small" font-family="monospace" font-weight="bold" text-anchor="end" transform="rotate(-60, 814.2608695652174, 512.4)">
getivar
</text>
<rect x="832.6521739130435" y="452.89064601092105" width="7.356521739130435" height="45.10935398907886" fill="#7070f8" data-tooltip="1.00x No-JIT time (No JIT)"/>
<line x1="832.6521739130435" y1="452.8674180127307" x2="840.008695652174" y2="452.8674180127307" stroke="#000"/>
<line x1="832.6521739130435" y1="452.9138740091114" x2="840.008695652174" y2="452.9138740091114" stroke="#000"/>
<line x1="836.3304347826087" y1="452.8674180127307" x2="836.3304347826087" y2="452.9138740091114" stroke="#000"/>
<rect x="840.008695652174" y="439.49850771526604" width="7.356521739130435" height="58.501492284733885" fill="orange" data-tooltip="1.30x No-JIT time (MJIT3.0)"/>
<line x1="840.008695652174" y1="439.43827466633445" x2="847.3652173913044" y2="439.43827466633445" stroke="#000"/>
<line x1="840.008695652174" y1="439.55874076419764" x2="847.3652173913044" y2="439.55874076419764" stroke="#000"/>
<line x1="843.6869565217391" y1="439.43827466633445" x2="843.6869565217391" y2="439.55874076419764" stroke="#000"/>
<rect x="847.3652173913043" y="440.8939305992529" width="7.356521739130435" height="57.10606940074712" fill="green" data-tooltip="1.27x No-JIT time (MJIT3.1)"/>
<line x1="847.3652173913043" y1="440.82155870675945" x2="854.7217391304348" y2="440.82155870675945" stroke="#000"/>
<line x1="847.3652173913043" y1="440.96630249174626" x2="854.7217391304348" y2="440.96630249174626" stroke="#000"/>
<line x1="851.0434782608696" y1="440.82155870675945" x2="851.0434782608696" y2="440.96630249174626" stroke="#000"/>
<rect x="854.7217391304348" y="262.39476247076095" width="7.356521739130435" height="235.60523752923896" fill="#4F3A7A" data-tooltip="5.22x No-JIT time (YJIT)"/>
<line x1="854.7217391304348" y1="261.9008732999832" x2="862.0782608695653" y2="261.9008732999832" stroke="#000"/>
<line x1="854.7217391304348" y1="262.88865164153873" x2="862.0782608695653" y2="262.88865164153873" stroke="#000"/>
<line x1="858.4000000000001" y1="261.9008732999832" x2="858.4000000000001" y2="262.88865164153873" stroke="#000"/>
<line x1="851.0434782608696" y1="498.0" x2="851.0434782608696" y2="502.79999999999995" stroke="#000"/>
<text x="851.0434782608696" y="512.4" fill="#111" font-size="small" font-family="monospace" font-weight="bold" text-anchor="end" transform="rotate(-60, 851.0434782608696, 512.4)">
keyword_args
</text>
<rect x="869.4347826086956" y="452.89064601092105" width="7.356521739130435" height="45.10935398907886" fill="#7070f8" data-tooltip="1.00x No-JIT time (No JIT)"/>
<line x1="869.4347826086956" y1="452.4735566898968" x2="876.7913043478261" y2="452.4735566898968" stroke="#000"/>
<line x1="869.4347826086956" y1="453.3077353319453" x2="876.7913043478261" y2="453.3077353319453" stroke="#000"/>
<line x1="873.1130434782609" y1="452.4735566898968" x2="873.1130434782609" y2="453.3077353319453" stroke="#000"/>
<rect x="876.7913043478261" y="445.5366033427562" width="7.356521739130435" height="52.46339665724379" fill="orange" data-tooltip="1.16x No-JIT time (MJIT3.0)"/>
<line x1="876.7913043478261" y1="444.9695415064147" x2="884.1478260869567" y2="444.9695415064147" stroke="#000"/>
<line x1="876.7913043478261" y1="446.10366517909773" x2="884.1478260869567" y2="446.10366517909773" stroke="#000"/>
<line x1="880.4695652173914" y1="444.9695415064147" x2="880.4695652173914" y2="446.10366517909773" stroke="#000"/>
<rect x="884.1478260869566" y="447.67800493962363" width="7.356521739130435" height="50.32199506037632" fill="green" data-tooltip="1.12x No-JIT time (MJIT3.1)"/>
<line x1="884.1478260869566" y1="447.1642050700996" x2="891.504347826087" y2="447.1642050700996" stroke="#000"/>
<line x1="884.1478260869566" y1="448.1918048091476" x2="891.504347826087" y2="448.1918048091476" stroke="#000"/>
<line x1="887.8260869565217" y1="447.1642050700996" x2="887.8260869565217" y2="448.1918048091476" stroke="#000"/>
<rect x="891.504347826087" y="430.9267530997566" width="7.356521739130435" height="67.07324690024333" fill="#4F3A7A" data-tooltip="1.49x No-JIT time (YJIT)"/>
<line x1="891.504347826087" y1="430.2917889389328" x2="898.8608695652175" y2="430.2917889389328" stroke="#000"/>
<line x1="891.504347826087" y1="431.5617172605803" x2="898.8608695652175" y2="431.5617172605803" stroke="#000"/>
<line x1="895.1826086956522" y1="430.2917889389328" x2="895.1826086956522" y2="431.5617172605803" stroke="#000"/>
<line x1="887.8260869565217" y1="498.0" x2="887.8260869565217" y2="502.79999999999995" stroke="#000"/>
<text x="887.8260869565217" y="512.4" fill="#111" font-size="small" font-family="monospace" font-weight="bold" text-anchor="end" transform="rotate(-60, 887.8260869565217, 512.4)">
respond_to
</text>
<rect x="906.2173913043479" y="452.89064601092105" width="7.356521739130435" height="45.10935398907886" fill="#7070f8" data-tooltip="1.00x No-JIT time (No JIT)"/>
<line x1="906.2173913043479" y1="452.5236744176803" x2="913.5739130434783" y2="452.5236744176803" stroke="#000"/>
<line x1="906.2173913043479" y1="453.2576176041618" x2="913.5739130434783" y2="453.2576176041618" stroke="#000"/>
<line x1="909.895652173913" y1="452.5236744176803" x2="909.895652173913" y2="453.2576176041618" stroke="#000"/>
<rect x="913.5739130434783" y="456.1532797576916" width="7.356521739130435" height="41.846720242308336" fill="orange" data-tooltip="0.93x No-JIT time (MJIT3.0)"/>
<line x1="913.5739130434783" y1="455.81065729049544" x2="920.9304347826088" y2="455.81065729049544" stroke="#000"/>
<line x1="913.5739130434783" y1="456.4959022248878" x2="920.9304347826088" y2="456.4959022248878" stroke="#000"/>
<line x1="917.2521739130436" y1="455.81065729049544" x2="917.2521739130436" y2="456.4959022248878" stroke="#000"/>
<rect x="920.9304347826087" y="453.1812948104072" width="7.356521739130435" height="44.81870518959274" fill="green" data-tooltip="0.99x No-JIT time (MJIT3.1)"/>
<line x1="920.9304347826087" y1="452.67321294988386" x2="928.2869565217392" y2="452.67321294988386" stroke="#000"/>
<line x1="920.9304347826087" y1="453.6893766709306" x2="928.2869565217392" y2="453.6893766709306" stroke="#000"/>
<line x1="924.608695652174" y1="452.67321294988386" x2="924.608695652174" y2="453.6893766709306" stroke="#000"/>
<rect x="928.2869565217392" y="429.99196148321903" width="7.356521739130435" height="68.00803851678096" fill="#4F3A7A" data-tooltip="1.51x No-JIT time (YJIT)"/>
<line x1="928.2869565217392" y1="429.40512686704557" x2="935.6434782608696" y2="429.40512686704557" stroke="#000"/>
<line x1="928.2869565217392" y1="430.57879609939255" x2="935.6434782608696" y2="430.57879609939255" stroke="#000"/>
<line x1="931.9652173913045" y1="429.40512686704557" x2="931.9652173913045" y2="430.57879609939255" stroke="#000"/>
<line x1="924.608695652174" y1="498.0" x2="924.608695652174" y2="502.79999999999995" stroke="#000"/>
<text x="924.608695652174" y="512.4" fill="#111" font-size="small" font-family="monospace" font-weight="bold" text-anchor="end" transform="rotate(-60, 924.608695652174, 512.4)">
setivar
</text>
</svg>