<svg viewBox="0 0 1000 600" xmlns="http://www.w3.org/2000/svg" xmlns:xlink="http://www.w3.org/1999/xlink" width="100%" height="100%">

<rect x="50.0" y="30.0" width="940.0" height="467.99999999999994" stroke="#000" fill="#EEE"/>
<line x1="42.0" y1="497.9999999999999" x2="50.0" y2="497.9999999999999" stroke="#000"/>
<text x="26.000000000000004" y="497.9999999999999" text-anchor="end" font-weight="bold" font-size="small" fill="#111">
0.0
</text>
<line x1="42.0" y1="456.99963040932624" x2="50.0" y2="456.99963040932624" stroke="#000"/>
<text x="26.000000000000004" y="456.99963040932624" text-anchor="end" font-weight="bold" font-size="small" fill="#111">
0.2
</text>
<line x1="42.0" y1="415.99926081865254" x2="50.0" y2="415.99926081865254" stroke="#000"/>
<text x="26.000000000000004" y="415.99926081865254" text-anchor="end" font-weight="bold" font-size="small" fill="#111">
0.4
</text>
<line x1="42.0" y1="374.9988912279788" x2="50.0" y2="374.9988912279788" stroke="#000"/>
<text x="26.000000000000004" y="374.9988912279788" text-anchor="end" font-weight="bold" font-size="small" fill="#111">
0.6
</text>
<line x1="42.0" y1="333.99852163730503" x2="50.0" y2="333.99852163730503" stroke="#000"/>
<text x="26.000000000000004" y="333.99852163730503" text-anchor="end" font-weight="bold" font-size="small" fill="#111">
0.8
</text>
<line x1="42.0" y1="292.9981520466314" x2="50.0" y2="292.9981520466314" stroke="#000"/>
<text x="26.000000000000004" y="292.9981520466314" text-anchor="end" font-weight="bold" font-size="small" fill="#111">
1.0
</text>
<line x1="42.0" y1="251.99778245595766" x2="50.0" y2="251.99778245595766" stroke="#000"/>
<text x="26.000000000000004" y="251.99778245595766" text-anchor="end" font-weight="bold" font-size="small" fill="#111">
1.2
</text>
<line x1="42.0" y1="210.99741286528396" x2="50.0" y2="210.99741286528396" stroke="#000"/>
<text x="26.000000000000004" y="210.99741286528396" text-anchor="end" font-weight="bold" font-size="small" fill="#111">
1.4
</text>
<line x1="42.0" y1="169.99704327461026" x2="50.0" y2="169.99704327461026" stroke="#000"/>
<text x="26.000000000000004" y="169.99704327461026" text-anchor="end" font-weight="bold" font-size="small" fill="#111">
1.6
</text>
<line x1="42.0" y1="128.99667368393656" x2="50.0" y2="128.99667368393656" stroke="#000"/>
<text x="26.000000000000004" y="128.99667368393656" text-anchor="end" font-weight="bold" font-size="small" fill="#111">
1.8
</text>
<rect x="268.5" y="36.00000000000001" width="80.0" height="18.0" fill="#7070f8" stroke="#888"/>
<text x="308.5" y="52.50000000000001" font-size="small" text-anchor="middle" font-weight="bold" fill="#EEE">
No JIT
</text>
<rect x="691.4999999999999" y="36.00000000000001" width="80.0" height="18.0" fill="orange" stroke="#888"/>
<text x="731.4999999999999" y="52.50000000000001" font-size="small" text-anchor="middle" font-weight="bold" fill="#EEE">
YJIT
</text>
<rect x="97.0" y="292.9981520466314" width="25.636363636363637" height="205.00184795336855" fill="#7070f8" data-tooltip="1.00x baseline speed (No JIT)"/>
<line x1="97.0" y1="291.6930438060018" x2="122.63636363636364" y2="291.6930438060018" stroke="#000"/>
<line x1="97.0" y1="294.30326028726097" x2="122.63636363636364" y2="294.30326028726097" stroke="#000"/>
<line x1="109.81818181818181" y1="291.6930438060018" x2="109.81818181818181" y2="294.30326028726097" stroke="#000"/>
<rect x="122.63636363636364" y="112.88779381592354" width="25.636363636363637" height="385.1122061840764" fill="orange" data-tooltip="1.88x baseline speed (YJIT)"/>
<line x1="122.63636363636364" y1="108.68026158253645" x2="148.27272727272728" y2="108.68026158253645" stroke="#000"/>
<line x1="122.63636363636364" y1="117.09532604931064" x2="148.27272727272728" y2="117.09532604931064" stroke="#000"/>
<line x1="135.45454545454547" y1="108.68026158253645" x2="135.45454545454547" y2="117.09532604931064" stroke="#000"/>
<line x1="135.45454545454547" y1="498.0" x2="135.45454545454547" y2="502.79999999999995" stroke="#000"/>
<text x="135.45454545454547" y="512.4" fill="#111" font-size="small" font-family="monospace" font-weight="bold" text-anchor="end" transform="rotate(-60, 135.45454545454547, 512.4)">
activerecord
</text>
<rect x="173.9090909090909" y="292.9981520466314" width="25.636363636363637" height="205.00184795336855" fill="#7070f8" data-tooltip="1.00x baseline speed (No JIT)"/>
<line x1="173.9090909090909" y1="288.00140716670177" x2="199.54545454545453" y2="288.00140716670177" stroke="#000"/>
<line x1="173.9090909090909" y1="297.994896926561" x2="199.54545454545453" y2="297.994896926561" stroke="#000"/>
<line x1="186.72727272727272" y1="288.00140716670177" x2="186.72727272727272" y2="297.994896926561" stroke="#000"/>
<rect x="199.54545454545453" y="153.73037933263043" width="25.636363636363637" height="344.2696206673695" fill="orange" data-tooltip="1.68x baseline speed (YJIT)"/>
<line x1="199.54545454545453" y1="139.16558981624954" x2="225.18181818181816" y2="139.16558981624954" stroke="#000"/>
<line x1="199.54545454545453" y1="168.29516884901133" x2="225.18181818181816" y2="168.29516884901133" stroke="#000"/>
<line x1="212.36363636363635" y1="139.16558981624954" x2="212.36363636363635" y2="168.29516884901133" stroke="#000"/>
<line x1="212.36363636363637" y1="498.0" x2="212.36363636363637" y2="502.79999999999995" stroke="#000"/>
<text x="212.36363636363637" y="512.4" fill="#111" font-size="small" font-family="monospace" font-weight="bold" text-anchor="end" transform="rotate(-60, 212.36363636363637, 512.4)">
erubi_rails
</text>
<rect x="250.81818181818184" y="292.9981520466314" width="25.636363636363637" height="205.00184795336855" fill="#7070f8" data-tooltip="1.00x baseline speed (No JIT)"/>
<line x1="250.81818181818184" y1="291.37426439193604" x2="276.45454545454544" y2="291.37426439193604" stroke="#000"/>
<line x1="250.81818181818184" y1="294.62203970132674" x2="276.45454545454544" y2="294.62203970132674" stroke="#000"/>
<line x1="263.6363636363637" y1="291.37426439193604" x2="263.6363636363637" y2="294.62203970132674" stroke="#000"/>
<rect x="276.45454545454544" y="173.34224137178015" width="25.636363636363637" height="324.65775862821977" fill="orange" data-tooltip="1.58x baseline speed (YJIT)"/>
<line x1="276.45454545454544" y1="163.59542192505674" x2="302.09090909090907" y2="163.59542192505674" stroke="#000"/>
<line x1="276.45454545454544" y1="183.08906081850355" x2="302.09090909090907" y2="183.08906081850355" stroke="#000"/>
<line x1="289.2727272727273" y1="163.59542192505674" x2="289.2727272727273" y2="183.08906081850355" stroke="#000"/>
<line x1="289.2727272727273" y1="498.0" x2="289.2727272727273" y2="502.79999999999995" stroke="#000"/>
<text x="289.2727272727273" y="512.4" fill="#111" font-size="small" font-family="monospace" font-weight="bold" text-anchor="end" transform="rotate(-60, 289.2727272727273, 512.4)">
hexapdf
</text>
<rect x="327.72727272727275" y="292.9981520466314" width="25.636363636363637" height="205.00184795336855" fill="#7070f8" data-tooltip="1.00x baseline speed (No JIT)"/>
<line x1="327.72727272727275" y1="290.38482651354394" x2="353.3636363636364" y2="290.38482651354394" stroke="#000"/>
<line x1="327.72727272727275" y1="295.61147757971884" x2="353.3636363636364" y2="295.61147757971884" stroke="#000"/>
<line x1="340.5454545454546" y1="290.38482651354394" x2="340.5454545454546" y2="295.61147757971884" stroke="#000"/>
<rect x="353.3636363636364" y="219.28181530952193" width="25.636363636363637" height="278.718184690478" fill="orange" data-tooltip="1.36x baseline speed (YJIT)"/>
<line x1="353.3636363636364" y1="212.56493563494578" x2="379.0" y2="212.56493563494578" stroke="#000"/>
<line x1="353.3636363636364" y1="225.99869498409808" x2="379.0" y2="225.99869498409808" stroke="#000"/>
<line x1="366.18181818181824" y1="212.56493563494578" x2="366.18181818181824" y2="225.99869498409808" stroke="#000"/>
<line x1="366.18181818181824" y1="498.0" x2="366.18181818181824" y2="502.79999999999995" stroke="#000"/>
<text x="366.18181818181824" y="512.4" fill="#111" font-size="small" font-family="monospace" font-weight="bold" text-anchor="end" transform="rotate(-60, 366.18181818181824, 512.4)">
liquid-c
</text>
<rect x="404.6363636363637" y="292.9981520466314" width="25.636363636363637" height="205.00184795336855" fill="#7070f8" data-tooltip="1.00x baseline speed (No JIT)"/>
<line x1="404.6363636363637" y1="286.9564319574523" x2="430.2727272727273" y2="286.9564319574523" stroke="#000"/>
<line x1="404.6363636363637" y1="299.0398721358104" x2="430.2727272727273" y2="299.0398721358104" stroke="#000"/>
<line x1="417.4545454545455" y1="286.9564319574523" x2="417.4545454545455" y2="299.0398721358104" stroke="#000"/>
<rect x="430.2727272727273" y="221.32188964858733" width="25.636363636363637" height="276.6781103514126" fill="orange" data-tooltip="1.35x baseline speed (YJIT)"/>
<line x1="430.2727272727273" y1="212.90199193113574" x2="455.90909090909093" y2="212.90199193113574" stroke="#000"/>
<line x1="430.2727272727273" y1="229.74178736603895" x2="455.90909090909093" y2="229.74178736603895" stroke="#000"/>
<line x1="443.0909090909091" y1="212.90199193113574" x2="443.0909090909091" y2="229.74178736603895" stroke="#000"/>
<line x1="443.0909090909091" y1="498.0" x2="443.0909090909091" y2="502.79999999999995" stroke="#000"/>
<text x="443.0909090909091" y="512.4" fill="#111" font-size="small" font-family="monospace" font-weight="bold" text-anchor="end" transform="rotate(-60, 443.0909090909091, 512.4)">
liquid-compile
</text>
<rect x="481.5454545454546" y="292.9981520466314" width="25.636363636363637" height="205.00184795336855" fill="#7070f8" data-tooltip="1.00x baseline speed (No JIT)"/>
<line x1="481.5454545454546" y1="289.88435981458" x2="507.1818181818183" y2="289.88435981458" stroke="#000"/>
<line x1="481.5454545454546" y1="296.1119442786827" x2="507.1818181818183" y2="296.1119442786827" stroke="#000"/>
<line x1="494.36363636363643" y1="289.88435981458" x2="494.36363636363643" y2="296.1119442786827" stroke="#000"/>
<rect x="507.1818181818183" y="100.19999999999999" width="25.636363636363637" height="397.79999999999995" fill="orange" data-tooltip="1.94x baseline speed (YJIT)"/>
<line x1="507.1818181818183" y1="87.02879867941249" x2="532.818181818182" y2="87.02879867941249" stroke="#000"/>
<line x1="507.1818181818183" y1="113.37120132058749" x2="532.818181818182" y2="113.37120132058749" stroke="#000"/>
<line x1="520.0000000000001" y1="87.02879867941249" x2="520.0000000000001" y2="113.37120132058749" stroke="#000"/>
<line x1="520.0" y1="498.0" x2="520.0" y2="502.79999999999995" stroke="#000"/>
<text x="520.0" y="512.4" fill="#111" font-size="small" font-family="monospace" font-weight="bold" text-anchor="end" transform="rotate(-60, 520.0, 512.4)">
liquid-render
</text>
<rect x="558.4545454545454" y="292.9981520466314" width="25.636363636363637" height="205.00184795336855" fill="#7070f8" data-tooltip="1.00x baseline speed (No JIT)"/>
<line x1="558.4545454545454" y1="292.4773975185402" x2="584.0909090909091" y2="292.4773975185402" stroke="#000"/>
<line x1="558.4545454545454" y1="293.5189065747225" x2="584.0909090909091" y2="293.5189065747225" stroke="#000"/>
<line x1="571.2727272727273" y1="292.4773975185402" x2="571.2727272727273" y2="293.5189065747225" stroke="#000"/>
<rect x="584.0909090909091" y="230.45350540313916" width="25.636363636363637" height="267.5464945968608" fill="orange" data-tooltip="1.31x baseline speed (YJIT)"/>
<line x1="584.0909090909091" y1="229.59116223221088" x2="609.7272727272727" y2="229.59116223221088" stroke="#000"/>
<line x1="584.0909090909091" y1="231.31584857406745" x2="609.7272727272727" y2="231.31584857406745" stroke="#000"/>
<line x1="596.909090909091" y1="229.59116223221088" x2="596.909090909091" y2="231.31584857406745" stroke="#000"/>
<line x1="596.9090909090909" y1="498.0" x2="596.9090909090909" y2="502.79999999999995" stroke="#000"/>
<text x="596.9090909090909" y="512.4" fill="#111" font-size="small" font-family="monospace" font-weight="bold" text-anchor="end" transform="rotate(-60, 596.9090909090909, 512.4)">
mail
</text>
<rect x="635.3636363636364" y="292.9981520466314" width="25.636363636363637" height="205.00184795336855" fill="#7070f8" data-tooltip="1.00x baseline speed (No JIT)"/>
<line x1="635.3636363636364" y1="292.92700939226256" x2="661.0" y2="292.92700939226256" stroke="#000"/>
<line x1="635.3636363636364" y1="293.0692947010002" x2="661.0" y2="293.0692947010002" stroke="#000"/>
<line x1="648.1818181818182" y1="292.92700939226256" x2="648.1818181818182" y2="293.0692947010002" stroke="#000"/>
<rect x="661.0" y="226.5061645826519" width="25.636363636363637" height="271.493835417348" fill="orange" data-tooltip="1.32x baseline speed (YJIT)"/>
<line x1="661.0" y1="226.3505321352233" x2="686.6363636363637" y2="226.3505321352233" stroke="#000"/>
<line x1="661.0" y1="226.66179703008052" x2="686.6363636363637" y2="226.66179703008052" stroke="#000"/>
<line x1="673.8181818181819" y1="226.3505321352233" x2="673.8181818181819" y2="226.66179703008052" stroke="#000"/>
<line x1="673.8181818181818" y1="498.0" x2="673.8181818181818" y2="502.79999999999995" stroke="#000"/>
<text x="673.8181818181818" y="512.4" fill="#111" font-size="small" font-family="monospace" font-weight="bold" text-anchor="end" transform="rotate(-60, 673.8181818181818, 512.4)">
psych-load
</text>
<rect x="712.2727272727273" y="292.9981520466314" width="25.636363636363637" height="205.00184795336855" fill="#7070f8" data-tooltip="1.00x baseline speed (No JIT)"/>
<line x1="712.2727272727273" y1="291.66857946787303" x2="737.909090909091" y2="291.66857946787303" stroke="#000"/>
<line x1="712.2727272727273" y1="294.32772462538975" x2="737.909090909091" y2="294.32772462538975" stroke="#000"/>
<line x1="725.0909090909091" y1="291.66857946787303" x2="725.0909090909091" y2="294.32772462538975" stroke="#000"/>
<rect x="737.909090909091" y="184.7943375499228" width="25.636363636363637" height="313.20566245007717" fill="orange" data-tooltip="1.53x baseline speed (YJIT)"/>
<line x1="737.909090909091" y1="180.34112722207664" x2="763.5454545454546" y2="180.34112722207664" stroke="#000"/>
<line x1="737.909090909091" y1="189.24754787776897" x2="763.5454545454546" y2="189.24754787776897" stroke="#000"/>
<line x1="750.7272727272727" y1="180.34112722207664" x2="750.7272727272727" y2="189.24754787776897" stroke="#000"/>
<line x1="750.7272727272726" y1="498.0" x2="750.7272727272726" y2="502.79999999999995" stroke="#000"/>
<text x="750.7272727272726" y="512.4" fill="#111" font-size="small" font-family="monospace" font-weight="bold" text-anchor="end" transform="rotate(-60, 750.7272727272726, 512.4)">
railsbench
</text>
<rect x="789.1818181818182" y="292.9981520466314" width="25.636363636363637" height="205.00184795336855" fill="#7070f8" data-tooltip="1.00x baseline speed (No JIT)"/>
<line x1="789.1818181818182" y1="275.70665426297785" x2="814.8181818181819" y2="275.70665426297785" stroke="#000"/>
<line x1="789.1818181818182" y1="310.28964983028493" x2="814.8181818181819" y2="310.28964983028493" stroke="#000"/>
<line x1="802.0" y1="275.70665426297785" x2="802.0" y2="310.28964983028493" stroke="#000"/>
<rect x="814.8181818181819" y="209.39098619597107" width="25.636363636363637" height="288.60901380402885" fill="orange" data-tooltip="1.41x baseline speed (YJIT)"/>
<line x1="814.8181818181819" y1="145.0217794370231" x2="840.4545454545456" y2="145.0217794370231" stroke="#000"/>
<line x1="814.8181818181819" y1="273.7601929549191" x2="840.4545454545456" y2="273.7601929549191" stroke="#000"/>
<line x1="827.6363636363637" y1="145.0217794370231" x2="827.6363636363637" y2="273.7601929549191" stroke="#000"/>
<line x1="827.6363636363636" y1="498.0" x2="827.6363636363636" y2="502.79999999999995" stroke="#000"/>
<text x="827.6363636363636" y="512.4" fill="#111" font-size="small" font-family="monospace" font-weight="bold" text-anchor="end" transform="rotate(-60, 827.6363636363636, 512.4)">
ruby-lsp
</text>
<rect x="866.0909090909091" y="292.9981520466314" width="25.636363636363637" height="205.00184795336855" fill="#7070f8" data-tooltip="1.00x baseline speed (No JIT)"/>
<line x1="866.0909090909091" y1="292.74011179909263" x2="891.7272727272729" y2="292.74011179909263" stroke="#000"/>
<line x1="866.0909090909091" y1="293.25619229417015" x2="891.7272727272729" y2="293.25619229417015" stroke="#000"/>
<line x1="878.909090909091" y1="292.74011179909263" x2="878.909090909091" y2="293.25619229417015" stroke="#000"/>
<rect x="891.7272727272729" y="238.80018885109743" width="25.636363636363637" height="259.1998111489025" fill="orange" data-tooltip="1.26x baseline speed (YJIT)"/>
<line x1="891.7272727272729" y1="237.49744533531796" x2="917.3636363636365" y2="237.49744533531796" stroke="#000"/>
<line x1="891.7272727272729" y1="240.10293236687693" x2="917.3636363636365" y2="240.10293236687693" stroke="#000"/>
<line x1="904.5454545454546" y1="237.49744533531796" x2="904.5454545454546" y2="240.10293236687693" stroke="#000"/>
<line x1="904.5454545454545" y1="498.0" x2="904.5454545454545" y2="502.79999999999995" stroke="#000"/>
<text x="904.5454545454545" y="512.4" fill="#111" font-size="small" font-family="monospace" font-weight="bold" text-anchor="end" transform="rotate(-60, 904.5454545454545, 512.4)">
sequel
</text>
</svg>