<svg viewBox="0 0 1000 600" xmlns="http://www.w3.org/2000/svg" xmlns:xlink="http://www.w3.org/1999/xlink" width="100%" height="100%">

<rect x="50.0" y="30.0" width="940.0" height="467.99999999999994" stroke="#000" fill="#EEE"/>
<line x1="42.0" y1="497.9999999999999" x2="50.0" y2="497.9999999999999" stroke="#000"/>
<text x="26.000000000000004" y="497.9999999999999" text-anchor="end" font-weight="bold" font-size="small" fill="#111">
0.0
</text>
<line x1="42.0" y1="409.44107111470447" x2="50.0" y2="409.44107111470447" stroke="#000"/>
<text x="26.000000000000004" y="409.44107111470447" text-anchor="end" font-weight="bold" font-size="small" fill="#111">
0.5
</text>
<line x1="42.0" y1="320.88214222940894" x2="50.0" y2="320.88214222940894" stroke="#000"/>
<text x="26.000000000000004" y="320.88214222940894" text-anchor="end" font-weight="bold" font-size="small" fill="#111">
1.0
</text>
<line x1="42.0" y1="232.32321334411353" x2="50.0" y2="232.32321334411353" stroke="#000"/>
<text x="26.000000000000004" y="232.32321334411353" text-anchor="end" font-weight="bold" font-size="small" fill="#111">
1.5
</text>
<line x1="42.0" y1="143.76428445881805" x2="50.0" y2="143.76428445881805" stroke="#000"/>
<text x="26.000000000000004" y="143.76428445881805" text-anchor="end" font-weight="bold" font-size="small" fill="#111">
2.0
</text>
<rect x="197.99999999999997" y="36.00000000000001" width="80.0" height="18.0" fill="#7070f8" stroke="#888"/>
<text x="238.0" y="52.50000000000001" font-size="small" text-anchor="middle" font-weight="bold" fill="#EEE">
No JIT
</text>
<rect x="479.99999999999994" y="36.00000000000001" width="80.0" height="18.0" fill="orange" stroke="#888"/>
<text x="519.9999999999999" y="52.50000000000001" font-size="small" text-anchor="middle" font-weight="bold" fill="#EEE">
MJIT
</text>
<rect x="761.9999999999999" y="36.00000000000001" width="80.0" height="18.0" fill="green" stroke="#888"/>
<text x="801.9999999999999" y="52.50000000000001" font-size="small" text-anchor="middle" font-weight="bold" fill="#EEE">
YJIT
</text>
<rect x="97.0" y="320.88214222940894" width="23.5" height="177.11785777059094" fill="#7070f8" data-tooltip="1.00x baseline speed (No JIT)"/>
<line x1="97.0" y1="320.61634380921515" x2="120.5" y2="320.61634380921515" stroke="#000"/>
<line x1="97.0" y1="321.1479406496028" x2="120.5" y2="321.1479406496028" stroke="#000"/>
<line x1="108.75" y1="320.61634380921515" x2="108.75" y2="321.1479406496028" stroke="#000"/>
<rect x="120.5" y="231.59681947410058" width="23.5" height="266.40318052589936" fill="orange" data-tooltip="1.50x baseline speed (MJIT)"/>
<line x1="120.5" y1="226.50529794302784" x2="144.0" y2="226.50529794302784" stroke="#000"/>
<line x1="120.5" y1="236.68834100517333" x2="144.0" y2="236.68834100517333" stroke="#000"/>
<line x1="132.25" y1="226.50529794302784" x2="132.25" y2="236.68834100517333" stroke="#000"/>
<rect x="144.00000000000003" y="271.60574431759085" width="23.5" height="226.3942556824091" fill="green" data-tooltip="1.28x baseline speed (YJIT)"/>
<line x1="144.00000000000003" y1="271.1907115355945" x2="167.5" y2="271.1907115355945" stroke="#000"/>
<line x1="144.00000000000003" y1="272.0207770995872" x2="167.5" y2="272.0207770995872" stroke="#000"/>
<line x1="155.75000000000003" y1="271.1907115355945" x2="155.75000000000003" y2="272.0207770995872" stroke="#000"/>
<line x1="144.00000000000003" y1="498.0" x2="144.00000000000003" y2="502.79999999999995" stroke="#000"/>
<text x="144.00000000000003" y="512.4" fill="#111" font-size="small" font-family="monospace" font-weight="bold" text-anchor="end" transform="rotate(-60, 144.00000000000003, 512.4)">
binarytrees
</text>
<rect x="191.0" y="320.88214222940894" width="23.5" height="177.11785777059094" fill="#7070f8" data-tooltip="1.00x baseline speed (No JIT)"/>
<line x1="191.0" y1="320.82249994056065" x2="214.5" y2="320.82249994056065" stroke="#000"/>
<line x1="191.0" y1="320.94178451825724" x2="214.5" y2="320.94178451825724" stroke="#000"/>
<line x1="202.75" y1="320.82249994056065" x2="202.75" y2="320.94178451825724" stroke="#000"/>
<rect x="214.5" y="279.2221371840627" width="23.5" height="218.77786281593723" fill="orange" data-tooltip="1.24x baseline speed (MJIT)"/>
<line x1="214.5" y1="279.1078755760558" x2="238.0" y2="279.1078755760558" stroke="#000"/>
<line x1="214.5" y1="279.33639879206964" x2="238.0" y2="279.33639879206964" stroke="#000"/>
<line x1="226.25" y1="279.1078755760558" x2="226.25" y2="279.33639879206964" stroke="#000"/>
<rect x="238.0" y="253.0252697019821" width="23.5" height="244.97473029801785" fill="green" data-tooltip="1.38x baseline speed (YJIT)"/>
<line x1="238.0" y1="252.88088777167937" x2="261.5" y2="252.88088777167937" stroke="#000"/>
<line x1="238.0" y1="253.16965163228483" x2="261.5" y2="253.16965163228483" stroke="#000"/>
<line x1="249.75" y1="252.88088777167937" x2="249.75" y2="253.16965163228483" stroke="#000"/>
<line x1="238.0" y1="498.0" x2="238.0" y2="502.79999999999995" stroke="#000"/>
<text x="238.0" y="512.4" fill="#111" font-size="small" font-family="monospace" font-weight="bold" text-anchor="end" transform="rotate(-60, 238.0, 512.4)">
chunky_png
</text>
<rect x="285.00000000000006" y="320.88214222940894" width="23.5" height="177.11785777059094" fill="#7070f8" data-tooltip="1.00x baseline speed (No JIT)"/>
<line x1="285.00000000000006" y1="314.65888769360095" x2="308.50000000000006" y2="314.65888769360095" stroke="#000"/>
<line x1="285.00000000000006" y1="327.105396765217" x2="308.50000000000006" y2="327.105396765217" stroke="#000"/>
<line x1="296.75" y1="314.65888769360095" x2="296.75" y2="327.105396765217" stroke="#000"/>
<rect x="308.50000000000006" y="296.10540881687473" width="23.5" height="201.8945911831252" fill="orange" data-tooltip="1.14x baseline speed (MJIT)"/>
<line x1="308.50000000000006" y1="287.0749852935328" x2="332.00000000000006" y2="287.0749852935328" stroke="#000"/>
<line x1="308.50000000000006" y1="305.13583234021667" x2="332.00000000000006" y2="305.13583234021667" stroke="#000"/>
<line x1="320.25000000000006" y1="287.0749852935328" x2="320.25000000000006" y2="305.13583234021667" stroke="#000"/>
<rect x="332.0" y="276.52091833535036" width="23.5" height="221.47908166464958" fill="green" data-tooltip="1.25x baseline speed (YJIT)"/>
<line x1="332.0" y1="268.55974396846227" x2="355.50000000000006" y2="268.55974396846227" stroke="#000"/>
<line x1="332.0" y1="284.4820927022384" x2="355.50000000000006" y2="284.4820927022384" stroke="#000"/>
<line x1="343.75" y1="268.55974396846227" x2="343.75" y2="284.4820927022384" stroke="#000"/>
<line x1="332.0" y1="498.0" x2="332.0" y2="502.79999999999995" stroke="#000"/>
<text x="332.0" y="512.4" fill="#111" font-size="small" font-family="monospace" font-weight="bold" text-anchor="end" transform="rotate(-60, 332.0, 512.4)">
erubi
</text>
<rect x="379.0" y="320.88214222940894" width="23.5" height="177.11785777059094" fill="#7070f8" data-tooltip="1.00x baseline speed (No JIT)"/>
<line x1="379.0" y1="316.579273290131" x2="402.5" y2="316.579273290131" stroke="#000"/>
<line x1="379.0" y1="325.1850111686869" x2="402.5" y2="325.1850111686869" stroke="#000"/>
<line x1="390.75" y1="316.579273290131" x2="390.75" y2="325.1850111686869" stroke="#000"/>
<rect x="402.5" y="324.4564219468963" width="23.5" height="173.5435780531037" fill="orange" data-tooltip="0.98x baseline speed (MJIT)"/>
<line x1="402.5" y1="318.63626917371045" x2="426.00000000000006" y2="318.63626917371045" stroke="#000"/>
<line x1="402.5" y1="330.2765747200822" x2="426.00000000000006" y2="330.2765747200822" stroke="#000"/>
<line x1="414.25" y1="318.63626917371045" x2="414.25" y2="330.2765747200822" stroke="#000"/>
<rect x="426.0" y="266.0270925626412" width="23.5" height="231.97290743735877" fill="green" data-tooltip="1.31x baseline speed (YJIT)"/>
<line x1="426.0" y1="256.1422670387384" x2="449.5" y2="256.1422670387384" stroke="#000"/>
<line x1="426.0" y1="275.91191808654395" x2="449.5" y2="275.91191808654395" stroke="#000"/>
<line x1="437.75" y1="256.1422670387384" x2="437.75" y2="275.91191808654395" stroke="#000"/>
<line x1="426.0" y1="498.0" x2="426.0" y2="502.79999999999995" stroke="#000"/>
<text x="426.0" y="512.4" fill="#111" font-size="small" font-family="monospace" font-weight="bold" text-anchor="end" transform="rotate(-60, 426.0, 512.4)">
erubi_rails
</text>
<rect x="473.0" y="320.88214222940894" width="23.5" height="177.11785777059094" fill="#7070f8" data-tooltip="1.00x baseline speed (No JIT)"/>
<line x1="473.0" y1="320.81767890548804" x2="496.5" y2="320.81767890548804" stroke="#000"/>
<line x1="473.0" y1="320.9466055533299" x2="496.5" y2="320.9466055533299" stroke="#000"/>
<line x1="484.74999999999994" y1="320.81767890548804" x2="484.74999999999994" y2="320.9466055533299" stroke="#000"/>
<rect x="496.5" y="106.52804240848302" width="23.5" height="391.4719575915169" fill="orange" data-tooltip="2.21x baseline speed (MJIT)"/>
<line x1="496.5" y1="106.27434028115171" x2="520.0" y2="106.27434028115171" stroke="#000"/>
<line x1="496.5" y1="106.78174453581434" x2="520.0" y2="106.78174453581434" stroke="#000"/>
<line x1="508.25" y1="106.27434028115171" x2="508.25" y2="106.78174453581434" stroke="#000"/>
<rect x="520.0" y="113.86496548192723" width="23.5" height="384.1350345180727" fill="green" data-tooltip="2.17x baseline speed (YJIT)"/>
<line x1="520.0" y1="113.47572184262235" x2="543.5" y2="113.47572184262235" stroke="#000"/>
<line x1="520.0" y1="114.25420912123211" x2="543.5" y2="114.25420912123211" stroke="#000"/>
<line x1="531.75" y1="113.47572184262235" x2="531.75" y2="114.25420912123211" stroke="#000"/>
<line x1="520.0" y1="498.0" x2="520.0" y2="502.79999999999995" stroke="#000"/>
<text x="520.0" y="512.4" fill="#111" font-size="small" font-family="monospace" font-weight="bold" text-anchor="end" transform="rotate(-60, 520.0, 512.4)">
fannkuchredux
</text>
<rect x="567.0" y="320.88214222940894" width="23.5" height="177.11785777059094" fill="#7070f8" data-tooltip="1.00x baseline speed (No JIT)"/>
<line x1="567.0" y1="318.5345126935142" x2="590.4999999999999" y2="318.5345126935142" stroke="#000"/>
<line x1="567.0" y1="323.2297717653037" x2="590.4999999999999" y2="323.2297717653037" stroke="#000"/>
<line x1="578.75" y1="318.5345126935142" x2="578.75" y2="323.2297717653037" stroke="#000"/>
<rect x="590.4999999999999" y="288.9830947102389" width="23.5" height="209.01690528976107" fill="orange" data-tooltip="1.18x baseline speed (MJIT)"/>
<line x1="590.4999999999999" y1="284.0715292951197" x2="613.9999999999999" y2="284.0715292951197" stroke="#000"/>
<line x1="590.4999999999999" y1="293.8946601253581" x2="613.9999999999999" y2="293.8946601253581" stroke="#000"/>
<line x1="602.25" y1="284.0715292951197" x2="602.25" y2="293.8946601253581" stroke="#000"/>
<rect x="614.0" y="272.8537540093126" width="23.5" height="225.14624599068733" fill="green" data-tooltip="1.27x baseline speed (YJIT)"/>
<line x1="614.0" y1="268.1623618738599" x2="637.5" y2="268.1623618738599" stroke="#000"/>
<line x1="614.0" y1="277.54514614476534" x2="637.5" y2="277.54514614476534" stroke="#000"/>
<line x1="625.75" y1="268.1623618738599" x2="625.75" y2="277.54514614476534" stroke="#000"/>
<line x1="614.0" y1="498.0" x2="614.0" y2="502.79999999999995" stroke="#000"/>
<text x="614.0" y="512.4" fill="#111" font-size="small" font-family="monospace" font-weight="bold" text-anchor="end" transform="rotate(-60, 614.0, 512.4)">
lee
</text>
<rect x="661.0" y="320.88214222940894" width="23.5" height="177.11785777059094" fill="#7070f8" data-tooltip="1.00x baseline speed (No JIT)"/>
<line x1="661.0" y1="319.70316037207334" x2="684.5" y2="319.70316037207334" stroke="#000"/>
<line x1="661.0" y1="322.0611240867446" x2="684.5" y2="322.0611240867446" stroke="#000"/>
<line x1="672.7500000000001" y1="319.70316037207334" x2="672.7500000000001" y2="322.0611240867446" stroke="#000"/>
<rect x="684.5" y="188.49320536895993" width="23.5" height="309.50679463103995" fill="orange" data-tooltip="1.75x baseline speed (MJIT)"/>
<line x1="684.5" y1="185.63364598410536" x2="708.0" y2="185.63364598410536" stroke="#000"/>
<line x1="684.5" y1="191.35276475381454" x2="708.0" y2="191.35276475381454" stroke="#000"/>
<line x1="696.25" y1="185.63364598410536" x2="696.25" y2="191.35276475381454" stroke="#000"/>
<rect x="708.0000000000001" y="256.9195039679419" width="23.5" height="241.08049603205802" fill="green" data-tooltip="1.36x baseline speed (YJIT)"/>
<line x1="708.0000000000001" y1="255.3059818380764" x2="731.5" y2="255.3059818380764" stroke="#000"/>
<line x1="708.0000000000001" y1="258.53302609780746" x2="731.5" y2="258.53302609780746" stroke="#000"/>
<line x1="719.7500000000001" y1="255.3059818380764" x2="719.7500000000001" y2="258.53302609780746" stroke="#000"/>
<line x1="708.0000000000001" y1="498.0" x2="708.0000000000001" y2="502.79999999999995" stroke="#000"/>
<text x="708.0000000000001" y="512.4" fill="#111" font-size="small" font-family="monospace" font-weight="bold" text-anchor="end" transform="rotate(-60, 708.0000000000001, 512.4)">
nbody
</text>
<rect x="755.0" y="320.88214222940894" width="23.5" height="177.11785777059094" fill="#7070f8" data-tooltip="1.00x baseline speed (No JIT)"/>
<line x1="755.0" y1="320.1736034580538" x2="778.5" y2="320.1736034580538" stroke="#000"/>
<line x1="755.0" y1="321.5906810007641" x2="778.5" y2="321.5906810007641" stroke="#000"/>
<line x1="766.75" y1="320.1736034580538" x2="766.75" y2="321.5906810007641" stroke="#000"/>
<rect x="778.5" y="100.19999999999999" width="23.5" height="397.79999999999995" fill="orange" data-tooltip="2.25x baseline speed (MJIT)"/>
<line x1="778.5" y1="97.26955447945885" x2="801.9999999999999" y2="97.26955447945885" stroke="#000"/>
<line x1="778.5" y1="103.13044552054113" x2="801.9999999999999" y2="103.13044552054113" stroke="#000"/>
<line x1="790.25" y1="97.26955447945885" x2="790.25" y2="103.13044552054113" stroke="#000"/>
<rect x="802.0" y="195.50230523821057" width="23.5" height="302.4976947617894" fill="green" data-tooltip="1.71x baseline speed (YJIT)"/>
<line x1="802.0" y1="193.39009407613923" x2="825.5" y2="193.39009407613923" stroke="#000"/>
<line x1="802.0" y1="197.6145164002819" x2="825.5" y2="197.6145164002819" stroke="#000"/>
<line x1="813.7500000000001" y1="193.39009407613923" x2="813.7500000000001" y2="197.6145164002819" stroke="#000"/>
<line x1="802.0" y1="498.0" x2="802.0" y2="502.79999999999995" stroke="#000"/>
<text x="802.0" y="512.4" fill="#111" font-size="small" font-family="monospace" font-weight="bold" text-anchor="end" transform="rotate(-60, 802.0, 512.4)">
optcarrot
</text>
<rect x="849.0" y="320.88214222940894" width="23.5" height="177.11785777059094" fill="#7070f8" data-tooltip="1.00x baseline speed (No JIT)"/>
<line x1="849.0" y1="319.8051747560022" x2="872.4999999999999" y2="319.8051747560022" stroke="#000"/>
<line x1="849.0" y1="321.95910970281574" x2="872.4999999999999" y2="321.95910970281574" stroke="#000"/>
<line x1="860.75" y1="319.8051747560022" x2="860.75" y2="321.95910970281574" stroke="#000"/>
<rect x="872.4999999999999" y="221.58883541013802" width="23.5" height="276.4111645898619" fill="orange" data-tooltip="1.56x baseline speed (MJIT)"/>
<line x1="872.4999999999999" y1="219.48899341843673" x2="895.9999999999999" y2="219.48899341843673" stroke="#000"/>
<line x1="872.4999999999999" y1="223.68867740183933" x2="895.9999999999999" y2="223.68867740183933" stroke="#000"/>
<line x1="884.25" y1="219.48899341843673" x2="884.25" y2="223.68867740183933" stroke="#000"/>
<rect x="896.0" y="236.12342025348326" width="23.5" height="261.87657974651665" fill="green" data-tooltip="1.48x baseline speed (YJIT)"/>
<line x1="896.0" y1="234.24132675847864" x2="919.5" y2="234.24132675847864" stroke="#000"/>
<line x1="896.0" y1="238.0055137484879" x2="919.5" y2="238.0055137484879" stroke="#000"/>
<line x1="907.75" y1="234.24132675847864" x2="907.75" y2="238.0055137484879" stroke="#000"/>
<line x1="896.0" y1="498.0" x2="896.0" y2="502.79999999999995" stroke="#000"/>
<text x="896.0" y="512.4" fill="#111" font-size="small" font-family="monospace" font-weight="bold" text-anchor="end" transform="rotate(-60, 896.0, 512.4)">
rubykon
</text>
</svg>