<svg viewBox="0 0 1000 600" xmlns="http://www.w3.org/2000/svg" xmlns:xlink="http://www.w3.org/1999/xlink" width="100%" height="100%">

<rect x="50.0" y="30.0" width="940.0" height="467.99999999999994" stroke="#000" fill="#EEE"/>
<line x1="42.0" y1="497.9999999999999" x2="50.0" y2="497.9999999999999" stroke="#000"/>
<text x="26.000000000000004" y="497.9999999999999" text-anchor="end" font-weight="bold" font-size="small" fill="#111">
0.0
</text>
<line x1="42.0" y1="444.6651494344336" x2="50.0" y2="444.6651494344336" stroke="#000"/>
<text x="26.000000000000004" y="444.6651494344336" text-anchor="end" font-weight="bold" font-size="small" fill="#111">
1.0
</text>
<line x1="42.0" y1="391.33029886886726" x2="50.0" y2="391.33029886886726" stroke="#000"/>
<text x="26.000000000000004" y="391.33029886886726" text-anchor="end" font-weight="bold" font-size="small" fill="#111">
2.0
</text>
<line x1="42.0" y1="337.9954483033009" x2="50.0" y2="337.9954483033009" stroke="#000"/>
<text x="26.000000000000004" y="337.9954483033009" text-anchor="end" font-weight="bold" font-size="small" fill="#111">
3.0
</text>
<line x1="42.0" y1="284.6605977377346" x2="50.0" y2="284.6605977377346" stroke="#000"/>
<text x="26.000000000000004" y="284.6605977377346" text-anchor="end" font-weight="bold" font-size="small" fill="#111">
4.0
</text>
<line x1="42.0" y1="231.3257471721682" x2="50.0" y2="231.3257471721682" stroke="#000"/>
<text x="26.000000000000004" y="231.3257471721682" text-anchor="end" font-weight="bold" font-size="small" fill="#111">
5.0
</text>
<line x1="42.0" y1="177.99089660660186" x2="50.0" y2="177.99089660660186" stroke="#000"/>
<text x="26.000000000000004" y="177.99089660660186" text-anchor="end" font-weight="bold" font-size="small" fill="#111">
6.0
</text>
<line x1="42.0" y1="124.6560460410355" x2="50.0" y2="124.6560460410355" stroke="#000"/>
<text x="26.000000000000004" y="124.6560460410355" text-anchor="end" font-weight="bold" font-size="small" fill="#111">
7.0
</text>
<rect x="162.74999999999997" y="36.00000000000001" width="80.0" height="18.0" fill="#7070f8" stroke="#888"/>
<text x="202.75" y="52.50000000000001" font-size="small" text-anchor="middle" font-weight="bold" fill="#EEE">
No JIT
</text>
<rect x="374.25" y="36.00000000000001" width="80.0" height="18.0" fill="orange" stroke="#888"/>
<text x="414.25" y="52.50000000000001" font-size="small" text-anchor="middle" font-weight="bold" fill="#EEE">
MJIT3.0
</text>
<rect x="585.7499999999999" y="36.00000000000001" width="80.0" height="18.0" fill="green" stroke="#888"/>
<text x="625.7499999999999" y="52.50000000000001" font-size="small" text-anchor="middle" font-weight="bold" fill="#EEE">
MJIT
</text>
<rect x="797.2499999999999" y="36.00000000000001" width="80.0" height="18.0" fill="#4F3A7A" stroke="#888"/>
<text x="837.2499999999999" y="52.50000000000001" font-size="small" text-anchor="middle" font-weight="bold" fill="#EEE">
YJIT
</text>
<rect x="97.0" y="444.6651494344336" width="7.356521739130435" height="53.33485056556634" fill="#7070f8" data-tooltip="1.00x baseline speed (No JIT)"/>
<line x1="97.0" y1="444.00601663041596" x2="104.35652173913043" y2="444.00601663041596" stroke="#000"/>
<line x1="97.0" y1="445.32428223845125" x2="104.35652173913043" y2="445.32428223845125" stroke="#000"/>
<line x1="100.67826086956522" y1="444.00601663041596" x2="100.67826086956522" y2="445.32428223845125" stroke="#000"/>
<rect x="104.35652173913043" y="448.83948554815555" width="7.356521739130435" height="49.160514451844364" fill="orange" data-tooltip="0.92x baseline speed (MJIT3.0)"/>
<line x1="104.35652173913043" y1="447.57908663400764" x2="111.71304347826086" y2="447.57908663400764" stroke="#000"/>
<line x1="104.35652173913043" y1="450.09988446230346" x2="111.71304347826086" y2="450.09988446230346" stroke="#000"/>
<line x1="108.03478260869565" y1="447.57908663400764" x2="108.03478260869565" y2="450.09988446230346" stroke="#000"/>
<rect x="111.71304347826087" y="450.76005778953305" width="7.356521739130435" height="47.23994221046689" fill="green" data-tooltip="0.89x baseline speed (MJIT)"/>
<line x1="111.71304347826087" y1="448.9358822335848" x2="119.06956521739131" y2="448.9358822335848" stroke="#000"/>
<line x1="111.71304347826087" y1="452.5842333454813" x2="119.06956521739131" y2="452.5842333454813" stroke="#000"/>
<line x1="115.3913043478261" y1="448.9358822335848" x2="115.3913043478261" y2="452.5842333454813" stroke="#000"/>
<rect x="119.06956521739131" y="423.35980141056683" width="7.356521739130435" height="74.64019858943317" fill="#4F3A7A" data-tooltip="1.40x baseline speed (YJIT)"/>
<line x1="119.06956521739131" y1="422.34411507437056" x2="126.42608695652174" y2="422.34411507437056" stroke="#000"/>
<line x1="119.06956521739131" y1="424.3754877467631" x2="126.42608695652174" y2="424.3754877467631" stroke="#000"/>
<line x1="122.74782608695654" y1="422.34411507437056" x2="122.74782608695654" y2="424.3754877467631" stroke="#000"/>
<line x1="115.3913043478261" y1="498.0" x2="115.3913043478261" y2="502.79999999999995" stroke="#000"/>
<text x="115.3913043478261" y="512.4" fill="#111" font-size="small" font-family="monospace" font-weight="bold" text-anchor="end" transform="rotate(-60, 115.3913043478261, 512.4)">
activerecord
</text>
<rect x="133.7826086956522" y="444.6651494344336" width="7.356521739130435" height="53.33485056556634" fill="#7070f8" data-tooltip="1.00x baseline speed (No JIT)"/>
<line x1="133.7826086956522" y1="444.2632140045677" x2="141.1391304347826" y2="444.2632140045677" stroke="#000"/>
<line x1="133.7826086956522" y1="445.06708486429943" x2="141.1391304347826" y2="445.06708486429943" stroke="#000"/>
<line x1="137.4608695652174" y1="444.2632140045677" x2="137.4608695652174" y2="445.06708486429943" stroke="#000"/>
<rect x="141.1391304347826" y="441.81148709097386" width="7.356521739130435" height="56.18851290902602" fill="orange" data-tooltip="1.05x baseline speed (MJIT3.0)"/>
<line x1="141.1391304347826" y1="440.8786741016012" x2="148.49565217391302" y2="440.8786741016012" stroke="#000"/>
<line x1="141.1391304347826" y1="442.74430008034653" x2="148.49565217391302" y2="442.74430008034653" stroke="#000"/>
<line x1="144.8173913043478" y1="440.8786741016012" x2="144.8173913043478" y2="442.74430008034653" stroke="#000"/>
<rect x="155.8521739130435" y="425.7579101607406" width="7.356521739130435" height="72.2420898392593" fill="#4F3A7A" data-tooltip="1.35x baseline speed (YJIT)"/>
<line x1="155.8521739130435" y1="424.09522137720836" x2="163.2086956521739" y2="424.09522137720836" stroke="#000"/>
<line x1="155.8521739130435" y1="427.42059894427285" x2="163.2086956521739" y2="427.42059894427285" stroke="#000"/>
<line x1="159.5304347826087" y1="424.09522137720836" x2="159.5304347826087" y2="427.42059894427285" stroke="#000"/>
<line x1="152.17391304347828" y1="498.0" x2="152.17391304347828" y2="502.79999999999995" stroke="#000"/>
<text x="152.17391304347828" y="512.4" fill="#111" font-size="small" font-family="monospace" font-weight="bold" text-anchor="end" transform="rotate(-60, 152.17391304347828, 512.4)">
hexapdf
</text>
<rect x="170.56521739130437" y="444.6651494344336" width="7.356521739130435" height="53.33485056556634" fill="#7070f8" data-tooltip="1.00x baseline speed (No JIT)"/>
<line x1="170.56521739130437" y1="444.06931983829287" x2="177.9217391304348" y2="444.06931983829287" stroke="#000"/>
<line x1="170.56521739130437" y1="445.2609790305743" x2="177.9217391304348" y2="445.2609790305743" stroke="#000"/>
<line x1="174.24347826086958" y1="444.06931983829287" x2="174.24347826086958" y2="445.2609790305743" stroke="#000"/>
<rect x="177.9217391304348" y="444.96156521727755" width="7.356521739130435" height="53.03843478272233" fill="orange" data-tooltip="0.99x baseline speed (MJIT3.0)"/>
<line x1="177.9217391304348" y1="443.738662537703" x2="185.27826086956523" y2="443.738662537703" stroke="#000"/>
<line x1="177.9217391304348" y1="446.184467896852" x2="185.27826086956523" y2="446.184467896852" stroke="#000"/>
<line x1="181.60000000000002" y1="443.738662537703" x2="181.60000000000002" y2="446.184467896852" stroke="#000"/>
<rect x="185.27826086956523" y="441.7727627747029" width="7.356521739130435" height="56.227237225297046" fill="green" data-tooltip="1.05x baseline speed (MJIT)"/>
<line x1="185.27826086956523" y1="440.734207011389" x2="192.63478260869564" y2="440.734207011389" stroke="#000"/>
<line x1="185.27826086956523" y1="442.81131853801685" x2="192.63478260869564" y2="442.81131853801685" stroke="#000"/>
<line x1="188.95652173913044" y1="440.734207011389" x2="188.95652173913044" y2="442.81131853801685" stroke="#000"/>
<rect x="192.63478260869567" y="417.5563091280836" width="7.356521739130435" height="80.44369087191633" fill="#4F3A7A" data-tooltip="1.51x baseline speed (YJIT)"/>
<line x1="192.63478260869567" y1="415.91951462684455" x2="199.99130434782612" y2="415.91951462684455" stroke="#000"/>
<line x1="192.63478260869567" y1="419.19310362932265" x2="199.99130434782612" y2="419.19310362932265" stroke="#000"/>
<line x1="196.3130434782609" y1="415.91951462684455" x2="196.3130434782609" y2="419.19310362932265" stroke="#000"/>
<line x1="188.95652173913047" y1="498.0" x2="188.95652173913047" y2="502.79999999999995" stroke="#000"/>
<text x="188.95652173913047" y="512.4" fill="#111" font-size="small" font-family="monospace" font-weight="bold" text-anchor="end" transform="rotate(-60, 188.95652173913047, 512.4)">
liquid-render
</text>
<rect x="207.34782608695653" y="444.6651494344336" width="7.356521739130435" height="53.33485056556634" fill="#7070f8" data-tooltip="1.00x baseline speed (No JIT)"/>
<line x1="207.34782608695653" y1="444.55672143766867" x2="214.70434782608697" y2="444.55672143766867" stroke="#000"/>
<line x1="207.34782608695653" y1="444.77357743119853" x2="214.70434782608697" y2="444.77357743119853" stroke="#000"/>
<line x1="211.02608695652177" y1="444.55672143766867" x2="211.02608695652177" y2="444.77357743119853" stroke="#000"/>
<rect x="214.70434782608697" y="441.1473424787356" width="7.356521739130435" height="56.85265752126433" fill="orange" data-tooltip="1.07x baseline speed (MJIT3.0)"/>
<line x1="214.70434782608697" y1="440.90982990029573" x2="222.0608695652174" y2="440.90982990029573" stroke="#000"/>
<line x1="214.70434782608697" y1="441.38485505717546" x2="222.0608695652174" y2="441.38485505717546" stroke="#000"/>
<line x1="218.38260869565218" y1="440.90982990029573" x2="218.38260869565218" y2="441.38485505717546" stroke="#000"/>
<rect x="222.06086956521742" y="443.37088435302377" width="7.356521739130435" height="54.62911564697615" fill="green" data-tooltip="1.02x baseline speed (MJIT)"/>
<line x1="222.06086956521742" y1="442.41311639463964" x2="229.41739130434786" y2="442.41311639463964" stroke="#000"/>
<line x1="222.06086956521742" y1="444.32865231140784" x2="229.41739130434786" y2="444.32865231140784" stroke="#000"/>
<line x1="225.73913043478262" y1="442.41311639463964" x2="225.73913043478262" y2="444.32865231140784" stroke="#000"/>
<rect x="229.41739130434786" y="437.6158550673195" width="7.356521739130435" height="60.384144932680414" fill="#4F3A7A" data-tooltip="1.13x baseline speed (YJIT)"/>
<line x1="229.41739130434786" y1="437.3742138043452" x2="236.77391304347827" y2="437.3742138043452" stroke="#000"/>
<line x1="229.41739130434786" y1="437.85749633029377" x2="236.77391304347827" y2="437.85749633029377" stroke="#000"/>
<line x1="233.09565217391307" y1="437.3742138043452" x2="233.09565217391307" y2="437.85749633029377" stroke="#000"/>
<line x1="225.73913043478262" y1="498.0" x2="225.73913043478262" y2="502.79999999999995" stroke="#000"/>
<text x="225.73913043478262" y="512.4" fill="#111" font-size="small" font-family="monospace" font-weight="bold" text-anchor="end" transform="rotate(-60, 225.73913043478262, 512.4)">
mail
</text>
<rect x="244.13043478260872" y="444.6651494344336" width="7.356521739130435" height="53.33485056556634" fill="#7070f8" data-tooltip="1.00x baseline speed (No JIT)"/>
<line x1="244.13043478260872" y1="444.6358074493201" x2="251.48695652173913" y2="444.6358074493201" stroke="#000"/>
<line x1="244.13043478260872" y1="444.6944914195471" x2="251.48695652173913" y2="444.6944914195471" stroke="#000"/>
<line x1="247.80869565217392" y1="444.6358074493201" x2="247.80869565217392" y2="444.6944914195471" stroke="#000"/>
<rect x="251.48695652173913" y="444.7242506174875" width="7.356521739130435" height="53.27574938251242" fill="orange" data-tooltip="1.00x baseline speed (MJIT3.0)"/>
<line x1="251.48695652173913" y1="444.6854090447992" x2="258.8434782608696" y2="444.6854090447992" stroke="#000"/>
<line x1="251.48695652173913" y1="444.7630921901758" x2="258.8434782608696" y2="444.7630921901758" stroke="#000"/>
<line x1="255.16521739130437" y1="444.6854090447992" x2="255.16521739130437" y2="444.7630921901758" stroke="#000"/>
<rect x="258.8434782608696" y="437.23002856146934" width="7.356521739130435" height="60.769971438530575" fill="green" data-tooltip="1.14x baseline speed (MJIT)"/>
<line x1="258.8434782608696" y1="437.1730149150776" x2="266.2" y2="437.1730149150776" stroke="#000"/>
<line x1="258.8434782608696" y1="437.2870422078611" x2="266.2" y2="437.2870422078611" stroke="#000"/>
<line x1="262.5217391304348" y1="437.1730149150776" x2="262.5217391304348" y2="437.2870422078611" stroke="#000"/>
<rect x="266.2" y="428.99825257907304" width="7.356521739130435" height="69.00174742092685" fill="#4F3A7A" data-tooltip="1.29x baseline speed (YJIT)"/>
<line x1="266.2" y1="428.92558583350547" x2="273.5565217391304" y2="428.92558583350547" stroke="#000"/>
<line x1="266.2" y1="429.0709193246406" x2="273.5565217391304" y2="429.0709193246406" stroke="#000"/>
<line x1="269.8782608695652" y1="428.92558583350547" x2="269.8782608695652" y2="429.0709193246406" stroke="#000"/>
<line x1="262.5217391304348" y1="498.0" x2="262.5217391304348" y2="502.79999999999995" stroke="#000"/>
<text x="262.5217391304348" y="512.4" fill="#111" font-size="small" font-family="monospace" font-weight="bold" text-anchor="end" transform="rotate(-60, 262.5217391304348, 512.4)">
psych-load
</text>
<rect x="280.9130434782609" y="444.6651494344336" width="7.356521739130435" height="53.33485056556634" fill="#7070f8" data-tooltip="1.00x baseline speed (No JIT)"/>
<line x1="280.9130434782609" y1="444.209486909095" x2="288.2695652173913" y2="444.209486909095" stroke="#000"/>
<line x1="280.9130434782609" y1="445.12081195977214" x2="288.2695652173913" y2="445.12081195977214" stroke="#000"/>
<line x1="284.5913043478261" y1="444.209486909095" x2="284.5913043478261" y2="445.12081195977214" stroke="#000"/>
<rect x="288.2695652173913" y="450.31132987270627" width="7.356521739130435" height="47.688670127293655" fill="orange" data-tooltip="0.89x baseline speed (MJIT3.0)"/>
<line x1="288.2695652173913" y1="449.68702285965816" x2="295.6260869565217" y2="449.68702285965816" stroke="#000"/>
<line x1="288.2695652173913" y1="450.9356368857543" x2="295.6260869565217" y2="450.9356368857543" stroke="#000"/>
<line x1="291.9478260869565" y1="449.68702285965816" x2="291.9478260869565" y2="450.9356368857543" stroke="#000"/>
<rect x="295.6260869565217" y="449.2962943902418" width="7.356521739130435" height="48.70370560975809" fill="green" data-tooltip="0.91x baseline speed (MJIT)"/>
<line x1="295.6260869565217" y1="448.60354984284055" x2="302.9826086956521" y2="448.60354984284055" stroke="#000"/>
<line x1="295.6260869565217" y1="449.9890389376431" x2="302.9826086956521" y2="449.9890389376431" stroke="#000"/>
<line x1="299.30434782608694" y1="448.60354984284055" x2="299.30434782608694" y2="449.9890389376431" stroke="#000"/>
<rect x="302.9826086956521" y="428.49339162953447" width="7.356521739130435" height="69.50660837046553" fill="#4F3A7A" data-tooltip="1.30x baseline speed (YJIT)"/>
<line x1="302.9826086956521" y1="427.36062997880583" x2="310.3391304347826" y2="427.36062997880583" stroke="#000"/>
<line x1="302.9826086956521" y1="429.6261532802631" x2="310.3391304347826" y2="429.6261532802631" stroke="#000"/>
<line x1="306.66086956521735" y1="427.36062997880583" x2="306.66086956521735" y2="429.6261532802631" stroke="#000"/>
<line x1="299.30434782608694" y1="498.0" x2="299.30434782608694" y2="502.79999999999995" stroke="#000"/>
<text x="299.30434782608694" y="512.4" fill="#111" font-size="small" font-family="monospace" font-weight="bold" text-anchor="end" transform="rotate(-60, 299.30434782608694, 512.4)">
railsbench
</text>
<rect x="317.69565217391306" y="444.6651494344336" width="7.356521739130435" height="53.33485056556634" fill="#7070f8" data-tooltip="1.00x baseline speed (No JIT)"/>
<line x1="317.69565217391306" y1="444.6366456382662" x2="325.0521739130435" y2="444.6366456382662" stroke="#000"/>
<line x1="317.69565217391306" y1="444.69365323060094" x2="325.0521739130435" y2="444.69365323060094" stroke="#000"/>
<line x1="321.3739130434783" y1="444.6366456382662" x2="321.3739130434783" y2="444.69365323060094" stroke="#000"/>
<rect x="325.0521739130435" y="406.9450000275108" width="7.356521739130435" height="91.05499997248918" fill="orange" data-tooltip="1.71x baseline speed (MJIT3.0)"/>
<line x1="325.0521739130435" y1="406.6643250038042" x2="332.4086956521739" y2="406.6643250038042" stroke="#000"/>
<line x1="325.0521739130435" y1="407.22567505121737" x2="332.4086956521739" y2="407.22567505121737" stroke="#000"/>
<line x1="328.7304347826087" y1="406.6643250038042" x2="328.7304347826087" y2="407.22567505121737" stroke="#000"/>
<rect x="332.4086956521739" y="416.6289829792736" width="7.356521739130435" height="81.3710170207263" fill="green" data-tooltip="1.53x baseline speed (MJIT)"/>
<line x1="332.4086956521739" y1="416.3944805603178" x2="339.7652173913043" y2="416.3944805603178" stroke="#000"/>
<line x1="332.4086956521739" y1="416.86348539822933" x2="339.7652173913043" y2="416.86348539822933" stroke="#000"/>
<line x1="336.0869565217391" y1="416.3944805603178" x2="336.0869565217391" y2="416.86348539822933" stroke="#000"/>
<rect x="339.7652173913043" y="429.1464364982896" width="7.356521739130435" height="68.8535635017104" fill="#4F3A7A" data-tooltip="1.29x baseline speed (YJIT)"/>
<line x1="339.7652173913043" y1="429.0123422716796" x2="347.1217391304348" y2="429.0123422716796" stroke="#000"/>
<line x1="339.7652173913043" y1="429.28053072489956" x2="347.1217391304348" y2="429.28053072489956" stroke="#000"/>
<line x1="343.4434782608696" y1="429.0123422716796" x2="343.4434782608696" y2="429.28053072489956" stroke="#000"/>
<line x1="336.0869565217391" y1="498.0" x2="336.0869565217391" y2="502.79999999999995" stroke="#000"/>
<text x="336.0869565217391" y="512.4" fill="#111" font-size="small" font-family="monospace" font-weight="bold" text-anchor="end" transform="rotate(-60, 336.0869565217391, 512.4)">
binarytrees
</text>
<rect x="354.47826086956525" y="444.6651494344336" width="7.356521739130435" height="53.33485056556634" fill="#7070f8" data-tooltip="1.00x baseline speed (No JIT)"/>
<line x1="354.47826086956525" y1="427.1196496970024" x2="361.83478260869566" y2="427.1196496970024" stroke="#000"/>
<line x1="354.47826086956525" y1="462.21064917186476" x2="361.83478260869566" y2="462.21064917186476" stroke="#000"/>
<line x1="358.1565217391305" y1="427.1196496970024" x2="358.1565217391305" y2="462.21064917186476" stroke="#000"/>
<rect x="361.83478260869566" y="443.98513341097697" width="7.356521739130435" height="54.014866589023015" fill="orange" data-tooltip="1.01x baseline speed (MJIT3.0)"/>
<line x1="361.83478260869566" y1="426.0752083443876" x2="369.1913043478261" y2="426.0752083443876" stroke="#000"/>
<line x1="361.83478260869566" y1="461.8950584775663" x2="369.1913043478261" y2="461.8950584775663" stroke="#000"/>
<line x1="365.5130434782609" y1="426.0752083443876" x2="365.5130434782609" y2="461.8950584775663" stroke="#000"/>
<rect x="369.1913043478261" y="444.42039111431046" width="7.356521739130435" height="53.579608885689495" fill="green" data-tooltip="1.00x baseline speed (MJIT)"/>
<line x1="369.1913043478261" y1="426.36862954343536" x2="376.54782608695655" y2="426.36862954343536" stroke="#000"/>
<line x1="369.1913043478261" y1="462.4721526851856" x2="376.54782608695655" y2="462.4721526851856" stroke="#000"/>
<line x1="372.86956521739137" y1="426.36862954343536" x2="372.86956521739137" y2="462.4721526851856" stroke="#000"/>
<rect x="376.54782608695655" y="447.12811952075367" width="7.356521739130435" height="50.87188047924625" fill="#4F3A7A" data-tooltip="0.95x baseline speed (YJIT)"/>
<line x1="376.54782608695655" y1="422.0239466146797" x2="383.90434782608696" y2="422.0239466146797" stroke="#000"/>
<line x1="376.54782608695655" y1="472.23229242682766" x2="383.90434782608696" y2="472.23229242682766" stroke="#000"/>
<line x1="380.2260869565218" y1="422.0239466146797" x2="380.2260869565218" y2="472.23229242682766" stroke="#000"/>
<line x1="372.86956521739137" y1="498.0" x2="372.86956521739137" y2="502.79999999999995" stroke="#000"/>
<text x="372.86956521739137" y="512.4" fill="#111" font-size="small" font-family="monospace" font-weight="bold" text-anchor="end" transform="rotate(-60, 372.86956521739137, 512.4)">
discourse
</text>
<rect x="391.26086956521743" y="444.6651494344336" width="7.356521739130435" height="53.33485056556634" fill="#7070f8" data-tooltip="1.00x baseline speed (No JIT)"/>
<line x1="391.26086956521743" y1="444.29299461272115" x2="398.61739130434785" y2="444.29299461272115" stroke="#000"/>
<line x1="391.26086956521743" y1="445.037304256146" x2="398.61739130434785" y2="445.037304256146" stroke="#000"/>
<line x1="394.93913043478267" y1="444.29299461272115" x2="394.93913043478267" y2="445.037304256146" stroke="#000"/>
<rect x="398.61739130434785" y="445.0361711481952" width="7.356521739130435" height="52.96382885180467" fill="orange" data-tooltip="0.99x baseline speed (MJIT3.0)"/>
<line x1="398.61739130434785" y1="444.4689100389775" x2="405.9739130434783" y2="444.4689100389775" stroke="#000"/>
<line x1="398.61739130434785" y1="445.6034322574129" x2="405.9739130434783" y2="445.6034322574129" stroke="#000"/>
<line x1="402.2956521739131" y1="444.4689100389775" x2="402.2956521739131" y2="445.6034322574129" stroke="#000"/>
<rect x="405.9739130434783" y="440.6801607562668" width="7.356521739130435" height="57.319839243733185" fill="green" data-tooltip="1.07x baseline speed (MJIT)"/>
<line x1="405.9739130434783" y1="440.1252281493761" x2="413.33043478260873" y2="440.1252281493761" stroke="#000"/>
<line x1="405.9739130434783" y1="441.2350933631575" x2="413.33043478260873" y2="441.2350933631575" stroke="#000"/>
<line x1="409.65217391304355" y1="440.1252281493761" x2="409.65217391304355" y2="441.2350933631575" stroke="#000"/>
<rect x="413.33043478260873" y="439.4328216700419" width="7.356521739130435" height="58.56717832995801" fill="#4F3A7A" data-tooltip="1.10x baseline speed (YJIT)"/>
<line x1="413.33043478260873" y1="438.820932452994" x2="420.68695652173915" y2="438.820932452994" stroke="#000"/>
<line x1="413.33043478260873" y1="440.0447108870899" x2="420.68695652173915" y2="440.0447108870899" stroke="#000"/>
<line x1="417.00869565217397" y1="438.820932452994" x2="417.00869565217397" y2="440.0447108870899" stroke="#000"/>
<line x1="409.65217391304355" y1="498.0" x2="409.65217391304355" y2="502.79999999999995" stroke="#000"/>
<text x="409.65217391304355" y="512.4" fill="#111" font-size="small" font-family="monospace" font-weight="bold" text-anchor="end" transform="rotate(-60, 409.65217391304355, 512.4)">
erubi
</text>
<rect x="428.0434782608696" y="444.6651494344336" width="7.356521739130435" height="53.33485056556634" fill="#7070f8" data-tooltip="1.00x baseline speed (No JIT)"/>
<line x1="428.0434782608696" y1="443.37655933697437" x2="435.4000000000001" y2="443.37655933697437" stroke="#000"/>
<line x1="428.0434782608696" y1="445.9537395318928" x2="435.4000000000001" y2="445.9537395318928" stroke="#000"/>
<line x1="431.72173913043486" y1="443.37655933697437" x2="431.72173913043486" y2="445.9537395318928" stroke="#000"/>
<rect x="435.4000000000001" y="447.15633511218186" width="7.356521739130435" height="50.84366488781801" fill="orange" data-tooltip="0.95x baseline speed (MJIT3.0)"/>
<line x1="435.4000000000001" y1="445.4000438287046" x2="442.7565217391305" y2="445.4000438287046" stroke="#000"/>
<line x1="435.4000000000001" y1="448.9126263956591" x2="442.7565217391305" y2="448.9126263956591" stroke="#000"/>
<line x1="439.0782608695653" y1="445.4000438287046" x2="439.0782608695653" y2="448.9126263956591" stroke="#000"/>
<rect x="442.7565217391305" y="446.78068545639917" width="7.356521739130435" height="51.21931454360078" fill="green" data-tooltip="0.96x baseline speed (MJIT)"/>
<line x1="442.7565217391305" y1="444.4327892714526" x2="450.1130434782609" y2="444.4327892714526" stroke="#000"/>
<line x1="442.7565217391305" y1="449.1285816413458" x2="450.1130434782609" y2="449.1285816413458" stroke="#000"/>
<line x1="446.43478260869574" y1="444.4327892714526" x2="446.43478260869574" y2="449.1285816413458" stroke="#000"/>
<rect x="450.1130434782609" y="423.0783704147081" width="7.356521739130435" height="74.92162958529185" fill="#4F3A7A" data-tooltip="1.40x baseline speed (YJIT)"/>
<line x1="450.1130434782609" y1="419.97860657836" x2="457.46956521739133" y2="419.97860657836" stroke="#000"/>
<line x1="450.1130434782609" y1="426.1781342510563" x2="457.46956521739133" y2="426.1781342510563" stroke="#000"/>
<line x1="453.79130434782616" y1="419.97860657836" x2="453.79130434782616" y2="426.1781342510563" stroke="#000"/>
<line x1="446.43478260869574" y1="498.0" x2="446.43478260869574" y2="502.79999999999995" stroke="#000"/>
<text x="446.43478260869574" y="512.4" fill="#111" font-size="small" font-family="monospace" font-weight="bold" text-anchor="end" transform="rotate(-60, 446.43478260869574, 512.4)">
erubi_rails
</text>
<rect x="464.82608695652175" y="444.6651494344336" width="7.356521739130435" height="53.33485056556634" fill="#7070f8" data-tooltip="1.00x baseline speed (No JIT)"/>
<line x1="464.82608695652175" y1="444.5085110729914" x2="472.18260869565216" y2="444.5085110729914" stroke="#000"/>
<line x1="464.82608695652175" y1="444.82178779587576" x2="472.18260869565216" y2="444.82178779587576" stroke="#000"/>
<line x1="468.504347826087" y1="444.5085110729914" x2="468.504347826087" y2="444.82178779587576" stroke="#000"/>
<rect x="472.18260869565216" y="341.9886608956406" width="7.356521739130435" height="156.0113391043594" fill="orange" data-tooltip="2.93x baseline speed (MJIT3.0)"/>
<line x1="472.18260869565216" y1="341.4370084677333" x2="479.5391304347826" y2="341.4370084677333" stroke="#000"/>
<line x1="472.18260869565216" y1="342.5403133235479" x2="479.5391304347826" y2="342.5403133235479" stroke="#000"/>
<line x1="475.8608695652174" y1="341.4370084677333" x2="475.8608695652174" y2="342.5403133235479" stroke="#000"/>
<rect x="479.5391304347826" y="400.1717547087156" width="7.356521739130435" height="97.82824529128438" fill="green" data-tooltip="1.83x baseline speed (MJIT)"/>
<line x1="479.5391304347826" y1="399.8840045178182" x2="486.895652173913" y2="399.8840045178182" stroke="#000"/>
<line x1="479.5391304347826" y1="400.4595048996129" x2="486.895652173913" y2="400.4595048996129" stroke="#000"/>
<line x1="483.2173913043478" y1="399.8840045178182" x2="483.2173913043478" y2="400.4595048996129" stroke="#000"/>
<rect x="486.895652173913" y="444.62057802509196" width="7.356521739130435" height="53.379421974908" fill="#4F3A7A" data-tooltip="1.00x baseline speed (YJIT)"/>
<line x1="486.895652173913" y1="444.4595849096153" x2="494.2521739130434" y2="444.4595849096153" stroke="#000"/>
<line x1="486.895652173913" y1="444.7815711405687" x2="494.2521739130434" y2="444.7815711405687" stroke="#000"/>
<line x1="490.5739130434782" y1="444.4595849096153" x2="490.5739130434782" y2="444.7815711405687" stroke="#000"/>
<line x1="483.2173913043478" y1="498.0" x2="483.2173913043478" y2="502.79999999999995" stroke="#000"/>
<text x="483.2173913043478" y="512.4" fill="#111" font-size="small" font-family="monospace" font-weight="bold" text-anchor="end" transform="rotate(-60, 483.2173913043478, 512.4)">
fannkuchredux
</text>
<rect x="501.60869565217394" y="444.6651494344336" width="7.356521739130435" height="53.33485056556634" fill="#7070f8" data-tooltip="1.00x baseline speed (No JIT)"/>
<line x1="501.60869565217394" y1="444.0361505417815" x2="508.9652173913044" y2="444.0361505417815" stroke="#000"/>
<line x1="501.60869565217394" y1="445.2941483270856" x2="508.9652173913044" y2="445.2941483270856" stroke="#000"/>
<line x1="505.28695652173917" y1="444.0361505417815" x2="505.28695652173917" y2="445.2941483270856" stroke="#000"/>
<rect x="508.9652173913044" y="437.29156530586613" width="7.356521739130435" height="60.708434694133835" fill="orange" data-tooltip="1.14x baseline speed (MJIT3.0)"/>
<line x1="508.9652173913044" y1="436.20060456208154" x2="516.3217391304349" y2="436.20060456208154" stroke="#000"/>
<line x1="508.9652173913044" y1="438.3825260496507" x2="516.3217391304349" y2="438.3825260496507" stroke="#000"/>
<line x1="512.6434782608696" y1="436.20060456208154" x2="512.6434782608696" y2="438.3825260496507" stroke="#000"/>
<rect x="516.3217391304348" y="433.61645264251365" width="7.356521739130435" height="64.38354735748628" fill="green" data-tooltip="1.21x baseline speed (MJIT)"/>
<line x1="516.3217391304348" y1="432.3312262412043" x2="523.6782608695653" y2="432.3312262412043" stroke="#000"/>
<line x1="516.3217391304348" y1="434.901679043823" x2="523.6782608695653" y2="434.901679043823" stroke="#000"/>
<line x1="520.0" y1="432.3312262412043" x2="520.0" y2="434.901679043823" stroke="#000"/>
<rect x="523.6782608695653" y="425.7670368167019" width="7.356521739130435" height="72.23296318329811" fill="#4F3A7A" data-tooltip="1.35x baseline speed (YJIT)"/>
<line x1="523.6782608695653" y1="424.3837639931544" x2="531.0347826086958" y2="424.3837639931544" stroke="#000"/>
<line x1="523.6782608695653" y1="427.15030964024936" x2="531.0347826086958" y2="427.15030964024936" stroke="#000"/>
<line x1="527.3565217391305" y1="424.3837639931544" x2="527.3565217391305" y2="427.15030964024936" stroke="#000"/>
<line x1="520.0" y1="498.0" x2="520.0" y2="502.79999999999995" stroke="#000"/>
<text x="520.0" y="512.4" fill="#111" font-size="small" font-family="monospace" font-weight="bold" text-anchor="end" transform="rotate(-60, 520.0, 512.4)">
lee
</text>
<rect x="538.3913043478261" y="444.6651494344336" width="7.356521739130435" height="53.33485056556634" fill="#7070f8" data-tooltip="1.00x baseline speed (No JIT)"/>
<line x1="538.3913043478261" y1="444.6351229968829" x2="545.7478260869566" y2="444.6351229968829" stroke="#000"/>
<line x1="538.3913043478261" y1="444.69517587198425" x2="545.7478260869566" y2="444.69517587198425" stroke="#000"/>
<line x1="542.0695652173914" y1="444.6351229968829" x2="542.0695652173914" y2="444.69517587198425" stroke="#000"/>
<rect x="545.7478260869566" y="405.6538253169098" width="7.356521739130435" height="92.34617468309024" fill="orange" data-tooltip="1.73x baseline speed (MJIT3.0)"/>
<line x1="545.7478260869566" y1="405.5799259800248" x2="553.1043478260871" y2="405.5799259800248" stroke="#000"/>
<line x1="545.7478260869566" y1="405.7277246537948" x2="553.1043478260871" y2="405.7277246537948" stroke="#000"/>
<line x1="549.4260869565219" y1="405.5799259800248" x2="549.4260869565219" y2="405.7277246537948" stroke="#000"/>
<rect x="553.104347826087" y="406.87304578804475" width="7.356521739130435" height="91.12695421195524" fill="green" data-tooltip="1.71x baseline speed (MJIT)"/>
<line x1="553.104347826087" y1="406.8079026419915" x2="560.4608695652174" y2="406.8079026419915" stroke="#000"/>
<line x1="553.104347826087" y1="406.938188934098" x2="560.4608695652174" y2="406.938188934098" stroke="#000"/>
<line x1="556.7826086956522" y1="406.8079026419915" x2="556.7826086956522" y2="406.938188934098" stroke="#000"/>
<rect x="560.4608695652174" y="426.3870476131915" width="7.356521739130435" height="71.6129523868085" fill="#4F3A7A" data-tooltip="1.34x baseline speed (YJIT)"/>
<line x1="560.4608695652174" y1="426.08366278872023" x2="567.8173913043479" y2="426.08366278872023" stroke="#000"/>
<line x1="560.4608695652174" y1="426.69043243766276" x2="567.8173913043479" y2="426.69043243766276" stroke="#000"/>
<line x1="564.1391304347827" y1="426.08366278872023" x2="564.1391304347827" y2="426.69043243766276" stroke="#000"/>
<line x1="556.7826086956522" y1="498.0" x2="556.7826086956522" y2="502.79999999999995" stroke="#000"/>
<text x="556.7826086956522" y="512.4" fill="#111" font-size="small" font-family="monospace" font-weight="bold" text-anchor="end" transform="rotate(-60, 556.7826086956522, 512.4)">
nbody
</text>
<rect x="575.1739130434784" y="444.6651494344336" width="7.356521739130435" height="53.33485056556634" fill="#7070f8" data-tooltip="1.00x baseline speed (No JIT)"/>
<line x1="575.1739130434784" y1="444.43926403919005" x2="582.5304347826088" y2="444.43926403919005" stroke="#000"/>
<line x1="575.1739130434784" y1="444.8910348296771" x2="582.5304347826088" y2="444.8910348296771" stroke="#000"/>
<line x1="578.8521739130435" y1="444.43926403919005" x2="578.8521739130435" y2="444.8910348296771" stroke="#000"/>
<rect x="582.5304347826088" y="374.00132926846834" width="7.356521739130435" height="123.9986707315316" fill="orange" data-tooltip="2.32x baseline speed (MJIT3.0)"/>
<line x1="582.5304347826088" y1="372.2174702917146" x2="589.8869565217393" y2="372.2174702917146" stroke="#000"/>
<line x1="582.5304347826088" y1="375.7851882452221" x2="589.8869565217393" y2="375.7851882452221" stroke="#000"/>
<line x1="586.208695652174" y1="372.2174702917146" x2="586.208695652174" y2="375.7851882452221" stroke="#000"/>
<rect x="589.8869565217392" y="367.86034993367565" width="7.356521739130435" height="130.13965006632435" fill="green" data-tooltip="2.44x baseline speed (MJIT)"/>
<line x1="589.8869565217392" y1="366.90512883883764" x2="597.2434782608697" y2="366.90512883883764" stroke="#000"/>
<line x1="589.8869565217392" y1="368.8155710285136" x2="597.2434782608697" y2="368.8155710285136" stroke="#000"/>
<line x1="593.5652173913044" y1="366.90512883883764" x2="593.5652173913044" y2="368.8155710285136" stroke="#000"/>
<rect x="597.2434782608697" y="405.3201441549208" width="7.356521739130435" height="92.67985584507919" fill="#4F3A7A" data-tooltip="1.74x baseline speed (YJIT)"/>
<line x1="597.2434782608697" y1="404.6804427508953" x2="604.6000000000001" y2="404.6804427508953" stroke="#000"/>
<line x1="597.2434782608697" y1="405.9598455589463" x2="604.6000000000001" y2="405.9598455589463" stroke="#000"/>
<line x1="600.9217391304348" y1="404.6804427508953" x2="600.9217391304348" y2="405.9598455589463" stroke="#000"/>
<line x1="593.5652173913044" y1="498.0" x2="593.5652173913044" y2="502.79999999999995" stroke="#000"/>
<text x="593.5652173913044" y="512.4" fill="#111" font-size="small" font-family="monospace" font-weight="bold" text-anchor="end" transform="rotate(-60, 593.5652173913044, 512.4)">
optcarrot
</text>
<rect x="611.9565217391304" y="444.6651494344336" width="7.356521739130435" height="53.33485056556634" fill="#7070f8" data-tooltip="1.00x baseline speed (No JIT)"/>
<line x1="611.9565217391304" y1="444.4552559504299" x2="619.3130434782609" y2="444.4552559504299" stroke="#000"/>
<line x1="611.9565217391304" y1="444.87504291843726" x2="619.3130434782609" y2="444.87504291843726" stroke="#000"/>
<line x1="615.6347826086957" y1="444.4552559504299" x2="615.6347826086957" y2="444.87504291843726" stroke="#000"/>
<rect x="619.3130434782609" y="415.3828524092585" width="7.356521739130435" height="82.61714759074142" fill="orange" data-tooltip="1.55x baseline speed (MJIT3.0)"/>
<line x1="619.3130434782609" y1="414.93465229319736" x2="626.6695652173913" y2="414.93465229319736" stroke="#000"/>
<line x1="619.3130434782609" y1="415.8310525253196" x2="626.6695652173913" y2="415.8310525253196" stroke="#000"/>
<line x1="622.9913043478261" y1="414.93465229319736" x2="622.9913043478261" y2="415.8310525253196" stroke="#000"/>
<rect x="626.6695652173912" y="416.6430777951849" width="7.356521739130435" height="81.35692220481505" fill="green" data-tooltip="1.53x baseline speed (MJIT)"/>
<line x1="626.6695652173912" y1="416.2012746246338" x2="634.0260869565218" y2="416.2012746246338" stroke="#000"/>
<line x1="626.6695652173912" y1="417.08488096573603" x2="634.0260869565218" y2="417.08488096573603" stroke="#000"/>
<line x1="630.3478260869565" y1="416.2012746246338" x2="630.3478260869565" y2="417.08488096573603" stroke="#000"/>
<rect x="634.0260869565218" y="399.0940106182276" width="7.356521739130435" height="98.90598938177236" fill="#4F3A7A" data-tooltip="1.85x baseline speed (YJIT)"/>
<line x1="634.0260869565218" y1="398.56940497072657" x2="641.3826086956523" y2="398.56940497072657" stroke="#000"/>
<line x1="634.0260869565218" y1="399.61861626572863" x2="641.3826086956523" y2="399.61861626572863" stroke="#000"/>
<line x1="637.704347826087" y1="398.56940497072657" x2="637.704347826087" y2="399.61861626572863" stroke="#000"/>
<line x1="630.3478260869565" y1="498.0" x2="630.3478260869565" y2="502.79999999999995" stroke="#000"/>
<text x="630.3478260869565" y="512.4" fill="#111" font-size="small" font-family="monospace" font-weight="bold" text-anchor="end" transform="rotate(-60, 630.3478260869565, 512.4)">
rubykon
</text>
<rect x="648.7391304347826" y="444.6651494344336" width="7.356521739130435" height="53.33485056556634" fill="#7070f8" data-tooltip="1.00x baseline speed (No JIT)"/>
<line x1="648.7391304347826" y1="444.6596644913444" x2="656.0956521739131" y2="444.6596644913444" stroke="#000"/>
<line x1="648.7391304347826" y1="444.6706343775228" x2="656.0956521739131" y2="444.6706343775228" stroke="#000"/>
<line x1="652.4173913043478" y1="444.6596644913444" x2="652.4173913043478" y2="444.6706343775228" stroke="#000"/>
<rect x="656.0956521739131" y="454.2138230540291" width="7.356521739130435" height="43.78617694597088" fill="orange" data-tooltip="0.82x baseline speed (MJIT3.0)"/>
<line x1="656.0956521739131" y1="451.6427879029479" x2="663.4521739130436" y2="451.6427879029479" stroke="#000"/>
<line x1="656.0956521739131" y1="456.7848582051103" x2="663.4521739130436" y2="456.7848582051103" stroke="#000"/>
<line x1="659.7739130434783" y1="451.6427879029479" x2="659.7739130434783" y2="456.7848582051103" stroke="#000"/>
<rect x="663.4521739130435" y="464.9693010681266" width="7.356521739130435" height="33.030698931873445" fill="green" data-tooltip="0.62x baseline speed (MJIT)"/>
<line x1="663.4521739130435" y1="463.65781169345786" x2="670.8086956521739" y2="463.65781169345786" stroke="#000"/>
<line x1="663.4521739130435" y1="466.2807904427953" x2="670.8086956521739" y2="466.2807904427953" stroke="#000"/>
<line x1="667.1304347826087" y1="463.65781169345786" x2="667.1304347826087" y2="466.2807904427953" stroke="#000"/>
<rect x="670.8086956521739" y="155.4114522994332" width="7.356521739130435" height="342.5885477005668" fill="#4F3A7A" data-tooltip="6.42x baseline speed (YJIT)"/>
<line x1="670.8086956521739" y1="154.83097193626404" x2="678.1652173913044" y2="154.83097193626404" stroke="#000"/>
<line x1="670.8086956521739" y1="155.99193266260232" x2="678.1652173913044" y2="155.99193266260232" stroke="#000"/>
<line x1="674.4869565217392" y1="154.83097193626404" x2="674.4869565217392" y2="155.99193266260232" stroke="#000"/>
<line x1="667.1304347826087" y1="498.0" x2="667.1304347826087" y2="502.79999999999995" stroke="#000"/>
<text x="667.1304347826087" y="512.4" fill="#111" font-size="small" font-family="monospace" font-weight="bold" text-anchor="end" transform="rotate(-60, 667.1304347826087, 512.4)">
30k_ifelse
</text>
<rect x="685.5217391304348" y="444.6651494344336" width="7.356521739130435" height="53.33485056556634" fill="#7070f8" data-tooltip="1.00x baseline speed (No JIT)"/>
<line x1="685.5217391304348" y1="444.62410499706783" x2="692.8782608695652" y2="444.62410499706783" stroke="#000"/>
<line x1="685.5217391304348" y1="444.7061938717993" x2="692.8782608695652" y2="444.7061938717993" stroke="#000"/>
<line x1="689.2" y1="444.62410499706783" x2="689.2" y2="444.7061938717993" stroke="#000"/>
<rect x="692.8782608695652" y="463.6827933242516" width="7.356521739130435" height="34.3172066757483" fill="orange" data-tooltip="0.64x baseline speed (MJIT3.0)"/>
<line x1="692.8782608695652" y1="463.27892016963943" x2="700.2347826086958" y2="463.27892016963943" stroke="#000"/>
<line x1="692.8782608695652" y1="464.0866664788638" x2="700.2347826086958" y2="464.0866664788638" stroke="#000"/>
<line x1="696.5565217391305" y1="463.27892016963943" x2="696.5565217391305" y2="464.0866664788638" stroke="#000"/>
<rect x="700.2347826086957" y="462.10698720297876" width="7.356521739130435" height="35.89301279702119" fill="green" data-tooltip="0.67x baseline speed (MJIT)"/>
<line x1="700.2347826086957" y1="455.8014322844645" x2="707.5913043478262" y2="455.8014322844645" stroke="#000"/>
<line x1="700.2347826086957" y1="468.41254212149295" x2="707.5913043478262" y2="468.41254212149295" stroke="#000"/>
<line x1="703.9130434782609" y1="455.8014322844645" x2="703.9130434782609" y2="468.41254212149295" stroke="#000"/>
<rect x="707.5913043478262" y="100.19999999999999" width="7.356521739130435" height="397.79999999999995" fill="#4F3A7A" data-tooltip="7.46x baseline speed (YJIT)"/>
<line x1="707.5913043478262" y1="99.81401887562863" x2="714.9478260869566" y2="99.81401887562863" stroke="#000"/>
<line x1="707.5913043478262" y1="100.58598112437134" x2="714.9478260869566" y2="100.58598112437134" stroke="#000"/>
<line x1="711.2695652173913" y1="99.81401887562863" x2="711.2695652173913" y2="100.58598112437134" stroke="#000"/>
<line x1="703.9130434782609" y1="498.0" x2="703.9130434782609" y2="502.79999999999995" stroke="#000"/>
<text x="703.9130434782609" y="512.4" fill="#111" font-size="small" font-family="monospace" font-weight="bold" text-anchor="end" transform="rotate(-60, 703.9130434782609, 512.4)">
30k_methods
</text>
<rect x="722.304347826087" y="444.6651494344336" width="7.356521739130435" height="53.33485056556634" fill="#7070f8" data-tooltip="1.00x baseline speed (No JIT)"/>
<line x1="722.304347826087" y1="444.5874111900142" x2="729.6608695652175" y2="444.5874111900142" stroke="#000"/>
<line x1="722.304347826087" y1="444.7428876788529" x2="729.6608695652175" y2="444.7428876788529" stroke="#000"/>
<line x1="725.9826086956523" y1="444.5874111900142" x2="725.9826086956523" y2="444.7428876788529" stroke="#000"/>
<rect x="729.6608695652175" y="416.7977049024816" width="7.356521739130435" height="81.20229509751837" fill="orange" data-tooltip="1.52x baseline speed (MJIT3.0)"/>
<line x1="729.6608695652175" y1="416.2355159742225" x2="737.0173913043479" y2="416.2355159742225" stroke="#000"/>
<line x1="729.6608695652175" y1="417.35989383074076" x2="737.0173913043479" y2="417.35989383074076" stroke="#000"/>
<line x1="733.3391304347828" y1="416.2355159742225" x2="733.3391304347828" y2="417.35989383074076" stroke="#000"/>
<rect x="737.0173913043478" y="415.07839483921555" width="7.356521739130435" height="82.92160516078442" fill="green" data-tooltip="1.55x baseline speed (MJIT)"/>
<line x1="737.0173913043478" y1="414.9150789853745" x2="744.3739130434783" y2="414.9150789853745" stroke="#000"/>
<line x1="737.0173913043478" y1="415.2417106930566" x2="744.3739130434783" y2="415.2417106930566" stroke="#000"/>
<line x1="740.6956521739131" y1="414.9150789853745" x2="740.6956521739131" y2="415.2417106930566" stroke="#000"/>
<rect x="744.3739130434783" y="372.9162147457175" width="7.356521739130435" height="125.08378525428246" fill="#4F3A7A" data-tooltip="2.35x baseline speed (YJIT)"/>
<line x1="744.3739130434783" y1="371.8146074352339" x2="751.7304347826088" y2="371.8146074352339" stroke="#000"/>
<line x1="744.3739130434783" y1="374.0178220562012" x2="751.7304347826088" y2="374.0178220562012" stroke="#000"/>
<line x1="748.0521739130436" y1="371.8146074352339" x2="748.0521739130436" y2="374.0178220562012" stroke="#000"/>
<line x1="740.6956521739131" y1="498.0" x2="740.6956521739131" y2="502.79999999999995" stroke="#000"/>
<text x="740.6956521739131" y="512.4" fill="#111" font-size="small" font-family="monospace" font-weight="bold" text-anchor="end" transform="rotate(-60, 740.6956521739131, 512.4)">
cfunc_itself
</text>
<rect x="759.0869565217392" y="444.6651494344336" width="7.356521739130435" height="53.33485056556634" fill="#7070f8" data-tooltip="1.00x baseline speed (No JIT)"/>
<line x1="759.0869565217392" y1="444.6434790501564" x2="766.4434782608697" y2="444.6434790501564" stroke="#000"/>
<line x1="759.0869565217392" y1="444.68681981871083" x2="766.4434782608697" y2="444.68681981871083" stroke="#000"/>
<line x1="762.7652173913044" y1="444.6434790501564" x2="762.7652173913044" y2="444.68681981871083" stroke="#000"/>
<rect x="766.4434782608697" y="329.9249073491016" width="7.356521739130435" height="168.07509265089837" fill="orange" data-tooltip="3.15x baseline speed (MJIT3.0)"/>
<line x1="766.4434782608697" y1="329.639227436484" x2="773.8000000000002" y2="329.639227436484" stroke="#000"/>
<line x1="766.4434782608697" y1="330.2105872617191" x2="773.8000000000002" y2="330.2105872617191" stroke="#000"/>
<line x1="770.1217391304349" y1="329.639227436484" x2="770.1217391304349" y2="330.2105872617191" stroke="#000"/>
<rect x="773.8000000000001" y="327.3923643155311" width="7.356521739130435" height="170.6076356844689" fill="green" data-tooltip="3.20x baseline speed (MJIT)"/>
<line x1="773.8000000000001" y1="327.0375562209847" x2="781.1565217391305" y2="327.0375562209847" stroke="#000"/>
<line x1="773.8000000000001" y1="327.7471724100775" x2="781.1565217391305" y2="327.7471724100775" stroke="#000"/>
<line x1="777.4782608695652" y1="327.0375562209847" x2="777.4782608695652" y2="327.7471724100775" stroke="#000"/>
<rect x="781.1565217391305" y="291.85893127883793" width="7.356521739130435" height="206.14106872116201" fill="#4F3A7A" data-tooltip="3.87x baseline speed (YJIT)"/>
<line x1="781.1565217391305" y1="290.6851627745082" x2="788.513043478261" y2="290.6851627745082" stroke="#000"/>
<line x1="781.1565217391305" y1="293.03269978316763" x2="788.513043478261" y2="293.03269978316763" stroke="#000"/>
<line x1="784.8347826086957" y1="290.6851627745082" x2="784.8347826086957" y2="293.03269978316763" stroke="#000"/>
<line x1="777.4782608695652" y1="498.0" x2="777.4782608695652" y2="502.79999999999995" stroke="#000"/>
<text x="777.4782608695652" y="512.4" fill="#111" font-size="small" font-family="monospace" font-weight="bold" text-anchor="end" transform="rotate(-60, 777.4782608695652, 512.4)">
fib
</text>
<rect x="795.8695652173913" y="444.6651494344336" width="7.356521739130435" height="53.33485056556634" fill="#7070f8" data-tooltip="1.00x baseline speed (No JIT)"/>
<line x1="795.8695652173913" y1="444.3742824601785" x2="803.2260869565217" y2="444.3742824601785" stroke="#000"/>
<line x1="795.8695652173913" y1="444.9560164086887" x2="803.2260869565217" y2="444.9560164086887" stroke="#000"/>
<line x1="799.5478260869565" y1="444.3742824601785" x2="799.5478260869565" y2="444.9560164086887" stroke="#000"/>
<rect x="803.2260869565217" y="332.86049943944323" width="7.356521739130435" height="165.13950056055674" fill="orange" data-tooltip="3.10x baseline speed (MJIT3.0)"/>
<line x1="803.2260869565217" y1="192.19406167339923" x2="810.5826086956522" y2="192.19406167339923" stroke="#000"/>
<line x1="803.2260869565217" y1="473.5269372054873" x2="810.5826086956522" y2="473.5269372054873" stroke="#000"/>
<line x1="806.904347826087" y1="192.19406167339923" x2="806.904347826087" y2="473.5269372054873" stroke="#000"/>
<rect x="810.5826086956521" y="292.7517897790576" width="7.356521739130435" height="205.24821022094235" fill="green" data-tooltip="3.85x baseline speed (MJIT)"/>
<line x1="810.5826086956521" y1="163.47722388668552" x2="817.9391304347827" y2="163.47722388668552" stroke="#000"/>
<line x1="810.5826086956521" y1="422.0263556714297" x2="817.9391304347827" y2="422.0263556714297" stroke="#000"/>
<line x1="814.2608695652174" y1="163.47722388668552" x2="814.2608695652174" y2="422.0263556714297" stroke="#000"/>
<rect x="817.9391304347827" y="372.66259870636407" width="7.356521739130435" height="125.3374012936359" fill="#4F3A7A" data-tooltip="2.35x baseline speed (YJIT)"/>
<line x1="817.9391304347827" y1="371.603561148651" x2="825.2956521739131" y2="371.603561148651" stroke="#000"/>
<line x1="817.9391304347827" y1="373.7216362640772" x2="825.2956521739131" y2="373.7216362640772" stroke="#000"/>
<line x1="821.6173913043478" y1="371.603561148651" x2="821.6173913043478" y2="373.7216362640772" stroke="#000"/>
<line x1="814.2608695652174" y1="498.0" x2="814.2608695652174" y2="502.79999999999995" stroke="#000"/>
<text x="814.2608695652174" y="512.4" fill="#111" font-size="small" font-family="monospace" font-weight="bold" text-anchor="end" transform="rotate(-60, 814.2608695652174, 512.4)">
getivar
</text>
<rect x="832.6521739130435" y="444.6651494344336" width="7.356521739130435" height="53.33485056556634" fill="#7070f8" data-tooltip="1.00x baseline speed (No JIT)"/>
<line x1="832.6521739130435" y1="444.62576007561887" x2="840.008695652174" y2="444.62576007561887" stroke="#000"/>
<line x1="832.6521739130435" y1="444.7045387932483" x2="840.008695652174" y2="444.7045387932483" stroke="#000"/>
<line x1="836.3304347826087" y1="444.62576007561887" x2="836.3304347826087" y2="444.7045387932483" stroke="#000"/>
<rect x="840.008695652174" y="433.8337067437771" width="7.356521739130435" height="64.1662932562229" fill="orange" data-tooltip="1.20x baseline speed (MJIT3.0)"/>
<line x1="840.008695652174" y1="433.1397318402241" x2="847.3652173913044" y2="433.1397318402241" stroke="#000"/>
<line x1="840.008695652174" y1="434.52768164733016" x2="847.3652173913044" y2="434.52768164733016" stroke="#000"/>
<line x1="843.6869565217391" y1="433.1397318402241" x2="843.6869565217391" y2="434.52768164733016" stroke="#000"/>
<rect x="847.3652173913043" y="432.2756075018895" width="7.356521739130435" height="65.72439249811038" fill="green" data-tooltip="1.23x baseline speed (MJIT)"/>
<line x1="847.3652173913043" y1="431.36737679095734" x2="854.7217391304348" y2="431.36737679095734" stroke="#000"/>
<line x1="847.3652173913043" y1="433.1838382128217" x2="854.7217391304348" y2="433.1838382128217" stroke="#000"/>
<line x1="851.0434782608696" y1="431.36737679095734" x2="851.0434782608696" y2="433.1838382128217" stroke="#000"/>
<rect x="854.7217391304348" y="212.2858418950094" width="7.356521739130435" height="285.71415810499053" fill="#4F3A7A" data-tooltip="5.36x baseline speed (YJIT)"/>
<line x1="854.7217391304348" y1="210.41434683020316" x2="862.0782608695653" y2="210.41434683020316" stroke="#000"/>
<line x1="854.7217391304348" y1="214.15733695981567" x2="862.0782608695653" y2="214.15733695981567" stroke="#000"/>
<line x1="858.4000000000001" y1="210.41434683020316" x2="858.4000000000001" y2="214.15733695981567" stroke="#000"/>
<line x1="851.0434782608696" y1="498.0" x2="851.0434782608696" y2="502.79999999999995" stroke="#000"/>
<text x="851.0434782608696" y="512.4" fill="#111" font-size="small" font-family="monospace" font-weight="bold" text-anchor="end" transform="rotate(-60, 851.0434782608696, 512.4)">
keyword_args
</text>
<rect x="869.4347826086956" y="444.6651494344336" width="7.356521739130435" height="53.33485056556634" fill="#7070f8" data-tooltip="1.00x baseline speed (No JIT)"/>
<line x1="869.4347826086956" y1="444.61786573114995" x2="876.7913043478261" y2="444.61786573114995" stroke="#000"/>
<line x1="869.4347826086956" y1="444.7124331377172" x2="876.7913043478261" y2="444.7124331377172" stroke="#000"/>
<line x1="873.1130434782609" y1="444.61786573114995" x2="873.1130434782609" y2="444.7124331377172" stroke="#000"/>
<rect x="876.7913043478261" y="433.49757680265395" width="7.356521739130435" height="64.50242319734592" fill="orange" data-tooltip="1.21x baseline speed (MJIT3.0)"/>
<line x1="876.7913043478261" y1="432.5341591965218" x2="884.1478260869567" y2="432.5341591965218" stroke="#000"/>
<line x1="876.7913043478261" y1="434.4609944087862" x2="884.1478260869567" y2="434.4609944087862" stroke="#000"/>
<line x1="880.4695652173914" y1="432.5341591965218" x2="880.4695652173914" y2="434.4609944087862" stroke="#000"/>
<rect x="884.1478260869566" y="434.28853949556066" width="7.356521739130435" height="63.71146050443927" fill="green" data-tooltip="1.19x baseline speed (MJIT)"/>
<line x1="884.1478260869566" y1="433.987321227616" x2="891.504347826087" y2="433.987321227616" stroke="#000"/>
<line x1="884.1478260869566" y1="434.58975776350536" x2="891.504347826087" y2="434.58975776350536" stroke="#000"/>
<line x1="887.8260869565217" y1="433.987321227616" x2="887.8260869565217" y2="434.58975776350536" stroke="#000"/>
<rect x="891.504347826087" y="423.4269766147474" width="7.356521739130435" height="74.57302338525255" fill="#4F3A7A" data-tooltip="1.40x baseline speed (YJIT)"/>
<line x1="891.504347826087" y1="423.22583660988073" x2="898.8608695652175" y2="423.22583660988073" stroke="#000"/>
<line x1="891.504347826087" y1="423.628116619614" x2="898.8608695652175" y2="423.628116619614" stroke="#000"/>
<line x1="895.1826086956522" y1="423.22583660988073" x2="895.1826086956522" y2="423.628116619614" stroke="#000"/>
<line x1="887.8260869565217" y1="498.0" x2="887.8260869565217" y2="502.79999999999995" stroke="#000"/>
<text x="887.8260869565217" y="512.4" fill="#111" font-size="small" font-family="monospace" font-weight="bold" text-anchor="end" transform="rotate(-60, 887.8260869565217, 512.4)">
respond_to
</text>
<rect x="906.2173913043479" y="444.6651494344336" width="7.356521739130435" height="53.33485056556634" fill="#7070f8" data-tooltip="1.00x baseline speed (No JIT)"/>
<line x1="906.2173913043479" y1="444.6341632420144" x2="913.5739130434783" y2="444.6341632420144" stroke="#000"/>
<line x1="906.2173913043479" y1="444.69613562685277" x2="913.5739130434783" y2="444.69613562685277" stroke="#000"/>
<line x1="909.895652173913" y1="444.6341632420144" x2="909.895652173913" y2="444.69613562685277" stroke="#000"/>
<rect x="913.5739130434783" y="198.3477311866734" width="7.356521739130435" height="299.65226881332654" fill="orange" data-tooltip="5.62x baseline speed (MJIT3.0)"/>
<line x1="913.5739130434783" y1="-166.8914586917659" x2="920.9304347826088" y2="-166.8914586917659" stroke="#000"/>
<line x1="913.5739130434783" y1="563.5869210651127" x2="920.9304347826088" y2="563.5869210651127" stroke="#000"/>
<line x1="917.2521739130436" y1="-166.8914586917659" x2="917.2521739130436" y2="563.5869210651127" stroke="#000"/>
<rect x="920.9304347826087" y="150.6645882520776" width="7.356521739130435" height="347.3354117479223" fill="green" data-tooltip="6.51x baseline speed (MJIT)"/>
<line x1="920.9304347826087" y1="-211.37525251898498" x2="928.2869565217392" y2="-211.37525251898498" stroke="#000"/>
<line x1="920.9304347826087" y1="512.7044290231402" x2="928.2869565217392" y2="512.7044290231402" stroke="#000"/>
<line x1="924.608695652174" y1="-211.37525251898498" x2="924.608695652174" y2="512.7044290231402" stroke="#000"/>
<rect x="928.2869565217392" y="419.2371127051048" width="7.356521739130435" height="78.76288729489515" fill="#4F3A7A" data-tooltip="1.48x baseline speed (YJIT)"/>
<line x1="928.2869565217392" y1="418.7952307077407" x2="935.6434782608696" y2="418.7952307077407" stroke="#000"/>
<line x1="928.2869565217392" y1="419.6789947024688" x2="935.6434782608696" y2="419.6789947024688" stroke="#000"/>
<line x1="931.9652173913045" y1="418.7952307077407" x2="931.9652173913045" y2="419.6789947024688" stroke="#000"/>
<line x1="924.608695652174" y1="498.0" x2="924.608695652174" y2="502.79999999999995" stroke="#000"/>
<text x="924.608695652174" y="512.4" fill="#111" font-size="small" font-family="monospace" font-weight="bold" text-anchor="end" transform="rotate(-60, 924.608695652174, 512.4)">
setivar
</text>
</svg>