<svg viewBox="0 0 1000 600" xmlns="http://www.w3.org/2000/svg" xmlns:xlink="http://www.w3.org/1999/xlink" width="100%" height="100%">

<rect x="50.0" y="30.0" width="940.0" height="467.99999999999994" stroke="#000" fill="#EEE"/>
<line x1="42.0" y1="497.9999999999999" x2="50.0" y2="497.9999999999999" stroke="#000"/>
<text x="26.000000000000004" y="497.9999999999999" text-anchor="end" font-weight="bold" font-size="small" fill="#111">
0.0
</text>
<line x1="42.0" y1="405.8121345999925" x2="50.0" y2="405.8121345999925" stroke="#000"/>
<text x="26.000000000000004" y="405.8121345999925" text-anchor="end" font-weight="bold" font-size="small" fill="#111">
2.0
</text>
<line x1="42.0" y1="313.62426919998495" x2="50.0" y2="313.62426919998495" stroke="#000"/>
<text x="26.000000000000004" y="313.62426919998495" text-anchor="end" font-weight="bold" font-size="small" fill="#111">
4.0
</text>
<line x1="42.0" y1="221.43640379997748" x2="50.0" y2="221.43640379997748" stroke="#000"/>
<text x="26.000000000000004" y="221.43640379997748" text-anchor="end" font-weight="bold" font-size="small" fill="#111">
6.0
</text>
<line x1="42.0" y1="129.24853839997004" x2="50.0" y2="129.24853839997004" stroke="#000"/>
<text x="26.000000000000004" y="129.24853839997004" text-anchor="end" font-weight="bold" font-size="small" fill="#111">
8.0
</text>
<rect x="268.5" y="36.00000000000001" width="80.0" height="18.0" fill="#7070f8" stroke="#888"/>
<text x="308.5" y="52.50000000000001" font-size="small" text-anchor="middle" font-weight="bold" fill="#EEE">
No JIT
</text>
<rect x="691.4999999999999" y="36.00000000000001" width="80.0" height="18.0" fill="orange" stroke="#888"/>
<text x="731.4999999999999" y="52.50000000000001" font-size="small" text-anchor="middle" font-weight="bold" fill="#EEE">
YJIT
</text>
<rect x="97.0" y="451.9060672999962" width="31.333333333333332" height="46.093932700003734" fill="#7070f8" data-tooltip="1.00x baseline speed (No JIT)"/>
<line x1="97.0" y1="451.9022871005329" x2="128.33333333333331" y2="451.9022871005329" stroke="#000"/>
<line x1="97.0" y1="451.90984749945954" x2="128.33333333333331" y2="451.90984749945954" stroke="#000"/>
<line x1="112.66666666666667" y1="451.9022871005329" x2="112.66666666666667" y2="451.90984749945954" stroke="#000"/>
<rect x="128.33333333333331" y="194.37536007700947" width="31.333333333333332" height="303.62463992299047" fill="orange" data-tooltip="6.59x baseline speed (YJIT)"/>
<line x1="128.33333333333331" y1="193.78669041674814" x2="159.66666666666666" y2="193.78669041674814" stroke="#000"/>
<line x1="128.33333333333331" y1="194.9640297372708" x2="159.66666666666666" y2="194.9640297372708" stroke="#000"/>
<line x1="144.0" y1="193.78669041674814" x2="144.0" y2="194.9640297372708" stroke="#000"/>
<line x1="144.00000000000003" y1="498.0" x2="144.00000000000003" y2="502.79999999999995" stroke="#000"/>
<text x="144.00000000000003" y="512.4" fill="#111" font-size="small" font-family="monospace" font-weight="bold" text-anchor="end" transform="rotate(-60, 144.00000000000003, 512.4)">
30k_ifelse
</text>
<rect x="191.0" y="451.9060672999962" width="31.333333333333332" height="46.093932700003734" fill="#7070f8" data-tooltip="1.00x baseline speed (No JIT)"/>
<line x1="191.0" y1="451.9048028600076" x2="222.33333333333331" y2="451.9048028600076" stroke="#000"/>
<line x1="191.0" y1="451.90733173998484" x2="222.33333333333331" y2="451.90733173998484" stroke="#000"/>
<line x1="206.66666666666666" y1="451.9048028600076" x2="206.66666666666666" y2="451.90733173998484" stroke="#000"/>
<rect x="222.33333333333331" y="147.8168248696573" width="31.333333333333332" height="350.18317513034265" fill="orange" data-tooltip="7.60x baseline speed (YJIT)"/>
<line x1="222.33333333333331" y1="147.65762311183957" x2="253.66666666666666" y2="147.65762311183957" stroke="#000"/>
<line x1="222.33333333333331" y1="147.97602662747505" x2="253.66666666666666" y2="147.97602662747505" stroke="#000"/>
<line x1="238.0" y1="147.65762311183957" x2="238.0" y2="147.97602662747505" stroke="#000"/>
<line x1="238.0" y1="498.0" x2="238.0" y2="502.79999999999995" stroke="#000"/>
<text x="238.0" y="512.4" fill="#111" font-size="small" font-family="monospace" font-weight="bold" text-anchor="end" transform="rotate(-60, 238.0, 512.4)">
30k_methods
</text>
<rect x="285.00000000000006" y="451.9060672999962" width="31.333333333333332" height="46.093932700003734" fill="#7070f8" data-tooltip="1.00x baseline speed (No JIT)"/>
<line x1="285.00000000000006" y1="451.8334049983605" x2="316.33333333333337" y2="451.8334049983605" stroke="#000"/>
<line x1="285.00000000000006" y1="451.9787296016319" x2="316.33333333333337" y2="451.9787296016319" stroke="#000"/>
<line x1="300.6666666666667" y1="451.8334049983605" x2="300.6666666666667" y2="451.9787296016319" stroke="#000"/>
<rect x="316.33333333333337" y="375.5900742090628" width="31.333333333333332" height="122.40992579093717" fill="orange" data-tooltip="2.66x baseline speed (YJIT)"/>
<line x1="316.33333333333337" y1="375.2678416614541" x2="347.6666666666667" y2="375.2678416614541" stroke="#000"/>
<line x1="316.33333333333337" y1="375.91230675667146" x2="347.6666666666667" y2="375.91230675667146" stroke="#000"/>
<line x1="332.0" y1="375.2678416614541" x2="332.0" y2="375.91230675667146" stroke="#000"/>
<line x1="332.0" y1="498.0" x2="332.0" y2="502.79999999999995" stroke="#000"/>
<text x="332.0" y="512.4" fill="#111" font-size="small" font-family="monospace" font-weight="bold" text-anchor="end" transform="rotate(-60, 332.0, 512.4)">
cfunc_itself
</text>
<rect x="379.0" y="451.9060672999962" width="31.333333333333332" height="46.093932700003734" fill="#7070f8" data-tooltip="1.00x baseline speed (No JIT)"/>
<line x1="379.0" y1="451.8469004567296" x2="410.3333333333333" y2="451.8469004567296" stroke="#000"/>
<line x1="379.0" y1="451.9652341432628" x2="410.3333333333333" y2="451.9652341432628" stroke="#000"/>
<line x1="394.6666666666667" y1="451.8469004567296" x2="394.6666666666667" y2="451.9652341432628" stroke="#000"/>
<rect x="410.3333333333333" y="310.21604099577644" width="31.333333333333332" height="187.78395900422353" fill="orange" data-tooltip="4.07x baseline speed (YJIT)"/>
<line x1="410.3333333333333" y1="309.96072546970265" x2="441.66666666666663" y2="309.96072546970265" stroke="#000"/>
<line x1="410.3333333333333" y1="310.47135652185017" x2="441.66666666666663" y2="310.47135652185017" stroke="#000"/>
<line x1="426.0" y1="309.96072546970265" x2="426.0" y2="310.47135652185017" stroke="#000"/>
<line x1="426.0" y1="498.0" x2="426.0" y2="502.79999999999995" stroke="#000"/>
<text x="426.0" y="512.4" fill="#111" font-size="small" font-family="monospace" font-weight="bold" text-anchor="end" transform="rotate(-60, 426.0, 512.4)">
fib
</text>
<rect x="473.0" y="451.9060672999962" width="31.333333333333332" height="46.093932700003734" fill="#7070f8" data-tooltip="1.00x baseline speed (No JIT)"/>
<line x1="473.0" y1="451.8420525739564" x2="504.3333333333333" y2="451.8420525739564" stroke="#000"/>
<line x1="473.0" y1="451.97008202603604" x2="504.3333333333333" y2="451.97008202603604" stroke="#000"/>
<line x1="488.66666666666663" y1="451.8420525739564" x2="488.66666666666663" y2="451.97008202603604" stroke="#000"/>
<rect x="504.3333333333333" y="381.3645569043977" width="31.333333333333332" height="116.6354430956022" fill="orange" data-tooltip="2.53x baseline speed (YJIT)"/>
<line x1="504.3333333333333" y1="381.1908325374259" x2="535.6666666666666" y2="381.1908325374259" stroke="#000"/>
<line x1="504.3333333333333" y1="381.5382812713696" x2="535.6666666666666" y2="381.5382812713696" stroke="#000"/>
<line x1="520.0" y1="381.1908325374259" x2="520.0" y2="381.5382812713696" stroke="#000"/>
<line x1="520.0" y1="498.0" x2="520.0" y2="502.79999999999995" stroke="#000"/>
<text x="520.0" y="512.4" fill="#111" font-size="small" font-family="monospace" font-weight="bold" text-anchor="end" transform="rotate(-60, 520.0, 512.4)">
getivar
</text>
<rect x="567.0" y="451.9060672999962" width="31.333333333333332" height="46.093932700003734" fill="#7070f8" data-tooltip="1.00x baseline speed (No JIT)"/>
<line x1="567.0" y1="451.8566679447336" x2="598.3333333333333" y2="451.8566679447336" stroke="#000"/>
<line x1="567.0" y1="451.95546665525876" x2="598.3333333333333" y2="451.95546665525876" stroke="#000"/>
<line x1="582.6666666666666" y1="451.8566679447336" x2="582.6666666666666" y2="451.95546665525876" stroke="#000"/>
<rect x="598.3333333333333" y="239.4295208663625" width="31.333333333333332" height="258.5704791336375" fill="orange" data-tooltip="5.61x baseline speed (YJIT)"/>
<line x1="598.3333333333333" y1="238.33466619953165" x2="629.6666666666666" y2="238.33466619953165" stroke="#000"/>
<line x1="598.3333333333333" y1="240.52437553319336" x2="629.6666666666666" y2="240.52437553319336" stroke="#000"/>
<line x1="614.0" y1="238.33466619953165" x2="614.0" y2="240.52437553319336" stroke="#000"/>
<line x1="614.0" y1="498.0" x2="614.0" y2="502.79999999999995" stroke="#000"/>
<text x="614.0" y="512.4" fill="#111" font-size="small" font-family="monospace" font-weight="bold" text-anchor="end" transform="rotate(-60, 614.0, 512.4)">
keyword_args
</text>
<rect x="661.0" y="451.9060672999962" width="31.333333333333332" height="46.093932700003734" fill="#7070f8" data-tooltip="1.00x baseline speed (No JIT)"/>
<line x1="661.0" y1="451.85197233080874" x2="692.3333333333334" y2="451.85197233080874" stroke="#000"/>
<line x1="661.0" y1="451.9601622691837" x2="692.3333333333334" y2="451.9601622691837" stroke="#000"/>
<line x1="676.6666666666667" y1="451.85197233080874" x2="676.6666666666667" y2="451.9601622691837" stroke="#000"/>
<rect x="692.3333333333334" y="100.19999999999999" width="31.333333333333332" height="397.79999999999995" fill="orange" data-tooltip="8.63x baseline speed (YJIT)"/>
<line x1="692.3333333333334" y1="98.4372603674688" x2="723.6666666666666" y2="98.4372603674688" stroke="#000"/>
<line x1="692.3333333333334" y1="101.96273963253118" x2="723.6666666666666" y2="101.96273963253118" stroke="#000"/>
<line x1="708.0000000000001" y1="98.4372603674688" x2="708.0000000000001" y2="101.96273963253118" stroke="#000"/>
<line x1="708.0000000000001" y1="498.0" x2="708.0000000000001" y2="502.79999999999995" stroke="#000"/>
<text x="708.0000000000001" y="512.4" fill="#111" font-size="small" font-family="monospace" font-weight="bold" text-anchor="end" transform="rotate(-60, 708.0000000000001, 512.4)">
respond_to
</text>
<rect x="755.0" y="451.9060672999962" width="31.333333333333332" height="46.093932700003734" fill="#7070f8" data-tooltip="1.00x baseline speed (No JIT)"/>
<line x1="755.0" y1="451.68329351119644" x2="786.3333333333334" y2="451.68329351119644" stroke="#000"/>
<line x1="755.0" y1="452.128841088796" x2="786.3333333333334" y2="452.128841088796" stroke="#000"/>
<line x1="770.6666666666667" y1="451.68329351119644" x2="770.6666666666667" y2="452.128841088796" stroke="#000"/>
<rect x="786.3333333333334" y="415.62768977297685" width="31.333333333333332" height="82.37231022702309" fill="orange" data-tooltip="1.79x baseline speed (YJIT)"/>
<line x1="786.3333333333334" y1="415.2236684350166" x2="817.6666666666666" y2="415.2236684350166" stroke="#000"/>
<line x1="786.3333333333334" y1="416.03171111093707" x2="817.6666666666666" y2="416.03171111093707" stroke="#000"/>
<line x1="802.0" y1="415.2236684350166" x2="802.0" y2="416.03171111093707" stroke="#000"/>
<line x1="802.0" y1="498.0" x2="802.0" y2="502.79999999999995" stroke="#000"/>
<text x="802.0" y="512.4" fill="#111" font-size="small" font-family="monospace" font-weight="bold" text-anchor="end" transform="rotate(-60, 802.0, 512.4)">
setivar
</text>
<rect x="849.0" y="451.9060672999962" width="31.333333333333332" height="46.093932700003734" fill="#7070f8" data-tooltip="1.00x baseline speed (No JIT)"/>
<line x1="849.0" y1="451.4024039285761" x2="880.3333333333333" y2="451.4024039285761" stroke="#000"/>
<line x1="849.0" y1="452.4097306714163" x2="880.3333333333333" y2="452.4097306714163" stroke="#000"/>
<line x1="864.6666666666667" y1="451.4024039285761" x2="864.6666666666667" y2="452.4097306714163" stroke="#000"/>
<rect x="880.3333333333333" y="418.80519396927957" width="31.333333333333332" height="79.1948060307204" fill="orange" data-tooltip="1.72x baseline speed (YJIT)"/>
<line x1="880.3333333333333" y1="417.3669843042236" x2="911.6666666666666" y2="417.3669843042236" stroke="#000"/>
<line x1="880.3333333333333" y1="420.2434036343356" x2="911.6666666666666" y2="420.2434036343356" stroke="#000"/>
<line x1="896.0" y1="417.3669843042236" x2="896.0" y2="420.2434036343356" stroke="#000"/>
<line x1="896.0" y1="498.0" x2="896.0" y2="502.79999999999995" stroke="#000"/>
<text x="896.0" y="512.4" fill="#111" font-size="small" font-family="monospace" font-weight="bold" text-anchor="end" transform="rotate(-60, 896.0, 512.4)">
str_concat
</text>
</svg>