<svg viewBox="0 0 1000 600" xmlns="http://www.w3.org/2000/svg" xmlns:xlink="http://www.w3.org/1999/xlink" width="100%" height="100%">

<rect x="50.0" y="30.0" width="940.0" height="467.99999999999994" stroke="#000" fill="#EEE"/>
<line x1="42.0" y1="497.9999999999999" x2="50.0" y2="497.9999999999999" stroke="#000"/>
<text x="26.000000000000004" y="497.9999999999999" text-anchor="end" font-weight="bold" font-size="small" fill="#111">
0.0
</text>
<line x1="42.0" y1="416.64540507217646" x2="50.0" y2="416.64540507217646" stroke="#000"/>
<text x="26.000000000000004" y="416.64540507217646" text-anchor="end" font-weight="bold" font-size="small" fill="#111">
2.0
</text>
<line x1="42.0" y1="335.290810144353" x2="50.0" y2="335.290810144353" stroke="#000"/>
<text x="26.000000000000004" y="335.290810144353" text-anchor="end" font-weight="bold" font-size="small" fill="#111">
4.0
</text>
<line x1="42.0" y1="253.93621521652955" x2="50.0" y2="253.93621521652955" stroke="#000"/>
<text x="26.000000000000004" y="253.93621521652955" text-anchor="end" font-weight="bold" font-size="small" fill="#111">
6.0
</text>
<line x1="42.0" y1="172.58162028870612" x2="50.0" y2="172.58162028870612" stroke="#000"/>
<text x="26.000000000000004" y="172.58162028870612" text-anchor="end" font-weight="bold" font-size="small" fill="#111">
8.0
</text>
<rect x="268.5" y="36.00000000000001" width="80.0" height="18.0" fill="#7070f8" stroke="#888"/>
<text x="308.5" y="52.50000000000001" font-size="small" text-anchor="middle" font-weight="bold" fill="#EEE">
No JIT
</text>
<rect x="691.4999999999999" y="36.00000000000001" width="80.0" height="18.0" fill="orange" stroke="#888"/>
<text x="731.4999999999999" y="52.50000000000001" font-size="small" text-anchor="middle" font-weight="bold" fill="#EEE">
YJIT
</text>
<rect x="97.0" y="457.32270253608823" width="9.096774193548386" height="40.677297463911735" fill="#7070f8" data-tooltip="1.00x baseline speed (No JIT)"/>
<line x1="97.0" y1="457.174653640112" x2="106.09677419354838" y2="457.174653640112" stroke="#000"/>
<line x1="97.0" y1="457.4707514320645" x2="106.09677419354838" y2="457.4707514320645" stroke="#000"/>
<line x1="101.54838709677419" y1="457.174653640112" x2="101.54838709677419" y2="457.4707514320645" stroke="#000"/>
<rect x="106.09677419354838" y="427.8093525087535" width="9.096774193548386" height="70.19064749124648" fill="orange" data-tooltip="1.73x baseline speed (YJIT)"/>
<line x1="106.09677419354838" y1="427.33467761082636" x2="115.19354838709678" y2="427.33467761082636" stroke="#000"/>
<line x1="106.09677419354838" y1="428.2840274066806" x2="115.19354838709678" y2="428.2840274066806" stroke="#000"/>
<line x1="110.64516129032258" y1="427.33467761082636" x2="110.64516129032258" y2="428.2840274066806" stroke="#000"/>
<line x1="110.64516129032258" y1="498.0" x2="110.64516129032258" y2="502.79999999999995" stroke="#000"/>
<text x="110.64516129032258" y="512.4" fill="#111" font-size="small" font-family="monospace" font-weight="bold" text-anchor="end" transform="rotate(-60, 110.64516129032258, 512.4)">
activerecord
</text>
<rect x="124.29032258064517" y="457.32270253608823" width="9.096774193548386" height="40.677297463911735" fill="#7070f8" data-tooltip="1.00x baseline speed (No JIT)"/>
<line x1="124.29032258064517" y1="456.99545553599216" x2="133.38709677419357" y2="456.99545553599216" stroke="#000"/>
<line x1="124.29032258064517" y1="457.6499495361843" x2="133.38709677419357" y2="457.6499495361843" stroke="#000"/>
<line x1="128.83870967741936" y1="456.99545553599216" x2="128.83870967741936" y2="457.6499495361843" stroke="#000"/>
<rect x="133.38709677419357" y="434.4968791048784" width="9.096774193548386" height="63.50312089512149" fill="orange" data-tooltip="1.56x baseline speed (YJIT)"/>
<line x1="133.38709677419357" y1="433.00685199054703" x2="142.48387096774192" y2="433.00685199054703" stroke="#000"/>
<line x1="133.38709677419357" y1="435.98690621920986" x2="142.48387096774192" y2="435.98690621920986" stroke="#000"/>
<line x1="137.93548387096774" y1="433.00685199054703" x2="137.93548387096774" y2="435.98690621920986" stroke="#000"/>
<line x1="137.93548387096774" y1="498.0" x2="137.93548387096774" y2="502.79999999999995" stroke="#000"/>
<text x="137.93548387096774" y="512.4" fill="#111" font-size="small" font-family="monospace" font-weight="bold" text-anchor="end" transform="rotate(-60, 137.93548387096774, 512.4)">
hexapdf
</text>
<rect x="151.58064516129033" y="457.32270253608823" width="9.096774193548386" height="40.677297463911735" fill="#7070f8" data-tooltip="1.00x baseline speed (No JIT)"/>
<line x1="151.58064516129033" y1="456.4527304067118" x2="160.6774193548387" y2="456.4527304067118" stroke="#000"/>
<line x1="151.58064516129033" y1="458.19267466546466" x2="160.6774193548387" y2="458.19267466546466" stroke="#000"/>
<line x1="156.1290322580645" y1="456.4527304067118" x2="156.1290322580645" y2="458.19267466546466" stroke="#000"/>
<rect x="160.6774193548387" y="441.7745287856222" width="9.096774193548386" height="56.22547121437778" fill="orange" data-tooltip="1.38x baseline speed (YJIT)"/>
<line x1="160.6774193548387" y1="440.10915802130137" x2="169.77419354838707" y2="440.10915802130137" stroke="#000"/>
<line x1="160.6774193548387" y1="443.43989954994294" x2="169.77419354838707" y2="443.43989954994294" stroke="#000"/>
<line x1="165.2258064516129" y1="440.10915802130137" x2="165.2258064516129" y2="443.43989954994294" stroke="#000"/>
<line x1="165.22580645161293" y1="498.0" x2="165.22580645161293" y2="502.79999999999995" stroke="#000"/>
<text x="165.22580645161293" y="512.4" fill="#111" font-size="small" font-family="monospace" font-weight="bold" text-anchor="end" transform="rotate(-60, 165.22580645161293, 512.4)">
liquid-c
</text>
<rect x="178.8709677419355" y="457.32270253608823" width="9.096774193548386" height="40.677297463911735" fill="#7070f8" data-tooltip="1.00x baseline speed (No JIT)"/>
<line x1="178.8709677419355" y1="456.5303623162008" x2="187.96774193548384" y2="456.5303623162008" stroke="#000"/>
<line x1="178.8709677419355" y1="458.1150427559757" x2="187.96774193548384" y2="458.1150427559757" stroke="#000"/>
<line x1="183.41935483870967" y1="456.5303623162008" x2="183.41935483870967" y2="458.1150427559757" stroke="#000"/>
<rect x="187.96774193548384" y="420.21112340700427" width="9.096774193548386" height="77.78887659299578" fill="orange" data-tooltip="1.91x baseline speed (YJIT)"/>
<line x1="187.96774193548384" y1="417.5976660088109" x2="197.06451612903223" y2="417.5976660088109" stroke="#000"/>
<line x1="187.96774193548384" y1="422.82458080519757" x2="197.06451612903223" y2="422.82458080519757" stroke="#000"/>
<line x1="192.51612903225805" y1="417.5976660088109" x2="192.51612903225805" y2="422.82458080519757" stroke="#000"/>
<line x1="192.51612903225808" y1="498.0" x2="192.51612903225808" y2="502.79999999999995" stroke="#000"/>
<text x="192.51612903225808" y="512.4" fill="#111" font-size="small" font-family="monospace" font-weight="bold" text-anchor="end" transform="rotate(-60, 192.51612903225808, 512.4)">
liquid-render
</text>
<rect x="206.1612903225806" y="457.32270253608823" width="9.096774193548386" height="40.677297463911735" fill="#7070f8" data-tooltip="1.00x baseline speed (No JIT)"/>
<line x1="206.1612903225806" y1="457.2687690262053" x2="215.258064516129" y2="457.2687690262053" stroke="#000"/>
<line x1="206.1612903225806" y1="457.37663604597117" x2="215.258064516129" y2="457.37663604597117" stroke="#000"/>
<line x1="210.70967741935482" y1="457.2687690262053" x2="210.70967741935482" y2="457.37663604597117" stroke="#000"/>
<rect x="215.258064516129" y="445.7828738662252" width="9.096774193548386" height="52.21712613377478" fill="orange" data-tooltip="1.28x baseline speed (YJIT)"/>
<line x1="215.258064516129" y1="445.58609481304427" x2="224.35483870967738" y2="445.58609481304427" stroke="#000"/>
<line x1="215.258064516129" y1="445.97965291940613" x2="224.35483870967738" y2="445.97965291940613" stroke="#000"/>
<line x1="219.80645161290317" y1="445.58609481304427" x2="219.80645161290317" y2="445.97965291940613" stroke="#000"/>
<line x1="219.8064516129032" y1="498.0" x2="219.8064516129032" y2="502.79999999999995" stroke="#000"/>
<text x="219.8064516129032" y="512.4" fill="#111" font-size="small" font-family="monospace" font-weight="bold" text-anchor="end" transform="rotate(-60, 219.8064516129032, 512.4)">
mail
</text>
<rect x="233.4516129032258" y="457.32270253608823" width="9.096774193548386" height="40.677297463911735" fill="#7070f8" data-tooltip="1.00x baseline speed (No JIT)"/>
<line x1="233.4516129032258" y1="457.30861589502604" x2="242.54838709677418" y2="457.30861589502604" stroke="#000"/>
<line x1="233.4516129032258" y1="457.3367891771505" x2="242.54838709677418" y2="457.3367891771505" stroke="#000"/>
<line x1="238.0" y1="457.30861589502604" x2="238.0" y2="457.3367891771505" stroke="#000"/>
<rect x="242.54838709677418" y="443.04785142019904" width="9.096774193548386" height="54.95214857980092" fill="orange" data-tooltip="1.35x baseline speed (YJIT)"/>
<line x1="242.54838709677418" y1="442.9755127038186" x2="251.64516129032256" y2="442.9755127038186" stroke="#000"/>
<line x1="242.54838709677418" y1="443.1201901365794" x2="251.64516129032256" y2="443.1201901365794" stroke="#000"/>
<line x1="247.09677419354836" y1="442.9755127038186" x2="247.09677419354836" y2="443.1201901365794" stroke="#000"/>
<line x1="247.09677419354838" y1="498.0" x2="247.09677419354838" y2="502.79999999999995" stroke="#000"/>
<text x="247.09677419354838" y="512.4" fill="#111" font-size="small" font-family="monospace" font-weight="bold" text-anchor="end" transform="rotate(-60, 247.09677419354838, 512.4)">
psych-load
</text>
<rect x="260.7419354838709" y="457.32270253608823" width="9.096774193548386" height="40.677297463911735" fill="#7070f8" data-tooltip="1.00x baseline speed (No JIT)"/>
<line x1="260.7419354838709" y1="457.04532593600385" x2="269.8387096774193" y2="457.04532593600385" stroke="#000"/>
<line x1="260.7419354838709" y1="457.60007913617267" x2="269.8387096774193" y2="457.60007913617267" stroke="#000"/>
<line x1="265.2903225806451" y1="457.04532593600385" x2="265.2903225806451" y2="457.60007913617267" stroke="#000"/>
<rect x="269.8387096774193" y="436.57601077097917" width="9.096774193548386" height="61.42398922902076" fill="orange" data-tooltip="1.51x baseline speed (YJIT)"/>
<line x1="269.8387096774193" y1="435.6904437467755" x2="278.9354838709677" y2="435.6904437467755" stroke="#000"/>
<line x1="269.8387096774193" y1="437.46157779518285" x2="278.9354838709677" y2="437.46157779518285" stroke="#000"/>
<line x1="274.3870967741935" y1="435.6904437467755" x2="274.3870967741935" y2="437.46157779518285" stroke="#000"/>
<line x1="274.3870967741935" y1="498.0" x2="274.3870967741935" y2="502.79999999999995" stroke="#000"/>
<text x="274.3870967741935" y="512.4" fill="#111" font-size="small" font-family="monospace" font-weight="bold" text-anchor="end" transform="rotate(-60, 274.3870967741935, 512.4)">
railsbench
</text>
<rect x="288.03225806451616" y="457.32270253608823" width="9.096774193548386" height="40.677297463911735" fill="#7070f8" data-tooltip="1.00x baseline speed (No JIT)"/>
<line x1="288.03225806451616" y1="453.95567795101243" x2="297.1290322580645" y2="453.95567795101243" stroke="#000"/>
<line x1="288.03225806451616" y1="460.689727121164" x2="297.1290322580645" y2="460.689727121164" stroke="#000"/>
<line x1="292.58064516129036" y1="453.95567795101243" x2="292.58064516129036" y2="460.689727121164" stroke="#000"/>
<rect x="297.1290322580645" y="441.51380340614475" width="9.096774193548386" height="56.48619659385517" fill="orange" data-tooltip="1.39x baseline speed (YJIT)"/>
<line x1="297.1290322580645" y1="429.4453040488966" x2="306.2258064516129" y2="429.4453040488966" stroke="#000"/>
<line x1="297.1290322580645" y1="453.58230276339293" x2="306.2258064516129" y2="453.58230276339293" stroke="#000"/>
<line x1="301.6774193548387" y1="429.4453040488966" x2="301.6774193548387" y2="453.58230276339293" stroke="#000"/>
<line x1="301.6774193548387" y1="498.0" x2="301.6774193548387" y2="502.79999999999995" stroke="#000"/>
<text x="301.6774193548387" y="512.4" fill="#111" font-size="small" font-family="monospace" font-weight="bold" text-anchor="end" transform="rotate(-60, 301.6774193548387, 512.4)">
ruby-lsp
</text>
<rect x="315.3225806451613" y="457.32270253608823" width="9.096774193548386" height="40.677297463911735" fill="#7070f8" data-tooltip="1.00x baseline speed (No JIT)"/>
<line x1="315.3225806451613" y1="456.51295813560245" x2="324.41935483870964" y2="456.51295813560245" stroke="#000"/>
<line x1="315.3225806451613" y1="458.13244693657407" x2="324.41935483870964" y2="458.13244693657407" stroke="#000"/>
<line x1="319.8709677419355" y1="456.51295813560245" x2="319.8709677419355" y2="458.13244693657407" stroke="#000"/>
<rect x="324.41935483870964" y="457.33897360371964" width="9.096774193548386" height="40.661026396280285" fill="orange" data-tooltip="1.00x baseline speed (YJIT)"/>
<line x1="324.41935483870964" y1="456.0896162493109" x2="333.51612903225805" y2="456.0896162493109" stroke="#000"/>
<line x1="324.41935483870964" y1="458.5883309581283" x2="333.51612903225805" y2="458.5883309581283" stroke="#000"/>
<line x1="328.96774193548384" y1="456.0896162493109" x2="328.96774193548384" y2="458.5883309581283" stroke="#000"/>
<line x1="328.96774193548384" y1="498.0" x2="328.96774193548384" y2="502.79999999999995" stroke="#000"/>
<text x="328.96774193548384" y="512.4" fill="#111" font-size="small" font-family="monospace" font-weight="bold" text-anchor="end" transform="rotate(-60, 328.96774193548384, 512.4)">
sequel
</text>
<rect x="342.6129032258064" y="457.32270253608823" width="9.096774193548386" height="40.677297463911735" fill="#7070f8" data-tooltip="1.00x baseline speed (No JIT)"/>
<line x1="342.6129032258064" y1="456.7613382065002" x2="351.70967741935476" y2="456.7613382065002" stroke="#000"/>
<line x1="342.6129032258064" y1="457.8840668656763" x2="351.70967741935476" y2="457.8840668656763" stroke="#000"/>
<line x1="347.1612903225806" y1="456.7613382065002" x2="347.1612903225806" y2="457.8840668656763" stroke="#000"/>
<rect x="351.70967741935476" y="418.6644987020028" width="9.096774193548386" height="79.33550129799711" fill="orange" data-tooltip="1.95x baseline speed (YJIT)"/>
<line x1="351.70967741935476" y1="417.5683755328426" x2="360.8064516129031" y2="417.5683755328426" stroke="#000"/>
<line x1="351.70967741935476" y1="419.760621871163" x2="360.8064516129031" y2="419.760621871163" stroke="#000"/>
<line x1="356.25806451612897" y1="417.5683755328426" x2="356.25806451612897" y2="419.760621871163" stroke="#000"/>
<line x1="356.25806451612897" y1="498.0" x2="356.25806451612897" y2="502.79999999999995" stroke="#000"/>
<text x="356.25806451612897" y="512.4" fill="#111" font-size="small" font-family="monospace" font-weight="bold" text-anchor="end" transform="rotate(-60, 356.25806451612897, 512.4)">
binarytrees
</text>
<rect x="369.90322580645164" y="457.32270253608823" width="9.096774193548386" height="40.677297463911735" fill="#7070f8" data-tooltip="1.00x baseline speed (No JIT)"/>
<line x1="369.90322580645164" y1="457.2995014011656" x2="379.0" y2="457.2995014011656" stroke="#000"/>
<line x1="369.90322580645164" y1="457.34590367101083" x2="379.0" y2="457.34590367101083" stroke="#000"/>
<line x1="374.4516129032258" y1="457.2995014011656" x2="374.4516129032258" y2="457.34590367101083" stroke="#000"/>
<rect x="379.0" y="436.20572089462144" width="9.096774193548386" height="61.79427910537852" fill="orange" data-tooltip="1.52x baseline speed (YJIT)"/>
<line x1="379.0" y1="436.1559039831177" x2="388.09677419354836" y2="436.1559039831177" stroke="#000"/>
<line x1="379.0" y1="436.2555378061251" x2="388.09677419354836" y2="436.2555378061251" stroke="#000"/>
<line x1="383.5483870967742" y1="436.1559039831177" x2="383.5483870967742" y2="436.2555378061251" stroke="#000"/>
<line x1="383.5483870967742" y1="498.0" x2="383.5483870967742" y2="502.79999999999995" stroke="#000"/>
<text x="383.5483870967742" y="512.4" fill="#111" font-size="small" font-family="monospace" font-weight="bold" text-anchor="end" transform="rotate(-60, 383.5483870967742, 512.4)">
chunky_png
</text>
<rect x="397.19354838709677" y="457.32270253608823" width="9.096774193548386" height="40.677297463911735" fill="#7070f8" data-tooltip="1.00x baseline speed (No JIT)"/>
<line x1="397.19354838709677" y1="456.97595321790493" x2="406.2903225806451" y2="456.97595321790493" stroke="#000"/>
<line x1="397.19354838709677" y1="457.66945185427153" x2="406.2903225806451" y2="457.66945185427153" stroke="#000"/>
<line x1="401.7419354838709" y1="456.97595321790493" x2="401.7419354838709" y2="457.66945185427153" stroke="#000"/>
<rect x="406.2903225806451" y="449.7889688221849" width="9.096774193548386" height="48.21103117781498" fill="orange" data-tooltip="1.19x baseline speed (YJIT)"/>
<line x1="406.2903225806451" y1="449.1794518416645" x2="415.3870967741935" y2="449.1794518416645" stroke="#000"/>
<line x1="406.2903225806451" y1="450.3984858027054" x2="415.3870967741935" y2="450.3984858027054" stroke="#000"/>
<line x1="410.83870967741933" y1="449.1794518416645" x2="410.83870967741933" y2="450.3984858027054" stroke="#000"/>
<line x1="410.83870967741933" y1="498.0" x2="410.83870967741933" y2="502.79999999999995" stroke="#000"/>
<text x="410.83870967741933" y="512.4" fill="#111" font-size="small" font-family="monospace" font-weight="bold" text-anchor="end" transform="rotate(-60, 410.83870967741933, 512.4)">
erubi
</text>
<rect x="424.4838709677419" y="457.32270253608823" width="9.096774193548386" height="40.677297463911735" fill="#7070f8" data-tooltip="1.00x baseline speed (No JIT)"/>
<line x1="424.4838709677419" y1="456.39390034601763" x2="433.58064516129025" y2="456.39390034601763" stroke="#000"/>
<line x1="424.4838709677419" y1="458.2515047261588" x2="433.58064516129025" y2="458.2515047261588" stroke="#000"/>
<line x1="429.03225806451604" y1="456.39390034601763" x2="429.03225806451604" y2="458.2515047261588" stroke="#000"/>
<rect x="433.58064516129025" y="430.1035892082099" width="9.096774193548386" height="67.89641079179005" fill="orange" data-tooltip="1.67x baseline speed (YJIT)"/>
<line x1="433.58064516129025" y1="427.3793649709759" x2="442.6774193548386" y2="427.3793649709759" stroke="#000"/>
<line x1="433.58064516129025" y1="432.8278134454439" x2="442.6774193548386" y2="432.8278134454439" stroke="#000"/>
<line x1="438.12903225806446" y1="427.3793649709759" x2="438.12903225806446" y2="432.8278134454439" stroke="#000"/>
<line x1="438.12903225806446" y1="498.0" x2="438.12903225806446" y2="502.79999999999995" stroke="#000"/>
<text x="438.12903225806446" y="512.4" fill="#111" font-size="small" font-family="monospace" font-weight="bold" text-anchor="end" transform="rotate(-60, 438.12903225806446, 512.4)">
erubi_rails
</text>
<rect x="451.77419354838713" y="457.32270253608823" width="9.096774193548386" height="40.677297463911735" fill="#7070f8" data-tooltip="1.00x baseline speed (No JIT)"/>
<line x1="451.77419354838713" y1="457.1199866565334" x2="460.8709677419355" y2="457.1199866565334" stroke="#000"/>
<line x1="451.77419354838713" y1="457.52541841564306" x2="460.8709677419355" y2="457.52541841564306" stroke="#000"/>
<line x1="456.3225806451613" y1="457.1199866565334" x2="456.3225806451613" y2="457.52541841564306" stroke="#000"/>
<rect x="460.8709677419355" y="457.51415876875956" width="9.096774193548386" height="40.485841231240386" fill="orange" data-tooltip="1.00x baseline speed (YJIT)"/>
<line x1="460.8709677419355" y1="457.23857628005254" x2="469.96774193548384" y2="457.23857628005254" stroke="#000"/>
<line x1="460.8709677419355" y1="457.7897412574665" x2="469.96774193548384" y2="457.7897412574665" stroke="#000"/>
<line x1="465.41935483870964" y1="457.23857628005254" x2="465.41935483870964" y2="457.7897412574665" stroke="#000"/>
<line x1="465.41935483870964" y1="498.0" x2="465.41935483870964" y2="502.79999999999995" stroke="#000"/>
<text x="465.41935483870964" y="512.4" fill="#111" font-size="small" font-family="monospace" font-weight="bold" text-anchor="end" transform="rotate(-60, 465.41935483870964, 512.4)">
etanni
</text>
<rect x="479.0645161290322" y="457.32270253608823" width="9.096774193548386" height="40.677297463911735" fill="#7070f8" data-tooltip="1.00x baseline speed (No JIT)"/>
<line x1="479.0645161290322" y1="457.2519756364689" x2="488.1612903225806" y2="457.2519756364689" stroke="#000"/>
<line x1="479.0645161290322" y1="457.3934294357076" x2="488.1612903225806" y2="457.3934294357076" stroke="#000"/>
<line x1="483.6129032258064" y1="457.2519756364689" x2="483.6129032258064" y2="457.3934294357076" stroke="#000"/>
<rect x="488.1612903225806" y="393.3416686632004" width="9.096774193548386" height="104.65833133679953" fill="orange" data-tooltip="2.57x baseline speed (YJIT)"/>
<line x1="488.1612903225806" y1="393.13628709726265" x2="497.25806451612897" y2="393.13628709726265" stroke="#000"/>
<line x1="488.1612903225806" y1="393.5470502291381" x2="497.25806451612897" y2="393.5470502291381" stroke="#000"/>
<line x1="492.70967741935476" y1="393.13628709726265" x2="492.70967741935476" y2="393.5470502291381" stroke="#000"/>
<line x1="492.70967741935476" y1="498.0" x2="492.70967741935476" y2="502.79999999999995" stroke="#000"/>
<text x="492.70967741935476" y="512.4" fill="#111" font-size="small" font-family="monospace" font-weight="bold" text-anchor="end" transform="rotate(-60, 492.70967741935476, 512.4)">
fannkuchredux
</text>
<rect x="506.3548387096773" y="457.32270253608823" width="9.096774193548386" height="40.677297463911735" fill="#7070f8" data-tooltip="1.00x baseline speed (No JIT)"/>
<line x1="506.3548387096773" y1="457.20527115187434" x2="515.4516129032257" y2="457.20527115187434" stroke="#000"/>
<line x1="506.3548387096773" y1="457.4401339203022" x2="515.4516129032257" y2="457.4401339203022" stroke="#000"/>
<line x1="510.90322580645153" y1="457.20527115187434" x2="510.90322580645153" y2="457.4401339203022" stroke="#000"/>
<rect x="515.4516129032257" y="443.24904643971473" width="9.096774193548386" height="54.750953560285176" fill="orange" data-tooltip="1.35x baseline speed (YJIT)"/>
<line x1="515.4516129032257" y1="443.01293879403" x2="524.5483870967741" y2="443.01293879403" stroke="#000"/>
<line x1="515.4516129032257" y1="443.48515408539953" x2="524.5483870967741" y2="443.48515408539953" stroke="#000"/>
<line x1="519.9999999999999" y1="443.01293879403" x2="519.9999999999999" y2="443.48515408539953" stroke="#000"/>
<line x1="519.9999999999999" y1="498.0" x2="519.9999999999999" y2="502.79999999999995" stroke="#000"/>
<text x="519.9999999999999" y="512.4" fill="#111" font-size="small" font-family="monospace" font-weight="bold" text-anchor="end" transform="rotate(-60, 519.9999999999999, 512.4)">
lee
</text>
<rect x="533.6451612903226" y="457.32270253608823" width="9.096774193548386" height="40.677297463911735" fill="#7070f8" data-tooltip="1.00x baseline speed (No JIT)"/>
<line x1="533.6451612903226" y1="457.2770042985702" x2="542.741935483871" y2="457.2770042985702" stroke="#000"/>
<line x1="533.6451612903226" y1="457.36840077360625" x2="542.741935483871" y2="457.36840077360625" stroke="#000"/>
<line x1="538.1935483870967" y1="457.2770042985702" x2="538.1935483870967" y2="457.36840077360625" stroke="#000"/>
<rect x="542.741935483871" y="424.53236848290214" width="9.096774193548386" height="73.46763151709776" fill="orange" data-tooltip="1.81x baseline speed (YJIT)"/>
<line x1="542.741935483871" y1="424.42486088971765" x2="551.8387096774193" y2="424.42486088971765" stroke="#000"/>
<line x1="542.741935483871" y1="424.63987607608664" x2="551.8387096774193" y2="424.63987607608664" stroke="#000"/>
<line x1="547.2903225806451" y1="424.42486088971765" x2="547.2903225806451" y2="424.63987607608664" stroke="#000"/>
<line x1="547.2903225806451" y1="498.0" x2="547.2903225806451" y2="502.79999999999995" stroke="#000"/>
<text x="547.2903225806451" y="512.4" fill="#111" font-size="small" font-family="monospace" font-weight="bold" text-anchor="end" transform="rotate(-60, 547.2903225806451, 512.4)">
nbody
</text>
<rect x="560.9354838709677" y="457.32270253608823" width="9.096774193548386" height="40.677297463911735" fill="#7070f8" data-tooltip="1.00x baseline speed (No JIT)"/>
<line x1="560.9354838709677" y1="457.02740868314027" x2="570.0322580645161" y2="457.02740868314027" stroke="#000"/>
<line x1="560.9354838709677" y1="457.6179963890362" x2="570.0322580645161" y2="457.6179963890362" stroke="#000"/>
<line x1="565.4838709677418" y1="457.02740868314027" x2="565.4838709677418" y2="457.6179963890362" stroke="#000"/>
<rect x="570.0322580645161" y="406.568225153465" width="9.096774193548386" height="91.43177484653505" fill="orange" data-tooltip="2.25x baseline speed (YJIT)"/>
<line x1="570.0322580645161" y1="405.6611074776994" x2="579.1290322580644" y2="405.6611074776994" stroke="#000"/>
<line x1="570.0322580645161" y1="407.4753428292306" x2="579.1290322580644" y2="407.4753428292306" stroke="#000"/>
<line x1="574.5806451612902" y1="405.6611074776994" x2="574.5806451612902" y2="407.4753428292306" stroke="#000"/>
<line x1="574.5806451612902" y1="498.0" x2="574.5806451612902" y2="502.79999999999995" stroke="#000"/>
<text x="574.5806451612902" y="512.4" fill="#111" font-size="small" font-family="monospace" font-weight="bold" text-anchor="end" transform="rotate(-60, 574.5806451612902, 512.4)">
optcarrot
</text>
<rect x="588.2258064516128" y="457.32270253608823" width="9.096774193548386" height="40.677297463911735" fill="#7070f8" data-tooltip="1.00x baseline speed (No JIT)"/>
<line x1="588.2258064516128" y1="457.2756192079457" x2="597.3225806451612" y2="457.2756192079457" stroke="#000"/>
<line x1="588.2258064516128" y1="457.3697858642308" x2="597.3225806451612" y2="457.3697858642308" stroke="#000"/>
<line x1="592.774193548387" y1="457.2756192079457" x2="592.774193548387" y2="457.3697858642308" stroke="#000"/>
<rect x="597.3225806451612" y="450.66032938743336" width="9.096774193548386" height="47.33967061256657" fill="orange" data-tooltip="1.16x baseline speed (YJIT)"/>
<line x1="597.3225806451612" y1="450.53559392242636" x2="606.4193548387095" y2="450.53559392242636" stroke="#000"/>
<line x1="597.3225806451612" y1="450.7850648524404" x2="606.4193548387095" y2="450.7850648524404" stroke="#000"/>
<line x1="601.8709677419354" y1="450.53559392242636" x2="601.8709677419354" y2="450.7850648524404" stroke="#000"/>
<line x1="601.8709677419354" y1="498.0" x2="601.8709677419354" y2="502.79999999999995" stroke="#000"/>
<text x="601.8709677419354" y="512.4" fill="#111" font-size="small" font-family="monospace" font-weight="bold" text-anchor="end" transform="rotate(-60, 601.8709677419354, 512.4)">
ruby-json
</text>
<rect x="615.516129032258" y="457.32270253608823" width="9.096774193548386" height="40.677297463911735" fill="#7070f8" data-tooltip="1.00x baseline speed (No JIT)"/>
<line x1="615.516129032258" y1="457.1025560065501" x2="624.6129032258065" y2="457.1025560065501" stroke="#000"/>
<line x1="615.516129032258" y1="457.5428490656264" x2="624.6129032258065" y2="457.5428490656264" stroke="#000"/>
<line x1="620.0645161290322" y1="457.1025560065501" x2="620.0645161290322" y2="457.5428490656264" stroke="#000"/>
<rect x="624.6129032258065" y="420.5705382823505" width="9.096774193548386" height="77.42946171764945" fill="orange" data-tooltip="1.90x baseline speed (YJIT)"/>
<line x1="624.6129032258065" y1="419.77091457789413" x2="633.7096774193548" y2="419.77091457789413" stroke="#000"/>
<line x1="624.6129032258065" y1="421.3701619868069" x2="633.7096774193548" y2="421.3701619868069" stroke="#000"/>
<line x1="629.1612903225806" y1="419.77091457789413" x2="629.1612903225806" y2="421.3701619868069" stroke="#000"/>
<line x1="629.1612903225806" y1="498.0" x2="629.1612903225806" y2="502.79999999999995" stroke="#000"/>
<text x="629.1612903225806" y="512.4" fill="#111" font-size="small" font-family="monospace" font-weight="bold" text-anchor="end" transform="rotate(-60, 629.1612903225806, 512.4)">
rubykon
</text>
<rect x="642.8064516129032" y="457.32270253608823" width="9.096774193548386" height="40.677297463911735" fill="#7070f8" data-tooltip="1.00x baseline speed (No JIT)"/>
<line x1="642.8064516129032" y1="457.3197086749818" x2="651.9032258064516" y2="457.3197086749818" stroke="#000"/>
<line x1="642.8064516129032" y1="457.3256963971947" x2="651.9032258064516" y2="457.3256963971947" stroke="#000"/>
<line x1="647.3548387096773" y1="457.3197086749818" x2="647.3548387096773" y2="457.3256963971947" stroke="#000"/>
<rect x="651.9032258064516" y="272.88554399545285" width="9.096774193548386" height="225.1144560045471" fill="orange" data-tooltip="5.53x baseline speed (YJIT)"/>
<line x1="651.9032258064516" y1="272.7113873556718" x2="660.9999999999999" y2="272.7113873556718" stroke="#000"/>
<line x1="651.9032258064516" y1="273.05970063523387" x2="660.9999999999999" y2="273.05970063523387" stroke="#000"/>
<line x1="656.4516129032257" y1="272.7113873556718" x2="656.4516129032257" y2="273.05970063523387" stroke="#000"/>
<line x1="656.4516129032257" y1="498.0" x2="656.4516129032257" y2="502.79999999999995" stroke="#000"/>
<text x="656.4516129032257" y="512.4" fill="#111" font-size="small" font-family="monospace" font-weight="bold" text-anchor="end" transform="rotate(-60, 656.4516129032257, 512.4)">
30k_ifelse
</text>
<rect x="670.0967741935483" y="457.32270253608823" width="9.096774193548386" height="40.677297463911735" fill="#7070f8" data-tooltip="1.00x baseline speed (No JIT)"/>
<line x1="670.0967741935483" y1="457.3180111696002" x2="679.1935483870967" y2="457.3180111696002" stroke="#000"/>
<line x1="670.0967741935483" y1="457.32739390257626" x2="679.1935483870967" y2="457.32739390257626" stroke="#000"/>
<line x1="674.6451612903224" y1="457.3180111696002" x2="674.6451612903224" y2="457.32739390257626" stroke="#000"/>
<rect x="679.1935483870967" y="192.09128825870613" width="9.096774193548386" height="305.9087117412938" fill="orange" data-tooltip="7.52x baseline speed (YJIT)"/>
<line x1="679.1935483870967" y1="191.9128917439745" x2="688.290322580645" y2="191.9128917439745" stroke="#000"/>
<line x1="679.1935483870967" y1="192.26968477343775" x2="688.290322580645" y2="192.26968477343775" stroke="#000"/>
<line x1="683.7419354838709" y1="191.9128917439745" x2="683.7419354838709" y2="192.26968477343775" stroke="#000"/>
<line x1="683.7419354838709" y1="498.0" x2="683.7419354838709" y2="502.79999999999995" stroke="#000"/>
<text x="683.7419354838709" y="512.4" fill="#111" font-size="small" font-family="monospace" font-weight="bold" text-anchor="end" transform="rotate(-60, 683.7419354838709, 512.4)">
30k_methods
</text>
<rect x="697.3870967741935" y="457.32270253608823" width="9.096774193548386" height="40.677297463911735" fill="#7070f8" data-tooltip="1.00x baseline speed (No JIT)"/>
<line x1="697.3870967741935" y1="457.20035230697994" x2="706.483870967742" y2="457.20035230697994" stroke="#000"/>
<line x1="697.3870967741935" y1="457.4450527651966" x2="706.483870967742" y2="457.4450527651966" stroke="#000"/>
<line x1="701.9354838709677" y1="457.20035230697994" x2="701.9354838709677" y2="457.4450527651966" stroke="#000"/>
<rect x="706.483870967742" y="397.0346369405485" width="9.096774193548386" height="100.96536305945143" fill="orange" data-tooltip="2.48x baseline speed (YJIT)"/>
<line x1="706.483870967742" y1="396.6075905041062" x2="715.5806451612902" y2="396.6075905041062" stroke="#000"/>
<line x1="706.483870967742" y1="397.4616833769908" x2="715.5806451612902" y2="397.4616833769908" stroke="#000"/>
<line x1="711.0322580645161" y1="396.6075905041062" x2="711.0322580645161" y2="397.4616833769908" stroke="#000"/>
<line x1="711.0322580645161" y1="498.0" x2="711.0322580645161" y2="502.79999999999995" stroke="#000"/>
<text x="711.0322580645161" y="512.4" fill="#111" font-size="small" font-family="monospace" font-weight="bold" text-anchor="end" transform="rotate(-60, 711.0322580645161, 512.4)">
cfunc_itself
</text>
<rect x="724.6774193548387" y="457.32270253608823" width="9.096774193548386" height="40.677297463911735" fill="#7070f8" data-tooltip="1.00x baseline speed (No JIT)"/>
<line x1="724.6774193548387" y1="457.3046147658781" x2="733.7741935483871" y2="457.3046147658781" stroke="#000"/>
<line x1="724.6774193548387" y1="457.3407903062984" x2="733.7741935483871" y2="457.3407903062984" stroke="#000"/>
<line x1="729.2258064516128" y1="457.3046147658781" x2="729.2258064516128" y2="457.3407903062984" stroke="#000"/>
<rect x="733.7741935483871" y="346.22843697720737" width="9.096774193548386" height="151.77156302279258" fill="orange" data-tooltip="3.73x baseline speed (YJIT)"/>
<line x1="733.7741935483871" y1="346.0821767950736" x2="742.8709677419354" y2="346.0821767950736" stroke="#000"/>
<line x1="733.7741935483871" y1="346.3746971593411" x2="742.8709677419354" y2="346.3746971593411" stroke="#000"/>
<line x1="738.3225806451612" y1="346.0821767950736" x2="738.3225806451612" y2="346.3746971593411" stroke="#000"/>
<line x1="738.3225806451612" y1="498.0" x2="738.3225806451612" y2="502.79999999999995" stroke="#000"/>
<text x="738.3225806451612" y="512.4" fill="#111" font-size="small" font-family="monospace" font-weight="bold" text-anchor="end" transform="rotate(-60, 738.3225806451612, 512.4)">
fib
</text>
<rect x="751.9677419354838" y="457.32270253608823" width="9.096774193548386" height="40.677297463911735" fill="#7070f8" data-tooltip="1.00x baseline speed (No JIT)"/>
<line x1="751.9677419354838" y1="457.2282543732413" x2="761.0645161290322" y2="457.2282543732413" stroke="#000"/>
<line x1="751.9677419354838" y1="457.4171506989352" x2="761.0645161290322" y2="457.4171506989352" stroke="#000"/>
<line x1="756.5161290322579" y1="457.2282543732413" x2="756.5161290322579" y2="457.4171506989352" stroke="#000"/>
<rect x="761.0645161290322" y="406.5614564050492" width="9.096774193548386" height="91.43854359495069" fill="orange" data-tooltip="2.25x baseline speed (YJIT)"/>
<line x1="761.0645161290322" y1="406.3411060207861" x2="770.1612903225805" y2="406.3411060207861" stroke="#000"/>
<line x1="761.0645161290322" y1="406.7818067893123" x2="770.1612903225805" y2="406.7818067893123" stroke="#000"/>
<line x1="765.6129032258063" y1="406.3411060207861" x2="765.6129032258063" y2="406.7818067893123" stroke="#000"/>
<line x1="765.6129032258063" y1="498.0" x2="765.6129032258063" y2="502.79999999999995" stroke="#000"/>
<text x="765.6129032258063" y="512.4" fill="#111" font-size="small" font-family="monospace" font-weight="bold" text-anchor="end" transform="rotate(-60, 765.6129032258063, 512.4)">
getivar
</text>
<rect x="779.258064516129" y="457.32270253608823" width="9.096774193548386" height="40.677297463911735" fill="#7070f8" data-tooltip="1.00x baseline speed (No JIT)"/>
<line x1="779.258064516129" y1="457.2743519573737" x2="788.3548387096773" y2="457.2743519573737" stroke="#000"/>
<line x1="779.258064516129" y1="457.37105311480275" x2="788.3548387096773" y2="457.37105311480275" stroke="#000"/>
<line x1="783.8064516129032" y1="457.2743519573737" x2="783.8064516129032" y2="457.37105311480275" stroke="#000"/>
<rect x="788.3548387096773" y="282.94640755885746" width="9.096774193548386" height="215.05359244114248" fill="orange" data-tooltip="5.29x baseline speed (YJIT)"/>
<line x1="788.3548387096773" y1="282.3150835667862" x2="797.4516129032257" y2="282.3150835667862" stroke="#000"/>
<line x1="788.3548387096773" y1="283.5777315509287" x2="797.4516129032257" y2="283.5777315509287" stroke="#000"/>
<line x1="792.9032258064516" y1="282.3150835667862" x2="792.9032258064516" y2="283.5777315509287" stroke="#000"/>
<line x1="792.9032258064516" y1="498.0" x2="792.9032258064516" y2="502.79999999999995" stroke="#000"/>
<text x="792.9032258064516" y="512.4" fill="#111" font-size="small" font-family="monospace" font-weight="bold" text-anchor="end" transform="rotate(-60, 792.9032258064516, 512.4)">
keyword_args
</text>
<rect x="806.5483870967741" y="457.32270253608823" width="9.096774193548386" height="40.677297463911735" fill="#7070f8" data-tooltip="1.00x baseline speed (No JIT)"/>
<line x1="806.5483870967741" y1="457.10465772369594" x2="815.6451612903224" y2="457.10465772369594" stroke="#000"/>
<line x1="806.5483870967741" y1="457.5407473484805" x2="815.6451612903224" y2="457.5407473484805" stroke="#000"/>
<line x1="811.0967741935483" y1="457.10465772369594" x2="811.0967741935483" y2="457.5407473484805" stroke="#000"/>
<rect x="815.6451612903224" y="100.19999999999999" width="9.096774193548386" height="397.79999999999995" fill="orange" data-tooltip="9.78x baseline speed (YJIT)"/>
<line x1="815.6451612903224" y1="97.5958031762745" x2="824.7419354838709" y2="97.5958031762745" stroke="#000"/>
<line x1="815.6451612903224" y1="102.80419682372548" x2="824.7419354838709" y2="102.80419682372548" stroke="#000"/>
<line x1="820.1935483870967" y1="97.5958031762745" x2="820.1935483870967" y2="102.80419682372548" stroke="#000"/>
<line x1="820.1935483870967" y1="498.0" x2="820.1935483870967" y2="502.79999999999995" stroke="#000"/>
<text x="820.1935483870967" y="512.4" fill="#111" font-size="small" font-family="monospace" font-weight="bold" text-anchor="end" transform="rotate(-60, 820.1935483870967, 512.4)">
respond_to
</text>
<rect x="833.8387096774193" y="457.32270253608823" width="9.096774193548386" height="40.677297463911735" fill="#7070f8" data-tooltip="1.00x baseline speed (No JIT)"/>
<line x1="833.8387096774193" y1="457.1324088437264" x2="842.9354838709676" y2="457.1324088437264" stroke="#000"/>
<line x1="833.8387096774193" y1="457.51299622845005" x2="842.9354838709676" y2="457.51299622845005" stroke="#000"/>
<line x1="838.3870967741934" y1="457.1324088437264" x2="838.3870967741934" y2="457.51299622845005" stroke="#000"/>
<rect x="842.9354838709676" y="303.08512967478276" width="9.096774193548386" height="194.91487032521718" fill="orange" data-tooltip="4.79x baseline speed (YJIT)"/>
<line x1="842.9354838709676" y1="302.13017758847167" x2="852.032258064516" y2="302.13017758847167" stroke="#000"/>
<line x1="842.9354838709676" y1="304.0400817610938" x2="852.032258064516" y2="304.0400817610938" stroke="#000"/>
<line x1="847.4838709677418" y1="302.13017758847167" x2="847.4838709677418" y2="304.0400817610938" stroke="#000"/>
<line x1="847.4838709677418" y1="498.0" x2="847.4838709677418" y2="502.79999999999995" stroke="#000"/>
<text x="847.4838709677418" y="512.4" fill="#111" font-size="small" font-family="monospace" font-weight="bold" text-anchor="end" transform="rotate(-60, 847.4838709677418, 512.4)">
setivar
</text>
<rect x="861.1290322580645" y="457.32270253608823" width="9.096774193548386" height="40.677297463911735" fill="#7070f8" data-tooltip="1.00x baseline speed (No JIT)"/>
<line x1="861.1290322580645" y1="455.93106210967886" x2="870.2258064516128" y2="455.93106210967886" stroke="#000"/>
<line x1="861.1290322580645" y1="458.7143429624976" x2="870.2258064516128" y2="458.7143429624976" stroke="#000"/>
<line x1="865.6774193548387" y1="455.93106210967886" x2="865.6774193548387" y2="458.7143429624976" stroke="#000"/>
<rect x="870.2258064516128" y="407.1250663236303" width="9.096774193548386" height="90.87493367636965" fill="orange" data-tooltip="2.23x baseline speed (YJIT)"/>
<line x1="870.2258064516128" y1="402.9495623703725" x2="879.3225806451612" y2="402.9495623703725" stroke="#000"/>
<line x1="870.2258064516128" y1="411.30057027688804" x2="879.3225806451612" y2="411.30057027688804" stroke="#000"/>
<line x1="874.7741935483871" y1="402.9495623703725" x2="874.7741935483871" y2="411.30057027688804" stroke="#000"/>
<line x1="874.7741935483871" y1="498.0" x2="874.7741935483871" y2="502.79999999999995" stroke="#000"/>
<text x="874.7741935483871" y="512.4" fill="#111" font-size="small" font-family="monospace" font-weight="bold" text-anchor="end" transform="rotate(-60, 874.7741935483871, 512.4)">
setivar_object
</text>
<rect x="888.4193548387096" y="457.32270253608823" width="9.096774193548386" height="40.677297463911735" fill="#7070f8" data-tooltip="1.00x baseline speed (No JIT)"/>
<line x1="888.4193548387096" y1="457.02999815557894" x2="897.5161290322579" y2="457.02999815557894" stroke="#000"/>
<line x1="888.4193548387096" y1="457.6154069165975" x2="897.5161290322579" y2="457.6154069165975" stroke="#000"/>
<line x1="892.9677419354838" y1="457.02999815557894" x2="892.9677419354838" y2="457.6154069165975" stroke="#000"/>
<rect x="897.5161290322579" y="419.12029038253144" width="9.096774193548386" height="78.87970961746848" fill="orange" data-tooltip="1.94x baseline speed (YJIT)"/>
<line x1="897.5161290322579" y1="417.78275195946145" x2="906.6129032258063" y2="417.78275195946145" stroke="#000"/>
<line x1="897.5161290322579" y1="420.45782880560137" x2="906.6129032258063" y2="420.45782880560137" stroke="#000"/>
<line x1="902.0645161290322" y1="417.78275195946145" x2="902.0645161290322" y2="420.45782880560137" stroke="#000"/>
<line x1="902.0645161290322" y1="498.0" x2="902.0645161290322" y2="502.79999999999995" stroke="#000"/>
<text x="902.0645161290322" y="512.4" fill="#111" font-size="small" font-family="monospace" font-weight="bold" text-anchor="end" transform="rotate(-60, 902.0645161290322, 512.4)">
str_concat
</text>
<rect x="915.7096774193548" y="457.32270253608823" width="9.096774193548386" height="40.677297463911735" fill="#7070f8" data-tooltip="1.00x baseline speed (No JIT)"/>
<line x1="915.7096774193548" y1="457.2457919603938" x2="924.8064516129031" y2="457.2457919603938" stroke="#000"/>
<line x1="915.7096774193548" y1="457.39961311178274" x2="924.8064516129031" y2="457.39961311178274" stroke="#000"/>
<line x1="920.2580645161289" y1="457.2457919603938" x2="920.2580645161289" y2="457.39961311178274" stroke="#000"/>
<rect x="924.8064516129031" y="446.25838918103886" width="9.096774193548386" height="51.741610818961064" fill="orange" data-tooltip="1.27x baseline speed (YJIT)"/>
<line x1="924.8064516129031" y1="446.099742015153" x2="933.9032258064515" y2="446.099742015153" stroke="#000"/>
<line x1="924.8064516129031" y1="446.4170363469247" x2="933.9032258064515" y2="446.4170363469247" stroke="#000"/>
<line x1="929.3548387096773" y1="446.099742015153" x2="929.3548387096773" y2="446.4170363469247" stroke="#000"/>
<line x1="929.3548387096773" y1="498.0" x2="929.3548387096773" y2="502.79999999999995" stroke="#000"/>
<text x="929.3548387096773" y="512.4" fill="#111" font-size="small" font-family="monospace" font-weight="bold" text-anchor="end" transform="rotate(-60, 929.3548387096773, 512.4)">
throw
</text>
</svg>