<svg viewBox="0 0 1000 600" xmlns="http://www.w3.org/2000/svg" xmlns:xlink="http://www.w3.org/1999/xlink" width="100%" height="100%">

<rect x="50.0" y="30.0" width="940.0" height="467.99999999999994" stroke="#000" fill="#EEE"/>
<line x1="42.0" y1="497.9999999999999" x2="50.0" y2="497.9999999999999" stroke="#000"/>
<text x="26.000000000000004" y="497.9999999999999" text-anchor="end" font-weight="bold" font-size="small" fill="#EEE">
0.0
</text>
<line x1="42.0" y1="442.8202989424785" x2="50.0" y2="442.8202989424785" stroke="#000"/>
<text x="26.000000000000004" y="442.8202989424785" text-anchor="end" font-weight="bold" font-size="small" fill="#EEE">
0.2
</text>
<line x1="42.0" y1="387.64059788495706" x2="50.0" y2="387.64059788495706" stroke="#000"/>
<text x="26.000000000000004" y="387.64059788495706" text-anchor="end" font-weight="bold" font-size="small" fill="#EEE">
0.4
</text>
<line x1="42.0" y1="332.46089682743565" x2="50.0" y2="332.46089682743565" stroke="#000"/>
<text x="26.000000000000004" y="332.46089682743565" text-anchor="end" font-weight="bold" font-size="small" fill="#EEE">
0.6
</text>
<line x1="42.0" y1="277.2811957699142" x2="50.0" y2="277.2811957699142" stroke="#000"/>
<text x="26.000000000000004" y="277.2811957699142" text-anchor="end" font-weight="bold" font-size="small" fill="#EEE">
0.8
</text>
<line x1="42.0" y1="222.10149471239276" x2="50.0" y2="222.10149471239276" stroke="#000"/>
<text x="26.000000000000004" y="222.10149471239276" text-anchor="end" font-weight="bold" font-size="small" fill="#EEE">
1.0
</text>
<line x1="42.0" y1="166.92179365487135" x2="50.0" y2="166.92179365487135" stroke="#000"/>
<text x="26.000000000000004" y="166.92179365487135" text-anchor="end" font-weight="bold" font-size="small" fill="#EEE">
1.2
</text>
<line x1="42.0" y1="111.74209259734995" x2="50.0" y2="111.74209259734995" stroke="#000"/>
<text x="26.000000000000004" y="111.74209259734995" text-anchor="end" font-weight="bold" font-size="small" fill="#EEE">
1.4
</text>
<rect x="162.74999999999997" y="36.00000000000001" width="80.0" height="18.0" fill="#7070f8" stroke="#888"/>
<text x="202.75" y="52.50000000000001" font-size="small" text-anchor="middle" font-weight="bold" fill="#111">
No JIT
</text>
<rect x="374.25" y="36.00000000000001" width="80.0" height="18.0" fill="orange" stroke="#888"/>
<text x="414.25" y="52.50000000000001" font-size="small" text-anchor="middle" font-weight="bold" fill="#111">
MJIT3.0
</text>
<rect x="585.7499999999999" y="36.00000000000001" width="80.0" height="18.0" fill="green" stroke="#888"/>
<text x="625.7499999999999" y="52.50000000000001" font-size="small" text-anchor="middle" font-weight="bold" fill="#111">
MJIT3.1
</text>
<rect x="797.2499999999999" y="36.00000000000001" width="80.0" height="18.0" fill="#4F3A7A" stroke="#888"/>
<text x="837.2499999999999" y="52.50000000000001" font-size="small" text-anchor="middle" font-weight="bold" fill="#111">
YJIT
</text>
<rect x="97.0" y="222.10149471239276" width="24.171428571428574" height="275.8985052876072" fill="#7070f8" data-tooltip="1.00x baseline speed (No JIT)"/>
<line x1="97.0" y1="221.25812988524396" x2="121.17142857142856" y2="221.25812988524396" stroke="#000"/>
<line x1="97.0" y1="222.9448595395416" x2="121.17142857142856" y2="222.9448595395416" stroke="#000"/>
<line x1="109.08571428571429" y1="221.25812988524396" x2="109.08571428571429" y2="222.9448595395416" stroke="#000"/>
<rect x="121.17142857142856" y="249.64099753281073" width="24.171428571428574" height="248.3590024671892" fill="orange" data-tooltip="0.90x baseline speed (MJIT3.0)"/>
<line x1="121.17142857142856" y1="248.11209996452928" x2="145.34285714285713" y2="248.11209996452928" stroke="#000"/>
<line x1="121.17142857142856" y1="251.16989510109218" x2="145.34285714285713" y2="251.16989510109218" stroke="#000"/>
<line x1="133.25714285714284" y1="248.11209996452928" x2="133.25714285714284" y2="251.16989510109218" stroke="#000"/>
<rect x="145.34285714285716" y="277.52388852843336" width="24.171428571428574" height="220.47611147156658" fill="green" data-tooltip="0.80x baseline speed (MJIT3.1)"/>
<line x1="145.34285714285716" y1="269.25645459143743" x2="169.51428571428573" y2="269.25645459143743" stroke="#000"/>
<line x1="145.34285714285716" y1="285.7913224654293" x2="169.51428571428573" y2="285.7913224654293" stroke="#000"/>
<line x1="157.42857142857144" y1="269.25645459143743" x2="157.42857142857144" y2="285.7913224654293" stroke="#000"/>
<rect x="169.51428571428573" y="123.50069776118596" width="24.171428571428574" height="374.499302238814" fill="#4F3A7A" data-tooltip="1.36x baseline speed (YJIT)"/>
<line x1="169.51428571428573" y1="120.75722631681242" x2="193.68571428571428" y2="120.75722631681242" stroke="#000"/>
<line x1="169.51428571428573" y1="126.24416920555952" x2="193.68571428571428" y2="126.24416920555952" stroke="#000"/>
<line x1="181.60000000000002" y1="120.75722631681242" x2="181.60000000000002" y2="126.24416920555952" stroke="#000"/>
<line x1="157.42857142857142" y1="498.0" x2="157.42857142857142" y2="502.79999999999995" stroke="#000"/>
<text x="157.42857142857142" y="512.4" fill="#111" font-size="small" font-family="monospace" font-weight="bold" text-anchor="end" transform="rotate(-60, 157.42857142857142, 512.4)">
activerecord
</text>
<rect x="217.85714285714286" y="222.10149471239276" width="24.171428571428574" height="275.8985052876072" fill="#7070f8" data-tooltip="1.00x baseline speed (No JIT)"/>
<line x1="217.85714285714286" y1="218.90555357626087" x2="242.02857142857144" y2="218.90555357626087" stroke="#000"/>
<line x1="217.85714285714286" y1="225.29743584852469" x2="242.02857142857144" y2="225.29743584852469" stroke="#000"/>
<line x1="229.94285714285715" y1="218.90555357626087" x2="229.94285714285715" y2="225.29743584852469" stroke="#000"/>
<rect x="242.02857142857144" y="204.7759607299234" width="24.171428571428574" height="293.2240392700765" fill="orange" data-tooltip="1.06x baseline speed (MJIT3.0)"/>
<line x1="242.02857142857144" y1="198.75672898741314" x2="266.2" y2="198.75672898741314" stroke="#000"/>
<line x1="242.02857142857144" y1="210.79519247243368" x2="266.2" y2="210.79519247243368" stroke="#000"/>
<line x1="254.11428571428573" y1="198.75672898741314" x2="254.11428571428573" y2="210.79519247243368" stroke="#000"/>
<rect x="290.3714285714286" y="144.99782057840739" width="24.171428571428574" height="353.00217942159253" fill="#4F3A7A" data-tooltip="1.28x baseline speed (YJIT)"/>
<line x1="290.3714285714286" y1="139.0712020525396" x2="314.5428571428572" y2="139.0712020525396" stroke="#000"/>
<line x1="290.3714285714286" y1="150.92443910427517" x2="314.5428571428572" y2="150.92443910427517" stroke="#000"/>
<line x1="302.4571428571429" y1="139.0712020525396" x2="302.4571428571429" y2="150.92443910427517" stroke="#000"/>
<line x1="278.2857142857143" y1="498.0" x2="278.2857142857143" y2="502.79999999999995" stroke="#000"/>
<text x="278.2857142857143" y="512.4" fill="#111" font-size="small" font-family="monospace" font-weight="bold" text-anchor="end" transform="rotate(-60, 278.2857142857143, 512.4)">
hexapdf
</text>
<rect x="338.7142857142857" y="222.10149471239276" width="24.171428571428574" height="275.8985052876072" fill="#7070f8" data-tooltip="1.00x baseline speed (No JIT)"/>
<line x1="338.7142857142857" y1="217.79201027626414" x2="362.8857142857143" y2="217.79201027626414" stroke="#000"/>
<line x1="338.7142857142857" y1="226.41097914852142" x2="362.8857142857143" y2="226.41097914852142" stroke="#000"/>
<line x1="350.80000000000007" y1="217.79201027626414" x2="350.80000000000007" y2="226.41097914852142" stroke="#000"/>
<rect x="362.8857142857143" y="207.08251436297255" width="24.171428571428574" height="290.9174856370274" fill="orange" data-tooltip="1.05x baseline speed (MJIT3.0)"/>
<line x1="362.8857142857143" y1="195.45095342585535" x2="387.0571428571429" y2="195.45095342585535" stroke="#000"/>
<line x1="362.8857142857143" y1="218.71407530008972" x2="387.0571428571429" y2="218.71407530008972" stroke="#000"/>
<line x1="374.97142857142865" y1="195.45095342585535" x2="374.97142857142865" y2="218.71407530008972" stroke="#000"/>
<rect x="387.0571428571429" y="218.72193907486138" width="24.171428571428574" height="279.27806092513856" fill="green" data-tooltip="1.01x baseline speed (MJIT3.1)"/>
<line x1="387.0571428571429" y1="205.80263711286662" x2="411.22857142857146" y2="205.80263711286662" stroke="#000"/>
<line x1="387.0571428571429" y1="231.64124103685612" x2="411.22857142857146" y2="231.64124103685612" stroke="#000"/>
<line x1="399.14285714285717" y1="205.80263711286662" x2="399.14285714285717" y2="231.64124103685612" stroke="#000"/>
<rect x="411.2285714285715" y="188.14555885769974" width="24.171428571428574" height="309.8544411423002" fill="#4F3A7A" data-tooltip="1.12x baseline speed (YJIT)"/>
<line x1="411.2285714285715" y1="176.44534124844506" x2="435.4000000000001" y2="176.44534124844506" stroke="#000"/>
<line x1="411.2285714285715" y1="199.84577646695445" x2="435.4000000000001" y2="199.84577646695445" stroke="#000"/>
<line x1="423.3142857142858" y1="176.44534124844506" x2="423.3142857142858" y2="199.84577646695445" stroke="#000"/>
<line x1="399.14285714285717" y1="498.0" x2="399.14285714285717" y2="502.79999999999995" stroke="#000"/>
<text x="399.14285714285717" y="512.4" fill="#111" font-size="small" font-family="monospace" font-weight="bold" text-anchor="end" transform="rotate(-60, 399.14285714285717, 512.4)">
jekyll
</text>
<rect x="459.5714285714285" y="222.10149471239276" width="24.171428571428574" height="275.8985052876072" fill="#7070f8" data-tooltip="1.00x baseline speed (No JIT)"/>
<line x1="459.5714285714285" y1="218.19131782308975" x2="483.7428571428571" y2="218.19131782308975" stroke="#000"/>
<line x1="459.5714285714285" y1="226.0116716016958" x2="483.7428571428571" y2="226.0116716016958" stroke="#000"/>
<line x1="471.65714285714284" y1="218.19131782308975" x2="471.65714285714284" y2="226.0116716016958" stroke="#000"/>
<rect x="483.7428571428571" y="206.74589014867166" width="24.171428571428574" height="291.2541098513283" fill="orange" data-tooltip="1.06x baseline speed (MJIT3.0)"/>
<line x1="483.7428571428571" y1="198.84475200690298" x2="507.91428571428565" y2="198.84475200690298" stroke="#000"/>
<line x1="483.7428571428571" y1="214.64702829044032" x2="507.91428571428565" y2="214.64702829044032" stroke="#000"/>
<line x1="495.8285714285714" y1="198.84475200690298" x2="495.8285714285714" y2="214.64702829044032" stroke="#000"/>
<rect x="507.91428571428565" y="205.2764774595323" width="24.171428571428574" height="292.7235225404676" fill="green" data-tooltip="1.06x baseline speed (MJIT3.1)"/>
<line x1="507.91428571428565" y1="191.64576501324314" x2="532.0857142857143" y2="191.64576501324314" stroke="#000"/>
<line x1="507.91428571428565" y1="218.90718990582144" x2="532.0857142857143" y2="218.90718990582144" stroke="#000"/>
<line x1="519.9999999999999" y1="191.64576501324314" x2="519.9999999999999" y2="218.90718990582144" stroke="#000"/>
<rect x="532.0857142857143" y="100.19999999999999" width="24.171428571428574" height="397.79999999999995" fill="#4F3A7A" data-tooltip="1.44x baseline speed (YJIT)"/>
<line x1="532.0857142857143" y1="90.53773588513063" x2="556.2571428571429" y2="90.53773588513063" stroke="#000"/>
<line x1="532.0857142857143" y1="109.86226411486935" x2="556.2571428571429" y2="109.86226411486935" stroke="#000"/>
<line x1="544.1714285714286" y1="90.53773588513063" x2="544.1714285714286" y2="109.86226411486935" stroke="#000"/>
<line x1="519.9999999999999" y1="498.0" x2="519.9999999999999" y2="502.79999999999995" stroke="#000"/>
<text x="519.9999999999999" y="512.4" fill="#111" font-size="small" font-family="monospace" font-weight="bold" text-anchor="end" transform="rotate(-60, 519.9999999999999, 512.4)">
liquid-render
</text>
<rect x="580.4285714285714" y="222.10149471239276" width="24.171428571428574" height="275.8985052876072" fill="#7070f8" data-tooltip="1.00x baseline speed (No JIT)"/>
<line x1="580.4285714285714" y1="221.25155075182928" x2="604.6" y2="221.25155075182928" stroke="#000"/>
<line x1="580.4285714285714" y1="222.95143867295627" x2="604.6" y2="222.95143867295627" stroke="#000"/>
<line x1="592.5142857142856" y1="221.25155075182928" x2="592.5142857142856" y2="222.95143867295627" stroke="#000"/>
<rect x="604.6" y="206.2924622612644" width="24.171428571428574" height="291.7075377387356" fill="orange" data-tooltip="1.06x baseline speed (MJIT3.0)"/>
<line x1="604.6" y1="200.69819415896808" x2="628.7714285714286" y2="200.69819415896808" stroke="#000"/>
<line x1="604.6" y1="211.88673036356076" x2="628.7714285714286" y2="211.88673036356076" stroke="#000"/>
<line x1="616.6857142857143" y1="200.69819415896808" x2="616.6857142857143" y2="211.88673036356076" stroke="#000"/>
<rect x="628.7714285714285" y="223.90051973935445" width="24.171428571428574" height="274.0994802606455" fill="green" data-tooltip="0.99x baseline speed (MJIT3.1)"/>
<line x1="628.7714285714285" y1="218.02521213627102" x2="652.9428571428572" y2="218.02521213627102" stroke="#000"/>
<line x1="628.7714285714285" y1="229.77582734243788" x2="652.9428571428572" y2="229.77582734243788" stroke="#000"/>
<line x1="640.8571428571428" y1="218.02521213627102" x2="640.8571428571428" y2="229.77582734243788" stroke="#000"/>
<rect x="652.9428571428572" y="190.8384001726384" width="24.171428571428574" height="307.16159982736156" fill="#4F3A7A" data-tooltip="1.11x baseline speed (YJIT)"/>
<line x1="652.9428571428572" y1="188.35577717849836" x2="677.1142857142858" y2="188.35577717849836" stroke="#000"/>
<line x1="652.9428571428572" y1="193.3210231667784" x2="677.1142857142858" y2="193.3210231667784" stroke="#000"/>
<line x1="665.0285714285715" y1="188.35577717849836" x2="665.0285714285715" y2="193.3210231667784" stroke="#000"/>
<line x1="640.8571428571428" y1="498.0" x2="640.8571428571428" y2="502.79999999999995" stroke="#000"/>
<text x="640.8571428571428" y="512.4" fill="#111" font-size="small" font-family="monospace" font-weight="bold" text-anchor="end" transform="rotate(-60, 640.8571428571428, 512.4)">
mail
</text>
<rect x="701.2857142857143" y="222.10149471239276" width="24.171428571428574" height="275.8985052876072" fill="#7070f8" data-tooltip="1.00x baseline speed (No JIT)"/>
<line x1="701.2857142857143" y1="221.26798413330474" x2="725.4571428571429" y2="221.26798413330474" stroke="#000"/>
<line x1="701.2857142857143" y1="222.93500529148082" x2="725.4571428571429" y2="222.93500529148082" stroke="#000"/>
<line x1="713.3714285714285" y1="221.26798413330474" x2="713.3714285714285" y2="222.93500529148082" stroke="#000"/>
<rect x="725.4571428571429" y="183.2765994042172" width="24.171428571428574" height="314.7234005957827" fill="orange" data-tooltip="1.14x baseline speed (MJIT3.0)"/>
<line x1="725.4571428571429" y1="177.42729958691388" x2="749.6285714285715" y2="177.42729958691388" stroke="#000"/>
<line x1="725.4571428571429" y1="189.12589922152054" x2="749.6285714285715" y2="189.12589922152054" stroke="#000"/>
<line x1="737.5428571428572" y1="177.42729958691388" x2="737.5428571428572" y2="189.12589922152054" stroke="#000"/>
<rect x="749.6285714285714" y="175.672321114108" width="24.171428571428574" height="322.32767888589194" fill="green" data-tooltip="1.17x baseline speed (MJIT3.1)"/>
<line x1="749.6285714285714" y1="173.9054004460709" x2="773.8000000000001" y2="173.9054004460709" stroke="#000"/>
<line x1="749.6285714285714" y1="177.43924178214507" x2="773.8000000000001" y2="177.43924178214507" stroke="#000"/>
<line x1="761.7142857142857" y1="173.9054004460709" x2="761.7142857142857" y2="177.43924178214507" stroke="#000"/>
<rect x="773.8000000000001" y="133.40883881257108" width="24.171428571428574" height="364.5911611874289" fill="#4F3A7A" data-tooltip="1.32x baseline speed (YJIT)"/>
<line x1="773.8000000000001" y1="131.82045586452756" x2="797.9714285714286" y2="131.82045586452756" stroke="#000"/>
<line x1="773.8000000000001" y1="134.9972217606146" x2="797.9714285714286" y2="134.9972217606146" stroke="#000"/>
<line x1="785.8857142857142" y1="131.82045586452756" x2="785.8857142857142" y2="134.9972217606146" stroke="#000"/>
<line x1="761.7142857142857" y1="498.0" x2="761.7142857142857" y2="502.79999999999995" stroke="#000"/>
<text x="761.7142857142857" y="512.4" fill="#111" font-size="small" font-family="monospace" font-weight="bold" text-anchor="end" transform="rotate(-60, 761.7142857142857, 512.4)">
psych-load
</text>
<rect x="822.1428571428571" y="222.10149471239276" width="24.171428571428574" height="275.8985052876072" fill="#7070f8" data-tooltip="1.00x baseline speed (No JIT)"/>
<line x1="822.1428571428571" y1="218.47617641969117" x2="846.3142857142857" y2="218.47617641969117" stroke="#000"/>
<line x1="822.1428571428571" y1="225.72681300509439" x2="846.3142857142857" y2="225.72681300509439" stroke="#000"/>
<line x1="834.2285714285713" y1="218.47617641969117" x2="834.2285714285713" y2="225.72681300509439" stroke="#000"/>
<rect x="846.3142857142857" y="219.3529333475561" width="24.171428571428574" height="278.6470666524438" fill="orange" data-tooltip="1.01x baseline speed (MJIT3.0)"/>
<line x1="846.3142857142857" y1="214.66966265766408" x2="870.4857142857143" y2="214.66966265766408" stroke="#000"/>
<line x1="846.3142857142857" y1="224.03620403744816" x2="870.4857142857143" y2="224.03620403744816" stroke="#000"/>
<line x1="858.4" y1="214.66966265766408" x2="858.4" y2="224.03620403744816" stroke="#000"/>
<rect x="870.4857142857142" y="252.3617744236494" width="24.171428571428574" height="245.63822557635055" fill="green" data-tooltip="0.89x baseline speed (MJIT3.1)"/>
<line x1="870.4857142857142" y1="248.213344148457" x2="894.6571428571428" y2="248.213344148457" stroke="#000"/>
<line x1="870.4857142857142" y1="256.5102046988418" x2="894.6571428571428" y2="256.5102046988418" stroke="#000"/>
<line x1="882.5714285714284" y1="248.213344148457" x2="882.5714285714284" y2="256.5102046988418" stroke="#000"/>
<rect x="894.6571428571428" y="169.3600707602111" width="24.171428571428574" height="328.6399292397889" fill="#4F3A7A" data-tooltip="1.19x baseline speed (YJIT)"/>
<line x1="894.6571428571428" y1="162.66110973610955" x2="918.8285714285714" y2="162.66110973610955" stroke="#000"/>
<line x1="894.6571428571428" y1="176.05903178431262" x2="918.8285714285714" y2="176.05903178431262" stroke="#000"/>
<line x1="906.742857142857" y1="162.66110973610955" x2="906.742857142857" y2="176.05903178431262" stroke="#000"/>
<line x1="882.5714285714284" y1="498.0" x2="882.5714285714284" y2="502.79999999999995" stroke="#000"/>
<text x="882.5714285714284" y="512.4" fill="#111" font-size="small" font-family="monospace" font-weight="bold" text-anchor="end" transform="rotate(-60, 882.5714285714284, 512.4)">
railsbench
</text>
</svg>