<svg viewBox="0 0 1000 600" xmlns="http://www.w3.org/2000/svg" xmlns:xlink="http://www.w3.org/1999/xlink" width="100%" height="100%">

<rect x="50.0" y="30.0" width="940.0" height="467.99999999999994" stroke="#000" fill="#EEE"/>
<line x1="42.0" y1="497.9999999999999" x2="50.0" y2="497.9999999999999" stroke="#000"/>
<text x="26.000000000000004" y="497.9999999999999" text-anchor="end" font-weight="bold" font-size="small" fill="#111">
0.0
</text>
<line x1="42.0" y1="401.1351568915061" x2="50.0" y2="401.1351568915061" stroke="#000"/>
<text x="26.000000000000004" y="401.1351568915061" text-anchor="end" font-weight="bold" font-size="small" fill="#111">
2.0
</text>
<line x1="42.0" y1="304.27031378301217" x2="50.0" y2="304.27031378301217" stroke="#000"/>
<text x="26.000000000000004" y="304.27031378301217" text-anchor="end" font-weight="bold" font-size="small" fill="#111">
4.0
</text>
<line x1="42.0" y1="207.4054706745183" x2="50.0" y2="207.4054706745183" stroke="#000"/>
<text x="26.000000000000004" y="207.4054706745183" text-anchor="end" font-weight="bold" font-size="small" fill="#111">
6.0
</text>
<line x1="42.0" y1="110.54062756602438" x2="50.0" y2="110.54062756602438" stroke="#000"/>
<text x="26.000000000000004" y="110.54062756602438" text-anchor="end" font-weight="bold" font-size="small" fill="#111">
8.0
</text>
<rect x="197.99999999999997" y="36.00000000000001" width="80.0" height="18.0" fill="#7070f8" stroke="#888"/>
<text x="238.0" y="52.50000000000001" font-size="small" text-anchor="middle" font-weight="bold" fill="#EEE">
No JIT
</text>
<rect x="479.99999999999994" y="36.00000000000001" width="80.0" height="18.0" fill="orange" stroke="#888"/>
<text x="519.9999999999999" y="52.50000000000001" font-size="small" text-anchor="middle" font-weight="bold" fill="#EEE">
MJIT3.0
</text>
<rect x="761.9999999999999" y="36.00000000000001" width="80.0" height="18.0" fill="green" stroke="#888"/>
<text x="801.9999999999999" y="52.50000000000001" font-size="small" text-anchor="middle" font-weight="bold" fill="#EEE">
YJIT
</text>
<rect x="97.0" y="449.567578445753" width="26.4375" height="48.43242155424694" fill="#7070f8" data-tooltip="1.00x baseline speed (No JIT)"/>
<line x1="97.0" y1="447.9736713138211" x2="123.4375" y2="447.9736713138211" stroke="#000"/>
<line x1="97.0" y1="451.16148557768486" x2="123.4375" y2="451.16148557768486" stroke="#000"/>
<line x1="110.21875" y1="447.9736713138211" x2="110.21875" y2="451.16148557768486" stroke="#000"/>
<rect x="123.4375" y="447.98690168193605" width="26.4375" height="50.013098318063925" fill="orange" data-tooltip="1.03x baseline speed (MJIT3.0)"/>
<line x1="123.4375" y1="446.32113371650735" x2="149.875" y2="446.32113371650735" stroke="#000"/>
<line x1="123.4375" y1="449.65266964736475" x2="149.875" y2="449.65266964736475" stroke="#000"/>
<line x1="136.65625" y1="446.32113371650735" x2="136.65625" y2="449.65266964736475" stroke="#000"/>
<rect x="149.875" y="166.5324611266555" width="26.4375" height="331.4675388733444" fill="green" data-tooltip="6.84x baseline speed (YJIT)"/>
<line x1="149.875" y1="155.60992316470674" x2="176.3125" y2="155.60992316470674" stroke="#000"/>
<line x1="149.875" y1="177.45499908860427" x2="176.3125" y2="177.45499908860427" stroke="#000"/>
<line x1="163.09375" y1="155.60992316470674" x2="163.09375" y2="177.45499908860427" stroke="#000"/>
<line x1="149.875" y1="498.0" x2="149.875" y2="502.79999999999995" stroke="#000"/>
<text x="149.875" y="512.4" fill="#111" font-size="small" font-family="monospace" font-weight="bold" text-anchor="end" transform="rotate(-60, 149.875, 512.4)">
30k_ifelse
</text>
<rect x="202.75" y="449.567578445753" width="26.4375" height="48.43242155424694" fill="#7070f8" data-tooltip="1.00x baseline speed (No JIT)"/>
<line x1="202.75" y1="449.5498070250011" x2="229.1875" y2="449.5498070250011" stroke="#000"/>
<line x1="202.75" y1="449.5853498665049" x2="229.1875" y2="449.5853498665049" stroke="#000"/>
<line x1="215.96875" y1="449.5498070250011" x2="215.96875" y2="449.5853498665049" stroke="#000"/>
<rect x="229.1875" y="447.70751093228705" width="26.4375" height="50.29248906771283" fill="orange" data-tooltip="1.04x baseline speed (MJIT3.0)"/>
<line x1="229.1875" y1="447.6158294924868" x2="255.625" y2="447.6158294924868" stroke="#000"/>
<line x1="229.1875" y1="447.7991923720873" x2="255.625" y2="447.7991923720873" stroke="#000"/>
<line x1="242.40625" y1="447.6158294924868" x2="242.40625" y2="447.7991923720873" stroke="#000"/>
<rect x="255.625" y="100.19999999999999" width="26.4375" height="397.79999999999995" fill="green" data-tooltip="8.21x baseline speed (YJIT)"/>
<line x1="255.625" y1="99.97358036375172" x2="282.0625" y2="99.97358036375172" stroke="#000"/>
<line x1="255.625" y1="100.42641963624826" x2="282.0625" y2="100.42641963624826" stroke="#000"/>
<line x1="268.84375" y1="99.97358036375172" x2="268.84375" y2="100.42641963624826" stroke="#000"/>
<line x1="255.625" y1="498.0" x2="255.625" y2="502.79999999999995" stroke="#000"/>
<text x="255.625" y="512.4" fill="#111" font-size="small" font-family="monospace" font-weight="bold" text-anchor="end" transform="rotate(-60, 255.625, 512.4)">
30k_methods
</text>
<rect x="308.5" y="449.567578445753" width="26.4375" height="48.43242155424694" fill="#7070f8" data-tooltip="1.00x baseline speed (No JIT)"/>
<line x1="308.5" y1="449.5145427641418" x2="334.9375" y2="449.5145427641418" stroke="#000"/>
<line x1="308.5" y1="449.62061412736415" x2="334.9375" y2="449.62061412736415" stroke="#000"/>
<line x1="321.71875" y1="449.5145427641418" x2="321.71875" y2="449.62061412736415" stroke="#000"/>
<rect x="334.9375" y="422.57188913701856" width="26.4375" height="75.42811086298141" fill="orange" data-tooltip="1.56x baseline speed (MJIT3.0)"/>
<line x1="334.9375" y1="422.4434747336829" x2="361.375" y2="422.4434747336829" stroke="#000"/>
<line x1="334.9375" y1="422.70030354035424" x2="361.375" y2="422.70030354035424" stroke="#000"/>
<line x1="348.15625" y1="422.4434747336829" x2="348.15625" y2="422.70030354035424" stroke="#000"/>
<rect x="361.375" y="383.49246455158374" width="26.4375" height="114.50753544841618" fill="green" data-tooltip="2.36x baseline speed (YJIT)"/>
<line x1="361.375" y1="383.16371712456026" x2="387.8125" y2="383.16371712456026" stroke="#000"/>
<line x1="361.375" y1="383.8212119786072" x2="387.8125" y2="383.8212119786072" stroke="#000"/>
<line x1="374.59375" y1="383.16371712456026" x2="374.59375" y2="383.8212119786072" stroke="#000"/>
<line x1="361.375" y1="498.0" x2="361.375" y2="502.79999999999995" stroke="#000"/>
<text x="361.375" y="512.4" fill="#111" font-size="small" font-family="monospace" font-weight="bold" text-anchor="end" transform="rotate(-60, 361.375, 512.4)">
cfunc_itself
</text>
<rect x="414.25" y="449.567578445753" width="26.4375" height="48.43242155424694" fill="#7070f8" data-tooltip="1.00x baseline speed (No JIT)"/>
<line x1="414.25" y1="449.54462669350596" x2="440.6875" y2="449.54462669350596" stroke="#000"/>
<line x1="414.25" y1="449.590530198" x2="440.6875" y2="449.590530198" stroke="#000"/>
<line x1="427.46875" y1="449.54462669350596" x2="427.46875" y2="449.590530198" stroke="#000"/>
<rect x="440.6875" y="348.23571032630724" width="26.4375" height="149.76428967369273" fill="orange" data-tooltip="3.09x baseline speed (MJIT3.0)"/>
<line x1="440.6875" y1="348.1302136945067" x2="467.125" y2="348.1302136945067" stroke="#000"/>
<line x1="440.6875" y1="348.3412069581077" x2="467.125" y2="348.3412069581077" stroke="#000"/>
<line x1="453.90625" y1="348.1302136945067" x2="453.90625" y2="348.3412069581077" stroke="#000"/>
<rect x="467.125" y="317.5737816920447" width="26.4375" height="180.42621830795522" fill="green" data-tooltip="3.73x baseline speed (YJIT)"/>
<line x1="467.125" y1="317.45967700886945" x2="493.5625" y2="317.45967700886945" stroke="#000"/>
<line x1="467.125" y1="317.68788637522" x2="493.5625" y2="317.68788637522" stroke="#000"/>
<line x1="480.34375" y1="317.45967700886945" x2="480.34375" y2="317.68788637522" stroke="#000"/>
<line x1="467.125" y1="498.0" x2="467.125" y2="502.79999999999995" stroke="#000"/>
<text x="467.125" y="512.4" fill="#111" font-size="small" font-family="monospace" font-weight="bold" text-anchor="end" transform="rotate(-60, 467.125, 512.4)">
fib
</text>
<rect x="520.0" y="449.567578445753" width="26.4375" height="48.43242155424694" fill="#7070f8" data-tooltip="1.00x baseline speed (No JIT)"/>
<line x1="520.0" y1="449.5175494736846" x2="546.4375" y2="449.5175494736846" stroke="#000"/>
<line x1="520.0" y1="449.6176074178214" x2="546.4375" y2="449.6176074178214" stroke="#000"/>
<line x1="533.21875" y1="449.5175494736846" x2="533.21875" y2="449.6176074178214" stroke="#000"/>
<rect x="546.4375" y="452.26586752556796" width="26.4375" height="45.734132474431966" fill="orange" data-tooltip="0.94x baseline speed (MJIT3.0)"/>
<line x1="546.4375" y1="452.1873414200607" x2="572.875" y2="452.1873414200607" stroke="#000"/>
<line x1="546.4375" y1="452.34439363107526" x2="572.875" y2="452.34439363107526" stroke="#000"/>
<line x1="559.65625" y1="452.1873414200607" x2="559.65625" y2="452.34439363107526" stroke="#000"/>
<rect x="572.875" y="383.65624558192116" width="26.4375" height="114.34375441807877" fill="green" data-tooltip="2.36x baseline speed (YJIT)"/>
<line x1="572.875" y1="383.5339044581997" x2="599.3125" y2="383.5339044581997" stroke="#000"/>
<line x1="572.875" y1="383.7785867056426" x2="599.3125" y2="383.7785867056426" stroke="#000"/>
<line x1="586.09375" y1="383.5339044581997" x2="586.09375" y2="383.7785867056426" stroke="#000"/>
<line x1="572.875" y1="498.0" x2="572.875" y2="502.79999999999995" stroke="#000"/>
<text x="572.875" y="512.4" fill="#111" font-size="small" font-family="monospace" font-weight="bold" text-anchor="end" transform="rotate(-60, 572.875, 512.4)">
getivar
</text>
<rect x="625.7499999999999" y="449.567578445753" width="26.4375" height="48.43242155424694" fill="#7070f8" data-tooltip="1.00x baseline speed (No JIT)"/>
<line x1="625.7499999999999" y1="449.5455822417039" x2="652.1874999999999" y2="449.5455822417039" stroke="#000"/>
<line x1="625.7499999999999" y1="449.58957464980205" x2="652.1874999999999" y2="449.58957464980205" stroke="#000"/>
<line x1="638.9687499999999" y1="449.5455822417039" x2="638.9687499999999" y2="449.58957464980205" stroke="#000"/>
<rect x="652.1874999999999" y="438.3071300703341" width="26.4375" height="59.69286992966591" fill="orange" data-tooltip="1.23x baseline speed (MJIT3.0)"/>
<line x1="652.1874999999999" y1="438.2596273119553" x2="678.6249999999999" y2="438.2596273119553" stroke="#000"/>
<line x1="652.1874999999999" y1="438.35463282871297" x2="678.6249999999999" y2="438.35463282871297" stroke="#000"/>
<line x1="665.4062499999999" y1="438.2596273119553" x2="665.4062499999999" y2="438.35463282871297" stroke="#000"/>
<rect x="678.6249999999999" y="259.7162796293672" width="26.4375" height="238.28372037063278" fill="green" data-tooltip="4.92x baseline speed (YJIT)"/>
<line x1="678.6249999999999" y1="259.4798445513359" x2="705.0624999999999" y2="259.4798445513359" stroke="#000"/>
<line x1="678.6249999999999" y1="259.9527147073985" x2="705.0624999999999" y2="259.9527147073985" stroke="#000"/>
<line x1="691.8437499999999" y1="259.4798445513359" x2="691.8437499999999" y2="259.9527147073985" stroke="#000"/>
<line x1="678.6249999999999" y1="498.0" x2="678.6249999999999" y2="502.79999999999995" stroke="#000"/>
<text x="678.6249999999999" y="512.4" fill="#111" font-size="small" font-family="monospace" font-weight="bold" text-anchor="end" transform="rotate(-60, 678.6249999999999, 512.4)">
keyword_args
</text>
<rect x="731.4999999999999" y="449.567578445753" width="26.4375" height="48.43242155424694" fill="#7070f8" data-tooltip="1.00x baseline speed (No JIT)"/>
<line x1="731.4999999999999" y1="449.50007635914426" x2="757.9374999999999" y2="449.50007635914426" stroke="#000"/>
<line x1="731.4999999999999" y1="449.6350805323617" x2="757.9374999999999" y2="449.6350805323617" stroke="#000"/>
<line x1="744.7187499999999" y1="449.50007635914426" x2="744.7187499999999" y2="449.6350805323617" stroke="#000"/>
<rect x="757.9374999999999" y="443.02208987596265" width="26.4375" height="54.97791012403733" fill="orange" data-tooltip="1.14x baseline speed (MJIT3.0)"/>
<line x1="757.9374999999999" y1="442.91363387809827" x2="784.3749999999999" y2="442.91363387809827" stroke="#000"/>
<line x1="757.9374999999999" y1="443.13054587382703" x2="784.3749999999999" y2="443.13054587382703" stroke="#000"/>
<line x1="771.1562499999999" y1="442.91363387809827" x2="771.1562499999999" y2="443.13054587382703" stroke="#000"/>
<rect x="784.3749999999999" y="431.2800550223566" width="26.4375" height="66.71994497764338" fill="green" data-tooltip="1.38x baseline speed (YJIT)"/>
<line x1="784.3749999999999" y1="430.81994503922203" x2="810.8124999999999" y2="430.81994503922203" stroke="#000"/>
<line x1="784.3749999999999" y1="431.7401650054911" x2="810.8124999999999" y2="431.7401650054911" stroke="#000"/>
<line x1="797.5937499999999" y1="430.81994503922203" x2="797.5937499999999" y2="431.7401650054911" stroke="#000"/>
<line x1="784.3749999999999" y1="498.0" x2="784.3749999999999" y2="502.79999999999995" stroke="#000"/>
<text x="784.3749999999999" y="512.4" fill="#111" font-size="small" font-family="monospace" font-weight="bold" text-anchor="end" transform="rotate(-60, 784.3749999999999, 512.4)">
respond_to
</text>
<rect x="837.2499999999999" y="449.567578445753" width="26.4375" height="48.43242155424694" fill="#7070f8" data-tooltip="1.00x baseline speed (No JIT)"/>
<line x1="837.2499999999999" y1="449.5474203332723" x2="863.6874999999999" y2="449.5474203332723" stroke="#000"/>
<line x1="837.2499999999999" y1="449.58773655823364" x2="863.6874999999999" y2="449.58773655823364" stroke="#000"/>
<line x1="850.4687499999999" y1="449.5474203332723" x2="850.4687499999999" y2="449.58773655823364" stroke="#000"/>
<rect x="863.6874999999999" y="453.63556469916955" width="26.4375" height="44.364435300830415" fill="orange" data-tooltip="0.92x baseline speed (MJIT3.0)"/>
<line x1="863.6874999999999" y1="453.570894950134" x2="890.125" y2="453.570894950134" stroke="#000"/>
<line x1="863.6874999999999" y1="453.70023444820504" x2="890.125" y2="453.70023444820504" stroke="#000"/>
<line x1="876.9062499999999" y1="453.570894950134" x2="876.9062499999999" y2="453.70023444820504" stroke="#000"/>
<rect x="890.125" y="419.800371443887" width="26.4375" height="78.19962855611303" fill="green" data-tooltip="1.61x baseline speed (YJIT)"/>
<line x1="890.125" y1="419.7473479307888" x2="916.5625" y2="419.7473479307888" stroke="#000"/>
<line x1="890.125" y1="419.85339495698514" x2="916.5625" y2="419.85339495698514" stroke="#000"/>
<line x1="903.3437499999999" y1="419.7473479307888" x2="903.3437499999999" y2="419.85339495698514" stroke="#000"/>
<line x1="890.125" y1="498.0" x2="890.125" y2="502.79999999999995" stroke="#000"/>
<text x="890.125" y="512.4" fill="#111" font-size="small" font-family="monospace" font-weight="bold" text-anchor="end" transform="rotate(-60, 890.125, 512.4)">
setivar
</text>
</svg>