<svg viewBox="0 0 1000 600" xmlns="http://www.w3.org/2000/svg" xmlns:xlink="http://www.w3.org/1999/xlink" width="100%" height="100%">

<rect x="50.0" y="30.0" width="940.0" height="467.99999999999994" stroke="#000" fill="#EEE"/>
<line x1="42.0" y1="497.9999999999999" x2="50.0" y2="497.9999999999999" stroke="#000"/>
<text x="26.000000000000004" y="497.9999999999999" text-anchor="end" font-weight="bold" font-size="small" fill="#111">
0.0
</text>
<line x1="42.0" y1="447.3921032844484" x2="50.0" y2="447.3921032844484" stroke="#000"/>
<text x="26.000000000000004" y="447.3921032844484" text-anchor="end" font-weight="bold" font-size="small" fill="#111">
0.2
</text>
<line x1="42.0" y1="396.7842065688971" x2="50.0" y2="396.7842065688971" stroke="#000"/>
<text x="26.000000000000004" y="396.7842065688971" text-anchor="end" font-weight="bold" font-size="small" fill="#111">
0.4
</text>
<line x1="42.0" y1="346.1763098533456" x2="50.0" y2="346.1763098533456" stroke="#000"/>
<text x="26.000000000000004" y="346.1763098533456" text-anchor="end" font-weight="bold" font-size="small" fill="#111">
0.6
</text>
<line x1="42.0" y1="295.56841313779415" x2="50.0" y2="295.56841313779415" stroke="#000"/>
<text x="26.000000000000004" y="295.56841313779415" text-anchor="end" font-weight="bold" font-size="small" fill="#111">
0.8
</text>
<line x1="42.0" y1="244.9605164222427" x2="50.0" y2="244.9605164222427" stroke="#000"/>
<text x="26.000000000000004" y="244.9605164222427" text-anchor="end" font-weight="bold" font-size="small" fill="#111">
1.0
</text>
<line x1="42.0" y1="194.35261970669126" x2="50.0" y2="194.35261970669126" stroke="#000"/>
<text x="26.000000000000004" y="194.35261970669126" text-anchor="end" font-weight="bold" font-size="small" fill="#111">
1.2
</text>
<line x1="42.0" y1="143.74472299113984" x2="50.0" y2="143.74472299113984" stroke="#000"/>
<text x="26.000000000000004" y="143.74472299113984" text-anchor="end" font-weight="bold" font-size="small" fill="#111">
1.4
</text>
<rect x="197.99999999999997" y="36.00000000000001" width="80.0" height="18.0" fill="#7070f8" stroke="#888"/>
<text x="238.0" y="52.50000000000001" font-size="small" text-anchor="middle" font-weight="bold" fill="#EEE">
No JIT
</text>
<rect x="479.99999999999994" y="36.00000000000001" width="80.0" height="18.0" fill="orange" stroke="#888"/>
<text x="519.9999999999999" y="52.50000000000001" font-size="small" text-anchor="middle" font-weight="bold" fill="#EEE">
MJIT
</text>
<rect x="761.9999999999999" y="36.00000000000001" width="80.0" height="18.0" fill="green" stroke="#888"/>
<text x="801.9999999999999" y="52.50000000000001" font-size="small" text-anchor="middle" font-weight="bold" fill="#EEE">
YJIT
</text>
<rect x="97.0" y="244.9605164222427" width="35.25" height="253.03948357775724" fill="#7070f8" data-tooltip="1.00x baseline speed (No JIT)"/>
<line x1="97.0" y1="243.6218835503078" x2="132.25" y2="243.6218835503078" stroke="#000"/>
<line x1="97.0" y1="246.2991492941776" x2="132.25" y2="246.2991492941776" stroke="#000"/>
<line x1="114.625" y1="243.6218835503078" x2="114.625" y2="246.2991492941776" stroke="#000"/>
<rect x="132.25" y="249.4618195460937" width="35.25" height="248.53818045390625" fill="orange" data-tooltip="0.98x baseline speed (MJIT)"/>
<line x1="132.25" y1="246.62236617740163" x2="167.5" y2="246.62236617740163" stroke="#000"/>
<line x1="132.25" y1="252.30127291478576" x2="167.5" y2="252.30127291478576" stroke="#000"/>
<line x1="149.875" y1="246.62236617740163" x2="149.875" y2="252.30127291478576" stroke="#000"/>
<rect x="167.49999999999997" y="153.94840267090908" width="35.25" height="344.0515973290909" fill="green" data-tooltip="1.36x baseline speed (YJIT)"/>
<line x1="167.49999999999997" y1="151.50978458838787" x2="202.75" y2="151.50978458838787" stroke="#000"/>
<line x1="167.49999999999997" y1="156.38702075343025" x2="202.75" y2="156.38702075343025" stroke="#000"/>
<line x1="185.12499999999997" y1="151.50978458838787" x2="185.12499999999997" y2="156.38702075343025" stroke="#000"/>
<line x1="167.49999999999997" y1="498.0" x2="167.49999999999997" y2="502.79999999999995" stroke="#000"/>
<text x="167.49999999999997" y="512.4" fill="#111" font-size="small" font-family="monospace" font-weight="bold" text-anchor="end" transform="rotate(-60, 167.49999999999997, 512.4)">
activerecord
</text>
<rect x="238.0" y="244.9605164222427" width="35.25" height="253.03948357775724" fill="#7070f8" data-tooltip="1.00x baseline speed (No JIT)"/>
<line x1="238.0" y1="242.22045560754617" x2="273.25" y2="242.22045560754617" stroke="#000"/>
<line x1="238.0" y1="247.70057723693924" x2="273.25" y2="247.70057723693924" stroke="#000"/>
<line x1="255.625" y1="242.22045560754617" x2="255.625" y2="247.70057723693924" stroke="#000"/>
<rect x="308.5" y="161.801424573321" width="35.25" height="336.198575426679" fill="green" data-tooltip="1.33x baseline speed (YJIT)"/>
<line x1="308.5" y1="151.0260426117667" x2="343.75" y2="151.0260426117667" stroke="#000"/>
<line x1="308.5" y1="172.57680653487523" x2="343.75" y2="172.57680653487523" stroke="#000"/>
<line x1="326.125" y1="151.0260426117667" x2="326.125" y2="172.57680653487523" stroke="#000"/>
<line x1="308.5" y1="498.0" x2="308.5" y2="502.79999999999995" stroke="#000"/>
<text x="308.5" y="512.4" fill="#111" font-size="small" font-family="monospace" font-weight="bold" text-anchor="end" transform="rotate(-60, 308.5, 512.4)">
hexapdf
</text>
<rect x="379.0" y="244.9605164222427" width="35.25" height="253.03948357775724" fill="#7070f8" data-tooltip="1.00x baseline speed (No JIT)"/>
<line x1="379.0" y1="241.4438991924709" x2="414.25" y2="241.4438991924709" stroke="#000"/>
<line x1="379.0" y1="248.47713365201452" x2="414.25" y2="248.47713365201452" stroke="#000"/>
<line x1="396.625" y1="241.4438991924709" x2="396.625" y2="248.47713365201452" stroke="#000"/>
<rect x="414.25" y="205.24193846114312" width="35.25" height="292.75806153885685" fill="orange" data-tooltip="1.16x baseline speed (MJIT)"/>
<line x1="414.25" y1="199.17472389023354" x2="449.5" y2="199.17472389023354" stroke="#000"/>
<line x1="414.25" y1="211.3091530320527" x2="449.5" y2="211.3091530320527" stroke="#000"/>
<line x1="431.875" y1="199.17472389023354" x2="431.875" y2="211.3091530320527" stroke="#000"/>
<rect x="449.5" y="100.19999999999999" width="35.25" height="397.79999999999995" fill="green" data-tooltip="1.57x baseline speed (YJIT)"/>
<line x1="449.5" y1="91.15403410165035" x2="484.75" y2="91.15403410165035" stroke="#000"/>
<line x1="449.5" y1="109.24596589834962" x2="484.75" y2="109.24596589834962" stroke="#000"/>
<line x1="467.125" y1="91.15403410165035" x2="467.125" y2="109.24596589834962" stroke="#000"/>
<line x1="449.5" y1="498.0" x2="449.5" y2="502.79999999999995" stroke="#000"/>
<text x="449.5" y="512.4" fill="#111" font-size="small" font-family="monospace" font-weight="bold" text-anchor="end" transform="rotate(-60, 449.5, 512.4)">
liquid-render
</text>
<rect x="519.9999999999999" y="244.9605164222427" width="35.25" height="253.03948357775724" fill="#7070f8" data-tooltip="1.00x baseline speed (No JIT)"/>
<line x1="519.9999999999999" y1="244.44016364201957" x2="555.2499999999999" y2="244.44016364201957" stroke="#000"/>
<line x1="519.9999999999999" y1="245.48086920246584" x2="555.2499999999999" y2="245.48086920246584" stroke="#000"/>
<line x1="537.6249999999999" y1="244.44016364201957" x2="537.6249999999999" y2="245.48086920246584" stroke="#000"/>
<rect x="555.2499999999999" y="238.3162237968926" width="35.25" height="259.68377620310736" fill="orange" data-tooltip="1.03x baseline speed (MJIT)"/>
<line x1="555.2499999999999" y1="232.1600047142796" x2="590.4999999999999" y2="232.1600047142796" stroke="#000"/>
<line x1="555.2499999999999" y1="244.47244287950556" x2="590.4999999999999" y2="244.47244287950556" stroke="#000"/>
<line x1="572.8749999999999" y1="232.1600047142796" x2="572.8749999999999" y2="244.47244287950556" stroke="#000"/>
<rect x="590.4999999999999" y="206.52805313872437" width="35.25" height="291.47194686127557" fill="green" data-tooltip="1.15x baseline speed (YJIT)"/>
<line x1="590.4999999999999" y1="205.810169877945" x2="625.7499999999999" y2="205.810169877945" stroke="#000"/>
<line x1="590.4999999999999" y1="207.24593639950376" x2="625.7499999999999" y2="207.24593639950376" stroke="#000"/>
<line x1="608.1249999999999" y1="205.810169877945" x2="608.1249999999999" y2="207.24593639950376" stroke="#000"/>
<line x1="590.4999999999999" y1="498.0" x2="590.4999999999999" y2="502.79999999999995" stroke="#000"/>
<text x="590.4999999999999" y="512.4" fill="#111" font-size="small" font-family="monospace" font-weight="bold" text-anchor="end" transform="rotate(-60, 590.4999999999999, 512.4)">
mail
</text>
<rect x="660.9999999999999" y="244.9605164222427" width="35.25" height="253.03948357775724" fill="#7070f8" data-tooltip="1.00x baseline speed (No JIT)"/>
<line x1="660.9999999999999" y1="244.90566709526797" x2="696.2499999999999" y2="244.90566709526797" stroke="#000"/>
<line x1="660.9999999999999" y1="245.01536574921744" x2="696.2499999999999" y2="245.01536574921744" stroke="#000"/>
<line x1="678.6249999999999" y1="244.90566709526797" x2="678.6249999999999" y2="245.01536574921744" stroke="#000"/>
<rect x="696.2499999999999" y="198.94481498039676" width="35.25" height="299.0551850196032" fill="orange" data-tooltip="1.18x baseline speed (MJIT)"/>
<line x1="696.2499999999999" y1="198.8471186055543" x2="731.4999999999999" y2="198.8471186055543" stroke="#000"/>
<line x1="696.2499999999999" y1="199.0425113552392" x2="731.4999999999999" y2="199.0425113552392" stroke="#000"/>
<line x1="713.8749999999999" y1="198.8471186055543" x2="713.8749999999999" y2="199.0425113552392" stroke="#000"/>
<rect x="731.4999999999999" y="165.1854522709336" width="35.25" height="332.8145477290663" fill="green" data-tooltip="1.32x baseline speed (YJIT)"/>
<line x1="731.4999999999999" y1="165.10220721015077" x2="766.7499999999999" y2="165.10220721015077" stroke="#000"/>
<line x1="731.4999999999999" y1="165.26869733171645" x2="766.7499999999999" y2="165.26869733171645" stroke="#000"/>
<line x1="749.1249999999999" y1="165.10220721015077" x2="749.1249999999999" y2="165.26869733171645" stroke="#000"/>
<line x1="731.4999999999999" y1="498.0" x2="731.4999999999999" y2="502.79999999999995" stroke="#000"/>
<text x="731.4999999999999" y="512.4" fill="#111" font-size="small" font-family="monospace" font-weight="bold" text-anchor="end" transform="rotate(-60, 731.4999999999999, 512.4)">
psych-load
</text>
<rect x="801.9999999999999" y="244.9605164222427" width="35.25" height="253.03948357775724" fill="#7070f8" data-tooltip="1.00x baseline speed (No JIT)"/>
<line x1="801.9999999999999" y1="243.6165391654762" x2="837.2499999999999" y2="243.6165391654762" stroke="#000"/>
<line x1="801.9999999999999" y1="246.3044936790092" x2="837.2499999999999" y2="246.3044936790092" stroke="#000"/>
<line x1="819.6249999999999" y1="243.6165391654762" x2="819.6249999999999" y2="246.3044936790092" stroke="#000"/>
<rect x="837.2499999999999" y="246.70513321005475" width="35.25" height="251.29486678994516" fill="orange" data-tooltip="0.99x baseline speed (MJIT)"/>
<line x1="837.2499999999999" y1="244.71670330375366" x2="872.4999999999999" y2="244.71670330375366" stroke="#000"/>
<line x1="837.2499999999999" y1="248.69356311635585" x2="872.4999999999999" y2="248.69356311635585" stroke="#000"/>
<line x1="854.8749999999999" y1="244.71670330375366" x2="854.8749999999999" y2="248.69356311635585" stroke="#000"/>
<rect x="872.4999999999999" y="153.7601256366211" width="35.25" height="344.2398743633789" fill="green" data-tooltip="1.36x baseline speed (YJIT)"/>
<line x1="872.4999999999999" y1="149.31734525223936" x2="907.75" y2="149.31734525223936" stroke="#000"/>
<line x1="872.4999999999999" y1="158.20290602100283" x2="907.75" y2="158.20290602100283" stroke="#000"/>
<line x1="890.125" y1="149.31734525223936" x2="890.125" y2="158.20290602100283" stroke="#000"/>
<line x1="872.4999999999999" y1="498.0" x2="872.4999999999999" y2="502.79999999999995" stroke="#000"/>
<text x="872.4999999999999" y="512.4" fill="#111" font-size="small" font-family="monospace" font-weight="bold" text-anchor="end" transform="rotate(-60, 872.4999999999999, 512.4)">
railsbench
</text>
</svg>