<svg viewBox="0 0 1000 600" xmlns="http://www.w3.org/2000/svg" xmlns:xlink="http://www.w3.org/1999/xlink" width="100%" height="100%">

<rect x="50.0" y="30.0" width="940.0" height="467.99999999999994" stroke="#000" fill="#EEE"/>
<line x1="42.0" y1="497.9999999999999" x2="50.0" y2="497.9999999999999" stroke="#000"/>
<text x="26.000000000000004" y="497.9999999999999" text-anchor="end" font-weight="bold" font-size="small" fill="#111">
0.0
</text>
<line x1="42.0" y1="417.3798497771195" x2="50.0" y2="417.3798497771195" stroke="#000"/>
<text x="26.000000000000004" y="417.3798497771195" text-anchor="end" font-weight="bold" font-size="small" fill="#111">
2.0
</text>
<line x1="42.0" y1="336.75969955423886" x2="50.0" y2="336.75969955423886" stroke="#000"/>
<text x="26.000000000000004" y="336.75969955423886" text-anchor="end" font-weight="bold" font-size="small" fill="#111">
4.0
</text>
<line x1="42.0" y1="256.13954933135835" x2="50.0" y2="256.13954933135835" stroke="#000"/>
<text x="26.000000000000004" y="256.13954933135835" text-anchor="end" font-weight="bold" font-size="small" fill="#111">
6.0
</text>
<line x1="42.0" y1="175.51939910847778" x2="50.0" y2="175.51939910847778" stroke="#000"/>
<text x="26.000000000000004" y="175.51939910847778" text-anchor="end" font-weight="bold" font-size="small" fill="#111">
8.0
</text>
<rect x="268.5" y="36.00000000000001" width="80.0" height="18.0" fill="#7070f8" stroke="#888"/>
<text x="308.5" y="52.50000000000001" font-size="small" text-anchor="middle" font-weight="bold" fill="#EEE">
No JIT
</text>
<rect x="691.4999999999999" y="36.00000000000001" width="80.0" height="18.0" fill="orange" stroke="#888"/>
<text x="731.4999999999999" y="52.50000000000001" font-size="small" text-anchor="middle" font-weight="bold" fill="#EEE">
YJIT
</text>
<rect x="97.0" y="457.68992488855963" width="8.545454545454545" height="40.31007511144028" fill="#7070f8" data-tooltip="1.00x baseline speed (No JIT)"/>
<line x1="97.0" y1="457.4966105744473" x2="105.54545454545455" y2="457.4966105744473" stroke="#000"/>
<line x1="97.0" y1="457.883239202672" x2="105.54545454545455" y2="457.883239202672" stroke="#000"/>
<line x1="101.27272727272728" y1="457.4966105744473" x2="101.27272727272728" y2="457.883239202672" stroke="#000"/>
<rect x="105.54545454545455" y="422.5953652191872" width="8.545454545454545" height="75.40463478081276" fill="orange" data-tooltip="1.87x baseline speed (YJIT)"/>
<line x1="105.54545454545455" y1="421.85744665181033" x2="114.09090909090911" y2="421.85744665181033" stroke="#000"/>
<line x1="105.54545454545455" y1="423.3332837865641" x2="114.09090909090911" y2="423.3332837865641" stroke="#000"/>
<line x1="109.81818181818183" y1="421.85744665181033" x2="109.81818181818183" y2="423.3332837865641" stroke="#000"/>
<line x1="109.81818181818181" y1="498.0" x2="109.81818181818181" y2="502.79999999999995" stroke="#000"/>
<text x="109.81818181818181" y="512.4" fill="#111" font-size="small" font-family="monospace" font-weight="bold" text-anchor="end" transform="rotate(-60, 109.81818181818181, 512.4)">
activerecord
</text>
<rect x="122.63636363636364" y="457.68992488855963" width="8.545454545454545" height="40.31007511144028" fill="#7070f8" data-tooltip="1.00x baseline speed (No JIT)"/>
<line x1="122.63636363636364" y1="456.7638566053651" x2="131.1818181818182" y2="456.7638566053651" stroke="#000"/>
<line x1="122.63636363636364" y1="458.6159931717541" x2="131.1818181818182" y2="458.6159931717541" stroke="#000"/>
<line x1="126.90909090909092" y1="456.7638566053651" x2="126.90909090909092" y2="458.6159931717541" stroke="#000"/>
<rect x="131.1818181818182" y="429.6441845809908" width="8.545454545454545" height="68.35581541900922" fill="orange" data-tooltip="1.70x baseline speed (YJIT)"/>
<line x1="131.1818181818182" y1="426.3620280562045" x2="139.72727272727272" y2="426.3620280562045" stroke="#000"/>
<line x1="131.1818181818182" y1="432.926341105777" x2="139.72727272727272" y2="432.926341105777" stroke="#000"/>
<line x1="135.45454545454544" y1="426.3620280562045" x2="135.45454545454544" y2="432.926341105777" stroke="#000"/>
<line x1="135.45454545454547" y1="498.0" x2="135.45454545454547" y2="502.79999999999995" stroke="#000"/>
<text x="135.45454545454547" y="512.4" fill="#111" font-size="small" font-family="monospace" font-weight="bold" text-anchor="end" transform="rotate(-60, 135.45454545454547, 512.4)">
erubi_rails
</text>
<rect x="148.27272727272728" y="457.68992488855963" width="8.545454545454545" height="40.31007511144028" fill="#7070f8" data-tooltip="1.00x baseline speed (No JIT)"/>
<line x1="148.27272727272728" y1="457.3923670480309" x2="156.81818181818184" y2="457.3923670480309" stroke="#000"/>
<line x1="148.27272727272728" y1="457.98748272908836" x2="156.81818181818184" y2="457.98748272908836" stroke="#000"/>
<line x1="152.54545454545453" y1="457.3923670480309" x2="152.54545454545453" y2="457.98748272908836" stroke="#000"/>
<rect x="156.81818181818184" y="434.2755887108145" width="8.545454545454545" height="63.724411289185475" fill="orange" data-tooltip="1.58x baseline speed (YJIT)"/>
<line x1="156.81818181818184" y1="432.6182069614699" x2="165.36363636363637" y2="432.6182069614699" stroke="#000"/>
<line x1="156.81818181818184" y1="435.93297046015897" x2="165.36363636363637" y2="435.93297046015897" stroke="#000"/>
<line x1="161.0909090909091" y1="432.6182069614699" x2="161.0909090909091" y2="435.93297046015897" stroke="#000"/>
<line x1="161.0909090909091" y1="498.0" x2="161.0909090909091" y2="502.79999999999995" stroke="#000"/>
<text x="161.0909090909091" y="512.4" fill="#111" font-size="small" font-family="monospace" font-weight="bold" text-anchor="end" transform="rotate(-60, 161.0909090909091, 512.4)">
hexapdf
</text>
<rect x="173.9090909090909" y="457.68992488855963" width="8.545454545454545" height="40.31007511144028" fill="#7070f8" data-tooltip="1.00x baseline speed (No JIT)"/>
<line x1="173.9090909090909" y1="457.18784480469003" x2="182.45454545454544" y2="457.18784480469003" stroke="#000"/>
<line x1="173.9090909090909" y1="458.1920049724292" x2="182.45454545454544" y2="458.1920049724292" stroke="#000"/>
<line x1="178.18181818181816" y1="457.18784480469003" x2="178.18181818181816" y2="458.1920049724292" stroke="#000"/>
<rect x="182.45454545454544" y="442.84610575107047" width="8.545454545454545" height="55.1538942489295" fill="orange" data-tooltip="1.37x baseline speed (YJIT)"/>
<line x1="182.45454545454544" y1="441.53842745724927" x2="191.0" y2="441.53842745724927" stroke="#000"/>
<line x1="182.45454545454544" y1="444.15378404489167" x2="191.0" y2="444.15378404489167" stroke="#000"/>
<line x1="186.72727272727272" y1="441.53842745724927" x2="186.72727272727272" y2="444.15378404489167" stroke="#000"/>
<line x1="186.72727272727272" y1="498.0" x2="186.72727272727272" y2="502.79999999999995" stroke="#000"/>
<text x="186.72727272727272" y="512.4" fill="#111" font-size="small" font-family="monospace" font-weight="bold" text-anchor="end" transform="rotate(-60, 186.72727272727272, 512.4)">
liquid-c
</text>
<rect x="199.54545454545453" y="457.68992488855963" width="8.545454545454545" height="40.31007511144028" fill="#7070f8" data-tooltip="1.00x baseline speed (No JIT)"/>
<line x1="199.54545454545453" y1="457.325395917645" x2="208.09090909090907" y2="457.325395917645" stroke="#000"/>
<line x1="199.54545454545453" y1="458.0544538594743" x2="208.09090909090907" y2="458.0544538594743" stroke="#000"/>
<line x1="203.81818181818178" y1="457.325395917645" x2="203.81818181818178" y2="458.0544538594743" stroke="#000"/>
<rect x="208.09090909090907" y="443.7883447934112" width="8.545454545454545" height="54.21165520658872" fill="orange" data-tooltip="1.34x baseline speed (YJIT)"/>
<line x1="208.09090909090907" y1="442.94454751213664" x2="216.63636363636363" y2="442.94454751213664" stroke="#000"/>
<line x1="208.09090909090907" y1="444.6321420746858" x2="216.63636363636363" y2="444.6321420746858" stroke="#000"/>
<line x1="212.36363636363635" y1="442.94454751213664" x2="212.36363636363635" y2="444.6321420746858" stroke="#000"/>
<line x1="212.36363636363635" y1="498.0" x2="212.36363636363635" y2="502.79999999999995" stroke="#000"/>
<text x="212.36363636363635" y="512.4" fill="#111" font-size="small" font-family="monospace" font-weight="bold" text-anchor="end" transform="rotate(-60, 212.36363636363635, 512.4)">
liquid-compile
</text>
<rect x="225.1818181818182" y="457.68992488855963" width="8.545454545454545" height="40.31007511144028" fill="#7070f8" data-tooltip="1.00x baseline speed (No JIT)"/>
<line x1="225.1818181818182" y1="457.03915040106114" x2="233.72727272727272" y2="457.03915040106114" stroke="#000"/>
<line x1="225.1818181818182" y1="458.34069937605807" x2="233.72727272727272" y2="458.34069937605807" stroke="#000"/>
<line x1="229.45454545454544" y1="457.03915040106114" x2="229.45454545454544" y2="458.34069937605807" stroke="#000"/>
<rect x="233.72727272727272" y="420.350548705476" width="8.545454545454545" height="77.64945129452394" fill="orange" data-tooltip="1.93x baseline speed (YJIT)"/>
<line x1="233.72727272727272" y1="417.86838853617456" x2="242.27272727272728" y2="417.86838853617456" stroke="#000"/>
<line x1="233.72727272727272" y1="422.83270887477744" x2="242.27272727272728" y2="422.83270887477744" stroke="#000"/>
<line x1="238.0" y1="417.86838853617456" x2="238.0" y2="422.83270887477744" stroke="#000"/>
<line x1="238.0" y1="498.0" x2="238.0" y2="502.79999999999995" stroke="#000"/>
<text x="238.0" y="512.4" fill="#111" font-size="small" font-family="monospace" font-weight="bold" text-anchor="end" transform="rotate(-60, 238.0, 512.4)">
liquid-render
</text>
<rect x="250.81818181818184" y="457.68992488855963" width="8.545454545454545" height="40.31007511144028" fill="#7070f8" data-tooltip="1.00x baseline speed (No JIT)"/>
<line x1="250.81818181818184" y1="456.92605458968035" x2="259.3636363636364" y2="456.92605458968035" stroke="#000"/>
<line x1="250.81818181818184" y1="458.4537951874389" x2="259.3636363636364" y2="458.4537951874389" stroke="#000"/>
<line x1="255.0909090909091" y1="456.92605458968035" x2="255.0909090909091" y2="458.4537951874389" stroke="#000"/>
<rect x="259.3636363636364" y="445.2930235888916" width="8.545454545454545" height="52.706976411108435" fill="orange" data-tooltip="1.31x baseline speed (YJIT)"/>
<line x1="259.3636363636364" y1="444.2745974551225" x2="267.9090909090909" y2="444.2745974551225" stroke="#000"/>
<line x1="259.3636363636364" y1="446.31144972266065" x2="267.9090909090909" y2="446.31144972266065" stroke="#000"/>
<line x1="263.6363636363636" y1="444.2745974551225" x2="263.6363636363636" y2="446.31144972266065" stroke="#000"/>
<line x1="263.6363636363637" y1="498.0" x2="263.6363636363637" y2="502.79999999999995" stroke="#000"/>
<text x="263.6363636363637" y="512.4" fill="#111" font-size="small" font-family="monospace" font-weight="bold" text-anchor="end" transform="rotate(-60, 263.6363636363637, 512.4)">
mail
</text>
<rect x="276.45454545454544" y="457.68992488855963" width="8.545454545454545" height="40.31007511144028" fill="#7070f8" data-tooltip="1.00x baseline speed (No JIT)"/>
<line x1="276.45454545454544" y1="457.67047507573176" x2="285.0" y2="457.67047507573176" stroke="#000"/>
<line x1="276.45454545454544" y1="457.70937470138745" x2="285.0" y2="457.70937470138745" stroke="#000"/>
<line x1="280.7272727272727" y1="457.67047507573176" x2="280.7272727272727" y2="457.70937470138745" stroke="#000"/>
<rect x="285.0" y="442.78459152669683" width="8.545454545454545" height="55.215408473303114" fill="orange" data-tooltip="1.37x baseline speed (YJIT)"/>
<line x1="285.0" y1="442.7535498364354" x2="293.5454545454545" y2="442.7535498364354" stroke="#000"/>
<line x1="285.0" y1="442.8156332169583" x2="293.5454545454545" y2="442.8156332169583" stroke="#000"/>
<line x1="289.27272727272725" y1="442.7535498364354" x2="289.27272727272725" y2="442.8156332169583" stroke="#000"/>
<line x1="289.2727272727273" y1="498.0" x2="289.2727272727273" y2="502.79999999999995" stroke="#000"/>
<text x="289.2727272727273" y="512.4" fill="#111" font-size="small" font-family="monospace" font-weight="bold" text-anchor="end" transform="rotate(-60, 289.2727272727273, 512.4)">
psych-load
</text>
<rect x="302.09090909090907" y="457.68992488855963" width="8.545454545454545" height="40.31007511144028" fill="#7070f8" data-tooltip="1.00x baseline speed (No JIT)"/>
<line x1="302.09090909090907" y1="457.44592873104034" x2="310.6363636363636" y2="457.44592873104034" stroke="#000"/>
<line x1="302.09090909090907" y1="457.93392104607886" x2="310.6363636363636" y2="457.93392104607886" stroke="#000"/>
<line x1="306.3636363636363" y1="457.44592873104034" x2="306.3636363636363" y2="457.93392104607886" stroke="#000"/>
<rect x="310.6363636363636" y="436.7648905457565" width="8.545454545454545" height="61.235109454243435" fill="orange" data-tooltip="1.52x baseline speed (YJIT)"/>
<line x1="310.6363636363636" y1="435.97657945637036" x2="319.18181818181813" y2="435.97657945637036" stroke="#000"/>
<line x1="310.6363636363636" y1="437.5532016351426" x2="319.18181818181813" y2="437.5532016351426" stroke="#000"/>
<line x1="314.9090909090909" y1="435.97657945637036" x2="314.9090909090909" y2="437.5532016351426" stroke="#000"/>
<line x1="314.90909090909093" y1="498.0" x2="314.90909090909093" y2="502.79999999999995" stroke="#000"/>
<text x="314.90909090909093" y="512.4" fill="#111" font-size="small" font-family="monospace" font-weight="bold" text-anchor="end" transform="rotate(-60, 314.90909090909093, 512.4)">
railsbench
</text>
<rect x="327.7272727272727" y="457.68992488855963" width="8.545454545454545" height="40.31007511144028" fill="#7070f8" data-tooltip="1.00x baseline speed (No JIT)"/>
<line x1="327.7272727272727" y1="454.3534086400331" x2="336.2727272727272" y2="454.3534086400331" stroke="#000"/>
<line x1="327.7272727272727" y1="461.0264411370861" x2="336.2727272727272" y2="461.0264411370861" stroke="#000"/>
<line x1="331.99999999999994" y1="454.3534086400331" x2="331.99999999999994" y2="461.0264411370861" stroke="#000"/>
<rect x="336.2727272727272" y="440.9850504333408" width="8.545454545454545" height="57.01494956665914" fill="orange" data-tooltip="1.41x baseline speed (YJIT)"/>
<line x1="336.2727272727272" y1="428.41861708693045" x2="344.81818181818176" y2="428.41861708693045" stroke="#000"/>
<line x1="336.2727272727272" y1="453.55148377975115" x2="344.81818181818176" y2="453.55148377975115" stroke="#000"/>
<line x1="340.5454545454545" y1="428.41861708693045" x2="340.5454545454545" y2="453.55148377975115" stroke="#000"/>
<line x1="340.54545454545456" y1="498.0" x2="340.54545454545456" y2="502.79999999999995" stroke="#000"/>
<text x="340.54545454545456" y="512.4" fill="#111" font-size="small" font-family="monospace" font-weight="bold" text-anchor="end" transform="rotate(-60, 340.54545454545456, 512.4)">
ruby-lsp
</text>
<rect x="353.3636363636363" y="457.68992488855963" width="8.545454545454545" height="40.31007511144028" fill="#7070f8" data-tooltip="1.00x baseline speed (No JIT)"/>
<line x1="353.3636363636363" y1="457.6241280347648" x2="361.9090909090908" y2="457.6241280347648" stroke="#000"/>
<line x1="353.3636363636363" y1="457.75572174235447" x2="361.9090909090908" y2="457.75572174235447" stroke="#000"/>
<line x1="357.63636363636357" y1="457.6241280347648" x2="357.63636363636357" y2="457.75572174235447" stroke="#000"/>
<rect x="361.9090909090908" y="447.16337768400973" width="8.545454545454545" height="50.836622315990176" fill="orange" data-tooltip="1.26x baseline speed (YJIT)"/>
<line x1="361.9090909090908" y1="446.9971602059059" x2="370.4545454545454" y2="446.9971602059059" stroke="#000"/>
<line x1="361.9090909090908" y1="447.32959516211355" x2="370.4545454545454" y2="447.32959516211355" stroke="#000"/>
<line x1="366.18181818181813" y1="446.9971602059059" x2="366.18181818181813" y2="447.32959516211355" stroke="#000"/>
<line x1="366.1818181818182" y1="498.0" x2="366.1818181818182" y2="502.79999999999995" stroke="#000"/>
<text x="366.1818181818182" y="512.4" fill="#111" font-size="small" font-family="monospace" font-weight="bold" text-anchor="end" transform="rotate(-60, 366.1818181818182, 512.4)">
sequel
</text>
<rect x="379.0" y="457.68992488855963" width="8.545454545454545" height="40.31007511144028" fill="#7070f8" data-tooltip="1.00x baseline speed (No JIT)"/>
<line x1="379.0" y1="457.6722373064765" x2="387.5454545454545" y2="457.6722373064765" stroke="#000"/>
<line x1="379.0" y1="457.70761247064274" x2="387.5454545454545" y2="457.70761247064274" stroke="#000"/>
<line x1="383.27272727272725" y1="457.6722373064765" x2="383.27272727272725" y2="457.70761247064274" stroke="#000"/>
<rect x="387.5454545454545" y="416.777751023493" width="8.545454545454545" height="81.22224897650698" fill="orange" data-tooltip="2.01x baseline speed (YJIT)"/>
<line x1="387.5454545454545" y1="416.55901461131396" x2="396.09090909090907" y2="416.55901461131396" stroke="#000"/>
<line x1="387.5454545454545" y1="416.9964874356721" x2="396.09090909090907" y2="416.9964874356721" stroke="#000"/>
<line x1="391.8181818181818" y1="416.55901461131396" x2="391.8181818181818" y2="416.9964874356721" stroke="#000"/>
<line x1="391.81818181818187" y1="498.0" x2="391.81818181818187" y2="502.79999999999995" stroke="#000"/>
<text x="391.81818181818187" y="512.4" fill="#111" font-size="small" font-family="monospace" font-weight="bold" text-anchor="end" transform="rotate(-60, 391.81818181818187, 512.4)">
binarytrees
</text>
<rect x="404.63636363636357" y="457.68992488855963" width="8.545454545454545" height="40.31007511144028" fill="#7070f8" data-tooltip="1.00x baseline speed (No JIT)"/>
<line x1="404.63636363636357" y1="457.66718090231166" x2="413.1818181818181" y2="457.66718090231166" stroke="#000"/>
<line x1="404.63636363636357" y1="457.71266887480755" x2="413.1818181818181" y2="457.71266887480755" stroke="#000"/>
<line x1="408.9090909090908" y1="457.66718090231166" x2="408.9090909090908" y2="457.71266887480755" stroke="#000"/>
<rect x="413.1818181818181" y="433.67052269172245" width="8.545454545454545" height="64.32947730827757" fill="orange" data-tooltip="1.60x baseline speed (YJIT)"/>
<line x1="413.1818181818181" y1="433.6271809125687" x2="421.72727272727263" y2="433.6271809125687" stroke="#000"/>
<line x1="413.1818181818181" y1="433.71386447087616" x2="421.72727272727263" y2="433.71386447087616" stroke="#000"/>
<line x1="417.4545454545454" y1="433.6271809125687" x2="417.4545454545454" y2="433.71386447087616" stroke="#000"/>
<line x1="417.45454545454544" y1="498.0" x2="417.45454545454544" y2="502.79999999999995" stroke="#000"/>
<text x="417.45454545454544" y="512.4" fill="#111" font-size="small" font-family="monospace" font-weight="bold" text-anchor="end" transform="rotate(-60, 417.45454545454544, 512.4)">
chunky_png
</text>
<rect x="430.27272727272725" y="457.68992488855963" width="8.545454545454545" height="40.31007511144028" fill="#7070f8" data-tooltip="1.00x baseline speed (No JIT)"/>
<line x1="430.27272727272725" y1="457.4156599225437" x2="438.81818181818176" y2="457.4156599225437" stroke="#000"/>
<line x1="430.27272727272725" y1="457.9641898545755" x2="438.81818181818176" y2="457.9641898545755" stroke="#000"/>
<line x1="434.5454545454545" y1="457.4156599225437" x2="434.5454545454545" y2="457.9641898545755" stroke="#000"/>
<rect x="438.81818181818176" y="449.38091922345035" width="8.545454545454545" height="48.619080776549524" fill="orange" data-tooltip="1.21x baseline speed (YJIT)"/>
<line x1="438.81818181818176" y1="448.80828329080333" x2="447.3636363636363" y2="448.80828329080333" stroke="#000"/>
<line x1="438.81818181818176" y1="449.95355515609737" x2="447.3636363636363" y2="449.95355515609737" stroke="#000"/>
<line x1="443.090909090909" y1="448.80828329080333" x2="443.090909090909" y2="449.95355515609737" stroke="#000"/>
<line x1="443.09090909090907" y1="498.0" x2="443.09090909090907" y2="502.79999999999995" stroke="#000"/>
<text x="443.09090909090907" y="512.4" fill="#111" font-size="small" font-family="monospace" font-weight="bold" text-anchor="end" transform="rotate(-60, 443.09090909090907, 512.4)">
erubi
</text>
<rect x="455.90909090909093" y="457.68992488855963" width="8.545454545454545" height="40.31007511144028" fill="#7070f8" data-tooltip="1.00x baseline speed (No JIT)"/>
<line x1="455.90909090909093" y1="457.5021031495946" x2="464.45454545454544" y2="457.5021031495946" stroke="#000"/>
<line x1="455.90909090909093" y1="457.87774662752463" x2="464.45454545454544" y2="457.87774662752463" stroke="#000"/>
<line x1="460.1818181818182" y1="457.5021031495946" x2="460.1818181818182" y2="457.87774662752463" stroke="#000"/>
<rect x="464.45454545454544" y="457.2452365557698" width="8.545454545454545" height="40.75476344423011" fill="orange" data-tooltip="1.01x baseline speed (YJIT)"/>
<line x1="464.45454545454544" y1="456.9818740407334" x2="473.0" y2="456.9818740407334" stroke="#000"/>
<line x1="464.45454545454544" y1="457.50859907080627" x2="473.0" y2="457.50859907080627" stroke="#000"/>
<line x1="468.7272727272727" y1="456.9818740407334" x2="468.7272727272727" y2="457.50859907080627" stroke="#000"/>
<line x1="468.72727272727275" y1="498.0" x2="468.72727272727275" y2="502.79999999999995" stroke="#000"/>
<text x="468.72727272727275" y="512.4" fill="#111" font-size="small" font-family="monospace" font-weight="bold" text-anchor="end" transform="rotate(-60, 468.72727272727275, 512.4)">
etanni
</text>
<rect x="481.5454545454545" y="457.68992488855963" width="8.545454545454545" height="40.31007511144028" fill="#7070f8" data-tooltip="1.00x baseline speed (No JIT)"/>
<line x1="481.5454545454545" y1="457.62159246994554" x2="490.090909090909" y2="457.62159246994554" stroke="#000"/>
<line x1="481.5454545454545" y1="457.7582573071737" x2="490.090909090909" y2="457.7582573071737" stroke="#000"/>
<line x1="485.81818181818176" y1="457.62159246994554" x2="485.81818181818176" y2="457.7582573071737" stroke="#000"/>
<rect x="490.090909090909" y="377.34287057619326" width="8.545454545454545" height="120.65712942380668" fill="orange" data-tooltip="2.99x baseline speed (YJIT)"/>
<line x1="490.090909090909" y1="376.9552715266692" x2="498.63636363636357" y2="376.9552715266692" stroke="#000"/>
<line x1="490.090909090909" y1="377.7304696257173" x2="498.63636363636357" y2="377.7304696257173" stroke="#000"/>
<line x1="494.36363636363626" y1="376.9552715266692" x2="494.36363636363626" y2="377.7304696257173" stroke="#000"/>
<line x1="494.3636363636363" y1="498.0" x2="494.3636363636363" y2="502.79999999999995" stroke="#000"/>
<text x="494.3636363636363" y="512.4" fill="#111" font-size="small" font-family="monospace" font-weight="bold" text-anchor="end" transform="rotate(-60, 494.3636363636363, 512.4)">
fannkuchredux
</text>
<rect x="507.1818181818182" y="457.68992488855963" width="8.545454545454545" height="40.31007511144028" fill="#7070f8" data-tooltip="1.00x baseline speed (No JIT)"/>
<line x1="507.1818181818182" y1="457.58087476934793" x2="515.7272727272727" y2="457.58087476934793" stroke="#000"/>
<line x1="507.1818181818182" y1="457.79897500777133" x2="515.7272727272727" y2="457.79897500777133" stroke="#000"/>
<line x1="511.4545454545455" y1="457.58087476934793" x2="511.4545454545455" y2="457.79897500777133" stroke="#000"/>
<rect x="515.7272727272727" y="441.1555994682379" width="8.545454545454545" height="56.84440053176204" fill="orange" data-tooltip="1.41x baseline speed (YJIT)"/>
<line x1="515.7272727272727" y1="440.91690677374015" x2="524.2727272727273" y2="440.91690677374015" stroke="#000"/>
<line x1="515.7272727272727" y1="441.39429216273555" x2="524.2727272727273" y2="441.39429216273555" stroke="#000"/>
<line x1="520.0" y1="440.91690677374015" x2="520.0" y2="441.39429216273555" stroke="#000"/>
<line x1="520.0" y1="498.0" x2="520.0" y2="502.79999999999995" stroke="#000"/>
<text x="520.0" y="512.4" fill="#111" font-size="small" font-family="monospace" font-weight="bold" text-anchor="end" transform="rotate(-60, 520.0, 512.4)">
lee
</text>
<rect x="532.8181818181818" y="457.68992488855963" width="8.545454545454545" height="40.31007511144028" fill="#7070f8" data-tooltip="1.00x baseline speed (No JIT)"/>
<line x1="532.8181818181818" y1="457.6694126932922" x2="541.3636363636363" y2="457.6694126932922" stroke="#000"/>
<line x1="532.8181818181818" y1="457.710437083827" x2="541.3636363636363" y2="457.710437083827" stroke="#000"/>
<line x1="537.090909090909" y1="457.6694126932922" x2="537.090909090909" y2="457.710437083827" stroke="#000"/>
<rect x="541.3636363636363" y="426.8752114102925" width="8.545454545454545" height="71.1247885897075" fill="orange" data-tooltip="1.76x baseline speed (YJIT)"/>
<line x1="541.3636363636363" y1="426.8046670440163" x2="549.9090909090908" y2="426.8046670440163" stroke="#000"/>
<line x1="541.3636363636363" y1="426.94575577656866" x2="549.9090909090908" y2="426.94575577656866" stroke="#000"/>
<line x1="545.6363636363636" y1="426.8046670440163" x2="545.6363636363636" y2="426.94575577656866" stroke="#000"/>
<line x1="545.6363636363636" y1="498.0" x2="545.6363636363636" y2="502.79999999999995" stroke="#000"/>
<text x="545.6363636363636" y="512.4" fill="#111" font-size="small" font-family="monospace" font-weight="bold" text-anchor="end" transform="rotate(-60, 545.6363636363636, 512.4)">
nbody
</text>
<rect x="558.4545454545454" y="457.68992488855963" width="8.545454545454545" height="40.31007511144028" fill="#7070f8" data-tooltip="1.00x baseline speed (No JIT)"/>
<line x1="558.4545454545454" y1="457.42486246083274" x2="567.0" y2="457.42486246083274" stroke="#000"/>
<line x1="558.4545454545454" y1="457.95498731628646" x2="567.0" y2="457.95498731628646" stroke="#000"/>
<line x1="562.7272727272727" y1="457.42486246083274" x2="562.7272727272727" y2="457.95498731628646" stroke="#000"/>
<rect x="567.0" y="392.69331266652586" width="8.545454545454545" height="105.30668733347407" fill="orange" data-tooltip="2.61x baseline speed (YJIT)"/>
<line x1="567.0" y1="391.7383505619599" x2="575.5454545454545" y2="391.7383505619599" stroke="#000"/>
<line x1="567.0" y1="393.6482747710918" x2="575.5454545454545" y2="393.6482747710918" stroke="#000"/>
<line x1="571.2727272727273" y1="391.7383505619599" x2="571.2727272727273" y2="393.6482747710918" stroke="#000"/>
<line x1="571.2727272727273" y1="498.0" x2="571.2727272727273" y2="502.79999999999995" stroke="#000"/>
<text x="571.2727272727273" y="512.4" fill="#111" font-size="small" font-family="monospace" font-weight="bold" text-anchor="end" transform="rotate(-60, 571.2727272727273, 512.4)">
optcarrot
</text>
<rect x="584.0909090909091" y="457.68992488855963" width="8.545454545454545" height="40.31007511144028" fill="#7070f8" data-tooltip="1.00x baseline speed (No JIT)"/>
<line x1="584.0909090909091" y1="457.56253014536503" x2="592.6363636363636" y2="457.56253014536503" stroke="#000"/>
<line x1="584.0909090909091" y1="457.8173196317542" x2="592.6363636363636" y2="457.8173196317542" stroke="#000"/>
<line x1="588.3636363636364" y1="457.56253014536503" x2="588.3636363636364" y2="457.8173196317542" stroke="#000"/>
<rect x="592.6363636363636" y="450.80272196214423" width="8.545454545454545" height="47.19727803785572" fill="orange" data-tooltip="1.17x baseline speed (YJIT)"/>
<line x1="592.6363636363636" y1="450.6447023727007" x2="601.1818181818181" y2="450.6447023727007" stroke="#000"/>
<line x1="592.6363636363636" y1="450.96074155158783" x2="601.1818181818181" y2="450.96074155158783" stroke="#000"/>
<line x1="596.909090909091" y1="450.6447023727007" x2="596.909090909091" y2="450.96074155158783" stroke="#000"/>
<line x1="596.909090909091" y1="498.0" x2="596.909090909091" y2="502.79999999999995" stroke="#000"/>
<text x="596.909090909091" y="512.4" fill="#111" font-size="small" font-family="monospace" font-weight="bold" text-anchor="end" transform="rotate(-60, 596.909090909091, 512.4)">
ruby-json
</text>
<rect x="609.7272727272726" y="457.68992488855963" width="8.545454545454545" height="40.31007511144028" fill="#7070f8" data-tooltip="1.00x baseline speed (No JIT)"/>
<line x1="609.7272727272726" y1="457.47660960782036" x2="618.2727272727273" y2="457.47660960782036" stroke="#000"/>
<line x1="609.7272727272726" y1="457.90324016929884" x2="618.2727272727273" y2="457.90324016929884" stroke="#000"/>
<line x1="614.0" y1="457.47660960782036" x2="614.0" y2="457.90324016929884" stroke="#000"/>
<rect x="618.2727272727273" y="420.1628259763898" width="8.545454545454545" height="77.83717402361015" fill="orange" data-tooltip="1.93x baseline speed (YJIT)"/>
<line x1="618.2727272727273" y1="419.66666211298735" x2="626.8181818181818" y2="419.66666211298735" stroke="#000"/>
<line x1="618.2727272727273" y1="420.65898983979224" x2="626.8181818181818" y2="420.65898983979224" stroke="#000"/>
<line x1="622.5454545454545" y1="419.66666211298735" x2="622.5454545454545" y2="420.65898983979224" stroke="#000"/>
<line x1="622.5454545454545" y1="498.0" x2="622.5454545454545" y2="502.79999999999995" stroke="#000"/>
<text x="622.5454545454545" y="512.4" fill="#111" font-size="small" font-family="monospace" font-weight="bold" text-anchor="end" transform="rotate(-60, 622.5454545454545, 512.4)">
rubykon
</text>
<rect x="635.3636363636363" y="457.68992488855963" width="8.545454545454545" height="40.31007511144028" fill="#7070f8" data-tooltip="1.00x baseline speed (No JIT)"/>
<line x1="635.3636363636363" y1="457.68410716608145" x2="643.9090909090908" y2="457.68410716608145" stroke="#000"/>
<line x1="635.3636363636363" y1="457.69574261103776" x2="643.9090909090908" y2="457.69574261103776" stroke="#000"/>
<line x1="639.6363636363635" y1="457.68410716608145" x2="639.6363636363635" y2="457.69574261103776" stroke="#000"/>
<rect x="643.9090909090908" y="239.7338518302456" width="8.545454545454545" height="258.26614816975433" fill="orange" data-tooltip="6.41x baseline speed (YJIT)"/>
<line x1="643.9090909090908" y1="239.5546497297127" x2="652.4545454545453" y2="239.5546497297127" stroke="#000"/>
<line x1="643.9090909090908" y1="239.9130539307785" x2="652.4545454545453" y2="239.9130539307785" stroke="#000"/>
<line x1="648.1818181818181" y1="239.5546497297127" x2="648.1818181818181" y2="239.9130539307785" stroke="#000"/>
<line x1="648.1818181818181" y1="498.0" x2="648.1818181818181" y2="502.79999999999995" stroke="#000"/>
<text x="648.1818181818181" y="512.4" fill="#111" font-size="small" font-family="monospace" font-weight="bold" text-anchor="end" transform="rotate(-60, 648.1818181818181, 512.4)">
30k_ifelse
</text>
<rect x="660.9999999999999" y="457.68992488855963" width="8.545454545454545" height="40.31007511144028" fill="#7070f8" data-tooltip="1.00x baseline speed (No JIT)"/>
<line x1="660.9999999999999" y1="457.68555642123823" x2="669.5454545454544" y2="457.68555642123823" stroke="#000"/>
<line x1="660.9999999999999" y1="457.69429335588103" x2="669.5454545454544" y2="457.69429335588103" stroke="#000"/>
<line x1="665.2727272727273" y1="457.68555642123823" x2="665.2727272727273" y2="457.69429335588103" stroke="#000"/>
<rect x="669.5454545454544" y="166.56643218238568" width="8.545454545454545" height="331.4335678176143" fill="orange" data-tooltip="8.22x baseline speed (YJIT)"/>
<line x1="669.5454545454544" y1="166.4973444027815" x2="678.090909090909" y2="166.4973444027815" stroke="#000"/>
<line x1="669.5454545454544" y1="166.6355199619899" x2="678.090909090909" y2="166.6355199619899" stroke="#000"/>
<line x1="673.8181818181818" y1="166.4973444027815" x2="673.8181818181818" y2="166.6355199619899" stroke="#000"/>
<line x1="673.8181818181818" y1="498.0" x2="673.8181818181818" y2="502.79999999999995" stroke="#000"/>
<text x="673.8181818181818" y="512.4" fill="#111" font-size="small" font-family="monospace" font-weight="bold" text-anchor="end" transform="rotate(-60, 673.8181818181818, 512.4)">
30k_methods
</text>
<rect x="686.6363636363636" y="457.68992488855963" width="8.545454545454545" height="40.31007511144028" fill="#7070f8" data-tooltip="1.00x baseline speed (No JIT)"/>
<line x1="686.6363636363636" y1="457.6040853633141" x2="695.1818181818181" y2="457.6040853633141" stroke="#000"/>
<line x1="686.6363636363636" y1="457.7757644138052" x2="695.1818181818181" y2="457.7757644138052" stroke="#000"/>
<line x1="690.9090909090909" y1="457.6040853633141" x2="690.9090909090909" y2="457.7757644138052" stroke="#000"/>
<rect x="695.1818181818181" y="389.3874959007913" width="8.545454545454545" height="108.61250409920868" fill="orange" data-tooltip="2.69x baseline speed (YJIT)"/>
<line x1="695.1818181818181" y1="389.08643060946383" x2="703.7272727272726" y2="389.08643060946383" stroke="#000"/>
<line x1="695.1818181818181" y1="389.68856119211875" x2="703.7272727272726" y2="389.68856119211875" stroke="#000"/>
<line x1="699.4545454545455" y1="389.08643060946383" x2="699.4545454545455" y2="389.68856119211875" stroke="#000"/>
<line x1="699.4545454545455" y1="498.0" x2="699.4545454545455" y2="502.79999999999995" stroke="#000"/>
<text x="699.4545454545455" y="512.4" fill="#111" font-size="small" font-family="monospace" font-weight="bold" text-anchor="end" transform="rotate(-60, 699.4545454545455, 512.4)">
cfunc_itself
</text>
<rect x="712.2727272727271" y="457.68992488855963" width="8.545454545454545" height="40.31007511144028" fill="#7070f8" data-tooltip="1.00x baseline speed (No JIT)"/>
<line x1="712.2727272727271" y1="457.66471080403466" x2="720.8181818181816" y2="457.66471080403466" stroke="#000"/>
<line x1="712.2727272727271" y1="457.71513897308455" x2="720.8181818181816" y2="457.71513897308455" stroke="#000"/>
<line x1="716.5454545454545" y1="457.66471080403466" x2="716.5454545454545" y2="457.71513897308455" stroke="#000"/>
<rect x="720.8181818181816" y="285.93329680346176" width="8.545454545454545" height="212.06670319653819" fill="orange" data-tooltip="5.26x baseline speed (YJIT)"/>
<line x1="720.8181818181816" y1="285.7605677752416" x2="729.3636363636363" y2="285.7605677752416" stroke="#000"/>
<line x1="720.8181818181816" y1="286.10602583168185" x2="729.3636363636363" y2="286.10602583168185" stroke="#000"/>
<line x1="725.090909090909" y1="285.7605677752416" x2="725.090909090909" y2="286.10602583168185" stroke="#000"/>
<line x1="725.090909090909" y1="498.0" x2="725.090909090909" y2="502.79999999999995" stroke="#000"/>
<text x="725.090909090909" y="512.4" fill="#111" font-size="small" font-family="monospace" font-weight="bold" text-anchor="end" transform="rotate(-60, 725.090909090909, 512.4)">
fib
</text>
<rect x="737.9090909090909" y="457.68992488855963" width="8.545454545454545" height="40.31007511144028" fill="#7070f8" data-tooltip="1.00x baseline speed (No JIT)"/>
<line x1="737.9090909090909" y1="457.46744962107175" x2="746.4545454545454" y2="457.46744962107175" stroke="#000"/>
<line x1="737.9090909090909" y1="457.9124001560475" x2="746.4545454545454" y2="457.9124001560475" stroke="#000"/>
<line x1="742.1818181818181" y1="457.46744962107175" x2="742.1818181818181" y2="457.9124001560475" stroke="#000"/>
<rect x="746.4545454545454" y="296.24157925943143" width="8.545454545454545" height="201.7584207405685" fill="orange" data-tooltip="5.01x baseline speed (YJIT)"/>
<line x1="746.4545454545454" y1="295.0049454494097" x2="754.9999999999999" y2="295.0049454494097" stroke="#000"/>
<line x1="746.4545454545454" y1="297.47821306945315" x2="754.9999999999999" y2="297.47821306945315" stroke="#000"/>
<line x1="750.7272727272726" y1="295.0049454494097" x2="750.7272727272726" y2="297.47821306945315" stroke="#000"/>
<line x1="750.7272727272726" y1="498.0" x2="750.7272727272726" y2="502.79999999999995" stroke="#000"/>
<text x="750.7272727272726" y="512.4" fill="#111" font-size="small" font-family="monospace" font-weight="bold" text-anchor="end" transform="rotate(-60, 750.7272727272726, 512.4)">
getivar
</text>
<rect x="763.5454545454544" y="457.68992488855963" width="8.545454545454545" height="40.31007511144028" fill="#7070f8" data-tooltip="1.00x baseline speed (No JIT)"/>
<line x1="763.5454545454544" y1="457.1155106238939" x2="772.0909090909089" y2="457.1155106238939" stroke="#000"/>
<line x1="763.5454545454544" y1="458.26433915322536" x2="772.0909090909089" y2="458.26433915322536" stroke="#000"/>
<line x1="767.8181818181818" y1="457.1155106238939" x2="767.8181818181818" y2="458.26433915322536" stroke="#000"/>
<rect x="772.0909090909089" y="250.92794394671773" width="8.545454545454545" height="247.0720560532822" fill="orange" data-tooltip="6.13x baseline speed (YJIT)"/>
<line x1="772.0909090909089" y1="247.34582360495452" x2="780.6363636363635" y2="247.34582360495452" stroke="#000"/>
<line x1="772.0909090909089" y1="254.51006428848098" x2="780.6363636363635" y2="254.51006428848098" stroke="#000"/>
<line x1="776.3636363636363" y1="247.34582360495452" x2="776.3636363636363" y2="254.51006428848098" stroke="#000"/>
<line x1="776.3636363636363" y1="498.0" x2="776.3636363636363" y2="502.79999999999995" stroke="#000"/>
<text x="776.3636363636363" y="512.4" fill="#111" font-size="small" font-family="monospace" font-weight="bold" text-anchor="end" transform="rotate(-60, 776.3636363636363, 512.4)">
keyword_args
</text>
<rect x="789.1818181818181" y="457.68992488855963" width="8.545454545454545" height="40.31007511144028" fill="#7070f8" data-tooltip="1.00x baseline speed (No JIT)"/>
<line x1="789.1818181818181" y1="457.5622014603437" x2="797.7272727272726" y2="457.5622014603437" stroke="#000"/>
<line x1="789.1818181818181" y1="457.8176483167755" x2="797.7272727272726" y2="457.8176483167755" stroke="#000"/>
<line x1="793.4545454545454" y1="457.5622014603437" x2="793.4545454545454" y2="457.8176483167755" stroke="#000"/>
<rect x="797.7272727272726" y="100.19999999999999" width="8.545454545454545" height="397.79999999999995" fill="orange" data-tooltip="9.87x baseline speed (YJIT)"/>
<line x1="797.7272727272726" y1="96.70079337979539" x2="806.2727272727271" y2="96.70079337979539" stroke="#000"/>
<line x1="797.7272727272726" y1="103.69920662020459" x2="806.2727272727271" y2="103.69920662020459" stroke="#000"/>
<line x1="801.9999999999999" y1="96.70079337979539" x2="801.9999999999999" y2="103.69920662020459" stroke="#000"/>
<line x1="801.9999999999999" y1="498.0" x2="801.9999999999999" y2="502.79999999999995" stroke="#000"/>
<text x="801.9999999999999" y="512.4" fill="#111" font-size="small" font-family="monospace" font-weight="bold" text-anchor="end" transform="rotate(-60, 801.9999999999999, 512.4)">
respond_to
</text>
<rect x="814.8181818181818" y="457.68992488855963" width="8.545454545454545" height="40.31007511144028" fill="#7070f8" data-tooltip="1.00x baseline speed (No JIT)"/>
<line x1="814.8181818181818" y1="457.6091573295542" x2="823.3636363636363" y2="457.6091573295542" stroke="#000"/>
<line x1="814.8181818181818" y1="457.770692447565" x2="823.3636363636363" y2="457.770692447565" stroke="#000"/>
<line x1="819.0909090909091" y1="457.6091573295542" x2="819.0909090909091" y2="457.770692447565" stroke="#000"/>
<rect x="823.3636363636363" y="283.47711757597926" width="8.545454545454545" height="214.52288242402065" fill="orange" data-tooltip="5.32x baseline speed (YJIT)"/>
<line x1="823.3636363636363" y1="283.0043047700502" x2="831.9090909090908" y2="283.0043047700502" stroke="#000"/>
<line x1="823.3636363636363" y1="283.94993038190836" x2="831.9090909090908" y2="283.94993038190836" stroke="#000"/>
<line x1="827.6363636363636" y1="283.0043047700502" x2="827.6363636363636" y2="283.94993038190836" stroke="#000"/>
<line x1="827.6363636363636" y1="498.0" x2="827.6363636363636" y2="502.79999999999995" stroke="#000"/>
<text x="827.6363636363636" y="512.4" fill="#111" font-size="small" font-family="monospace" font-weight="bold" text-anchor="end" transform="rotate(-60, 827.6363636363636, 512.4)">
setivar
</text>
<rect x="840.4545454545454" y="457.68992488855963" width="8.545454545454545" height="40.31007511144028" fill="#7070f8" data-tooltip="1.00x baseline speed (No JIT)"/>
<line x1="840.4545454545454" y1="457.42990649162374" x2="848.9999999999999" y2="457.42990649162374" stroke="#000"/>
<line x1="840.4545454545454" y1="457.9499432854955" x2="848.9999999999999" y2="457.9499432854955" stroke="#000"/>
<line x1="844.7272727272726" y1="457.42990649162374" x2="844.7272727272726" y2="457.9499432854955" stroke="#000"/>
<rect x="848.9999999999999" y="407.4413488120252" width="8.545454545454545" height="90.55865118797476" fill="orange" data-tooltip="2.25x baseline speed (YJIT)"/>
<line x1="848.9999999999999" y1="403.38636359724217" x2="857.5454545454544" y2="403.38636359724217" stroke="#000"/>
<line x1="848.9999999999999" y1="411.49633402680814" x2="857.5454545454544" y2="411.49633402680814" stroke="#000"/>
<line x1="853.2727272727271" y1="403.38636359724217" x2="853.2727272727271" y2="411.49633402680814" stroke="#000"/>
<line x1="853.2727272727271" y1="498.0" x2="853.2727272727271" y2="502.79999999999995" stroke="#000"/>
<text x="853.2727272727271" y="512.4" fill="#111" font-size="small" font-family="monospace" font-weight="bold" text-anchor="end" transform="rotate(-60, 853.2727272727271, 512.4)">
setivar_object
</text>
<rect x="866.090909090909" y="457.68992488855963" width="8.545454545454545" height="40.31007511144028" fill="#7070f8" data-tooltip="1.00x baseline speed (No JIT)"/>
<line x1="866.090909090909" y1="457.4371649828021" x2="874.6363636363635" y2="457.4371649828021" stroke="#000"/>
<line x1="866.090909090909" y1="457.9426847943172" x2="874.6363636363635" y2="457.9426847943172" stroke="#000"/>
<line x1="870.3636363636364" y1="457.4371649828021" x2="870.3636363636364" y2="457.9426847943172" stroke="#000"/>
<rect x="874.6363636363635" y="401.01551731959626" width="8.545454545454545" height="96.98448268040377" fill="orange" data-tooltip="2.41x baseline speed (YJIT)"/>
<line x1="874.6363636363635" y1="399.25326808070963" x2="883.181818181818" y2="399.25326808070963" stroke="#000"/>
<line x1="874.6363636363635" y1="402.7777665584829" x2="883.181818181818" y2="402.7777665584829" stroke="#000"/>
<line x1="878.9090909090909" y1="399.25326808070963" x2="878.9090909090909" y2="402.7777665584829" stroke="#000"/>
<line x1="878.9090909090909" y1="498.0" x2="878.9090909090909" y2="502.79999999999995" stroke="#000"/>
<text x="878.9090909090909" y="512.4" fill="#111" font-size="small" font-family="monospace" font-weight="bold" text-anchor="end" transform="rotate(-60, 878.9090909090909, 512.4)">
setivar_young
</text>
<rect x="891.7272727272726" y="457.68992488855963" width="8.545454545454545" height="40.31007511144028" fill="#7070f8" data-tooltip="1.00x baseline speed (No JIT)"/>
<line x1="891.7272727272726" y1="457.42262839140056" x2="900.2727272727271" y2="457.42262839140056" stroke="#000"/>
<line x1="891.7272727272726" y1="457.95722138571864" x2="900.2727272727271" y2="457.95722138571864" stroke="#000"/>
<line x1="895.9999999999999" y1="457.42262839140056" x2="895.9999999999999" y2="457.95722138571864" stroke="#000"/>
<rect x="900.2727272727271" y="417.61921908057417" width="8.545454545454545" height="80.38078091942576" fill="orange" data-tooltip="1.99x baseline speed (YJIT)"/>
<line x1="900.2727272727271" y1="416.4229453093279" x2="908.8181818181816" y2="416.4229453093279" stroke="#000"/>
<line x1="900.2727272727271" y1="418.81549285182047" x2="908.8181818181816" y2="418.81549285182047" stroke="#000"/>
<line x1="904.5454545454544" y1="416.4229453093279" x2="904.5454545454544" y2="418.81549285182047" stroke="#000"/>
<line x1="904.5454545454544" y1="498.0" x2="904.5454545454544" y2="502.79999999999995" stroke="#000"/>
<text x="904.5454545454544" y="512.4" fill="#111" font-size="small" font-family="monospace" font-weight="bold" text-anchor="end" transform="rotate(-60, 904.5454545454544, 512.4)">
str_concat
</text>
<rect x="917.3636363636363" y="457.68992488855963" width="8.545454545454545" height="40.31007511144028" fill="#7070f8" data-tooltip="1.00x baseline speed (No JIT)"/>
<line x1="917.3636363636363" y1="457.58866039879894" x2="925.9090909090908" y2="457.58866039879894" stroke="#000"/>
<line x1="917.3636363636363" y1="457.7911893783203" x2="925.9090909090908" y2="457.7911893783203" stroke="#000"/>
<line x1="921.6363636363636" y1="457.58866039879894" x2="921.6363636363636" y2="457.7911893783203" stroke="#000"/>
<rect x="925.9090909090908" y="447.0666190757854" width="8.545454545454545" height="50.93338092421448" fill="orange" data-tooltip="1.26x baseline speed (YJIT)"/>
<line x1="925.9090909090908" y1="446.8956737967672" x2="934.4545454545453" y2="446.8956737967672" stroke="#000"/>
<line x1="925.9090909090908" y1="447.23756435480357" x2="934.4545454545453" y2="447.23756435480357" stroke="#000"/>
<line x1="930.1818181818181" y1="446.8956737967672" x2="930.1818181818181" y2="447.23756435480357" stroke="#000"/>
<line x1="930.1818181818181" y1="498.0" x2="930.1818181818181" y2="502.79999999999995" stroke="#000"/>
<text x="930.1818181818181" y="512.4" fill="#111" font-size="small" font-family="monospace" font-weight="bold" text-anchor="end" transform="rotate(-60, 930.1818181818181, 512.4)">
throw
</text>
</svg>