<svg viewBox="0 0 1000 600" xmlns="http://www.w3.org/2000/svg" xmlns:xlink="http://www.w3.org/1999/xlink" width="100%" height="100%">

<rect x="50.0" y="30.0" width="940.0" height="467.99999999999994" stroke="#000" fill="#EEE"/>
<line x1="42.0" y1="497.9999999999999" x2="50.0" y2="497.9999999999999" stroke="#000"/>
<text x="26.000000000000004" y="497.9999999999999" text-anchor="end" font-weight="bold" font-size="small" fill="#111">
0.0
</text>
<line x1="42.0" y1="425.27970764949134" x2="50.0" y2="425.27970764949134" stroke="#000"/>
<text x="26.000000000000004" y="425.27970764949134" text-anchor="end" font-weight="bold" font-size="small" fill="#111">
2.0
</text>
<line x1="42.0" y1="352.55941529898263" x2="50.0" y2="352.55941529898263" stroke="#000"/>
<text x="26.000000000000004" y="352.55941529898263" text-anchor="end" font-weight="bold" font-size="small" fill="#111">
4.0
</text>
<line x1="42.0" y1="279.83912294847397" x2="50.0" y2="279.83912294847397" stroke="#000"/>
<text x="26.000000000000004" y="279.83912294847397" text-anchor="end" font-weight="bold" font-size="small" fill="#111">
6.0
</text>
<line x1="42.0" y1="207.11883059796529" x2="50.0" y2="207.11883059796529" stroke="#000"/>
<text x="26.000000000000004" y="207.11883059796529" text-anchor="end" font-weight="bold" font-size="small" fill="#111">
8.0
</text>
<line x1="42.0" y1="134.39853824745666" x2="50.0" y2="134.39853824745666" stroke="#000"/>
<text x="26.000000000000004" y="134.39853824745666" text-anchor="end" font-weight="bold" font-size="small" fill="#111">
10.0
</text>
<rect x="268.5" y="36.00000000000001" width="80.0" height="18.0" fill="#7070f8" stroke="#888"/>
<text x="308.5" y="52.50000000000001" font-size="small" text-anchor="middle" font-weight="bold" fill="#EEE">
No JIT
</text>
<rect x="691.4999999999999" y="36.00000000000001" width="80.0" height="18.0" fill="orange" stroke="#888"/>
<text x="731.4999999999999" y="52.50000000000001" font-size="small" text-anchor="middle" font-weight="bold" fill="#EEE">
YJIT
</text>
<rect x="97.0" y="461.6398538247456" width="8.545454545454545" height="36.36014617525433" fill="#7070f8" data-tooltip="1.00x baseline speed (No JIT)"/>
<line x1="97.0" y1="461.3089111821459" x2="105.54545454545455" y2="461.3089111821459" stroke="#000"/>
<line x1="97.0" y1="461.97079646734534" x2="105.54545454545455" y2="461.97079646734534" stroke="#000"/>
<line x1="101.27272727272728" y1="461.3089111821459" x2="101.27272727272728" y2="461.97079646734534" stroke="#000"/>
<rect x="105.54545454545455" y="430.74473462244424" width="8.545454545454545" height="67.25526537755569" fill="orange" data-tooltip="1.85x baseline speed (YJIT)"/>
<line x1="105.54545454545455" y1="429.869840486501" x2="114.09090909090911" y2="429.869840486501" stroke="#000"/>
<line x1="105.54545454545455" y1="431.6196287583874" x2="114.09090909090911" y2="431.6196287583874" stroke="#000"/>
<line x1="109.81818181818183" y1="429.869840486501" x2="109.81818181818183" y2="431.6196287583874" stroke="#000"/>
<line x1="109.81818181818181" y1="498.0" x2="109.81818181818181" y2="502.79999999999995" stroke="#000"/>
<text x="109.81818181818181" y="512.4" fill="#111" font-size="small" font-family="monospace" font-weight="bold" text-anchor="end" transform="rotate(-60, 109.81818181818181, 512.4)">
activerecord
</text>
<rect x="122.63636363636364" y="461.6398538247456" width="8.545454545454545" height="36.36014617525433" fill="#7070f8" data-tooltip="1.00x baseline speed (No JIT)"/>
<line x1="122.63636363636364" y1="460.77760792459804" x2="131.1818181818182" y2="460.77760792459804" stroke="#000"/>
<line x1="122.63636363636364" y1="462.5020997248932" x2="131.1818181818182" y2="462.5020997248932" stroke="#000"/>
<line x1="126.90909090909092" y1="460.77760792459804" x2="126.90909090909092" y2="462.5020997248932" stroke="#000"/>
<rect x="131.1818181818182" y="436.2024381709925" width="8.545454545454545" height="61.797561829007485" fill="orange" data-tooltip="1.70x baseline speed (YJIT)"/>
<line x1="131.1818181818182" y1="433.6803969532534" x2="139.72727272727272" y2="433.6803969532534" stroke="#000"/>
<line x1="131.1818181818182" y1="438.7244793887316" x2="139.72727272727272" y2="438.7244793887316" stroke="#000"/>
<line x1="135.45454545454544" y1="433.6803969532534" x2="135.45454545454544" y2="438.7244793887316" stroke="#000"/>
<line x1="135.45454545454547" y1="498.0" x2="135.45454545454547" y2="502.79999999999995" stroke="#000"/>
<text x="135.45454545454547" y="512.4" fill="#111" font-size="small" font-family="monospace" font-weight="bold" text-anchor="end" transform="rotate(-60, 135.45454545454547, 512.4)">
erubi_rails
</text>
<rect x="148.27272727272728" y="461.6398538247456" width="8.545454545454545" height="36.36014617525433" fill="#7070f8" data-tooltip="1.00x baseline speed (No JIT)"/>
<line x1="148.27272727272728" y1="461.3765271196063" x2="156.81818181818184" y2="461.3765271196063" stroke="#000"/>
<line x1="148.27272727272728" y1="461.90318052988493" x2="156.81818181818184" y2="461.90318052988493" stroke="#000"/>
<line x1="152.54545454545453" y1="461.3765271196063" x2="152.54545454545453" y2="461.90318052988493" stroke="#000"/>
<rect x="156.81818181818184" y="441.04490976609134" width="8.545454545454545" height="56.95509023390862" fill="orange" data-tooltip="1.57x baseline speed (YJIT)"/>
<line x1="156.81818181818184" y1="439.8428263861766" x2="165.36363636363637" y2="439.8428263861766" stroke="#000"/>
<line x1="156.81818181818184" y1="442.24699314600605" x2="165.36363636363637" y2="442.24699314600605" stroke="#000"/>
<line x1="161.0909090909091" y1="439.8428263861766" x2="161.0909090909091" y2="442.24699314600605" stroke="#000"/>
<line x1="161.0909090909091" y1="498.0" x2="161.0909090909091" y2="502.79999999999995" stroke="#000"/>
<text x="161.0909090909091" y="512.4" fill="#111" font-size="small" font-family="monospace" font-weight="bold" text-anchor="end" transform="rotate(-60, 161.0909090909091, 512.4)">
hexapdf
</text>
<rect x="173.9090909090909" y="461.6398538247456" width="8.545454545454545" height="36.36014617525433" fill="#7070f8" data-tooltip="1.00x baseline speed (No JIT)"/>
<line x1="173.9090909090909" y1="461.15935010512527" x2="182.45454545454544" y2="461.15935010512527" stroke="#000"/>
<line x1="173.9090909090909" y1="462.12035754436596" x2="182.45454545454544" y2="462.12035754436596" stroke="#000"/>
<line x1="178.18181818181816" y1="461.15935010512527" x2="178.18181818181816" y2="462.12035754436596" stroke="#000"/>
<rect x="182.45454545454544" y="448.31746540525626" width="8.545454545454545" height="49.682534594743736" fill="orange" data-tooltip="1.37x baseline speed (YJIT)"/>
<line x1="182.45454545454544" y1="447.11324786717324" x2="191.0" y2="447.11324786717324" stroke="#000"/>
<line x1="182.45454545454544" y1="449.5216829433392" x2="191.0" y2="449.5216829433392" stroke="#000"/>
<line x1="186.72727272727272" y1="447.11324786717324" x2="186.72727272727272" y2="449.5216829433392" stroke="#000"/>
<line x1="186.72727272727272" y1="498.0" x2="186.72727272727272" y2="502.79999999999995" stroke="#000"/>
<text x="186.72727272727272" y="512.4" fill="#111" font-size="small" font-family="monospace" font-weight="bold" text-anchor="end" transform="rotate(-60, 186.72727272727272, 512.4)">
liquid-c
</text>
<rect x="199.54545454545453" y="461.6398538247456" width="8.545454545454545" height="36.36014617525433" fill="#7070f8" data-tooltip="1.00x baseline speed (No JIT)"/>
<line x1="199.54545454545453" y1="460.5607841477853" x2="208.09090909090907" y2="460.5607841477853" stroke="#000"/>
<line x1="199.54545454545453" y1="462.71892350170594" x2="208.09090909090907" y2="462.71892350170594" stroke="#000"/>
<line x1="203.81818181818178" y1="460.5607841477853" x2="203.81818181818178" y2="462.71892350170594" stroke="#000"/>
<rect x="208.09090909090907" y="448.0665286598837" width="8.545454545454545" height="49.93347134011617" fill="orange" data-tooltip="1.37x baseline speed (YJIT)"/>
<line x1="208.09090909090907" y1="445.10455463315066" x2="216.63636363636363" y2="445.10455463315066" stroke="#000"/>
<line x1="208.09090909090907" y1="451.02850268661683" x2="216.63636363636363" y2="451.02850268661683" stroke="#000"/>
<line x1="212.36363636363635" y1="445.10455463315066" x2="212.36363636363635" y2="451.02850268661683" stroke="#000"/>
<line x1="212.36363636363635" y1="498.0" x2="212.36363636363635" y2="502.79999999999995" stroke="#000"/>
<text x="212.36363636363635" y="512.4" fill="#111" font-size="small" font-family="monospace" font-weight="bold" text-anchor="end" transform="rotate(-60, 212.36363636363635, 512.4)">
liquid-compile
</text>
<rect x="225.1818181818182" y="461.6398538247456" width="8.545454545454545" height="36.36014617525433" fill="#7070f8" data-tooltip="1.00x baseline speed (No JIT)"/>
<line x1="225.1818181818182" y1="461.16898608228064" x2="233.72727272727272" y2="461.16898608228064" stroke="#000"/>
<line x1="225.1818181818182" y1="462.1107215672106" x2="233.72727272727272" y2="462.1107215672106" stroke="#000"/>
<line x1="229.45454545454544" y1="461.16898608228064" x2="229.45454545454544" y2="462.1107215672106" stroke="#000"/>
<rect x="233.72727272727272" y="431.6330154149793" width="8.545454545454545" height="66.3669845850207" fill="orange" data-tooltip="1.83x baseline speed (YJIT)"/>
<line x1="233.72727272727272" y1="429.683929611352" x2="242.27272727272728" y2="429.683929611352" stroke="#000"/>
<line x1="233.72727272727272" y1="433.5821012186065" x2="242.27272727272728" y2="433.5821012186065" stroke="#000"/>
<line x1="238.0" y1="429.683929611352" x2="238.0" y2="433.5821012186065" stroke="#000"/>
<line x1="238.0" y1="498.0" x2="238.0" y2="502.79999999999995" stroke="#000"/>
<text x="238.0" y="512.4" fill="#111" font-size="small" font-family="monospace" font-weight="bold" text-anchor="end" transform="rotate(-60, 238.0, 512.4)">
liquid-render
</text>
<rect x="250.81818181818184" y="461.6398538247456" width="8.545454545454545" height="36.36014617525433" fill="#7070f8" data-tooltip="1.00x baseline speed (No JIT)"/>
<line x1="250.81818181818184" y1="461.59629484558707" x2="259.3636363636364" y2="461.59629484558707" stroke="#000"/>
<line x1="250.81818181818184" y1="461.6834128039042" x2="259.3636363636364" y2="461.6834128039042" stroke="#000"/>
<line x1="255.0909090909091" y1="461.59629484558707" x2="255.0909090909091" y2="461.6834128039042" stroke="#000"/>
<rect x="259.3636363636364" y="449.68667254391795" width="8.545454545454545" height="48.313327456082035" fill="orange" data-tooltip="1.33x baseline speed (YJIT)"/>
<line x1="259.3636363636364" y1="449.48076986185026" x2="267.9090909090909" y2="449.48076986185026" stroke="#000"/>
<line x1="259.3636363636364" y1="449.8925752259857" x2="267.9090909090909" y2="449.8925752259857" stroke="#000"/>
<line x1="263.6363636363636" y1="449.48076986185026" x2="263.6363636363636" y2="449.8925752259857" stroke="#000"/>
<line x1="263.6363636363637" y1="498.0" x2="263.6363636363637" y2="502.79999999999995" stroke="#000"/>
<text x="263.6363636363637" y="512.4" fill="#111" font-size="small" font-family="monospace" font-weight="bold" text-anchor="end" transform="rotate(-60, 263.6363636363637, 512.4)">
mail
</text>
<rect x="276.45454545454544" y="461.6398538247456" width="8.545454545454545" height="36.36014617525433" fill="#7070f8" data-tooltip="1.00x baseline speed (No JIT)"/>
<line x1="276.45454545454544" y1="461.4412860267014" x2="285.0" y2="461.4412860267014" stroke="#000"/>
<line x1="276.45454545454544" y1="461.83842162278984" x2="285.0" y2="461.83842162278984" stroke="#000"/>
<line x1="280.7272727272727" y1="461.4412860267014" x2="280.7272727272727" y2="461.83842162278984" stroke="#000"/>
<rect x="285.0" y="445.3853818862434" width="8.545454545454545" height="52.61461811375652" fill="orange" data-tooltip="1.45x baseline speed (YJIT)"/>
<line x1="285.0" y1="445.0900318888981" x2="293.5454545454545" y2="445.0900318888981" stroke="#000"/>
<line x1="285.0" y1="445.68073188358875" x2="293.5454545454545" y2="445.68073188358875" stroke="#000"/>
<line x1="289.27272727272725" y1="445.0900318888981" x2="289.27272727272725" y2="445.68073188358875" stroke="#000"/>
<line x1="289.2727272727273" y1="498.0" x2="289.2727272727273" y2="502.79999999999995" stroke="#000"/>
<text x="289.2727272727273" y="512.4" fill="#111" font-size="small" font-family="monospace" font-weight="bold" text-anchor="end" transform="rotate(-60, 289.2727272727273, 512.4)">
psych-load
</text>
<rect x="302.09090909090907" y="461.6398538247456" width="8.545454545454545" height="36.36014617525433" fill="#7070f8" data-tooltip="1.00x baseline speed (No JIT)"/>
<line x1="302.09090909090907" y1="461.4009069129604" x2="310.6363636363636" y2="461.4009069129604" stroke="#000"/>
<line x1="302.09090909090907" y1="461.8788007365308" x2="310.6363636363636" y2="461.8788007365308" stroke="#000"/>
<line x1="306.3636363636363" y1="461.4009069129604" x2="306.3636363636363" y2="461.8788007365308" stroke="#000"/>
<rect x="310.6363636363636" y="442.90804050077475" width="8.545454545454545" height="55.09195949922515" fill="orange" data-tooltip="1.52x baseline speed (YJIT)"/>
<line x1="310.6363636363636" y1="442.0795073628035" x2="319.18181818181813" y2="442.0795073628035" stroke="#000"/>
<line x1="310.6363636363636" y1="443.73657363874605" x2="319.18181818181813" y2="443.73657363874605" stroke="#000"/>
<line x1="314.9090909090909" y1="442.0795073628035" x2="314.9090909090909" y2="443.73657363874605" stroke="#000"/>
<line x1="314.90909090909093" y1="498.0" x2="314.90909090909093" y2="502.79999999999995" stroke="#000"/>
<text x="314.90909090909093" y="512.4" fill="#111" font-size="small" font-family="monospace" font-weight="bold" text-anchor="end" transform="rotate(-60, 314.90909090909093, 512.4)">
railsbench
</text>
<rect x="327.7272727272727" y="461.6398538247456" width="8.545454545454545" height="36.36014617525433" fill="#7070f8" data-tooltip="1.00x baseline speed (No JIT)"/>
<line x1="327.7272727272727" y1="458.5906282531266" x2="336.2727272727272" y2="458.5906282531266" stroke="#000"/>
<line x1="327.7272727272727" y1="464.6890793963646" x2="336.2727272727272" y2="464.6890793963646" stroke="#000"/>
<line x1="331.99999999999994" y1="458.5906282531266" x2="331.99999999999994" y2="464.6890793963646" stroke="#000"/>
<rect x="336.2727272727272" y="446.9727987942241" width="8.545454545454545" height="51.02720120577579" fill="orange" data-tooltip="1.40x baseline speed (YJIT)"/>
<line x1="336.2727272727272" y1="435.9353093310818" x2="344.81818181818176" y2="435.9353093310818" stroke="#000"/>
<line x1="336.2727272727272" y1="458.0102882573664" x2="344.81818181818176" y2="458.0102882573664" stroke="#000"/>
<line x1="340.5454545454545" y1="435.9353093310818" x2="340.5454545454545" y2="458.0102882573664" stroke="#000"/>
<line x1="340.54545454545456" y1="498.0" x2="340.54545454545456" y2="502.79999999999995" stroke="#000"/>
<text x="340.54545454545456" y="512.4" fill="#111" font-size="small" font-family="monospace" font-weight="bold" text-anchor="end" transform="rotate(-60, 340.54545454545456, 512.4)">
ruby-lsp
</text>
<rect x="353.3636363636363" y="461.6398538247456" width="8.545454545454545" height="36.36014617525433" fill="#7070f8" data-tooltip="1.00x baseline speed (No JIT)"/>
<line x1="353.3636363636363" y1="461.555711930775" x2="361.9090909090908" y2="461.555711930775" stroke="#000"/>
<line x1="353.3636363636363" y1="461.72399571871625" x2="361.9090909090908" y2="461.72399571871625" stroke="#000"/>
<line x1="357.63636363636357" y1="461.555711930775" x2="357.63636363636357" y2="461.72399571871625" stroke="#000"/>
<rect x="361.9090909090908" y="451.42887454285204" width="8.545454545454545" height="46.57112545714796" fill="orange" data-tooltip="1.28x baseline speed (YJIT)"/>
<line x1="361.9090909090908" y1="451.0726650591473" x2="370.4545454545454" y2="451.0726650591473" stroke="#000"/>
<line x1="361.9090909090908" y1="451.7850840265568" x2="370.4545454545454" y2="451.7850840265568" stroke="#000"/>
<line x1="366.18181818181813" y1="451.0726650591473" x2="366.18181818181813" y2="451.7850840265568" stroke="#000"/>
<line x1="366.1818181818182" y1="498.0" x2="366.1818181818182" y2="502.79999999999995" stroke="#000"/>
<text x="366.1818181818182" y="512.4" fill="#111" font-size="small" font-family="monospace" font-weight="bold" text-anchor="end" transform="rotate(-60, 366.1818181818182, 512.4)">
sequel
</text>
<rect x="379.0" y="461.6398538247456" width="8.545454545454545" height="36.36014617525433" fill="#7070f8" data-tooltip="1.00x baseline speed (No JIT)"/>
<line x1="379.0" y1="461.593454419239" x2="387.5454545454545" y2="461.593454419239" stroke="#000"/>
<line x1="379.0" y1="461.68625323025225" x2="387.5454545454545" y2="461.68625323025225" stroke="#000"/>
<line x1="383.27272727272725" y1="461.593454419239" x2="383.27272727272725" y2="461.68625323025225" stroke="#000"/>
<rect x="387.5454545454545" y="423.5298074648097" width="8.545454545454545" height="74.47019253519022" fill="orange" data-tooltip="2.05x baseline speed (YJIT)"/>
<line x1="387.5454545454545" y1="423.40947079386405" x2="396.09090909090907" y2="423.40947079386405" stroke="#000"/>
<line x1="387.5454545454545" y1="423.65014413575545" x2="396.09090909090907" y2="423.65014413575545" stroke="#000"/>
<line x1="391.8181818181818" y1="423.40947079386405" x2="391.8181818181818" y2="423.65014413575545" stroke="#000"/>
<line x1="391.81818181818187" y1="498.0" x2="391.81818181818187" y2="502.79999999999995" stroke="#000"/>
<text x="391.81818181818187" y="512.4" fill="#111" font-size="small" font-family="monospace" font-weight="bold" text-anchor="end" transform="rotate(-60, 391.81818181818187, 512.4)">
binarytrees
</text>
<rect x="404.63636363636357" y="461.6398538247456" width="8.545454545454545" height="36.36014617525433" fill="#7070f8" data-tooltip="1.00x baseline speed (No JIT)"/>
<line x1="404.63636363636357" y1="461.62232869452384" x2="413.1818181818181" y2="461.62232869452384" stroke="#000"/>
<line x1="404.63636363636357" y1="461.6573789549674" x2="413.1818181818181" y2="461.6573789549674" stroke="#000"/>
<line x1="408.9090909090908" y1="461.62232869452384" x2="408.9090909090908" y2="461.6573789549674" stroke="#000"/>
<rect x="413.1818181818181" y="441.742909163078" width="8.545454545454545" height="56.25709083692195" fill="orange" data-tooltip="1.55x baseline speed (YJIT)"/>
<line x1="413.1818181818181" y1="441.7065128250231" x2="421.72727272727263" y2="441.7065128250231" stroke="#000"/>
<line x1="413.1818181818181" y1="441.77930550113297" x2="421.72727272727263" y2="441.77930550113297" stroke="#000"/>
<line x1="417.4545454545454" y1="441.7065128250231" x2="417.4545454545454" y2="441.77930550113297" stroke="#000"/>
<line x1="417.45454545454544" y1="498.0" x2="417.45454545454544" y2="502.79999999999995" stroke="#000"/>
<text x="417.45454545454544" y="512.4" fill="#111" font-size="small" font-family="monospace" font-weight="bold" text-anchor="end" transform="rotate(-60, 417.45454545454544, 512.4)">
chunky_png
</text>
<rect x="430.27272727272725" y="461.6398538247456" width="8.545454545454545" height="36.36014617525433" fill="#7070f8" data-tooltip="1.00x baseline speed (No JIT)"/>
<line x1="430.27272727272725" y1="461.3652566258454" x2="438.81818181818176" y2="461.3652566258454" stroke="#000"/>
<line x1="430.27272727272725" y1="461.9144510236458" x2="438.81818181818176" y2="461.9144510236458" stroke="#000"/>
<line x1="434.5454545454545" y1="461.3652566258454" x2="434.5454545454545" y2="461.9144510236458" stroke="#000"/>
<rect x="438.81818181818176" y="455.48736845644" width="8.545454545454545" height="42.51263154355987" fill="orange" data-tooltip="1.17x baseline speed (YJIT)"/>
<line x1="438.81818181818176" y1="454.99724350030243" x2="447.3636363636363" y2="454.99724350030243" stroke="#000"/>
<line x1="438.81818181818176" y1="455.9774934125776" x2="447.3636363636363" y2="455.9774934125776" stroke="#000"/>
<line x1="443.090909090909" y1="454.99724350030243" x2="443.090909090909" y2="455.9774934125776" stroke="#000"/>
<line x1="443.09090909090907" y1="498.0" x2="443.09090909090907" y2="502.79999999999995" stroke="#000"/>
<text x="443.09090909090907" y="512.4" fill="#111" font-size="small" font-family="monospace" font-weight="bold" text-anchor="end" transform="rotate(-60, 443.09090909090907, 512.4)">
erubi
</text>
<rect x="455.90909090909093" y="461.6398538247456" width="8.545454545454545" height="36.36014617525433" fill="#7070f8" data-tooltip="1.00x baseline speed (No JIT)"/>
<line x1="455.90909090909093" y1="461.46831127740717" x2="464.45454545454544" y2="461.46831127740717" stroke="#000"/>
<line x1="455.90909090909093" y1="461.81139637208406" x2="464.45454545454544" y2="461.81139637208406" stroke="#000"/>
<line x1="460.1818181818182" y1="461.46831127740717" x2="460.1818181818182" y2="461.81139637208406" stroke="#000"/>
<rect x="464.45454545454544" y="461.9678283764427" width="8.545454545454545" height="36.032171623557204" fill="orange" data-tooltip="0.99x baseline speed (YJIT)"/>
<line x1="464.45454545454544" y1="461.7353838094958" x2="473.0" y2="461.7353838094958" stroke="#000"/>
<line x1="464.45454545454544" y1="462.2002729433896" x2="473.0" y2="462.2002729433896" stroke="#000"/>
<line x1="468.7272727272727" y1="461.7353838094958" x2="468.7272727272727" y2="462.2002729433896" stroke="#000"/>
<line x1="468.72727272727275" y1="498.0" x2="468.72727272727275" y2="502.79999999999995" stroke="#000"/>
<text x="468.72727272727275" y="512.4" fill="#111" font-size="small" font-family="monospace" font-weight="bold" text-anchor="end" transform="rotate(-60, 468.72727272727275, 512.4)">
etanni
</text>
<rect x="481.5454545454545" y="461.6398538247456" width="8.545454545454545" height="36.36014617525433" fill="#7070f8" data-tooltip="1.00x baseline speed (No JIT)"/>
<line x1="481.5454545454545" y1="461.55440193568893" x2="490.090909090909" y2="461.55440193568893" stroke="#000"/>
<line x1="481.5454545454545" y1="461.7253057138023" x2="490.090909090909" y2="461.7253057138023" stroke="#000"/>
<line x1="485.81818181818176" y1="461.55440193568893" x2="485.81818181818176" y2="461.7253057138023" stroke="#000"/>
<rect x="490.090909090909" y="396.8086062778892" width="8.545454545454545" height="101.19139372211073" fill="orange" data-tooltip="2.78x baseline speed (YJIT)"/>
<line x1="490.090909090909" y1="389.4216907947848" x2="498.63636363636357" y2="389.4216907947848" stroke="#000"/>
<line x1="490.090909090909" y1="404.19552176099364" x2="498.63636363636357" y2="404.19552176099364" stroke="#000"/>
<line x1="494.36363636363626" y1="389.4216907947848" x2="494.36363636363626" y2="404.19552176099364" stroke="#000"/>
<line x1="494.3636363636363" y1="498.0" x2="494.3636363636363" y2="502.79999999999995" stroke="#000"/>
<text x="494.3636363636363" y="512.4" fill="#111" font-size="small" font-family="monospace" font-weight="bold" text-anchor="end" transform="rotate(-60, 494.3636363636363, 512.4)">
fannkuchredux
</text>
<rect x="507.1818181818182" y="461.6398538247456" width="8.545454545454545" height="36.36014617525433" fill="#7070f8" data-tooltip="1.00x baseline speed (No JIT)"/>
<line x1="507.1818181818182" y1="461.51962786664353" x2="515.7272727272727" y2="461.51962786664353" stroke="#000"/>
<line x1="507.1818181818182" y1="461.7600797828477" x2="515.7272727272727" y2="461.7600797828477" stroke="#000"/>
<line x1="511.4545454545455" y1="461.51962786664353" x2="511.4545454545455" y2="461.7600797828477" stroke="#000"/>
<rect x="515.7272727272727" y="447.2745399421186" width="8.545454545454545" height="50.72546005788139" fill="orange" data-tooltip="1.40x baseline speed (YJIT)"/>
<line x1="515.7272727272727" y1="447.0206898156436" x2="524.2727272727273" y2="447.0206898156436" stroke="#000"/>
<line x1="515.7272727272727" y1="447.52839006859364" x2="524.2727272727273" y2="447.52839006859364" stroke="#000"/>
<line x1="520.0" y1="447.0206898156436" x2="520.0" y2="447.52839006859364" stroke="#000"/>
<line x1="520.0" y1="498.0" x2="520.0" y2="502.79999999999995" stroke="#000"/>
<text x="520.0" y="512.4" fill="#111" font-size="small" font-family="monospace" font-weight="bold" text-anchor="end" transform="rotate(-60, 520.0, 512.4)">
lee
</text>
<rect x="532.8181818181818" y="461.6398538247456" width="8.545454545454545" height="36.36014617525433" fill="#7070f8" data-tooltip="1.00x baseline speed (No JIT)"/>
<line x1="532.8181818181818" y1="461.62713212258603" x2="541.3636363636363" y2="461.62713212258603" stroke="#000"/>
<line x1="532.8181818181818" y1="461.6525755269052" x2="541.3636363636363" y2="461.6525755269052" stroke="#000"/>
<line x1="537.090909090909" y1="461.62713212258603" x2="537.090909090909" y2="461.6525755269052" stroke="#000"/>
<rect x="541.3636363636363" y="434.1843250189816" width="8.545454545454545" height="63.8156749810183" fill="orange" data-tooltip="1.76x baseline speed (YJIT)"/>
<line x1="541.3636363636363" y1="434.12989913494135" x2="549.9090909090908" y2="434.12989913494135" stroke="#000"/>
<line x1="541.3636363636363" y1="434.23875090302187" x2="549.9090909090908" y2="434.23875090302187" stroke="#000"/>
<line x1="545.6363636363636" y1="434.12989913494135" x2="545.6363636363636" y2="434.23875090302187" stroke="#000"/>
<line x1="545.6363636363636" y1="498.0" x2="545.6363636363636" y2="502.79999999999995" stroke="#000"/>
<text x="545.6363636363636" y="512.4" fill="#111" font-size="small" font-family="monospace" font-weight="bold" text-anchor="end" transform="rotate(-60, 545.6363636363636, 512.4)">
nbody
</text>
<rect x="558.4545454545454" y="461.6398538247456" width="8.545454545454545" height="36.36014617525433" fill="#7070f8" data-tooltip="1.00x baseline speed (No JIT)"/>
<line x1="558.4545454545454" y1="461.41171764686146" x2="567.0" y2="461.41171764686146" stroke="#000"/>
<line x1="558.4545454545454" y1="461.86799000262977" x2="567.0" y2="461.86799000262977" stroke="#000"/>
<line x1="562.7272727272727" y1="461.41171764686146" x2="562.7272727272727" y2="461.86799000262977" stroke="#000"/>
<rect x="567.0" y="398.8172926004002" width="8.545454545454545" height="99.18270739959975" fill="orange" data-tooltip="2.73x baseline speed (YJIT)"/>
<line x1="567.0" y1="397.9401617666774" x2="575.5454545454545" y2="397.9401617666774" stroke="#000"/>
<line x1="567.0" y1="399.694423434123" x2="575.5454545454545" y2="399.694423434123" stroke="#000"/>
<line x1="571.2727272727273" y1="397.9401617666774" x2="571.2727272727273" y2="399.694423434123" stroke="#000"/>
<line x1="571.2727272727273" y1="498.0" x2="571.2727272727273" y2="502.79999999999995" stroke="#000"/>
<text x="571.2727272727273" y="512.4" fill="#111" font-size="small" font-family="monospace" font-weight="bold" text-anchor="end" transform="rotate(-60, 571.2727272727273, 512.4)">
optcarrot
</text>
<rect x="584.0909090909091" y="461.6398538247456" width="8.545454545454545" height="36.36014617525433" fill="#7070f8" data-tooltip="1.00x baseline speed (No JIT)"/>
<line x1="584.0909090909091" y1="461.6092944106505" x2="592.6363636363636" y2="461.6092944106505" stroke="#000"/>
<line x1="584.0909090909091" y1="461.67041323884075" x2="592.6363636363636" y2="461.67041323884075" stroke="#000"/>
<line x1="588.3636363636364" y1="461.6092944106505" x2="588.3636363636364" y2="461.67041323884075" stroke="#000"/>
<rect x="592.6363636363636" y="455.54509466742866" width="8.545454545454545" height="42.45490533257125" fill="orange" data-tooltip="1.17x baseline speed (YJIT)"/>
<line x1="592.6363636363636" y1="455.4602073134018" x2="601.1818181818181" y2="455.4602073134018" stroke="#000"/>
<line x1="592.6363636363636" y1="455.62998202145553" x2="601.1818181818181" y2="455.62998202145553" stroke="#000"/>
<line x1="596.909090909091" y1="455.4602073134018" x2="596.909090909091" y2="455.62998202145553" stroke="#000"/>
<line x1="596.909090909091" y1="498.0" x2="596.909090909091" y2="502.79999999999995" stroke="#000"/>
<text x="596.909090909091" y="512.4" fill="#111" font-size="small" font-family="monospace" font-weight="bold" text-anchor="end" transform="rotate(-60, 596.909090909091, 512.4)">
ruby-json
</text>
<rect x="609.7272727272726" y="461.6398538247456" width="8.545454545454545" height="36.36014617525433" fill="#7070f8" data-tooltip="1.00x baseline speed (No JIT)"/>
<line x1="609.7272727272726" y1="461.4621347584499" x2="618.2727272727273" y2="461.4621347584499" stroke="#000"/>
<line x1="609.7272727272726" y1="461.8175728910413" x2="618.2727272727273" y2="461.8175728910413" stroke="#000"/>
<line x1="614.0" y1="461.4621347584499" x2="614.0" y2="461.8175728910413" stroke="#000"/>
<rect x="618.2727272727273" y="429.4537845153461" width="8.545454545454545" height="68.54621548465389" fill="orange" data-tooltip="1.89x baseline speed (YJIT)"/>
<line x1="618.2727272727273" y1="429.035870316682" x2="626.8181818181818" y2="429.035870316682" stroke="#000"/>
<line x1="618.2727272727273" y1="429.8716987140102" x2="626.8181818181818" y2="429.8716987140102" stroke="#000"/>
<line x1="622.5454545454545" y1="429.035870316682" x2="622.5454545454545" y2="429.8716987140102" stroke="#000"/>
<line x1="622.5454545454545" y1="498.0" x2="622.5454545454545" y2="502.79999999999995" stroke="#000"/>
<text x="622.5454545454545" y="512.4" fill="#111" font-size="small" font-family="monospace" font-weight="bold" text-anchor="end" transform="rotate(-60, 622.5454545454545, 512.4)">
rubykon
</text>
<rect x="635.3636363636363" y="461.6398538247456" width="8.545454545454545" height="36.36014617525433" fill="#7070f8" data-tooltip="1.00x baseline speed (No JIT)"/>
<line x1="635.3636363636363" y1="461.6293771714028" x2="643.9090909090908" y2="461.6293771714028" stroke="#000"/>
<line x1="635.3636363636363" y1="461.65033047808845" x2="643.9090909090908" y2="461.65033047808845" stroke="#000"/>
<line x1="639.6363636363635" y1="461.6293771714028" x2="639.6363636363635" y2="461.65033047808845" stroke="#000"/>
<rect x="643.9090909090908" y="262.0830402022426" width="8.545454545454545" height="235.9169597977573" fill="orange" data-tooltip="6.49x baseline speed (YJIT)"/>
<line x1="643.9090909090908" y1="261.9212673536518" x2="652.4545454545453" y2="261.9212673536518" stroke="#000"/>
<line x1="643.9090909090908" y1="262.2448130508335" x2="652.4545454545453" y2="262.2448130508335" stroke="#000"/>
<line x1="648.1818181818181" y1="261.9212673536518" x2="648.1818181818181" y2="262.2448130508335" stroke="#000"/>
<line x1="648.1818181818181" y1="498.0" x2="648.1818181818181" y2="502.79999999999995" stroke="#000"/>
<text x="648.1818181818181" y="512.4" fill="#111" font-size="small" font-family="monospace" font-weight="bold" text-anchor="end" transform="rotate(-60, 648.1818181818181, 512.4)">
30k_ifelse
</text>
<rect x="660.9999999999999" y="461.6398538247456" width="8.545454545454545" height="36.36014617525433" fill="#7070f8" data-tooltip="1.00x baseline speed (No JIT)"/>
<line x1="660.9999999999999" y1="461.63249889361873" x2="669.5454545454544" y2="461.63249889361873" stroke="#000"/>
<line x1="660.9999999999999" y1="461.6472087558725" x2="669.5454545454544" y2="461.6472087558725" stroke="#000"/>
<line x1="665.2727272727273" y1="461.63249889361873" x2="665.2727272727273" y2="461.6472087558725" stroke="#000"/>
<rect x="669.5454545454544" y="201.01897504888265" width="8.545454545454545" height="296.98102495111726" fill="orange" data-tooltip="8.17x baseline speed (YJIT)"/>
<line x1="669.5454545454544" y1="200.93874063469048" x2="678.090909090909" y2="200.93874063469048" stroke="#000"/>
<line x1="669.5454545454544" y1="201.09920946307486" x2="678.090909090909" y2="201.09920946307486" stroke="#000"/>
<line x1="673.8181818181818" y1="200.93874063469048" x2="673.8181818181818" y2="201.09920946307486" stroke="#000"/>
<line x1="673.8181818181818" y1="498.0" x2="673.8181818181818" y2="502.79999999999995" stroke="#000"/>
<text x="673.8181818181818" y="512.4" fill="#111" font-size="small" font-family="monospace" font-weight="bold" text-anchor="end" transform="rotate(-60, 673.8181818181818, 512.4)">
30k_methods
</text>
<rect x="686.6363636363636" y="461.6398538247456" width="8.545454545454545" height="36.36014617525433" fill="#7070f8" data-tooltip="1.00x baseline speed (No JIT)"/>
<line x1="686.6363636363636" y1="461.50874616342725" x2="695.1818181818181" y2="461.50874616342725" stroke="#000"/>
<line x1="686.6363636363636" y1="461.770961486064" x2="695.1818181818181" y2="461.770961486064" stroke="#000"/>
<line x1="690.9090909090909" y1="461.50874616342725" x2="690.9090909090909" y2="461.770961486064" stroke="#000"/>
<rect x="695.1818181818181" y="401.8606403918179" width="8.545454545454545" height="96.13935960818206" fill="orange" data-tooltip="2.64x baseline speed (YJIT)"/>
<line x1="695.1818181818181" y1="401.46191670837175" x2="703.7272727272726" y2="401.46191670837175" stroke="#000"/>
<line x1="695.1818181818181" y1="402.2593640752641" x2="703.7272727272726" y2="402.2593640752641" stroke="#000"/>
<line x1="699.4545454545455" y1="401.46191670837175" x2="699.4545454545455" y2="402.2593640752641" stroke="#000"/>
<line x1="699.4545454545455" y1="498.0" x2="699.4545454545455" y2="502.79999999999995" stroke="#000"/>
<text x="699.4545454545455" y="512.4" fill="#111" font-size="small" font-family="monospace" font-weight="bold" text-anchor="end" transform="rotate(-60, 699.4545454545455, 512.4)">
cfunc_itself
</text>
<rect x="712.2727272727271" y="461.6398538247456" width="8.545454545454545" height="36.36014617525433" fill="#7070f8" data-tooltip="1.00x baseline speed (No JIT)"/>
<line x1="712.2727272727271" y1="461.62605976052635" x2="720.8181818181816" y2="461.62605976052635" stroke="#000"/>
<line x1="712.2727272727271" y1="461.6536478889649" x2="720.8181818181816" y2="461.6536478889649" stroke="#000"/>
<line x1="716.5454545454545" y1="461.62605976052635" x2="716.5454545454545" y2="461.6536478889649" stroke="#000"/>
<rect x="720.8181818181816" y="310.2326873103348" width="8.545454545454545" height="187.76731268966512" fill="orange" data-tooltip="5.16x baseline speed (YJIT)"/>
<line x1="720.8181818181816" y1="310.1103327963527" x2="729.3636363636363" y2="310.1103327963527" stroke="#000"/>
<line x1="720.8181818181816" y1="310.3550418243169" x2="729.3636363636363" y2="310.3550418243169" stroke="#000"/>
<line x1="725.090909090909" y1="310.1103327963527" x2="725.090909090909" y2="310.3550418243169" stroke="#000"/>
<line x1="725.090909090909" y1="498.0" x2="725.090909090909" y2="502.79999999999995" stroke="#000"/>
<text x="725.090909090909" y="512.4" fill="#111" font-size="small" font-family="monospace" font-weight="bold" text-anchor="end" transform="rotate(-60, 725.090909090909, 512.4)">
fib
</text>
<rect x="737.9090909090909" y="461.6398538247456" width="8.545454545454545" height="36.36014617525433" fill="#7070f8" data-tooltip="1.00x baseline speed (No JIT)"/>
<line x1="737.9090909090909" y1="461.57310540373726" x2="746.4545454545454" y2="461.57310540373726" stroke="#000"/>
<line x1="737.9090909090909" y1="461.70660224575397" x2="746.4545454545454" y2="461.70660224575397" stroke="#000"/>
<line x1="742.1818181818181" y1="461.57310540373726" x2="742.1818181818181" y2="461.70660224575397" stroke="#000"/>
<rect x="746.4545454545454" y="296.0959584611171" width="8.545454545454545" height="201.90404153888284" fill="orange" data-tooltip="5.55x baseline speed (YJIT)"/>
<line x1="746.4545454545454" y1="295.4546902267911" x2="754.9999999999999" y2="295.4546902267911" stroke="#000"/>
<line x1="746.4545454545454" y1="296.7372266954431" x2="754.9999999999999" y2="296.7372266954431" stroke="#000"/>
<line x1="750.7272727272726" y1="295.4546902267911" x2="750.7272727272726" y2="296.7372266954431" stroke="#000"/>
<line x1="750.7272727272726" y1="498.0" x2="750.7272727272726" y2="502.79999999999995" stroke="#000"/>
<text x="750.7272727272726" y="512.4" fill="#111" font-size="small" font-family="monospace" font-weight="bold" text-anchor="end" transform="rotate(-60, 750.7272727272726, 512.4)">
getivar
</text>
<rect x="763.5454545454544" y="461.6398538247456" width="8.545454545454545" height="36.36014617525433" fill="#7070f8" data-tooltip="1.00x baseline speed (No JIT)"/>
<line x1="763.5454545454544" y1="461.5989068080172" x2="772.0909090909089" y2="461.5989068080172" stroke="#000"/>
<line x1="763.5454545454544" y1="461.680800841474" x2="772.0909090909089" y2="461.680800841474" stroke="#000"/>
<line x1="767.8181818181818" y1="461.5989068080172" x2="767.8181818181818" y2="461.680800841474" stroke="#000"/>
<rect x="772.0909090909089" y="280.40638013681814" width="8.545454545454545" height="217.5936198631818" fill="orange" data-tooltip="5.98x baseline speed (YJIT)"/>
<line x1="772.0909090909089" y1="280.0100472758736" x2="780.6363636363635" y2="280.0100472758736" stroke="#000"/>
<line x1="772.0909090909089" y1="280.80271299776274" x2="780.6363636363635" y2="280.80271299776274" stroke="#000"/>
<line x1="776.3636363636363" y1="280.0100472758736" x2="776.3636363636363" y2="280.80271299776274" stroke="#000"/>
<line x1="776.3636363636363" y1="498.0" x2="776.3636363636363" y2="502.79999999999995" stroke="#000"/>
<text x="776.3636363636363" y="512.4" fill="#111" font-size="small" font-family="monospace" font-weight="bold" text-anchor="end" transform="rotate(-60, 776.3636363636363, 512.4)">
keyword_args
</text>
<rect x="789.1818181818181" y="461.6398538247456" width="8.545454545454545" height="36.36014617525433" fill="#7070f8" data-tooltip="1.00x baseline speed (No JIT)"/>
<line x1="789.1818181818181" y1="461.506841841773" x2="797.7272727272726" y2="461.506841841773" stroke="#000"/>
<line x1="789.1818181818181" y1="461.77286580771823" x2="797.7272727272726" y2="461.77286580771823" stroke="#000"/>
<line x1="793.4545454545454" y1="461.506841841773" x2="793.4545454545454" y2="461.77286580771823" stroke="#000"/>
<rect x="797.7272727272726" y="100.19999999999999" width="8.545454545454545" height="397.79999999999995" fill="orange" data-tooltip="10.94x baseline speed (YJIT)"/>
<line x1="797.7272727272726" y1="96.49334161757326" x2="806.2727272727271" y2="96.49334161757326" stroke="#000"/>
<line x1="797.7272727272726" y1="103.90665838242671" x2="806.2727272727271" y2="103.90665838242671" stroke="#000"/>
<line x1="801.9999999999999" y1="96.49334161757326" x2="801.9999999999999" y2="103.90665838242671" stroke="#000"/>
<line x1="801.9999999999999" y1="498.0" x2="801.9999999999999" y2="502.79999999999995" stroke="#000"/>
<text x="801.9999999999999" y="512.4" fill="#111" font-size="small" font-family="monospace" font-weight="bold" text-anchor="end" transform="rotate(-60, 801.9999999999999, 512.4)">
respond_to
</text>
<rect x="814.8181818181818" y="461.6398538247456" width="8.545454545454545" height="36.36014617525433" fill="#7070f8" data-tooltip="1.00x baseline speed (No JIT)"/>
<line x1="814.8181818181818" y1="461.61168195377707" x2="823.3636363636363" y2="461.61168195377707" stroke="#000"/>
<line x1="814.8181818181818" y1="461.66802569571416" x2="823.3636363636363" y2="461.66802569571416" stroke="#000"/>
<line x1="819.0909090909091" y1="461.61168195377707" x2="819.0909090909091" y2="461.66802569571416" stroke="#000"/>
<rect x="823.3636363636363" y="265.2966133105218" width="8.545454545454545" height="232.70338668947815" fill="orange" data-tooltip="6.40x baseline speed (YJIT)"/>
<line x1="823.3636363636363" y1="265.0234236553184" x2="831.9090909090908" y2="265.0234236553184" stroke="#000"/>
<line x1="823.3636363636363" y1="265.56980296572516" x2="831.9090909090908" y2="265.56980296572516" stroke="#000"/>
<line x1="827.6363636363636" y1="265.0234236553184" x2="827.6363636363636" y2="265.56980296572516" stroke="#000"/>
<line x1="827.6363636363636" y1="498.0" x2="827.6363636363636" y2="502.79999999999995" stroke="#000"/>
<text x="827.6363636363636" y="512.4" fill="#111" font-size="small" font-family="monospace" font-weight="bold" text-anchor="end" transform="rotate(-60, 827.6363636363636, 512.4)">
setivar
</text>
<rect x="840.4545454545454" y="461.6398538247456" width="8.545454545454545" height="36.36014617525433" fill="#7070f8" data-tooltip="1.00x baseline speed (No JIT)"/>
<line x1="840.4545454545454" y1="460.701586469055" x2="848.9999999999999" y2="460.701586469055" stroke="#000"/>
<line x1="840.4545454545454" y1="462.5781211804363" x2="848.9999999999999" y2="462.5781211804363" stroke="#000"/>
<line x1="844.7272727272726" y1="460.701586469055" x2="844.7272727272726" y2="462.5781211804363" stroke="#000"/>
<rect x="848.9999999999999" y="408.8351704202128" width="8.545454545454545" height="89.16482957978715" fill="orange" data-tooltip="2.45x baseline speed (YJIT)"/>
<line x1="848.9999999999999" y1="403.786087773852" x2="857.5454545454544" y2="403.786087773852" stroke="#000"/>
<line x1="848.9999999999999" y1="413.8842530665737" x2="857.5454545454544" y2="413.8842530665737" stroke="#000"/>
<line x1="853.2727272727271" y1="403.786087773852" x2="853.2727272727271" y2="413.8842530665737" stroke="#000"/>
<line x1="853.2727272727271" y1="498.0" x2="853.2727272727271" y2="502.79999999999995" stroke="#000"/>
<text x="853.2727272727271" y="512.4" fill="#111" font-size="small" font-family="monospace" font-weight="bold" text-anchor="end" transform="rotate(-60, 853.2727272727271, 512.4)">
setivar_object
</text>
<rect x="866.090909090909" y="461.6398538247456" width="8.545454545454545" height="36.36014617525433" fill="#7070f8" data-tooltip="1.00x baseline speed (No JIT)"/>
<line x1="866.090909090909" y1="461.5176499109766" x2="874.6363636363635" y2="461.5176499109766" stroke="#000"/>
<line x1="866.090909090909" y1="461.7620577385146" x2="874.6363636363635" y2="461.7620577385146" stroke="#000"/>
<line x1="870.3636363636364" y1="461.5176499109766" x2="870.3636363636364" y2="461.7620577385146" stroke="#000"/>
<rect x="874.6363636363635" y="404.3733282435179" width="8.545454545454545" height="93.6266717564821" fill="orange" data-tooltip="2.57x baseline speed (YJIT)"/>
<line x1="874.6363636363635" y1="402.9248794973058" x2="883.181818181818" y2="402.9248794973058" stroke="#000"/>
<line x1="874.6363636363635" y1="405.82177698973" x2="883.181818181818" y2="405.82177698973" stroke="#000"/>
<line x1="878.9090909090909" y1="402.9248794973058" x2="878.9090909090909" y2="405.82177698973" stroke="#000"/>
<line x1="878.9090909090909" y1="498.0" x2="878.9090909090909" y2="502.79999999999995" stroke="#000"/>
<text x="878.9090909090909" y="512.4" fill="#111" font-size="small" font-family="monospace" font-weight="bold" text-anchor="end" transform="rotate(-60, 878.9090909090909, 512.4)">
setivar_young
</text>
<rect x="891.7272727272726" y="461.6398538247456" width="8.545454545454545" height="36.36014617525433" fill="#7070f8" data-tooltip="1.00x baseline speed (No JIT)"/>
<line x1="891.7272727272726" y1="461.3810439409526" x2="900.2727272727271" y2="461.3810439409526" stroke="#000"/>
<line x1="891.7272727272726" y1="461.8986637085386" x2="900.2727272727271" y2="461.8986637085386" stroke="#000"/>
<line x1="895.9999999999999" y1="461.3810439409526" x2="895.9999999999999" y2="461.8986637085386" stroke="#000"/>
<rect x="900.2727272727271" y="426.1318921220235" width="8.545454545454545" height="71.86810787797641" fill="orange" data-tooltip="1.98x baseline speed (YJIT)"/>
<line x1="900.2727272727271" y1="424.97878857585795" x2="908.8181818181816" y2="424.97878857585795" stroke="#000"/>
<line x1="900.2727272727271" y1="427.284995668189" x2="908.8181818181816" y2="427.284995668189" stroke="#000"/>
<line x1="904.5454545454544" y1="424.97878857585795" x2="904.5454545454544" y2="427.284995668189" stroke="#000"/>
<line x1="904.5454545454544" y1="498.0" x2="904.5454545454544" y2="502.79999999999995" stroke="#000"/>
<text x="904.5454545454544" y="512.4" fill="#111" font-size="small" font-family="monospace" font-weight="bold" text-anchor="end" transform="rotate(-60, 904.5454545454544, 512.4)">
str_concat
</text>
<rect x="917.3636363636363" y="461.6398538247456" width="8.545454545454545" height="36.36014617525433" fill="#7070f8" data-tooltip="1.00x baseline speed (No JIT)"/>
<line x1="917.3636363636363" y1="461.58065340814085" x2="925.9090909090908" y2="461.58065340814085" stroke="#000"/>
<line x1="917.3636363636363" y1="461.6990542413504" x2="925.9090909090908" y2="461.6990542413504" stroke="#000"/>
<line x1="921.6363636363636" y1="461.58065340814085" x2="921.6363636363636" y2="461.6990542413504" stroke="#000"/>
<rect x="925.9090909090908" y="452.9108807959635" width="8.545454545454545" height="45.08911920403645" fill="orange" data-tooltip="1.24x baseline speed (YJIT)"/>
<line x1="925.9090909090908" y1="452.7903142867749" x2="934.4545454545453" y2="452.7903142867749" stroke="#000"/>
<line x1="925.9090909090908" y1="453.03144730515214" x2="934.4545454545453" y2="453.03144730515214" stroke="#000"/>
<line x1="930.1818181818181" y1="452.7903142867749" x2="930.1818181818181" y2="453.03144730515214" stroke="#000"/>
<line x1="930.1818181818181" y1="498.0" x2="930.1818181818181" y2="502.79999999999995" stroke="#000"/>
<text x="930.1818181818181" y="512.4" fill="#111" font-size="small" font-family="monospace" font-weight="bold" text-anchor="end" transform="rotate(-60, 930.1818181818181, 512.4)">
throw
</text>
</svg>