<svg viewBox="0 0 1000 600" xmlns="http://www.w3.org/2000/svg" xmlns:xlink="http://www.w3.org/1999/xlink" width="100%" height="100%">

<rect x="50.0" y="30.0" width="940.0" height="467.99999999999994" stroke="#000" fill="#EEE"/>
<line x1="42.0" y1="497.9999999999999" x2="50.0" y2="497.9999999999999" stroke="#000"/>
<text x="26.000000000000004" y="497.9999999999999" text-anchor="end" font-weight="bold" font-size="small" fill="#111">
0.0
</text>
<line x1="42.0" y1="433.2692257891245" x2="50.0" y2="433.2692257891245" stroke="#000"/>
<text x="26.000000000000004" y="433.2692257891245" text-anchor="end" font-weight="bold" font-size="small" fill="#111">
1.0
</text>
<line x1="42.0" y1="368.53845157824907" x2="50.0" y2="368.53845157824907" stroke="#000"/>
<text x="26.000000000000004" y="368.53845157824907" text-anchor="end" font-weight="bold" font-size="small" fill="#111">
2.0
</text>
<line x1="42.0" y1="303.8076773673737" x2="50.0" y2="303.8076773673737" stroke="#000"/>
<text x="26.000000000000004" y="303.8076773673737" text-anchor="end" font-weight="bold" font-size="small" fill="#111">
3.0
</text>
<line x1="42.0" y1="239.07690315649822" x2="50.0" y2="239.07690315649822" stroke="#000"/>
<text x="26.000000000000004" y="239.07690315649822" text-anchor="end" font-weight="bold" font-size="small" fill="#111">
4.0
</text>
<line x1="42.0" y1="174.3461289456228" x2="50.0" y2="174.3461289456228" stroke="#000"/>
<text x="26.000000000000004" y="174.3461289456228" text-anchor="end" font-weight="bold" font-size="small" fill="#111">
5.0
</text>
<line x1="42.0" y1="109.61535473474736" x2="50.0" y2="109.61535473474736" stroke="#000"/>
<text x="26.000000000000004" y="109.61535473474736" text-anchor="end" font-weight="bold" font-size="small" fill="#111">
6.0
</text>
<rect x="268.5" y="36.00000000000001" width="80.0" height="18.0" fill="#7070f8" stroke="#888"/>
<text x="308.5" y="52.50000000000001" font-size="small" text-anchor="middle" font-weight="bold" fill="#EEE">
No JIT
</text>
<rect x="691.4999999999999" y="36.00000000000001" width="80.0" height="18.0" fill="orange" stroke="#888"/>
<text x="731.4999999999999" y="52.50000000000001" font-size="small" text-anchor="middle" font-weight="bold" fill="#EEE">
YJIT
</text>
<rect x="97.0" y="433.2692257891245" width="10.846153846153845" height="64.73077421087544" fill="#7070f8" data-tooltip="1.00x baseline speed (No JIT)"/>
<line x1="97.0" y1="433.0534897156402" x2="107.84615384615384" y2="433.0534897156402" stroke="#000"/>
<line x1="97.0" y1="433.4849618626088" x2="107.84615384615384" y2="433.4849618626088" stroke="#000"/>
<line x1="102.42307692307692" y1="433.0534897156402" x2="102.42307692307692" y2="433.4849618626088" stroke="#000"/>
<rect x="107.84615384615384" y="424.6649030374848" width="10.846153846153845" height="73.33509696251517" fill="orange" data-tooltip="1.13x baseline speed (YJIT)"/>
<line x1="107.84615384615384" y1="424.2562994545868" x2="118.69230769230768" y2="424.2562994545868" stroke="#000"/>
<line x1="107.84615384615384" y1="425.07350662038283" x2="118.69230769230768" y2="425.07350662038283" stroke="#000"/>
<line x1="113.26923076923076" y1="424.2562994545868" x2="113.26923076923076" y2="425.07350662038283" stroke="#000"/>
<line x1="113.26923076923077" y1="498.0" x2="113.26923076923077" y2="502.79999999999995" stroke="#000"/>
<text x="113.26923076923077" y="512.4" fill="#111" font-size="small" font-family="monospace" font-weight="bold" text-anchor="end" transform="rotate(-60, 113.26923076923077, 512.4)">
activerecord
</text>
<rect x="129.53846153846155" y="433.2692257891245" width="10.846153846153845" height="64.73077421087544" fill="#7070f8" data-tooltip="1.00x baseline speed (No JIT)"/>
<line x1="129.53846153846155" y1="432.9122288632866" x2="140.3846153846154" y2="432.9122288632866" stroke="#000"/>
<line x1="129.53846153846155" y1="433.6262227149624" x2="140.3846153846154" y2="433.6262227149624" stroke="#000"/>
<line x1="134.96153846153845" y1="432.9122288632866" x2="134.96153846153845" y2="433.6262227149624" stroke="#000"/>
<rect x="140.3846153846154" y="428.9505140402482" width="10.846153846153845" height="69.04948595975168" fill="orange" data-tooltip="1.07x baseline speed (YJIT)"/>
<line x1="140.3846153846154" y1="427.89182833334735" x2="151.23076923076923" y2="427.89182833334735" stroke="#000"/>
<line x1="140.3846153846154" y1="430.00919974714907" x2="151.23076923076923" y2="430.00919974714907" stroke="#000"/>
<line x1="145.8076923076923" y1="427.89182833334735" x2="145.8076923076923" y2="430.00919974714907" stroke="#000"/>
<line x1="145.8076923076923" y1="498.0" x2="145.8076923076923" y2="502.79999999999995" stroke="#000"/>
<text x="145.8076923076923" y="512.4" fill="#111" font-size="small" font-family="monospace" font-weight="bold" text-anchor="end" transform="rotate(-60, 145.8076923076923, 512.4)">
hexapdf
</text>
<rect x="162.07692307692307" y="433.2692257891245" width="10.846153846153845" height="64.73077421087544" fill="#7070f8" data-tooltip="1.00x baseline speed (No JIT)"/>
<line x1="162.07692307692307" y1="432.6582218315822" x2="172.9230769230769" y2="432.6582218315822" stroke="#000"/>
<line x1="162.07692307692307" y1="433.8802297466668" x2="172.9230769230769" y2="433.8802297466668" stroke="#000"/>
<line x1="167.49999999999997" y1="432.6582218315822" x2="167.49999999999997" y2="433.8802297466668" stroke="#000"/>
<rect x="172.9230769230769" y="414.7051155730112" width="10.846153846153845" height="83.2948844269887" fill="orange" data-tooltip="1.29x baseline speed (YJIT)"/>
<line x1="172.9230769230769" y1="413.24967337803633" x2="183.76923076923075" y2="413.24967337803633" stroke="#000"/>
<line x1="172.9230769230769" y1="416.1605577679861" x2="183.76923076923075" y2="416.1605577679861" stroke="#000"/>
<line x1="178.3461538461538" y1="413.24967337803633" x2="178.3461538461538" y2="416.1605577679861" stroke="#000"/>
<line x1="178.3461538461538" y1="498.0" x2="178.3461538461538" y2="502.79999999999995" stroke="#000"/>
<text x="178.3461538461538" y="512.4" fill="#111" font-size="small" font-family="monospace" font-weight="bold" text-anchor="end" transform="rotate(-60, 178.3461538461538, 512.4)">
liquid-render
</text>
<rect x="194.6153846153846" y="433.2692257891245" width="10.846153846153845" height="64.73077421087544" fill="#7070f8" data-tooltip="1.00x baseline speed (No JIT)"/>
<line x1="194.6153846153846" y1="432.8098560839301" x2="205.46153846153845" y2="432.8098560839301" stroke="#000"/>
<line x1="194.6153846153846" y1="433.7285954943189" x2="205.46153846153845" y2="433.7285954943189" stroke="#000"/>
<line x1="200.03846153846152" y1="432.8098560839301" x2="200.03846153846152" y2="433.7285954943189" stroke="#000"/>
<rect x="205.46153846153845" y="447.2965773829264" width="10.846153846153845" height="50.70342261707353" fill="orange" data-tooltip="0.78x baseline speed (YJIT)"/>
<line x1="205.46153846153845" y1="446.9316946120211" x2="216.3076923076923" y2="446.9316946120211" stroke="#000"/>
<line x1="205.46153846153845" y1="447.6614601538317" x2="216.3076923076923" y2="447.6614601538317" stroke="#000"/>
<line x1="210.88461538461536" y1="446.9316946120211" x2="210.88461538461536" y2="447.6614601538317" stroke="#000"/>
<line x1="210.88461538461536" y1="498.0" x2="210.88461538461536" y2="502.79999999999995" stroke="#000"/>
<text x="210.88461538461536" y="512.4" fill="#111" font-size="small" font-family="monospace" font-weight="bold" text-anchor="end" transform="rotate(-60, 210.88461538461536, 512.4)">
mail
</text>
<rect x="227.15384615384616" y="433.2692257891245" width="10.846153846153845" height="64.73077421087544" fill="#7070f8" data-tooltip="1.00x baseline speed (No JIT)"/>
<line x1="227.15384615384616" y1="433.2061757737007" x2="238.0" y2="433.2061757737007" stroke="#000"/>
<line x1="227.15384615384616" y1="433.3322758045483" x2="238.0" y2="433.3322758045483" stroke="#000"/>
<line x1="232.57692307692307" y1="433.2061757737007" x2="232.57692307692307" y2="433.3322758045483" stroke="#000"/>
<rect x="238.0" y="419.3574927743167" width="10.846153846153845" height="78.64250722568316" fill="orange" data-tooltip="1.21x baseline speed (YJIT)"/>
<line x1="238.0" y1="419.2726004848484" x2="248.84615384615384" y2="419.2726004848484" stroke="#000"/>
<line x1="238.0" y1="419.442385063785" x2="248.84615384615384" y2="419.442385063785" stroke="#000"/>
<line x1="243.4230769230769" y1="419.2726004848484" x2="243.4230769230769" y2="419.442385063785" stroke="#000"/>
<line x1="243.4230769230769" y1="498.0" x2="243.4230769230769" y2="502.79999999999995" stroke="#000"/>
<text x="243.4230769230769" y="512.4" fill="#111" font-size="small" font-family="monospace" font-weight="bold" text-anchor="end" transform="rotate(-60, 243.4230769230769, 512.4)">
psych-load
</text>
<rect x="259.6923076923077" y="433.2692257891245" width="10.846153846153845" height="64.73077421087544" fill="#7070f8" data-tooltip="1.00x baseline speed (No JIT)"/>
<line x1="259.6923076923077" y1="432.84616553420915" x2="270.5384615384615" y2="432.84616553420915" stroke="#000"/>
<line x1="259.6923076923077" y1="433.69228604403986" x2="270.5384615384615" y2="433.69228604403986" stroke="#000"/>
<line x1="265.1153846153846" y1="432.84616553420915" x2="265.1153846153846" y2="433.69228604403986" stroke="#000"/>
<rect x="270.5384615384615" y="421.3714078832989" width="10.846153846153845" height="76.6285921167011" fill="orange" data-tooltip="1.18x baseline speed (YJIT)"/>
<line x1="270.5384615384615" y1="419.48261026098487" x2="281.38461538461536" y2="419.48261026098487" stroke="#000"/>
<line x1="270.5384615384615" y1="423.26020550561293" x2="281.38461538461536" y2="423.26020550561293" stroke="#000"/>
<line x1="275.96153846153845" y1="419.48261026098487" x2="275.96153846153845" y2="423.26020550561293" stroke="#000"/>
<line x1="275.96153846153845" y1="498.0" x2="275.96153846153845" y2="502.79999999999995" stroke="#000"/>
<text x="275.96153846153845" y="512.4" fill="#111" font-size="small" font-family="monospace" font-weight="bold" text-anchor="end" transform="rotate(-60, 275.96153846153845, 512.4)">
railsbench
</text>
<rect x="292.23076923076917" y="433.2692257891245" width="10.846153846153845" height="64.73077421087544" fill="#7070f8" data-tooltip="1.00x baseline speed (No JIT)"/>
<line x1="292.23076923076917" y1="427.09047588280555" x2="303.07692307692304" y2="427.09047588280555" stroke="#000"/>
<line x1="292.23076923076917" y1="439.44797569544346" x2="303.07692307692304" y2="439.44797569544346" stroke="#000"/>
<line x1="297.6538461538461" y1="427.09047588280555" x2="297.6538461538461" y2="439.44797569544346" stroke="#000"/>
<rect x="303.07692307692304" y="428.1729796291937" width="10.846153846153845" height="69.82702037080624" fill="orange" data-tooltip="1.08x baseline speed (YJIT)"/>
<line x1="303.07692307692304" y1="418.8521977556654" x2="313.92307692307685" y2="418.8521977556654" stroke="#000"/>
<line x1="303.07692307692304" y1="437.49376150272207" x2="313.92307692307685" y2="437.49376150272207" stroke="#000"/>
<line x1="308.49999999999994" y1="418.8521977556654" x2="308.49999999999994" y2="437.49376150272207" stroke="#000"/>
<line x1="308.49999999999994" y1="498.0" x2="308.49999999999994" y2="502.79999999999995" stroke="#000"/>
<text x="308.49999999999994" y="512.4" fill="#111" font-size="small" font-family="monospace" font-weight="bold" text-anchor="end" transform="rotate(-60, 308.49999999999994, 512.4)">
ruby-lsp
</text>
<rect x="324.7692307692308" y="433.2692257891245" width="10.846153846153845" height="64.73077421087544" fill="#7070f8" data-tooltip="1.00x baseline speed (No JIT)"/>
<line x1="324.7692307692308" y1="431.980676929973" x2="335.6153846153846" y2="431.980676929973" stroke="#000"/>
<line x1="324.7692307692308" y1="434.557774648276" x2="335.6153846153846" y2="434.557774648276" stroke="#000"/>
<line x1="330.1923076923077" y1="431.980676929973" x2="330.1923076923077" y2="434.557774648276" stroke="#000"/>
<rect x="335.6153846153846" y="393.59606509258754" width="10.846153846153845" height="104.4039349074124" fill="orange" data-tooltip="1.61x baseline speed (YJIT)"/>
<line x1="335.6153846153846" y1="391.51348543640114" x2="346.46153846153845" y2="391.51348543640114" stroke="#000"/>
<line x1="335.6153846153846" y1="395.6786447487739" x2="346.46153846153845" y2="395.6786447487739" stroke="#000"/>
<line x1="341.0384615384615" y1="391.51348543640114" x2="341.0384615384615" y2="395.6786447487739" stroke="#000"/>
<line x1="341.0384615384615" y1="498.0" x2="341.0384615384615" y2="502.79999999999995" stroke="#000"/>
<text x="341.0384615384615" y="512.4" fill="#111" font-size="small" font-family="monospace" font-weight="bold" text-anchor="end" transform="rotate(-60, 341.0384615384615, 512.4)">
binarytrees
</text>
<rect x="357.3076923076923" y="433.2692257891245" width="10.846153846153845" height="64.73077421087544" fill="#7070f8" data-tooltip="1.00x baseline speed (No JIT)"/>
<line x1="357.3076923076923" y1="433.0680874404585" x2="368.1538461538462" y2="433.0680874404585" stroke="#000"/>
<line x1="357.3076923076923" y1="433.47036413779045" x2="368.1538461538462" y2="433.47036413779045" stroke="#000"/>
<line x1="362.7307692307692" y1="433.0680874404585" x2="362.7307692307692" y2="433.47036413779045" stroke="#000"/>
<rect x="368.1538461538462" y="403.8965577401791" width="10.846153846153845" height="94.10344225982078" fill="orange" data-tooltip="1.45x baseline speed (YJIT)"/>
<line x1="368.1538461538462" y1="403.5927648934798" x2="379.0" y2="403.5927648934798" stroke="#000"/>
<line x1="368.1538461538462" y1="404.20035058687836" x2="379.0" y2="404.20035058687836" stroke="#000"/>
<line x1="373.5769230769231" y1="403.5927648934798" x2="373.5769230769231" y2="404.20035058687836" stroke="#000"/>
<line x1="373.5769230769231" y1="498.0" x2="373.5769230769231" y2="502.79999999999995" stroke="#000"/>
<text x="373.5769230769231" y="512.4" fill="#111" font-size="small" font-family="monospace" font-weight="bold" text-anchor="end" transform="rotate(-60, 373.5769230769231, 512.4)">
chunky_png
</text>
<rect x="389.84615384615387" y="433.2692257891245" width="10.846153846153845" height="64.73077421087544" fill="#7070f8" data-tooltip="1.00x baseline speed (No JIT)"/>
<line x1="389.84615384615387" y1="432.58038454397183" x2="400.6923076923077" y2="432.58038454397183" stroke="#000"/>
<line x1="389.84615384615387" y1="433.9580670342772" x2="400.6923076923077" y2="433.9580670342772" stroke="#000"/>
<line x1="395.2692307692308" y1="432.58038454397183" x2="395.2692307692308" y2="433.9580670342772" stroke="#000"/>
<rect x="400.6923076923077" y="425.74753879415215" width="10.846153846153845" height="72.25246120584778" fill="orange" data-tooltip="1.12x baseline speed (YJIT)"/>
<line x1="400.6923076923077" y1="424.3819912635151" x2="411.53846153846155" y2="424.3819912635151" stroke="#000"/>
<line x1="400.6923076923077" y1="427.1130863247892" x2="411.53846153846155" y2="427.1130863247892" stroke="#000"/>
<line x1="406.1153846153846" y1="424.3819912635151" x2="406.1153846153846" y2="427.1130863247892" stroke="#000"/>
<line x1="406.1153846153846" y1="498.0" x2="406.1153846153846" y2="502.79999999999995" stroke="#000"/>
<text x="406.1153846153846" y="512.4" fill="#111" font-size="small" font-family="monospace" font-weight="bold" text-anchor="end" transform="rotate(-60, 406.1153846153846, 512.4)">
erubi
</text>
<rect x="422.38461538461536" y="433.2692257891245" width="10.846153846153845" height="64.73077421087544" fill="#7070f8" data-tooltip="1.00x baseline speed (No JIT)"/>
<line x1="422.38461538461536" y1="431.8898883548236" x2="433.23076923076917" y2="431.8898883548236" stroke="#000"/>
<line x1="422.38461538461536" y1="434.64856322342536" x2="433.23076923076917" y2="434.64856322342536" stroke="#000"/>
<line x1="427.80769230769226" y1="431.8898883548236" x2="427.80769230769226" y2="434.64856322342536" stroke="#000"/>
<rect x="433.23076923076917" y="422.66919032771557" width="10.846153846153845" height="75.33080967228435" fill="orange" data-tooltip="1.16x baseline speed (YJIT)"/>
<line x1="433.23076923076917" y1="420.3052647239053" x2="444.07692307692304" y2="420.3052647239053" stroke="#000"/>
<line x1="433.23076923076917" y1="425.0331159315259" x2="444.07692307692304" y2="425.0331159315259" stroke="#000"/>
<line x1="438.65384615384613" y1="420.3052647239053" x2="438.65384615384613" y2="425.0331159315259" stroke="#000"/>
<line x1="438.65384615384613" y1="498.0" x2="438.65384615384613" y2="502.79999999999995" stroke="#000"/>
<text x="438.65384615384613" y="512.4" fill="#111" font-size="small" font-family="monospace" font-weight="bold" text-anchor="end" transform="rotate(-60, 438.65384615384613, 512.4)">
erubi_rails
</text>
<rect x="454.92307692307685" y="433.2692257891245" width="10.846153846153845" height="64.73077421087544" fill="#7070f8" data-tooltip="1.00x baseline speed (No JIT)"/>
<line x1="454.92307692307685" y1="432.9337796816389" x2="465.7692307692307" y2="432.9337796816389" stroke="#000"/>
<line x1="454.92307692307685" y1="433.6046718966101" x2="465.7692307692307" y2="433.6046718966101" stroke="#000"/>
<line x1="460.3461538461538" y1="432.9337796816389" x2="460.3461538461538" y2="433.6046718966101" stroke="#000"/>
<rect x="465.7692307692307" y="433.65132526674154" width="10.846153846153845" height="64.34867473325835" fill="orange" data-tooltip="0.99x baseline speed (YJIT)"/>
<line x1="465.7692307692307" y1="433.14712780458115" x2="476.6153846153845" y2="433.14712780458115" stroke="#000"/>
<line x1="465.7692307692307" y1="434.15552272890193" x2="476.6153846153845" y2="434.15552272890193" stroke="#000"/>
<line x1="471.1923076923076" y1="433.14712780458115" x2="471.1923076923076" y2="434.15552272890193" stroke="#000"/>
<line x1="471.1923076923076" y1="498.0" x2="471.1923076923076" y2="502.79999999999995" stroke="#000"/>
<text x="471.1923076923076" y="512.4" fill="#111" font-size="small" font-family="monospace" font-weight="bold" text-anchor="end" transform="rotate(-60, 471.1923076923076, 512.4)">
etanni
</text>
<rect x="487.4615384615384" y="433.2692257891245" width="10.846153846153845" height="64.73077421087544" fill="#7070f8" data-tooltip="1.00x baseline speed (No JIT)"/>
<line x1="487.4615384615384" y1="433.0008381884259" x2="498.3076923076922" y2="433.0008381884259" stroke="#000"/>
<line x1="487.4615384615384" y1="433.53761338982304" x2="498.3076923076922" y2="433.53761338982304" stroke="#000"/>
<line x1="492.8846153846153" y1="433.0008381884259" x2="492.8846153846153" y2="433.53761338982304" stroke="#000"/>
<rect x="498.3076923076922" y="345.21934449425095" width="10.846153846153845" height="152.780655505749" fill="orange" data-tooltip="2.36x baseline speed (YJIT)"/>
<line x1="498.3076923076922" y1="344.5797578069737" x2="509.1538461538461" y2="344.5797578069737" stroke="#000"/>
<line x1="498.3076923076922" y1="345.85893118152813" x2="509.1538461538461" y2="345.85893118152813" stroke="#000"/>
<line x1="503.7307692307692" y1="344.5797578069737" x2="503.7307692307692" y2="345.85893118152813" stroke="#000"/>
<line x1="503.7307692307692" y1="498.0" x2="503.7307692307692" y2="502.79999999999995" stroke="#000"/>
<text x="503.7307692307692" y="512.4" fill="#111" font-size="small" font-family="monospace" font-weight="bold" text-anchor="end" transform="rotate(-60, 503.7307692307692, 512.4)">
fannkuchredux
</text>
<rect x="520.0" y="433.2692257891245" width="10.846153846153845" height="64.73077421087544" fill="#7070f8" data-tooltip="1.00x baseline speed (No JIT)"/>
<line x1="520.0" y1="433.1449521326" x2="530.8461538461538" y2="433.1449521326" stroke="#000"/>
<line x1="520.0" y1="433.393499445649" x2="530.8461538461538" y2="433.393499445649" stroke="#000"/>
<line x1="525.423076923077" y1="433.1449521326" x2="525.423076923077" y2="433.393499445649" stroke="#000"/>
<rect x="530.8461538461538" y="414.3636904852304" width="10.846153846153845" height="83.63630951476947" fill="orange" data-tooltip="1.29x baseline speed (YJIT)"/>
<line x1="530.8461538461538" y1="413.38757133249015" x2="541.6923076923077" y2="413.38757133249015" stroke="#000"/>
<line x1="530.8461538461538" y1="415.3398096379707" x2="541.6923076923077" y2="415.3398096379707" stroke="#000"/>
<line x1="536.2692307692308" y1="413.38757133249015" x2="536.2692307692308" y2="415.3398096379707" stroke="#000"/>
<line x1="536.2692307692308" y1="498.0" x2="536.2692307692308" y2="502.79999999999995" stroke="#000"/>
<text x="536.2692307692308" y="512.4" fill="#111" font-size="small" font-family="monospace" font-weight="bold" text-anchor="end" transform="rotate(-60, 536.2692307692308, 512.4)">
lee
</text>
<rect x="552.5384615384615" y="433.2692257891245" width="10.846153846153845" height="64.73077421087544" fill="#7070f8" data-tooltip="1.00x baseline speed (No JIT)"/>
<line x1="552.5384615384615" y1="432.32449350447865" x2="563.3846153846154" y2="432.32449350447865" stroke="#000"/>
<line x1="552.5384615384615" y1="434.21395807377036" x2="563.3846153846154" y2="434.21395807377036" stroke="#000"/>
<line x1="557.9615384615385" y1="432.32449350447865" x2="557.9615384615385" y2="434.21395807377036" stroke="#000"/>
<rect x="563.3846153846154" y="411.8511592196904" width="10.846153846153845" height="86.14884078030951" fill="orange" data-tooltip="1.33x baseline speed (YJIT)"/>
<line x1="563.3846153846154" y1="410.59196347909676" x2="574.2307692307692" y2="410.59196347909676" stroke="#000"/>
<line x1="563.3846153846154" y1="413.110354960284" x2="574.2307692307692" y2="413.110354960284" stroke="#000"/>
<line x1="568.8076923076924" y1="410.59196347909676" x2="568.8076923076924" y2="413.110354960284" stroke="#000"/>
<line x1="568.8076923076924" y1="498.0" x2="568.8076923076924" y2="502.79999999999995" stroke="#000"/>
<text x="568.8076923076924" y="512.4" fill="#111" font-size="small" font-family="monospace" font-weight="bold" text-anchor="end" transform="rotate(-60, 568.8076923076924, 512.4)">
nbody
</text>
<rect x="585.0769230769231" y="433.2692257891245" width="10.846153846153845" height="64.73077421087544" fill="#7070f8" data-tooltip="1.00x baseline speed (No JIT)"/>
<line x1="585.0769230769231" y1="432.9957787037817" x2="595.9230769230769" y2="432.9957787037817" stroke="#000"/>
<line x1="585.0769230769231" y1="433.5426728744673" x2="595.9230769230769" y2="433.5426728744673" stroke="#000"/>
<line x1="590.5" y1="432.9957787037817" x2="590.5" y2="433.5426728744673" stroke="#000"/>
<rect x="595.9230769230769" y="427.8786740051862" width="10.846153846153845" height="70.12132599481374" fill="orange" data-tooltip="1.08x baseline speed (YJIT)"/>
<line x1="595.9230769230769" y1="427.46164489914287" x2="606.7692307692307" y2="427.46164489914287" stroke="#000"/>
<line x1="595.9230769230769" y1="428.2957031112296" x2="606.7692307692307" y2="428.2957031112296" stroke="#000"/>
<line x1="601.3461538461538" y1="427.46164489914287" x2="601.3461538461538" y2="428.2957031112296" stroke="#000"/>
<line x1="601.3461538461538" y1="498.0" x2="601.3461538461538" y2="502.79999999999995" stroke="#000"/>
<text x="601.3461538461538" y="512.4" fill="#111" font-size="small" font-family="monospace" font-weight="bold" text-anchor="end" transform="rotate(-60, 601.3461538461538, 512.4)">
optcarrot
</text>
<rect x="617.6153846153845" y="433.2692257891245" width="10.846153846153845" height="64.73077421087544" fill="#7070f8" data-tooltip="1.00x baseline speed (No JIT)"/>
<line x1="617.6153846153845" y1="432.953067823803" x2="628.4615384615385" y2="432.953067823803" stroke="#000"/>
<line x1="617.6153846153845" y1="433.585383754446" x2="628.4615384615385" y2="433.585383754446" stroke="#000"/>
<line x1="623.0384615384615" y1="432.953067823803" x2="623.0384615384615" y2="433.585383754446" stroke="#000"/>
<rect x="628.4615384615385" y="410.9372123961668" width="10.846153846153845" height="87.0627876038332" fill="orange" data-tooltip="1.34x baseline speed (YJIT)"/>
<line x1="628.4615384615385" y1="410.397367922907" x2="639.3076923076923" y2="410.397367922907" stroke="#000"/>
<line x1="628.4615384615385" y1="411.4770568694266" x2="639.3076923076923" y2="411.4770568694266" stroke="#000"/>
<line x1="633.8846153846154" y1="410.397367922907" x2="633.8846153846154" y2="411.4770568694266" stroke="#000"/>
<line x1="633.8846153846154" y1="498.0" x2="633.8846153846154" y2="502.79999999999995" stroke="#000"/>
<text x="633.8846153846154" y="512.4" fill="#111" font-size="small" font-family="monospace" font-weight="bold" text-anchor="end" transform="rotate(-60, 633.8846153846154, 512.4)">
rubykon
</text>
<rect x="650.1538461538461" y="433.2692257891245" width="10.846153846153845" height="64.73077421087544" fill="#7070f8" data-tooltip="1.00x baseline speed (No JIT)"/>
<line x1="650.1538461538461" y1="433.18810763453126" x2="660.9999999999999" y2="433.18810763453126" stroke="#000"/>
<line x1="650.1538461538461" y1="433.35034394371775" x2="660.9999999999999" y2="433.35034394371775" stroke="#000"/>
<line x1="655.5769230769231" y1="433.18810763453126" x2="655.5769230769231" y2="433.35034394371775" stroke="#000"/>
<rect x="660.9999999999999" y="309.4325261205474" width="10.846153846153845" height="188.56747387945262" fill="orange" data-tooltip="2.91x baseline speed (YJIT)"/>
<line x1="660.9999999999999" y1="309.18563286044" x2="671.8461538461538" y2="309.18563286044" stroke="#000"/>
<line x1="660.9999999999999" y1="309.67941938065474" x2="671.8461538461538" y2="309.67941938065474" stroke="#000"/>
<line x1="666.4230769230769" y1="309.18563286044" x2="666.4230769230769" y2="309.67941938065474" stroke="#000"/>
<line x1="666.4230769230769" y1="498.0" x2="666.4230769230769" y2="502.79999999999995" stroke="#000"/>
<text x="666.4230769230769" y="512.4" fill="#111" font-size="small" font-family="monospace" font-weight="bold" text-anchor="end" transform="rotate(-60, 666.4230769230769, 512.4)">
30k_ifelse
</text>
<rect x="682.6923076923076" y="433.2692257891245" width="10.846153846153845" height="64.73077421087544" fill="#7070f8" data-tooltip="1.00x baseline speed (No JIT)"/>
<line x1="682.6923076923076" y1="433.1951069920601" x2="693.5384615384614" y2="433.1951069920601" stroke="#000"/>
<line x1="682.6923076923076" y1="433.3433445861889" x2="693.5384615384614" y2="433.3433445861889" stroke="#000"/>
<line x1="688.1153846153845" y1="433.1951069920601" x2="688.1153846153845" y2="433.3433445861889" stroke="#000"/>
<rect x="693.5384615384614" y="278.1306947459409" width="10.846153846153845" height="219.86930525405904" fill="orange" data-tooltip="3.40x baseline speed (YJIT)"/>
<line x1="693.5384615384614" y1="274.9054210095098" x2="704.3846153846152" y2="274.9054210095098" stroke="#000"/>
<line x1="693.5384615384614" y1="281.35596848237196" x2="704.3846153846152" y2="281.35596848237196" stroke="#000"/>
<line x1="698.9615384615385" y1="274.9054210095098" x2="698.9615384615385" y2="281.35596848237196" stroke="#000"/>
<line x1="698.9615384615385" y1="498.0" x2="698.9615384615385" y2="502.79999999999995" stroke="#000"/>
<text x="698.9615384615385" y="512.4" fill="#111" font-size="small" font-family="monospace" font-weight="bold" text-anchor="end" transform="rotate(-60, 698.9615384615385, 512.4)">
30k_methods
</text>
<rect x="715.2307692307692" y="433.2692257891245" width="10.846153846153845" height="64.73077421087544" fill="#7070f8" data-tooltip="1.00x baseline speed (No JIT)"/>
<line x1="715.2307692307692" y1="433.2338481666537" x2="726.0769230769231" y2="433.2338481666537" stroke="#000"/>
<line x1="715.2307692307692" y1="433.30460341159534" x2="726.0769230769231" y2="433.30460341159534" stroke="#000"/>
<line x1="720.6538461538462" y1="433.2338481666537" x2="720.6538461538462" y2="433.30460341159534" stroke="#000"/>
<rect x="726.0769230769231" y="351.5892902838303" width="10.846153846153845" height="146.41070971616963" fill="orange" data-tooltip="2.26x baseline speed (YJIT)"/>
<line x1="726.0769230769231" y1="351.4824822184303" x2="736.9230769230769" y2="351.4824822184303" stroke="#000"/>
<line x1="726.0769230769231" y1="351.6960983492303" x2="736.9230769230769" y2="351.6960983492303" stroke="#000"/>
<line x1="731.5" y1="351.4824822184303" x2="731.5" y2="351.6960983492303" stroke="#000"/>
<line x1="731.5" y1="498.0" x2="731.5" y2="502.79999999999995" stroke="#000"/>
<text x="731.5" y="512.4" fill="#111" font-size="small" font-family="monospace" font-weight="bold" text-anchor="end" transform="rotate(-60, 731.5, 512.4)">
cfunc_itself
</text>
<rect x="747.7692307692307" y="433.2692257891245" width="10.846153846153845" height="64.73077421087544" fill="#7070f8" data-tooltip="1.00x baseline speed (No JIT)"/>
<line x1="747.7692307692307" y1="431.7428830680788" x2="758.6153846153845" y2="431.7428830680788" stroke="#000"/>
<line x1="747.7692307692307" y1="434.7955685101702" x2="758.6153846153845" y2="434.7955685101702" stroke="#000"/>
<line x1="753.1923076923077" y1="431.7428830680788" x2="753.1923076923077" y2="434.7955685101702" stroke="#000"/>
<rect x="758.6153846153845" y="347.2475196758781" width="10.846153846153845" height="150.75248032412185" fill="orange" data-tooltip="2.33x baseline speed (YJIT)"/>
<line x1="758.6153846153845" y1="343.69278823987315" x2="769.4615384615385" y2="343.69278823987315" stroke="#000"/>
<line x1="758.6153846153845" y1="350.80225111188304" x2="769.4615384615385" y2="350.80225111188304" stroke="#000"/>
<line x1="764.0384615384615" y1="343.69278823987315" x2="764.0384615384615" y2="350.80225111188304" stroke="#000"/>
<line x1="764.0384615384615" y1="498.0" x2="764.0384615384615" y2="502.79999999999995" stroke="#000"/>
<text x="764.0384615384615" y="512.4" fill="#111" font-size="small" font-family="monospace" font-weight="bold" text-anchor="end" transform="rotate(-60, 764.0384615384615, 512.4)">
fib
</text>
<rect x="780.3076923076923" y="433.2692257891245" width="10.846153846153845" height="64.73077421087544" fill="#7070f8" data-tooltip="1.00x baseline speed (No JIT)"/>
<line x1="780.3076923076923" y1="432.4861414223413" x2="791.1538461538461" y2="432.4861414223413" stroke="#000"/>
<line x1="780.3076923076923" y1="434.0523101559077" x2="791.1538461538461" y2="434.0523101559077" stroke="#000"/>
<line x1="785.7307692307693" y1="432.4861414223413" x2="785.7307692307693" y2="434.0523101559077" stroke="#000"/>
<rect x="791.1538461538461" y="362.0277307108822" width="10.846153846153845" height="135.9722692891177" fill="orange" data-tooltip="2.10x baseline speed (YJIT)"/>
<line x1="791.1538461538461" y1="360.38276319297836" x2="801.9999999999999" y2="360.38276319297836" stroke="#000"/>
<line x1="791.1538461538461" y1="363.67269822878603" x2="801.9999999999999" y2="363.67269822878603" stroke="#000"/>
<line x1="796.5769230769231" y1="360.38276319297836" x2="796.5769230769231" y2="363.67269822878603" stroke="#000"/>
<line x1="796.5769230769231" y1="498.0" x2="796.5769230769231" y2="502.79999999999995" stroke="#000"/>
<text x="796.5769230769231" y="512.4" fill="#111" font-size="small" font-family="monospace" font-weight="bold" text-anchor="end" transform="rotate(-60, 796.5769230769231, 512.4)">
getivar
</text>
<rect x="812.8461538461538" y="433.2692257891245" width="10.846153846153845" height="64.73077421087544" fill="#7070f8" data-tooltip="1.00x baseline speed (No JIT)"/>
<line x1="812.8461538461538" y1="433.18899264316246" x2="823.6923076923076" y2="433.18899264316246" stroke="#000"/>
<line x1="812.8461538461538" y1="433.34945893508655" x2="823.6923076923076" y2="433.34945893508655" stroke="#000"/>
<line x1="818.2692307692307" y1="433.18899264316246" x2="818.2692307692307" y2="433.34945893508655" stroke="#000"/>
<rect x="823.6923076923076" y="206.03235160581178" width="10.846153846153845" height="291.9676483941882" fill="orange" data-tooltip="4.51x baseline speed (YJIT)"/>
<line x1="823.6923076923076" y1="205.65249191790573" x2="834.5384615384614" y2="205.65249191790573" stroke="#000"/>
<line x1="823.6923076923076" y1="206.41221129371783" x2="834.5384615384614" y2="206.41221129371783" stroke="#000"/>
<line x1="829.1153846153846" y1="205.65249191790573" x2="829.1153846153846" y2="206.41221129371783" stroke="#000"/>
<line x1="829.1153846153846" y1="498.0" x2="829.1153846153846" y2="502.79999999999995" stroke="#000"/>
<text x="829.1153846153846" y="512.4" fill="#111" font-size="small" font-family="monospace" font-weight="bold" text-anchor="end" transform="rotate(-60, 829.1153846153846, 512.4)">
keyword_args
</text>
<rect x="845.3846153846152" y="433.2692257891245" width="10.846153846153845" height="64.73077421087544" fill="#7070f8" data-tooltip="1.00x baseline speed (No JIT)"/>
<line x1="845.3846153846152" y1="432.6688826367069" x2="856.2307692307692" y2="432.6688826367069" stroke="#000"/>
<line x1="845.3846153846152" y1="433.8695689415421" x2="856.2307692307692" y2="433.8695689415421" stroke="#000"/>
<line x1="850.8076923076923" y1="432.6688826367069" x2="850.8076923076923" y2="433.8695689415421" stroke="#000"/>
<rect x="856.2307692307692" y="100.19999999999999" width="10.846153846153845" height="397.79999999999995" fill="orange" data-tooltip="6.15x baseline speed (YJIT)"/>
<line x1="856.2307692307692" y1="96.484127358705" x2="867.076923076923" y2="96.484127358705" stroke="#000"/>
<line x1="856.2307692307692" y1="103.91587264129498" x2="867.076923076923" y2="103.91587264129498" stroke="#000"/>
<line x1="861.6538461538461" y1="96.484127358705" x2="861.6538461538461" y2="103.91587264129498" stroke="#000"/>
<line x1="861.6538461538461" y1="498.0" x2="861.6538461538461" y2="502.79999999999995" stroke="#000"/>
<text x="861.6538461538461" y="512.4" fill="#111" font-size="small" font-family="monospace" font-weight="bold" text-anchor="end" transform="rotate(-60, 861.6538461538461, 512.4)">
respond_to
</text>
<rect x="877.9230769230768" y="433.2692257891245" width="10.846153846153845" height="64.73077421087544" fill="#7070f8" data-tooltip="1.00x baseline speed (No JIT)"/>
<line x1="877.9230769230768" y1="432.9535035483024" x2="888.7692307692306" y2="432.9535035483024" stroke="#000"/>
<line x1="877.9230769230768" y1="433.5849480299466" x2="888.7692307692306" y2="433.5849480299466" stroke="#000"/>
<line x1="883.3461538461538" y1="432.9535035483024" x2="883.3461538461538" y2="433.5849480299466" stroke="#000"/>
<rect x="888.7692307692306" y="395.15799460465576" width="10.846153846153845" height="102.8420053953442" fill="orange" data-tooltip="1.59x baseline speed (YJIT)"/>
<line x1="888.7692307692306" y1="394.65626936788595" x2="899.6153846153845" y2="394.65626936788595" stroke="#000"/>
<line x1="888.7692307692306" y1="395.6597198414255" x2="899.6153846153845" y2="395.6597198414255" stroke="#000"/>
<line x1="894.1923076923076" y1="394.65626936788595" x2="894.1923076923076" y2="395.6597198414255" stroke="#000"/>
<line x1="894.1923076923076" y1="498.0" x2="894.1923076923076" y2="502.79999999999995" stroke="#000"/>
<text x="894.1923076923076" y="512.4" fill="#111" font-size="small" font-family="monospace" font-weight="bold" text-anchor="end" transform="rotate(-60, 894.1923076923076, 512.4)">
setivar
</text>
<rect x="910.4615384615385" y="433.2692257891245" width="10.846153846153845" height="64.73077421087544" fill="#7070f8" data-tooltip="1.00x baseline speed (No JIT)"/>
<line x1="910.4615384615385" y1="432.8294722086278" x2="921.3076923076923" y2="432.8294722086278" stroke="#000"/>
<line x1="910.4615384615385" y1="433.7089793696212" x2="921.3076923076923" y2="433.7089793696212" stroke="#000"/>
<line x1="915.8846153846154" y1="432.8294722086278" x2="915.8846153846154" y2="433.7089793696212" stroke="#000"/>
<rect x="921.3076923076923" y="404.61335887774686" width="10.846153846153845" height="93.38664112225304" fill="orange" data-tooltip="1.44x baseline speed (YJIT)"/>
<line x1="921.3076923076923" y1="403.6728752149973" x2="932.1538461538461" y2="403.6728752149973" stroke="#000"/>
<line x1="921.3076923076923" y1="405.5538425404964" x2="932.1538461538461" y2="405.5538425404964" stroke="#000"/>
<line x1="926.7307692307693" y1="403.6728752149973" x2="926.7307692307693" y2="405.5538425404964" stroke="#000"/>
<line x1="926.7307692307693" y1="498.0" x2="926.7307692307693" y2="502.79999999999995" stroke="#000"/>
<text x="926.7307692307693" y="512.4" fill="#111" font-size="small" font-family="monospace" font-weight="bold" text-anchor="end" transform="rotate(-60, 926.7307692307693, 512.4)">
str_concat
</text>
</svg>