<svg viewBox="0 0 1000 600" xmlns="http://www.w3.org/2000/svg" xmlns:xlink="http://www.w3.org/1999/xlink" width="100%" height="100%">

<rect x="50.0" y="30.0" width="940.0" height="467.99999999999994" stroke="#000" fill="#EEE"/>
<line x1="42.0" y1="497.9999999999999" x2="50.0" y2="497.9999999999999" stroke="#000"/>
<text x="26.000000000000004" y="497.9999999999999" text-anchor="end" font-weight="bold" font-size="small" fill="#111">
0.0
</text>
<line x1="42.0" y1="411.6826949860885" x2="50.0" y2="411.6826949860885" stroke="#000"/>
<text x="26.000000000000004" y="411.6826949860885" text-anchor="end" font-weight="bold" font-size="small" fill="#111">
2.0
</text>
<line x1="42.0" y1="325.365389972177" x2="50.0" y2="325.365389972177" stroke="#000"/>
<text x="26.000000000000004" y="325.365389972177" text-anchor="end" font-weight="bold" font-size="small" fill="#111">
4.0
</text>
<line x1="42.0" y1="239.04808495826546" x2="50.0" y2="239.04808495826546" stroke="#000"/>
<text x="26.000000000000004" y="239.04808495826546" text-anchor="end" font-weight="bold" font-size="small" fill="#111">
6.0
</text>
<line x1="42.0" y1="152.73077994435397" x2="50.0" y2="152.73077994435397" stroke="#000"/>
<text x="26.000000000000004" y="152.73077994435397" text-anchor="end" font-weight="bold" font-size="small" fill="#111">
8.0
</text>
<rect x="268.5" y="36.00000000000001" width="80.0" height="18.0" fill="#7070f8" stroke="#888"/>
<text x="308.5" y="52.50000000000001" font-size="small" text-anchor="middle" font-weight="bold" fill="#EEE">
No JIT
</text>
<rect x="691.4999999999999" y="36.00000000000001" width="80.0" height="18.0" fill="orange" stroke="#888"/>
<text x="731.4999999999999" y="52.50000000000001" font-size="small" text-anchor="middle" font-weight="bold" fill="#EEE">
YJIT
</text>
<rect x="97.0" y="454.8413474930442" width="8.545454545454545" height="43.15865250695575" fill="#7070f8" data-tooltip="1.00x baseline speed (No JIT)"/>
<line x1="97.0" y1="454.76955902223" x2="105.54545454545455" y2="454.76955902223" stroke="#000"/>
<line x1="97.0" y1="454.91313596385845" x2="105.54545454545455" y2="454.91313596385845" stroke="#000"/>
<line x1="101.27272727272728" y1="454.76955902223" x2="101.27272727272728" y2="454.91313596385845" stroke="#000"/>
<rect x="105.54545454545455" y="438.38608298230275" width="8.545454545454545" height="59.61391701769717" fill="orange" data-tooltip="1.38x baseline speed (YJIT)"/>
<line x1="105.54545454545455" y1="438.2131986113859" x2="114.09090909090911" y2="438.2131986113859" stroke="#000"/>
<line x1="105.54545454545455" y1="438.5589673532196" x2="114.09090909090911" y2="438.5589673532196" stroke="#000"/>
<line x1="109.81818181818183" y1="438.2131986113859" x2="109.81818181818183" y2="438.5589673532196" stroke="#000"/>
<line x1="109.81818181818181" y1="498.0" x2="109.81818181818181" y2="502.79999999999995" stroke="#000"/>
<text x="109.81818181818181" y="512.4" fill="#111" font-size="small" font-family="monospace" font-weight="bold" text-anchor="end" transform="rotate(-60, 109.81818181818181, 512.4)">
activerecord
</text>
<rect x="122.63636363636364" y="454.8413474930442" width="8.545454545454545" height="43.15865250695575" fill="#7070f8" data-tooltip="1.00x baseline speed (No JIT)"/>
<line x1="122.63636363636364" y1="454.0865211597205" x2="131.1818181818182" y2="454.0865211597205" stroke="#000"/>
<line x1="122.63636363636364" y1="455.59617382636793" x2="131.1818181818182" y2="455.59617382636793" stroke="#000"/>
<line x1="126.90909090909092" y1="454.0865211597205" x2="126.90909090909092" y2="455.59617382636793" stroke="#000"/>
<rect x="131.1818181818182" y="436.38101614666647" width="8.545454545454545" height="61.618983853333496" fill="orange" data-tooltip="1.43x baseline speed (YJIT)"/>
<line x1="131.1818181818182" y1="434.72484339805806" x2="139.72727272727272" y2="434.72484339805806" stroke="#000"/>
<line x1="131.1818181818182" y1="438.0371888952749" x2="139.72727272727272" y2="438.0371888952749" stroke="#000"/>
<line x1="135.45454545454544" y1="434.72484339805806" x2="135.45454545454544" y2="438.0371888952749" stroke="#000"/>
<line x1="135.45454545454547" y1="498.0" x2="135.45454545454547" y2="502.79999999999995" stroke="#000"/>
<text x="135.45454545454547" y="512.4" fill="#111" font-size="small" font-family="monospace" font-weight="bold" text-anchor="end" transform="rotate(-60, 135.45454545454547, 512.4)">
erubi_rails
</text>
<rect x="148.27272727272728" y="454.8413474930442" width="8.545454545454545" height="43.15865250695575" fill="#7070f8" data-tooltip="1.00x baseline speed (No JIT)"/>
<line x1="148.27272727272728" y1="454.5500848291593" x2="156.81818181818184" y2="454.5500848291593" stroke="#000"/>
<line x1="148.27272727272728" y1="455.13261015692916" x2="156.81818181818184" y2="455.13261015692916" stroke="#000"/>
<line x1="152.54545454545453" y1="454.5500848291593" x2="152.54545454545453" y2="455.13261015692916" stroke="#000"/>
<rect x="156.81818181818184" y="439.2627454754714" width="8.545454545454545" height="58.73725452452853" fill="orange" data-tooltip="1.36x baseline speed (YJIT)"/>
<line x1="156.81818181818184" y1="438.01908173284454" x2="165.36363636363637" y2="438.01908173284454" stroke="#000"/>
<line x1="156.81818181818184" y1="440.50640921809816" x2="165.36363636363637" y2="440.50640921809816" stroke="#000"/>
<line x1="161.0909090909091" y1="438.01908173284454" x2="161.0909090909091" y2="440.50640921809816" stroke="#000"/>
<line x1="161.0909090909091" y1="498.0" x2="161.0909090909091" y2="502.79999999999995" stroke="#000"/>
<text x="161.0909090909091" y="512.4" fill="#111" font-size="small" font-family="monospace" font-weight="bold" text-anchor="end" transform="rotate(-60, 161.0909090909091, 512.4)">
hexapdf
</text>
<rect x="173.9090909090909" y="454.8413474930442" width="8.545454545454545" height="43.15865250695575" fill="#7070f8" data-tooltip="1.00x baseline speed (No JIT)"/>
<line x1="173.9090909090909" y1="454.26768021986686" x2="182.45454545454544" y2="454.26768021986686" stroke="#000"/>
<line x1="173.9090909090909" y1="455.41501476622153" x2="182.45454545454544" y2="455.41501476622153" stroke="#000"/>
<line x1="178.18181818181816" y1="454.26768021986686" x2="178.18181818181816" y2="455.41501476622153" stroke="#000"/>
<rect x="182.45454545454544" y="445.6996172830272" width="8.545454545454545" height="52.300382716972784" fill="orange" data-tooltip="1.21x baseline speed (YJIT)"/>
<line x1="182.45454545454544" y1="444.5535323962532" x2="191.0" y2="444.5535323962532" stroke="#000"/>
<line x1="182.45454545454544" y1="446.8457021698011" x2="191.0" y2="446.8457021698011" stroke="#000"/>
<line x1="186.72727272727272" y1="444.5535323962532" x2="186.72727272727272" y2="446.8457021698011" stroke="#000"/>
<line x1="186.72727272727272" y1="498.0" x2="186.72727272727272" y2="502.79999999999995" stroke="#000"/>
<text x="186.72727272727272" y="512.4" fill="#111" font-size="small" font-family="monospace" font-weight="bold" text-anchor="end" transform="rotate(-60, 186.72727272727272, 512.4)">
liquid-c
</text>
<rect x="199.54545454545453" y="454.8413474930442" width="8.545454545454545" height="43.15865250695575" fill="#7070f8" data-tooltip="1.00x baseline speed (No JIT)"/>
<line x1="199.54545454545453" y1="454.63052795972504" x2="208.09090909090907" y2="454.63052795972504" stroke="#000"/>
<line x1="199.54545454545453" y1="455.0521670263634" x2="208.09090909090907" y2="455.0521670263634" stroke="#000"/>
<line x1="203.81818181818178" y1="454.63052795972504" x2="203.81818181818178" y2="455.0521670263634" stroke="#000"/>
<rect x="208.09090909090907" y="448.24599697510246" width="8.545454545454545" height="49.75400302489754" fill="orange" data-tooltip="1.15x baseline speed (YJIT)"/>
<line x1="208.09090909090907" y1="447.8709602657649" x2="216.63636363636363" y2="447.8709602657649" stroke="#000"/>
<line x1="208.09090909090907" y1="448.62103368444" x2="216.63636363636363" y2="448.62103368444" stroke="#000"/>
<line x1="212.36363636363635" y1="447.8709602657649" x2="212.36363636363635" y2="448.62103368444" stroke="#000"/>
<line x1="212.36363636363635" y1="498.0" x2="212.36363636363635" y2="502.79999999999995" stroke="#000"/>
<text x="212.36363636363635" y="512.4" fill="#111" font-size="small" font-family="monospace" font-weight="bold" text-anchor="end" transform="rotate(-60, 212.36363636363635, 512.4)">
liquid-compile
</text>
<rect x="225.1818181818182" y="454.8413474930442" width="8.545454545454545" height="43.15865250695575" fill="#7070f8" data-tooltip="1.00x baseline speed (No JIT)"/>
<line x1="225.1818181818182" y1="454.29863510722043" x2="233.72727272727272" y2="454.29863510722043" stroke="#000"/>
<line x1="225.1818181818182" y1="455.38405987886796" x2="233.72727272727272" y2="455.38405987886796" stroke="#000"/>
<line x1="229.45454545454544" y1="454.29863510722043" x2="229.45454545454544" y2="455.38405987886796" stroke="#000"/>
<rect x="233.72727272727272" y="431.274571505026" width="8.545454545454545" height="66.72542849497395" fill="orange" data-tooltip="1.55x baseline speed (YJIT)"/>
<line x1="233.72727272727272" y1="429.54216528915515" x2="242.27272727272728" y2="429.54216528915515" stroke="#000"/>
<line x1="233.72727272727272" y1="433.0069777208968" x2="242.27272727272728" y2="433.0069777208968" stroke="#000"/>
<line x1="238.0" y1="429.54216528915515" x2="238.0" y2="433.0069777208968" stroke="#000"/>
<line x1="238.0" y1="498.0" x2="238.0" y2="502.79999999999995" stroke="#000"/>
<text x="238.0" y="512.4" fill="#111" font-size="small" font-family="monospace" font-weight="bold" text-anchor="end" transform="rotate(-60, 238.0, 512.4)">
liquid-render
</text>
<rect x="250.81818181818184" y="454.8413474930442" width="8.545454545454545" height="43.15865250695575" fill="#7070f8" data-tooltip="1.00x baseline speed (No JIT)"/>
<line x1="250.81818181818184" y1="454.7885189425579" x2="259.3636363636364" y2="454.7885189425579" stroke="#000"/>
<line x1="250.81818181818184" y1="454.8941760435305" x2="259.3636363636364" y2="454.8941760435305" stroke="#000"/>
<line x1="255.0909090909091" y1="454.7885189425579" x2="255.0909090909091" y2="454.8941760435305" stroke="#000"/>
<rect x="259.3636363636364" y="443.8007673984692" width="8.545454545454545" height="54.199232601530674" fill="orange" data-tooltip="1.26x baseline speed (YJIT)"/>
<line x1="259.3636363636364" y1="443.7009459531249" x2="267.9090909090909" y2="443.7009459531249" stroke="#000"/>
<line x1="259.3636363636364" y1="443.90058884381347" x2="267.9090909090909" y2="443.90058884381347" stroke="#000"/>
<line x1="263.6363636363636" y1="443.7009459531249" x2="263.6363636363636" y2="443.90058884381347" stroke="#000"/>
<line x1="263.6363636363637" y1="498.0" x2="263.6363636363637" y2="502.79999999999995" stroke="#000"/>
<text x="263.6363636363637" y="512.4" fill="#111" font-size="small" font-family="monospace" font-weight="bold" text-anchor="end" transform="rotate(-60, 263.6363636363637, 512.4)">
mail
</text>
<rect x="276.45454545454544" y="454.8413474930442" width="8.545454545454545" height="43.15865250695575" fill="#7070f8" data-tooltip="1.00x baseline speed (No JIT)"/>
<line x1="276.45454545454544" y1="454.81120448008954" x2="285.0" y2="454.81120448008954" stroke="#000"/>
<line x1="276.45454545454544" y1="454.8714905059989" x2="285.0" y2="454.8714905059989" stroke="#000"/>
<line x1="280.7272727272727" y1="454.81120448008954" x2="280.7272727272727" y2="454.8714905059989" stroke="#000"/>
<rect x="285.0" y="437.2534087643676" width="8.545454545454545" height="60.74659123563243" fill="orange" data-tooltip="1.41x baseline speed (YJIT)"/>
<line x1="285.0" y1="437.19463765692814" x2="293.5454545454545" y2="437.19463765692814" stroke="#000"/>
<line x1="285.0" y1="437.312179871807" x2="293.5454545454545" y2="437.312179871807" stroke="#000"/>
<line x1="289.27272727272725" y1="437.19463765692814" x2="289.27272727272725" y2="437.312179871807" stroke="#000"/>
<line x1="289.2727272727273" y1="498.0" x2="289.2727272727273" y2="502.79999999999995" stroke="#000"/>
<text x="289.2727272727273" y="512.4" fill="#111" font-size="small" font-family="monospace" font-weight="bold" text-anchor="end" transform="rotate(-60, 289.2727272727273, 512.4)">
psych-load
</text>
<rect x="302.09090909090907" y="454.8413474930442" width="8.545454545454545" height="43.15865250695575" fill="#7070f8" data-tooltip="1.00x baseline speed (No JIT)"/>
<line x1="302.09090909090907" y1="454.64639591708897" x2="310.6363636363636" y2="454.64639591708897" stroke="#000"/>
<line x1="302.09090909090907" y1="455.0362990689994" x2="310.6363636363636" y2="455.0362990689994" stroke="#000"/>
<line x1="306.3636363636363" y1="454.64639591708897" x2="306.3636363636363" y2="455.0362990689994" stroke="#000"/>
<rect x="310.6363636363636" y="438.1182498616359" width="8.545454545454545" height="59.881750138364076" fill="orange" data-tooltip="1.39x baseline speed (YJIT)"/>
<line x1="310.6363636363636" y1="437.6367651114226" x2="319.18181818181813" y2="437.6367651114226" stroke="#000"/>
<line x1="310.6363636363636" y1="438.59973461184916" x2="319.18181818181813" y2="438.59973461184916" stroke="#000"/>
<line x1="314.9090909090909" y1="437.6367651114226" x2="314.9090909090909" y2="438.59973461184916" stroke="#000"/>
<line x1="314.90909090909093" y1="498.0" x2="314.90909090909093" y2="502.79999999999995" stroke="#000"/>
<text x="314.90909090909093" y="512.4" fill="#111" font-size="small" font-family="monospace" font-weight="bold" text-anchor="end" transform="rotate(-60, 314.90909090909093, 512.4)">
railsbench
</text>
<rect x="327.7272727272727" y="454.8413474930442" width="8.545454545454545" height="43.15865250695575" fill="#7070f8" data-tooltip="1.00x baseline speed (No JIT)"/>
<line x1="327.7272727272727" y1="451.98313385200527" x2="336.2727272727272" y2="451.98313385200527" stroke="#000"/>
<line x1="327.7272727272727" y1="457.6995611340831" x2="336.2727272727272" y2="457.6995611340831" stroke="#000"/>
<line x1="331.99999999999994" y1="451.98313385200527" x2="331.99999999999994" y2="457.6995611340831" stroke="#000"/>
<rect x="336.2727272727272" y="446.2562820112198" width="8.545454545454545" height="51.74371798878014" fill="orange" data-tooltip="1.20x baseline speed (YJIT)"/>
<line x1="336.2727272727272" y1="439.320621191819" x2="344.81818181818176" y2="439.320621191819" stroke="#000"/>
<line x1="336.2727272727272" y1="453.1919428306207" x2="344.81818181818176" y2="453.1919428306207" stroke="#000"/>
<line x1="340.5454545454545" y1="439.320621191819" x2="340.5454545454545" y2="453.1919428306207" stroke="#000"/>
<line x1="340.54545454545456" y1="498.0" x2="340.54545454545456" y2="502.79999999999995" stroke="#000"/>
<text x="340.54545454545456" y="512.4" fill="#111" font-size="small" font-family="monospace" font-weight="bold" text-anchor="end" transform="rotate(-60, 340.54545454545456, 512.4)">
ruby-lsp
</text>
<rect x="353.3636363636363" y="454.8413474930442" width="8.545454545454545" height="43.15865250695575" fill="#7070f8" data-tooltip="1.00x baseline speed (No JIT)"/>
<line x1="353.3636363636363" y1="454.7597272845391" x2="361.9090909090908" y2="454.7597272845391" stroke="#000"/>
<line x1="353.3636363636363" y1="454.9229677015493" x2="361.9090909090908" y2="454.9229677015493" stroke="#000"/>
<line x1="357.63636363636357" y1="454.7597272845391" x2="357.63636363636357" y2="454.9229677015493" stroke="#000"/>
<rect x="361.9090909090908" y="449.4532036511165" width="8.545454545454545" height="48.54679634888349" fill="orange" data-tooltip="1.12x baseline speed (YJIT)"/>
<line x1="361.9090909090908" y1="449.32255990252844" x2="370.4545454545454" y2="449.32255990252844" stroke="#000"/>
<line x1="361.9090909090908" y1="449.5838473997046" x2="370.4545454545454" y2="449.5838473997046" stroke="#000"/>
<line x1="366.18181818181813" y1="449.32255990252844" x2="366.18181818181813" y2="449.5838473997046" stroke="#000"/>
<line x1="366.1818181818182" y1="498.0" x2="366.1818181818182" y2="502.79999999999995" stroke="#000"/>
<text x="366.1818181818182" y="512.4" fill="#111" font-size="small" font-family="monospace" font-weight="bold" text-anchor="end" transform="rotate(-60, 366.1818181818182, 512.4)">
sequel
</text>
<rect x="379.0" y="454.8413474930442" width="8.545454545454545" height="43.15865250695575" fill="#7070f8" data-tooltip="1.00x baseline speed (No JIT)"/>
<line x1="379.0" y1="454.7239428688066" x2="387.5454545454545" y2="454.7239428688066" stroke="#000"/>
<line x1="379.0" y1="454.95875211728185" x2="387.5454545454545" y2="454.95875211728185" stroke="#000"/>
<line x1="383.27272727272725" y1="454.7239428688066" x2="383.27272727272725" y2="454.95875211728185" stroke="#000"/>
<rect x="387.5454545454545" y="408.621745354728" width="8.545454545454545" height="89.37825464527201" fill="orange" data-tooltip="2.07x baseline speed (YJIT)"/>
<line x1="387.5454545454545" y1="408.35214618781504" x2="396.09090909090907" y2="408.35214618781504" stroke="#000"/>
<line x1="387.5454545454545" y1="408.89134452164086" x2="396.09090909090907" y2="408.89134452164086" stroke="#000"/>
<line x1="391.8181818181818" y1="408.35214618781504" x2="391.8181818181818" y2="408.89134452164086" stroke="#000"/>
<line x1="391.81818181818187" y1="498.0" x2="391.81818181818187" y2="502.79999999999995" stroke="#000"/>
<text x="391.81818181818187" y="512.4" fill="#111" font-size="small" font-family="monospace" font-weight="bold" text-anchor="end" transform="rotate(-60, 391.81818181818187, 512.4)">
binarytrees
</text>
<rect x="404.63636363636357" y="454.8413474930442" width="8.545454545454545" height="43.15865250695575" fill="#7070f8" data-tooltip="1.00x baseline speed (No JIT)"/>
<line x1="404.63636363636357" y1="454.7509905004483" x2="413.1818181818181" y2="454.7509905004483" stroke="#000"/>
<line x1="404.63636363636357" y1="454.93170448564007" x2="413.1818181818181" y2="454.93170448564007" stroke="#000"/>
<line x1="408.9090909090908" y1="454.7509905004483" x2="408.9090909090908" y2="454.93170448564007" stroke="#000"/>
<rect x="413.1818181818181" y="430.52075729899406" width="8.545454545454545" height="67.47924270100587" fill="orange" data-tooltip="1.56x baseline speed (YJIT)"/>
<line x1="413.1818181818181" y1="430.3772749769748" x2="421.72727272727263" y2="430.3772749769748" stroke="#000"/>
<line x1="413.1818181818181" y1="430.66423962101334" x2="421.72727272727263" y2="430.66423962101334" stroke="#000"/>
<line x1="417.4545454545454" y1="430.3772749769748" x2="417.4545454545454" y2="430.66423962101334" stroke="#000"/>
<line x1="417.45454545454544" y1="498.0" x2="417.45454545454544" y2="502.79999999999995" stroke="#000"/>
<text x="417.45454545454544" y="512.4" fill="#111" font-size="small" font-family="monospace" font-weight="bold" text-anchor="end" transform="rotate(-60, 417.45454545454544, 512.4)">
chunky_png
</text>
<rect x="430.27272727272725" y="454.8413474930442" width="8.545454545454545" height="43.15865250695575" fill="#7070f8" data-tooltip="1.00x baseline speed (No JIT)"/>
<line x1="430.27272727272725" y1="454.53612797527427" x2="438.81818181818176" y2="454.53612797527427" stroke="#000"/>
<line x1="430.27272727272725" y1="455.1465670108142" x2="438.81818181818176" y2="455.1465670108142" stroke="#000"/>
<line x1="434.5454545454545" y1="454.53612797527427" x2="434.5454545454545" y2="455.1465670108142" stroke="#000"/>
<rect x="438.81818181818176" y="450.18219618846757" width="8.545454545454545" height="47.817803811532286" fill="orange" data-tooltip="1.11x baseline speed (YJIT)"/>
<line x1="438.81818181818176" y1="449.64754170738024" x2="447.3636363636363" y2="449.64754170738024" stroke="#000"/>
<line x1="438.81818181818176" y1="450.71685066955496" x2="447.3636363636363" y2="450.71685066955496" stroke="#000"/>
<line x1="443.090909090909" y1="449.64754170738024" x2="443.090909090909" y2="450.71685066955496" stroke="#000"/>
<line x1="443.09090909090907" y1="498.0" x2="443.09090909090907" y2="502.79999999999995" stroke="#000"/>
<text x="443.09090909090907" y="512.4" fill="#111" font-size="small" font-family="monospace" font-weight="bold" text-anchor="end" transform="rotate(-60, 443.09090909090907, 512.4)">
erubi
</text>
<rect x="455.90909090909093" y="454.8413474930442" width="8.545454545454545" height="43.15865250695575" fill="#7070f8" data-tooltip="1.00x baseline speed (No JIT)"/>
<line x1="455.90909090909093" y1="454.69108900184847" x2="464.45454545454544" y2="454.69108900184847" stroke="#000"/>
<line x1="455.90909090909093" y1="454.99160598424" x2="464.45454545454544" y2="454.99160598424" stroke="#000"/>
<line x1="460.1818181818182" y1="454.69108900184847" x2="460.1818181818182" y2="454.99160598424" stroke="#000"/>
<rect x="464.45454545454544" y="455.0045331622384" width="8.545454545454545" height="42.99546683776151" fill="orange" data-tooltip="1.00x baseline speed (YJIT)"/>
<line x1="464.45454545454544" y1="454.76442561065073" x2="473.0" y2="454.76442561065073" stroke="#000"/>
<line x1="464.45454545454544" y1="455.24464071382596" x2="473.0" y2="455.24464071382596" stroke="#000"/>
<line x1="468.7272727272727" y1="454.76442561065073" x2="468.7272727272727" y2="455.24464071382596" stroke="#000"/>
<line x1="468.72727272727275" y1="498.0" x2="468.72727272727275" y2="502.79999999999995" stroke="#000"/>
<text x="468.72727272727275" y="512.4" fill="#111" font-size="small" font-family="monospace" font-weight="bold" text-anchor="end" transform="rotate(-60, 468.72727272727275, 512.4)">
etanni
</text>
<rect x="481.5454545454545" y="454.8413474930442" width="8.545454545454545" height="43.15865250695575" fill="#7070f8" data-tooltip="1.00x baseline speed (No JIT)"/>
<line x1="481.5454545454545" y1="454.5942416902528" x2="490.090909090909" y2="454.5942416902528" stroke="#000"/>
<line x1="481.5454545454545" y1="455.0884532958356" x2="490.090909090909" y2="455.0884532958356" stroke="#000"/>
<line x1="485.81818181818176" y1="454.5942416902528" x2="485.81818181818176" y2="455.0884532958356" stroke="#000"/>
<rect x="490.090909090909" y="341.56888738752775" width="8.545454545454545" height="156.4311126124722" fill="orange" data-tooltip="3.62x baseline speed (YJIT)"/>
<line x1="490.090909090909" y1="340.5860362510719" x2="498.63636363636357" y2="340.5860362510719" stroke="#000"/>
<line x1="490.090909090909" y1="342.55173852398354" x2="498.63636363636357" y2="342.55173852398354" stroke="#000"/>
<line x1="494.36363636363626" y1="340.5860362510719" x2="494.36363636363626" y2="342.55173852398354" stroke="#000"/>
<line x1="494.3636363636363" y1="498.0" x2="494.3636363636363" y2="502.79999999999995" stroke="#000"/>
<text x="494.3636363636363" y="512.4" fill="#111" font-size="small" font-family="monospace" font-weight="bold" text-anchor="end" transform="rotate(-60, 494.3636363636363, 512.4)">
fannkuchredux
</text>
<rect x="507.1818181818182" y="454.8413474930442" width="8.545454545454545" height="43.15865250695575" fill="#7070f8" data-tooltip="1.00x baseline speed (No JIT)"/>
<line x1="507.1818181818182" y1="454.71861221090876" x2="515.7272727272727" y2="454.71861221090876" stroke="#000"/>
<line x1="507.1818181818182" y1="454.96408277517963" x2="515.7272727272727" y2="454.96408277517963" stroke="#000"/>
<line x1="511.4545454545455" y1="454.71861221090876" x2="511.4545454545455" y2="454.96408277517963" stroke="#000"/>
<rect x="515.7272727272727" y="441.1871127299236" width="8.545454545454545" height="56.81288727007628" fill="orange" data-tooltip="1.32x baseline speed (YJIT)"/>
<line x1="515.7272727272727" y1="440.95618374566004" x2="524.2727272727273" y2="440.95618374566004" stroke="#000"/>
<line x1="515.7272727272727" y1="441.41804171418715" x2="524.2727272727273" y2="441.41804171418715" stroke="#000"/>
<line x1="520.0" y1="440.95618374566004" x2="520.0" y2="441.41804171418715" stroke="#000"/>
<line x1="520.0" y1="498.0" x2="520.0" y2="502.79999999999995" stroke="#000"/>
<text x="520.0" y="512.4" fill="#111" font-size="small" font-family="monospace" font-weight="bold" text-anchor="end" transform="rotate(-60, 520.0, 512.4)">
lee
</text>
<rect x="532.8181818181818" y="454.8413474930442" width="8.545454545454545" height="43.15865250695575" fill="#7070f8" data-tooltip="1.00x baseline speed (No JIT)"/>
<line x1="532.8181818181818" y1="454.63706841598963" x2="541.3636363636363" y2="454.63706841598963" stroke="#000"/>
<line x1="532.8181818181818" y1="455.0456265700988" x2="541.3636363636363" y2="455.0456265700988" stroke="#000"/>
<line x1="537.090909090909" y1="454.63706841598963" x2="537.090909090909" y2="455.0456265700988" stroke="#000"/>
<rect x="541.3636363636363" y="417.4083819780222" width="8.545454545454545" height="80.59161802197778" fill="orange" data-tooltip="1.87x baseline speed (YJIT)"/>
<line x1="541.3636363636363" y1="417.02143022872167" x2="549.9090909090908" y2="417.02143022872167" stroke="#000"/>
<line x1="541.3636363636363" y1="417.7953337273227" x2="549.9090909090908" y2="417.7953337273227" stroke="#000"/>
<line x1="545.6363636363636" y1="417.02143022872167" x2="545.6363636363636" y2="417.7953337273227" stroke="#000"/>
<line x1="545.6363636363636" y1="498.0" x2="545.6363636363636" y2="502.79999999999995" stroke="#000"/>
<text x="545.6363636363636" y="512.4" fill="#111" font-size="small" font-family="monospace" font-weight="bold" text-anchor="end" transform="rotate(-60, 545.6363636363636, 512.4)">
nbody
</text>
<rect x="558.4545454545454" y="454.8413474930442" width="8.545454545454545" height="43.15865250695575" fill="#7070f8" data-tooltip="1.00x baseline speed (No JIT)"/>
<line x1="558.4545454545454" y1="454.56778718506655" x2="567.0" y2="454.56778718506655" stroke="#000"/>
<line x1="558.4545454545454" y1="455.1149078010219" x2="567.0" y2="455.1149078010219" stroke="#000"/>
<line x1="562.7272727272727" y1="454.56778718506655" x2="562.7272727272727" y2="455.1149078010219" stroke="#000"/>
<rect x="567.0" y="420.48686275106905" width="8.545454545454545" height="77.51313724893086" fill="orange" data-tooltip="1.80x baseline speed (YJIT)"/>
<line x1="567.0" y1="419.88747617309355" x2="575.5454545454545" y2="419.88747617309355" stroke="#000"/>
<line x1="567.0" y1="421.0862493290446" x2="575.5454545454545" y2="421.0862493290446" stroke="#000"/>
<line x1="571.2727272727273" y1="419.88747617309355" x2="571.2727272727273" y2="421.0862493290446" stroke="#000"/>
<line x1="571.2727272727273" y1="498.0" x2="571.2727272727273" y2="502.79999999999995" stroke="#000"/>
<text x="571.2727272727273" y="512.4" fill="#111" font-size="small" font-family="monospace" font-weight="bold" text-anchor="end" transform="rotate(-60, 571.2727272727273, 512.4)">
optcarrot
</text>
<rect x="584.0909090909091" y="454.8413474930442" width="8.545454545454545" height="43.15865250695575" fill="#7070f8" data-tooltip="1.00x baseline speed (No JIT)"/>
<line x1="584.0909090909091" y1="454.76554236422226" x2="592.6363636363636" y2="454.76554236422226" stroke="#000"/>
<line x1="584.0909090909091" y1="454.9171526218662" x2="592.6363636363636" y2="454.9171526218662" stroke="#000"/>
<line x1="588.3636363636364" y1="454.76554236422226" x2="588.3636363636364" y2="454.9171526218662" stroke="#000"/>
<rect x="592.6363636363636" y="446.74197479864046" width="8.545454545454545" height="51.2580252013595" fill="orange" data-tooltip="1.19x baseline speed (YJIT)"/>
<line x1="592.6363636363636" y1="446.49311440326704" x2="601.1818181818181" y2="446.49311440326704" stroke="#000"/>
<line x1="592.6363636363636" y1="446.9908351940138" x2="601.1818181818181" y2="446.9908351940138" stroke="#000"/>
<line x1="596.909090909091" y1="446.49311440326704" x2="596.909090909091" y2="446.9908351940138" stroke="#000"/>
<line x1="596.909090909091" y1="498.0" x2="596.909090909091" y2="502.79999999999995" stroke="#000"/>
<text x="596.909090909091" y="512.4" fill="#111" font-size="small" font-family="monospace" font-weight="bold" text-anchor="end" transform="rotate(-60, 596.909090909091, 512.4)">
ruby-json
</text>
<rect x="609.7272727272726" y="454.8413474930442" width="8.545454545454545" height="43.15865250695575" fill="#7070f8" data-tooltip="1.00x baseline speed (No JIT)"/>
<line x1="609.7272727272726" y1="454.64952277195863" x2="618.2727272727273" y2="454.64952277195863" stroke="#000"/>
<line x1="609.7272727272726" y1="455.0331722141298" x2="618.2727272727273" y2="455.0331722141298" stroke="#000"/>
<line x1="614.0" y1="454.64952277195863" x2="614.0" y2="455.0331722141298" stroke="#000"/>
<rect x="618.2727272727273" y="427.804524997454" width="8.545454545454545" height="70.19547500254596" fill="orange" data-tooltip="1.63x baseline speed (YJIT)"/>
<line x1="618.2727272727273" y1="427.396921593862" x2="626.8181818181818" y2="427.396921593862" stroke="#000"/>
<line x1="618.2727272727273" y1="428.212128401046" x2="626.8181818181818" y2="428.212128401046" stroke="#000"/>
<line x1="622.5454545454545" y1="427.396921593862" x2="622.5454545454545" y2="428.212128401046" stroke="#000"/>
<line x1="622.5454545454545" y1="498.0" x2="622.5454545454545" y2="502.79999999999995" stroke="#000"/>
<text x="622.5454545454545" y="512.4" fill="#111" font-size="small" font-family="monospace" font-weight="bold" text-anchor="end" transform="rotate(-60, 622.5454545454545, 512.4)">
rubykon
</text>
<rect x="635.3636363636363" y="454.8413474930442" width="8.545454545454545" height="43.15865250695575" fill="#7070f8" data-tooltip="1.00x baseline speed (No JIT)"/>
<line x1="635.3636363636363" y1="454.8151707236731" x2="643.9090909090908" y2="454.8151707236731" stroke="#000"/>
<line x1="635.3636363636363" y1="454.8675242624153" x2="643.9090909090908" y2="454.8675242624153" stroke="#000"/>
<line x1="639.6363636363635" y1="454.8151707236731" x2="639.6363636363635" y2="454.8675242624153" stroke="#000"/>
<rect x="643.9090909090908" y="314.13987518714055" width="8.545454545454545" height="183.86012481285942" fill="orange" data-tooltip="4.26x baseline speed (YJIT)"/>
<line x1="643.9090909090908" y1="314.01305769828235" x2="652.4545454545453" y2="314.01305769828235" stroke="#000"/>
<line x1="643.9090909090908" y1="314.2666926759987" x2="652.4545454545453" y2="314.2666926759987" stroke="#000"/>
<line x1="648.1818181818181" y1="314.01305769828235" x2="648.1818181818181" y2="314.2666926759987" stroke="#000"/>
<line x1="648.1818181818181" y1="498.0" x2="648.1818181818181" y2="502.79999999999995" stroke="#000"/>
<text x="648.1818181818181" y="512.4" fill="#111" font-size="small" font-family="monospace" font-weight="bold" text-anchor="end" transform="rotate(-60, 648.1818181818181, 512.4)">
30k_ifelse
</text>
<rect x="660.9999999999999" y="454.8413474930442" width="8.545454545454545" height="43.15865250695575" fill="#7070f8" data-tooltip="1.00x baseline speed (No JIT)"/>
<line x1="660.9999999999999" y1="454.82421713161835" x2="669.5454545454544" y2="454.82421713161835" stroke="#000"/>
<line x1="660.9999999999999" y1="454.85847785447004" x2="669.5454545454544" y2="454.85847785447004" stroke="#000"/>
<line x1="665.2727272727273" y1="454.82421713161835" x2="665.2727272727273" y2="454.85847785447004" stroke="#000"/>
<rect x="669.5454545454544" y="260.3469483201177" width="8.545454545454545" height="237.65305167988222" fill="orange" data-tooltip="5.51x baseline speed (YJIT)"/>
<line x1="669.5454545454544" y1="260.1623831378657" x2="678.090909090909" y2="260.1623831378657" stroke="#000"/>
<line x1="669.5454545454544" y1="260.53151350236976" x2="678.090909090909" y2="260.53151350236976" stroke="#000"/>
<line x1="673.8181818181818" y1="260.1623831378657" x2="673.8181818181818" y2="260.53151350236976" stroke="#000"/>
<line x1="673.8181818181818" y1="498.0" x2="673.8181818181818" y2="502.79999999999995" stroke="#000"/>
<text x="673.8181818181818" y="512.4" fill="#111" font-size="small" font-family="monospace" font-weight="bold" text-anchor="end" transform="rotate(-60, 673.8181818181818, 512.4)">
30k_methods
</text>
<rect x="686.6363636363636" y="454.8413474930442" width="8.545454545454545" height="43.15865250695575" fill="#7070f8" data-tooltip="1.00x baseline speed (No JIT)"/>
<line x1="686.6363636363636" y1="454.7984252996501" x2="695.1818181818181" y2="454.7984252996501" stroke="#000"/>
<line x1="686.6363636363636" y1="454.88426968643836" x2="695.1818181818181" y2="454.88426968643836" stroke="#000"/>
<line x1="690.9090909090909" y1="454.7984252996501" x2="690.9090909090909" y2="454.88426968643836" stroke="#000"/>
<rect x="695.1818181818181" y="357.90767878539845" width="8.545454545454545" height="140.09232121460153" fill="orange" data-tooltip="3.25x baseline speed (YJIT)"/>
<line x1="695.1818181818181" y1="357.7487844156338" x2="703.7272727272726" y2="357.7487844156338" stroke="#000"/>
<line x1="695.1818181818181" y1="358.06657315516304" x2="703.7272727272726" y2="358.06657315516304" stroke="#000"/>
<line x1="699.4545454545455" y1="357.7487844156338" x2="699.4545454545455" y2="358.06657315516304" stroke="#000"/>
<line x1="699.4545454545455" y1="498.0" x2="699.4545454545455" y2="502.79999999999995" stroke="#000"/>
<text x="699.4545454545455" y="512.4" fill="#111" font-size="small" font-family="monospace" font-weight="bold" text-anchor="end" transform="rotate(-60, 699.4545454545455, 512.4)">
cfunc_itself
</text>
<rect x="712.2727272727271" y="454.8413474930442" width="8.545454545454545" height="43.15865250695575" fill="#7070f8" data-tooltip="1.00x baseline speed (No JIT)"/>
<line x1="712.2727272727271" y1="453.81550153289476" x2="720.8181818181816" y2="453.81550153289476" stroke="#000"/>
<line x1="712.2727272727271" y1="455.86719345319364" x2="720.8181818181816" y2="455.86719345319364" stroke="#000"/>
<line x1="716.5454545454545" y1="453.81550153289476" x2="716.5454545454545" y2="455.86719345319364" stroke="#000"/>
<rect x="720.8181818181816" y="303.8465564760968" width="8.545454545454545" height="194.1534435239031" fill="orange" data-tooltip="4.50x baseline speed (YJIT)"/>
<line x1="720.8181818181816" y1="299.2290967556409" x2="729.3636363636363" y2="299.2290967556409" stroke="#000"/>
<line x1="720.8181818181816" y1="308.46401619655273" x2="729.3636363636363" y2="308.46401619655273" stroke="#000"/>
<line x1="725.090909090909" y1="299.2290967556409" x2="725.090909090909" y2="308.46401619655273" stroke="#000"/>
<line x1="725.090909090909" y1="498.0" x2="725.090909090909" y2="502.79999999999995" stroke="#000"/>
<text x="725.090909090909" y="512.4" fill="#111" font-size="small" font-family="monospace" font-weight="bold" text-anchor="end" transform="rotate(-60, 725.090909090909, 512.4)">
fib
</text>
<rect x="737.9090909090909" y="454.8413474930442" width="8.545454545454545" height="43.15865250695575" fill="#7070f8" data-tooltip="1.00x baseline speed (No JIT)"/>
<line x1="737.9090909090909" y1="454.2949636298352" x2="746.4545454545454" y2="454.2949636298352" stroke="#000"/>
<line x1="737.9090909090909" y1="455.3877313562532" x2="746.4545454545454" y2="455.3877313562532" stroke="#000"/>
<line x1="742.1818181818181" y1="454.2949636298352" x2="742.1818181818181" y2="455.3877313562532" stroke="#000"/>
<rect x="746.4545454545454" y="257.7112417997464" width="8.545454545454545" height="240.28875820025354" fill="orange" data-tooltip="5.57x baseline speed (YJIT)"/>
<line x1="746.4545454545454" y1="254.6690537588301" x2="754.9999999999999" y2="254.6690537588301" stroke="#000"/>
<line x1="746.4545454545454" y1="260.75342984066265" x2="754.9999999999999" y2="260.75342984066265" stroke="#000"/>
<line x1="750.7272727272726" y1="254.6690537588301" x2="750.7272727272726" y2="260.75342984066265" stroke="#000"/>
<line x1="750.7272727272726" y1="498.0" x2="750.7272727272726" y2="502.79999999999995" stroke="#000"/>
<text x="750.7272727272726" y="512.4" fill="#111" font-size="small" font-family="monospace" font-weight="bold" text-anchor="end" transform="rotate(-60, 750.7272727272726, 512.4)">
getivar
</text>
<rect x="763.5454545454544" y="454.8413474930442" width="8.545454545454545" height="43.15865250695575" fill="#7070f8" data-tooltip="1.00x baseline speed (No JIT)"/>
<line x1="763.5454545454544" y1="454.8058952307682" x2="772.0909090909089" y2="454.8058952307682" stroke="#000"/>
<line x1="763.5454545454544" y1="454.8767997553202" x2="772.0909090909089" y2="454.8767997553202" stroke="#000"/>
<line x1="767.8181818181818" y1="454.8058952307682" x2="767.8181818181818" y2="454.8767997553202" stroke="#000"/>
<rect x="772.0909090909089" y="243.739537731081" width="8.545454545454545" height="254.26046226891896" fill="orange" data-tooltip="5.89x baseline speed (YJIT)"/>
<line x1="772.0909090909089" y1="243.50352979067927" x2="780.6363636363635" y2="243.50352979067927" stroke="#000"/>
<line x1="772.0909090909089" y1="243.9755456714827" x2="780.6363636363635" y2="243.9755456714827" stroke="#000"/>
<line x1="776.3636363636363" y1="243.50352979067927" x2="776.3636363636363" y2="243.9755456714827" stroke="#000"/>
<line x1="776.3636363636363" y1="498.0" x2="776.3636363636363" y2="502.79999999999995" stroke="#000"/>
<text x="776.3636363636363" y="512.4" fill="#111" font-size="small" font-family="monospace" font-weight="bold" text-anchor="end" transform="rotate(-60, 776.3636363636363, 512.4)">
keyword_args
</text>
<rect x="789.1818181818181" y="454.8413474930442" width="8.545454545454545" height="43.15865250695575" fill="#7070f8" data-tooltip="1.00x baseline speed (No JIT)"/>
<line x1="789.1818181818181" y1="454.553823201662" x2="797.7272727272726" y2="454.553823201662" stroke="#000"/>
<line x1="789.1818181818181" y1="455.1288717844264" x2="797.7272727272726" y2="455.1288717844264" stroke="#000"/>
<line x1="793.4545454545454" y1="454.553823201662" x2="793.4545454545454" y2="455.1288717844264" stroke="#000"/>
<rect x="797.7272727272726" y="100.19999999999999" width="8.545454545454545" height="397.79999999999995" fill="orange" data-tooltip="9.22x baseline speed (YJIT)"/>
<line x1="797.7272727272726" y1="94.71333115565561" x2="806.2727272727271" y2="94.71333115565561" stroke="#000"/>
<line x1="797.7272727272726" y1="105.68666884434437" x2="806.2727272727271" y2="105.68666884434437" stroke="#000"/>
<line x1="801.9999999999999" y1="94.71333115565561" x2="801.9999999999999" y2="105.68666884434437" stroke="#000"/>
<line x1="801.9999999999999" y1="498.0" x2="801.9999999999999" y2="502.79999999999995" stroke="#000"/>
<text x="801.9999999999999" y="512.4" fill="#111" font-size="small" font-family="monospace" font-weight="bold" text-anchor="end" transform="rotate(-60, 801.9999999999999, 512.4)">
respond_to
</text>
<rect x="814.8181818181818" y="454.8413474930442" width="8.545454545454545" height="43.15865250695575" fill="#7070f8" data-tooltip="1.00x baseline speed (No JIT)"/>
<line x1="814.8181818181818" y1="454.6022492112842" x2="823.3636363636363" y2="454.6022492112842" stroke="#000"/>
<line x1="814.8181818181818" y1="455.0804457748042" x2="823.3636363636363" y2="455.0804457748042" stroke="#000"/>
<line x1="819.0909090909091" y1="454.6022492112842" x2="819.0909090909091" y2="455.0804457748042" stroke="#000"/>
<rect x="823.3636363636363" y="241.7872356185388" width="8.545454545454545" height="256.2127643814611" fill="orange" data-tooltip="5.94x baseline speed (YJIT)"/>
<line x1="823.3636363636363" y1="240.3663783320742" x2="831.9090909090908" y2="240.3663783320742" stroke="#000"/>
<line x1="823.3636363636363" y1="243.20809290500344" x2="831.9090909090908" y2="243.20809290500344" stroke="#000"/>
<line x1="827.6363636363636" y1="240.3663783320742" x2="827.6363636363636" y2="243.20809290500344" stroke="#000"/>
<line x1="827.6363636363636" y1="498.0" x2="827.6363636363636" y2="502.79999999999995" stroke="#000"/>
<text x="827.6363636363636" y="512.4" fill="#111" font-size="small" font-family="monospace" font-weight="bold" text-anchor="end" transform="rotate(-60, 827.6363636363636, 512.4)">
setivar
</text>
<rect x="840.4545454545454" y="454.8413474930442" width="8.545454545454545" height="43.15865250695575" fill="#7070f8" data-tooltip="1.00x baseline speed (No JIT)"/>
<line x1="840.4545454545454" y1="454.50991944436913" x2="848.9999999999999" y2="454.50991944436913" stroke="#000"/>
<line x1="840.4545454545454" y1="455.17277554171926" x2="848.9999999999999" y2="455.17277554171926" stroke="#000"/>
<line x1="844.7272727272726" y1="454.50991944436913" x2="844.7272727272726" y2="455.17277554171926" stroke="#000"/>
<rect x="848.9999999999999" y="389.7969812534098" width="8.545454545454545" height="108.2030187465901" fill="orange" data-tooltip="2.51x baseline speed (YJIT)"/>
<line x1="848.9999999999999" y1="388.05161820051427" x2="857.5454545454544" y2="388.05161820051427" stroke="#000"/>
<line x1="848.9999999999999" y1="391.5423443063053" x2="857.5454545454544" y2="391.5423443063053" stroke="#000"/>
<line x1="853.2727272727271" y1="388.05161820051427" x2="853.2727272727271" y2="391.5423443063053" stroke="#000"/>
<line x1="853.2727272727271" y1="498.0" x2="853.2727272727271" y2="502.79999999999995" stroke="#000"/>
<text x="853.2727272727271" y="512.4" fill="#111" font-size="small" font-family="monospace" font-weight="bold" text-anchor="end" transform="rotate(-60, 853.2727272727271, 512.4)">
setivar_object
</text>
<rect x="866.090909090909" y="454.8413474930442" width="8.545454545454545" height="43.15865250695575" fill="#7070f8" data-tooltip="1.00x baseline speed (No JIT)"/>
<line x1="866.090909090909" y1="454.58364454916915" x2="874.6363636363635" y2="454.58364454916915" stroke="#000"/>
<line x1="866.090909090909" y1="455.0990504369193" x2="874.6363636363635" y2="455.0990504369193" stroke="#000"/>
<line x1="870.3636363636364" y1="454.58364454916915" x2="870.3636363636364" y2="455.0990504369193" stroke="#000"/>
<rect x="874.6363636363635" y="387.357907854492" width="8.545454545454545" height="110.64209214550797" fill="orange" data-tooltip="2.56x baseline speed (YJIT)"/>
<line x1="874.6363636363635" y1="386.6969100565086" x2="883.181818181818" y2="386.6969100565086" stroke="#000"/>
<line x1="874.6363636363635" y1="388.0189056524754" x2="883.181818181818" y2="388.0189056524754" stroke="#000"/>
<line x1="878.9090909090909" y1="386.6969100565086" x2="878.9090909090909" y2="388.0189056524754" stroke="#000"/>
<line x1="878.9090909090909" y1="498.0" x2="878.9090909090909" y2="502.79999999999995" stroke="#000"/>
<text x="878.9090909090909" y="512.4" fill="#111" font-size="small" font-family="monospace" font-weight="bold" text-anchor="end" transform="rotate(-60, 878.9090909090909, 512.4)">
setivar_young
</text>
<rect x="891.7272727272726" y="454.8413474930442" width="8.545454545454545" height="43.15865250695575" fill="#7070f8" data-tooltip="1.00x baseline speed (No JIT)"/>
<line x1="891.7272727272726" y1="454.6417801895807" x2="900.2727272727271" y2="454.6417801895807" stroke="#000"/>
<line x1="891.7272727272726" y1="455.0409147965077" x2="900.2727272727271" y2="455.0409147965077" stroke="#000"/>
<line x1="895.9999999999999" y1="454.6417801895807" x2="895.9999999999999" y2="455.0409147965077" stroke="#000"/>
<rect x="900.2727272727271" y="413.88820986197277" width="8.545454545454545" height="84.11179013802716" fill="orange" data-tooltip="1.95x baseline speed (YJIT)"/>
<line x1="900.2727272727271" y1="412.98752626141714" x2="908.8181818181816" y2="412.98752626141714" stroke="#000"/>
<line x1="900.2727272727271" y1="414.78889346252834" x2="908.8181818181816" y2="414.78889346252834" stroke="#000"/>
<line x1="904.5454545454544" y1="412.98752626141714" x2="904.5454545454544" y2="414.78889346252834" stroke="#000"/>
<line x1="904.5454545454544" y1="498.0" x2="904.5454545454544" y2="502.79999999999995" stroke="#000"/>
<text x="904.5454545454544" y="512.4" fill="#111" font-size="small" font-family="monospace" font-weight="bold" text-anchor="end" transform="rotate(-60, 904.5454545454544, 512.4)">
str_concat
</text>
<rect x="917.3636363636363" y="454.8413474930442" width="8.545454545454545" height="43.15865250695575" fill="#7070f8" data-tooltip="1.00x baseline speed (No JIT)"/>
<line x1="917.3636363636363" y1="454.77637563325635" x2="925.9090909090908" y2="454.77637563325635" stroke="#000"/>
<line x1="917.3636363636363" y1="454.9063193528321" x2="925.9090909090908" y2="454.9063193528321" stroke="#000"/>
<line x1="921.6363636363636" y1="454.77637563325635" x2="921.6363636363636" y2="454.9063193528321" stroke="#000"/>
<rect x="925.9090909090908" y="441.77988064396067" width="8.545454545454545" height="56.22011935603925" fill="orange" data-tooltip="1.30x baseline speed (YJIT)"/>
<line x1="925.9090909090908" y1="441.6593389049615" x2="934.4545454545453" y2="441.6593389049615" stroke="#000"/>
<line x1="925.9090909090908" y1="441.90042238295985" x2="934.4545454545453" y2="441.90042238295985" stroke="#000"/>
<line x1="930.1818181818181" y1="441.6593389049615" x2="930.1818181818181" y2="441.90042238295985" stroke="#000"/>
<line x1="930.1818181818181" y1="498.0" x2="930.1818181818181" y2="502.79999999999995" stroke="#000"/>
<text x="930.1818181818181" y="512.4" fill="#111" font-size="small" font-family="monospace" font-weight="bold" text-anchor="end" transform="rotate(-60, 930.1818181818181, 512.4)">
throw
</text>
</svg>