<svg viewBox="0 0 1000 600" xmlns="http://www.w3.org/2000/svg" xmlns:xlink="http://www.w3.org/1999/xlink" width="100%" height="100%">

<rect x="50.0" y="30.0" width="940.0" height="467.99999999999994" stroke="#000" fill="#EEE"/>
<line x1="42.0" y1="497.9999999999999" x2="50.0" y2="497.9999999999999" stroke="#000"/>
<text x="26.000000000000004" y="497.9999999999999" text-anchor="end" font-weight="bold" font-size="small" fill="#111">
0.0
</text>
<line x1="42.0" y1="413.72221666355375" x2="50.0" y2="413.72221666355375" stroke="#000"/>
<text x="26.000000000000004" y="413.72221666355375" text-anchor="end" font-weight="bold" font-size="small" fill="#111">
0.5
</text>
<line x1="42.0" y1="329.4444333271075" x2="50.0" y2="329.4444333271075" stroke="#000"/>
<text x="26.000000000000004" y="329.4444333271075" text-anchor="end" font-weight="bold" font-size="small" fill="#111">
1.0
</text>
<line x1="42.0" y1="245.1666499906613" x2="50.0" y2="245.1666499906613" stroke="#000"/>
<text x="26.000000000000004" y="245.1666499906613" text-anchor="end" font-weight="bold" font-size="small" fill="#111">
1.5
</text>
<line x1="42.0" y1="160.88886665421512" x2="50.0" y2="160.88886665421512" stroke="#000"/>
<text x="26.000000000000004" y="160.88886665421512" text-anchor="end" font-weight="bold" font-size="small" fill="#111">
2.0
</text>
<rect x="268.5" y="36.00000000000001" width="80.0" height="18.0" fill="#7070f8" stroke="#888"/>
<text x="308.5" y="52.50000000000001" font-size="small" text-anchor="middle" font-weight="bold" fill="#EEE">
No JIT
</text>
<rect x="691.4999999999999" y="36.00000000000001" width="80.0" height="18.0" fill="orange" stroke="#888"/>
<text x="731.4999999999999" y="52.50000000000001" font-size="small" text-anchor="middle" font-weight="bold" fill="#EEE">
YJIT
</text>
<rect x="97.0" y="329.4444333271075" width="25.636363636363637" height="168.55556667289244" fill="#7070f8" data-tooltip="1.00x baseline speed (No JIT)"/>
<line x1="97.0" y1="326.2336554579511" x2="122.63636363636364" y2="326.2336554579511" stroke="#000"/>
<line x1="97.0" y1="332.6552111962639" x2="122.63636363636364" y2="332.6552111962639" stroke="#000"/>
<line x1="109.81818181818181" y1="326.2336554579511" x2="109.81818181818181" y2="332.6552111962639" stroke="#000"/>
<rect x="122.63636363636364" y="168.30850312248137" width="25.636363636363637" height="329.69149687751855" fill="orange" data-tooltip="1.96x baseline speed (YJIT)"/>
<line x1="122.63636363636364" y1="154.20166921166972" x2="148.27272727272728" y2="154.20166921166972" stroke="#000"/>
<line x1="122.63636363636364" y1="182.41533703329304" x2="148.27272727272728" y2="182.41533703329304" stroke="#000"/>
<line x1="135.45454545454547" y1="154.20166921166972" x2="135.45454545454547" y2="182.41533703329304" stroke="#000"/>
<line x1="135.45454545454547" y1="498.0" x2="135.45454545454547" y2="502.79999999999995" stroke="#000"/>
<text x="135.45454545454547" y="512.4" fill="#111" font-size="small" font-family="monospace" font-weight="bold" text-anchor="end" transform="rotate(-60, 135.45454545454547, 512.4)">
binarytrees
</text>
<rect x="173.9090909090909" y="329.4444333271075" width="25.636363636363637" height="168.55556667289244" fill="#7070f8" data-tooltip="1.00x baseline speed (No JIT)"/>
<line x1="173.9090909090909" y1="329.37287343853075" x2="199.54545454545453" y2="329.37287343853075" stroke="#000"/>
<line x1="173.9090909090909" y1="329.51599321568426" x2="199.54545454545453" y2="329.51599321568426" stroke="#000"/>
<line x1="186.72727272727272" y1="329.37287343853075" x2="186.72727272727272" y2="329.51599321568426" stroke="#000"/>
<rect x="199.54545454545453" y="238.54781604859278" width="25.636363636363637" height="259.4521839514071" fill="orange" data-tooltip="1.54x baseline speed (YJIT)"/>
<line x1="199.54545454545453" y1="238.3562470487328" x2="225.18181818181816" y2="238.3562470487328" stroke="#000"/>
<line x1="199.54545454545453" y1="238.73938504845276" x2="225.18181818181816" y2="238.73938504845276" stroke="#000"/>
<line x1="212.36363636363635" y1="238.3562470487328" x2="212.36363636363635" y2="238.73938504845276" stroke="#000"/>
<line x1="212.36363636363637" y1="498.0" x2="212.36363636363637" y2="502.79999999999995" stroke="#000"/>
<text x="212.36363636363637" y="512.4" fill="#111" font-size="small" font-family="monospace" font-weight="bold" text-anchor="end" transform="rotate(-60, 212.36363636363637, 512.4)">
chunky_png
</text>
<rect x="250.81818181818184" y="329.4444333271075" width="25.636363636363637" height="168.55556667289244" fill="#7070f8" data-tooltip="1.00x baseline speed (No JIT)"/>
<line x1="250.81818181818184" y1="328.16194795549035" x2="276.45454545454544" y2="328.16194795549035" stroke="#000"/>
<line x1="250.81818181818184" y1="330.72691869872466" x2="276.45454545454544" y2="330.72691869872466" stroke="#000"/>
<line x1="263.6363636363637" y1="328.16194795549035" x2="263.6363636363637" y2="330.72691869872466" stroke="#000"/>
<rect x="276.45454545454544" y="299.3312627104149" width="25.636363636363637" height="198.66873728958504" fill="orange" data-tooltip="1.18x baseline speed (YJIT)"/>
<line x1="276.45454545454544" y1="296.9813677974774" x2="302.09090909090907" y2="296.9813677974774" stroke="#000"/>
<line x1="276.45454545454544" y1="301.6811576233525" x2="302.09090909090907" y2="301.6811576233525" stroke="#000"/>
<line x1="289.2727272727273" y1="296.9813677974774" x2="289.2727272727273" y2="301.6811576233525" stroke="#000"/>
<line x1="289.2727272727273" y1="498.0" x2="289.2727272727273" y2="502.79999999999995" stroke="#000"/>
<text x="289.2727272727273" y="512.4" fill="#111" font-size="small" font-family="monospace" font-weight="bold" text-anchor="end" transform="rotate(-60, 289.2727272727273, 512.4)">
erubi
</text>
<rect x="327.72727272727275" y="329.4444333271075" width="25.636363636363637" height="168.55556667289244" fill="#7070f8" data-tooltip="1.00x baseline speed (No JIT)"/>
<line x1="327.72727272727275" y1="325.16056535831774" x2="353.3636363636364" y2="325.16056535831774" stroke="#000"/>
<line x1="327.72727272727275" y1="333.7283012958973" x2="353.3636363636364" y2="333.7283012958973" stroke="#000"/>
<line x1="340.5454545454546" y1="325.16056535831774" x2="340.5454545454546" y2="333.7283012958973" stroke="#000"/>
<rect x="353.3636363636364" y="259.87093486551123" width="25.636363636363637" height="238.1290651344887" fill="orange" data-tooltip="1.41x baseline speed (YJIT)"/>
<line x1="353.3636363636364" y1="249.52047969467694" x2="379.0" y2="249.52047969467694" stroke="#000"/>
<line x1="353.3636363636364" y1="270.2213900363455" x2="379.0" y2="270.2213900363455" stroke="#000"/>
<line x1="366.18181818181824" y1="249.52047969467694" x2="366.18181818181824" y2="270.2213900363455" stroke="#000"/>
<line x1="366.18181818181824" y1="498.0" x2="366.18181818181824" y2="502.79999999999995" stroke="#000"/>
<text x="366.18181818181824" y="512.4" fill="#111" font-size="small" font-family="monospace" font-weight="bold" text-anchor="end" transform="rotate(-60, 366.18181818181824, 512.4)">
erubi_rails
</text>
<rect x="404.6363636363637" y="329.4444333271075" width="25.636363636363637" height="168.55556667289244" fill="#7070f8" data-tooltip="1.00x baseline speed (No JIT)"/>
<line x1="404.6363636363637" y1="328.63481409987173" x2="430.2727272727273" y2="328.63481409987173" stroke="#000"/>
<line x1="404.6363636363637" y1="330.2540525543433" x2="430.2727272727273" y2="330.2540525543433" stroke="#000"/>
<line x1="417.4545454545455" y1="328.63481409987173" x2="417.4545454545455" y2="330.2540525543433" stroke="#000"/>
<rect x="430.2727272727273" y="330.4567991215853" width="25.636363636363637" height="167.5432008784147" fill="orange" data-tooltip="0.99x baseline speed (YJIT)"/>
<line x1="430.2727272727273" y1="329.3314465133937" x2="455.90909090909093" y2="329.3314465133937" stroke="#000"/>
<line x1="430.2727272727273" y1="331.5821517297768" x2="455.90909090909093" y2="331.5821517297768" stroke="#000"/>
<line x1="443.0909090909091" y1="329.3314465133937" x2="443.0909090909091" y2="331.5821517297768" stroke="#000"/>
<line x1="443.0909090909091" y1="498.0" x2="443.0909090909091" y2="502.79999999999995" stroke="#000"/>
<text x="443.0909090909091" y="512.4" fill="#111" font-size="small" font-family="monospace" font-weight="bold" text-anchor="end" transform="rotate(-60, 443.0909090909091, 512.4)">
etanni
</text>
<rect x="481.5454545454546" y="329.4444333271075" width="25.636363636363637" height="168.55556667289244" fill="#7070f8" data-tooltip="1.00x baseline speed (No JIT)"/>
<line x1="481.5454545454546" y1="329.2895860888599" x2="507.1818181818183" y2="329.2895860888599" stroke="#000"/>
<line x1="481.5454545454546" y1="329.5992805653552" x2="507.1818181818183" y2="329.5992805653552" stroke="#000"/>
<line x1="494.36363636363643" y1="329.2895860888599" x2="494.36363636363643" y2="329.5992805653552" stroke="#000"/>
<rect x="507.1818181818183" y="100.19999999999999" width="25.636363636363637" height="397.79999999999995" fill="orange" data-tooltip="2.36x baseline speed (YJIT)"/>
<line x1="507.1818181818183" y1="99.60700619502916" x2="532.818181818182" y2="99.60700619502916" stroke="#000"/>
<line x1="507.1818181818183" y1="100.79299380497082" x2="532.818181818182" y2="100.79299380497082" stroke="#000"/>
<line x1="520.0000000000001" y1="99.60700619502916" x2="520.0000000000001" y2="100.79299380497082" stroke="#000"/>
<line x1="520.0" y1="498.0" x2="520.0" y2="502.79999999999995" stroke="#000"/>
<text x="520.0" y="512.4" fill="#111" font-size="small" font-family="monospace" font-weight="bold" text-anchor="end" transform="rotate(-60, 520.0, 512.4)">
fannkuchredux
</text>
<rect x="558.4545454545454" y="329.4444333271075" width="25.636363636363637" height="168.55556667289244" fill="#7070f8" data-tooltip="1.00x baseline speed (No JIT)"/>
<line x1="558.4545454545454" y1="329.0989311570381" x2="584.0909090909091" y2="329.0989311570381" stroke="#000"/>
<line x1="558.4545454545454" y1="329.7899354971769" x2="584.0909090909091" y2="329.7899354971769" stroke="#000"/>
<line x1="571.2727272727273" y1="329.0989311570381" x2="571.2727272727273" y2="329.7899354971769" stroke="#000"/>
<rect x="584.0909090909091" y="278.9925005765971" width="25.636363636363637" height="219.00749942340286" fill="orange" data-tooltip="1.30x baseline speed (YJIT)"/>
<line x1="584.0909090909091" y1="278.5208813870552" x2="609.7272727272727" y2="278.5208813870552" stroke="#000"/>
<line x1="584.0909090909091" y1="279.46411976613894" x2="609.7272727272727" y2="279.46411976613894" stroke="#000"/>
<line x1="596.909090909091" y1="278.5208813870552" x2="596.909090909091" y2="279.46411976613894" stroke="#000"/>
<line x1="596.9090909090909" y1="498.0" x2="596.9090909090909" y2="502.79999999999995" stroke="#000"/>
<text x="596.9090909090909" y="512.4" fill="#111" font-size="small" font-family="monospace" font-weight="bold" text-anchor="end" transform="rotate(-60, 596.9090909090909, 512.4)">
lee
</text>
<rect x="635.3636363636364" y="329.4444333271075" width="25.636363636363637" height="168.55556667289244" fill="#7070f8" data-tooltip="1.00x baseline speed (No JIT)"/>
<line x1="635.3636363636364" y1="329.251394928984" x2="661.0" y2="329.251394928984" stroke="#000"/>
<line x1="635.3636363636364" y1="329.6374717252311" x2="661.0" y2="329.6374717252311" stroke="#000"/>
<line x1="648.1818181818182" y1="329.251394928984" x2="648.1818181818182" y2="329.6374717252311" stroke="#000"/>
<rect x="661.0" y="241.44000523136665" width="25.636363636363637" height="256.55999476863326" fill="orange" data-tooltip="1.52x baseline speed (YJIT)"/>
<line x1="661.0" y1="241.08319829755473" x2="686.6363636363637" y2="241.08319829755473" stroke="#000"/>
<line x1="661.0" y1="241.7968121651786" x2="686.6363636363637" y2="241.7968121651786" stroke="#000"/>
<line x1="673.8181818181819" y1="241.08319829755473" x2="673.8181818181819" y2="241.7968121651786" stroke="#000"/>
<line x1="673.8181818181818" y1="498.0" x2="673.8181818181818" y2="502.79999999999995" stroke="#000"/>
<text x="673.8181818181818" y="512.4" fill="#111" font-size="small" font-family="monospace" font-weight="bold" text-anchor="end" transform="rotate(-60, 673.8181818181818, 512.4)">
nbody
</text>
<rect x="712.2727272727273" y="329.4444333271075" width="25.636363636363637" height="168.55556667289244" fill="#7070f8" data-tooltip="1.00x baseline speed (No JIT)"/>
<line x1="712.2727272727273" y1="328.69281440117584" x2="737.909090909091" y2="328.69281440117584" stroke="#000"/>
<line x1="712.2727272727273" y1="330.1960522530392" x2="737.909090909091" y2="330.1960522530392" stroke="#000"/>
<line x1="725.0909090909091" y1="328.69281440117584" x2="725.0909090909091" y2="330.1960522530392" stroke="#000"/>
<rect x="737.909090909091" y="158.3291662545493" width="25.636363636363637" height="339.67083374545064" fill="orange" data-tooltip="2.02x baseline speed (YJIT)"/>
<line x1="737.909090909091" y1="156.29910028727815" x2="763.5454545454546" y2="156.29910028727815" stroke="#000"/>
<line x1="737.909090909091" y1="160.35923222182046" x2="763.5454545454546" y2="160.35923222182046" stroke="#000"/>
<line x1="750.7272727272727" y1="156.29910028727815" x2="750.7272727272727" y2="160.35923222182046" stroke="#000"/>
<line x1="750.7272727272726" y1="498.0" x2="750.7272727272726" y2="502.79999999999995" stroke="#000"/>
<text x="750.7272727272726" y="512.4" fill="#111" font-size="small" font-family="monospace" font-weight="bold" text-anchor="end" transform="rotate(-60, 750.7272727272726, 512.4)">
optcarrot
</text>
<rect x="789.1818181818182" y="329.4444333271075" width="25.636363636363637" height="168.55556667289244" fill="#7070f8" data-tooltip="1.00x baseline speed (No JIT)"/>
<line x1="789.1818181818182" y1="308.8364613354632" x2="814.8181818181819" y2="308.8364613354632" stroke="#000"/>
<line x1="789.1818181818182" y1="350.0524053187519" x2="814.8181818181819" y2="350.0524053187519" stroke="#000"/>
<line x1="802.0" y1="308.8364613354632" x2="802.0" y2="350.0524053187519" stroke="#000"/>
<rect x="814.8181818181819" y="316.6604584822948" width="25.636363636363637" height="181.33954151770513" fill="orange" data-tooltip="1.08x baseline speed (YJIT)"/>
<line x1="814.8181818181819" y1="280.7745407732951" x2="840.4545454545456" y2="280.7745407732951" stroke="#000"/>
<line x1="814.8181818181819" y1="352.54637619129454" x2="840.4545454545456" y2="352.54637619129454" stroke="#000"/>
<line x1="827.6363636363637" y1="280.7745407732951" x2="827.6363636363637" y2="352.54637619129454" stroke="#000"/>
<line x1="827.6363636363636" y1="498.0" x2="827.6363636363636" y2="502.79999999999995" stroke="#000"/>
<text x="827.6363636363636" y="512.4" fill="#111" font-size="small" font-family="monospace" font-weight="bold" text-anchor="end" transform="rotate(-60, 827.6363636363636, 512.4)">
ruby-lsp
</text>
<rect x="866.0909090909091" y="329.4444333271075" width="25.636363636363637" height="168.55556667289244" fill="#7070f8" data-tooltip="1.00x baseline speed (No JIT)"/>
<line x1="866.0909090909091" y1="328.75135148304844" x2="891.7272727272729" y2="328.75135148304844" stroke="#000"/>
<line x1="866.0909090909091" y1="330.13751517116657" x2="891.7272727272729" y2="330.13751517116657" stroke="#000"/>
<line x1="878.909090909091" y1="328.75135148304844" x2="878.909090909091" y2="330.13751517116657" stroke="#000"/>
<rect x="891.7272727272729" y="187.32428318442462" width="25.636363636363637" height="310.6757168155753" fill="orange" data-tooltip="1.84x baseline speed (YJIT)"/>
<line x1="891.7272727272729" y1="183.32434197794305" x2="917.3636363636365" y2="183.32434197794305" stroke="#000"/>
<line x1="891.7272727272729" y1="191.32422439090618" x2="917.3636363636365" y2="191.32422439090618" stroke="#000"/>
<line x1="904.5454545454546" y1="183.32434197794305" x2="904.5454545454546" y2="191.32422439090618" stroke="#000"/>
<line x1="904.5454545454545" y1="498.0" x2="904.5454545454545" y2="502.79999999999995" stroke="#000"/>
<text x="904.5454545454545" y="512.4" fill="#111" font-size="small" font-family="monospace" font-weight="bold" text-anchor="end" transform="rotate(-60, 904.5454545454545, 512.4)">
rubykon
</text>
</svg>