<svg viewBox="0 0 1000 600" xmlns="http://www.w3.org/2000/svg" xmlns:xlink="http://www.w3.org/1999/xlink" width="100%" height="100%">

<rect x="50.0" y="30.0" width="940.0" height="467.99999999999994" stroke="#000" fill="#EEE"/>
<line x1="42.0" y1="497.9999999999999" x2="50.0" y2="497.9999999999999" stroke="#000"/>
<text x="26.000000000000004" y="497.9999999999999" text-anchor="end" font-weight="bold" font-size="small" fill="#111">
0.0
</text>
<line x1="42.0" y1="450.9395485161417" x2="50.0" y2="450.9395485161417" stroke="#000"/>
<text x="26.000000000000004" y="450.9395485161417" text-anchor="end" font-weight="bold" font-size="small" fill="#111">
0.2
</text>
<line x1="42.0" y1="403.8790970322834" x2="50.0" y2="403.8790970322834" stroke="#000"/>
<text x="26.000000000000004" y="403.8790970322834" text-anchor="end" font-weight="bold" font-size="small" fill="#111">
0.4
</text>
<line x1="42.0" y1="356.81864554842525" x2="50.0" y2="356.81864554842525" stroke="#000"/>
<text x="26.000000000000004" y="356.81864554842525" text-anchor="end" font-weight="bold" font-size="small" fill="#111">
0.6
</text>
<line x1="42.0" y1="309.758194064567" x2="50.0" y2="309.758194064567" stroke="#000"/>
<text x="26.000000000000004" y="309.758194064567" text-anchor="end" font-weight="bold" font-size="small" fill="#111">
0.8
</text>
<line x1="42.0" y1="262.6977425807088" x2="50.0" y2="262.6977425807088" stroke="#000"/>
<text x="26.000000000000004" y="262.6977425807088" text-anchor="end" font-weight="bold" font-size="small" fill="#111">
1.0
</text>
<line x1="42.0" y1="215.63729109685056" x2="50.0" y2="215.63729109685056" stroke="#000"/>
<text x="26.000000000000004" y="215.63729109685056" text-anchor="end" font-weight="bold" font-size="small" fill="#111">
1.2
</text>
<line x1="42.0" y1="168.5768396129924" x2="50.0" y2="168.5768396129924" stroke="#000"/>
<text x="26.000000000000004" y="168.5768396129924" text-anchor="end" font-weight="bold" font-size="small" fill="#111">
1.4
</text>
<line x1="42.0" y1="121.51638812913416" x2="50.0" y2="121.51638812913416" stroke="#000"/>
<text x="26.000000000000004" y="121.51638812913416" text-anchor="end" font-weight="bold" font-size="small" fill="#111">
1.6
</text>
<rect x="268.5" y="36.00000000000001" width="80.0" height="18.0" fill="#7070f8" stroke="#888"/>
<text x="308.5" y="52.50000000000001" font-size="small" text-anchor="middle" font-weight="bold" fill="#EEE">
No JIT
</text>
<rect x="691.4999999999999" y="36.00000000000001" width="80.0" height="18.0" fill="orange" stroke="#888"/>
<text x="731.4999999999999" y="52.50000000000001" font-size="small" text-anchor="middle" font-weight="bold" fill="#EEE">
YJIT
</text>
<rect x="97.0" y="262.6977425807088" width="40.285714285714285" height="235.30225741929112" fill="#7070f8" data-tooltip="1.00x baseline speed (No JIT)"/>
<line x1="97.0" y1="261.6066100706376" x2="137.28571428571428" y2="261.6066100706376" stroke="#000"/>
<line x1="97.0" y1="263.78887509078004" x2="137.28571428571428" y2="263.78887509078004" stroke="#000"/>
<line x1="117.14285714285714" y1="261.6066100706376" x2="117.14285714285714" y2="263.78887509078004" stroke="#000"/>
<rect x="137.28571428571428" y="138.1069424648787" width="40.285714285714285" height="359.8930575351212" fill="orange" data-tooltip="1.53x baseline speed (YJIT)"/>
<line x1="137.28571428571428" y1="135.12811417698822" x2="177.57142857142858" y2="135.12811417698822" stroke="#000"/>
<line x1="137.28571428571428" y1="141.08577075276915" x2="177.57142857142858" y2="141.08577075276915" stroke="#000"/>
<line x1="157.42857142857142" y1="135.12811417698822" x2="157.42857142857142" y2="141.08577075276915" stroke="#000"/>
<line x1="157.42857142857142" y1="498.0" x2="157.42857142857142" y2="502.79999999999995" stroke="#000"/>
<text x="157.42857142857142" y="512.4" fill="#111" font-size="small" font-family="monospace" font-weight="bold" text-anchor="end" transform="rotate(-60, 157.42857142857142, 512.4)">
activerecord
</text>
<rect x="217.85714285714286" y="262.6977425807088" width="40.285714285714285" height="235.30225741929112" fill="#7070f8" data-tooltip="1.00x baseline speed (No JIT)"/>
<line x1="217.85714285714286" y1="259.5454227764266" x2="258.1428571428571" y2="259.5454227764266" stroke="#000"/>
<line x1="217.85714285714286" y1="265.850062384991" x2="258.1428571428571" y2="265.850062384991" stroke="#000"/>
<line x1="238.0" y1="259.5454227764266" x2="238.0" y2="265.850062384991" stroke="#000"/>
<rect x="258.1428571428571" y="167.8647259099547" width="40.285714285714285" height="330.13527409004524" fill="orange" data-tooltip="1.40x baseline speed (YJIT)"/>
<line x1="258.1428571428571" y1="159.61610591334642" x2="298.4285714285714" y2="159.61610591334642" stroke="#000"/>
<line x1="258.1428571428571" y1="176.113345906563" x2="298.4285714285714" y2="176.113345906563" stroke="#000"/>
<line x1="278.2857142857142" y1="159.61610591334642" x2="278.2857142857142" y2="176.113345906563" stroke="#000"/>
<line x1="278.2857142857143" y1="498.0" x2="278.2857142857143" y2="502.79999999999995" stroke="#000"/>
<text x="278.2857142857143" y="512.4" fill="#111" font-size="small" font-family="monospace" font-weight="bold" text-anchor="end" transform="rotate(-60, 278.2857142857143, 512.4)">
hexapdf
</text>
<rect x="338.7142857142857" y="262.6977425807088" width="40.285714285714285" height="235.30225741929112" fill="#7070f8" data-tooltip="1.00x baseline speed (No JIT)"/>
<line x1="338.7142857142857" y1="260.0748798990236" x2="379.0" y2="260.0748798990236" stroke="#000"/>
<line x1="338.7142857142857" y1="265.32060526239405" x2="379.0" y2="265.32060526239405" stroke="#000"/>
<line x1="358.8571428571429" y1="260.0748798990236" x2="358.8571428571429" y2="265.32060526239405" stroke="#000"/>
<rect x="379.0" y="100.19999999999999" width="40.285714285714285" height="397.79999999999995" fill="orange" data-tooltip="1.69x baseline speed (YJIT)"/>
<line x1="379.0" y1="91.13831023338737" x2="419.2857142857143" y2="91.13831023338737" stroke="#000"/>
<line x1="379.0" y1="109.2616897666126" x2="419.2857142857143" y2="109.2616897666126" stroke="#000"/>
<line x1="399.1428571428571" y1="91.13831023338737" x2="399.1428571428571" y2="109.2616897666126" stroke="#000"/>
<line x1="399.14285714285717" y1="498.0" x2="399.14285714285717" y2="502.79999999999995" stroke="#000"/>
<text x="399.14285714285717" y="512.4" fill="#111" font-size="small" font-family="monospace" font-weight="bold" text-anchor="end" transform="rotate(-60, 399.14285714285717, 512.4)">
liquid-render
</text>
<rect x="459.5714285714285" y="262.6977425807088" width="40.285714285714285" height="235.30225741929112" fill="#7070f8" data-tooltip="1.00x baseline speed (No JIT)"/>
<line x1="459.5714285714285" y1="262.3783416164045" x2="499.8571428571428" y2="262.3783416164045" stroke="#000"/>
<line x1="459.5714285714285" y1="263.01714354501314" x2="499.8571428571428" y2="263.01714354501314" stroke="#000"/>
<line x1="479.71428571428567" y1="262.3783416164045" x2="479.71428571428567" y2="263.01714354501314" stroke="#000"/>
<rect x="499.8571428571428" y="250.48757998268226" width="40.285714285714285" height="247.51242001731768" fill="orange" data-tooltip="1.05x baseline speed (YJIT)"/>
<line x1="499.8571428571428" y1="250.03239850255423" x2="540.142857142857" y2="250.03239850255423" stroke="#000"/>
<line x1="499.8571428571428" y1="250.94276146281027" x2="540.142857142857" y2="250.94276146281027" stroke="#000"/>
<line x1="519.9999999999999" y1="250.03239850255423" x2="519.9999999999999" y2="250.94276146281027" stroke="#000"/>
<line x1="519.9999999999999" y1="498.0" x2="519.9999999999999" y2="502.79999999999995" stroke="#000"/>
<text x="519.9999999999999" y="512.4" fill="#111" font-size="small" font-family="monospace" font-weight="bold" text-anchor="end" transform="rotate(-60, 519.9999999999999, 512.4)">
mail
</text>
<rect x="580.4285714285714" y="262.6977425807088" width="40.285714285714285" height="235.30225741929112" fill="#7070f8" data-tooltip="1.00x baseline speed (No JIT)"/>
<line x1="580.4285714285714" y1="262.6326687734105" x2="620.7142857142857" y2="262.6326687734105" stroke="#000"/>
<line x1="580.4285714285714" y1="262.76281638800714" x2="620.7142857142857" y2="262.76281638800714" stroke="#000"/>
<line x1="600.5714285714286" y1="262.6326687734105" x2="600.5714285714286" y2="262.76281638800714" stroke="#000"/>
<rect x="620.7142857142857" y="182.98069505515113" width="40.285714285714285" height="315.01930494484884" fill="orange" data-tooltip="1.34x baseline speed (YJIT)"/>
<line x1="620.7142857142857" y1="182.858884037714" x2="660.9999999999999" y2="182.858884037714" stroke="#000"/>
<line x1="620.7142857142857" y1="183.10250607258826" x2="660.9999999999999" y2="183.10250607258826" stroke="#000"/>
<line x1="640.8571428571428" y1="182.858884037714" x2="640.8571428571428" y2="183.10250607258826" stroke="#000"/>
<line x1="640.8571428571428" y1="498.0" x2="640.8571428571428" y2="502.79999999999995" stroke="#000"/>
<text x="640.8571428571428" y="512.4" fill="#111" font-size="small" font-family="monospace" font-weight="bold" text-anchor="end" transform="rotate(-60, 640.8571428571428, 512.4)">
psych-load
</text>
<rect x="701.2857142857143" y="262.6977425807088" width="40.285714285714285" height="235.30225741929112" fill="#7070f8" data-tooltip="1.00x baseline speed (No JIT)"/>
<line x1="701.2857142857143" y1="261.04521710213874" x2="741.5714285714286" y2="261.04521710213874" stroke="#000"/>
<line x1="701.2857142857143" y1="264.35026805927885" x2="741.5714285714286" y2="264.35026805927885" stroke="#000"/>
<line x1="721.4285714285714" y1="261.04521710213874" x2="721.4285714285714" y2="264.35026805927885" stroke="#000"/>
<rect x="741.5714285714286" y="183.2170953724083" width="40.285714285714285" height="314.7829046275917" fill="orange" data-tooltip="1.34x baseline speed (YJIT)"/>
<line x1="741.5714285714286" y1="178.48914791439168" x2="781.8571428571428" y2="178.48914791439168" stroke="#000"/>
<line x1="741.5714285714286" y1="187.94504283042488" x2="781.8571428571428" y2="187.94504283042488" stroke="#000"/>
<line x1="761.7142857142857" y1="178.48914791439168" x2="761.7142857142857" y2="187.94504283042488" stroke="#000"/>
<line x1="761.7142857142857" y1="498.0" x2="761.7142857142857" y2="502.79999999999995" stroke="#000"/>
<text x="761.7142857142857" y="512.4" fill="#111" font-size="small" font-family="monospace" font-weight="bold" text-anchor="end" transform="rotate(-60, 761.7142857142857, 512.4)">
railsbench
</text>
<rect x="822.1428571428571" y="262.6977425807088" width="40.285714285714285" height="235.30225741929112" fill="#7070f8" data-tooltip="1.00x baseline speed (No JIT)"/>
<line x1="822.1428571428571" y1="234.1521397186784" x2="862.4285714285713" y2="234.1521397186784" stroke="#000"/>
<line x1="822.1428571428571" y1="291.2433454427392" x2="862.4285714285713" y2="291.2433454427392" stroke="#000"/>
<line x1="842.2857142857142" y1="234.1521397186784" x2="842.2857142857142" y2="291.2433454427392" stroke="#000"/>
<rect x="862.4285714285713" y="244.31361014114623" width="40.285714285714285" height="253.68638985885374" fill="orange" data-tooltip="1.08x baseline speed (YJIT)"/>
<line x1="862.4285714285713" y1="180.00853376145983" x2="902.7142857142856" y2="180.00853376145983" stroke="#000"/>
<line x1="862.4285714285713" y1="308.6186865208326" x2="902.7142857142856" y2="308.6186865208326" stroke="#000"/>
<line x1="882.5714285714284" y1="180.00853376145983" x2="882.5714285714284" y2="308.6186865208326" stroke="#000"/>
<line x1="882.5714285714284" y1="498.0" x2="882.5714285714284" y2="502.79999999999995" stroke="#000"/>
<text x="882.5714285714284" y="512.4" fill="#111" font-size="small" font-family="monospace" font-weight="bold" text-anchor="end" transform="rotate(-60, 882.5714285714284, 512.4)">
ruby-lsp
</text>
</svg>