<svg viewBox="0 0 1000 600" xmlns="http://www.w3.org/2000/svg" xmlns:xlink="http://www.w3.org/1999/xlink" width="100%" height="100%">

<rect x="50.0" y="30.0" width="940.0" height="467.99999999999994" stroke="#000" fill="#EEE"/>
<line x1="42.0" y1="497.9999999999999" x2="50.0" y2="497.9999999999999" stroke="#000"/>
<text x="26.000000000000004" y="497.9999999999999" text-anchor="end" font-weight="bold" font-size="small" fill="#111">
0.0
</text>
<line x1="42.0" y1="419.71166002200937" x2="50.0" y2="419.71166002200937" stroke="#000"/>
<text x="26.000000000000004" y="419.71166002200937" text-anchor="end" font-weight="bold" font-size="small" fill="#111">
0.5
</text>
<line x1="42.0" y1="341.42332004401885" x2="50.0" y2="341.42332004401885" stroke="#000"/>
<text x="26.000000000000004" y="341.42332004401885" text-anchor="end" font-weight="bold" font-size="small" fill="#111">
1.0
</text>
<line x1="42.0" y1="263.1349800660282" x2="50.0" y2="263.1349800660282" stroke="#000"/>
<text x="26.000000000000004" y="263.1349800660282" text-anchor="end" font-weight="bold" font-size="small" fill="#111">
1.5
</text>
<line x1="42.0" y1="184.8466400880377" x2="50.0" y2="184.8466400880377" stroke="#000"/>
<text x="26.000000000000004" y="184.8466400880377" text-anchor="end" font-weight="bold" font-size="small" fill="#111">
2.0
</text>
<line x1="42.0" y1="106.55830011004713" x2="50.0" y2="106.55830011004713" stroke="#000"/>
<text x="26.000000000000004" y="106.55830011004713" text-anchor="end" font-weight="bold" font-size="small" fill="#111">
2.5
</text>
<rect x="268.5" y="36.00000000000001" width="80.0" height="18.0" fill="#7070f8" stroke="#888"/>
<text x="308.5" y="52.50000000000001" font-size="small" text-anchor="middle" font-weight="bold" fill="#EEE">
No JIT
</text>
<rect x="691.4999999999999" y="36.00000000000001" width="80.0" height="18.0" fill="orange" stroke="#888"/>
<text x="731.4999999999999" y="52.50000000000001" font-size="small" text-anchor="middle" font-weight="bold" fill="#EEE">
YJIT
</text>
<rect x="97.0" y="341.42332004401885" width="28.2" height="156.57667995598115" fill="#7070f8" data-tooltip="1.00x baseline speed (No JIT)"/>
<line x1="97.0" y1="341.2984457880142" x2="125.2" y2="341.2984457880142" stroke="#000"/>
<line x1="97.0" y1="341.54819430002357" x2="125.2" y2="341.54819430002357" stroke="#000"/>
<line x1="111.10000000000001" y1="341.2984457880142" x2="111.10000000000001" y2="341.54819430002357" stroke="#000"/>
<rect x="125.2" y="207.38004106134835" width="28.2" height="290.61995893865156" fill="orange" data-tooltip="1.86x baseline speed (YJIT)"/>
<line x1="125.2" y1="206.8343661764824" x2="153.4" y2="206.8343661764824" stroke="#000"/>
<line x1="125.2" y1="207.92571594621432" x2="153.4" y2="207.92571594621432" stroke="#000"/>
<line x1="139.3" y1="206.8343661764824" x2="139.3" y2="207.92571594621432" stroke="#000"/>
<line x1="139.3" y1="498.0" x2="139.3" y2="502.79999999999995" stroke="#000"/>
<text x="139.3" y="512.4" fill="#111" font-size="small" font-family="monospace" font-weight="bold" text-anchor="end" transform="rotate(-60, 139.3, 512.4)">
binarytrees
</text>
<rect x="181.6" y="341.42332004401885" width="28.2" height="156.57667995598115" fill="#7070f8" data-tooltip="1.00x baseline speed (No JIT)"/>
<line x1="181.6" y1="340.94111744178906" x2="209.79999999999998" y2="340.94111744178906" stroke="#000"/>
<line x1="181.6" y1="341.9055226462487" x2="209.79999999999998" y2="341.9055226462487" stroke="#000"/>
<line x1="195.7" y1="340.94111744178906" x2="195.7" y2="341.9055226462487" stroke="#000"/>
<rect x="209.79999999999998" y="269.69729538184106" width="28.2" height="228.3027046181589" fill="orange" data-tooltip="1.46x baseline speed (YJIT)"/>
<line x1="209.79999999999998" y1="268.95692863836786" x2="238.0" y2="268.95692863836786" stroke="#000"/>
<line x1="209.79999999999998" y1="270.4376621253142" x2="238.0" y2="270.4376621253142" stroke="#000"/>
<line x1="223.89999999999998" y1="268.95692863836786" x2="223.89999999999998" y2="270.4376621253142" stroke="#000"/>
<line x1="223.89999999999998" y1="498.0" x2="223.89999999999998" y2="502.79999999999995" stroke="#000"/>
<text x="223.89999999999998" y="512.4" fill="#111" font-size="small" font-family="monospace" font-weight="bold" text-anchor="end" transform="rotate(-60, 223.89999999999998, 512.4)">
chunky_png
</text>
<rect x="266.2" y="341.42332004401885" width="28.2" height="156.57667995598115" fill="#7070f8" data-tooltip="1.00x baseline speed (No JIT)"/>
<line x1="266.2" y1="339.92416367966325" x2="294.4" y2="339.92416367966325" stroke="#000"/>
<line x1="266.2" y1="342.9224764083745" x2="294.4" y2="342.9224764083745" stroke="#000"/>
<line x1="280.3" y1="339.92416367966325" x2="280.3" y2="342.9224764083745" stroke="#000"/>
<rect x="294.4" y="326.13141384657166" width="28.2" height="171.86858615342828" fill="orange" data-tooltip="1.10x baseline speed (YJIT)"/>
<line x1="294.4" y1="323.7978443101313" x2="322.6" y2="323.7978443101313" stroke="#000"/>
<line x1="294.4" y1="328.46498338301205" x2="322.6" y2="328.46498338301205" stroke="#000"/>
<line x1="308.5" y1="323.7978443101313" x2="308.5" y2="328.46498338301205" stroke="#000"/>
<line x1="308.5" y1="498.0" x2="308.5" y2="502.79999999999995" stroke="#000"/>
<text x="308.5" y="512.4" fill="#111" font-size="small" font-family="monospace" font-weight="bold" text-anchor="end" transform="rotate(-60, 308.5, 512.4)">
erubi
</text>
<rect x="350.8" y="341.42332004401885" width="28.2" height="156.57667995598115" fill="#7070f8" data-tooltip="1.00x baseline speed (No JIT)"/>
<line x1="350.8" y1="336.5944950838511" x2="379.0" y2="336.5944950838511" stroke="#000"/>
<line x1="350.8" y1="346.2521450041866" x2="379.0" y2="346.2521450041866" stroke="#000"/>
<line x1="364.9" y1="336.5944950838511" x2="364.9" y2="346.2521450041866" stroke="#000"/>
<rect x="379.0" y="305.9151537674389" width="28.2" height="192.08484623256112" fill="orange" data-tooltip="1.23x baseline speed (YJIT)"/>
<line x1="379.0" y1="298.5416368532609" x2="407.2" y2="298.5416368532609" stroke="#000"/>
<line x1="379.0" y1="313.28867068161685" x2="407.2" y2="313.28867068161685" stroke="#000"/>
<line x1="393.1" y1="298.5416368532609" x2="393.1" y2="313.28867068161685" stroke="#000"/>
<line x1="393.1" y1="498.0" x2="393.1" y2="502.79999999999995" stroke="#000"/>
<text x="393.1" y="512.4" fill="#111" font-size="small" font-family="monospace" font-weight="bold" text-anchor="end" transform="rotate(-60, 393.1, 512.4)">
erubi_rails
</text>
<rect x="435.40000000000003" y="341.42332004401885" width="28.2" height="156.57667995598115" fill="#7070f8" data-tooltip="1.00x baseline speed (No JIT)"/>
<line x1="435.40000000000003" y1="339.9730030559575" x2="463.6" y2="339.9730030559575" stroke="#000"/>
<line x1="435.40000000000003" y1="342.87363703208024" x2="463.6" y2="342.87363703208024" stroke="#000"/>
<line x1="449.5" y1="339.9730030559575" x2="449.5" y2="342.87363703208024" stroke="#000"/>
<rect x="463.6" y="337.2420736411719" width="28.2" height="160.7579263588281" fill="orange" data-tooltip="1.03x baseline speed (YJIT)"/>
<line x1="463.6" y1="335.52266692615865" x2="491.8" y2="335.52266692615865" stroke="#000"/>
<line x1="463.6" y1="338.96148035618506" x2="491.8" y2="338.96148035618506" stroke="#000"/>
<line x1="477.7" y1="335.52266692615865" x2="477.7" y2="338.96148035618506" stroke="#000"/>
<line x1="477.7" y1="498.0" x2="477.7" y2="502.79999999999995" stroke="#000"/>
<text x="477.7" y="512.4" fill="#111" font-size="small" font-family="monospace" font-weight="bold" text-anchor="end" transform="rotate(-60, 477.7, 512.4)">
etanni
</text>
<rect x="520.0" y="341.42332004401885" width="28.2" height="156.57667995598115" fill="#7070f8" data-tooltip="1.00x baseline speed (No JIT)"/>
<line x1="520.0" y1="338.7730853983345" x2="548.2" y2="338.7730853983345" stroke="#000"/>
<line x1="520.0" y1="344.07355468970326" x2="548.2" y2="344.07355468970326" stroke="#000"/>
<line x1="534.1" y1="338.7730853983345" x2="534.1" y2="344.07355468970326" stroke="#000"/>
<rect x="548.2" y="100.19999999999999" width="28.2" height="397.79999999999995" fill="orange" data-tooltip="2.54x baseline speed (YJIT)"/>
<line x1="548.2" y1="93.44441852937904" x2="576.4" y2="93.44441852937904" stroke="#000"/>
<line x1="548.2" y1="106.95558147062094" x2="576.4" y2="106.95558147062094" stroke="#000"/>
<line x1="562.3000000000001" y1="93.44441852937904" x2="562.3000000000001" y2="106.95558147062094" stroke="#000"/>
<line x1="562.3000000000001" y1="498.0" x2="562.3000000000001" y2="502.79999999999995" stroke="#000"/>
<text x="562.3000000000001" y="512.4" fill="#111" font-size="small" font-family="monospace" font-weight="bold" text-anchor="end" transform="rotate(-60, 562.3000000000001, 512.4)">
fannkuchredux
</text>
<rect x="604.5999999999999" y="341.42332004401885" width="28.2" height="156.57667995598115" fill="#7070f8" data-tooltip="1.00x baseline speed (No JIT)"/>
<line x1="604.5999999999999" y1="340.79759249167876" x2="632.8" y2="340.79759249167876" stroke="#000"/>
<line x1="604.5999999999999" y1="342.049047596359" x2="632.8" y2="342.049047596359" stroke="#000"/>
<line x1="618.6999999999999" y1="340.79759249167876" x2="618.6999999999999" y2="342.049047596359" stroke="#000"/>
<rect x="632.8" y="296.57062701901293" width="28.2" height="201.42937298098698" fill="orange" data-tooltip="1.29x baseline speed (YJIT)"/>
<line x1="632.8" y1="295.4776993946685" x2="660.9999999999999" y2="295.4776993946685" stroke="#000"/>
<line x1="632.8" y1="297.66355464335743" x2="660.9999999999999" y2="297.66355464335743" stroke="#000"/>
<line x1="646.8999999999999" y1="295.4776993946685" x2="646.8999999999999" y2="297.66355464335743" stroke="#000"/>
<line x1="646.8999999999999" y1="498.0" x2="646.8999999999999" y2="502.79999999999995" stroke="#000"/>
<text x="646.8999999999999" y="512.4" fill="#111" font-size="small" font-family="monospace" font-weight="bold" text-anchor="end" transform="rotate(-60, 646.8999999999999, 512.4)">
lee
</text>
<rect x="689.1999999999999" y="341.42332004401885" width="28.2" height="156.57667995598115" fill="#7070f8" data-tooltip="1.00x baseline speed (No JIT)"/>
<line x1="689.1999999999999" y1="339.33534287611474" x2="717.4" y2="339.33534287611474" stroke="#000"/>
<line x1="689.1999999999999" y1="343.511297211923" x2="717.4" y2="343.511297211923" stroke="#000"/>
<line x1="703.3" y1="339.33534287611474" x2="703.3" y2="343.511297211923" stroke="#000"/>
<rect x="717.4" y="265.1381350357919" width="28.2" height="232.86186496420805" fill="orange" data-tooltip="1.49x baseline speed (YJIT)"/>
<line x1="717.4" y1="262.0290548265686" x2="745.5999999999999" y2="262.0290548265686" stroke="#000"/>
<line x1="717.4" y1="268.2472152450152" x2="745.5999999999999" y2="268.2472152450152" stroke="#000"/>
<line x1="731.4999999999999" y1="262.0290548265686" x2="731.4999999999999" y2="268.2472152450152" stroke="#000"/>
<line x1="731.4999999999999" y1="498.0" x2="731.4999999999999" y2="502.79999999999995" stroke="#000"/>
<text x="731.4999999999999" y="512.4" fill="#111" font-size="small" font-family="monospace" font-weight="bold" text-anchor="end" transform="rotate(-60, 731.4999999999999, 512.4)">
nbody
</text>
<rect x="773.8" y="341.42332004401885" width="28.2" height="156.57667995598115" fill="#7070f8" data-tooltip="1.00x baseline speed (No JIT)"/>
<line x1="773.8" y1="340.87406296533294" x2="801.9999999999999" y2="340.87406296533294" stroke="#000"/>
<line x1="773.8" y1="341.9725771227048" x2="801.9999999999999" y2="341.9725771227048" stroke="#000"/>
<line x1="787.9" y1="340.87406296533294" x2="787.9" y2="341.9725771227048" stroke="#000"/>
<rect x="801.9999999999999" y="264.9124860756484" width="28.2" height="233.08751392435153" fill="orange" data-tooltip="1.49x baseline speed (YJIT)"/>
<line x1="801.9999999999999" y1="263.6141242479963" x2="830.1999999999999" y2="263.6141242479963" stroke="#000"/>
<line x1="801.9999999999999" y1="266.21084790330053" x2="830.1999999999999" y2="266.21084790330053" stroke="#000"/>
<line x1="816.0999999999999" y1="263.6141242479963" x2="816.0999999999999" y2="266.21084790330053" stroke="#000"/>
<line x1="816.0999999999999" y1="498.0" x2="816.0999999999999" y2="502.79999999999995" stroke="#000"/>
<text x="816.0999999999999" y="512.4" fill="#111" font-size="small" font-family="monospace" font-weight="bold" text-anchor="end" transform="rotate(-60, 816.0999999999999, 512.4)">
optcarrot
</text>
<rect x="858.4" y="341.42332004401885" width="28.2" height="156.57667995598115" fill="#7070f8" data-tooltip="1.00x baseline speed (No JIT)"/>
<line x1="858.4" y1="340.8491953867975" x2="886.5999999999999" y2="340.8491953867975" stroke="#000"/>
<line x1="858.4" y1="341.9974447012402" x2="886.5999999999999" y2="341.9974447012402" stroke="#000"/>
<line x1="872.4999999999999" y1="340.8491953867975" x2="872.4999999999999" y2="341.9974447012402" stroke="#000"/>
<rect x="886.5999999999999" y="270.7108145643039" width="28.2" height="227.28918543569603" fill="orange" data-tooltip="1.45x baseline speed (YJIT)"/>
<line x1="886.5999999999999" y1="269.5562553149267" x2="914.8" y2="269.5562553149267" stroke="#000"/>
<line x1="886.5999999999999" y1="271.86537381368106" x2="914.8" y2="271.86537381368106" stroke="#000"/>
<line x1="900.6999999999999" y1="269.5562553149267" x2="900.6999999999999" y2="271.86537381368106" stroke="#000"/>
<line x1="900.6999999999999" y1="498.0" x2="900.6999999999999" y2="502.79999999999995" stroke="#000"/>
<text x="900.6999999999999" y="512.4" fill="#111" font-size="small" font-family="monospace" font-weight="bold" text-anchor="end" transform="rotate(-60, 900.6999999999999, 512.4)">
rubykon
</text>
</svg>