<svg viewBox="0 0 1000 600" xmlns="http://www.w3.org/2000/svg" xmlns:xlink="http://www.w3.org/1999/xlink" width="100%" height="100%">

<rect x="50.0" y="30.0" width="940.0" height="467.99999999999994" stroke="#000" fill="#EEE"/>
<line x1="42.0" y1="497.9999999999999" x2="50.0" y2="497.9999999999999" stroke="#000"/>
<text x="26.000000000000004" y="497.9999999999999" text-anchor="end" font-weight="bold" font-size="small" fill="#111">
0.0
</text>
<line x1="42.0" y1="412.1349557680371" x2="50.0" y2="412.1349557680371" stroke="#000"/>
<text x="26.000000000000004" y="412.1349557680371" text-anchor="end" font-weight="bold" font-size="small" fill="#111">
0.5
</text>
<line x1="42.0" y1="326.26991153607423" x2="50.0" y2="326.26991153607423" stroke="#000"/>
<text x="26.000000000000004" y="326.26991153607423" text-anchor="end" font-weight="bold" font-size="small" fill="#111">
1.0
</text>
<line x1="42.0" y1="240.40486730411143" x2="50.0" y2="240.40486730411143" stroke="#000"/>
<text x="26.000000000000004" y="240.40486730411143" text-anchor="end" font-weight="bold" font-size="small" fill="#111">
1.5
</text>
<line x1="42.0" y1="154.53982307214852" x2="50.0" y2="154.53982307214852" stroke="#000"/>
<text x="26.000000000000004" y="154.53982307214852" text-anchor="end" font-weight="bold" font-size="small" fill="#111">
2.0
</text>
<rect x="268.5" y="36.00000000000001" width="80.0" height="18.0" fill="#7070f8" stroke="#888"/>
<text x="308.5" y="52.50000000000001" font-size="small" text-anchor="middle" font-weight="bold" fill="#EEE">
No JIT
</text>
<rect x="691.4999999999999" y="36.00000000000001" width="80.0" height="18.0" fill="orange" stroke="#888"/>
<text x="731.4999999999999" y="52.50000000000001" font-size="small" text-anchor="middle" font-weight="bold" fill="#EEE">
YJIT
</text>
<rect x="97.0" y="326.26991153607423" width="28.2" height="171.73008846392568" fill="#7070f8" data-tooltip="1.00x baseline speed (No JIT)"/>
<line x1="97.0" y1="326.11913415779145" x2="125.2" y2="326.11913415779145" stroke="#000"/>
<line x1="97.0" y1="326.4206889143571" x2="125.2" y2="326.4206889143571" stroke="#000"/>
<line x1="111.10000000000001" y1="326.11913415779145" x2="111.10000000000001" y2="326.4206889143571" stroke="#000"/>
<rect x="125.2" y="158.4147614054536" width="28.2" height="339.5852385945463" fill="orange" data-tooltip="1.98x baseline speed (YJIT)"/>
<line x1="125.2" y1="158.0552602470173" x2="153.4" y2="158.0552602470173" stroke="#000"/>
<line x1="125.2" y1="158.7742625638899" x2="153.4" y2="158.7742625638899" stroke="#000"/>
<line x1="139.3" y1="158.0552602470173" x2="139.3" y2="158.7742625638899" stroke="#000"/>
<line x1="139.3" y1="498.0" x2="139.3" y2="502.79999999999995" stroke="#000"/>
<text x="139.3" y="512.4" fill="#111" font-size="small" font-family="monospace" font-weight="bold" text-anchor="end" transform="rotate(-60, 139.3, 512.4)">
binarytrees
</text>
<rect x="181.6" y="326.26991153607423" width="28.2" height="171.73008846392568" fill="#7070f8" data-tooltip="1.00x baseline speed (No JIT)"/>
<line x1="181.6" y1="326.08905624813485" x2="209.79999999999998" y2="326.08905624813485" stroke="#000"/>
<line x1="181.6" y1="326.4507668240136" x2="209.79999999999998" y2="326.4507668240136" stroke="#000"/>
<line x1="195.7" y1="326.08905624813485" x2="195.7" y2="326.4507668240136" stroke="#000"/>
<rect x="209.79999999999998" y="237.89638359364073" width="28.2" height="260.10361640635915" fill="orange" data-tooltip="1.51x baseline speed (YJIT)"/>
<line x1="209.79999999999998" y1="237.59489215289744" x2="238.0" y2="237.59489215289744" stroke="#000"/>
<line x1="209.79999999999998" y1="238.19787503438405" x2="238.0" y2="238.19787503438405" stroke="#000"/>
<line x1="223.89999999999998" y1="237.59489215289744" x2="223.89999999999998" y2="238.19787503438405" stroke="#000"/>
<line x1="223.89999999999998" y1="498.0" x2="223.89999999999998" y2="502.79999999999995" stroke="#000"/>
<text x="223.89999999999998" y="512.4" fill="#111" font-size="small" font-family="monospace" font-weight="bold" text-anchor="end" transform="rotate(-60, 223.89999999999998, 512.4)">
chunky_png
</text>
<rect x="266.2" y="326.26991153607423" width="28.2" height="171.73008846392568" fill="#7070f8" data-tooltip="1.00x baseline speed (No JIT)"/>
<line x1="266.2" y1="325.0495532350776" x2="294.4" y2="325.0495532350776" stroke="#000"/>
<line x1="266.2" y1="327.4902698370709" x2="294.4" y2="327.4902698370709" stroke="#000"/>
<line x1="280.3" y1="325.0495532350776" x2="280.3" y2="327.4902698370709" stroke="#000"/>
<rect x="294.4" y="300.64774886283584" width="28.2" height="197.35225113716405" fill="orange" data-tooltip="1.15x baseline speed (YJIT)"/>
<line x1="294.4" y1="298.5315595294558" x2="322.6" y2="298.5315595294558" stroke="#000"/>
<line x1="294.4" y1="302.7639381962159" x2="322.6" y2="302.7639381962159" stroke="#000"/>
<line x1="308.5" y1="298.5315595294558" x2="308.5" y2="302.7639381962159" stroke="#000"/>
<line x1="308.5" y1="498.0" x2="308.5" y2="502.79999999999995" stroke="#000"/>
<text x="308.5" y="512.4" fill="#111" font-size="small" font-family="monospace" font-weight="bold" text-anchor="end" transform="rotate(-60, 308.5, 512.4)">
erubi
</text>
<rect x="350.8" y="326.26991153607423" width="28.2" height="171.73008846392568" fill="#7070f8" data-tooltip="1.00x baseline speed (No JIT)"/>
<line x1="350.8" y1="321.3991504835949" x2="379.0" y2="321.3991504835949" stroke="#000"/>
<line x1="350.8" y1="331.1406725885536" x2="379.0" y2="331.1406725885536" stroke="#000"/>
<line x1="364.9" y1="321.3991504835949" x2="364.9" y2="331.1406725885536" stroke="#000"/>
<rect x="379.0" y="241.69291146870376" width="28.2" height="256.3070885312962" fill="orange" data-tooltip="1.49x baseline speed (YJIT)"/>
<line x1="379.0" y1="229.1923126973428" x2="407.2" y2="229.1923126973428" stroke="#000"/>
<line x1="379.0" y1="254.1935102400647" x2="407.2" y2="254.1935102400647" stroke="#000"/>
<line x1="393.1" y1="229.1923126973428" x2="393.1" y2="254.1935102400647" stroke="#000"/>
<line x1="393.1" y1="498.0" x2="393.1" y2="502.79999999999995" stroke="#000"/>
<text x="393.1" y="512.4" fill="#111" font-size="small" font-family="monospace" font-weight="bold" text-anchor="end" transform="rotate(-60, 393.1, 512.4)">
erubi_rails
</text>
<rect x="435.40000000000003" y="326.26991153607423" width="28.2" height="171.73008846392568" fill="#7070f8" data-tooltip="1.00x baseline speed (No JIT)"/>
<line x1="435.40000000000003" y1="325.4734953799345" x2="463.6" y2="325.4734953799345" stroke="#000"/>
<line x1="435.40000000000003" y1="327.06632769221403" x2="463.6" y2="327.06632769221403" stroke="#000"/>
<line x1="449.5" y1="325.4734953799345" x2="449.5" y2="327.06632769221403" stroke="#000"/>
<rect x="463.6" y="328.7715121924863" width="28.2" height="169.22848780751366" fill="orange" data-tooltip="0.99x baseline speed (YJIT)"/>
<line x1="463.6" y1="327.61149865090033" x2="491.8" y2="327.61149865090033" stroke="#000"/>
<line x1="463.6" y1="329.9315257340722" x2="491.8" y2="329.9315257340722" stroke="#000"/>
<line x1="477.7" y1="327.61149865090033" x2="477.7" y2="329.9315257340722" stroke="#000"/>
<line x1="477.7" y1="498.0" x2="477.7" y2="502.79999999999995" stroke="#000"/>
<text x="477.7" y="512.4" fill="#111" font-size="small" font-family="monospace" font-weight="bold" text-anchor="end" transform="rotate(-60, 477.7, 512.4)">
etanni
</text>
<rect x="520.0" y="326.26991153607423" width="28.2" height="171.73008846392568" fill="#7070f8" data-tooltip="1.00x baseline speed (No JIT)"/>
<line x1="520.0" y1="326.10856081316655" x2="548.2" y2="326.10856081316655" stroke="#000"/>
<line x1="520.0" y1="326.431262258982" x2="548.2" y2="326.431262258982" stroke="#000"/>
<line x1="534.1" y1="326.10856081316655" x2="534.1" y2="326.431262258982" stroke="#000"/>
<rect x="548.2" y="100.19999999999999" width="28.2" height="397.79999999999995" fill="orange" data-tooltip="2.32x baseline speed (YJIT)"/>
<line x1="548.2" y1="99.26475276867279" x2="576.4" y2="99.26475276867279" stroke="#000"/>
<line x1="548.2" y1="101.13524723132718" x2="576.4" y2="101.13524723132718" stroke="#000"/>
<line x1="562.3000000000001" y1="99.26475276867279" x2="562.3000000000001" y2="101.13524723132718" stroke="#000"/>
<line x1="562.3000000000001" y1="498.0" x2="562.3000000000001" y2="502.79999999999995" stroke="#000"/>
<text x="562.3000000000001" y="512.4" fill="#111" font-size="small" font-family="monospace" font-weight="bold" text-anchor="end" transform="rotate(-60, 562.3000000000001, 512.4)">
fannkuchredux
</text>
<rect x="604.5999999999999" y="326.26991153607423" width="28.2" height="171.73008846392568" fill="#7070f8" data-tooltip="1.00x baseline speed (No JIT)"/>
<line x1="604.5999999999999" y1="323.9257352734701" x2="632.8" y2="323.9257352734701" stroke="#000"/>
<line x1="604.5999999999999" y1="328.6140877986784" x2="632.8" y2="328.6140877986784" stroke="#000"/>
<line x1="618.6999999999999" y1="323.9257352734701" x2="618.6999999999999" y2="328.6140877986784" stroke="#000"/>
<rect x="632.8" y="265.8558996711338" width="28.2" height="232.14410032886616" fill="orange" data-tooltip="1.35x baseline speed (YJIT)"/>
<line x1="632.8" y1="262.6832210607676" x2="660.9999999999999" y2="262.6832210607676" stroke="#000"/>
<line x1="632.8" y1="269.02857828149996" x2="660.9999999999999" y2="269.02857828149996" stroke="#000"/>
<line x1="646.8999999999999" y1="262.6832210607676" x2="646.8999999999999" y2="269.02857828149996" stroke="#000"/>
<line x1="646.8999999999999" y1="498.0" x2="646.8999999999999" y2="502.79999999999995" stroke="#000"/>
<text x="646.8999999999999" y="512.4" fill="#111" font-size="small" font-family="monospace" font-weight="bold" text-anchor="end" transform="rotate(-60, 646.8999999999999, 512.4)">
lee
</text>
<rect x="689.1999999999999" y="326.26991153607423" width="28.2" height="171.73008846392568" fill="#7070f8" data-tooltip="1.00x baseline speed (No JIT)"/>
<line x1="689.1999999999999" y1="326.18961195647216" x2="717.4" y2="326.18961195647216" stroke="#000"/>
<line x1="689.1999999999999" y1="326.35021111567636" x2="717.4" y2="326.35021111567636" stroke="#000"/>
<line x1="703.3" y1="326.18961195647216" x2="703.3" y2="326.35021111567636" stroke="#000"/>
<rect x="717.4" y="204.45985411155658" width="28.2" height="293.54014588844336" fill="orange" data-tooltip="1.71x baseline speed (YJIT)"/>
<line x1="717.4" y1="204.25687229582226" x2="745.5999999999999" y2="204.25687229582226" stroke="#000"/>
<line x1="717.4" y1="204.66283592729087" x2="745.5999999999999" y2="204.66283592729087" stroke="#000"/>
<line x1="731.4999999999999" y1="204.25687229582226" x2="731.4999999999999" y2="204.66283592729087" stroke="#000"/>
<line x1="731.4999999999999" y1="498.0" x2="731.4999999999999" y2="502.79999999999995" stroke="#000"/>
<text x="731.4999999999999" y="512.4" fill="#111" font-size="small" font-family="monospace" font-weight="bold" text-anchor="end" transform="rotate(-60, 731.4999999999999, 512.4)">
nbody
</text>
<rect x="773.8" y="326.26991153607423" width="28.2" height="171.73008846392568" fill="#7070f8" data-tooltip="1.00x baseline speed (No JIT)"/>
<line x1="773.8" y1="325.56138720909456" x2="801.9999999999999" y2="325.56138720909456" stroke="#000"/>
<line x1="773.8" y1="326.9784358630539" x2="801.9999999999999" y2="326.9784358630539" stroke="#000"/>
<line x1="787.9" y1="325.56138720909456" x2="787.9" y2="326.9784358630539" stroke="#000"/>
<rect x="801.9999999999999" y="112.24142483432628" width="28.2" height="385.7585751656736" fill="orange" data-tooltip="2.25x baseline speed (YJIT)"/>
<line x1="801.9999999999999" y1="110.029818864254" x2="830.1999999999999" y2="110.029818864254" stroke="#000"/>
<line x1="801.9999999999999" y1="114.45303080439857" x2="830.1999999999999" y2="114.45303080439857" stroke="#000"/>
<line x1="816.0999999999999" y1="110.029818864254" x2="816.0999999999999" y2="114.45303080439857" stroke="#000"/>
<line x1="816.0999999999999" y1="498.0" x2="816.0999999999999" y2="502.79999999999995" stroke="#000"/>
<text x="816.0999999999999" y="512.4" fill="#111" font-size="small" font-family="monospace" font-weight="bold" text-anchor="end" transform="rotate(-60, 816.0999999999999, 512.4)">
optcarrot
</text>
<rect x="858.4" y="326.26991153607423" width="28.2" height="171.73008846392568" fill="#7070f8" data-tooltip="1.00x baseline speed (No JIT)"/>
<line x1="858.4" y1="324.7640319470674" x2="886.5999999999999" y2="324.7640319470674" stroke="#000"/>
<line x1="858.4" y1="327.77579112508107" x2="886.5999999999999" y2="327.77579112508107" stroke="#000"/>
<line x1="872.4999999999999" y1="324.7640319470674" x2="872.4999999999999" y2="327.77579112508107" stroke="#000"/>
<rect x="886.5999999999999" y="162.42989924083892" width="28.2" height="335.57010075916105" fill="orange" data-tooltip="1.95x baseline speed (YJIT)"/>
<line x1="886.5999999999999" y1="159.2311060621812" x2="914.8" y2="159.2311060621812" stroke="#000"/>
<line x1="886.5999999999999" y1="165.62869241949664" x2="914.8" y2="165.62869241949664" stroke="#000"/>
<line x1="900.6999999999999" y1="159.2311060621812" x2="900.6999999999999" y2="165.62869241949664" stroke="#000"/>
<line x1="900.6999999999999" y1="498.0" x2="900.6999999999999" y2="502.79999999999995" stroke="#000"/>
<text x="900.6999999999999" y="512.4" fill="#111" font-size="small" font-family="monospace" font-weight="bold" text-anchor="end" transform="rotate(-60, 900.6999999999999, 512.4)">
rubykon
</text>
</svg>