<svg viewBox="0 0 1000 600" xmlns="http://www.w3.org/2000/svg" xmlns:xlink="http://www.w3.org/1999/xlink" width="100%" height="100%">

<rect x="50.0" y="30.0" width="940.0" height="467.99999999999994" stroke="#000" fill="#EEE"/>
<line x1="42.0" y1="497.9999999999999" x2="50.0" y2="497.9999999999999" stroke="#000"/>
<text x="26.000000000000004" y="497.9999999999999" text-anchor="end" font-weight="bold" font-size="small" fill="#111">
0.0
</text>
<line x1="42.0" y1="444.1858137542221" x2="50.0" y2="444.1858137542221" stroke="#000"/>
<text x="26.000000000000004" y="444.1858137542221" text-anchor="end" font-weight="bold" font-size="small" fill="#111">
1.0
</text>
<line x1="42.0" y1="390.3716275084443" x2="50.0" y2="390.3716275084443" stroke="#000"/>
<text x="26.000000000000004" y="390.3716275084443" text-anchor="end" font-weight="bold" font-size="small" fill="#111">
2.0
</text>
<line x1="42.0" y1="336.55744126266654" x2="50.0" y2="336.55744126266654" stroke="#000"/>
<text x="26.000000000000004" y="336.55744126266654" text-anchor="end" font-weight="bold" font-size="small" fill="#111">
3.0
</text>
<line x1="42.0" y1="282.7432550168887" x2="50.0" y2="282.7432550168887" stroke="#000"/>
<text x="26.000000000000004" y="282.7432550168887" text-anchor="end" font-weight="bold" font-size="small" fill="#111">
4.0
</text>
<line x1="42.0" y1="228.92906877111093" x2="50.0" y2="228.92906877111093" stroke="#000"/>
<text x="26.000000000000004" y="228.92906877111093" text-anchor="end" font-weight="bold" font-size="small" fill="#111">
5.0
</text>
<line x1="42.0" y1="175.11488252533314" x2="50.0" y2="175.11488252533314" stroke="#000"/>
<text x="26.000000000000004" y="175.11488252533314" text-anchor="end" font-weight="bold" font-size="small" fill="#111">
6.0
</text>
<line x1="42.0" y1="121.30069627955531" x2="50.0" y2="121.30069627955531" stroke="#000"/>
<text x="26.000000000000004" y="121.30069627955531" text-anchor="end" font-weight="bold" font-size="small" fill="#111">
7.0
</text>
<rect x="197.99999999999997" y="36.00000000000001" width="80.0" height="18.0" fill="#7070f8" stroke="#888"/>
<text x="238.0" y="52.50000000000001" font-size="small" text-anchor="middle" font-weight="bold" fill="#EEE">
No JIT
</text>
<rect x="479.99999999999994" y="36.00000000000001" width="80.0" height="18.0" fill="orange" stroke="#888"/>
<text x="519.9999999999999" y="52.50000000000001" font-size="small" text-anchor="middle" font-weight="bold" fill="#EEE">
MJIT
</text>
<rect x="761.9999999999999" y="36.00000000000001" width="80.0" height="18.0" fill="green" stroke="#888"/>
<text x="801.9999999999999" y="52.50000000000001" font-size="small" text-anchor="middle" font-weight="bold" fill="#EEE">
YJIT
</text>
<rect x="97.0" y="444.1858137542221" width="8.8125" height="53.814186245777805" fill="#7070f8" data-tooltip="1.00x baseline speed (No JIT)"/>
<line x1="97.0" y1="443.9972717628555" x2="105.8125" y2="443.9972717628555" stroke="#000"/>
<line x1="97.0" y1="444.3743557455888" x2="105.8125" y2="444.3743557455888" stroke="#000"/>
<line x1="101.40625" y1="443.9972717628555" x2="101.40625" y2="444.3743557455888" stroke="#000"/>
<rect x="105.8125" y="444.70923197146186" width="8.8125" height="53.29076802853805" fill="orange" data-tooltip="0.99x baseline speed (MJIT)"/>
<line x1="105.8125" y1="444.4515035560376" x2="114.625" y2="444.4515035560376" stroke="#000"/>
<line x1="105.8125" y1="444.96696038688617" x2="114.625" y2="444.96696038688617" stroke="#000"/>
<line x1="110.21875" y1="444.4515035560376" x2="110.21875" y2="444.96696038688617" stroke="#000"/>
<rect x="114.625" y="418.72622387316613" width="8.8125" height="79.27377612683384" fill="green" data-tooltip="1.47x baseline speed (YJIT)"/>
<line x1="114.625" y1="418.1923255026567" x2="123.4375" y2="418.1923255026567" stroke="#000"/>
<line x1="114.625" y1="419.26012224367565" x2="123.4375" y2="419.26012224367565" stroke="#000"/>
<line x1="119.03125" y1="418.1923255026567" x2="119.03125" y2="419.26012224367565" stroke="#000"/>
<line x1="114.625" y1="498.0" x2="114.625" y2="502.79999999999995" stroke="#000"/>
<text x="114.625" y="512.4" fill="#111" font-size="small" font-family="monospace" font-weight="bold" text-anchor="end" transform="rotate(-60, 114.625, 512.4)">
activerecord
</text>
<rect x="132.25" y="444.1858137542221" width="8.8125" height="53.814186245777805" fill="#7070f8" data-tooltip="1.00x baseline speed (No JIT)"/>
<line x1="132.25" y1="443.70543293843576" x2="141.0625" y2="443.70543293843576" stroke="#000"/>
<line x1="132.25" y1="444.66619457000854" x2="141.0625" y2="444.66619457000854" stroke="#000"/>
<line x1="136.65625" y1="443.70543293843576" x2="136.65625" y2="444.66619457000854" stroke="#000"/>
<rect x="149.875" y="423.7781793065313" width="8.8125" height="74.2218206934687" fill="green" data-tooltip="1.38x baseline speed (YJIT)"/>
<line x1="149.875" y1="421.79645390106384" x2="158.6875" y2="421.79645390106384" stroke="#000"/>
<line x1="149.875" y1="425.7599047119988" x2="158.6875" y2="425.7599047119988" stroke="#000"/>
<line x1="154.28125" y1="421.79645390106384" x2="154.28125" y2="425.7599047119988" stroke="#000"/>
<line x1="149.875" y1="498.0" x2="149.875" y2="502.79999999999995" stroke="#000"/>
<text x="149.875" y="512.4" fill="#111" font-size="small" font-family="monospace" font-weight="bold" text-anchor="end" transform="rotate(-60, 149.875, 512.4)">
hexapdf
</text>
<rect x="167.49999999999997" y="444.1858137542221" width="8.8125" height="53.814186245777805" fill="#7070f8" data-tooltip="1.00x baseline speed (No JIT)"/>
<line x1="167.49999999999997" y1="443.6763190247592" x2="176.31249999999997" y2="443.6763190247592" stroke="#000"/>
<line x1="167.49999999999997" y1="444.6953084836851" x2="176.31249999999997" y2="444.6953084836851" stroke="#000"/>
<line x1="171.90624999999997" y1="443.6763190247592" x2="171.90624999999997" y2="444.6953084836851" stroke="#000"/>
<rect x="176.31249999999997" y="436.0040481604748" width="8.8125" height="61.99595183952513" fill="orange" data-tooltip="1.15x baseline speed (MJIT)"/>
<line x1="176.31249999999997" y1="434.81369145209067" x2="185.12499999999997" y2="434.81369145209067" stroke="#000"/>
<line x1="176.31249999999997" y1="437.1944048688589" x2="185.12499999999997" y2="437.1944048688589" stroke="#000"/>
<line x1="180.71874999999997" y1="434.81369145209067" x2="180.71874999999997" y2="437.1944048688589" stroke="#000"/>
<rect x="185.12499999999997" y="413.87211626832834" width="8.8125" height="84.12788373167156" fill="green" data-tooltip="1.56x baseline speed (YJIT)"/>
<line x1="185.12499999999997" y1="412.26044378215005" x2="193.93749999999997" y2="412.26044378215005" stroke="#000"/>
<line x1="185.12499999999997" y1="415.4837887545067" x2="193.93749999999997" y2="415.4837887545067" stroke="#000"/>
<line x1="189.53124999999997" y1="412.26044378215005" x2="189.53124999999997" y2="415.4837887545067" stroke="#000"/>
<line x1="185.12499999999997" y1="498.0" x2="185.12499999999997" y2="502.79999999999995" stroke="#000"/>
<text x="185.12499999999997" y="512.4" fill="#111" font-size="small" font-family="monospace" font-weight="bold" text-anchor="end" transform="rotate(-60, 185.12499999999997, 512.4)">
liquid-render
</text>
<rect x="202.75" y="444.1858137542221" width="8.8125" height="53.814186245777805" fill="#7070f8" data-tooltip="1.00x baseline speed (No JIT)"/>
<line x1="202.75" y1="444.09373796354674" x2="211.5625" y2="444.09373796354674" stroke="#000"/>
<line x1="202.75" y1="444.27788954489756" x2="211.5625" y2="444.27788954489756" stroke="#000"/>
<line x1="207.15625" y1="444.09373796354674" x2="207.15625" y2="444.27788954489756" stroke="#000"/>
<rect x="211.5625" y="443.32096564687345" width="8.8125" height="54.67903435312648" fill="orange" data-tooltip="1.02x baseline speed (MJIT)"/>
<line x1="211.5625" y1="442.478593707721" x2="220.375" y2="442.478593707721" stroke="#000"/>
<line x1="211.5625" y1="444.16333758602593" x2="220.375" y2="444.16333758602593" stroke="#000"/>
<line x1="215.96875" y1="442.478593707721" x2="215.96875" y2="444.16333758602593" stroke="#000"/>
<rect x="220.375" y="437.0286897656501" width="8.8125" height="60.971310234349886" fill="green" data-tooltip="1.13x baseline speed (YJIT)"/>
<line x1="220.375" y1="436.879915371183" x2="229.1875" y2="436.879915371183" stroke="#000"/>
<line x1="220.375" y1="437.17746416011715" x2="229.1875" y2="437.17746416011715" stroke="#000"/>
<line x1="224.78125" y1="436.879915371183" x2="224.78125" y2="437.17746416011715" stroke="#000"/>
<line x1="220.375" y1="498.0" x2="220.375" y2="502.79999999999995" stroke="#000"/>
<text x="220.375" y="512.4" fill="#111" font-size="small" font-family="monospace" font-weight="bold" text-anchor="end" transform="rotate(-60, 220.375, 512.4)">
mail
</text>
<rect x="238.0" y="444.1858137542221" width="8.8125" height="53.814186245777805" fill="#7070f8" data-tooltip="1.00x baseline speed (No JIT)"/>
<line x1="238.0" y1="444.1446685029356" x2="246.8125" y2="444.1446685029356" stroke="#000"/>
<line x1="238.0" y1="444.22695900550866" x2="246.8125" y2="444.22695900550866" stroke="#000"/>
<line x1="242.40625" y1="444.1446685029356" x2="242.40625" y2="444.22695900550866" stroke="#000"/>
<rect x="246.8125" y="436.3813076670284" width="8.8125" height="61.61869233297146" fill="orange" data-tooltip="1.15x baseline speed (MJIT)"/>
<line x1="246.8125" y1="436.33356927176925" x2="255.625" y2="436.33356927176925" stroke="#000"/>
<line x1="246.8125" y1="436.4290460622876" x2="255.625" y2="436.4290460622876" stroke="#000"/>
<line x1="251.21875" y1="436.33356927176925" x2="251.21875" y2="436.4290460622876" stroke="#000"/>
<rect x="255.625" y="427.9238851657886" width="8.8125" height="70.07611483421131" fill="green" data-tooltip="1.30x baseline speed (YJIT)"/>
<line x1="255.625" y1="427.86864694185283" x2="264.4375" y2="427.86864694185283" stroke="#000"/>
<line x1="255.625" y1="427.97912338972435" x2="264.4375" y2="427.97912338972435" stroke="#000"/>
<line x1="260.03125" y1="427.86864694185283" x2="260.03125" y2="427.97912338972435" stroke="#000"/>
<line x1="255.625" y1="498.0" x2="255.625" y2="502.79999999999995" stroke="#000"/>
<text x="255.625" y="512.4" fill="#111" font-size="small" font-family="monospace" font-weight="bold" text-anchor="end" transform="rotate(-60, 255.625, 512.4)">
psych-load
</text>
<rect x="273.25" y="444.1858137542221" width="8.8125" height="53.814186245777805" fill="#7070f8" data-tooltip="1.00x baseline speed (No JIT)"/>
<line x1="273.25" y1="443.85189105810053" x2="282.0625" y2="443.85189105810053" stroke="#000"/>
<line x1="273.25" y1="444.51973645034377" x2="282.0625" y2="444.51973645034377" stroke="#000"/>
<line x1="277.65625" y1="443.85189105810053" x2="277.65625" y2="444.51973645034377" stroke="#000"/>
<rect x="282.0625" y="444.43351719466085" width="8.8125" height="53.56648280533907" fill="orange" data-tooltip="1.00x baseline speed (MJIT)"/>
<line x1="282.0625" y1="444.0041149162577" x2="290.875" y2="444.0041149162577" stroke="#000"/>
<line x1="282.0625" y1="444.862919473064" x2="290.875" y2="444.862919473064" stroke="#000"/>
<line x1="286.46875" y1="444.0041149162577" x2="286.46875" y2="444.862919473064" stroke="#000"/>
<rect x="290.875" y="425.60150585311607" width="8.8125" height="72.39849414688386" fill="green" data-tooltip="1.35x baseline speed (YJIT)"/>
<line x1="290.875" y1="424.96156846860913" x2="299.6875" y2="424.96156846860913" stroke="#000"/>
<line x1="290.875" y1="426.241443237623" x2="299.6875" y2="426.241443237623" stroke="#000"/>
<line x1="295.28125" y1="424.96156846860913" x2="295.28125" y2="426.241443237623" stroke="#000"/>
<line x1="290.875" y1="498.0" x2="290.875" y2="502.79999999999995" stroke="#000"/>
<text x="290.875" y="512.4" fill="#111" font-size="small" font-family="monospace" font-weight="bold" text-anchor="end" transform="rotate(-60, 290.875, 512.4)">
railsbench
</text>
<rect x="308.5" y="444.1858137542221" width="8.8125" height="53.814186245777805" fill="#7070f8" data-tooltip="1.00x baseline speed (No JIT)"/>
<line x1="308.5" y1="444.164264106086" x2="317.3125" y2="444.164264106086" stroke="#000"/>
<line x1="308.5" y1="444.2073634023583" x2="317.3125" y2="444.2073634023583" stroke="#000"/>
<line x1="312.90625" y1="444.164264106086" x2="312.90625" y2="444.2073634023583" stroke="#000"/>
<rect x="317.3125" y="414.70263441170016" width="8.8125" height="83.29736558829981" fill="orange" data-tooltip="1.55x baseline speed (MJIT)"/>
<line x1="317.3125" y1="414.4251961776943" x2="326.125" y2="414.4251961776943" stroke="#000"/>
<line x1="317.3125" y1="414.980072645706" x2="326.125" y2="414.980072645706" stroke="#000"/>
<line x1="321.71875" y1="414.4251961776943" x2="321.71875" y2="414.980072645706" stroke="#000"/>
<rect x="326.125" y="427.5763102190338" width="8.8125" height="70.42368978096611" fill="green" data-tooltip="1.31x baseline speed (YJIT)"/>
<line x1="326.125" y1="427.5295384572711" x2="334.9375" y2="427.5295384572711" stroke="#000"/>
<line x1="326.125" y1="427.6230819807966" x2="334.9375" y2="427.6230819807966" stroke="#000"/>
<line x1="330.53125" y1="427.5295384572711" x2="330.53125" y2="427.6230819807966" stroke="#000"/>
<line x1="326.125" y1="498.0" x2="326.125" y2="502.79999999999995" stroke="#000"/>
<text x="326.125" y="512.4" fill="#111" font-size="small" font-family="monospace" font-weight="bold" text-anchor="end" transform="rotate(-60, 326.125, 512.4)">
binarytrees
</text>
<rect x="343.75" y="444.1858137542221" width="8.8125" height="53.814186245777805" fill="#7070f8" data-tooltip="1.00x baseline speed (No JIT)"/>
<line x1="343.75" y1="444.1449024145852" x2="352.5625" y2="444.1449024145852" stroke="#000"/>
<line x1="343.75" y1="444.2267250938591" x2="352.5625" y2="444.2267250938591" stroke="#000"/>
<line x1="348.15625" y1="444.1449024145852" x2="348.15625" y2="444.2267250938591" stroke="#000"/>
<rect x="352.5625" y="431.6370423091587" width="8.8125" height="66.3629576908412" fill="orange" data-tooltip="1.23x baseline speed (MJIT)"/>
<line x1="352.5625" y1="431.38788179643626" x2="361.375" y2="431.38788179643626" stroke="#000"/>
<line x1="352.5625" y1="431.88620282188117" x2="361.375" y2="431.88620282188117" stroke="#000"/>
<line x1="356.96875" y1="431.38788179643626" x2="356.96875" y2="431.88620282188117" stroke="#000"/>
<rect x="361.375" y="419.2998464918052" width="8.8125" height="78.70015350819466" fill="green" data-tooltip="1.46x baseline speed (YJIT)"/>
<line x1="361.375" y1="419.2219360241796" x2="370.1875" y2="419.2219360241796" stroke="#000"/>
<line x1="361.375" y1="419.3777569594308" x2="370.1875" y2="419.3777569594308" stroke="#000"/>
<line x1="365.78125" y1="419.2219360241796" x2="365.78125" y2="419.3777569594308" stroke="#000"/>
<line x1="361.375" y1="498.0" x2="361.375" y2="502.79999999999995" stroke="#000"/>
<text x="361.375" y="512.4" fill="#111" font-size="small" font-family="monospace" font-weight="bold" text-anchor="end" transform="rotate(-60, 361.375, 512.4)">
chunky_png
</text>
<rect x="379.0" y="444.1858137542221" width="8.8125" height="53.814186245777805" fill="#7070f8" data-tooltip="1.00x baseline speed (No JIT)"/>
<line x1="379.0" y1="443.93308304900745" x2="387.8125" y2="443.93308304900745" stroke="#000"/>
<line x1="379.0" y1="444.43854445943686" x2="387.8125" y2="444.43854445943686" stroke="#000"/>
<line x1="383.40625" y1="443.93308304900745" x2="383.40625" y2="444.43854445943686" stroke="#000"/>
<rect x="387.8125" y="439.931965985545" width="8.8125" height="58.06803401445493" fill="orange" data-tooltip="1.08x baseline speed (MJIT)"/>
<line x1="387.8125" y1="439.4805428498069" x2="396.625" y2="439.4805428498069" stroke="#000"/>
<line x1="387.8125" y1="440.3833891212831" x2="396.625" y2="440.3833891212831" stroke="#000"/>
<line x1="392.21875" y1="439.4805428498069" x2="392.21875" y2="440.3833891212831" stroke="#000"/>
<rect x="396.625" y="435.9064170815653" width="8.8125" height="62.093582918434684" fill="green" data-tooltip="1.15x baseline speed (YJIT)"/>
<line x1="396.625" y1="435.4188706904785" x2="405.4375" y2="435.4188706904785" stroke="#000"/>
<line x1="396.625" y1="436.39396347265205" x2="405.4375" y2="436.39396347265205" stroke="#000"/>
<line x1="401.03125" y1="435.4188706904785" x2="401.03125" y2="436.39396347265205" stroke="#000"/>
<line x1="396.625" y1="498.0" x2="396.625" y2="502.79999999999995" stroke="#000"/>
<text x="396.625" y="512.4" fill="#111" font-size="small" font-family="monospace" font-weight="bold" text-anchor="end" transform="rotate(-60, 396.625, 512.4)">
erubi
</text>
<rect x="414.25" y="444.1858137542221" width="8.8125" height="53.814186245777805" fill="#7070f8" data-tooltip="1.00x baseline speed (No JIT)"/>
<line x1="414.25" y1="442.6649519249766" x2="423.0625" y2="442.6649519249766" stroke="#000"/>
<line x1="414.25" y1="445.7066755834677" x2="423.0625" y2="445.7066755834677" stroke="#000"/>
<line x1="418.65625" y1="442.6649519249766" x2="418.65625" y2="445.7066755834677" stroke="#000"/>
<rect x="423.0625" y="444.34104681316796" width="8.8125" height="53.658953186831965" fill="orange" data-tooltip="1.00x baseline speed (MJIT)"/>
<line x1="423.0625" y1="442.3080654920305" x2="431.875" y2="442.3080654920305" stroke="#000"/>
<line x1="423.0625" y1="446.37402813430543" x2="431.875" y2="446.37402813430543" stroke="#000"/>
<line x1="427.46875" y1="442.3080654920305" x2="427.46875" y2="446.37402813430543" stroke="#000"/>
<rect x="431.875" y="424.5423622878138" width="8.8125" height="73.4576377121862" fill="green" data-tooltip="1.37x baseline speed (YJIT)"/>
<line x1="431.875" y1="421.19487098054555" x2="440.6875" y2="421.19487098054555" stroke="#000"/>
<line x1="431.875" y1="427.889853595082" x2="440.6875" y2="427.889853595082" stroke="#000"/>
<line x1="436.28125" y1="421.19487098054555" x2="436.28125" y2="427.889853595082" stroke="#000"/>
<line x1="431.875" y1="498.0" x2="431.875" y2="502.79999999999995" stroke="#000"/>
<text x="431.875" y="512.4" fill="#111" font-size="small" font-family="monospace" font-weight="bold" text-anchor="end" transform="rotate(-60, 431.875, 512.4)">
erubi_rails
</text>
<rect x="449.5" y="444.1858137542221" width="8.8125" height="53.814186245777805" fill="#7070f8" data-tooltip="1.00x baseline speed (No JIT)"/>
<line x1="449.5" y1="444.00092387178734" x2="458.3125" y2="444.00092387178734" stroke="#000"/>
<line x1="449.5" y1="444.37070363665697" x2="458.3125" y2="444.37070363665697" stroke="#000"/>
<line x1="453.90625" y1="444.00092387178734" x2="453.90625" y2="444.37070363665697" stroke="#000"/>
<rect x="458.3125" y="412.7835163482219" width="8.8125" height="85.21648365177809" fill="orange" data-tooltip="1.58x baseline speed (MJIT)"/>
<line x1="458.3125" y1="411.8856319653561" x2="467.125" y2="411.8856319653561" stroke="#000"/>
<line x1="458.3125" y1="413.6814007310877" x2="467.125" y2="413.6814007310877" stroke="#000"/>
<line x1="462.71875" y1="411.8856319653561" x2="462.71875" y2="413.6814007310877" stroke="#000"/>
<rect x="467.125" y="433.83218566536056" width="8.8125" height="64.16781433463936" fill="green" data-tooltip="1.19x baseline speed (YJIT)"/>
<line x1="467.125" y1="433.4583084714638" x2="475.9375" y2="433.4583084714638" stroke="#000"/>
<line x1="467.125" y1="434.2060628592573" x2="475.9375" y2="434.2060628592573" stroke="#000"/>
<line x1="471.53125" y1="433.4583084714638" x2="471.53125" y2="434.2060628592573" stroke="#000"/>
<line x1="467.125" y1="498.0" x2="467.125" y2="502.79999999999995" stroke="#000"/>
<text x="467.125" y="512.4" fill="#111" font-size="small" font-family="monospace" font-weight="bold" text-anchor="end" transform="rotate(-60, 467.125, 512.4)">
fannkuchredux
</text>
<rect x="484.75" y="444.1858137542221" width="8.8125" height="53.814186245777805" fill="#7070f8" data-tooltip="1.00x baseline speed (No JIT)"/>
<line x1="484.75" y1="443.8941176558543" x2="493.5625" y2="443.8941176558543" stroke="#000"/>
<line x1="484.75" y1="444.47750985259" x2="493.5625" y2="444.47750985259" stroke="#000"/>
<line x1="489.15625" y1="443.8941176558543" x2="489.15625" y2="444.47750985259" stroke="#000"/>
<rect x="493.5625" y="431.9575708495239" width="8.8125" height="66.04242915047608" fill="orange" data-tooltip="1.23x baseline speed (MJIT)"/>
<line x1="493.5625" y1="431.41253420345356" x2="502.375" y2="431.41253420345356" stroke="#000"/>
<line x1="493.5625" y1="432.50260749559425" x2="502.375" y2="432.50260749559425" stroke="#000"/>
<line x1="497.96875" y1="431.41253420345356" x2="497.96875" y2="432.50260749559425" stroke="#000"/>
<rect x="502.375" y="424.95891366026075" width="8.8125" height="73.04108633973927" fill="green" data-tooltip="1.36x baseline speed (YJIT)"/>
<line x1="502.375" y1="424.3029838378531" x2="511.1875" y2="424.3029838378531" stroke="#000"/>
<line x1="502.375" y1="425.61484348266833" x2="511.1875" y2="425.61484348266833" stroke="#000"/>
<line x1="506.78124999999994" y1="424.3029838378531" x2="506.78124999999994" y2="425.61484348266833" stroke="#000"/>
<line x1="502.375" y1="498.0" x2="502.375" y2="502.79999999999995" stroke="#000"/>
<text x="502.375" y="512.4" fill="#111" font-size="small" font-family="monospace" font-weight="bold" text-anchor="end" transform="rotate(-60, 502.375, 512.4)">
lee
</text>
<rect x="519.9999999999999" y="444.1858137542221" width="8.8125" height="53.814186245777805" fill="#7070f8" data-tooltip="1.00x baseline speed (No JIT)"/>
<line x1="519.9999999999999" y1="444.09375755998406" x2="528.8124999999999" y2="444.09375755998406" stroke="#000"/>
<line x1="519.9999999999999" y1="444.2778699484602" x2="528.8124999999999" y2="444.2778699484602" stroke="#000"/>
<line x1="524.4062499999999" y1="444.09375755998406" x2="524.4062499999999" y2="444.2778699484602" stroke="#000"/>
<rect x="528.8124999999999" y="411.21873108323325" width="8.8125" height="86.7812689167667" fill="orange" data-tooltip="1.61x baseline speed (MJIT)"/>
<line x1="528.8124999999999" y1="410.9491804834015" x2="537.6249999999999" y2="410.9491804834015" stroke="#000"/>
<line x1="528.8124999999999" y1="411.48828168306505" x2="537.6249999999999" y2="411.48828168306505" stroke="#000"/>
<line x1="533.2187499999999" y1="410.9491804834015" x2="533.2187499999999" y2="411.48828168306505" stroke="#000"/>
<rect x="537.6249999999999" y="423.8740217134047" width="8.8125" height="74.12597828659526" fill="green" data-tooltip="1.38x baseline speed (YJIT)"/>
<line x1="537.6249999999999" y1="423.73444594945863" x2="546.4374999999999" y2="423.73444594945863" stroke="#000"/>
<line x1="537.6249999999999" y1="424.0135974773508" x2="546.4374999999999" y2="424.0135974773508" stroke="#000"/>
<line x1="542.0312499999999" y1="423.73444594945863" x2="542.0312499999999" y2="424.0135974773508" stroke="#000"/>
<line x1="537.6249999999999" y1="498.0" x2="537.6249999999999" y2="502.79999999999995" stroke="#000"/>
<text x="537.6249999999999" y="512.4" fill="#111" font-size="small" font-family="monospace" font-weight="bold" text-anchor="end" transform="rotate(-60, 537.6249999999999, 512.4)">
nbody
</text>
<rect x="555.2499999999999" y="444.1858137542221" width="8.8125" height="53.814186245777805" fill="#7070f8" data-tooltip="1.00x baseline speed (No JIT)"/>
<line x1="555.2499999999999" y1="443.9628229621178" x2="564.0624999999999" y2="443.9628229621178" stroke="#000"/>
<line x1="555.2499999999999" y1="444.4088045463265" x2="564.0624999999999" y2="444.4088045463265" stroke="#000"/>
<line x1="559.6562499999999" y1="443.9628229621178" x2="559.6562499999999" y2="444.4088045463265" stroke="#000"/>
<rect x="564.0624999999999" y="373.81048606328926" width="8.8125" height="124.18951393671068" fill="orange" data-tooltip="2.31x baseline speed (MJIT)"/>
<line x1="564.0624999999999" y1="372.87560456709366" x2="572.8749999999999" y2="372.87560456709366" stroke="#000"/>
<line x1="564.0624999999999" y1="374.7453675594849" x2="572.8749999999999" y2="374.7453675594849" stroke="#000"/>
<line x1="568.4687499999999" y1="372.87560456709366" x2="568.4687499999999" y2="374.7453675594849" stroke="#000"/>
<rect x="572.8749999999999" y="403.1674967149882" width="8.8125" height="94.83250328501168" fill="green" data-tooltip="1.76x baseline speed (YJIT)"/>
<line x1="572.8749999999999" y1="402.41402440952527" x2="581.6874999999999" y2="402.41402440952527" stroke="#000"/>
<line x1="572.8749999999999" y1="403.92096902045114" x2="581.6874999999999" y2="403.92096902045114" stroke="#000"/>
<line x1="577.2812499999999" y1="402.41402440952527" x2="577.2812499999999" y2="403.92096902045114" stroke="#000"/>
<line x1="572.8749999999999" y1="498.0" x2="572.8749999999999" y2="502.79999999999995" stroke="#000"/>
<text x="572.8749999999999" y="512.4" fill="#111" font-size="small" font-family="monospace" font-weight="bold" text-anchor="end" transform="rotate(-60, 572.8749999999999, 512.4)">
optcarrot
</text>
<rect x="590.4999999999999" y="444.1858137542221" width="8.8125" height="53.814186245777805" fill="#7070f8" data-tooltip="1.00x baseline speed (No JIT)"/>
<line x1="590.4999999999999" y1="443.972949130729" x2="599.3124999999999" y2="443.972949130729" stroke="#000"/>
<line x1="590.4999999999999" y1="444.3986783777153" x2="599.3124999999999" y2="444.3986783777153" stroke="#000"/>
<line x1="594.9062499999999" y1="443.972949130729" x2="594.9062499999999" y2="444.3986783777153" stroke="#000"/>
<rect x="599.3124999999999" y="412.34935302444325" width="8.8125" height="85.65064697555674" fill="orange" data-tooltip="1.59x baseline speed (MJIT)"/>
<line x1="599.3124999999999" y1="411.59251896077325" x2="608.1249999999999" y2="411.59251896077325" stroke="#000"/>
<line x1="599.3124999999999" y1="413.1061870881132" x2="608.1249999999999" y2="413.1061870881132" stroke="#000"/>
<line x1="603.7187499999999" y1="411.59251896077325" x2="603.7187499999999" y2="413.1061870881132" stroke="#000"/>
<rect x="608.1249999999999" y="397.010713688147" width="8.8125" height="100.98928631185296" fill="green" data-tooltip="1.88x baseline speed (YJIT)"/>
<line x1="608.1249999999999" y1="396.42209272697784" x2="616.9374999999999" y2="396.42209272697784" stroke="#000"/>
<line x1="608.1249999999999" y1="397.59933464931623" x2="616.9374999999999" y2="397.59933464931623" stroke="#000"/>
<line x1="612.5312499999999" y1="396.42209272697784" x2="612.5312499999999" y2="397.59933464931623" stroke="#000"/>
<line x1="608.1249999999999" y1="498.0" x2="608.1249999999999" y2="502.79999999999995" stroke="#000"/>
<text x="608.1249999999999" y="512.4" fill="#111" font-size="small" font-family="monospace" font-weight="bold" text-anchor="end" transform="rotate(-60, 608.1249999999999, 512.4)">
rubykon
</text>
<rect x="625.7499999999999" y="444.1858137542221" width="8.8125" height="53.814186245777805" fill="#7070f8" data-tooltip="1.00x baseline speed (No JIT)"/>
<line x1="625.7499999999999" y1="444.16519597737806" x2="634.5624999999999" y2="444.16519597737806" stroke="#000"/>
<line x1="625.7499999999999" y1="444.20643153106624" x2="634.5624999999999" y2="444.20643153106624" stroke="#000"/>
<line x1="630.1562499999999" y1="444.16519597737806" x2="630.1562499999999" y2="444.20643153106624" stroke="#000"/>
<rect x="634.5624999999999" y="465.9774122977486" width="8.8125" height="32.022587702251364" fill="orange" data-tooltip="0.60x baseline speed (MJIT)"/>
<line x1="634.5624999999999" y1="464.2209806471023" x2="643.3749999999999" y2="464.2209806471023" stroke="#000"/>
<line x1="634.5624999999999" y1="467.73384394839485" x2="643.3749999999999" y2="467.73384394839485" stroke="#000"/>
<line x1="638.9687499999999" y1="464.2209806471023" x2="638.9687499999999" y2="467.73384394839485" stroke="#000"/>
<rect x="643.3749999999999" y="158.42782438958963" width="8.8125" height="339.5721756104103" fill="green" data-tooltip="6.31x baseline speed (YJIT)"/>
<line x1="643.3749999999999" y1="158.1337660854588" x2="652.1874999999999" y2="158.1337660854588" stroke="#000"/>
<line x1="643.3749999999999" y1="158.7218826937205" x2="652.1874999999999" y2="158.7218826937205" stroke="#000"/>
<line x1="647.7812499999999" y1="158.1337660854588" x2="647.7812499999999" y2="158.7218826937205" stroke="#000"/>
<line x1="643.3749999999999" y1="498.0" x2="643.3749999999999" y2="502.79999999999995" stroke="#000"/>
<text x="643.3749999999999" y="512.4" fill="#111" font-size="small" font-family="monospace" font-weight="bold" text-anchor="end" transform="rotate(-60, 643.3749999999999, 512.4)">
30k_ifelse
</text>
<rect x="660.9999999999999" y="444.1858137542221" width="8.8125" height="53.814186245777805" fill="#7070f8" data-tooltip="1.00x baseline speed (No JIT)"/>
<line x1="660.9999999999999" y1="444.17955382807503" x2="669.8124999999999" y2="444.17955382807503" stroke="#000"/>
<line x1="660.9999999999999" y1="444.1920736803693" x2="669.8124999999999" y2="444.1920736803693" stroke="#000"/>
<line x1="665.4062499999999" y1="444.17955382807503" x2="665.4062499999999" y2="444.1920736803693" stroke="#000"/>
<rect x="669.8124999999999" y="462.64574662878573" width="8.8125" height="35.35425337121419" fill="orange" data-tooltip="0.66x baseline speed (MJIT)"/>
<line x1="669.8124999999999" y1="456.0182613708367" x2="678.6249999999999" y2="456.0182613708367" stroke="#000"/>
<line x1="669.8124999999999" y1="469.2732318867347" x2="678.6249999999999" y2="469.2732318867347" stroke="#000"/>
<line x1="674.2187499999999" y1="456.0182613708367" x2="674.2187499999999" y2="469.2732318867347" stroke="#000"/>
<rect x="678.6249999999999" y="100.19999999999999" width="8.8125" height="397.79999999999995" fill="green" data-tooltip="7.39x baseline speed (YJIT)"/>
<line x1="678.6249999999999" y1="100.1111700615927" x2="687.4374999999999" y2="100.1111700615927" stroke="#000"/>
<line x1="678.6249999999999" y1="100.28882993840728" x2="687.4374999999999" y2="100.28882993840728" stroke="#000"/>
<line x1="683.0312499999999" y1="100.1111700615927" x2="683.0312499999999" y2="100.28882993840728" stroke="#000"/>
<line x1="678.6249999999999" y1="498.0" x2="678.6249999999999" y2="502.79999999999995" stroke="#000"/>
<text x="678.6249999999999" y="512.4" fill="#111" font-size="small" font-family="monospace" font-weight="bold" text-anchor="end" transform="rotate(-60, 678.6249999999999, 512.4)">
30k_methods
</text>
<rect x="696.2499999999999" y="444.1858137542221" width="8.8125" height="53.814186245777805" fill="#7070f8" data-tooltip="1.00x baseline speed (No JIT)"/>
<line x1="696.2499999999999" y1="444.0906119032879" x2="705.0624999999999" y2="444.0906119032879" stroke="#000"/>
<line x1="696.2499999999999" y1="444.2810156051564" x2="705.0624999999999" y2="444.2810156051564" stroke="#000"/>
<line x1="700.6562499999999" y1="444.0906119032879" x2="700.6562499999999" y2="444.2810156051564" stroke="#000"/>
<rect x="705.0624999999999" y="420.1423820083431" width="8.8125" height="77.85761799165688" fill="orange" data-tooltip="1.45x baseline speed (MJIT)"/>
<line x1="705.0624999999999" y1="419.7970648669335" x2="713.8749999999999" y2="419.7970648669335" stroke="#000"/>
<line x1="705.0624999999999" y1="420.4876991497526" x2="713.8749999999999" y2="420.4876991497526" stroke="#000"/>
<line x1="709.4687499999999" y1="419.7970648669335" x2="709.4687499999999" y2="420.4876991497526" stroke="#000"/>
<rect x="713.8749999999999" y="377.05022971775315" width="8.8125" height="120.94977028224679" fill="green" data-tooltip="2.25x baseline speed (YJIT)"/>
<line x1="713.8749999999999" y1="376.3864799883438" x2="722.6874999999999" y2="376.3864799883438" stroke="#000"/>
<line x1="713.8749999999999" y1="377.71397944716244" x2="722.6874999999999" y2="377.71397944716244" stroke="#000"/>
<line x1="718.2812499999999" y1="376.3864799883438" x2="718.2812499999999" y2="377.71397944716244" stroke="#000"/>
<line x1="713.8749999999999" y1="498.0" x2="713.8749999999999" y2="502.79999999999995" stroke="#000"/>
<text x="713.8749999999999" y="512.4" fill="#111" font-size="small" font-family="monospace" font-weight="bold" text-anchor="end" transform="rotate(-60, 713.8749999999999, 512.4)">
cfunc_itself
</text>
<rect x="731.4999999999999" y="444.1858137542221" width="8.8125" height="53.814186245777805" fill="#7070f8" data-tooltip="1.00x baseline speed (No JIT)"/>
<line x1="731.4999999999999" y1="444.15577939221004" x2="740.3124999999999" y2="444.15577939221004" stroke="#000"/>
<line x1="731.4999999999999" y1="444.21584811623427" x2="740.3124999999999" y2="444.21584811623427" stroke="#000"/>
<line x1="735.9062499999999" y1="444.15577939221004" x2="735.9062499999999" y2="444.21584811623427" stroke="#000"/>
<rect x="740.3124999999999" y="335.98312932877815" width="8.8125" height="162.0168706712218" fill="orange" data-tooltip="3.01x baseline speed (MJIT)"/>
<line x1="740.3124999999999" y1="335.6540466328588" x2="749.1249999999999" y2="335.6540466328588" stroke="#000"/>
<line x1="740.3124999999999" y1="336.3122120246975" x2="749.1249999999999" y2="336.3122120246975" stroke="#000"/>
<line x1="744.7187499999999" y1="335.6540466328588" x2="744.7187499999999" y2="336.3122120246975" stroke="#000"/>
<rect x="749.1249999999999" y="277.36083070771656" width="8.8125" height="220.6391692922834" fill="green" data-tooltip="4.10x baseline speed (YJIT)"/>
<line x1="749.1249999999999" y1="277.2102056377535" x2="757.9374999999999" y2="277.2102056377535" stroke="#000"/>
<line x1="749.1249999999999" y1="277.51145577767954" x2="757.9374999999999" y2="277.51145577767954" stroke="#000"/>
<line x1="753.5312499999999" y1="277.2102056377535" x2="753.5312499999999" y2="277.51145577767954" stroke="#000"/>
<line x1="749.1249999999999" y1="498.0" x2="749.1249999999999" y2="502.79999999999995" stroke="#000"/>
<text x="749.1249999999999" y="512.4" fill="#111" font-size="small" font-family="monospace" font-weight="bold" text-anchor="end" transform="rotate(-60, 749.1249999999999, 512.4)">
fib
</text>
<rect x="766.7499999999999" y="444.1858137542221" width="8.8125" height="53.814186245777805" fill="#7070f8" data-tooltip="1.00x baseline speed (No JIT)"/>
<line x1="766.7499999999999" y1="443.66463128323517" x2="775.5624999999999" y2="443.66463128323517" stroke="#000"/>
<line x1="766.7499999999999" y1="444.70699622520914" x2="775.5624999999999" y2="444.70699622520914" stroke="#000"/>
<line x1="771.1562499999999" y1="443.66463128323517" x2="771.1562499999999" y2="444.70699622520914" stroke="#000"/>
<rect x="775.5624999999999" y="328.98102258056855" width="8.8125" height="169.01897741943134" fill="orange" data-tooltip="3.14x baseline speed (MJIT)"/>
<line x1="775.5624999999999" y1="235.0183015460074" x2="784.3749999999999" y2="235.0183015460074" stroke="#000"/>
<line x1="775.5624999999999" y1="422.94374361512973" x2="784.3749999999999" y2="422.94374361512973" stroke="#000"/>
<line x1="779.9687499999999" y1="235.0183015460074" x2="779.9687499999999" y2="422.94374361512973" stroke="#000"/>
<rect x="784.3749999999999" y="371.2995587095771" width="8.8125" height="126.70044129042284" fill="green" data-tooltip="2.35x baseline speed (YJIT)"/>
<line x1="784.3749999999999" y1="370.0604702897178" x2="793.1874999999999" y2="370.0604702897178" stroke="#000"/>
<line x1="784.3749999999999" y1="372.53864712943647" x2="793.1874999999999" y2="372.53864712943647" stroke="#000"/>
<line x1="788.7812499999999" y1="370.0604702897178" x2="788.7812499999999" y2="372.53864712943647" stroke="#000"/>
<line x1="784.3749999999999" y1="498.0" x2="784.3749999999999" y2="502.79999999999995" stroke="#000"/>
<text x="784.3749999999999" y="512.4" fill="#111" font-size="small" font-family="monospace" font-weight="bold" text-anchor="end" transform="rotate(-60, 784.3749999999999, 512.4)">
getivar
</text>
<rect x="801.9999999999999" y="444.1858137542221" width="8.8125" height="53.814186245777805" fill="#7070f8" data-tooltip="1.00x baseline speed (No JIT)"/>
<line x1="801.9999999999999" y1="444.1203268602109" x2="810.8124999999999" y2="444.1203268602109" stroke="#000"/>
<line x1="801.9999999999999" y1="444.2513006482333" x2="810.8124999999999" y2="444.2513006482333" stroke="#000"/>
<line x1="806.4062499999999" y1="444.1203268602109" x2="806.4062499999999" y2="444.2513006482333" stroke="#000"/>
<rect x="810.8124999999999" y="428.51475850607454" width="8.8125" height="69.48524149392544" fill="orange" data-tooltip="1.29x baseline speed (MJIT)"/>
<line x1="810.8124999999999" y1="427.90596191881946" x2="819.6249999999999" y2="427.90596191881946" stroke="#000"/>
<line x1="810.8124999999999" y1="429.1235550933296" x2="819.6249999999999" y2="429.1235550933296" stroke="#000"/>
<line x1="815.2187499999999" y1="427.90596191881946" x2="815.2187499999999" y2="429.1235550933296" stroke="#000"/>
<rect x="819.6249999999999" y="201.8880378275927" width="8.8125" height="296.1119621724072" fill="green" data-tooltip="5.50x baseline speed (YJIT)"/>
<line x1="819.6249999999999" y1="200.99384888227388" x2="828.4374999999999" y2="200.99384888227388" stroke="#000"/>
<line x1="819.6249999999999" y1="202.78222677291157" x2="828.4374999999999" y2="202.78222677291157" stroke="#000"/>
<line x1="824.0312499999999" y1="200.99384888227388" x2="824.0312499999999" y2="202.78222677291157" stroke="#000"/>
<line x1="819.6249999999999" y1="498.0" x2="819.6249999999999" y2="502.79999999999995" stroke="#000"/>
<text x="819.6249999999999" y="512.4" fill="#111" font-size="small" font-family="monospace" font-weight="bold" text-anchor="end" transform="rotate(-60, 819.6249999999999, 512.4)">
keyword_args
</text>
<rect x="837.2499999999999" y="444.1858137542221" width="8.8125" height="53.814186245777805" fill="#7070f8" data-tooltip="1.00x baseline speed (No JIT)"/>
<line x1="837.2499999999999" y1="444.11569233985415" x2="846.0624999999999" y2="444.11569233985415" stroke="#000"/>
<line x1="837.2499999999999" y1="444.25593516859016" x2="846.0624999999999" y2="444.25593516859016" stroke="#000"/>
<line x1="841.6562499999999" y1="444.11569233985415" x2="841.6562499999999" y2="444.25593516859016" stroke="#000"/>
<rect x="846.0624999999999" y="434.0595734427449" width="8.8125" height="63.94042655725496" fill="orange" data-tooltip="1.19x baseline speed (MJIT)"/>
<line x1="846.0624999999999" y1="433.67674312507785" x2="854.8749999999999" y2="433.67674312507785" stroke="#000"/>
<line x1="846.0624999999999" y1="434.442403760412" x2="854.8749999999999" y2="434.442403760412" stroke="#000"/>
<line x1="850.4687499999999" y1="433.67674312507785" x2="850.4687499999999" y2="434.442403760412" stroke="#000"/>
<rect x="854.8749999999999" y="419.35281960279576" width="8.8125" height="78.64718039720425" fill="green" data-tooltip="1.46x baseline speed (YJIT)"/>
<line x1="854.8749999999999" y1="419.13303526400847" x2="863.6874999999999" y2="419.13303526400847" stroke="#000"/>
<line x1="854.8749999999999" y1="419.57260394158305" x2="863.6874999999999" y2="419.57260394158305" stroke="#000"/>
<line x1="859.2812499999999" y1="419.13303526400847" x2="859.2812499999999" y2="419.57260394158305" stroke="#000"/>
<line x1="854.8749999999999" y1="498.0" x2="854.8749999999999" y2="502.79999999999995" stroke="#000"/>
<text x="854.8749999999999" y="512.4" fill="#111" font-size="small" font-family="monospace" font-weight="bold" text-anchor="end" transform="rotate(-60, 854.8749999999999, 512.4)">
respond_to
</text>
<rect x="872.4999999999999" y="444.1858137542221" width="8.8125" height="53.814186245777805" fill="#7070f8" data-tooltip="1.00x baseline speed (No JIT)"/>
<line x1="872.4999999999999" y1="444.14965875725807" x2="881.3125" y2="444.14965875725807" stroke="#000"/>
<line x1="872.4999999999999" y1="444.22196875118624" x2="881.3125" y2="444.22196875118624" stroke="#000"/>
<line x1="876.9062499999999" y1="444.14965875725807" x2="876.9062499999999" y2="444.22196875118624" stroke="#000"/>
<rect x="881.3125" y="307.44134086106965" width="8.8125" height="190.55865913893032" fill="orange" data-tooltip="3.54x baseline speed (MJIT)"/>
<line x1="881.3125" y1="186.43450056418362" x2="890.125" y2="186.43450056418362" stroke="#000"/>
<line x1="881.3125" y1="428.4481811579556" x2="890.125" y2="428.4481811579556" stroke="#000"/>
<line x1="885.7187499999999" y1="186.43450056418362" x2="885.7187499999999" y2="428.4481811579556" stroke="#000"/>
<rect x="890.125" y="401.80308542345523" width="8.8125" height="96.19691457654473" fill="green" data-tooltip="1.79x baseline speed (YJIT)"/>
<line x1="890.125" y1="401.2713558634252" x2="898.9375" y2="401.2713558634252" stroke="#000"/>
<line x1="890.125" y1="402.33481498348533" x2="898.9375" y2="402.33481498348533" stroke="#000"/>
<line x1="894.5312499999999" y1="401.2713558634252" x2="894.5312499999999" y2="402.33481498348533" stroke="#000"/>
<line x1="890.125" y1="498.0" x2="890.125" y2="502.79999999999995" stroke="#000"/>
<text x="890.125" y="512.4" fill="#111" font-size="small" font-family="monospace" font-weight="bold" text-anchor="end" transform="rotate(-60, 890.125, 512.4)">
setivar
</text>
<rect x="907.75" y="444.1858137542221" width="8.8125" height="53.814186245777805" fill="#7070f8" data-tooltip="1.00x baseline speed (No JIT)"/>
<line x1="907.75" y1="443.78452618090125" x2="916.5625" y2="443.78452618090125" stroke="#000"/>
<line x1="907.75" y1="444.58710132754305" x2="916.5625" y2="444.58710132754305" stroke="#000"/>
<line x1="912.1562499999999" y1="443.78452618090125" x2="912.1562499999999" y2="444.58710132754305" stroke="#000"/>
<rect x="916.5625" y="425.14858101857203" width="8.8125" height="72.85141898142788" fill="orange" data-tooltip="1.35x baseline speed (MJIT)"/>
<line x1="916.5625" y1="424.2740115540279" x2="925.375" y2="424.2740115540279" stroke="#000"/>
<line x1="916.5625" y1="426.02315048311624" x2="925.375" y2="426.02315048311624" stroke="#000"/>
<line x1="920.9687499999999" y1="424.2740115540279" x2="920.9687499999999" y2="426.02315048311624" stroke="#000"/>
<rect x="925.375" y="375.3287811716133" width="8.8125" height="122.67121882838661" fill="green" data-tooltip="2.28x baseline speed (YJIT)"/>
<line x1="925.375" y1="373.4261022195682" x2="934.1875" y2="373.4261022195682" stroke="#000"/>
<line x1="925.375" y1="377.2314601236584" x2="934.1875" y2="377.2314601236584" stroke="#000"/>
<line x1="929.7812499999999" y1="373.4261022195682" x2="929.7812499999999" y2="377.2314601236584" stroke="#000"/>
<line x1="925.375" y1="498.0" x2="925.375" y2="502.79999999999995" stroke="#000"/>
<text x="925.375" y="512.4" fill="#111" font-size="small" font-family="monospace" font-weight="bold" text-anchor="end" transform="rotate(-60, 925.375, 512.4)">
str_concat
</text>
</svg>