<svg viewBox="0 0 1000 600" xmlns="http://www.w3.org/2000/svg" xmlns:xlink="http://www.w3.org/1999/xlink" width="100%" height="100%">

<rect x="50.0" y="30.0" width="940.0" height="467.99999999999994" stroke="#000" fill="#EEE"/>
<line x1="42.0" y1="497.9999999999999" x2="50.0" y2="497.9999999999999" stroke="#000"/>
<text x="26.000000000000004" y="497.9999999999999" text-anchor="end" font-weight="bold" font-size="small" fill="#111">
0.0
</text>
<line x1="42.0" y1="444.56359774987516" x2="50.0" y2="444.56359774987516" stroke="#000"/>
<text x="26.000000000000004" y="444.56359774987516" text-anchor="end" font-weight="bold" font-size="small" fill="#111">
1.0
</text>
<line x1="42.0" y1="391.12719549975026" x2="50.0" y2="391.12719549975026" stroke="#000"/>
<text x="26.000000000000004" y="391.12719549975026" text-anchor="end" font-weight="bold" font-size="small" fill="#111">
2.0
</text>
<line x1="42.0" y1="337.6907932496254" x2="50.0" y2="337.6907932496254" stroke="#000"/>
<text x="26.000000000000004" y="337.6907932496254" text-anchor="end" font-weight="bold" font-size="small" fill="#111">
3.0
</text>
<line x1="42.0" y1="284.25439099950063" x2="50.0" y2="284.25439099950063" stroke="#000"/>
<text x="26.000000000000004" y="284.25439099950063" text-anchor="end" font-weight="bold" font-size="small" fill="#111">
4.0
</text>
<line x1="42.0" y1="230.8179887493758" x2="50.0" y2="230.8179887493758" stroke="#000"/>
<text x="26.000000000000004" y="230.8179887493758" text-anchor="end" font-weight="bold" font-size="small" fill="#111">
5.0
</text>
<line x1="42.0" y1="177.38158649925094" x2="50.0" y2="177.38158649925094" stroke="#000"/>
<text x="26.000000000000004" y="177.38158649925094" text-anchor="end" font-weight="bold" font-size="small" fill="#111">
6.0
</text>
<line x1="42.0" y1="123.94518424912613" x2="50.0" y2="123.94518424912613" stroke="#000"/>
<text x="26.000000000000004" y="123.94518424912613" text-anchor="end" font-weight="bold" font-size="small" fill="#111">
7.0
</text>
<rect x="197.99999999999997" y="36.00000000000001" width="80.0" height="18.0" fill="#7070f8" stroke="#888"/>
<text x="238.0" y="52.50000000000001" font-size="small" text-anchor="middle" font-weight="bold" fill="#EEE">
No JIT
</text>
<rect x="479.99999999999994" y="36.00000000000001" width="80.0" height="18.0" fill="orange" stroke="#888"/>
<text x="519.9999999999999" y="52.50000000000001" font-size="small" text-anchor="middle" font-weight="bold" fill="#EEE">
MJIT
</text>
<rect x="761.9999999999999" y="36.00000000000001" width="80.0" height="18.0" fill="green" stroke="#888"/>
<text x="801.9999999999999" y="52.50000000000001" font-size="small" text-anchor="middle" font-weight="bold" fill="#EEE">
YJIT
</text>
<rect x="97.0" y="444.56359774987516" width="8.46" height="53.43640225012483" fill="#7070f8" data-tooltip="1.00x baseline speed (No JIT)"/>
<line x1="97.0" y1="444.10797795454226" x2="105.46" y2="444.10797795454226" stroke="#000"/>
<line x1="97.0" y1="445.01921754520805" x2="105.46" y2="445.01921754520805" stroke="#000"/>
<line x1="101.23" y1="444.10797795454226" x2="101.23" y2="445.01921754520805" stroke="#000"/>
<rect x="105.46" y="451.4595612061572" width="8.46" height="46.54043879384269" fill="orange" data-tooltip="0.87x baseline speed (MJIT)"/>
<line x1="105.46" y1="449.85245193711285" x2="113.91999999999999" y2="449.85245193711285" stroke="#000"/>
<line x1="105.46" y1="453.06667047520165" x2="113.91999999999999" y2="453.06667047520165" stroke="#000"/>
<line x1="109.69" y1="449.85245193711285" x2="109.69" y2="453.06667047520165" stroke="#000"/>
<rect x="113.92" y="420.8717789558722" width="8.46" height="77.12822104412776" fill="green" data-tooltip="1.44x baseline speed (YJIT)"/>
<line x1="113.92" y1="420.1002106285927" x2="122.38000000000001" y2="420.1002106285927" stroke="#000"/>
<line x1="113.92" y1="421.64334728315157" x2="122.38000000000001" y2="421.64334728315157" stroke="#000"/>
<line x1="118.15" y1="420.1002106285927" x2="118.15" y2="421.64334728315157" stroke="#000"/>
<line x1="113.92" y1="498.0" x2="113.92" y2="502.79999999999995" stroke="#000"/>
<text x="113.92" y="512.4" fill="#111" font-size="small" font-family="monospace" font-weight="bold" text-anchor="end" transform="rotate(-60, 113.92, 512.4)">
activerecord
</text>
<rect x="130.84" y="444.56359774987516" width="8.46" height="53.43640225012483" fill="#7070f8" data-tooltip="1.00x baseline speed (No JIT)"/>
<line x1="130.84" y1="444.03421850253466" x2="139.3" y2="444.03421850253466" stroke="#000"/>
<line x1="130.84" y1="445.0929769972156" x2="139.3" y2="445.0929769972156" stroke="#000"/>
<line x1="135.07000000000002" y1="444.03421850253466" x2="135.07000000000002" y2="445.0929769972156" stroke="#000"/>
<rect x="147.76" y="428.35789835033984" width="8.46" height="69.64210164966015" fill="green" data-tooltip="1.30x baseline speed (YJIT)"/>
<line x1="147.76" y1="427.4368867607795" x2="156.22" y2="427.4368867607795" stroke="#000"/>
<line x1="147.76" y1="429.2789099399002" x2="156.22" y2="429.2789099399002" stroke="#000"/>
<line x1="151.99" y1="427.4368867607795" x2="151.99" y2="429.2789099399002" stroke="#000"/>
<line x1="147.76" y1="498.0" x2="147.76" y2="502.79999999999995" stroke="#000"/>
<text x="147.76" y="512.4" fill="#111" font-size="small" font-family="monospace" font-weight="bold" text-anchor="end" transform="rotate(-60, 147.76, 512.4)">
hexapdf
</text>
<rect x="164.68" y="444.56359774987516" width="8.46" height="53.43640225012483" fill="#7070f8" data-tooltip="1.00x baseline speed (No JIT)"/>
<line x1="164.68" y1="443.92988696703253" x2="173.14" y2="443.92988696703253" stroke="#000"/>
<line x1="164.68" y1="445.1973085327177" x2="173.14" y2="445.1973085327177" stroke="#000"/>
<line x1="168.91" y1="443.92988696703253" x2="168.91" y2="445.1973085327177" stroke="#000"/>
<rect x="173.14" y="442.3759488882757" width="8.46" height="55.62405111172432" fill="orange" data-tooltip="1.04x baseline speed (MJIT)"/>
<line x1="173.14" y1="441.42084038167854" x2="181.6" y2="441.42084038167854" stroke="#000"/>
<line x1="173.14" y1="443.33105739487286" x2="181.6" y2="443.33105739487286" stroke="#000"/>
<line x1="177.37" y1="441.42084038167854" x2="177.37" y2="443.33105739487286" stroke="#000"/>
<rect x="181.6" y="416.4946846312088" width="8.46" height="81.50531536879109" fill="green" data-tooltip="1.53x baseline speed (YJIT)"/>
<line x1="181.6" y1="414.4839704610807" x2="190.05999999999997" y2="414.4839704610807" stroke="#000"/>
<line x1="181.6" y1="418.505398801337" x2="190.05999999999997" y2="418.505398801337" stroke="#000"/>
<line x1="185.82999999999998" y1="414.4839704610807" x2="185.82999999999998" y2="418.505398801337" stroke="#000"/>
<line x1="181.6" y1="498.0" x2="181.6" y2="502.79999999999995" stroke="#000"/>
<text x="181.6" y="512.4" fill="#111" font-size="small" font-family="monospace" font-weight="bold" text-anchor="end" transform="rotate(-60, 181.6, 512.4)">
liquid-render
</text>
<rect x="198.52" y="444.56359774987516" width="8.46" height="53.43640225012483" fill="#7070f8" data-tooltip="1.00x baseline speed (No JIT)"/>
<line x1="198.52" y1="444.51515306768647" x2="206.98" y2="444.51515306768647" stroke="#000"/>
<line x1="198.52" y1="444.6120424320638" x2="206.98" y2="444.6120424320638" stroke="#000"/>
<line x1="202.75" y1="444.51515306768647" x2="202.75" y2="444.6120424320638" stroke="#000"/>
<rect x="206.98" y="443.52259851386185" width="8.46" height="54.477401486138035" fill="orange" data-tooltip="1.02x baseline speed (MJIT)"/>
<line x1="206.98" y1="442.8908587743583" x2="215.44" y2="442.8908587743583" stroke="#000"/>
<line x1="206.98" y1="444.1543382533654" x2="215.44" y2="444.1543382533654" stroke="#000"/>
<line x1="211.21" y1="442.8908587743583" x2="211.21" y2="444.1543382533654" stroke="#000"/>
<rect x="215.44" y="437.71154811510524" width="8.46" height="60.28845188489464" fill="green" data-tooltip="1.13x baseline speed (YJIT)"/>
<line x1="215.44" y1="437.44392711158036" x2="223.89999999999998" y2="437.44392711158036" stroke="#000"/>
<line x1="215.44" y1="437.9791691186301" x2="223.89999999999998" y2="437.9791691186301" stroke="#000"/>
<line x1="219.67000000000002" y1="437.44392711158036" x2="219.67000000000002" y2="437.9791691186301" stroke="#000"/>
<line x1="215.44" y1="498.0" x2="215.44" y2="502.79999999999995" stroke="#000"/>
<text x="215.44" y="512.4" fill="#111" font-size="small" font-family="monospace" font-weight="bold" text-anchor="end" transform="rotate(-60, 215.44, 512.4)">
mail
</text>
<rect x="232.36" y="444.56359774987516" width="8.46" height="53.43640225012483" fill="#7070f8" data-tooltip="1.00x baseline speed (No JIT)"/>
<line x1="232.36" y1="444.51278260475715" x2="240.82" y2="444.51278260475715" stroke="#000"/>
<line x1="232.36" y1="444.61441289499317" x2="240.82" y2="444.61441289499317" stroke="#000"/>
<line x1="236.59000000000003" y1="444.51278260475715" x2="236.59000000000003" y2="444.61441289499317" stroke="#000"/>
<rect x="240.82" y="439.3476858640108" width="8.46" height="58.652314135989045" fill="orange" data-tooltip="1.10x baseline speed (MJIT)"/>
<line x1="240.82" y1="439.2830483794877" x2="249.28" y2="439.2830483794877" stroke="#000"/>
<line x1="240.82" y1="439.4123233485339" x2="249.28" y2="439.4123233485339" stroke="#000"/>
<line x1="245.05" y1="439.2830483794877" x2="245.05" y2="439.4123233485339" stroke="#000"/>
<rect x="249.28" y="430.18892903973403" width="8.46" height="67.81107096026591" fill="green" data-tooltip="1.27x baseline speed (YJIT)"/>
<line x1="249.28" y1="430.12177701245315" x2="257.74" y2="430.12177701245315" stroke="#000"/>
<line x1="249.28" y1="430.2560810670149" x2="257.74" y2="430.2560810670149" stroke="#000"/>
<line x1="253.51000000000002" y1="430.12177701245315" x2="253.51000000000002" y2="430.2560810670149" stroke="#000"/>
<line x1="249.28" y1="498.0" x2="249.28" y2="502.79999999999995" stroke="#000"/>
<text x="249.28" y="512.4" fill="#111" font-size="small" font-family="monospace" font-weight="bold" text-anchor="end" transform="rotate(-60, 249.28, 512.4)">
psych-load
</text>
<rect x="266.2" y="444.56359774987516" width="8.46" height="53.43640225012483" fill="#7070f8" data-tooltip="1.00x baseline speed (No JIT)"/>
<line x1="266.2" y1="443.8921695609837" x2="274.66" y2="443.8921695609837" stroke="#000"/>
<line x1="266.2" y1="445.2350259387666" x2="274.66" y2="445.2350259387666" stroke="#000"/>
<line x1="270.43" y1="443.8921695609837" x2="270.43" y2="445.2350259387666" stroke="#000"/>
<rect x="274.66" y="450.8717005531151" width="8.46" height="47.12829944688481" fill="orange" data-tooltip="0.88x baseline speed (MJIT)"/>
<line x1="274.66" y1="449.9583199081924" x2="283.12000000000006" y2="449.9583199081924" stroke="#000"/>
<line x1="274.66" y1="451.7850811980378" x2="283.12000000000006" y2="451.7850811980378" stroke="#000"/>
<line x1="278.89000000000004" y1="449.9583199081924" x2="278.89000000000004" y2="451.7850811980378" stroke="#000"/>
<rect x="283.12" y="426.788177724897" width="8.46" height="71.21182227510289" fill="green" data-tooltip="1.33x baseline speed (YJIT)"/>
<line x1="283.12" y1="425.54059580461154" x2="291.58" y2="425.54059580461154" stroke="#000"/>
<line x1="283.12" y1="428.03575964518245" x2="291.58" y2="428.03575964518245" stroke="#000"/>
<line x1="287.35" y1="425.54059580461154" x2="287.35" y2="428.03575964518245" stroke="#000"/>
<line x1="283.12" y1="498.0" x2="283.12" y2="502.79999999999995" stroke="#000"/>
<text x="283.12" y="512.4" fill="#111" font-size="small" font-family="monospace" font-weight="bold" text-anchor="end" transform="rotate(-60, 283.12, 512.4)">
railsbench
</text>
<rect x="300.03999999999996" y="444.56359774987516" width="8.46" height="53.43640225012483" fill="#7070f8" data-tooltip="1.00x baseline speed (No JIT)"/>
<line x1="300.03999999999996" y1="443.9616824830942" x2="308.5" y2="443.9616824830942" stroke="#000"/>
<line x1="300.03999999999996" y1="445.1655130166561" x2="308.5" y2="445.1655130166561" stroke="#000"/>
<line x1="304.27" y1="443.9616824830942" x2="304.27" y2="445.1655130166561" stroke="#000"/>
<rect x="308.5" y="416.2167318790015" width="8.46" height="81.78326812099846" fill="orange" data-tooltip="1.53x baseline speed (MJIT)"/>
<line x1="308.5" y1="415.2583904134552" x2="316.96000000000004" y2="415.2583904134552" stroke="#000"/>
<line x1="308.5" y1="417.1750733445478" x2="316.96000000000004" y2="417.1750733445478" stroke="#000"/>
<line x1="312.73" y1="415.2583904134552" x2="312.73" y2="417.1750733445478" stroke="#000"/>
<rect x="316.96" y="428.7693595180391" width="8.46" height="69.23064048196082" fill="green" data-tooltip="1.30x baseline speed (YJIT)"/>
<line x1="316.96" y1="427.5086785495449" x2="325.41999999999996" y2="427.5086785495449" stroke="#000"/>
<line x1="316.96" y1="430.0300404865332" x2="325.41999999999996" y2="430.0300404865332" stroke="#000"/>
<line x1="321.19" y1="427.5086785495449" x2="321.19" y2="430.0300404865332" stroke="#000"/>
<line x1="316.96" y1="498.0" x2="316.96" y2="502.79999999999995" stroke="#000"/>
<text x="316.96" y="512.4" fill="#111" font-size="small" font-family="monospace" font-weight="bold" text-anchor="end" transform="rotate(-60, 316.96, 512.4)">
binarytrees
</text>
<rect x="333.88" y="444.56359774987516" width="8.46" height="53.43640225012483" fill="#7070f8" data-tooltip="1.00x baseline speed (No JIT)"/>
<line x1="333.88" y1="444.5417271363658" x2="342.34000000000003" y2="444.5417271363658" stroke="#000"/>
<line x1="333.88" y1="444.5854683633845" x2="342.34000000000003" y2="444.5854683633845" stroke="#000"/>
<line x1="338.11" y1="444.5417271363658" x2="338.11" y2="444.5854683633845" stroke="#000"/>
<rect x="342.34000000000003" y="432.664942109662" width="8.46" height="65.33505789033795" fill="orange" data-tooltip="1.22x baseline speed (MJIT)"/>
<line x1="342.34000000000003" y1="432.4221407566247" x2="350.80000000000007" y2="432.4221407566247" stroke="#000"/>
<line x1="342.34000000000003" y1="432.9077434626992" x2="350.80000000000007" y2="432.9077434626992" stroke="#000"/>
<line x1="346.57000000000005" y1="432.4221407566247" x2="346.57000000000005" y2="432.9077434626992" stroke="#000"/>
<rect x="350.8" y="424.9110244216446" width="8.46" height="73.08897557835527" fill="green" data-tooltip="1.37x baseline speed (YJIT)"/>
<line x1="350.8" y1="424.71612628242275" x2="359.26000000000005" y2="424.71612628242275" stroke="#000"/>
<line x1="350.8" y1="425.1059225608665" x2="359.26000000000005" y2="425.1059225608665" stroke="#000"/>
<line x1="355.03000000000003" y1="424.71612628242275" x2="355.03000000000003" y2="425.1059225608665" stroke="#000"/>
<line x1="350.8" y1="498.0" x2="350.8" y2="502.79999999999995" stroke="#000"/>
<text x="350.8" y="512.4" fill="#111" font-size="small" font-family="monospace" font-weight="bold" text-anchor="end" transform="rotate(-60, 350.8, 512.4)">
chunky_png
</text>
<rect x="367.72" y="444.56359774987516" width="8.46" height="53.43640225012483" fill="#7070f8" data-tooltip="1.00x baseline speed (No JIT)"/>
<line x1="367.72" y1="441.4499781413999" x2="376.18000000000006" y2="441.4499781413999" stroke="#000"/>
<line x1="367.72" y1="447.67721735835033" x2="376.18000000000006" y2="447.67721735835033" stroke="#000"/>
<line x1="371.95000000000005" y1="441.4499781413999" x2="371.95000000000005" y2="447.67721735835033" stroke="#000"/>
<rect x="376.18000000000006" y="447.76191018754946" width="8.46" height="50.23808981245053" fill="orange" data-tooltip="0.94x baseline speed (MJIT)"/>
<line x1="376.18000000000006" y1="443.36902211145747" x2="384.6400000000001" y2="443.36902211145747" stroke="#000"/>
<line x1="376.18000000000006" y1="452.15479826364145" x2="384.6400000000001" y2="452.15479826364145" stroke="#000"/>
<line x1="380.4100000000001" y1="443.36902211145747" x2="380.4100000000001" y2="452.15479826364145" stroke="#000"/>
<rect x="384.64000000000004" y="438.5522633852145" width="8.46" height="59.44773661478551" fill="green" data-tooltip="1.11x baseline speed (YJIT)"/>
<line x1="384.64000000000004" y1="431.8592668259493" x2="393.1000000000001" y2="431.8592668259493" stroke="#000"/>
<line x1="384.64000000000004" y1="445.2452599444796" x2="393.1000000000001" y2="445.2452599444796" stroke="#000"/>
<line x1="388.87000000000006" y1="431.8592668259493" x2="388.87000000000006" y2="445.2452599444796" stroke="#000"/>
<line x1="384.64000000000004" y1="498.0" x2="384.64000000000004" y2="502.79999999999995" stroke="#000"/>
<text x="384.64000000000004" y="512.4" fill="#111" font-size="small" font-family="monospace" font-weight="bold" text-anchor="end" transform="rotate(-60, 384.64000000000004, 512.4)">
discourse
</text>
<rect x="401.56" y="444.56359774987516" width="8.46" height="53.43640225012483" fill="#7070f8" data-tooltip="1.00x baseline speed (No JIT)"/>
<line x1="401.56" y1="444.15407065615" x2="410.02000000000004" y2="444.15407065615" stroke="#000"/>
<line x1="401.56" y1="444.9731248436003" x2="410.02000000000004" y2="444.9731248436003" stroke="#000"/>
<line x1="405.79" y1="444.15407065615" x2="405.79" y2="444.9731248436003" stroke="#000"/>
<rect x="410.02000000000004" y="439.7273610664474" width="8.46" height="58.2726389335526" fill="orange" data-tooltip="1.09x baseline speed (MJIT)"/>
<line x1="410.02000000000004" y1="439.15259715129764" x2="418.4800000000001" y2="439.15259715129764" stroke="#000"/>
<line x1="410.02000000000004" y1="440.30212498159716" x2="418.4800000000001" y2="440.30212498159716" stroke="#000"/>
<line x1="414.25000000000006" y1="439.15259715129764" x2="414.25000000000006" y2="440.30212498159716" stroke="#000"/>
<rect x="418.48" y="438.6026465338444" width="8.46" height="59.39735346615558" fill="green" data-tooltip="1.11x baseline speed (YJIT)"/>
<line x1="418.48" y1="437.92881565822154" x2="426.94000000000005" y2="437.92881565822154" stroke="#000"/>
<line x1="418.48" y1="439.27647740946725" x2="426.94000000000005" y2="439.27647740946725" stroke="#000"/>
<line x1="422.71000000000004" y1="437.92881565822154" x2="422.71000000000004" y2="439.27647740946725" stroke="#000"/>
<line x1="418.48" y1="498.0" x2="418.48" y2="502.79999999999995" stroke="#000"/>
<text x="418.48" y="512.4" fill="#111" font-size="small" font-family="monospace" font-weight="bold" text-anchor="end" transform="rotate(-60, 418.48, 512.4)">
erubi
</text>
<rect x="435.40000000000003" y="444.56359774987516" width="8.46" height="53.43640225012483" fill="#7070f8" data-tooltip="1.00x baseline speed (No JIT)"/>
<line x1="435.40000000000003" y1="443.27611103683773" x2="443.86" y2="443.27611103683773" stroke="#000"/>
<line x1="435.40000000000003" y1="445.8510844629126" x2="443.86" y2="445.8510844629126" stroke="#000"/>
<line x1="439.63" y1="443.27611103683773" x2="439.63" y2="445.8510844629126" stroke="#000"/>
<rect x="443.86" y="448.5179159224399" width="8.46" height="49.48208407756002" fill="orange" data-tooltip="0.93x baseline speed (MJIT)"/>
<line x1="443.86" y1="446.23980064406976" x2="452.32000000000005" y2="446.23980064406976" stroke="#000"/>
<line x1="443.86" y1="450.79603120081003" x2="452.32000000000005" y2="450.79603120081003" stroke="#000"/>
<line x1="448.09000000000003" y1="446.23980064406976" x2="448.09000000000003" y2="450.79603120081003" stroke="#000"/>
<rect x="452.32" y="424.77687617490443" width="8.46" height="73.22312382509548" fill="green" data-tooltip="1.37x baseline speed (YJIT)"/>
<line x1="452.32" y1="421.54665436358897" x2="460.78000000000003" y2="421.54665436358897" stroke="#000"/>
<line x1="452.32" y1="428.00709798621995" x2="460.78000000000003" y2="428.00709798621995" stroke="#000"/>
<line x1="456.55" y1="421.54665436358897" x2="456.55" y2="428.00709798621995" stroke="#000"/>
<line x1="452.32" y1="498.0" x2="452.32" y2="502.79999999999995" stroke="#000"/>
<text x="452.32" y="512.4" fill="#111" font-size="small" font-family="monospace" font-weight="bold" text-anchor="end" transform="rotate(-60, 452.32, 512.4)">
erubi_rails
</text>
<rect x="469.24" y="444.56359774987516" width="8.46" height="53.43640225012483" fill="#7070f8" data-tooltip="1.00x baseline speed (No JIT)"/>
<line x1="469.24" y1="444.5494705792814" x2="477.7" y2="444.5494705792814" stroke="#000"/>
<line x1="469.24" y1="444.5777249204689" x2="477.7" y2="444.5777249204689" stroke="#000"/>
<line x1="473.47" y1="444.5494705792814" x2="473.47" y2="444.5777249204689" stroke="#000"/>
<rect x="477.7" y="404.97705641374944" width="8.46" height="93.02294358625049" fill="orange" data-tooltip="1.74x baseline speed (MJIT)"/>
<line x1="477.7" y1="404.9138836445703" x2="486.16" y2="404.9138836445703" stroke="#000"/>
<line x1="477.7" y1="405.0402291829285" x2="486.16" y2="405.0402291829285" stroke="#000"/>
<line x1="481.93" y1="404.9138836445703" x2="481.93" y2="405.0402291829285" stroke="#000"/>
<rect x="486.15999999999997" y="445.24083543376696" width="8.46" height="52.75916456623303" fill="green" data-tooltip="0.99x baseline speed (YJIT)"/>
<line x1="486.15999999999997" y1="444.4250136757066" x2="494.62" y2="444.4250136757066" stroke="#000"/>
<line x1="486.15999999999997" y1="446.0566571918273" x2="494.62" y2="446.0566571918273" stroke="#000"/>
<line x1="490.39" y1="444.4250136757066" x2="490.39" y2="446.0566571918273" stroke="#000"/>
<line x1="486.15999999999997" y1="498.0" x2="486.15999999999997" y2="502.79999999999995" stroke="#000"/>
<text x="486.15999999999997" y="512.4" fill="#111" font-size="small" font-family="monospace" font-weight="bold" text-anchor="end" transform="rotate(-60, 486.15999999999997, 512.4)">
fannkuchredux
</text>
<rect x="503.08" y="444.56359774987516" width="8.46" height="53.43640225012483" fill="#7070f8" data-tooltip="1.00x baseline speed (No JIT)"/>
<line x1="503.08" y1="444.40826876104614" x2="511.54" y2="444.40826876104614" stroke="#000"/>
<line x1="503.08" y1="444.71892673870417" x2="511.54" y2="444.71892673870417" stroke="#000"/>
<line x1="507.30999999999995" y1="444.40826876104614" x2="507.30999999999995" y2="444.71892673870417" stroke="#000"/>
<rect x="511.54" y="431.77075226931436" width="8.46" height="66.2292477306856" fill="orange" data-tooltip="1.24x baseline speed (MJIT)"/>
<line x1="511.54" y1="431.25225348864643" x2="520.0" y2="431.25225348864643" stroke="#000"/>
<line x1="511.54" y1="432.28925104998234" x2="520.0" y2="432.28925104998234" stroke="#000"/>
<line x1="515.77" y1="431.25225348864643" x2="515.77" y2="432.28925104998234" stroke="#000"/>
<rect x="520.0" y="423.36002376272603" width="8.46" height="74.63997623727383" fill="green" data-tooltip="1.40x baseline speed (YJIT)"/>
<line x1="520.0" y1="423.0127975736837" x2="528.46" y2="423.0127975736837" stroke="#000"/>
<line x1="520.0" y1="423.7072499517684" x2="528.46" y2="423.7072499517684" stroke="#000"/>
<line x1="524.23" y1="423.0127975736837" x2="524.23" y2="423.7072499517684" stroke="#000"/>
<line x1="520.0" y1="498.0" x2="520.0" y2="502.79999999999995" stroke="#000"/>
<text x="520.0" y="512.4" fill="#111" font-size="small" font-family="monospace" font-weight="bold" text-anchor="end" transform="rotate(-60, 520.0, 512.4)">
lee
</text>
<rect x="536.9200000000001" y="444.56359774987516" width="8.46" height="53.43640225012483" fill="#7070f8" data-tooltip="1.00x baseline speed (No JIT)"/>
<line x1="536.9200000000001" y1="444.52307915072544" x2="545.3800000000001" y2="444.52307915072544" stroke="#000"/>
<line x1="536.9200000000001" y1="444.6041163490248" x2="545.3800000000001" y2="444.6041163490248" stroke="#000"/>
<line x1="541.15" y1="444.52307915072544" x2="541.15" y2="444.6041163490248" stroke="#000"/>
<rect x="545.3800000000001" y="409.41725321094975" width="8.46" height="88.58274678905023" fill="orange" data-tooltip="1.66x baseline speed (MJIT)"/>
<line x1="545.3800000000001" y1="409.32494121010336" x2="553.8400000000001" y2="409.32494121010336" stroke="#000"/>
<line x1="545.3800000000001" y1="409.5095652117961" x2="553.8400000000001" y2="409.5095652117961" stroke="#000"/>
<line x1="549.61" y1="409.32494121010336" x2="549.61" y2="409.5095652117961" stroke="#000"/>
<rect x="553.8400000000001" y="440.83366083220926" width="8.46" height="57.16633916779069" fill="green" data-tooltip="1.07x baseline speed (YJIT)"/>
<line x1="553.8400000000001" y1="440.597727718272" x2="562.3000000000002" y2="440.597727718272" stroke="#000"/>
<line x1="553.8400000000001" y1="441.0695939461465" x2="562.3000000000002" y2="441.0695939461465" stroke="#000"/>
<line x1="558.07" y1="440.597727718272" x2="558.07" y2="441.0695939461465" stroke="#000"/>
<line x1="553.8400000000001" y1="498.0" x2="553.8400000000001" y2="502.79999999999995" stroke="#000"/>
<text x="553.8400000000001" y="512.4" fill="#111" font-size="small" font-family="monospace" font-weight="bold" text-anchor="end" transform="rotate(-60, 553.8400000000001, 512.4)">
nbody
</text>
<rect x="570.76" y="444.56359774987516" width="8.46" height="53.43640225012483" fill="#7070f8" data-tooltip="1.00x baseline speed (No JIT)"/>
<line x1="570.76" y1="444.34148517781455" x2="579.22" y2="444.34148517781455" stroke="#000"/>
<line x1="570.76" y1="444.78571032193577" x2="579.22" y2="444.78571032193577" stroke="#000"/>
<line x1="574.99" y1="444.34148517781455" x2="574.99" y2="444.78571032193577" stroke="#000"/>
<rect x="579.22" y="370.1883573399898" width="8.46" height="127.81164266001016" fill="orange" data-tooltip="2.39x baseline speed (MJIT)"/>
<line x1="579.22" y1="369.2389320467026" x2="587.6800000000001" y2="369.2389320467026" stroke="#000"/>
<line x1="579.22" y1="371.13778263327697" x2="587.6800000000001" y2="371.13778263327697" stroke="#000"/>
<line x1="583.45" y1="369.2389320467026" x2="583.45" y2="371.13778263327697" stroke="#000"/>
<rect x="587.6800000000001" y="422.1686888055889" width="8.46" height="75.83131119441104" fill="green" data-tooltip="1.42x baseline speed (YJIT)"/>
<line x1="587.6800000000001" y1="421.6659441615921" x2="596.1400000000001" y2="421.6659441615921" stroke="#000"/>
<line x1="587.6800000000001" y1="422.67143344958566" x2="596.1400000000001" y2="422.67143344958566" stroke="#000"/>
<line x1="591.9100000000001" y1="421.6659441615921" x2="591.9100000000001" y2="422.67143344958566" stroke="#000"/>
<line x1="587.6800000000001" y1="498.0" x2="587.6800000000001" y2="502.79999999999995" stroke="#000"/>
<text x="587.6800000000001" y="512.4" fill="#111" font-size="small" font-family="monospace" font-weight="bold" text-anchor="end" transform="rotate(-60, 587.6800000000001, 512.4)">
optcarrot
</text>
<rect x="604.6" y="444.56359774987516" width="8.46" height="53.43640225012483" fill="#7070f8" data-tooltip="1.00x baseline speed (No JIT)"/>
<line x1="604.6" y1="444.27716947729715" x2="613.0600000000001" y2="444.27716947729715" stroke="#000"/>
<line x1="604.6" y1="444.85002602245316" x2="613.0600000000001" y2="444.85002602245316" stroke="#000"/>
<line x1="608.8299999999999" y1="444.27716947729715" x2="608.8299999999999" y2="444.85002602245316" stroke="#000"/>
<rect x="613.0600000000001" y="430.7178379208753" width="8.46" height="67.28216207912462" fill="orange" data-tooltip="1.26x baseline speed (MJIT)"/>
<line x1="613.0600000000001" y1="429.5819683755557" x2="621.5200000000001" y2="429.5819683755557" stroke="#000"/>
<line x1="613.0600000000001" y1="431.853707466195" x2="621.5200000000001" y2="431.853707466195" stroke="#000"/>
<line x1="617.29" y1="429.5819683755557" x2="617.29" y2="431.853707466195" stroke="#000"/>
<rect x="621.5200000000001" y="422.1008313355423" width="8.46" height="75.89916866445765" fill="green" data-tooltip="1.42x baseline speed (YJIT)"/>
<line x1="621.5200000000001" y1="421.501141661649" x2="629.9800000000001" y2="421.501141661649" stroke="#000"/>
<line x1="621.5200000000001" y1="422.70052100943553" x2="629.9800000000001" y2="422.70052100943553" stroke="#000"/>
<line x1="625.75" y1="421.501141661649" x2="625.75" y2="422.70052100943553" stroke="#000"/>
<line x1="621.5200000000001" y1="498.0" x2="621.5200000000001" y2="502.79999999999995" stroke="#000"/>
<text x="621.5200000000001" y="512.4" fill="#111" font-size="small" font-family="monospace" font-weight="bold" text-anchor="end" transform="rotate(-60, 621.5200000000001, 512.4)">
rubykon
</text>
<rect x="638.44" y="444.56359774987516" width="8.46" height="53.43640225012483" fill="#7070f8" data-tooltip="1.00x baseline speed (No JIT)"/>
<line x1="638.44" y1="444.552952846278" x2="646.9" y2="444.552952846278" stroke="#000"/>
<line x1="638.44" y1="444.57424265347225" x2="646.9" y2="444.57424265347225" stroke="#000"/>
<line x1="642.67" y1="444.552952846278" x2="642.67" y2="444.57424265347225" stroke="#000"/>
<rect x="646.9" y="463.6844631511846" width="8.46" height="34.31553684881531" fill="orange" data-tooltip="0.64x baseline speed (MJIT)"/>
<line x1="646.9" y1="462.4013071255179" x2="655.36" y2="462.4013071255179" stroke="#000"/>
<line x1="646.9" y1="464.96761917685126" x2="655.36" y2="464.96761917685126" stroke="#000"/>
<line x1="651.13" y1="462.4013071255179" x2="651.13" y2="464.96761917685126" stroke="#000"/>
<rect x="655.36" y="161.06558424153224" width="8.46" height="336.93441575846765" fill="green" data-tooltip="6.31x baseline speed (YJIT)"/>
<line x1="655.36" y1="160.42528007650156" x2="663.82" y2="160.42528007650156" stroke="#000"/>
<line x1="655.36" y1="161.7058884065629" x2="663.82" y2="161.7058884065629" stroke="#000"/>
<line x1="659.59" y1="160.42528007650156" x2="659.59" y2="161.7058884065629" stroke="#000"/>
<line x1="655.36" y1="498.0" x2="655.36" y2="502.79999999999995" stroke="#000"/>
<text x="655.36" y="512.4" fill="#111" font-size="small" font-family="monospace" font-weight="bold" text-anchor="end" transform="rotate(-60, 655.36, 512.4)">
30k_ifelse
</text>
<rect x="672.28" y="444.56359774987516" width="8.46" height="53.43640225012483" fill="#7070f8" data-tooltip="1.00x baseline speed (No JIT)"/>
<line x1="672.28" y1="444.5598443490469" x2="680.74" y2="444.5598443490469" stroke="#000"/>
<line x1="672.28" y1="444.5673511507034" x2="680.74" y2="444.5673511507034" stroke="#000"/>
<line x1="676.51" y1="444.5598443490469" x2="676.51" y2="444.5673511507034" stroke="#000"/>
<rect x="680.74" y="464.7092314789571" width="8.46" height="33.29076852104276" fill="orange" data-tooltip="0.62x baseline speed (MJIT)"/>
<line x1="680.74" y1="458.5257894306688" x2="689.2" y2="458.5257894306688" stroke="#000"/>
<line x1="680.74" y1="470.8926735272454" x2="689.2" y2="470.8926735272454" stroke="#000"/>
<line x1="684.9699999999999" y1="458.5257894306688" x2="684.9699999999999" y2="470.8926735272454" stroke="#000"/>
<rect x="689.2" y="115.6144737749011" width="8.46" height="382.38552622509883" fill="green" data-tooltip="7.16x baseline speed (YJIT)"/>
<line x1="689.2" y1="115.3712520622183" x2="697.6600000000001" y2="115.3712520622183" stroke="#000"/>
<line x1="689.2" y1="115.85769548758388" x2="697.6600000000001" y2="115.85769548758388" stroke="#000"/>
<line x1="693.43" y1="115.3712520622183" x2="693.43" y2="115.85769548758388" stroke="#000"/>
<line x1="689.2" y1="498.0" x2="689.2" y2="502.79999999999995" stroke="#000"/>
<text x="689.2" y="512.4" fill="#111" font-size="small" font-family="monospace" font-weight="bold" text-anchor="end" transform="rotate(-60, 689.2, 512.4)">
30k_methods
</text>
<rect x="706.12" y="444.56359774987516" width="8.46" height="53.43640225012483" fill="#7070f8" data-tooltip="1.00x baseline speed (No JIT)"/>
<line x1="706.12" y1="444.46521451812265" x2="714.58" y2="444.46521451812265" stroke="#000"/>
<line x1="706.12" y1="444.66198098162766" x2="714.58" y2="444.66198098162766" stroke="#000"/>
<line x1="710.3499999999999" y1="444.46521451812265" x2="710.3499999999999" y2="444.66198098162766" stroke="#000"/>
<rect x="714.58" y="418.7379582141156" width="8.46" height="79.26204178588428" fill="orange" data-tooltip="1.48x baseline speed (MJIT)"/>
<line x1="714.58" y1="417.7972048312567" x2="723.04" y2="417.7972048312567" stroke="#000"/>
<line x1="714.58" y1="419.67871159697455" x2="723.04" y2="419.67871159697455" stroke="#000"/>
<line x1="718.81" y1="417.7972048312567" x2="718.81" y2="419.67871159697455" stroke="#000"/>
<rect x="723.04" y="372.26682713572217" width="8.46" height="125.73317286427778" fill="green" data-tooltip="2.35x baseline speed (YJIT)"/>
<line x1="723.04" y1="370.97946690102606" x2="731.5" y2="370.97946690102606" stroke="#000"/>
<line x1="723.04" y1="373.5541873704183" x2="731.5" y2="373.5541873704183" stroke="#000"/>
<line x1="727.27" y1="370.97946690102606" x2="727.27" y2="373.5541873704183" stroke="#000"/>
<line x1="723.04" y1="498.0" x2="723.04" y2="502.79999999999995" stroke="#000"/>
<text x="723.04" y="512.4" fill="#111" font-size="small" font-family="monospace" font-weight="bold" text-anchor="end" transform="rotate(-60, 723.04, 512.4)">
cfunc_itself
</text>
<rect x="739.96" y="444.56359774987516" width="8.46" height="53.43640225012483" fill="#7070f8" data-tooltip="1.00x baseline speed (No JIT)"/>
<line x1="739.96" y1="444.469107144865" x2="748.4200000000001" y2="444.469107144865" stroke="#000"/>
<line x1="739.96" y1="444.6580883548853" x2="748.4200000000001" y2="444.6580883548853" stroke="#000"/>
<line x1="744.19" y1="444.469107144865" x2="744.19" y2="444.6580883548853" stroke="#000"/>
<rect x="748.4200000000001" y="346.258631844114" width="8.46" height="151.741368155886" fill="orange" data-tooltip="2.84x baseline speed (MJIT)"/>
<line x1="748.4200000000001" y1="345.98673560613884" x2="756.8800000000001" y2="345.98673560613884" stroke="#000"/>
<line x1="748.4200000000001" y1="346.5305280820891" x2="756.8800000000001" y2="346.5305280820891" stroke="#000"/>
<line x1="752.6500000000001" y1="345.98673560613884" x2="752.6500000000001" y2="346.5305280820891" stroke="#000"/>
<rect x="756.8800000000001" y="288.89823894842834" width="8.46" height="209.10176105157163" fill="green" data-tooltip="3.91x baseline speed (YJIT)"/>
<line x1="756.8800000000001" y1="287.6266705532608" x2="765.3400000000001" y2="287.6266705532608" stroke="#000"/>
<line x1="756.8800000000001" y1="290.16980734359583" x2="765.3400000000001" y2="290.16980734359583" stroke="#000"/>
<line x1="761.11" y1="287.6266705532608" x2="761.11" y2="290.16980734359583" stroke="#000"/>
<line x1="756.8800000000001" y1="498.0" x2="756.8800000000001" y2="502.79999999999995" stroke="#000"/>
<text x="756.8800000000001" y="512.4" fill="#111" font-size="small" font-family="monospace" font-weight="bold" text-anchor="end" transform="rotate(-60, 756.8800000000001, 512.4)">
fib
</text>
<rect x="773.8000000000001" y="444.56359774987516" width="8.46" height="53.43640225012483" fill="#7070f8" data-tooltip="1.00x baseline speed (No JIT)"/>
<line x1="773.8000000000001" y1="442.2756687384755" x2="782.2600000000001" y2="442.2756687384755" stroke="#000"/>
<line x1="773.8000000000001" y1="446.85152676127484" x2="782.2600000000001" y2="446.85152676127484" stroke="#000"/>
<line x1="778.03" y1="442.2756687384755" x2="778.03" y2="446.85152676127484" stroke="#000"/>
<rect x="782.2600000000001" y="261.54441604822597" width="8.46" height="236.45558395177397" fill="orange" data-tooltip="4.42x baseline speed (MJIT)"/>
<line x1="782.2600000000001" y1="99.96863642172815" x2="790.7200000000001" y2="99.96863642172815" stroke="#000"/>
<line x1="782.2600000000001" y1="423.1201956747238" x2="790.7200000000001" y2="423.1201956747238" stroke="#000"/>
<line x1="786.49" y1="99.96863642172815" x2="786.49" y2="423.1201956747238" stroke="#000"/>
<rect x="790.7200000000001" y="442.04746018068556" width="8.46" height="55.952539819314396" fill="green" data-tooltip="1.05x baseline speed (YJIT)"/>
<line x1="790.7200000000001" y1="439.6203590738451" x2="799.1800000000001" y2="439.6203590738451" stroke="#000"/>
<line x1="790.7200000000001" y1="444.47456128752594" x2="799.1800000000001" y2="444.47456128752594" stroke="#000"/>
<line x1="794.95" y1="439.6203590738451" x2="794.95" y2="444.47456128752594" stroke="#000"/>
<line x1="790.7200000000001" y1="498.0" x2="790.7200000000001" y2="502.79999999999995" stroke="#000"/>
<text x="790.7200000000001" y="512.4" fill="#111" font-size="small" font-family="monospace" font-weight="bold" text-anchor="end" transform="rotate(-60, 790.7200000000001, 512.4)">
getivar
</text>
<rect x="807.64" y="444.56359774987516" width="8.46" height="53.43640225012483" fill="#7070f8" data-tooltip="1.00x baseline speed (No JIT)"/>
<line x1="807.64" y1="444.51995187287366" x2="816.1" y2="444.51995187287366" stroke="#000"/>
<line x1="807.64" y1="444.60724362687665" x2="816.1" y2="444.60724362687665" stroke="#000"/>
<line x1="811.87" y1="444.51995187287366" x2="811.87" y2="444.60724362687665" stroke="#000"/>
<rect x="816.1" y="430.58307451075865" width="8.46" height="67.41692548924125" fill="orange" data-tooltip="1.26x baseline speed (MJIT)"/>
<line x1="816.1" y1="430.12774026173696" x2="824.5600000000001" y2="430.12774026173696" stroke="#000"/>
<line x1="816.1" y1="431.0384087597804" x2="824.5600000000001" y2="431.0384087597804" stroke="#000"/>
<line x1="820.33" y1="430.12774026173696" x2="820.33" y2="431.0384087597804" stroke="#000"/>
<rect x="824.5600000000001" y="212.6483187094039" width="8.46" height="285.35168129059605" fill="green" data-tooltip="5.34x baseline speed (YJIT)"/>
<line x1="824.5600000000001" y1="210.65226348746953" x2="833.0200000000001" y2="210.65226348746953" stroke="#000"/>
<line x1="824.5600000000001" y1="214.64437393133824" x2="833.0200000000001" y2="214.64437393133824" stroke="#000"/>
<line x1="828.7900000000001" y1="210.65226348746953" x2="828.7900000000001" y2="214.64437393133824" stroke="#000"/>
<line x1="824.5600000000001" y1="498.0" x2="824.5600000000001" y2="502.79999999999995" stroke="#000"/>
<text x="824.5600000000001" y="512.4" fill="#111" font-size="small" font-family="monospace" font-weight="bold" text-anchor="end" transform="rotate(-60, 824.5600000000001, 512.4)">
keyword_args
</text>
<rect x="841.48" y="444.56359774987516" width="8.46" height="53.43640225012483" fill="#7070f8" data-tooltip="1.00x baseline speed (No JIT)"/>
<line x1="841.48" y1="444.47303929924993" x2="849.94" y2="444.47303929924993" stroke="#000"/>
<line x1="841.48" y1="444.6541562005003" x2="849.94" y2="444.6541562005003" stroke="#000"/>
<line x1="845.7099999999999" y1="444.47303929924993" x2="845.7099999999999" y2="444.6541562005003" stroke="#000"/>
<rect x="849.94" y="435.15710763536623" width="8.46" height="62.84289236463365" fill="orange" data-tooltip="1.18x baseline speed (MJIT)"/>
<line x1="849.94" y1="434.6721296453375" x2="858.4000000000001" y2="434.6721296453375" stroke="#000"/>
<line x1="849.94" y1="435.642085625395" x2="858.4000000000001" y2="435.642085625395" stroke="#000"/>
<line x1="854.17" y1="434.6721296453375" x2="854.17" y2="435.642085625395" stroke="#000"/>
<rect x="858.4000000000001" y="422.68869246170675" width="8.46" height="75.31130753829311" fill="green" data-tooltip="1.41x baseline speed (YJIT)"/>
<line x1="858.4000000000001" y1="422.4010204810758" x2="866.8600000000001" y2="422.4010204810758" stroke="#000"/>
<line x1="858.4000000000001" y1="422.97636444233774" x2="866.8600000000001" y2="422.97636444233774" stroke="#000"/>
<line x1="862.63" y1="422.4010204810758" x2="862.63" y2="422.97636444233774" stroke="#000"/>
<line x1="858.4000000000001" y1="498.0" x2="858.4000000000001" y2="502.79999999999995" stroke="#000"/>
<text x="858.4000000000001" y="512.4" fill="#111" font-size="small" font-family="monospace" font-weight="bold" text-anchor="end" transform="rotate(-60, 858.4000000000001, 512.4)">
respond_to
</text>
<rect x="875.3199999999999" y="444.56359774987516" width="8.46" height="53.43640225012483" fill="#7070f8" data-tooltip="1.00x baseline speed (No JIT)"/>
<line x1="875.3199999999999" y1="444.2471573373181" x2="883.78" y2="444.2471573373181" stroke="#000"/>
<line x1="875.3199999999999" y1="444.88003816243224" x2="883.78" y2="444.88003816243224" stroke="#000"/>
<line x1="879.55" y1="444.2471573373181" x2="879.55" y2="444.88003816243224" stroke="#000"/>
<rect x="883.78" y="100.19999999999999" width="8.46" height="397.79999999999995" fill="orange" data-tooltip="7.44x baseline speed (MJIT)"/>
<line x1="883.78" y1="-303.49553376188175" x2="892.24" y2="-303.49553376188175" stroke="#000"/>
<line x1="883.78" y1="503.89553376188167" x2="892.24" y2="503.89553376188167" stroke="#000"/>
<line x1="888.01" y1="-303.49553376188175" x2="888.01" y2="503.89553376188167" stroke="#000"/>
<rect x="892.24" y="413.3778455152706" width="8.46" height="84.62215448472938" fill="green" data-tooltip="1.58x baseline speed (YJIT)"/>
<line x1="892.24" y1="412.4752122264662" x2="900.7" y2="412.4752122264662" stroke="#000"/>
<line x1="892.24" y1="414.280478804075" x2="900.7" y2="414.280478804075" stroke="#000"/>
<line x1="896.47" y1="412.4752122264662" x2="896.47" y2="414.280478804075" stroke="#000"/>
<line x1="892.24" y1="498.0" x2="892.24" y2="502.79999999999995" stroke="#000"/>
<text x="892.24" y="512.4" fill="#111" font-size="small" font-family="monospace" font-weight="bold" text-anchor="end" transform="rotate(-60, 892.24, 512.4)">
setivar
</text>
<rect x="909.16" y="444.56359774987516" width="8.46" height="53.43640225012483" fill="#7070f8" data-tooltip="1.00x baseline speed (No JIT)"/>
<line x1="909.16" y1="444.1479333761703" x2="917.62" y2="444.1479333761703" stroke="#000"/>
<line x1="909.16" y1="444.97926212358004" x2="917.62" y2="444.97926212358004" stroke="#000"/>
<line x1="913.3899999999999" y1="444.1479333761703" x2="913.3899999999999" y2="444.97926212358004" stroke="#000"/>
<rect x="917.62" y="427.30950445742627" width="8.46" height="70.69049554257373" fill="orange" data-tooltip="1.32x baseline speed (MJIT)"/>
<line x1="917.62" y1="426.16447431149015" x2="926.08" y2="426.16447431149015" stroke="#000"/>
<line x1="917.62" y1="428.4545346033624" x2="926.08" y2="428.4545346033624" stroke="#000"/>
<line x1="921.8499999999999" y1="426.16447431149015" x2="921.8499999999999" y2="428.4545346033624" stroke="#000"/>
<rect x="926.08" y="445.408454851835" width="8.46" height="52.59154514816499" fill="green" data-tooltip="0.98x baseline speed (YJIT)"/>
<line x1="926.08" y1="444.60429554844654" x2="934.5400000000001" y2="444.60429554844654" stroke="#000"/>
<line x1="926.08" y1="446.2126141552235" x2="934.5400000000001" y2="446.2126141552235" stroke="#000"/>
<line x1="930.31" y1="444.60429554844654" x2="930.31" y2="446.2126141552235" stroke="#000"/>
<line x1="926.08" y1="498.0" x2="926.08" y2="502.79999999999995" stroke="#000"/>
<text x="926.08" y="512.4" fill="#111" font-size="small" font-family="monospace" font-weight="bold" text-anchor="end" transform="rotate(-60, 926.08, 512.4)">
str_concat
</text>
</svg>