<svg viewBox="0 0 1000 600" xmlns="http://www.w3.org/2000/svg" xmlns:xlink="http://www.w3.org/1999/xlink" width="100%" height="100%">

<rect x="50.0" y="30.0" width="940.0" height="467.99999999999994" stroke="#000" fill="#EEE"/>
<line x1="42.0" y1="497.9999999999999" x2="50.0" y2="497.9999999999999" stroke="#000"/>
<text x="26.000000000000004" y="497.9999999999999" text-anchor="end" font-weight="bold" font-size="small" fill="#111">
0.0
</text>
<line x1="42.0" y1="416.81288657497436" x2="50.0" y2="416.81288657497436" stroke="#000"/>
<text x="26.000000000000004" y="416.81288657497436" text-anchor="end" font-weight="bold" font-size="small" fill="#111">
0.5
</text>
<line x1="42.0" y1="335.6257731499487" x2="50.0" y2="335.6257731499487" stroke="#000"/>
<text x="26.000000000000004" y="335.6257731499487" text-anchor="end" font-weight="bold" font-size="small" fill="#111">
1.0
</text>
<line x1="42.0" y1="254.4386597249231" x2="50.0" y2="254.4386597249231" stroke="#000"/>
<text x="26.000000000000004" y="254.4386597249231" text-anchor="end" font-weight="bold" font-size="small" fill="#111">
1.5
</text>
<line x1="42.0" y1="173.25154629989748" x2="50.0" y2="173.25154629989748" stroke="#000"/>
<text x="26.000000000000004" y="173.25154629989748" text-anchor="end" font-weight="bold" font-size="small" fill="#111">
2.0
</text>
<rect x="268.5" y="36.00000000000001" width="80.0" height="18.0" fill="#7070f8" stroke="#888"/>
<text x="308.5" y="52.50000000000001" font-size="small" text-anchor="middle" font-weight="bold" fill="#EEE">
No JIT
</text>
<rect x="691.4999999999999" y="36.00000000000001" width="80.0" height="18.0" fill="orange" stroke="#888"/>
<text x="731.4999999999999" y="52.50000000000001" font-size="small" text-anchor="middle" font-weight="bold" fill="#EEE">
YJIT
</text>
<rect x="97.0" y="335.6257731499487" width="25.636363636363637" height="162.3742268500512" fill="#7070f8" data-tooltip="1.00x baseline speed (No JIT)"/>
<line x1="97.0" y1="332.50721108841327" x2="122.63636363636364" y2="332.50721108841327" stroke="#000"/>
<line x1="97.0" y1="338.7443352114841" x2="122.63636363636364" y2="338.7443352114841" stroke="#000"/>
<line x1="109.81818181818181" y1="332.50721108841327" x2="109.81818181818181" y2="338.7443352114841" stroke="#000"/>
<rect x="122.63636363636364" y="212.43880193860397" width="25.636363636363637" height="285.561198061396" fill="orange" data-tooltip="1.76x baseline speed (YJIT)"/>
<line x1="122.63636363636364" y1="201.12907545915579" x2="148.27272727272728" y2="201.12907545915579" stroke="#000"/>
<line x1="122.63636363636364" y1="223.74852841805213" x2="148.27272727272728" y2="223.74852841805213" stroke="#000"/>
<line x1="135.45454545454547" y1="201.12907545915579" x2="135.45454545454547" y2="223.74852841805213" stroke="#000"/>
<line x1="135.45454545454547" y1="498.0" x2="135.45454545454547" y2="502.79999999999995" stroke="#000"/>
<text x="135.45454545454547" y="512.4" fill="#111" font-size="small" font-family="monospace" font-weight="bold" text-anchor="end" transform="rotate(-60, 135.45454545454547, 512.4)">
binarytrees
</text>
<rect x="173.9090909090909" y="335.6257731499487" width="25.636363636363637" height="162.3742268500512" fill="#7070f8" data-tooltip="1.00x baseline speed (No JIT)"/>
<line x1="173.9090909090909" y1="335.22226314945476" x2="199.54545454545453" y2="335.22226314945476" stroke="#000"/>
<line x1="173.9090909090909" y1="336.02928315044267" x2="199.54545454545453" y2="336.02928315044267" stroke="#000"/>
<line x1="186.72727272727272" y1="335.22226314945476" x2="186.72727272727272" y2="336.02928315044267" stroke="#000"/>
<rect x="199.54545454545453" y="259.66111305245676" width="25.636363636363637" height="238.33888694754316" fill="orange" data-tooltip="1.47x baseline speed (YJIT)"/>
<line x1="199.54545454545453" y1="259.0430523290193" x2="225.18181818181816" y2="259.0430523290193" stroke="#000"/>
<line x1="199.54545454545453" y1="260.27917377589426" x2="225.18181818181816" y2="260.27917377589426" stroke="#000"/>
<line x1="212.36363636363635" y1="259.0430523290193" x2="212.36363636363635" y2="260.27917377589426" stroke="#000"/>
<line x1="212.36363636363637" y1="498.0" x2="212.36363636363637" y2="502.79999999999995" stroke="#000"/>
<text x="212.36363636363637" y="512.4" fill="#111" font-size="small" font-family="monospace" font-weight="bold" text-anchor="end" transform="rotate(-60, 212.36363636363637, 512.4)">
chunky_png
</text>
<rect x="250.81818181818184" y="335.6257731499487" width="25.636363636363637" height="162.3742268500512" fill="#7070f8" data-tooltip="1.00x baseline speed (No JIT)"/>
<line x1="250.81818181818184" y1="333.34754117513137" x2="276.45454545454544" y2="333.34754117513137" stroke="#000"/>
<line x1="250.81818181818184" y1="337.90400512476606" x2="276.45454545454544" y2="337.90400512476606" stroke="#000"/>
<line x1="263.6363636363637" y1="333.34754117513137" x2="263.6363636363637" y2="337.90400512476606" stroke="#000"/>
<rect x="276.45454545454544" y="315.6453869916172" width="25.636363636363637" height="182.35461300838276" fill="orange" data-tooltip="1.12x baseline speed (YJIT)"/>
<line x1="276.45454545454544" y1="312.23822462949005" x2="302.09090909090907" y2="312.23822462949005" stroke="#000"/>
<line x1="276.45454545454544" y1="319.0525493537443" x2="302.09090909090907" y2="319.0525493537443" stroke="#000"/>
<line x1="289.2727272727273" y1="312.23822462949005" x2="289.2727272727273" y2="319.0525493537443" stroke="#000"/>
<line x1="289.2727272727273" y1="498.0" x2="289.2727272727273" y2="502.79999999999995" stroke="#000"/>
<text x="289.2727272727273" y="512.4" fill="#111" font-size="small" font-family="monospace" font-weight="bold" text-anchor="end" transform="rotate(-60, 289.2727272727273, 512.4)">
erubi
</text>
<rect x="327.72727272727275" y="335.6257731499487" width="25.636363636363637" height="162.3742268500512" fill="#7070f8" data-tooltip="1.00x baseline speed (No JIT)"/>
<line x1="327.72727272727275" y1="329.79559407291254" x2="353.3636363636364" y2="329.79559407291254" stroke="#000"/>
<line x1="327.72727272727275" y1="341.45595222698483" x2="353.3636363636364" y2="341.45595222698483" stroke="#000"/>
<line x1="340.5454545454546" y1="329.79559407291254" x2="340.5454545454546" y2="341.45595222698483" stroke="#000"/>
<rect x="353.3636363636364" y="300.655556390167" width="25.636363636363637" height="197.34444360983295" fill="orange" data-tooltip="1.22x baseline speed (YJIT)"/>
<line x1="353.3636363636364" y1="288.7650292569325" x2="379.0" y2="288.7650292569325" stroke="#000"/>
<line x1="353.3636363636364" y1="312.5460835234016" x2="379.0" y2="312.5460835234016" stroke="#000"/>
<line x1="366.18181818181824" y1="288.7650292569325" x2="366.18181818181824" y2="312.5460835234016" stroke="#000"/>
<line x1="366.18181818181824" y1="498.0" x2="366.18181818181824" y2="502.79999999999995" stroke="#000"/>
<text x="366.18181818181824" y="512.4" fill="#111" font-size="small" font-family="monospace" font-weight="bold" text-anchor="end" transform="rotate(-60, 366.18181818181824, 512.4)">
erubi_rails
</text>
<rect x="404.6363636363637" y="335.6257731499487" width="25.636363636363637" height="162.3742268500512" fill="#7070f8" data-tooltip="1.00x baseline speed (No JIT)"/>
<line x1="404.6363636363637" y1="333.5407124123214" x2="430.2727272727273" y2="333.5407124123214" stroke="#000"/>
<line x1="404.6363636363637" y1="337.71083388757603" x2="430.2727272727273" y2="337.71083388757603" stroke="#000"/>
<line x1="417.4545454545455" y1="333.5407124123214" x2="417.4545454545455" y2="337.71083388757603" stroke="#000"/>
<rect x="430.2727272727273" y="339.99733239900075" width="25.636363636363637" height="158.0026676009992" fill="orange" data-tooltip="0.97x baseline speed (YJIT)"/>
<line x1="430.2727272727273" y1="337.6156790361076" x2="455.90909090909093" y2="337.6156790361076" stroke="#000"/>
<line x1="430.2727272727273" y1="342.3789857618939" x2="455.90909090909093" y2="342.3789857618939" stroke="#000"/>
<line x1="443.0909090909091" y1="337.6156790361076" x2="443.0909090909091" y2="342.3789857618939" stroke="#000"/>
<line x1="443.0909090909091" y1="498.0" x2="443.0909090909091" y2="502.79999999999995" stroke="#000"/>
<text x="443.0909090909091" y="512.4" fill="#111" font-size="small" font-family="monospace" font-weight="bold" text-anchor="end" transform="rotate(-60, 443.0909090909091, 512.4)">
etanni
</text>
<rect x="481.5454545454546" y="335.6257731499487" width="25.636363636363637" height="162.3742268500512" fill="#7070f8" data-tooltip="1.00x baseline speed (No JIT)"/>
<line x1="481.5454545454546" y1="334.4899135239682" x2="507.1818181818183" y2="334.4899135239682" stroke="#000"/>
<line x1="481.5454545454546" y1="336.76163277592923" x2="507.1818181818183" y2="336.76163277592923" stroke="#000"/>
<line x1="494.36363636363643" y1="334.4899135239682" x2="494.36363636363643" y2="336.76163277592923" stroke="#000"/>
<rect x="507.1818181818183" y="100.19999999999999" width="25.636363636363637" height="397.79999999999995" fill="orange" data-tooltip="2.45x baseline speed (YJIT)"/>
<line x1="507.1818181818183" y1="97.38614263498145" x2="532.818181818182" y2="97.38614263498145" stroke="#000"/>
<line x1="507.1818181818183" y1="103.01385736501852" x2="532.818181818182" y2="103.01385736501852" stroke="#000"/>
<line x1="520.0000000000001" y1="97.38614263498145" x2="520.0000000000001" y2="103.01385736501852" stroke="#000"/>
<line x1="520.0" y1="498.0" x2="520.0" y2="502.79999999999995" stroke="#000"/>
<text x="520.0" y="512.4" fill="#111" font-size="small" font-family="monospace" font-weight="bold" text-anchor="end" transform="rotate(-60, 520.0, 512.4)">
fannkuchredux
</text>
<rect x="558.4545454545454" y="335.6257731499487" width="25.636363636363637" height="162.3742268500512" fill="#7070f8" data-tooltip="1.00x baseline speed (No JIT)"/>
<line x1="558.4545454545454" y1="335.43386739655955" x2="584.0909090909091" y2="335.43386739655955" stroke="#000"/>
<line x1="558.4545454545454" y1="335.8176789033378" x2="584.0909090909091" y2="335.8176789033378" stroke="#000"/>
<line x1="571.2727272727273" y1="335.43386739655955" x2="571.2727272727273" y2="335.8176789033378" stroke="#000"/>
<rect x="584.0909090909091" y="283.47229346887985" width="25.636363636363637" height="214.52770653112012" fill="orange" data-tooltip="1.32x baseline speed (YJIT)"/>
<line x1="584.0909090909091" y1="280.38360085332016" x2="609.7272727272727" y2="280.38360085332016" stroke="#000"/>
<line x1="584.0909090909091" y1="286.5609860844395" x2="609.7272727272727" y2="286.5609860844395" stroke="#000"/>
<line x1="596.909090909091" y1="280.38360085332016" x2="596.909090909091" y2="286.5609860844395" stroke="#000"/>
<line x1="596.9090909090909" y1="498.0" x2="596.9090909090909" y2="502.79999999999995" stroke="#000"/>
<text x="596.9090909090909" y="512.4" fill="#111" font-size="small" font-family="monospace" font-weight="bold" text-anchor="end" transform="rotate(-60, 596.9090909090909, 512.4)">
lee
</text>
<rect x="635.3636363636364" y="335.6257731499487" width="25.636363636363637" height="162.3742268500512" fill="#7070f8" data-tooltip="1.00x baseline speed (No JIT)"/>
<line x1="635.3636363636364" y1="333.86978873570956" x2="661.0" y2="333.86978873570956" stroke="#000"/>
<line x1="635.3636363636364" y1="337.38175756418786" x2="661.0" y2="337.38175756418786" stroke="#000"/>
<line x1="648.1818181818182" y1="333.86978873570956" x2="648.1818181818182" y2="337.38175756418786" stroke="#000"/>
<rect x="661.0" y="290.93745013333233" width="25.636363636363637" height="207.0625498666676" fill="orange" data-tooltip="1.28x baseline speed (YJIT)"/>
<line x1="661.0" y1="288.6710928364449" x2="686.6363636363637" y2="288.6710928364449" stroke="#000"/>
<line x1="661.0" y1="293.2038074302197" x2="686.6363636363637" y2="293.2038074302197" stroke="#000"/>
<line x1="673.8181818181819" y1="288.6710928364449" x2="673.8181818181819" y2="293.2038074302197" stroke="#000"/>
<line x1="673.8181818181818" y1="498.0" x2="673.8181818181818" y2="502.79999999999995" stroke="#000"/>
<text x="673.8181818181818" y="512.4" fill="#111" font-size="small" font-family="monospace" font-weight="bold" text-anchor="end" transform="rotate(-60, 673.8181818181818, 512.4)">
nbody
</text>
<rect x="712.2727272727273" y="335.6257731499487" width="25.636363636363637" height="162.3742268500512" fill="#7070f8" data-tooltip="1.00x baseline speed (No JIT)"/>
<line x1="712.2727272727273" y1="334.7625586123746" x2="737.909090909091" y2="334.7625586123746" stroke="#000"/>
<line x1="712.2727272727273" y1="336.4889876875228" x2="737.909090909091" y2="336.4889876875228" stroke="#000"/>
<line x1="725.0909090909091" y1="334.7625586123746" x2="725.0909090909091" y2="336.4889876875228" stroke="#000"/>
<rect x="737.909090909091" y="321.0634665368676" width="25.636363636363637" height="176.9365334631323" fill="orange" data-tooltip="1.09x baseline speed (YJIT)"/>
<line x1="737.909090909091" y1="319.91543212299075" x2="763.5454545454546" y2="319.91543212299075" stroke="#000"/>
<line x1="737.909090909091" y1="322.2115009507445" x2="763.5454545454546" y2="322.2115009507445" stroke="#000"/>
<line x1="750.7272727272727" y1="319.91543212299075" x2="750.7272727272727" y2="322.2115009507445" stroke="#000"/>
<line x1="750.7272727272726" y1="498.0" x2="750.7272727272726" y2="502.79999999999995" stroke="#000"/>
<text x="750.7272727272726" y="512.4" fill="#111" font-size="small" font-family="monospace" font-weight="bold" text-anchor="end" transform="rotate(-60, 750.7272727272726, 512.4)">
optcarrot
</text>
<rect x="789.1818181818182" y="335.6257731499487" width="25.636363636363637" height="162.3742268500512" fill="#7070f8" data-tooltip="1.00x baseline speed (No JIT)"/>
<line x1="789.1818181818182" y1="318.55508486897554" x2="814.8181818181819" y2="318.55508486897554" stroke="#000"/>
<line x1="789.1818181818182" y1="352.69646143092183" x2="814.8181818181819" y2="352.69646143092183" stroke="#000"/>
<line x1="802.0" y1="318.55508486897554" x2="802.0" y2="352.69646143092183" stroke="#000"/>
<rect x="814.8181818181819" y="341.89111862902297" width="25.636363636363637" height="156.10888137097695" fill="orange" data-tooltip="0.96x baseline speed (YJIT)"/>
<line x1="814.8181818181819" y1="320.33167593505016" x2="840.4545454545456" y2="320.33167593505016" stroke="#000"/>
<line x1="814.8181818181819" y1="363.45056132299584" x2="840.4545454545456" y2="363.45056132299584" stroke="#000"/>
<line x1="827.6363636363637" y1="320.33167593505016" x2="827.6363636363637" y2="363.45056132299584" stroke="#000"/>
<line x1="827.6363636363636" y1="498.0" x2="827.6363636363636" y2="502.79999999999995" stroke="#000"/>
<text x="827.6363636363636" y="512.4" fill="#111" font-size="small" font-family="monospace" font-weight="bold" text-anchor="end" transform="rotate(-60, 827.6363636363636, 512.4)">
ruby-lsp
</text>
<rect x="866.0909090909091" y="335.6257731499487" width="25.636363636363637" height="162.3742268500512" fill="#7070f8" data-tooltip="1.00x baseline speed (No JIT)"/>
<line x1="866.0909090909091" y1="334.86433677935014" x2="891.7272727272729" y2="334.86433677935014" stroke="#000"/>
<line x1="866.0909090909091" y1="336.3872095205473" x2="891.7272727272729" y2="336.3872095205473" stroke="#000"/>
<line x1="878.909090909091" y1="334.86433677935014" x2="878.909090909091" y2="336.3872095205473" stroke="#000"/>
<rect x="891.7272727272729" y="284.7135858479385" width="25.636363636363637" height="213.28641415206147" fill="orange" data-tooltip="1.31x baseline speed (YJIT)"/>
<line x1="891.7272727272729" y1="282.7937163577488" x2="917.3636363636365" y2="282.7937163577488" stroke="#000"/>
<line x1="891.7272727272729" y1="286.63345533812816" x2="917.3636363636365" y2="286.63345533812816" stroke="#000"/>
<line x1="904.5454545454546" y1="282.7937163577488" x2="904.5454545454546" y2="286.63345533812816" stroke="#000"/>
<line x1="904.5454545454545" y1="498.0" x2="904.5454545454545" y2="502.79999999999995" stroke="#000"/>
<text x="904.5454545454545" y="512.4" fill="#111" font-size="small" font-family="monospace" font-weight="bold" text-anchor="end" transform="rotate(-60, 904.5454545454545, 512.4)">
rubykon
</text>
</svg>