<svg viewBox="0 0 1000 600" xmlns="http://www.w3.org/2000/svg" xmlns:xlink="http://www.w3.org/1999/xlink" width="100%" height="100%">

<rect x="50.0" y="30.0" width="940.0" height="467.99999999999994" stroke="#000" fill="#EEE"/>
<line x1="42.0" y1="497.9999999999999" x2="50.0" y2="497.9999999999999" stroke="#000"/>
<text x="26.000000000000004" y="497.9999999999999" text-anchor="end" font-weight="bold" font-size="small" fill="#111">
0.0
</text>
<line x1="42.0" y1="447.2218840540969" x2="50.0" y2="447.2218840540969" stroke="#000"/>
<text x="26.000000000000004" y="447.2218840540969" text-anchor="end" font-weight="bold" font-size="small" fill="#111">
1.0
</text>
<line x1="42.0" y1="396.44376810819375" x2="50.0" y2="396.44376810819375" stroke="#000"/>
<text x="26.000000000000004" y="396.44376810819375" text-anchor="end" font-weight="bold" font-size="small" fill="#111">
2.0
</text>
<line x1="42.0" y1="345.66565216229077" x2="50.0" y2="345.66565216229077" stroke="#000"/>
<text x="26.000000000000004" y="345.66565216229077" text-anchor="end" font-weight="bold" font-size="small" fill="#111">
3.0
</text>
<line x1="42.0" y1="294.8875362163876" x2="50.0" y2="294.8875362163876" stroke="#000"/>
<text x="26.000000000000004" y="294.8875362163876" text-anchor="end" font-weight="bold" font-size="small" fill="#111">
4.0
</text>
<line x1="42.0" y1="244.10942027048458" x2="50.0" y2="244.10942027048458" stroke="#000"/>
<text x="26.000000000000004" y="244.10942027048458" text-anchor="end" font-weight="bold" font-size="small" fill="#111">
5.0
</text>
<line x1="42.0" y1="193.33130432458154" x2="50.0" y2="193.33130432458154" stroke="#000"/>
<text x="26.000000000000004" y="193.33130432458154" text-anchor="end" font-weight="bold" font-size="small" fill="#111">
6.0
</text>
<line x1="42.0" y1="142.55318837867844" x2="50.0" y2="142.55318837867844" stroke="#000"/>
<text x="26.000000000000004" y="142.55318837867844" text-anchor="end" font-weight="bold" font-size="small" fill="#111">
7.0
</text>
<rect x="197.99999999999997" y="36.00000000000001" width="80.0" height="18.0" fill="#7070f8" stroke="#888"/>
<text x="238.0" y="52.50000000000001" font-size="small" text-anchor="middle" font-weight="bold" fill="#EEE">
No JIT
</text>
<rect x="479.99999999999994" y="36.00000000000001" width="80.0" height="18.0" fill="orange" stroke="#888"/>
<text x="519.9999999999999" y="52.50000000000001" font-size="small" text-anchor="middle" font-weight="bold" fill="#EEE">
MJIT
</text>
<rect x="761.9999999999999" y="36.00000000000001" width="80.0" height="18.0" fill="green" stroke="#888"/>
<text x="801.9999999999999" y="52.50000000000001" font-size="small" text-anchor="middle" font-weight="bold" fill="#EEE">
YJIT
</text>
<rect x="97.0" y="447.2218840540969" width="23.5" height="50.778115945903075" fill="#7070f8" data-tooltip="1.00x baseline speed (No JIT)"/>
<line x1="97.0" y1="447.2185484467653" x2="120.5" y2="447.2185484467653" stroke="#000"/>
<line x1="97.0" y1="447.2252196614285" x2="120.5" y2="447.2252196614285" stroke="#000"/>
<line x1="108.75" y1="447.2185484467653" x2="108.75" y2="447.2252196614285" stroke="#000"/>
<rect x="120.5" y="470.82117235737206" width="23.5" height="27.17882764262792" fill="orange" data-tooltip="0.54x baseline speed (MJIT)"/>
<line x1="120.5" y1="470.14920404448236" x2="144.0" y2="470.14920404448236" stroke="#000"/>
<line x1="120.5" y1="471.4931406702618" x2="144.0" y2="471.4931406702618" stroke="#000"/>
<line x1="132.25" y1="470.14920404448236" x2="132.25" y2="471.4931406702618" stroke="#000"/>
<rect x="144.00000000000003" y="197.5550147994318" width="23.5" height="300.4449852005681" fill="green" data-tooltip="5.92x baseline speed (YJIT)"/>
<line x1="144.00000000000003" y1="197.3051823832848" x2="167.5" y2="197.3051823832848" stroke="#000"/>
<line x1="144.00000000000003" y1="197.8048472155788" x2="167.5" y2="197.8048472155788" stroke="#000"/>
<line x1="155.75000000000003" y1="197.3051823832848" x2="155.75000000000003" y2="197.8048472155788" stroke="#000"/>
<line x1="144.00000000000003" y1="498.0" x2="144.00000000000003" y2="502.79999999999995" stroke="#000"/>
<text x="144.00000000000003" y="512.4" fill="#111" font-size="small" font-family="monospace" font-weight="bold" text-anchor="end" transform="rotate(-60, 144.00000000000003, 512.4)">
30k_ifelse
</text>
<rect x="191.0" y="447.2218840540969" width="23.5" height="50.778115945903075" fill="#7070f8" data-tooltip="1.00x baseline speed (No JIT)"/>
<line x1="191.0" y1="447.16550759144474" x2="214.5" y2="447.16550759144474" stroke="#000"/>
<line x1="191.0" y1="447.27826051674907" x2="214.5" y2="447.27826051674907" stroke="#000"/>
<line x1="202.75" y1="447.16550759144474" x2="202.75" y2="447.27826051674907" stroke="#000"/>
<rect x="214.5" y="473.7381755470556" width="23.5" height="24.26182445294439" fill="orange" data-tooltip="0.48x baseline speed (MJIT)"/>
<line x1="214.5" y1="472.75969459194897" x2="238.0" y2="472.75969459194897" stroke="#000"/>
<line x1="214.5" y1="474.7166565021622" x2="238.0" y2="474.7166565021622" stroke="#000"/>
<line x1="226.25" y1="472.75969459194897" x2="226.25" y2="474.7166565021622" stroke="#000"/>
<rect x="238.0" y="100.19999999999999" width="23.5" height="397.79999999999995" fill="green" data-tooltip="7.83x baseline speed (YJIT)"/>
<line x1="238.0" y1="99.75047147820634" x2="261.5" y2="99.75047147820634" stroke="#000"/>
<line x1="238.0" y1="100.64952852179364" x2="261.5" y2="100.64952852179364" stroke="#000"/>
<line x1="249.75" y1="99.75047147820634" x2="249.75" y2="100.64952852179364" stroke="#000"/>
<line x1="238.0" y1="498.0" x2="238.0" y2="502.79999999999995" stroke="#000"/>
<text x="238.0" y="512.4" fill="#111" font-size="small" font-family="monospace" font-weight="bold" text-anchor="end" transform="rotate(-60, 238.0, 512.4)">
30k_methods
</text>
<rect x="285.00000000000006" y="447.2218840540969" width="23.5" height="50.778115945903075" fill="#7070f8" data-tooltip="1.00x baseline speed (No JIT)"/>
<line x1="285.00000000000006" y1="447.16033110698856" x2="308.50000000000006" y2="447.16033110698856" stroke="#000"/>
<line x1="285.00000000000006" y1="447.2834370012053" x2="308.50000000000006" y2="447.2834370012053" stroke="#000"/>
<line x1="296.75" y1="447.16033110698856" x2="296.75" y2="447.2834370012053" stroke="#000"/>
<rect x="308.50000000000006" y="417.939270378829" width="23.5" height="80.06072962117095" fill="orange" data-tooltip="1.58x baseline speed (MJIT)"/>
<line x1="308.50000000000006" y1="417.2952524479329" x2="332.00000000000006" y2="417.2952524479329" stroke="#000"/>
<line x1="308.50000000000006" y1="418.58328830972505" x2="332.00000000000006" y2="418.58328830972505" stroke="#000"/>
<line x1="320.25000000000006" y1="417.2952524479329" x2="320.25000000000006" y2="418.58328830972505" stroke="#000"/>
<rect x="332.0" y="379.44878522068626" width="23.5" height="118.55121477931371" fill="green" data-tooltip="2.33x baseline speed (YJIT)"/>
<line x1="332.0" y1="378.61025522743466" x2="355.50000000000006" y2="378.61025522743466" stroke="#000"/>
<line x1="332.0" y1="380.2873152139378" x2="355.50000000000006" y2="380.2873152139378" stroke="#000"/>
<line x1="343.75" y1="378.61025522743466" x2="343.75" y2="380.2873152139378" stroke="#000"/>
<line x1="332.0" y1="498.0" x2="332.0" y2="502.79999999999995" stroke="#000"/>
<text x="332.0" y="512.4" fill="#111" font-size="small" font-family="monospace" font-weight="bold" text-anchor="end" transform="rotate(-60, 332.0, 512.4)">
cfunc_itself
</text>
<rect x="379.0" y="447.2218840540969" width="23.5" height="50.778115945903075" fill="#7070f8" data-tooltip="1.00x baseline speed (No JIT)"/>
<line x1="379.0" y1="447.2049649616297" x2="402.5" y2="447.2049649616297" stroke="#000"/>
<line x1="379.0" y1="447.2388031465641" x2="402.5" y2="447.2388031465641" stroke="#000"/>
<line x1="390.75" y1="447.2049649616297" x2="390.75" y2="447.2388031465641" stroke="#000"/>
<rect x="402.5" y="361.74240498507214" width="23.5" height="136.25759501492774" fill="orange" data-tooltip="2.68x baseline speed (MJIT)"/>
<line x1="402.5" y1="360.8944101002568" x2="426.00000000000006" y2="360.8944101002568" stroke="#000"/>
<line x1="402.5" y1="362.5903998698875" x2="426.00000000000006" y2="362.5903998698875" stroke="#000"/>
<line x1="414.25" y1="360.8944101002568" x2="414.25" y2="362.5903998698875" stroke="#000"/>
<rect x="426.0" y="320.6282002449491" width="23.5" height="177.37179975505083" fill="green" data-tooltip="3.49x baseline speed (YJIT)"/>
<line x1="426.0" y1="320.3980964470067" x2="449.5" y2="320.3980964470067" stroke="#000"/>
<line x1="426.0" y1="320.8583040428914" x2="449.5" y2="320.8583040428914" stroke="#000"/>
<line x1="437.75" y1="320.3980964470067" x2="437.75" y2="320.8583040428914" stroke="#000"/>
<line x1="426.0" y1="498.0" x2="426.0" y2="502.79999999999995" stroke="#000"/>
<text x="426.0" y="512.4" fill="#111" font-size="small" font-family="monospace" font-weight="bold" text-anchor="end" transform="rotate(-60, 426.0, 512.4)">
fib
</text>
<rect x="473.0" y="447.2218840540969" width="23.5" height="50.778115945903075" fill="#7070f8" data-tooltip="1.00x baseline speed (No JIT)"/>
<line x1="473.0" y1="447.16404100343846" x2="496.5" y2="447.16404100343846" stroke="#000"/>
<line x1="473.0" y1="447.27972710475535" x2="496.5" y2="447.27972710475535" stroke="#000"/>
<line x1="484.74999999999994" y1="447.16404100343846" x2="484.74999999999994" y2="447.27972710475535" stroke="#000"/>
<rect x="496.5" y="315.68488203721944" width="23.5" height="182.3151179627805" fill="orange" data-tooltip="3.59x baseline speed (MJIT)"/>
<line x1="496.5" y1="212.07503711878317" x2="520.0" y2="212.07503711878317" stroke="#000"/>
<line x1="496.5" y1="419.2947269556557" x2="520.0" y2="419.2947269556557" stroke="#000"/>
<line x1="508.25" y1="212.07503711878317" x2="508.25" y2="419.2947269556557" stroke="#000"/>
<rect x="520.0" y="363.72306482316225" width="23.5" height="134.2769351768377" fill="green" data-tooltip="2.64x baseline speed (YJIT)"/>
<line x1="520.0" y1="363.55762343938017" x2="543.5" y2="363.55762343938017" stroke="#000"/>
<line x1="520.0" y1="363.8885062069443" x2="543.5" y2="363.8885062069443" stroke="#000"/>
<line x1="531.75" y1="363.55762343938017" x2="531.75" y2="363.8885062069443" stroke="#000"/>
<line x1="520.0" y1="498.0" x2="520.0" y2="502.79999999999995" stroke="#000"/>
<text x="520.0" y="512.4" fill="#111" font-size="small" font-family="monospace" font-weight="bold" text-anchor="end" transform="rotate(-60, 520.0, 512.4)">
getivar
</text>
<rect x="567.0" y="447.2218840540969" width="23.5" height="50.778115945903075" fill="#7070f8" data-tooltip="1.00x baseline speed (No JIT)"/>
<line x1="567.0" y1="447.145117452327" x2="590.4999999999999" y2="447.145117452327" stroke="#000"/>
<line x1="567.0" y1="447.2986506558668" x2="590.4999999999999" y2="447.2986506558668" stroke="#000"/>
<line x1="578.75" y1="447.145117452327" x2="578.75" y2="447.2986506558668" stroke="#000"/>
<rect x="590.4999999999999" y="436.5765418343775" width="23.5" height="61.42345816562249" fill="orange" data-tooltip="1.21x baseline speed (MJIT)"/>
<line x1="590.4999999999999" y1="436.1925830728498" x2="613.9999999999999" y2="436.1925830728498" stroke="#000"/>
<line x1="590.4999999999999" y1="436.96050059590516" x2="613.9999999999999" y2="436.96050059590516" stroke="#000"/>
<line x1="602.25" y1="436.1925830728498" x2="602.25" y2="436.96050059590516" stroke="#000"/>
<rect x="614.0" y="244.50246746608903" width="23.5" height="253.4975325339109" fill="green" data-tooltip="4.99x baseline speed (YJIT)"/>
<line x1="614.0" y1="243.71458251883277" x2="637.5" y2="243.71458251883277" stroke="#000"/>
<line x1="614.0" y1="245.2903524133453" x2="637.5" y2="245.2903524133453" stroke="#000"/>
<line x1="625.75" y1="243.71458251883277" x2="625.75" y2="245.2903524133453" stroke="#000"/>
<line x1="614.0" y1="498.0" x2="614.0" y2="502.79999999999995" stroke="#000"/>
<text x="614.0" y="512.4" fill="#111" font-size="small" font-family="monospace" font-weight="bold" text-anchor="end" transform="rotate(-60, 614.0, 512.4)">
keyword_args
</text>
<rect x="661.0" y="447.2218840540969" width="23.5" height="50.778115945903075" fill="#7070f8" data-tooltip="1.00x baseline speed (No JIT)"/>
<line x1="661.0" y1="447.10469660236134" x2="684.5" y2="447.10469660236134" stroke="#000"/>
<line x1="661.0" y1="447.33907150583246" x2="684.5" y2="447.33907150583246" stroke="#000"/>
<line x1="672.7500000000001" y1="447.10469660236134" x2="672.7500000000001" y2="447.33907150583246" stroke="#000"/>
<rect x="684.5" y="436.7933790835184" width="23.5" height="61.20662091648155" fill="orange" data-tooltip="1.21x baseline speed (MJIT)"/>
<line x1="684.5" y1="434.6523060708626" x2="708.0" y2="434.6523060708626" stroke="#000"/>
<line x1="684.5" y1="438.93445209617414" x2="708.0" y2="438.93445209617414" stroke="#000"/>
<line x1="696.25" y1="434.6523060708626" x2="696.25" y2="438.93445209617414" stroke="#000"/>
<rect x="708.0000000000001" y="422.22258142764935" width="23.5" height="75.77741857235063" fill="green" data-tooltip="1.49x baseline speed (YJIT)"/>
<line x1="708.0000000000001" y1="422.0318863692206" x2="731.5" y2="422.0318863692206" stroke="#000"/>
<line x1="708.0000000000001" y1="422.4132764860781" x2="731.5" y2="422.4132764860781" stroke="#000"/>
<line x1="719.7500000000001" y1="422.0318863692206" x2="719.7500000000001" y2="422.4132764860781" stroke="#000"/>
<line x1="708.0000000000001" y1="498.0" x2="708.0000000000001" y2="502.79999999999995" stroke="#000"/>
<text x="708.0000000000001" y="512.4" fill="#111" font-size="small" font-family="monospace" font-weight="bold" text-anchor="end" transform="rotate(-60, 708.0000000000001, 512.4)">
respond_to
</text>
<rect x="755.0" y="447.2218840540969" width="23.5" height="50.778115945903075" fill="#7070f8" data-tooltip="1.00x baseline speed (No JIT)"/>
<line x1="755.0" y1="447.1714726949215" x2="778.5" y2="447.1714726949215" stroke="#000"/>
<line x1="755.0" y1="447.27229541327233" x2="778.5" y2="447.27229541327233" stroke="#000"/>
<line x1="766.75" y1="447.1714726949215" x2="766.75" y2="447.27229541327233" stroke="#000"/>
<rect x="778.5" y="287.7546089674125" width="23.5" height="210.24539103258743" fill="orange" data-tooltip="4.14x baseline speed (MJIT)"/>
<line x1="778.5" y1="156.49005862605736" x2="801.9999999999999" y2="156.49005862605736" stroke="#000"/>
<line x1="778.5" y1="419.01915930876766" x2="801.9999999999999" y2="419.01915930876766" stroke="#000"/>
<line x1="790.25" y1="156.49005862605736" x2="790.25" y2="419.01915930876766" stroke="#000"/>
<rect x="802.0" y="421.8222315022256" width="23.5" height="76.1777684977743" fill="green" data-tooltip="1.50x baseline speed (YJIT)"/>
<line x1="802.0" y1="421.62657480185084" x2="825.5" y2="421.62657480185084" stroke="#000"/>
<line x1="802.0" y1="422.0178882026003" x2="825.5" y2="422.0178882026003" stroke="#000"/>
<line x1="813.7500000000001" y1="421.62657480185084" x2="813.7500000000001" y2="422.0178882026003" stroke="#000"/>
<line x1="802.0" y1="498.0" x2="802.0" y2="502.79999999999995" stroke="#000"/>
<text x="802.0" y="512.4" fill="#111" font-size="small" font-family="monospace" font-weight="bold" text-anchor="end" transform="rotate(-60, 802.0, 512.4)">
setivar
</text>
<rect x="849.0" y="447.2218840540969" width="23.5" height="50.778115945903075" fill="#7070f8" data-tooltip="1.00x baseline speed (No JIT)"/>
<line x1="849.0" y1="446.7126621558815" x2="872.4999999999999" y2="446.7126621558815" stroke="#000"/>
<line x1="849.0" y1="447.7311059523123" x2="872.4999999999999" y2="447.7311059523123" stroke="#000"/>
<line x1="860.75" y1="446.7126621558815" x2="860.75" y2="447.7311059523123" stroke="#000"/>
<rect x="872.4999999999999" y="424.12412320479643" width="23.5" height="73.8758767952035" fill="orange" data-tooltip="1.45x baseline speed (MJIT)"/>
<line x1="872.4999999999999" y1="417.2513473639607" x2="895.9999999999999" y2="417.2513473639607" stroke="#000"/>
<line x1="872.4999999999999" y1="430.99689904563223" x2="895.9999999999999" y2="430.99689904563223" stroke="#000"/>
<line x1="884.25" y1="417.2513473639607" x2="884.25" y2="430.99689904563223" stroke="#000"/>
<rect x="896.0" y="414.61082523476847" width="23.5" height="83.38917476523142" fill="green" data-tooltip="1.64x baseline speed (YJIT)"/>
<line x1="896.0" y1="413.42088860967493" x2="919.5" y2="413.42088860967493" stroke="#000"/>
<line x1="896.0" y1="415.800761859862" x2="919.5" y2="415.800761859862" stroke="#000"/>
<line x1="907.75" y1="413.42088860967493" x2="907.75" y2="415.800761859862" stroke="#000"/>
<line x1="896.0" y1="498.0" x2="896.0" y2="502.79999999999995" stroke="#000"/>
<text x="896.0" y="512.4" fill="#111" font-size="small" font-family="monospace" font-weight="bold" text-anchor="end" transform="rotate(-60, 896.0, 512.4)">
str_concat
</text>
</svg>