<svg viewBox="0 0 1000 600" xmlns="http://www.w3.org/2000/svg" xmlns:xlink="http://www.w3.org/1999/xlink" width="100%" height="100%">

<rect x="50.0" y="30.0" width="940.0" height="467.99999999999994" stroke="#000" fill="#EEE"/>
<line x1="42.0" y1="497.9999999999999" x2="50.0" y2="497.9999999999999" stroke="#000"/>
<text x="26.000000000000004" y="497.9999999999999" text-anchor="end" font-weight="bold" font-size="small" fill="#111">
0.0
</text>
<line x1="42.0" y1="444.6675185494475" x2="50.0" y2="444.6675185494475" stroke="#000"/>
<text x="26.000000000000004" y="444.6675185494475" text-anchor="end" font-weight="bold" font-size="small" fill="#111">
1.0
</text>
<line x1="42.0" y1="391.33503709889504" x2="50.0" y2="391.33503709889504" stroke="#000"/>
<text x="26.000000000000004" y="391.33503709889504" text-anchor="end" font-weight="bold" font-size="small" fill="#111">
2.0
</text>
<line x1="42.0" y1="338.0025556483427" x2="50.0" y2="338.0025556483427" stroke="#000"/>
<text x="26.000000000000004" y="338.0025556483427" text-anchor="end" font-weight="bold" font-size="small" fill="#111">
3.0
</text>
<line x1="42.0" y1="284.67007419779026" x2="50.0" y2="284.67007419779026" stroke="#000"/>
<text x="26.000000000000004" y="284.67007419779026" text-anchor="end" font-weight="bold" font-size="small" fill="#111">
4.0
</text>
<line x1="42.0" y1="231.33759274723784" x2="50.0" y2="231.33759274723784" stroke="#000"/>
<text x="26.000000000000004" y="231.33759274723784" text-anchor="end" font-weight="bold" font-size="small" fill="#111">
5.0
</text>
<line x1="42.0" y1="178.00511129668547" x2="50.0" y2="178.00511129668547" stroke="#000"/>
<text x="26.000000000000004" y="178.00511129668547" text-anchor="end" font-weight="bold" font-size="small" fill="#111">
6.0
</text>
<line x1="42.0" y1="124.67262984613303" x2="50.0" y2="124.67262984613303" stroke="#000"/>
<text x="26.000000000000004" y="124.67262984613303" text-anchor="end" font-weight="bold" font-size="small" fill="#111">
7.0
</text>
<rect x="197.99999999999997" y="36.00000000000001" width="80.0" height="18.0" fill="#7070f8" stroke="#888"/>
<text x="238.0" y="52.50000000000001" font-size="small" text-anchor="middle" font-weight="bold" fill="#EEE">
No JIT
</text>
<rect x="479.99999999999994" y="36.00000000000001" width="80.0" height="18.0" fill="orange" stroke="#888"/>
<text x="519.9999999999999" y="52.50000000000001" font-size="small" text-anchor="middle" font-weight="bold" fill="#EEE">
MJIT
</text>
<rect x="761.9999999999999" y="36.00000000000001" width="80.0" height="18.0" fill="green" stroke="#888"/>
<text x="801.9999999999999" y="52.50000000000001" font-size="small" text-anchor="middle" font-weight="bold" fill="#EEE">
YJIT
</text>
<rect x="97.0" y="444.6675185494475" width="8.8125" height="53.33248145055242" fill="#7070f8" data-tooltip="1.00x baseline speed (No JIT)"/>
<line x1="97.0" y1="444.4642675895507" x2="105.8125" y2="444.4642675895507" stroke="#000"/>
<line x1="97.0" y1="444.87076950934426" x2="105.8125" y2="444.87076950934426" stroke="#000"/>
<line x1="101.40625" y1="444.4642675895507" x2="101.40625" y2="444.87076950934426" stroke="#000"/>
<rect x="105.8125" y="451.43196373008124" width="8.8125" height="46.56803626991868" fill="orange" data-tooltip="0.87x baseline speed (MJIT)"/>
<line x1="105.8125" y1="449.9536420449056" x2="114.625" y2="449.9536420449056" stroke="#000"/>
<line x1="105.8125" y1="452.9102854152569" x2="114.625" y2="452.9102854152569" stroke="#000"/>
<line x1="110.21875" y1="449.9536420449056" x2="110.21875" y2="452.9102854152569" stroke="#000"/>
<rect x="114.625" y="424.7788880564153" width="8.8125" height="73.2211119435847" fill="green" data-tooltip="1.37x baseline speed (YJIT)"/>
<line x1="114.625" y1="424.30955659473256" x2="123.4375" y2="424.30955659473256" stroke="#000"/>
<line x1="114.625" y1="425.2482195180981" x2="123.4375" y2="425.2482195180981" stroke="#000"/>
<line x1="119.03125" y1="424.30955659473256" x2="119.03125" y2="425.2482195180981" stroke="#000"/>
<line x1="114.625" y1="498.0" x2="114.625" y2="502.79999999999995" stroke="#000"/>
<text x="114.625" y="512.4" fill="#111" font-size="small" font-family="monospace" font-weight="bold" text-anchor="end" transform="rotate(-60, 114.625, 512.4)">
activerecord
</text>
<rect x="132.25" y="444.6675185494475" width="8.8125" height="53.33248145055242" fill="#7070f8" data-tooltip="1.00x baseline speed (No JIT)"/>
<line x1="132.25" y1="444.2762962297987" x2="141.0625" y2="444.2762962297987" stroke="#000"/>
<line x1="132.25" y1="445.05874086909625" x2="141.0625" y2="445.05874086909625" stroke="#000"/>
<line x1="136.65625" y1="444.2762962297987" x2="136.65625" y2="445.05874086909625" stroke="#000"/>
<rect x="149.875" y="426.6238341905462" width="8.8125" height="71.37616580945375" fill="green" data-tooltip="1.34x baseline speed (YJIT)"/>
<line x1="149.875" y1="425.32122713583846" x2="158.6875" y2="425.32122713583846" stroke="#000"/>
<line x1="149.875" y1="427.9264412452539" x2="158.6875" y2="427.9264412452539" stroke="#000"/>
<line x1="154.28125" y1="425.32122713583846" x2="154.28125" y2="427.9264412452539" stroke="#000"/>
<line x1="149.875" y1="498.0" x2="149.875" y2="502.79999999999995" stroke="#000"/>
<text x="149.875" y="512.4" fill="#111" font-size="small" font-family="monospace" font-weight="bold" text-anchor="end" transform="rotate(-60, 149.875, 512.4)">
hexapdf
</text>
<rect x="167.49999999999997" y="444.6675185494475" width="8.8125" height="53.33248145055242" fill="#7070f8" data-tooltip="1.00x baseline speed (No JIT)"/>
<line x1="167.49999999999997" y1="444.07470409323304" x2="176.31249999999997" y2="444.07470409323304" stroke="#000"/>
<line x1="167.49999999999997" y1="445.2603330056619" x2="176.31249999999997" y2="445.2603330056619" stroke="#000"/>
<line x1="171.90624999999997" y1="444.07470409323304" x2="171.90624999999997" y2="445.2603330056619" stroke="#000"/>
<rect x="176.31249999999997" y="441.1791648941161" width="8.8125" height="56.820835105883866" fill="orange" data-tooltip="1.07x baseline speed (MJIT)"/>
<line x1="176.31249999999997" y1="440.0871555964381" x2="185.12499999999997" y2="440.0871555964381" stroke="#000"/>
<line x1="176.31249999999997" y1="442.27117419179416" x2="185.12499999999997" y2="442.27117419179416" stroke="#000"/>
<line x1="180.71874999999997" y1="440.0871555964381" x2="180.71874999999997" y2="442.27117419179416" stroke="#000"/>
<rect x="185.12499999999997" y="415.4770011620702" width="8.8125" height="82.52299883792975" fill="green" data-tooltip="1.55x baseline speed (YJIT)"/>
<line x1="185.12499999999997" y1="413.61809052832854" x2="193.93749999999997" y2="413.61809052832854" stroke="#000"/>
<line x1="185.12499999999997" y1="417.3359117958119" x2="193.93749999999997" y2="417.3359117958119" stroke="#000"/>
<line x1="189.53124999999997" y1="413.61809052832854" x2="189.53124999999997" y2="417.3359117958119" stroke="#000"/>
<line x1="185.12499999999997" y1="498.0" x2="185.12499999999997" y2="502.79999999999995" stroke="#000"/>
<text x="185.12499999999997" y="512.4" fill="#111" font-size="small" font-family="monospace" font-weight="bold" text-anchor="end" transform="rotate(-60, 185.12499999999997, 512.4)">
liquid-render
</text>
<rect x="202.75" y="444.6675185494475" width="8.8125" height="53.33248145055242" fill="#7070f8" data-tooltip="1.00x baseline speed (No JIT)"/>
<line x1="202.75" y1="444.08469425455013" x2="211.5625" y2="444.08469425455013" stroke="#000"/>
<line x1="202.75" y1="445.25034284434486" x2="211.5625" y2="445.25034284434486" stroke="#000"/>
<line x1="207.15625" y1="444.08469425455013" x2="207.15625" y2="445.25034284434486" stroke="#000"/>
<rect x="211.5625" y="443.4283098312251" width="8.8125" height="54.57169016877485" fill="orange" data-tooltip="1.02x baseline speed (MJIT)"/>
<line x1="211.5625" y1="442.32524357973386" x2="220.375" y2="442.32524357973386" stroke="#000"/>
<line x1="211.5625" y1="444.53137608271624" x2="220.375" y2="444.53137608271624" stroke="#000"/>
<line x1="215.96875" y1="442.32524357973386" x2="215.96875" y2="444.53137608271624" stroke="#000"/>
<rect x="220.375" y="438.3861454288359" width="8.8125" height="59.61385457116408" fill="green" data-tooltip="1.12x baseline speed (YJIT)"/>
<line x1="220.375" y1="437.69732086873836" x2="229.1875" y2="437.69732086873836" stroke="#000"/>
<line x1="220.375" y1="439.0749699889334" x2="229.1875" y2="439.0749699889334" stroke="#000"/>
<line x1="224.78125" y1="437.69732086873836" x2="224.78125" y2="439.0749699889334" stroke="#000"/>
<line x1="220.375" y1="498.0" x2="220.375" y2="502.79999999999995" stroke="#000"/>
<text x="220.375" y="512.4" fill="#111" font-size="small" font-family="monospace" font-weight="bold" text-anchor="end" transform="rotate(-60, 220.375, 512.4)">
mail
</text>
<rect x="238.0" y="444.6675185494475" width="8.8125" height="53.33248145055242" fill="#7070f8" data-tooltip="1.00x baseline speed (No JIT)"/>
<line x1="238.0" y1="444.57238617889374" x2="246.8125" y2="444.57238617889374" stroke="#000"/>
<line x1="238.0" y1="444.76265092000125" x2="246.8125" y2="444.76265092000125" stroke="#000"/>
<line x1="242.40625" y1="444.57238617889374" x2="242.40625" y2="444.76265092000125" stroke="#000"/>
<rect x="246.8125" y="434.9409964525623" width="8.8125" height="63.05900354743776" fill="orange" data-tooltip="1.18x baseline speed (MJIT)"/>
<line x1="246.8125" y1="434.8199505595975" x2="255.625" y2="434.8199505595975" stroke="#000"/>
<line x1="246.8125" y1="435.062042345527" x2="255.625" y2="435.062042345527" stroke="#000"/>
<line x1="251.21875" y1="434.8199505595975" x2="251.21875" y2="435.062042345527" stroke="#000"/>
<rect x="255.625" y="427.6293102023318" width="8.8125" height="70.37068979766819" fill="green" data-tooltip="1.32x baseline speed (YJIT)"/>
<line x1="255.625" y1="427.47636969588257" x2="264.4375" y2="427.47636969588257" stroke="#000"/>
<line x1="255.625" y1="427.7822507087811" x2="264.4375" y2="427.7822507087811" stroke="#000"/>
<line x1="260.03125" y1="427.47636969588257" x2="260.03125" y2="427.7822507087811" stroke="#000"/>
<line x1="255.625" y1="498.0" x2="255.625" y2="502.79999999999995" stroke="#000"/>
<text x="255.625" y="512.4" fill="#111" font-size="small" font-family="monospace" font-weight="bold" text-anchor="end" transform="rotate(-60, 255.625, 512.4)">
psych-load
</text>
<rect x="273.25" y="444.6675185494475" width="8.8125" height="53.33248145055242" fill="#7070f8" data-tooltip="1.00x baseline speed (No JIT)"/>
<line x1="273.25" y1="444.18650245894304" x2="282.0625" y2="444.18650245894304" stroke="#000"/>
<line x1="273.25" y1="445.1485346399519" x2="282.0625" y2="445.1485346399519" stroke="#000"/>
<line x1="277.65625" y1="444.18650245894304" x2="277.65625" y2="445.1485346399519" stroke="#000"/>
<rect x="282.0625" y="449.8018296935528" width="8.8125" height="48.198170306447054" fill="orange" data-tooltip="0.90x baseline speed (MJIT)"/>
<line x1="282.0625" y1="449.02686589439764" x2="290.875" y2="449.02686589439764" stroke="#000"/>
<line x1="282.0625" y1="450.57679349270796" x2="290.875" y2="450.57679349270796" stroke="#000"/>
<line x1="286.46875" y1="449.02686589439764" x2="286.46875" y2="450.57679349270796" stroke="#000"/>
<rect x="290.875" y="429.8526372963624" width="8.8125" height="68.14736270363758" fill="green" data-tooltip="1.28x baseline speed (YJIT)"/>
<line x1="290.875" y1="428.71098642370714" x2="299.6875" y2="428.71098642370714" stroke="#000"/>
<line x1="290.875" y1="430.99428816901764" x2="299.6875" y2="430.99428816901764" stroke="#000"/>
<line x1="295.28125" y1="428.71098642370714" x2="295.28125" y2="430.99428816901764" stroke="#000"/>
<line x1="290.875" y1="498.0" x2="290.875" y2="502.79999999999995" stroke="#000"/>
<text x="290.875" y="512.4" fill="#111" font-size="small" font-family="monospace" font-weight="bold" text-anchor="end" transform="rotate(-60, 290.875, 512.4)">
railsbench
</text>
<rect x="308.5" y="444.6675185494475" width="8.8125" height="53.33248145055242" fill="#7070f8" data-tooltip="1.00x baseline speed (No JIT)"/>
<line x1="308.5" y1="444.63052543381053" x2="317.3125" y2="444.63052543381053" stroke="#000"/>
<line x1="308.5" y1="444.70451166508445" x2="317.3125" y2="444.70451166508445" stroke="#000"/>
<line x1="312.90625" y1="444.63052543381053" x2="312.90625" y2="444.70451166508445" stroke="#000"/>
<rect x="317.3125" y="416.9678855702031" width="8.8125" height="81.03211442979689" fill="orange" data-tooltip="1.52x baseline speed (MJIT)"/>
<line x1="317.3125" y1="416.6824219458169" x2="326.125" y2="416.6824219458169" stroke="#000"/>
<line x1="317.3125" y1="417.25334919458936" x2="326.125" y2="417.25334919458936" stroke="#000"/>
<line x1="321.71875" y1="416.6824219458169" x2="321.71875" y2="417.25334919458936" stroke="#000"/>
<rect x="326.125" y="428.28163621076845" width="8.8125" height="69.71836378923152" fill="green" data-tooltip="1.31x baseline speed (YJIT)"/>
<line x1="326.125" y1="428.15983032085165" x2="334.9375" y2="428.15983032085165" stroke="#000"/>
<line x1="326.125" y1="428.40344210068525" x2="334.9375" y2="428.40344210068525" stroke="#000"/>
<line x1="330.53125" y1="428.15983032085165" x2="330.53125" y2="428.40344210068525" stroke="#000"/>
<line x1="326.125" y1="498.0" x2="326.125" y2="502.79999999999995" stroke="#000"/>
<text x="326.125" y="512.4" fill="#111" font-size="small" font-family="monospace" font-weight="bold" text-anchor="end" transform="rotate(-60, 326.125, 512.4)">
binarytrees
</text>
<rect x="343.75" y="444.6675185494475" width="8.8125" height="53.33248145055242" fill="#7070f8" data-tooltip="1.00x baseline speed (No JIT)"/>
<line x1="343.75" y1="444.64191644088805" x2="352.5625" y2="444.64191644088805" stroke="#000"/>
<line x1="343.75" y1="444.69312065800693" x2="352.5625" y2="444.69312065800693" stroke="#000"/>
<line x1="348.15625" y1="444.64191644088805" x2="348.15625" y2="444.69312065800693" stroke="#000"/>
<rect x="352.5625" y="433.1864649911006" width="8.8125" height="64.81353500889936" fill="orange" data-tooltip="1.22x baseline speed (MJIT)"/>
<line x1="352.5625" y1="433.01434486339866" x2="361.375" y2="433.01434486339866" stroke="#000"/>
<line x1="352.5625" y1="433.3585851188025" x2="361.375" y2="433.3585851188025" stroke="#000"/>
<line x1="356.96875" y1="433.01434486339866" x2="356.96875" y2="433.3585851188025" stroke="#000"/>
<rect x="361.375" y="419.1665096486109" width="8.8125" height="78.83349035138899" fill="green" data-tooltip="1.48x baseline speed (YJIT)"/>
<line x1="361.375" y1="418.8158273141629" x2="370.1875" y2="418.8158273141629" stroke="#000"/>
<line x1="361.375" y1="419.51719198305886" x2="370.1875" y2="419.51719198305886" stroke="#000"/>
<line x1="365.78125" y1="418.8158273141629" x2="365.78125" y2="419.51719198305886" stroke="#000"/>
<line x1="361.375" y1="498.0" x2="361.375" y2="502.79999999999995" stroke="#000"/>
<text x="361.375" y="512.4" fill="#111" font-size="small" font-family="monospace" font-weight="bold" text-anchor="end" transform="rotate(-60, 361.375, 512.4)">
chunky_png
</text>
<rect x="379.0" y="444.6675185494475" width="8.8125" height="53.33248145055242" fill="#7070f8" data-tooltip="1.00x baseline speed (No JIT)"/>
<line x1="379.0" y1="435.93068113339206" x2="387.8125" y2="435.93068113339206" stroke="#000"/>
<line x1="379.0" y1="453.40435596550293" x2="387.8125" y2="453.40435596550293" stroke="#000"/>
<line x1="383.40625" y1="435.93068113339206" x2="383.40625" y2="453.40435596550293" stroke="#000"/>
<rect x="387.8125" y="438.87151393362467" width="8.8125" height="59.12848606637522" fill="orange" data-tooltip="1.11x baseline speed (MJIT)"/>
<line x1="387.8125" y1="426.0782489914162" x2="396.625" y2="426.0782489914162" stroke="#000"/>
<line x1="387.8125" y1="451.6647788758331" x2="396.625" y2="451.6647788758331" stroke="#000"/>
<line x1="392.21875" y1="426.0782489914162" x2="392.21875" y2="451.6647788758331" stroke="#000"/>
<rect x="396.625" y="440.07753034111835" width="8.8125" height="57.92246965888157" fill="green" data-tooltip="1.09x baseline speed (YJIT)"/>
<line x1="396.625" y1="427.74283786090865" x2="405.4375" y2="427.74283786090865" stroke="#000"/>
<line x1="396.625" y1="452.41222282132804" x2="405.4375" y2="452.41222282132804" stroke="#000"/>
<line x1="401.03125" y1="427.74283786090865" x2="401.03125" y2="452.41222282132804" stroke="#000"/>
<line x1="396.625" y1="498.0" x2="396.625" y2="502.79999999999995" stroke="#000"/>
<text x="396.625" y="512.4" fill="#111" font-size="small" font-family="monospace" font-weight="bold" text-anchor="end" transform="rotate(-60, 396.625, 512.4)">
discourse
</text>
<rect x="414.25" y="444.6675185494475" width="8.8125" height="53.33248145055242" fill="#7070f8" data-tooltip="1.00x baseline speed (No JIT)"/>
<line x1="414.25" y1="444.32672104502194" x2="423.0625" y2="444.32672104502194" stroke="#000"/>
<line x1="414.25" y1="445.008316053873" x2="423.0625" y2="445.008316053873" stroke="#000"/>
<line x1="418.65625" y1="444.32672104502194" x2="418.65625" y2="445.008316053873" stroke="#000"/>
<rect x="423.0625" y="440.71650612469904" width="8.8125" height="57.283493875300934" fill="orange" data-tooltip="1.07x baseline speed (MJIT)"/>
<line x1="423.0625" y1="440.19201692398633" x2="431.875" y2="440.19201692398633" stroke="#000"/>
<line x1="423.0625" y1="441.24099532541175" x2="431.875" y2="441.24099532541175" stroke="#000"/>
<line x1="427.46875" y1="440.19201692398633" x2="427.46875" y2="441.24099532541175" stroke="#000"/>
<rect x="431.875" y="438.2631062426047" width="8.8125" height="59.73689375739528" fill="green" data-tooltip="1.12x baseline speed (YJIT)"/>
<line x1="431.875" y1="437.69175862660256" x2="440.6875" y2="437.69175862660256" stroke="#000"/>
<line x1="431.875" y1="438.8344538586068" x2="440.6875" y2="438.8344538586068" stroke="#000"/>
<line x1="436.28125" y1="437.69175862660256" x2="436.28125" y2="438.8344538586068" stroke="#000"/>
<line x1="431.875" y1="498.0" x2="431.875" y2="502.79999999999995" stroke="#000"/>
<text x="431.875" y="512.4" fill="#111" font-size="small" font-family="monospace" font-weight="bold" text-anchor="end" transform="rotate(-60, 431.875, 512.4)">
erubi
</text>
<rect x="449.5" y="444.6675185494475" width="8.8125" height="53.33248145055242" fill="#7070f8" data-tooltip="1.00x baseline speed (No JIT)"/>
<line x1="449.5" y1="443.3761876234416" x2="458.3125" y2="443.3761876234416" stroke="#000"/>
<line x1="449.5" y1="445.9588494754534" x2="458.3125" y2="445.9588494754534" stroke="#000"/>
<line x1="453.90625" y1="443.3761876234416" x2="453.90625" y2="445.9588494754534" stroke="#000"/>
<rect x="458.3125" y="449.1775390349751" width="8.8125" height="48.82246096502478" fill="orange" data-tooltip="0.92x baseline speed (MJIT)"/>
<line x1="458.3125" y1="446.65193270476544" x2="467.125" y2="446.65193270476544" stroke="#000"/>
<line x1="458.3125" y1="451.7031453651848" x2="467.125" y2="451.7031453651848" stroke="#000"/>
<line x1="462.71875" y1="446.65193270476544" x2="462.71875" y2="451.7031453651848" stroke="#000"/>
<rect x="467.125" y="424.9446972033657" width="8.8125" height="73.05530279663422" fill="green" data-tooltip="1.37x baseline speed (YJIT)"/>
<line x1="467.125" y1="421.8999176592246" x2="475.9375" y2="421.8999176592246" stroke="#000"/>
<line x1="467.125" y1="427.9894767475068" x2="475.9375" y2="427.9894767475068" stroke="#000"/>
<line x1="471.53125" y1="421.8999176592246" x2="471.53125" y2="427.9894767475068" stroke="#000"/>
<line x1="467.125" y1="498.0" x2="467.125" y2="502.79999999999995" stroke="#000"/>
<text x="467.125" y="512.4" fill="#111" font-size="small" font-family="monospace" font-weight="bold" text-anchor="end" transform="rotate(-60, 467.125, 512.4)">
erubi_rails
</text>
<rect x="484.75" y="444.6675185494475" width="8.8125" height="53.33248145055242" fill="#7070f8" data-tooltip="1.00x baseline speed (No JIT)"/>
<line x1="484.75" y1="444.63450331517436" x2="493.5625" y2="444.63450331517436" stroke="#000"/>
<line x1="484.75" y1="444.70053378372063" x2="493.5625" y2="444.70053378372063" stroke="#000"/>
<line x1="489.15625" y1="444.63450331517436" x2="489.15625" y2="444.70053378372063" stroke="#000"/>
<rect x="493.5625" y="403.49941276055404" width="8.8125" height="94.50058723944592" fill="orange" data-tooltip="1.77x baseline speed (MJIT)"/>
<line x1="493.5625" y1="403.4242747647057" x2="502.375" y2="403.4242747647057" stroke="#000"/>
<line x1="493.5625" y1="403.5745507564024" x2="502.375" y2="403.5745507564024" stroke="#000"/>
<line x1="497.96875" y1="403.4242747647057" x2="497.96875" y2="403.5745507564024" stroke="#000"/>
<rect x="502.375" y="445.88482524071054" width="8.8125" height="52.11517475928946" fill="green" data-tooltip="0.98x baseline speed (YJIT)"/>
<line x1="502.375" y1="445.7684996514841" x2="511.1875" y2="445.7684996514841" stroke="#000"/>
<line x1="502.375" y1="446.00115082993693" x2="511.1875" y2="446.00115082993693" stroke="#000"/>
<line x1="506.78124999999994" y1="445.7684996514841" x2="506.78124999999994" y2="446.00115082993693" stroke="#000"/>
<line x1="502.375" y1="498.0" x2="502.375" y2="502.79999999999995" stroke="#000"/>
<text x="502.375" y="512.4" fill="#111" font-size="small" font-family="monospace" font-weight="bold" text-anchor="end" transform="rotate(-60, 502.375, 512.4)">
fannkuchredux
</text>
<rect x="519.9999999999999" y="444.6675185494475" width="8.8125" height="53.33248145055242" fill="#7070f8" data-tooltip="1.00x baseline speed (No JIT)"/>
<line x1="519.9999999999999" y1="444.2457924059192" x2="528.8124999999999" y2="444.2457924059192" stroke="#000"/>
<line x1="519.9999999999999" y1="445.08924469297574" x2="528.8124999999999" y2="445.08924469297574" stroke="#000"/>
<line x1="524.4062499999999" y1="444.2457924059192" x2="524.4062499999999" y2="445.08924469297574" stroke="#000"/>
<rect x="528.8124999999999" y="432.80950857502205" width="8.8125" height="65.19049142497795" fill="orange" data-tooltip="1.22x baseline speed (MJIT)"/>
<line x1="528.8124999999999" y1="431.0939457892202" x2="537.6249999999999" y2="431.0939457892202" stroke="#000"/>
<line x1="528.8124999999999" y1="434.5250713608239" x2="537.6249999999999" y2="434.5250713608239" stroke="#000"/>
<line x1="533.2187499999999" y1="431.0939457892202" x2="533.2187499999999" y2="434.5250713608239" stroke="#000"/>
<rect x="537.6249999999999" y="424.4171707874812" width="8.8125" height="73.58282921251873" fill="green" data-tooltip="1.38x baseline speed (YJIT)"/>
<line x1="537.6249999999999" y1="422.9683107362578" x2="546.4374999999999" y2="422.9683107362578" stroke="#000"/>
<line x1="537.6249999999999" y1="425.8660308387046" x2="546.4374999999999" y2="425.8660308387046" stroke="#000"/>
<line x1="542.0312499999999" y1="422.9683107362578" x2="542.0312499999999" y2="425.8660308387046" stroke="#000"/>
<line x1="537.6249999999999" y1="498.0" x2="537.6249999999999" y2="502.79999999999995" stroke="#000"/>
<text x="537.6249999999999" y="512.4" fill="#111" font-size="small" font-family="monospace" font-weight="bold" text-anchor="end" transform="rotate(-60, 537.6249999999999, 512.4)">
lee
</text>
<rect x="555.2499999999999" y="444.6675185494475" width="8.8125" height="53.33248145055242" fill="#7070f8" data-tooltip="1.00x baseline speed (No JIT)"/>
<line x1="555.2499999999999" y1="444.62086167716785" x2="564.0624999999999" y2="444.62086167716785" stroke="#000"/>
<line x1="555.2499999999999" y1="444.7141754217271" x2="564.0624999999999" y2="444.7141754217271" stroke="#000"/>
<line x1="559.6562499999999" y1="444.62086167716785" x2="559.6562499999999" y2="444.7141754217271" stroke="#000"/>
<rect x="564.0624999999999" y="406.4297926089219" width="8.8125" height="91.57020739107806" fill="orange" data-tooltip="1.72x baseline speed (MJIT)"/>
<line x1="564.0624999999999" y1="406.3430272749978" x2="572.8749999999999" y2="406.3430272749978" stroke="#000"/>
<line x1="564.0624999999999" y1="406.516557942846" x2="572.8749999999999" y2="406.516557942846" stroke="#000"/>
<line x1="568.4687499999999" y1="406.3430272749978" x2="568.4687499999999" y2="406.516557942846" stroke="#000"/>
<rect x="572.8749999999999" y="423.52165993433636" width="8.8125" height="74.47834006566359" fill="green" data-tooltip="1.40x baseline speed (YJIT)"/>
<line x1="572.8749999999999" y1="423.16421786633674" x2="581.6874999999999" y2="423.16421786633674" stroke="#000"/>
<line x1="572.8749999999999" y1="423.87910200233597" x2="581.6874999999999" y2="423.87910200233597" stroke="#000"/>
<line x1="577.2812499999999" y1="423.16421786633674" x2="577.2812499999999" y2="423.87910200233597" stroke="#000"/>
<line x1="572.8749999999999" y1="498.0" x2="572.8749999999999" y2="502.79999999999995" stroke="#000"/>
<text x="572.8749999999999" y="512.4" fill="#111" font-size="small" font-family="monospace" font-weight="bold" text-anchor="end" transform="rotate(-60, 572.8749999999999, 512.4)">
nbody
</text>
<rect x="590.4999999999999" y="444.6675185494475" width="8.8125" height="53.33248145055242" fill="#7070f8" data-tooltip="1.00x baseline speed (No JIT)"/>
<line x1="590.4999999999999" y1="444.4418668867547" x2="599.3124999999999" y2="444.4418668867547" stroke="#000"/>
<line x1="590.4999999999999" y1="444.8931702121402" x2="599.3124999999999" y2="444.8931702121402" stroke="#000"/>
<line x1="594.9062499999999" y1="444.4418668867547" x2="594.9062499999999" y2="444.8931702121402" stroke="#000"/>
<rect x="599.3124999999999" y="369.70554014493285" width="8.8125" height="128.29445985506712" fill="orange" data-tooltip="2.41x baseline speed (MJIT)"/>
<line x1="599.3124999999999" y1="368.7723562548579" x2="608.1249999999999" y2="368.7723562548579" stroke="#000"/>
<line x1="599.3124999999999" y1="370.63872403500784" x2="608.1249999999999" y2="370.63872403500784" stroke="#000"/>
<line x1="603.7187499999999" y1="368.7723562548579" x2="603.7187499999999" y2="370.63872403500784" stroke="#000"/>
<rect x="608.1249999999999" y="406.1431345427987" width="8.8125" height="91.85686545720127" fill="green" data-tooltip="1.72x baseline speed (YJIT)"/>
<line x1="608.1249999999999" y1="405.4626607371821" x2="616.9374999999999" y2="405.4626607371821" stroke="#000"/>
<line x1="608.1249999999999" y1="406.8236083484153" x2="616.9374999999999" y2="406.8236083484153" stroke="#000"/>
<line x1="612.5312499999999" y1="405.4626607371821" x2="612.5312499999999" y2="406.8236083484153" stroke="#000"/>
<line x1="608.1249999999999" y1="498.0" x2="608.1249999999999" y2="502.79999999999995" stroke="#000"/>
<text x="608.1249999999999" y="512.4" fill="#111" font-size="small" font-family="monospace" font-weight="bold" text-anchor="end" transform="rotate(-60, 608.1249999999999, 512.4)">
optcarrot
</text>
<rect x="625.7499999999999" y="444.6675185494475" width="8.8125" height="53.33248145055242" fill="#7070f8" data-tooltip="1.00x baseline speed (No JIT)"/>
<line x1="625.7499999999999" y1="444.3832543090479" x2="634.5624999999999" y2="444.3832543090479" stroke="#000"/>
<line x1="625.7499999999999" y1="444.951782789847" x2="634.5624999999999" y2="444.951782789847" stroke="#000"/>
<line x1="630.1562499999999" y1="444.3832543090479" x2="630.1562499999999" y2="444.951782789847" stroke="#000"/>
<rect x="634.5624999999999" y="416.6850123386505" width="8.8125" height="81.31498766134942" fill="orange" data-tooltip="1.52x baseline speed (MJIT)"/>
<line x1="634.5624999999999" y1="416.11855007201507" x2="643.3749999999999" y2="416.11855007201507" stroke="#000"/>
<line x1="634.5624999999999" y1="417.25147460528586" x2="643.3749999999999" y2="417.25147460528586" stroke="#000"/>
<line x1="638.9687499999999" y1="416.11855007201507" x2="638.9687499999999" y2="417.25147460528586" stroke="#000"/>
<rect x="643.3749999999999" y="397.05106118224705" width="8.8125" height="100.94893881775288" fill="green" data-tooltip="1.89x baseline speed (YJIT)"/>
<line x1="643.3749999999999" y1="396.4121826387309" x2="652.1874999999999" y2="396.4121826387309" stroke="#000"/>
<line x1="643.3749999999999" y1="397.6899397257632" x2="652.1874999999999" y2="397.6899397257632" stroke="#000"/>
<line x1="647.7812499999999" y1="396.4121826387309" x2="647.7812499999999" y2="397.6899397257632" stroke="#000"/>
<line x1="643.3749999999999" y1="498.0" x2="643.3749999999999" y2="502.79999999999995" stroke="#000"/>
<text x="643.3749999999999" y="512.4" fill="#111" font-size="small" font-family="monospace" font-weight="bold" text-anchor="end" transform="rotate(-60, 643.3749999999999, 512.4)">
rubykon
</text>
<rect x="660.9999999999999" y="444.6675185494475" width="8.8125" height="53.33248145055242" fill="#7070f8" data-tooltip="1.00x baseline speed (No JIT)"/>
<line x1="660.9999999999999" y1="444.6635779339347" x2="669.8124999999999" y2="444.6635779339347" stroke="#000"/>
<line x1="660.9999999999999" y1="444.6714591649603" x2="669.8124999999999" y2="444.6714591649603" stroke="#000"/>
<line x1="665.4062499999999" y1="444.6635779339347" x2="665.4062499999999" y2="444.6714591649603" stroke="#000"/>
<rect x="669.8124999999999" y="461.8331375745051" width="8.8125" height="36.16686242549477" fill="orange" data-tooltip="0.68x baseline speed (MJIT)"/>
<line x1="669.8124999999999" y1="460.45581768257284" x2="678.6249999999999" y2="460.45581768257284" stroke="#000"/>
<line x1="669.8124999999999" y1="463.21045746643733" x2="678.6249999999999" y2="463.21045746643733" stroke="#000"/>
<line x1="674.2187499999999" y1="460.45581768257284" x2="674.2187499999999" y2="463.21045746643733" stroke="#000"/>
<rect x="678.6249999999999" y="148.31364379932586" width="8.8125" height="349.686356200674" fill="green" data-tooltip="6.56x baseline speed (YJIT)"/>
<line x1="678.6249999999999" y1="147.73414104554934" x2="687.4374999999999" y2="147.73414104554934" stroke="#000"/>
<line x1="678.6249999999999" y1="148.89314655310238" x2="687.4374999999999" y2="148.89314655310238" stroke="#000"/>
<line x1="683.0312499999999" y1="147.73414104554934" x2="683.0312499999999" y2="148.89314655310238" stroke="#000"/>
<line x1="678.6249999999999" y1="498.0" x2="678.6249999999999" y2="502.79999999999995" stroke="#000"/>
<text x="678.6249999999999" y="512.4" fill="#111" font-size="small" font-family="monospace" font-weight="bold" text-anchor="end" transform="rotate(-60, 678.6249999999999, 512.4)">
30k_ifelse
</text>
<rect x="696.2499999999999" y="444.6675185494475" width="8.8125" height="53.33248145055242" fill="#7070f8" data-tooltip="1.00x baseline speed (No JIT)"/>
<line x1="696.2499999999999" y1="444.6633256084769" x2="705.0624999999999" y2="444.6633256084769" stroke="#000"/>
<line x1="696.2499999999999" y1="444.67171149041803" x2="705.0624999999999" y2="444.67171149041803" stroke="#000"/>
<line x1="700.6562499999999" y1="444.6633256084769" x2="700.6562499999999" y2="444.67171149041803" stroke="#000"/>
<rect x="705.0624999999999" y="464.901470705103" width="8.8125" height="33.09852929489693" fill="orange" data-tooltip="0.62x baseline speed (MJIT)"/>
<line x1="705.0624999999999" y1="459.3929502487228" x2="713.8749999999999" y2="459.3929502487228" stroke="#000"/>
<line x1="705.0624999999999" y1="470.40999116148316" x2="713.8749999999999" y2="470.40999116148316" stroke="#000"/>
<line x1="709.4687499999999" y1="459.3929502487228" x2="709.4687499999999" y2="470.40999116148316" stroke="#000"/>
<rect x="713.8749999999999" y="114.88011756567013" width="8.8125" height="383.11988243432984" fill="green" data-tooltip="7.18x baseline speed (YJIT)"/>
<line x1="713.8749999999999" y1="114.6565014107221" x2="722.6874999999999" y2="114.6565014107221" stroke="#000"/>
<line x1="713.8749999999999" y1="115.10373372061818" x2="722.6874999999999" y2="115.10373372061818" stroke="#000"/>
<line x1="718.2812499999999" y1="114.6565014107221" x2="718.2812499999999" y2="115.10373372061818" stroke="#000"/>
<line x1="713.8749999999999" y1="498.0" x2="713.8749999999999" y2="502.79999999999995" stroke="#000"/>
<text x="713.8749999999999" y="512.4" fill="#111" font-size="small" font-family="monospace" font-weight="bold" text-anchor="end" transform="rotate(-60, 713.8749999999999, 512.4)">
30k_methods
</text>
<rect x="731.4999999999999" y="444.6675185494475" width="8.8125" height="53.33248145055242" fill="#7070f8" data-tooltip="1.00x baseline speed (No JIT)"/>
<line x1="731.4999999999999" y1="444.4963642309038" x2="740.3124999999999" y2="444.4963642309038" stroke="#000"/>
<line x1="731.4999999999999" y1="444.83867286799114" x2="740.3124999999999" y2="444.83867286799114" stroke="#000"/>
<line x1="735.9062499999999" y1="444.4963642309038" x2="735.9062499999999" y2="444.83867286799114" stroke="#000"/>
<rect x="740.3124999999999" y="415.69944379374084" width="8.8125" height="82.30055620625906" fill="orange" data-tooltip="1.54x baseline speed (MJIT)"/>
<line x1="740.3124999999999" y1="415.17937589997393" x2="749.1249999999999" y2="415.17937589997393" stroke="#000"/>
<line x1="740.3124999999999" y1="416.2195116875078" x2="749.1249999999999" y2="416.2195116875078" stroke="#000"/>
<line x1="744.7187499999999" y1="415.17937589997393" x2="744.7187499999999" y2="416.2195116875078" stroke="#000"/>
<rect x="749.1249999999999" y="372.7814766233612" width="8.8125" height="125.21852337663876" fill="green" data-tooltip="2.35x baseline speed (YJIT)"/>
<line x1="749.1249999999999" y1="371.48109274290476" x2="757.9374999999999" y2="371.48109274290476" stroke="#000"/>
<line x1="749.1249999999999" y1="374.08186050381755" x2="757.9374999999999" y2="374.08186050381755" stroke="#000"/>
<line x1="753.5312499999999" y1="371.48109274290476" x2="753.5312499999999" y2="374.08186050381755" stroke="#000"/>
<line x1="749.1249999999999" y1="498.0" x2="749.1249999999999" y2="502.79999999999995" stroke="#000"/>
<text x="749.1249999999999" y="512.4" fill="#111" font-size="small" font-family="monospace" font-weight="bold" text-anchor="end" transform="rotate(-60, 749.1249999999999, 512.4)">
cfunc_itself
</text>
<rect x="766.7499999999999" y="444.6675185494475" width="8.8125" height="53.33248145055242" fill="#7070f8" data-tooltip="1.00x baseline speed (No JIT)"/>
<line x1="766.7499999999999" y1="444.6394347176077" x2="775.5624999999999" y2="444.6394347176077" stroke="#000"/>
<line x1="766.7499999999999" y1="444.69560238128724" x2="775.5624999999999" y2="444.69560238128724" stroke="#000"/>
<line x1="771.1562499999999" y1="444.6394347176077" x2="771.1562499999999" y2="444.69560238128724" stroke="#000"/>
<rect x="775.5624999999999" y="350.93350701256867" width="8.8125" height="147.0664929874313" fill="orange" data-tooltip="2.76x baseline speed (MJIT)"/>
<line x1="775.5624999999999" y1="350.7730230871033" x2="784.3749999999999" y2="350.7730230871033" stroke="#000"/>
<line x1="775.5624999999999" y1="351.09399093803404" x2="784.3749999999999" y2="351.09399093803404" stroke="#000"/>
<line x1="779.9687499999999" y1="350.7730230871033" x2="779.9687499999999" y2="351.09399093803404" stroke="#000"/>
<rect x="784.3749999999999" y="295.3717564330335" width="8.8125" height="202.6282435669664" fill="green" data-tooltip="3.80x baseline speed (YJIT)"/>
<line x1="784.3749999999999" y1="294.2039326097511" x2="793.1874999999999" y2="294.2039326097511" stroke="#000"/>
<line x1="784.3749999999999" y1="296.53958025631596" x2="793.1874999999999" y2="296.53958025631596" stroke="#000"/>
<line x1="788.7812499999999" y1="294.2039326097511" x2="788.7812499999999" y2="296.53958025631596" stroke="#000"/>
<line x1="784.3749999999999" y1="498.0" x2="784.3749999999999" y2="502.79999999999995" stroke="#000"/>
<text x="784.3749999999999" y="512.4" fill="#111" font-size="small" font-family="monospace" font-weight="bold" text-anchor="end" transform="rotate(-60, 784.3749999999999, 512.4)">
fib
</text>
<rect x="801.9999999999999" y="444.6675185494475" width="8.8125" height="53.33248145055242" fill="#7070f8" data-tooltip="1.00x baseline speed (No JIT)"/>
<line x1="801.9999999999999" y1="444.42431435273954" x2="810.8124999999999" y2="444.42431435273954" stroke="#000"/>
<line x1="801.9999999999999" y1="444.91072274615544" x2="810.8124999999999" y2="444.91072274615544" stroke="#000"/>
<line x1="806.4062499999999" y1="444.42431435273954" x2="806.4062499999999" y2="444.91072274615544" stroke="#000"/>
<rect x="810.8124999999999" y="289.5743435708629" width="8.8125" height="208.42565642913704" fill="orange" data-tooltip="3.91x baseline speed (MJIT)"/>
<line x1="810.8124999999999" y1="158.50585555103697" x2="819.6249999999999" y2="158.50585555103697" stroke="#000"/>
<line x1="810.8124999999999" y1="420.64283159068884" x2="819.6249999999999" y2="420.64283159068884" stroke="#000"/>
<line x1="815.2187499999999" y1="158.50585555103697" x2="815.2187499999999" y2="420.64283159068884" stroke="#000"/>
<rect x="819.6249999999999" y="371.21673241203047" width="8.8125" height="126.78326758796945" fill="green" data-tooltip="2.38x baseline speed (YJIT)"/>
<line x1="819.6249999999999" y1="370.15852763708716" x2="828.4374999999999" y2="370.15852763708716" stroke="#000"/>
<line x1="819.6249999999999" y1="372.27493718697383" x2="828.4374999999999" y2="372.27493718697383" stroke="#000"/>
<line x1="824.0312499999999" y1="370.15852763708716" x2="824.0312499999999" y2="372.27493718697383" stroke="#000"/>
<line x1="819.6249999999999" y1="498.0" x2="819.6249999999999" y2="502.79999999999995" stroke="#000"/>
<text x="819.6249999999999" y="512.4" fill="#111" font-size="small" font-family="monospace" font-weight="bold" text-anchor="end" transform="rotate(-60, 819.6249999999999, 512.4)">
getivar
</text>
<rect x="837.2499999999999" y="444.6675185494475" width="8.8125" height="53.33248145055242" fill="#7070f8" data-tooltip="1.00x baseline speed (No JIT)"/>
<line x1="837.2499999999999" y1="444.61937053844616" x2="846.0624999999999" y2="444.61937053844616" stroke="#000"/>
<line x1="837.2499999999999" y1="444.71566656044877" x2="846.0624999999999" y2="444.71566656044877" stroke="#000"/>
<line x1="841.6562499999999" y1="444.61937053844616" x2="841.6562499999999" y2="444.71566656044877" stroke="#000"/>
<rect x="846.0624999999999" y="430.21753209956006" width="8.8125" height="67.78246790043985" fill="orange" data-tooltip="1.27x baseline speed (MJIT)"/>
<line x1="846.0624999999999" y1="430.06767765747844" x2="854.8749999999999" y2="430.06767765747844" stroke="#000"/>
<line x1="846.0624999999999" y1="430.3673865416416" x2="854.8749999999999" y2="430.3673865416416" stroke="#000"/>
<line x1="850.4687499999999" y1="430.06767765747844" x2="850.4687499999999" y2="430.3673865416416" stroke="#000"/>
<rect x="854.8749999999999" y="210.30668232222766" width="8.8125" height="287.6933176777723" fill="green" data-tooltip="5.39x baseline speed (YJIT)"/>
<line x1="854.8749999999999" y1="208.36747543895575" x2="863.6874999999999" y2="208.36747543895575" stroke="#000"/>
<line x1="854.8749999999999" y1="212.24588920549954" x2="863.6874999999999" y2="212.24588920549954" stroke="#000"/>
<line x1="859.2812499999999" y1="208.36747543895575" x2="859.2812499999999" y2="212.24588920549954" stroke="#000"/>
<line x1="854.8749999999999" y1="498.0" x2="854.8749999999999" y2="502.79999999999995" stroke="#000"/>
<text x="854.8749999999999" y="512.4" fill="#111" font-size="small" font-family="monospace" font-weight="bold" text-anchor="end" transform="rotate(-60, 854.8749999999999, 512.4)">
keyword_args
</text>
<rect x="872.4999999999999" y="444.6675185494475" width="8.8125" height="53.33248145055242" fill="#7070f8" data-tooltip="1.00x baseline speed (No JIT)"/>
<line x1="872.4999999999999" y1="444.59589164226463" x2="881.3125" y2="444.59589164226463" stroke="#000"/>
<line x1="872.4999999999999" y1="444.7391454566303" x2="881.3125" y2="444.7391454566303" stroke="#000"/>
<line x1="876.9062499999999" y1="444.59589164226463" x2="876.9062499999999" y2="444.7391454566303" stroke="#000"/>
<rect x="881.3125" y="438.1547708325688" width="8.8125" height="59.84522916743112" fill="orange" data-tooltip="1.12x baseline speed (MJIT)"/>
<line x1="881.3125" y1="437.9528618326025" x2="890.125" y2="437.9528618326025" stroke="#000"/>
<line x1="881.3125" y1="438.35667983253506" x2="890.125" y2="438.35667983253506" stroke="#000"/>
<line x1="885.7187499999999" y1="437.9528618326025" x2="885.7187499999999" y2="438.35667983253506" stroke="#000"/>
<rect x="890.125" y="418.8012181365263" width="8.8125" height="79.19878186347358" fill="green" data-tooltip="1.49x baseline speed (YJIT)"/>
<line x1="890.125" y1="418.4936841794439" x2="898.9375" y2="418.4936841794439" stroke="#000"/>
<line x1="890.125" y1="419.10875209360864" x2="898.9375" y2="419.10875209360864" stroke="#000"/>
<line x1="894.5312499999999" y1="418.4936841794439" x2="894.5312499999999" y2="419.10875209360864" stroke="#000"/>
<line x1="890.125" y1="498.0" x2="890.125" y2="502.79999999999995" stroke="#000"/>
<text x="890.125" y="512.4" fill="#111" font-size="small" font-family="monospace" font-weight="bold" text-anchor="end" transform="rotate(-60, 890.125, 512.4)">
respond_to
</text>
<rect x="907.75" y="444.6675185494475" width="8.8125" height="53.33248145055242" fill="#7070f8" data-tooltip="1.00x baseline speed (No JIT)"/>
<line x1="907.75" y1="444.58459489941157" x2="916.5625" y2="444.58459489941157" stroke="#000"/>
<line x1="907.75" y1="444.7504421994834" x2="916.5625" y2="444.7504421994834" stroke="#000"/>
<line x1="912.1562499999999" y1="444.58459489941157" x2="912.1562499999999" y2="444.7504421994834" stroke="#000"/>
<rect x="916.5625" y="100.19999999999999" width="8.8125" height="397.79999999999995" fill="orange" data-tooltip="7.46x baseline speed (MJIT)"/>
<line x1="916.5625" y1="-274.41130247520323" x2="925.375" y2="-274.41130247520323" stroke="#000"/>
<line x1="916.5625" y1="474.81130247520315" x2="925.375" y2="474.81130247520315" stroke="#000"/>
<line x1="920.9687499999999" y1="-274.41130247520323" x2="920.9687499999999" y2="474.81130247520315" stroke="#000"/>
<rect x="925.375" y="413.7878499050544" width="8.8125" height="84.21215009494561" fill="green" data-tooltip="1.58x baseline speed (YJIT)"/>
<line x1="925.375" y1="413.2440141255026" x2="934.1875" y2="413.2440141255026" stroke="#000"/>
<line x1="925.375" y1="414.33168568460616" x2="934.1875" y2="414.33168568460616" stroke="#000"/>
<line x1="929.7812499999999" y1="413.2440141255026" x2="929.7812499999999" y2="414.33168568460616" stroke="#000"/>
<line x1="925.375" y1="498.0" x2="925.375" y2="502.79999999999995" stroke="#000"/>
<text x="925.375" y="512.4" fill="#111" font-size="small" font-family="monospace" font-weight="bold" text-anchor="end" transform="rotate(-60, 925.375, 512.4)">
setivar
</text>
</svg>