<svg viewBox="0 0 1000 600" xmlns="http://www.w3.org/2000/svg" xmlns:xlink="http://www.w3.org/1999/xlink" width="100%" height="100%">

<rect x="50.0" y="30.0" width="940.0" height="467.99999999999994" stroke="#000" fill="#EEE"/>
<line x1="42.0" y1="497.9999999999999" x2="50.0" y2="497.9999999999999" stroke="#000"/>
<text x="26.000000000000004" y="497.9999999999999" text-anchor="end" font-weight="bold" font-size="small" fill="#111">
0.0
</text>
<line x1="42.0" y1="419.06370305132833" x2="50.0" y2="419.06370305132833" stroke="#000"/>
<text x="26.000000000000004" y="419.06370305132833" text-anchor="end" font-weight="bold" font-size="small" fill="#111">
0.5
</text>
<line x1="42.0" y1="340.1274061026566" x2="50.0" y2="340.1274061026566" stroke="#000"/>
<text x="26.000000000000004" y="340.1274061026566" text-anchor="end" font-weight="bold" font-size="small" fill="#111">
1.0
</text>
<line x1="42.0" y1="261.1911091539849" x2="50.0" y2="261.1911091539849" stroke="#000"/>
<text x="26.000000000000004" y="261.1911091539849" text-anchor="end" font-weight="bold" font-size="small" fill="#111">
1.5
</text>
<line x1="42.0" y1="182.25481220531324" x2="50.0" y2="182.25481220531324" stroke="#000"/>
<text x="26.000000000000004" y="182.25481220531324" text-anchor="end" font-weight="bold" font-size="small" fill="#111">
2.0
</text>
<line x1="42.0" y1="103.31851525664153" x2="50.0" y2="103.31851525664153" stroke="#000"/>
<text x="26.000000000000004" y="103.31851525664153" text-anchor="end" font-weight="bold" font-size="small" fill="#111">
2.5
</text>
<rect x="268.5" y="36.00000000000001" width="80.0" height="18.0" fill="#7070f8" stroke="#888"/>
<text x="308.5" y="52.50000000000001" font-size="small" text-anchor="middle" font-weight="bold" fill="#EEE">
No JIT
</text>
<rect x="691.4999999999999" y="36.00000000000001" width="80.0" height="18.0" fill="orange" stroke="#888"/>
<text x="731.4999999999999" y="52.50000000000001" font-size="small" text-anchor="middle" font-weight="bold" fill="#EEE">
YJIT
</text>
<rect x="97.0" y="340.1274061026566" width="28.2" height="157.87259389734334" fill="#7070f8" data-tooltip="1.00x baseline speed (No JIT)"/>
<line x1="97.0" y1="339.12487230477547" x2="125.2" y2="339.12487230477547" stroke="#000"/>
<line x1="97.0" y1="341.12993990053775" x2="125.2" y2="341.12993990053775" stroke="#000"/>
<line x1="111.10000000000001" y1="339.12487230477547" x2="111.10000000000001" y2="341.12993990053775" stroke="#000"/>
<rect x="125.2" y="209.43529849448242" width="28.2" height="288.5647015055175" fill="orange" data-tooltip="1.83x baseline speed (YJIT)"/>
<line x1="125.2" y1="207.5128027634169" x2="153.4" y2="207.5128027634169" stroke="#000"/>
<line x1="125.2" y1="211.35779422554793" x2="153.4" y2="211.35779422554793" stroke="#000"/>
<line x1="139.3" y1="207.5128027634169" x2="139.3" y2="211.35779422554793" stroke="#000"/>
<line x1="139.3" y1="498.0" x2="139.3" y2="502.79999999999995" stroke="#000"/>
<text x="139.3" y="512.4" fill="#111" font-size="small" font-family="monospace" font-weight="bold" text-anchor="end" transform="rotate(-60, 139.3, 512.4)">
binarytrees
</text>
<rect x="181.6" y="340.1274061026566" width="28.2" height="157.87259389734334" fill="#7070f8" data-tooltip="1.00x baseline speed (No JIT)"/>
<line x1="181.6" y1="339.47339228577596" x2="209.79999999999998" y2="339.47339228577596" stroke="#000"/>
<line x1="181.6" y1="340.78141991953726" x2="209.79999999999998" y2="340.78141991953726" stroke="#000"/>
<line x1="195.7" y1="339.47339228577596" x2="195.7" y2="340.78141991953726" stroke="#000"/>
<rect x="209.79999999999998" y="259.3294627814855" width="28.2" height="238.67053721851443" fill="orange" data-tooltip="1.51x baseline speed (YJIT)"/>
<line x1="209.79999999999998" y1="258.3328731227635" x2="238.0" y2="258.3328731227635" stroke="#000"/>
<line x1="209.79999999999998" y1="260.32605244020755" x2="238.0" y2="260.32605244020755" stroke="#000"/>
<line x1="223.89999999999998" y1="258.3328731227635" x2="223.89999999999998" y2="260.32605244020755" stroke="#000"/>
<line x1="223.89999999999998" y1="498.0" x2="223.89999999999998" y2="502.79999999999995" stroke="#000"/>
<text x="223.89999999999998" y="512.4" fill="#111" font-size="small" font-family="monospace" font-weight="bold" text-anchor="end" transform="rotate(-60, 223.89999999999998, 512.4)">
chunky_png
</text>
<rect x="266.2" y="340.1274061026566" width="28.2" height="157.87259389734334" fill="#7070f8" data-tooltip="1.00x baseline speed (No JIT)"/>
<line x1="266.2" y1="338.9436032291465" x2="294.4" y2="338.9436032291465" stroke="#000"/>
<line x1="266.2" y1="341.3112089761667" x2="294.4" y2="341.3112089761667" stroke="#000"/>
<line x1="280.3" y1="338.9436032291465" x2="280.3" y2="341.3112089761667" stroke="#000"/>
<rect x="294.4" y="325.2368867067395" width="28.2" height="172.76311329326046" fill="orange" data-tooltip="1.09x baseline speed (YJIT)"/>
<line x1="294.4" y1="323.1578411462104" x2="322.6" y2="323.1578411462104" stroke="#000"/>
<line x1="294.4" y1="327.3159322672686" x2="322.6" y2="327.3159322672686" stroke="#000"/>
<line x1="308.5" y1="323.1578411462104" x2="308.5" y2="327.3159322672686" stroke="#000"/>
<line x1="308.5" y1="498.0" x2="308.5" y2="502.79999999999995" stroke="#000"/>
<text x="308.5" y="512.4" fill="#111" font-size="small" font-family="monospace" font-weight="bold" text-anchor="end" transform="rotate(-60, 308.5, 512.4)">
erubi
</text>
<rect x="350.8" y="340.1274061026566" width="28.2" height="157.87259389734334" fill="#7070f8" data-tooltip="1.00x baseline speed (No JIT)"/>
<line x1="350.8" y1="336.74663896796125" x2="379.0" y2="336.74663896796125" stroke="#000"/>
<line x1="350.8" y1="343.5081732373519" x2="379.0" y2="343.5081732373519" stroke="#000"/>
<line x1="364.9" y1="336.74663896796125" x2="364.9" y2="343.5081732373519" stroke="#000"/>
<rect x="379.0" y="296.4854739006516" width="28.2" height="201.51452609934833" fill="orange" data-tooltip="1.28x baseline speed (YJIT)"/>
<line x1="379.0" y1="289.9751739726843" x2="407.2" y2="289.9751739726843" stroke="#000"/>
<line x1="379.0" y1="302.99577382861895" x2="407.2" y2="302.99577382861895" stroke="#000"/>
<line x1="393.1" y1="289.9751739726843" x2="393.1" y2="302.99577382861895" stroke="#000"/>
<line x1="393.1" y1="498.0" x2="393.1" y2="502.79999999999995" stroke="#000"/>
<text x="393.1" y="512.4" fill="#111" font-size="small" font-family="monospace" font-weight="bold" text-anchor="end" transform="rotate(-60, 393.1, 512.4)">
erubi_rails
</text>
<rect x="435.40000000000003" y="340.1274061026566" width="28.2" height="157.87259389734334" fill="#7070f8" data-tooltip="1.00x baseline speed (No JIT)"/>
<line x1="435.40000000000003" y1="339.2936206032017" x2="463.6" y2="339.2936206032017" stroke="#000"/>
<line x1="435.40000000000003" y1="340.96119160211146" x2="463.6" y2="340.96119160211146" stroke="#000"/>
<line x1="449.5" y1="339.2936206032017" x2="449.5" y2="340.96119160211146" stroke="#000"/>
<rect x="463.6" y="337.39325950914974" width="28.2" height="160.60674049085023" fill="orange" data-tooltip="1.02x baseline speed (YJIT)"/>
<line x1="463.6" y1="335.5485255301027" x2="491.8" y2="335.5485255301027" stroke="#000"/>
<line x1="463.6" y1="339.23799348819676" x2="491.8" y2="339.23799348819676" stroke="#000"/>
<line x1="477.7" y1="335.5485255301027" x2="477.7" y2="339.23799348819676" stroke="#000"/>
<line x1="477.7" y1="498.0" x2="477.7" y2="502.79999999999995" stroke="#000"/>
<text x="477.7" y="512.4" fill="#111" font-size="small" font-family="monospace" font-weight="bold" text-anchor="end" transform="rotate(-60, 477.7, 512.4)">
etanni
</text>
<rect x="520.0" y="340.1274061026566" width="28.2" height="157.87259389734334" fill="#7070f8" data-tooltip="1.00x baseline speed (No JIT)"/>
<line x1="520.0" y1="338.2535540092263" x2="548.2" y2="338.2535540092263" stroke="#000"/>
<line x1="520.0" y1="342.0012581960869" x2="548.2" y2="342.0012581960869" stroke="#000"/>
<line x1="534.1" y1="338.2535540092263" x2="534.1" y2="342.0012581960869" stroke="#000"/>
<rect x="548.2" y="100.19999999999999" width="28.2" height="397.79999999999995" fill="orange" data-tooltip="2.52x baseline speed (YJIT)"/>
<line x1="548.2" y1="95.42704901702467" x2="576.4" y2="95.42704901702467" stroke="#000"/>
<line x1="548.2" y1="104.9729509829753" x2="576.4" y2="104.9729509829753" stroke="#000"/>
<line x1="562.3000000000001" y1="95.42704901702467" x2="562.3000000000001" y2="104.9729509829753" stroke="#000"/>
<line x1="562.3000000000001" y1="498.0" x2="562.3000000000001" y2="502.79999999999995" stroke="#000"/>
<text x="562.3000000000001" y="512.4" fill="#111" font-size="small" font-family="monospace" font-weight="bold" text-anchor="end" transform="rotate(-60, 562.3000000000001, 512.4)">
fannkuchredux
</text>
<rect x="604.5999999999999" y="340.1274061026566" width="28.2" height="157.87259389734334" fill="#7070f8" data-tooltip="1.00x baseline speed (No JIT)"/>
<line x1="604.5999999999999" y1="338.959113467742" x2="632.8" y2="338.959113467742" stroke="#000"/>
<line x1="604.5999999999999" y1="341.29569873757123" x2="632.8" y2="341.29569873757123" stroke="#000"/>
<line x1="618.6999999999999" y1="338.959113467742" x2="618.6999999999999" y2="341.29569873757123" stroke="#000"/>
<rect x="632.8" y="289.11589604202817" width="28.2" height="208.8841039579718" fill="orange" data-tooltip="1.32x baseline speed (YJIT)"/>
<line x1="632.8" y1="287.4565279806988" x2="660.9999999999999" y2="287.4565279806988" stroke="#000"/>
<line x1="632.8" y1="290.7752641033575" x2="660.9999999999999" y2="290.7752641033575" stroke="#000"/>
<line x1="646.8999999999999" y1="287.4565279806988" x2="646.8999999999999" y2="290.7752641033575" stroke="#000"/>
<line x1="646.8999999999999" y1="498.0" x2="646.8999999999999" y2="502.79999999999995" stroke="#000"/>
<text x="646.8999999999999" y="512.4" fill="#111" font-size="small" font-family="monospace" font-weight="bold" text-anchor="end" transform="rotate(-60, 646.8999999999999, 512.4)">
lee
</text>
<rect x="689.1999999999999" y="340.1274061026566" width="28.2" height="157.87259389734334" fill="#7070f8" data-tooltip="1.00x baseline speed (No JIT)"/>
<line x1="689.1999999999999" y1="336.7193536006731" x2="717.4" y2="336.7193536006731" stroke="#000"/>
<line x1="689.1999999999999" y1="343.5354586046401" x2="717.4" y2="343.5354586046401" stroke="#000"/>
<line x1="703.3" y1="336.7193536006731" x2="703.3" y2="343.5354586046401" stroke="#000"/>
<rect x="717.4" y="246.09292635150044" width="28.2" height="251.9070736484995" fill="orange" data-tooltip="1.60x baseline speed (YJIT)"/>
<line x1="717.4" y1="240.65284321790767" x2="745.5999999999999" y2="240.65284321790767" stroke="#000"/>
<line x1="717.4" y1="251.53300948509317" x2="745.5999999999999" y2="251.53300948509317" stroke="#000"/>
<line x1="731.4999999999999" y1="240.65284321790767" x2="731.4999999999999" y2="251.53300948509317" stroke="#000"/>
<line x1="731.4999999999999" y1="498.0" x2="731.4999999999999" y2="502.79999999999995" stroke="#000"/>
<text x="731.4999999999999" y="512.4" fill="#111" font-size="small" font-family="monospace" font-weight="bold" text-anchor="end" transform="rotate(-60, 731.4999999999999, 512.4)">
nbody
</text>
<rect x="773.8" y="340.1274061026566" width="28.2" height="157.87259389734334" fill="#7070f8" data-tooltip="1.00x baseline speed (No JIT)"/>
<line x1="773.8" y1="339.2838920847046" x2="801.9999999999999" y2="339.2838920847046" stroke="#000"/>
<line x1="773.8" y1="340.9709201206086" x2="801.9999999999999" y2="340.9709201206086" stroke="#000"/>
<line x1="787.9" y1="339.2838920847046" x2="787.9" y2="340.9709201206086" stroke="#000"/>
<rect x="801.9999999999999" y="261.25407437303426" width="28.2" height="236.7459256269657" fill="orange" data-tooltip="1.50x baseline speed (YJIT)"/>
<line x1="801.9999999999999" y1="259.7060485291562" x2="830.1999999999999" y2="259.7060485291562" stroke="#000"/>
<line x1="801.9999999999999" y1="262.8021002169123" x2="830.1999999999999" y2="262.8021002169123" stroke="#000"/>
<line x1="816.0999999999999" y1="259.7060485291562" x2="816.0999999999999" y2="262.8021002169123" stroke="#000"/>
<line x1="816.0999999999999" y1="498.0" x2="816.0999999999999" y2="502.79999999999995" stroke="#000"/>
<text x="816.0999999999999" y="512.4" fill="#111" font-size="small" font-family="monospace" font-weight="bold" text-anchor="end" transform="rotate(-60, 816.0999999999999, 512.4)">
optcarrot
</text>
<rect x="858.4" y="340.1274061026566" width="28.2" height="157.87259389734334" fill="#7070f8" data-tooltip="1.00x baseline speed (No JIT)"/>
<line x1="858.4" y1="339.4588472626414" x2="886.5999999999999" y2="339.4588472626414" stroke="#000"/>
<line x1="858.4" y1="340.7959649426718" x2="886.5999999999999" y2="340.7959649426718" stroke="#000"/>
<line x1="872.4999999999999" y1="339.4588472626414" x2="872.4999999999999" y2="340.7959649426718" stroke="#000"/>
<rect x="886.5999999999999" y="258.51103491168993" width="28.2" height="239.48896508831" fill="orange" data-tooltip="1.52x baseline speed (YJIT)"/>
<line x1="886.5999999999999" y1="256.4291018433308" x2="914.8" y2="256.4291018433308" stroke="#000"/>
<line x1="886.5999999999999" y1="260.5929679800491" x2="914.8" y2="260.5929679800491" stroke="#000"/>
<line x1="900.6999999999999" y1="256.4291018433308" x2="900.6999999999999" y2="260.5929679800491" stroke="#000"/>
<line x1="900.6999999999999" y1="498.0" x2="900.6999999999999" y2="502.79999999999995" stroke="#000"/>
<text x="900.6999999999999" y="512.4" fill="#111" font-size="small" font-family="monospace" font-weight="bold" text-anchor="end" transform="rotate(-60, 900.6999999999999, 512.4)">
rubykon
</text>
</svg>