<svg viewBox="0 0 1000 600" xmlns="http://www.w3.org/2000/svg" xmlns:xlink="http://www.w3.org/1999/xlink" width="100%" height="100%">

<rect x="50.0" y="30.0" width="940.0" height="467.99999999999994" stroke="#000" fill="#EEE"/>
<line x1="42.0" y1="497.9999999999999" x2="50.0" y2="497.9999999999999" stroke="#000"/>
<text x="26.000000000000004" y="497.9999999999999" text-anchor="end" font-weight="bold" font-size="small" fill="#111">
0.0
</text>
<line x1="42.0" y1="417.8083699028622" x2="50.0" y2="417.8083699028622" stroke="#000"/>
<text x="26.000000000000004" y="417.8083699028622" text-anchor="end" font-weight="bold" font-size="small" fill="#111">
2.0
</text>
<line x1="42.0" y1="337.61673980572454" x2="50.0" y2="337.61673980572454" stroke="#000"/>
<text x="26.000000000000004" y="337.61673980572454" text-anchor="end" font-weight="bold" font-size="small" fill="#111">
4.0
</text>
<line x1="42.0" y1="257.4251097085867" x2="50.0" y2="257.4251097085867" stroke="#000"/>
<text x="26.000000000000004" y="257.4251097085867" text-anchor="end" font-weight="bold" font-size="small" fill="#111">
6.0
</text>
<line x1="42.0" y1="177.23347961144898" x2="50.0" y2="177.23347961144898" stroke="#000"/>
<text x="26.000000000000004" y="177.23347961144898" text-anchor="end" font-weight="bold" font-size="small" fill="#111">
8.0
</text>
<rect x="268.5" y="36.00000000000001" width="80.0" height="18.0" fill="#7070f8" stroke="#888"/>
<text x="308.5" y="52.50000000000001" font-size="small" text-anchor="middle" font-weight="bold" fill="#EEE">
No JIT
</text>
<rect x="691.4999999999999" y="36.00000000000001" width="80.0" height="18.0" fill="orange" stroke="#888"/>
<text x="731.4999999999999" y="52.50000000000001" font-size="small" text-anchor="middle" font-weight="bold" fill="#EEE">
YJIT
</text>
<rect x="97.0" y="457.90418495143103" width="23.499999999999996" height="40.09581504856887" fill="#7070f8" data-tooltip="1.00x baseline speed (No JIT)"/>
<line x1="97.0" y1="457.87738471174345" x2="120.5" y2="457.87738471174345" stroke="#000"/>
<line x1="97.0" y1="457.9309851911187" x2="120.5" y2="457.9309851911187" stroke="#000"/>
<line x1="108.75" y1="457.87738471174345" x2="108.75" y2="457.9309851911187" stroke="#000"/>
<rect x="120.5" y="338.5984804682208" width="23.499999999999996" height="159.40151953177914" fill="orange" data-tooltip="3.98x baseline speed (YJIT)"/>
<line x1="120.5" y1="338.4747750338191" x2="144.0" y2="338.4747750338191" stroke="#000"/>
<line x1="120.5" y1="338.7221859026225" x2="144.0" y2="338.7221859026225" stroke="#000"/>
<line x1="132.25" y1="338.4747750338191" x2="132.25" y2="338.7221859026225" stroke="#000"/>
<line x1="132.25" y1="498.0" x2="132.25" y2="502.79999999999995" stroke="#000"/>
<text x="132.25" y="512.4" fill="#111" font-size="small" font-family="monospace" font-weight="bold" text-anchor="end" transform="rotate(-60, 132.25, 512.4)">
30k_ifelse
</text>
<rect x="167.49999999999997" y="457.90418495143103" width="23.499999999999996" height="40.09581504856887" fill="#7070f8" data-tooltip="1.00x baseline speed (No JIT)"/>
<line x1="167.49999999999997" y1="457.84384446149824" x2="190.99999999999997" y2="457.84384446149824" stroke="#000"/>
<line x1="167.49999999999997" y1="457.9645254413639" x2="190.99999999999997" y2="457.9645254413639" stroke="#000"/>
<line x1="179.25" y1="457.84384446149824" x2="179.25" y2="457.9645254413639" stroke="#000"/>
<rect x="190.99999999999997" y="290.775069400533" width="23.499999999999996" height="207.22493059946694" fill="orange" data-tooltip="5.17x baseline speed (YJIT)"/>
<line x1="190.99999999999997" y1="290.4234972780068" x2="214.49999999999997" y2="290.4234972780068" stroke="#000"/>
<line x1="190.99999999999997" y1="291.1266415230592" x2="214.49999999999997" y2="291.1266415230592" stroke="#000"/>
<line x1="202.75" y1="290.4234972780068" x2="202.75" y2="291.1266415230592" stroke="#000"/>
<line x1="202.75" y1="498.0" x2="202.75" y2="502.79999999999995" stroke="#000"/>
<text x="202.75" y="512.4" fill="#111" font-size="small" font-family="monospace" font-weight="bold" text-anchor="end" transform="rotate(-60, 202.75, 512.4)">
30k_methods
</text>
<rect x="238.0" y="457.90418495143103" width="23.499999999999996" height="40.09581504856887" fill="#7070f8" data-tooltip="1.00x baseline speed (No JIT)"/>
<line x1="238.0" y1="457.8829456203889" x2="261.5" y2="457.8829456203889" stroke="#000"/>
<line x1="238.0" y1="457.92542428247316" x2="261.5" y2="457.92542428247316" stroke="#000"/>
<line x1="249.75" y1="457.8829456203889" x2="249.75" y2="457.92542428247316" stroke="#000"/>
<rect x="261.5" y="377.82281288822617" width="23.499999999999996" height="120.17718711177382" fill="orange" data-tooltip="3.00x baseline speed (YJIT)"/>
<line x1="261.5" y1="377.75470522106644" x2="285.00000000000006" y2="377.75470522106644" stroke="#000"/>
<line x1="261.5" y1="377.8909205553859" x2="285.00000000000006" y2="377.8909205553859" stroke="#000"/>
<line x1="273.25" y1="377.75470522106644" x2="273.25" y2="377.8909205553859" stroke="#000"/>
<line x1="273.25" y1="498.0" x2="273.25" y2="502.79999999999995" stroke="#000"/>
<text x="273.25" y="512.4" fill="#111" font-size="small" font-family="monospace" font-weight="bold" text-anchor="end" transform="rotate(-60, 273.25, 512.4)">
cfunc_itself
</text>
<rect x="308.5" y="457.90418495143103" width="23.499999999999996" height="40.09581504856887" fill="#7070f8" data-tooltip="1.00x baseline speed (No JIT)"/>
<line x1="308.5" y1="457.52921582245193" x2="332.0" y2="457.52921582245193" stroke="#000"/>
<line x1="308.5" y1="458.2791540804102" x2="332.0" y2="458.2791540804102" stroke="#000"/>
<line x1="320.25" y1="457.52921582245193" x2="320.25" y2="458.2791540804102" stroke="#000"/>
<rect x="332.0" y="320.4921309393368" width="23.499999999999996" height="177.50786906066315" fill="orange" data-tooltip="4.43x baseline speed (YJIT)"/>
<line x1="332.0" y1="318.8261276310843" x2="355.50000000000006" y2="318.8261276310843" stroke="#000"/>
<line x1="332.0" y1="322.15813424758926" x2="355.50000000000006" y2="322.15813424758926" stroke="#000"/>
<line x1="343.75" y1="318.8261276310843" x2="343.75" y2="322.15813424758926" stroke="#000"/>
<line x1="343.75" y1="498.0" x2="343.75" y2="502.79999999999995" stroke="#000"/>
<text x="343.75" y="512.4" fill="#111" font-size="small" font-family="monospace" font-weight="bold" text-anchor="end" transform="rotate(-60, 343.75, 512.4)">
fib
</text>
<rect x="379.0" y="457.90418495143103" width="23.499999999999996" height="40.09581504856887" fill="#7070f8" data-tooltip="1.00x baseline speed (No JIT)"/>
<line x1="379.0" y1="457.7139705320301" x2="402.5" y2="457.7139705320301" stroke="#000"/>
<line x1="379.0" y1="458.094399370832" x2="402.5" y2="458.094399370832" stroke="#000"/>
<line x1="390.75" y1="457.7139705320301" x2="390.75" y2="458.094399370832" stroke="#000"/>
<rect x="402.5" y="270.118731443216" width="23.499999999999996" height="227.88126855678394" fill="orange" data-tooltip="5.68x baseline speed (YJIT)"/>
<line x1="402.5" y1="269.037183465315" x2="426.00000000000006" y2="269.037183465315" stroke="#000"/>
<line x1="402.5" y1="271.20027942111705" x2="426.00000000000006" y2="271.20027942111705" stroke="#000"/>
<line x1="414.25" y1="269.037183465315" x2="414.25" y2="271.20027942111705" stroke="#000"/>
<line x1="414.25" y1="498.0" x2="414.25" y2="502.79999999999995" stroke="#000"/>
<text x="414.25" y="512.4" fill="#111" font-size="small" font-family="monospace" font-weight="bold" text-anchor="end" transform="rotate(-60, 414.25, 512.4)">
getivar
</text>
<rect x="449.5" y="457.90418495143103" width="23.499999999999996" height="40.09581504856887" fill="#7070f8" data-tooltip="1.00x baseline speed (No JIT)"/>
<line x1="449.5" y1="457.8482826249394" x2="473.00000000000006" y2="457.8482826249394" stroke="#000"/>
<line x1="449.5" y1="457.96008727792275" x2="473.00000000000006" y2="457.96008727792275" stroke="#000"/>
<line x1="461.25" y1="457.8482826249394" x2="461.25" y2="457.96008727792275" stroke="#000"/>
<rect x="473.00000000000006" y="263.96880524093234" width="23.499999999999996" height="234.03119475906757" fill="orange" data-tooltip="5.84x baseline speed (YJIT)"/>
<line x1="473.00000000000006" y1="263.6310960256185" x2="496.50000000000006" y2="263.6310960256185" stroke="#000"/>
<line x1="473.00000000000006" y1="264.3065144562462" x2="496.50000000000006" y2="264.3065144562462" stroke="#000"/>
<line x1="484.75" y1="263.6310960256185" x2="484.75" y2="264.3065144562462" stroke="#000"/>
<line x1="484.75" y1="498.0" x2="484.75" y2="502.79999999999995" stroke="#000"/>
<text x="484.75" y="512.4" fill="#111" font-size="small" font-family="monospace" font-weight="bold" text-anchor="end" transform="rotate(-60, 484.75, 512.4)">
keyword_args
</text>
<rect x="519.9999999999999" y="457.90418495143103" width="23.499999999999996" height="40.09581504856887" fill="#7070f8" data-tooltip="1.00x baseline speed (No JIT)"/>
<line x1="519.9999999999999" y1="457.69068055141327" x2="543.4999999999999" y2="457.69068055141327" stroke="#000"/>
<line x1="519.9999999999999" y1="458.11768935144886" x2="543.4999999999999" y2="458.11768935144886" stroke="#000"/>
<line x1="531.75" y1="457.69068055141327" x2="531.75" y2="458.11768935144886" stroke="#000"/>
<rect x="543.4999999999999" y="100.19999999999999" width="23.499999999999996" height="397.79999999999995" fill="orange" data-tooltip="9.92x baseline speed (YJIT)"/>
<line x1="543.4999999999999" y1="93.07129975399015" x2="566.9999999999999" y2="93.07129975399015" stroke="#000"/>
<line x1="543.4999999999999" y1="107.32870024600983" x2="566.9999999999999" y2="107.32870024600983" stroke="#000"/>
<line x1="555.2499999999999" y1="93.07129975399015" x2="555.2499999999999" y2="107.32870024600983" stroke="#000"/>
<line x1="555.2499999999999" y1="498.0" x2="555.2499999999999" y2="502.79999999999995" stroke="#000"/>
<text x="555.2499999999999" y="512.4" fill="#111" font-size="small" font-family="monospace" font-weight="bold" text-anchor="end" transform="rotate(-60, 555.2499999999999, 512.4)">
respond_to
</text>
<rect x="590.4999999999999" y="457.90418495143103" width="23.499999999999996" height="40.09581504856887" fill="#7070f8" data-tooltip="1.00x baseline speed (No JIT)"/>
<line x1="590.4999999999999" y1="457.6489864079078" x2="613.9999999999999" y2="457.6489864079078" stroke="#000"/>
<line x1="590.4999999999999" y1="458.15938349495434" x2="613.9999999999999" y2="458.15938349495434" stroke="#000"/>
<line x1="602.25" y1="457.6489864079078" x2="602.25" y2="458.15938349495434" stroke="#000"/>
<rect x="613.9999999999999" y="258.8007176892871" width="23.499999999999996" height="239.19928231071285" fill="orange" data-tooltip="5.97x baseline speed (YJIT)"/>
<line x1="613.9999999999999" y1="257.2775249676154" x2="637.4999999999999" y2="257.2775249676154" stroke="#000"/>
<line x1="613.9999999999999" y1="260.3239104109588" x2="637.4999999999999" y2="260.3239104109588" stroke="#000"/>
<line x1="625.7499999999999" y1="257.2775249676154" x2="625.7499999999999" y2="260.3239104109588" stroke="#000"/>
<line x1="625.7499999999999" y1="498.0" x2="625.7499999999999" y2="502.79999999999995" stroke="#000"/>
<text x="625.7499999999999" y="512.4" fill="#111" font-size="small" font-family="monospace" font-weight="bold" text-anchor="end" transform="rotate(-60, 625.7499999999999, 512.4)">
setivar
</text>
<rect x="660.9999999999999" y="457.90418495143103" width="23.499999999999996" height="40.09581504856887" fill="#7070f8" data-tooltip="1.00x baseline speed (No JIT)"/>
<line x1="660.9999999999999" y1="457.69356180792727" x2="684.4999999999999" y2="457.69356180792727" stroke="#000"/>
<line x1="660.9999999999999" y1="458.11480809493486" x2="684.4999999999999" y2="458.11480809493486" stroke="#000"/>
<line x1="672.75" y1="457.69356180792727" x2="672.75" y2="458.11480809493486" stroke="#000"/>
<rect x="684.4999999999999" y="395.38119001761885" width="23.499999999999996" height="102.61880998238104" fill="orange" data-tooltip="2.56x baseline speed (YJIT)"/>
<line x1="684.4999999999999" y1="394.84207320096607" x2="707.9999999999999" y2="394.84207320096607" stroke="#000"/>
<line x1="684.4999999999999" y1="395.9203068342717" x2="707.9999999999999" y2="395.9203068342717" stroke="#000"/>
<line x1="696.2499999999999" y1="394.84207320096607" x2="696.2499999999999" y2="395.9203068342717" stroke="#000"/>
<line x1="696.2499999999999" y1="498.0" x2="696.2499999999999" y2="502.79999999999995" stroke="#000"/>
<text x="696.2499999999999" y="512.4" fill="#111" font-size="small" font-family="monospace" font-weight="bold" text-anchor="end" transform="rotate(-60, 696.2499999999999, 512.4)">
setivar_object
</text>
<rect x="731.4999999999999" y="457.90418495143103" width="23.499999999999996" height="40.09581504856887" fill="#7070f8" data-tooltip="1.00x baseline speed (No JIT)"/>
<line x1="731.4999999999999" y1="457.7173661031684" x2="754.9999999999999" y2="457.7173661031684" stroke="#000"/>
<line x1="731.4999999999999" y1="458.09100379969374" x2="754.9999999999999" y2="458.09100379969374" stroke="#000"/>
<line x1="743.25" y1="457.7173661031684" x2="743.25" y2="458.09100379969374" stroke="#000"/>
<rect x="754.9999999999999" y="395.07166134138583" width="23.499999999999996" height="102.92833865861408" fill="orange" data-tooltip="2.57x baseline speed (YJIT)"/>
<line x1="754.9999999999999" y1="392.91648012356126" x2="778.4999999999999" y2="392.91648012356126" stroke="#000"/>
<line x1="754.9999999999999" y1="397.22684255921047" x2="778.4999999999999" y2="397.22684255921047" stroke="#000"/>
<line x1="766.7499999999999" y1="392.91648012356126" x2="766.7499999999999" y2="397.22684255921047" stroke="#000"/>
<line x1="766.7499999999999" y1="498.0" x2="766.7499999999999" y2="502.79999999999995" stroke="#000"/>
<text x="766.7499999999999" y="512.4" fill="#111" font-size="small" font-family="monospace" font-weight="bold" text-anchor="end" transform="rotate(-60, 766.7499999999999, 512.4)">
setivar_young
</text>
<rect x="801.9999999999999" y="457.90418495143103" width="23.499999999999996" height="40.09581504856887" fill="#7070f8" data-tooltip="1.00x baseline speed (No JIT)"/>
<line x1="801.9999999999999" y1="456.91452486182453" x2="825.4999999999999" y2="456.91452486182453" stroke="#000"/>
<line x1="801.9999999999999" y1="458.8938450410376" x2="825.4999999999999" y2="458.8938450410376" stroke="#000"/>
<line x1="813.75" y1="456.91452486182453" x2="813.75" y2="458.8938450410376" stroke="#000"/>
<rect x="825.4999999999999" y="419.7584154400197" width="23.499999999999996" height="78.24158455998024" fill="orange" data-tooltip="1.95x baseline speed (YJIT)"/>
<line x1="825.4999999999999" y1="417.82000934957284" x2="848.9999999999999" y2="417.82000934957284" stroke="#000"/>
<line x1="825.4999999999999" y1="421.69682153046654" x2="848.9999999999999" y2="421.69682153046654" stroke="#000"/>
<line x1="837.2499999999999" y1="417.82000934957284" x2="837.2499999999999" y2="421.69682153046654" stroke="#000"/>
<line x1="837.2499999999999" y1="498.0" x2="837.2499999999999" y2="502.79999999999995" stroke="#000"/>
<text x="837.2499999999999" y="512.4" fill="#111" font-size="small" font-family="monospace" font-weight="bold" text-anchor="end" transform="rotate(-60, 837.2499999999999, 512.4)">
str_concat
</text>
<rect x="872.4999999999999" y="457.90418495143103" width="23.499999999999996" height="40.09581504856887" fill="#7070f8" data-tooltip="1.00x baseline speed (No JIT)"/>
<line x1="872.4999999999999" y1="457.8233328897368" x2="895.9999999999999" y2="457.8233328897368" stroke="#000"/>
<line x1="872.4999999999999" y1="457.9850370131253" x2="895.9999999999999" y2="457.9850370131253" stroke="#000"/>
<line x1="884.25" y1="457.8233328897368" x2="884.25" y2="457.9850370131253" stroke="#000"/>
<rect x="895.9999999999999" y="442.73307610474006" width="23.499999999999996" height="55.266923895259936" fill="orange" data-tooltip="1.38x baseline speed (YJIT)"/>
<line x1="895.9999999999999" y1="442.5756246812996" x2="919.4999999999999" y2="442.5756246812996" stroke="#000"/>
<line x1="895.9999999999999" y1="442.89052752818054" x2="919.4999999999999" y2="442.89052752818054" stroke="#000"/>
<line x1="907.75" y1="442.5756246812996" x2="907.75" y2="442.89052752818054" stroke="#000"/>
<line x1="907.75" y1="498.0" x2="907.75" y2="502.79999999999995" stroke="#000"/>
<text x="907.75" y="512.4" fill="#111" font-size="small" font-family="monospace" font-weight="bold" text-anchor="end" transform="rotate(-60, 907.75, 512.4)">
throw
</text>
</svg>