<svg viewBox="0 0 1000 600" xmlns="http://www.w3.org/2000/svg" xmlns:xlink="http://www.w3.org/1999/xlink" width="100%" height="100%">

<rect x="50.0" y="30.0" width="940.0" height="467.99999999999994" stroke="#000" fill="#EEE"/>
<line x1="42.0" y1="497.9999999999999" x2="50.0" y2="497.9999999999999" stroke="#000"/>
<text x="26.000000000000004" y="497.9999999999999" text-anchor="end" font-weight="bold" font-size="small" fill="#111">
0.0
</text>
<line x1="42.0" y1="418.324474712635" x2="50.0" y2="418.324474712635" stroke="#000"/>
<text x="26.000000000000004" y="418.324474712635" text-anchor="end" font-weight="bold" font-size="small" fill="#111">
0.5
</text>
<line x1="42.0" y1="338.64894942527013" x2="50.0" y2="338.64894942527013" stroke="#000"/>
<text x="26.000000000000004" y="338.64894942527013" text-anchor="end" font-weight="bold" font-size="small" fill="#111">
1.0
</text>
<line x1="42.0" y1="258.9734241379052" x2="50.0" y2="258.9734241379052" stroke="#000"/>
<text x="26.000000000000004" y="258.9734241379052" text-anchor="end" font-weight="bold" font-size="small" fill="#111">
1.5
</text>
<line x1="42.0" y1="179.2978988505403" x2="50.0" y2="179.2978988505403" stroke="#000"/>
<text x="26.000000000000004" y="179.2978988505403" text-anchor="end" font-weight="bold" font-size="small" fill="#111">
2.0
</text>
<rect x="268.5" y="36.00000000000001" width="80.0" height="18.0" fill="#7070f8" stroke="#888"/>
<text x="308.5" y="52.50000000000001" font-size="small" text-anchor="middle" font-weight="bold" fill="#EEE">
No JIT
</text>
<rect x="691.4999999999999" y="36.00000000000001" width="80.0" height="18.0" fill="orange" stroke="#888"/>
<text x="731.4999999999999" y="52.50000000000001" font-size="small" text-anchor="middle" font-weight="bold" fill="#EEE">
YJIT
</text>
<rect x="97.0" y="338.64894942527013" width="28.2" height="159.3510505747298" fill="#7070f8" data-tooltip="1.00x baseline speed (No JIT)"/>
<line x1="97.0" y1="336.69230508706636" x2="125.2" y2="336.69230508706636" stroke="#000"/>
<line x1="97.0" y1="340.6055937634739" x2="125.2" y2="340.6055937634739" stroke="#000"/>
<line x1="111.10000000000001" y1="336.69230508706636" x2="111.10000000000001" y2="340.6055937634739" stroke="#000"/>
<rect x="125.2" y="176.83618003003903" width="28.2" height="321.1638199699609" fill="orange" data-tooltip="2.02x baseline speed (YJIT)"/>
<line x1="125.2" y1="172.8866544575465" x2="153.4" y2="172.8866544575465" stroke="#000"/>
<line x1="125.2" y1="180.78570560253155" x2="153.4" y2="180.78570560253155" stroke="#000"/>
<line x1="139.3" y1="172.8866544575465" x2="139.3" y2="180.78570560253155" stroke="#000"/>
<line x1="139.3" y1="498.0" x2="139.3" y2="502.79999999999995" stroke="#000"/>
<text x="139.3" y="512.4" fill="#111" font-size="small" font-family="monospace" font-weight="bold" text-anchor="end" transform="rotate(-60, 139.3, 512.4)">
binarytrees
</text>
<rect x="181.6" y="338.64894942527013" width="28.2" height="159.3510505747298" fill="#7070f8" data-tooltip="1.00x baseline speed (No JIT)"/>
<line x1="181.6" y1="338.6039534841214" x2="209.79999999999998" y2="338.6039534841214" stroke="#000"/>
<line x1="181.6" y1="338.69394536641886" x2="209.79999999999998" y2="338.69394536641886" stroke="#000"/>
<line x1="195.7" y1="338.6039534841214" x2="195.7" y2="338.69394536641886" stroke="#000"/>
<rect x="209.79999999999998" y="253.17692435500712" width="28.2" height="244.82307564499283" fill="orange" data-tooltip="1.54x baseline speed (YJIT)"/>
<line x1="209.79999999999998" y1="253.0781964095373" x2="238.0" y2="253.0781964095373" stroke="#000"/>
<line x1="209.79999999999998" y1="253.2756523004769" x2="238.0" y2="253.2756523004769" stroke="#000"/>
<line x1="223.89999999999998" y1="253.0781964095373" x2="223.89999999999998" y2="253.2756523004769" stroke="#000"/>
<line x1="223.89999999999998" y1="498.0" x2="223.89999999999998" y2="502.79999999999995" stroke="#000"/>
<text x="223.89999999999998" y="512.4" fill="#111" font-size="small" font-family="monospace" font-weight="bold" text-anchor="end" transform="rotate(-60, 223.89999999999998, 512.4)">
chunky_png
</text>
<rect x="266.2" y="338.64894942527013" width="28.2" height="159.3510505747298" fill="#7070f8" data-tooltip="1.00x baseline speed (No JIT)"/>
<line x1="266.2" y1="337.26226713688914" x2="294.4" y2="337.26226713688914" stroke="#000"/>
<line x1="266.2" y1="340.0356317136511" x2="294.4" y2="340.0356317136511" stroke="#000"/>
<line x1="280.3" y1="337.26226713688914" x2="280.3" y2="340.0356317136511" stroke="#000"/>
<rect x="294.4" y="309.7128588847546" width="28.2" height="188.28714111524536" fill="orange" data-tooltip="1.18x baseline speed (YJIT)"/>
<line x1="294.4" y1="307.24000532309765" x2="322.6" y2="307.24000532309765" stroke="#000"/>
<line x1="294.4" y1="312.18571244641157" x2="322.6" y2="312.18571244641157" stroke="#000"/>
<line x1="308.5" y1="307.24000532309765" x2="308.5" y2="312.18571244641157" stroke="#000"/>
<line x1="308.5" y1="498.0" x2="308.5" y2="502.79999999999995" stroke="#000"/>
<text x="308.5" y="512.4" fill="#111" font-size="small" font-family="monospace" font-weight="bold" text-anchor="end" transform="rotate(-60, 308.5, 512.4)">
erubi
</text>
<rect x="350.8" y="338.64894942527013" width="28.2" height="159.3510505747298" fill="#7070f8" data-tooltip="1.00x baseline speed (No JIT)"/>
<line x1="350.8" y1="335.00408826515616" x2="379.0" y2="335.00408826515616" stroke="#000"/>
<line x1="350.8" y1="342.2938105853841" x2="379.0" y2="342.2938105853841" stroke="#000"/>
<line x1="364.9" y1="335.00408826515616" x2="364.9" y2="342.2938105853841" stroke="#000"/>
<rect x="379.0" y="240.85680635998148" width="28.2" height="257.14319364001847" fill="orange" data-tooltip="1.61x baseline speed (YJIT)"/>
<line x1="379.0" y1="229.94761980010804" x2="407.2" y2="229.94761980010804" stroke="#000"/>
<line x1="379.0" y1="251.7659929198549" x2="407.2" y2="251.7659929198549" stroke="#000"/>
<line x1="393.1" y1="229.94761980010804" x2="393.1" y2="251.7659929198549" stroke="#000"/>
<line x1="393.1" y1="498.0" x2="393.1" y2="502.79999999999995" stroke="#000"/>
<text x="393.1" y="512.4" fill="#111" font-size="small" font-family="monospace" font-weight="bold" text-anchor="end" transform="rotate(-60, 393.1, 512.4)">
erubi_rails
</text>
<rect x="435.40000000000003" y="338.64894942527013" width="28.2" height="159.3510505747298" fill="#7070f8" data-tooltip="1.00x baseline speed (No JIT)"/>
<line x1="435.40000000000003" y1="337.905160040362" x2="463.6" y2="337.905160040362" stroke="#000"/>
<line x1="435.40000000000003" y1="339.3927388101783" x2="463.6" y2="339.3927388101783" stroke="#000"/>
<line x1="449.5" y1="337.905160040362" x2="449.5" y2="339.3927388101783" stroke="#000"/>
<rect x="463.6" y="339.04410727468246" width="28.2" height="158.95589272531745" fill="orange" data-tooltip="1.00x baseline speed (YJIT)"/>
<line x1="463.6" y1="337.9831872482197" x2="491.8" y2="337.9831872482197" stroke="#000"/>
<line x1="463.6" y1="340.10502730114524" x2="491.8" y2="340.10502730114524" stroke="#000"/>
<line x1="477.7" y1="337.9831872482197" x2="477.7" y2="340.10502730114524" stroke="#000"/>
<line x1="477.7" y1="498.0" x2="477.7" y2="502.79999999999995" stroke="#000"/>
<text x="477.7" y="512.4" fill="#111" font-size="small" font-family="monospace" font-weight="bold" text-anchor="end" transform="rotate(-60, 477.7, 512.4)">
etanni
</text>
<rect x="520.0" y="338.64894942527013" width="28.2" height="159.3510505747298" fill="#7070f8" data-tooltip="1.00x baseline speed (No JIT)"/>
<line x1="520.0" y1="338.44660767508657" x2="548.2" y2="338.44660767508657" stroke="#000"/>
<line x1="520.0" y1="338.8512911754537" x2="548.2" y2="338.8512911754537" stroke="#000"/>
<line x1="534.1" y1="338.44660767508657" x2="534.1" y2="338.8512911754537" stroke="#000"/>
<rect x="548.2" y="100.19999999999999" width="28.2" height="397.79999999999995" fill="orange" data-tooltip="2.50x baseline speed (YJIT)"/>
<line x1="548.2" y1="99.62366403599177" x2="576.4" y2="99.62366403599177" stroke="#000"/>
<line x1="548.2" y1="100.77633596400821" x2="576.4" y2="100.77633596400821" stroke="#000"/>
<line x1="562.3000000000001" y1="99.62366403599177" x2="562.3000000000001" y2="100.77633596400821" stroke="#000"/>
<line x1="562.3000000000001" y1="498.0" x2="562.3000000000001" y2="502.79999999999995" stroke="#000"/>
<text x="562.3000000000001" y="512.4" fill="#111" font-size="small" font-family="monospace" font-weight="bold" text-anchor="end" transform="rotate(-60, 562.3000000000001, 512.4)">
fannkuchredux
</text>
<rect x="604.5999999999999" y="338.64894942527013" width="28.2" height="159.3510505747298" fill="#7070f8" data-tooltip="1.00x baseline speed (No JIT)"/>
<line x1="604.5999999999999" y1="338.5097403188309" x2="632.8" y2="338.5097403188309" stroke="#000"/>
<line x1="604.5999999999999" y1="338.7881585317093" x2="632.8" y2="338.7881585317093" stroke="#000"/>
<line x1="618.6999999999999" y1="338.5097403188309" x2="618.6999999999999" y2="338.7881585317093" stroke="#000"/>
<rect x="632.8" y="275.06451991940276" width="28.2" height="222.93548008059716" fill="orange" data-tooltip="1.40x baseline speed (YJIT)"/>
<line x1="632.8" y1="274.69954111904383" x2="660.9999999999999" y2="274.69954111904383" stroke="#000"/>
<line x1="632.8" y1="275.4294987197617" x2="660.9999999999999" y2="275.4294987197617" stroke="#000"/>
<line x1="646.8999999999999" y1="274.69954111904383" x2="646.8999999999999" y2="275.4294987197617" stroke="#000"/>
<line x1="646.8999999999999" y1="498.0" x2="646.8999999999999" y2="502.79999999999995" stroke="#000"/>
<text x="646.8999999999999" y="512.4" fill="#111" font-size="small" font-family="monospace" font-weight="bold" text-anchor="end" transform="rotate(-60, 646.8999999999999, 512.4)">
lee
</text>
<rect x="689.1999999999999" y="338.64894942527013" width="28.2" height="159.3510505747298" fill="#7070f8" data-tooltip="1.00x baseline speed (No JIT)"/>
<line x1="689.1999999999999" y1="338.5194880765302" x2="717.4" y2="338.5194880765302" stroke="#000"/>
<line x1="689.1999999999999" y1="338.77841077401007" x2="717.4" y2="338.77841077401007" stroke="#000"/>
<line x1="703.3" y1="338.5194880765302" x2="703.3" y2="338.77841077401007" stroke="#000"/>
<rect x="717.4" y="224.46935834096698" width="28.2" height="273.53064165903294" fill="orange" data-tooltip="1.72x baseline speed (YJIT)"/>
<line x1="717.4" y1="224.16543964883957" x2="745.5999999999999" y2="224.16543964883957" stroke="#000"/>
<line x1="717.4" y1="224.77327703309442" x2="745.5999999999999" y2="224.77327703309442" stroke="#000"/>
<line x1="731.4999999999999" y1="224.16543964883957" x2="731.4999999999999" y2="224.77327703309442" stroke="#000"/>
<line x1="731.4999999999999" y1="498.0" x2="731.4999999999999" y2="502.79999999999995" stroke="#000"/>
<text x="731.4999999999999" y="512.4" fill="#111" font-size="small" font-family="monospace" font-weight="bold" text-anchor="end" transform="rotate(-60, 731.4999999999999, 512.4)">
nbody
</text>
<rect x="773.8" y="338.64894942527013" width="28.2" height="159.3510505747298" fill="#7070f8" data-tooltip="1.00x baseline speed (No JIT)"/>
<line x1="773.8" y1="337.47958823435835" x2="801.9999999999999" y2="337.47958823435835" stroke="#000"/>
<line x1="773.8" y1="339.8183106161819" x2="801.9999999999999" y2="339.8183106161819" stroke="#000"/>
<line x1="787.9" y1="337.47958823435835" x2="787.9" y2="339.8183106161819" stroke="#000"/>
<rect x="801.9999999999999" y="111.98729660435224" width="28.2" height="386.01270339564775" fill="orange" data-tooltip="2.42x baseline speed (YJIT)"/>
<line x1="801.9999999999999" y1="108.19621799807952" x2="830.1999999999999" y2="108.19621799807952" stroke="#000"/>
<line x1="801.9999999999999" y1="115.77837521062494" x2="830.1999999999999" y2="115.77837521062494" stroke="#000"/>
<line x1="816.0999999999999" y1="108.19621799807952" x2="816.0999999999999" y2="115.77837521062494" stroke="#000"/>
<line x1="816.0999999999999" y1="498.0" x2="816.0999999999999" y2="502.79999999999995" stroke="#000"/>
<text x="816.0999999999999" y="512.4" fill="#111" font-size="small" font-family="monospace" font-weight="bold" text-anchor="end" transform="rotate(-60, 816.0999999999999, 512.4)">
optcarrot
</text>
<rect x="858.4" y="338.64894942527013" width="28.2" height="159.3510505747298" fill="#7070f8" data-tooltip="1.00x baseline speed (No JIT)"/>
<line x1="858.4" y1="337.83892813207177" x2="886.5999999999999" y2="337.83892813207177" stroke="#000"/>
<line x1="858.4" y1="339.4589707184685" x2="886.5999999999999" y2="339.4589707184685" stroke="#000"/>
<line x1="872.4999999999999" y1="337.83892813207177" x2="872.4999999999999" y2="339.4589707184685" stroke="#000"/>
<rect x="886.5999999999999" y="193.91517991695926" width="28.2" height="304.08482008304065" fill="orange" data-tooltip="1.91x baseline speed (YJIT)"/>
<line x1="886.5999999999999" y1="191.8799579866878" x2="914.8" y2="191.8799579866878" stroke="#000"/>
<line x1="886.5999999999999" y1="195.95040184723072" x2="914.8" y2="195.95040184723072" stroke="#000"/>
<line x1="900.6999999999999" y1="191.8799579866878" x2="900.6999999999999" y2="195.95040184723072" stroke="#000"/>
<line x1="900.6999999999999" y1="498.0" x2="900.6999999999999" y2="502.79999999999995" stroke="#000"/>
<text x="900.6999999999999" y="512.4" fill="#111" font-size="small" font-family="monospace" font-weight="bold" text-anchor="end" transform="rotate(-60, 900.6999999999999, 512.4)">
rubykon
</text>
</svg>