<svg viewBox="0 0 1000 600" xmlns="http://www.w3.org/2000/svg" xmlns:xlink="http://www.w3.org/1999/xlink" width="100%" height="100%">

<rect x="50.0" y="30.0" width="940.0" height="467.99999999999994" stroke="#000" fill="#EEE"/>
<line x1="42.0" y1="497.9999999999999" x2="50.0" y2="497.9999999999999" stroke="#000"/>
<text x="26.000000000000004" y="497.9999999999999" text-anchor="end" font-weight="bold" font-size="small" fill="#111">
0.0
</text>
<line x1="42.0" y1="420.0701440995803" x2="50.0" y2="420.0701440995803" stroke="#000"/>
<text x="26.000000000000004" y="420.0701440995803" text-anchor="end" font-weight="bold" font-size="small" fill="#111">
2.0
</text>
<line x1="42.0" y1="342.1402881991606" x2="50.0" y2="342.1402881991606" stroke="#000"/>
<text x="26.000000000000004" y="342.1402881991606" text-anchor="end" font-weight="bold" font-size="small" fill="#111">
4.0
</text>
<line x1="42.0" y1="264.21043229874084" x2="50.0" y2="264.21043229874084" stroke="#000"/>
<text x="26.000000000000004" y="264.21043229874084" text-anchor="end" font-weight="bold" font-size="small" fill="#111">
6.0
</text>
<line x1="42.0" y1="186.28057639832113" x2="50.0" y2="186.28057639832113" stroke="#000"/>
<text x="26.000000000000004" y="186.28057639832113" text-anchor="end" font-weight="bold" font-size="small" fill="#111">
8.0
</text>
<line x1="42.0" y1="108.35072049790139" x2="50.0" y2="108.35072049790139" stroke="#000"/>
<text x="26.000000000000004" y="108.35072049790139" text-anchor="end" font-weight="bold" font-size="small" fill="#111">
10.0
</text>
<rect x="268.5" y="36.00000000000001" width="80.0" height="18.0" fill="#7070f8" stroke="#888"/>
<text x="308.5" y="52.50000000000001" font-size="small" text-anchor="middle" font-weight="bold" fill="#EEE">
No JIT
</text>
<rect x="691.4999999999999" y="36.00000000000001" width="80.0" height="18.0" fill="orange" stroke="#888"/>
<text x="731.4999999999999" y="52.50000000000001" font-size="small" text-anchor="middle" font-weight="bold" fill="#EEE">
YJIT
</text>
<rect x="97.0" y="459.03507204979" width="23.499999999999996" height="38.96492795020985" fill="#7070f8" data-tooltip="1.00x baseline speed (No JIT)"/>
<line x1="97.0" y1="459.02793541905925" x2="120.5" y2="459.02793541905925" stroke="#000"/>
<line x1="97.0" y1="459.0422086805208" x2="120.5" y2="459.0422086805208" stroke="#000"/>
<line x1="108.75" y1="459.02793541905925" x2="108.75" y2="459.0422086805208" stroke="#000"/>
<rect x="120.5" y="245.04420258911895" width="23.499999999999996" height="252.955797410881" fill="orange" data-tooltip="6.49x baseline speed (YJIT)"/>
<line x1="120.5" y1="244.87435368054136" x2="144.0" y2="244.87435368054136" stroke="#000"/>
<line x1="120.5" y1="245.21405149769657" x2="144.0" y2="245.21405149769657" stroke="#000"/>
<line x1="132.25" y1="244.87435368054136" x2="132.25" y2="245.21405149769657" stroke="#000"/>
<line x1="132.25" y1="498.0" x2="132.25" y2="502.79999999999995" stroke="#000"/>
<text x="132.25" y="512.4" fill="#111" font-size="small" font-family="monospace" font-weight="bold" text-anchor="end" transform="rotate(-60, 132.25, 512.4)">
30k_ifelse
</text>
<rect x="167.49999999999997" y="459.03507204979" width="23.499999999999996" height="38.96492795020985" fill="#7070f8" data-tooltip="1.00x baseline speed (No JIT)"/>
<line x1="167.49999999999997" y1="459.02494852429953" x2="190.99999999999997" y2="459.02494852429953" stroke="#000"/>
<line x1="167.49999999999997" y1="459.04519557528056" x2="190.99999999999997" y2="459.04519557528056" stroke="#000"/>
<line x1="179.25" y1="459.02494852429953" x2="179.25" y2="459.04519557528056" stroke="#000"/>
<rect x="190.99999999999997" y="178.34387506242348" width="23.499999999999996" height="319.65612493757646" fill="orange" data-tooltip="8.20x baseline speed (YJIT)"/>
<line x1="190.99999999999997" y1="178.22787771995527" x2="214.49999999999997" y2="178.22787771995527" stroke="#000"/>
<line x1="190.99999999999997" y1="178.45987240489168" x2="214.49999999999997" y2="178.45987240489168" stroke="#000"/>
<line x1="202.75" y1="178.22787771995527" x2="202.75" y2="178.45987240489168" stroke="#000"/>
<line x1="202.75" y1="498.0" x2="202.75" y2="502.79999999999995" stroke="#000"/>
<text x="202.75" y="512.4" fill="#111" font-size="small" font-family="monospace" font-weight="bold" text-anchor="end" transform="rotate(-60, 202.75, 512.4)">
30k_methods
</text>
<rect x="238.0" y="459.03507204979" width="23.499999999999996" height="38.96492795020985" fill="#7070f8" data-tooltip="1.00x baseline speed (No JIT)"/>
<line x1="238.0" y1="458.946644640893" x2="261.5" y2="458.946644640893" stroke="#000"/>
<line x1="238.0" y1="459.1234994586871" x2="261.5" y2="459.1234994586871" stroke="#000"/>
<line x1="249.75" y1="458.946644640893" x2="249.75" y2="459.1234994586871" stroke="#000"/>
<rect x="261.5" y="391.6331299443922" width="23.499999999999996" height="106.36687005560776" fill="orange" data-tooltip="2.73x baseline speed (YJIT)"/>
<line x1="261.5" y1="391.2799615903732" x2="285.00000000000006" y2="391.2799615903732" stroke="#000"/>
<line x1="261.5" y1="391.98629829841116" x2="285.00000000000006" y2="391.98629829841116" stroke="#000"/>
<line x1="273.25" y1="391.2799615903732" x2="273.25" y2="391.98629829841116" stroke="#000"/>
<line x1="273.25" y1="498.0" x2="273.25" y2="502.79999999999995" stroke="#000"/>
<text x="273.25" y="512.4" fill="#111" font-size="small" font-family="monospace" font-weight="bold" text-anchor="end" transform="rotate(-60, 273.25, 512.4)">
cfunc_itself
</text>
<rect x="308.5" y="459.03507204979" width="23.499999999999996" height="38.96492795020985" fill="#7070f8" data-tooltip="1.00x baseline speed (No JIT)"/>
<line x1="308.5" y1="459.01173255832504" x2="332.0" y2="459.01173255832504" stroke="#000"/>
<line x1="308.5" y1="459.05841154125505" x2="332.0" y2="459.05841154125505" stroke="#000"/>
<line x1="320.25" y1="459.01173255832504" x2="320.25" y2="459.05841154125505" stroke="#000"/>
<rect x="332.0" y="300.7937058056218" width="23.499999999999996" height="197.2062941943782" fill="orange" data-tooltip="5.06x baseline speed (YJIT)"/>
<line x1="332.0" y1="300.5599538225773" x2="355.50000000000006" y2="300.5599538225773" stroke="#000"/>
<line x1="332.0" y1="301.0274577886663" x2="355.50000000000006" y2="301.0274577886663" stroke="#000"/>
<line x1="343.75" y1="300.5599538225773" x2="343.75" y2="301.0274577886663" stroke="#000"/>
<line x1="343.75" y1="498.0" x2="343.75" y2="502.79999999999995" stroke="#000"/>
<text x="343.75" y="512.4" fill="#111" font-size="small" font-family="monospace" font-weight="bold" text-anchor="end" transform="rotate(-60, 343.75, 512.4)">
fib
</text>
<rect x="379.0" y="459.03507204979" width="23.499999999999996" height="38.96492795020985" fill="#7070f8" data-tooltip="1.00x baseline speed (No JIT)"/>
<line x1="379.0" y1="459.0137702498867" x2="402.5" y2="459.0137702498867" stroke="#000"/>
<line x1="379.0" y1="459.0563738496934" x2="402.5" y2="459.0563738496934" stroke="#000"/>
<line x1="390.75" y1="459.0137702498867" x2="390.75" y2="459.0563738496934" stroke="#000"/>
<rect x="402.5" y="286.35800679614397" width="23.499999999999996" height="211.64199320385598" fill="orange" data-tooltip="5.43x baseline speed (YJIT)"/>
<line x1="402.5" y1="286.02641178684826" x2="426.00000000000006" y2="286.02641178684826" stroke="#000"/>
<line x1="402.5" y1="286.68960180543974" x2="426.00000000000006" y2="286.68960180543974" stroke="#000"/>
<line x1="414.25" y1="286.02641178684826" x2="414.25" y2="286.68960180543974" stroke="#000"/>
<line x1="414.25" y1="498.0" x2="414.25" y2="502.79999999999995" stroke="#000"/>
<text x="414.25" y="512.4" fill="#111" font-size="small" font-family="monospace" font-weight="bold" text-anchor="end" transform="rotate(-60, 414.25, 512.4)">
getivar
</text>
<rect x="449.5" y="459.03507204979" width="23.499999999999996" height="38.96492795020985" fill="#7070f8" data-tooltip="1.00x baseline speed (No JIT)"/>
<line x1="449.5" y1="458.9864144695778" x2="473.00000000000006" y2="458.9864144695778" stroke="#000"/>
<line x1="449.5" y1="459.0837296300022" x2="473.00000000000006" y2="459.0837296300022" stroke="#000"/>
<line x1="461.25" y1="458.9864144695778" x2="461.25" y2="459.0837296300022" stroke="#000"/>
<rect x="473.00000000000006" y="269.2801700793572" width="23.499999999999996" height="228.71982992064272" fill="orange" data-tooltip="5.87x baseline speed (YJIT)"/>
<line x1="473.00000000000006" y1="268.74793367138494" x2="496.50000000000006" y2="268.74793367138494" stroke="#000"/>
<line x1="473.00000000000006" y1="269.8124064873295" x2="496.50000000000006" y2="269.8124064873295" stroke="#000"/>
<line x1="484.75" y1="268.74793367138494" x2="484.75" y2="269.8124064873295" stroke="#000"/>
<line x1="484.75" y1="498.0" x2="484.75" y2="502.79999999999995" stroke="#000"/>
<text x="484.75" y="512.4" fill="#111" font-size="small" font-family="monospace" font-weight="bold" text-anchor="end" transform="rotate(-60, 484.75, 512.4)">
keyword_args
</text>
<rect x="519.9999999999999" y="459.03507204979" width="23.499999999999996" height="38.96492795020985" fill="#7070f8" data-tooltip="1.00x baseline speed (No JIT)"/>
<line x1="519.9999999999999" y1="458.93991890354727" x2="543.4999999999999" y2="458.93991890354727" stroke="#000"/>
<line x1="519.9999999999999" y1="459.1302251960328" x2="543.4999999999999" y2="459.1302251960328" stroke="#000"/>
<line x1="531.75" y1="458.93991890354727" x2="531.75" y2="459.1302251960328" stroke="#000"/>
<rect x="543.4999999999999" y="100.19999999999999" width="23.499999999999996" height="397.79999999999995" fill="orange" data-tooltip="10.21x baseline speed (YJIT)"/>
<line x1="543.4999999999999" y1="97.29427958748438" x2="566.9999999999999" y2="97.29427958748438" stroke="#000"/>
<line x1="543.4999999999999" y1="103.1057204125156" x2="566.9999999999999" y2="103.1057204125156" stroke="#000"/>
<line x1="555.2499999999999" y1="97.29427958748438" x2="555.2499999999999" y2="103.1057204125156" stroke="#000"/>
<line x1="555.2499999999999" y1="498.0" x2="555.2499999999999" y2="502.79999999999995" stroke="#000"/>
<text x="555.2499999999999" y="512.4" fill="#111" font-size="small" font-family="monospace" font-weight="bold" text-anchor="end" transform="rotate(-60, 555.2499999999999, 512.4)">
respond_to
</text>
<rect x="590.4999999999999" y="459.03507204979" width="23.499999999999996" height="38.96492795020985" fill="#7070f8" data-tooltip="1.00x baseline speed (No JIT)"/>
<line x1="590.4999999999999" y1="458.9141992562071" x2="613.9999999999999" y2="458.9141992562071" stroke="#000"/>
<line x1="590.4999999999999" y1="459.155944843373" x2="613.9999999999999" y2="459.155944843373" stroke="#000"/>
<line x1="602.25" y1="458.9141992562071" x2="602.25" y2="459.155944843373" stroke="#000"/>
<rect x="613.9999999999999" y="239.85152658096533" width="23.499999999999996" height="258.1484734190346" fill="orange" data-tooltip="6.63x baseline speed (YJIT)"/>
<line x1="613.9999999999999" y1="239.01974843594363" x2="637.4999999999999" y2="239.01974843594363" stroke="#000"/>
<line x1="613.9999999999999" y1="240.68330472598703" x2="637.4999999999999" y2="240.68330472598703" stroke="#000"/>
<line x1="625.7499999999999" y1="239.01974843594363" x2="625.7499999999999" y2="240.68330472598703" stroke="#000"/>
<line x1="625.7499999999999" y1="498.0" x2="625.7499999999999" y2="502.79999999999995" stroke="#000"/>
<text x="625.7499999999999" y="512.4" fill="#111" font-size="small" font-family="monospace" font-weight="bold" text-anchor="end" transform="rotate(-60, 625.7499999999999, 512.4)">
setivar
</text>
<rect x="660.9999999999999" y="459.03507204979" width="23.499999999999996" height="38.96492795020985" fill="#7070f8" data-tooltip="1.00x baseline speed (No JIT)"/>
<line x1="660.9999999999999" y1="458.3685819226392" x2="684.4999999999999" y2="458.3685819226392" stroke="#000"/>
<line x1="660.9999999999999" y1="459.70156217694085" x2="684.4999999999999" y2="459.70156217694085" stroke="#000"/>
<line x1="672.75" y1="458.3685819226392" x2="672.75" y2="459.70156217694085" stroke="#000"/>
<rect x="684.4999999999999" y="401.58221155329545" width="23.499999999999996" height="96.41778844670455" fill="orange" data-tooltip="2.47x baseline speed (YJIT)"/>
<line x1="684.4999999999999" y1="399.1408023221513" x2="707.9999999999999" y2="399.1408023221513" stroke="#000"/>
<line x1="684.4999999999999" y1="404.02362078443963" x2="707.9999999999999" y2="404.02362078443963" stroke="#000"/>
<line x1="696.2499999999999" y1="399.1408023221513" x2="696.2499999999999" y2="404.02362078443963" stroke="#000"/>
<line x1="696.2499999999999" y1="498.0" x2="696.2499999999999" y2="502.79999999999995" stroke="#000"/>
<text x="696.2499999999999" y="512.4" fill="#111" font-size="small" font-family="monospace" font-weight="bold" text-anchor="end" transform="rotate(-60, 696.2499999999999, 512.4)">
setivar_object
</text>
<rect x="731.4999999999999" y="459.03507204979" width="23.499999999999996" height="38.96492795020985" fill="#7070f8" data-tooltip="1.00x baseline speed (No JIT)"/>
<line x1="731.4999999999999" y1="458.8581869266365" x2="754.9999999999999" y2="458.8581869266365" stroke="#000"/>
<line x1="731.4999999999999" y1="459.2119571729436" x2="754.9999999999999" y2="459.2119571729436" stroke="#000"/>
<line x1="743.25" y1="458.8581869266365" x2="743.25" y2="459.2119571729436" stroke="#000"/>
<rect x="754.9999999999999" y="401.4457775364943" width="23.499999999999996" height="96.55422246350568" fill="orange" data-tooltip="2.48x baseline speed (YJIT)"/>
<line x1="754.9999999999999" y1="399.92781871072583" x2="778.4999999999999" y2="399.92781871072583" stroke="#000"/>
<line x1="754.9999999999999" y1="402.96373636226275" x2="778.4999999999999" y2="402.96373636226275" stroke="#000"/>
<line x1="766.7499999999999" y1="399.92781871072583" x2="766.7499999999999" y2="402.96373636226275" stroke="#000"/>
<line x1="766.7499999999999" y1="498.0" x2="766.7499999999999" y2="502.79999999999995" stroke="#000"/>
<text x="766.7499999999999" y="512.4" fill="#111" font-size="small" font-family="monospace" font-weight="bold" text-anchor="end" transform="rotate(-60, 766.7499999999999, 512.4)">
setivar_young
</text>
<rect x="801.9999999999999" y="459.03507204979" width="23.499999999999996" height="38.96492795020985" fill="#7070f8" data-tooltip="1.00x baseline speed (No JIT)"/>
<line x1="801.9999999999999" y1="458.74990257345706" x2="825.4999999999999" y2="458.74990257345706" stroke="#000"/>
<line x1="801.9999999999999" y1="459.320241526123" x2="825.4999999999999" y2="459.320241526123" stroke="#000"/>
<line x1="813.75" y1="458.74990257345706" x2="813.75" y2="459.320241526123" stroke="#000"/>
<rect x="825.4999999999999" y="425.3170492388781" width="23.499999999999996" height="72.68295076112192" fill="orange" data-tooltip="1.87x baseline speed (YJIT)"/>
<line x1="825.4999999999999" y1="424.12337678397597" x2="848.9999999999999" y2="424.12337678397597" stroke="#000"/>
<line x1="825.4999999999999" y1="426.51072169378017" x2="848.9999999999999" y2="426.51072169378017" stroke="#000"/>
<line x1="837.2499999999999" y1="424.12337678397597" x2="837.2499999999999" y2="426.51072169378017" stroke="#000"/>
<line x1="837.2499999999999" y1="498.0" x2="837.2499999999999" y2="502.79999999999995" stroke="#000"/>
<text x="837.2499999999999" y="512.4" fill="#111" font-size="small" font-family="monospace" font-weight="bold" text-anchor="end" transform="rotate(-60, 837.2499999999999, 512.4)">
str_concat
</text>
<rect x="872.4999999999999" y="459.03507204979" width="23.499999999999996" height="38.96492795020985" fill="#7070f8" data-tooltip="1.00x baseline speed (No JIT)"/>
<line x1="872.4999999999999" y1="458.9649588656628" x2="895.9999999999999" y2="458.9649588656628" stroke="#000"/>
<line x1="872.4999999999999" y1="459.1051852339172" x2="895.9999999999999" y2="459.1051852339172" stroke="#000"/>
<line x1="884.25" y1="458.9649588656628" x2="884.25" y2="459.1051852339172" stroke="#000"/>
<rect x="895.9999999999999" y="449.03515739848297" width="23.499999999999996" height="48.96484260151691" fill="orange" data-tooltip="1.26x baseline speed (YJIT)"/>
<line x1="895.9999999999999" y1="448.8919386080942" x2="919.4999999999999" y2="448.8919386080942" stroke="#000"/>
<line x1="895.9999999999999" y1="449.1783761888717" x2="919.4999999999999" y2="449.1783761888717" stroke="#000"/>
<line x1="907.75" y1="448.8919386080942" x2="907.75" y2="449.1783761888717" stroke="#000"/>
<line x1="907.75" y1="498.0" x2="907.75" y2="502.79999999999995" stroke="#000"/>
<text x="907.75" y="512.4" fill="#111" font-size="small" font-family="monospace" font-weight="bold" text-anchor="end" transform="rotate(-60, 907.75, 512.4)">
throw
</text>
</svg>