<svg viewBox="0 0 1000 600" xmlns="http://www.w3.org/2000/svg" xmlns:xlink="http://www.w3.org/1999/xlink" width="100%" height="100%">

<rect x="50.0" y="30.0" width="940.0" height="467.99999999999994" stroke="#000" fill="#EEE"/>
<line x1="42.0" y1="497.9999999999999" x2="50.0" y2="497.9999999999999" stroke="#000"/>
<text x="26.000000000000004" y="497.9999999999999" text-anchor="end" font-weight="bold" font-size="small" fill="#111">
0.0
</text>
<line x1="42.0" y1="440.5665559615035" x2="50.0" y2="440.5665559615035" stroke="#000"/>
<text x="26.000000000000004" y="440.5665559615035" text-anchor="end" font-weight="bold" font-size="small" fill="#111">
0.2
</text>
<line x1="42.0" y1="383.133111923007" x2="50.0" y2="383.133111923007" stroke="#000"/>
<text x="26.000000000000004" y="383.133111923007" text-anchor="end" font-weight="bold" font-size="small" fill="#111">
0.4
</text>
<line x1="42.0" y1="325.6996678845105" x2="50.0" y2="325.6996678845105" stroke="#000"/>
<text x="26.000000000000004" y="325.6996678845105" text-anchor="end" font-weight="bold" font-size="small" fill="#111">
0.6
</text>
<line x1="42.0" y1="268.26622384601404" x2="50.0" y2="268.26622384601404" stroke="#000"/>
<text x="26.000000000000004" y="268.26622384601404" text-anchor="end" font-weight="bold" font-size="small" fill="#111">
0.8
</text>
<line x1="42.0" y1="210.8327798075176" x2="50.0" y2="210.8327798075176" stroke="#000"/>
<text x="26.000000000000004" y="210.8327798075176" text-anchor="end" font-weight="bold" font-size="small" fill="#111">
1.0
</text>
<line x1="42.0" y1="153.39933576902115" x2="50.0" y2="153.39933576902115" stroke="#000"/>
<text x="26.000000000000004" y="153.39933576902115" text-anchor="end" font-weight="bold" font-size="small" fill="#111">
1.2
</text>
<rect x="162.74999999999997" y="36.00000000000001" width="80.0" height="18.0" fill="#7070f8" stroke="#888"/>
<text x="202.75" y="52.50000000000001" font-size="small" text-anchor="middle" font-weight="bold" fill="#EEE">
No JIT
</text>
<rect x="374.25" y="36.00000000000001" width="80.0" height="18.0" fill="orange" stroke="#888"/>
<text x="414.25" y="52.50000000000001" font-size="small" text-anchor="middle" font-weight="bold" fill="#EEE">
MJIT3.0
</text>
<rect x="585.7499999999999" y="36.00000000000001" width="80.0" height="18.0" fill="green" stroke="#888"/>
<text x="625.7499999999999" y="52.50000000000001" font-size="small" text-anchor="middle" font-weight="bold" fill="#EEE">
MJIT
</text>
<rect x="797.2499999999999" y="36.00000000000001" width="80.0" height="18.0" fill="#4F3A7A" stroke="#888"/>
<text x="837.2499999999999" y="52.50000000000001" font-size="small" text-anchor="middle" font-weight="bold" fill="#EEE">
YJIT
</text>
<rect x="97.0" y="210.8327798075176" width="28.199999999999996" height="287.1672201924823" fill="#7070f8" data-tooltip="1.00x baseline speed (No JIT)"/>
<line x1="97.0" y1="207.4078073653675" x2="125.2" y2="207.4078073653675" stroke="#000"/>
<line x1="97.0" y1="214.25775224966773" x2="125.2" y2="214.25775224966773" stroke="#000"/>
<line x1="111.10000000000001" y1="207.4078073653675" x2="111.10000000000001" y2="214.25775224966773" stroke="#000"/>
<rect x="125.2" y="241.63862810056452" width="28.199999999999996" height="256.3613718994354" fill="orange" data-tooltip="0.89x baseline speed (MJIT3.0)"/>
<line x1="125.2" y1="238.25384822849222" x2="153.4" y2="238.25384822849222" stroke="#000"/>
<line x1="125.2" y1="245.02340797263682" x2="153.4" y2="245.02340797263682" stroke="#000"/>
<line x1="139.3" y1="238.25384822849222" x2="139.3" y2="245.02340797263682" stroke="#000"/>
<rect x="153.39999999999998" y="259.72687895905926" width="28.199999999999996" height="238.27312104094068" fill="green" data-tooltip="0.83x baseline speed (MJIT)"/>
<line x1="153.39999999999998" y1="248.12409616139644" x2="181.6" y2="248.12409616139644" stroke="#000"/>
<line x1="153.39999999999998" y1="271.3296617567221" x2="181.6" y2="271.3296617567221" stroke="#000"/>
<line x1="167.49999999999997" y1="248.12409616139644" x2="167.49999999999997" y2="271.3296617567221" stroke="#000"/>
<rect x="181.6" y="105.01454489074963" width="28.199999999999996" height="392.9854551092503" fill="#4F3A7A" data-tooltip="1.37x baseline speed (YJIT)"/>
<line x1="181.6" y1="100.07480864973198" x2="209.79999999999998" y2="100.07480864973198" stroke="#000"/>
<line x1="181.6" y1="109.9542811317673" x2="209.79999999999998" y2="109.9542811317673" stroke="#000"/>
<line x1="195.7" y1="100.07480864973198" x2="195.7" y2="109.9542811317673" stroke="#000"/>
<line x1="167.49999999999997" y1="498.0" x2="167.49999999999997" y2="502.79999999999995" stroke="#000"/>
<text x="167.49999999999997" y="512.4" fill="#111" font-size="small" font-family="monospace" font-weight="bold" text-anchor="end" transform="rotate(-60, 167.49999999999997, 512.4)">
activerecord
</text>
<rect x="238.0" y="210.8327798075176" width="28.199999999999996" height="287.1672201924823" fill="#7070f8" data-tooltip="1.00x baseline speed (No JIT)"/>
<line x1="238.0" y1="207.90177466966685" x2="266.2" y2="207.90177466966685" stroke="#000"/>
<line x1="238.0" y1="213.76378494536837" x2="266.2" y2="213.76378494536837" stroke="#000"/>
<line x1="252.1" y1="207.90177466966685" x2="252.1" y2="213.76378494536837" stroke="#000"/>
<rect x="266.2" y="180.2061188165995" width="28.199999999999996" height="317.79388118340046" fill="orange" data-tooltip="1.11x baseline speed (MJIT3.0)"/>
<line x1="266.2" y1="175.1594138078172" x2="294.4" y2="175.1594138078172" stroke="#000"/>
<line x1="266.2" y1="185.2528238253818" x2="294.4" y2="185.2528238253818" stroke="#000"/>
<line x1="280.3" y1="175.1594138078172" x2="280.3" y2="185.2528238253818" stroke="#000"/>
<rect x="322.6" y="124.84308371374769" width="28.199999999999996" height="373.1569162862522" fill="#4F3A7A" data-tooltip="1.30x baseline speed (YJIT)"/>
<line x1="322.6" y1="118.69257681815208" x2="350.8" y2="118.69257681815208" stroke="#000"/>
<line x1="322.6" y1="130.9935906093433" x2="350.8" y2="130.9935906093433" stroke="#000"/>
<line x1="336.7" y1="118.69257681815208" x2="336.7" y2="130.9935906093433" stroke="#000"/>
<line x1="308.5" y1="498.0" x2="308.5" y2="502.79999999999995" stroke="#000"/>
<text x="308.5" y="512.4" fill="#111" font-size="small" font-family="monospace" font-weight="bold" text-anchor="end" transform="rotate(-60, 308.5, 512.4)">
hexapdf
</text>
<rect x="379.0" y="210.8327798075176" width="28.199999999999996" height="287.1672201924823" fill="#7070f8" data-tooltip="1.00x baseline speed (No JIT)"/>
<line x1="379.0" y1="207.3457720295678" x2="407.2" y2="207.3457720295678" stroke="#000"/>
<line x1="379.0" y1="214.31978758546742" x2="407.2" y2="214.31978758546742" stroke="#000"/>
<line x1="393.1" y1="207.3457720295678" x2="393.1" y2="214.31978758546742" stroke="#000"/>
<rect x="407.2" y="184.78466760362988" width="28.199999999999996" height="313.21533239637006" fill="orange" data-tooltip="1.09x baseline speed (MJIT3.0)"/>
<line x1="407.2" y1="174.97312360170386" x2="435.40000000000003" y2="174.97312360170386" stroke="#000"/>
<line x1="407.2" y1="194.59621160555588" x2="435.40000000000003" y2="194.59621160555588" stroke="#000"/>
<line x1="421.3" y1="174.97312360170386" x2="421.3" y2="194.59621160555588" stroke="#000"/>
<rect x="435.40000000000003" y="184.57764264526898" width="28.199999999999996" height="313.42235735473093" fill="green" data-tooltip="1.09x baseline speed (MJIT)"/>
<line x1="435.40000000000003" y1="171.83455996237782" x2="463.6" y2="171.83455996237782" stroke="#000"/>
<line x1="435.40000000000003" y1="197.3207253281601" x2="463.6" y2="197.3207253281601" stroke="#000"/>
<line x1="449.5" y1="171.83455996237782" x2="449.5" y2="197.3207253281601" stroke="#000"/>
<rect x="463.6" y="100.19999999999999" width="28.199999999999996" height="397.79999999999995" fill="#4F3A7A" data-tooltip="1.39x baseline speed (YJIT)"/>
<line x1="463.6" y1="88.51780459456388" x2="491.8" y2="88.51780459456388" stroke="#000"/>
<line x1="463.6" y1="111.8821954054361" x2="491.8" y2="111.8821954054361" stroke="#000"/>
<line x1="477.7" y1="88.51780459456388" x2="477.7" y2="111.8821954054361" stroke="#000"/>
<line x1="449.5" y1="498.0" x2="449.5" y2="502.79999999999995" stroke="#000"/>
<text x="449.5" y="512.4" fill="#111" font-size="small" font-family="monospace" font-weight="bold" text-anchor="end" transform="rotate(-60, 449.5, 512.4)">
liquid-render
</text>
<rect x="519.9999999999999" y="210.8327798075176" width="28.199999999999996" height="287.1672201924823" fill="#7070f8" data-tooltip="1.00x baseline speed (No JIT)"/>
<line x1="519.9999999999999" y1="209.1709806596819" x2="548.1999999999999" y2="209.1709806596819" stroke="#000"/>
<line x1="519.9999999999999" y1="212.4945789553533" x2="548.1999999999999" y2="212.4945789553533" stroke="#000"/>
<line x1="534.0999999999999" y1="209.1709806596819" x2="534.0999999999999" y2="212.4945789553533" stroke="#000"/>
<rect x="548.1999999999999" y="194.5630044603926" width="28.199999999999996" height="303.4369955396073" fill="orange" data-tooltip="1.06x baseline speed (MJIT3.0)"/>
<line x1="548.1999999999999" y1="189.71182307839783" x2="576.3999999999999" y2="189.71182307839783" stroke="#000"/>
<line x1="548.1999999999999" y1="199.41418584238735" x2="576.3999999999999" y2="199.41418584238735" stroke="#000"/>
<line x1="562.3" y1="189.71182307839783" x2="562.3" y2="199.41418584238735" stroke="#000"/>
<rect x="576.3999999999999" y="211.78582495689972" width="28.199999999999996" height="286.2141750431002" fill="green" data-tooltip="1.00x baseline speed (MJIT)"/>
<line x1="576.3999999999999" y1="206.92568961425894" x2="604.5999999999999" y2="206.92568961425894" stroke="#000"/>
<line x1="576.3999999999999" y1="216.64596029954046" x2="604.5999999999999" y2="216.64596029954046" stroke="#000"/>
<line x1="590.4999999999999" y1="206.92568961425894" x2="590.4999999999999" y2="216.64596029954046" stroke="#000"/>
<rect x="604.5999999999999" y="178.86240692881387" width="28.199999999999996" height="319.137593071186" fill="#4F3A7A" data-tooltip="1.11x baseline speed (YJIT)"/>
<line x1="604.5999999999999" y1="175.67588600225042" x2="632.8" y2="175.67588600225042" stroke="#000"/>
<line x1="604.5999999999999" y1="182.04892785537731" x2="632.8" y2="182.04892785537731" stroke="#000"/>
<line x1="618.6999999999999" y1="175.67588600225042" x2="618.6999999999999" y2="182.04892785537731" stroke="#000"/>
<line x1="590.4999999999999" y1="498.0" x2="590.4999999999999" y2="502.79999999999995" stroke="#000"/>
<text x="590.4999999999999" y="512.4" fill="#111" font-size="small" font-family="monospace" font-weight="bold" text-anchor="end" transform="rotate(-60, 590.4999999999999, 512.4)">
mail
</text>
<rect x="660.9999999999999" y="210.8327798075176" width="28.199999999999996" height="287.1672201924823" fill="#7070f8" data-tooltip="1.00x baseline speed (No JIT)"/>
<line x1="660.9999999999999" y1="197.47242106274751" x2="689.1999999999999" y2="197.47242106274751" stroke="#000"/>
<line x1="660.9999999999999" y1="224.19313855228768" x2="689.1999999999999" y2="224.19313855228768" stroke="#000"/>
<line x1="675.0999999999999" y1="197.47242106274751" x2="675.0999999999999" y2="224.19313855228768" stroke="#000"/>
<rect x="689.1999999999999" y="145.12640889268982" width="28.199999999999996" height="352.8735911073101" fill="orange" data-tooltip="1.23x baseline speed (MJIT3.0)"/>
<line x1="689.1999999999999" y1="126.90779729198991" x2="717.4" y2="126.90779729198991" stroke="#000"/>
<line x1="689.1999999999999" y1="163.34502049338974" x2="717.4" y2="163.34502049338974" stroke="#000"/>
<line x1="703.3" y1="126.90779729198991" x2="703.3" y2="163.34502049338974" stroke="#000"/>
<rect x="717.4" y="131.77151462212476" width="28.199999999999996" height="366.2284853778752" fill="green" data-tooltip="1.28x baseline speed (MJIT)"/>
<line x1="717.4" y1="113.38612821795343" x2="745.5999999999999" y2="113.38612821795343" stroke="#000"/>
<line x1="717.4" y1="150.15690102629605" x2="745.5999999999999" y2="150.15690102629605" stroke="#000"/>
<line x1="731.4999999999999" y1="113.38612821795343" x2="731.4999999999999" y2="150.15690102629605" stroke="#000"/>
<rect x="745.5999999999999" y="110.5398393271019" width="28.199999999999996" height="387.4601606728981" fill="#4F3A7A" data-tooltip="1.35x baseline speed (YJIT)"/>
<line x1="745.5999999999999" y1="91.40432390596186" x2="773.8" y2="91.40432390596186" stroke="#000"/>
<line x1="745.5999999999999" y1="129.67535474824194" x2="773.8" y2="129.67535474824194" stroke="#000"/>
<line x1="759.6999999999999" y1="91.40432390596186" x2="759.6999999999999" y2="129.67535474824194" stroke="#000"/>
<line x1="731.4999999999999" y1="498.0" x2="731.4999999999999" y2="502.79999999999995" stroke="#000"/>
<text x="731.4999999999999" y="512.4" fill="#111" font-size="small" font-family="monospace" font-weight="bold" text-anchor="end" transform="rotate(-60, 731.4999999999999, 512.4)">
psych-load
</text>
<rect x="801.9999999999999" y="210.8327798075176" width="28.199999999999996" height="287.1672201924823" fill="#7070f8" data-tooltip="1.00x baseline speed (No JIT)"/>
<line x1="801.9999999999999" y1="206.08224115649338" x2="830.1999999999999" y2="206.08224115649338" stroke="#000"/>
<line x1="801.9999999999999" y1="215.58331845854184" x2="830.1999999999999" y2="215.58331845854184" stroke="#000"/>
<line x1="816.0999999999999" y1="206.08224115649338" x2="816.0999999999999" y2="215.58331845854184" stroke="#000"/>
<rect x="830.1999999999999" y="224.45567339451839" width="28.199999999999996" height="273.54432660548156" fill="orange" data-tooltip="0.95x baseline speed (MJIT3.0)"/>
<line x1="830.1999999999999" y1="217.09332289820884" x2="858.4" y2="217.09332289820884" stroke="#000"/>
<line x1="830.1999999999999" y1="231.81802389082793" x2="858.4" y2="231.81802389082793" stroke="#000"/>
<line x1="844.3" y1="217.09332289820884" x2="844.3" y2="231.81802389082793" stroke="#000"/>
<rect x="858.4" y="232.8813011103979" width="28.199999999999996" height="265.118698889602" fill="green" data-tooltip="0.92x baseline speed (MJIT)"/>
<line x1="858.4" y1="226.84872723256225" x2="886.5999999999999" y2="226.84872723256225" stroke="#000"/>
<line x1="858.4" y1="238.9138749882336" x2="886.5999999999999" y2="238.9138749882336" stroke="#000"/>
<line x1="872.4999999999999" y1="226.84872723256225" x2="872.4999999999999" y2="238.9138749882336" stroke="#000"/>
<rect x="886.5999999999999" y="119.40110130531089" width="28.199999999999996" height="378.59889869468907" fill="#4F3A7A" data-tooltip="1.32x baseline speed (YJIT)"/>
<line x1="886.5999999999999" y1="110.53920050096748" x2="914.8" y2="110.53920050096748" stroke="#000"/>
<line x1="886.5999999999999" y1="128.26300210965428" x2="914.8" y2="128.26300210965428" stroke="#000"/>
<line x1="900.6999999999999" y1="110.53920050096748" x2="900.6999999999999" y2="128.26300210965428" stroke="#000"/>
<line x1="872.4999999999999" y1="498.0" x2="872.4999999999999" y2="502.79999999999995" stroke="#000"/>
<text x="872.4999999999999" y="512.4" fill="#111" font-size="small" font-family="monospace" font-weight="bold" text-anchor="end" transform="rotate(-60, 872.4999999999999, 512.4)">
railsbench
</text>
</svg>