<svg viewBox="0 0 1000 600" xmlns="http://www.w3.org/2000/svg" xmlns:xlink="http://www.w3.org/1999/xlink" width="100%" height="100%">

<rect x="50.0" y="30.0" width="940.0" height="467.99999999999994" stroke="#000" fill="#EEE"/>
<line x1="42.0" y1="497.9999999999999" x2="50.0" y2="497.9999999999999" stroke="#000"/>
<text x="26.000000000000004" y="497.9999999999999" text-anchor="end" font-weight="bold" font-size="small" fill="#111">
0.0
</text>
<line x1="42.0" y1="444.955829451498" x2="50.0" y2="444.955829451498" stroke="#000"/>
<text x="26.000000000000004" y="444.955829451498" text-anchor="end" font-weight="bold" font-size="small" fill="#111">
1.0
</text>
<line x1="42.0" y1="391.91165890299595" x2="50.0" y2="391.91165890299595" stroke="#000"/>
<text x="26.000000000000004" y="391.91165890299595" text-anchor="end" font-weight="bold" font-size="small" fill="#111">
2.0
</text>
<line x1="42.0" y1="338.86748835449396" x2="50.0" y2="338.86748835449396" stroke="#000"/>
<text x="26.000000000000004" y="338.86748835449396" text-anchor="end" font-weight="bold" font-size="small" fill="#111">
3.0
</text>
<line x1="42.0" y1="285.82331780599196" x2="50.0" y2="285.82331780599196" stroke="#000"/>
<text x="26.000000000000004" y="285.82331780599196" text-anchor="end" font-weight="bold" font-size="small" fill="#111">
4.0
</text>
<line x1="42.0" y1="232.77914725748994" x2="50.0" y2="232.77914725748994" stroke="#000"/>
<text x="26.000000000000004" y="232.77914725748994" text-anchor="end" font-weight="bold" font-size="small" fill="#111">
5.0
</text>
<line x1="42.0" y1="179.73497670898797" x2="50.0" y2="179.73497670898797" stroke="#000"/>
<text x="26.000000000000004" y="179.73497670898797" text-anchor="end" font-weight="bold" font-size="small" fill="#111">
6.0
</text>
<line x1="42.0" y1="126.69080616048596" x2="50.0" y2="126.69080616048596" stroke="#000"/>
<text x="26.000000000000004" y="126.69080616048596" text-anchor="end" font-weight="bold" font-size="small" fill="#111">
7.0
</text>
<rect x="162.74999999999997" y="36.00000000000001" width="80.0" height="18.0" fill="#7070f8" stroke="#888"/>
<text x="202.75" y="52.50000000000001" font-size="small" text-anchor="middle" font-weight="bold" fill="#EEE">
No JIT
</text>
<rect x="374.25" y="36.00000000000001" width="80.0" height="18.0" fill="orange" stroke="#888"/>
<text x="414.25" y="52.50000000000001" font-size="small" text-anchor="middle" font-weight="bold" fill="#EEE">
MJIT3.0
</text>
<rect x="585.7499999999999" y="36.00000000000001" width="80.0" height="18.0" fill="green" stroke="#888"/>
<text x="625.7499999999999" y="52.50000000000001" font-size="small" text-anchor="middle" font-weight="bold" fill="#EEE">
MJIT
</text>
<rect x="797.2499999999999" y="36.00000000000001" width="80.0" height="18.0" fill="#4F3A7A" stroke="#888"/>
<text x="837.2499999999999" y="52.50000000000001" font-size="small" text-anchor="middle" font-weight="bold" fill="#EEE">
YJIT
</text>
<rect x="97.0" y="444.955829451498" width="7.356521739130435" height="53.044170548501995" fill="#7070f8" data-tooltip="1.00x baseline speed (No JIT)"/>
<line x1="97.0" y1="444.16933243785695" x2="104.35652173913043" y2="444.16933243785695" stroke="#000"/>
<line x1="97.0" y1="445.74232646513906" x2="104.35652173913043" y2="445.74232646513906" stroke="#000"/>
<line x1="100.67826086956522" y1="444.16933243785695" x2="100.67826086956522" y2="445.74232646513906" stroke="#000"/>
<rect x="104.35652173913043" y="446.78758725074937" width="7.356521739130435" height="51.21241274925064" fill="orange" data-tooltip="0.97x baseline speed (MJIT3.0)"/>
<line x1="104.35652173913043" y1="445.5416356308336" x2="111.71304347826086" y2="445.5416356308336" stroke="#000"/>
<line x1="104.35652173913043" y1="448.03353887066515" x2="111.71304347826086" y2="448.03353887066515" stroke="#000"/>
<line x1="108.03478260869565" y1="445.5416356308336" x2="108.03478260869565" y2="448.03353887066515" stroke="#000"/>
<rect x="111.71304347826087" y="451.155852546821" width="7.356521739130435" height="46.84414745317889" fill="green" data-tooltip="0.88x baseline speed (MJIT)"/>
<line x1="111.71304347826087" y1="449.3783556922559" x2="119.06956521739131" y2="449.3783556922559" stroke="#000"/>
<line x1="111.71304347826087" y1="452.93334940138607" x2="119.06956521739131" y2="452.93334940138607" stroke="#000"/>
<line x1="115.3913043478261" y1="449.3783556922559" x2="115.3913043478261" y2="452.93334940138607" stroke="#000"/>
<rect x="119.06956521739131" y="422.9891862965203" width="7.356521739130435" height="75.0108137034796" fill="#4F3A7A" data-tooltip="1.41x baseline speed (YJIT)"/>
<line x1="119.06956521739131" y1="421.78609464858295" x2="126.42608695652174" y2="421.78609464858295" stroke="#000"/>
<line x1="119.06956521739131" y1="424.1922779444577" x2="126.42608695652174" y2="424.1922779444577" stroke="#000"/>
<line x1="122.74782608695654" y1="421.78609464858295" x2="122.74782608695654" y2="424.1922779444577" stroke="#000"/>
<line x1="115.3913043478261" y1="498.0" x2="115.3913043478261" y2="502.79999999999995" stroke="#000"/>
<text x="115.3913043478261" y="512.4" fill="#111" font-size="small" font-family="monospace" font-weight="bold" text-anchor="end" transform="rotate(-60, 115.3913043478261, 512.4)">
activerecord
</text>
<rect x="133.7826086956522" y="444.955829451498" width="7.356521739130435" height="53.044170548501995" fill="#7070f8" data-tooltip="1.00x baseline speed (No JIT)"/>
<line x1="133.7826086956522" y1="444.4926227059032" x2="141.1391304347826" y2="444.4926227059032" stroke="#000"/>
<line x1="133.7826086956522" y1="445.4190361970928" x2="141.1391304347826" y2="445.4190361970928" stroke="#000"/>
<line x1="137.4608695652174" y1="444.4926227059032" x2="137.4608695652174" y2="445.4190361970928" stroke="#000"/>
<rect x="141.1391304347826" y="442.2265519013992" width="7.356521739130435" height="55.773448098600795" fill="orange" data-tooltip="1.05x baseline speed (MJIT3.0)"/>
<line x1="141.1391304347826" y1="441.38059168818785" x2="148.49565217391302" y2="441.38059168818785" stroke="#000"/>
<line x1="141.1391304347826" y1="443.07251211461056" x2="148.49565217391302" y2="443.07251211461056" stroke="#000"/>
<line x1="144.8173913043478" y1="441.38059168818785" x2="144.8173913043478" y2="443.07251211461056" stroke="#000"/>
<rect x="155.8521739130435" y="426.33642145812394" width="7.356521739130435" height="71.66357854187606" fill="#4F3A7A" data-tooltip="1.35x baseline speed (YJIT)"/>
<line x1="155.8521739130435" y1="425.2399583245508" x2="163.2086956521739" y2="425.2399583245508" stroke="#000"/>
<line x1="155.8521739130435" y1="427.4328845916971" x2="163.2086956521739" y2="427.4328845916971" stroke="#000"/>
<line x1="159.5304347826087" y1="425.2399583245508" x2="159.5304347826087" y2="427.4328845916971" stroke="#000"/>
<line x1="152.17391304347828" y1="498.0" x2="152.17391304347828" y2="502.79999999999995" stroke="#000"/>
<text x="152.17391304347828" y="512.4" fill="#111" font-size="small" font-family="monospace" font-weight="bold" text-anchor="end" transform="rotate(-60, 152.17391304347828, 512.4)">
hexapdf
</text>
<rect x="170.56521739130437" y="444.955829451498" width="7.356521739130435" height="53.044170548501995" fill="#7070f8" data-tooltip="1.00x baseline speed (No JIT)"/>
<line x1="170.56521739130437" y1="444.3305357878104" x2="177.9217391304348" y2="444.3305357878104" stroke="#000"/>
<line x1="170.56521739130437" y1="445.5811231151856" x2="177.9217391304348" y2="445.5811231151856" stroke="#000"/>
<line x1="174.24347826086958" y1="444.3305357878104" x2="174.24347826086958" y2="445.5811231151856" stroke="#000"/>
<rect x="177.9217391304348" y="444.8066978840612" width="7.356521739130435" height="53.19330211593886" fill="orange" data-tooltip="1.00x baseline speed (MJIT3.0)"/>
<line x1="177.9217391304348" y1="443.4035262991152" x2="185.27826086956523" y2="443.4035262991152" stroke="#000"/>
<line x1="177.9217391304348" y1="446.2098694690071" x2="185.27826086956523" y2="446.2098694690071" stroke="#000"/>
<line x1="181.60000000000002" y1="443.4035262991152" x2="181.60000000000002" y2="446.2098694690071" stroke="#000"/>
<rect x="185.27826086956523" y="442.34236302595855" width="7.356521739130435" height="55.65763697404144" fill="green" data-tooltip="1.05x baseline speed (MJIT)"/>
<line x1="185.27826086956523" y1="441.27692428667325" x2="192.63478260869564" y2="441.27692428667325" stroke="#000"/>
<line x1="185.27826086956523" y1="443.40780176524385" x2="192.63478260869564" y2="443.40780176524385" stroke="#000"/>
<line x1="188.95652173913044" y1="441.27692428667325" x2="188.95652173913044" y2="443.40780176524385" stroke="#000"/>
<rect x="192.63478260869567" y="417.82720846168047" width="7.356521739130435" height="80.17279153831957" fill="#4F3A7A" data-tooltip="1.51x baseline speed (YJIT)"/>
<line x1="192.63478260869567" y1="416.0255641592714" x2="199.99130434782612" y2="416.0255641592714" stroke="#000"/>
<line x1="192.63478260869567" y1="419.62885276408946" x2="199.99130434782612" y2="419.62885276408946" stroke="#000"/>
<line x1="196.3130434782609" y1="416.0255641592714" x2="196.3130434782609" y2="419.62885276408946" stroke="#000"/>
<line x1="188.95652173913047" y1="498.0" x2="188.95652173913047" y2="502.79999999999995" stroke="#000"/>
<text x="188.95652173913047" y="512.4" fill="#111" font-size="small" font-family="monospace" font-weight="bold" text-anchor="end" transform="rotate(-60, 188.95652173913047, 512.4)">
liquid-render
</text>
<rect x="207.34782608695653" y="444.955829451498" width="7.356521739130435" height="53.044170548501995" fill="#7070f8" data-tooltip="1.00x baseline speed (No JIT)"/>
<line x1="207.34782608695653" y1="444.88494025498284" x2="214.70434782608697" y2="444.88494025498284" stroke="#000"/>
<line x1="207.34782608695653" y1="445.0267186480132" x2="214.70434782608697" y2="445.0267186480132" stroke="#000"/>
<line x1="211.02608695652177" y1="444.88494025498284" x2="211.02608695652177" y2="445.0267186480132" stroke="#000"/>
<rect x="214.70434782608697" y="441.9624711094917" width="7.356521739130435" height="56.037528890508334" fill="orange" data-tooltip="1.06x baseline speed (MJIT3.0)"/>
<line x1="214.70434782608697" y1="441.6271622202259" x2="222.0608695652174" y2="441.6271622202259" stroke="#000"/>
<line x1="214.70434782608697" y1="442.2977799987574" x2="222.0608695652174" y2="442.2977799987574" stroke="#000"/>
<line x1="218.38260869565218" y1="441.6271622202259" x2="218.38260869565218" y2="442.2977799987574" stroke="#000"/>
<rect x="222.06086956521742" y="444.6904723663789" width="7.356521739130435" height="53.309527633620995" fill="green" data-tooltip="1.01x baseline speed (MJIT)"/>
<line x1="222.06086956521742" y1="443.856690897334" x2="229.41739130434786" y2="443.856690897334" stroke="#000"/>
<line x1="222.06086956521742" y1="445.52425383542385" x2="229.41739130434786" y2="445.52425383542385" stroke="#000"/>
<line x1="225.73913043478262" y1="443.856690897334" x2="225.73913043478262" y2="445.52425383542385" stroke="#000"/>
<rect x="229.41739130434786" y="438.06219128738246" width="7.356521739130435" height="59.93780871261755" fill="#4F3A7A" data-tooltip="1.13x baseline speed (YJIT)"/>
<line x1="229.41739130434786" y1="437.8161084718596" x2="236.77391304347827" y2="437.8161084718596" stroke="#000"/>
<line x1="229.41739130434786" y1="438.30827410290533" x2="236.77391304347827" y2="438.30827410290533" stroke="#000"/>
<line x1="233.09565217391307" y1="437.8161084718596" x2="233.09565217391307" y2="438.30827410290533" stroke="#000"/>
<line x1="225.73913043478262" y1="498.0" x2="225.73913043478262" y2="502.79999999999995" stroke="#000"/>
<text x="225.73913043478262" y="512.4" fill="#111" font-size="small" font-family="monospace" font-weight="bold" text-anchor="end" transform="rotate(-60, 225.73913043478262, 512.4)">
mail
</text>
<rect x="244.13043478260872" y="444.955829451498" width="7.356521739130435" height="53.044170548501995" fill="#7070f8" data-tooltip="1.00x baseline speed (No JIT)"/>
<line x1="244.13043478260872" y1="444.91596561991787" x2="251.48695652173913" y2="444.91596561991787" stroke="#000"/>
<line x1="244.13043478260872" y1="444.99569328307814" x2="251.48695652173913" y2="444.99569328307814" stroke="#000"/>
<line x1="247.80869565217392" y1="444.91596561991787" x2="247.80869565217392" y2="444.99569328307814" stroke="#000"/>
<rect x="251.48695652173913" y="443.05192804116035" width="7.356521739130435" height="54.948071958839584" fill="orange" data-tooltip="1.04x baseline speed (MJIT3.0)"/>
<line x1="251.48695652173913" y1="442.9907517883791" x2="258.8434782608696" y2="442.9907517883791" stroke="#000"/>
<line x1="251.48695652173913" y1="443.1131042939416" x2="258.8434782608696" y2="443.1131042939416" stroke="#000"/>
<line x1="255.16521739130437" y1="442.9907517883791" x2="255.16521739130437" y2="443.1131042939416" stroke="#000"/>
<rect x="258.8434782608696" y="438.9387577085006" width="7.356521739130435" height="59.06124229149927" fill="green" data-tooltip="1.11x baseline speed (MJIT)"/>
<line x1="258.8434782608696" y1="438.875999895429" x2="266.2" y2="438.875999895429" stroke="#000"/>
<line x1="258.8434782608696" y1="439.00151552157223" x2="266.2" y2="439.00151552157223" stroke="#000"/>
<line x1="262.5217391304348" y1="438.875999895429" x2="262.5217391304348" y2="439.00151552157223" stroke="#000"/>
<rect x="266.2" y="431.9448249770278" width="7.356521739130435" height="66.05517502297215" fill="#4F3A7A" data-tooltip="1.25x baseline speed (YJIT)"/>
<line x1="266.2" y1="431.8740219763535" x2="273.5565217391304" y2="431.8740219763535" stroke="#000"/>
<line x1="266.2" y1="432.0156279777021" x2="273.5565217391304" y2="432.0156279777021" stroke="#000"/>
<line x1="269.8782608695652" y1="431.8740219763535" x2="269.8782608695652" y2="432.0156279777021" stroke="#000"/>
<line x1="262.5217391304348" y1="498.0" x2="262.5217391304348" y2="502.79999999999995" stroke="#000"/>
<text x="262.5217391304348" y="512.4" fill="#111" font-size="small" font-family="monospace" font-weight="bold" text-anchor="end" transform="rotate(-60, 262.5217391304348, 512.4)">
psych-load
</text>
<rect x="280.9130434782609" y="444.955829451498" width="7.356521739130435" height="53.044170548501995" fill="#7070f8" data-tooltip="1.00x baseline speed (No JIT)"/>
<line x1="280.9130434782609" y1="444.48774155880113" x2="288.2695652173913" y2="444.48774155880113" stroke="#000"/>
<line x1="280.9130434782609" y1="445.4239173441949" x2="288.2695652173913" y2="445.4239173441949" stroke="#000"/>
<line x1="284.5913043478261" y1="444.48774155880113" x2="284.5913043478261" y2="445.4239173441949" stroke="#000"/>
<rect x="288.2695652173913" y="451.0463700947293" width="7.356521739130435" height="46.953629905270574" fill="orange" data-tooltip="0.89x baseline speed (MJIT3.0)"/>
<line x1="288.2695652173913" y1="450.3570449506515" x2="295.6260869565217" y2="450.3570449506515" stroke="#000"/>
<line x1="288.2695652173913" y1="451.7356952388071" x2="295.6260869565217" y2="451.7356952388071" stroke="#000"/>
<line x1="291.9478260869565" y1="450.3570449506515" x2="291.9478260869565" y2="451.7356952388071" stroke="#000"/>
<rect x="295.6260869565217" y="450.69148268757976" width="7.356521739130435" height="47.3085173124202" fill="green" data-tooltip="0.89x baseline speed (MJIT)"/>
<line x1="295.6260869565217" y1="450.0700924698554" x2="302.9826086956521" y2="450.0700924698554" stroke="#000"/>
<line x1="295.6260869565217" y1="451.3128729053041" x2="302.9826086956521" y2="451.3128729053041" stroke="#000"/>
<line x1="299.30434782608694" y1="450.0700924698554" x2="299.30434782608694" y2="451.3128729053041" stroke="#000"/>
<rect x="302.9826086956521" y="429.57057636840534" width="7.356521739130435" height="68.42942363159459" fill="#4F3A7A" data-tooltip="1.29x baseline speed (YJIT)"/>
<line x1="302.9826086956521" y1="428.40245096045726" x2="310.3391304347826" y2="428.40245096045726" stroke="#000"/>
<line x1="302.9826086956521" y1="430.7387017763534" x2="310.3391304347826" y2="430.7387017763534" stroke="#000"/>
<line x1="306.66086956521735" y1="428.40245096045726" x2="306.66086956521735" y2="430.7387017763534" stroke="#000"/>
<line x1="299.30434782608694" y1="498.0" x2="299.30434782608694" y2="502.79999999999995" stroke="#000"/>
<text x="299.30434782608694" y="512.4" fill="#111" font-size="small" font-family="monospace" font-weight="bold" text-anchor="end" transform="rotate(-60, 299.30434782608694, 512.4)">
railsbench
</text>
<rect x="317.69565217391306" y="444.955829451498" width="7.356521739130435" height="53.044170548501995" fill="#7070f8" data-tooltip="1.00x baseline speed (No JIT)"/>
<line x1="317.69565217391306" y1="444.89683005099903" x2="325.0521739130435" y2="444.89683005099903" stroke="#000"/>
<line x1="317.69565217391306" y1="445.01482885199704" x2="325.0521739130435" y2="445.01482885199704" stroke="#000"/>
<line x1="321.3739130434783" y1="444.89683005099903" x2="321.3739130434783" y2="445.01482885199704" stroke="#000"/>
<rect x="325.0521739130435" y="405.6501953023397" width="7.356521739130435" height="92.34980469766036" fill="orange" data-tooltip="1.74x baseline speed (MJIT3.0)"/>
<line x1="325.0521739130435" y1="405.4233756689089" x2="332.4086956521739" y2="405.4233756689089" stroke="#000"/>
<line x1="325.0521739130435" y1="405.8770149357705" x2="332.4086956521739" y2="405.8770149357705" stroke="#000"/>
<line x1="328.7304347826087" y1="405.4233756689089" x2="328.7304347826087" y2="405.8770149357705" stroke="#000"/>
<rect x="332.4086956521739" y="415.7428667609721" width="7.356521739130435" height="82.25713323902781" fill="green" data-tooltip="1.55x baseline speed (MJIT)"/>
<line x1="332.4086956521739" y1="415.45936668521887" x2="339.7652173913043" y2="415.45936668521887" stroke="#000"/>
<line x1="332.4086956521739" y1="416.0263668367254" x2="339.7652173913043" y2="416.0263668367254" stroke="#000"/>
<line x1="336.0869565217391" y1="415.45936668521887" x2="336.0869565217391" y2="416.0263668367254" stroke="#000"/>
<rect x="339.7652173913043" y="428.62035820119877" width="7.356521739130435" height="69.37964179880122" fill="#4F3A7A" data-tooltip="1.31x baseline speed (YJIT)"/>
<line x1="339.7652173913043" y1="428.46599873870355" x2="347.1217391304348" y2="428.46599873870355" stroke="#000"/>
<line x1="339.7652173913043" y1="428.77471766369405" x2="347.1217391304348" y2="428.77471766369405" stroke="#000"/>
<line x1="343.4434782608696" y1="428.46599873870355" x2="343.4434782608696" y2="428.77471766369405" stroke="#000"/>
<line x1="336.0869565217391" y1="498.0" x2="336.0869565217391" y2="502.79999999999995" stroke="#000"/>
<text x="336.0869565217391" y="512.4" fill="#111" font-size="small" font-family="monospace" font-weight="bold" text-anchor="end" transform="rotate(-60, 336.0869565217391, 512.4)">
binarytrees
</text>
<rect x="354.47826086956525" y="444.955829451498" width="7.356521739130435" height="53.044170548501995" fill="#7070f8" data-tooltip="1.00x baseline speed (No JIT)"/>
<line x1="354.47826086956525" y1="437.2238114948123" x2="361.83478260869566" y2="437.2238114948123" stroke="#000"/>
<line x1="354.47826086956525" y1="452.6878474081837" x2="361.83478260869566" y2="452.6878474081837" stroke="#000"/>
<line x1="358.1565217391305" y1="437.2238114948123" x2="358.1565217391305" y2="452.6878474081837" stroke="#000"/>
<rect x="361.83478260869566" y="444.41040054808474" width="7.356521739130435" height="53.589599451915184" fill="orange" data-tooltip="1.01x baseline speed (MJIT3.0)"/>
<line x1="361.83478260869566" y1="436.5611120606491" x2="369.1913043478261" y2="436.5611120606491" stroke="#000"/>
<line x1="361.83478260869566" y1="452.2596890355203" x2="369.1913043478261" y2="452.2596890355203" stroke="#000"/>
<line x1="365.5130434782609" y1="436.5611120606491" x2="365.5130434782609" y2="452.2596890355203" stroke="#000"/>
<rect x="369.1913043478261" y="443.66906828103293" width="7.356521739130435" height="54.330931718966994" fill="green" data-tooltip="1.02x baseline speed (MJIT)"/>
<line x1="369.1913043478261" y1="435.7040439420821" x2="376.54782608695655" y2="435.7040439420821" stroke="#000"/>
<line x1="369.1913043478261" y1="451.63409261998373" x2="376.54782608695655" y2="451.63409261998373" stroke="#000"/>
<line x1="372.86956521739137" y1="435.7040439420821" x2="372.86956521739137" y2="451.63409261998373" stroke="#000"/>
<rect x="376.54782608695655" y="445.92941485627" width="7.356521739130435" height="52.07058514372995" fill="#4F3A7A" data-tooltip="0.98x baseline speed (YJIT)"/>
<line x1="376.54782608695655" y1="435.35693623619323" x2="383.90434782608696" y2="435.35693623619323" stroke="#000"/>
<line x1="376.54782608695655" y1="456.5018934763467" x2="383.90434782608696" y2="456.5018934763467" stroke="#000"/>
<line x1="380.2260869565218" y1="435.35693623619323" x2="380.2260869565218" y2="456.5018934763467" stroke="#000"/>
<line x1="372.86956521739137" y1="498.0" x2="372.86956521739137" y2="502.79999999999995" stroke="#000"/>
<text x="372.86956521739137" y="512.4" fill="#111" font-size="small" font-family="monospace" font-weight="bold" text-anchor="end" transform="rotate(-60, 372.86956521739137, 512.4)">
discourse
</text>
<rect x="391.26086956521743" y="444.955829451498" width="7.356521739130435" height="53.044170548501995" fill="#7070f8" data-tooltip="1.00x baseline speed (No JIT)"/>
<line x1="391.26086956521743" y1="444.6504203660621" x2="398.61739130434785" y2="444.6504203660621" stroke="#000"/>
<line x1="391.26086956521743" y1="445.2612385369339" x2="398.61739130434785" y2="445.2612385369339" stroke="#000"/>
<line x1="394.93913043478267" y1="444.6504203660621" x2="394.93913043478267" y2="445.2612385369339" stroke="#000"/>
<rect x="398.61739130434785" y="443.8103461000399" width="7.356521739130435" height="54.18965389996006" fill="orange" data-tooltip="1.02x baseline speed (MJIT3.0)"/>
<line x1="398.61739130434785" y1="443.28187199459296" x2="405.9739130434783" y2="443.28187199459296" stroke="#000"/>
<line x1="398.61739130434785" y1="444.33882020548685" x2="405.9739130434783" y2="444.33882020548685" stroke="#000"/>
<line x1="402.2956521739131" y1="443.28187199459296" x2="402.2956521739131" y2="444.33882020548685" stroke="#000"/>
<rect x="405.9739130434783" y="441.0129774925926" width="7.356521739130435" height="56.98702250740727" fill="green" data-tooltip="1.07x baseline speed (MJIT)"/>
<line x1="405.9739130434783" y1="440.4947839959312" x2="413.33043478260873" y2="440.4947839959312" stroke="#000"/>
<line x1="405.9739130434783" y1="441.531170989254" x2="413.33043478260873" y2="441.531170989254" stroke="#000"/>
<line x1="409.65217391304355" y1="440.4947839959312" x2="409.65217391304355" y2="441.531170989254" stroke="#000"/>
<rect x="413.33043478260873" y="438.11065586569674" width="7.356521739130435" height="59.88934413430324" fill="#4F3A7A" data-tooltip="1.13x baseline speed (YJIT)"/>
<line x1="413.33043478260873" y1="437.47392914741914" x2="420.68695652173915" y2="437.47392914741914" stroke="#000"/>
<line x1="413.33043478260873" y1="438.74738258397434" x2="420.68695652173915" y2="438.74738258397434" stroke="#000"/>
<line x1="417.00869565217397" y1="437.47392914741914" x2="417.00869565217397" y2="438.74738258397434" stroke="#000"/>
<line x1="409.65217391304355" y1="498.0" x2="409.65217391304355" y2="502.79999999999995" stroke="#000"/>
<text x="409.65217391304355" y="512.4" fill="#111" font-size="small" font-family="monospace" font-weight="bold" text-anchor="end" transform="rotate(-60, 409.65217391304355, 512.4)">
erubi
</text>
<rect x="428.0434782608696" y="444.955829451498" width="7.356521739130435" height="53.044170548501995" fill="#7070f8" data-tooltip="1.00x baseline speed (No JIT)"/>
<line x1="428.0434782608696" y1="443.63654321552974" x2="435.4000000000001" y2="443.63654321552974" stroke="#000"/>
<line x1="428.0434782608696" y1="446.27511568746627" x2="435.4000000000001" y2="446.27511568746627" stroke="#000"/>
<line x1="431.72173913043486" y1="443.63654321552974" x2="431.72173913043486" y2="446.27511568746627" stroke="#000"/>
<rect x="435.4000000000001" y="449.4689332335744" width="7.356521739130435" height="48.53106676642554" fill="orange" data-tooltip="0.91x baseline speed (MJIT3.0)"/>
<line x1="435.4000000000001" y1="447.553589081193" x2="442.7565217391305" y2="447.553589081193" stroke="#000"/>
<line x1="435.4000000000001" y1="451.3842773859557" x2="442.7565217391305" y2="451.3842773859557" stroke="#000"/>
<line x1="439.0782608695653" y1="447.553589081193" x2="439.0782608695653" y2="451.3842773859557" stroke="#000"/>
<rect x="442.7565217391305" y="448.42950908641166" width="7.356521739130435" height="49.57049091358831" fill="green" data-tooltip="0.93x baseline speed (MJIT)"/>
<line x1="442.7565217391305" y1="445.83019449855743" x2="450.1130434782609" y2="445.83019449855743" stroke="#000"/>
<line x1="442.7565217391305" y1="451.0288236742659" x2="450.1130434782609" y2="451.0288236742659" stroke="#000"/>
<line x1="446.43478260869574" y1="445.83019449855743" x2="446.43478260869574" y2="451.0288236742659" stroke="#000"/>
<rect x="450.1130434782609" y="425.95862985858713" width="7.356521739130435" height="72.0413701414128" fill="#4F3A7A" data-tooltip="1.36x baseline speed (YJIT)"/>
<line x1="450.1130434782609" y1="422.8765663606896" x2="457.46956521739133" y2="422.8765663606896" stroke="#000"/>
<line x1="450.1130434782609" y1="429.04069335648467" x2="457.46956521739133" y2="429.04069335648467" stroke="#000"/>
<line x1="453.79130434782616" y1="422.8765663606896" x2="453.79130434782616" y2="429.04069335648467" stroke="#000"/>
<line x1="446.43478260869574" y1="498.0" x2="446.43478260869574" y2="502.79999999999995" stroke="#000"/>
<text x="446.43478260869574" y="512.4" fill="#111" font-size="small" font-family="monospace" font-weight="bold" text-anchor="end" transform="rotate(-60, 446.43478260869574, 512.4)">
erubi_rails
</text>
<rect x="464.82608695652175" y="444.955829451498" width="7.356521739130435" height="53.044170548501995" fill="#7070f8" data-tooltip="1.00x baseline speed (No JIT)"/>
<line x1="464.82608695652175" y1="444.9326531014735" x2="472.18260869565216" y2="444.9326531014735" stroke="#000"/>
<line x1="464.82608695652175" y1="444.97900580152253" x2="472.18260869565216" y2="444.97900580152253" stroke="#000"/>
<line x1="468.504347826087" y1="444.9326531014735" x2="468.504347826087" y2="444.97900580152253" stroke="#000"/>
<rect x="472.18260869565216" y="339.5842778139653" width="7.356521739130435" height="158.41572218603466" fill="orange" data-tooltip="2.99x baseline speed (MJIT3.0)"/>
<line x1="472.18260869565216" y1="339.4884652875605" x2="479.5391304347826" y2="339.4884652875605" stroke="#000"/>
<line x1="472.18260869565216" y1="339.68009034037016" x2="479.5391304347826" y2="339.68009034037016" stroke="#000"/>
<line x1="475.8608695652174" y1="339.4884652875605" x2="475.8608695652174" y2="339.68009034037016" stroke="#000"/>
<rect x="479.5391304347826" y="403.2804955430448" width="7.356521739130435" height="94.71950445695512" fill="green" data-tooltip="1.79x baseline speed (MJIT)"/>
<line x1="479.5391304347826" y1="402.93731650948047" x2="486.895652173913" y2="402.93731650948047" stroke="#000"/>
<line x1="479.5391304347826" y1="403.6236745766092" x2="486.895652173913" y2="403.6236745766092" stroke="#000"/>
<line x1="483.2173913043478" y1="402.93731650948047" x2="483.2173913043478" y2="403.6236745766092" stroke="#000"/>
<rect x="486.895652173913" y="446.40447910789993" width="7.356521739130435" height="51.595520892100055" fill="#4F3A7A" data-tooltip="0.97x baseline speed (YJIT)"/>
<line x1="486.895652173913" y1="446.30371099621044" x2="494.2521739130434" y2="446.30371099621044" stroke="#000"/>
<line x1="486.895652173913" y1="446.50524721958936" x2="494.2521739130434" y2="446.50524721958936" stroke="#000"/>
<line x1="490.5739130434782" y1="446.30371099621044" x2="490.5739130434782" y2="446.50524721958936" stroke="#000"/>
<line x1="483.2173913043478" y1="498.0" x2="483.2173913043478" y2="502.79999999999995" stroke="#000"/>
<text x="483.2173913043478" y="512.4" fill="#111" font-size="small" font-family="monospace" font-weight="bold" text-anchor="end" transform="rotate(-60, 483.2173913043478, 512.4)">
fannkuchredux
</text>
<rect x="501.60869565217394" y="444.955829451498" width="7.356521739130435" height="53.044170548501995" fill="#7070f8" data-tooltip="1.00x baseline speed (No JIT)"/>
<line x1="501.60869565217394" y1="444.48964502898207" x2="508.9652173913044" y2="444.48964502898207" stroke="#000"/>
<line x1="501.60869565217394" y1="445.42201387401394" x2="508.9652173913044" y2="445.42201387401394" stroke="#000"/>
<line x1="505.28695652173917" y1="444.48964502898207" x2="505.28695652173917" y2="445.42201387401394" stroke="#000"/>
<rect x="508.9652173913044" y="435.3088677270436" width="7.356521739130435" height="62.69113227295628" fill="orange" data-tooltip="1.18x baseline speed (MJIT3.0)"/>
<line x1="508.9652173913044" y1="434.426586875902" x2="516.3217391304349" y2="434.426586875902" stroke="#000"/>
<line x1="508.9652173913044" y1="436.1911485781853" x2="516.3217391304349" y2="436.1911485781853" stroke="#000"/>
<line x1="512.6434782608696" y1="434.426586875902" x2="512.6434782608696" y2="436.1911485781853" stroke="#000"/>
<rect x="516.3217391304348" y="432.13800796491773" width="7.356521739130435" height="65.86199203508221" fill="green" data-tooltip="1.24x baseline speed (MJIT)"/>
<line x1="516.3217391304348" y1="431.0906567527866" x2="523.6782608695653" y2="431.0906567527866" stroke="#000"/>
<line x1="516.3217391304348" y1="433.1853591770489" x2="523.6782608695653" y2="433.1853591770489" stroke="#000"/>
<line x1="520.0" y1="431.0906567527866" x2="520.0" y2="433.1853591770489" stroke="#000"/>
<rect x="523.6782608695653" y="424.2422297492193" width="7.356521739130435" height="73.75777025078068" fill="#4F3A7A" data-tooltip="1.39x baseline speed (YJIT)"/>
<line x1="523.6782608695653" y1="422.99279365294507" x2="531.0347826086958" y2="422.99279365294507" stroke="#000"/>
<line x1="523.6782608695653" y1="425.4916658454935" x2="531.0347826086958" y2="425.4916658454935" stroke="#000"/>
<line x1="527.3565217391305" y1="422.99279365294507" x2="527.3565217391305" y2="425.4916658454935" stroke="#000"/>
<line x1="520.0" y1="498.0" x2="520.0" y2="502.79999999999995" stroke="#000"/>
<text x="520.0" y="512.4" fill="#111" font-size="small" font-family="monospace" font-weight="bold" text-anchor="end" transform="rotate(-60, 520.0, 512.4)">
lee
</text>
<rect x="538.3913043478261" y="444.955829451498" width="7.356521739130435" height="53.044170548501995" fill="#7070f8" data-tooltip="1.00x baseline speed (No JIT)"/>
<line x1="538.3913043478261" y1="444.8661089383483" x2="545.7478260869566" y2="444.8661089383483" stroke="#000"/>
<line x1="538.3913043478261" y1="445.04554996464776" x2="545.7478260869566" y2="445.04554996464776" stroke="#000"/>
<line x1="542.0695652173914" y1="444.8661089383483" x2="542.0695652173914" y2="445.04554996464776" stroke="#000"/>
<rect x="545.7478260869566" y="404.9598565556664" width="7.356521739130435" height="93.04014344433355" fill="orange" data-tooltip="1.75x baseline speed (MJIT3.0)"/>
<line x1="545.7478260869566" y1="404.79549722493283" x2="553.1043478260871" y2="404.79549722493283" stroke="#000"/>
<line x1="545.7478260869566" y1="405.1242158864" x2="553.1043478260871" y2="405.1242158864" stroke="#000"/>
<line x1="549.4260869565219" y1="404.79549722493283" x2="549.4260869565219" y2="405.1242158864" stroke="#000"/>
<rect x="553.104347826087" y="406.3883121421306" width="7.356521739130435" height="91.61168785786928" fill="green" data-tooltip="1.73x baseline speed (MJIT)"/>
<line x1="553.104347826087" y1="406.2283140346196" x2="560.4608695652174" y2="406.2283140346196" stroke="#000"/>
<line x1="553.104347826087" y1="406.54831024964164" x2="560.4608695652174" y2="406.54831024964164" stroke="#000"/>
<line x1="556.7826086956522" y1="406.2283140346196" x2="556.7826086956522" y2="406.54831024964164" stroke="#000"/>
<rect x="560.4608695652174" y="424.5504291760108" width="7.356521739130435" height="73.44957082398913" fill="#4F3A7A" data-tooltip="1.38x baseline speed (YJIT)"/>
<line x1="560.4608695652174" y1="424.17499884408124" x2="567.8173913043479" y2="424.17499884408124" stroke="#000"/>
<line x1="560.4608695652174" y1="424.92585950794034" x2="567.8173913043479" y2="424.92585950794034" stroke="#000"/>
<line x1="564.1391304347827" y1="424.17499884408124" x2="564.1391304347827" y2="424.92585950794034" stroke="#000"/>
<line x1="556.7826086956522" y1="498.0" x2="556.7826086956522" y2="502.79999999999995" stroke="#000"/>
<text x="556.7826086956522" y="512.4" fill="#111" font-size="small" font-family="monospace" font-weight="bold" text-anchor="end" transform="rotate(-60, 556.7826086956522, 512.4)">
nbody
</text>
<rect x="575.1739130434784" y="444.955829451498" width="7.356521739130435" height="53.044170548501995" fill="#7070f8" data-tooltip="1.00x baseline speed (No JIT)"/>
<line x1="575.1739130434784" y1="444.7276106029559" x2="582.5304347826088" y2="444.7276106029559" stroke="#000"/>
<line x1="575.1739130434784" y1="445.1840483000401" x2="582.5304347826088" y2="445.1840483000401" stroke="#000"/>
<line x1="578.8521739130435" y1="444.7276106029559" x2="578.8521739130435" y2="445.1840483000401" stroke="#000"/>
<rect x="582.5304347826088" y="376.711068762724" width="7.356521739130435" height="121.28893123727596" fill="orange" data-tooltip="2.29x baseline speed (MJIT3.0)"/>
<line x1="582.5304347826088" y1="375.8257085562022" x2="589.8869565217393" y2="375.8257085562022" stroke="#000"/>
<line x1="582.5304347826088" y1="377.59642896924584" x2="589.8869565217393" y2="377.59642896924584" stroke="#000"/>
<line x1="586.208695652174" y1="375.8257085562022" x2="586.208695652174" y2="377.59642896924584" stroke="#000"/>
<rect x="589.8869565217392" y="372.3416905193124" width="7.356521739130435" height="125.65830948068754" fill="green" data-tooltip="2.37x baseline speed (MJIT)"/>
<line x1="589.8869565217392" y1="371.3935680032851" x2="597.2434782608697" y2="371.3935680032851" stroke="#000"/>
<line x1="589.8869565217392" y1="373.28981303533976" x2="597.2434782608697" y2="373.28981303533976" stroke="#000"/>
<line x1="593.5652173913044" y1="371.3935680032851" x2="593.5652173913044" y2="373.28981303533976" stroke="#000"/>
<rect x="597.2434782608697" y="409.3873463369195" width="7.356521739130435" height="88.61265366308037" fill="#4F3A7A" data-tooltip="1.67x baseline speed (YJIT)"/>
<line x1="597.2434782608697" y1="408.77486760013625" x2="604.6000000000001" y2="408.77486760013625" stroke="#000"/>
<line x1="597.2434782608697" y1="409.9998250737028" x2="604.6000000000001" y2="409.9998250737028" stroke="#000"/>
<line x1="600.9217391304348" y1="408.77486760013625" x2="600.9217391304348" y2="409.9998250737028" stroke="#000"/>
<line x1="593.5652173913044" y1="498.0" x2="593.5652173913044" y2="502.79999999999995" stroke="#000"/>
<text x="593.5652173913044" y="512.4" fill="#111" font-size="small" font-family="monospace" font-weight="bold" text-anchor="end" transform="rotate(-60, 593.5652173913044, 512.4)">
optcarrot
</text>
<rect x="611.9565217391304" y="444.955829451498" width="7.356521739130435" height="53.044170548501995" fill="#7070f8" data-tooltip="1.00x baseline speed (No JIT)"/>
<line x1="611.9565217391304" y1="444.7144782520599" x2="619.3130434782609" y2="444.7144782520599" stroke="#000"/>
<line x1="611.9565217391304" y1="445.1971806509361" x2="619.3130434782609" y2="445.1971806509361" stroke="#000"/>
<line x1="615.6347826086957" y1="444.7144782520599" x2="615.6347826086957" y2="445.1971806509361" stroke="#000"/>
<rect x="619.3130434782609" y="416.80998852033093" width="7.356521739130435" height="81.19001147966907" fill="orange" data-tooltip="1.53x baseline speed (MJIT3.0)"/>
<line x1="619.3130434782609" y1="416.2569073037703" x2="626.6695652173913" y2="416.2569073037703" stroke="#000"/>
<line x1="619.3130434782609" y1="417.36306973689153" x2="626.6695652173913" y2="417.36306973689153" stroke="#000"/>
<line x1="622.9913043478261" y1="416.2569073037703" x2="622.9913043478261" y2="417.36306973689153" stroke="#000"/>
<rect x="626.6695652173912" y="416.11850189756774" width="7.356521739130435" height="81.88149810243222" fill="green" data-tooltip="1.54x baseline speed (MJIT)"/>
<line x1="626.6695652173912" y1="415.6225485640114" x2="634.0260869565218" y2="415.6225485640114" stroke="#000"/>
<line x1="626.6695652173912" y1="416.6144552311241" x2="634.0260869565218" y2="416.6144552311241" stroke="#000"/>
<line x1="630.3478260869565" y1="415.6225485640114" x2="630.3478260869565" y2="416.6144552311241" stroke="#000"/>
<rect x="634.0260869565218" y="398.94194555574853" width="7.356521739130435" height="99.05805444425138" fill="#4F3A7A" data-tooltip="1.87x baseline speed (YJIT)"/>
<line x1="634.0260869565218" y1="398.3354816677572" x2="641.3826086956523" y2="398.3354816677572" stroke="#000"/>
<line x1="634.0260869565218" y1="399.54840944373984" x2="641.3826086956523" y2="399.54840944373984" stroke="#000"/>
<line x1="637.704347826087" y1="398.3354816677572" x2="637.704347826087" y2="399.54840944373984" stroke="#000"/>
<line x1="630.3478260869565" y1="498.0" x2="630.3478260869565" y2="502.79999999999995" stroke="#000"/>
<text x="630.3478260869565" y="512.4" fill="#111" font-size="small" font-family="monospace" font-weight="bold" text-anchor="end" transform="rotate(-60, 630.3478260869565, 512.4)">
rubykon
</text>
<rect x="648.7391304347826" y="444.955829451498" width="7.356521739130435" height="53.044170548501995" fill="#7070f8" data-tooltip="1.00x baseline speed (No JIT)"/>
<line x1="648.7391304347826" y1="444.95104710772057" x2="656.0956521739131" y2="444.95104710772057" stroke="#000"/>
<line x1="648.7391304347826" y1="444.96061179527544" x2="656.0956521739131" y2="444.96061179527544" stroke="#000"/>
<line x1="652.4173913043478" y1="444.95104710772057" x2="652.4173913043478" y2="444.96061179527544" stroke="#000"/>
<rect x="656.0956521739131" y="454.97371723761205" width="7.356521739130435" height="43.02628276238794" fill="orange" data-tooltip="0.81x baseline speed (MJIT3.0)"/>
<line x1="656.0956521739131" y1="452.5275801171455" x2="663.4521739130436" y2="452.5275801171455" stroke="#000"/>
<line x1="656.0956521739131" y1="457.41985435807857" x2="663.4521739130436" y2="457.41985435807857" stroke="#000"/>
<line x1="659.7739130434783" y1="452.5275801171455" x2="659.7739130434783" y2="457.41985435807857" stroke="#000"/>
<rect x="663.4521739130435" y="463.6080746794934" width="7.356521739130435" height="34.391925320506516" fill="green" data-tooltip="0.65x baseline speed (MJIT)"/>
<line x1="663.4521739130435" y1="462.2777293880907" x2="670.8086956521739" y2="462.2777293880907" stroke="#000"/>
<line x1="663.4521739130435" y1="464.9384199708961" x2="670.8086956521739" y2="464.9384199708961" stroke="#000"/>
<line x1="667.1304347826087" y1="462.2777293880907" x2="667.1304347826087" y2="464.9384199708961" stroke="#000"/>
<rect x="670.8086956521739" y="161.01483922650723" width="7.356521739130435" height="336.98516077349274" fill="#4F3A7A" data-tooltip="6.35x baseline speed (YJIT)"/>
<line x1="670.8086956521739" y1="160.44743513602603" x2="678.1652173913044" y2="160.44743513602603" stroke="#000"/>
<line x1="670.8086956521739" y1="161.58224331698844" x2="678.1652173913044" y2="161.58224331698844" stroke="#000"/>
<line x1="674.4869565217392" y1="160.44743513602603" x2="674.4869565217392" y2="161.58224331698844" stroke="#000"/>
<line x1="667.1304347826087" y1="498.0" x2="667.1304347826087" y2="502.79999999999995" stroke="#000"/>
<text x="667.1304347826087" y="512.4" fill="#111" font-size="small" font-family="monospace" font-weight="bold" text-anchor="end" transform="rotate(-60, 667.1304347826087, 512.4)">
30k_ifelse
</text>
<rect x="685.5217391304348" y="444.955829451498" width="7.356521739130435" height="53.044170548501995" fill="#7070f8" data-tooltip="1.00x baseline speed (No JIT)"/>
<line x1="685.5217391304348" y1="444.94393204490694" x2="692.8782608695652" y2="444.94393204490694" stroke="#000"/>
<line x1="685.5217391304348" y1="444.96772685808907" x2="692.8782608695652" y2="444.96772685808907" stroke="#000"/>
<line x1="689.2" y1="444.94393204490694" x2="689.2" y2="444.96772685808907" stroke="#000"/>
<rect x="692.8782608695652" y="463.71082625652906" width="7.356521739130435" height="34.289173743470904" fill="orange" data-tooltip="0.65x baseline speed (MJIT3.0)"/>
<line x1="692.8782608695652" y1="463.3459620089295" x2="700.2347826086958" y2="463.3459620089295" stroke="#000"/>
<line x1="692.8782608695652" y1="464.0756905041286" x2="700.2347826086958" y2="464.0756905041286" stroke="#000"/>
<line x1="696.5565217391305" y1="463.3459620089295" x2="696.5565217391305" y2="464.0756905041286" stroke="#000"/>
<rect x="700.2347826086957" y="462.60899153548974" width="7.356521739130435" height="35.39100846451018" fill="green" data-tooltip="0.67x baseline speed (MJIT)"/>
<line x1="700.2347826086957" y1="456.4981180403421" x2="707.5913043478262" y2="456.4981180403421" stroke="#000"/>
<line x1="700.2347826086957" y1="468.7198650306373" x2="707.5913043478262" y2="468.7198650306373" stroke="#000"/>
<line x1="703.9130434782609" y1="456.4981180403421" x2="703.9130434782609" y2="468.7198650306373" stroke="#000"/>
<rect x="707.5913043478262" y="100.19999999999999" width="7.356521739130435" height="397.79999999999995" fill="#4F3A7A" data-tooltip="7.50x baseline speed (YJIT)"/>
<line x1="707.5913043478262" y1="99.94665273730382" x2="714.9478260869566" y2="99.94665273730382" stroke="#000"/>
<line x1="707.5913043478262" y1="100.45334726269617" x2="714.9478260869566" y2="100.45334726269617" stroke="#000"/>
<line x1="711.2695652173913" y1="99.94665273730382" x2="711.2695652173913" y2="100.45334726269617" stroke="#000"/>
<line x1="703.9130434782609" y1="498.0" x2="703.9130434782609" y2="502.79999999999995" stroke="#000"/>
<text x="703.9130434782609" y="512.4" fill="#111" font-size="small" font-family="monospace" font-weight="bold" text-anchor="end" transform="rotate(-60, 703.9130434782609, 512.4)">
30k_methods
</text>
<rect x="722.304347826087" y="444.955829451498" width="7.356521739130435" height="53.044170548501995" fill="#7070f8" data-tooltip="1.00x baseline speed (No JIT)"/>
<line x1="722.304347826087" y1="444.82180779768584" x2="729.6608695652175" y2="444.82180779768584" stroke="#000"/>
<line x1="722.304347826087" y1="445.0898511053102" x2="729.6608695652175" y2="445.0898511053102" stroke="#000"/>
<line x1="725.9826086956523" y1="444.82180779768584" x2="725.9826086956523" y2="445.0898511053102" stroke="#000"/>
<rect x="729.6608695652175" y="417.73454984569264" width="7.356521739130435" height="80.26545015430736" fill="orange" data-tooltip="1.51x baseline speed (MJIT3.0)"/>
<line x1="729.6608695652175" y1="416.34470998936996" x2="737.0173913043479" y2="416.34470998936996" stroke="#000"/>
<line x1="729.6608695652175" y1="419.12438970201526" x2="737.0173913043479" y2="419.12438970201526" stroke="#000"/>
<line x1="733.3391304347828" y1="416.34470998936996" x2="733.3391304347828" y2="419.12438970201526" stroke="#000"/>
<rect x="737.0173913043478" y="414.4481195987405" width="7.356521739130435" height="83.5518804012595" fill="green" data-tooltip="1.58x baseline speed (MJIT)"/>
<line x1="737.0173913043478" y1="414.18794704237484" x2="744.3739130434783" y2="414.18794704237484" stroke="#000"/>
<line x1="737.0173913043478" y1="414.7082921551061" x2="744.3739130434783" y2="414.7082921551061" stroke="#000"/>
<line x1="740.6956521739131" y1="414.18794704237484" x2="740.6956521739131" y2="414.7082921551061" stroke="#000"/>
<rect x="744.3739130434783" y="372.99475560645186" width="7.356521739130435" height="125.00524439354811" fill="#4F3A7A" data-tooltip="2.36x baseline speed (YJIT)"/>
<line x1="744.3739130434783" y1="371.8216724686514" x2="751.7304347826088" y2="371.8216724686514" stroke="#000"/>
<line x1="744.3739130434783" y1="374.1678387442523" x2="751.7304347826088" y2="374.1678387442523" stroke="#000"/>
<line x1="748.0521739130436" y1="371.8216724686514" x2="748.0521739130436" y2="374.1678387442523" stroke="#000"/>
<line x1="740.6956521739131" y1="498.0" x2="740.6956521739131" y2="502.79999999999995" stroke="#000"/>
<text x="740.6956521739131" y="512.4" fill="#111" font-size="small" font-family="monospace" font-weight="bold" text-anchor="end" transform="rotate(-60, 740.6956521739131, 512.4)">
cfunc_itself
</text>
<rect x="759.0869565217392" y="444.955829451498" width="7.356521739130435" height="53.044170548501995" fill="#7070f8" data-tooltip="1.00x baseline speed (No JIT)"/>
<line x1="759.0869565217392" y1="444.83826286281914" x2="766.4434782608697" y2="444.83826286281914" stroke="#000"/>
<line x1="759.0869565217392" y1="445.0733960401769" x2="766.4434782608697" y2="445.0733960401769" stroke="#000"/>
<line x1="762.7652173913044" y1="444.83826286281914" x2="762.7652173913044" y2="445.0733960401769" stroke="#000"/>
<rect x="766.4434782608697" y="326.75796738614144" width="7.356521739130435" height="171.2420326138585" fill="orange" data-tooltip="3.23x baseline speed (MJIT3.0)"/>
<line x1="766.4434782608697" y1="326.2371550798548" x2="773.8000000000002" y2="326.2371550798548" stroke="#000"/>
<line x1="766.4434782608697" y1="327.2787796924281" x2="773.8000000000002" y2="327.2787796924281" stroke="#000"/>
<line x1="770.1217391304349" y1="326.2371550798548" x2="770.1217391304349" y2="327.2787796924281" stroke="#000"/>
<rect x="773.8000000000001" y="327.6994994558275" width="7.356521739130435" height="170.30050054417245" fill="green" data-tooltip="3.21x baseline speed (MJIT)"/>
<line x1="773.8000000000001" y1="326.77781907819315" x2="781.1565217391305" y2="326.77781907819315" stroke="#000"/>
<line x1="773.8000000000001" y1="328.62117983346184" x2="781.1565217391305" y2="328.62117983346184" stroke="#000"/>
<line x1="777.4782608695652" y1="326.77781907819315" x2="777.4782608695652" y2="328.62117983346184" stroke="#000"/>
<rect x="781.1565217391305" y="288.9976382723439" width="7.356521739130435" height="209.002361727656" fill="#4F3A7A" data-tooltip="3.94x baseline speed (YJIT)"/>
<line x1="781.1565217391305" y1="287.69575414315676" x2="788.513043478261" y2="287.69575414315676" stroke="#000"/>
<line x1="781.1565217391305" y1="290.29952240153114" x2="788.513043478261" y2="290.29952240153114" stroke="#000"/>
<line x1="784.8347826086957" y1="287.69575414315676" x2="784.8347826086957" y2="290.29952240153114" stroke="#000"/>
<line x1="777.4782608695652" y1="498.0" x2="777.4782608695652" y2="502.79999999999995" stroke="#000"/>
<text x="777.4782608695652" y="512.4" fill="#111" font-size="small" font-family="monospace" font-weight="bold" text-anchor="end" transform="rotate(-60, 777.4782608695652, 512.4)">
fib
</text>
<rect x="795.8695652173913" y="444.955829451498" width="7.356521739130435" height="53.044170548501995" fill="#7070f8" data-tooltip="1.00x baseline speed (No JIT)"/>
<line x1="795.8695652173913" y1="444.82664002515315" x2="803.2260869565217" y2="444.82664002515315" stroke="#000"/>
<line x1="795.8695652173913" y1="445.08501887784286" x2="803.2260869565217" y2="445.08501887784286" stroke="#000"/>
<line x1="799.5478260869565" y1="444.82664002515315" x2="799.5478260869565" y2="445.08501887784286" stroke="#000"/>
<rect x="803.2260869565217" y="333.41524161381045" width="7.356521739130435" height="164.58475838618946" fill="orange" data-tooltip="3.10x baseline speed (MJIT3.0)"/>
<line x1="803.2260869565217" y1="192.58057042123752" x2="810.5826086956522" y2="192.58057042123752" stroke="#000"/>
<line x1="803.2260869565217" y1="474.24991280638335" x2="810.5826086956522" y2="474.24991280638335" stroke="#000"/>
<line x1="806.904347826087" y1="192.58057042123752" x2="806.904347826087" y2="474.24991280638335" stroke="#000"/>
<rect x="810.5826086956521" y="293.35057527993007" width="7.356521739130435" height="204.64942472006985" fill="green" data-tooltip="3.86x baseline speed (MJIT)"/>
<line x1="810.5826086956521" y1="163.52810913807713" x2="817.9391304347827" y2="163.52810913807713" stroke="#000"/>
<line x1="810.5826086956521" y1="423.17304142178307" x2="817.9391304347827" y2="423.17304142178307" stroke="#000"/>
<line x1="814.2608695652174" y1="163.52810913807713" x2="814.2608695652174" y2="423.17304142178307" stroke="#000"/>
<rect x="817.9391304347827" y="373.58142761062214" width="7.356521739130435" height="124.4185723893778" fill="#4F3A7A" data-tooltip="2.35x baseline speed (YJIT)"/>
<line x1="817.9391304347827" y1="371.66438359332244" x2="825.2956521739131" y2="371.66438359332244" stroke="#000"/>
<line x1="817.9391304347827" y1="375.49847162792184" x2="825.2956521739131" y2="375.49847162792184" stroke="#000"/>
<line x1="821.6173913043478" y1="371.66438359332244" x2="821.6173913043478" y2="375.49847162792184" stroke="#000"/>
<line x1="814.2608695652174" y1="498.0" x2="814.2608695652174" y2="502.79999999999995" stroke="#000"/>
<text x="814.2608695652174" y="512.4" fill="#111" font-size="small" font-family="monospace" font-weight="bold" text-anchor="end" transform="rotate(-60, 814.2608695652174, 512.4)">
getivar
</text>
<rect x="832.6521739130435" y="444.955829451498" width="7.356521739130435" height="53.044170548501995" fill="#7070f8" data-tooltip="1.00x baseline speed (No JIT)"/>
<line x1="832.6521739130435" y1="444.9135662388448" x2="840.008695652174" y2="444.9135662388448" stroke="#000"/>
<line x1="832.6521739130435" y1="444.9980926641512" x2="840.008695652174" y2="444.9980926641512" stroke="#000"/>
<line x1="836.3304347826087" y1="444.9135662388448" x2="836.3304347826087" y2="444.9980926641512" stroke="#000"/>
<rect x="840.008695652174" y="430.7838447645839" width="7.356521739130435" height="67.21615523541604" fill="orange" data-tooltip="1.27x baseline speed (MJIT3.0)"/>
<line x1="840.008695652174" y1="430.6451589970625" x2="847.3652173913044" y2="430.6451589970625" stroke="#000"/>
<line x1="840.008695652174" y1="430.92253053210527" x2="847.3652173913044" y2="430.92253053210527" stroke="#000"/>
<line x1="843.6869565217391" y1="430.6451589970625" x2="843.6869565217391" y2="430.92253053210527" stroke="#000"/>
<rect x="847.3652173913043" y="428.5152855167686" width="7.356521739130435" height="69.48471448323144" fill="green" data-tooltip="1.31x baseline speed (MJIT)"/>
<line x1="847.3652173913043" y1="427.43005121868026" x2="854.7217391304348" y2="427.43005121868026" stroke="#000"/>
<line x1="847.3652173913043" y1="429.60051981485685" x2="854.7217391304348" y2="429.60051981485685" stroke="#000"/>
<line x1="851.0434782608696" y1="427.43005121868026" x2="851.0434782608696" y2="429.60051981485685" stroke="#000"/>
<rect x="854.7217391304348" y="211.41113948173466" width="7.356521739130435" height="286.5888605182653" fill="#4F3A7A" data-tooltip="5.40x baseline speed (YJIT)"/>
<line x1="854.7217391304348" y1="209.55207678859367" x2="862.0782608695653" y2="209.55207678859367" stroke="#000"/>
<line x1="854.7217391304348" y1="213.27020217487566" x2="862.0782608695653" y2="213.27020217487566" stroke="#000"/>
<line x1="858.4000000000001" y1="209.55207678859367" x2="858.4000000000001" y2="213.27020217487566" stroke="#000"/>
<line x1="851.0434782608696" y1="498.0" x2="851.0434782608696" y2="502.79999999999995" stroke="#000"/>
<text x="851.0434782608696" y="512.4" fill="#111" font-size="small" font-family="monospace" font-weight="bold" text-anchor="end" transform="rotate(-60, 851.0434782608696, 512.4)">
keyword_args
</text>
<rect x="869.4347826086956" y="444.955829451498" width="7.356521739130435" height="53.044170548501995" fill="#7070f8" data-tooltip="1.00x baseline speed (No JIT)"/>
<line x1="869.4347826086956" y1="444.82710119960245" x2="876.7913043478261" y2="444.82710119960245" stroke="#000"/>
<line x1="869.4347826086956" y1="445.08455770339356" x2="876.7913043478261" y2="445.08455770339356" stroke="#000"/>
<line x1="873.1130434782609" y1="444.82710119960245" x2="873.1130434782609" y2="445.08455770339356" stroke="#000"/>
<rect x="876.7913043478261" y="432.95007561183155" width="7.356521739130435" height="65.04992438816842" fill="orange" data-tooltip="1.23x baseline speed (MJIT3.0)"/>
<line x1="876.7913043478261" y1="432.4826728999254" x2="884.1478260869567" y2="432.4826728999254" stroke="#000"/>
<line x1="876.7913043478261" y1="433.41747832373767" x2="884.1478260869567" y2="433.41747832373767" stroke="#000"/>
<line x1="880.4695652173914" y1="432.4826728999254" x2="880.4695652173914" y2="433.41747832373767" stroke="#000"/>
<rect x="884.1478260869566" y="435.81825953880013" width="7.356521739130435" height="62.181740461199794" fill="green" data-tooltip="1.17x baseline speed (MJIT)"/>
<line x1="884.1478260869566" y1="435.41145134352615" x2="891.504347826087" y2="435.41145134352615" stroke="#000"/>
<line x1="884.1478260869566" y1="436.2250677340741" x2="891.504347826087" y2="436.2250677340741" stroke="#000"/>
<line x1="887.8260869565217" y1="435.41145134352615" x2="887.8260869565217" y2="436.2250677340741" stroke="#000"/>
<rect x="891.504347826087" y="420.5341018690503" width="7.356521739130435" height="77.46589813094971" fill="#4F3A7A" data-tooltip="1.46x baseline speed (YJIT)"/>
<line x1="891.504347826087" y1="420.2067315753634" x2="898.8608695652175" y2="420.2067315753634" stroke="#000"/>
<line x1="891.504347826087" y1="420.86147216273713" x2="898.8608695652175" y2="420.86147216273713" stroke="#000"/>
<line x1="895.1826086956522" y1="420.2067315753634" x2="895.1826086956522" y2="420.86147216273713" stroke="#000"/>
<line x1="887.8260869565217" y1="498.0" x2="887.8260869565217" y2="502.79999999999995" stroke="#000"/>
<text x="887.8260869565217" y="512.4" fill="#111" font-size="small" font-family="monospace" font-weight="bold" text-anchor="end" transform="rotate(-60, 887.8260869565217, 512.4)">
respond_to
</text>
<rect x="906.2173913043479" y="444.955829451498" width="7.356521739130435" height="53.044170548501995" fill="#7070f8" data-tooltip="1.00x baseline speed (No JIT)"/>
<line x1="906.2173913043479" y1="444.90142359771477" x2="913.5739130434783" y2="444.90142359771477" stroke="#000"/>
<line x1="906.2173913043479" y1="445.0102353052813" x2="913.5739130434783" y2="445.0102353052813" stroke="#000"/>
<line x1="909.895652173913" y1="444.90142359771477" x2="909.895652173913" y2="445.0102353052813" stroke="#000"/>
<rect x="913.5739130434783" y="192.8421278430034" width="7.356521739130435" height="305.1578721569966" fill="orange" data-tooltip="5.75x baseline speed (MJIT3.0)"/>
<line x1="913.5739130434783" y1="-175.08136464231265" x2="920.9304347826088" y2="-175.08136464231265" stroke="#000"/>
<line x1="913.5739130434783" y1="560.7656203283194" x2="920.9304347826088" y2="560.7656203283194" stroke="#000"/>
<line x1="917.2521739130436" y1="-175.08136464231265" x2="917.2521739130436" y2="560.7656203283194" stroke="#000"/>
<rect x="920.9304347826087" y="146.58599922589536" width="7.356521739130435" height="351.4140007741046" fill="green" data-tooltip="6.62x baseline speed (MJIT)"/>
<line x1="920.9304347826087" y1="-211.9464138490958" x2="928.2869565217392" y2="-211.9464138490958" stroke="#000"/>
<line x1="920.9304347826087" y1="505.1184123008865" x2="928.2869565217392" y2="505.1184123008865" stroke="#000"/>
<line x1="924.608695652174" y1="-211.9464138490958" x2="924.608695652174" y2="505.1184123008865" stroke="#000"/>
<rect x="928.2869565217392" y="418.7228384242335" width="7.356521739130435" height="79.27716157576636" fill="#4F3A7A" data-tooltip="1.49x baseline speed (YJIT)"/>
<line x1="928.2869565217392" y1="418.2326817599213" x2="935.6434782608696" y2="418.2326817599213" stroke="#000"/>
<line x1="928.2869565217392" y1="419.2129950885457" x2="935.6434782608696" y2="419.2129950885457" stroke="#000"/>
<line x1="931.9652173913045" y1="418.2326817599213" x2="931.9652173913045" y2="419.2129950885457" stroke="#000"/>
<line x1="924.608695652174" y1="498.0" x2="924.608695652174" y2="502.79999999999995" stroke="#000"/>
<text x="924.608695652174" y="512.4" fill="#111" font-size="small" font-family="monospace" font-weight="bold" text-anchor="end" transform="rotate(-60, 924.608695652174, 512.4)">
setivar
</text>
</svg>