<svg viewBox="0 0 1000 600" xmlns="http://www.w3.org/2000/svg" xmlns:xlink="http://www.w3.org/1999/xlink" width="100%" height="100%">

<rect x="50.0" y="30.0" width="940.0" height="467.99999999999994" stroke="#000" fill="#EEE"/>
<line x1="42.0" y1="497.9999999999999" x2="50.0" y2="497.9999999999999" stroke="#000"/>
<text x="26.000000000000004" y="497.9999999999999" text-anchor="end" font-weight="bold" font-size="small" fill="#111">
0.0
</text>
<line x1="42.0" y1="411.7037472542696" x2="50.0" y2="411.7037472542696" stroke="#000"/>
<text x="26.000000000000004" y="411.7037472542696" text-anchor="end" font-weight="bold" font-size="small" fill="#111">
2.0
</text>
<line x1="42.0" y1="325.40749450853923" x2="50.0" y2="325.40749450853923" stroke="#000"/>
<text x="26.000000000000004" y="325.40749450853923" text-anchor="end" font-weight="bold" font-size="small" fill="#111">
4.0
</text>
<line x1="42.0" y1="239.11124176280882" x2="50.0" y2="239.11124176280882" stroke="#000"/>
<text x="26.000000000000004" y="239.11124176280882" text-anchor="end" font-weight="bold" font-size="small" fill="#111">
6.0
</text>
<line x1="42.0" y1="152.8149890170784" x2="50.0" y2="152.8149890170784" stroke="#000"/>
<text x="26.000000000000004" y="152.8149890170784" text-anchor="end" font-weight="bold" font-size="small" fill="#111">
8.0
</text>
<rect x="197.99999999999997" y="36.00000000000001" width="80.0" height="18.0" fill="#7070f8" stroke="#888"/>
<text x="238.0" y="52.50000000000001" font-size="small" text-anchor="middle" font-weight="bold" fill="#EEE">
No JIT
</text>
<rect x="479.99999999999994" y="36.00000000000001" width="80.0" height="18.0" fill="orange" stroke="#888"/>
<text x="519.9999999999999" y="52.50000000000001" font-size="small" text-anchor="middle" font-weight="bold" fill="#EEE">
MJIT
</text>
<rect x="761.9999999999999" y="36.00000000000001" width="80.0" height="18.0" fill="green" stroke="#888"/>
<text x="801.9999999999999" y="52.50000000000001" font-size="small" text-anchor="middle" font-weight="bold" fill="#EEE">
YJIT
</text>
<rect x="97.0" y="454.8518736271347" width="8.8125" height="43.148126372865185" fill="#7070f8" data-tooltip="1.00x baseline speed (No JIT)"/>
<line x1="97.0" y1="454.64790138599676" x2="105.8125" y2="454.64790138599676" stroke="#000"/>
<line x1="97.0" y1="455.0558458682726" x2="105.8125" y2="455.0558458682726" stroke="#000"/>
<line x1="101.40625" y1="454.64790138599676" x2="101.40625" y2="455.0558458682726" stroke="#000"/>
<rect x="105.8125" y="462.7061799383867" width="8.8125" height="35.29382006161329" fill="orange" data-tooltip="0.82x baseline speed (MJIT)"/>
<line x1="105.8125" y1="460.94923714466637" x2="114.625" y2="460.94923714466637" stroke="#000"/>
<line x1="105.8125" y1="464.463122732107" x2="114.625" y2="464.463122732107" stroke="#000"/>
<line x1="110.21875" y1="460.94923714466637" x2="110.21875" y2="464.463122732107" stroke="#000"/>
<rect x="114.625" y="434.7665526216763" width="8.8125" height="63.23344737832373" fill="green" data-tooltip="1.47x baseline speed (YJIT)"/>
<line x1="114.625" y1="434.2788101819804" x2="123.4375" y2="434.2788101819804" stroke="#000"/>
<line x1="114.625" y1="435.25429506137215" x2="123.4375" y2="435.25429506137215" stroke="#000"/>
<line x1="119.03125" y1="434.2788101819804" x2="119.03125" y2="435.25429506137215" stroke="#000"/>
<line x1="114.625" y1="498.0" x2="114.625" y2="502.79999999999995" stroke="#000"/>
<text x="114.625" y="512.4" fill="#111" font-size="small" font-family="monospace" font-weight="bold" text-anchor="end" transform="rotate(-60, 114.625, 512.4)">
activerecord
</text>
<rect x="132.25" y="454.8518736271347" width="8.8125" height="43.148126372865185" fill="#7070f8" data-tooltip="1.00x baseline speed (No JIT)"/>
<line x1="132.25" y1="454.5323413425489" x2="141.0625" y2="454.5323413425489" stroke="#000"/>
<line x1="132.25" y1="455.1714059117205" x2="141.0625" y2="455.1714059117205" stroke="#000"/>
<line x1="136.65625" y1="454.5323413425489" x2="136.65625" y2="455.1714059117205" stroke="#000"/>
<rect x="149.875" y="438.9633229751865" width="8.8125" height="59.036677024813436" fill="green" data-tooltip="1.37x baseline speed (YJIT)"/>
<line x1="149.875" y1="437.3870931938265" x2="158.6875" y2="437.3870931938265" stroke="#000"/>
<line x1="149.875" y1="440.5395527565465" x2="158.6875" y2="440.5395527565465" stroke="#000"/>
<line x1="154.28125" y1="437.3870931938265" x2="154.28125" y2="440.5395527565465" stroke="#000"/>
<line x1="149.875" y1="498.0" x2="149.875" y2="502.79999999999995" stroke="#000"/>
<text x="149.875" y="512.4" fill="#111" font-size="small" font-family="monospace" font-weight="bold" text-anchor="end" transform="rotate(-60, 149.875, 512.4)">
hexapdf
</text>
<rect x="167.49999999999997" y="454.8518736271347" width="8.8125" height="43.148126372865185" fill="#7070f8" data-tooltip="1.00x baseline speed (No JIT)"/>
<line x1="167.49999999999997" y1="454.42210311494074" x2="176.31249999999997" y2="454.42210311494074" stroke="#000"/>
<line x1="167.49999999999997" y1="455.2816441393287" x2="176.31249999999997" y2="455.2816441393287" stroke="#000"/>
<line x1="171.90624999999997" y1="454.42210311494074" x2="171.90624999999997" y2="455.2816441393287" stroke="#000"/>
<rect x="176.31249999999997" y="448.15098840317796" width="8.8125" height="49.849011596821924" fill="orange" data-tooltip="1.16x baseline speed (MJIT)"/>
<line x1="176.31249999999997" y1="447.3762109874742" x2="185.12499999999997" y2="447.3762109874742" stroke="#000"/>
<line x1="176.31249999999997" y1="448.9257658188817" x2="185.12499999999997" y2="448.9257658188817" stroke="#000"/>
<line x1="180.71874999999997" y1="447.3762109874742" x2="180.71874999999997" y2="448.9257658188817" stroke="#000"/>
<rect x="185.12499999999997" y="423.9183565016191" width="8.8125" height="74.08164349838088" fill="green" data-tooltip="1.72x baseline speed (YJIT)"/>
<line x1="185.12499999999997" y1="422.38681954784425" x2="193.93749999999997" y2="422.38681954784425" stroke="#000"/>
<line x1="185.12499999999997" y1="425.4498934553939" x2="193.93749999999997" y2="425.4498934553939" stroke="#000"/>
<line x1="189.53124999999997" y1="422.38681954784425" x2="189.53124999999997" y2="425.4498934553939" stroke="#000"/>
<line x1="185.12499999999997" y1="498.0" x2="185.12499999999997" y2="502.79999999999995" stroke="#000"/>
<text x="185.12499999999997" y="512.4" fill="#111" font-size="small" font-family="monospace" font-weight="bold" text-anchor="end" transform="rotate(-60, 185.12499999999997, 512.4)">
liquid-render
</text>
<rect x="202.75" y="454.8518736271347" width="8.8125" height="43.148126372865185" fill="#7070f8" data-tooltip="1.00x baseline speed (No JIT)"/>
<line x1="202.75" y1="454.7883113085264" x2="211.5625" y2="454.7883113085264" stroke="#000"/>
<line x1="202.75" y1="454.91543594574307" x2="211.5625" y2="454.91543594574307" stroke="#000"/>
<line x1="207.15625" y1="454.7883113085264" x2="207.15625" y2="454.91543594574307" stroke="#000"/>
<rect x="211.5625" y="454.61424297350356" width="8.8125" height="43.3857570264963" fill="orange" data-tooltip="1.01x baseline speed (MJIT)"/>
<line x1="211.5625" y1="453.6611635806642" x2="220.375" y2="453.6611635806642" stroke="#000"/>
<line x1="211.5625" y1="455.5673223663429" x2="220.375" y2="455.5673223663429" stroke="#000"/>
<line x1="215.96875" y1="453.6611635806642" x2="215.96875" y2="455.5673223663429" stroke="#000"/>
<rect x="220.375" y="449.3732612548214" width="8.8125" height="48.62673874517861" fill="green" data-tooltip="1.13x baseline speed (YJIT)"/>
<line x1="220.375" y1="449.237521531924" x2="229.1875" y2="449.237521531924" stroke="#000"/>
<line x1="220.375" y1="449.50900097771876" x2="229.1875" y2="449.50900097771876" stroke="#000"/>
<line x1="224.78125" y1="449.237521531924" x2="224.78125" y2="449.50900097771876" stroke="#000"/>
<line x1="220.375" y1="498.0" x2="220.375" y2="502.79999999999995" stroke="#000"/>
<text x="220.375" y="512.4" fill="#111" font-size="small" font-family="monospace" font-weight="bold" text-anchor="end" transform="rotate(-60, 220.375, 512.4)">
mail
</text>
<rect x="238.0" y="454.8518736271347" width="8.8125" height="43.148126372865185" fill="#7070f8" data-tooltip="1.00x baseline speed (No JIT)"/>
<line x1="238.0" y1="454.83901717717293" x2="246.8125" y2="454.83901717717293" stroke="#000"/>
<line x1="238.0" y1="454.86473007709645" x2="246.8125" y2="454.86473007709645" stroke="#000"/>
<line x1="242.40625" y1="454.83901717717293" x2="242.40625" y2="454.86473007709645" stroke="#000"/>
<rect x="246.8125" y="448.61311550443105" width="8.8125" height="49.38688449556888" fill="orange" data-tooltip="1.14x baseline speed (MJIT)"/>
<line x1="246.8125" y1="448.5961170787175" x2="255.625" y2="448.5961170787175" stroke="#000"/>
<line x1="246.8125" y1="448.6301139301446" x2="255.625" y2="448.6301139301446" stroke="#000"/>
<line x1="251.21875" y1="448.5961170787175" x2="251.21875" y2="448.6301139301446" stroke="#000"/>
<rect x="255.625" y="443.3576141141765" width="8.8125" height="54.64238588582349" fill="green" data-tooltip="1.27x baseline speed (YJIT)"/>
<line x1="255.625" y1="443.33941084076434" x2="264.4375" y2="443.33941084076434" stroke="#000"/>
<line x1="255.625" y1="443.37581738758865" x2="264.4375" y2="443.37581738758865" stroke="#000"/>
<line x1="260.03125" y1="443.33941084076434" x2="260.03125" y2="443.37581738758865" stroke="#000"/>
<line x1="255.625" y1="498.0" x2="255.625" y2="502.79999999999995" stroke="#000"/>
<text x="255.625" y="512.4" fill="#111" font-size="small" font-family="monospace" font-weight="bold" text-anchor="end" transform="rotate(-60, 255.625, 512.4)">
psych-load
</text>
<rect x="273.25" y="454.8518736271347" width="8.8125" height="43.148126372865185" fill="#7070f8" data-tooltip="1.00x baseline speed (No JIT)"/>
<line x1="273.25" y1="454.59310517055223" x2="282.0625" y2="454.59310517055223" stroke="#000"/>
<line x1="273.25" y1="455.11064208371715" x2="282.0625" y2="455.11064208371715" stroke="#000"/>
<line x1="277.65625" y1="454.59310517055223" x2="277.65625" y2="455.11064208371715" stroke="#000"/>
<rect x="282.0625" y="458.3833856991913" width="8.8125" height="39.61661430080866" fill="orange" data-tooltip="0.92x baseline speed (MJIT)"/>
<line x1="282.0625" y1="458.01172815396285" x2="290.875" y2="458.01172815396285" stroke="#000"/>
<line x1="282.0625" y1="458.7550432444197" x2="290.875" y2="458.7550432444197" stroke="#000"/>
<line x1="286.46875" y1="458.01172815396285" x2="286.46875" y2="458.7550432444197" stroke="#000"/>
<rect x="290.875" y="441.453074237792" width="8.8125" height="56.54692576220793" fill="green" data-tooltip="1.31x baseline speed (YJIT)"/>
<line x1="290.875" y1="440.7687586279917" x2="299.6875" y2="440.7687586279917" stroke="#000"/>
<line x1="290.875" y1="442.1373898475923" x2="299.6875" y2="442.1373898475923" stroke="#000"/>
<line x1="295.28125" y1="440.7687586279917" x2="295.28125" y2="442.1373898475923" stroke="#000"/>
<line x1="290.875" y1="498.0" x2="290.875" y2="502.79999999999995" stroke="#000"/>
<text x="290.875" y="512.4" fill="#111" font-size="small" font-family="monospace" font-weight="bold" text-anchor="end" transform="rotate(-60, 290.875, 512.4)">
railsbench
</text>
<rect x="308.5" y="454.8518736271347" width="8.8125" height="43.148126372865185" fill="#7070f8" data-tooltip="1.00x baseline speed (No JIT)"/>
<line x1="308.5" y1="454.8307603977867" x2="317.3125" y2="454.8307603977867" stroke="#000"/>
<line x1="308.5" y1="454.87298685648267" x2="317.3125" y2="454.87298685648267" stroke="#000"/>
<line x1="312.90625" y1="454.8307603977867" x2="312.90625" y2="454.87298685648267" stroke="#000"/>
<rect x="317.3125" y="432.89836880524877" width="8.8125" height="65.10163119475119" fill="orange" data-tooltip="1.51x baseline speed (MJIT)"/>
<line x1="317.3125" y1="432.32349902132006" x2="326.125" y2="432.32349902132006" stroke="#000"/>
<line x1="317.3125" y1="433.47323858917747" x2="326.125" y2="433.47323858917747" stroke="#000"/>
<line x1="321.71875" y1="432.32349902132006" x2="321.71875" y2="433.47323858917747" stroke="#000"/>
<rect x="326.125" y="412.8779967603446" width="8.8125" height="85.12200323965537" fill="green" data-tooltip="1.97x baseline speed (YJIT)"/>
<line x1="326.125" y1="412.8075170629601" x2="334.9375" y2="412.8075170629601" stroke="#000"/>
<line x1="326.125" y1="412.94847645772916" x2="334.9375" y2="412.94847645772916" stroke="#000"/>
<line x1="330.53125" y1="412.8075170629601" x2="330.53125" y2="412.94847645772916" stroke="#000"/>
<line x1="326.125" y1="498.0" x2="326.125" y2="502.79999999999995" stroke="#000"/>
<text x="326.125" y="512.4" fill="#111" font-size="small" font-family="monospace" font-weight="bold" text-anchor="end" transform="rotate(-60, 326.125, 512.4)">
binarytrees
</text>
<rect x="343.75" y="454.8518736271347" width="8.8125" height="43.148126372865185" fill="#7070f8" data-tooltip="1.00x baseline speed (No JIT)"/>
<line x1="343.75" y1="454.79625263740144" x2="352.5625" y2="454.79625263740144" stroke="#000"/>
<line x1="343.75" y1="454.90749461686795" x2="352.5625" y2="454.90749461686795" stroke="#000"/>
<line x1="348.15625" y1="454.79625263740144" x2="348.15625" y2="454.90749461686795" stroke="#000"/>
<rect x="352.5625" y="445.34165402662416" width="8.8125" height="52.658345973375795" fill="orange" data-tooltip="1.22x baseline speed (MJIT)"/>
<line x1="352.5625" y1="445.2709782151004" x2="361.375" y2="445.2709782151004" stroke="#000"/>
<line x1="352.5625" y1="445.41232983814797" x2="361.375" y2="445.41232983814797" stroke="#000"/>
<line x1="356.96875" y1="445.2709782151004" x2="356.96875" y2="445.41232983814797" stroke="#000"/>
<rect x="361.375" y="434.6814273015985" width="8.8125" height="63.31857269840142" fill="green" data-tooltip="1.47x baseline speed (YJIT)"/>
<line x1="361.375" y1="434.54407806816374" x2="370.1875" y2="434.54407806816374" stroke="#000"/>
<line x1="361.375" y1="434.8187765350332" x2="370.1875" y2="434.8187765350332" stroke="#000"/>
<line x1="365.78125" y1="434.54407806816374" x2="365.78125" y2="434.8187765350332" stroke="#000"/>
<line x1="361.375" y1="498.0" x2="361.375" y2="502.79999999999995" stroke="#000"/>
<text x="361.375" y="512.4" fill="#111" font-size="small" font-family="monospace" font-weight="bold" text-anchor="end" transform="rotate(-60, 361.375, 512.4)">
chunky_png
</text>
<rect x="379.0" y="454.8518736271347" width="8.8125" height="43.148126372865185" fill="#7070f8" data-tooltip="1.00x baseline speed (No JIT)"/>
<line x1="379.0" y1="454.5633981415735" x2="387.8125" y2="454.5633981415735" stroke="#000"/>
<line x1="379.0" y1="455.1403491126959" x2="387.8125" y2="455.1403491126959" stroke="#000"/>
<line x1="383.40625" y1="454.5633981415735" x2="383.40625" y2="455.1403491126959" stroke="#000"/>
<rect x="387.8125" y="451.7680382431493" width="8.8125" height="46.231961756850694" fill="orange" data-tooltip="1.07x baseline speed (MJIT)"/>
<line x1="387.8125" y1="451.36993518636433" x2="396.625" y2="451.36993518636433" stroke="#000"/>
<line x1="387.8125" y1="452.1661412999343" x2="396.625" y2="452.1661412999343" stroke="#000"/>
<line x1="392.21875" y1="451.36993518636433" x2="392.21875" y2="452.1661412999343" stroke="#000"/>
<rect x="396.625" y="449.41384560645344" width="8.8125" height="48.586154393546494" fill="green" data-tooltip="1.13x baseline speed (YJIT)"/>
<line x1="396.625" y1="448.9194984301331" x2="405.4375" y2="448.9194984301331" stroke="#000"/>
<line x1="396.625" y1="449.90819278277377" x2="405.4375" y2="449.90819278277377" stroke="#000"/>
<line x1="401.03125" y1="448.9194984301331" x2="401.03125" y2="449.90819278277377" stroke="#000"/>
<line x1="396.625" y1="498.0" x2="396.625" y2="502.79999999999995" stroke="#000"/>
<text x="396.625" y="512.4" fill="#111" font-size="small" font-family="monospace" font-weight="bold" text-anchor="end" transform="rotate(-60, 396.625, 512.4)">
erubi
</text>
<rect x="414.25" y="454.8518736271347" width="8.8125" height="43.148126372865185" fill="#7070f8" data-tooltip="1.00x baseline speed (No JIT)"/>
<line x1="414.25" y1="453.7108883731855" x2="423.0625" y2="453.7108883731855" stroke="#000"/>
<line x1="414.25" y1="455.99285888108386" x2="423.0625" y2="455.99285888108386" stroke="#000"/>
<line x1="418.65625" y1="453.7108883731855" x2="418.65625" y2="455.99285888108386" stroke="#000"/>
<rect x="423.0625" y="457.51920461093175" width="8.8125" height="40.48079538906812" fill="orange" data-tooltip="0.94x baseline speed (MJIT)"/>
<line x1="423.0625" y1="453.2464865695191" x2="431.875" y2="453.2464865695191" stroke="#000"/>
<line x1="423.0625" y1="461.79192265234445" x2="431.875" y2="461.79192265234445" stroke="#000"/>
<line x1="427.46875" y1="453.2464865695191" x2="427.46875" y2="461.79192265234445" stroke="#000"/>
<rect x="431.875" y="439.1777065176891" width="8.8125" height="58.822293482310876" fill="green" data-tooltip="1.36x baseline speed (YJIT)"/>
<line x1="431.875" y1="436.5346503065672" x2="440.6875" y2="436.5346503065672" stroke="#000"/>
<line x1="431.875" y1="441.8207627288111" x2="440.6875" y2="441.8207627288111" stroke="#000"/>
<line x1="436.28125" y1="436.5346503065672" x2="436.28125" y2="441.8207627288111" stroke="#000"/>
<line x1="431.875" y1="498.0" x2="431.875" y2="502.79999999999995" stroke="#000"/>
<text x="431.875" y="512.4" fill="#111" font-size="small" font-family="monospace" font-weight="bold" text-anchor="end" transform="rotate(-60, 431.875, 512.4)">
erubi_rails
</text>
<rect x="449.5" y="454.8518736271347" width="8.8125" height="43.148126372865185" fill="#7070f8" data-tooltip="1.00x baseline speed (No JIT)"/>
<line x1="449.5" y1="454.82568039194075" x2="458.3125" y2="454.82568039194075" stroke="#000"/>
<line x1="449.5" y1="454.87806686232864" x2="458.3125" y2="454.87806686232864" stroke="#000"/>
<line x1="453.90625" y1="454.82568039194075" x2="453.90625" y2="454.87806686232864" stroke="#000"/>
<rect x="458.3125" y="404.29252353688565" width="8.8125" height="93.70747646311425" fill="orange" data-tooltip="2.17x baseline speed (MJIT)"/>
<line x1="458.3125" y1="404.22928745870894" x2="467.125" y2="404.22928745870894" stroke="#000"/>
<line x1="458.3125" y1="404.3557596150623" x2="467.125" y2="404.3557596150623" stroke="#000"/>
<line x1="462.71875" y1="404.22928745870894" x2="462.71875" y2="404.3557596150623" stroke="#000"/>
<rect x="467.125" y="400.31397282331466" width="8.8125" height="97.68602717668523" fill="green" data-tooltip="2.26x baseline speed (YJIT)"/>
<line x1="467.125" y1="400.2315894472207" x2="475.9375" y2="400.2315894472207" stroke="#000"/>
<line x1="467.125" y1="400.3963561994086" x2="475.9375" y2="400.3963561994086" stroke="#000"/>
<line x1="471.53125" y1="400.2315894472207" x2="471.53125" y2="400.3963561994086" stroke="#000"/>
<line x1="467.125" y1="498.0" x2="467.125" y2="502.79999999999995" stroke="#000"/>
<text x="467.125" y="512.4" fill="#111" font-size="small" font-family="monospace" font-weight="bold" text-anchor="end" transform="rotate(-60, 467.125, 512.4)">
fannkuchredux
</text>
<rect x="484.75" y="454.8518736271347" width="8.8125" height="43.148126372865185" fill="#7070f8" data-tooltip="1.00x baseline speed (No JIT)"/>
<line x1="484.75" y1="454.4759888979234" x2="493.5625" y2="454.4759888979234" stroke="#000"/>
<line x1="484.75" y1="455.227758356346" x2="493.5625" y2="455.227758356346" stroke="#000"/>
<line x1="489.15625" y1="454.4759888979234" x2="489.15625" y2="455.227758356346" stroke="#000"/>
<rect x="493.5625" y="446.55784582012734" width="8.8125" height="51.44215417987255" fill="orange" data-tooltip="1.19x baseline speed (MJIT)"/>
<line x1="493.5625" y1="445.65354859957586" x2="502.375" y2="445.65354859957586" stroke="#000"/>
<line x1="493.5625" y1="447.4621430406789" x2="502.375" y2="447.4621430406789" stroke="#000"/>
<line x1="497.96875" y1="445.65354859957586" x2="497.96875" y2="447.4621430406789" stroke="#000"/>
<rect x="502.375" y="441.7487987727261" width="8.8125" height="56.25120122727374" fill="green" data-tooltip="1.30x baseline speed (YJIT)"/>
<line x1="502.375" y1="441.0285803227154" x2="511.1875" y2="441.0285803227154" stroke="#000"/>
<line x1="502.375" y1="442.46901722273685" x2="511.1875" y2="442.46901722273685" stroke="#000"/>
<line x1="506.78124999999994" y1="441.0285803227154" x2="506.78124999999994" y2="442.46901722273685" stroke="#000"/>
<line x1="502.375" y1="498.0" x2="502.375" y2="502.79999999999995" stroke="#000"/>
<text x="502.375" y="512.4" fill="#111" font-size="small" font-family="monospace" font-weight="bold" text-anchor="end" transform="rotate(-60, 502.375, 512.4)">
lee
</text>
<rect x="519.9999999999999" y="454.8518736271347" width="8.8125" height="43.148126372865185" fill="#7070f8" data-tooltip="1.00x baseline speed (No JIT)"/>
<line x1="519.9999999999999" y1="454.8002058367385" x2="528.8124999999999" y2="454.8002058367385" stroke="#000"/>
<line x1="519.9999999999999" y1="454.90354141753096" x2="528.8124999999999" y2="454.90354141753096" stroke="#000"/>
<line x1="524.4062499999999" y1="454.8002058367385" x2="524.4062499999999" y2="454.90354141753096" stroke="#000"/>
<rect x="528.8124999999999" y="428.7251991631126" width="8.8125" height="69.27480083688737" fill="orange" data-tooltip="1.61x baseline speed (MJIT)"/>
<line x1="528.8124999999999" y1="428.63742812080955" x2="537.6249999999999" y2="428.63742812080955" stroke="#000"/>
<line x1="528.8124999999999" y1="428.81297020541575" x2="537.6249999999999" y2="428.81297020541575" stroke="#000"/>
<line x1="533.2187499999999" y1="428.63742812080955" x2="533.2187499999999" y2="428.81297020541575" stroke="#000"/>
<rect x="537.6249999999999" y="440.7498348143742" width="8.8125" height="57.250165185625804" fill="green" data-tooltip="1.33x baseline speed (YJIT)"/>
<line x1="537.6249999999999" y1="440.65940512319696" x2="546.4374999999999" y2="440.65940512319696" stroke="#000"/>
<line x1="537.6249999999999" y1="440.84026450555143" x2="546.4374999999999" y2="440.84026450555143" stroke="#000"/>
<line x1="542.0312499999999" y1="440.65940512319696" x2="542.0312499999999" y2="440.84026450555143" stroke="#000"/>
<line x1="537.6249999999999" y1="498.0" x2="537.6249999999999" y2="502.79999999999995" stroke="#000"/>
<text x="537.6249999999999" y="512.4" fill="#111" font-size="small" font-family="monospace" font-weight="bold" text-anchor="end" transform="rotate(-60, 537.6249999999999, 512.4)">
nbody
</text>
<rect x="555.2499999999999" y="454.8518736271347" width="8.8125" height="43.148126372865185" fill="#7070f8" data-tooltip="1.00x baseline speed (No JIT)"/>
<line x1="555.2499999999999" y1="454.6649402428893" x2="564.0624999999999" y2="454.6649402428893" stroke="#000"/>
<line x1="555.2499999999999" y1="455.0388070113801" x2="564.0624999999999" y2="455.0388070113801" stroke="#000"/>
<line x1="559.6562499999999" y1="454.6649402428893" x2="559.6562499999999" y2="455.0388070113801" stroke="#000"/>
<rect x="564.0624999999999" y="401.89759883978985" width="8.8125" height="96.10240116021004" fill="orange" data-tooltip="2.23x baseline speed (MJIT)"/>
<line x1="564.0624999999999" y1="401.14592005979875" x2="572.8749999999999" y2="401.14592005979875" stroke="#000"/>
<line x1="564.0624999999999" y1="402.6492776197809" x2="572.8749999999999" y2="402.6492776197809" stroke="#000"/>
<line x1="568.4687499999999" y1="401.14592005979875" x2="568.4687499999999" y2="402.6492776197809" stroke="#000"/>
<rect x="572.8749999999999" y="424.573318955895" width="8.8125" height="73.4266810441049" fill="green" data-tooltip="1.70x baseline speed (YJIT)"/>
<line x1="572.8749999999999" y1="424.02258830429173" x2="581.6874999999999" y2="424.02258830429173" stroke="#000"/>
<line x1="572.8749999999999" y1="425.1240496074982" x2="581.6874999999999" y2="425.1240496074982" stroke="#000"/>
<line x1="577.2812499999999" y1="424.02258830429173" x2="577.2812499999999" y2="425.1240496074982" stroke="#000"/>
<line x1="572.8749999999999" y1="498.0" x2="572.8749999999999" y2="502.79999999999995" stroke="#000"/>
<text x="572.8749999999999" y="512.4" fill="#111" font-size="small" font-family="monospace" font-weight="bold" text-anchor="end" transform="rotate(-60, 572.8749999999999, 512.4)">
optcarrot
</text>
<rect x="590.4999999999999" y="454.8518736271347" width="8.8125" height="43.148126372865185" fill="#7070f8" data-tooltip="1.00x baseline speed (No JIT)"/>
<line x1="590.4999999999999" y1="454.6641379209807" x2="599.3124999999999" y2="454.6641379209807" stroke="#000"/>
<line x1="590.4999999999999" y1="455.03960933328875" x2="599.3124999999999" y2="455.03960933328875" stroke="#000"/>
<line x1="594.9062499999999" y1="454.6641379209807" x2="594.9062499999999" y2="455.03960933328875" stroke="#000"/>
<rect x="599.3124999999999" y="440.419664037756" width="8.8125" height="57.58033596224402" fill="orange" data-tooltip="1.33x baseline speed (MJIT)"/>
<line x1="599.3124999999999" y1="440.05644389950606" x2="608.1249999999999" y2="440.05644389950606" stroke="#000"/>
<line x1="599.3124999999999" y1="440.78288417600584" x2="608.1249999999999" y2="440.78288417600584" stroke="#000"/>
<line x1="603.7187499999999" y1="440.05644389950606" x2="603.7187499999999" y2="440.78288417600584" stroke="#000"/>
<rect x="608.1249999999999" y="419.4202333129358" width="8.8125" height="78.57976668706412" fill="green" data-tooltip="1.82x baseline speed (YJIT)"/>
<line x1="608.1249999999999" y1="418.59711393002266" x2="616.9374999999999" y2="418.59711393002266" stroke="#000"/>
<line x1="608.1249999999999" y1="420.24335269584896" x2="616.9374999999999" y2="420.24335269584896" stroke="#000"/>
<line x1="612.5312499999999" y1="418.59711393002266" x2="612.5312499999999" y2="420.24335269584896" stroke="#000"/>
<line x1="608.1249999999999" y1="498.0" x2="608.1249999999999" y2="502.79999999999995" stroke="#000"/>
<text x="608.1249999999999" y="512.4" fill="#111" font-size="small" font-family="monospace" font-weight="bold" text-anchor="end" transform="rotate(-60, 608.1249999999999, 512.4)">
rubykon
</text>
<rect x="625.7499999999999" y="454.8518736271347" width="8.8125" height="43.148126372865185" fill="#7070f8" data-tooltip="1.00x baseline speed (No JIT)"/>
<line x1="625.7499999999999" y1="454.8480923268512" x2="634.5624999999999" y2="454.8480923268512" stroke="#000"/>
<line x1="625.7499999999999" y1="454.8556549274182" x2="634.5624999999999" y2="454.8556549274182" stroke="#000"/>
<line x1="630.1562499999999" y1="454.8480923268512" x2="630.1562499999999" y2="454.8556549274182" stroke="#000"/>
<rect x="634.5624999999999" y="473.57394853118524" width="8.8125" height="24.426051468814734" fill="orange" data-tooltip="0.57x baseline speed (MJIT)"/>
<line x1="634.5624999999999" y1="472.81935321640054" x2="643.3749999999999" y2="472.81935321640054" stroke="#000"/>
<line x1="634.5624999999999" y1="474.3285438459699" x2="643.3749999999999" y2="474.3285438459699" stroke="#000"/>
<line x1="638.9687499999999" y1="472.81935321640054" x2="638.9687499999999" y2="474.3285438459699" stroke="#000"/>
<rect x="643.3749999999999" y="219.9034625374521" width="8.8125" height="278.0965374625479" fill="green" data-tooltip="6.45x baseline speed (YJIT)"/>
<line x1="643.3749999999999" y1="219.6054203135718" x2="652.1874999999999" y2="219.6054203135718" stroke="#000"/>
<line x1="643.3749999999999" y1="220.20150476133236" x2="652.1874999999999" y2="220.20150476133236" stroke="#000"/>
<line x1="647.7812499999999" y1="219.6054203135718" x2="647.7812499999999" y2="220.20150476133236" stroke="#000"/>
<line x1="643.3749999999999" y1="498.0" x2="643.3749999999999" y2="502.79999999999995" stroke="#000"/>
<text x="643.3749999999999" y="512.4" fill="#111" font-size="small" font-family="monospace" font-weight="bold" text-anchor="end" transform="rotate(-60, 643.3749999999999, 512.4)">
30k_ifelse
</text>
<rect x="660.9999999999999" y="454.8518736271347" width="8.8125" height="43.148126372865185" fill="#7070f8" data-tooltip="1.00x baseline speed (No JIT)"/>
<line x1="660.9999999999999" y1="454.81211269341054" x2="669.8124999999999" y2="454.81211269341054" stroke="#000"/>
<line x1="660.9999999999999" y1="454.89163456085885" x2="669.8124999999999" y2="454.89163456085885" stroke="#000"/>
<line x1="665.4062499999999" y1="454.81211269341054" x2="665.4062499999999" y2="454.89163456085885" stroke="#000"/>
<rect x="669.8124999999999" y="475.4148433866966" width="8.8125" height="22.585156613303344" fill="orange" data-tooltip="0.52x baseline speed (MJIT)"/>
<line x1="669.8124999999999" y1="474.402736582726" x2="678.6249999999999" y2="474.402736582726" stroke="#000"/>
<line x1="669.8124999999999" y1="476.4269501906671" x2="678.6249999999999" y2="476.4269501906671" stroke="#000"/>
<line x1="674.2187499999999" y1="474.402736582726" x2="674.2187499999999" y2="476.4269501906671" stroke="#000"/>
<rect x="678.6249999999999" y="126.84872666249561" width="8.8125" height="371.15127333750434" fill="green" data-tooltip="8.60x baseline speed (YJIT)"/>
<line x1="678.6249999999999" y1="126.4995673427917" x2="687.4374999999999" y2="126.4995673427917" stroke="#000"/>
<line x1="678.6249999999999" y1="127.19788598219951" x2="687.4374999999999" y2="127.19788598219951" stroke="#000"/>
<line x1="683.0312499999999" y1="126.4995673427917" x2="683.0312499999999" y2="127.19788598219951" stroke="#000"/>
<line x1="678.6249999999999" y1="498.0" x2="678.6249999999999" y2="502.79999999999995" stroke="#000"/>
<text x="678.6249999999999" y="512.4" fill="#111" font-size="small" font-family="monospace" font-weight="bold" text-anchor="end" transform="rotate(-60, 678.6249999999999, 512.4)">
30k_methods
</text>
<rect x="696.2499999999999" y="454.8518736271347" width="8.8125" height="43.148126372865185" fill="#7070f8" data-tooltip="1.00x baseline speed (No JIT)"/>
<line x1="696.2499999999999" y1="454.77969983797163" x2="705.0624999999999" y2="454.77969983797163" stroke="#000"/>
<line x1="696.2499999999999" y1="454.92404741629775" x2="705.0624999999999" y2="454.92404741629775" stroke="#000"/>
<line x1="700.6562499999999" y1="454.77969983797163" x2="700.6562499999999" y2="454.92404741629775" stroke="#000"/>
<rect x="705.0624999999999" y="451.39765827217684" width="8.8125" height="46.602341727823124" fill="orange" data-tooltip="1.08x baseline speed (MJIT)"/>
<line x1="705.0624999999999" y1="451.310687038724" x2="713.8749999999999" y2="451.310687038724" stroke="#000"/>
<line x1="705.0624999999999" y1="451.48462950562975" x2="713.8749999999999" y2="451.48462950562975" stroke="#000"/>
<line x1="709.4687499999999" y1="451.310687038724" x2="709.4687499999999" y2="451.48462950562975" stroke="#000"/>
<rect x="713.8749999999999" y="400.0570659731226" width="8.8125" height="97.94293402687731" fill="green" data-tooltip="2.27x baseline speed (YJIT)"/>
<line x1="713.8749999999999" y1="399.3780567110695" x2="722.6874999999999" y2="399.3780567110695" stroke="#000"/>
<line x1="713.8749999999999" y1="400.73607523517563" x2="722.6874999999999" y2="400.73607523517563" stroke="#000"/>
<line x1="718.2812499999999" y1="399.3780567110695" x2="718.2812499999999" y2="400.73607523517563" stroke="#000"/>
<line x1="713.8749999999999" y1="498.0" x2="713.8749999999999" y2="502.79999999999995" stroke="#000"/>
<text x="713.8749999999999" y="512.4" fill="#111" font-size="small" font-family="monospace" font-weight="bold" text-anchor="end" transform="rotate(-60, 713.8749999999999, 512.4)">
cfunc_itself
</text>
<rect x="731.4999999999999" y="454.8518736271347" width="8.8125" height="43.148126372865185" fill="#7070f8" data-tooltip="1.00x baseline speed (No JIT)"/>
<line x1="731.4999999999999" y1="454.83429118867946" x2="740.3124999999999" y2="454.83429118867946" stroke="#000"/>
<line x1="731.4999999999999" y1="454.86945606558993" x2="740.3124999999999" y2="454.86945606558993" stroke="#000"/>
<line x1="735.9062499999999" y1="454.83429118867946" x2="735.9062499999999" y2="454.86945606558993" stroke="#000"/>
<rect x="740.3124999999999" y="357.78305562760266" width="8.8125" height="140.2169443723973" fill="orange" data-tooltip="3.25x baseline speed (MJIT)"/>
<line x1="740.3124999999999" y1="357.710860480636" x2="749.1249999999999" y2="357.710860480636" stroke="#000"/>
<line x1="740.3124999999999" y1="357.8552507745693" x2="749.1249999999999" y2="357.8552507745693" stroke="#000"/>
<line x1="744.7187499999999" y1="357.710860480636" x2="744.7187499999999" y2="357.8552507745693" stroke="#000"/>
<rect x="749.1249999999999" y="321.44287487439885" width="8.8125" height="176.55712512560115" fill="green" data-tooltip="4.09x baseline speed (YJIT)"/>
<line x1="749.1249999999999" y1="321.34166890275225" x2="757.9374999999999" y2="321.34166890275225" stroke="#000"/>
<line x1="749.1249999999999" y1="321.54408084604546" x2="757.9374999999999" y2="321.54408084604546" stroke="#000"/>
<line x1="753.5312499999999" y1="321.34166890275225" x2="753.5312499999999" y2="321.54408084604546" stroke="#000"/>
<line x1="749.1249999999999" y1="498.0" x2="749.1249999999999" y2="502.79999999999995" stroke="#000"/>
<text x="749.1249999999999" y="512.4" fill="#111" font-size="small" font-family="monospace" font-weight="bold" text-anchor="end" transform="rotate(-60, 749.1249999999999, 512.4)">
fib
</text>
<rect x="766.7499999999999" y="454.8518736271347" width="8.8125" height="43.148126372865185" fill="#7070f8" data-tooltip="1.00x baseline speed (No JIT)"/>
<line x1="766.7499999999999" y1="454.69706418639635" x2="775.5624999999999" y2="454.69706418639635" stroke="#000"/>
<line x1="766.7499999999999" y1="455.0066830678731" x2="775.5624999999999" y2="455.0066830678731" stroke="#000"/>
<line x1="771.1562499999999" y1="454.69706418639635" x2="771.1562499999999" y2="455.0066830678731" stroke="#000"/>
<rect x="775.5624999999999" y="455.06037627217967" width="8.8125" height="42.939623727820226" fill="orange" data-tooltip="1.00x baseline speed (MJIT)"/>
<line x1="775.5624999999999" y1="454.8882659771162" x2="784.3749999999999" y2="454.8882659771162" stroke="#000"/>
<line x1="775.5624999999999" y1="455.23248656724314" x2="784.3749999999999" y2="455.23248656724314" stroke="#000"/>
<line x1="779.9687499999999" y1="454.8882659771162" x2="779.9687499999999" y2="455.23248656724314" stroke="#000"/>
<rect x="784.3749999999999" y="391.76756194805097" width="8.8125" height="106.23243805194898" fill="green" data-tooltip="2.46x baseline speed (YJIT)"/>
<line x1="784.3749999999999" y1="391.3831128770845" x2="793.1874999999999" y2="391.3831128770845" stroke="#000"/>
<line x1="784.3749999999999" y1="392.15201101901744" x2="793.1874999999999" y2="392.15201101901744" stroke="#000"/>
<line x1="788.7812499999999" y1="391.3831128770845" x2="788.7812499999999" y2="392.15201101901744" stroke="#000"/>
<line x1="784.3749999999999" y1="498.0" x2="784.3749999999999" y2="502.79999999999995" stroke="#000"/>
<text x="784.3749999999999" y="512.4" fill="#111" font-size="small" font-family="monospace" font-weight="bold" text-anchor="end" transform="rotate(-60, 784.3749999999999, 512.4)">
getivar
</text>
<rect x="801.9999999999999" y="454.8518736271347" width="8.8125" height="43.148126372865185" fill="#7070f8" data-tooltip="1.00x baseline speed (No JIT)"/>
<line x1="801.9999999999999" y1="454.8101391034789" x2="810.8124999999999" y2="454.8101391034789" stroke="#000"/>
<line x1="801.9999999999999" y1="454.89360815079056" x2="810.8124999999999" y2="454.89360815079056" stroke="#000"/>
<line x1="806.4062499999999" y1="454.8101391034789" x2="806.4062499999999" y2="454.89360815079056" stroke="#000"/>
<rect x="810.8124999999999" y="443.64498849146463" width="8.8125" height="54.35501150853535" fill="orange" data-tooltip="1.26x baseline speed (MJIT)"/>
<line x1="810.8124999999999" y1="443.58984210298706" x2="819.6249999999999" y2="443.58984210298706" stroke="#000"/>
<line x1="810.8124999999999" y1="443.7001348799422" x2="819.6249999999999" y2="443.7001348799422" stroke="#000"/>
<line x1="815.2187499999999" y1="443.58984210298706" x2="815.2187499999999" y2="443.7001348799422" stroke="#000"/>
<rect x="819.6249999999999" y="271.01902073153263" width="8.8125" height="226.9809792684673" fill="green" data-tooltip="5.26x baseline speed (YJIT)"/>
<line x1="819.6249999999999" y1="270.3663805693079" x2="828.4374999999999" y2="270.3663805693079" stroke="#000"/>
<line x1="819.6249999999999" y1="271.67166089375735" x2="828.4374999999999" y2="271.67166089375735" stroke="#000"/>
<line x1="824.0312499999999" y1="270.3663805693079" x2="824.0312499999999" y2="271.67166089375735" stroke="#000"/>
<line x1="819.6249999999999" y1="498.0" x2="819.6249999999999" y2="502.79999999999995" stroke="#000"/>
<text x="819.6249999999999" y="512.4" fill="#111" font-size="small" font-family="monospace" font-weight="bold" text-anchor="end" transform="rotate(-60, 819.6249999999999, 512.4)">
keyword_args
</text>
<rect x="837.2499999999999" y="454.8518736271347" width="8.8125" height="43.148126372865185" fill="#7070f8" data-tooltip="1.00x baseline speed (No JIT)"/>
<line x1="837.2499999999999" y1="454.827351592957" x2="846.0624999999999" y2="454.827351592957" stroke="#000"/>
<line x1="837.2499999999999" y1="454.8763956613124" x2="846.0624999999999" y2="454.8763956613124" stroke="#000"/>
<line x1="841.6562499999999" y1="454.827351592957" x2="841.6562499999999" y2="454.8763956613124" stroke="#000"/>
<rect x="846.0624999999999" y="452.3135681313778" width="8.8125" height="45.68643186862218" fill="orange" data-tooltip="1.06x baseline speed (MJIT)"/>
<line x1="846.0624999999999" y1="452.23841356001486" x2="854.8749999999999" y2="452.23841356001486" stroke="#000"/>
<line x1="846.0624999999999" y1="452.3887227027407" x2="854.8749999999999" y2="452.3887227027407" stroke="#000"/>
<line x1="850.4687499999999" y1="452.23841356001486" x2="850.4687499999999" y2="452.3887227027407" stroke="#000"/>
<rect x="854.8749999999999" y="100.19999999999999" width="8.8125" height="397.79999999999995" fill="green" data-tooltip="9.22x baseline speed (YJIT)"/>
<line x1="854.8749999999999" y1="98.78991298126546" x2="863.6874999999999" y2="98.78991298126546" stroke="#000"/>
<line x1="854.8749999999999" y1="101.61008701873452" x2="863.6874999999999" y2="101.61008701873452" stroke="#000"/>
<line x1="859.2812499999999" y1="98.78991298126546" x2="859.2812499999999" y2="101.61008701873452" stroke="#000"/>
<line x1="854.8749999999999" y1="498.0" x2="854.8749999999999" y2="502.79999999999995" stroke="#000"/>
<text x="854.8749999999999" y="512.4" fill="#111" font-size="small" font-family="monospace" font-weight="bold" text-anchor="end" transform="rotate(-60, 854.8749999999999, 512.4)">
respond_to
</text>
<rect x="872.4999999999999" y="454.8518736271347" width="8.8125" height="43.148126372865185" fill="#7070f8" data-tooltip="1.00x baseline speed (No JIT)"/>
<line x1="872.4999999999999" y1="454.7701894815365" x2="881.3125" y2="454.7701894815365" stroke="#000"/>
<line x1="872.4999999999999" y1="454.93355777273297" x2="881.3125" y2="454.93355777273297" stroke="#000"/>
<line x1="876.9062499999999" y1="454.7701894815365" x2="876.9062499999999" y2="454.93355777273297" stroke="#000"/>
<rect x="881.3125" y="456.2807623696021" width="8.8125" height="41.71923763039793" fill="orange" data-tooltip="0.97x baseline speed (MJIT)"/>
<line x1="881.3125" y1="456.1556140782979" x2="890.125" y2="456.1556140782979" stroke="#000"/>
<line x1="881.3125" y1="456.4059106609063" x2="890.125" y2="456.4059106609063" stroke="#000"/>
<line x1="885.7187499999999" y1="456.1556140782979" x2="885.7187499999999" y2="456.4059106609063" stroke="#000"/>
<rect x="890.125" y="432.34779823654554" width="8.8125" height="65.65220176345449" fill="green" data-tooltip="1.52x baseline speed (YJIT)"/>
<line x1="890.125" y1="431.790425447076" x2="898.9375" y2="431.790425447076" stroke="#000"/>
<line x1="890.125" y1="432.905171026015" x2="898.9375" y2="432.905171026015" stroke="#000"/>
<line x1="894.5312499999999" y1="431.790425447076" x2="894.5312499999999" y2="432.905171026015" stroke="#000"/>
<line x1="890.125" y1="498.0" x2="890.125" y2="502.79999999999995" stroke="#000"/>
<text x="890.125" y="512.4" fill="#111" font-size="small" font-family="monospace" font-weight="bold" text-anchor="end" transform="rotate(-60, 890.125, 512.4)">
setivar
</text>
<rect x="907.75" y="454.8518736271347" width="8.8125" height="43.148126372865185" fill="#7070f8" data-tooltip="1.00x baseline speed (No JIT)"/>
<line x1="907.75" y1="454.45763230447767" x2="916.5625" y2="454.45763230447767" stroke="#000"/>
<line x1="907.75" y1="455.2461149497918" x2="916.5625" y2="455.2461149497918" stroke="#000"/>
<line x1="912.1562499999999" y1="454.45763230447767" x2="912.1562499999999" y2="455.2461149497918" stroke="#000"/>
<rect x="916.5625" y="431.6459995081338" width="8.8125" height="66.35400049186616" fill="orange" data-tooltip="1.54x baseline speed (MJIT)"/>
<line x1="916.5625" y1="425.87460967727264" x2="925.375" y2="425.87460967727264" stroke="#000"/>
<line x1="916.5625" y1="437.41738933899495" x2="925.375" y2="437.41738933899495" stroke="#000"/>
<line x1="920.9687499999999" y1="425.87460967727264" x2="920.9687499999999" y2="437.41738933899495" stroke="#000"/>
<rect x="925.375" y="420.5731143942581" width="8.8125" height="77.42688560574183" fill="green" data-tooltip="1.79x baseline speed (YJIT)"/>
<line x1="925.375" y1="419.40100193439184" x2="934.1875" y2="419.40100193439184" stroke="#000"/>
<line x1="925.375" y1="421.7452268541243" x2="934.1875" y2="421.7452268541243" stroke="#000"/>
<line x1="929.7812499999999" y1="419.40100193439184" x2="929.7812499999999" y2="421.7452268541243" stroke="#000"/>
<line x1="925.375" y1="498.0" x2="925.375" y2="502.79999999999995" stroke="#000"/>
<text x="925.375" y="512.4" fill="#111" font-size="small" font-family="monospace" font-weight="bold" text-anchor="end" transform="rotate(-60, 925.375, 512.4)">
str_concat
</text>
</svg>