<svg viewBox="0 0 1000 600" xmlns="http://www.w3.org/2000/svg" xmlns:xlink="http://www.w3.org/1999/xlink" width="100%" height="100%">

<rect x="50.0" y="30.0" width="940.0" height="467.99999999999994" stroke="#000" fill="#EEE"/>
<line x1="42.0" y1="497.9999999999999" x2="50.0" y2="497.9999999999999" stroke="#000"/>
<text x="26.000000000000004" y="497.9999999999999" text-anchor="end" font-weight="bold" font-size="small" fill="#111">
0.0
</text>
<line x1="42.0" y1="417.1967170889526" x2="50.0" y2="417.1967170889526" stroke="#000"/>
<text x="26.000000000000004" y="417.1967170889526" text-anchor="end" font-weight="bold" font-size="small" fill="#111">
2.0
</text>
<line x1="42.0" y1="336.39343417790536" x2="50.0" y2="336.39343417790536" stroke="#000"/>
<text x="26.000000000000004" y="336.39343417790536" text-anchor="end" font-weight="bold" font-size="small" fill="#111">
4.0
</text>
<line x1="42.0" y1="255.5901512668581" x2="50.0" y2="255.5901512668581" stroke="#000"/>
<text x="26.000000000000004" y="255.5901512668581" text-anchor="end" font-weight="bold" font-size="small" fill="#111">
6.0
</text>
<line x1="42.0" y1="174.7868683558108" x2="50.0" y2="174.7868683558108" stroke="#000"/>
<text x="26.000000000000004" y="174.7868683558108" text-anchor="end" font-weight="bold" font-size="small" fill="#111">
8.0
</text>
<rect x="268.5" y="36.00000000000001" width="80.0" height="18.0" fill="#7070f8" stroke="#888"/>
<text x="308.5" y="52.50000000000001" font-size="small" text-anchor="middle" font-weight="bold" fill="#EEE">
No JIT
</text>
<rect x="691.4999999999999" y="36.00000000000001" width="80.0" height="18.0" fill="orange" stroke="#888"/>
<text x="731.4999999999999" y="52.50000000000001" font-size="small" text-anchor="middle" font-weight="bold" fill="#EEE">
YJIT
</text>
<rect x="97.0" y="457.5983585444763" width="10.846153846153845" height="40.401641455523645" fill="#7070f8" data-tooltip="1.00x baseline speed (No JIT)"/>
<line x1="97.0" y1="457.4513150381279" x2="107.84615384615384" y2="457.4513150381279" stroke="#000"/>
<line x1="97.0" y1="457.74540205082474" x2="107.84615384615384" y2="457.74540205082474" stroke="#000"/>
<line x1="102.42307692307692" y1="457.4513150381279" x2="102.42307692307692" y2="457.74540205082474" stroke="#000"/>
<rect x="107.84615384615384" y="435.266850916512" width="10.846153846153845" height="62.733149083487945" fill="orange" data-tooltip="1.55x baseline speed (YJIT)"/>
<line x1="107.84615384615384" y1="434.7822538076223" x2="118.69230769230768" y2="434.7822538076223" stroke="#000"/>
<line x1="107.84615384615384" y1="435.7514480254017" x2="118.69230769230768" y2="435.7514480254017" stroke="#000"/>
<line x1="113.26923076923076" y1="434.7822538076223" x2="113.26923076923076" y2="435.7514480254017" stroke="#000"/>
<line x1="113.26923076923077" y1="498.0" x2="113.26923076923077" y2="502.79999999999995" stroke="#000"/>
<text x="113.26923076923077" y="512.4" fill="#111" font-size="small" font-family="monospace" font-weight="bold" text-anchor="end" transform="rotate(-60, 113.26923076923077, 512.4)">
activerecord
</text>
<rect x="129.53846153846155" y="457.5983585444763" width="10.846153846153845" height="40.401641455523645" fill="#7070f8" data-tooltip="1.00x baseline speed (No JIT)"/>
<line x1="129.53846153846155" y1="457.1831470855506" x2="140.3846153846154" y2="457.1831470855506" stroke="#000"/>
<line x1="129.53846153846155" y1="458.01357000340204" x2="140.3846153846154" y2="458.01357000340204" stroke="#000"/>
<line x1="134.96153846153845" y1="457.1831470855506" x2="134.96153846153845" y2="458.01357000340204" stroke="#000"/>
<rect x="140.3846153846154" y="440.4645966569714" width="10.846153846153845" height="57.53540334302847" fill="orange" data-tooltip="1.42x baseline speed (YJIT)"/>
<line x1="140.3846153846154" y1="439.11017185636354" x2="151.23076923076923" y2="439.11017185636354" stroke="#000"/>
<line x1="140.3846153846154" y1="441.81902145757937" x2="151.23076923076923" y2="441.81902145757937" stroke="#000"/>
<line x1="145.8076923076923" y1="439.11017185636354" x2="145.8076923076923" y2="441.81902145757937" stroke="#000"/>
<line x1="145.8076923076923" y1="498.0" x2="145.8076923076923" y2="502.79999999999995" stroke="#000"/>
<text x="145.8076923076923" y="512.4" fill="#111" font-size="small" font-family="monospace" font-weight="bold" text-anchor="end" transform="rotate(-60, 145.8076923076923, 512.4)">
hexapdf
</text>
<rect x="162.07692307692307" y="457.5983585444763" width="10.846153846153845" height="40.401641455523645" fill="#7070f8" data-tooltip="1.00x baseline speed (No JIT)"/>
<line x1="162.07692307692307" y1="457.20362640775625" x2="172.9230769230769" y2="457.20362640775625" stroke="#000"/>
<line x1="162.07692307692307" y1="457.9930906811964" x2="172.9230769230769" y2="457.9930906811964" stroke="#000"/>
<line x1="167.49999999999997" y1="457.20362640775625" x2="167.49999999999997" y2="457.9930906811964" stroke="#000"/>
<rect x="172.9230769230769" y="429.7865678412659" width="10.846153846153845" height="68.21343215873402" fill="orange" data-tooltip="1.69x baseline speed (YJIT)"/>
<line x1="172.9230769230769" y1="428.3262679026053" x2="183.76923076923075" y2="428.3262679026053" stroke="#000"/>
<line x1="172.9230769230769" y1="431.24686777992645" x2="183.76923076923075" y2="431.24686777992645" stroke="#000"/>
<line x1="178.3461538461538" y1="428.3262679026053" x2="178.3461538461538" y2="431.24686777992645" stroke="#000"/>
<line x1="178.3461538461538" y1="498.0" x2="178.3461538461538" y2="502.79999999999995" stroke="#000"/>
<text x="178.3461538461538" y="512.4" fill="#111" font-size="small" font-family="monospace" font-weight="bold" text-anchor="end" transform="rotate(-60, 178.3461538461538, 512.4)">
liquid-render
</text>
<rect x="194.6153846153846" y="457.5983585444763" width="10.846153846153845" height="40.401641455523645" fill="#7070f8" data-tooltip="1.00x baseline speed (No JIT)"/>
<line x1="194.6153846153846" y1="456.5024588014729" x2="205.46153846153845" y2="456.5024588014729" stroke="#000"/>
<line x1="194.6153846153846" y1="458.6942582874797" x2="205.46153846153845" y2="458.6942582874797" stroke="#000"/>
<line x1="200.03846153846152" y1="456.5024588014729" x2="200.03846153846152" y2="458.6942582874797" stroke="#000"/>
<rect x="205.46153846153845" y="451.3780759255758" width="10.846153846153845" height="46.62192407442418" fill="orange" data-tooltip="1.15x baseline speed (YJIT)"/>
<line x1="205.46153846153845" y1="450.1126547696711" x2="216.3076923076923" y2="450.1126547696711" stroke="#000"/>
<line x1="205.46153846153845" y1="452.6434970814805" x2="216.3076923076923" y2="452.6434970814805" stroke="#000"/>
<line x1="210.88461538461536" y1="450.1126547696711" x2="210.88461538461536" y2="452.6434970814805" stroke="#000"/>
<line x1="210.88461538461536" y1="498.0" x2="210.88461538461536" y2="502.79999999999995" stroke="#000"/>
<text x="210.88461538461536" y="512.4" fill="#111" font-size="small" font-family="monospace" font-weight="bold" text-anchor="end" transform="rotate(-60, 210.88461538461536, 512.4)">
mail
</text>
<rect x="227.15384615384616" y="457.5983585444763" width="10.846153846153845" height="40.401641455523645" fill="#7070f8" data-tooltip="1.00x baseline speed (No JIT)"/>
<line x1="227.15384615384616" y1="457.58947485803014" x2="238.0" y2="457.58947485803014" stroke="#000"/>
<line x1="227.15384615384616" y1="457.6072422309225" x2="238.0" y2="457.6072422309225" stroke="#000"/>
<line x1="232.57692307692307" y1="457.58947485803014" x2="232.57692307692307" y2="457.6072422309225" stroke="#000"/>
<rect x="238.0" y="444.25310496158534" width="10.846153846153845" height="53.746895038414564" fill="orange" data-tooltip="1.33x baseline speed (YJIT)"/>
<line x1="238.0" y1="444.2368389640168" x2="248.84615384615384" y2="444.2368389640168" stroke="#000"/>
<line x1="238.0" y1="444.2693709591539" x2="248.84615384615384" y2="444.2693709591539" stroke="#000"/>
<line x1="243.4230769230769" y1="444.2368389640168" x2="243.4230769230769" y2="444.2693709591539" stroke="#000"/>
<line x1="243.4230769230769" y1="498.0" x2="243.4230769230769" y2="502.79999999999995" stroke="#000"/>
<text x="243.4230769230769" y="512.4" fill="#111" font-size="small" font-family="monospace" font-weight="bold" text-anchor="end" transform="rotate(-60, 243.4230769230769, 512.4)">
psych-load
</text>
<rect x="259.6923076923077" y="457.5983585444763" width="10.846153846153845" height="40.401641455523645" fill="#7070f8" data-tooltip="1.00x baseline speed (No JIT)"/>
<line x1="259.6923076923077" y1="457.50318711821905" x2="270.5384615384615" y2="457.50318711821905" stroke="#000"/>
<line x1="259.6923076923077" y1="457.6935299707336" x2="270.5384615384615" y2="457.6935299707336" stroke="#000"/>
<line x1="265.1153846153846" y1="457.50318711821905" x2="265.1153846153846" y2="457.6935299707336" stroke="#000"/>
<rect x="270.5384615384615" y="443.4374617281804" width="10.846153846153845" height="54.56253827181959" fill="orange" data-tooltip="1.35x baseline speed (YJIT)"/>
<line x1="270.5384615384615" y1="442.711209504366" x2="281.38461538461536" y2="442.711209504366" stroke="#000"/>
<line x1="270.5384615384615" y1="444.1637139519948" x2="281.38461538461536" y2="444.1637139519948" stroke="#000"/>
<line x1="275.96153846153845" y1="442.711209504366" x2="275.96153846153845" y2="444.1637139519948" stroke="#000"/>
<line x1="275.96153846153845" y1="498.0" x2="275.96153846153845" y2="502.79999999999995" stroke="#000"/>
<text x="275.96153846153845" y="512.4" fill="#111" font-size="small" font-family="monospace" font-weight="bold" text-anchor="end" transform="rotate(-60, 275.96153846153845, 512.4)">
railsbench
</text>
<rect x="292.23076923076917" y="457.5983585444763" width="10.846153846153845" height="40.401641455523645" fill="#7070f8" data-tooltip="1.00x baseline speed (No JIT)"/>
<line x1="292.23076923076917" y1="452.4306458216007" x2="303.07692307692304" y2="452.4306458216007" stroke="#000"/>
<line x1="292.23076923076917" y1="462.76607126735195" x2="303.07692307692304" y2="462.76607126735195" stroke="#000"/>
<line x1="297.6538461538461" y1="452.4306458216007" x2="297.6538461538461" y2="462.76607126735195" stroke="#000"/>
<rect x="303.07692307692304" y="453.0939958578938" width="10.846153846153845" height="44.90600414210614" fill="orange" data-tooltip="1.11x baseline speed (YJIT)"/>
<line x1="303.07692307692304" y1="444.15588345978495" x2="313.92307692307685" y2="444.15588345978495" stroke="#000"/>
<line x1="303.07692307692304" y1="462.0321082560026" x2="313.92307692307685" y2="462.0321082560026" stroke="#000"/>
<line x1="308.49999999999994" y1="444.15588345978495" x2="308.49999999999994" y2="462.0321082560026" stroke="#000"/>
<line x1="308.49999999999994" y1="498.0" x2="308.49999999999994" y2="502.79999999999995" stroke="#000"/>
<text x="308.49999999999994" y="512.4" fill="#111" font-size="small" font-family="monospace" font-weight="bold" text-anchor="end" transform="rotate(-60, 308.49999999999994, 512.4)">
ruby-lsp
</text>
<rect x="324.7692307692308" y="457.5983585444763" width="10.846153846153845" height="40.401641455523645" fill="#7070f8" data-tooltip="1.00x baseline speed (No JIT)"/>
<line x1="324.7692307692308" y1="457.57632304002516" x2="335.6153846153846" y2="457.57632304002516" stroke="#000"/>
<line x1="324.7692307692308" y1="457.6203940489275" x2="335.6153846153846" y2="457.6203940489275" stroke="#000"/>
<line x1="330.1923076923077" y1="457.57632304002516" x2="330.1923076923077" y2="457.6203940489275" stroke="#000"/>
<rect x="335.6153846153846" y="417.50224273753514" width="10.846153846153845" height="80.49775726246487" fill="orange" data-tooltip="1.99x baseline speed (YJIT)"/>
<line x1="335.6153846153846" y1="417.406261735503" x2="346.46153846153845" y2="417.406261735503" stroke="#000"/>
<line x1="335.6153846153846" y1="417.5982237395673" x2="346.46153846153845" y2="417.5982237395673" stroke="#000"/>
<line x1="341.0384615384615" y1="417.406261735503" x2="341.0384615384615" y2="417.5982237395673" stroke="#000"/>
<line x1="341.0384615384615" y1="498.0" x2="341.0384615384615" y2="502.79999999999995" stroke="#000"/>
<text x="341.0384615384615" y="512.4" fill="#111" font-size="small" font-family="monospace" font-weight="bold" text-anchor="end" transform="rotate(-60, 341.0384615384615, 512.4)">
binarytrees
</text>
<rect x="357.3076923076923" y="457.5983585444763" width="10.846153846153845" height="40.401641455523645" fill="#7070f8" data-tooltip="1.00x baseline speed (No JIT)"/>
<line x1="357.3076923076923" y1="457.58282690728294" x2="368.1538461538462" y2="457.58282690728294" stroke="#000"/>
<line x1="357.3076923076923" y1="457.6138901816697" x2="368.1538461538462" y2="457.6138901816697" stroke="#000"/>
<line x1="362.7307692307692" y1="457.58282690728294" x2="362.7307692307692" y2="457.6138901816697" stroke="#000"/>
<rect x="368.1538461538462" y="435.7473909348839" width="10.846153846153845" height="62.25260906511596" fill="orange" data-tooltip="1.54x baseline speed (YJIT)"/>
<line x1="368.1538461538462" y1="435.70727037057657" x2="379.0" y2="435.70727037057657" stroke="#000"/>
<line x1="368.1538461538462" y1="435.78751149919134" x2="379.0" y2="435.78751149919134" stroke="#000"/>
<line x1="373.5769230769231" y1="435.70727037057657" x2="373.5769230769231" y2="435.78751149919134" stroke="#000"/>
<line x1="373.5769230769231" y1="498.0" x2="373.5769230769231" y2="502.79999999999995" stroke="#000"/>
<text x="373.5769230769231" y="512.4" fill="#111" font-size="small" font-family="monospace" font-weight="bold" text-anchor="end" transform="rotate(-60, 373.5769230769231, 512.4)">
chunky_png
</text>
<rect x="389.84615384615387" y="457.5983585444763" width="10.846153846153845" height="40.401641455523645" fill="#7070f8" data-tooltip="1.00x baseline speed (No JIT)"/>
<line x1="389.84615384615387" y1="457.317826670385" x2="400.6923076923077" y2="457.317826670385" stroke="#000"/>
<line x1="389.84615384615387" y1="457.87889041856766" x2="400.6923076923077" y2="457.87889041856766" stroke="#000"/>
<line x1="395.2692307692308" y1="457.317826670385" x2="395.2692307692308" y2="457.87889041856766" stroke="#000"/>
<rect x="400.6923076923077" y="451.1613672088881" width="10.846153846153845" height="46.838632791111884" fill="orange" data-tooltip="1.16x baseline speed (YJIT)"/>
<line x1="400.6923076923077" y1="450.6318198465208" x2="411.53846153846155" y2="450.6318198465208" stroke="#000"/>
<line x1="400.6923076923077" y1="451.6909145712554" x2="411.53846153846155" y2="451.6909145712554" stroke="#000"/>
<line x1="406.1153846153846" y1="450.6318198465208" x2="406.1153846153846" y2="451.6909145712554" stroke="#000"/>
<line x1="406.1153846153846" y1="498.0" x2="406.1153846153846" y2="502.79999999999995" stroke="#000"/>
<text x="406.1153846153846" y="512.4" fill="#111" font-size="small" font-family="monospace" font-weight="bold" text-anchor="end" transform="rotate(-60, 406.1153846153846, 512.4)">
erubi
</text>
<rect x="422.38461538461536" y="457.5983585444763" width="10.846153846153845" height="40.401641455523645" fill="#7070f8" data-tooltip="1.00x baseline speed (No JIT)"/>
<line x1="422.38461538461536" y1="456.51264815395103" x2="433.23076923076917" y2="456.51264815395103" stroke="#000"/>
<line x1="422.38461538461536" y1="458.6840689350016" x2="433.23076923076917" y2="458.6840689350016" stroke="#000"/>
<line x1="427.80769230769226" y1="456.51264815395103" x2="427.80769230769226" y2="458.6840689350016" stroke="#000"/>
<rect x="433.23076923076917" y="440.5099668677203" width="10.846153846153845" height="57.49003313227965" fill="orange" data-tooltip="1.42x baseline speed (YJIT)"/>
<line x1="433.23076923076917" y1="437.8671599819042" x2="444.07692307692304" y2="437.8671599819042" stroke="#000"/>
<line x1="433.23076923076917" y1="443.15277375353645" x2="444.07692307692304" y2="443.15277375353645" stroke="#000"/>
<line x1="438.65384615384613" y1="437.8671599819042" x2="438.65384615384613" y2="443.15277375353645" stroke="#000"/>
<line x1="438.65384615384613" y1="498.0" x2="438.65384615384613" y2="502.79999999999995" stroke="#000"/>
<text x="438.65384615384613" y="512.4" fill="#111" font-size="small" font-family="monospace" font-weight="bold" text-anchor="end" transform="rotate(-60, 438.65384615384613, 512.4)">
erubi_rails
</text>
<rect x="454.92307692307685" y="457.5983585444763" width="10.846153846153845" height="40.401641455523645" fill="#7070f8" data-tooltip="1.00x baseline speed (No JIT)"/>
<line x1="454.92307692307685" y1="457.0115904266869" x2="465.7692307692307" y2="457.0115904266869" stroke="#000"/>
<line x1="454.92307692307685" y1="458.18512666226576" x2="465.7692307692307" y2="458.18512666226576" stroke="#000"/>
<line x1="460.3461538461538" y1="457.0115904266869" x2="460.3461538461538" y2="458.18512666226576" stroke="#000"/>
<rect x="465.7692307692307" y="456.82166660780024" width="10.846153846153845" height="41.17833339219967" fill="orange" data-tooltip="1.02x baseline speed (YJIT)"/>
<line x1="465.7692307692307" y1="456.19328960638603" x2="476.6153846153845" y2="456.19328960638603" stroke="#000"/>
<line x1="465.7692307692307" y1="457.4500436092144" x2="476.6153846153845" y2="457.4500436092144" stroke="#000"/>
<line x1="471.1923076923076" y1="456.19328960638603" x2="471.1923076923076" y2="457.4500436092144" stroke="#000"/>
<line x1="471.1923076923076" y1="498.0" x2="471.1923076923076" y2="502.79999999999995" stroke="#000"/>
<text x="471.1923076923076" y="512.4" fill="#111" font-size="small" font-family="monospace" font-weight="bold" text-anchor="end" transform="rotate(-60, 471.1923076923076, 512.4)">
etanni
</text>
<rect x="487.4615384615384" y="457.5983585444763" width="10.846153846153845" height="40.401641455523645" fill="#7070f8" data-tooltip="1.00x baseline speed (No JIT)"/>
<line x1="487.4615384615384" y1="457.5611401595067" x2="498.3076923076922" y2="457.5611401595067" stroke="#000"/>
<line x1="487.4615384615384" y1="457.63557692944596" x2="498.3076923076922" y2="457.63557692944596" stroke="#000"/>
<line x1="492.8846153846153" y1="457.5611401595067" x2="492.8846153846153" y2="457.63557692944596" stroke="#000"/>
<rect x="498.3076923076922" y="408.19047992497326" width="10.846153846153845" height="89.80952007502673" fill="orange" data-tooltip="2.22x baseline speed (YJIT)"/>
<line x1="498.3076923076922" y1="408.1024578405493" x2="509.1538461538461" y2="408.1024578405493" stroke="#000"/>
<line x1="498.3076923076922" y1="408.2785020093972" x2="509.1538461538461" y2="408.2785020093972" stroke="#000"/>
<line x1="503.7307692307692" y1="408.1024578405493" x2="503.7307692307692" y2="408.2785020093972" stroke="#000"/>
<line x1="503.7307692307692" y1="498.0" x2="503.7307692307692" y2="502.79999999999995" stroke="#000"/>
<text x="503.7307692307692" y="512.4" fill="#111" font-size="small" font-family="monospace" font-weight="bold" text-anchor="end" transform="rotate(-60, 503.7307692307692, 512.4)">
fannkuchredux
</text>
<rect x="520.0" y="457.5983585444763" width="10.846153846153845" height="40.401641455523645" fill="#7070f8" data-tooltip="1.00x baseline speed (No JIT)"/>
<line x1="520.0" y1="457.07884633587105" x2="530.8461538461538" y2="457.07884633587105" stroke="#000"/>
<line x1="520.0" y1="458.1178707530816" x2="530.8461538461538" y2="458.1178707530816" stroke="#000"/>
<line x1="525.423076923077" y1="457.07884633587105" x2="525.423076923077" y2="458.1178707530816" stroke="#000"/>
<rect x="530.8461538461538" y="443.72245326210924" width="10.846153846153845" height="54.2775467378907" fill="orange" data-tooltip="1.34x baseline speed (YJIT)"/>
<line x1="530.8461538461538" y1="442.57064590066324" x2="541.6923076923077" y2="442.57064590066324" stroke="#000"/>
<line x1="530.8461538461538" y1="444.8742606235552" x2="541.6923076923077" y2="444.8742606235552" stroke="#000"/>
<line x1="536.2692307692308" y1="442.57064590066324" x2="536.2692307692308" y2="444.8742606235552" stroke="#000"/>
<line x1="536.2692307692308" y1="498.0" x2="536.2692307692308" y2="502.79999999999995" stroke="#000"/>
<text x="536.2692307692308" y="512.4" fill="#111" font-size="small" font-family="monospace" font-weight="bold" text-anchor="end" transform="rotate(-60, 536.2692307692308, 512.4)">
lee
</text>
<rect x="552.5384615384615" y="457.5983585444763" width="10.846153846153845" height="40.401641455523645" fill="#7070f8" data-tooltip="1.00x baseline speed (No JIT)"/>
<line x1="552.5384615384615" y1="457.54252120948706" x2="563.3846153846154" y2="457.54252120948706" stroke="#000"/>
<line x1="552.5384615384615" y1="457.6541958794656" x2="563.3846153846154" y2="457.6541958794656" stroke="#000"/>
<line x1="557.9615384615385" y1="457.54252120948706" x2="557.9615384615385" y2="457.6541958794656" stroke="#000"/>
<rect x="563.3846153846154" y="435.94548880778825" width="10.846153846153845" height="62.05451119221172" fill="orange" data-tooltip="1.54x baseline speed (YJIT)"/>
<line x1="563.3846153846154" y1="435.8245053272123" x2="574.2307692307692" y2="435.8245053272123" stroke="#000"/>
<line x1="563.3846153846154" y1="436.06647228836414" x2="574.2307692307692" y2="436.06647228836414" stroke="#000"/>
<line x1="568.8076923076924" y1="435.8245053272123" x2="568.8076923076924" y2="436.06647228836414" stroke="#000"/>
<line x1="568.8076923076924" y1="498.0" x2="568.8076923076924" y2="502.79999999999995" stroke="#000"/>
<text x="568.8076923076924" y="512.4" fill="#111" font-size="small" font-family="monospace" font-weight="bold" text-anchor="end" transform="rotate(-60, 568.8076923076924, 512.4)">
nbody
</text>
<rect x="585.0769230769231" y="457.5983585444763" width="10.846153846153845" height="40.401641455523645" fill="#7070f8" data-tooltip="1.00x baseline speed (No JIT)"/>
<line x1="585.0769230769231" y1="457.4153340978275" x2="595.9230769230769" y2="457.4153340978275" stroke="#000"/>
<line x1="585.0769230769231" y1="457.78138299112516" x2="595.9230769230769" y2="457.78138299112516" stroke="#000"/>
<line x1="590.5" y1="457.4153340978275" x2="590.5" y2="457.78138299112516" stroke="#000"/>
<rect x="595.9230769230769" y="419.40262496769753" width="10.846153846153845" height="78.59737503230238" fill="orange" data-tooltip="1.95x baseline speed (YJIT)"/>
<line x1="595.9230769230769" y1="418.9591950144276" x2="606.7692307692307" y2="418.9591950144276" stroke="#000"/>
<line x1="595.9230769230769" y1="419.8460549209674" x2="606.7692307692307" y2="419.8460549209674" stroke="#000"/>
<line x1="601.3461538461538" y1="418.9591950144276" x2="601.3461538461538" y2="419.8460549209674" stroke="#000"/>
<line x1="601.3461538461538" y1="498.0" x2="601.3461538461538" y2="502.79999999999995" stroke="#000"/>
<text x="601.3461538461538" y="512.4" fill="#111" font-size="small" font-family="monospace" font-weight="bold" text-anchor="end" transform="rotate(-60, 601.3461538461538, 512.4)">
optcarrot
</text>
<rect x="617.6153846153845" y="457.5983585444763" width="10.846153846153845" height="40.401641455523645" fill="#7070f8" data-tooltip="1.00x baseline speed (No JIT)"/>
<line x1="617.6153846153845" y1="457.3961497152688" x2="628.4615384615385" y2="457.3961497152688" stroke="#000"/>
<line x1="617.6153846153845" y1="457.80056737368386" x2="628.4615384615385" y2="457.80056737368386" stroke="#000"/>
<line x1="623.0384615384615" y1="457.3961497152688" x2="623.0384615384615" y2="457.80056737368386" stroke="#000"/>
<rect x="628.4615384615385" y="426.11519941170974" width="10.846153846153845" height="71.88480058829022" fill="orange" data-tooltip="1.78x baseline speed (YJIT)"/>
<line x1="628.4615384615385" y1="425.6678055321086" x2="639.3076923076923" y2="425.6678055321086" stroke="#000"/>
<line x1="628.4615384615385" y1="426.56259329131086" x2="639.3076923076923" y2="426.56259329131086" stroke="#000"/>
<line x1="633.8846153846154" y1="425.6678055321086" x2="633.8846153846154" y2="426.56259329131086" stroke="#000"/>
<line x1="633.8846153846154" y1="498.0" x2="633.8846153846154" y2="502.79999999999995" stroke="#000"/>
<text x="633.8846153846154" y="512.4" fill="#111" font-size="small" font-family="monospace" font-weight="bold" text-anchor="end" transform="rotate(-60, 633.8846153846154, 512.4)">
rubykon
</text>
<rect x="650.1538461538461" y="457.5983585444763" width="10.846153846153845" height="40.401641455523645" fill="#7070f8" data-tooltip="1.00x baseline speed (No JIT)"/>
<line x1="650.1538461538461" y1="457.5859426830282" x2="660.9999999999999" y2="457.5859426830282" stroke="#000"/>
<line x1="650.1538461538461" y1="457.6107744059245" x2="660.9999999999999" y2="457.6107744059245" stroke="#000"/>
<line x1="655.5769230769231" y1="457.5859426830282" x2="655.5769230769231" y2="457.6107744059245" stroke="#000"/>
<rect x="660.9999999999999" y="271.1943705004545" width="10.846153846153845" height="226.80562949954543" fill="orange" data-tooltip="5.61x baseline speed (YJIT)"/>
<line x1="660.9999999999999" y1="270.9533208041314" x2="671.8461538461538" y2="270.9533208041314" stroke="#000"/>
<line x1="660.9999999999999" y1="271.4354201967776" x2="671.8461538461538" y2="271.4354201967776" stroke="#000"/>
<line x1="666.4230769230769" y1="270.9533208041314" x2="666.4230769230769" y2="271.4354201967776" stroke="#000"/>
<line x1="666.4230769230769" y1="498.0" x2="666.4230769230769" y2="502.79999999999995" stroke="#000"/>
<text x="666.4230769230769" y="512.4" fill="#111" font-size="small" font-family="monospace" font-weight="bold" text-anchor="end" transform="rotate(-60, 666.4230769230769, 512.4)">
30k_ifelse
</text>
<rect x="682.6923076923076" y="457.5983585444763" width="10.846153846153845" height="40.401641455523645" fill="#7070f8" data-tooltip="1.00x baseline speed (No JIT)"/>
<line x1="682.6923076923076" y1="457.5957394057829" x2="693.5384615384614" y2="457.5957394057829" stroke="#000"/>
<line x1="682.6923076923076" y1="457.60097768316973" x2="693.5384615384614" y2="457.60097768316973" stroke="#000"/>
<line x1="688.1153846153845" y1="457.5957394057829" x2="688.1153846153845" y2="457.60097768316973" stroke="#000"/>
<rect x="693.5384615384614" y="234.3212857513475" width="10.846153846153845" height="263.67871424865245" fill="orange" data-tooltip="6.53x baseline speed (YJIT)"/>
<line x1="693.5384615384614" y1="234.19006310636482" x2="704.3846153846152" y2="234.19006310636482" stroke="#000"/>
<line x1="693.5384615384614" y1="234.45250839633016" x2="704.3846153846152" y2="234.45250839633016" stroke="#000"/>
<line x1="698.9615384615385" y1="234.19006310636482" x2="698.9615384615385" y2="234.45250839633016" stroke="#000"/>
<line x1="698.9615384615385" y1="498.0" x2="698.9615384615385" y2="502.79999999999995" stroke="#000"/>
<text x="698.9615384615385" y="512.4" fill="#111" font-size="small" font-family="monospace" font-weight="bold" text-anchor="end" transform="rotate(-60, 698.9615384615385, 512.4)">
30k_methods
</text>
<rect x="715.2307692307692" y="457.5983585444763" width="10.846153846153845" height="40.401641455523645" fill="#7070f8" data-tooltip="1.00x baseline speed (No JIT)"/>
<line x1="715.2307692307692" y1="457.52451919280674" x2="726.0769230769231" y2="457.52451919280674" stroke="#000"/>
<line x1="715.2307692307692" y1="457.6721978961459" x2="726.0769230769231" y2="457.6721978961459" stroke="#000"/>
<line x1="720.6538461538462" y1="457.52451919280674" x2="720.6538461538462" y2="457.6721978961459" stroke="#000"/>
<rect x="726.0769230769231" y="393.94481572710043" width="10.846153846153845" height="104.05518427289955" fill="orange" data-tooltip="2.58x baseline speed (YJIT)"/>
<line x1="726.0769230769231" y1="393.62986103952784" x2="736.9230769230769" y2="393.62986103952784" stroke="#000"/>
<line x1="726.0769230769231" y1="394.25977041467297" x2="736.9230769230769" y2="394.25977041467297" stroke="#000"/>
<line x1="731.5" y1="393.62986103952784" x2="731.5" y2="394.25977041467297" stroke="#000"/>
<line x1="731.5" y1="498.0" x2="731.5" y2="502.79999999999995" stroke="#000"/>
<text x="731.5" y="512.4" fill="#111" font-size="small" font-family="monospace" font-weight="bold" text-anchor="end" transform="rotate(-60, 731.5, 512.4)">
cfunc_itself
</text>
<rect x="747.7692307692307" y="457.5983585444763" width="10.846153846153845" height="40.401641455523645" fill="#7070f8" data-tooltip="1.00x baseline speed (No JIT)"/>
<line x1="747.7692307692307" y1="457.56062700422757" x2="758.6153846153845" y2="457.56062700422757" stroke="#000"/>
<line x1="747.7692307692307" y1="457.6360900847251" x2="758.6153846153845" y2="457.6360900847251" stroke="#000"/>
<line x1="753.1923076923077" y1="457.56062700422757" x2="753.1923076923077" y2="457.6360900847251" stroke="#000"/>
<rect x="758.6153846153845" y="329.74170747963285" width="10.846153846153845" height="168.25829252036706" fill="orange" data-tooltip="4.16x baseline speed (YJIT)"/>
<line x1="758.6153846153845" y1="329.5524164014366" x2="769.4615384615385" y2="329.5524164014366" stroke="#000"/>
<line x1="758.6153846153845" y1="329.9309985578292" x2="769.4615384615385" y2="329.9309985578292" stroke="#000"/>
<line x1="764.0384615384615" y1="329.5524164014366" x2="764.0384615384615" y2="329.9309985578292" stroke="#000"/>
<line x1="764.0384615384615" y1="498.0" x2="764.0384615384615" y2="502.79999999999995" stroke="#000"/>
<text x="764.0384615384615" y="512.4" fill="#111" font-size="small" font-family="monospace" font-weight="bold" text-anchor="end" transform="rotate(-60, 764.0384615384615, 512.4)">
fib
</text>
<rect x="780.3076923076923" y="457.5983585444763" width="10.846153846153845" height="40.401641455523645" fill="#7070f8" data-tooltip="1.00x baseline speed (No JIT)"/>
<line x1="780.3076923076923" y1="457.32352677538586" x2="791.1538461538461" y2="457.32352677538586" stroke="#000"/>
<line x1="780.3076923076923" y1="457.8731903135668" x2="791.1538461538461" y2="457.8731903135668" stroke="#000"/>
<line x1="785.7307692307693" y1="457.32352677538586" x2="785.7307692307693" y2="457.8731903135668" stroke="#000"/>
<rect x="791.1538461538461" y="399.23515514153604" width="10.846153846153845" height="98.7648448584639" fill="orange" data-tooltip="2.44x baseline speed (YJIT)"/>
<line x1="791.1538461538461" y1="398.5611491202447" x2="801.9999999999999" y2="398.5611491202447" stroke="#000"/>
<line x1="791.1538461538461" y1="399.9091611628274" x2="801.9999999999999" y2="399.9091611628274" stroke="#000"/>
<line x1="796.5769230769231" y1="398.5611491202447" x2="796.5769230769231" y2="399.9091611628274" stroke="#000"/>
<line x1="796.5769230769231" y1="498.0" x2="796.5769230769231" y2="502.79999999999995" stroke="#000"/>
<text x="796.5769230769231" y="512.4" fill="#111" font-size="small" font-family="monospace" font-weight="bold" text-anchor="end" transform="rotate(-60, 796.5769230769231, 512.4)">
getivar
</text>
<rect x="812.8461538461538" y="457.5983585444763" width="10.846153846153845" height="40.401641455523645" fill="#7070f8" data-tooltip="1.00x baseline speed (No JIT)"/>
<line x1="812.8461538461538" y1="457.5499590411236" x2="823.6923076923076" y2="457.5499590411236" stroke="#000"/>
<line x1="812.8461538461538" y1="457.64675804782905" x2="823.6923076923076" y2="457.64675804782905" stroke="#000"/>
<line x1="818.2692307692307" y1="457.5499590411236" x2="818.2692307692307" y2="457.64675804782905" stroke="#000"/>
<rect x="823.6923076923076" y="275.9474864354273" width="10.846153846153845" height="222.05251356457265" fill="orange" data-tooltip="5.50x baseline speed (YJIT)"/>
<line x1="823.6923076923076" y1="275.3333120808069" x2="834.5384615384614" y2="275.3333120808069" stroke="#000"/>
<line x1="823.6923076923076" y1="276.5616607900477" x2="834.5384615384614" y2="276.5616607900477" stroke="#000"/>
<line x1="829.1153846153846" y1="275.3333120808069" x2="829.1153846153846" y2="276.5616607900477" stroke="#000"/>
<line x1="829.1153846153846" y1="498.0" x2="829.1153846153846" y2="502.79999999999995" stroke="#000"/>
<text x="829.1153846153846" y="512.4" fill="#111" font-size="small" font-family="monospace" font-weight="bold" text-anchor="end" transform="rotate(-60, 829.1153846153846, 512.4)">
keyword_args
</text>
<rect x="845.3846153846152" y="457.5983585444763" width="10.846153846153845" height="40.401641455523645" fill="#7070f8" data-tooltip="1.00x baseline speed (No JIT)"/>
<line x1="845.3846153846152" y1="457.479183541635" x2="856.2307692307692" y2="457.479183541635" stroke="#000"/>
<line x1="845.3846153846152" y1="457.71753354731766" x2="856.2307692307692" y2="457.71753354731766" stroke="#000"/>
<line x1="850.8076923076923" y1="457.479183541635" x2="850.8076923076923" y2="457.71753354731766" stroke="#000"/>
<rect x="856.2307692307692" y="100.19999999999999" width="10.846153846153845" height="397.79999999999995" fill="orange" data-tooltip="9.85x baseline speed (YJIT)"/>
<line x1="856.2307692307692" y1="98.16624793637388" x2="867.076923076923" y2="98.16624793637388" stroke="#000"/>
<line x1="856.2307692307692" y1="102.2337520636261" x2="867.076923076923" y2="102.2337520636261" stroke="#000"/>
<line x1="861.6538461538461" y1="98.16624793637388" x2="861.6538461538461" y2="102.2337520636261" stroke="#000"/>
<line x1="861.6538461538461" y1="498.0" x2="861.6538461538461" y2="502.79999999999995" stroke="#000"/>
<text x="861.6538461538461" y="512.4" fill="#111" font-size="small" font-family="monospace" font-weight="bold" text-anchor="end" transform="rotate(-60, 861.6538461538461, 512.4)">
respond_to
</text>
<rect x="877.9230769230768" y="457.5983585444763" width="10.846153846153845" height="40.401641455523645" fill="#7070f8" data-tooltip="1.00x baseline speed (No JIT)"/>
<line x1="877.9230769230768" y1="456.93924623545985" x2="888.7692307692306" y2="456.93924623545985" stroke="#000"/>
<line x1="877.9230769230768" y1="458.2574708534928" x2="888.7692307692306" y2="458.2574708534928" stroke="#000"/>
<line x1="883.3461538461538" y1="456.93924623545985" x2="883.3461538461538" y2="458.2574708534928" stroke="#000"/>
<rect x="888.7692307692306" y="425.8759355957162" width="10.846153846153845" height="72.1240644042838" fill="orange" data-tooltip="1.79x baseline speed (YJIT)"/>
<line x1="888.7692307692306" y1="424.6972312185473" x2="899.6153846153845" y2="424.6972312185473" stroke="#000"/>
<line x1="888.7692307692306" y1="427.0546399728851" x2="899.6153846153845" y2="427.0546399728851" stroke="#000"/>
<line x1="894.1923076923076" y1="424.6972312185473" x2="894.1923076923076" y2="427.0546399728851" stroke="#000"/>
<line x1="894.1923076923076" y1="498.0" x2="894.1923076923076" y2="502.79999999999995" stroke="#000"/>
<text x="894.1923076923076" y="512.4" fill="#111" font-size="small" font-family="monospace" font-weight="bold" text-anchor="end" transform="rotate(-60, 894.1923076923076, 512.4)">
setivar
</text>
<rect x="910.4615384615385" y="457.5983585444763" width="10.846153846153845" height="40.401641455523645" fill="#7070f8" data-tooltip="1.00x baseline speed (No JIT)"/>
<line x1="910.4615384615385" y1="457.1381033907865" x2="921.3076923076923" y2="457.1381033907865" stroke="#000"/>
<line x1="910.4615384615385" y1="458.05861369816614" x2="921.3076923076923" y2="458.05861369816614" stroke="#000"/>
<line x1="915.8846153846154" y1="457.1381033907865" x2="915.8846153846154" y2="458.05861369816614" stroke="#000"/>
<rect x="921.3076923076923" y="419.21297255585" width="10.846153846153845" height="78.78702744414994" fill="orange" data-tooltip="1.95x baseline speed (YJIT)"/>
<line x1="921.3076923076923" y1="417.46536281722814" x2="932.1538461538461" y2="417.46536281722814" stroke="#000"/>
<line x1="921.3076923076923" y1="420.96058229447186" x2="932.1538461538461" y2="420.96058229447186" stroke="#000"/>
<line x1="926.7307692307693" y1="417.46536281722814" x2="926.7307692307693" y2="420.96058229447186" stroke="#000"/>
<line x1="926.7307692307693" y1="498.0" x2="926.7307692307693" y2="502.79999999999995" stroke="#000"/>
<text x="926.7307692307693" y="512.4" fill="#111" font-size="small" font-family="monospace" font-weight="bold" text-anchor="end" transform="rotate(-60, 926.7307692307693, 512.4)">
str_concat
</text>
</svg>