<svg viewBox="0 0 1000 600" xmlns="http://www.w3.org/2000/svg" xmlns:xlink="http://www.w3.org/1999/xlink" width="100%" height="100%">

<rect x="50.0" y="30.0" width="940.0" height="467.99999999999994" stroke="#000" fill="#EEE"/>
<line x1="42.0" y1="497.9999999999999" x2="50.0" y2="497.9999999999999" stroke="#000"/>
<text x="26.000000000000004" y="497.9999999999999" text-anchor="end" font-weight="bold" font-size="small" fill="#111">
0.0
</text>
<line x1="42.0" y1="453.38763018286795" x2="50.0" y2="453.38763018286795" stroke="#000"/>
<text x="26.000000000000004" y="453.38763018286795" text-anchor="end" font-weight="bold" font-size="small" fill="#111">
0.2
</text>
<line x1="42.0" y1="408.7752603657359" x2="50.0" y2="408.7752603657359" stroke="#000"/>
<text x="26.000000000000004" y="408.7752603657359" text-anchor="end" font-weight="bold" font-size="small" fill="#111">
0.4
</text>
<line x1="42.0" y1="364.1628905486039" x2="50.0" y2="364.1628905486039" stroke="#000"/>
<text x="26.000000000000004" y="364.1628905486039" text-anchor="end" font-weight="bold" font-size="small" fill="#111">
0.6
</text>
<line x1="42.0" y1="319.5505207314719" x2="50.0" y2="319.5505207314719" stroke="#000"/>
<text x="26.000000000000004" y="319.5505207314719" text-anchor="end" font-weight="bold" font-size="small" fill="#111">
0.8
</text>
<line x1="42.0" y1="274.93815091434" x2="50.0" y2="274.93815091434" stroke="#000"/>
<text x="26.000000000000004" y="274.93815091434" text-anchor="end" font-weight="bold" font-size="small" fill="#111">
1.0
</text>
<line x1="42.0" y1="230.32578109720797" x2="50.0" y2="230.32578109720797" stroke="#000"/>
<text x="26.000000000000004" y="230.32578109720797" text-anchor="end" font-weight="bold" font-size="small" fill="#111">
1.2
</text>
<line x1="42.0" y1="185.71341128007595" x2="50.0" y2="185.71341128007595" stroke="#000"/>
<text x="26.000000000000004" y="185.71341128007595" text-anchor="end" font-weight="bold" font-size="small" fill="#111">
1.4
</text>
<line x1="42.0" y1="141.101041462944" x2="50.0" y2="141.101041462944" stroke="#000"/>
<text x="26.000000000000004" y="141.101041462944" text-anchor="end" font-weight="bold" font-size="small" fill="#111">
1.6
</text>
<rect x="268.5" y="36.00000000000001" width="80.0" height="18.0" fill="#7070f8" stroke="#888"/>
<text x="308.5" y="52.50000000000001" font-size="small" text-anchor="middle" font-weight="bold" fill="#EEE">
No JIT
</text>
<rect x="691.4999999999999" y="36.00000000000001" width="80.0" height="18.0" fill="orange" stroke="#888"/>
<text x="731.4999999999999" y="52.50000000000001" font-size="small" text-anchor="middle" font-weight="bold" fill="#EEE">
YJIT
</text>
<rect x="97.0" y="274.93815091434" width="35.25" height="223.06184908565996" fill="#7070f8" data-tooltip="1.00x baseline speed (No JIT)"/>
<line x1="97.0" y1="274.1124043755705" x2="132.25" y2="274.1124043755705" stroke="#000"/>
<line x1="97.0" y1="275.76389745310945" x2="132.25" y2="275.76389745310945" stroke="#000"/>
<line x1="114.625" y1="274.1124043755705" x2="114.625" y2="275.76389745310945" stroke="#000"/>
<rect x="132.25" y="139.17141339724236" width="35.25" height="358.8285866027575" fill="orange" data-tooltip="1.61x baseline speed (YJIT)"/>
<line x1="132.25" y1="136.67967416275172" x2="167.5" y2="136.67967416275172" stroke="#000"/>
<line x1="132.25" y1="141.66315263173303" x2="167.5" y2="141.66315263173303" stroke="#000"/>
<line x1="149.875" y1="136.67967416275172" x2="149.875" y2="141.66315263173303" stroke="#000"/>
<line x1="149.875" y1="498.0" x2="149.875" y2="502.79999999999995" stroke="#000"/>
<text x="149.875" y="512.4" fill="#111" font-size="small" font-family="monospace" font-weight="bold" text-anchor="end" transform="rotate(-60, 149.875, 512.4)">
activerecord
</text>
<rect x="202.75" y="274.93815091434" width="35.25" height="223.06184908565996" fill="#7070f8" data-tooltip="1.00x baseline speed (No JIT)"/>
<line x1="202.75" y1="272.622676785583" x2="238.0" y2="272.622676785583" stroke="#000"/>
<line x1="202.75" y1="277.2536250430969" x2="238.0" y2="277.2536250430969" stroke="#000"/>
<line x1="220.375" y1="272.622676785583" x2="220.375" y2="277.2536250430969" stroke="#000"/>
<rect x="238.0" y="158.90983679786734" width="35.25" height="339.09016320213254" fill="orange" data-tooltip="1.52x baseline speed (YJIT)"/>
<line x1="238.0" y1="150.96227445053754" x2="273.25" y2="150.96227445053754" stroke="#000"/>
<line x1="238.0" y1="166.85739914519715" x2="273.25" y2="166.85739914519715" stroke="#000"/>
<line x1="255.625" y1="150.96227445053754" x2="255.625" y2="166.85739914519715" stroke="#000"/>
<line x1="255.625" y1="498.0" x2="255.625" y2="502.79999999999995" stroke="#000"/>
<text x="255.625" y="512.4" fill="#111" font-size="small" font-family="monospace" font-weight="bold" text-anchor="end" transform="rotate(-60, 255.625, 512.4)">
hexapdf
</text>
<rect x="308.5" y="274.93815091434" width="35.25" height="223.06184908565996" fill="#7070f8" data-tooltip="1.00x baseline speed (No JIT)"/>
<line x1="308.5" y1="272.79665859252293" x2="343.75" y2="272.79665859252293" stroke="#000"/>
<line x1="308.5" y1="277.079643236157" x2="343.75" y2="277.079643236157" stroke="#000"/>
<line x1="326.125" y1="272.79665859252293" x2="326.125" y2="277.079643236157" stroke="#000"/>
<rect x="343.75" y="100.19999999999999" width="35.25" height="397.79999999999995" fill="orange" data-tooltip="1.78x baseline speed (YJIT)"/>
<line x1="343.75" y1="91.53239167203392" x2="379.0" y2="91.53239167203392" stroke="#000"/>
<line x1="343.75" y1="108.86760832796605" x2="379.0" y2="108.86760832796605" stroke="#000"/>
<line x1="361.375" y1="91.53239167203392" x2="361.375" y2="108.86760832796605" stroke="#000"/>
<line x1="361.375" y1="498.0" x2="361.375" y2="502.79999999999995" stroke="#000"/>
<text x="361.375" y="512.4" fill="#111" font-size="small" font-family="monospace" font-weight="bold" text-anchor="end" transform="rotate(-60, 361.375, 512.4)">
liquid-render
</text>
<rect x="414.25" y="274.93815091434" width="35.25" height="223.06184908565996" fill="#7070f8" data-tooltip="1.00x baseline speed (No JIT)"/>
<line x1="414.25" y1="274.08650886465074" x2="449.5" y2="274.08650886465074" stroke="#000"/>
<line x1="414.25" y1="275.78979296402923" x2="449.5" y2="275.78979296402923" stroke="#000"/>
<line x1="431.875" y1="274.08650886465074" x2="431.875" y2="275.78979296402923" stroke="#000"/>
<rect x="449.5" y="232.76675043773102" width="35.25" height="265.23324956226895" fill="orange" data-tooltip="1.19x baseline speed (YJIT)"/>
<line x1="449.5" y1="231.61092783787413" x2="484.75" y2="231.61092783787413" stroke="#000"/>
<line x1="449.5" y1="233.92257303758788" x2="484.75" y2="233.92257303758788" stroke="#000"/>
<line x1="467.125" y1="231.61092783787413" x2="467.125" y2="233.92257303758788" stroke="#000"/>
<line x1="467.125" y1="498.0" x2="467.125" y2="502.79999999999995" stroke="#000"/>
<text x="467.125" y="512.4" fill="#111" font-size="small" font-family="monospace" font-weight="bold" text-anchor="end" transform="rotate(-60, 467.125, 512.4)">
mail
</text>
<rect x="520.0" y="274.93815091434" width="35.25" height="223.06184908565996" fill="#7070f8" data-tooltip="1.00x baseline speed (No JIT)"/>
<line x1="520.0" y1="271.8925996616741" x2="555.25" y2="271.8925996616741" stroke="#000"/>
<line x1="520.0" y1="277.98370216700584" x2="555.25" y2="277.98370216700584" stroke="#000"/>
<line x1="537.625" y1="271.8925996616741" x2="537.625" y2="277.98370216700584" stroke="#000"/>
<rect x="555.25" y="175.74148336692792" width="35.25" height="322.2585166330721" fill="orange" data-tooltip="1.44x baseline speed (YJIT)"/>
<line x1="555.25" y1="171.33058918597396" x2="590.5" y2="171.33058918597396" stroke="#000"/>
<line x1="555.25" y1="180.15237754788188" x2="590.5" y2="180.15237754788188" stroke="#000"/>
<line x1="572.875" y1="171.33058918597396" x2="572.875" y2="180.15237754788188" stroke="#000"/>
<line x1="572.875" y1="498.0" x2="572.875" y2="502.79999999999995" stroke="#000"/>
<text x="572.875" y="512.4" fill="#111" font-size="small" font-family="monospace" font-weight="bold" text-anchor="end" transform="rotate(-60, 572.875, 512.4)">
psych-load
</text>
<rect x="625.7499999999999" y="274.93815091434" width="35.25" height="223.06184908565996" fill="#7070f8" data-tooltip="1.00x baseline speed (No JIT)"/>
<line x1="625.7499999999999" y1="272.94737728922047" x2="660.9999999999999" y2="272.94737728922047" stroke="#000"/>
<line x1="625.7499999999999" y1="276.9289245394595" x2="660.9999999999999" y2="276.9289245394595" stroke="#000"/>
<line x1="643.3749999999999" y1="272.94737728922047" x2="643.3749999999999" y2="276.9289245394595" stroke="#000"/>
<rect x="660.9999999999999" y="186.219794141548" width="35.25" height="311.780205858452" fill="orange" data-tooltip="1.40x baseline speed (YJIT)"/>
<line x1="660.9999999999999" y1="180.67217896374848" x2="696.2499999999999" y2="180.67217896374848" stroke="#000"/>
<line x1="660.9999999999999" y1="191.76740931934748" x2="696.2499999999999" y2="191.76740931934748" stroke="#000"/>
<line x1="678.6249999999999" y1="180.67217896374848" x2="678.6249999999999" y2="191.76740931934748" stroke="#000"/>
<line x1="678.6249999999999" y1="498.0" x2="678.6249999999999" y2="502.79999999999995" stroke="#000"/>
<text x="678.6249999999999" y="512.4" fill="#111" font-size="small" font-family="monospace" font-weight="bold" text-anchor="end" transform="rotate(-60, 678.6249999999999, 512.4)">
railsbench
</text>
<rect x="731.4999999999999" y="274.93815091434" width="35.25" height="223.06184908565996" fill="#7070f8" data-tooltip="1.00x baseline speed (No JIT)"/>
<line x1="731.4999999999999" y1="255.146157605715" x2="766.7499999999999" y2="255.146157605715" stroke="#000"/>
<line x1="731.4999999999999" y1="294.73014422296495" x2="766.7499999999999" y2="294.73014422296495" stroke="#000"/>
<line x1="749.1249999999999" y1="255.146157605715" x2="749.1249999999999" y2="294.73014422296495" stroke="#000"/>
<rect x="766.7499999999999" y="241.14340729474324" width="35.25" height="256.85659270525673" fill="orange" data-tooltip="1.15x baseline speed (YJIT)"/>
<line x1="766.7499999999999" y1="188.67036668840078" x2="801.9999999999999" y2="188.67036668840078" stroke="#000"/>
<line x1="766.7499999999999" y1="293.6164479010857" x2="801.9999999999999" y2="293.6164479010857" stroke="#000"/>
<line x1="784.3749999999999" y1="188.67036668840078" x2="784.3749999999999" y2="293.6164479010857" stroke="#000"/>
<line x1="784.3749999999999" y1="498.0" x2="784.3749999999999" y2="502.79999999999995" stroke="#000"/>
<text x="784.3749999999999" y="512.4" fill="#111" font-size="small" font-family="monospace" font-weight="bold" text-anchor="end" transform="rotate(-60, 784.3749999999999, 512.4)">
ruby-lsp
</text>
<rect x="837.2499999999999" y="274.93815091434" width="35.25" height="223.06184908565996" fill="#7070f8" data-tooltip="1.00x baseline speed (No JIT)"/>
<line x1="837.2499999999999" y1="271.7136610120023" x2="872.4999999999999" y2="271.7136610120023" stroke="#000"/>
<line x1="837.2499999999999" y1="278.16264081667765" x2="872.4999999999999" y2="278.16264081667765" stroke="#000"/>
<line x1="854.8749999999999" y1="271.7136610120023" x2="854.8749999999999" y2="278.16264081667765" stroke="#000"/>
<rect x="872.4999999999999" y="250.35561914784498" width="35.25" height="247.64438085215497" fill="orange" data-tooltip="1.11x baseline speed (YJIT)"/>
<line x1="872.4999999999999" y1="243.53939362463325" x2="907.75" y2="243.53939362463325" stroke="#000"/>
<line x1="872.4999999999999" y1="257.1718446710567" x2="907.75" y2="257.1718446710567" stroke="#000"/>
<line x1="890.125" y1="243.53939362463325" x2="890.125" y2="257.1718446710567" stroke="#000"/>
<line x1="890.125" y1="498.0" x2="890.125" y2="502.79999999999995" stroke="#000"/>
<text x="890.125" y="512.4" fill="#111" font-size="small" font-family="monospace" font-weight="bold" text-anchor="end" transform="rotate(-60, 890.125, 512.4)">
sequel
</text>
</svg>