<svg viewBox="0 0 1000 600" xmlns="http://www.w3.org/2000/svg" xmlns:xlink="http://www.w3.org/1999/xlink" width="100%" height="100%">

<rect x="50.0" y="30.0" width="940.0" height="467.99999999999994" stroke="#000" fill="#EEE"/>
<line x1="42.0" y1="497.9999999999999" x2="50.0" y2="497.9999999999999" stroke="#000"/>
<text x="26.000000000000004" y="497.9999999999999" text-anchor="end" font-weight="bold" font-size="small" fill="#111">
0.0
</text>
<line x1="42.0" y1="444.7350223051568" x2="50.0" y2="444.7350223051568" stroke="#000"/>
<text x="26.000000000000004" y="444.7350223051568" text-anchor="end" font-weight="bold" font-size="small" fill="#111">
1.0
</text>
<line x1="42.0" y1="391.4700446103136" x2="50.0" y2="391.4700446103136" stroke="#000"/>
<text x="26.000000000000004" y="391.4700446103136" text-anchor="end" font-weight="bold" font-size="small" fill="#111">
2.0
</text>
<line x1="42.0" y1="338.20506691547047" x2="50.0" y2="338.20506691547047" stroke="#000"/>
<text x="26.000000000000004" y="338.20506691547047" text-anchor="end" font-weight="bold" font-size="small" fill="#111">
3.0
</text>
<line x1="42.0" y1="284.9400892206273" x2="50.0" y2="284.9400892206273" stroke="#000"/>
<text x="26.000000000000004" y="284.9400892206273" text-anchor="end" font-weight="bold" font-size="small" fill="#111">
4.0
</text>
<line x1="42.0" y1="231.67511152578416" x2="50.0" y2="231.67511152578416" stroke="#000"/>
<text x="26.000000000000004" y="231.67511152578416" text-anchor="end" font-weight="bold" font-size="small" fill="#111">
5.0
</text>
<line x1="42.0" y1="178.410133830941" x2="50.0" y2="178.410133830941" stroke="#000"/>
<text x="26.000000000000004" y="178.410133830941" text-anchor="end" font-weight="bold" font-size="small" fill="#111">
6.0
</text>
<line x1="42.0" y1="125.14515613609784" x2="50.0" y2="125.14515613609784" stroke="#000"/>
<text x="26.000000000000004" y="125.14515613609784" text-anchor="end" font-weight="bold" font-size="small" fill="#111">
7.0
</text>
<rect x="162.74999999999997" y="36.00000000000001" width="80.0" height="18.0" fill="#7070f8" stroke="#888"/>
<text x="202.75" y="52.50000000000001" font-size="small" text-anchor="middle" font-weight="bold" fill="#EEE">
No JIT
</text>
<rect x="374.25" y="36.00000000000001" width="80.0" height="18.0" fill="orange" stroke="#888"/>
<text x="414.25" y="52.50000000000001" font-size="small" text-anchor="middle" font-weight="bold" fill="#EEE">
MJIT3.0
</text>
<rect x="585.7499999999999" y="36.00000000000001" width="80.0" height="18.0" fill="green" stroke="#888"/>
<text x="625.7499999999999" y="52.50000000000001" font-size="small" text-anchor="middle" font-weight="bold" fill="#EEE">
MJIT
</text>
<rect x="797.2499999999999" y="36.00000000000001" width="80.0" height="18.0" fill="#4F3A7A" stroke="#888"/>
<text x="837.2499999999999" y="52.50000000000001" font-size="small" text-anchor="middle" font-weight="bold" fill="#EEE">
YJIT
</text>
<rect x="97.0" y="444.7350223051568" width="7.356521739130435" height="53.26497769484316" fill="#7070f8" data-tooltip="1.00x baseline speed (No JIT)"/>
<line x1="97.0" y1="444.5433084765563" x2="104.35652173913043" y2="444.5433084765563" stroke="#000"/>
<line x1="97.0" y1="444.9267361337573" x2="104.35652173913043" y2="444.9267361337573" stroke="#000"/>
<line x1="100.67826086956522" y1="444.5433084765563" x2="100.67826086956522" y2="444.9267361337573" stroke="#000"/>
<rect x="104.35652173913043" y="449.07353117494756" width="7.356521739130435" height="48.92646882505237" fill="orange" data-tooltip="0.92x baseline speed (MJIT3.0)"/>
<line x1="104.35652173913043" y1="447.68877387104936" x2="111.71304347826086" y2="447.68877387104936" stroke="#000"/>
<line x1="104.35652173913043" y1="450.45828847884576" x2="111.71304347826086" y2="450.45828847884576" stroke="#000"/>
<line x1="108.03478260869565" y1="447.68877387104936" x2="108.03478260869565" y2="450.45828847884576" stroke="#000"/>
<rect x="111.71304347826087" y="450.5784934280734" width="7.356521739130435" height="47.421506571926486" fill="green" data-tooltip="0.89x baseline speed (MJIT)"/>
<line x1="111.71304347826087" y1="449.027725038518" x2="119.06956521739131" y2="449.027725038518" stroke="#000"/>
<line x1="111.71304347826087" y1="452.1292618176288" x2="119.06956521739131" y2="452.1292618176288" stroke="#000"/>
<line x1="115.3913043478261" y1="449.027725038518" x2="115.3913043478261" y2="452.1292618176288" stroke="#000"/>
<rect x="119.06956521739131" y="425.57227566973995" width="7.356521739130435" height="72.42772433025999" fill="#4F3A7A" data-tooltip="1.36x baseline speed (YJIT)"/>
<line x1="119.06956521739131" y1="425.1192318253766" x2="126.42608695652174" y2="425.1192318253766" stroke="#000"/>
<line x1="119.06956521739131" y1="426.02531951410333" x2="126.42608695652174" y2="426.02531951410333" stroke="#000"/>
<line x1="122.74782608695654" y1="425.1192318253766" x2="122.74782608695654" y2="426.02531951410333" stroke="#000"/>
<line x1="115.3913043478261" y1="498.0" x2="115.3913043478261" y2="502.79999999999995" stroke="#000"/>
<text x="115.3913043478261" y="512.4" fill="#111" font-size="small" font-family="monospace" font-weight="bold" text-anchor="end" transform="rotate(-60, 115.3913043478261, 512.4)">
activerecord
</text>
<rect x="133.7826086956522" y="444.7350223051568" width="7.356521739130435" height="53.26497769484316" fill="#7070f8" data-tooltip="1.00x baseline speed (No JIT)"/>
<line x1="133.7826086956522" y1="444.3839074917011" x2="141.1391304347826" y2="444.3839074917011" stroke="#000"/>
<line x1="133.7826086956522" y1="445.0861371186125" x2="141.1391304347826" y2="445.0861371186125" stroke="#000"/>
<line x1="137.4608695652174" y1="444.3839074917011" x2="137.4608695652174" y2="445.0861371186125" stroke="#000"/>
<rect x="141.1391304347826" y="444.25068938986124" width="7.356521739130435" height="53.74931061013873" fill="orange" data-tooltip="1.01x baseline speed (MJIT3.0)"/>
<line x1="141.1391304347826" y1="443.3296242960931" x2="148.49565217391302" y2="443.3296242960931" stroke="#000"/>
<line x1="141.1391304347826" y1="445.1717544836294" x2="148.49565217391302" y2="445.1717544836294" stroke="#000"/>
<line x1="144.8173913043478" y1="443.3296242960931" x2="144.8173913043478" y2="445.1717544836294" stroke="#000"/>
<rect x="155.8521739130435" y="424.92246923737025" width="7.356521739130435" height="73.0775307626297" fill="#4F3A7A" data-tooltip="1.37x baseline speed (YJIT)"/>
<line x1="155.8521739130435" y1="423.8965945269455" x2="163.2086956521739" y2="423.8965945269455" stroke="#000"/>
<line x1="155.8521739130435" y1="425.9483439477951" x2="163.2086956521739" y2="425.9483439477951" stroke="#000"/>
<line x1="159.5304347826087" y1="423.8965945269455" x2="159.5304347826087" y2="425.9483439477951" stroke="#000"/>
<line x1="152.17391304347828" y1="498.0" x2="152.17391304347828" y2="502.79999999999995" stroke="#000"/>
<text x="152.17391304347828" y="512.4" fill="#111" font-size="small" font-family="monospace" font-weight="bold" text-anchor="end" transform="rotate(-60, 152.17391304347828, 512.4)">
hexapdf
</text>
<rect x="170.56521739130437" y="444.7350223051568" width="7.356521739130435" height="53.26497769484316" fill="#7070f8" data-tooltip="1.00x baseline speed (No JIT)"/>
<line x1="170.56521739130437" y1="444.12177943535715" x2="177.9217391304348" y2="444.12177943535715" stroke="#000"/>
<line x1="170.56521739130437" y1="445.34826517495645" x2="177.9217391304348" y2="445.34826517495645" stroke="#000"/>
<line x1="174.24347826086958" y1="444.12177943535715" x2="174.24347826086958" y2="445.34826517495645" stroke="#000"/>
<rect x="177.9217391304348" y="445.26419330993303" width="7.356521739130435" height="52.73580669006687" fill="orange" data-tooltip="0.99x baseline speed (MJIT3.0)"/>
<line x1="177.9217391304348" y1="443.92356549401626" x2="185.27826086956523" y2="443.92356549401626" stroke="#000"/>
<line x1="177.9217391304348" y1="446.6048211258498" x2="185.27826086956523" y2="446.6048211258498" stroke="#000"/>
<line x1="181.60000000000002" y1="443.92356549401626" x2="181.60000000000002" y2="446.6048211258498" stroke="#000"/>
<rect x="185.27826086956523" y="442.20517978142385" width="7.356521739130435" height="55.79482021857617" fill="green" data-tooltip="1.05x baseline speed (MJIT)"/>
<line x1="185.27826086956523" y1="441.11312063574115" x2="192.63478260869564" y2="441.11312063574115" stroke="#000"/>
<line x1="185.27826086956523" y1="443.29723892710655" x2="192.63478260869564" y2="443.29723892710655" stroke="#000"/>
<line x1="188.95652173913044" y1="441.11312063574115" x2="188.95652173913044" y2="443.29723892710655" stroke="#000"/>
<rect x="192.63478260869567" y="418.22244900531206" width="7.356521739130435" height="79.77755099468783" fill="#4F3A7A" data-tooltip="1.50x baseline speed (YJIT)"/>
<line x1="192.63478260869567" y1="416.44085047114373" x2="199.99130434782612" y2="416.44085047114373" stroke="#000"/>
<line x1="192.63478260869567" y1="420.0040475394803" x2="199.99130434782612" y2="420.0040475394803" stroke="#000"/>
<line x1="196.3130434782609" y1="416.44085047114373" x2="196.3130434782609" y2="420.0040475394803" stroke="#000"/>
<line x1="188.95652173913047" y1="498.0" x2="188.95652173913047" y2="502.79999999999995" stroke="#000"/>
<text x="188.95652173913047" y="512.4" fill="#111" font-size="small" font-family="monospace" font-weight="bold" text-anchor="end" transform="rotate(-60, 188.95652173913047, 512.4)">
liquid-render
</text>
<rect x="207.34782608695653" y="444.7350223051568" width="7.356521739130435" height="53.26497769484316" fill="#7070f8" data-tooltip="1.00x baseline speed (No JIT)"/>
<line x1="207.34782608695653" y1="444.665755377896" x2="214.70434782608697" y2="444.665755377896" stroke="#000"/>
<line x1="207.34782608695653" y1="444.8042892324176" x2="214.70434782608697" y2="444.8042892324176" stroke="#000"/>
<line x1="211.02608695652177" y1="444.665755377896" x2="211.02608695652177" y2="444.8042892324176" stroke="#000"/>
<rect x="214.70434782608697" y="442.08765889639824" width="7.356521739130435" height="55.912341103601726" fill="orange" data-tooltip="1.05x baseline speed (MJIT3.0)"/>
<line x1="214.70434782608697" y1="441.818988606303" x2="222.0608695652174" y2="441.818988606303" stroke="#000"/>
<line x1="214.70434782608697" y1="442.3563291864935" x2="222.0608695652174" y2="442.3563291864935" stroke="#000"/>
<line x1="218.38260869565218" y1="441.818988606303" x2="218.38260869565218" y2="442.3563291864935" stroke="#000"/>
<rect x="222.06086956521742" y="443.66193050425824" width="7.356521739130435" height="54.338069495741664" fill="green" data-tooltip="1.02x baseline speed (MJIT)"/>
<line x1="222.06086956521742" y1="443.0520994185485" x2="229.41739130434786" y2="443.0520994185485" stroke="#000"/>
<line x1="222.06086956521742" y1="444.2717615899679" x2="229.41739130434786" y2="444.2717615899679" stroke="#000"/>
<line x1="225.73913043478262" y1="443.0520994185485" x2="225.73913043478262" y2="444.2717615899679" stroke="#000"/>
<rect x="229.41739130434786" y="437.62665856064183" width="7.356521739130435" height="60.373341439358086" fill="#4F3A7A" data-tooltip="1.13x baseline speed (YJIT)"/>
<line x1="229.41739130434786" y1="437.3941214327531" x2="236.77391304347827" y2="437.3941214327531" stroke="#000"/>
<line x1="229.41739130434786" y1="437.8591956885306" x2="236.77391304347827" y2="437.8591956885306" stroke="#000"/>
<line x1="233.09565217391307" y1="437.3941214327531" x2="233.09565217391307" y2="437.8591956885306" stroke="#000"/>
<line x1="225.73913043478262" y1="498.0" x2="225.73913043478262" y2="502.79999999999995" stroke="#000"/>
<text x="225.73913043478262" y="512.4" fill="#111" font-size="small" font-family="monospace" font-weight="bold" text-anchor="end" transform="rotate(-60, 225.73913043478262, 512.4)">
mail
</text>
<rect x="244.13043478260872" y="444.7350223051568" width="7.356521739130435" height="53.26497769484316" fill="#7070f8" data-tooltip="1.00x baseline speed (No JIT)"/>
<line x1="244.13043478260872" y1="443.80542944566514" x2="251.48695652173913" y2="443.80542944566514" stroke="#000"/>
<line x1="244.13043478260872" y1="445.66461516464847" x2="251.48695652173913" y2="445.66461516464847" stroke="#000"/>
<line x1="247.80869565217392" y1="443.80542944566514" x2="247.80869565217392" y2="445.66461516464847" stroke="#000"/>
<rect x="251.48695652173913" y="443.3218459601756" width="7.356521739130435" height="54.678154039824406" fill="orange" data-tooltip="1.03x baseline speed (MJIT3.0)"/>
<line x1="251.48695652173913" y1="442.3664685077538" x2="258.8434782608696" y2="442.3664685077538" stroke="#000"/>
<line x1="251.48695652173913" y1="444.2772234125974" x2="258.8434782608696" y2="444.2772234125974" stroke="#000"/>
<line x1="255.16521739130437" y1="442.3664685077538" x2="255.16521739130437" y2="444.2772234125974" stroke="#000"/>
<rect x="258.8434782608696" y="436.56217622095596" width="7.356521739130435" height="61.43782377904396" fill="green" data-tooltip="1.15x baseline speed (MJIT)"/>
<line x1="258.8434782608696" y1="435.48954056970933" x2="266.2" y2="435.48954056970933" stroke="#000"/>
<line x1="258.8434782608696" y1="437.63481187220265" x2="266.2" y2="437.63481187220265" stroke="#000"/>
<line x1="262.5217391304348" y1="435.48954056970933" x2="262.5217391304348" y2="437.63481187220265" stroke="#000"/>
<rect x="266.2" y="428.46371100766964" width="7.356521739130435" height="69.53628899233027" fill="#4F3A7A" data-tooltip="1.31x baseline speed (YJIT)"/>
<line x1="266.2" y1="427.2485643202776" x2="273.5565217391304" y2="427.2485643202776" stroke="#000"/>
<line x1="266.2" y1="429.6788576950617" x2="273.5565217391304" y2="429.6788576950617" stroke="#000"/>
<line x1="269.8782608695652" y1="427.2485643202776" x2="269.8782608695652" y2="429.6788576950617" stroke="#000"/>
<line x1="262.5217391304348" y1="498.0" x2="262.5217391304348" y2="502.79999999999995" stroke="#000"/>
<text x="262.5217391304348" y="512.4" fill="#111" font-size="small" font-family="monospace" font-weight="bold" text-anchor="end" transform="rotate(-60, 262.5217391304348, 512.4)">
psych-load
</text>
<rect x="280.9130434782609" y="444.7350223051568" width="7.356521739130435" height="53.26497769484316" fill="#7070f8" data-tooltip="1.00x baseline speed (No JIT)"/>
<line x1="280.9130434782609" y1="444.19161490748496" x2="288.2695652173913" y2="444.19161490748496" stroke="#000"/>
<line x1="280.9130434782609" y1="445.27842970282865" x2="288.2695652173913" y2="445.27842970282865" stroke="#000"/>
<line x1="284.5913043478261" y1="444.19161490748496" x2="284.5913043478261" y2="445.27842970282865" stroke="#000"/>
<rect x="288.2695652173913" y="450.4409192113615" width="7.356521739130435" height="47.5590807886385" fill="orange" data-tooltip="0.89x baseline speed (MJIT3.0)"/>
<line x1="288.2695652173913" y1="449.77982703037827" x2="295.6260869565217" y2="449.77982703037827" stroke="#000"/>
<line x1="288.2695652173913" y1="451.10201139234476" x2="295.6260869565217" y2="451.10201139234476" stroke="#000"/>
<line x1="291.9478260869565" y1="449.77982703037827" x2="291.9478260869565" y2="451.10201139234476" stroke="#000"/>
<rect x="295.6260869565217" y="450.28664233895654" width="7.356521739130435" height="47.71335766104335" fill="green" data-tooltip="0.90x baseline speed (MJIT)"/>
<line x1="295.6260869565217" y1="449.56252097172234" x2="302.9826086956521" y2="449.56252097172234" stroke="#000"/>
<line x1="295.6260869565217" y1="451.0107637061908" x2="302.9826086956521" y2="451.0107637061908" stroke="#000"/>
<line x1="299.30434782608694" y1="449.56252097172234" x2="299.30434782608694" y2="451.0107637061908" stroke="#000"/>
<rect x="302.9826086956521" y="429.94641463945436" width="7.356521739130435" height="68.05358536054551" fill="#4F3A7A" data-tooltip="1.28x baseline speed (YJIT)"/>
<line x1="302.9826086956521" y1="428.75463203606665" x2="310.3391304347826" y2="428.75463203606665" stroke="#000"/>
<line x1="302.9826086956521" y1="431.13819724284207" x2="310.3391304347826" y2="431.13819724284207" stroke="#000"/>
<line x1="306.66086956521735" y1="428.75463203606665" x2="306.66086956521735" y2="431.13819724284207" stroke="#000"/>
<line x1="299.30434782608694" y1="498.0" x2="299.30434782608694" y2="502.79999999999995" stroke="#000"/>
<text x="299.30434782608694" y="512.4" fill="#111" font-size="small" font-family="monospace" font-weight="bold" text-anchor="end" transform="rotate(-60, 299.30434782608694, 512.4)">
railsbench
</text>
<rect x="317.69565217391306" y="444.7350223051568" width="7.356521739130435" height="53.26497769484316" fill="#7070f8" data-tooltip="1.00x baseline speed (No JIT)"/>
<line x1="317.69565217391306" y1="444.714916328541" x2="325.0521739130435" y2="444.714916328541" stroke="#000"/>
<line x1="317.69565217391306" y1="444.7551282817726" x2="325.0521739130435" y2="444.7551282817726" stroke="#000"/>
<line x1="321.3739130434783" y1="444.714916328541" x2="321.3739130434783" y2="444.7551282817726" stroke="#000"/>
<rect x="325.0521739130435" y="409.69946439658656" width="7.356521739130435" height="88.30053560341335" fill="orange" data-tooltip="1.66x baseline speed (MJIT3.0)"/>
<line x1="325.0521739130435" y1="409.47359406502613" x2="332.4086956521739" y2="409.47359406502613" stroke="#000"/>
<line x1="325.0521739130435" y1="409.925334728147" x2="332.4086956521739" y2="409.925334728147" stroke="#000"/>
<line x1="328.7304347826087" y1="409.47359406502613" x2="328.7304347826087" y2="409.925334728147" stroke="#000"/>
<rect x="332.4086956521739" y="415.95933099850663" width="7.356521739130435" height="82.04066900149337" fill="green" data-tooltip="1.54x baseline speed (MJIT)"/>
<line x1="332.4086956521739" y1="414.9028041663352" x2="339.7652173913043" y2="414.9028041663352" stroke="#000"/>
<line x1="332.4086956521739" y1="417.01585783067804" x2="339.7652173913043" y2="417.01585783067804" stroke="#000"/>
<line x1="336.0869565217391" y1="414.9028041663352" x2="336.0869565217391" y2="417.01585783067804" stroke="#000"/>
<rect x="339.7652173913043" y="427.4170026185838" width="7.356521739130435" height="70.58299738141613" fill="#4F3A7A" data-tooltip="1.33x baseline speed (YJIT)"/>
<line x1="339.7652173913043" y1="427.2993462332613" x2="347.1217391304348" y2="427.2993462332613" stroke="#000"/>
<line x1="339.7652173913043" y1="427.53465900390637" x2="347.1217391304348" y2="427.53465900390637" stroke="#000"/>
<line x1="343.4434782608696" y1="427.2993462332613" x2="343.4434782608696" y2="427.53465900390637" stroke="#000"/>
<line x1="336.0869565217391" y1="498.0" x2="336.0869565217391" y2="502.79999999999995" stroke="#000"/>
<text x="336.0869565217391" y="512.4" fill="#111" font-size="small" font-family="monospace" font-weight="bold" text-anchor="end" transform="rotate(-60, 336.0869565217391, 512.4)">
binarytrees
</text>
<rect x="354.47826086956525" y="444.7350223051568" width="7.356521739130435" height="53.26497769484316" fill="#7070f8" data-tooltip="1.00x baseline speed (No JIT)"/>
<line x1="354.47826086956525" y1="437.555074113359" x2="361.83478260869566" y2="437.555074113359" stroke="#000"/>
<line x1="354.47826086956525" y1="451.9149704969546" x2="361.83478260869566" y2="451.9149704969546" stroke="#000"/>
<line x1="358.1565217391305" y1="437.555074113359" x2="358.1565217391305" y2="451.9149704969546" stroke="#000"/>
<rect x="361.83478260869566" y="443.96702707142424" width="7.356521739130435" height="54.0329729285757" fill="orange" data-tooltip="1.01x baseline speed (MJIT3.0)"/>
<line x1="361.83478260869566" y1="436.64952210084635" x2="369.1913043478261" y2="436.64952210084635" stroke="#000"/>
<line x1="361.83478260869566" y1="451.28453204200207" x2="369.1913043478261" y2="451.28453204200207" stroke="#000"/>
<line x1="365.5130434782609" y1="436.64952210084635" x2="365.5130434782609" y2="451.28453204200207" stroke="#000"/>
<rect x="369.1913043478261" y="446.7199627423755" width="7.356521739130435" height="51.2800372576244" fill="green" data-tooltip="0.96x baseline speed (MJIT)"/>
<line x1="369.1913043478261" y1="437.1371014338341" x2="376.54782608695655" y2="437.1371014338341" stroke="#000"/>
<line x1="369.1913043478261" y1="456.3028240509169" x2="376.54782608695655" y2="456.3028240509169" stroke="#000"/>
<line x1="372.86956521739137" y1="437.1371014338341" x2="372.86956521739137" y2="456.3028240509169" stroke="#000"/>
<rect x="376.54782608695655" y="447.9274721328073" width="7.356521739130435" height="50.07252786719266" fill="#4F3A7A" data-tooltip="0.94x baseline speed (YJIT)"/>
<line x1="376.54782608695655" y1="438.1876847069213" x2="383.90434782608696" y2="438.1876847069213" stroke="#000"/>
<line x1="376.54782608695655" y1="457.6672595586932" x2="383.90434782608696" y2="457.6672595586932" stroke="#000"/>
<line x1="380.2260869565218" y1="438.1876847069213" x2="380.2260869565218" y2="457.6672595586932" stroke="#000"/>
<line x1="372.86956521739137" y1="498.0" x2="372.86956521739137" y2="502.79999999999995" stroke="#000"/>
<text x="372.86956521739137" y="512.4" fill="#111" font-size="small" font-family="monospace" font-weight="bold" text-anchor="end" transform="rotate(-60, 372.86956521739137, 512.4)">
discourse
</text>
<rect x="391.26086956521743" y="444.7350223051568" width="7.356521739130435" height="53.26497769484316" fill="#7070f8" data-tooltip="1.00x baseline speed (No JIT)"/>
<line x1="391.26086956521743" y1="444.3808410807883" x2="398.61739130434785" y2="444.3808410807883" stroke="#000"/>
<line x1="391.26086956521743" y1="445.0892035295253" x2="398.61739130434785" y2="445.0892035295253" stroke="#000"/>
<line x1="394.93913043478267" y1="444.3808410807883" x2="394.93913043478267" y2="445.0892035295253" stroke="#000"/>
<rect x="398.61739130434785" y="445.4663692617336" width="7.356521739130435" height="52.533630738266396" fill="orange" data-tooltip="0.99x baseline speed (MJIT3.0)"/>
<line x1="398.61739130434785" y1="444.9367073452563" x2="405.9739130434783" y2="444.9367073452563" stroke="#000"/>
<line x1="398.61739130434785" y1="445.9960311782109" x2="405.9739130434783" y2="445.9960311782109" stroke="#000"/>
<line x1="402.2956521739131" y1="444.9367073452563" x2="402.2956521739131" y2="445.9960311782109" stroke="#000"/>
<rect x="405.9739130434783" y="440.8197940617828" width="7.356521739130435" height="57.18020593821707" fill="green" data-tooltip="1.07x baseline speed (MJIT)"/>
<line x1="405.9739130434783" y1="440.25884199577956" x2="413.33043478260873" y2="440.25884199577956" stroke="#000"/>
<line x1="405.9739130434783" y1="441.38074612778604" x2="413.33043478260873" y2="441.38074612778604" stroke="#000"/>
<line x1="409.65217391304355" y1="440.25884199577956" x2="409.65217391304355" y2="441.38074612778604" stroke="#000"/>
<rect x="413.33043478260873" y="438.9572431978996" width="7.356521739130435" height="59.04275680210042" fill="#4F3A7A" data-tooltip="1.11x baseline speed (YJIT)"/>
<line x1="413.33043478260873" y1="438.31317619398067" x2="420.68695652173915" y2="438.31317619398067" stroke="#000"/>
<line x1="413.33043478260873" y1="439.6013102018185" x2="420.68695652173915" y2="439.6013102018185" stroke="#000"/>
<line x1="417.00869565217397" y1="438.31317619398067" x2="417.00869565217397" y2="439.6013102018185" stroke="#000"/>
<line x1="409.65217391304355" y1="498.0" x2="409.65217391304355" y2="502.79999999999995" stroke="#000"/>
<text x="409.65217391304355" y="512.4" fill="#111" font-size="small" font-family="monospace" font-weight="bold" text-anchor="end" transform="rotate(-60, 409.65217391304355, 512.4)">
erubi
</text>
<rect x="428.0434782608696" y="444.7350223051568" width="7.356521739130435" height="53.26497769484316" fill="#7070f8" data-tooltip="1.00x baseline speed (No JIT)"/>
<line x1="428.0434782608696" y1="443.4973685603648" x2="435.4000000000001" y2="443.4973685603648" stroke="#000"/>
<line x1="428.0434782608696" y1="445.9726760499488" x2="435.4000000000001" y2="445.9726760499488" stroke="#000"/>
<line x1="431.72173913043486" y1="443.4973685603648" x2="431.72173913043486" y2="445.9726760499488" stroke="#000"/>
<rect x="435.4000000000001" y="450.9327395764667" width="7.356521739130435" height="47.06726042353314" fill="orange" data-tooltip="0.88x baseline speed (MJIT3.0)"/>
<line x1="435.4000000000001" y1="449.0374114151046" x2="442.7565217391305" y2="449.0374114151046" stroke="#000"/>
<line x1="435.4000000000001" y1="452.8280677378288" x2="442.7565217391305" y2="452.8280677378288" stroke="#000"/>
<line x1="439.0782608695653" y1="449.0374114151046" x2="439.0782608695653" y2="452.8280677378288" stroke="#000"/>
<rect x="442.7565217391305" y="448.0565086471988" width="7.356521739130435" height="49.94349135280114" fill="green" data-tooltip="0.94x baseline speed (MJIT)"/>
<line x1="442.7565217391305" y1="445.72341243010135" x2="450.1130434782609" y2="445.72341243010135" stroke="#000"/>
<line x1="442.7565217391305" y1="450.38960486429625" x2="450.1130434782609" y2="450.38960486429625" stroke="#000"/>
<line x1="446.43478260869574" y1="445.72341243010135" x2="446.43478260869574" y2="450.38960486429625" stroke="#000"/>
<rect x="450.1130434782609" y="426.756841203327" width="7.356521739130435" height="71.243158796673" fill="#4F3A7A" data-tooltip="1.34x baseline speed (YJIT)"/>
<line x1="450.1130434782609" y1="423.84465102377806" x2="457.46956521739133" y2="423.84465102377806" stroke="#000"/>
<line x1="450.1130434782609" y1="429.6690313828759" x2="457.46956521739133" y2="429.6690313828759" stroke="#000"/>
<line x1="453.79130434782616" y1="423.84465102377806" x2="453.79130434782616" y2="429.6690313828759" stroke="#000"/>
<line x1="446.43478260869574" y1="498.0" x2="446.43478260869574" y2="502.79999999999995" stroke="#000"/>
<text x="446.43478260869574" y="512.4" fill="#111" font-size="small" font-family="monospace" font-weight="bold" text-anchor="end" transform="rotate(-60, 446.43478260869574, 512.4)">
erubi_rails
</text>
<rect x="464.82608695652175" y="444.7350223051568" width="7.356521739130435" height="53.26497769484316" fill="#7070f8" data-tooltip="1.00x baseline speed (No JIT)"/>
<line x1="464.82608695652175" y1="444.7092198191831" x2="472.18260869565216" y2="444.7092198191831" stroke="#000"/>
<line x1="464.82608695652175" y1="444.7608247911305" x2="472.18260869565216" y2="444.7608247911305" stroke="#000"/>
<line x1="468.504347826087" y1="444.7092198191831" x2="468.504347826087" y2="444.7608247911305" stroke="#000"/>
<rect x="472.18260869565216" y="338.5766125347453" width="7.356521739130435" height="159.42338746525462" fill="orange" data-tooltip="2.99x baseline speed (MJIT3.0)"/>
<line x1="472.18260869565216" y1="338.4119531809516" x2="479.5391304347826" y2="338.4119531809516" stroke="#000"/>
<line x1="472.18260869565216" y1="338.741271888539" x2="479.5391304347826" y2="338.741271888539" stroke="#000"/>
<line x1="475.8608695652174" y1="338.4119531809516" x2="475.8608695652174" y2="338.741271888539" stroke="#000"/>
<rect x="479.5391304347826" y="402.8168637597428" width="7.356521739130435" height="95.1831362402572" fill="green" data-tooltip="1.79x baseline speed (MJIT)"/>
<line x1="479.5391304347826" y1="402.3442421141418" x2="486.895652173913" y2="402.3442421141418" stroke="#000"/>
<line x1="479.5391304347826" y1="403.2894854053437" x2="486.895652173913" y2="403.2894854053437" stroke="#000"/>
<line x1="483.2173913043478" y1="402.3442421141418" x2="483.2173913043478" y2="403.2894854053437" stroke="#000"/>
<rect x="486.895652173913" y="444.76254335943486" width="7.356521739130435" height="53.237456640565114" fill="#4F3A7A" data-tooltip="1.00x baseline speed (YJIT)"/>
<line x1="486.895652173913" y1="444.7227735476027" x2="494.2521739130434" y2="444.7227735476027" stroke="#000"/>
<line x1="486.895652173913" y1="444.802313171267" x2="494.2521739130434" y2="444.802313171267" stroke="#000"/>
<line x1="490.5739130434782" y1="444.7227735476027" x2="490.5739130434782" y2="444.802313171267" stroke="#000"/>
<line x1="483.2173913043478" y1="498.0" x2="483.2173913043478" y2="502.79999999999995" stroke="#000"/>
<text x="483.2173913043478" y="512.4" fill="#111" font-size="small" font-family="monospace" font-weight="bold" text-anchor="end" transform="rotate(-60, 483.2173913043478, 512.4)">
fannkuchredux
</text>
<rect x="501.60869565217394" y="444.7350223051568" width="7.356521739130435" height="53.26497769484316" fill="#7070f8" data-tooltip="1.00x baseline speed (No JIT)"/>
<line x1="501.60869565217394" y1="444.009613765687" x2="508.9652173913044" y2="444.009613765687" stroke="#000"/>
<line x1="501.60869565217394" y1="445.4604308446266" x2="508.9652173913044" y2="445.4604308446266" stroke="#000"/>
<line x1="505.28695652173917" y1="444.009613765687" x2="505.28695652173917" y2="445.4604308446266" stroke="#000"/>
<rect x="508.9652173913044" y="437.691563718794" width="7.356521739130435" height="60.30843628120594" fill="orange" data-tooltip="1.13x baseline speed (MJIT3.0)"/>
<line x1="508.9652173913044" y1="436.65880709659376" x2="516.3217391304349" y2="436.65880709659376" stroke="#000"/>
<line x1="508.9652173913044" y1="438.72432034099427" x2="516.3217391304349" y2="438.72432034099427" stroke="#000"/>
<line x1="512.6434782608696" y1="436.65880709659376" x2="512.6434782608696" y2="438.72432034099427" stroke="#000"/>
<rect x="516.3217391304348" y="433.2874064049143" width="7.356521739130435" height="64.71259359508566" fill="green" data-tooltip="1.21x baseline speed (MJIT)"/>
<line x1="516.3217391304348" y1="431.7460996968376" x2="523.6782608695653" y2="431.7460996968376" stroke="#000"/>
<line x1="516.3217391304348" y1="434.828713112991" x2="523.6782608695653" y2="434.828713112991" stroke="#000"/>
<line x1="520.0" y1="431.7460996968376" x2="520.0" y2="434.828713112991" stroke="#000"/>
<rect x="523.6782608695653" y="426.0185997709249" width="7.356521739130435" height="71.98140022907509" fill="#4F3A7A" data-tooltip="1.35x baseline speed (YJIT)"/>
<line x1="523.6782608695653" y1="424.55045792412307" x2="531.0347826086958" y2="424.55045792412307" stroke="#000"/>
<line x1="523.6782608695653" y1="427.4867416177267" x2="531.0347826086958" y2="427.4867416177267" stroke="#000"/>
<line x1="527.3565217391305" y1="424.55045792412307" x2="527.3565217391305" y2="427.4867416177267" stroke="#000"/>
<line x1="520.0" y1="498.0" x2="520.0" y2="502.79999999999995" stroke="#000"/>
<text x="520.0" y="512.4" fill="#111" font-size="small" font-family="monospace" font-weight="bold" text-anchor="end" transform="rotate(-60, 520.0, 512.4)">
lee
</text>
<rect x="538.3913043478261" y="444.7350223051568" width="7.356521739130435" height="53.26497769484316" fill="#7070f8" data-tooltip="1.00x baseline speed (No JIT)"/>
<line x1="538.3913043478261" y1="444.66232488517915" x2="545.7478260869566" y2="444.66232488517915" stroke="#000"/>
<line x1="538.3913043478261" y1="444.80771972513446" x2="545.7478260869566" y2="444.80771972513446" stroke="#000"/>
<line x1="542.0695652173914" y1="444.66232488517915" x2="542.0695652173914" y2="444.80771972513446" stroke="#000"/>
<rect x="545.7478260869566" y="402.1053672492867" width="7.356521739130435" height="95.89463275071323" fill="orange" data-tooltip="1.80x baseline speed (MJIT3.0)"/>
<line x1="545.7478260869566" y1="401.96552048574654" x2="553.1043478260871" y2="401.96552048574654" stroke="#000"/>
<line x1="545.7478260869566" y1="402.2452140128268" x2="553.1043478260871" y2="402.2452140128268" stroke="#000"/>
<line x1="549.4260869565219" y1="401.96552048574654" x2="549.4260869565219" y2="402.2452140128268" stroke="#000"/>
<rect x="553.104347826087" y="403.1060164397216" width="7.356521739130435" height="94.89398356027831" fill="green" data-tooltip="1.78x baseline speed (MJIT)"/>
<line x1="553.104347826087" y1="402.97030208684004" x2="560.4608695652174" y2="402.97030208684004" stroke="#000"/>
<line x1="553.104347826087" y1="403.2417307926031" x2="560.4608695652174" y2="403.2417307926031" stroke="#000"/>
<line x1="556.7826086956522" y1="402.97030208684004" x2="556.7826086956522" y2="403.2417307926031" stroke="#000"/>
<rect x="560.4608695652174" y="422.0718716039612" width="7.356521739130435" height="75.92812839603869" fill="#4F3A7A" data-tooltip="1.43x baseline speed (YJIT)"/>
<line x1="560.4608695652174" y1="421.6975766254677" x2="567.8173913043479" y2="421.6975766254677" stroke="#000"/>
<line x1="560.4608695652174" y1="422.4461665824547" x2="567.8173913043479" y2="422.4461665824547" stroke="#000"/>
<line x1="564.1391304347827" y1="421.6975766254677" x2="564.1391304347827" y2="422.4461665824547" stroke="#000"/>
<line x1="556.7826086956522" y1="498.0" x2="556.7826086956522" y2="502.79999999999995" stroke="#000"/>
<text x="556.7826086956522" y="512.4" fill="#111" font-size="small" font-family="monospace" font-weight="bold" text-anchor="end" transform="rotate(-60, 556.7826086956522, 512.4)">
nbody
</text>
<rect x="575.1739130434784" y="444.7350223051568" width="7.356521739130435" height="53.26497769484316" fill="#7070f8" data-tooltip="1.00x baseline speed (No JIT)"/>
<line x1="575.1739130434784" y1="444.5072095712569" x2="582.5304347826088" y2="444.5072095712569" stroke="#000"/>
<line x1="575.1739130434784" y1="444.96283503905664" x2="582.5304347826088" y2="444.96283503905664" stroke="#000"/>
<line x1="578.8521739130435" y1="444.5072095712569" x2="578.8521739130435" y2="444.96283503905664" stroke="#000"/>
<rect x="582.5304347826088" y="373.07400184763594" width="7.356521739130435" height="124.92599815236397" fill="orange" data-tooltip="2.35x baseline speed (MJIT3.0)"/>
<line x1="582.5304347826088" y1="372.17923256690506" x2="589.8869565217393" y2="372.17923256690506" stroke="#000"/>
<line x1="582.5304347826088" y1="373.9687711283669" x2="589.8869565217393" y2="373.9687711283669" stroke="#000"/>
<line x1="586.208695652174" y1="372.17923256690506" x2="586.208695652174" y2="373.9687711283669" stroke="#000"/>
<rect x="589.8869565217392" y="369.89776409676614" width="7.356521739130435" height="128.1022359032338" fill="green" data-tooltip="2.40x baseline speed (MJIT)"/>
<line x1="589.8869565217392" y1="368.949783085164" x2="597.2434782608697" y2="368.949783085164" stroke="#000"/>
<line x1="589.8869565217392" y1="370.8457451083683" x2="597.2434782608697" y2="370.8457451083683" stroke="#000"/>
<line x1="593.5652173913044" y1="368.949783085164" x2="593.5652173913044" y2="370.8457451083683" stroke="#000"/>
<rect x="597.2434782608697" y="418.73959313479753" width="7.356521739130435" height="79.26040686520244" fill="#4F3A7A" data-tooltip="1.49x baseline speed (YJIT)"/>
<line x1="597.2434782608697" y1="418.2235993300307" x2="604.6000000000001" y2="418.2235993300307" stroke="#000"/>
<line x1="597.2434782608697" y1="419.2555869395643" x2="604.6000000000001" y2="419.2555869395643" stroke="#000"/>
<line x1="600.9217391304348" y1="418.2235993300307" x2="600.9217391304348" y2="419.2555869395643" stroke="#000"/>
<line x1="593.5652173913044" y1="498.0" x2="593.5652173913044" y2="502.79999999999995" stroke="#000"/>
<text x="593.5652173913044" y="512.4" fill="#111" font-size="small" font-family="monospace" font-weight="bold" text-anchor="end" transform="rotate(-60, 593.5652173913044, 512.4)">
optcarrot
</text>
<rect x="611.9565217391304" y="444.7350223051568" width="7.356521739130435" height="53.26497769484316" fill="#7070f8" data-tooltip="1.00x baseline speed (No JIT)"/>
<line x1="611.9565217391304" y1="444.4813667958003" x2="619.3130434782609" y2="444.4813667958003" stroke="#000"/>
<line x1="611.9565217391304" y1="444.9886778145133" x2="619.3130434782609" y2="444.9886778145133" stroke="#000"/>
<line x1="615.6347826086957" y1="444.4813667958003" x2="615.6347826086957" y2="444.9886778145133" stroke="#000"/>
<rect x="619.3130434782609" y="415.74672195235013" width="7.356521739130435" height="82.25327804764979" fill="orange" data-tooltip="1.54x baseline speed (MJIT3.0)"/>
<line x1="619.3130434782609" y1="415.181990291813" x2="626.6695652173913" y2="415.181990291813" stroke="#000"/>
<line x1="619.3130434782609" y1="416.31145361288725" x2="626.6695652173913" y2="416.31145361288725" stroke="#000"/>
<line x1="622.9913043478261" y1="415.181990291813" x2="622.9913043478261" y2="416.31145361288725" stroke="#000"/>
<rect x="626.6695652173912" y="416.158888137959" width="7.356521739130435" height="81.84111186204095" fill="green" data-tooltip="1.54x baseline speed (MJIT)"/>
<line x1="626.6695652173912" y1="415.5633127554381" x2="634.0260869565218" y2="415.5633127554381" stroke="#000"/>
<line x1="626.6695652173912" y1="416.75446352047993" x2="634.0260869565218" y2="416.75446352047993" stroke="#000"/>
<line x1="630.3478260869565" y1="415.5633127554381" x2="630.3478260869565" y2="416.75446352047993" stroke="#000"/>
<rect x="634.0260869565218" y="398.0871348656095" width="7.356521739130435" height="99.91286513439042" fill="#4F3A7A" data-tooltip="1.88x baseline speed (YJIT)"/>
<line x1="634.0260869565218" y1="397.4991376580404" x2="641.3826086956523" y2="397.4991376580404" stroke="#000"/>
<line x1="634.0260869565218" y1="398.67513207317864" x2="641.3826086956523" y2="398.67513207317864" stroke="#000"/>
<line x1="637.704347826087" y1="397.4991376580404" x2="637.704347826087" y2="398.67513207317864" stroke="#000"/>
<line x1="630.3478260869565" y1="498.0" x2="630.3478260869565" y2="502.79999999999995" stroke="#000"/>
<text x="630.3478260869565" y="512.4" fill="#111" font-size="small" font-family="monospace" font-weight="bold" text-anchor="end" transform="rotate(-60, 630.3478260869565, 512.4)">
rubykon
</text>
<rect x="648.7391304347826" y="444.7350223051568" width="7.356521739130435" height="53.26497769484316" fill="#7070f8" data-tooltip="1.00x baseline speed (No JIT)"/>
<line x1="648.7391304347826" y1="444.7305637398476" x2="656.0956521739131" y2="444.7305637398476" stroke="#000"/>
<line x1="648.7391304347826" y1="444.739480870466" x2="656.0956521739131" y2="444.739480870466" stroke="#000"/>
<line x1="652.4173913043478" y1="444.7305637398476" x2="652.4173913043478" y2="444.739480870466" stroke="#000"/>
<rect x="656.0956521739131" y="454.69890388610236" width="7.356521739130435" height="43.30109611389755" fill="orange" data-tooltip="0.81x baseline speed (MJIT3.0)"/>
<line x1="656.0956521739131" y1="452.11837292084044" x2="663.4521739130436" y2="452.11837292084044" stroke="#000"/>
<line x1="656.0956521739131" y1="457.27943485136433" x2="663.4521739130436" y2="457.27943485136433" stroke="#000"/>
<line x1="659.7739130434783" y1="452.11837292084044" x2="659.7739130434783" y2="457.27943485136433" stroke="#000"/>
<rect x="663.4521739130435" y="461.9047516382518" width="7.356521739130435" height="36.09524836174814" fill="green" data-tooltip="0.68x baseline speed (MJIT)"/>
<line x1="663.4521739130435" y1="460.5090608407707" x2="670.8086956521739" y2="460.5090608407707" stroke="#000"/>
<line x1="663.4521739130435" y1="463.3004424357329" x2="670.8086956521739" y2="463.3004424357329" stroke="#000"/>
<line x1="667.1304347826087" y1="460.5090608407707" x2="667.1304347826087" y2="463.3004424357329" stroke="#000"/>
<rect x="670.8086956521739" y="139.7141220584053" width="7.356521739130435" height="358.2858779415946" fill="#4F3A7A" data-tooltip="6.73x baseline speed (YJIT)"/>
<line x1="670.8086956521739" y1="139.13133447620092" x2="678.1652173913044" y2="139.13133447620092" stroke="#000"/>
<line x1="670.8086956521739" y1="140.29690964060973" x2="678.1652173913044" y2="140.29690964060973" stroke="#000"/>
<line x1="674.4869565217392" y1="139.13133447620092" x2="674.4869565217392" y2="140.29690964060973" stroke="#000"/>
<line x1="667.1304347826087" y1="498.0" x2="667.1304347826087" y2="502.79999999999995" stroke="#000"/>
<text x="667.1304347826087" y="512.4" fill="#111" font-size="small" font-family="monospace" font-weight="bold" text-anchor="end" transform="rotate(-60, 667.1304347826087, 512.4)">
30k_ifelse
</text>
<rect x="685.5217391304348" y="444.7350223051568" width="7.356521739130435" height="53.26497769484316" fill="#7070f8" data-tooltip="1.00x baseline speed (No JIT)"/>
<line x1="685.5217391304348" y1="444.72460966801196" x2="692.8782608695652" y2="444.72460966801196" stroke="#000"/>
<line x1="685.5217391304348" y1="444.74543494230164" x2="692.8782608695652" y2="444.74543494230164" stroke="#000"/>
<line x1="689.2" y1="444.72460966801196" x2="689.2" y2="444.74543494230164" stroke="#000"/>
<rect x="692.8782608695652" y="462.72056369761333" width="7.356521739130435" height="35.279436302386586" fill="orange" data-tooltip="0.66x baseline speed (MJIT3.0)"/>
<line x1="692.8782608695652" y1="462.25413238386903" x2="700.2347826086958" y2="462.25413238386903" stroke="#000"/>
<line x1="692.8782608695652" y1="463.1869950113576" x2="700.2347826086958" y2="463.1869950113576" stroke="#000"/>
<line x1="696.5565217391305" y1="462.25413238386903" x2="696.5565217391305" y2="463.1869950113576" stroke="#000"/>
<rect x="700.2347826086957" y="462.64341100847736" width="7.356521739130435" height="35.35658899152254" fill="green" data-tooltip="0.66x baseline speed (MJIT)"/>
<line x1="700.2347826086957" y1="457.07030966573257" x2="707.5913043478262" y2="457.07030966573257" stroke="#000"/>
<line x1="700.2347826086957" y1="468.21651235122215" x2="707.5913043478262" y2="468.21651235122215" stroke="#000"/>
<line x1="703.9130434782609" y1="457.07030966573257" x2="703.9130434782609" y2="468.21651235122215" stroke="#000"/>
<rect x="707.5913043478262" y="100.19999999999999" width="7.356521739130435" height="397.79999999999995" fill="#4F3A7A" data-tooltip="7.47x baseline speed (YJIT)"/>
<line x1="707.5913043478262" y1="99.96596203444741" x2="714.9478260869566" y2="99.96596203444741" stroke="#000"/>
<line x1="707.5913043478262" y1="100.43403796555256" x2="714.9478260869566" y2="100.43403796555256" stroke="#000"/>
<line x1="711.2695652173913" y1="99.96596203444741" x2="711.2695652173913" y2="100.43403796555256" stroke="#000"/>
<line x1="703.9130434782609" y1="498.0" x2="703.9130434782609" y2="502.79999999999995" stroke="#000"/>
<text x="703.9130434782609" y="512.4" fill="#111" font-size="small" font-family="monospace" font-weight="bold" text-anchor="end" transform="rotate(-60, 703.9130434782609, 512.4)">
30k_methods
</text>
<rect x="722.304347826087" y="444.7350223051568" width="7.356521739130435" height="53.26497769484316" fill="#7070f8" data-tooltip="1.00x baseline speed (No JIT)"/>
<line x1="722.304347826087" y1="444.6262383398043" x2="729.6608695652175" y2="444.6262383398043" stroke="#000"/>
<line x1="722.304347826087" y1="444.84380627050933" x2="729.6608695652175" y2="444.84380627050933" stroke="#000"/>
<line x1="725.9826086956523" y1="444.6262383398043" x2="725.9826086956523" y2="444.84380627050933" stroke="#000"/>
<rect x="729.6608695652175" y="414.72186520643453" width="7.356521739130435" height="83.27813479356536" fill="orange" data-tooltip="1.56x baseline speed (MJIT3.0)"/>
<line x1="729.6608695652175" y1="414.4747556625214" x2="737.0173913043479" y2="414.4747556625214" stroke="#000"/>
<line x1="729.6608695652175" y1="414.9689747503477" x2="737.0173913043479" y2="414.9689747503477" stroke="#000"/>
<line x1="733.3391304347828" y1="414.4747556625214" x2="733.3391304347828" y2="414.9689747503477" stroke="#000"/>
<rect x="737.0173913043478" y="415.5863395552266" width="7.356521739130435" height="82.41366044477343" fill="green" data-tooltip="1.55x baseline speed (MJIT)"/>
<line x1="737.0173913043478" y1="415.3461772459277" x2="744.3739130434783" y2="415.3461772459277" stroke="#000"/>
<line x1="737.0173913043478" y1="415.8265018645254" x2="744.3739130434783" y2="415.8265018645254" stroke="#000"/>
<line x1="740.6956521739131" y1="415.3461772459277" x2="740.6956521739131" y2="415.8265018645254" stroke="#000"/>
<rect x="744.3739130434783" y="372.97733542484315" width="7.356521739130435" height="125.02266457515677" fill="#4F3A7A" data-tooltip="2.35x baseline speed (YJIT)"/>
<line x1="744.3739130434783" y1="371.83733869055794" x2="751.7304347826088" y2="371.83733869055794" stroke="#000"/>
<line x1="744.3739130434783" y1="374.1173321591284" x2="751.7304347826088" y2="374.1173321591284" stroke="#000"/>
<line x1="748.0521739130436" y1="371.83733869055794" x2="748.0521739130436" y2="374.1173321591284" stroke="#000"/>
<line x1="740.6956521739131" y1="498.0" x2="740.6956521739131" y2="502.79999999999995" stroke="#000"/>
<text x="740.6956521739131" y="512.4" fill="#111" font-size="small" font-family="monospace" font-weight="bold" text-anchor="end" transform="rotate(-60, 740.6956521739131, 512.4)">
cfunc_itself
</text>
<rect x="759.0869565217392" y="444.7350223051568" width="7.356521739130435" height="53.26497769484316" fill="#7070f8" data-tooltip="1.00x baseline speed (No JIT)"/>
<line x1="759.0869565217392" y1="444.6993608220555" x2="766.4434782608697" y2="444.6993608220555" stroke="#000"/>
<line x1="759.0869565217392" y1="444.7706837882581" x2="766.4434782608697" y2="444.7706837882581" stroke="#000"/>
<line x1="762.7652173913044" y1="444.6993608220555" x2="762.7652173913044" y2="444.7706837882581" stroke="#000"/>
<rect x="766.4434782608697" y="330.8680477250066" width="7.356521739130435" height="167.13195227499335" fill="orange" data-tooltip="3.14x baseline speed (MJIT3.0)"/>
<line x1="766.4434782608697" y1="330.47860927707274" x2="773.8000000000002" y2="330.47860927707274" stroke="#000"/>
<line x1="766.4434782608697" y1="331.25748617294045" x2="773.8000000000002" y2="331.25748617294045" stroke="#000"/>
<line x1="770.1217391304349" y1="330.47860927707274" x2="770.1217391304349" y2="331.25748617294045" stroke="#000"/>
<rect x="773.8000000000001" y="327.62148230579413" width="7.356521739130435" height="170.3785176942058" fill="green" data-tooltip="3.20x baseline speed (MJIT)"/>
<line x1="773.8000000000001" y1="327.45398534514356" x2="781.1565217391305" y2="327.45398534514356" stroke="#000"/>
<line x1="773.8000000000001" y1="327.7889792664447" x2="781.1565217391305" y2="327.7889792664447" stroke="#000"/>
<line x1="777.4782608695652" y1="327.45398534514356" x2="777.4782608695652" y2="327.7889792664447" stroke="#000"/>
<rect x="781.1565217391305" y="292.5065804398908" width="7.356521739130435" height="205.49341956010912" fill="#4F3A7A" data-tooltip="3.86x baseline speed (YJIT)"/>
<line x1="781.1565217391305" y1="291.288032854314" x2="788.513043478261" y2="291.288032854314" stroke="#000"/>
<line x1="781.1565217391305" y1="293.7251280254676" x2="788.513043478261" y2="293.7251280254676" stroke="#000"/>
<line x1="784.8347826086957" y1="291.288032854314" x2="784.8347826086957" y2="293.7251280254676" stroke="#000"/>
<line x1="777.4782608695652" y1="498.0" x2="777.4782608695652" y2="502.79999999999995" stroke="#000"/>
<text x="777.4782608695652" y="512.4" fill="#111" font-size="small" font-family="monospace" font-weight="bold" text-anchor="end" transform="rotate(-60, 777.4782608695652, 512.4)">
fib
</text>
<rect x="795.8695652173913" y="444.7350223051568" width="7.356521739130435" height="53.26497769484316" fill="#7070f8" data-tooltip="1.00x baseline speed (No JIT)"/>
<line x1="795.8695652173913" y1="444.62793631770734" x2="803.2260869565217" y2="444.62793631770734" stroke="#000"/>
<line x1="795.8695652173913" y1="444.84210829260627" x2="803.2260869565217" y2="444.84210829260627" stroke="#000"/>
<line x1="799.5478260869565" y1="444.62793631770734" x2="799.5478260869565" y2="444.84210829260627" stroke="#000"/>
<rect x="803.2260869565217" y="309.9718761528396" width="7.356521739130435" height="188.02812384716026" fill="orange" data-tooltip="3.53x baseline speed (MJIT3.0)"/>
<line x1="803.2260869565217" y1="138.42733298118125" x2="810.5826086956522" y2="138.42733298118125" stroke="#000"/>
<line x1="803.2260869565217" y1="481.51641932449803" x2="810.5826086956522" y2="481.51641932449803" stroke="#000"/>
<line x1="806.904347826087" y1="138.42733298118125" x2="806.904347826087" y2="481.51641932449803" stroke="#000"/>
<rect x="810.5826086956521" y="247.34589727688532" width="7.356521739130435" height="250.65410272311462" fill="green" data-tooltip="4.71x baseline speed (MJIT)"/>
<line x1="810.5826086956521" y1="83.87534109587187" x2="817.9391304347827" y2="83.87534109587187" stroke="#000"/>
<line x1="810.5826086956521" y1="410.8164534578988" x2="817.9391304347827" y2="410.8164534578988" stroke="#000"/>
<line x1="814.2608695652174" y1="83.87534109587187" x2="814.2608695652174" y2="410.8164534578988" stroke="#000"/>
<rect x="817.9391304347827" y="349.3783796159708" width="7.356521739130435" height="148.62162038402914" fill="#4F3A7A" data-tooltip="2.79x baseline speed (YJIT)"/>
<line x1="817.9391304347827" y1="348.3695007720072" x2="825.2956521739131" y2="348.3695007720072" stroke="#000"/>
<line x1="817.9391304347827" y1="350.3872584599344" x2="825.2956521739131" y2="350.3872584599344" stroke="#000"/>
<line x1="821.6173913043478" y1="348.3695007720072" x2="821.6173913043478" y2="350.3872584599344" stroke="#000"/>
<line x1="814.2608695652174" y1="498.0" x2="814.2608695652174" y2="502.79999999999995" stroke="#000"/>
<text x="814.2608695652174" y="512.4" fill="#111" font-size="small" font-family="monospace" font-weight="bold" text-anchor="end" transform="rotate(-60, 814.2608695652174, 512.4)">
getivar
</text>
<rect x="832.6521739130435" y="444.7350223051568" width="7.356521739130435" height="53.26497769484316" fill="#7070f8" data-tooltip="1.00x baseline speed (No JIT)"/>
<line x1="832.6521739130435" y1="444.67607163646625" x2="840.008695652174" y2="444.67607163646625" stroke="#000"/>
<line x1="832.6521739130435" y1="444.79397297384736" x2="840.008695652174" y2="444.79397297384736" stroke="#000"/>
<line x1="836.3304347826087" y1="444.67607163646625" x2="836.3304347826087" y2="444.79397297384736" stroke="#000"/>
<rect x="840.008695652174" y="431.26003670261275" width="7.356521739130435" height="66.73996329738715" fill="orange" data-tooltip="1.25x baseline speed (MJIT3.0)"/>
<line x1="840.008695652174" y1="430.788811986216" x2="847.3652173913044" y2="430.788811986216" stroke="#000"/>
<line x1="840.008695652174" y1="431.7312614190095" x2="847.3652173913044" y2="431.7312614190095" stroke="#000"/>
<line x1="843.6869565217391" y1="430.788811986216" x2="843.6869565217391" y2="431.7312614190095" stroke="#000"/>
<rect x="847.3652173913043" y="430.4709850090997" width="7.356521739130435" height="67.52901499090022" fill="green" data-tooltip="1.27x baseline speed (MJIT)"/>
<line x1="847.3652173913043" y1="429.95705164798756" x2="854.7217391304348" y2="429.95705164798756" stroke="#000"/>
<line x1="847.3652173913043" y1="430.98491837021186" x2="854.7217391304348" y2="430.98491837021186" stroke="#000"/>
<line x1="851.0434782608696" y1="429.95705164798756" x2="851.0434782608696" y2="430.98491837021186" stroke="#000"/>
<rect x="854.7217391304348" y="218.79549586934763" width="7.356521739130435" height="279.2045041306523" fill="#4F3A7A" data-tooltip="5.24x baseline speed (YJIT)"/>
<line x1="854.7217391304348" y1="217.07588144693474" x2="862.0782608695653" y2="217.07588144693474" stroke="#000"/>
<line x1="854.7217391304348" y1="220.51511029176052" x2="862.0782608695653" y2="220.51511029176052" stroke="#000"/>
<line x1="858.4000000000001" y1="217.07588144693474" x2="858.4000000000001" y2="220.51511029176052" stroke="#000"/>
<line x1="851.0434782608696" y1="498.0" x2="851.0434782608696" y2="502.79999999999995" stroke="#000"/>
<text x="851.0434782608696" y="512.4" fill="#111" font-size="small" font-family="monospace" font-weight="bold" text-anchor="end" transform="rotate(-60, 851.0434782608696, 512.4)">
keyword_args
</text>
<rect x="869.4347826086956" y="444.7350223051568" width="7.356521739130435" height="53.26497769484316" fill="#7070f8" data-tooltip="1.00x baseline speed (No JIT)"/>
<line x1="869.4347826086956" y1="444.65784617209204" x2="876.7913043478261" y2="444.65784617209204" stroke="#000"/>
<line x1="869.4347826086956" y1="444.81219843822157" x2="876.7913043478261" y2="444.81219843822157" stroke="#000"/>
<line x1="873.1130434782609" y1="444.65784617209204" x2="873.1130434782609" y2="444.81219843822157" stroke="#000"/>
<rect x="876.7913043478261" y="434.4450041174288" width="7.356521739130435" height="63.55499588257113" fill="orange" data-tooltip="1.19x baseline speed (MJIT3.0)"/>
<line x1="876.7913043478261" y1="433.44705002032396" x2="884.1478260869567" y2="433.44705002032396" stroke="#000"/>
<line x1="876.7913043478261" y1="435.4429582145337" x2="884.1478260869567" y2="435.4429582145337" stroke="#000"/>
<line x1="880.4695652173914" y1="433.44705002032396" x2="880.4695652173914" y2="435.4429582145337" stroke="#000"/>
<rect x="884.1478260869566" y="435.7218291035442" width="7.356521739130435" height="62.27817089645574" fill="green" data-tooltip="1.17x baseline speed (MJIT)"/>
<line x1="884.1478260869566" y1="435.56488782370013" x2="891.504347826087" y2="435.56488782370013" stroke="#000"/>
<line x1="884.1478260869566" y1="435.8787703833883" x2="891.504347826087" y2="435.8787703833883" stroke="#000"/>
<line x1="887.8260869565217" y1="435.56488782370013" x2="887.8260869565217" y2="435.8787703833883" stroke="#000"/>
<rect x="891.504347826087" y="423.49565725167423" width="7.356521739130435" height="74.50434274832564" fill="#4F3A7A" data-tooltip="1.40x baseline speed (YJIT)"/>
<line x1="891.504347826087" y1="423.27797065717255" x2="898.8608695652175" y2="423.27797065717255" stroke="#000"/>
<line x1="891.504347826087" y1="423.7133438461759" x2="898.8608695652175" y2="423.7133438461759" stroke="#000"/>
<line x1="895.1826086956522" y1="423.27797065717255" x2="895.1826086956522" y2="423.7133438461759" stroke="#000"/>
<line x1="887.8260869565217" y1="498.0" x2="887.8260869565217" y2="502.79999999999995" stroke="#000"/>
<text x="887.8260869565217" y="512.4" fill="#111" font-size="small" font-family="monospace" font-weight="bold" text-anchor="end" transform="rotate(-60, 887.8260869565217, 512.4)">
respond_to
</text>
<rect x="906.2173913043479" y="444.7350223051568" width="7.356521739130435" height="53.26497769484316" fill="#7070f8" data-tooltip="1.00x baseline speed (No JIT)"/>
<line x1="906.2173913043479" y1="444.60474607100514" x2="913.5739130434783" y2="444.60474607100514" stroke="#000"/>
<line x1="906.2173913043479" y1="444.86529853930847" x2="913.5739130434783" y2="444.86529853930847" stroke="#000"/>
<line x1="909.895652173913" y1="444.60474607100514" x2="909.895652173913" y2="444.86529853930847" stroke="#000"/>
<rect x="913.5739130434783" y="192.92704427316485" width="7.356521739130435" height="305.07295572683506" fill="orange" data-tooltip="5.73x baseline speed (MJIT3.0)"/>
<line x1="913.5739130434783" y1="-182.5674784249166" x2="920.9304347826088" y2="-182.5674784249166" stroke="#000"/>
<line x1="913.5739130434783" y1="568.4215669712463" x2="920.9304347826088" y2="568.4215669712463" stroke="#000"/>
<line x1="917.2521739130436" y1="-182.5674784249166" x2="917.2521739130436" y2="568.4215669712463" stroke="#000"/>
<rect x="920.9304347826087" y="171.54704609211316" width="7.356521739130435" height="326.45295390788675" fill="green" data-tooltip="6.13x baseline speed (MJIT)"/>
<line x1="920.9304347826087" y1="-136.3271332122137" x2="928.2869565217392" y2="-136.3271332122137" stroke="#000"/>
<line x1="920.9304347826087" y1="479.42122539644004" x2="928.2869565217392" y2="479.42122539644004" stroke="#000"/>
<line x1="924.608695652174" y1="-136.3271332122137" x2="924.608695652174" y2="479.42122539644004" stroke="#000"/>
<rect x="928.2869565217392" y="416.93223970153304" width="7.356521739130435" height="81.0677602984669" fill="#4F3A7A" data-tooltip="1.52x baseline speed (YJIT)"/>
<line x1="928.2869565217392" y1="416.39522803976735" x2="935.6434782608696" y2="416.39522803976735" stroke="#000"/>
<line x1="928.2869565217392" y1="417.46925136329867" x2="935.6434782608696" y2="417.46925136329867" stroke="#000"/>
<line x1="931.9652173913045" y1="416.39522803976735" x2="931.9652173913045" y2="417.46925136329867" stroke="#000"/>
<line x1="924.608695652174" y1="498.0" x2="924.608695652174" y2="502.79999999999995" stroke="#000"/>
<text x="924.608695652174" y="512.4" fill="#111" font-size="small" font-family="monospace" font-weight="bold" text-anchor="end" transform="rotate(-60, 924.608695652174, 512.4)">
setivar
</text>
</svg>