<svg viewBox="0 0 1000 600" xmlns="http://www.w3.org/2000/svg" xmlns:xlink="http://www.w3.org/1999/xlink" width="100%" height="100%">

<rect x="50.0" y="30.0" width="940.0" height="467.99999999999994" stroke="#000" fill="#EEE"/>
<line x1="42.0" y1="497.9999999999999" x2="50.0" y2="497.9999999999999" stroke="#000"/>
<text x="26.000000000000004" y="497.9999999999999" text-anchor="end" font-weight="bold" font-size="small" fill="#111">
0.0
</text>
<line x1="42.0" y1="451.8907488087932" x2="50.0" y2="451.8907488087932" stroke="#000"/>
<text x="26.000000000000004" y="451.8907488087932" text-anchor="end" font-weight="bold" font-size="small" fill="#111">
0.2
</text>
<line x1="42.0" y1="405.7814976175864" x2="50.0" y2="405.7814976175864" stroke="#000"/>
<text x="26.000000000000004" y="405.7814976175864" text-anchor="end" font-weight="bold" font-size="small" fill="#111">
0.4
</text>
<line x1="42.0" y1="359.6722464263797" x2="50.0" y2="359.6722464263797" stroke="#000"/>
<text x="26.000000000000004" y="359.6722464263797" text-anchor="end" font-weight="bold" font-size="small" fill="#111">
0.6
</text>
<line x1="42.0" y1="313.56299523517293" x2="50.0" y2="313.56299523517293" stroke="#000"/>
<text x="26.000000000000004" y="313.56299523517293" text-anchor="end" font-weight="bold" font-size="small" fill="#111">
0.8
</text>
<line x1="42.0" y1="267.4537440439662" x2="50.0" y2="267.4537440439662" stroke="#000"/>
<text x="26.000000000000004" y="267.4537440439662" text-anchor="end" font-weight="bold" font-size="small" fill="#111">
1.0
</text>
<line x1="42.0" y1="221.34449285275943" x2="50.0" y2="221.34449285275943" stroke="#000"/>
<text x="26.000000000000004" y="221.34449285275943" text-anchor="end" font-weight="bold" font-size="small" fill="#111">
1.2
</text>
<line x1="42.0" y1="175.2352416615527" x2="50.0" y2="175.2352416615527" stroke="#000"/>
<text x="26.000000000000004" y="175.2352416615527" text-anchor="end" font-weight="bold" font-size="small" fill="#111">
1.4
</text>
<line x1="42.0" y1="129.12599047034598" x2="50.0" y2="129.12599047034598" stroke="#000"/>
<text x="26.000000000000004" y="129.12599047034598" text-anchor="end" font-weight="bold" font-size="small" fill="#111">
1.6
</text>
<rect x="268.5" y="36.00000000000001" width="80.0" height="18.0" fill="#7070f8" stroke="#888"/>
<text x="308.5" y="52.50000000000001" font-size="small" text-anchor="middle" font-weight="bold" fill="#EEE">
No JIT
</text>
<rect x="691.4999999999999" y="36.00000000000001" width="80.0" height="18.0" fill="orange" stroke="#888"/>
<text x="731.4999999999999" y="52.50000000000001" font-size="small" text-anchor="middle" font-weight="bold" fill="#EEE">
YJIT
</text>
<rect x="97.0" y="267.4537440439662" width="40.285714285714285" height="230.54625595603372" fill="#7070f8" data-tooltip="1.00x baseline speed (No JIT)"/>
<line x1="97.0" y1="266.6879750349802" x2="137.28571428571428" y2="266.6879750349802" stroke="#000"/>
<line x1="97.0" y1="268.2195130529522" x2="137.28571428571428" y2="268.2195130529522" stroke="#000"/>
<line x1="117.14285714285714" y1="266.6879750349802" x2="117.14285714285714" y2="268.2195130529522" stroke="#000"/>
<rect x="137.28571428571428" y="122.7480460321258" width="40.285714285714285" height="375.25195396787416" fill="orange" data-tooltip="1.63x baseline speed (YJIT)"/>
<line x1="137.28571428571428" y1="119.87144944096005" x2="177.57142857142858" y2="119.87144944096005" stroke="#000"/>
<line x1="137.28571428571428" y1="125.62464262329156" x2="177.57142857142858" y2="125.62464262329156" stroke="#000"/>
<line x1="157.42857142857142" y1="119.87144944096005" x2="157.42857142857142" y2="125.62464262329156" stroke="#000"/>
<line x1="157.42857142857142" y1="498.0" x2="157.42857142857142" y2="502.79999999999995" stroke="#000"/>
<text x="157.42857142857142" y="512.4" fill="#111" font-size="small" font-family="monospace" font-weight="bold" text-anchor="end" transform="rotate(-60, 157.42857142857142, 512.4)">
activerecord
</text>
<rect x="217.85714285714286" y="267.4537440439662" width="40.285714285714285" height="230.54625595603372" fill="#7070f8" data-tooltip="1.00x baseline speed (No JIT)"/>
<line x1="217.85714285714286" y1="265.8700801775673" x2="258.1428571428571" y2="265.8700801775673" stroke="#000"/>
<line x1="217.85714285714286" y1="269.0374079103652" x2="258.1428571428571" y2="269.0374079103652" stroke="#000"/>
<line x1="238.0" y1="265.8700801775673" x2="238.0" y2="269.0374079103652" stroke="#000"/>
<rect x="258.1428571428571" y="148.78736000399206" width="40.285714285714285" height="349.21263999600785" fill="orange" data-tooltip="1.51x baseline speed (YJIT)"/>
<line x1="258.1428571428571" y1="142.2813922636802" x2="298.4285714285714" y2="142.2813922636802" stroke="#000"/>
<line x1="258.1428571428571" y1="155.29332774430392" x2="298.4285714285714" y2="155.29332774430392" stroke="#000"/>
<line x1="278.2857142857142" y1="142.2813922636802" x2="278.2857142857142" y2="155.29332774430392" stroke="#000"/>
<line x1="278.2857142857143" y1="498.0" x2="278.2857142857143" y2="502.79999999999995" stroke="#000"/>
<text x="278.2857142857143" y="512.4" fill="#111" font-size="small" font-family="monospace" font-weight="bold" text-anchor="end" transform="rotate(-60, 278.2857142857143, 512.4)">
hexapdf
</text>
<rect x="338.7142857142857" y="267.4537440439662" width="40.285714285714285" height="230.54625595603372" fill="#7070f8" data-tooltip="1.00x baseline speed (No JIT)"/>
<line x1="338.7142857142857" y1="266.1950036249709" x2="379.0" y2="266.1950036249709" stroke="#000"/>
<line x1="338.7142857142857" y1="268.7124844629615" x2="379.0" y2="268.7124844629615" stroke="#000"/>
<line x1="358.8571428571429" y1="266.1950036249709" x2="358.8571428571429" y2="268.7124844629615" stroke="#000"/>
<rect x="379.0" y="100.19999999999999" width="40.285714285714285" height="397.79999999999995" fill="orange" data-tooltip="1.73x baseline speed (YJIT)"/>
<line x1="379.0" y1="94.3002506333919" x2="419.2857142857143" y2="94.3002506333919" stroke="#000"/>
<line x1="379.0" y1="106.09974936660808" x2="419.2857142857143" y2="106.09974936660808" stroke="#000"/>
<line x1="399.1428571428571" y1="94.3002506333919" x2="399.1428571428571" y2="106.09974936660808" stroke="#000"/>
<line x1="399.14285714285717" y1="498.0" x2="399.14285714285717" y2="502.79999999999995" stroke="#000"/>
<text x="399.14285714285717" y="512.4" fill="#111" font-size="small" font-family="monospace" font-weight="bold" text-anchor="end" transform="rotate(-60, 399.14285714285717, 512.4)">
liquid-render
</text>
<rect x="459.5714285714285" y="267.4537440439662" width="40.285714285714285" height="230.54625595603372" fill="#7070f8" data-tooltip="1.00x baseline speed (No JIT)"/>
<line x1="459.5714285714285" y1="267.0619442953703" x2="499.8571428571428" y2="267.0619442953703" stroke="#000"/>
<line x1="459.5714285714285" y1="267.84554379256207" x2="499.8571428571428" y2="267.84554379256207" stroke="#000"/>
<line x1="479.71428571428567" y1="267.0619442953703" x2="479.71428571428567" y2="267.84554379256207" stroke="#000"/>
<rect x="499.8571428571428" y="224.03354030629876" width="40.285714285714285" height="273.96645969370115" fill="orange" data-tooltip="1.19x baseline speed (YJIT)"/>
<line x1="499.8571428571428" y1="223.4873297678727" x2="540.142857142857" y2="223.4873297678727" stroke="#000"/>
<line x1="499.8571428571428" y1="224.57975084472483" x2="540.142857142857" y2="224.57975084472483" stroke="#000"/>
<line x1="519.9999999999999" y1="223.4873297678727" x2="519.9999999999999" y2="224.57975084472483" stroke="#000"/>
<line x1="519.9999999999999" y1="498.0" x2="519.9999999999999" y2="502.79999999999995" stroke="#000"/>
<text x="519.9999999999999" y="512.4" fill="#111" font-size="small" font-family="monospace" font-weight="bold" text-anchor="end" transform="rotate(-60, 519.9999999999999, 512.4)">
mail
</text>
<rect x="580.4285714285714" y="267.4537440439662" width="40.285714285714285" height="230.54625595603372" fill="#7070f8" data-tooltip="1.00x baseline speed (No JIT)"/>
<line x1="580.4285714285714" y1="267.3099252869141" x2="620.7142857142857" y2="267.3099252869141" stroke="#000"/>
<line x1="580.4285714285714" y1="267.5975628010183" x2="620.7142857142857" y2="267.5975628010183" stroke="#000"/>
<line x1="600.5714285714286" y1="267.3099252869141" x2="600.5714285714286" y2="267.5975628010183" stroke="#000"/>
<rect x="620.7142857142857" y="180.02572448475104" width="40.285714285714285" height="317.97427551524885" fill="orange" data-tooltip="1.38x baseline speed (YJIT)"/>
<line x1="620.7142857142857" y1="179.76581831359826" x2="660.9999999999999" y2="179.76581831359826" stroke="#000"/>
<line x1="620.7142857142857" y1="180.28563065590382" x2="660.9999999999999" y2="180.28563065590382" stroke="#000"/>
<line x1="640.8571428571428" y1="179.76581831359826" x2="640.8571428571428" y2="180.28563065590382" stroke="#000"/>
<line x1="640.8571428571428" y1="498.0" x2="640.8571428571428" y2="502.79999999999995" stroke="#000"/>
<text x="640.8571428571428" y="512.4" fill="#111" font-size="small" font-family="monospace" font-weight="bold" text-anchor="end" transform="rotate(-60, 640.8571428571428, 512.4)">
psych-load
</text>
<rect x="701.2857142857143" y="267.4537440439662" width="40.285714285714285" height="230.54625595603372" fill="#7070f8" data-tooltip="1.00x baseline speed (No JIT)"/>
<line x1="701.2857142857143" y1="265.89653810155323" x2="741.5714285714286" y2="265.89653810155323" stroke="#000"/>
<line x1="701.2857142857143" y1="269.01094998637916" x2="741.5714285714286" y2="269.01094998637916" stroke="#000"/>
<line x1="721.4285714285714" y1="265.89653810155323" x2="721.4285714285714" y2="269.01094998637916" stroke="#000"/>
<rect x="741.5714285714286" y="182.06295645112445" width="40.285714285714285" height="315.93704354887547" fill="orange" data-tooltip="1.37x baseline speed (YJIT)"/>
<line x1="741.5714285714286" y1="176.25922229344516" x2="781.8571428571428" y2="176.25922229344516" stroke="#000"/>
<line x1="741.5714285714286" y1="187.86669060880374" x2="781.8571428571428" y2="187.86669060880374" stroke="#000"/>
<line x1="761.7142857142857" y1="176.25922229344516" x2="761.7142857142857" y2="187.86669060880374" stroke="#000"/>
<line x1="761.7142857142857" y1="498.0" x2="761.7142857142857" y2="502.79999999999995" stroke="#000"/>
<text x="761.7142857142857" y="512.4" fill="#111" font-size="small" font-family="monospace" font-weight="bold" text-anchor="end" transform="rotate(-60, 761.7142857142857, 512.4)">
railsbench
</text>
<rect x="822.1428571428571" y="267.4537440439662" width="40.285714285714285" height="230.54625595603372" fill="#7070f8" data-tooltip="1.00x baseline speed (No JIT)"/>
<line x1="822.1428571428571" y1="247.96390567491528" x2="862.4285714285713" y2="247.96390567491528" stroke="#000"/>
<line x1="822.1428571428571" y1="286.9435824130171" x2="862.4285714285713" y2="286.9435824130171" stroke="#000"/>
<line x1="842.2857142857142" y1="247.96390567491528" x2="842.2857142857142" y2="286.9435824130171" stroke="#000"/>
<rect x="862.4285714285713" y="229.72884255456003" width="40.285714285714285" height="268.27115744543994" fill="orange" data-tooltip="1.16x baseline speed (YJIT)"/>
<line x1="862.4285714285713" y1="176.3443234673401" x2="902.7142857142856" y2="176.3443234673401" stroke="#000"/>
<line x1="862.4285714285713" y1="283.11336164177993" x2="902.7142857142856" y2="283.11336164177993" stroke="#000"/>
<line x1="882.5714285714284" y1="176.3443234673401" x2="882.5714285714284" y2="283.11336164177993" stroke="#000"/>
<line x1="882.5714285714284" y1="498.0" x2="882.5714285714284" y2="502.79999999999995" stroke="#000"/>
<text x="882.5714285714284" y="512.4" fill="#111" font-size="small" font-family="monospace" font-weight="bold" text-anchor="end" transform="rotate(-60, 882.5714285714284, 512.4)">
ruby-lsp
</text>
</svg>