<svg viewBox="0 0 1000 600" xmlns="http://www.w3.org/2000/svg" xmlns:xlink="http://www.w3.org/1999/xlink" width="100%" height="100%">

<rect x="50.0" y="30.0" width="940.0" height="467.99999999999994" stroke="#000" fill="#EEE"/>
<line x1="42.0" y1="497.9999999999999" x2="50.0" y2="497.9999999999999" stroke="#000"/>
<text x="26.000000000000004" y="497.9999999999999" text-anchor="end" font-weight="bold" font-size="small" fill="#EEE">
0.0
</text>
<line x1="42.0" y1="448.0761503394074" x2="50.0" y2="448.0761503394074" stroke="#000"/>
<text x="26.000000000000004" y="448.0761503394074" text-anchor="end" font-weight="bold" font-size="small" fill="#EEE">
1.0
</text>
<line x1="42.0" y1="398.1523006788147" x2="50.0" y2="398.1523006788147" stroke="#000"/>
<text x="26.000000000000004" y="398.1523006788147" text-anchor="end" font-weight="bold" font-size="small" fill="#EEE">
2.0
</text>
<line x1="42.0" y1="348.2284510182222" x2="50.0" y2="348.2284510182222" stroke="#000"/>
<text x="26.000000000000004" y="348.2284510182222" text-anchor="end" font-weight="bold" font-size="small" fill="#EEE">
3.0
</text>
<line x1="42.0" y1="298.30460135762956" x2="50.0" y2="298.30460135762956" stroke="#000"/>
<text x="26.000000000000004" y="298.30460135762956" text-anchor="end" font-weight="bold" font-size="small" fill="#EEE">
4.0
</text>
<line x1="42.0" y1="248.3807516970369" x2="50.0" y2="248.3807516970369" stroke="#000"/>
<text x="26.000000000000004" y="248.3807516970369" text-anchor="end" font-weight="bold" font-size="small" fill="#EEE">
5.0
</text>
<line x1="42.0" y1="198.45690203644432" x2="50.0" y2="198.45690203644432" stroke="#000"/>
<text x="26.000000000000004" y="198.45690203644432" text-anchor="end" font-weight="bold" font-size="small" fill="#EEE">
6.0
</text>
<line x1="42.0" y1="148.53305237585172" x2="50.0" y2="148.53305237585172" stroke="#000"/>
<text x="26.000000000000004" y="148.53305237585172" text-anchor="end" font-weight="bold" font-size="small" fill="#EEE">
7.0
</text>
<rect x="197.99999999999997" y="36.00000000000001" width="80.0" height="18.0" fill="#7070f8" stroke="#888"/>
<text x="238.0" y="52.50000000000001" font-size="small" text-anchor="middle" font-weight="bold" fill="#111">
No JIT
</text>
<rect x="479.99999999999994" y="36.00000000000001" width="80.0" height="18.0" fill="orange" stroke="#888"/>
<text x="519.9999999999999" y="52.50000000000001" font-size="small" text-anchor="middle" font-weight="bold" fill="#111">
MJIT3.0
</text>
<rect x="761.9999999999999" y="36.00000000000001" width="80.0" height="18.0" fill="green" stroke="#888"/>
<text x="801.9999999999999" y="52.50000000000001" font-size="small" text-anchor="middle" font-weight="bold" fill="#111">
YJIT
</text>
<rect x="97.0" y="448.0761503394074" width="10.575" height="49.9238496605926" fill="#7070f8" data-tooltip="1.00x baseline speed (No JIT)"/>
<line x1="97.0" y1="447.19713427790333" x2="107.575" y2="447.19713427790333" stroke="#000"/>
<line x1="97.0" y1="448.9551664009114" x2="107.575" y2="448.9551664009114" stroke="#000"/>
<line x1="102.28750000000001" y1="447.19713427790333" x2="102.28750000000001" y2="448.9551664009114" stroke="#000"/>
<rect x="107.575" y="450.7360276588439" width="10.575" height="47.263972341156034" fill="orange" data-tooltip="0.95x baseline speed (MJIT3.0)"/>
<line x1="107.575" y1="449.8116079194444" x2="118.15" y2="449.8116079194444" stroke="#000"/>
<line x1="107.575" y1="451.6604473982434" x2="118.15" y2="451.6604473982434" stroke="#000"/>
<line x1="112.86250000000001" y1="449.8116079194444" x2="112.86250000000001" y2="451.6604473982434" stroke="#000"/>
<rect x="118.15" y="431.14200313030466" width="10.575" height="66.8579968696953" fill="green" data-tooltip="1.34x baseline speed (YJIT)"/>
<line x1="118.15" y1="429.40858698928395" x2="128.725" y2="429.40858698928395" stroke="#000"/>
<line x1="118.15" y1="432.8754192713253" x2="128.725" y2="432.8754192713253" stroke="#000"/>
<line x1="123.4375" y1="429.40858698928395" x2="123.4375" y2="432.8754192713253" stroke="#000"/>
<line x1="118.15" y1="498.0" x2="118.15" y2="502.79999999999995" stroke="#000"/>
<text x="118.15" y="512.4" fill="#111" font-size="small" font-family="monospace" font-weight="bold" text-anchor="end" transform="rotate(-60, 118.15, 512.4)">
activerecord
</text>
<rect x="139.3" y="448.0761503394074" width="10.575" height="49.9238496605926" fill="#7070f8" data-tooltip="1.00x baseline speed (No JIT)"/>
<line x1="139.3" y1="447.4326279623341" x2="149.875" y2="447.4326279623341" stroke="#000"/>
<line x1="139.3" y1="448.71967271648066" x2="149.875" y2="448.71967271648066" stroke="#000"/>
<line x1="144.5875" y1="447.4326279623341" x2="144.5875" y2="448.71967271648066" stroke="#000"/>
<rect x="149.875" y="447.4010654856994" width="10.575" height="50.598934514300545" fill="orange" data-tooltip="1.01x baseline speed (MJIT3.0)"/>
<line x1="149.875" y1="446.2909977961425" x2="160.45000000000002" y2="446.2909977961425" stroke="#000"/>
<line x1="149.875" y1="448.5111331752563" x2="160.45000000000002" y2="448.5111331752563" stroke="#000"/>
<line x1="155.16250000000002" y1="446.2909977961425" x2="155.16250000000002" y2="448.5111331752563" stroke="#000"/>
<rect x="160.45000000000002" y="434.8840561870162" width="10.575" height="63.11594381298369" fill="green" data-tooltip="1.26x baseline speed (YJIT)"/>
<line x1="160.45000000000002" y1="433.6502846805409" x2="171.025" y2="433.6502846805409" stroke="#000"/>
<line x1="160.45000000000002" y1="436.1178276934915" x2="171.025" y2="436.1178276934915" stroke="#000"/>
<line x1="165.7375" y1="433.6502846805409" x2="165.7375" y2="436.1178276934915" stroke="#000"/>
<line x1="160.45000000000002" y1="498.0" x2="160.45000000000002" y2="502.79999999999995" stroke="#000"/>
<text x="160.45000000000002" y="512.4" fill="#111" font-size="small" font-family="monospace" font-weight="bold" text-anchor="end" transform="rotate(-60, 160.45000000000002, 512.4)">
hexapdf
</text>
<rect x="181.6" y="448.0761503394074" width="10.575" height="49.9238496605926" fill="#7070f8" data-tooltip="1.00x baseline speed (No JIT)"/>
<line x1="181.6" y1="447.3102024499044" x2="192.17499999999998" y2="447.3102024499044" stroke="#000"/>
<line x1="181.6" y1="448.84209822891034" x2="192.17499999999998" y2="448.84209822891034" stroke="#000"/>
<line x1="186.8875" y1="447.3102024499044" x2="186.8875" y2="448.84209822891034" stroke="#000"/>
<rect x="192.17499999999998" y="447.0382138468339" width="10.575" height="50.96178615316608" fill="orange" data-tooltip="1.02x baseline speed (MJIT3.0)"/>
<line x1="192.17499999999998" y1="446.03480686132133" x2="202.75" y2="446.03480686132133" stroke="#000"/>
<line x1="192.17499999999998" y1="448.04162083234644" x2="202.75" y2="448.04162083234644" stroke="#000"/>
<line x1="197.46249999999998" y1="446.03480686132133" x2="197.46249999999998" y2="448.04162083234644" stroke="#000"/>
<rect x="202.75" y="443.15735171929987" width="10.575" height="54.842648280700104" fill="green" data-tooltip="1.10x baseline speed (YJIT)"/>
<line x1="202.75" y1="441.9550438434452" x2="213.325" y2="441.9550438434452" stroke="#000"/>
<line x1="202.75" y1="444.3596595951546" x2="213.325" y2="444.3596595951546" stroke="#000"/>
<line x1="208.0375" y1="441.9550438434452" x2="208.0375" y2="444.3596595951546" stroke="#000"/>
<line x1="202.75" y1="498.0" x2="202.75" y2="502.79999999999995" stroke="#000"/>
<text x="202.75" y="512.4" fill="#111" font-size="small" font-family="monospace" font-weight="bold" text-anchor="end" transform="rotate(-60, 202.75, 512.4)">
jekyll
</text>
<rect x="223.89999999999998" y="448.0761503394074" width="10.575" height="49.9238496605926" fill="#7070f8" data-tooltip="1.00x baseline speed (No JIT)"/>
<line x1="223.89999999999998" y1="447.44989619465593" x2="234.475" y2="447.44989619465593" stroke="#000"/>
<line x1="223.89999999999998" y1="448.70240448415876" x2="234.475" y2="448.70240448415876" stroke="#000"/>
<line x1="229.1875" y1="447.44989619465593" x2="229.1875" y2="448.70240448415876" stroke="#000"/>
<rect x="234.475" y="444.89750127398554" width="10.575" height="53.102498726014474" fill="orange" data-tooltip="1.06x baseline speed (MJIT3.0)"/>
<line x1="234.475" y1="443.54229873583654" x2="245.04999999999998" y2="443.54229873583654" stroke="#000"/>
<line x1="234.475" y1="446.25270381213454" x2="245.04999999999998" y2="446.25270381213454" stroke="#000"/>
<line x1="239.7625" y1="443.54229873583654" x2="239.7625" y2="446.25270381213454" stroke="#000"/>
<rect x="245.04999999999998" y="433.0498158649082" width="10.575" height="64.95018413509169" fill="green" data-tooltip="1.30x baseline speed (YJIT)"/>
<line x1="245.04999999999998" y1="431.60221633034195" x2="255.625" y2="431.60221633034195" stroke="#000"/>
<line x1="245.04999999999998" y1="434.4974153994745" x2="255.625" y2="434.4974153994745" stroke="#000"/>
<line x1="250.33749999999998" y1="431.60221633034195" x2="250.33749999999998" y2="434.4974153994745" stroke="#000"/>
<line x1="245.04999999999998" y1="498.0" x2="245.04999999999998" y2="502.79999999999995" stroke="#000"/>
<text x="245.04999999999998" y="512.4" fill="#111" font-size="small" font-family="monospace" font-weight="bold" text-anchor="end" transform="rotate(-60, 245.04999999999998, 512.4)">
liquid-render
</text>
<rect x="266.2" y="448.0761503394074" width="10.575" height="49.9238496605926" fill="#7070f8" data-tooltip="1.00x baseline speed (No JIT)"/>
<line x1="266.2" y1="447.3931213174252" x2="276.775" y2="447.3931213174252" stroke="#000"/>
<line x1="266.2" y1="448.75917936138956" x2="276.775" y2="448.75917936138956" stroke="#000"/>
<line x1="271.4875" y1="447.3931213174252" x2="271.4875" y2="448.75917936138956" stroke="#000"/>
<rect x="276.775" y="445.345187198143" width="10.575" height="52.65481280185692" fill="orange" data-tooltip="1.05x baseline speed (MJIT3.0)"/>
<line x1="276.775" y1="444.51154317553363" x2="287.35" y2="444.51154317553363" stroke="#000"/>
<line x1="276.775" y1="446.1788312207524" x2="287.35" y2="446.1788312207524" stroke="#000"/>
<line x1="282.0625" y1="444.51154317553363" x2="282.0625" y2="446.1788312207524" stroke="#000"/>
<rect x="287.35" y="440.8719697836104" width="10.575" height="57.12803021638954" fill="green" data-tooltip="1.14x baseline speed (YJIT)"/>
<line x1="287.35" y1="440.074031365752" x2="297.925" y2="440.074031365752" stroke="#000"/>
<line x1="287.35" y1="441.66990820146873" x2="297.925" y2="441.66990820146873" stroke="#000"/>
<line x1="292.6375" y1="440.074031365752" x2="292.6375" y2="441.66990820146873" stroke="#000"/>
<line x1="287.35" y1="498.0" x2="287.35" y2="502.79999999999995" stroke="#000"/>
<text x="287.35" y="512.4" fill="#111" font-size="small" font-family="monospace" font-weight="bold" text-anchor="end" transform="rotate(-60, 287.35, 512.4)">
mail
</text>
<rect x="308.5" y="448.0761503394074" width="10.575" height="49.9238496605926" fill="#7070f8" data-tooltip="1.00x baseline speed (No JIT)"/>
<line x1="308.5" y1="447.7467866090334" x2="319.075" y2="447.7467866090334" stroke="#000"/>
<line x1="308.5" y1="448.40551406978136" x2="319.075" y2="448.40551406978136" stroke="#000"/>
<line x1="313.7875" y1="447.7467866090334" x2="313.7875" y2="448.40551406978136" stroke="#000"/>
<rect x="319.075" y="439.9079236734424" width="10.575" height="58.09207632655767" fill="orange" data-tooltip="1.16x baseline speed (MJIT3.0)"/>
<line x1="319.075" y1="438.7556206131137" x2="329.65" y2="438.7556206131137" stroke="#000"/>
<line x1="319.075" y1="441.060226733771" x2="329.65" y2="441.060226733771" stroke="#000"/>
<line x1="324.3625" y1="438.7556206131137" x2="324.3625" y2="441.060226733771" stroke="#000"/>
<rect x="329.65" y="428.93694008234576" width="10.575" height="69.06305991765417" fill="green" data-tooltip="1.38x baseline speed (YJIT)"/>
<line x1="329.65" y1="428.171401654187" x2="340.225" y2="428.171401654187" stroke="#000"/>
<line x1="329.65" y1="429.7024785105045" x2="340.225" y2="429.7024785105045" stroke="#000"/>
<line x1="334.9375" y1="428.171401654187" x2="334.9375" y2="429.7024785105045" stroke="#000"/>
<line x1="329.65" y1="498.0" x2="329.65" y2="502.79999999999995" stroke="#000"/>
<text x="329.65" y="512.4" fill="#111" font-size="small" font-family="monospace" font-weight="bold" text-anchor="end" transform="rotate(-60, 329.65, 512.4)">
psych-load
</text>
<rect x="350.8" y="448.0761503394074" width="10.575" height="49.9238496605926" fill="#7070f8" data-tooltip="1.00x baseline speed (No JIT)"/>
<line x1="350.8" y1="447.5875965905263" x2="361.375" y2="447.5875965905263" stroke="#000"/>
<line x1="350.8" y1="448.56470408828847" x2="361.375" y2="448.56470408828847" stroke="#000"/>
<line x1="356.0875" y1="447.5875965905263" x2="356.0875" y2="448.56470408828847" stroke="#000"/>
<rect x="361.375" y="449.42369771033145" width="10.575" height="48.57630228966845" fill="orange" data-tooltip="0.97x baseline speed (MJIT3.0)"/>
<line x1="361.375" y1="448.4389592487507" x2="371.95" y2="448.4389592487507" stroke="#000"/>
<line x1="361.375" y1="450.4084361719123" x2="371.95" y2="450.4084361719123" stroke="#000"/>
<line x1="366.6625" y1="448.4389592487507" x2="366.6625" y2="450.4084361719123" stroke="#000"/>
<rect x="371.95" y="436.0303896117954" width="10.575" height="61.96961038820464" fill="green" data-tooltip="1.24x baseline speed (YJIT)"/>
<line x1="371.95" y1="434.89818562987733" x2="382.525" y2="434.89818562987733" stroke="#000"/>
<line x1="371.95" y1="437.16259359371344" x2="382.525" y2="437.16259359371344" stroke="#000"/>
<line x1="377.2375" y1="434.89818562987733" x2="377.2375" y2="437.16259359371344" stroke="#000"/>
<line x1="371.95" y1="498.0" x2="371.95" y2="502.79999999999995" stroke="#000"/>
<text x="371.95" y="512.4" fill="#111" font-size="small" font-family="monospace" font-weight="bold" text-anchor="end" transform="rotate(-60, 371.95, 512.4)">
railsbench
</text>
<rect x="393.1" y="448.0761503394074" width="10.575" height="49.9238496605926" fill="#7070f8" data-tooltip="1.00x baseline speed (No JIT)"/>
<line x1="393.1" y1="448.0419196437317" x2="403.675" y2="448.0419196437317" stroke="#000"/>
<line x1="393.1" y1="448.11038103508304" x2="403.675" y2="448.11038103508304" stroke="#000"/>
<line x1="398.3875" y1="448.0419196437317" x2="398.3875" y2="448.11038103508304" stroke="#000"/>
<rect x="403.675" y="425.14260266060444" width="10.575" height="72.85739733939558" fill="orange" data-tooltip="1.46x baseline speed (MJIT3.0)"/>
<line x1="403.675" y1="425.0682326945287" x2="414.25" y2="425.0682326945287" stroke="#000"/>
<line x1="403.675" y1="425.21697262668016" x2="414.25" y2="425.21697262668016" stroke="#000"/>
<line x1="408.96250000000003" y1="425.0682326945287" x2="408.96250000000003" y2="425.21697262668016" stroke="#000"/>
<rect x="414.25" y="435.93531915513864" width="10.575" height="62.064680844861265" fill="green" data-tooltip="1.24x baseline speed (YJIT)"/>
<line x1="414.25" y1="434.3547130760814" x2="424.825" y2="434.3547130760814" stroke="#000"/>
<line x1="414.25" y1="437.5159252341959" x2="424.825" y2="437.5159252341959" stroke="#000"/>
<line x1="419.5375" y1="434.3547130760814" x2="419.5375" y2="437.5159252341959" stroke="#000"/>
<line x1="414.25" y1="498.0" x2="414.25" y2="502.79999999999995" stroke="#000"/>
<text x="414.25" y="512.4" fill="#111" font-size="small" font-family="monospace" font-weight="bold" text-anchor="end" transform="rotate(-60, 414.25, 512.4)">
binarytrees
</text>
<rect x="435.40000000000003" y="448.0761503394074" width="10.575" height="49.9238496605926" fill="#7070f8" data-tooltip="1.00x baseline speed (No JIT)"/>
<line x1="435.40000000000003" y1="448.0569759976533" x2="445.975" y2="448.0569759976533" stroke="#000"/>
<line x1="435.40000000000003" y1="448.09532468116146" x2="445.975" y2="448.09532468116146" stroke="#000"/>
<line x1="440.6875" y1="448.0569759976533" x2="440.6875" y2="448.09532468116146" stroke="#000"/>
<rect x="445.975" y="424.8050825941946" width="10.575" height="73.19491740580537" fill="orange" data-tooltip="1.47x baseline speed (MJIT3.0)"/>
<line x1="445.975" y1="424.62782299411674" x2="456.55" y2="424.62782299411674" stroke="#000"/>
<line x1="445.975" y1="424.98234219427235" x2="456.55" y2="424.98234219427235" stroke="#000"/>
<line x1="451.2625" y1="424.62782299411674" x2="451.2625" y2="424.98234219427235" stroke="#000"/>
<rect x="456.55" y="447.96053884908184" width="10.575" height="50.03946115091814" fill="green" data-tooltip="1.00x baseline speed (YJIT)"/>
<line x1="456.55" y1="447.5319939024074" x2="467.125" y2="447.5319939024074" stroke="#000"/>
<line x1="456.55" y1="448.3890837957563" x2="467.125" y2="448.3890837957563" stroke="#000"/>
<line x1="461.83750000000003" y1="447.5319939024074" x2="461.83750000000003" y2="448.3890837957563" stroke="#000"/>
<line x1="456.55" y1="498.0" x2="456.55" y2="502.79999999999995" stroke="#000"/>
<text x="456.55" y="512.4" fill="#111" font-size="small" font-family="monospace" font-weight="bold" text-anchor="end" transform="rotate(-60, 456.55, 512.4)">
fannkuchredux
</text>
<rect x="477.7" y="448.0761503394074" width="10.575" height="49.9238496605926" fill="#7070f8" data-tooltip="1.00x baseline speed (No JIT)"/>
<line x1="477.7" y1="447.6989591371216" x2="488.27500000000003" y2="447.6989591371216" stroke="#000"/>
<line x1="477.7" y1="448.45334154169313" x2="488.27500000000003" y2="448.45334154169313" stroke="#000"/>
<line x1="482.9875" y1="447.6989591371216" x2="482.9875" y2="448.45334154169313" stroke="#000"/>
<rect x="488.27500000000003" y="434.6066095465412" width="10.575" height="63.39339045345877" fill="orange" data-tooltip="1.27x baseline speed (MJIT3.0)"/>
<line x1="488.27500000000003" y1="433.5947716738818" x2="498.85" y2="433.5947716738818" stroke="#000"/>
<line x1="488.27500000000003" y1="435.6184474192007" x2="498.85" y2="435.6184474192007" stroke="#000"/>
<line x1="493.5625" y1="433.5947716738818" x2="493.5625" y2="435.6184474192007" stroke="#000"/>
<rect x="498.85" y="429.1118625233098" width="10.575" height="68.88813747669008" fill="green" data-tooltip="1.38x baseline speed (YJIT)"/>
<line x1="498.85" y1="428.04517410217846" x2="509.425" y2="428.04517410217846" stroke="#000"/>
<line x1="498.85" y1="430.17855094444116" x2="509.425" y2="430.17855094444116" stroke="#000"/>
<line x1="504.1375" y1="428.04517410217846" x2="504.1375" y2="430.17855094444116" stroke="#000"/>
<line x1="498.85" y1="498.0" x2="498.85" y2="502.79999999999995" stroke="#000"/>
<text x="498.85" y="512.4" fill="#111" font-size="small" font-family="monospace" font-weight="bold" text-anchor="end" transform="rotate(-60, 498.85, 512.4)">
lee
</text>
<rect x="520.0" y="448.0761503394074" width="10.575" height="49.9238496605926" fill="#7070f8" data-tooltip="1.00x baseline speed (No JIT)"/>
<line x1="520.0" y1="448.0373785627996" x2="530.575" y2="448.0373785627996" stroke="#000"/>
<line x1="520.0" y1="448.1149221160152" x2="530.575" y2="448.1149221160152" stroke="#000"/>
<line x1="525.2875" y1="448.0373785627996" x2="525.2875" y2="448.1149221160152" stroke="#000"/>
<rect x="530.575" y="403.00321342637096" width="10.575" height="94.99678657362898" fill="orange" data-tooltip="1.90x baseline speed (MJIT3.0)"/>
<line x1="530.575" y1="400.9857428110745" x2="541.15" y2="400.9857428110745" stroke="#000"/>
<line x1="530.575" y1="405.0206840416675" x2="541.15" y2="405.0206840416675" stroke="#000"/>
<line x1="535.8625000000001" y1="400.9857428110745" x2="535.8625000000001" y2="405.0206840416675" stroke="#000"/>
<rect x="541.15" y="424.6019998121091" width="10.575" height="73.39800018789089" fill="green" data-tooltip="1.47x baseline speed (YJIT)"/>
<line x1="541.15" y1="424.5373384291954" x2="551.725" y2="424.5373384291954" stroke="#000"/>
<line x1="541.15" y1="424.6666611950228" x2="551.725" y2="424.6666611950228" stroke="#000"/>
<line x1="546.4375" y1="424.5373384291954" x2="546.4375" y2="424.6666611950228" stroke="#000"/>
<line x1="541.15" y1="498.0" x2="541.15" y2="502.79999999999995" stroke="#000"/>
<text x="541.15" y="512.4" fill="#111" font-size="small" font-family="monospace" font-weight="bold" text-anchor="end" transform="rotate(-60, 541.15, 512.4)">
nbody
</text>
<rect x="562.3000000000001" y="448.0761503394074" width="10.575" height="49.9238496605926" fill="#7070f8" data-tooltip="1.00x baseline speed (No JIT)"/>
<line x1="562.3000000000001" y1="447.888503982977" x2="572.875" y2="447.888503982977" stroke="#000"/>
<line x1="562.3000000000001" y1="448.26379669583775" x2="572.875" y2="448.26379669583775" stroke="#000"/>
<line x1="567.5875" y1="447.888503982977" x2="567.5875" y2="448.26379669583775" stroke="#000"/>
<rect x="572.875" y="404.35277229225886" width="10.575" height="93.64722770774104" fill="orange" data-tooltip="1.88x baseline speed (MJIT3.0)"/>
<line x1="572.875" y1="403.9554958656396" x2="583.45" y2="403.9554958656396" stroke="#000"/>
<line x1="572.875" y1="404.75004871887813" x2="583.45" y2="404.75004871887813" stroke="#000"/>
<line x1="578.1625" y1="403.9554958656396" x2="578.1625" y2="404.75004871887813" stroke="#000"/>
<rect x="583.45" y="416.4791171307428" width="10.575" height="81.52088286925712" fill="green" data-tooltip="1.63x baseline speed (YJIT)"/>
<line x1="583.45" y1="416.14455133148795" x2="594.025" y2="416.14455133148795" stroke="#000"/>
<line x1="583.45" y1="416.81368292999764" x2="594.025" y2="416.81368292999764" stroke="#000"/>
<line x1="588.7375000000001" y1="416.14455133148795" x2="588.7375000000001" y2="416.81368292999764" stroke="#000"/>
<line x1="583.45" y1="498.0" x2="583.45" y2="502.79999999999995" stroke="#000"/>
<text x="583.45" y="512.4" fill="#111" font-size="small" font-family="monospace" font-weight="bold" text-anchor="end" transform="rotate(-60, 583.45, 512.4)">
optcarrot
</text>
<rect x="604.5999999999999" y="448.0761503394074" width="10.575" height="49.9238496605926" fill="#7070f8" data-tooltip="1.00x baseline speed (No JIT)"/>
<line x1="604.5999999999999" y1="447.4353344171801" x2="615.175" y2="447.4353344171801" stroke="#000"/>
<line x1="604.5999999999999" y1="448.71696626163464" x2="615.175" y2="448.71696626163464" stroke="#000"/>
<line x1="609.8874999999999" y1="447.4353344171801" x2="609.8874999999999" y2="448.71696626163464" stroke="#000"/>
<rect x="615.175" y="447.60752802869297" width="10.575" height="50.39247197130701" fill="orange" data-tooltip="1.01x baseline speed (MJIT3.0)"/>
<line x1="615.175" y1="446.085647176092" x2="625.7499999999999" y2="446.085647176092" stroke="#000"/>
<line x1="615.175" y1="449.1294088812939" x2="625.7499999999999" y2="449.1294088812939" stroke="#000"/>
<line x1="620.4624999999999" y1="446.085647176092" x2="620.4624999999999" y2="449.1294088812939" stroke="#000"/>
<rect x="625.7499999999999" y="121.69770956011949" width="10.575" height="376.30229043988044" fill="green" data-tooltip="7.54x baseline speed (YJIT)"/>
<line x1="625.7499999999999" y1="116.82144705351091" x2="636.3249999999999" y2="116.82144705351091" stroke="#000"/>
<line x1="625.7499999999999" y1="126.57397206672807" x2="636.3249999999999" y2="126.57397206672807" stroke="#000"/>
<line x1="631.0374999999999" y1="116.82144705351091" x2="631.0374999999999" y2="126.57397206672807" stroke="#000"/>
<line x1="625.7499999999999" y1="498.0" x2="625.7499999999999" y2="502.79999999999995" stroke="#000"/>
<text x="625.7499999999999" y="512.4" fill="#111" font-size="small" font-family="monospace" font-weight="bold" text-anchor="end" transform="rotate(-60, 625.7499999999999, 512.4)">
30k_ifelse
</text>
<rect x="646.8999999999999" y="448.0761503394074" width="10.575" height="49.9238496605926" fill="#7070f8" data-tooltip="1.00x baseline speed (No JIT)"/>
<line x1="646.8999999999999" y1="448.05114641246064" x2="657.4749999999999" y2="448.05114641246064" stroke="#000"/>
<line x1="646.8999999999999" y1="448.1011542663541" x2="657.4749999999999" y2="448.1011542663541" stroke="#000"/>
<line x1="652.1874999999999" y1="448.05114641246064" x2="652.1874999999999" y2="448.1011542663541" stroke="#000"/>
<rect x="657.4749999999999" y="447.59283370124183" width="10.575" height="50.40716629875808" fill="orange" data-tooltip="1.01x baseline speed (MJIT3.0)"/>
<line x1="657.4749999999999" y1="446.8125343530107" x2="668.05" y2="446.8125343530107" stroke="#000"/>
<line x1="657.4749999999999" y1="448.37313304947304" x2="668.05" y2="448.37313304947304" stroke="#000"/>
<line x1="662.7624999999999" y1="446.8125343530107" x2="662.7624999999999" y2="448.37313304947304" stroke="#000"/>
<rect x="668.05" y="100.19999999999999" width="10.575" height="397.79999999999995" fill="green" data-tooltip="7.97x baseline speed (YJIT)"/>
<line x1="668.05" y1="99.94834949539732" x2="678.6249999999999" y2="99.94834949539732" stroke="#000"/>
<line x1="668.05" y1="100.45165050460265" x2="678.6249999999999" y2="100.45165050460265" stroke="#000"/>
<line x1="673.3375" y1="99.94834949539732" x2="673.3375" y2="100.45165050460265" stroke="#000"/>
<line x1="668.05" y1="498.0" x2="668.05" y2="502.79999999999995" stroke="#000"/>
<text x="668.05" y="512.4" fill="#111" font-size="small" font-family="monospace" font-weight="bold" text-anchor="end" transform="rotate(-60, 668.05, 512.4)">
30k_methods
</text>
<rect x="689.1999999999999" y="448.0761503394074" width="10.575" height="49.9238496605926" fill="#7070f8" data-tooltip="1.00x baseline speed (No JIT)"/>
<line x1="689.1999999999999" y1="447.9736430198249" x2="699.775" y2="447.9736430198249" stroke="#000"/>
<line x1="689.1999999999999" y1="448.17865765898983" x2="699.775" y2="448.17865765898983" stroke="#000"/>
<line x1="694.4875" y1="447.9736430198249" x2="694.4875" y2="448.17865765898983" stroke="#000"/>
<rect x="699.775" y="417.5040012990097" width="10.575" height="80.49599870099028" fill="orange" data-tooltip="1.61x baseline speed (MJIT3.0)"/>
<line x1="699.775" y1="413.84191753365656" x2="710.3499999999999" y2="413.84191753365656" stroke="#000"/>
<line x1="699.775" y1="421.16608506436285" x2="710.3499999999999" y2="421.16608506436285" stroke="#000"/>
<line x1="705.0624999999999" y1="413.84191753365656" x2="705.0624999999999" y2="421.16608506436285" stroke="#000"/>
<rect x="710.3499999999999" y="377.1467187381728" width="10.575" height="120.8532812618272" fill="green" data-tooltip="2.42x baseline speed (YJIT)"/>
<line x1="710.3499999999999" y1="376.7366367338762" x2="720.925" y2="376.7366367338762" stroke="#000"/>
<line x1="710.3499999999999" y1="377.55680074246936" x2="720.925" y2="377.55680074246936" stroke="#000"/>
<line x1="715.6374999999999" y1="376.7366367338762" x2="715.6374999999999" y2="377.55680074246936" stroke="#000"/>
<line x1="710.3499999999999" y1="498.0" x2="710.3499999999999" y2="502.79999999999995" stroke="#000"/>
<text x="710.3499999999999" y="512.4" fill="#111" font-size="small" font-family="monospace" font-weight="bold" text-anchor="end" transform="rotate(-60, 710.3499999999999, 512.4)">
cfunc_itself
</text>
<rect x="731.4999999999999" y="448.0761503394074" width="10.575" height="49.9238496605926" fill="#7070f8" data-tooltip="1.00x baseline speed (No JIT)"/>
<line x1="731.4999999999999" y1="448.0558194226081" x2="742.0749999999999" y2="448.0558194226081" stroke="#000"/>
<line x1="731.4999999999999" y1="448.09648125620663" x2="742.0749999999999" y2="448.09648125620663" stroke="#000"/>
<line x1="736.7874999999999" y1="448.0558194226081" x2="736.7874999999999" y2="448.09648125620663" stroke="#000"/>
<rect x="742.0749999999999" y="341.8696373510887" width="10.575" height="156.13036264891116" fill="orange" data-tooltip="3.13x baseline speed (MJIT3.0)"/>
<line x1="742.0749999999999" y1="341.76585132421934" x2="752.65" y2="341.76585132421934" stroke="#000"/>
<line x1="742.0749999999999" y1="341.97342337795817" x2="752.65" y2="341.97342337795817" stroke="#000"/>
<line x1="747.3625" y1="341.76585132421934" x2="747.3625" y2="341.97342337795817" stroke="#000"/>
<rect x="752.65" y="307.17063643780665" width="10.575" height="190.82936356219327" fill="green" data-tooltip="3.82x baseline speed (YJIT)"/>
<line x1="752.65" y1="307.0590716290428" x2="763.2249999999999" y2="307.0590716290428" stroke="#000"/>
<line x1="752.65" y1="307.2822012465705" x2="763.2249999999999" y2="307.2822012465705" stroke="#000"/>
<line x1="757.9374999999999" y1="307.0590716290428" x2="757.9374999999999" y2="307.2822012465705" stroke="#000"/>
<line x1="752.65" y1="498.0" x2="752.65" y2="502.79999999999995" stroke="#000"/>
<text x="752.65" y="512.4" fill="#111" font-size="small" font-family="monospace" font-weight="bold" text-anchor="end" transform="rotate(-60, 752.65, 512.4)">
fib
</text>
<rect x="773.8" y="448.0761503394074" width="10.575" height="49.9238496605926" fill="#7070f8" data-tooltip="1.00x baseline speed (No JIT)"/>
<line x1="773.8" y1="447.99575767688754" x2="784.3749999999999" y2="447.99575767688754" stroke="#000"/>
<line x1="773.8" y1="448.1565430019272" x2="784.3749999999999" y2="448.1565430019272" stroke="#000"/>
<line x1="779.0875" y1="447.99575767688754" x2="779.0875" y2="448.1565430019272" stroke="#000"/>
<rect x="784.3749999999999" y="448.3201505836372" width="10.575" height="49.679849416362764" fill="orange" data-tooltip="1.00x baseline speed (MJIT3.0)"/>
<line x1="784.3749999999999" y1="448.21635338104755" x2="794.9499999999999" y2="448.21635338104755" stroke="#000"/>
<line x1="784.3749999999999" y1="448.4239477862269" x2="794.9499999999999" y2="448.4239477862269" stroke="#000"/>
<line x1="789.6624999999999" y1="448.21635338104755" x2="789.6624999999999" y2="448.4239477862269" stroke="#000"/>
<rect x="794.9499999999999" y="373.77247996855607" width="10.575" height="124.22752003144396" fill="green" data-tooltip="2.49x baseline speed (YJIT)"/>
<line x1="794.9499999999999" y1="373.5630886965971" x2="805.525" y2="373.5630886965971" stroke="#000"/>
<line x1="794.9499999999999" y1="373.981871240515" x2="805.525" y2="373.981871240515" stroke="#000"/>
<line x1="800.2375" y1="373.5630886965971" x2="800.2375" y2="373.981871240515" stroke="#000"/>
<line x1="794.9499999999999" y1="498.0" x2="794.9499999999999" y2="502.79999999999995" stroke="#000"/>
<text x="794.9499999999999" y="512.4" fill="#111" font-size="small" font-family="monospace" font-weight="bold" text-anchor="end" transform="rotate(-60, 794.9499999999999, 512.4)">
getivar
</text>
<rect x="816.0999999999999" y="448.0761503394074" width="10.575" height="49.9238496605926" fill="#7070f8" data-tooltip="1.00x baseline speed (No JIT)"/>
<line x1="816.0999999999999" y1="448.03735757350796" x2="826.675" y2="448.03735757350796" stroke="#000"/>
<line x1="816.0999999999999" y1="448.1149431053068" x2="826.675" y2="448.1149431053068" stroke="#000"/>
<line x1="821.3874999999999" y1="448.03735757350796" x2="821.3874999999999" y2="448.1149431053068" stroke="#000"/>
<rect x="826.675" y="435.8817549216609" width="10.575" height="62.11824507833913" fill="orange" data-tooltip="1.24x baseline speed (MJIT3.0)"/>
<line x1="826.675" y1="435.8301654779863" x2="837.2499999999999" y2="435.8301654779863" stroke="#000"/>
<line x1="826.675" y1="435.9333443653354" x2="837.2499999999999" y2="435.9333443653354" stroke="#000"/>
<line x1="831.9625" y1="435.8301654779863" x2="831.9625" y2="435.9333443653354" stroke="#000"/>
<rect x="837.2499999999999" y="449.3205180438692" width="10.575" height="48.67948195613079" fill="green" data-tooltip="0.98x baseline speed (YJIT)"/>
<line x1="837.2499999999999" y1="449.2661448444112" x2="847.8249999999999" y2="449.2661448444112" stroke="#000"/>
<line x1="837.2499999999999" y1="449.3748912433272" x2="847.8249999999999" y2="449.3748912433272" stroke="#000"/>
<line x1="842.5374999999999" y1="449.2661448444112" x2="842.5374999999999" y2="449.3748912433272" stroke="#000"/>
<line x1="837.2499999999999" y1="498.0" x2="837.2499999999999" y2="502.79999999999995" stroke="#000"/>
<text x="837.2499999999999" y="512.4" fill="#111" font-size="small" font-family="monospace" font-weight="bold" text-anchor="end" transform="rotate(-60, 837.2499999999999, 512.4)">
keyword_args
</text>
<rect x="858.4" y="448.0761503394074" width="10.575" height="49.9238496605926" fill="#7070f8" data-tooltip="1.00x baseline speed (No JIT)"/>
<line x1="858.4" y1="447.94395691323217" x2="868.9749999999999" y2="447.94395691323217" stroke="#000"/>
<line x1="858.4" y1="448.2083437655826" x2="868.9749999999999" y2="448.2083437655826" stroke="#000"/>
<line x1="863.6874999999999" y1="447.94395691323217" x2="863.6874999999999" y2="448.2083437655826" stroke="#000"/>
<rect x="868.9749999999999" y="437.54144339290684" width="10.575" height="60.45855660709313" fill="orange" data-tooltip="1.21x baseline speed (MJIT3.0)"/>
<line x1="868.9749999999999" y1="437.3419483540819" x2="879.55" y2="437.3419483540819" stroke="#000"/>
<line x1="868.9749999999999" y1="437.74093843173176" x2="879.55" y2="437.74093843173176" stroke="#000"/>
<line x1="874.2624999999999" y1="437.3419483540819" x2="874.2624999999999" y2="437.74093843173176" stroke="#000"/>
<rect x="879.55" y="427.2426016651509" width="10.575" height="70.75739833484901" fill="green" data-tooltip="1.42x baseline speed (YJIT)"/>
<line x1="879.55" y1="426.9565238120748" x2="890.125" y2="426.9565238120748" stroke="#000"/>
<line x1="879.55" y1="427.52867951822697" x2="890.125" y2="427.52867951822697" stroke="#000"/>
<line x1="884.8375" y1="426.9565238120748" x2="884.8375" y2="427.52867951822697" stroke="#000"/>
<line x1="879.55" y1="498.0" x2="879.55" y2="502.79999999999995" stroke="#000"/>
<text x="879.55" y="512.4" fill="#111" font-size="small" font-family="monospace" font-weight="bold" text-anchor="end" transform="rotate(-60, 879.55, 512.4)">
respond_to
</text>
<rect x="900.6999999999999" y="448.0761503394074" width="10.575" height="49.9238496605926" fill="#7070f8" data-tooltip="1.00x baseline speed (No JIT)"/>
<line x1="900.6999999999999" y1="446.29080614740127" x2="911.275" y2="446.29080614740127" stroke="#000"/>
<line x1="900.6999999999999" y1="449.8614945314135" x2="911.275" y2="449.8614945314135" stroke="#000"/>
<line x1="905.9875" y1="446.29080614740127" x2="905.9875" y2="449.8614945314135" stroke="#000"/>
<rect x="911.275" y="451.1470428361924" width="10.575" height="46.852957163807524" fill="orange" data-tooltip="0.94x baseline speed (MJIT3.0)"/>
<line x1="911.275" y1="449.47103576368465" x2="921.8499999999999" y2="449.47103576368465" stroke="#000"/>
<line x1="911.275" y1="452.82304990870006" x2="921.8499999999999" y2="452.82304990870006" stroke="#000"/>
<line x1="916.5625" y1="449.47103576368465" x2="916.5625" y2="452.82304990870006" stroke="#000"/>
<rect x="921.8499999999999" y="407.11774675356634" width="10.575" height="90.88225324643355" fill="green" data-tooltip="1.82x baseline speed (YJIT)"/>
<line x1="921.8499999999999" y1="403.85573691923366" x2="932.425" y2="403.85573691923366" stroke="#000"/>
<line x1="921.8499999999999" y1="410.379756587899" x2="932.425" y2="410.379756587899" stroke="#000"/>
<line x1="927.1374999999999" y1="403.85573691923366" x2="927.1374999999999" y2="410.379756587899" stroke="#000"/>
<line x1="921.8499999999999" y1="498.0" x2="921.8499999999999" y2="502.79999999999995" stroke="#000"/>
<text x="921.8499999999999" y="512.4" fill="#111" font-size="small" font-family="monospace" font-weight="bold" text-anchor="end" transform="rotate(-60, 921.8499999999999, 512.4)">
setivar
</text>
</svg>