<svg viewBox="0 0 1000 600" xmlns="http://www.w3.org/2000/svg" xmlns:xlink="http://www.w3.org/1999/xlink" width="100%" height="100%">

<rect x="50.0" y="30.0" width="940.0" height="467.99999999999994" stroke="#000" fill="#EEE"/>
<line x1="42.0" y1="497.9999999999999" x2="50.0" y2="497.9999999999999" stroke="#000"/>
<text x="26.000000000000004" y="497.9999999999999" text-anchor="end" font-weight="bold" font-size="small" fill="#111">
0.0
</text>
<line x1="42.0" y1="402.06645794742116" x2="50.0" y2="402.06645794742116" stroke="#000"/>
<text x="26.000000000000004" y="402.06645794742116" text-anchor="end" font-weight="bold" font-size="small" fill="#111">
2.0
</text>
<line x1="42.0" y1="306.1329158948423" x2="50.0" y2="306.1329158948423" stroke="#000"/>
<text x="26.000000000000004" y="306.1329158948423" text-anchor="end" font-weight="bold" font-size="small" fill="#111">
4.0
</text>
<line x1="42.0" y1="210.19937384226358" x2="50.0" y2="210.19937384226358" stroke="#000"/>
<text x="26.000000000000004" y="210.19937384226358" text-anchor="end" font-weight="bold" font-size="small" fill="#111">
6.0
</text>
<line x1="42.0" y1="114.26583178968478" x2="50.0" y2="114.26583178968478" stroke="#000"/>
<text x="26.000000000000004" y="114.26583178968478" text-anchor="end" font-weight="bold" font-size="small" fill="#111">
8.0
</text>
<rect x="162.74999999999997" y="36.00000000000001" width="80.0" height="18.0" fill="#7070f8" stroke="#888"/>
<text x="202.75" y="52.50000000000001" font-size="small" text-anchor="middle" font-weight="bold" fill="#EEE">
No JIT
</text>
<rect x="374.25" y="36.00000000000001" width="80.0" height="18.0" fill="orange" stroke="#888"/>
<text x="414.25" y="52.50000000000001" font-size="small" text-anchor="middle" font-weight="bold" fill="#EEE">
MJIT3.0
</text>
<rect x="585.7499999999999" y="36.00000000000001" width="80.0" height="18.0" fill="green" stroke="#888"/>
<text x="625.7499999999999" y="52.50000000000001" font-size="small" text-anchor="middle" font-weight="bold" fill="#EEE">
MJIT
</text>
<rect x="797.2499999999999" y="36.00000000000001" width="80.0" height="18.0" fill="#4F3A7A" stroke="#888"/>
<text x="837.2499999999999" y="52.50000000000001" font-size="small" text-anchor="middle" font-weight="bold" fill="#EEE">
YJIT
</text>
<rect x="97.0" y="450.0332289737106" width="21.15" height="47.96677102628939" fill="#7070f8" data-tooltip="1.00x baseline speed (No JIT)"/>
<line x1="97.0" y1="449.1946774287966" x2="118.15" y2="449.1946774287966" stroke="#000"/>
<line x1="97.0" y1="450.87178051862463" x2="118.15" y2="450.87178051862463" stroke="#000"/>
<line x1="107.575" y1="449.1946774287966" x2="107.575" y2="450.87178051862463" stroke="#000"/>
<rect x="118.15" y="451.09415904141827" width="21.15" height="46.90584095858161" fill="orange" data-tooltip="0.98x baseline speed (MJIT3.0)"/>
<line x1="118.15" y1="450.26091790131784" x2="139.3" y2="450.26091790131784" stroke="#000"/>
<line x1="118.15" y1="451.9274001815187" x2="139.3" y2="451.9274001815187" stroke="#000"/>
<line x1="128.725" y1="450.26091790131784" x2="128.725" y2="451.9274001815187" stroke="#000"/>
<rect x="139.3" y="468.8174816848026" width="21.15" height="29.18251831519738" fill="green" data-tooltip="0.61x baseline speed (MJIT)"/>
<line x1="139.3" y1="466.8989212950409" x2="160.45000000000002" y2="466.8989212950409" stroke="#000"/>
<line x1="139.3" y1="470.7360420745643" x2="160.45000000000002" y2="470.7360420745643" stroke="#000"/>
<line x1="149.875" y1="466.8989212950409" x2="149.875" y2="470.7360420745643" stroke="#000"/>
<rect x="160.45" y="156.92839523120333" width="21.15" height="341.07160476879665" fill="#4F3A7A" data-tooltip="7.11x baseline speed (YJIT)"/>
<line x1="160.45" y1="150.58756034694053" x2="181.6" y2="150.58756034694053" stroke="#000"/>
<line x1="160.45" y1="163.26923011546612" x2="181.6" y2="163.26923011546612" stroke="#000"/>
<line x1="171.02499999999998" y1="150.58756034694053" x2="171.02499999999998" y2="163.26923011546612" stroke="#000"/>
<line x1="149.875" y1="498.0" x2="149.875" y2="502.79999999999995" stroke="#000"/>
<text x="149.875" y="512.4" fill="#111" font-size="small" font-family="monospace" font-weight="bold" text-anchor="end" transform="rotate(-60, 149.875, 512.4)">
30k_ifelse
</text>
<rect x="202.75" y="450.0332289737106" width="21.15" height="47.96677102628939" fill="#7070f8" data-tooltip="1.00x baseline speed (No JIT)"/>
<line x1="202.75" y1="449.21961297052934" x2="223.89999999999998" y2="449.21961297052934" stroke="#000"/>
<line x1="202.75" y1="450.8468449768919" x2="223.89999999999998" y2="450.8468449768919" stroke="#000"/>
<line x1="213.325" y1="449.21961297052934" x2="213.325" y2="450.8468449768919" stroke="#000"/>
<rect x="223.89999999999998" y="447.59972669666" width="21.15" height="50.40027330333989" fill="orange" data-tooltip="1.05x baseline speed (MJIT3.0)"/>
<line x1="223.89999999999998" y1="446.7390647505033" x2="245.04999999999998" y2="446.7390647505033" stroke="#000"/>
<line x1="223.89999999999998" y1="448.4603886428168" x2="245.04999999999998" y2="448.4603886428168" stroke="#000"/>
<line x1="234.475" y1="446.7390647505033" x2="234.475" y2="448.4603886428168" stroke="#000"/>
<rect x="245.04999999999998" y="456.3730713969529" width="21.15" height="41.62692860304703" fill="green" data-tooltip="0.87x baseline speed (MJIT)"/>
<line x1="245.04999999999998" y1="455.6666639337046" x2="266.2" y2="455.6666639337046" stroke="#000"/>
<line x1="245.04999999999998" y1="457.0794788602012" x2="266.2" y2="457.0794788602012" stroke="#000"/>
<line x1="255.625" y1="455.6666639337046" x2="255.625" y2="457.0794788602012" stroke="#000"/>
<rect x="266.2" y="100.19999999999999" width="21.15" height="397.79999999999995" fill="#4F3A7A" data-tooltip="8.29x baseline speed (YJIT)"/>
<line x1="266.2" y1="93.45212947246554" x2="287.35" y2="93.45212947246554" stroke="#000"/>
<line x1="266.2" y1="106.94787052753443" x2="287.35" y2="106.94787052753443" stroke="#000"/>
<line x1="276.775" y1="93.45212947246554" x2="276.775" y2="106.94787052753443" stroke="#000"/>
<line x1="255.625" y1="498.0" x2="255.625" y2="502.79999999999995" stroke="#000"/>
<text x="255.625" y="512.4" fill="#111" font-size="small" font-family="monospace" font-weight="bold" text-anchor="end" transform="rotate(-60, 255.625, 512.4)">
30k_methods
</text>
<rect x="308.5" y="450.0332289737106" width="21.15" height="47.96677102628939" fill="#7070f8" data-tooltip="1.00x baseline speed (No JIT)"/>
<line x1="308.5" y1="449.97147947276824" x2="329.65" y2="449.97147947276824" stroke="#000"/>
<line x1="308.5" y1="450.094978474653" x2="329.65" y2="450.094978474653" stroke="#000"/>
<line x1="319.075" y1="449.97147947276824" x2="319.075" y2="450.094978474653" stroke="#000"/>
<rect x="329.65" y="428.05951613301517" width="21.15" height="69.94048386698485" fill="orange" data-tooltip="1.46x baseline speed (MJIT3.0)"/>
<line x1="329.65" y1="427.9309458173139" x2="350.8" y2="427.9309458173139" stroke="#000"/>
<line x1="329.65" y1="428.1880864487164" x2="350.8" y2="428.1880864487164" stroke="#000"/>
<line x1="340.225" y1="427.9309458173139" x2="340.225" y2="428.1880864487164" stroke="#000"/>
<rect x="350.8" y="433.8103727718322" width="21.15" height="64.18962722816777" fill="green" data-tooltip="1.34x baseline speed (MJIT)"/>
<line x1="350.8" y1="433.6048134206701" x2="371.95" y2="433.6048134206701" stroke="#000"/>
<line x1="350.8" y1="434.01593212299423" x2="371.95" y2="434.01593212299423" stroke="#000"/>
<line x1="361.375" y1="433.6048134206701" x2="361.375" y2="434.01593212299423" stroke="#000"/>
<rect x="371.95" y="394.67145332510955" width="21.15" height="103.32854667489038" fill="#4F3A7A" data-tooltip="2.15x baseline speed (YJIT)"/>
<line x1="371.95" y1="394.3599968606704" x2="393.1" y2="394.3599968606704" stroke="#000"/>
<line x1="371.95" y1="394.9829097895487" x2="393.1" y2="394.9829097895487" stroke="#000"/>
<line x1="382.525" y1="394.3599968606704" x2="382.525" y2="394.9829097895487" stroke="#000"/>
<line x1="361.375" y1="498.0" x2="361.375" y2="502.79999999999995" stroke="#000"/>
<text x="361.375" y="512.4" fill="#111" font-size="small" font-family="monospace" font-weight="bold" text-anchor="end" transform="rotate(-60, 361.375, 512.4)">
cfunc_itself
</text>
<rect x="414.25" y="450.0332289737106" width="21.15" height="47.96677102628939" fill="#7070f8" data-tooltip="1.00x baseline speed (No JIT)"/>
<line x1="414.25" y1="450.0125445846324" x2="435.40000000000003" y2="450.0125445846324" stroke="#000"/>
<line x1="414.25" y1="450.0539133627888" x2="435.40000000000003" y2="450.0539133627888" stroke="#000"/>
<line x1="424.825" y1="450.0125445846324" x2="424.825" y2="450.0539133627888" stroke="#000"/>
<rect x="435.40000000000003" y="335.99852170770504" width="21.15" height="162.00147829229488" fill="orange" data-tooltip="3.38x baseline speed (MJIT3.0)"/>
<line x1="435.40000000000003" y1="335.9154551072058" x2="456.55" y2="335.9154551072058" stroke="#000"/>
<line x1="435.40000000000003" y1="336.0815883082043" x2="456.55" y2="336.0815883082043" stroke="#000"/>
<line x1="445.975" y1="335.9154551072058" x2="445.975" y2="336.0815883082043" stroke="#000"/>
<rect x="456.55" y="341.83627892665993" width="21.15" height="156.16372107334" fill="green" data-tooltip="3.26x baseline speed (MJIT)"/>
<line x1="456.55" y1="341.71245397123437" x2="477.7" y2="341.71245397123437" stroke="#000"/>
<line x1="456.55" y1="341.9601038820855" x2="477.7" y2="341.9601038820855" stroke="#000"/>
<line x1="467.125" y1="341.71245397123437" x2="467.125" y2="341.9601038820855" stroke="#000"/>
<rect x="477.7" y="311.84790395929855" width="21.15" height="186.15209604070137" fill="#4F3A7A" data-tooltip="3.88x baseline speed (YJIT)"/>
<line x1="477.7" y1="311.69102620162937" x2="498.85" y2="311.69102620162937" stroke="#000"/>
<line x1="477.7" y1="312.0047817169677" x2="498.85" y2="312.0047817169677" stroke="#000"/>
<line x1="488.27500000000003" y1="311.69102620162937" x2="488.27500000000003" y2="312.0047817169677" stroke="#000"/>
<line x1="467.125" y1="498.0" x2="467.125" y2="502.79999999999995" stroke="#000"/>
<text x="467.125" y="512.4" fill="#111" font-size="small" font-family="monospace" font-weight="bold" text-anchor="end" transform="rotate(-60, 467.125, 512.4)">
fib
</text>
<rect x="520.0" y="450.0332289737106" width="21.15" height="47.96677102628939" fill="#7070f8" data-tooltip="1.00x baseline speed (No JIT)"/>
<line x1="520.0" y1="449.93763773566116" x2="541.15" y2="449.93763773566116" stroke="#000"/>
<line x1="520.0" y1="450.12882021176006" x2="541.15" y2="450.12882021176006" stroke="#000"/>
<line x1="530.575" y1="449.93763773566116" x2="530.575" y2="450.12882021176006" stroke="#000"/>
<rect x="541.15" y="450.53322173361255" width="21.15" height="47.46677826638731" fill="orange" data-tooltip="0.99x baseline speed (MJIT3.0)"/>
<line x1="541.15" y1="450.406546414753" x2="562.3000000000001" y2="450.406546414753" stroke="#000"/>
<line x1="541.15" y1="450.65989705247216" x2="562.3000000000001" y2="450.65989705247216" stroke="#000"/>
<line x1="551.725" y1="450.406546414753" x2="551.725" y2="450.65989705247216" stroke="#000"/>
<rect x="562.3000000000001" y="450.0446061393719" width="21.15" height="47.955393860628035" fill="green" data-tooltip="1.00x baseline speed (MJIT)"/>
<line x1="562.3000000000001" y1="449.9014631204671" x2="583.45" y2="449.9014631204671" stroke="#000"/>
<line x1="562.3000000000001" y1="450.1877491582767" x2="583.45" y2="450.1877491582767" stroke="#000"/>
<line x1="572.875" y1="449.9014631204671" x2="572.875" y2="450.1877491582767" stroke="#000"/>
<rect x="583.45" y="377.08195577853314" width="21.15" height="120.91804422146679" fill="#4F3A7A" data-tooltip="2.52x baseline speed (YJIT)"/>
<line x1="583.45" y1="376.8259919926776" x2="604.6" y2="376.8259919926776" stroke="#000"/>
<line x1="583.45" y1="377.33791956438876" x2="604.6" y2="377.33791956438876" stroke="#000"/>
<line x1="594.025" y1="376.8259919926776" x2="594.025" y2="377.33791956438876" stroke="#000"/>
<line x1="572.875" y1="498.0" x2="572.875" y2="502.79999999999995" stroke="#000"/>
<text x="572.875" y="512.4" fill="#111" font-size="small" font-family="monospace" font-weight="bold" text-anchor="end" transform="rotate(-60, 572.875, 512.4)">
getivar
</text>
<rect x="625.7499999999999" y="450.0332289737106" width="21.15" height="47.96677102628939" fill="#7070f8" data-tooltip="1.00x baseline speed (No JIT)"/>
<line x1="625.7499999999999" y1="450.00907627899136" x2="646.8999999999999" y2="450.00907627899136" stroke="#000"/>
<line x1="625.7499999999999" y1="450.05738166842985" x2="646.8999999999999" y2="450.05738166842985" stroke="#000"/>
<line x1="636.3249999999999" y1="450.00907627899136" x2="636.3249999999999" y2="450.05738166842985" stroke="#000"/>
<rect x="646.8999999999999" y="436.3190097732513" width="21.15" height="61.68099022674869" fill="orange" data-tooltip="1.29x baseline speed (MJIT3.0)"/>
<line x1="646.8999999999999" y1="436.27041202008814" x2="668.05" y2="436.27041202008814" stroke="#000"/>
<line x1="646.8999999999999" y1="436.3676075264145" x2="668.05" y2="436.3676075264145" stroke="#000"/>
<line x1="657.4749999999999" y1="436.27041202008814" x2="657.4749999999999" y2="436.3676075264145" stroke="#000"/>
<rect x="668.05" y="437.82445889225585" width="21.15" height="60.17554110774408" fill="green" data-tooltip="1.25x baseline speed (MJIT)"/>
<line x1="668.05" y1="437.77616134924244" x2="689.1999999999999" y2="437.77616134924244" stroke="#000"/>
<line x1="668.05" y1="437.87275643526925" x2="689.1999999999999" y2="437.87275643526925" stroke="#000"/>
<line x1="678.6249999999999" y1="437.77616134924244" x2="678.6249999999999" y2="437.87275643526925" stroke="#000"/>
<rect x="689.1999999999999" y="251.39956743081515" width="21.15" height="246.6004325691848" fill="#4F3A7A" data-tooltip="5.14x baseline speed (YJIT)"/>
<line x1="689.1999999999999" y1="251.13350024687304" x2="710.3499999999999" y2="251.13350024687304" stroke="#000"/>
<line x1="689.1999999999999" y1="251.66563461475727" x2="710.3499999999999" y2="251.66563461475727" stroke="#000"/>
<line x1="699.775" y1="251.13350024687304" x2="699.775" y2="251.66563461475727" stroke="#000"/>
<line x1="678.6249999999999" y1="498.0" x2="678.6249999999999" y2="502.79999999999995" stroke="#000"/>
<text x="678.6249999999999" y="512.4" fill="#111" font-size="small" font-family="monospace" font-weight="bold" text-anchor="end" transform="rotate(-60, 678.6249999999999, 512.4)">
keyword_args
</text>
<rect x="731.4999999999999" y="450.0332289737106" width="21.15" height="47.96677102628939" fill="#7070f8" data-tooltip="1.00x baseline speed (No JIT)"/>
<line x1="731.4999999999999" y1="449.45000560162003" x2="752.65" y2="449.45000560162003" stroke="#000"/>
<line x1="731.4999999999999" y1="450.6164523458012" x2="752.65" y2="450.6164523458012" stroke="#000"/>
<line x1="742.0749999999999" y1="449.45000560162003" x2="742.0749999999999" y2="450.6164523458012" stroke="#000"/>
<rect x="752.65" y="442.6624977627834" width="21.15" height="55.337502237216555" fill="orange" data-tooltip="1.15x baseline speed (MJIT3.0)"/>
<line x1="752.65" y1="441.9307397607362" x2="773.8" y2="441.9307397607362" stroke="#000"/>
<line x1="752.65" y1="443.3942557648307" x2="773.8" y2="443.3942557648307" stroke="#000"/>
<line x1="763.2249999999999" y1="441.9307397607362" x2="763.2249999999999" y2="443.3942557648307" stroke="#000"/>
<rect x="773.8" y="443.0807965167112" width="21.15" height="54.91920348328874" fill="green" data-tooltip="1.14x baseline speed (MJIT)"/>
<line x1="773.8" y1="442.36429603924927" x2="794.9499999999999" y2="442.36429603924927" stroke="#000"/>
<line x1="773.8" y1="443.79729699417317" x2="794.9499999999999" y2="443.79729699417317" stroke="#000"/>
<line x1="784.3749999999999" y1="442.36429603924927" x2="784.3749999999999" y2="443.79729699417317" stroke="#000"/>
<rect x="794.9499999999999" y="428.090504505075" width="21.15" height="69.90949549492497" fill="#4F3A7A" data-tooltip="1.46x baseline speed (YJIT)"/>
<line x1="794.9499999999999" y1="427.18838343225184" x2="816.0999999999999" y2="427.18838343225184" stroke="#000"/>
<line x1="794.9499999999999" y1="428.99262557789814" x2="816.0999999999999" y2="428.99262557789814" stroke="#000"/>
<line x1="805.525" y1="427.18838343225184" x2="805.525" y2="428.99262557789814" stroke="#000"/>
<line x1="784.3749999999999" y1="498.0" x2="784.3749999999999" y2="502.79999999999995" stroke="#000"/>
<text x="784.3749999999999" y="512.4" fill="#111" font-size="small" font-family="monospace" font-weight="bold" text-anchor="end" transform="rotate(-60, 784.3749999999999, 512.4)">
respond_to
</text>
<rect x="837.2499999999999" y="450.0332289737106" width="21.15" height="47.96677102628939" fill="#7070f8" data-tooltip="1.00x baseline speed (No JIT)"/>
<line x1="837.2499999999999" y1="449.60919311864484" x2="858.4" y2="449.60919311864484" stroke="#000"/>
<line x1="837.2499999999999" y1="450.4572648287764" x2="858.4" y2="450.4572648287764" stroke="#000"/>
<line x1="847.8249999999999" y1="449.60919311864484" x2="847.8249999999999" y2="450.4572648287764" stroke="#000"/>
<rect x="858.4" y="453.2188549873916" width="21.15" height="44.7811450126084" fill="orange" data-tooltip="0.93x baseline speed (MJIT3.0)"/>
<line x1="858.4" y1="452.82021815184027" x2="879.55" y2="452.82021815184027" stroke="#000"/>
<line x1="858.4" y1="453.6174918229429" x2="879.55" y2="453.6174918229429" stroke="#000"/>
<line x1="868.9749999999999" y1="452.82021815184027" x2="868.9749999999999" y2="453.6174918229429" stroke="#000"/>
<rect x="879.55" y="450.15697591381985" width="21.15" height="47.84302408618012" fill="green" data-tooltip="1.00x baseline speed (MJIT)"/>
<line x1="879.55" y1="449.5697692403293" x2="900.6999999999999" y2="449.5697692403293" stroke="#000"/>
<line x1="879.55" y1="450.7441825873104" x2="900.6999999999999" y2="450.7441825873104" stroke="#000"/>
<line x1="890.125" y1="449.5697692403293" x2="890.125" y2="450.7441825873104" stroke="#000"/>
<rect x="900.6999999999999" y="424.821218032795" width="21.15" height="73.17878196720496" fill="#4F3A7A" data-tooltip="1.53x baseline speed (YJIT)"/>
<line x1="900.6999999999999" y1="424.1615465008426" x2="921.8499999999999" y2="424.1615465008426" stroke="#000"/>
<line x1="900.6999999999999" y1="425.48088956474743" x2="921.8499999999999" y2="425.48088956474743" stroke="#000"/>
<line x1="911.275" y1="424.1615465008426" x2="911.275" y2="425.48088956474743" stroke="#000"/>
<line x1="890.125" y1="498.0" x2="890.125" y2="502.79999999999995" stroke="#000"/>
<text x="890.125" y="512.4" fill="#111" font-size="small" font-family="monospace" font-weight="bold" text-anchor="end" transform="rotate(-60, 890.125, 512.4)">
setivar
</text>
</svg>