<svg viewBox="0 0 1000 600" xmlns="http://www.w3.org/2000/svg" xmlns:xlink="http://www.w3.org/1999/xlink" width="100%" height="100%">

<rect x="50.0" y="30.0" width="940.0" height="467.99999999999994" stroke="#000" fill="#EEE"/>
<line x1="42.0" y1="497.9999999999999" x2="50.0" y2="497.9999999999999" stroke="#000"/>
<text x="26.000000000000004" y="497.9999999999999" text-anchor="end" font-weight="bold" font-size="small" fill="#111">
0.0
</text>
<line x1="42.0" y1="440.45560769825926" x2="50.0" y2="440.45560769825926" stroke="#000"/>
<text x="26.000000000000004" y="440.45560769825926" text-anchor="end" font-weight="bold" font-size="small" fill="#111">
1.0
</text>
<line x1="42.0" y1="382.9112153965185" x2="50.0" y2="382.9112153965185" stroke="#000"/>
<text x="26.000000000000004" y="382.9112153965185" text-anchor="end" font-weight="bold" font-size="small" fill="#111">
2.0
</text>
<line x1="42.0" y1="325.3668230947778" x2="50.0" y2="325.3668230947778" stroke="#000"/>
<text x="26.000000000000004" y="325.3668230947778" text-anchor="end" font-weight="bold" font-size="small" fill="#111">
3.0
</text>
<line x1="42.0" y1="267.8224307930371" x2="50.0" y2="267.8224307930371" stroke="#000"/>
<text x="26.000000000000004" y="267.8224307930371" text-anchor="end" font-weight="bold" font-size="small" fill="#111">
4.0
</text>
<line x1="42.0" y1="210.27803849129643" x2="50.0" y2="210.27803849129643" stroke="#000"/>
<text x="26.000000000000004" y="210.27803849129643" text-anchor="end" font-weight="bold" font-size="small" fill="#111">
5.0
</text>
<line x1="42.0" y1="152.7336461895557" x2="50.0" y2="152.7336461895557" stroke="#000"/>
<text x="26.000000000000004" y="152.7336461895557" text-anchor="end" font-weight="bold" font-size="small" fill="#111">
6.0
</text>
<rect x="268.5" y="36.00000000000001" width="80.0" height="18.0" fill="#7070f8" stroke="#888"/>
<text x="308.5" y="52.50000000000001" font-size="small" text-anchor="middle" font-weight="bold" fill="#EEE">
No JIT
</text>
<rect x="691.4999999999999" y="36.00000000000001" width="80.0" height="18.0" fill="orange" stroke="#888"/>
<text x="731.4999999999999" y="52.50000000000001" font-size="small" text-anchor="middle" font-weight="bold" fill="#EEE">
YJIT
</text>
<rect x="97.0" y="440.45560769825926" width="10.444444444444443" height="57.54439230174071" fill="#7070f8" data-tooltip="1.00x baseline speed (No JIT)"/>
<line x1="97.0" y1="440.3693499184626" x2="107.44444444444446" y2="440.3693499184626" stroke="#000"/>
<line x1="97.0" y1="440.5418654780559" x2="107.44444444444446" y2="440.5418654780559" stroke="#000"/>
<line x1="102.22222222222223" y1="440.3693499184626" x2="102.22222222222223" y2="440.5418654780559" stroke="#000"/>
<rect x="107.44444444444446" y="427.6235011660465" width="10.444444444444443" height="70.37649883395345" fill="orange" data-tooltip="1.22x baseline speed (YJIT)"/>
<line x1="107.44444444444446" y1="427.4304856712914" x2="117.8888888888889" y2="427.4304856712914" stroke="#000"/>
<line x1="107.44444444444446" y1="427.81651666080154" x2="117.8888888888889" y2="427.81651666080154" stroke="#000"/>
<line x1="112.66666666666669" y1="427.4304856712914" x2="112.66666666666669" y2="427.81651666080154" stroke="#000"/>
<line x1="112.66666666666667" y1="498.0" x2="112.66666666666667" y2="502.79999999999995" stroke="#000"/>
<text x="112.66666666666667" y="512.4" fill="#111" font-size="small" font-family="monospace" font-weight="bold" text-anchor="end" transform="rotate(-60, 112.66666666666667, 512.4)">
activerecord
</text>
<rect x="128.33333333333331" y="440.45560769825926" width="10.444444444444443" height="57.54439230174071" fill="#7070f8" data-tooltip="1.00x baseline speed (No JIT)"/>
<line x1="128.33333333333331" y1="440.07358273752976" x2="138.77777777777777" y2="440.07358273752976" stroke="#000"/>
<line x1="128.33333333333331" y1="440.8376326589888" x2="138.77777777777777" y2="440.8376326589888" stroke="#000"/>
<line x1="133.55555555555554" y1="440.07358273752976" x2="133.55555555555554" y2="440.8376326589888" stroke="#000"/>
<rect x="138.77777777777777" y="431.35130815080606" width="10.444444444444443" height="66.64869184919385" fill="orange" data-tooltip="1.16x baseline speed (YJIT)"/>
<line x1="138.77777777777777" y1="430.28329780666184" x2="149.22222222222223" y2="430.28329780666184" stroke="#000"/>
<line x1="138.77777777777777" y1="432.4193184949503" x2="149.22222222222223" y2="432.4193184949503" stroke="#000"/>
<line x1="144.0" y1="430.28329780666184" x2="144.0" y2="432.4193184949503" stroke="#000"/>
<line x1="144.0" y1="498.0" x2="144.0" y2="502.79999999999995" stroke="#000"/>
<text x="144.0" y="512.4" fill="#111" font-size="small" font-family="monospace" font-weight="bold" text-anchor="end" transform="rotate(-60, 144.0, 512.4)">
hexapdf
</text>
<rect x="159.66666666666669" y="440.45560769825926" width="10.444444444444443" height="57.54439230174071" fill="#7070f8" data-tooltip="1.00x baseline speed (No JIT)"/>
<line x1="159.66666666666669" y1="439.86802424453435" x2="170.11111111111114" y2="439.86802424453435" stroke="#000"/>
<line x1="159.66666666666669" y1="441.04319115198416" x2="170.11111111111114" y2="441.04319115198416" stroke="#000"/>
<line x1="164.88888888888889" y1="439.86802424453435" x2="164.88888888888889" y2="441.04319115198416" stroke="#000"/>
<rect x="170.11111111111114" y="418.09139194191425" width="10.444444444444443" height="79.90860805808566" fill="orange" data-tooltip="1.39x baseline speed (YJIT)"/>
<line x1="170.11111111111114" y1="416.5127845165694" x2="180.55555555555557" y2="416.5127845165694" stroke="#000"/>
<line x1="170.11111111111114" y1="419.6699993672591" x2="180.55555555555557" y2="419.6699993672591" stroke="#000"/>
<line x1="175.33333333333334" y1="416.5127845165694" x2="175.33333333333334" y2="419.6699993672591" stroke="#000"/>
<line x1="175.33333333333334" y1="498.0" x2="175.33333333333334" y2="502.79999999999995" stroke="#000"/>
<text x="175.33333333333334" y="512.4" fill="#111" font-size="small" font-family="monospace" font-weight="bold" text-anchor="end" transform="rotate(-60, 175.33333333333334, 512.4)">
liquid-render
</text>
<rect x="191.0" y="440.45560769825926" width="10.444444444444443" height="57.54439230174071" fill="#7070f8" data-tooltip="1.00x baseline speed (No JIT)"/>
<line x1="191.0" y1="440.40990082616116" x2="201.44444444444446" y2="440.40990082616116" stroke="#000"/>
<line x1="191.0" y1="440.50131457035735" x2="201.44444444444446" y2="440.50131457035735" stroke="#000"/>
<line x1="196.22222222222223" y1="440.40990082616116" x2="196.22222222222223" y2="440.50131457035735" stroke="#000"/>
<rect x="201.44444444444446" y="434.7368390024362" width="10.444444444444443" height="63.263160997563716" fill="orange" data-tooltip="1.10x baseline speed (YJIT)"/>
<line x1="201.44444444444446" y1="434.637576216899" x2="211.8888888888889" y2="434.637576216899" stroke="#000"/>
<line x1="201.44444444444446" y1="434.8361017879735" x2="211.8888888888889" y2="434.8361017879735" stroke="#000"/>
<line x1="206.66666666666666" y1="434.637576216899" x2="206.66666666666666" y2="434.8361017879735" stroke="#000"/>
<line x1="206.66666666666666" y1="498.0" x2="206.66666666666666" y2="502.79999999999995" stroke="#000"/>
<text x="206.66666666666666" y="512.4" fill="#111" font-size="small" font-family="monospace" font-weight="bold" text-anchor="end" transform="rotate(-60, 206.66666666666666, 512.4)">
mail
</text>
<rect x="222.33333333333331" y="440.45560769825926" width="10.444444444444443" height="57.54439230174071" fill="#7070f8" data-tooltip="1.00x baseline speed (No JIT)"/>
<line x1="222.33333333333331" y1="440.3557685239335" x2="232.77777777777777" y2="440.3557685239335" stroke="#000"/>
<line x1="222.33333333333331" y1="440.5554468725851" x2="232.77777777777777" y2="440.5554468725851" stroke="#000"/>
<line x1="227.55555555555554" y1="440.3557685239335" x2="227.55555555555554" y2="440.5554468725851" stroke="#000"/>
<rect x="232.77777777777777" y="422.72165772932124" width="10.444444444444443" height="75.27834227067878" fill="orange" data-tooltip="1.31x baseline speed (YJIT)"/>
<line x1="232.77777777777777" y1="422.5873725592361" x2="243.22222222222223" y2="422.5873725592361" stroke="#000"/>
<line x1="232.77777777777777" y1="422.8559428994064" x2="243.22222222222223" y2="422.8559428994064" stroke="#000"/>
<line x1="238.0" y1="422.5873725592361" x2="238.0" y2="422.8559428994064" stroke="#000"/>
<line x1="238.0" y1="498.0" x2="238.0" y2="502.79999999999995" stroke="#000"/>
<text x="238.0" y="512.4" fill="#111" font-size="small" font-family="monospace" font-weight="bold" text-anchor="end" transform="rotate(-60, 238.0, 512.4)">
psych-load
</text>
<rect x="253.66666666666666" y="440.45560769825926" width="10.444444444444443" height="57.54439230174071" fill="#7070f8" data-tooltip="1.00x baseline speed (No JIT)"/>
<line x1="253.66666666666666" y1="440.22361716286656" x2="264.1111111111111" y2="440.22361716286656" stroke="#000"/>
<line x1="253.66666666666666" y1="440.68759823365195" x2="264.1111111111111" y2="440.68759823365195" stroke="#000"/>
<line x1="258.8888888888889" y1="440.22361716286656" x2="258.8888888888889" y2="440.68759823365195" stroke="#000"/>
<rect x="264.1111111111111" y="428.2511832610886" width="10.444444444444443" height="69.74881673891133" fill="orange" data-tooltip="1.21x baseline speed (YJIT)"/>
<line x1="264.1111111111111" y1="427.95571373714773" x2="274.5555555555555" y2="427.95571373714773" stroke="#000"/>
<line x1="264.1111111111111" y1="428.54665278502955" x2="274.5555555555555" y2="428.54665278502955" stroke="#000"/>
<line x1="269.3333333333333" y1="427.95571373714773" x2="269.3333333333333" y2="428.54665278502955" stroke="#000"/>
<line x1="269.3333333333333" y1="498.0" x2="269.3333333333333" y2="502.79999999999995" stroke="#000"/>
<text x="269.3333333333333" y="512.4" fill="#111" font-size="small" font-family="monospace" font-weight="bold" text-anchor="end" transform="rotate(-60, 269.3333333333333, 512.4)">
railsbench
</text>
<rect x="285.00000000000006" y="440.45560769825926" width="10.444444444444443" height="57.54439230174071" fill="#7070f8" data-tooltip="1.00x baseline speed (No JIT)"/>
<line x1="285.00000000000006" y1="436.72007433658933" x2="295.44444444444446" y2="436.72007433658933" stroke="#000"/>
<line x1="285.00000000000006" y1="444.1911410599292" x2="295.44444444444446" y2="444.1911410599292" stroke="#000"/>
<line x1="290.2222222222223" y1="436.72007433658933" x2="290.2222222222223" y2="444.1911410599292" stroke="#000"/>
<rect x="295.44444444444446" y="437.5239718170727" width="10.444444444444443" height="60.47602818292723" fill="orange" data-tooltip="1.05x baseline speed (YJIT)"/>
<line x1="295.44444444444446" y1="430.29076829604327" x2="305.88888888888886" y2="430.29076829604327" stroke="#000"/>
<line x1="295.44444444444446" y1="444.7571753381022" x2="305.88888888888886" y2="444.7571753381022" stroke="#000"/>
<line x1="300.6666666666667" y1="430.29076829604327" x2="300.6666666666667" y2="444.7571753381022" stroke="#000"/>
<line x1="300.6666666666667" y1="498.0" x2="300.6666666666667" y2="502.79999999999995" stroke="#000"/>
<text x="300.6666666666667" y="512.4" fill="#111" font-size="small" font-family="monospace" font-weight="bold" text-anchor="end" transform="rotate(-60, 300.6666666666667, 512.4)">
ruby-lsp
</text>
<rect x="316.33333333333337" y="440.45560769825926" width="10.444444444444443" height="57.54439230174071" fill="#7070f8" data-tooltip="1.00x baseline speed (No JIT)"/>
<line x1="316.33333333333337" y1="440.4120494156995" x2="326.77777777777777" y2="440.4120494156995" stroke="#000"/>
<line x1="316.33333333333337" y1="440.499165980819" x2="326.77777777777777" y2="440.499165980819" stroke="#000"/>
<line x1="321.5555555555556" y1="440.4120494156995" x2="321.5555555555556" y2="440.499165980819" stroke="#000"/>
<rect x="326.77777777777777" y="390.0701140609604" width="10.444444444444443" height="107.92988593903955" fill="orange" data-tooltip="1.88x baseline speed (YJIT)"/>
<line x1="326.77777777777777" y1="389.8936624069142" x2="337.22222222222223" y2="389.8936624069142" stroke="#000"/>
<line x1="326.77777777777777" y1="390.2465657150067" x2="337.22222222222223" y2="390.2465657150067" stroke="#000"/>
<line x1="332.0" y1="389.8936624069142" x2="332.0" y2="390.2465657150067" stroke="#000"/>
<line x1="332.0" y1="498.0" x2="332.0" y2="502.79999999999995" stroke="#000"/>
<text x="332.0" y="512.4" fill="#111" font-size="small" font-family="monospace" font-weight="bold" text-anchor="end" transform="rotate(-60, 332.0, 512.4)">
binarytrees
</text>
<rect x="347.6666666666667" y="440.45560769825926" width="10.444444444444443" height="57.54439230174071" fill="#7070f8" data-tooltip="1.00x baseline speed (No JIT)"/>
<line x1="347.6666666666667" y1="440.3624193805115" x2="358.1111111111111" y2="440.3624193805115" stroke="#000"/>
<line x1="347.6666666666667" y1="440.5487960160071" x2="358.1111111111111" y2="440.5487960160071" stroke="#000"/>
<line x1="352.8888888888889" y1="440.3624193805115" x2="352.8888888888889" y2="440.5487960160071" stroke="#000"/>
<rect x="358.1111111111111" y="413.85019300786854" width="10.444444444444443" height="84.1498069921314" fill="orange" data-tooltip="1.46x baseline speed (YJIT)"/>
<line x1="358.1111111111111" y1="413.7009700954968" x2="368.55555555555554" y2="413.7009700954968" stroke="#000"/>
<line x1="358.1111111111111" y1="413.99941592024027" x2="368.55555555555554" y2="413.99941592024027" stroke="#000"/>
<line x1="363.3333333333333" y1="413.7009700954968" x2="363.3333333333333" y2="413.99941592024027" stroke="#000"/>
<line x1="363.3333333333333" y1="498.0" x2="363.3333333333333" y2="502.79999999999995" stroke="#000"/>
<text x="363.3333333333333" y="512.4" fill="#111" font-size="small" font-family="monospace" font-weight="bold" text-anchor="end" transform="rotate(-60, 363.3333333333333, 512.4)">
chunky_png
</text>
<rect x="379.0" y="440.45560769825926" width="10.444444444444443" height="57.54439230174071" fill="#7070f8" data-tooltip="1.00x baseline speed (No JIT)"/>
<line x1="379.0" y1="439.85608413740147" x2="389.4444444444444" y2="439.85608413740147" stroke="#000"/>
<line x1="379.0" y1="441.05513125911705" x2="389.4444444444444" y2="441.05513125911705" stroke="#000"/>
<line x1="384.22222222222223" y1="439.85608413740147" x2="384.22222222222223" y2="441.05513125911705" stroke="#000"/>
<rect x="389.4444444444444" y="438.8324349098096" width="10.444444444444443" height="59.167565090190394" fill="orange" data-tooltip="1.03x baseline speed (YJIT)"/>
<line x1="389.4444444444444" y1="437.99873091227596" x2="399.88888888888886" y2="437.99873091227596" stroke="#000"/>
<line x1="389.4444444444444" y1="439.6661389073433" x2="399.88888888888886" y2="439.6661389073433" stroke="#000"/>
<line x1="394.6666666666667" y1="437.99873091227596" x2="394.6666666666667" y2="439.6661389073433" stroke="#000"/>
<line x1="394.6666666666667" y1="498.0" x2="394.6666666666667" y2="502.79999999999995" stroke="#000"/>
<text x="394.6666666666667" y="512.4" fill="#111" font-size="small" font-family="monospace" font-weight="bold" text-anchor="end" transform="rotate(-60, 394.6666666666667, 512.4)">
erubi
</text>
<rect x="410.3333333333333" y="440.45560769825926" width="10.444444444444443" height="57.54439230174071" fill="#7070f8" data-tooltip="1.00x baseline speed (No JIT)"/>
<line x1="410.3333333333333" y1="439.17276523283766" x2="420.77777777777777" y2="439.17276523283766" stroke="#000"/>
<line x1="410.3333333333333" y1="441.7384501636809" x2="420.77777777777777" y2="441.7384501636809" stroke="#000"/>
<line x1="415.55555555555554" y1="439.17276523283766" x2="415.55555555555554" y2="441.7384501636809" stroke="#000"/>
<rect x="420.77777777777777" y="427.07225935598143" width="10.444444444444443" height="70.92774064401846" fill="orange" data-tooltip="1.23x baseline speed (YJIT)"/>
<line x1="420.77777777777777" y1="424.80915634586734" x2="431.2222222222222" y2="424.80915634586734" stroke="#000"/>
<line x1="420.77777777777777" y1="429.3353623660955" x2="431.2222222222222" y2="429.3353623660955" stroke="#000"/>
<line x1="426.0" y1="424.80915634586734" x2="426.0" y2="429.3353623660955" stroke="#000"/>
<line x1="426.0" y1="498.0" x2="426.0" y2="502.79999999999995" stroke="#000"/>
<text x="426.0" y="512.4" fill="#111" font-size="small" font-family="monospace" font-weight="bold" text-anchor="end" transform="rotate(-60, 426.0, 512.4)">
erubi_rails
</text>
<rect x="441.66666666666663" y="440.45560769825926" width="10.444444444444443" height="57.54439230174071" fill="#7070f8" data-tooltip="1.00x baseline speed (No JIT)"/>
<line x1="441.66666666666663" y1="440.11696126162263" x2="452.1111111111111" y2="440.11696126162263" stroke="#000"/>
<line x1="441.66666666666663" y1="440.7942541348959" x2="452.1111111111111" y2="440.7942541348959" stroke="#000"/>
<line x1="446.8888888888889" y1="440.11696126162263" x2="446.8888888888889" y2="440.7942541348959" stroke="#000"/>
<rect x="452.1111111111111" y="438.2210052074692" width="10.444444444444443" height="59.77899479253078" fill="orange" data-tooltip="1.04x baseline speed (YJIT)"/>
<line x1="452.1111111111111" y1="437.46553817338383" x2="462.5555555555555" y2="437.46553817338383" stroke="#000"/>
<line x1="452.1111111111111" y1="438.97647224155463" x2="462.5555555555555" y2="438.97647224155463" stroke="#000"/>
<line x1="457.3333333333333" y1="437.46553817338383" x2="457.3333333333333" y2="438.97647224155463" stroke="#000"/>
<line x1="457.3333333333333" y1="498.0" x2="457.3333333333333" y2="502.79999999999995" stroke="#000"/>
<text x="457.3333333333333" y="512.4" fill="#111" font-size="small" font-family="monospace" font-weight="bold" text-anchor="end" transform="rotate(-60, 457.3333333333333, 512.4)">
etanni
</text>
<rect x="473.0" y="440.45560769825926" width="10.444444444444443" height="57.54439230174071" fill="#7070f8" data-tooltip="1.00x baseline speed (No JIT)"/>
<line x1="473.0" y1="439.93955447540657" x2="483.4444444444444" y2="439.93955447540657" stroke="#000"/>
<line x1="473.0" y1="440.97166092111195" x2="483.4444444444444" y2="440.97166092111195" stroke="#000"/>
<line x1="478.22222222222223" y1="439.93955447540657" x2="478.22222222222223" y2="440.97166092111195" stroke="#000"/>
<rect x="483.4444444444444" y="351.0026744547423" width="10.444444444444443" height="146.9973255452576" fill="orange" data-tooltip="2.55x baseline speed (YJIT)"/>
<line x1="483.4444444444444" y1="349.53069633880267" x2="493.8888888888888" y2="349.53069633880267" stroke="#000"/>
<line x1="483.4444444444444" y1="352.47465257068194" x2="493.8888888888888" y2="352.47465257068194" stroke="#000"/>
<line x1="488.66666666666663" y1="349.53069633880267" x2="488.66666666666663" y2="352.47465257068194" stroke="#000"/>
<line x1="488.66666666666663" y1="498.0" x2="488.66666666666663" y2="502.79999999999995" stroke="#000"/>
<text x="488.66666666666663" y="512.4" fill="#111" font-size="small" font-family="monospace" font-weight="bold" text-anchor="end" transform="rotate(-60, 488.66666666666663, 512.4)">
fannkuchredux
</text>
<rect x="504.3333333333333" y="440.45560769825926" width="10.444444444444443" height="57.54439230174071" fill="#7070f8" data-tooltip="1.00x baseline speed (No JIT)"/>
<line x1="504.3333333333333" y1="440.28249128125157" x2="514.7777777777778" y2="440.28249128125157" stroke="#000"/>
<line x1="504.3333333333333" y1="440.62872411526695" x2="514.7777777777778" y2="440.62872411526695" stroke="#000"/>
<line x1="509.55555555555554" y1="440.28249128125157" x2="509.55555555555554" y2="440.62872411526695" stroke="#000"/>
<rect x="514.7777777777778" y="421.1140365009956" width="10.444444444444443" height="76.88596349900433" fill="orange" data-tooltip="1.34x baseline speed (YJIT)"/>
<line x1="514.7777777777778" y1="420.8283383300681" x2="525.2222222222223" y2="420.8283383300681" stroke="#000"/>
<line x1="514.7777777777778" y1="421.39973467192317" x2="525.2222222222223" y2="421.39973467192317" stroke="#000"/>
<line x1="520.0" y1="420.8283383300681" x2="520.0" y2="421.39973467192317" stroke="#000"/>
<line x1="520.0" y1="498.0" x2="520.0" y2="502.79999999999995" stroke="#000"/>
<text x="520.0" y="512.4" fill="#111" font-size="small" font-family="monospace" font-weight="bold" text-anchor="end" transform="rotate(-60, 520.0, 512.4)">
lee
</text>
<rect x="535.6666666666666" y="440.45560769825926" width="10.444444444444443" height="57.54439230174071" fill="#7070f8" data-tooltip="1.00x baseline speed (No JIT)"/>
<line x1="535.6666666666666" y1="438.92612070924235" x2="546.1111111111111" y2="438.92612070924235" stroke="#000"/>
<line x1="535.6666666666666" y1="441.9850946872762" x2="546.1111111111111" y2="441.9850946872762" stroke="#000"/>
<line x1="540.8888888888889" y1="438.92612070924235" x2="540.8888888888889" y2="441.9850946872762" stroke="#000"/>
<rect x="546.1111111111111" y="408.88431966831547" width="10.444444444444443" height="89.11568033168449" fill="orange" data-tooltip="1.55x baseline speed (YJIT)"/>
<line x1="546.1111111111111" y1="406.51487184385167" x2="556.5555555555555" y2="406.51487184385167" stroke="#000"/>
<line x1="546.1111111111111" y1="411.2537674927792" x2="556.5555555555555" y2="411.2537674927792" stroke="#000"/>
<line x1="551.3333333333334" y1="406.51487184385167" x2="551.3333333333334" y2="411.2537674927792" stroke="#000"/>
<line x1="551.3333333333334" y1="498.0" x2="551.3333333333334" y2="502.79999999999995" stroke="#000"/>
<text x="551.3333333333334" y="512.4" fill="#111" font-size="small" font-family="monospace" font-weight="bold" text-anchor="end" transform="rotate(-60, 551.3333333333334, 512.4)">
nbody
</text>
<rect x="567.0" y="440.45560769825926" width="10.444444444444443" height="57.54439230174071" fill="#7070f8" data-tooltip="1.00x baseline speed (No JIT)"/>
<line x1="567.0" y1="440.1147839528123" x2="577.4444444444445" y2="440.1147839528123" stroke="#000"/>
<line x1="567.0" y1="440.7964314437063" x2="577.4444444444445" y2="440.7964314437063" stroke="#000"/>
<line x1="572.2222222222222" y1="440.1147839528123" x2="572.2222222222222" y2="440.7964314437063" stroke="#000"/>
<rect x="577.4444444444445" y="413.0623234722993" width="10.444444444444443" height="84.93767652770062" fill="orange" data-tooltip="1.48x baseline speed (YJIT)"/>
<line x1="577.4444444444445" y1="412.4416754424119" x2="587.8888888888889" y2="412.4416754424119" stroke="#000"/>
<line x1="577.4444444444445" y1="413.6829715021867" x2="587.8888888888889" y2="413.6829715021867" stroke="#000"/>
<line x1="582.6666666666666" y1="412.4416754424119" x2="582.6666666666666" y2="413.6829715021867" stroke="#000"/>
<line x1="582.6666666666666" y1="498.0" x2="582.6666666666666" y2="502.79999999999995" stroke="#000"/>
<text x="582.6666666666666" y="512.4" fill="#111" font-size="small" font-family="monospace" font-weight="bold" text-anchor="end" transform="rotate(-60, 582.6666666666666, 512.4)">
optcarrot
</text>
<rect x="598.3333333333333" y="440.45560769825926" width="10.444444444444443" height="57.54439230174071" fill="#7070f8" data-tooltip="1.00x baseline speed (No JIT)"/>
<line x1="598.3333333333333" y1="440.13573345775757" x2="608.7777777777777" y2="440.13573345775757" stroke="#000"/>
<line x1="598.3333333333333" y1="440.77548193876095" x2="608.7777777777777" y2="440.77548193876095" stroke="#000"/>
<line x1="603.5555555555555" y1="440.13573345775757" x2="603.5555555555555" y2="440.77548193876095" stroke="#000"/>
<rect x="608.7777777777777" y="413.56542666235003" width="10.444444444444443" height="84.43457333764991" fill="orange" data-tooltip="1.47x baseline speed (YJIT)"/>
<line x1="608.7777777777777" y1="413.0313659993335" x2="619.2222222222223" y2="413.0313659993335" stroke="#000"/>
<line x1="608.7777777777777" y1="414.09948732536657" x2="619.2222222222223" y2="414.09948732536657" stroke="#000"/>
<line x1="614.0" y1="413.0313659993335" x2="614.0" y2="414.09948732536657" stroke="#000"/>
<line x1="614.0" y1="498.0" x2="614.0" y2="502.79999999999995" stroke="#000"/>
<text x="614.0" y="512.4" fill="#111" font-size="small" font-family="monospace" font-weight="bold" text-anchor="end" transform="rotate(-60, 614.0, 512.4)">
rubykon
</text>
<rect x="629.6666666666666" y="440.45560769825926" width="10.444444444444443" height="57.54439230174071" fill="#7070f8" data-tooltip="1.00x baseline speed (No JIT)"/>
<line x1="629.6666666666666" y1="439.81063490671585" x2="640.1111111111111" y2="439.81063490671585" stroke="#000"/>
<line x1="629.6666666666666" y1="441.10058048980267" x2="640.1111111111111" y2="441.10058048980267" stroke="#000"/>
<line x1="634.8888888888888" y1="439.81063490671585" x2="634.8888888888888" y2="441.10058048980267" stroke="#000"/>
<rect x="640.1111111111111" y="282.76969348310587" width="10.444444444444443" height="215.23030651689407" fill="orange" data-tooltip="3.74x baseline speed (YJIT)"/>
<line x1="640.1111111111111" y1="280.35428111265685" x2="650.5555555555555" y2="280.35428111265685" stroke="#000"/>
<line x1="640.1111111111111" y1="285.18510585355483" x2="650.5555555555555" y2="285.18510585355483" stroke="#000"/>
<line x1="645.3333333333333" y1="280.35428111265685" x2="645.3333333333333" y2="285.18510585355483" stroke="#000"/>
<line x1="645.3333333333333" y1="498.0" x2="645.3333333333333" y2="502.79999999999995" stroke="#000"/>
<text x="645.3333333333333" y="512.4" fill="#111" font-size="small" font-family="monospace" font-weight="bold" text-anchor="end" transform="rotate(-60, 645.3333333333333, 512.4)">
30k_ifelse
</text>
<rect x="660.9999999999999" y="440.45560769825926" width="10.444444444444443" height="57.54439230174071" fill="#7070f8" data-tooltip="1.00x baseline speed (No JIT)"/>
<line x1="660.9999999999999" y1="440.35982173528026" x2="671.4444444444443" y2="440.35982173528026" stroke="#000"/>
<line x1="660.9999999999999" y1="440.55139366123825" x2="671.4444444444443" y2="440.55139366123825" stroke="#000"/>
<line x1="666.2222222222222" y1="440.35982173528026" x2="666.2222222222222" y2="440.55139366123825" stroke="#000"/>
<rect x="671.4444444444443" y="253.84263546352534" width="10.444444444444443" height="244.1573645364746" fill="orange" data-tooltip="4.24x baseline speed (YJIT)"/>
<line x1="671.4444444444443" y1="253.39537212554418" x2="681.8888888888889" y2="253.39537212554418" stroke="#000"/>
<line x1="671.4444444444443" y1="254.2898988015065" x2="681.8888888888889" y2="254.2898988015065" stroke="#000"/>
<line x1="676.6666666666666" y1="253.39537212554418" x2="676.6666666666666" y2="254.2898988015065" stroke="#000"/>
<line x1="676.6666666666666" y1="498.0" x2="676.6666666666666" y2="502.79999999999995" stroke="#000"/>
<text x="676.6666666666666" y="512.4" fill="#111" font-size="small" font-family="monospace" font-weight="bold" text-anchor="end" transform="rotate(-60, 676.6666666666666, 512.4)">
30k_methods
</text>
<rect x="692.3333333333333" y="440.45560769825926" width="10.444444444444443" height="57.54439230174071" fill="#7070f8" data-tooltip="1.00x baseline speed (No JIT)"/>
<line x1="692.3333333333333" y1="440.32785663317185" x2="702.7777777777777" y2="440.32785663317185" stroke="#000"/>
<line x1="692.3333333333333" y1="440.58335876334667" x2="702.7777777777777" y2="440.58335876334667" stroke="#000"/>
<line x1="697.5555555555554" y1="440.32785663317185" x2="697.5555555555554" y2="440.58335876334667" stroke="#000"/>
<rect x="702.7777777777777" y="345.6682979594953" width="10.444444444444443" height="152.3317020405046" fill="orange" data-tooltip="2.65x baseline speed (YJIT)"/>
<line x1="702.7777777777777" y1="345.3287824940865" x2="713.2222222222222" y2="345.3287824940865" stroke="#000"/>
<line x1="702.7777777777777" y1="346.0078134249041" x2="713.2222222222222" y2="346.0078134249041" stroke="#000"/>
<line x1="708.0" y1="345.3287824940865" x2="708.0" y2="346.0078134249041" stroke="#000"/>
<line x1="708.0" y1="498.0" x2="708.0" y2="502.79999999999995" stroke="#000"/>
<text x="708.0" y="512.4" fill="#111" font-size="small" font-family="monospace" font-weight="bold" text-anchor="end" transform="rotate(-60, 708.0, 512.4)">
cfunc_itself
</text>
<rect x="723.6666666666665" y="440.45560769825926" width="10.444444444444443" height="57.54439230174071" fill="#7070f8" data-tooltip="1.00x baseline speed (No JIT)"/>
<line x1="723.6666666666665" y1="439.8607156667897" x2="734.1111111111111" y2="439.8607156667897" stroke="#000"/>
<line x1="723.6666666666665" y1="441.05049972972887" x2="734.1111111111111" y2="441.05049972972887" stroke="#000"/>
<line x1="728.8888888888888" y1="439.8607156667897" x2="728.8888888888888" y2="441.05049972972887" stroke="#000"/>
<rect x="734.1111111111111" y="320.207220337823" width="10.444444444444443" height="177.79277966217697" fill="orange" data-tooltip="3.09x baseline speed (YJIT)"/>
<line x1="734.1111111111111" y1="318.3691839498451" x2="744.5555555555555" y2="318.3691839498451" stroke="#000"/>
<line x1="734.1111111111111" y1="322.045256725801" x2="744.5555555555555" y2="322.045256725801" stroke="#000"/>
<line x1="739.3333333333333" y1="318.3691839498451" x2="739.3333333333333" y2="322.045256725801" stroke="#000"/>
<line x1="739.3333333333333" y1="498.0" x2="739.3333333333333" y2="502.79999999999995" stroke="#000"/>
<text x="739.3333333333333" y="512.4" fill="#111" font-size="small" font-family="monospace" font-weight="bold" text-anchor="end" transform="rotate(-60, 739.3333333333333, 512.4)">
fib
</text>
<rect x="754.9999999999999" y="440.45560769825926" width="10.444444444444443" height="57.54439230174071" fill="#7070f8" data-tooltip="1.00x baseline speed (No JIT)"/>
<line x1="754.9999999999999" y1="439.3944461759208" x2="765.4444444444443" y2="439.3944461759208" stroke="#000"/>
<line x1="754.9999999999999" y1="441.5167692205977" x2="765.4444444444443" y2="441.5167692205977" stroke="#000"/>
<line x1="760.2222222222222" y1="439.3944461759208" x2="760.2222222222222" y2="441.5167692205977" stroke="#000"/>
<rect x="765.4444444444443" y="377.44569200014547" width="10.444444444444443" height="120.55430799985446" fill="orange" data-tooltip="2.09x baseline speed (YJIT)"/>
<line x1="765.4444444444443" y1="375.22256317850633" x2="775.8888888888888" y2="375.22256317850633" stroke="#000"/>
<line x1="765.4444444444443" y1="379.6688208217846" x2="775.8888888888888" y2="379.6688208217846" stroke="#000"/>
<line x1="770.6666666666666" y1="375.22256317850633" x2="770.6666666666666" y2="379.6688208217846" stroke="#000"/>
<line x1="770.6666666666666" y1="498.0" x2="770.6666666666666" y2="502.79999999999995" stroke="#000"/>
<text x="770.6666666666666" y="512.4" fill="#111" font-size="small" font-family="monospace" font-weight="bold" text-anchor="end" transform="rotate(-60, 770.6666666666666, 512.4)">
getivar
</text>
<rect x="786.3333333333333" y="440.45560769825926" width="10.444444444444443" height="57.54439230174071" fill="#7070f8" data-tooltip="1.00x baseline speed (No JIT)"/>
<line x1="786.3333333333333" y1="440.35212104419736" x2="796.7777777777777" y2="440.35212104419736" stroke="#000"/>
<line x1="786.3333333333333" y1="440.5590943523212" x2="796.7777777777777" y2="440.5590943523212" stroke="#000"/>
<line x1="791.5555555555554" y1="440.35212104419736" x2="791.5555555555554" y2="440.5590943523212" stroke="#000"/>
<rect x="796.7777777777777" y="233.21310861675857" width="10.444444444444443" height="264.7868913832414" fill="orange" data-tooltip="4.60x baseline speed (YJIT)"/>
<line x1="796.7777777777777" y1="232.73492388466948" x2="807.2222222222222" y2="232.73492388466948" stroke="#000"/>
<line x1="796.7777777777777" y1="233.69129334884767" x2="807.2222222222222" y2="233.69129334884767" stroke="#000"/>
<line x1="801.9999999999999" y1="232.73492388466948" x2="801.9999999999999" y2="233.69129334884767" stroke="#000"/>
<line x1="801.9999999999999" y1="498.0" x2="801.9999999999999" y2="502.79999999999995" stroke="#000"/>
<text x="801.9999999999999" y="512.4" fill="#111" font-size="small" font-family="monospace" font-weight="bold" text-anchor="end" transform="rotate(-60, 801.9999999999999, 512.4)">
keyword_args
</text>
<rect x="817.6666666666665" y="440.45560769825926" width="10.444444444444443" height="57.54439230174071" fill="#7070f8" data-tooltip="1.00x baseline speed (No JIT)"/>
<line x1="817.6666666666665" y1="439.9079502890606" x2="828.111111111111" y2="439.9079502890606" stroke="#000"/>
<line x1="817.6666666666665" y1="441.00326510745793" x2="828.111111111111" y2="441.00326510745793" stroke="#000"/>
<line x1="822.8888888888888" y1="439.9079502890606" x2="822.8888888888888" y2="441.00326510745793" stroke="#000"/>
<rect x="828.111111111111" y="100.19999999999999" width="10.444444444444443" height="397.79999999999995" fill="orange" data-tooltip="6.91x baseline speed (YJIT)"/>
<line x1="828.111111111111" y1="95.19780679116714" x2="838.5555555555555" y2="95.19780679116714" stroke="#000"/>
<line x1="828.111111111111" y1="105.20219320883284" x2="838.5555555555555" y2="105.20219320883284" stroke="#000"/>
<line x1="833.3333333333333" y1="95.19780679116714" x2="833.3333333333333" y2="105.20219320883284" stroke="#000"/>
<line x1="833.3333333333333" y1="498.0" x2="833.3333333333333" y2="502.79999999999995" stroke="#000"/>
<text x="833.3333333333333" y="512.4" fill="#111" font-size="small" font-family="monospace" font-weight="bold" text-anchor="end" transform="rotate(-60, 833.3333333333333, 512.4)">
respond_to
</text>
<rect x="849.0" y="440.45560769825926" width="10.444444444444443" height="57.54439230174071" fill="#7070f8" data-tooltip="1.00x baseline speed (No JIT)"/>
<line x1="849.0" y1="439.6441704486114" x2="859.4444444444445" y2="439.6441704486114" stroke="#000"/>
<line x1="849.0" y1="441.26704494790715" x2="859.4444444444445" y2="441.26704494790715" stroke="#000"/>
<line x1="854.2222222222222" y1="439.6441704486114" x2="854.2222222222222" y2="441.26704494790715" stroke="#000"/>
<rect x="859.4444444444445" y="291.24134697762264" width="10.444444444444443" height="206.7586530223773" fill="orange" data-tooltip="3.59x baseline speed (YJIT)"/>
<line x1="859.4444444444445" y1="288.325634451161" x2="869.8888888888889" y2="288.325634451161" stroke="#000"/>
<line x1="859.4444444444445" y1="294.15705950408426" x2="869.8888888888889" y2="294.15705950408426" stroke="#000"/>
<line x1="864.6666666666667" y1="288.325634451161" x2="864.6666666666667" y2="294.15705950408426" stroke="#000"/>
<line x1="864.6666666666667" y1="498.0" x2="864.6666666666667" y2="502.79999999999995" stroke="#000"/>
<text x="864.6666666666667" y="512.4" fill="#111" font-size="small" font-family="monospace" font-weight="bold" text-anchor="end" transform="rotate(-60, 864.6666666666667, 512.4)">
setivar
</text>
<rect x="880.3333333333333" y="440.45560769825926" width="10.444444444444443" height="57.54439230174071" fill="#7070f8" data-tooltip="1.00x baseline speed (No JIT)"/>
<line x1="880.3333333333333" y1="439.6012727393272" x2="890.7777777777778" y2="439.6012727393272" stroke="#000"/>
<line x1="880.3333333333333" y1="441.3099426571913" x2="890.7777777777778" y2="441.3099426571913" stroke="#000"/>
<line x1="885.5555555555555" y1="439.6012727393272" x2="885.5555555555555" y2="441.3099426571913" stroke="#000"/>
<rect x="890.7777777777778" y="365.28428553616766" width="10.444444444444443" height="132.7157144638323" fill="orange" data-tooltip="2.31x baseline speed (YJIT)"/>
<line x1="890.7777777777778" y1="362.6912486976624" x2="901.2222222222223" y2="362.6912486976624" stroke="#000"/>
<line x1="890.7777777777778" y1="367.877322374673" x2="901.2222222222223" y2="367.877322374673" stroke="#000"/>
<line x1="896.0" y1="362.6912486976624" x2="896.0" y2="367.877322374673" stroke="#000"/>
<line x1="896.0" y1="498.0" x2="896.0" y2="502.79999999999995" stroke="#000"/>
<text x="896.0" y="512.4" fill="#111" font-size="small" font-family="monospace" font-weight="bold" text-anchor="end" transform="rotate(-60, 896.0, 512.4)">
setivar_object
</text>
<rect x="911.6666666666666" y="440.45560769825926" width="10.444444444444443" height="57.54439230174071" fill="#7070f8" data-tooltip="1.00x baseline speed (No JIT)"/>
<line x1="911.6666666666666" y1="433.7519305510614" x2="922.1111111111111" y2="433.7519305510614" stroke="#000"/>
<line x1="911.6666666666666" y1="447.15928484545714" x2="922.1111111111111" y2="447.15928484545714" stroke="#000"/>
<line x1="916.8888888888889" y1="433.7519305510614" x2="916.8888888888889" y2="447.15928484545714" stroke="#000"/>
<rect x="922.1111111111111" y="402.01671286424346" width="10.444444444444443" height="95.98328713575651" fill="orange" data-tooltip="1.67x baseline speed (YJIT)"/>
<line x1="922.1111111111111" y1="390.792845083107" x2="932.5555555555555" y2="390.792845083107" stroke="#000"/>
<line x1="922.1111111111111" y1="413.24058064537985" x2="932.5555555555555" y2="413.24058064537985" stroke="#000"/>
<line x1="927.3333333333334" y1="390.792845083107" x2="927.3333333333334" y2="413.24058064537985" stroke="#000"/>
<line x1="927.3333333333334" y1="498.0" x2="927.3333333333334" y2="502.79999999999995" stroke="#000"/>
<text x="927.3333333333334" y="512.4" fill="#111" font-size="small" font-family="monospace" font-weight="bold" text-anchor="end" transform="rotate(-60, 927.3333333333334, 512.4)">
str_concat
</text>
</svg>