<svg viewBox="0 0 1000 600" xmlns="http://www.w3.org/2000/svg" xmlns:xlink="http://www.w3.org/1999/xlink" width="100%" height="100%">

<rect x="50.0" y="30.0" width="940.0" height="467.99999999999994" stroke="#000" fill="#EEE"/>
<line x1="42.0" y1="497.9999999999999" x2="50.0" y2="497.9999999999999" stroke="#000"/>
<text x="26.000000000000004" y="497.9999999999999" text-anchor="end" font-weight="bold" font-size="small" fill="#111">
0.0
</text>
<line x1="42.0" y1="410.7933581432192" x2="50.0" y2="410.7933581432192" stroke="#000"/>
<text x="26.000000000000004" y="410.7933581432192" text-anchor="end" font-weight="bold" font-size="small" fill="#111">
0.5
</text>
<line x1="42.0" y1="323.58671628643856" x2="50.0" y2="323.58671628643856" stroke="#000"/>
<text x="26.000000000000004" y="323.58671628643856" text-anchor="end" font-weight="bold" font-size="small" fill="#111">
1.0
</text>
<line x1="42.0" y1="236.38007442965795" x2="50.0" y2="236.38007442965795" stroke="#000"/>
<text x="26.000000000000004" y="236.38007442965795" text-anchor="end" font-weight="bold" font-size="small" fill="#111">
1.5
</text>
<line x1="42.0" y1="149.17343257287726" x2="50.0" y2="149.17343257287726" stroke="#000"/>
<text x="26.000000000000004" y="149.17343257287726" text-anchor="end" font-weight="bold" font-size="small" fill="#111">
2.0
</text>
<rect x="268.5" y="36.00000000000001" width="80.0" height="18.0" fill="#7070f8" stroke="#888"/>
<text x="308.5" y="52.50000000000001" font-size="small" text-anchor="middle" font-weight="bold" fill="#EEE">
No JIT
</text>
<rect x="691.4999999999999" y="36.00000000000001" width="80.0" height="18.0" fill="orange" stroke="#888"/>
<text x="731.4999999999999" y="52.50000000000001" font-size="small" text-anchor="middle" font-weight="bold" fill="#EEE">
YJIT
</text>
<rect x="97.0" y="323.58671628643856" width="28.2" height="174.41328371356133" fill="#7070f8" data-tooltip="1.00x baseline speed (No JIT)"/>
<line x1="97.0" y1="323.49280283847185" x2="125.2" y2="323.49280283847185" stroke="#000"/>
<line x1="97.0" y1="323.6806297344052" x2="125.2" y2="323.6806297344052" stroke="#000"/>
<line x1="111.10000000000001" y1="323.49280283847185" x2="111.10000000000001" y2="323.6806297344052" stroke="#000"/>
<rect x="125.2" y="151.76433329640898" width="28.2" height="346.235666703591" fill="orange" data-tooltip="1.99x baseline speed (YJIT)"/>
<line x1="125.2" y1="151.47724445046413" x2="153.4" y2="151.47724445046413" stroke="#000"/>
<line x1="125.2" y1="152.05142214235383" x2="153.4" y2="152.05142214235383" stroke="#000"/>
<line x1="139.3" y1="151.47724445046413" x2="139.3" y2="152.05142214235383" stroke="#000"/>
<line x1="139.3" y1="498.0" x2="139.3" y2="502.79999999999995" stroke="#000"/>
<text x="139.3" y="512.4" fill="#111" font-size="small" font-family="monospace" font-weight="bold" text-anchor="end" transform="rotate(-60, 139.3, 512.4)">
binarytrees
</text>
<rect x="181.6" y="323.58671628643856" width="28.2" height="174.41328371356133" fill="#7070f8" data-tooltip="1.00x baseline speed (No JIT)"/>
<line x1="181.6" y1="322.7071900413945" x2="209.79999999999998" y2="322.7071900413945" stroke="#000"/>
<line x1="181.6" y1="324.4662425314826" x2="209.79999999999998" y2="324.4662425314826" stroke="#000"/>
<line x1="195.7" y1="322.7071900413945" x2="195.7" y2="324.4662425314826" stroke="#000"/>
<rect x="209.79999999999998" y="226.2808609255397" width="28.2" height="271.7191390744602" fill="orange" data-tooltip="1.56x baseline speed (YJIT)"/>
<line x1="209.79999999999998" y1="224.90383471656324" x2="238.0" y2="224.90383471656324" stroke="#000"/>
<line x1="209.79999999999998" y1="227.65788713451622" x2="238.0" y2="227.65788713451622" stroke="#000"/>
<line x1="223.89999999999998" y1="224.90383471656324" x2="223.89999999999998" y2="227.65788713451622" stroke="#000"/>
<line x1="223.89999999999998" y1="498.0" x2="223.89999999999998" y2="502.79999999999995" stroke="#000"/>
<text x="223.89999999999998" y="512.4" fill="#111" font-size="small" font-family="monospace" font-weight="bold" text-anchor="end" transform="rotate(-60, 223.89999999999998, 512.4)">
chunky_png
</text>
<rect x="266.2" y="323.58671628643856" width="28.2" height="174.41328371356133" fill="#7070f8" data-tooltip="1.00x baseline speed (No JIT)"/>
<line x1="266.2" y1="322.36357089333103" x2="294.4" y2="322.36357089333103" stroke="#000"/>
<line x1="266.2" y1="324.80986167954603" x2="294.4" y2="324.80986167954603" stroke="#000"/>
<line x1="280.3" y1="322.36357089333103" x2="280.3" y2="324.80986167954603" stroke="#000"/>
<rect x="294.4" y="300.4138266596317" width="28.2" height="197.58617334036825" fill="orange" data-tooltip="1.13x baseline speed (YJIT)"/>
<line x1="294.4" y1="298.212961612504" x2="322.6" y2="298.212961612504" stroke="#000"/>
<line x1="294.4" y1="302.61469170675946" x2="322.6" y2="302.61469170675946" stroke="#000"/>
<line x1="308.5" y1="298.212961612504" x2="308.5" y2="302.61469170675946" stroke="#000"/>
<line x1="308.5" y1="498.0" x2="308.5" y2="502.79999999999995" stroke="#000"/>
<text x="308.5" y="512.4" fill="#111" font-size="small" font-family="monospace" font-weight="bold" text-anchor="end" transform="rotate(-60, 308.5, 512.4)">
erubi
</text>
<rect x="350.8" y="323.58671628643856" width="28.2" height="174.41328371356133" fill="#7070f8" data-tooltip="1.00x baseline speed (No JIT)"/>
<line x1="350.8" y1="319.0949237168933" x2="379.0" y2="319.0949237168933" stroke="#000"/>
<line x1="350.8" y1="328.0785088559838" x2="379.0" y2="328.0785088559838" stroke="#000"/>
<line x1="364.9" y1="319.0949237168933" x2="364.9" y2="328.0785088559838" stroke="#000"/>
<rect x="379.0" y="247.63829635552835" width="28.2" height="250.3617036444716" fill="orange" data-tooltip="1.44x baseline speed (YJIT)"/>
<line x1="379.0" y1="236.4280023196598" x2="407.2" y2="236.4280023196598" stroke="#000"/>
<line x1="379.0" y1="258.84859039139684" x2="407.2" y2="258.84859039139684" stroke="#000"/>
<line x1="393.1" y1="236.4280023196598" x2="393.1" y2="258.84859039139684" stroke="#000"/>
<line x1="393.1" y1="498.0" x2="393.1" y2="502.79999999999995" stroke="#000"/>
<text x="393.1" y="512.4" fill="#111" font-size="small" font-family="monospace" font-weight="bold" text-anchor="end" transform="rotate(-60, 393.1, 512.4)">
erubi_rails
</text>
<rect x="435.40000000000003" y="323.58671628643856" width="28.2" height="174.41328371356133" fill="#7070f8" data-tooltip="1.00x baseline speed (No JIT)"/>
<line x1="435.40000000000003" y1="322.7138578453263" x2="463.6" y2="322.7138578453263" stroke="#000"/>
<line x1="435.40000000000003" y1="324.4595747275508" x2="463.6" y2="324.4595747275508" stroke="#000"/>
<line x1="449.5" y1="322.7138578453263" x2="449.5" y2="324.4595747275508" stroke="#000"/>
<rect x="463.6" y="324.7193546785821" width="28.2" height="173.28064532141784" fill="orange" data-tooltip="0.99x baseline speed (YJIT)"/>
<line x1="463.6" y1="323.4621493600609" x2="491.8" y2="323.4621493600609" stroke="#000"/>
<line x1="463.6" y1="325.9765599971033" x2="491.8" y2="325.9765599971033" stroke="#000"/>
<line x1="477.7" y1="323.4621493600609" x2="477.7" y2="325.9765599971033" stroke="#000"/>
<line x1="477.7" y1="498.0" x2="477.7" y2="502.79999999999995" stroke="#000"/>
<text x="477.7" y="512.4" fill="#111" font-size="small" font-family="monospace" font-weight="bold" text-anchor="end" transform="rotate(-60, 477.7, 512.4)">
etanni
</text>
<rect x="520.0" y="323.58671628643856" width="28.2" height="174.41328371356133" fill="#7070f8" data-tooltip="1.00x baseline speed (No JIT)"/>
<line x1="520.0" y1="323.49226729371964" x2="548.2" y2="323.49226729371964" stroke="#000"/>
<line x1="520.0" y1="323.6811652791574" x2="548.2" y2="323.6811652791574" stroke="#000"/>
<line x1="534.1" y1="323.49226729371964" x2="534.1" y2="323.6811652791574" stroke="#000"/>
<rect x="548.2" y="100.19999999999999" width="28.2" height="397.79999999999995" fill="orange" data-tooltip="2.28x baseline speed (YJIT)"/>
<line x1="548.2" y1="99.90155812166014" x2="576.4" y2="99.90155812166014" stroke="#000"/>
<line x1="548.2" y1="100.49844187833983" x2="576.4" y2="100.49844187833983" stroke="#000"/>
<line x1="562.3000000000001" y1="99.90155812166014" x2="562.3000000000001" y2="100.49844187833983" stroke="#000"/>
<line x1="562.3000000000001" y1="498.0" x2="562.3000000000001" y2="502.79999999999995" stroke="#000"/>
<text x="562.3000000000001" y="512.4" fill="#111" font-size="small" font-family="monospace" font-weight="bold" text-anchor="end" transform="rotate(-60, 562.3000000000001, 512.4)">
fannkuchredux
</text>
<rect x="604.5999999999999" y="323.58671628643856" width="28.2" height="174.41328371356133" fill="#7070f8" data-tooltip="1.00x baseline speed (No JIT)"/>
<line x1="604.5999999999999" y1="321.2470054002452" x2="632.8" y2="321.2470054002452" stroke="#000"/>
<line x1="604.5999999999999" y1="325.92642717263186" x2="632.8" y2="325.92642717263186" stroke="#000"/>
<line x1="618.6999999999999" y1="321.2470054002452" x2="618.6999999999999" y2="325.92642717263186" stroke="#000"/>
<rect x="632.8" y="255.7604922228111" width="28.2" height="242.23950777718883" fill="orange" data-tooltip="1.39x baseline speed (YJIT)"/>
<line x1="632.8" y1="250.09096271307405" x2="660.9999999999999" y2="250.09096271307405" stroke="#000"/>
<line x1="632.8" y1="261.4300217325482" x2="660.9999999999999" y2="261.4300217325482" stroke="#000"/>
<line x1="646.8999999999999" y1="250.09096271307405" x2="646.8999999999999" y2="261.4300217325482" stroke="#000"/>
<line x1="646.8999999999999" y1="498.0" x2="646.8999999999999" y2="502.79999999999995" stroke="#000"/>
<text x="646.8999999999999" y="512.4" fill="#111" font-size="small" font-family="monospace" font-weight="bold" text-anchor="end" transform="rotate(-60, 646.8999999999999, 512.4)">
lee
</text>
<rect x="689.1999999999999" y="323.58671628643856" width="28.2" height="174.41328371356133" fill="#7070f8" data-tooltip="1.00x baseline speed (No JIT)"/>
<line x1="689.1999999999999" y1="323.41870340481984" x2="717.4" y2="323.41870340481984" stroke="#000"/>
<line x1="689.1999999999999" y1="323.7547291680572" x2="717.4" y2="323.7547291680572" stroke="#000"/>
<line x1="703.3" y1="323.41870340481984" x2="703.3" y2="323.7547291680572" stroke="#000"/>
<rect x="717.4" y="214.1522993483314" width="28.2" height="283.84770065166856" fill="orange" data-tooltip="1.63x baseline speed (YJIT)"/>
<line x1="717.4" y1="213.7553790154315" x2="745.5999999999999" y2="213.7553790154315" stroke="#000"/>
<line x1="717.4" y1="214.5492196812313" x2="745.5999999999999" y2="214.5492196812313" stroke="#000"/>
<line x1="731.4999999999999" y1="213.7553790154315" x2="731.4999999999999" y2="214.5492196812313" stroke="#000"/>
<line x1="731.4999999999999" y1="498.0" x2="731.4999999999999" y2="502.79999999999995" stroke="#000"/>
<text x="731.4999999999999" y="512.4" fill="#111" font-size="small" font-family="monospace" font-weight="bold" text-anchor="end" transform="rotate(-60, 731.4999999999999, 512.4)">
nbody
</text>
<rect x="773.8" y="323.58671628643856" width="28.2" height="174.41328371356133" fill="#7070f8" data-tooltip="1.00x baseline speed (No JIT)"/>
<line x1="773.8" y1="322.83988914572535" x2="801.9999999999999" y2="322.83988914572535" stroke="#000"/>
<line x1="773.8" y1="324.33354342715177" x2="801.9999999999999" y2="324.33354342715177" stroke="#000"/>
<line x1="787.9" y1="322.83988914572535" x2="787.9" y2="324.33354342715177" stroke="#000"/>
<rect x="801.9999999999999" y="112.40629723580258" width="28.2" height="385.59370276419736" fill="orange" data-tooltip="2.21x baseline speed (YJIT)"/>
<line x1="801.9999999999999" y1="110.14075756732001" x2="830.1999999999999" y2="110.14075756732001" stroke="#000"/>
<line x1="801.9999999999999" y1="114.67183690428517" x2="830.1999999999999" y2="114.67183690428517" stroke="#000"/>
<line x1="816.0999999999999" y1="110.14075756732001" x2="816.0999999999999" y2="114.67183690428517" stroke="#000"/>
<line x1="816.0999999999999" y1="498.0" x2="816.0999999999999" y2="502.79999999999995" stroke="#000"/>
<text x="816.0999999999999" y="512.4" fill="#111" font-size="small" font-family="monospace" font-weight="bold" text-anchor="end" transform="rotate(-60, 816.0999999999999, 512.4)">
optcarrot
</text>
<rect x="858.4" y="323.58671628643856" width="28.2" height="174.41328371356133" fill="#7070f8" data-tooltip="1.00x baseline speed (No JIT)"/>
<line x1="858.4" y1="322.30218572560983" x2="886.5999999999999" y2="322.30218572560983" stroke="#000"/>
<line x1="858.4" y1="324.87124684726723" x2="886.5999999999999" y2="324.87124684726723" stroke="#000"/>
<line x1="872.4999999999999" y1="322.30218572560983" x2="872.4999999999999" y2="324.87124684726723" stroke="#000"/>
<rect x="886.5999999999999" y="163.80697474818916" width="28.2" height="334.1930252518108" fill="orange" data-tooltip="1.92x baseline speed (YJIT)"/>
<line x1="886.5999999999999" y1="161.01225117978348" x2="914.8" y2="161.01225117978348" stroke="#000"/>
<line x1="886.5999999999999" y1="166.60169831659482" x2="914.8" y2="166.60169831659482" stroke="#000"/>
<line x1="900.6999999999999" y1="161.01225117978348" x2="900.6999999999999" y2="166.60169831659482" stroke="#000"/>
<line x1="900.6999999999999" y1="498.0" x2="900.6999999999999" y2="502.79999999999995" stroke="#000"/>
<text x="900.6999999999999" y="512.4" fill="#111" font-size="small" font-family="monospace" font-weight="bold" text-anchor="end" transform="rotate(-60, 900.6999999999999, 512.4)">
rubykon
</text>
</svg>