<svg viewBox="0 0 1000 600" xmlns="http://www.w3.org/2000/svg" xmlns:xlink="http://www.w3.org/1999/xlink" width="100%" height="100%">

<rect x="50.0" y="30.0" width="940.0" height="467.99999999999994" stroke="#000" fill="#EEE"/>
<line x1="42.0" y1="497.9999999999999" x2="50.0" y2="497.9999999999999" stroke="#000"/>
<text x="26.000000000000004" y="497.9999999999999" text-anchor="end" font-weight="bold" font-size="small" fill="#111">
0.0
</text>
<line x1="42.0" y1="443.6432828717518" x2="50.0" y2="443.6432828717518" stroke="#000"/>
<text x="26.000000000000004" y="443.6432828717518" text-anchor="end" font-weight="bold" font-size="small" fill="#111">
0.2
</text>
<line x1="42.0" y1="389.28656574350373" x2="50.0" y2="389.28656574350373" stroke="#000"/>
<text x="26.000000000000004" y="389.28656574350373" text-anchor="end" font-weight="bold" font-size="small" fill="#111">
0.4
</text>
<line x1="42.0" y1="334.9298486152556" x2="50.0" y2="334.9298486152556" stroke="#000"/>
<text x="26.000000000000004" y="334.9298486152556" text-anchor="end" font-weight="bold" font-size="small" fill="#111">
0.6
</text>
<line x1="42.0" y1="280.5731314870075" x2="50.0" y2="280.5731314870075" stroke="#000"/>
<text x="26.000000000000004" y="280.5731314870075" text-anchor="end" font-weight="bold" font-size="small" fill="#111">
0.8
</text>
<line x1="42.0" y1="226.2164143587594" x2="50.0" y2="226.2164143587594" stroke="#000"/>
<text x="26.000000000000004" y="226.2164143587594" text-anchor="end" font-weight="bold" font-size="small" fill="#111">
1.0
</text>
<line x1="42.0" y1="171.8596972305113" x2="50.0" y2="171.8596972305113" stroke="#000"/>
<text x="26.000000000000004" y="171.8596972305113" text-anchor="end" font-weight="bold" font-size="small" fill="#111">
1.2
</text>
<line x1="42.0" y1="117.50298010226324" x2="50.0" y2="117.50298010226324" stroke="#000"/>
<text x="26.000000000000004" y="117.50298010226324" text-anchor="end" font-weight="bold" font-size="small" fill="#111">
1.4
</text>
<rect x="197.99999999999997" y="36.00000000000001" width="80.0" height="18.0" fill="#7070f8" stroke="#888"/>
<text x="238.0" y="52.50000000000001" font-size="small" text-anchor="middle" font-weight="bold" fill="#EEE">
No JIT
</text>
<rect x="479.99999999999994" y="36.00000000000001" width="80.0" height="18.0" fill="orange" stroke="#888"/>
<text x="519.9999999999999" y="52.50000000000001" font-size="small" text-anchor="middle" font-weight="bold" fill="#EEE">
MJIT
</text>
<rect x="761.9999999999999" y="36.00000000000001" width="80.0" height="18.0" fill="green" stroke="#888"/>
<text x="801.9999999999999" y="52.50000000000001" font-size="small" text-anchor="middle" font-weight="bold" fill="#EEE">
YJIT
</text>
<rect x="97.0" y="226.2164143587594" width="35.25" height="271.7835856412405" fill="#7070f8" data-tooltip="1.00x baseline speed (No JIT)"/>
<line x1="97.0" y1="225.223830383358" x2="132.25" y2="225.223830383358" stroke="#000"/>
<line x1="97.0" y1="227.2089983341608" x2="132.25" y2="227.2089983341608" stroke="#000"/>
<line x1="114.625" y1="225.223830383358" x2="114.625" y2="227.2089983341608" stroke="#000"/>
<rect x="132.25" y="260.2057516488229" width="35.25" height="237.794248351177" fill="orange" data-tooltip="0.87x baseline speed (MJIT)"/>
<line x1="132.25" y1="252.45994099313225" x2="167.5" y2="252.45994099313225" stroke="#000"/>
<line x1="132.25" y1="267.95156230451363" x2="167.5" y2="267.95156230451363" stroke="#000"/>
<line x1="149.875" y1="252.45994099313225" x2="149.875" y2="267.95156230451363" stroke="#000"/>
<rect x="167.49999999999997" y="100.19999999999999" width="35.25" height="397.79999999999995" fill="green" data-tooltip="1.46x baseline speed (YJIT)"/>
<line x1="167.49999999999997" y1="97.97783874049237" x2="202.75" y2="97.97783874049237" stroke="#000"/>
<line x1="167.49999999999997" y1="102.4221612595076" x2="202.75" y2="102.4221612595076" stroke="#000"/>
<line x1="185.12499999999997" y1="97.97783874049237" x2="185.12499999999997" y2="102.4221612595076" stroke="#000"/>
<line x1="167.49999999999997" y1="498.0" x2="167.49999999999997" y2="502.79999999999995" stroke="#000"/>
<text x="167.49999999999997" y="512.4" fill="#111" font-size="small" font-family="monospace" font-weight="bold" text-anchor="end" transform="rotate(-60, 167.49999999999997, 512.4)">
activerecord
</text>
<rect x="238.0" y="226.2164143587594" width="35.25" height="271.7835856412405" fill="#7070f8" data-tooltip="1.00x baseline speed (No JIT)"/>
<line x1="238.0" y1="224.69438059642556" x2="273.25" y2="224.69438059642556" stroke="#000"/>
<line x1="238.0" y1="227.73844812109326" x2="273.25" y2="227.73844812109326" stroke="#000"/>
<line x1="255.625" y1="224.69438059642556" x2="255.625" y2="227.73844812109326" stroke="#000"/>
<rect x="308.5" y="126.11487845188061" width="35.25" height="371.88512154811934" fill="green" data-tooltip="1.37x baseline speed (YJIT)"/>
<line x1="308.5" y1="120.43492009100942" x2="343.75" y2="120.43492009100942" stroke="#000"/>
<line x1="308.5" y1="131.7948368127518" x2="343.75" y2="131.7948368127518" stroke="#000"/>
<line x1="326.125" y1="120.43492009100942" x2="326.125" y2="131.7948368127518" stroke="#000"/>
<line x1="308.5" y1="498.0" x2="308.5" y2="502.79999999999995" stroke="#000"/>
<text x="308.5" y="512.4" fill="#111" font-size="small" font-family="monospace" font-weight="bold" text-anchor="end" transform="rotate(-60, 308.5, 512.4)">
hexapdf
</text>
<rect x="379.0" y="226.2164143587594" width="35.25" height="271.7835856412405" fill="#7070f8" data-tooltip="1.00x baseline speed (No JIT)"/>
<line x1="379.0" y1="223.30059593352752" x2="414.25" y2="223.30059593352752" stroke="#000"/>
<line x1="379.0" y1="229.1322327839913" x2="414.25" y2="229.1322327839913" stroke="#000"/>
<line x1="396.625" y1="223.30059593352752" x2="396.625" y2="229.1322327839913" stroke="#000"/>
<rect x="414.25" y="216.45986686140367" width="35.25" height="281.5401331385963" fill="orange" data-tooltip="1.04x baseline speed (MJIT)"/>
<line x1="414.25" y1="211.75420939085916" x2="449.5" y2="211.75420939085916" stroke="#000"/>
<line x1="414.25" y1="221.16552433194815" x2="449.5" y2="221.16552433194815" stroke="#000"/>
<line x1="431.875" y1="211.75420939085916" x2="431.875" y2="221.16552433194815" stroke="#000"/>
<rect x="449.5" y="102.08689621680136" width="35.25" height="395.91310378319855" fill="green" data-tooltip="1.46x baseline speed (YJIT)"/>
<line x1="449.5" y1="93.67532465420864" x2="484.75" y2="93.67532465420864" stroke="#000"/>
<line x1="449.5" y1="110.49846777939408" x2="484.75" y2="110.49846777939408" stroke="#000"/>
<line x1="467.125" y1="93.67532465420864" x2="467.125" y2="110.49846777939408" stroke="#000"/>
<line x1="449.5" y1="498.0" x2="449.5" y2="502.79999999999995" stroke="#000"/>
<text x="449.5" y="512.4" fill="#111" font-size="small" font-family="monospace" font-weight="bold" text-anchor="end" transform="rotate(-60, 449.5, 512.4)">
liquid-render
</text>
<rect x="519.9999999999999" y="226.2164143587594" width="35.25" height="271.7835856412405" fill="#7070f8" data-tooltip="1.00x baseline speed (No JIT)"/>
<line x1="519.9999999999999" y1="220.87412944274425" x2="555.2499999999999" y2="220.87412944274425" stroke="#000"/>
<line x1="519.9999999999999" y1="231.55869927477457" x2="555.2499999999999" y2="231.55869927477457" stroke="#000"/>
<line x1="537.6249999999999" y1="220.87412944274425" x2="537.6249999999999" y2="231.55869927477457" stroke="#000"/>
<rect x="555.2499999999999" y="226.92292042751708" width="35.25" height="271.0770795724829" fill="orange" data-tooltip="1.00x baseline speed (MJIT)"/>
<line x1="555.2499999999999" y1="216.61750859442566" x2="590.4999999999999" y2="216.61750859442566" stroke="#000"/>
<line x1="555.2499999999999" y1="237.2283322606085" x2="590.4999999999999" y2="237.2283322606085" stroke="#000"/>
<line x1="572.8749999999999" y1="216.61750859442566" x2="572.8749999999999" y2="237.2283322606085" stroke="#000"/>
<rect x="590.4999999999999" y="203.85024835467718" width="35.25" height="294.14975164532274" fill="green" data-tooltip="1.08x baseline speed (YJIT)"/>
<line x1="590.4999999999999" y1="193.97611189517272" x2="625.7499999999999" y2="193.97611189517272" stroke="#000"/>
<line x1="590.4999999999999" y1="213.72438481418166" x2="625.7499999999999" y2="213.72438481418166" stroke="#000"/>
<line x1="608.1249999999999" y1="193.97611189517272" x2="608.1249999999999" y2="213.72438481418166" stroke="#000"/>
<line x1="590.4999999999999" y1="498.0" x2="590.4999999999999" y2="502.79999999999995" stroke="#000"/>
<text x="590.4999999999999" y="512.4" fill="#111" font-size="small" font-family="monospace" font-weight="bold" text-anchor="end" transform="rotate(-60, 590.4999999999999, 512.4)">
mail
</text>
<rect x="660.9999999999999" y="226.2164143587594" width="35.25" height="271.7835856412405" fill="#7070f8" data-tooltip="1.00x baseline speed (No JIT)"/>
<line x1="660.9999999999999" y1="225.85115248933602" x2="696.2499999999999" y2="225.85115248933602" stroke="#000"/>
<line x1="660.9999999999999" y1="226.58167622818283" x2="696.2499999999999" y2="226.58167622818283" stroke="#000"/>
<line x1="678.6249999999999" y1="225.85115248933602" x2="678.6249999999999" y2="226.58167622818283" stroke="#000"/>
<rect x="696.2499999999999" y="163.55093803663203" width="35.25" height="334.4490619633679" fill="orange" data-tooltip="1.23x baseline speed (MJIT)"/>
<line x1="696.2499999999999" y1="163.05996124692092" x2="731.4999999999999" y2="163.05996124692092" stroke="#000"/>
<line x1="696.2499999999999" y1="164.04191482634317" x2="731.4999999999999" y2="164.04191482634317" stroke="#000"/>
<line x1="713.8749999999999" y1="163.05996124692092" x2="713.8749999999999" y2="164.04191482634317" stroke="#000"/>
<rect x="731.4999999999999" y="163.45607605705945" width="35.25" height="334.5439239429405" fill="green" data-tooltip="1.23x baseline speed (YJIT)"/>
<line x1="731.4999999999999" y1="162.95000357421756" x2="766.7499999999999" y2="162.95000357421756" stroke="#000"/>
<line x1="731.4999999999999" y1="163.9621485399013" x2="766.7499999999999" y2="163.9621485399013" stroke="#000"/>
<line x1="749.1249999999999" y1="162.95000357421756" x2="749.1249999999999" y2="163.9621485399013" stroke="#000"/>
<line x1="731.4999999999999" y1="498.0" x2="731.4999999999999" y2="502.79999999999995" stroke="#000"/>
<text x="731.4999999999999" y="512.4" fill="#111" font-size="small" font-family="monospace" font-weight="bold" text-anchor="end" transform="rotate(-60, 731.4999999999999, 512.4)">
psych-load
</text>
<rect x="801.9999999999999" y="226.2164143587594" width="35.25" height="271.7835856412405" fill="#7070f8" data-tooltip="1.00x baseline speed (No JIT)"/>
<line x1="801.9999999999999" y1="224.78169056046323" x2="837.2499999999999" y2="224.78169056046323" stroke="#000"/>
<line x1="801.9999999999999" y1="227.65113815705558" x2="837.2499999999999" y2="227.65113815705558" stroke="#000"/>
<line x1="819.6249999999999" y1="224.78169056046323" x2="819.6249999999999" y2="227.65113815705558" stroke="#000"/>
<rect x="837.2499999999999" y="262.4427044481216" width="35.25" height="235.55729555187833" fill="orange" data-tooltip="0.87x baseline speed (MJIT)"/>
<line x1="837.2499999999999" y1="260.7037517044965" x2="872.4999999999999" y2="260.7037517044965" stroke="#000"/>
<line x1="837.2499999999999" y1="264.18165719174675" x2="872.4999999999999" y2="264.18165719174675" stroke="#000"/>
<line x1="854.8749999999999" y1="260.7037517044965" x2="854.8749999999999" y2="264.18165719174675" stroke="#000"/>
<rect x="872.4999999999999" y="151.0323851155603" width="35.25" height="346.9676148844397" fill="green" data-tooltip="1.28x baseline speed (YJIT)"/>
<line x1="872.4999999999999" y1="147.95302048650024" x2="907.75" y2="147.95302048650024" stroke="#000"/>
<line x1="872.4999999999999" y1="154.1117497446203" x2="907.75" y2="154.1117497446203" stroke="#000"/>
<line x1="890.125" y1="147.95302048650024" x2="890.125" y2="154.1117497446203" stroke="#000"/>
<line x1="872.4999999999999" y1="498.0" x2="872.4999999999999" y2="502.79999999999995" stroke="#000"/>
<text x="872.4999999999999" y="512.4" fill="#111" font-size="small" font-family="monospace" font-weight="bold" text-anchor="end" transform="rotate(-60, 872.4999999999999, 512.4)">
railsbench
</text>
</svg>