<svg viewBox="0 0 1000 600" xmlns="http://www.w3.org/2000/svg" xmlns:xlink="http://www.w3.org/1999/xlink" width="100%" height="100%">

<rect x="50.0" y="30.0" width="940.0" height="467.99999999999994" stroke="#000" fill="#EEE"/>
<line x1="42.0" y1="497.9999999999999" x2="50.0" y2="497.9999999999999" stroke="#000"/>
<text x="26.000000000000004" y="497.9999999999999" text-anchor="end" font-weight="bold" font-size="small" fill="#111">
0.0
</text>
<line x1="42.0" y1="427.4746216385171" x2="50.0" y2="427.4746216385171" stroke="#000"/>
<text x="26.000000000000004" y="427.4746216385171" text-anchor="end" font-weight="bold" font-size="small" fill="#111">
0.5
</text>
<line x1="42.0" y1="356.94924327703416" x2="50.0" y2="356.94924327703416" stroke="#000"/>
<text x="26.000000000000004" y="356.94924327703416" text-anchor="end" font-weight="bold" font-size="small" fill="#111">
1.0
</text>
<line x1="42.0" y1="286.42386491555123" x2="50.0" y2="286.42386491555123" stroke="#000"/>
<text x="26.000000000000004" y="286.42386491555123" text-anchor="end" font-weight="bold" font-size="small" fill="#111">
1.5
</text>
<line x1="42.0" y1="215.89848655406828" x2="50.0" y2="215.89848655406828" stroke="#000"/>
<text x="26.000000000000004" y="215.89848655406828" text-anchor="end" font-weight="bold" font-size="small" fill="#111">
2.0
</text>
<line x1="42.0" y1="145.3731081925854" x2="50.0" y2="145.3731081925854" stroke="#000"/>
<text x="26.000000000000004" y="145.3731081925854" text-anchor="end" font-weight="bold" font-size="small" fill="#111">
2.5
</text>
<rect x="268.5" y="36.00000000000001" width="80.0" height="18.0" fill="#7070f8" stroke="#888"/>
<text x="308.5" y="52.50000000000001" font-size="small" text-anchor="middle" font-weight="bold" fill="#EEE">
No JIT
</text>
<rect x="691.4999999999999" y="36.00000000000001" width="80.0" height="18.0" fill="orange" stroke="#888"/>
<text x="731.4999999999999" y="52.50000000000001" font-size="small" text-anchor="middle" font-weight="bold" fill="#EEE">
YJIT
</text>
<rect x="97.0" y="356.94924327703416" width="28.2" height="141.05075672296582" fill="#7070f8" data-tooltip="1.00x baseline speed (No JIT)"/>
<line x1="97.0" y1="356.887222752115" x2="125.2" y2="356.887222752115" stroke="#000"/>
<line x1="97.0" y1="357.01126380195336" x2="125.2" y2="357.01126380195336" stroke="#000"/>
<line x1="111.10000000000001" y1="356.887222752115" x2="111.10000000000001" y2="357.01126380195336" stroke="#000"/>
<rect x="125.2" y="209.37461852081205" width="28.2" height="288.62538147918787" fill="orange" data-tooltip="2.05x baseline speed (YJIT)"/>
<line x1="125.2" y1="209.10607791535097" x2="153.4" y2="209.10607791535097" stroke="#000"/>
<line x1="125.2" y1="209.64315912627313" x2="153.4" y2="209.64315912627313" stroke="#000"/>
<line x1="139.3" y1="209.10607791535097" x2="139.3" y2="209.64315912627313" stroke="#000"/>
<line x1="139.3" y1="498.0" x2="139.3" y2="502.79999999999995" stroke="#000"/>
<text x="139.3" y="512.4" fill="#111" font-size="small" font-family="monospace" font-weight="bold" text-anchor="end" transform="rotate(-60, 139.3, 512.4)">
binarytrees
</text>
<rect x="181.6" y="356.94924327703416" width="28.2" height="141.05075672296582" fill="#7070f8" data-tooltip="1.00x baseline speed (No JIT)"/>
<line x1="181.6" y1="356.8686685551688" x2="209.79999999999998" y2="356.8686685551688" stroke="#000"/>
<line x1="181.6" y1="357.02981799889955" x2="209.79999999999998" y2="357.02981799889955" stroke="#000"/>
<line x1="195.7" y1="356.8686685551688" x2="195.7" y2="357.02981799889955" stroke="#000"/>
<rect x="209.79999999999998" y="280.77914713011046" width="28.2" height="217.22085286988946" fill="orange" data-tooltip="1.54x baseline speed (YJIT)"/>
<line x1="209.79999999999998" y1="280.6131285391404" x2="238.0" y2="280.6131285391404" stroke="#000"/>
<line x1="209.79999999999998" y1="280.94516572108057" x2="238.0" y2="280.94516572108057" stroke="#000"/>
<line x1="223.89999999999998" y1="280.6131285391404" x2="223.89999999999998" y2="280.94516572108057" stroke="#000"/>
<line x1="223.89999999999998" y1="498.0" x2="223.89999999999998" y2="502.79999999999995" stroke="#000"/>
<text x="223.89999999999998" y="512.4" fill="#111" font-size="small" font-family="monospace" font-weight="bold" text-anchor="end" transform="rotate(-60, 223.89999999999998, 512.4)">
chunky_png
</text>
<rect x="266.2" y="356.94924327703416" width="28.2" height="141.05075672296582" fill="#7070f8" data-tooltip="1.00x baseline speed (No JIT)"/>
<line x1="266.2" y1="355.91279226940674" x2="294.4" y2="355.91279226940674" stroke="#000"/>
<line x1="266.2" y1="357.9856942846616" x2="294.4" y2="357.9856942846616" stroke="#000"/>
<line x1="280.3" y1="355.91279226940674" x2="280.3" y2="357.9856942846616" stroke="#000"/>
<rect x="294.4" y="331.301338430515" width="28.2" height="166.698661569485" fill="orange" data-tooltip="1.18x baseline speed (YJIT)"/>
<line x1="294.4" y1="329.5347212755043" x2="322.6" y2="329.5347212755043" stroke="#000"/>
<line x1="294.4" y1="333.0679555855256" x2="322.6" y2="333.0679555855256" stroke="#000"/>
<line x1="308.5" y1="329.5347212755043" x2="308.5" y2="333.0679555855256" stroke="#000"/>
<line x1="308.5" y1="498.0" x2="308.5" y2="502.79999999999995" stroke="#000"/>
<text x="308.5" y="512.4" fill="#111" font-size="small" font-family="monospace" font-weight="bold" text-anchor="end" transform="rotate(-60, 308.5, 512.4)">
erubi
</text>
<rect x="350.8" y="356.94924327703416" width="28.2" height="141.05075672296582" fill="#7070f8" data-tooltip="1.00x baseline speed (No JIT)"/>
<line x1="350.8" y1="356.17798387374967" x2="379.0" y2="356.17798387374967" stroke="#000"/>
<line x1="350.8" y1="357.7205026803187" x2="379.0" y2="357.7205026803187" stroke="#000"/>
<line x1="364.9" y1="356.17798387374967" x2="364.9" y2="357.7205026803187" stroke="#000"/>
<rect x="379.0" y="358.1216887127903" width="28.2" height="139.8783112872097" fill="orange" data-tooltip="0.99x baseline speed (YJIT)"/>
<line x1="379.0" y1="357.1234680661117" x2="407.2" y2="357.1234680661117" stroke="#000"/>
<line x1="379.0" y1="359.11990935946886" x2="407.2" y2="359.11990935946886" stroke="#000"/>
<line x1="393.1" y1="357.1234680661117" x2="393.1" y2="359.11990935946886" stroke="#000"/>
<line x1="393.1" y1="498.0" x2="393.1" y2="502.79999999999995" stroke="#000"/>
<text x="393.1" y="512.4" fill="#111" font-size="small" font-family="monospace" font-weight="bold" text-anchor="end" transform="rotate(-60, 393.1, 512.4)">
etanni
</text>
<rect x="435.40000000000003" y="356.94924327703416" width="28.2" height="141.05075672296582" fill="#7070f8" data-tooltip="1.00x baseline speed (No JIT)"/>
<line x1="435.40000000000003" y1="356.8283453134159" x2="463.6" y2="356.8283453134159" stroke="#000"/>
<line x1="435.40000000000003" y1="357.0701412406524" x2="463.6" y2="357.0701412406524" stroke="#000"/>
<line x1="449.5" y1="356.8283453134159" x2="449.5" y2="357.0701412406524" stroke="#000"/>
<rect x="463.6" y="100.19999999999999" width="28.2" height="397.79999999999995" fill="orange" data-tooltip="2.82x baseline speed (YJIT)"/>
<line x1="463.6" y1="99.02152471851592" x2="491.8" y2="99.02152471851592" stroke="#000"/>
<line x1="463.6" y1="101.37847528148407" x2="491.8" y2="101.37847528148407" stroke="#000"/>
<line x1="477.7" y1="99.02152471851592" x2="477.7" y2="101.37847528148407" stroke="#000"/>
<line x1="477.7" y1="498.0" x2="477.7" y2="502.79999999999995" stroke="#000"/>
<text x="477.7" y="512.4" fill="#111" font-size="small" font-family="monospace" font-weight="bold" text-anchor="end" transform="rotate(-60, 477.7, 512.4)">
fannkuchredux
</text>
<rect x="520.0" y="356.94924327703416" width="28.2" height="141.05075672296582" fill="#7070f8" data-tooltip="1.00x baseline speed (No JIT)"/>
<line x1="520.0" y1="356.5764691259799" x2="548.2" y2="356.5764691259799" stroke="#000"/>
<line x1="520.0" y1="357.3220174280885" x2="548.2" y2="357.3220174280885" stroke="#000"/>
<line x1="534.1" y1="356.5764691259799" x2="534.1" y2="357.3220174280885" stroke="#000"/>
<rect x="548.2" y="301.08339950665527" width="28.2" height="196.91660049334467" fill="orange" data-tooltip="1.40x baseline speed (YJIT)"/>
<line x1="548.2" y1="300.2538489962592" x2="576.4" y2="300.2538489962592" stroke="#000"/>
<line x1="548.2" y1="301.9129500170513" x2="576.4" y2="301.9129500170513" stroke="#000"/>
<line x1="562.3000000000001" y1="300.2538489962592" x2="562.3000000000001" y2="301.9129500170513" stroke="#000"/>
<line x1="562.3000000000001" y1="498.0" x2="562.3000000000001" y2="502.79999999999995" stroke="#000"/>
<text x="562.3000000000001" y="512.4" fill="#111" font-size="small" font-family="monospace" font-weight="bold" text-anchor="end" transform="rotate(-60, 562.3000000000001, 512.4)">
lee
</text>
<rect x="604.5999999999999" y="356.94924327703416" width="28.2" height="141.05075672296582" fill="#7070f8" data-tooltip="1.00x baseline speed (No JIT)"/>
<line x1="604.5999999999999" y1="356.89425032353324" x2="632.8" y2="356.89425032353324" stroke="#000"/>
<line x1="604.5999999999999" y1="357.00423623053507" x2="632.8" y2="357.00423623053507" stroke="#000"/>
<line x1="618.6999999999999" y1="356.89425032353324" x2="618.6999999999999" y2="357.00423623053507" stroke="#000"/>
<rect x="632.8" y="251.12935806981665" width="28.2" height="246.8706419301833" fill="orange" data-tooltip="1.75x baseline speed (YJIT)"/>
<line x1="632.8" y1="250.91712539015222" x2="660.9999999999999" y2="250.91712539015222" stroke="#000"/>
<line x1="632.8" y1="251.34159074948107" x2="660.9999999999999" y2="251.34159074948107" stroke="#000"/>
<line x1="646.8999999999999" y1="250.91712539015222" x2="646.8999999999999" y2="251.34159074948107" stroke="#000"/>
<line x1="646.8999999999999" y1="498.0" x2="646.8999999999999" y2="502.79999999999995" stroke="#000"/>
<text x="646.8999999999999" y="512.4" fill="#111" font-size="small" font-family="monospace" font-weight="bold" text-anchor="end" transform="rotate(-60, 646.8999999999999, 512.4)">
nbody
</text>
<rect x="689.1999999999999" y="356.94924327703416" width="28.2" height="141.05075672296582" fill="#7070f8" data-tooltip="1.00x baseline speed (No JIT)"/>
<line x1="689.1999999999999" y1="356.04276753296966" x2="717.4" y2="356.04276753296966" stroke="#000"/>
<line x1="689.1999999999999" y1="357.85571902109865" x2="717.4" y2="357.85571902109865" stroke="#000"/>
<line x1="703.3" y1="356.04276753296966" x2="703.3" y2="357.85571902109865" stroke="#000"/>
<rect x="717.4" y="117.28963755800594" width="28.2" height="380.710362441994" fill="orange" data-tooltip="2.70x baseline speed (YJIT)"/>
<line x1="717.4" y1="113.87244636109841" x2="745.5999999999999" y2="113.87244636109841" stroke="#000"/>
<line x1="717.4" y1="120.70682875491346" x2="745.5999999999999" y2="120.70682875491346" stroke="#000"/>
<line x1="731.4999999999999" y1="113.87244636109841" x2="731.4999999999999" y2="120.70682875491346" stroke="#000"/>
<line x1="731.4999999999999" y1="498.0" x2="731.4999999999999" y2="502.79999999999995" stroke="#000"/>
<text x="731.4999999999999" y="512.4" fill="#111" font-size="small" font-family="monospace" font-weight="bold" text-anchor="end" transform="rotate(-60, 731.4999999999999, 512.4)">
optcarrot
</text>
<rect x="773.8" y="356.94924327703416" width="28.2" height="141.05075672296582" fill="#7070f8" data-tooltip="1.00x baseline speed (No JIT)"/>
<line x1="773.8" y1="356.7387329756472" x2="801.9999999999999" y2="356.7387329756472" stroke="#000"/>
<line x1="773.8" y1="357.1597535784211" x2="801.9999999999999" y2="357.1597535784211" stroke="#000"/>
<line x1="787.9" y1="356.7387329756472" x2="787.9" y2="357.1597535784211" stroke="#000"/>
<rect x="801.9999999999999" y="331.01824868921483" width="28.2" height="166.98175131078509" fill="orange" data-tooltip="1.18x baseline speed (YJIT)"/>
<line x1="801.9999999999999" y1="330.6509236255883" x2="830.1999999999999" y2="330.6509236255883" stroke="#000"/>
<line x1="801.9999999999999" y1="331.3855737528414" x2="830.1999999999999" y2="331.3855737528414" stroke="#000"/>
<line x1="816.0999999999999" y1="330.6509236255883" x2="816.0999999999999" y2="331.3855737528414" stroke="#000"/>
<line x1="816.0999999999999" y1="498.0" x2="816.0999999999999" y2="502.79999999999995" stroke="#000"/>
<text x="816.0999999999999" y="512.4" fill="#111" font-size="small" font-family="monospace" font-weight="bold" text-anchor="end" transform="rotate(-60, 816.0999999999999, 512.4)">
ruby-json
</text>
<rect x="858.4" y="356.94924327703416" width="28.2" height="141.05075672296582" fill="#7070f8" data-tooltip="1.00x baseline speed (No JIT)"/>
<line x1="858.4" y1="356.3788633840495" x2="886.5999999999999" y2="356.3788633840495" stroke="#000"/>
<line x1="858.4" y1="357.51962317001886" x2="886.5999999999999" y2="357.51962317001886" stroke="#000"/>
<line x1="872.4999999999999" y1="356.3788633840495" x2="872.4999999999999" y2="357.51962317001886" stroke="#000"/>
<rect x="886.5999999999999" y="232.8300055745589" width="28.2" height="265.1699944254411" fill="orange" data-tooltip="1.88x baseline speed (YJIT)"/>
<line x1="886.5999999999999" y1="230.80576849040318" x2="914.8" y2="230.80576849040318" stroke="#000"/>
<line x1="886.5999999999999" y1="234.85424265871458" x2="914.8" y2="234.85424265871458" stroke="#000"/>
<line x1="900.6999999999999" y1="230.80576849040318" x2="900.6999999999999" y2="234.85424265871458" stroke="#000"/>
<line x1="900.6999999999999" y1="498.0" x2="900.6999999999999" y2="502.79999999999995" stroke="#000"/>
<text x="900.6999999999999" y="512.4" fill="#111" font-size="small" font-family="monospace" font-weight="bold" text-anchor="end" transform="rotate(-60, 900.6999999999999, 512.4)">
rubykon
</text>
</svg>