<svg viewBox="0 0 1000 600" xmlns="http://www.w3.org/2000/svg" xmlns:xlink="http://www.w3.org/1999/xlink" width="100%" height="100%">

<rect x="50.0" y="30.0" width="940.0" height="467.99999999999994" stroke="#000" fill="#EEE"/>
<line x1="42.0" y1="497.9999999999999" x2="50.0" y2="497.9999999999999" stroke="#000"/>
<text x="26.000000000000004" y="497.9999999999999" text-anchor="end" font-weight="bold" font-size="small" fill="#111">
0.0
</text>
<line x1="42.0" y1="443.01188487305154" x2="50.0" y2="443.01188487305154" stroke="#000"/>
<text x="26.000000000000004" y="443.01188487305154" text-anchor="end" font-weight="bold" font-size="small" fill="#111">
0.2
</text>
<line x1="42.0" y1="388.023769746103" x2="50.0" y2="388.023769746103" stroke="#000"/>
<text x="26.000000000000004" y="388.023769746103" text-anchor="end" font-weight="bold" font-size="small" fill="#111">
0.4
</text>
<line x1="42.0" y1="333.03565461915457" x2="50.0" y2="333.03565461915457" stroke="#000"/>
<text x="26.000000000000004" y="333.03565461915457" text-anchor="end" font-weight="bold" font-size="small" fill="#111">
0.6
</text>
<line x1="42.0" y1="278.0475394922061" x2="50.0" y2="278.0475394922061" stroke="#000"/>
<text x="26.000000000000004" y="278.0475394922061" text-anchor="end" font-weight="bold" font-size="small" fill="#111">
0.8
</text>
<line x1="42.0" y1="223.05942436525766" x2="50.0" y2="223.05942436525766" stroke="#000"/>
<text x="26.000000000000004" y="223.05942436525766" text-anchor="end" font-weight="bold" font-size="small" fill="#111">
1.0
</text>
<line x1="42.0" y1="168.07130923830917" x2="50.0" y2="168.07130923830917" stroke="#000"/>
<text x="26.000000000000004" y="168.07130923830917" text-anchor="end" font-weight="bold" font-size="small" fill="#111">
1.2
</text>
<line x1="42.0" y1="113.08319411136077" x2="50.0" y2="113.08319411136077" stroke="#000"/>
<text x="26.000000000000004" y="113.08319411136077" text-anchor="end" font-weight="bold" font-size="small" fill="#111">
1.4
</text>
<rect x="197.99999999999997" y="36.00000000000001" width="80.0" height="18.0" fill="#7070f8" stroke="#888"/>
<text x="238.0" y="52.50000000000001" font-size="small" text-anchor="middle" font-weight="bold" fill="#EEE">
No JIT
</text>
<rect x="479.99999999999994" y="36.00000000000001" width="80.0" height="18.0" fill="orange" stroke="#888"/>
<text x="519.9999999999999" y="52.50000000000001" font-size="small" text-anchor="middle" font-weight="bold" fill="#EEE">
MJIT
</text>
<rect x="761.9999999999999" y="36.00000000000001" width="80.0" height="18.0" fill="green" stroke="#888"/>
<text x="801.9999999999999" y="52.50000000000001" font-size="small" text-anchor="middle" font-weight="bold" fill="#EEE">
YJIT
</text>
<rect x="97.0" y="223.05942436525766" width="35.25" height="274.9405756347423" fill="#7070f8" data-tooltip="1.00x baseline speed (No JIT)"/>
<line x1="97.0" y1="221.39799484084486" x2="132.25" y2="221.39799484084486" stroke="#000"/>
<line x1="97.0" y1="224.72085388967042" x2="132.25" y2="224.72085388967042" stroke="#000"/>
<line x1="114.625" y1="221.39799484084486" x2="114.625" y2="224.72085388967042" stroke="#000"/>
<rect x="132.25" y="259.8108802591212" width="35.25" height="238.1891197408788" fill="orange" data-tooltip="0.87x baseline speed (MJIT)"/>
<line x1="132.25" y1="249.09119235575412" x2="167.5" y2="249.09119235575412" stroke="#000"/>
<line x1="132.25" y1="270.5305681624882" x2="167.5" y2="270.5305681624882" stroke="#000"/>
<line x1="149.875" y1="249.09119235575412" x2="149.875" y2="270.5305681624882" stroke="#000"/>
<rect x="167.49999999999997" y="102.9272037828686" width="35.25" height="395.0727962171314" fill="green" data-tooltip="1.44x baseline speed (YJIT)"/>
<line x1="167.49999999999997" y1="99.98538055601638" x2="202.75" y2="99.98538055601638" stroke="#000"/>
<line x1="167.49999999999997" y1="105.86902700972082" x2="202.75" y2="105.86902700972082" stroke="#000"/>
<line x1="185.12499999999997" y1="99.98538055601638" x2="185.12499999999997" y2="105.86902700972082" stroke="#000"/>
<line x1="167.49999999999997" y1="498.0" x2="167.49999999999997" y2="502.79999999999995" stroke="#000"/>
<text x="167.49999999999997" y="512.4" fill="#111" font-size="small" font-family="monospace" font-weight="bold" text-anchor="end" transform="rotate(-60, 167.49999999999997, 512.4)">
activerecord
</text>
<rect x="238.0" y="223.05942436525766" width="35.25" height="274.9405756347423" fill="#7070f8" data-tooltip="1.00x baseline speed (No JIT)"/>
<line x1="238.0" y1="218.98884700708786" x2="273.25" y2="218.98884700708786" stroke="#000"/>
<line x1="238.0" y1="227.13000172342743" x2="273.25" y2="227.13000172342743" stroke="#000"/>
<line x1="255.625" y1="218.98884700708786" x2="255.625" y2="227.13000172342743" stroke="#000"/>
<rect x="308.5" y="129.7973254755579" width="35.25" height="368.202674524442" fill="green" data-tooltip="1.34x baseline speed (YJIT)"/>
<line x1="308.5" y1="123.24334785746971" x2="343.75" y2="123.24334785746971" stroke="#000"/>
<line x1="308.5" y1="136.3513030936461" x2="343.75" y2="136.3513030936461" stroke="#000"/>
<line x1="326.125" y1="123.24334785746971" x2="326.125" y2="136.3513030936461" stroke="#000"/>
<line x1="308.5" y1="498.0" x2="308.5" y2="502.79999999999995" stroke="#000"/>
<text x="308.5" y="512.4" fill="#111" font-size="small" font-family="monospace" font-weight="bold" text-anchor="end" transform="rotate(-60, 308.5, 512.4)">
hexapdf
</text>
<rect x="379.0" y="223.05942436525766" width="35.25" height="274.9405756347423" fill="#7070f8" data-tooltip="1.00x baseline speed (No JIT)"/>
<line x1="379.0" y1="219.26368053908587" x2="414.25" y2="219.26368053908587" stroke="#000"/>
<line x1="379.0" y1="226.8551681914294" x2="414.25" y2="226.8551681914294" stroke="#000"/>
<line x1="396.625" y1="219.26368053908587" x2="396.625" y2="226.8551681914294" stroke="#000"/>
<rect x="414.25" y="212.86443249111448" width="35.25" height="285.13556750888546" fill="orange" data-tooltip="1.04x baseline speed (MJIT)"/>
<line x1="414.25" y1="207.23141000645575" x2="449.5" y2="207.23141000645575" stroke="#000"/>
<line x1="414.25" y1="218.49745497577322" x2="449.5" y2="218.49745497577322" stroke="#000"/>
<line x1="431.875" y1="207.23141000645575" x2="431.875" y2="218.49745497577322" stroke="#000"/>
<rect x="449.5" y="100.19999999999999" width="35.25" height="397.79999999999995" fill="green" data-tooltip="1.45x baseline speed (YJIT)"/>
<line x1="449.5" y1="91.15615085309088" x2="484.75" y2="91.15615085309088" stroke="#000"/>
<line x1="449.5" y1="109.2438491469091" x2="484.75" y2="109.2438491469091" stroke="#000"/>
<line x1="467.125" y1="91.15615085309088" x2="467.125" y2="109.2438491469091" stroke="#000"/>
<line x1="449.5" y1="498.0" x2="449.5" y2="502.79999999999995" stroke="#000"/>
<text x="449.5" y="512.4" fill="#111" font-size="small" font-family="monospace" font-weight="bold" text-anchor="end" transform="rotate(-60, 449.5, 512.4)">
liquid-render
</text>
<rect x="519.9999999999999" y="223.05942436525766" width="35.25" height="274.9405756347423" fill="#7070f8" data-tooltip="1.00x baseline speed (No JIT)"/>
<line x1="519.9999999999999" y1="217.9068210500202" x2="555.2499999999999" y2="217.9068210500202" stroke="#000"/>
<line x1="519.9999999999999" y1="228.21202768049508" x2="555.2499999999999" y2="228.21202768049508" stroke="#000"/>
<line x1="537.6249999999999" y1="217.9068210500202" x2="537.6249999999999" y2="228.21202768049508" stroke="#000"/>
<rect x="555.2499999999999" y="227.0651935634698" width="35.25" height="270.93480643653015" fill="orange" data-tooltip="0.99x baseline speed (MJIT)"/>
<line x1="555.2499999999999" y1="216.68052812433424" x2="590.4999999999999" y2="216.68052812433424" stroke="#000"/>
<line x1="555.2499999999999" y1="237.44985900260534" x2="590.4999999999999" y2="237.44985900260534" stroke="#000"/>
<line x1="572.8749999999999" y1="216.68052812433424" x2="572.8749999999999" y2="237.44985900260534" stroke="#000"/>
<rect x="590.4999999999999" y="198.17378122445638" width="35.25" height="299.82621877554357" fill="green" data-tooltip="1.09x baseline speed (YJIT)"/>
<line x1="590.4999999999999" y1="188.89041998443773" x2="625.7499999999999" y2="188.89041998443773" stroke="#000"/>
<line x1="590.4999999999999" y1="207.457142464475" x2="625.7499999999999" y2="207.457142464475" stroke="#000"/>
<line x1="608.1249999999999" y1="188.89041998443773" x2="608.1249999999999" y2="207.457142464475" stroke="#000"/>
<line x1="590.4999999999999" y1="498.0" x2="590.4999999999999" y2="502.79999999999995" stroke="#000"/>
<text x="590.4999999999999" y="512.4" fill="#111" font-size="small" font-family="monospace" font-weight="bold" text-anchor="end" transform="rotate(-60, 590.4999999999999, 512.4)">
mail
</text>
<rect x="660.9999999999999" y="223.05942436525766" width="35.25" height="274.9405756347423" fill="#7070f8" data-tooltip="1.00x baseline speed (No JIT)"/>
<line x1="660.9999999999999" y1="222.68425959906816" x2="696.2499999999999" y2="222.68425959906816" stroke="#000"/>
<line x1="660.9999999999999" y1="223.43458913144713" x2="696.2499999999999" y2="223.43458913144713" stroke="#000"/>
<line x1="678.6249999999999" y1="222.68425959906816" x2="678.6249999999999" y2="223.43458913144713" stroke="#000"/>
<rect x="696.2499999999999" y="189.37208006660293" width="35.25" height="308.62791993339704" fill="orange" data-tooltip="1.12x baseline speed (MJIT)"/>
<line x1="696.2499999999999" y1="188.7388929212501" x2="731.4999999999999" y2="188.7388929212501" stroke="#000"/>
<line x1="696.2499999999999" y1="190.00526721195573" x2="731.4999999999999" y2="190.00526721195573" stroke="#000"/>
<line x1="713.8749999999999" y1="188.7388929212501" x2="713.8749999999999" y2="190.00526721195573" stroke="#000"/>
<rect x="731.4999999999999" y="163.47097344384136" width="35.25" height="334.5290265561586" fill="green" data-tooltip="1.22x baseline speed (YJIT)"/>
<line x1="731.4999999999999" y1="162.9669168421434" x2="766.7499999999999" y2="162.9669168421434" stroke="#000"/>
<line x1="731.4999999999999" y1="163.97503004553928" x2="766.7499999999999" y2="163.97503004553928" stroke="#000"/>
<line x1="749.1249999999999" y1="162.9669168421434" x2="749.1249999999999" y2="163.97503004553928" stroke="#000"/>
<line x1="731.4999999999999" y1="498.0" x2="731.4999999999999" y2="502.79999999999995" stroke="#000"/>
<text x="731.4999999999999" y="512.4" fill="#111" font-size="small" font-family="monospace" font-weight="bold" text-anchor="end" transform="rotate(-60, 731.4999999999999, 512.4)">
psych-load
</text>
<rect x="801.9999999999999" y="223.05942436525766" width="35.25" height="274.9405756347423" fill="#7070f8" data-tooltip="1.00x baseline speed (No JIT)"/>
<line x1="801.9999999999999" y1="222.35334876385053" x2="837.2499999999999" y2="222.35334876385053" stroke="#000"/>
<line x1="801.9999999999999" y1="223.76549996666475" x2="837.2499999999999" y2="223.76549996666475" stroke="#000"/>
<line x1="819.6249999999999" y1="222.35334876385053" x2="819.6249999999999" y2="223.76549996666475" stroke="#000"/>
<rect x="837.2499999999999" y="254.19762622016984" width="35.25" height="243.8023737798301" fill="orange" data-tooltip="0.89x baseline speed (MJIT)"/>
<line x1="837.2499999999999" y1="252.63742577941633" x2="872.4999999999999" y2="252.63742577941633" stroke="#000"/>
<line x1="837.2499999999999" y1="255.75782666092337" x2="872.4999999999999" y2="255.75782666092337" stroke="#000"/>
<line x1="854.8749999999999" y1="252.63742577941633" x2="854.8749999999999" y2="255.75782666092337" stroke="#000"/>
<rect x="872.4999999999999" y="151.80183516420053" width="35.25" height="346.19816483579945" fill="green" data-tooltip="1.26x baseline speed (YJIT)"/>
<line x1="872.4999999999999" y1="150.3397588391905" x2="907.75" y2="150.3397588391905" stroke="#000"/>
<line x1="872.4999999999999" y1="153.26391148921056" x2="907.75" y2="153.26391148921056" stroke="#000"/>
<line x1="890.125" y1="150.3397588391905" x2="890.125" y2="153.26391148921056" stroke="#000"/>
<line x1="872.4999999999999" y1="498.0" x2="872.4999999999999" y2="502.79999999999995" stroke="#000"/>
<text x="872.4999999999999" y="512.4" fill="#111" font-size="small" font-family="monospace" font-weight="bold" text-anchor="end" transform="rotate(-60, 872.4999999999999, 512.4)">
railsbench
</text>
</svg>