<svg viewBox="0 0 1000 600" xmlns="http://www.w3.org/2000/svg" xmlns:xlink="http://www.w3.org/1999/xlink" width="100%" height="100%">

<rect x="50.0" y="30.0" width="940.0" height="467.99999999999994" stroke="#000" fill="#EEE"/>
<line x1="42.0" y1="497.9999999999999" x2="50.0" y2="497.9999999999999" stroke="#000"/>
<text x="26.000000000000004" y="497.9999999999999" text-anchor="end" font-weight="bold" font-size="small" fill="#111">
0.0
</text>
<line x1="42.0" y1="446.2867897030927" x2="50.0" y2="446.2867897030927" stroke="#000"/>
<text x="26.000000000000004" y="446.2867897030927" text-anchor="end" font-weight="bold" font-size="small" fill="#111">
0.2
</text>
<line x1="42.0" y1="394.57357940618533" x2="50.0" y2="394.57357940618533" stroke="#000"/>
<text x="26.000000000000004" y="394.57357940618533" text-anchor="end" font-weight="bold" font-size="small" fill="#111">
0.4
</text>
<line x1="42.0" y1="342.8603691092781" x2="50.0" y2="342.8603691092781" stroke="#000"/>
<text x="26.000000000000004" y="342.8603691092781" text-anchor="end" font-weight="bold" font-size="small" fill="#111">
0.6
</text>
<line x1="42.0" y1="291.14715881237083" x2="50.0" y2="291.14715881237083" stroke="#000"/>
<text x="26.000000000000004" y="291.14715881237083" text-anchor="end" font-weight="bold" font-size="small" fill="#111">
0.8
</text>
<line x1="42.0" y1="239.4339485154636" x2="50.0" y2="239.4339485154636" stroke="#000"/>
<text x="26.000000000000004" y="239.4339485154636" text-anchor="end" font-weight="bold" font-size="small" fill="#111">
1.0
</text>
<line x1="42.0" y1="187.7207382185563" x2="50.0" y2="187.7207382185563" stroke="#000"/>
<text x="26.000000000000004" y="187.7207382185563" text-anchor="end" font-weight="bold" font-size="small" fill="#111">
1.2
</text>
<line x1="42.0" y1="136.00752792164906" x2="50.0" y2="136.00752792164906" stroke="#000"/>
<text x="26.000000000000004" y="136.00752792164906" text-anchor="end" font-weight="bold" font-size="small" fill="#111">
1.4
</text>
<rect x="197.99999999999997" y="36.00000000000001" width="80.0" height="18.0" fill="#7070f8" stroke="#888"/>
<text x="238.0" y="52.50000000000001" font-size="small" text-anchor="middle" font-weight="bold" fill="#EEE">
No JIT
</text>
<rect x="479.99999999999994" y="36.00000000000001" width="80.0" height="18.0" fill="orange" stroke="#888"/>
<text x="519.9999999999999" y="52.50000000000001" font-size="small" text-anchor="middle" font-weight="bold" fill="#EEE">
MJIT
</text>
<rect x="761.9999999999999" y="36.00000000000001" width="80.0" height="18.0" fill="green" stroke="#888"/>
<text x="801.9999999999999" y="52.50000000000001" font-size="small" text-anchor="middle" font-weight="bold" fill="#EEE">
YJIT
</text>
<rect x="97.0" y="239.4339485154636" width="35.25" height="258.5660514845364" fill="#7070f8" data-tooltip="1.00x baseline speed (No JIT)"/>
<line x1="97.0" y1="238.44110800471327" x2="132.25" y2="238.44110800471327" stroke="#000"/>
<line x1="97.0" y1="240.42678902621392" x2="132.25" y2="240.42678902621392" stroke="#000"/>
<line x1="114.625" y1="238.44110800471327" x2="114.625" y2="240.42678902621392" stroke="#000"/>
<rect x="132.25" y="246.05826611618414" width="35.25" height="251.9417338838158" fill="orange" data-tooltip="0.97x baseline speed (MJIT)"/>
<line x1="132.25" y1="244.76021856250432" x2="167.5" y2="244.76021856250432" stroke="#000"/>
<line x1="132.25" y1="247.356313669864" x2="167.5" y2="247.356313669864" stroke="#000"/>
<line x1="149.875" y1="244.76021856250432" x2="149.875" y2="247.356313669864" stroke="#000"/>
<rect x="167.49999999999997" y="115.93548333708384" width="35.25" height="382.0645166629161" fill="green" data-tooltip="1.48x baseline speed (YJIT)"/>
<line x1="167.49999999999997" y1="113.36608796647096" x2="202.75" y2="113.36608796647096" stroke="#000"/>
<line x1="167.49999999999997" y1="118.50487870769673" x2="202.75" y2="118.50487870769673" stroke="#000"/>
<line x1="185.12499999999997" y1="113.36608796647096" x2="185.12499999999997" y2="118.50487870769673" stroke="#000"/>
<line x1="167.49999999999997" y1="498.0" x2="167.49999999999997" y2="502.79999999999995" stroke="#000"/>
<text x="167.49999999999997" y="512.4" fill="#111" font-size="small" font-family="monospace" font-weight="bold" text-anchor="end" transform="rotate(-60, 167.49999999999997, 512.4)">
activerecord
</text>
<rect x="238.0" y="239.4339485154636" width="35.25" height="258.5660514845364" fill="#7070f8" data-tooltip="1.00x baseline speed (No JIT)"/>
<line x1="238.0" y1="236.9480375070564" x2="273.25" y2="236.9480375070564" stroke="#000"/>
<line x1="238.0" y1="241.9198595238708" x2="273.25" y2="241.9198595238708" stroke="#000"/>
<line x1="255.625" y1="236.9480375070564" x2="255.625" y2="241.9198595238708" stroke="#000"/>
<rect x="308.5" y="141.15044375008324" width="35.25" height="356.84955624991665" fill="green" data-tooltip="1.38x baseline speed (YJIT)"/>
<line x1="308.5" y1="134.05349501393363" x2="343.75" y2="134.05349501393363" stroke="#000"/>
<line x1="308.5" y1="148.24739248623288" x2="343.75" y2="148.24739248623288" stroke="#000"/>
<line x1="326.125" y1="134.05349501393363" x2="326.125" y2="148.24739248623288" stroke="#000"/>
<line x1="308.5" y1="498.0" x2="308.5" y2="502.79999999999995" stroke="#000"/>
<text x="308.5" y="512.4" fill="#111" font-size="small" font-family="monospace" font-weight="bold" text-anchor="end" transform="rotate(-60, 308.5, 512.4)">
hexapdf
</text>
<rect x="379.0" y="239.4339485154636" width="35.25" height="258.5660514845364" fill="#7070f8" data-tooltip="1.00x baseline speed (No JIT)"/>
<line x1="379.0" y1="234.06146182604624" x2="414.25" y2="234.06146182604624" stroke="#000"/>
<line x1="379.0" y1="244.80643520488096" x2="414.25" y2="244.80643520488096" stroke="#000"/>
<line x1="396.625" y1="234.06146182604624" x2="396.625" y2="244.80643520488096" stroke="#000"/>
<rect x="414.25" y="210.29236694021574" width="35.25" height="287.7076330597842" fill="orange" data-tooltip="1.11x baseline speed (MJIT)"/>
<line x1="414.25" y1="202.81201411360047" x2="449.5" y2="202.81201411360047" stroke="#000"/>
<line x1="414.25" y1="217.77271976683102" x2="449.5" y2="217.77271976683102" stroke="#000"/>
<line x1="431.875" y1="202.81201411360047" x2="431.875" y2="217.77271976683102" stroke="#000"/>
<rect x="449.5" y="100.19999999999999" width="35.25" height="397.79999999999995" fill="green" data-tooltip="1.54x baseline speed (YJIT)"/>
<line x1="449.5" y1="89.72004843654659" x2="484.75" y2="89.72004843654659" stroke="#000"/>
<line x1="449.5" y1="110.6799515634534" x2="484.75" y2="110.6799515634534" stroke="#000"/>
<line x1="467.125" y1="89.72004843654659" x2="467.125" y2="110.6799515634534" stroke="#000"/>
<line x1="449.5" y1="498.0" x2="449.5" y2="502.79999999999995" stroke="#000"/>
<text x="449.5" y="512.4" fill="#111" font-size="small" font-family="monospace" font-weight="bold" text-anchor="end" transform="rotate(-60, 449.5, 512.4)">
liquid-render
</text>
<rect x="519.9999999999999" y="239.4339485154636" width="35.25" height="258.5660514845364" fill="#7070f8" data-tooltip="1.00x baseline speed (No JIT)"/>
<line x1="519.9999999999999" y1="239.21318487580152" x2="555.2499999999999" y2="239.21318487580152" stroke="#000"/>
<line x1="519.9999999999999" y1="239.65471215512568" x2="555.2499999999999" y2="239.65471215512568" stroke="#000"/>
<line x1="537.6249999999999" y1="239.21318487580152" x2="537.6249999999999" y2="239.65471215512568" stroke="#000"/>
<rect x="555.2499999999999" y="234.4623745129181" width="35.25" height="263.5376254870818" fill="orange" data-tooltip="1.02x baseline speed (MJIT)"/>
<line x1="555.2499999999999" y1="229.62723711152964" x2="590.4999999999999" y2="229.62723711152964" stroke="#000"/>
<line x1="555.2499999999999" y1="239.29751191430657" x2="590.4999999999999" y2="239.29751191430657" stroke="#000"/>
<line x1="572.8749999999999" y1="229.62723711152964" x2="572.8749999999999" y2="239.29751191430657" stroke="#000"/>
<rect x="590.4999999999999" y="202.3196908803969" width="35.25" height="295.680309119603" fill="green" data-tooltip="1.14x baseline speed (YJIT)"/>
<line x1="590.4999999999999" y1="201.78524321477028" x2="625.7499999999999" y2="201.78524321477028" stroke="#000"/>
<line x1="590.4999999999999" y1="202.85413854602356" x2="625.7499999999999" y2="202.85413854602356" stroke="#000"/>
<line x1="608.1249999999999" y1="201.78524321477028" x2="608.1249999999999" y2="202.85413854602356" stroke="#000"/>
<line x1="590.4999999999999" y1="498.0" x2="590.4999999999999" y2="502.79999999999995" stroke="#000"/>
<text x="590.4999999999999" y="512.4" fill="#111" font-size="small" font-family="monospace" font-weight="bold" text-anchor="end" transform="rotate(-60, 590.4999999999999, 512.4)">
mail
</text>
<rect x="660.9999999999999" y="239.4339485154636" width="35.25" height="258.5660514845364" fill="#7070f8" data-tooltip="1.00x baseline speed (No JIT)"/>
<line x1="660.9999999999999" y1="239.28125653613995" x2="696.2499999999999" y2="239.28125653613995" stroke="#000"/>
<line x1="660.9999999999999" y1="239.58664049478725" x2="696.2499999999999" y2="239.58664049478725" stroke="#000"/>
<line x1="678.6249999999999" y1="239.28125653613995" x2="678.6249999999999" y2="239.58664049478725" stroke="#000"/>
<rect x="696.2499999999999" y="206.39266467705076" width="35.25" height="291.60733532294915" fill="orange" data-tooltip="1.13x baseline speed (MJIT)"/>
<line x1="696.2499999999999" y1="206.19243583181884" x2="731.4999999999999" y2="206.19243583181884" stroke="#000"/>
<line x1="696.2499999999999" y1="206.59289352228268" x2="731.4999999999999" y2="206.59289352228268" stroke="#000"/>
<line x1="713.8749999999999" y1="206.19243583181884" x2="713.8749999999999" y2="206.59289352228268" stroke="#000"/>
<rect x="731.4999999999999" y="159.20907828798866" width="35.25" height="338.79092171201125" fill="green" data-tooltip="1.31x baseline speed (YJIT)"/>
<line x1="731.4999999999999" y1="158.96483824353976" x2="766.7499999999999" y2="158.96483824353976" stroke="#000"/>
<line x1="731.4999999999999" y1="159.4533183324376" x2="766.7499999999999" y2="159.4533183324376" stroke="#000"/>
<line x1="749.1249999999999" y1="158.96483824353976" x2="749.1249999999999" y2="159.4533183324376" stroke="#000"/>
<line x1="731.4999999999999" y1="498.0" x2="731.4999999999999" y2="502.79999999999995" stroke="#000"/>
<text x="731.4999999999999" y="512.4" fill="#111" font-size="small" font-family="monospace" font-weight="bold" text-anchor="end" transform="rotate(-60, 731.4999999999999, 512.4)">
psych-load
</text>
<rect x="801.9999999999999" y="239.4339485154636" width="35.25" height="258.5660514845364" fill="#7070f8" data-tooltip="1.00x baseline speed (No JIT)"/>
<line x1="801.9999999999999" y1="237.57735051243364" x2="837.2499999999999" y2="237.57735051243364" stroke="#000"/>
<line x1="801.9999999999999" y1="241.29054651849356" x2="837.2499999999999" y2="241.29054651849356" stroke="#000"/>
<line x1="819.6249999999999" y1="237.57735051243364" x2="819.6249999999999" y2="241.29054651849356" stroke="#000"/>
<rect x="837.2499999999999" y="242.4808572014058" width="35.25" height="255.51914279859417" fill="orange" data-tooltip="0.99x baseline speed (MJIT)"/>
<line x1="837.2499999999999" y1="239.91870891133934" x2="872.4999999999999" y2="239.91870891133934" stroke="#000"/>
<line x1="837.2499999999999" y1="245.04300549147226" x2="872.4999999999999" y2="245.04300549147226" stroke="#000"/>
<line x1="854.8749999999999" y1="239.91870891133934" x2="854.8749999999999" y2="245.04300549147226" stroke="#000"/>
<rect x="872.4999999999999" y="155.52977425783084" width="35.25" height="342.47022574216913" fill="green" data-tooltip="1.32x baseline speed (YJIT)"/>
<line x1="872.4999999999999" y1="151.26561776229107" x2="907.75" y2="151.26561776229107" stroke="#000"/>
<line x1="872.4999999999999" y1="159.79393075337057" x2="907.75" y2="159.79393075337057" stroke="#000"/>
<line x1="890.125" y1="151.26561776229107" x2="890.125" y2="159.79393075337057" stroke="#000"/>
<line x1="872.4999999999999" y1="498.0" x2="872.4999999999999" y2="502.79999999999995" stroke="#000"/>
<text x="872.4999999999999" y="512.4" fill="#111" font-size="small" font-family="monospace" font-weight="bold" text-anchor="end" transform="rotate(-60, 872.4999999999999, 512.4)">
railsbench
</text>
</svg>