<svg viewBox="0 0 1000 600" xmlns="http://www.w3.org/2000/svg" xmlns:xlink="http://www.w3.org/1999/xlink" width="100%" height="100%">

<rect x="50.0" y="30.0" width="940.0" height="467.99999999999994" stroke="#000" fill="#EEE"/>
<line x1="42.0" y1="497.9999999999999" x2="50.0" y2="497.9999999999999" stroke="#000"/>
<text x="26.000000000000004" y="497.9999999999999" text-anchor="end" font-weight="bold" font-size="small" fill="#111">
0.0
</text>
<line x1="42.0" y1="403.1681488213899" x2="50.0" y2="403.1681488213899" stroke="#000"/>
<text x="26.000000000000004" y="403.1681488213899" text-anchor="end" font-weight="bold" font-size="small" fill="#111">
2.0
</text>
<line x1="42.0" y1="308.33629764277975" x2="50.0" y2="308.33629764277975" stroke="#000"/>
<text x="26.000000000000004" y="308.33629764277975" text-anchor="end" font-weight="bold" font-size="small" fill="#111">
4.0
</text>
<line x1="42.0" y1="213.50444646416966" x2="50.0" y2="213.50444646416966" stroke="#000"/>
<text x="26.000000000000004" y="213.50444646416966" text-anchor="end" font-weight="bold" font-size="small" fill="#111">
6.0
</text>
<line x1="42.0" y1="118.6725952855596" x2="50.0" y2="118.6725952855596" stroke="#000"/>
<text x="26.000000000000004" y="118.6725952855596" text-anchor="end" font-weight="bold" font-size="small" fill="#111">
8.0
</text>
<rect x="197.99999999999997" y="36.00000000000001" width="80.0" height="18.0" fill="#7070f8" stroke="#888"/>
<text x="238.0" y="52.50000000000001" font-size="small" text-anchor="middle" font-weight="bold" fill="#EEE">
No JIT
</text>
<rect x="479.99999999999994" y="36.00000000000001" width="80.0" height="18.0" fill="orange" stroke="#888"/>
<text x="519.9999999999999" y="52.50000000000001" font-size="small" text-anchor="middle" font-weight="bold" fill="#EEE">
MJIT3.0
</text>
<rect x="761.9999999999999" y="36.00000000000001" width="80.0" height="18.0" fill="green" stroke="#888"/>
<text x="801.9999999999999" y="52.50000000000001" font-size="small" text-anchor="middle" font-weight="bold" fill="#EEE">
YJIT
</text>
<rect x="97.0" y="450.5840744106949" width="26.4375" height="47.41592558930504" fill="#7070f8" data-tooltip="1.00x baseline speed (No JIT)"/>
<line x1="97.0" y1="449.74790596904967" x2="123.4375" y2="449.74790596904967" stroke="#000"/>
<line x1="97.0" y1="451.42024285234015" x2="123.4375" y2="451.42024285234015" stroke="#000"/>
<line x1="110.21875" y1="449.74790596904967" x2="110.21875" y2="451.42024285234015" stroke="#000"/>
<rect x="123.4375" y="451.6868276625317" width="26.4375" height="46.31317233746827" fill="orange" data-tooltip="0.98x baseline speed (MJIT3.0)"/>
<line x1="123.4375" y1="450.2670698868568" x2="149.875" y2="450.2670698868568" stroke="#000"/>
<line x1="123.4375" y1="453.1065854382066" x2="149.875" y2="453.1065854382066" stroke="#000"/>
<line x1="136.65625" y1="450.2670698868568" x2="136.65625" y2="453.1065854382066" stroke="#000"/>
<rect x="149.875" y="178.81290088308887" width="26.4375" height="319.1870991169111" fill="green" data-tooltip="6.73x baseline speed (YJIT)"/>
<line x1="149.875" y1="173.14736324864666" x2="176.3125" y2="173.14736324864666" stroke="#000"/>
<line x1="149.875" y1="184.47843851753106" x2="176.3125" y2="184.47843851753106" stroke="#000"/>
<line x1="163.09375" y1="173.14736324864666" x2="163.09375" y2="184.47843851753106" stroke="#000"/>
<line x1="149.875" y1="498.0" x2="149.875" y2="502.79999999999995" stroke="#000"/>
<text x="149.875" y="512.4" fill="#111" font-size="small" font-family="monospace" font-weight="bold" text-anchor="end" transform="rotate(-60, 149.875, 512.4)">
30k_ifelse
</text>
<rect x="202.75" y="450.5840744106949" width="26.4375" height="47.41592558930504" fill="#7070f8" data-tooltip="1.00x baseline speed (No JIT)"/>
<line x1="202.75" y1="450.5705252950481" x2="229.1875" y2="450.5705252950481" stroke="#000"/>
<line x1="202.75" y1="450.5976235263417" x2="229.1875" y2="450.5976235263417" stroke="#000"/>
<line x1="215.96875" y1="450.5705252950481" x2="215.96875" y2="450.5976235263417" stroke="#000"/>
<rect x="229.1875" y="447.32879881344667" width="26.4375" height="50.67120118655327" fill="orange" data-tooltip="1.07x baseline speed (MJIT3.0)"/>
<line x1="229.1875" y1="446.6386419940137" x2="255.625" y2="446.6386419940137" stroke="#000"/>
<line x1="229.1875" y1="448.0189556328796" x2="255.625" y2="448.0189556328796" stroke="#000"/>
<line x1="242.40625" y1="446.6386419940137" x2="242.40625" y2="448.0189556328796" stroke="#000"/>
<rect x="255.625" y="100.19999999999999" width="26.4375" height="397.79999999999995" fill="green" data-tooltip="8.39x baseline speed (YJIT)"/>
<line x1="255.625" y1="100.04531207849186" x2="282.0625" y2="100.04531207849186" stroke="#000"/>
<line x1="255.625" y1="100.35468792150812" x2="282.0625" y2="100.35468792150812" stroke="#000"/>
<line x1="268.84375" y1="100.04531207849186" x2="268.84375" y2="100.35468792150812" stroke="#000"/>
<line x1="255.625" y1="498.0" x2="255.625" y2="502.79999999999995" stroke="#000"/>
<text x="255.625" y="512.4" fill="#111" font-size="small" font-family="monospace" font-weight="bold" text-anchor="end" transform="rotate(-60, 255.625, 512.4)">
30k_methods
</text>
<rect x="308.5" y="450.5840744106949" width="26.4375" height="47.41592558930504" fill="#7070f8" data-tooltip="1.00x baseline speed (No JIT)"/>
<line x1="308.5" y1="450.452417516403" x2="334.9375" y2="450.452417516403" stroke="#000"/>
<line x1="308.5" y1="450.7157313049868" x2="334.9375" y2="450.7157313049868" stroke="#000"/>
<line x1="321.71875" y1="450.452417516403" x2="321.71875" y2="450.7157313049868" stroke="#000"/>
<rect x="334.9375" y="420.56976219430993" width="26.4375" height="77.43023780569006" fill="orange" data-tooltip="1.63x baseline speed (MJIT3.0)"/>
<line x1="334.9375" y1="420.3246000804827" x2="361.375" y2="420.3246000804827" stroke="#000"/>
<line x1="334.9375" y1="420.81492430813717" x2="361.375" y2="420.81492430813717" stroke="#000"/>
<line x1="348.15625" y1="420.3246000804827" x2="348.15625" y2="420.81492430813717" stroke="#000"/>
<rect x="361.375" y="383.39657547910247" width="26.4375" height="114.6034245208975" fill="green" data-tooltip="2.42x baseline speed (YJIT)"/>
<line x1="361.375" y1="382.9543801361253" x2="387.8125" y2="382.9543801361253" stroke="#000"/>
<line x1="361.375" y1="383.8387708220797" x2="387.8125" y2="383.8387708220797" stroke="#000"/>
<line x1="374.59375" y1="382.9543801361253" x2="374.59375" y2="383.8387708220797" stroke="#000"/>
<line x1="361.375" y1="498.0" x2="361.375" y2="502.79999999999995" stroke="#000"/>
<text x="361.375" y="512.4" fill="#111" font-size="small" font-family="monospace" font-weight="bold" text-anchor="end" transform="rotate(-60, 361.375, 512.4)">
cfunc_itself
</text>
<rect x="414.25" y="450.5840744106949" width="26.4375" height="47.41592558930504" fill="#7070f8" data-tooltip="1.00x baseline speed (No JIT)"/>
<line x1="414.25" y1="450.5648065439283" x2="440.6875" y2="450.5648065439283" stroke="#000"/>
<line x1="414.25" y1="450.60334227746154" x2="440.6875" y2="450.60334227746154" stroke="#000"/>
<line x1="427.46875" y1="450.5648065439283" x2="427.46875" y2="450.60334227746154" stroke="#000"/>
<rect x="440.6875" y="349.51556991928254" width="26.4375" height="148.48443008071737" fill="orange" data-tooltip="3.13x baseline speed (MJIT3.0)"/>
<line x1="440.6875" y1="349.43397977033555" x2="467.125" y2="349.43397977033555" stroke="#000"/>
<line x1="440.6875" y1="349.5971600682295" x2="467.125" y2="349.5971600682295" stroke="#000"/>
<line x1="453.90625" y1="349.43397977033555" x2="453.90625" y2="349.5971600682295" stroke="#000"/>
<rect x="467.125" y="319.62476237472805" width="26.4375" height="178.37523762527184" fill="green" data-tooltip="3.76x baseline speed (YJIT)"/>
<line x1="467.125" y1="319.4721986792021" x2="493.5625" y2="319.4721986792021" stroke="#000"/>
<line x1="467.125" y1="319.77732607025405" x2="493.5625" y2="319.77732607025405" stroke="#000"/>
<line x1="480.34375" y1="319.4721986792021" x2="480.34375" y2="319.77732607025405" stroke="#000"/>
<line x1="467.125" y1="498.0" x2="467.125" y2="502.79999999999995" stroke="#000"/>
<text x="467.125" y="512.4" fill="#111" font-size="small" font-family="monospace" font-weight="bold" text-anchor="end" transform="rotate(-60, 467.125, 512.4)">
fib
</text>
<rect x="520.0" y="450.5840744106949" width="26.4375" height="47.41592558930504" fill="#7070f8" data-tooltip="1.00x baseline speed (No JIT)"/>
<line x1="520.0" y1="450.5243951213089" x2="546.4375" y2="450.5243951213089" stroke="#000"/>
<line x1="520.0" y1="450.6437537000809" x2="546.4375" y2="450.6437537000809" stroke="#000"/>
<line x1="533.21875" y1="450.5243951213089" x2="533.21875" y2="450.6437537000809" stroke="#000"/>
<rect x="546.4375" y="450.75853773150254" width="26.4375" height="47.2414622684974" fill="orange" data-tooltip="1.00x baseline speed (MJIT3.0)"/>
<line x1="546.4375" y1="450.6683867193177" x2="572.875" y2="450.6683867193177" stroke="#000"/>
<line x1="546.4375" y1="450.84868874368743" x2="572.875" y2="450.84868874368743" stroke="#000"/>
<line x1="559.65625" y1="450.6683867193177" x2="559.65625" y2="450.84868874368743" stroke="#000"/>
<rect x="572.875" y="379.77264280793696" width="26.4375" height="118.22735719206301" fill="green" data-tooltip="2.49x baseline speed (YJIT)"/>
<line x1="572.875" y1="379.6169889285551" x2="599.3125" y2="379.6169889285551" stroke="#000"/>
<line x1="572.875" y1="379.92829668731883" x2="599.3125" y2="379.92829668731883" stroke="#000"/>
<line x1="586.09375" y1="379.6169889285551" x2="586.09375" y2="379.92829668731883" stroke="#000"/>
<line x1="572.875" y1="498.0" x2="572.875" y2="502.79999999999995" stroke="#000"/>
<text x="572.875" y="512.4" fill="#111" font-size="small" font-family="monospace" font-weight="bold" text-anchor="end" transform="rotate(-60, 572.875, 512.4)">
getivar
</text>
<rect x="625.7499999999999" y="450.5840744106949" width="26.4375" height="47.41592558930504" fill="#7070f8" data-tooltip="1.00x baseline speed (No JIT)"/>
<line x1="625.7499999999999" y1="450.55363811688164" x2="652.1874999999999" y2="450.55363811688164" stroke="#000"/>
<line x1="625.7499999999999" y1="450.6145107045082" x2="652.1874999999999" y2="450.6145107045082" stroke="#000"/>
<line x1="638.9687499999999" y1="450.55363811688164" x2="638.9687499999999" y2="450.6145107045082" stroke="#000"/>
<rect x="652.1874999999999" y="436.7043126258459" width="26.4375" height="61.29568737415402" fill="orange" data-tooltip="1.29x baseline speed (MJIT3.0)"/>
<line x1="652.1874999999999" y1="436.66048364600056" x2="678.6249999999999" y2="436.66048364600056" stroke="#000"/>
<line x1="652.1874999999999" y1="436.7481416056912" x2="678.6249999999999" y2="436.7481416056912" stroke="#000"/>
<line x1="665.4062499999999" y1="436.66048364600056" x2="665.4062499999999" y2="436.7481416056912" stroke="#000"/>
<rect x="678.6249999999999" y="252.1733965277937" width="26.4375" height="245.82660347220624" fill="green" data-tooltip="5.18x baseline speed (YJIT)"/>
<line x1="678.6249999999999" y1="251.8866601845159" x2="705.0624999999999" y2="251.8866601845159" stroke="#000"/>
<line x1="678.6249999999999" y1="252.4601328710715" x2="705.0624999999999" y2="252.4601328710715" stroke="#000"/>
<line x1="691.8437499999999" y1="251.8866601845159" x2="691.8437499999999" y2="252.4601328710715" stroke="#000"/>
<line x1="678.6249999999999" y1="498.0" x2="678.6249999999999" y2="502.79999999999995" stroke="#000"/>
<text x="678.6249999999999" y="512.4" fill="#111" font-size="small" font-family="monospace" font-weight="bold" text-anchor="end" transform="rotate(-60, 678.6249999999999, 512.4)">
keyword_args
</text>
<rect x="731.4999999999999" y="450.5840744106949" width="26.4375" height="47.41592558930504" fill="#7070f8" data-tooltip="1.00x baseline speed (No JIT)"/>
<line x1="731.4999999999999" y1="450.44411886857216" x2="757.9374999999999" y2="450.44411886857216" stroke="#000"/>
<line x1="731.4999999999999" y1="450.72402995281766" x2="757.9374999999999" y2="450.72402995281766" stroke="#000"/>
<line x1="744.7187499999999" y1="450.44411886857216" x2="744.7187499999999" y2="450.72402995281766" stroke="#000"/>
<rect x="757.9374999999999" y="443.99080393357445" width="26.4375" height="54.00919606642546" fill="orange" data-tooltip="1.14x baseline speed (MJIT3.0)"/>
<line x1="757.9374999999999" y1="443.76910471998144" x2="784.3749999999999" y2="443.76910471998144" stroke="#000"/>
<line x1="757.9374999999999" y1="444.21250314716747" x2="784.3749999999999" y2="444.21250314716747" stroke="#000"/>
<line x1="771.1562499999999" y1="443.76910471998144" x2="771.1562499999999" y2="444.21250314716747" stroke="#000"/>
<rect x="784.3749999999999" y="433.53392152290485" width="26.4375" height="64.46607847709515" fill="green" data-tooltip="1.36x baseline speed (YJIT)"/>
<line x1="784.3749999999999" y1="433.2269895910612" x2="810.8124999999999" y2="433.2269895910612" stroke="#000"/>
<line x1="784.3749999999999" y1="433.8408534547484" x2="810.8124999999999" y2="433.8408534547484" stroke="#000"/>
<line x1="797.5937499999999" y1="433.2269895910612" x2="797.5937499999999" y2="433.8408534547484" stroke="#000"/>
<line x1="784.3749999999999" y1="498.0" x2="784.3749999999999" y2="502.79999999999995" stroke="#000"/>
<text x="784.3749999999999" y="512.4" fill="#111" font-size="small" font-family="monospace" font-weight="bold" text-anchor="end" transform="rotate(-60, 784.3749999999999, 512.4)">
respond_to
</text>
<rect x="837.2499999999999" y="450.5840744106949" width="26.4375" height="47.41592558930504" fill="#7070f8" data-tooltip="1.00x baseline speed (No JIT)"/>
<line x1="837.2499999999999" y1="449.757884775791" x2="863.6874999999999" y2="449.757884775791" stroke="#000"/>
<line x1="837.2499999999999" y1="451.41026404559875" x2="863.6874999999999" y2="451.41026404559875" stroke="#000"/>
<line x1="850.4687499999999" y1="449.757884775791" x2="850.4687499999999" y2="451.41026404559875" stroke="#000"/>
<rect x="863.6874999999999" y="454.0574886007651" width="26.4375" height="43.94251139923479" fill="orange" data-tooltip="0.93x baseline speed (MJIT3.0)"/>
<line x1="863.6874999999999" y1="453.29106444871076" x2="890.125" y2="453.29106444871076" stroke="#000"/>
<line x1="863.6874999999999" y1="454.82391275281947" x2="890.125" y2="454.82391275281947" stroke="#000"/>
<line x1="876.9062499999999" y1="453.29106444871076" x2="876.9062499999999" y2="454.82391275281947" stroke="#000"/>
<rect x="890.125" y="426.2060956443932" width="26.4375" height="71.79390435560677" fill="green" data-tooltip="1.51x baseline speed (YJIT)"/>
<line x1="890.125" y1="424.893337850774" x2="916.5625" y2="424.893337850774" stroke="#000"/>
<line x1="890.125" y1="427.5188534380124" x2="916.5625" y2="427.5188534380124" stroke="#000"/>
<line x1="903.3437499999999" y1="424.893337850774" x2="903.3437499999999" y2="427.5188534380124" stroke="#000"/>
<line x1="890.125" y1="498.0" x2="890.125" y2="502.79999999999995" stroke="#000"/>
<text x="890.125" y="512.4" fill="#111" font-size="small" font-family="monospace" font-weight="bold" text-anchor="end" transform="rotate(-60, 890.125, 512.4)">
setivar
</text>
</svg>