<svg viewBox="0 0 1000 600" xmlns="http://www.w3.org/2000/svg" xmlns:xlink="http://www.w3.org/1999/xlink" width="100%" height="100%">

<rect x="50.0" y="30.0" width="940.0" height="467.99999999999994" stroke="#000" fill="#EEE"/>
<line x1="42.0" y1="497.9999999999999" x2="50.0" y2="497.9999999999999" stroke="#000"/>
<text x="26.000000000000004" y="497.9999999999999" text-anchor="end" font-weight="bold" font-size="small" fill="#111">
0.0
</text>
<line x1="42.0" y1="442.90736634597357" x2="50.0" y2="442.90736634597357" stroke="#000"/>
<text x="26.000000000000004" y="442.90736634597357" text-anchor="end" font-weight="bold" font-size="small" fill="#111">
1.0
</text>
<line x1="42.0" y1="387.81473269194714" x2="50.0" y2="387.81473269194714" stroke="#000"/>
<text x="26.000000000000004" y="387.81473269194714" text-anchor="end" font-weight="bold" font-size="small" fill="#111">
2.0
</text>
<line x1="42.0" y1="332.7220990379207" x2="50.0" y2="332.7220990379207" stroke="#000"/>
<text x="26.000000000000004" y="332.7220990379207" text-anchor="end" font-weight="bold" font-size="small" fill="#111">
3.0
</text>
<line x1="42.0" y1="277.6294653838944" x2="50.0" y2="277.6294653838944" stroke="#000"/>
<text x="26.000000000000004" y="277.6294653838944" text-anchor="end" font-weight="bold" font-size="small" fill="#111">
4.0
</text>
<line x1="42.0" y1="222.53683172986797" x2="50.0" y2="222.53683172986797" stroke="#000"/>
<text x="26.000000000000004" y="222.53683172986797" text-anchor="end" font-weight="bold" font-size="small" fill="#111">
5.0
</text>
<line x1="42.0" y1="167.4441980758416" x2="50.0" y2="167.4441980758416" stroke="#000"/>
<text x="26.000000000000004" y="167.4441980758416" text-anchor="end" font-weight="bold" font-size="small" fill="#111">
6.0
</text>
<line x1="42.0" y1="112.3515644218152" x2="50.0" y2="112.3515644218152" stroke="#000"/>
<text x="26.000000000000004" y="112.3515644218152" text-anchor="end" font-weight="bold" font-size="small" fill="#111">
7.0
</text>
<rect x="197.99999999999997" y="36.00000000000001" width="80.0" height="18.0" fill="#7070f8" stroke="#888"/>
<text x="238.0" y="52.50000000000001" font-size="small" text-anchor="middle" font-weight="bold" fill="#EEE">
No JIT
</text>
<rect x="479.99999999999994" y="36.00000000000001" width="80.0" height="18.0" fill="orange" stroke="#888"/>
<text x="519.9999999999999" y="52.50000000000001" font-size="small" text-anchor="middle" font-weight="bold" fill="#EEE">
MJIT
</text>
<rect x="761.9999999999999" y="36.00000000000001" width="80.0" height="18.0" fill="green" stroke="#888"/>
<text x="801.9999999999999" y="52.50000000000001" font-size="small" text-anchor="middle" font-weight="bold" fill="#EEE">
YJIT
</text>
<rect x="97.0" y="442.90736634597357" width="23.5" height="55.09263365402639" fill="#7070f8" data-tooltip="1.00x baseline speed (No JIT)"/>
<line x1="97.0" y1="442.9010575666257" x2="120.5" y2="442.9010575666257" stroke="#000"/>
<line x1="97.0" y1="442.91367512532145" x2="120.5" y2="442.91367512532145" stroke="#000"/>
<line x1="108.75" y1="442.9010575666257" x2="108.75" y2="442.91367512532145" stroke="#000"/>
<rect x="120.5" y="463.29525936499317" width="23.5" height="34.70474063500667" fill="orange" data-tooltip="0.63x baseline speed (MJIT)"/>
<line x1="120.5" y1="461.9389604132917" x2="144.0" y2="461.9389604132917" stroke="#000"/>
<line x1="120.5" y1="464.65155831669466" x2="144.0" y2="464.65155831669466" stroke="#000"/>
<line x1="132.25" y1="461.9389604132917" x2="132.25" y2="464.65155831669466" stroke="#000"/>
<rect x="144.00000000000003" y="152.17619294941198" width="23.5" height="345.823807050588" fill="green" data-tooltip="6.28x baseline speed (YJIT)"/>
<line x1="144.00000000000003" y1="151.86768342525232" x2="167.5" y2="151.86768342525232" stroke="#000"/>
<line x1="144.00000000000003" y1="152.48470247357164" x2="167.5" y2="152.48470247357164" stroke="#000"/>
<line x1="155.75000000000003" y1="151.86768342525232" x2="155.75000000000003" y2="152.48470247357164" stroke="#000"/>
<line x1="144.00000000000003" y1="498.0" x2="144.00000000000003" y2="502.79999999999995" stroke="#000"/>
<text x="144.00000000000003" y="512.4" fill="#111" font-size="small" font-family="monospace" font-weight="bold" text-anchor="end" transform="rotate(-60, 144.00000000000003, 512.4)">
30k_ifelse
</text>
<rect x="191.0" y="442.90736634597357" width="23.5" height="55.09263365402639" fill="#7070f8" data-tooltip="1.00x baseline speed (No JIT)"/>
<line x1="191.0" y1="442.90333137902735" x2="214.5" y2="442.90333137902735" stroke="#000"/>
<line x1="191.0" y1="442.9114013129198" x2="214.5" y2="442.9114013129198" stroke="#000"/>
<line x1="202.75" y1="442.90333137902735" x2="202.75" y2="442.9114013129198" stroke="#000"/>
<rect x="214.5" y="464.2561109099591" width="23.5" height="33.74388909004084" fill="orange" data-tooltip="0.61x baseline speed (MJIT)"/>
<line x1="214.5" y1="458.9934802104431" x2="238.0" y2="458.9934802104431" stroke="#000"/>
<line x1="214.5" y1="469.51874160947506" x2="238.0" y2="469.51874160947506" stroke="#000"/>
<line x1="226.25" y1="458.9934802104431" x2="226.25" y2="469.51874160947506" stroke="#000"/>
<rect x="238.0" y="107.79930527922558" width="23.5" height="390.2006947207744" fill="green" data-tooltip="7.08x baseline speed (YJIT)"/>
<line x1="238.0" y1="107.71332866846514" x2="261.5" y2="107.71332866846514" stroke="#000"/>
<line x1="238.0" y1="107.88528188998602" x2="261.5" y2="107.88528188998602" stroke="#000"/>
<line x1="249.75" y1="107.71332866846514" x2="249.75" y2="107.88528188998602" stroke="#000"/>
<line x1="238.0" y1="498.0" x2="238.0" y2="502.79999999999995" stroke="#000"/>
<text x="238.0" y="512.4" fill="#111" font-size="small" font-family="monospace" font-weight="bold" text-anchor="end" transform="rotate(-60, 238.0, 512.4)">
30k_methods
</text>
<rect x="285.00000000000006" y="442.90736634597357" width="23.5" height="55.09263365402639" fill="#7070f8" data-tooltip="1.00x baseline speed (No JIT)"/>
<line x1="285.00000000000006" y1="442.8266008731707" x2="308.50000000000006" y2="442.8266008731707" stroke="#000"/>
<line x1="285.00000000000006" y1="442.9881318187765" x2="308.50000000000006" y2="442.9881318187765" stroke="#000"/>
<line x1="296.75" y1="442.8266008731707" x2="296.75" y2="442.9881318187765" stroke="#000"/>
<rect x="308.50000000000006" y="414.50562903837107" width="23.5" height="83.49437096162886" fill="orange" data-tooltip="1.52x baseline speed (MJIT)"/>
<line x1="308.50000000000006" y1="414.06655767837367" x2="332.00000000000006" y2="414.06655767837367" stroke="#000"/>
<line x1="308.50000000000006" y1="414.94470039836847" x2="332.00000000000006" y2="414.94470039836847" stroke="#000"/>
<line x1="320.25000000000006" y1="414.06655767837367" x2="320.25000000000006" y2="414.94470039836847" stroke="#000"/>
<rect x="332.0" y="373.6852383233646" width="23.5" height="124.31476167663534" fill="green" data-tooltip="2.26x baseline speed (YJIT)"/>
<line x1="332.0" y1="372.75778515137506" x2="355.50000000000006" y2="372.75778515137506" stroke="#000"/>
<line x1="332.0" y1="374.61269149535417" x2="355.50000000000006" y2="374.61269149535417" stroke="#000"/>
<line x1="343.75" y1="372.75778515137506" x2="343.75" y2="374.61269149535417" stroke="#000"/>
<line x1="332.0" y1="498.0" x2="332.0" y2="502.79999999999995" stroke="#000"/>
<text x="332.0" y="512.4" fill="#111" font-size="small" font-family="monospace" font-weight="bold" text-anchor="end" transform="rotate(-60, 332.0, 512.4)">
cfunc_itself
</text>
<rect x="379.0" y="442.90736634597357" width="23.5" height="55.09263365402639" fill="#7070f8" data-tooltip="1.00x baseline speed (No JIT)"/>
<line x1="379.0" y1="442.8780241976285" x2="402.5" y2="442.8780241976285" stroke="#000"/>
<line x1="379.0" y1="442.9367084943186" x2="402.5" y2="442.9367084943186" stroke="#000"/>
<line x1="390.75" y1="442.8780241976285" x2="390.75" y2="442.9367084943186" stroke="#000"/>
<rect x="402.5" y="342.3640225533661" width="23.5" height="155.63597744663377" fill="orange" data-tooltip="2.82x baseline speed (MJIT)"/>
<line x1="402.5" y1="342.0439457106211" x2="426.00000000000006" y2="342.0439457106211" stroke="#000"/>
<line x1="402.5" y1="342.6840993961112" x2="426.00000000000006" y2="342.6840993961112" stroke="#000"/>
<line x1="414.25" y1="342.0439457106211" x2="414.25" y2="342.6840993961112" stroke="#000"/>
<rect x="426.0" y="286.0499262951533" width="23.5" height="211.95007370484663" fill="green" data-tooltip="3.85x baseline speed (YJIT)"/>
<line x1="426.0" y1="285.90942446439556" x2="449.5" y2="285.90942446439556" stroke="#000"/>
<line x1="426.0" y1="286.19042812591107" x2="449.5" y2="286.19042812591107" stroke="#000"/>
<line x1="437.75" y1="285.90942446439556" x2="437.75" y2="286.19042812591107" stroke="#000"/>
<line x1="426.0" y1="498.0" x2="426.0" y2="502.79999999999995" stroke="#000"/>
<text x="426.0" y="512.4" fill="#111" font-size="small" font-family="monospace" font-weight="bold" text-anchor="end" transform="rotate(-60, 426.0, 512.4)">
fib
</text>
<rect x="473.0" y="442.90736634597357" width="23.5" height="55.09263365402639" fill="#7070f8" data-tooltip="1.00x baseline speed (No JIT)"/>
<line x1="473.0" y1="442.561038765605" x2="496.5" y2="442.561038765605" stroke="#000"/>
<line x1="473.0" y1="443.2536939263422" x2="496.5" y2="443.2536939263422" stroke="#000"/>
<line x1="484.74999999999994" y1="442.561038765605" x2="484.74999999999994" y2="443.2536939263422" stroke="#000"/>
<rect x="496.5" y="275.15024337648094" width="23.5" height="222.849756623519" fill="orange" data-tooltip="4.05x baseline speed (MJIT)"/>
<line x1="496.5" y1="123.97072828358591" x2="520.0" y2="123.97072828358591" stroke="#000"/>
<line x1="496.5" y1="426.329758469376" x2="520.0" y2="426.329758469376" stroke="#000"/>
<line x1="508.25" y1="123.97072828358591" x2="508.25" y2="426.329758469376" stroke="#000"/>
<rect x="520.0" y="363.4167628341647" width="23.5" height="134.58323716583521" fill="green" data-tooltip="2.44x baseline speed (YJIT)"/>
<line x1="520.0" y1="362.56803826917843" x2="543.5" y2="362.56803826917843" stroke="#000"/>
<line x1="520.0" y1="364.2654873991509" x2="543.5" y2="364.2654873991509" stroke="#000"/>
<line x1="531.75" y1="362.56803826917843" x2="531.75" y2="364.2654873991509" stroke="#000"/>
<line x1="520.0" y1="498.0" x2="520.0" y2="502.79999999999995" stroke="#000"/>
<text x="520.0" y="512.4" fill="#111" font-size="small" font-family="monospace" font-weight="bold" text-anchor="end" transform="rotate(-60, 520.0, 512.4)">
getivar
</text>
<rect x="567.0" y="442.90736634597357" width="23.5" height="55.09263365402639" fill="#7070f8" data-tooltip="1.00x baseline speed (No JIT)"/>
<line x1="567.0" y1="442.8540833903081" x2="590.4999999999999" y2="442.8540833903081" stroke="#000"/>
<line x1="567.0" y1="442.960649301639" x2="590.4999999999999" y2="442.960649301639" stroke="#000"/>
<line x1="578.75" y1="442.8540833903081" x2="578.75" y2="442.960649301639" stroke="#000"/>
<rect x="590.4999999999999" y="427.60213116507543" width="23.5" height="70.3978688349245" fill="orange" data-tooltip="1.28x baseline speed (MJIT)"/>
<line x1="590.4999999999999" y1="427.4680366293649" x2="613.9999999999999" y2="427.4680366293649" stroke="#000"/>
<line x1="590.4999999999999" y1="427.7362257007859" x2="613.9999999999999" y2="427.7362257007859" stroke="#000"/>
<line x1="602.25" y1="427.4680366293649" x2="602.25" y2="427.7362257007859" stroke="#000"/>
<rect x="614.0" y="200.5572793422997" width="23.5" height="297.4427206577002" fill="green" data-tooltip="5.40x baseline speed (YJIT)"/>
<line x1="614.0" y1="199.89838214133243" x2="637.5" y2="199.89838214133243" stroke="#000"/>
<line x1="614.0" y1="201.21617654326695" x2="637.5" y2="201.21617654326695" stroke="#000"/>
<line x1="625.75" y1="199.89838214133243" x2="625.75" y2="201.21617654326695" stroke="#000"/>
<line x1="614.0" y1="498.0" x2="614.0" y2="502.79999999999995" stroke="#000"/>
<text x="614.0" y="512.4" fill="#111" font-size="small" font-family="monospace" font-weight="bold" text-anchor="end" transform="rotate(-60, 614.0, 512.4)">
keyword_args
</text>
<rect x="661.0" y="442.90736634597357" width="23.5" height="55.09263365402639" fill="#7070f8" data-tooltip="1.00x baseline speed (No JIT)"/>
<line x1="661.0" y1="442.80897176171237" x2="684.5" y2="442.80897176171237" stroke="#000"/>
<line x1="661.0" y1="443.0057609302348" x2="684.5" y2="443.0057609302348" stroke="#000"/>
<line x1="672.7500000000001" y1="442.80897176171237" x2="672.7500000000001" y2="443.0057609302348" stroke="#000"/>
<rect x="684.5" y="432.6577108962018" width="23.5" height="65.34228910379811" fill="orange" data-tooltip="1.19x baseline speed (MJIT)"/>
<line x1="684.5" y1="432.1890910020061" x2="708.0" y2="432.1890910020061" stroke="#000"/>
<line x1="684.5" y1="433.1263307903975" x2="708.0" y2="433.1263307903975" stroke="#000"/>
<line x1="696.25" y1="432.1890910020061" x2="696.25" y2="433.1263307903975" stroke="#000"/>
<rect x="708.0000000000001" y="418.37549820781163" width="23.5" height="79.62450179218824" fill="green" data-tooltip="1.45x baseline speed (YJIT)"/>
<line x1="708.0000000000001" y1="418.2138581705636" x2="731.5" y2="418.2138581705636" stroke="#000"/>
<line x1="708.0000000000001" y1="418.53713824505974" x2="731.5" y2="418.53713824505974" stroke="#000"/>
<line x1="719.7500000000001" y1="418.2138581705636" x2="719.7500000000001" y2="418.53713824505974" stroke="#000"/>
<line x1="708.0000000000001" y1="498.0" x2="708.0000000000001" y2="502.79999999999995" stroke="#000"/>
<text x="708.0000000000001" y="512.4" fill="#111" font-size="small" font-family="monospace" font-weight="bold" text-anchor="end" transform="rotate(-60, 708.0000000000001, 512.4)">
respond_to
</text>
<rect x="755.0" y="442.90736634597357" width="23.5" height="55.09263365402639" fill="#7070f8" data-tooltip="1.00x baseline speed (No JIT)"/>
<line x1="755.0" y1="442.7429781963612" x2="778.5" y2="442.7429781963612" stroke="#000"/>
<line x1="755.0" y1="443.071754495586" x2="778.5" y2="443.071754495586" stroke="#000"/>
<line x1="766.75" y1="442.7429781963612" x2="766.75" y2="443.071754495586" stroke="#000"/>
<rect x="778.5" y="100.19999999999999" width="23.5" height="397.79999999999995" fill="orange" data-tooltip="7.22x baseline speed (MJIT)"/>
<line x1="778.5" y1="-304.2089832822287" x2="801.9999999999999" y2="-304.2089832822287" stroke="#000"/>
<line x1="778.5" y1="504.6089832822286" x2="801.9999999999999" y2="504.6089832822286" stroke="#000"/>
<line x1="790.25" y1="-304.2089832822287" x2="790.25" y2="504.6089832822286" stroke="#000"/>
<rect x="802.0" y="417.8075192101803" width="23.5" height="80.19248078981961" fill="green" data-tooltip="1.46x baseline speed (YJIT)"/>
<line x1="802.0" y1="417.56375814121867" x2="825.5" y2="417.56375814121867" stroke="#000"/>
<line x1="802.0" y1="418.05128027914196" x2="825.5" y2="418.05128027914196" stroke="#000"/>
<line x1="813.7500000000001" y1="417.56375814121867" x2="813.7500000000001" y2="418.05128027914196" stroke="#000"/>
<line x1="802.0" y1="498.0" x2="802.0" y2="502.79999999999995" stroke="#000"/>
<text x="802.0" y="512.4" fill="#111" font-size="small" font-family="monospace" font-weight="bold" text-anchor="end" transform="rotate(-60, 802.0, 512.4)">
setivar
</text>
<rect x="849.0" y="442.90736634597357" width="23.5" height="55.09263365402639" fill="#7070f8" data-tooltip="1.00x baseline speed (No JIT)"/>
<line x1="849.0" y1="442.56480046388043" x2="872.4999999999999" y2="442.56480046388043" stroke="#000"/>
<line x1="849.0" y1="443.24993222806677" x2="872.4999999999999" y2="443.24993222806677" stroke="#000"/>
<line x1="860.75" y1="442.56480046388043" x2="860.75" y2="443.24993222806677" stroke="#000"/>
<rect x="872.4999999999999" y="424.08636504302564" width="23.5" height="73.9136349569743" fill="orange" data-tooltip="1.34x baseline speed (MJIT)"/>
<line x1="872.4999999999999" y1="423.313536417449" x2="895.9999999999999" y2="423.313536417449" stroke="#000"/>
<line x1="872.4999999999999" y1="424.8591936686023" x2="895.9999999999999" y2="424.8591936686023" stroke="#000"/>
<line x1="884.25" y1="423.313536417449" x2="884.25" y2="424.8591936686023" stroke="#000"/>
<rect x="896.0" y="374.21286630635507" width="23.5" height="123.78713369364479" fill="green" data-tooltip="2.25x baseline speed (YJIT)"/>
<line x1="896.0" y1="372.41533969667785" x2="919.5" y2="372.41533969667785" stroke="#000"/>
<line x1="896.0" y1="376.01039291603234" x2="919.5" y2="376.01039291603234" stroke="#000"/>
<line x1="907.75" y1="372.41533969667785" x2="907.75" y2="376.01039291603234" stroke="#000"/>
<line x1="896.0" y1="498.0" x2="896.0" y2="502.79999999999995" stroke="#000"/>
<text x="896.0" y="512.4" fill="#111" font-size="small" font-family="monospace" font-weight="bold" text-anchor="end" transform="rotate(-60, 896.0, 512.4)">
str_concat
</text>
</svg>