<svg viewBox="0 0 1000 600" xmlns="http://www.w3.org/2000/svg" xmlns:xlink="http://www.w3.org/1999/xlink" width="100%" height="100%">

<rect x="50.0" y="30.0" width="940.0" height="467.99999999999994" stroke="#000" fill="#EEE"/>
<line x1="42.0" y1="497.9999999999999" x2="50.0" y2="497.9999999999999" stroke="#000"/>
<text x="26.000000000000004" y="497.9999999999999" text-anchor="end" font-weight="bold" font-size="small" fill="#111">
0.0
</text>
<line x1="42.0" y1="450.68662437389054" x2="50.0" y2="450.68662437389054" stroke="#000"/>
<text x="26.000000000000004" y="450.68662437389054" text-anchor="end" font-weight="bold" font-size="small" fill="#111">
0.2
</text>
<line x1="42.0" y1="403.3732487477813" x2="50.0" y2="403.3732487477813" stroke="#000"/>
<text x="26.000000000000004" y="403.3732487477813" text-anchor="end" font-weight="bold" font-size="small" fill="#111">
0.4
</text>
<line x1="42.0" y1="356.05987312167184" x2="50.0" y2="356.05987312167184" stroke="#000"/>
<text x="26.000000000000004" y="356.05987312167184" text-anchor="end" font-weight="bold" font-size="small" fill="#111">
0.6
</text>
<line x1="42.0" y1="308.74649749556255" x2="50.0" y2="308.74649749556255" stroke="#000"/>
<text x="26.000000000000004" y="308.74649749556255" text-anchor="end" font-weight="bold" font-size="small" fill="#111">
0.8
</text>
<line x1="42.0" y1="261.4331218694532" x2="50.0" y2="261.4331218694532" stroke="#000"/>
<text x="26.000000000000004" y="261.4331218694532" text-anchor="end" font-weight="bold" font-size="small" fill="#111">
1.0
</text>
<line x1="42.0" y1="214.11974624334385" x2="50.0" y2="214.11974624334385" stroke="#000"/>
<text x="26.000000000000004" y="214.11974624334385" text-anchor="end" font-weight="bold" font-size="small" fill="#111">
1.2
</text>
<line x1="42.0" y1="166.80637061723456" x2="50.0" y2="166.80637061723456" stroke="#000"/>
<text x="26.000000000000004" y="166.80637061723456" text-anchor="end" font-weight="bold" font-size="small" fill="#111">
1.4
</text>
<line x1="42.0" y1="119.49299499112523" x2="50.0" y2="119.49299499112523" stroke="#000"/>
<text x="26.000000000000004" y="119.49299499112523" text-anchor="end" font-weight="bold" font-size="small" fill="#111">
1.6
</text>
<rect x="268.5" y="36.00000000000001" width="80.0" height="18.0" fill="#7070f8" stroke="#888"/>
<text x="308.5" y="52.50000000000001" font-size="small" text-anchor="middle" font-weight="bold" fill="#EEE">
No JIT
</text>
<rect x="691.4999999999999" y="36.00000000000001" width="80.0" height="18.0" fill="orange" stroke="#888"/>
<text x="731.4999999999999" y="52.50000000000001" font-size="small" text-anchor="middle" font-weight="bold" fill="#EEE">
YJIT
</text>
<rect x="97.0" y="261.4331218694532" width="46.99999999999999" height="236.56687813054674" fill="#7070f8" data-tooltip="1.00x baseline speed (No JIT)"/>
<line x1="97.0" y1="260.4703650639529" x2="144.0" y2="260.4703650639529" stroke="#000"/>
<line x1="97.0" y1="262.39587867495345" x2="144.0" y2="262.39587867495345" stroke="#000"/>
<line x1="120.5" y1="260.4703650639529" x2="120.5" y2="262.39587867495345" stroke="#000"/>
<rect x="144.0" y="139.85694203766258" width="46.99999999999999" height="358.1430579623374" fill="orange" data-tooltip="1.51x baseline speed (YJIT)"/>
<line x1="144.0" y1="136.96873577898185" x2="190.99999999999997" y2="136.96873577898185" stroke="#000"/>
<line x1="144.0" y1="142.74514829634327" x2="190.99999999999997" y2="142.74514829634327" stroke="#000"/>
<line x1="167.49999999999997" y1="136.96873577898185" x2="167.49999999999997" y2="142.74514829634327" stroke="#000"/>
<line x1="167.49999999999997" y1="498.0" x2="167.49999999999997" y2="502.79999999999995" stroke="#000"/>
<text x="167.49999999999997" y="512.4" fill="#111" font-size="small" font-family="monospace" font-weight="bold" text-anchor="end" transform="rotate(-60, 167.49999999999997, 512.4)">
activerecord
</text>
<rect x="238.0" y="261.4331218694532" width="46.99999999999999" height="236.56687813054674" fill="#7070f8" data-tooltip="1.00x baseline speed (No JIT)"/>
<line x1="238.0" y1="259.46373451798735" x2="285.0" y2="259.46373451798735" stroke="#000"/>
<line x1="238.0" y1="263.40250922091906" x2="285.0" y2="263.40250922091906" stroke="#000"/>
<line x1="261.5" y1="259.46373451798735" x2="261.5" y2="263.40250922091906" stroke="#000"/>
<rect x="285.0" y="171.01755253217686" width="46.99999999999999" height="326.9824474678231" fill="orange" data-tooltip="1.38x baseline speed (YJIT)"/>
<line x1="285.0" y1="163.62114083374573" x2="331.99999999999994" y2="163.62114083374573" stroke="#000"/>
<line x1="285.0" y1="178.413964230608" x2="331.99999999999994" y2="178.413964230608" stroke="#000"/>
<line x1="308.5" y1="163.62114083374573" x2="308.5" y2="178.413964230608" stroke="#000"/>
<line x1="308.5" y1="498.0" x2="308.5" y2="502.79999999999995" stroke="#000"/>
<text x="308.5" y="512.4" fill="#111" font-size="small" font-family="monospace" font-weight="bold" text-anchor="end" transform="rotate(-60, 308.5, 512.4)">
hexapdf
</text>
<rect x="379.0" y="261.4331218694532" width="46.99999999999999" height="236.56687813054674" fill="#7070f8" data-tooltip="1.00x baseline speed (No JIT)"/>
<line x1="379.0" y1="259.11669316632316" x2="426.0" y2="259.11669316632316" stroke="#000"/>
<line x1="379.0" y1="263.74955057258325" x2="426.0" y2="263.74955057258325" stroke="#000"/>
<line x1="402.5" y1="259.11669316632316" x2="402.5" y2="263.74955057258325" stroke="#000"/>
<rect x="426.0" y="100.19999999999999" width="46.99999999999999" height="397.79999999999995" fill="orange" data-tooltip="1.68x baseline speed (YJIT)"/>
<line x1="426.0" y1="91.79270989859926" x2="473.0" y2="91.79270989859926" stroke="#000"/>
<line x1="426.0" y1="108.60729010140072" x2="473.0" y2="108.60729010140072" stroke="#000"/>
<line x1="449.5" y1="91.79270989859926" x2="449.5" y2="108.60729010140072" stroke="#000"/>
<line x1="449.5" y1="498.0" x2="449.5" y2="502.79999999999995" stroke="#000"/>
<text x="449.5" y="512.4" fill="#111" font-size="small" font-family="monospace" font-weight="bold" text-anchor="end" transform="rotate(-60, 449.5, 512.4)">
liquid-render
</text>
<rect x="519.9999999999999" y="261.4331218694532" width="46.99999999999999" height="236.56687813054674" fill="#7070f8" data-tooltip="1.00x baseline speed (No JIT)"/>
<line x1="519.9999999999999" y1="260.03589142461954" x2="567.0" y2="260.03589142461954" stroke="#000"/>
<line x1="519.9999999999999" y1="262.83035231428687" x2="567.0" y2="262.83035231428687" stroke="#000"/>
<line x1="543.4999999999999" y1="260.03589142461954" x2="543.4999999999999" y2="262.83035231428687" stroke="#000"/>
<rect x="567.0" y="232.83329318385142" width="46.99999999999999" height="265.1667068161485" fill="orange" data-tooltip="1.12x baseline speed (YJIT)"/>
<line x1="567.0" y1="231.18905901637766" x2="614.0" y2="231.18905901637766" stroke="#000"/>
<line x1="567.0" y1="234.47752735132516" x2="614.0" y2="234.47752735132516" stroke="#000"/>
<line x1="590.4999999999999" y1="231.18905901637766" x2="590.4999999999999" y2="234.47752735132516" stroke="#000"/>
<line x1="590.4999999999999" y1="498.0" x2="590.4999999999999" y2="502.79999999999995" stroke="#000"/>
<text x="590.4999999999999" y="512.4" fill="#111" font-size="small" font-family="monospace" font-weight="bold" text-anchor="end" transform="rotate(-60, 590.4999999999999, 512.4)">
mail
</text>
<rect x="660.9999999999999" y="261.4331218694532" width="46.99999999999999" height="236.56687813054674" fill="#7070f8" data-tooltip="1.00x baseline speed (No JIT)"/>
<line x1="660.9999999999999" y1="261.25932527870293" x2="708.0" y2="261.25932527870293" stroke="#000"/>
<line x1="660.9999999999999" y1="261.6069184602035" x2="708.0" y2="261.6069184602035" stroke="#000"/>
<line x1="684.4999999999999" y1="261.25932527870293" x2="684.4999999999999" y2="261.6069184602035" stroke="#000"/>
<rect x="708.0" y="195.79725603158744" width="46.99999999999999" height="302.2027439684125" fill="orange" data-tooltip="1.28x baseline speed (YJIT)"/>
<line x1="708.0" y1="195.56197652641214" x2="755.0" y2="195.56197652641214" stroke="#000"/>
<line x1="708.0" y1="196.0325355367627" x2="755.0" y2="196.0325355367627" stroke="#000"/>
<line x1="731.4999999999999" y1="195.56197652641214" x2="731.4999999999999" y2="196.0325355367627" stroke="#000"/>
<line x1="731.4999999999999" y1="498.0" x2="731.4999999999999" y2="502.79999999999995" stroke="#000"/>
<text x="731.4999999999999" y="512.4" fill="#111" font-size="small" font-family="monospace" font-weight="bold" text-anchor="end" transform="rotate(-60, 731.4999999999999, 512.4)">
psych-load
</text>
<rect x="801.9999999999999" y="261.4331218694532" width="46.99999999999999" height="236.56687813054674" fill="#7070f8" data-tooltip="1.00x baseline speed (No JIT)"/>
<line x1="801.9999999999999" y1="259.9319242528363" x2="849.0" y2="259.9319242528363" stroke="#000"/>
<line x1="801.9999999999999" y1="262.9343194860701" x2="849.0" y2="262.9343194860701" stroke="#000"/>
<line x1="825.4999999999999" y1="259.9319242528363" x2="825.4999999999999" y2="262.9343194860701" stroke="#000"/>
<rect x="849.0" y="181.30029313960307" width="46.99999999999999" height="316.6997068603968" fill="orange" data-tooltip="1.34x baseline speed (YJIT)"/>
<line x1="849.0" y1="177.15758847484054" x2="896.0" y2="177.15758847484054" stroke="#000"/>
<line x1="849.0" y1="185.4429978043656" x2="896.0" y2="185.4429978043656" stroke="#000"/>
<line x1="872.4999999999999" y1="177.15758847484054" x2="872.4999999999999" y2="185.4429978043656" stroke="#000"/>
<line x1="872.4999999999999" y1="498.0" x2="872.4999999999999" y2="502.79999999999995" stroke="#000"/>
<text x="872.4999999999999" y="512.4" fill="#111" font-size="small" font-family="monospace" font-weight="bold" text-anchor="end" transform="rotate(-60, 872.4999999999999, 512.4)">
railsbench
</text>
</svg>