<svg viewBox="0 0 1000 600" xmlns="http://www.w3.org/2000/svg" xmlns:xlink="http://www.w3.org/1999/xlink" width="100%" height="100%">

<rect x="50.0" y="30.0" width="940.0" height="467.99999999999994" stroke="#000" fill="#EEE"/>
<line x1="42.0" y1="497.9999999999999" x2="50.0" y2="497.9999999999999" stroke="#000"/>
<text x="26.000000000000004" y="497.9999999999999" text-anchor="end" font-weight="bold" font-size="small" fill="#111">
0.0
</text>
<line x1="42.0" y1="413.4798604432524" x2="50.0" y2="413.4798604432524" stroke="#000"/>
<text x="26.000000000000004" y="413.4798604432524" text-anchor="end" font-weight="bold" font-size="small" fill="#111">
2.0
</text>
<line x1="42.0" y1="328.9597208865049" x2="50.0" y2="328.9597208865049" stroke="#000"/>
<text x="26.000000000000004" y="328.9597208865049" text-anchor="end" font-weight="bold" font-size="small" fill="#111">
4.0
</text>
<line x1="42.0" y1="244.43958132975735" x2="50.0" y2="244.43958132975735" stroke="#000"/>
<text x="26.000000000000004" y="244.43958132975735" text-anchor="end" font-weight="bold" font-size="small" fill="#111">
6.0
</text>
<line x1="42.0" y1="159.9194417730098" x2="50.0" y2="159.9194417730098" stroke="#000"/>
<text x="26.000000000000004" y="159.9194417730098" text-anchor="end" font-weight="bold" font-size="small" fill="#111">
8.0
</text>
<rect x="268.5" y="36.00000000000001" width="80.0" height="18.0" fill="#7070f8" stroke="#888"/>
<text x="308.5" y="52.50000000000001" font-size="small" text-anchor="middle" font-weight="bold" fill="#EEE">
No JIT
</text>
<rect x="691.4999999999999" y="36.00000000000001" width="80.0" height="18.0" fill="orange" stroke="#888"/>
<text x="731.4999999999999" y="52.50000000000001" font-size="small" text-anchor="middle" font-weight="bold" fill="#EEE">
YJIT
</text>
<rect x="97.0" y="455.73993022162614" width="9.724137931034482" height="42.26006977837377" fill="#7070f8" data-tooltip="1.00x baseline speed (No JIT)"/>
<line x1="97.0" y1="455.58322675780613" x2="106.72413793103448" y2="455.58322675780613" stroke="#000"/>
<line x1="97.0" y1="455.89663368544615" x2="106.72413793103448" y2="455.89663368544615" stroke="#000"/>
<line x1="101.86206896551725" y1="455.58322675780613" x2="101.86206896551725" y2="455.89663368544615" stroke="#000"/>
<rect x="106.72413793103448" y="426.1101931771203" width="9.724137931034482" height="71.88980682287958" fill="orange" data-tooltip="1.70x baseline speed (YJIT)"/>
<line x1="106.72413793103448" y1="425.6535429530411" x2="116.44827586206897" y2="425.6535429530411" stroke="#000"/>
<line x1="106.72413793103448" y1="426.56684340119955" x2="116.44827586206897" y2="426.56684340119955" stroke="#000"/>
<line x1="111.58620689655173" y1="425.6535429530411" x2="111.58620689655173" y2="426.56684340119955" stroke="#000"/>
<line x1="111.58620689655173" y1="498.0" x2="111.58620689655173" y2="502.79999999999995" stroke="#000"/>
<text x="111.58620689655173" y="512.4" fill="#111" font-size="small" font-family="monospace" font-weight="bold" text-anchor="end" transform="rotate(-60, 111.58620689655173, 512.4)">
activerecord
</text>
<rect x="126.17241379310346" y="455.73993022162614" width="9.724137931034482" height="42.26006977837377" fill="#7070f8" data-tooltip="1.00x baseline speed (No JIT)"/>
<line x1="126.17241379310346" y1="455.43534727608704" x2="135.89655172413794" y2="455.43534727608704" stroke="#000"/>
<line x1="126.17241379310346" y1="456.04451316716523" x2="135.89655172413794" y2="456.04451316716523" stroke="#000"/>
<line x1="131.0344827586207" y1="455.43534727608704" x2="131.0344827586207" y2="456.04451316716523" stroke="#000"/>
<rect x="135.89655172413794" y="432.32983180375163" width="9.724137931034482" height="65.67016819624828" fill="orange" data-tooltip="1.55x baseline speed (YJIT)"/>
<line x1="135.89655172413794" y1="431.05856973333954" x2="145.62068965517244" y2="431.05856973333954" stroke="#000"/>
<line x1="135.89655172413794" y1="433.6010938741637" x2="145.62068965517244" y2="433.6010938741637" stroke="#000"/>
<line x1="140.7586206896552" y1="431.05856973333954" x2="140.7586206896552" y2="433.6010938741637" stroke="#000"/>
<line x1="140.75862068965517" y1="498.0" x2="140.75862068965517" y2="502.79999999999995" stroke="#000"/>
<text x="140.75862068965517" y="512.4" fill="#111" font-size="small" font-family="monospace" font-weight="bold" text-anchor="end" transform="rotate(-60, 140.75862068965517, 512.4)">
hexapdf
</text>
<rect x="155.34482758620692" y="455.73993022162614" width="9.724137931034482" height="42.26006977837377" fill="#7070f8" data-tooltip="1.00x baseline speed (No JIT)"/>
<line x1="155.34482758620692" y1="455.16641221005756" x2="165.0689655172414" y2="455.16641221005756" stroke="#000"/>
<line x1="155.34482758620692" y1="456.3134482331948" x2="165.0689655172414" y2="456.3134482331948" stroke="#000"/>
<line x1="160.20689655172416" y1="455.16641221005756" x2="160.20689655172416" y2="456.3134482331948" stroke="#000"/>
<rect x="165.0689655172414" y="440.84512283403467" width="9.724137931034482" height="57.154877165965296" fill="orange" data-tooltip="1.35x baseline speed (YJIT)"/>
<line x1="165.0689655172414" y1="439.3658829743567" x2="174.7931034482759" y2="439.3658829743567" stroke="#000"/>
<line x1="165.0689655172414" y1="442.3243626937126" x2="174.7931034482759" y2="442.3243626937126" stroke="#000"/>
<line x1="169.93103448275863" y1="439.3658829743567" x2="169.93103448275863" y2="442.3243626937126" stroke="#000"/>
<line x1="169.93103448275863" y1="498.0" x2="169.93103448275863" y2="502.79999999999995" stroke="#000"/>
<text x="169.93103448275863" y="512.4" fill="#111" font-size="small" font-family="monospace" font-weight="bold" text-anchor="end" transform="rotate(-60, 169.93103448275863, 512.4)">
liquid-c
</text>
<rect x="184.51724137931035" y="455.73993022162614" width="9.724137931034482" height="42.26006977837377" fill="#7070f8" data-tooltip="1.00x baseline speed (No JIT)"/>
<line x1="184.51724137931035" y1="455.17746540256314" x2="194.24137931034485" y2="455.17746540256314" stroke="#000"/>
<line x1="184.51724137931035" y1="456.30239504068913" x2="194.24137931034485" y2="456.30239504068913" stroke="#000"/>
<line x1="189.37931034482762" y1="455.17746540256314" x2="189.37931034482762" y2="456.30239504068913" stroke="#000"/>
<rect x="194.24137931034485" y="420.88257271384504" width="9.724137931034482" height="77.11742728615485" fill="orange" data-tooltip="1.82x baseline speed (YJIT)"/>
<line x1="194.24137931034485" y1="418.5643479750087" x2="203.96551724137936" y2="418.5643479750087" stroke="#000"/>
<line x1="194.24137931034485" y1="423.2007974526814" x2="203.96551724137936" y2="423.2007974526814" stroke="#000"/>
<line x1="199.1034482758621" y1="418.5643479750087" x2="199.1034482758621" y2="423.2007974526814" stroke="#000"/>
<line x1="199.10344827586206" y1="498.0" x2="199.10344827586206" y2="502.79999999999995" stroke="#000"/>
<text x="199.10344827586206" y="512.4" fill="#111" font-size="small" font-family="monospace" font-weight="bold" text-anchor="end" transform="rotate(-60, 199.10344827586206, 512.4)">
liquid-render
</text>
<rect x="213.68965517241378" y="455.73993022162614" width="9.724137931034482" height="42.26006977837377" fill="#7070f8" data-tooltip="1.00x baseline speed (No JIT)"/>
<line x1="213.68965517241378" y1="455.6915728761605" x2="223.41379310344828" y2="455.6915728761605" stroke="#000"/>
<line x1="213.68965517241378" y1="455.7882875670918" x2="223.41379310344828" y2="455.7882875670918" stroke="#000"/>
<line x1="218.55172413793102" y1="455.6915728761605" x2="218.55172413793102" y2="455.7882875670918" stroke="#000"/>
<rect x="223.41379310344828" y="444.0034822022116" width="9.724137931034482" height="53.99651779778827" fill="orange" data-tooltip="1.28x baseline speed (YJIT)"/>
<line x1="223.41379310344828" y1="443.8570888804665" x2="233.13793103448276" y2="443.8570888804665" stroke="#000"/>
<line x1="223.41379310344828" y1="444.1498755239568" x2="233.13793103448276" y2="444.1498755239568" stroke="#000"/>
<line x1="228.27586206896552" y1="443.8570888804665" x2="228.27586206896552" y2="444.1498755239568" stroke="#000"/>
<line x1="228.2758620689655" y1="498.0" x2="228.2758620689655" y2="502.79999999999995" stroke="#000"/>
<text x="228.2758620689655" y="512.4" fill="#111" font-size="small" font-family="monospace" font-weight="bold" text-anchor="end" transform="rotate(-60, 228.2758620689655, 512.4)">
mail
</text>
<rect x="242.86206896551724" y="455.73993022162614" width="9.724137931034482" height="42.26006977837377" fill="#7070f8" data-tooltip="1.00x baseline speed (No JIT)"/>
<line x1="242.86206896551724" y1="455.62589519825707" x2="252.58620689655172" y2="455.62589519825707" stroke="#000"/>
<line x1="242.86206896551724" y1="455.85396524499527" x2="252.58620689655172" y2="455.85396524499527" stroke="#000"/>
<line x1="247.72413793103448" y1="455.62589519825707" x2="247.72413793103448" y2="455.85396524499527" stroke="#000"/>
<rect x="252.58620689655172" y="439.58336804953734" width="9.724137931034482" height="58.41663195046256" fill="orange" data-tooltip="1.38x baseline speed (YJIT)"/>
<line x1="252.58620689655172" y1="439.4236757072169" x2="262.3103448275862" y2="439.4236757072169" stroke="#000"/>
<line x1="252.58620689655172" y1="439.7430603918578" x2="262.3103448275862" y2="439.7430603918578" stroke="#000"/>
<line x1="257.4482758620689" y1="439.4236757072169" x2="257.4482758620689" y2="439.7430603918578" stroke="#000"/>
<line x1="257.44827586206895" y1="498.0" x2="257.44827586206895" y2="502.79999999999995" stroke="#000"/>
<text x="257.44827586206895" y="512.4" fill="#111" font-size="small" font-family="monospace" font-weight="bold" text-anchor="end" transform="rotate(-60, 257.44827586206895, 512.4)">
psych-load
</text>
<rect x="272.0344827586207" y="455.73993022162614" width="9.724137931034482" height="42.26006977837377" fill="#7070f8" data-tooltip="1.00x baseline speed (No JIT)"/>
<line x1="272.0344827586207" y1="455.4369952388787" x2="281.7586206896552" y2="455.4369952388787" stroke="#000"/>
<line x1="272.0344827586207" y1="456.04286520437364" x2="281.7586206896552" y2="456.04286520437364" stroke="#000"/>
<line x1="276.8965517241379" y1="455.4369952388787" x2="276.8965517241379" y2="456.04286520437364" stroke="#000"/>
<rect x="281.7586206896552" y="434.4324248691207" width="9.724137931034482" height="63.567575130879234" fill="orange" data-tooltip="1.50x baseline speed (YJIT)"/>
<line x1="281.7586206896552" y1="433.5767204982976" x2="291.48275862068965" y2="433.5767204982976" stroke="#000"/>
<line x1="281.7586206896552" y1="435.2881292399439" x2="291.48275862068965" y2="435.2881292399439" stroke="#000"/>
<line x1="286.6206896551724" y1="433.5767204982976" x2="286.6206896551724" y2="435.2881292399439" stroke="#000"/>
<line x1="286.6206896551724" y1="498.0" x2="286.6206896551724" y2="502.79999999999995" stroke="#000"/>
<text x="286.6206896551724" y="512.4" fill="#111" font-size="small" font-family="monospace" font-weight="bold" text-anchor="end" transform="rotate(-60, 286.6206896551724, 512.4)">
railsbench
</text>
<rect x="301.2068965517242" y="455.73993022162614" width="9.724137931034482" height="42.26006977837377" fill="#7070f8" data-tooltip="1.00x baseline speed (No JIT)"/>
<line x1="301.2068965517242" y1="452.06228546205244" x2="310.93103448275866" y2="452.06228546205244" stroke="#000"/>
<line x1="301.2068965517242" y1="459.41757498119983" x2="310.93103448275866" y2="459.41757498119983" stroke="#000"/>
<line x1="306.0689655172414" y1="452.06228546205244" x2="306.0689655172414" y2="459.41757498119983" stroke="#000"/>
<rect x="310.93103448275866" y="444.3912441354572" width="9.724137931034482" height="53.60875586454269" fill="orange" data-tooltip="1.27x baseline speed (YJIT)"/>
<line x1="310.93103448275866" y1="432.04806114738943" x2="320.65517241379314" y2="432.04806114738943" stroke="#000"/>
<line x1="310.93103448275866" y1="456.73442712352494" x2="320.65517241379314" y2="456.73442712352494" stroke="#000"/>
<line x1="315.7931034482759" y1="432.04806114738943" x2="315.7931034482759" y2="456.73442712352494" stroke="#000"/>
<line x1="315.7931034482759" y1="498.0" x2="315.7931034482759" y2="502.79999999999995" stroke="#000"/>
<text x="315.7931034482759" y="512.4" fill="#111" font-size="small" font-family="monospace" font-weight="bold" text-anchor="end" transform="rotate(-60, 315.7931034482759, 512.4)">
ruby-lsp
</text>
<rect x="330.3793103448276" y="455.73993022162614" width="9.724137931034482" height="42.26006977837377" fill="#7070f8" data-tooltip="1.00x baseline speed (No JIT)"/>
<line x1="330.3793103448276" y1="455.1582818115258" x2="340.1034482758621" y2="455.1582818115258" stroke="#000"/>
<line x1="330.3793103448276" y1="456.32157863172654" x2="340.1034482758621" y2="456.32157863172654" stroke="#000"/>
<line x1="335.2413793103448" y1="455.1582818115258" x2="335.2413793103448" y2="456.32157863172654" stroke="#000"/>
<rect x="340.1034482758621" y="450.356443431271" width="9.724137931034482" height="47.643556568728926" fill="orange" data-tooltip="1.13x baseline speed (YJIT)"/>
<line x1="340.1034482758621" y1="449.17769391071954" x2="349.82758620689657" y2="449.17769391071954" stroke="#000"/>
<line x1="340.1034482758621" y1="451.5351929518224" x2="349.82758620689657" y2="451.5351929518224" stroke="#000"/>
<line x1="344.9655172413793" y1="449.17769391071954" x2="344.9655172413793" y2="451.5351929518224" stroke="#000"/>
<line x1="344.9655172413793" y1="498.0" x2="344.9655172413793" y2="502.79999999999995" stroke="#000"/>
<text x="344.9655172413793" y="512.4" fill="#111" font-size="small" font-family="monospace" font-weight="bold" text-anchor="end" transform="rotate(-60, 344.9655172413793, 512.4)">
sequel
</text>
<rect x="359.551724137931" y="455.73993022162614" width="9.724137931034482" height="42.26006977837377" fill="#7070f8" data-tooltip="1.00x baseline speed (No JIT)"/>
<line x1="359.551724137931" y1="455.7190888509524" x2="369.2758620689655" y2="455.7190888509524" stroke="#000"/>
<line x1="359.551724137931" y1="455.7607715922999" x2="369.2758620689655" y2="455.7607715922999" stroke="#000"/>
<line x1="364.41379310344826" y1="455.7190888509524" x2="364.41379310344826" y2="455.7607715922999" stroke="#000"/>
<rect x="369.2758620689655" y="413.69753388477625" width="9.724137931034482" height="84.30246611522371" fill="orange" data-tooltip="1.99x baseline speed (YJIT)"/>
<line x1="369.2758620689655" y1="413.63242214182037" x2="379.0" y2="413.63242214182037" stroke="#000"/>
<line x1="369.2758620689655" y1="413.76264562773207" x2="379.0" y2="413.76264562773207" stroke="#000"/>
<line x1="374.13793103448273" y1="413.63242214182037" x2="374.13793103448273" y2="413.76264562773207" stroke="#000"/>
<line x1="374.13793103448273" y1="498.0" x2="374.13793103448273" y2="502.79999999999995" stroke="#000"/>
<text x="374.13793103448273" y="512.4" fill="#111" font-size="small" font-family="monospace" font-weight="bold" text-anchor="end" transform="rotate(-60, 374.13793103448273, 512.4)">
binarytrees
</text>
<rect x="388.7241379310344" y="455.73993022162614" width="9.724137931034482" height="42.26006977837377" fill="#7070f8" data-tooltip="1.00x baseline speed (No JIT)"/>
<line x1="388.7241379310344" y1="455.7254239124789" x2="398.44827586206895" y2="455.7254239124789" stroke="#000"/>
<line x1="388.7241379310344" y1="455.7544365307734" x2="398.44827586206895" y2="455.7544365307734" stroke="#000"/>
<line x1="393.5862068965517" y1="455.7254239124789" x2="393.5862068965517" y2="455.7544365307734" stroke="#000"/>
<rect x="398.44827586206895" y="432.4702044413645" width="9.724137931034482" height="65.52979555863537" fill="orange" data-tooltip="1.55x baseline speed (YJIT)"/>
<line x1="398.44827586206895" y1="432.4264421579346" x2="408.17241379310343" y2="432.4264421579346" stroke="#000"/>
<line x1="398.44827586206895" y1="432.5139667247944" x2="408.17241379310343" y2="432.5139667247944" stroke="#000"/>
<line x1="403.31034482758616" y1="432.4264421579346" x2="403.31034482758616" y2="432.5139667247944" stroke="#000"/>
<line x1="403.31034482758616" y1="498.0" x2="403.31034482758616" y2="502.79999999999995" stroke="#000"/>
<text x="403.31034482758616" y="512.4" fill="#111" font-size="small" font-family="monospace" font-weight="bold" text-anchor="end" transform="rotate(-60, 403.31034482758616, 512.4)">
chunky_png
</text>
<rect x="417.89655172413796" y="455.73993022162614" width="9.724137931034482" height="42.26006977837377" fill="#7070f8" data-tooltip="1.00x baseline speed (No JIT)"/>
<line x1="417.89655172413796" y1="455.3981978859721" x2="427.6206896551725" y2="455.3981978859721" stroke="#000"/>
<line x1="417.89655172413796" y1="456.08166255728025" x2="427.6206896551725" y2="456.08166255728025" stroke="#000"/>
<line x1="422.7586206896552" y1="455.3981978859721" x2="422.7586206896552" y2="456.08166255728025" stroke="#000"/>
<rect x="427.6206896551725" y="448.24324421403696" width="9.724137931034482" height="49.75675578596307" fill="orange" data-tooltip="1.18x baseline speed (YJIT)"/>
<line x1="427.6206896551725" y1="447.60446521607633" x2="437.344827586207" y2="447.60446521607633" stroke="#000"/>
<line x1="427.6206896551725" y1="448.88202321199753" x2="437.344827586207" y2="448.88202321199753" stroke="#000"/>
<line x1="432.4827586206897" y1="447.60446521607633" x2="432.4827586206897" y2="448.88202321199753" stroke="#000"/>
<line x1="432.4827586206897" y1="498.0" x2="432.4827586206897" y2="502.79999999999995" stroke="#000"/>
<text x="432.4827586206897" y="512.4" fill="#111" font-size="small" font-family="monospace" font-weight="bold" text-anchor="end" transform="rotate(-60, 432.4827586206897, 512.4)">
erubi
</text>
<rect x="447.0689655172414" y="455.73993022162614" width="9.724137931034482" height="42.26006977837377" fill="#7070f8" data-tooltip="1.00x baseline speed (No JIT)"/>
<line x1="447.0689655172414" y1="454.799959111808" x2="456.7931034482759" y2="454.799959111808" stroke="#000"/>
<line x1="447.0689655172414" y1="456.67990133144434" x2="456.7931034482759" y2="456.67990133144434" stroke="#000"/>
<line x1="451.9310344827586" y1="454.799959111808" x2="451.9310344827586" y2="456.67990133144434" stroke="#000"/>
<rect x="456.7931034482759" y="429.1883140857652" width="9.724137931034482" height="68.81168591423477" fill="orange" data-tooltip="1.63x baseline speed (YJIT)"/>
<line x1="456.7931034482759" y1="425.8533484049409" x2="466.5172413793104" y2="425.8533484049409" stroke="#000"/>
<line x1="456.7931034482759" y1="432.5232797665895" x2="466.5172413793104" y2="432.5232797665895" stroke="#000"/>
<line x1="461.65517241379314" y1="425.8533484049409" x2="461.65517241379314" y2="432.5232797665895" stroke="#000"/>
<line x1="461.65517241379314" y1="498.0" x2="461.65517241379314" y2="502.79999999999995" stroke="#000"/>
<text x="461.65517241379314" y="512.4" fill="#111" font-size="small" font-family="monospace" font-weight="bold" text-anchor="end" transform="rotate(-60, 461.65517241379314, 512.4)">
erubi_rails
</text>
<rect x="476.2413793103448" y="455.73993022162614" width="9.724137931034482" height="42.26006977837377" fill="#7070f8" data-tooltip="1.00x baseline speed (No JIT)"/>
<line x1="476.2413793103448" y1="455.5424419170576" x2="485.9655172413793" y2="455.5424419170576" stroke="#000"/>
<line x1="476.2413793103448" y1="455.9374185261947" x2="485.9655172413793" y2="455.9374185261947" stroke="#000"/>
<line x1="481.10344827586204" y1="455.5424419170576" x2="481.10344827586204" y2="455.9374185261947" stroke="#000"/>
<rect x="485.9655172413793" y="455.5231245611932" width="9.724137931034482" height="42.47687543880681" fill="orange" data-tooltip="1.01x baseline speed (YJIT)"/>
<line x1="485.9655172413793" y1="455.2405709045494" x2="495.68965517241384" y2="455.2405709045494" stroke="#000"/>
<line x1="485.9655172413793" y1="455.80567821783694" x2="495.68965517241384" y2="455.80567821783694" stroke="#000"/>
<line x1="490.8275862068965" y1="455.2405709045494" x2="490.8275862068965" y2="455.80567821783694" stroke="#000"/>
<line x1="490.8275862068965" y1="498.0" x2="490.8275862068965" y2="502.79999999999995" stroke="#000"/>
<text x="490.8275862068965" y="512.4" fill="#111" font-size="small" font-family="monospace" font-weight="bold" text-anchor="end" transform="rotate(-60, 490.8275862068965, 512.4)">
etanni
</text>
<rect x="505.41379310344826" y="455.73993022162614" width="9.724137931034482" height="42.26006977837377" fill="#7070f8" data-tooltip="1.00x baseline speed (No JIT)"/>
<line x1="505.41379310344826" y1="455.6414806692705" x2="515.1379310344827" y2="455.6414806692705" stroke="#000"/>
<line x1="505.41379310344826" y1="455.8383797739818" x2="515.1379310344827" y2="455.8383797739818" stroke="#000"/>
<line x1="510.27586206896547" y1="455.6414806692705" x2="510.27586206896547" y2="455.8383797739818" stroke="#000"/>
<rect x="515.1379310344827" y="392.7543092035954" width="9.724137931034482" height="105.24569079640456" fill="orange" data-tooltip="2.49x baseline speed (YJIT)"/>
<line x1="515.1379310344827" y1="392.49891900033475" x2="524.8620689655171" y2="392.49891900033475" stroke="#000"/>
<line x1="515.1379310344827" y1="393.00969940685604" x2="524.8620689655171" y2="393.00969940685604" stroke="#000"/>
<line x1="519.9999999999999" y1="392.49891900033475" x2="519.9999999999999" y2="393.00969940685604" stroke="#000"/>
<line x1="520.0" y1="498.0" x2="520.0" y2="502.79999999999995" stroke="#000"/>
<text x="520.0" y="512.4" fill="#111" font-size="small" font-family="monospace" font-weight="bold" text-anchor="end" transform="rotate(-60, 520.0, 512.4)">
fannkuchredux
</text>
<rect x="534.5862068965517" y="455.73993022162614" width="9.724137931034482" height="42.26006977837377" fill="#7070f8" data-tooltip="1.00x baseline speed (No JIT)"/>
<line x1="534.5862068965517" y1="455.65083681466416" x2="544.3103448275863" y2="455.65083681466416" stroke="#000"/>
<line x1="534.5862068965517" y1="455.8290236285882" x2="544.3103448275863" y2="455.8290236285882" stroke="#000"/>
<line x1="539.448275862069" y1="455.65083681466416" x2="539.448275862069" y2="455.8290236285882" stroke="#000"/>
<rect x="544.3103448275863" y="438.57019605420834" width="9.724137931034482" height="59.429803945791605" fill="orange" data-tooltip="1.41x baseline speed (YJIT)"/>
<line x1="544.3103448275863" y1="438.42677060413547" x2="554.0344827586207" y2="438.42677060413547" stroke="#000"/>
<line x1="544.3103448275863" y1="438.71362150428115" x2="554.0344827586207" y2="438.71362150428115" stroke="#000"/>
<line x1="549.1724137931035" y1="438.42677060413547" x2="549.1724137931035" y2="438.71362150428115" stroke="#000"/>
<line x1="549.1724137931036" y1="498.0" x2="549.1724137931036" y2="502.79999999999995" stroke="#000"/>
<text x="549.1724137931036" y="512.4" fill="#111" font-size="small" font-family="monospace" font-weight="bold" text-anchor="end" transform="rotate(-60, 549.1724137931036, 512.4)">
lee
</text>
<rect x="563.7586206896552" y="455.73993022162614" width="9.724137931034482" height="42.26006977837377" fill="#7070f8" data-tooltip="1.00x baseline speed (No JIT)"/>
<line x1="563.7586206896552" y1="455.710845888127" x2="573.4827586206897" y2="455.710845888127" stroke="#000"/>
<line x1="563.7586206896552" y1="455.76901455512535" x2="573.4827586206897" y2="455.76901455512535" stroke="#000"/>
<line x1="568.6206896551724" y1="455.710845888127" x2="568.6206896551724" y2="455.76901455512535" stroke="#000"/>
<rect x="573.4827586206897" y="422.4490855217225" width="9.724137931034482" height="75.55091447827746" fill="orange" data-tooltip="1.79x baseline speed (YJIT)"/>
<line x1="573.4827586206897" y1="422.3778954133111" x2="583.2068965517241" y2="422.3778954133111" stroke="#000"/>
<line x1="573.4827586206897" y1="422.520275630134" x2="583.2068965517241" y2="422.520275630134" stroke="#000"/>
<line x1="578.3448275862069" y1="422.3778954133111" x2="578.3448275862069" y2="422.520275630134" stroke="#000"/>
<line x1="578.344827586207" y1="498.0" x2="578.344827586207" y2="502.79999999999995" stroke="#000"/>
<text x="578.344827586207" y="512.4" fill="#111" font-size="small" font-family="monospace" font-weight="bold" text-anchor="end" transform="rotate(-60, 578.344827586207, 512.4)">
nbody
</text>
<rect x="592.9310344827586" y="455.73993022162614" width="9.724137931034482" height="42.26006977837377" fill="#7070f8" data-tooltip="1.00x baseline speed (No JIT)"/>
<line x1="592.9310344827586" y1="455.5040724028826" x2="602.655172413793" y2="455.5040724028826" stroke="#000"/>
<line x1="592.9310344827586" y1="455.97578804036965" x2="602.655172413793" y2="455.97578804036965" stroke="#000"/>
<line x1="597.7931034482758" y1="455.5040724028826" x2="597.7931034482758" y2="455.97578804036965" stroke="#000"/>
<rect x="602.655172413793" y="437.31983265238324" width="9.724137931034482" height="60.68016734761676" fill="orange" data-tooltip="1.44x baseline speed (YJIT)"/>
<line x1="602.655172413793" y1="436.9413432106282" x2="612.3793103448276" y2="436.9413432106282" stroke="#000"/>
<line x1="602.655172413793" y1="437.6983220941383" x2="612.3793103448276" y2="437.6983220941383" stroke="#000"/>
<line x1="607.5172413793102" y1="436.9413432106282" x2="607.5172413793102" y2="437.6983220941383" stroke="#000"/>
<line x1="607.5172413793103" y1="498.0" x2="607.5172413793103" y2="502.79999999999995" stroke="#000"/>
<text x="607.5172413793103" y="512.4" fill="#111" font-size="small" font-family="monospace" font-weight="bold" text-anchor="end" transform="rotate(-60, 607.5172413793103, 512.4)">
optcarrot
</text>
<rect x="622.1034482758621" y="455.73993022162614" width="9.724137931034482" height="42.26006977837377" fill="#7070f8" data-tooltip="1.00x baseline speed (No JIT)"/>
<line x1="622.1034482758621" y1="455.5550780605011" x2="631.8275862068965" y2="455.5550780605011" stroke="#000"/>
<line x1="622.1034482758621" y1="455.92478238275123" x2="631.8275862068965" y2="455.92478238275123" stroke="#000"/>
<line x1="626.9655172413793" y1="455.5550780605011" x2="626.9655172413793" y2="455.92478238275123" stroke="#000"/>
<rect x="631.8275862068965" y="417.1685082725003" width="9.724137931034482" height="80.83149172749958" fill="orange" data-tooltip="1.91x baseline speed (YJIT)"/>
<line x1="631.8275862068965" y1="416.66157043081876" x2="641.5517241379309" y2="416.66157043081876" stroke="#000"/>
<line x1="631.8275862068965" y1="417.67544611418185" x2="641.5517241379309" y2="417.67544611418185" stroke="#000"/>
<line x1="636.6896551724137" y1="416.66157043081876" x2="636.6896551724137" y2="417.67544611418185" stroke="#000"/>
<line x1="636.6896551724138" y1="498.0" x2="636.6896551724138" y2="502.79999999999995" stroke="#000"/>
<text x="636.6896551724138" y="512.4" fill="#111" font-size="small" font-family="monospace" font-weight="bold" text-anchor="end" transform="rotate(-60, 636.6896551724138, 512.4)">
rubykon
</text>
<rect x="651.2758620689655" y="455.73993022162614" width="9.724137931034482" height="42.26006977837377" fill="#7070f8" data-tooltip="1.00x baseline speed (No JIT)"/>
<line x1="651.2758620689655" y1="455.73499710126333" x2="660.9999999999999" y2="455.73499710126333" stroke="#000"/>
<line x1="651.2758620689655" y1="455.74486334198895" x2="660.9999999999999" y2="455.74486334198895" stroke="#000"/>
<line x1="656.1379310344827" y1="455.73499710126333" x2="656.1379310344827" y2="455.74486334198895" stroke="#000"/>
<rect x="660.9999999999999" y="263.7355220364687" width="9.724137931034482" height="234.26447796353125" fill="orange" data-tooltip="5.54x baseline speed (YJIT)"/>
<line x1="660.9999999999999" y1="263.56215754231937" x2="670.7241379310343" y2="263.56215754231937" stroke="#000"/>
<line x1="660.9999999999999" y1="263.908886530618" x2="670.7241379310343" y2="263.908886530618" stroke="#000"/>
<line x1="665.8620689655171" y1="263.56215754231937" x2="665.8620689655171" y2="263.908886530618" stroke="#000"/>
<line x1="665.8620689655172" y1="498.0" x2="665.8620689655172" y2="502.79999999999995" stroke="#000"/>
<text x="665.8620689655172" y="512.4" fill="#111" font-size="small" font-family="monospace" font-weight="bold" text-anchor="end" transform="rotate(-60, 665.8620689655172, 512.4)">
30k_ifelse
</text>
<rect x="680.448275862069" y="455.73993022162614" width="9.724137931034482" height="42.26006977837377" fill="#7070f8" data-tooltip="1.00x baseline speed (No JIT)"/>
<line x1="680.448275862069" y1="455.73416027026605" x2="690.1724137931034" y2="455.73416027026605" stroke="#000"/>
<line x1="680.448275862069" y1="455.74570017298623" x2="690.1724137931034" y2="455.74570017298623" stroke="#000"/>
<line x1="685.3103448275862" y1="455.73416027026605" x2="685.3103448275862" y2="455.74570017298623" stroke="#000"/>
<rect x="690.1724137931034" y="215.12877433348487" width="9.724137931034482" height="282.87122566651504" fill="orange" data-tooltip="6.69x baseline speed (YJIT)"/>
<line x1="690.1724137931034" y1="214.99896386356306" x2="699.8965517241378" y2="214.99896386356306" stroke="#000"/>
<line x1="690.1724137931034" y1="215.2585848034067" x2="699.8965517241378" y2="215.2585848034067" stroke="#000"/>
<line x1="695.0344827586206" y1="214.99896386356306" x2="695.0344827586206" y2="215.2585848034067" stroke="#000"/>
<line x1="695.0344827586207" y1="498.0" x2="695.0344827586207" y2="502.79999999999995" stroke="#000"/>
<text x="695.0344827586207" y="512.4" fill="#111" font-size="small" font-family="monospace" font-weight="bold" text-anchor="end" transform="rotate(-60, 695.0344827586207, 512.4)">
30k_methods
</text>
<rect x="709.6206896551724" y="455.73993022162614" width="9.724137931034482" height="42.26006977837377" fill="#7070f8" data-tooltip="1.00x baseline speed (No JIT)"/>
<line x1="709.6206896551724" y1="455.5175344576168" x2="719.3448275862069" y2="455.5175344576168" stroke="#000"/>
<line x1="709.6206896551724" y1="455.9623259856355" x2="719.3448275862069" y2="455.9623259856355" stroke="#000"/>
<line x1="714.4827586206897" y1="455.5175344576168" x2="714.4827586206897" y2="455.9623259856355" stroke="#000"/>
<rect x="719.3448275862069" y="395.4582710451692" width="9.724137931034482" height="102.54172895483069" fill="orange" data-tooltip="2.43x baseline speed (YJIT)"/>
<line x1="719.3448275862069" y1="394.90307432022485" x2="729.0689655172413" y2="394.90307432022485" stroke="#000"/>
<line x1="719.3448275862069" y1="396.0134677701136" x2="729.0689655172413" y2="396.0134677701136" stroke="#000"/>
<line x1="724.2068965517241" y1="394.90307432022485" x2="724.2068965517241" y2="396.0134677701136" stroke="#000"/>
<line x1="724.2068965517242" y1="498.0" x2="724.2068965517242" y2="502.79999999999995" stroke="#000"/>
<text x="724.2068965517242" y="512.4" fill="#111" font-size="small" font-family="monospace" font-weight="bold" text-anchor="end" transform="rotate(-60, 724.2068965517242, 512.4)">
cfunc_itself
</text>
<rect x="738.7931034482758" y="455.73993022162614" width="9.724137931034482" height="42.26006977837377" fill="#7070f8" data-tooltip="1.00x baseline speed (No JIT)"/>
<line x1="738.7931034482758" y1="455.72016335739306" x2="748.5172413793103" y2="455.72016335739306" stroke="#000"/>
<line x1="738.7931034482758" y1="455.7596970858593" x2="748.5172413793103" y2="455.7596970858593" stroke="#000"/>
<line x1="743.6551724137931" y1="455.72016335739306" x2="743.6551724137931" y2="455.7596970858593" stroke="#000"/>
<rect x="748.5172413793103" y="334.5446239259728" width="9.724137931034482" height="163.45537607402707" fill="orange" data-tooltip="3.87x baseline speed (YJIT)"/>
<line x1="748.5172413793103" y1="334.30207591810057" x2="758.2413793103448" y2="334.30207591810057" stroke="#000"/>
<line x1="748.5172413793103" y1="334.7871719338451" x2="758.2413793103448" y2="334.7871719338451" stroke="#000"/>
<line x1="753.3793103448276" y1="334.30207591810057" x2="753.3793103448276" y2="334.7871719338451" stroke="#000"/>
<line x1="753.3793103448277" y1="498.0" x2="753.3793103448277" y2="502.79999999999995" stroke="#000"/>
<text x="753.3793103448277" y="512.4" fill="#111" font-size="small" font-family="monospace" font-weight="bold" text-anchor="end" transform="rotate(-60, 753.3793103448277, 512.4)">
fib
</text>
<rect x="767.9655172413793" y="455.73993022162614" width="9.724137931034482" height="42.26006977837377" fill="#7070f8" data-tooltip="1.00x baseline speed (No JIT)"/>
<line x1="767.9655172413793" y1="455.6163674160969" x2="777.6896551724137" y2="455.6163674160969" stroke="#000"/>
<line x1="767.9655172413793" y1="455.8634930271554" x2="777.6896551724137" y2="455.8634930271554" stroke="#000"/>
<line x1="772.8275862068965" y1="455.6163674160969" x2="772.8275862068965" y2="455.8634930271554" stroke="#000"/>
<rect x="777.6896551724137" y="387.2950877483123" width="9.724137931034482" height="110.70491225168763" fill="orange" data-tooltip="2.62x baseline speed (YJIT)"/>
<line x1="777.6896551724137" y1="386.9145894448879" x2="787.4137931034481" y2="386.9145894448879" stroke="#000"/>
<line x1="777.6896551724137" y1="387.67558605173673" x2="787.4137931034481" y2="387.67558605173673" stroke="#000"/>
<line x1="782.5517241379309" y1="386.9145894448879" x2="782.5517241379309" y2="387.67558605173673" stroke="#000"/>
<line x1="782.551724137931" y1="498.0" x2="782.551724137931" y2="502.79999999999995" stroke="#000"/>
<text x="782.551724137931" y="512.4" fill="#111" font-size="small" font-family="monospace" font-weight="bold" text-anchor="end" transform="rotate(-60, 782.551724137931, 512.4)">
getivar
</text>
<rect x="797.1379310344827" y="455.73993022162614" width="9.724137931034482" height="42.26006977837377" fill="#7070f8" data-tooltip="1.00x baseline speed (No JIT)"/>
<line x1="797.1379310344827" y1="455.702544275363" x2="806.8620689655172" y2="455.702544275363" stroke="#000"/>
<line x1="797.1379310344827" y1="455.77731616788935" x2="806.8620689655172" y2="455.77731616788935" stroke="#000"/>
<line x1="801.9999999999999" y1="455.702544275363" x2="801.9999999999999" y2="455.77731616788935" stroke="#000"/>
<rect x="806.8620689655172" y="271.6423056870322" width="9.724137931034482" height="226.3576943129677" fill="orange" data-tooltip="5.36x baseline speed (YJIT)"/>
<line x1="806.8620689655172" y1="271.32683352538004" x2="816.5862068965516" y2="271.32683352538004" stroke="#000"/>
<line x1="806.8620689655172" y1="271.9577778486844" x2="816.5862068965516" y2="271.9577778486844" stroke="#000"/>
<line x1="811.7241379310344" y1="271.32683352538004" x2="811.7241379310344" y2="271.9577778486844" stroke="#000"/>
<line x1="811.7241379310345" y1="498.0" x2="811.7241379310345" y2="502.79999999999995" stroke="#000"/>
<text x="811.7241379310345" y="512.4" fill="#111" font-size="small" font-family="monospace" font-weight="bold" text-anchor="end" transform="rotate(-60, 811.7241379310345, 512.4)">
keyword_args
</text>
<rect x="826.3103448275862" y="455.73993022162614" width="9.724137931034482" height="42.26006977837377" fill="#7070f8" data-tooltip="1.00x baseline speed (No JIT)"/>
<line x1="826.3103448275862" y1="455.6438585534044" x2="836.0344827586206" y2="455.6438585534044" stroke="#000"/>
<line x1="826.3103448275862" y1="455.83600188984786" x2="836.0344827586206" y2="455.83600188984786" stroke="#000"/>
<line x1="831.1724137931034" y1="455.6438585534044" x2="831.1724137931034" y2="455.83600188984786" stroke="#000"/>
<rect x="836.0344827586206" y="100.19999999999999" width="9.724137931034482" height="397.79999999999995" fill="orange" data-tooltip="9.41x baseline speed (YJIT)"/>
<line x1="836.0344827586206" y1="98.29720484719728" x2="845.758620689655" y2="98.29720484719728" stroke="#000"/>
<line x1="836.0344827586206" y1="102.1027951528027" x2="845.758620689655" y2="102.1027951528027" stroke="#000"/>
<line x1="840.8965517241378" y1="98.29720484719728" x2="840.8965517241378" y2="102.1027951528027" stroke="#000"/>
<line x1="840.8965517241379" y1="498.0" x2="840.8965517241379" y2="502.79999999999995" stroke="#000"/>
<text x="840.8965517241379" y="512.4" fill="#111" font-size="small" font-family="monospace" font-weight="bold" text-anchor="end" transform="rotate(-60, 840.8965517241379, 512.4)">
respond_to
</text>
<rect x="855.4827586206897" y="455.73993022162614" width="9.724137931034482" height="42.26006977837377" fill="#7070f8" data-tooltip="1.00x baseline speed (No JIT)"/>
<line x1="855.4827586206897" y1="455.5326376556304" x2="865.2068965517241" y2="455.5326376556304" stroke="#000"/>
<line x1="855.4827586206897" y1="455.94722278762185" x2="865.2068965517241" y2="455.94722278762185" stroke="#000"/>
<line x1="860.3448275862069" y1="455.5326376556304" x2="860.3448275862069" y2="455.94722278762185" stroke="#000"/>
<rect x="865.2068965517241" y="293.625177824089" width="9.724137931034482" height="204.37482217591096" fill="orange" data-tooltip="4.84x baseline speed (YJIT)"/>
<line x1="865.2068965517241" y1="292.61120785293576" x2="874.9310344827586" y2="292.61120785293576" stroke="#000"/>
<line x1="865.2068965517241" y1="294.63914779524225" x2="874.9310344827586" y2="294.63914779524225" stroke="#000"/>
<line x1="870.0689655172413" y1="292.61120785293576" x2="870.0689655172413" y2="294.63914779524225" stroke="#000"/>
<line x1="870.0689655172414" y1="498.0" x2="870.0689655172414" y2="502.79999999999995" stroke="#000"/>
<text x="870.0689655172414" y="512.4" fill="#111" font-size="small" font-family="monospace" font-weight="bold" text-anchor="end" transform="rotate(-60, 870.0689655172414, 512.4)">
setivar
</text>
<rect x="884.6551724137931" y="455.73993022162614" width="9.724137931034482" height="42.26006977837377" fill="#7070f8" data-tooltip="1.00x baseline speed (No JIT)"/>
<line x1="884.6551724137931" y1="455.0005022662893" x2="894.3793103448276" y2="455.0005022662893" stroke="#000"/>
<line x1="884.6551724137931" y1="456.47935817696305" x2="894.3793103448276" y2="456.47935817696305" stroke="#000"/>
<line x1="889.5172413793103" y1="455.0005022662893" x2="889.5172413793103" y2="456.47935817696305" stroke="#000"/>
<rect x="894.3793103448276" y="404.69004922001193" width="9.724137931034482" height="93.30995077998803" fill="orange" data-tooltip="2.21x baseline speed (YJIT)"/>
<line x1="894.3793103448276" y1="402.8462114921266" x2="904.103448275862" y2="402.8462114921266" stroke="#000"/>
<line x1="894.3793103448276" y1="406.53388694789726" x2="904.103448275862" y2="406.53388694789726" stroke="#000"/>
<line x1="899.2413793103448" y1="402.8462114921266" x2="899.2413793103448" y2="406.53388694789726" stroke="#000"/>
<line x1="899.2413793103449" y1="498.0" x2="899.2413793103449" y2="502.79999999999995" stroke="#000"/>
<text x="899.2413793103449" y="512.4" fill="#111" font-size="small" font-family="monospace" font-weight="bold" text-anchor="end" transform="rotate(-60, 899.2413793103449, 512.4)">
setivar_object
</text>
<rect x="913.8275862068965" y="455.73993022162614" width="9.724137931034482" height="42.26006977837377" fill="#7070f8" data-tooltip="1.00x baseline speed (No JIT)"/>
<line x1="913.8275862068965" y1="455.3643982996822" x2="923.5517241379309" y2="455.3643982996822" stroke="#000"/>
<line x1="913.8275862068965" y1="456.1154621435701" x2="923.5517241379309" y2="456.1154621435701" stroke="#000"/>
<line x1="918.6896551724137" y1="455.3643982996822" x2="918.6896551724137" y2="456.1154621435701" stroke="#000"/>
<rect x="923.5517241379309" y="410.03380545870556" width="9.724137931034482" height="87.96619454129437" fill="orange" data-tooltip="2.08x baseline speed (YJIT)"/>
<line x1="923.5517241379309" y1="408.5351478719766" x2="933.2758620689654" y2="408.5351478719766" stroke="#000"/>
<line x1="923.5517241379309" y1="411.5324630454345" x2="933.2758620689654" y2="411.5324630454345" stroke="#000"/>
<line x1="928.4137931034481" y1="408.5351478719766" x2="928.4137931034481" y2="411.5324630454345" stroke="#000"/>
<line x1="928.4137931034483" y1="498.0" x2="928.4137931034483" y2="502.79999999999995" stroke="#000"/>
<text x="928.4137931034483" y="512.4" fill="#111" font-size="small" font-family="monospace" font-weight="bold" text-anchor="end" transform="rotate(-60, 928.4137931034483, 512.4)">
str_concat
</text>
</svg>