<svg viewBox="0 0 1000 600" xmlns="http://www.w3.org/2000/svg" xmlns:xlink="http://www.w3.org/1999/xlink" width="100%" height="100%">

<rect x="50.0" y="30.0" width="940.0" height="467.99999999999994" stroke="#000" fill="#EEE"/>
<line x1="42.0" y1="497.9999999999999" x2="50.0" y2="497.9999999999999" stroke="#000"/>
<text x="26.000000000000004" y="497.9999999999999" text-anchor="end" font-weight="bold" font-size="small" fill="#111">
0.0
</text>
<line x1="42.0" y1="448.8241615619802" x2="50.0" y2="448.8241615619802" stroke="#000"/>
<text x="26.000000000000004" y="448.8241615619802" text-anchor="end" font-weight="bold" font-size="small" fill="#111">
0.2
</text>
<line x1="42.0" y1="399.6483231239604" x2="50.0" y2="399.6483231239604" stroke="#000"/>
<text x="26.000000000000004" y="399.6483231239604" text-anchor="end" font-weight="bold" font-size="small" fill="#111">
0.4
</text>
<line x1="42.0" y1="350.4724846859406" x2="50.0" y2="350.4724846859406" stroke="#000"/>
<text x="26.000000000000004" y="350.4724846859406" text-anchor="end" font-weight="bold" font-size="small" fill="#111">
0.6
</text>
<line x1="42.0" y1="301.2966462479208" x2="50.0" y2="301.2966462479208" stroke="#000"/>
<text x="26.000000000000004" y="301.2966462479208" text-anchor="end" font-weight="bold" font-size="small" fill="#111">
0.8
</text>
<line x1="42.0" y1="252.12080780990104" x2="50.0" y2="252.12080780990104" stroke="#000"/>
<text x="26.000000000000004" y="252.12080780990104" text-anchor="end" font-weight="bold" font-size="small" fill="#111">
1.0
</text>
<line x1="42.0" y1="202.94496937188126" x2="50.0" y2="202.94496937188126" stroke="#000"/>
<text x="26.000000000000004" y="202.94496937188126" text-anchor="end" font-weight="bold" font-size="small" fill="#111">
1.2
</text>
<line x1="42.0" y1="153.76913093386148" x2="50.0" y2="153.76913093386148" stroke="#000"/>
<text x="26.000000000000004" y="153.76913093386148" text-anchor="end" font-weight="bold" font-size="small" fill="#111">
1.4
</text>
<line x1="42.0" y1="104.5932924958417" x2="50.0" y2="104.5932924958417" stroke="#000"/>
<text x="26.000000000000004" y="104.5932924958417" text-anchor="end" font-weight="bold" font-size="small" fill="#111">
1.6
</text>
<rect x="268.5" y="36.00000000000001" width="80.0" height="18.0" fill="#7070f8" stroke="#888"/>
<text x="308.5" y="52.50000000000001" font-size="small" text-anchor="middle" font-weight="bold" fill="#EEE">
No JIT
</text>
<rect x="691.4999999999999" y="36.00000000000001" width="80.0" height="18.0" fill="orange" stroke="#888"/>
<text x="731.4999999999999" y="52.50000000000001" font-size="small" text-anchor="middle" font-weight="bold" fill="#EEE">
YJIT
</text>
<rect x="97.0" y="252.12080780990104" width="25.636363636363637" height="245.8791921900989" fill="#7070f8" data-tooltip="1.00x baseline speed (No JIT)"/>
<line x1="97.0" y1="251.67220897643517" x2="122.63636363636364" y2="251.67220897643517" stroke="#000"/>
<line x1="97.0" y1="252.56940664336693" x2="122.63636363636364" y2="252.56940664336693" stroke="#000"/>
<line x1="109.81818181818181" y1="251.67220897643517" x2="109.81818181818181" y2="252.56940664336693" stroke="#000"/>
<rect x="122.63636363636364" y="155.96451878623483" width="25.636363636363637" height="342.0354812137651" fill="orange" data-tooltip="1.39x baseline speed (YJIT)"/>
<line x1="122.63636363636364" y1="154.94086401610872" x2="148.27272727272728" y2="154.94086401610872" stroke="#000"/>
<line x1="122.63636363636364" y1="156.98817355636098" x2="148.27272727272728" y2="156.98817355636098" stroke="#000"/>
<line x1="135.45454545454547" y1="154.94086401610872" x2="135.45454545454547" y2="156.98817355636098" stroke="#000"/>
<line x1="135.45454545454547" y1="498.0" x2="135.45454545454547" y2="502.79999999999995" stroke="#000"/>
<text x="135.45454545454547" y="512.4" fill="#111" font-size="small" font-family="monospace" font-weight="bold" text-anchor="end" transform="rotate(-60, 135.45454545454547, 512.4)">
activerecord
</text>
<rect x="173.9090909090909" y="252.12080780990104" width="25.636363636363637" height="245.8791921900989" fill="#7070f8" data-tooltip="1.00x baseline speed (No JIT)"/>
<line x1="173.9090909090909" y1="247.74807992521232" x2="199.54545454545453" y2="247.74807992521232" stroke="#000"/>
<line x1="173.9090909090909" y1="256.49353569458975" x2="199.54545454545453" y2="256.49353569458975" stroke="#000"/>
<line x1="186.72727272727272" y1="247.74807992521232" x2="186.72727272727272" y2="256.49353569458975" stroke="#000"/>
<rect x="199.54545454545453" y="144.44391947777692" width="25.636363636363637" height="353.556080522223" fill="orange" data-tooltip="1.44x baseline speed (YJIT)"/>
<line x1="199.54545454545453" y1="134.09308561457584" x2="225.18181818181816" y2="134.09308561457584" stroke="#000"/>
<line x1="199.54545454545453" y1="154.794753340978" x2="225.18181818181816" y2="154.794753340978" stroke="#000"/>
<line x1="212.36363636363635" y1="134.09308561457584" x2="212.36363636363635" y2="154.794753340978" stroke="#000"/>
<line x1="212.36363636363637" y1="498.0" x2="212.36363636363637" y2="502.79999999999995" stroke="#000"/>
<text x="212.36363636363637" y="512.4" fill="#111" font-size="small" font-family="monospace" font-weight="bold" text-anchor="end" transform="rotate(-60, 212.36363636363637, 512.4)">
erubi_rails
</text>
<rect x="250.81818181818184" y="252.12080780990104" width="25.636363636363637" height="245.8791921900989" fill="#7070f8" data-tooltip="1.00x baseline speed (No JIT)"/>
<line x1="250.81818181818184" y1="250.70032637551415" x2="276.45454545454544" y2="250.70032637551415" stroke="#000"/>
<line x1="250.81818181818184" y1="253.54128924428795" x2="276.45454545454544" y2="253.54128924428795" stroke="#000"/>
<line x1="263.6363636363637" y1="250.70032637551415" x2="263.6363636363637" y2="253.54128924428795" stroke="#000"/>
<rect x="276.45454545454544" y="156.08715419761128" width="25.636363636363637" height="341.91284580238863" fill="orange" data-tooltip="1.39x baseline speed (YJIT)"/>
<line x1="276.45454545454544" y1="150.21363563595276" x2="302.09090909090907" y2="150.21363563595276" stroke="#000"/>
<line x1="276.45454545454544" y1="161.9606727592698" x2="302.09090909090907" y2="161.9606727592698" stroke="#000"/>
<line x1="289.2727272727273" y1="150.21363563595276" x2="289.2727272727273" y2="161.9606727592698" stroke="#000"/>
<line x1="289.2727272727273" y1="498.0" x2="289.2727272727273" y2="502.79999999999995" stroke="#000"/>
<text x="289.2727272727273" y="512.4" fill="#111" font-size="small" font-family="monospace" font-weight="bold" text-anchor="end" transform="rotate(-60, 289.2727272727273, 512.4)">
hexapdf
</text>
<rect x="327.72727272727275" y="252.12080780990104" width="25.636363636363637" height="245.8791921900989" fill="#7070f8" data-tooltip="1.00x baseline speed (No JIT)"/>
<line x1="327.72727272727275" y1="248.91198740713085" x2="353.3636363636364" y2="248.91198740713085" stroke="#000"/>
<line x1="327.72727272727275" y1="255.32962821267122" x2="353.3636363636364" y2="255.32962821267122" stroke="#000"/>
<line x1="340.5454545454546" y1="248.91198740713085" x2="340.5454545454546" y2="255.32962821267122" stroke="#000"/>
<rect x="353.3636363636364" y="192.6505720603109" width="25.636363636363637" height="305.349427939689" fill="orange" data-tooltip="1.24x baseline speed (YJIT)"/>
<line x1="353.3636363636364" y1="185.9364837496613" x2="379.0" y2="185.9364837496613" stroke="#000"/>
<line x1="353.3636363636364" y1="199.36466037096054" x2="379.0" y2="199.36466037096054" stroke="#000"/>
<line x1="366.18181818181824" y1="185.9364837496613" x2="366.18181818181824" y2="199.36466037096054" stroke="#000"/>
<line x1="366.18181818181824" y1="498.0" x2="366.18181818181824" y2="502.79999999999995" stroke="#000"/>
<text x="366.18181818181824" y="512.4" fill="#111" font-size="small" font-family="monospace" font-weight="bold" text-anchor="end" transform="rotate(-60, 366.18181818181824, 512.4)">
liquid-c
</text>
<rect x="404.6363636363637" y="252.12080780990104" width="25.636363636363637" height="245.8791921900989" fill="#7070f8" data-tooltip="1.00x baseline speed (No JIT)"/>
<line x1="404.6363636363637" y1="250.65048207871686" x2="430.2727272727273" y2="250.65048207871686" stroke="#000"/>
<line x1="404.6363636363637" y1="253.59113354108524" x2="430.2727272727273" y2="253.59113354108524" stroke="#000"/>
<line x1="417.4545454545455" y1="250.65048207871686" x2="417.4545454545455" y2="253.59113354108524" stroke="#000"/>
<rect x="430.2727272727273" y="209.3323301596934" width="25.636363636363637" height="288.66766984030653" fill="orange" data-tooltip="1.17x baseline speed (YJIT)"/>
<line x1="430.2727272727273" y1="206.9442906741313" x2="455.90909090909093" y2="206.9442906741313" stroke="#000"/>
<line x1="430.2727272727273" y1="211.72036964525554" x2="455.90909090909093" y2="211.72036964525554" stroke="#000"/>
<line x1="443.0909090909091" y1="206.9442906741313" x2="443.0909090909091" y2="211.72036964525554" stroke="#000"/>
<line x1="443.0909090909091" y1="498.0" x2="443.0909090909091" y2="502.79999999999995" stroke="#000"/>
<text x="443.0909090909091" y="512.4" fill="#111" font-size="small" font-family="monospace" font-weight="bold" text-anchor="end" transform="rotate(-60, 443.0909090909091, 512.4)">
liquid-compile
</text>
<rect x="481.5454545454546" y="252.12080780990104" width="25.636363636363637" height="245.8791921900989" fill="#7070f8" data-tooltip="1.00x baseline speed (No JIT)"/>
<line x1="481.5454545454546" y1="248.95662894043284" x2="507.1818181818183" y2="248.95662894043284" stroke="#000"/>
<line x1="481.5454545454546" y1="255.28498667936927" x2="507.1818181818183" y2="255.28498667936927" stroke="#000"/>
<line x1="494.36363636363643" y1="248.95662894043284" x2="494.36363636363643" y2="255.28498667936927" stroke="#000"/>
<rect x="507.1818181818183" y="100.19999999999999" width="25.636363636363637" height="397.79999999999995" fill="orange" data-tooltip="1.62x baseline speed (YJIT)"/>
<line x1="507.1818181818183" y1="89.25717755576608" x2="532.818181818182" y2="89.25717755576608" stroke="#000"/>
<line x1="507.1818181818183" y1="111.1428224442339" x2="532.818181818182" y2="111.1428224442339" stroke="#000"/>
<line x1="520.0000000000001" y1="89.25717755576608" x2="520.0000000000001" y2="111.1428224442339" stroke="#000"/>
<line x1="520.0" y1="498.0" x2="520.0" y2="502.79999999999995" stroke="#000"/>
<text x="520.0" y="512.4" fill="#111" font-size="small" font-family="monospace" font-weight="bold" text-anchor="end" transform="rotate(-60, 520.0, 512.4)">
liquid-render
</text>
<rect x="558.4545454545454" y="252.12080780990104" width="25.636363636363637" height="245.8791921900989" fill="#7070f8" data-tooltip="1.00x baseline speed (No JIT)"/>
<line x1="558.4545454545454" y1="251.827313225916" x2="584.0909090909091" y2="251.827313225916" stroke="#000"/>
<line x1="558.4545454545454" y1="252.4143023938861" x2="584.0909090909091" y2="252.4143023938861" stroke="#000"/>
<line x1="571.2727272727273" y1="251.827313225916" x2="571.2727272727273" y2="252.4143023938861" stroke="#000"/>
<rect x="584.0909090909091" y="190.06478456982143" width="25.636363636363637" height="307.9352154301785" fill="orange" data-tooltip="1.25x baseline speed (YJIT)"/>
<line x1="584.0909090909091" y1="188.7752294025528" x2="609.7272727272727" y2="188.7752294025528" stroke="#000"/>
<line x1="584.0909090909091" y1="191.35433973709002" x2="609.7272727272727" y2="191.35433973709002" stroke="#000"/>
<line x1="596.909090909091" y1="188.7752294025528" x2="596.909090909091" y2="191.35433973709002" stroke="#000"/>
<line x1="596.9090909090909" y1="498.0" x2="596.9090909090909" y2="502.79999999999995" stroke="#000"/>
<text x="596.9090909090909" y="512.4" fill="#111" font-size="small" font-family="monospace" font-weight="bold" text-anchor="end" transform="rotate(-60, 596.9090909090909, 512.4)">
mail
</text>
<rect x="635.3636363636364" y="252.12080780990104" width="25.636363636363637" height="245.8791921900989" fill="#7070f8" data-tooltip="1.00x baseline speed (No JIT)"/>
<line x1="635.3636363636364" y1="251.72774632092938" x2="661.0" y2="251.72774632092938" stroke="#000"/>
<line x1="635.3636363636364" y1="252.51386929887272" x2="661.0" y2="252.51386929887272" stroke="#000"/>
<line x1="648.1818181818182" y1="251.72774632092938" x2="648.1818181818182" y2="252.51386929887272" stroke="#000"/>
<rect x="661.0" y="129.76404047808" width="25.636363636363637" height="368.23595952191994" fill="orange" data-tooltip="1.50x baseline speed (YJIT)"/>
<line x1="661.0" y1="128.98757966344797" x2="686.6363636363637" y2="128.98757966344797" stroke="#000"/>
<line x1="661.0" y1="130.54050129271204" x2="686.6363636363637" y2="130.54050129271204" stroke="#000"/>
<line x1="673.8181818181819" y1="128.98757966344797" x2="673.8181818181819" y2="130.54050129271204" stroke="#000"/>
<line x1="673.8181818181818" y1="498.0" x2="673.8181818181818" y2="502.79999999999995" stroke="#000"/>
<text x="673.8181818181818" y="512.4" fill="#111" font-size="small" font-family="monospace" font-weight="bold" text-anchor="end" transform="rotate(-60, 673.8181818181818, 512.4)">
psych-load
</text>
<rect x="712.2727272727273" y="252.12080780990104" width="25.636363636363637" height="245.8791921900989" fill="#7070f8" data-tooltip="1.00x baseline speed (No JIT)"/>
<line x1="712.2727272727273" y1="250.8269539067399" x2="737.909090909091" y2="250.8269539067399" stroke="#000"/>
<line x1="712.2727272727273" y1="253.4146617130622" x2="737.909090909091" y2="253.4146617130622" stroke="#000"/>
<line x1="725.0909090909091" y1="250.8269539067399" x2="725.0909090909091" y2="253.4146617130622" stroke="#000"/>
<rect x="737.909090909091" y="155.17072318400184" width="25.636363636363637" height="342.8292768159981" fill="orange" data-tooltip="1.39x baseline speed (YJIT)"/>
<line x1="737.909090909091" y1="152.13072705958996" x2="763.5454545454546" y2="152.13072705958996" stroke="#000"/>
<line x1="737.909090909091" y1="158.21071930841373" x2="763.5454545454546" y2="158.21071930841373" stroke="#000"/>
<line x1="750.7272727272727" y1="152.13072705958996" x2="750.7272727272727" y2="158.21071930841373" stroke="#000"/>
<line x1="750.7272727272726" y1="498.0" x2="750.7272727272726" y2="502.79999999999995" stroke="#000"/>
<text x="750.7272727272726" y="512.4" fill="#111" font-size="small" font-family="monospace" font-weight="bold" text-anchor="end" transform="rotate(-60, 750.7272727272726, 512.4)">
railsbench
</text>
<rect x="789.1818181818182" y="252.12080780990104" width="25.636363636363637" height="245.8791921900989" fill="#7070f8" data-tooltip="1.00x baseline speed (No JIT)"/>
<line x1="789.1818181818182" y1="235.86290829131988" x2="814.8181818181819" y2="235.86290829131988" stroke="#000"/>
<line x1="789.1818181818182" y1="268.3787073284822" x2="814.8181818181819" y2="268.3787073284822" stroke="#000"/>
<line x1="802.0" y1="235.86290829131988" x2="802.0" y2="268.3787073284822" stroke="#000"/>
<rect x="814.8181818181819" y="191.1969320871136" width="25.636363636363637" height="306.8030679128864" fill="orange" data-tooltip="1.25x baseline speed (YJIT)"/>
<line x1="814.8181818181819" y1="147.10499192776564" x2="840.4545454545456" y2="147.10499192776564" stroke="#000"/>
<line x1="814.8181818181819" y1="235.28887224646155" x2="840.4545454545456" y2="235.28887224646155" stroke="#000"/>
<line x1="827.6363636363637" y1="147.10499192776564" x2="827.6363636363637" y2="235.28887224646155" stroke="#000"/>
<line x1="827.6363636363636" y1="498.0" x2="827.6363636363636" y2="502.79999999999995" stroke="#000"/>
<text x="827.6363636363636" y="512.4" fill="#111" font-size="small" font-family="monospace" font-weight="bold" text-anchor="end" transform="rotate(-60, 827.6363636363636, 512.4)">
ruby-lsp
</text>
<rect x="866.0909090909091" y="252.12080780990104" width="25.636363636363637" height="245.8791921900989" fill="#7070f8" data-tooltip="1.00x baseline speed (No JIT)"/>
<line x1="866.0909090909091" y1="251.8608009791085" x2="891.7272727272729" y2="251.8608009791085" stroke="#000"/>
<line x1="866.0909090909091" y1="252.38081464069361" x2="891.7272727272729" y2="252.38081464069361" stroke="#000"/>
<line x1="878.909090909091" y1="251.8608009791085" x2="878.909090909091" y2="252.38081464069361" stroke="#000"/>
<rect x="891.7272727272729" y="218.5347656643805" width="25.636363636363637" height="279.4652343356194" fill="orange" data-tooltip="1.14x baseline speed (YJIT)"/>
<line x1="891.7272727272729" y1="217.90189573251533" x2="917.3636363636365" y2="217.90189573251533" stroke="#000"/>
<line x1="891.7272727272729" y1="219.1676355962457" x2="917.3636363636365" y2="219.1676355962457" stroke="#000"/>
<line x1="904.5454545454546" y1="217.90189573251533" x2="904.5454545454546" y2="219.1676355962457" stroke="#000"/>
<line x1="904.5454545454545" y1="498.0" x2="904.5454545454545" y2="502.79999999999995" stroke="#000"/>
<text x="904.5454545454545" y="512.4" fill="#111" font-size="small" font-family="monospace" font-weight="bold" text-anchor="end" transform="rotate(-60, 904.5454545454545, 512.4)">
sequel
</text>
</svg>