<svg viewBox="0 0 1000 600" xmlns="http://www.w3.org/2000/svg" xmlns:xlink="http://www.w3.org/1999/xlink" width="100%" height="100%">

<rect x="50.0" y="30.0" width="940.0" height="467.99999999999994" stroke="#000" fill="#EEE"/>
<line x1="42.0" y1="497.9999999999999" x2="50.0" y2="497.9999999999999" stroke="#000"/>
<text x="26.000000000000004" y="497.9999999999999" text-anchor="end" font-weight="bold" font-size="small" fill="#111">
0.0
</text>
<line x1="42.0" y1="399.7653927040271" x2="50.0" y2="399.7653927040271" stroke="#000"/>
<text x="26.000000000000004" y="399.7653927040271" text-anchor="end" font-weight="bold" font-size="small" fill="#111">
2.0
</text>
<line x1="42.0" y1="301.53078540805416" x2="50.0" y2="301.53078540805416" stroke="#000"/>
<text x="26.000000000000004" y="301.53078540805416" text-anchor="end" font-weight="bold" font-size="small" fill="#111">
4.0
</text>
<line x1="42.0" y1="203.29617811208124" x2="50.0" y2="203.29617811208124" stroke="#000"/>
<text x="26.000000000000004" y="203.29617811208124" text-anchor="end" font-weight="bold" font-size="small" fill="#111">
6.0
</text>
<line x1="42.0" y1="105.06157081610837" x2="50.0" y2="105.06157081610837" stroke="#000"/>
<text x="26.000000000000004" y="105.06157081610837" text-anchor="end" font-weight="bold" font-size="small" fill="#111">
8.0
</text>
<rect x="197.99999999999997" y="36.00000000000001" width="80.0" height="18.0" fill="#7070f8" stroke="#888"/>
<text x="238.0" y="52.50000000000001" font-size="small" text-anchor="middle" font-weight="bold" fill="#111">
No JIT
</text>
<rect x="479.99999999999994" y="36.00000000000001" width="80.0" height="18.0" fill="orange" stroke="#888"/>
<text x="519.9999999999999" y="52.50000000000001" font-size="small" text-anchor="middle" font-weight="bold" fill="#111">
MJIT
</text>
<rect x="761.9999999999999" y="36.00000000000001" width="80.0" height="18.0" fill="green" stroke="#888"/>
<text x="801.9999999999999" y="52.50000000000001" font-size="small" text-anchor="middle" font-weight="bold" fill="#111">
YJIT
</text>
<rect x="97.0" y="448.8826963520135" width="11.131578947368421" height="49.117303647986446" fill="#7070f8" data-tooltip="1.00x No-JIT time (No JIT)"/>
<line x1="97.0" y1="448.44690252452295" x2="108.13157894736842" y2="448.44690252452295" stroke="#000"/>
<line x1="97.0" y1="449.3184901795041" x2="108.13157894736842" y2="449.3184901795041" stroke="#000"/>
<line x1="102.5657894736842" y1="448.44690252452295" x2="102.5657894736842" y2="449.3184901795041" stroke="#000"/>
<rect x="108.13157894736842" y="450.3753081392054" width="11.131578947368421" height="47.62469186079447" fill="orange" data-tooltip="0.97x No-JIT time (MJIT)"/>
<line x1="108.13157894736842" y1="449.92045626837813" x2="119.26315789473685" y2="449.92045626837813" stroke="#000"/>
<line x1="108.13157894736842" y1="450.83016001003267" x2="119.26315789473685" y2="450.83016001003267" stroke="#000"/>
<line x1="113.69736842105263" y1="449.92045626837813" x2="113.69736842105263" y2="450.83016001003267" stroke="#000"/>
<rect x="119.26315789473685" y="432.7870722558242" width="11.131578947368421" height="65.21292774417573" fill="green" data-tooltip="1.33x No-JIT time (YJIT)"/>
<line x1="119.26315789473685" y1="431.6734546514285" x2="130.39473684210526" y2="431.6734546514285" stroke="#000"/>
<line x1="119.26315789473685" y1="433.9006898602199" x2="130.39473684210526" y2="433.9006898602199" stroke="#000"/>
<line x1="124.82894736842105" y1="431.6734546514285" x2="124.82894736842105" y2="433.9006898602199" stroke="#000"/>
<line x1="119.26315789473685" y1="498.0" x2="119.26315789473685" y2="502.79999999999995" stroke="#000"/>
<text x="119.26315789473685" y="512.4" fill="#111" font-size="small" font-family="monospace" font-weight="bold" text-anchor="end" transform="rotate(-60, 119.26315789473685, 512.4)">
activerecord
</text>
<rect x="141.5263157894737" y="448.8826963520135" width="11.131578947368421" height="49.117303647986446" fill="#7070f8" data-tooltip="1.00x No-JIT time (No JIT)"/>
<line x1="141.5263157894737" y1="447.73801083781996" x2="152.6578947368421" y2="447.73801083781996" stroke="#000"/>
<line x1="141.5263157894737" y1="450.0273818662071" x2="152.6578947368421" y2="450.0273818662071" stroke="#000"/>
<line x1="147.09210526315792" y1="447.73801083781996" x2="147.09210526315792" y2="450.0273818662071" stroke="#000"/>
<rect x="152.6578947368421" y="449.0702336499132" width="11.131578947368421" height="48.929766350086716" fill="orange" data-tooltip="1.00x No-JIT time (MJIT)"/>
<line x1="152.6578947368421" y1="447.50119291382407" x2="163.78947368421052" y2="447.50119291382407" stroke="#000"/>
<line x1="152.6578947368421" y1="450.6392743860023" x2="163.78947368421052" y2="450.6392743860023" stroke="#000"/>
<line x1="158.22368421052633" y1="447.50119291382407" x2="158.22368421052633" y2="450.6392743860023" stroke="#000"/>
<rect x="163.78947368421055" y="443.35776589515814" width="11.131578947368421" height="54.64223410484182" fill="green" data-tooltip="1.11x No-JIT time (YJIT)"/>
<line x1="163.78947368421055" y1="441.3201962273103" x2="174.92105263157896" y2="441.3201962273103" stroke="#000"/>
<line x1="163.78947368421055" y1="445.395335563006" x2="174.92105263157896" y2="445.395335563006" stroke="#000"/>
<line x1="169.35526315789477" y1="441.3201962273103" x2="169.35526315789477" y2="445.395335563006" stroke="#000"/>
<line x1="163.78947368421055" y1="498.0" x2="163.78947368421055" y2="502.79999999999995" stroke="#000"/>
<text x="163.78947368421055" y="512.4" fill="#111" font-size="small" font-family="monospace" font-weight="bold" text-anchor="end" transform="rotate(-60, 163.78947368421055, 512.4)">
jekyll
</text>
<rect x="186.05263157894737" y="448.8826963520135" width="11.131578947368421" height="49.117303647986446" fill="#7070f8" data-tooltip="1.00x No-JIT time (No JIT)"/>
<line x1="186.05263157894737" y1="447.6455080884228" x2="197.18421052631578" y2="447.6455080884228" stroke="#000"/>
<line x1="186.05263157894737" y1="450.1198846156043" x2="197.18421052631578" y2="450.1198846156043" stroke="#000"/>
<line x1="191.6184210526316" y1="447.6455080884228" x2="191.6184210526316" y2="450.1198846156043" stroke="#000"/>
<rect x="197.18421052631578" y="443.0938696348282" width="11.131578947368421" height="54.90613036517177" fill="orange" data-tooltip="1.12x No-JIT time (MJIT)"/>
<line x1="197.18421052631578" y1="441.17146946158437" x2="208.31578947368416" y2="441.17146946158437" stroke="#000"/>
<line x1="197.18421052631578" y1="445.016269808072" x2="208.31578947368416" y2="445.016269808072" stroke="#000"/>
<line x1="202.75" y1="441.17146946158437" x2="202.75" y2="445.016269808072" stroke="#000"/>
<rect x="208.3157894736842" y="435.166860134456" width="11.131578947368421" height="62.833139865543956" fill="green" data-tooltip="1.28x No-JIT time (YJIT)"/>
<line x1="208.3157894736842" y1="432.894516446038" x2="219.4473684210526" y2="432.894516446038" stroke="#000"/>
<line x1="208.3157894736842" y1="437.43920382287405" x2="219.4473684210526" y2="437.43920382287405" stroke="#000"/>
<line x1="213.8815789473684" y1="432.894516446038" x2="213.8815789473684" y2="437.43920382287405" stroke="#000"/>
<line x1="208.3157894736842" y1="498.0" x2="208.3157894736842" y2="502.79999999999995" stroke="#000"/>
<text x="208.3157894736842" y="512.4" fill="#111" font-size="small" font-family="monospace" font-weight="bold" text-anchor="end" transform="rotate(-60, 208.3157894736842, 512.4)">
liquid-render
</text>
<rect x="230.57894736842104" y="448.8826963520135" width="11.131578947368421" height="49.117303647986446" fill="#7070f8" data-tooltip="1.00x No-JIT time (No JIT)"/>
<line x1="230.57894736842104" y1="447.84892563790663" x2="241.71052631578945" y2="447.84892563790663" stroke="#000"/>
<line x1="230.57894736842104" y1="449.91646706612045" x2="241.71052631578945" y2="449.91646706612045" stroke="#000"/>
<line x1="236.14473684210526" y1="447.84892563790663" x2="236.14473684210526" y2="449.91646706612045" stroke="#000"/>
<rect x="241.71052631578945" y="449.867977760219" width="11.131578947368421" height="48.132022239780994" fill="orange" data-tooltip="0.98x No-JIT time (MJIT)"/>
<line x1="241.71052631578945" y1="448.4489499847602" x2="252.84210526315786" y2="448.4489499847602" stroke="#000"/>
<line x1="241.71052631578945" y1="451.28700553567774" x2="252.84210526315786" y2="451.28700553567774" stroke="#000"/>
<line x1="247.27631578947367" y1="448.4489499847602" x2="247.27631578947367" y2="451.28700553567774" stroke="#000"/>
<rect x="252.84210526315786" y="445.22319339655667" width="11.131578947368421" height="52.77680660344331" fill="green" data-tooltip="1.07x No-JIT time (YJIT)"/>
<line x1="252.84210526315786" y1="443.48246657010884" x2="263.9736842105263" y2="443.48246657010884" stroke="#000"/>
<line x1="252.84210526315786" y1="446.9639202230045" x2="263.9736842105263" y2="446.9639202230045" stroke="#000"/>
<line x1="258.4078947368421" y1="443.48246657010884" x2="258.4078947368421" y2="446.9639202230045" stroke="#000"/>
<line x1="252.84210526315786" y1="498.0" x2="252.84210526315786" y2="502.79999999999995" stroke="#000"/>
<text x="252.84210526315786" y="512.4" fill="#111" font-size="small" font-family="monospace" font-weight="bold" text-anchor="end" transform="rotate(-60, 252.84210526315786, 512.4)">
mail
</text>
<rect x="275.10526315789474" y="448.8826963520135" width="11.131578947368421" height="49.117303647986446" fill="#7070f8" data-tooltip="1.00x No-JIT time (No JIT)"/>
<line x1="275.10526315789474" y1="448.7262712968962" x2="286.2368421052632" y2="448.7262712968962" stroke="#000"/>
<line x1="275.10526315789474" y1="449.03912140713084" x2="286.2368421052632" y2="449.03912140713084" stroke="#000"/>
<line x1="280.67105263157896" y1="448.7262712968962" x2="280.67105263157896" y2="449.03912140713084" stroke="#000"/>
<rect x="286.2368421052632" y="440.4260771062125" width="11.131578947368421" height="57.573922893787376" fill="orange" data-tooltip="1.17x No-JIT time (MJIT)"/>
<line x1="286.2368421052632" y1="439.5162616002113" x2="297.3684210526316" y2="439.5162616002113" stroke="#000"/>
<line x1="286.2368421052632" y1="441.33589261221374" x2="297.3684210526316" y2="441.33589261221374" stroke="#000"/>
<line x1="291.80263157894734" y1="439.5162616002113" x2="291.80263157894734" y2="441.33589261221374" stroke="#000"/>
<rect x="297.36842105263156" y="433.70375226211814" width="11.131578947368421" height="64.2962477378818" fill="green" data-tooltip="1.31x No-JIT time (YJIT)"/>
<line x1="297.36842105263156" y1="433.270495083958" x2="308.5" y2="433.270495083958" stroke="#000"/>
<line x1="297.36842105263156" y1="434.1370094402783" x2="308.5" y2="434.1370094402783" stroke="#000"/>
<line x1="302.9342105263157" y1="433.270495083958" x2="302.9342105263157" y2="434.1370094402783" stroke="#000"/>
<line x1="297.36842105263156" y1="498.0" x2="297.36842105263156" y2="502.79999999999995" stroke="#000"/>
<text x="297.36842105263156" y="512.4" fill="#111" font-size="small" font-family="monospace" font-weight="bold" text-anchor="end" transform="rotate(-60, 297.36842105263156, 512.4)">
psych-load
</text>
<rect x="319.63157894736844" y="448.8826963520135" width="11.131578947368421" height="49.117303647986446" fill="#7070f8" data-tooltip="1.00x No-JIT time (No JIT)"/>
<line x1="319.63157894736844" y1="448.40822491862656" x2="330.7631578947369" y2="448.40822491862656" stroke="#000"/>
<line x1="319.63157894736844" y1="449.35716778540046" x2="330.7631578947369" y2="449.35716778540046" stroke="#000"/>
<line x1="325.1973684210526" y1="448.40822491862656" x2="325.1973684210526" y2="449.35716778540046" stroke="#000"/>
<rect x="330.7631578947369" y="451.30521246426724" width="11.131578947368421" height="46.69478753573271" fill="orange" data-tooltip="0.95x No-JIT time (MJIT)"/>
<line x1="330.7631578947369" y1="450.5871676368693" x2="341.8947368421053" y2="450.5871676368693" stroke="#000"/>
<line x1="330.7631578947369" y1="452.02325729166523" x2="341.8947368421053" y2="452.02325729166523" stroke="#000"/>
<line x1="336.32894736842104" y1="450.5871676368693" x2="336.32894736842104" y2="452.02325729166523" stroke="#000"/>
<rect x="341.89473684210526" y="439.9830102719231" width="11.131578947368421" height="58.0169897280769" fill="green" data-tooltip="1.18x No-JIT time (YJIT)"/>
<line x1="341.89473684210526" y1="438.66337518874485" x2="353.0263157894737" y2="438.66337518874485" stroke="#000"/>
<line x1="341.89473684210526" y1="441.30264535510133" x2="353.0263157894737" y2="441.30264535510133" stroke="#000"/>
<line x1="347.4605263157894" y1="438.66337518874485" x2="347.4605263157894" y2="441.30264535510133" stroke="#000"/>
<line x1="341.89473684210526" y1="498.0" x2="341.89473684210526" y2="502.79999999999995" stroke="#000"/>
<text x="341.89473684210526" y="512.4" fill="#111" font-size="small" font-family="monospace" font-weight="bold" text-anchor="end" transform="rotate(-60, 341.89473684210526, 512.4)">
railsbench
</text>
<rect x="364.15789473684214" y="448.8826963520135" width="11.131578947368421" height="49.117303647986446" fill="#7070f8" data-tooltip="1.00x No-JIT time (No JIT)"/>
<line x1="364.15789473684214" y1="448.71474702706763" x2="375.2894736842106" y2="448.71474702706763" stroke="#000"/>
<line x1="364.15789473684214" y1="449.0506456769594" x2="375.2894736842106" y2="449.0506456769594" stroke="#000"/>
<line x1="369.7236842105263" y1="448.71474702706763" x2="369.7236842105263" y2="449.0506456769594" stroke="#000"/>
<rect x="375.2894736842106" y="421.1309342516494" width="11.131578947368421" height="76.86906574835058" fill="orange" data-tooltip="1.57x No-JIT time (MJIT)"/>
<line x1="375.2894736842106" y1="420.7078169136587" x2="386.421052631579" y2="420.7078169136587" stroke="#000"/>
<line x1="375.2894736842106" y1="421.5540515896402" x2="386.421052631579" y2="421.5540515896402" stroke="#000"/>
<line x1="380.85526315789474" y1="420.7078169136587" x2="380.85526315789474" y2="421.5540515896402" stroke="#000"/>
<rect x="386.42105263157896" y="432.37086437988233" width="11.131578947368421" height="65.62913562011751" fill="green" data-tooltip="1.34x No-JIT time (YJIT)"/>
<line x1="386.42105263157896" y1="431.97636031973445" x2="397.5526315789474" y2="431.97636031973445" stroke="#000"/>
<line x1="386.42105263157896" y1="432.7653684400302" x2="397.5526315789474" y2="432.7653684400302" stroke="#000"/>
<line x1="391.9868421052631" y1="431.97636031973445" x2="391.9868421052631" y2="432.7653684400302" stroke="#000"/>
<line x1="386.42105263157896" y1="498.0" x2="386.42105263157896" y2="502.79999999999995" stroke="#000"/>
<text x="386.42105263157896" y="512.4" fill="#111" font-size="small" font-family="monospace" font-weight="bold" text-anchor="end" transform="rotate(-60, 386.42105263157896, 512.4)">
binarytrees
</text>
<rect x="408.6842105263158" y="448.8826963520135" width="11.131578947368421" height="49.117303647986446" fill="#7070f8" data-tooltip="1.00x No-JIT time (No JIT)"/>
<line x1="408.6842105263158" y1="448.86219635202235" x2="419.8157894736842" y2="448.86219635202235" stroke="#000"/>
<line x1="408.6842105263158" y1="448.90319635200467" x2="419.8157894736842" y2="448.90319635200467" stroke="#000"/>
<line x1="414.24999999999994" y1="448.86219635202235" x2="414.24999999999994" y2="448.90319635200467" stroke="#000"/>
<rect x="419.8157894736842" y="431.53431111577925" width="11.131578947368421" height="66.4656888842207" fill="orange" data-tooltip="1.35x No-JIT time (MJIT)"/>
<line x1="419.8157894736842" y1="431.25215930092213" x2="430.94736842105266" y2="431.25215930092213" stroke="#000"/>
<line x1="419.8157894736842" y1="431.8164629306364" x2="430.94736842105266" y2="431.8164629306364" stroke="#000"/>
<line x1="425.3815789473684" y1="431.25215930092213" x2="425.3815789473684" y2="431.8164629306364" stroke="#000"/>
<rect x="430.9473684210526" y="449.0545681686029" width="11.131578947368421" height="48.945431831397066" fill="green" data-tooltip="1.00x No-JIT time (YJIT)"/>
<line x1="430.9473684210526" y1="449.0254798389058" x2="442.07894736842104" y2="449.0254798389058" stroke="#000"/>
<line x1="430.9473684210526" y1="449.0836564983" x2="442.07894736842104" y2="449.0836564983" stroke="#000"/>
<line x1="436.51315789473676" y1="449.0254798389058" x2="436.51315789473676" y2="449.0836564983" stroke="#000"/>
<line x1="430.9473684210526" y1="498.0" x2="430.9473684210526" y2="502.79999999999995" stroke="#000"/>
<text x="430.9473684210526" y="512.4" fill="#111" font-size="small" font-family="monospace" font-weight="bold" text-anchor="end" transform="rotate(-60, 430.9473684210526, 512.4)">
fannkuchredux
</text>
<rect x="453.2105263157895" y="448.8826963520135" width="11.131578947368421" height="49.117303647986446" fill="#7070f8" data-tooltip="1.00x No-JIT time (No JIT)"/>
<line x1="453.2105263157895" y1="448.8437385204104" x2="464.3421052631579" y2="448.8437385204104" stroke="#000"/>
<line x1="453.2105263157895" y1="448.9216541836167" x2="464.3421052631579" y2="448.9216541836167" stroke="#000"/>
<line x1="458.7763157894737" y1="448.8437385204104" x2="458.7763157894737" y2="448.9216541836167" stroke="#000"/>
<rect x="464.3421052631579" y="434.89542880221575" width="11.131578947368421" height="63.1045711977842" fill="orange" data-tooltip="1.28x No-JIT time (MJIT)"/>
<line x1="464.3421052631579" y1="434.84133650158503" x2="475.47368421052636" y2="434.84133650158503" stroke="#000"/>
<line x1="464.3421052631579" y1="434.9495211028465" x2="475.47368421052636" y2="434.9495211028465" stroke="#000"/>
<line x1="469.90789473684214" y1="434.84133650158503" x2="469.90789473684214" y2="434.9495211028465" stroke="#000"/>
<rect x="475.4736842105263" y="450.89312335761025" width="11.131578947368421" height="47.10687664238965" fill="green" data-tooltip="0.96x No-JIT time (YJIT)"/>
<line x1="475.4736842105263" y1="450.8199528708755" x2="486.60526315789474" y2="450.8199528708755" stroke="#000"/>
<line x1="475.4736842105263" y1="450.966293844345" x2="486.60526315789474" y2="450.966293844345" stroke="#000"/>
<line x1="481.0394736842105" y1="450.8199528708755" x2="481.0394736842105" y2="450.966293844345" stroke="#000"/>
<line x1="475.4736842105263" y1="498.0" x2="475.4736842105263" y2="502.79999999999995" stroke="#000"/>
<text x="475.4736842105263" y="512.4" fill="#111" font-size="small" font-family="monospace" font-weight="bold" text-anchor="end" transform="rotate(-60, 475.4736842105263, 512.4)">
keyword_args
</text>
<rect x="497.7368421052631" y="448.8826963520135" width="11.131578947368421" height="49.117303647986446" fill="#7070f8" data-tooltip="1.00x No-JIT time (No JIT)"/>
<line x1="497.7368421052631" y1="448.27315290590536" x2="508.8684210526315" y2="448.27315290590536" stroke="#000"/>
<line x1="497.7368421052631" y1="449.4922397981217" x2="508.8684210526315" y2="449.4922397981217" stroke="#000"/>
<line x1="503.3026315789474" y1="448.27315290590536" x2="503.3026315789474" y2="449.4922397981217" stroke="#000"/>
<rect x="508.8684210526315" y="434.1826043800282" width="11.131578947368421" height="63.81739561997173" fill="orange" data-tooltip="1.30x No-JIT time (MJIT)"/>
<line x1="508.8684210526315" y1="433.1234072073368" x2="519.9999999999999" y2="433.1234072073368" stroke="#000"/>
<line x1="508.8684210526315" y1="435.24180155271955" x2="519.9999999999999" y2="435.24180155271955" stroke="#000"/>
<line x1="514.4342105263157" y1="433.1234072073368" x2="514.4342105263157" y2="435.24180155271955" stroke="#000"/>
<rect x="520.0" y="428.8864808551378" width="11.131578947368421" height="69.1135191448621" fill="green" data-tooltip="1.41x No-JIT time (YJIT)"/>
<line x1="520.0" y1="427.5779085290433" x2="531.1315789473684" y2="427.5779085290433" stroke="#000"/>
<line x1="520.0" y1="430.1950531812323" x2="531.1315789473684" y2="430.1950531812323" stroke="#000"/>
<line x1="525.5657894736843" y1="427.5779085290433" x2="525.5657894736843" y2="430.1950531812323" stroke="#000"/>
<line x1="520.0" y1="498.0" x2="520.0" y2="502.79999999999995" stroke="#000"/>
<text x="520.0" y="512.4" fill="#111" font-size="small" font-family="monospace" font-weight="bold" text-anchor="end" transform="rotate(-60, 520.0, 512.4)">
lee
</text>
<rect x="542.2631578947369" y="448.8826963520135" width="11.131578947368421" height="49.117303647986446" fill="#7070f8" data-tooltip="1.00x No-JIT time (No JIT)"/>
<line x1="542.2631578947369" y1="448.8625456107197" x2="553.3947368421053" y2="448.8625456107197" stroke="#000"/>
<line x1="542.2631578947369" y1="448.90284709330734" x2="553.3947368421053" y2="448.90284709330734" stroke="#000"/>
<line x1="547.8289473684212" y1="448.8625456107197" x2="547.8289473684212" y2="448.90284709330734" stroke="#000"/>
<rect x="553.3947368421053" y="403.00417405080697" width="11.131578947368421" height="94.99582594919295" fill="orange" data-tooltip="1.93x No-JIT time (MJIT)"/>
<line x1="553.3947368421053" y1="401.80932746086575" x2="564.5263157894736" y2="401.80932746086575" stroke="#000"/>
<line x1="553.3947368421053" y1="404.19902064074824" x2="564.5263157894736" y2="404.19902064074824" stroke="#000"/>
<line x1="558.9605263157895" y1="401.80932746086575" x2="558.9605263157895" y2="404.19902064074824" stroke="#000"/>
<rect x="564.5263157894738" y="423.7862011728594" width="11.131578947368421" height="74.21379882714056" fill="green" data-tooltip="1.51x No-JIT time (YJIT)"/>
<line x1="564.5263157894738" y1="423.73183693340917" x2="575.6578947368422" y2="423.73183693340917" stroke="#000"/>
<line x1="564.5263157894738" y1="423.84056541230973" x2="575.6578947368422" y2="423.84056541230973" stroke="#000"/>
<line x1="570.092105263158" y1="423.73183693340917" x2="570.092105263158" y2="423.84056541230973" stroke="#000"/>
<line x1="564.5263157894738" y1="498.0" x2="564.5263157894738" y2="502.79999999999995" stroke="#000"/>
<text x="564.5263157894738" y="512.4" fill="#111" font-size="small" font-family="monospace" font-weight="bold" text-anchor="end" transform="rotate(-60, 564.5263157894738, 512.4)">
nbody
</text>
<rect x="586.7894736842105" y="448.8826963520135" width="11.131578947368421" height="49.117303647986446" fill="#7070f8" data-tooltip="1.00x No-JIT time (No JIT)"/>
<line x1="586.7894736842105" y1="448.4509273073315" x2="597.921052631579" y2="448.4509273073315" stroke="#000"/>
<line x1="586.7894736842105" y1="449.31446539669554" x2="597.921052631579" y2="449.31446539669554" stroke="#000"/>
<line x1="592.3552631578948" y1="448.4509273073315" x2="592.3552631578948" y2="449.31446539669554" stroke="#000"/>
<rect x="597.921052631579" y="401.48898338365393" width="11.131578947368421" height="96.511016616346" fill="orange" data-tooltip="1.96x No-JIT time (MJIT)"/>
<line x1="597.921052631579" y1="400.56364888757787" x2="609.0526315789473" y2="400.56364888757787" stroke="#000"/>
<line x1="597.921052631579" y1="402.41431787972994" x2="609.0526315789473" y2="402.41431787972994" stroke="#000"/>
<line x1="603.4868421052631" y1="400.56364888757787" x2="603.4868421052631" y2="402.41431787972994" stroke="#000"/>
<rect x="609.0526315789474" y="414.43534643471133" width="11.131578947368421" height="83.56465356528857" fill="green" data-tooltip="1.70x No-JIT time (YJIT)"/>
<line x1="609.0526315789474" y1="413.6846546139781" x2="620.1842105263158" y2="413.6846546139781" stroke="#000"/>
<line x1="609.0526315789474" y1="415.18603825544454" x2="620.1842105263158" y2="415.18603825544454" stroke="#000"/>
<line x1="614.6184210526317" y1="413.6846546139781" x2="614.6184210526317" y2="415.18603825544454" stroke="#000"/>
<line x1="609.0526315789474" y1="498.0" x2="609.0526315789474" y2="502.79999999999995" stroke="#000"/>
<text x="609.0526315789474" y="512.4" fill="#111" font-size="small" font-family="monospace" font-weight="bold" text-anchor="end" transform="rotate(-60, 609.0526315789474, 512.4)">
optcarrot
</text>
<rect x="631.3157894736842" y="448.8826963520135" width="11.131578947368421" height="49.117303647986446" fill="#7070f8" data-tooltip="1.00x No-JIT time (No JIT)"/>
<line x1="631.3157894736842" y1="448.0829170631239" x2="642.4473684210525" y2="448.0829170631239" stroke="#000"/>
<line x1="631.3157894736842" y1="449.6824756409032" x2="642.4473684210525" y2="449.6824756409032" stroke="#000"/>
<line x1="636.8815789473684" y1="448.0829170631239" x2="636.8815789473684" y2="449.6824756409032" stroke="#000"/>
<rect x="642.4473684210525" y="449.41577829502273" width="11.131578947368421" height="48.58422170497726" fill="orange" data-tooltip="0.99x No-JIT time (MJIT)"/>
<line x1="642.4473684210525" y1="448.1290498942669" x2="653.5789473684209" y2="448.1290498942669" stroke="#000"/>
<line x1="642.4473684210525" y1="450.70250669577854" x2="653.5789473684209" y2="450.70250669577854" stroke="#000"/>
<line x1="648.0131578947368" y1="448.1290498942669" x2="648.0131578947368" y2="450.70250669577854" stroke="#000"/>
<rect x="653.578947368421" y="116.94983152002021" width="11.131578947368421" height="381.0501684799798" fill="green" data-tooltip="7.76x No-JIT time (YJIT)"/>
<line x1="653.578947368421" y1="110.6845070658312" x2="664.7105263157894" y2="110.6845070658312" stroke="#000"/>
<line x1="653.578947368421" y1="123.21515597420921" x2="664.7105263157894" y2="123.21515597420921" stroke="#000"/>
<line x1="659.1447368421053" y1="110.6845070658312" x2="659.1447368421053" y2="123.21515597420921" stroke="#000"/>
<line x1="653.578947368421" y1="498.0" x2="653.578947368421" y2="502.79999999999995" stroke="#000"/>
<text x="653.578947368421" y="512.4" fill="#111" font-size="small" font-family="monospace" font-weight="bold" text-anchor="end" transform="rotate(-60, 653.578947368421, 512.4)">
30k_ifelse
</text>
<rect x="675.8421052631579" y="448.8826963520135" width="11.131578947368421" height="49.117303647986446" fill="#7070f8" data-tooltip="1.00x No-JIT time (No JIT)"/>
<line x1="675.8421052631579" y1="447.9139147961851" x2="686.9736842105262" y2="447.9139147961851" stroke="#000"/>
<line x1="675.8421052631579" y1="449.8514779078419" x2="686.9736842105262" y2="449.8514779078419" stroke="#000"/>
<line x1="681.4078947368422" y1="447.9139147961851" x2="681.4078947368422" y2="449.8514779078419" stroke="#000"/>
<rect x="686.9736842105262" y="445.5674445358205" width="11.131578947368421" height="52.43255546417931" fill="orange" data-tooltip="1.07x No-JIT time (MJIT)"/>
<line x1="686.9736842105262" y1="444.5313527718272" x2="698.1052631578947" y2="444.5313527718272" stroke="#000"/>
<line x1="686.9736842105262" y1="446.6035362998139" x2="698.1052631578947" y2="446.6035362998139" stroke="#000"/>
<line x1="692.5394736842105" y1="444.5313527718272" x2="692.5394736842105" y2="446.6035362998139" stroke="#000"/>
<rect x="698.1052631578948" y="100.19999999999999" width="11.131578947368421" height="397.79999999999995" fill="green" data-tooltip="8.10x No-JIT time (YJIT)"/>
<line x1="698.1052631578948" y1="92.35226233964435" x2="709.2368421052631" y2="92.35226233964435" stroke="#000"/>
<line x1="698.1052631578948" y1="108.04773766035562" x2="709.2368421052631" y2="108.04773766035562" stroke="#000"/>
<line x1="703.6710526315791" y1="92.35226233964435" x2="703.6710526315791" y2="108.04773766035562" stroke="#000"/>
<line x1="698.1052631578948" y1="498.0" x2="698.1052631578948" y2="502.79999999999995" stroke="#000"/>
<text x="698.1052631578948" y="512.4" fill="#111" font-size="small" font-family="monospace" font-weight="bold" text-anchor="end" transform="rotate(-60, 698.1052631578948, 512.4)">
30k_methods
</text>
<rect x="720.3684210526316" y="448.8826963520135" width="11.131578947368421" height="49.117303647986446" fill="#7070f8" data-tooltip="1.00x No-JIT time (No JIT)"/>
<line x1="720.3684210526316" y1="448.55976251585196" x2="731.4999999999999" y2="448.55976251585196" stroke="#000"/>
<line x1="720.3684210526316" y1="449.2056301881751" x2="731.4999999999999" y2="449.2056301881751" stroke="#000"/>
<line x1="725.9342105263158" y1="448.55976251585196" x2="725.9342105263158" y2="449.2056301881751" stroke="#000"/>
<rect x="731.4999999999999" y="421.4895190053626" width="11.131578947368421" height="76.51048099463742" fill="orange" data-tooltip="1.56x No-JIT time (MJIT)"/>
<line x1="731.4999999999999" y1="420.97030897241086" x2="742.6315789473683" y2="420.97030897241086" stroke="#000"/>
<line x1="731.4999999999999" y1="422.00872903831424" x2="742.6315789473683" y2="422.00872903831424" stroke="#000"/>
<line x1="737.0657894736842" y1="420.97030897241086" x2="737.0657894736842" y2="422.00872903831424" stroke="#000"/>
<rect x="742.6315789473684" y="392.4919165389574" width="11.131578947368421" height="105.50808346104249" fill="green" data-tooltip="2.15x No-JIT time (YJIT)"/>
<line x1="742.6315789473684" y1="391.69477069552704" x2="753.7631578947368" y2="391.69477069552704" stroke="#000"/>
<line x1="742.6315789473684" y1="393.2890623823878" x2="753.7631578947368" y2="393.2890623823878" stroke="#000"/>
<line x1="748.1973684210527" y1="391.69477069552704" x2="748.1973684210527" y2="393.2890623823878" stroke="#000"/>
<line x1="742.6315789473684" y1="498.0" x2="742.6315789473684" y2="502.79999999999995" stroke="#000"/>
<text x="742.6315789473684" y="512.4" fill="#111" font-size="small" font-family="monospace" font-weight="bold" text-anchor="end" transform="rotate(-60, 742.6315789473684, 512.4)">
cfunc_itself
</text>
<rect x="764.8947368421053" y="448.8826963520135" width="11.131578947368421" height="49.117303647986446" fill="#7070f8" data-tooltip="1.00x No-JIT time (No JIT)"/>
<line x1="764.8947368421053" y1="448.8691946778256" x2="776.0263157894736" y2="448.8691946778256" stroke="#000"/>
<line x1="764.8947368421053" y1="448.8961980262015" x2="776.0263157894736" y2="448.8961980262015" stroke="#000"/>
<line x1="770.4605263157896" y1="448.8691946778256" x2="770.4605263157896" y2="448.8961980262015" stroke="#000"/>
<rect x="776.0263157894736" y="340.3084424579218" width="11.131578947368421" height="157.69155754207816" fill="orange" data-tooltip="3.21x No-JIT time (MJIT)"/>
<line x1="776.0263157894736" y1="340.21866663838006" x2="787.1578947368421" y2="340.21866663838006" stroke="#000"/>
<line x1="776.0263157894736" y1="340.3982182774635" x2="787.1578947368421" y2="340.3982182774635" stroke="#000"/>
<line x1="781.5921052631579" y1="340.21866663838006" x2="781.5921052631579" y2="340.3982182774635" stroke="#000"/>
<rect x="787.1578947368422" y="308.3963522061168" width="11.131578947368421" height="189.6036477938831" fill="green" data-tooltip="3.86x No-JIT time (YJIT)"/>
<line x1="787.1578947368422" y1="308.2706923221843" x2="798.2894736842105" y2="308.2706923221843" stroke="#000"/>
<line x1="787.1578947368422" y1="308.5220120900493" x2="798.2894736842105" y2="308.5220120900493" stroke="#000"/>
<line x1="792.7236842105264" y1="308.2706923221843" x2="792.7236842105264" y2="308.5220120900493" stroke="#000"/>
<line x1="787.1578947368422" y1="498.0" x2="787.1578947368422" y2="502.79999999999995" stroke="#000"/>
<text x="787.1578947368422" y="512.4" fill="#111" font-size="small" font-family="monospace" font-weight="bold" text-anchor="end" transform="rotate(-60, 787.1578947368422, 512.4)">
fib
</text>
<rect x="809.421052631579" y="448.8826963520135" width="11.131578947368421" height="49.117303647986446" fill="#7070f8" data-tooltip="1.00x No-JIT time (No JIT)"/>
<line x1="809.421052631579" y1="448.8165947866648" x2="820.5526315789473" y2="448.8165947866648" stroke="#000"/>
<line x1="809.421052631579" y1="448.9487979173623" x2="820.5526315789473" y2="448.9487979173623" stroke="#000"/>
<line x1="814.9868421052631" y1="448.8165947866648" x2="814.9868421052631" y2="448.9487979173623" stroke="#000"/>
<rect x="820.5526315789473" y="450.16449027788894" width="11.131578947368421" height="47.83550972211096" fill="orange" data-tooltip="0.97x No-JIT time (MJIT)"/>
<line x1="820.5526315789473" y1="450.0702086760759" x2="831.6842105263157" y2="450.0702086760759" stroke="#000"/>
<line x1="820.5526315789473" y1="450.25877187970207" x2="831.6842105263157" y2="450.25877187970207" stroke="#000"/>
<line x1="826.1184210526316" y1="450.0702086760759" x2="826.1184210526316" y2="450.25877187970207" stroke="#000"/>
<rect x="831.6842105263158" y="378.75719622350226" width="11.131578947368421" height="119.24280377649762" fill="green" data-tooltip="2.43x No-JIT time (YJIT)"/>
<line x1="831.6842105263158" y1="378.5780595257121" x2="842.8157894736842" y2="378.5780595257121" stroke="#000"/>
<line x1="831.6842105263158" y1="378.9363329212925" x2="842.8157894736842" y2="378.9363329212925" stroke="#000"/>
<line x1="837.25" y1="378.5780595257121" x2="837.25" y2="378.9363329212925" stroke="#000"/>
<line x1="831.6842105263158" y1="498.0" x2="831.6842105263158" y2="502.79999999999995" stroke="#000"/>
<text x="831.6842105263158" y="512.4" fill="#111" font-size="small" font-family="monospace" font-weight="bold" text-anchor="end" transform="rotate(-60, 831.6842105263158, 512.4)">
getivar
</text>
<rect x="853.9473684210526" y="448.8826963520135" width="11.131578947368421" height="49.117303647986446" fill="#7070f8" data-tooltip="1.00x No-JIT time (No JIT)"/>
<line x1="853.9473684210526" y1="448.7945709524239" x2="865.0789473684209" y2="448.7945709524239" stroke="#000"/>
<line x1="853.9473684210526" y1="448.9708217516031" x2="865.0789473684209" y2="448.9708217516031" stroke="#000"/>
<line x1="859.5131578947368" y1="448.7945709524239" x2="859.5131578947368" y2="448.9708217516031" stroke="#000"/>
<rect x="865.0789473684209" y="439.54735235414813" width="11.131578947368421" height="58.45264764585181" fill="orange" data-tooltip="1.19x No-JIT time (MJIT)"/>
<line x1="865.0789473684209" y1="439.309776603182" x2="876.2105263157894" y2="439.309776603182" stroke="#000"/>
<line x1="865.0789473684209" y1="439.78492810511426" x2="876.2105263157894" y2="439.78492810511426" stroke="#000"/>
<line x1="870.6447368421052" y1="439.309776603182" x2="870.6447368421052" y2="439.78492810511426" stroke="#000"/>
<rect x="876.2105263157895" y="426.8834002835278" width="11.131578947368421" height="71.11659971647214" fill="green" data-tooltip="1.45x No-JIT time (YJIT)"/>
<line x1="876.2105263157895" y1="426.6732786117705" x2="887.3421052631578" y2="426.6732786117705" stroke="#000"/>
<line x1="876.2105263157895" y1="427.09352195528515" x2="887.3421052631578" y2="427.09352195528515" stroke="#000"/>
<line x1="881.7763157894736" y1="426.6732786117705" x2="881.7763157894736" y2="427.09352195528515" stroke="#000"/>
<line x1="876.2105263157895" y1="498.0" x2="876.2105263157895" y2="502.79999999999995" stroke="#000"/>
<text x="876.2105263157895" y="512.4" fill="#111" font-size="small" font-family="monospace" font-weight="bold" text-anchor="end" transform="rotate(-60, 876.2105263157895, 512.4)">
respond_to
</text>
<rect x="898.4736842105264" y="448.8826963520135" width="11.131578947368421" height="49.117303647986446" fill="#7070f8" data-tooltip="1.00x No-JIT time (No JIT)"/>
<line x1="898.4736842105264" y1="448.21267864918104" x2="909.6052631578947" y2="448.21267864918104" stroke="#000"/>
<line x1="898.4736842105264" y1="449.552714054846" x2="909.6052631578947" y2="449.552714054846" stroke="#000"/>
<line x1="904.0394736842105" y1="448.21267864918104" x2="904.0394736842105" y2="449.552714054846" stroke="#000"/>
<rect x="909.6052631578947" y="451.04734523605794" width="11.131578947368421" height="46.952654763941936" fill="orange" data-tooltip="0.96x No-JIT time (MJIT)"/>
<line x1="909.6052631578947" y1="450.40618668042254" x2="920.7368421052631" y2="450.40618668042254" stroke="#000"/>
<line x1="909.6052631578947" y1="451.68850379169334" x2="920.7368421052631" y2="451.68850379169334" stroke="#000"/>
<line x1="915.171052631579" y1="450.40618668042254" x2="915.171052631579" y2="451.68850379169334" stroke="#000"/>
<rect x="920.7368421052632" y="415.08397470609555" width="11.131578947368421" height="82.91602529390431" fill="green" data-tooltip="1.69x No-JIT time (YJIT)"/>
<line x1="920.7368421052632" y1="413.9510477280433" x2="931.8684210526316" y2="413.9510477280433" stroke="#000"/>
<line x1="920.7368421052632" y1="416.21690168414784" x2="931.8684210526316" y2="416.21690168414784" stroke="#000"/>
<line x1="926.3026315789474" y1="413.9510477280433" x2="926.3026315789474" y2="416.21690168414784" stroke="#000"/>
<line x1="920.7368421052632" y1="498.0" x2="920.7368421052632" y2="502.79999999999995" stroke="#000"/>
<text x="920.7368421052632" y="512.4" fill="#111" font-size="small" font-family="monospace" font-weight="bold" text-anchor="end" transform="rotate(-60, 920.7368421052632, 512.4)">
setivar
</text>
</svg>