<svg viewBox="0 0 1000 600" xmlns="http://www.w3.org/2000/svg" xmlns:xlink="http://www.w3.org/1999/xlink" width="100%" height="100%">

<rect x="50.0" y="30.0" width="940.0" height="467.99999999999994" stroke="#000" fill="#EEE"/>
<line x1="42.0" y1="497.9999999999999" x2="50.0" y2="497.9999999999999" stroke="#000"/>
<text x="26.000000000000004" y="497.9999999999999" text-anchor="end" font-weight="bold" font-size="small" fill="#111">
0.0
</text>
<line x1="42.0" y1="418.0325546831426" x2="50.0" y2="418.0325546831426" stroke="#000"/>
<text x="26.000000000000004" y="418.0325546831426" text-anchor="end" font-weight="bold" font-size="small" fill="#111">
0.5
</text>
<line x1="42.0" y1="338.0651093662852" x2="50.0" y2="338.0651093662852" stroke="#000"/>
<text x="26.000000000000004" y="338.0651093662852" text-anchor="end" font-weight="bold" font-size="small" fill="#111">
1.0
</text>
<line x1="42.0" y1="258.0976640494279" x2="50.0" y2="258.0976640494279" stroke="#000"/>
<text x="26.000000000000004" y="258.0976640494279" text-anchor="end" font-weight="bold" font-size="small" fill="#111">
1.5
</text>
<line x1="42.0" y1="178.13021873257057" x2="50.0" y2="178.13021873257057" stroke="#000"/>
<text x="26.000000000000004" y="178.13021873257057" text-anchor="end" font-weight="bold" font-size="small" fill="#111">
2.0
</text>
<rect x="197.99999999999997" y="36.00000000000001" width="80.0" height="18.0" fill="#7070f8" stroke="#888"/>
<text x="238.0" y="52.50000000000001" font-size="small" text-anchor="middle" font-weight="bold" fill="#EEE">
No JIT
</text>
<rect x="479.99999999999994" y="36.00000000000001" width="80.0" height="18.0" fill="orange" stroke="#888"/>
<text x="519.9999999999999" y="52.50000000000001" font-size="small" text-anchor="middle" font-weight="bold" fill="#EEE">
MJIT
</text>
<rect x="761.9999999999999" y="36.00000000000001" width="80.0" height="18.0" fill="green" stroke="#888"/>
<text x="801.9999999999999" y="52.50000000000001" font-size="small" text-anchor="middle" font-weight="bold" fill="#EEE">
YJIT
</text>
<rect x="97.0" y="338.0651093662852" width="21.15" height="159.93489063371467" fill="#7070f8" data-tooltip="1.00x baseline speed (No JIT)"/>
<line x1="97.0" y1="337.91025883293963" x2="118.15" y2="337.91025883293963" stroke="#000"/>
<line x1="97.0" y1="338.21995989963074" x2="118.15" y2="338.21995989963074" stroke="#000"/>
<line x1="107.575" y1="337.91025883293963" x2="107.575" y2="338.21995989963074" stroke="#000"/>
<rect x="118.15" y="250.42465884025677" width="21.15" height="247.57534115974318" fill="orange" data-tooltip="1.55x baseline speed (MJIT)"/>
<line x1="118.15" y1="248.48552873386626" x2="139.3" y2="248.48552873386626" stroke="#000"/>
<line x1="118.15" y1="252.36378894664728" x2="139.3" y2="252.36378894664728" stroke="#000"/>
<line x1="128.725" y1="248.48552873386626" x2="128.725" y2="252.36378894664728" stroke="#000"/>
<rect x="139.3" y="287.1267774943949" width="21.15" height="210.87322250560504" fill="green" data-tooltip="1.32x baseline speed (YJIT)"/>
<line x1="139.3" y1="286.7516826647016" x2="160.45000000000002" y2="286.7516826647016" stroke="#000"/>
<line x1="139.3" y1="287.5018723240882" x2="160.45000000000002" y2="287.5018723240882" stroke="#000"/>
<line x1="149.875" y1="286.7516826647016" x2="149.875" y2="287.5018723240882" stroke="#000"/>
<line x1="139.3" y1="498.0" x2="139.3" y2="502.79999999999995" stroke="#000"/>
<text x="139.3" y="512.4" fill="#111" font-size="small" font-family="monospace" font-weight="bold" text-anchor="end" transform="rotate(-60, 139.3, 512.4)">
binarytrees
</text>
<rect x="181.6" y="338.0651093662852" width="21.15" height="159.93489063371467" fill="#7070f8" data-tooltip="1.00x baseline speed (No JIT)"/>
<line x1="181.6" y1="337.96220071671274" x2="202.75" y2="337.96220071671274" stroke="#000"/>
<line x1="181.6" y1="338.1680180158576" x2="202.75" y2="338.1680180158576" stroke="#000"/>
<line x1="192.17499999999998" y1="337.96220071671274" x2="192.17499999999998" y2="338.1680180158576" stroke="#000"/>
<rect x="202.75" y="303.245417830024" width="21.15" height="194.75458216997592" fill="orange" data-tooltip="1.22x baseline speed (MJIT)"/>
<line x1="202.75" y1="301.1079552624025" x2="223.89999999999998" y2="301.1079552624025" stroke="#000"/>
<line x1="202.75" y1="305.38288039764547" x2="223.89999999999998" y2="305.38288039764547" stroke="#000"/>
<line x1="213.325" y1="301.1079552624025" x2="213.325" y2="305.38288039764547" stroke="#000"/>
<rect x="223.89999999999998" y="264.61318547202745" width="21.15" height="233.3868145279725" fill="green" data-tooltip="1.46x baseline speed (YJIT)"/>
<line x1="223.89999999999998" y1="264.3482909132684" x2="245.04999999999998" y2="264.3482909132684" stroke="#000"/>
<line x1="223.89999999999998" y1="264.8780800307865" x2="245.04999999999998" y2="264.8780800307865" stroke="#000"/>
<line x1="234.475" y1="264.3482909132684" x2="234.475" y2="264.8780800307865" stroke="#000"/>
<line x1="223.89999999999998" y1="498.0" x2="223.89999999999998" y2="502.79999999999995" stroke="#000"/>
<text x="223.89999999999998" y="512.4" fill="#111" font-size="small" font-family="monospace" font-weight="bold" text-anchor="end" transform="rotate(-60, 223.89999999999998, 512.4)">
chunky_png
</text>
<rect x="266.2" y="338.0651093662852" width="21.15" height="159.93489063371467" fill="#7070f8" data-tooltip="1.00x baseline speed (No JIT)"/>
<line x1="266.2" y1="335.5223642111971" x2="287.35" y2="335.5223642111971" stroke="#000"/>
<line x1="266.2" y1="340.6078545213733" x2="287.35" y2="340.6078545213733" stroke="#000"/>
<line x1="276.775" y1="335.5223642111971" x2="276.775" y2="340.6078545213733" stroke="#000"/>
<rect x="287.35" y="353.9627555043325" width="21.15" height="144.03724449566744" fill="orange" data-tooltip="0.90x baseline speed (MJIT)"/>
<line x1="287.35" y1="337.1558687225102" x2="308.5" y2="337.1558687225102" stroke="#000"/>
<line x1="287.35" y1="370.7696422861548" x2="308.5" y2="370.7696422861548" stroke="#000"/>
<line x1="297.925" y1="337.1558687225102" x2="297.925" y2="370.7696422861548" stroke="#000"/>
<rect x="308.5" y="348.07064758591304" width="21.15" height="149.92935241408688" fill="green" data-tooltip="0.94x baseline speed (YJIT)"/>
<line x1="308.5" y1="336.28665384843737" x2="329.65" y2="336.28665384843737" stroke="#000"/>
<line x1="308.5" y1="359.85464132338876" x2="329.65" y2="359.85464132338876" stroke="#000"/>
<line x1="319.075" y1="336.28665384843737" x2="319.075" y2="359.85464132338876" stroke="#000"/>
<line x1="308.5" y1="498.0" x2="308.5" y2="502.79999999999995" stroke="#000"/>
<text x="308.5" y="512.4" fill="#111" font-size="small" font-family="monospace" font-weight="bold" text-anchor="end" transform="rotate(-60, 308.5, 512.4)">
discourse
</text>
<rect x="350.8" y="338.0651093662852" width="21.15" height="159.93489063371467" fill="#7070f8" data-tooltip="1.00x baseline speed (No JIT)"/>
<line x1="350.8" y1="336.83781262085716" x2="371.95" y2="336.83781262085716" stroke="#000"/>
<line x1="350.8" y1="339.2924061117132" x2="371.95" y2="339.2924061117132" stroke="#000"/>
<line x1="361.375" y1="336.83781262085716" x2="361.375" y2="339.2924061117132" stroke="#000"/>
<rect x="371.95" y="328.2522093914754" width="21.15" height="169.74779060852455" fill="orange" data-tooltip="1.06x baseline speed (MJIT)"/>
<line x1="371.95" y1="326.5078172625979" x2="393.1" y2="326.5078172625979" stroke="#000"/>
<line x1="371.95" y1="329.99660152035295" x2="393.1" y2="329.99660152035295" stroke="#000"/>
<line x1="382.525" y1="326.5078172625979" x2="382.525" y2="329.99660152035295" stroke="#000"/>
<rect x="393.1" y="320.3916062797596" width="21.15" height="177.60839372024031" fill="green" data-tooltip="1.11x baseline speed (YJIT)"/>
<line x1="393.1" y1="318.6216869990265" x2="414.25" y2="318.6216869990265" stroke="#000"/>
<line x1="393.1" y1="322.16152556049275" x2="414.25" y2="322.16152556049275" stroke="#000"/>
<line x1="403.675" y1="318.6216869990265" x2="403.675" y2="322.16152556049275" stroke="#000"/>
<line x1="393.1" y1="498.0" x2="393.1" y2="502.79999999999995" stroke="#000"/>
<text x="393.1" y="512.4" fill="#111" font-size="small" font-family="monospace" font-weight="bold" text-anchor="end" transform="rotate(-60, 393.1, 512.4)">
erubi
</text>
<rect x="435.40000000000003" y="338.0651093662852" width="21.15" height="159.93489063371467" fill="#7070f8" data-tooltip="1.00x baseline speed (No JIT)"/>
<line x1="435.40000000000003" y1="334.25448515169734" x2="456.55" y2="334.25448515169734" stroke="#000"/>
<line x1="435.40000000000003" y1="341.8757335808731" x2="456.55" y2="341.8757335808731" stroke="#000"/>
<line x1="445.975" y1="334.25448515169734" x2="445.975" y2="341.8757335808731" stroke="#000"/>
<rect x="456.55" y="350.3838072448975" width="21.15" height="147.6161927551024" fill="orange" data-tooltip="0.92x baseline speed (MJIT)"/>
<line x1="456.55" y1="343.15103685800364" x2="477.7" y2="343.15103685800364" stroke="#000"/>
<line x1="456.55" y1="357.6165776317914" x2="477.7" y2="357.6165776317914" stroke="#000"/>
<line x1="467.125" y1="343.15103685800364" x2="467.125" y2="357.6165776317914" stroke="#000"/>
<rect x="477.7" y="281.0197243411353" width="21.15" height="216.98027565886463" fill="green" data-tooltip="1.36x baseline speed (YJIT)"/>
<line x1="477.7" y1="272.3965539269005" x2="498.85" y2="272.3965539269005" stroke="#000"/>
<line x1="477.7" y1="289.64289475537015" x2="498.85" y2="289.64289475537015" stroke="#000"/>
<line x1="488.27500000000003" y1="272.3965539269005" x2="488.27500000000003" y2="289.64289475537015" stroke="#000"/>
<line x1="477.7" y1="498.0" x2="477.7" y2="502.79999999999995" stroke="#000"/>
<text x="477.7" y="512.4" fill="#111" font-size="small" font-family="monospace" font-weight="bold" text-anchor="end" transform="rotate(-60, 477.7, 512.4)">
erubi_rails
</text>
<rect x="520.0" y="338.0651093662852" width="21.15" height="159.93489063371467" fill="#7070f8" data-tooltip="1.00x baseline speed (No JIT)"/>
<line x1="520.0" y1="337.8066359222836" x2="541.15" y2="337.8066359222836" stroke="#000"/>
<line x1="520.0" y1="338.32358281028684" x2="541.15" y2="338.32358281028684" stroke="#000"/>
<line x1="530.575" y1="337.8066359222836" x2="530.575" y2="338.32358281028684" stroke="#000"/>
<rect x="541.15" y="223.3719263358155" width="21.15" height="274.62807366418446" fill="orange" data-tooltip="1.72x baseline speed (MJIT)"/>
<line x1="541.15" y1="222.87299621429668" x2="562.3000000000001" y2="222.87299621429668" stroke="#000"/>
<line x1="541.15" y1="223.87085645733427" x2="562.3000000000001" y2="223.87085645733427" stroke="#000"/>
<line x1="551.725" y1="222.87299621429668" x2="551.725" y2="223.87085645733427" stroke="#000"/>
<rect x="562.3000000000001" y="338.4040776400666" width="21.15" height="159.5959223599334" fill="green" data-tooltip="1.00x baseline speed (YJIT)"/>
<line x1="562.3000000000001" y1="338.137932852801" x2="583.45" y2="338.137932852801" stroke="#000"/>
<line x1="562.3000000000001" y1="338.67022242733213" x2="583.45" y2="338.67022242733213" stroke="#000"/>
<line x1="572.875" y1="338.137932852801" x2="572.875" y2="338.67022242733213" stroke="#000"/>
<line x1="562.3000000000001" y1="498.0" x2="562.3000000000001" y2="502.79999999999995" stroke="#000"/>
<text x="562.3000000000001" y="512.4" fill="#111" font-size="small" font-family="monospace" font-weight="bold" text-anchor="end" transform="rotate(-60, 562.3000000000001, 512.4)">
fannkuchredux
</text>
<rect x="604.5999999999999" y="338.0651093662852" width="21.15" height="159.93489063371467" fill="#7070f8" data-tooltip="1.00x baseline speed (No JIT)"/>
<line x1="604.5999999999999" y1="335.711719964609" x2="625.7499999999999" y2="335.711719964609" stroke="#000"/>
<line x1="604.5999999999999" y1="340.4184987679614" x2="625.7499999999999" y2="340.4184987679614" stroke="#000"/>
<line x1="615.175" y1="335.711719964609" x2="615.175" y2="340.4184987679614" stroke="#000"/>
<rect x="625.7499999999999" y="305.82846070086066" width="21.15" height="192.17153929913928" fill="orange" data-tooltip="1.20x baseline speed (MJIT)"/>
<line x1="625.7499999999999" y1="302.13160198832514" x2="646.8999999999999" y2="302.13160198832514" stroke="#000"/>
<line x1="625.7499999999999" y1="309.5253194133962" x2="646.8999999999999" y2="309.5253194133962" stroke="#000"/>
<line x1="636.3249999999999" y1="302.13160198832514" x2="636.3249999999999" y2="309.5253194133962" stroke="#000"/>
<rect x="646.8999999999999" y="291.98341444157717" width="21.15" height="206.01658555842278" fill="green" data-tooltip="1.29x baseline speed (YJIT)"/>
<line x1="646.8999999999999" y1="287.5201200665971" x2="668.05" y2="287.5201200665971" stroke="#000"/>
<line x1="646.8999999999999" y1="296.44670881655725" x2="668.05" y2="296.44670881655725" stroke="#000"/>
<line x1="657.4749999999999" y1="287.5201200665971" x2="657.4749999999999" y2="296.44670881655725" stroke="#000"/>
<line x1="646.8999999999999" y1="498.0" x2="646.8999999999999" y2="502.79999999999995" stroke="#000"/>
<text x="646.8999999999999" y="512.4" fill="#111" font-size="small" font-family="monospace" font-weight="bold" text-anchor="end" transform="rotate(-60, 646.8999999999999, 512.4)">
lee
</text>
<rect x="689.1999999999999" y="338.0651093662852" width="21.15" height="159.93489063371467" fill="#7070f8" data-tooltip="1.00x baseline speed (No JIT)"/>
<line x1="689.1999999999999" y1="337.55973529207415" x2="710.3499999999999" y2="337.55973529207415" stroke="#000"/>
<line x1="689.1999999999999" y1="338.5704834404963" x2="710.3499999999999" y2="338.5704834404963" stroke="#000"/>
<line x1="699.775" y1="337.55973529207415" x2="699.775" y2="338.5704834404963" stroke="#000"/>
<rect x="710.3499999999999" y="218.6857734796244" width="21.15" height="279.31422652037554" fill="orange" data-tooltip="1.75x baseline speed (MJIT)"/>
<line x1="710.3499999999999" y1="217.79846136285573" x2="731.4999999999999" y2="217.79846136285573" stroke="#000"/>
<line x1="710.3499999999999" y1="219.5730855963931" x2="731.4999999999999" y2="219.5730855963931" stroke="#000"/>
<line x1="720.925" y1="217.79846136285573" x2="720.925" y2="219.5730855963931" stroke="#000"/>
<rect x="731.4999999999999" y="279.9240698806068" width="21.15" height="218.07593011939315" fill="green" data-tooltip="1.36x baseline speed (YJIT)"/>
<line x1="731.4999999999999" y1="278.7479543006896" x2="752.65" y2="278.7479543006896" stroke="#000"/>
<line x1="731.4999999999999" y1="281.10018546052396" x2="752.65" y2="281.10018546052396" stroke="#000"/>
<line x1="742.0749999999999" y1="278.7479543006896" x2="742.0749999999999" y2="281.10018546052396" stroke="#000"/>
<line x1="731.4999999999999" y1="498.0" x2="731.4999999999999" y2="502.79999999999995" stroke="#000"/>
<text x="731.4999999999999" y="512.4" fill="#111" font-size="small" font-family="monospace" font-weight="bold" text-anchor="end" transform="rotate(-60, 731.4999999999999, 512.4)">
nbody
</text>
<rect x="773.8" y="338.0651093662852" width="21.15" height="159.93489063371467" fill="#7070f8" data-tooltip="1.00x baseline speed (No JIT)"/>
<line x1="773.8" y1="337.3752780620888" x2="794.9499999999999" y2="337.3752780620888" stroke="#000"/>
<line x1="773.8" y1="338.7549406704816" x2="794.9499999999999" y2="338.7549406704816" stroke="#000"/>
<line x1="784.3749999999999" y1="337.3752780620888" x2="784.3749999999999" y2="338.7549406704816" stroke="#000"/>
<rect x="794.9499999999999" y="100.19999999999999" width="21.15" height="397.79999999999995" fill="orange" data-tooltip="2.49x baseline speed (MJIT)"/>
<line x1="794.9499999999999" y1="97.16931332836" x2="816.0999999999999" y2="97.16931332836" stroke="#000"/>
<line x1="794.9499999999999" y1="103.23068667163997" x2="816.0999999999999" y2="103.23068667163997" stroke="#000"/>
<line x1="805.525" y1="97.16931332836" x2="805.525" y2="103.23068667163997" stroke="#000"/>
<rect x="816.0999999999999" y="206.07797446582413" width="21.15" height="291.9220255341758" fill="green" data-tooltip="1.83x baseline speed (YJIT)"/>
<line x1="816.0999999999999" y1="204.00193036396482" x2="837.2499999999999" y2="204.00193036396482" stroke="#000"/>
<line x1="816.0999999999999" y1="208.15401856768344" x2="837.2499999999999" y2="208.15401856768344" stroke="#000"/>
<line x1="826.675" y1="204.00193036396482" x2="826.675" y2="208.15401856768344" stroke="#000"/>
<line x1="816.0999999999999" y1="498.0" x2="816.0999999999999" y2="502.79999999999995" stroke="#000"/>
<text x="816.0999999999999" y="512.4" fill="#111" font-size="small" font-family="monospace" font-weight="bold" text-anchor="end" transform="rotate(-60, 816.0999999999999, 512.4)">
optcarrot
</text>
<rect x="858.4" y="338.0651093662852" width="21.15" height="159.93489063371467" fill="#7070f8" data-tooltip="1.00x baseline speed (No JIT)"/>
<line x1="858.4" y1="337.5120242388118" x2="879.55" y2="337.5120242388118" stroke="#000"/>
<line x1="858.4" y1="338.61819449375855" x2="879.55" y2="338.61819449375855" stroke="#000"/>
<line x1="868.9749999999999" y1="337.5120242388118" x2="868.9749999999999" y2="338.61819449375855" stroke="#000"/>
<rect x="879.55" y="294.45277679869304" width="21.15" height="203.54722320130688" fill="orange" data-tooltip="1.27x baseline speed (MJIT)"/>
<line x1="879.55" y1="287.08615343423224" x2="900.6999999999999" y2="287.08615343423224" stroke="#000"/>
<line x1="879.55" y1="301.8194001631539" x2="900.6999999999999" y2="301.8194001631539" stroke="#000"/>
<line x1="890.125" y1="287.08615343423224" x2="890.125" y2="301.8194001631539" stroke="#000"/>
<rect x="900.6999999999999" y="252.123400379928" width="21.15" height="245.87659962007194" fill="green" data-tooltip="1.54x baseline speed (YJIT)"/>
<line x1="900.6999999999999" y1="251.05747065993287" x2="921.8499999999999" y2="251.05747065993287" stroke="#000"/>
<line x1="900.6999999999999" y1="253.18933009992315" x2="921.8499999999999" y2="253.18933009992315" stroke="#000"/>
<line x1="911.275" y1="251.05747065993287" x2="911.275" y2="253.18933009992315" stroke="#000"/>
<line x1="900.6999999999999" y1="498.0" x2="900.6999999999999" y2="502.79999999999995" stroke="#000"/>
<text x="900.6999999999999" y="512.4" fill="#111" font-size="small" font-family="monospace" font-weight="bold" text-anchor="end" transform="rotate(-60, 900.6999999999999, 512.4)">
rubykon
</text>
</svg>