<svg viewBox="0 0 1000 600" xmlns="http://www.w3.org/2000/svg" xmlns:xlink="http://www.w3.org/1999/xlink" width="100%" height="100%">

<rect x="50.0" y="30.0" width="940.0" height="467.99999999999994" stroke="#000" fill="#EEE"/>
<line x1="42.0" y1="497.9999999999999" x2="50.0" y2="497.9999999999999" stroke="#000"/>
<text x="26.000000000000004" y="497.9999999999999" text-anchor="end" font-weight="bold" font-size="small" fill="#111">
0.0
</text>
<line x1="42.0" y1="442.64917003729073" x2="50.0" y2="442.64917003729073" stroke="#000"/>
<text x="26.000000000000004" y="442.64917003729073" text-anchor="end" font-weight="bold" font-size="small" fill="#111">
0.5
</text>
<line x1="42.0" y1="387.2983400745815" x2="50.0" y2="387.2983400745815" stroke="#000"/>
<text x="26.000000000000004" y="387.2983400745815" text-anchor="end" font-weight="bold" font-size="small" fill="#111">
1.0
</text>
<line x1="42.0" y1="331.94751011187236" x2="50.0" y2="331.94751011187236" stroke="#000"/>
<text x="26.000000000000004" y="331.94751011187236" text-anchor="end" font-weight="bold" font-size="small" fill="#111">
1.5
</text>
<line x1="42.0" y1="276.5966801491631" x2="50.0" y2="276.5966801491631" stroke="#000"/>
<text x="26.000000000000004" y="276.5966801491631" text-anchor="end" font-weight="bold" font-size="small" fill="#111">
2.0
</text>
<line x1="42.0" y1="221.24585018645388" x2="50.0" y2="221.24585018645388" stroke="#000"/>
<text x="26.000000000000004" y="221.24585018645388" text-anchor="end" font-weight="bold" font-size="small" fill="#111">
2.5
</text>
<line x1="42.0" y1="165.8950202237447" x2="50.0" y2="165.8950202237447" stroke="#000"/>
<text x="26.000000000000004" y="165.8950202237447" text-anchor="end" font-weight="bold" font-size="small" fill="#111">
3.0
</text>
<line x1="42.0" y1="110.54419026103544" x2="50.0" y2="110.54419026103544" stroke="#000"/>
<text x="26.000000000000004" y="110.54419026103544" text-anchor="end" font-weight="bold" font-size="small" fill="#111">
3.5
</text>
<rect x="268.5" y="36.00000000000001" width="80.0" height="18.0" fill="#7070f8" stroke="#888"/>
<text x="308.5" y="52.50000000000001" font-size="small" text-anchor="middle" font-weight="bold" fill="#EEE">
No JIT
</text>
<rect x="691.4999999999999" y="36.00000000000001" width="80.0" height="18.0" fill="orange" stroke="#888"/>
<text x="731.4999999999999" y="52.50000000000001" font-size="small" text-anchor="middle" font-weight="bold" fill="#EEE">
YJIT
</text>
<rect x="97.0" y="387.2983400745815" width="28.2" height="110.70165992541844" fill="#7070f8" data-tooltip="1.00x baseline speed (No JIT)"/>
<line x1="97.0" y1="386.9209925148436" x2="125.2" y2="386.9209925148436" stroke="#000"/>
<line x1="97.0" y1="387.67568763431944" x2="125.2" y2="387.67568763431944" stroke="#000"/>
<line x1="111.10000000000001" y1="386.9209925148436" x2="111.10000000000001" y2="387.67568763431944" stroke="#000"/>
<rect x="125.2" y="267.4302617598741" width="28.2" height="230.56973824012584" fill="orange" data-tooltip="2.08x baseline speed (YJIT)"/>
<line x1="125.2" y1="266.5773667113177" x2="153.4" y2="266.5773667113177" stroke="#000"/>
<line x1="125.2" y1="268.2831568084305" x2="153.4" y2="268.2831568084305" stroke="#000"/>
<line x1="139.3" y1="266.5773667113177" x2="139.3" y2="268.2831568084305" stroke="#000"/>
<line x1="139.3" y1="498.0" x2="139.3" y2="502.79999999999995" stroke="#000"/>
<text x="139.3" y="512.4" fill="#111" font-size="small" font-family="monospace" font-weight="bold" text-anchor="end" transform="rotate(-60, 139.3, 512.4)">
binarytrees
</text>
<rect x="181.6" y="387.2983400745815" width="28.2" height="110.70165992541844" fill="#7070f8" data-tooltip="1.00x baseline speed (No JIT)"/>
<line x1="181.6" y1="387.15805483525116" x2="209.79999999999998" y2="387.15805483525116" stroke="#000"/>
<line x1="181.6" y1="387.43862531391187" x2="209.79999999999998" y2="387.43862531391187" stroke="#000"/>
<line x1="195.7" y1="387.15805483525116" x2="195.7" y2="387.43862531391187" stroke="#000"/>
<rect x="209.79999999999998" y="324.31599197612564" width="28.2" height="173.68400802387433" fill="orange" data-tooltip="1.57x baseline speed (YJIT)"/>
<line x1="209.79999999999998" y1="323.9981577467642" x2="238.0" y2="323.9981577467642" stroke="#000"/>
<line x1="209.79999999999998" y1="324.63382620548714" x2="238.0" y2="324.63382620548714" stroke="#000"/>
<line x1="223.89999999999998" y1="323.9981577467642" x2="223.89999999999998" y2="324.63382620548714" stroke="#000"/>
<line x1="223.89999999999998" y1="498.0" x2="223.89999999999998" y2="502.79999999999995" stroke="#000"/>
<text x="223.89999999999998" y="512.4" fill="#111" font-size="small" font-family="monospace" font-weight="bold" text-anchor="end" transform="rotate(-60, 223.89999999999998, 512.4)">
chunky_png
</text>
<rect x="266.2" y="387.2983400745815" width="28.2" height="110.70165992541844" fill="#7070f8" data-tooltip="1.00x baseline speed (No JIT)"/>
<line x1="266.2" y1="386.377946606666" x2="294.4" y2="386.377946606666" stroke="#000"/>
<line x1="266.2" y1="388.2187335424971" x2="294.4" y2="388.2187335424971" stroke="#000"/>
<line x1="280.3" y1="386.377946606666" x2="280.3" y2="388.2187335424971" stroke="#000"/>
<rect x="294.4" y="371.9175848572101" width="28.2" height="126.0824151427898" fill="orange" data-tooltip="1.14x baseline speed (YJIT)"/>
<line x1="294.4" y1="370.3726661186778" x2="322.6" y2="370.3726661186778" stroke="#000"/>
<line x1="294.4" y1="373.4625035957424" x2="322.6" y2="373.4625035957424" stroke="#000"/>
<line x1="308.5" y1="370.3726661186778" x2="308.5" y2="373.4625035957424" stroke="#000"/>
<line x1="308.5" y1="498.0" x2="308.5" y2="502.79999999999995" stroke="#000"/>
<text x="308.5" y="512.4" fill="#111" font-size="small" font-family="monospace" font-weight="bold" text-anchor="end" transform="rotate(-60, 308.5, 512.4)">
erubi
</text>
<rect x="350.8" y="387.2983400745815" width="28.2" height="110.70165992541844" fill="#7070f8" data-tooltip="1.00x baseline speed (No JIT)"/>
<line x1="350.8" y1="386.834925293214" x2="379.0" y2="386.834925293214" stroke="#000"/>
<line x1="350.8" y1="387.7617548559491" x2="379.0" y2="387.7617548559491" stroke="#000"/>
<line x1="364.9" y1="386.834925293214" x2="364.9" y2="387.7617548559491" stroke="#000"/>
<rect x="379.0" y="384.45135072379315" width="28.2" height="113.54864927620673" fill="orange" data-tooltip="1.03x baseline speed (YJIT)"/>
<line x1="379.0" y1="383.75011584614094" x2="407.2" y2="383.75011584614094" stroke="#000"/>
<line x1="379.0" y1="385.1525856014454" x2="407.2" y2="385.1525856014454" stroke="#000"/>
<line x1="393.1" y1="383.75011584614094" x2="393.1" y2="385.1525856014454" stroke="#000"/>
<line x1="393.1" y1="498.0" x2="393.1" y2="502.79999999999995" stroke="#000"/>
<text x="393.1" y="512.4" fill="#111" font-size="small" font-family="monospace" font-weight="bold" text-anchor="end" transform="rotate(-60, 393.1, 512.4)">
etanni
</text>
<rect x="435.40000000000003" y="387.2983400745815" width="28.2" height="110.70165992541844" fill="#7070f8" data-tooltip="1.00x baseline speed (No JIT)"/>
<line x1="435.40000000000003" y1="386.3594486717947" x2="463.6" y2="386.3594486717947" stroke="#000"/>
<line x1="435.40000000000003" y1="388.2372314773683" x2="463.6" y2="388.2372314773683" stroke="#000"/>
<line x1="449.5" y1="386.3594486717947" x2="449.5" y2="388.2372314773683" stroke="#000"/>
<rect x="463.6" y="100.19999999999999" width="28.2" height="397.79999999999995" fill="orange" data-tooltip="3.59x baseline speed (YJIT)"/>
<line x1="463.6" y1="96.66529346199253" x2="491.8" y2="96.66529346199253" stroke="#000"/>
<line x1="463.6" y1="103.73470653800744" x2="491.8" y2="103.73470653800744" stroke="#000"/>
<line x1="477.7" y1="96.66529346199253" x2="477.7" y2="103.73470653800744" stroke="#000"/>
<line x1="477.7" y1="498.0" x2="477.7" y2="502.79999999999995" stroke="#000"/>
<text x="477.7" y="512.4" fill="#111" font-size="small" font-family="monospace" font-weight="bold" text-anchor="end" transform="rotate(-60, 477.7, 512.4)">
fannkuchredux
</text>
<rect x="520.0" y="387.2983400745815" width="28.2" height="110.70165992541844" fill="#7070f8" data-tooltip="1.00x baseline speed (No JIT)"/>
<line x1="520.0" y1="387.0488885998392" x2="548.2" y2="387.0488885998392" stroke="#000"/>
<line x1="520.0" y1="387.5477915493239" x2="548.2" y2="387.5477915493239" stroke="#000"/>
<line x1="534.1" y1="387.0488885998392" x2="534.1" y2="387.5477915493239" stroke="#000"/>
<rect x="548.2" y="337.233301963267" width="28.2" height="160.7666980367329" fill="orange" data-tooltip="1.45x baseline speed (YJIT)"/>
<line x1="548.2" y1="336.67388117755894" x2="576.4" y2="336.67388117755894" stroke="#000"/>
<line x1="548.2" y1="337.7927227489751" x2="576.4" y2="337.7927227489751" stroke="#000"/>
<line x1="562.3000000000001" y1="336.67388117755894" x2="562.3000000000001" y2="337.7927227489751" stroke="#000"/>
<line x1="562.3000000000001" y1="498.0" x2="562.3000000000001" y2="502.79999999999995" stroke="#000"/>
<text x="562.3000000000001" y="512.4" fill="#111" font-size="small" font-family="monospace" font-weight="bold" text-anchor="end" transform="rotate(-60, 562.3000000000001, 512.4)">
lee
</text>
<rect x="604.5999999999999" y="387.2983400745815" width="28.2" height="110.70165992541844" fill="#7070f8" data-tooltip="1.00x baseline speed (No JIT)"/>
<line x1="604.5999999999999" y1="386.4949062279091" x2="632.8" y2="386.4949062279091" stroke="#000"/>
<line x1="604.5999999999999" y1="388.101773921254" x2="632.8" y2="388.101773921254" stroke="#000"/>
<line x1="618.6999999999999" y1="386.4949062279091" x2="618.6999999999999" y2="388.101773921254" stroke="#000"/>
<rect x="632.8" y="294.49605688349214" width="28.2" height="203.5039431165078" fill="orange" data-tooltip="1.84x baseline speed (YJIT)"/>
<line x1="632.8" y1="293.01212420850317" x2="660.9999999999999" y2="293.01212420850317" stroke="#000"/>
<line x1="632.8" y1="295.97998955848107" x2="660.9999999999999" y2="295.97998955848107" stroke="#000"/>
<line x1="646.8999999999999" y1="293.01212420850317" x2="646.8999999999999" y2="295.97998955848107" stroke="#000"/>
<line x1="646.8999999999999" y1="498.0" x2="646.8999999999999" y2="502.79999999999995" stroke="#000"/>
<text x="646.8999999999999" y="512.4" fill="#111" font-size="small" font-family="monospace" font-weight="bold" text-anchor="end" transform="rotate(-60, 646.8999999999999, 512.4)">
nbody
</text>
<rect x="689.1999999999999" y="387.2983400745815" width="28.2" height="110.70165992541844" fill="#7070f8" data-tooltip="1.00x baseline speed (No JIT)"/>
<line x1="689.1999999999999" y1="386.55408954368403" x2="717.4" y2="386.55408954368403" stroke="#000"/>
<line x1="689.1999999999999" y1="388.042590605479" x2="717.4" y2="388.042590605479" stroke="#000"/>
<line x1="703.3" y1="386.55408954368403" x2="703.3" y2="388.042590605479" stroke="#000"/>
<rect x="717.4" y="288.4938312549502" width="28.2" height="209.5061687450498" fill="orange" data-tooltip="1.89x baseline speed (YJIT)"/>
<line x1="717.4" y1="286.7197641859721" x2="745.5999999999999" y2="286.7197641859721" stroke="#000"/>
<line x1="717.4" y1="290.2678983239282" x2="745.5999999999999" y2="290.2678983239282" stroke="#000"/>
<line x1="731.4999999999999" y1="286.7197641859721" x2="731.4999999999999" y2="290.2678983239282" stroke="#000"/>
<line x1="731.4999999999999" y1="498.0" x2="731.4999999999999" y2="502.79999999999995" stroke="#000"/>
<text x="731.4999999999999" y="512.4" fill="#111" font-size="small" font-family="monospace" font-weight="bold" text-anchor="end" transform="rotate(-60, 731.4999999999999, 512.4)">
optcarrot
</text>
<rect x="773.8" y="387.2983400745815" width="28.2" height="110.70165992541844" fill="#7070f8" data-tooltip="1.00x baseline speed (No JIT)"/>
<line x1="773.8" y1="387.10405536047875" x2="801.9999999999999" y2="387.10405536047875" stroke="#000"/>
<line x1="773.8" y1="387.4926247886843" x2="801.9999999999999" y2="387.4926247886843" stroke="#000"/>
<line x1="787.9" y1="387.10405536047875" x2="787.9" y2="387.4926247886843" stroke="#000"/>
<rect x="801.9999999999999" y="366.246235928025" width="28.2" height="131.75376407197496" fill="orange" data-tooltip="1.19x baseline speed (YJIT)"/>
<line x1="801.9999999999999" y1="365.6701561036375" x2="830.1999999999999" y2="365.6701561036375" stroke="#000"/>
<line x1="801.9999999999999" y1="366.82231575241246" x2="830.1999999999999" y2="366.82231575241246" stroke="#000"/>
<line x1="816.0999999999999" y1="365.6701561036375" x2="816.0999999999999" y2="366.82231575241246" stroke="#000"/>
<line x1="816.0999999999999" y1="498.0" x2="816.0999999999999" y2="502.79999999999995" stroke="#000"/>
<text x="816.0999999999999" y="512.4" fill="#111" font-size="small" font-family="monospace" font-weight="bold" text-anchor="end" transform="rotate(-60, 816.0999999999999, 512.4)">
ruby-json
</text>
<rect x="858.4" y="387.2983400745815" width="28.2" height="110.70165992541844" fill="#7070f8" data-tooltip="1.00x baseline speed (No JIT)"/>
<line x1="858.4" y1="386.49452707350065" x2="886.5999999999999" y2="386.49452707350065" stroke="#000"/>
<line x1="858.4" y1="388.1021530756624" x2="886.5999999999999" y2="388.1021530756624" stroke="#000"/>
<line x1="872.4999999999999" y1="386.49452707350065" x2="872.4999999999999" y2="388.1021530756624" stroke="#000"/>
<rect x="886.5999999999999" y="308.83309397818596" width="28.2" height="189.166906021814" fill="orange" data-tooltip="1.71x baseline speed (YJIT)"/>
<line x1="886.5999999999999" y1="307.2998475750169" x2="914.8" y2="307.2998475750169" stroke="#000"/>
<line x1="886.5999999999999" y1="310.366340381355" x2="914.8" y2="310.366340381355" stroke="#000"/>
<line x1="900.6999999999999" y1="307.2998475750169" x2="900.6999999999999" y2="310.366340381355" stroke="#000"/>
<line x1="900.6999999999999" y1="498.0" x2="900.6999999999999" y2="502.79999999999995" stroke="#000"/>
<text x="900.6999999999999" y="512.4" fill="#111" font-size="small" font-family="monospace" font-weight="bold" text-anchor="end" transform="rotate(-60, 900.6999999999999, 512.4)">
rubykon
</text>
</svg>