<svg viewBox="0 0 1000 600" xmlns="http://www.w3.org/2000/svg" xmlns:xlink="http://www.w3.org/1999/xlink" width="100%" height="100%">

<rect x="50.0" y="30.0" width="940.0" height="467.99999999999994" stroke="#000" fill="#EEE"/>
<line x1="42.0" y1="497.9999999999999" x2="50.0" y2="497.9999999999999" stroke="#000"/>
<text x="26.000000000000004" y="497.9999999999999" text-anchor="end" font-weight="bold" font-size="small" fill="#111">
0.0
</text>
<line x1="42.0" y1="447.8773385902046" x2="50.0" y2="447.8773385902046" stroke="#000"/>
<text x="26.000000000000004" y="447.8773385902046" text-anchor="end" font-weight="bold" font-size="small" fill="#111">
0.2
</text>
<line x1="42.0" y1="397.7546771804093" x2="50.0" y2="397.7546771804093" stroke="#000"/>
<text x="26.000000000000004" y="397.7546771804093" text-anchor="end" font-weight="bold" font-size="small" fill="#111">
0.4
</text>
<line x1="42.0" y1="347.63201577061403" x2="50.0" y2="347.63201577061403" stroke="#000"/>
<text x="26.000000000000004" y="347.63201577061403" text-anchor="end" font-weight="bold" font-size="small" fill="#111">
0.6
</text>
<line x1="42.0" y1="297.50935436081875" x2="50.0" y2="297.50935436081875" stroke="#000"/>
<text x="26.000000000000004" y="297.50935436081875" text-anchor="end" font-weight="bold" font-size="small" fill="#111">
0.8
</text>
<line x1="42.0" y1="247.38669295102346" x2="50.0" y2="247.38669295102346" stroke="#000"/>
<text x="26.000000000000004" y="247.38669295102346" text-anchor="end" font-weight="bold" font-size="small" fill="#111">
1.0
</text>
<line x1="42.0" y1="197.26403154122818" x2="50.0" y2="197.26403154122818" stroke="#000"/>
<text x="26.000000000000004" y="197.26403154122818" text-anchor="end" font-weight="bold" font-size="small" fill="#111">
1.2
</text>
<line x1="42.0" y1="147.1413701314329" x2="50.0" y2="147.1413701314329" stroke="#000"/>
<text x="26.000000000000004" y="147.1413701314329" text-anchor="end" font-weight="bold" font-size="small" fill="#111">
1.4
</text>
<rect x="268.5" y="36.00000000000001" width="80.0" height="18.0" fill="#7070f8" stroke="#888"/>
<text x="308.5" y="52.50000000000001" font-size="small" text-anchor="middle" font-weight="bold" fill="#EEE">
No JIT
</text>
<rect x="691.4999999999999" y="36.00000000000001" width="80.0" height="18.0" fill="orange" stroke="#888"/>
<text x="731.4999999999999" y="52.50000000000001" font-size="small" text-anchor="middle" font-weight="bold" fill="#EEE">
YJIT
</text>
<rect x="97.0" y="247.38669295102346" width="40.285714285714285" height="250.61330704897648" fill="#7070f8" data-tooltip="1.00x baseline speed (No JIT)"/>
<line x1="97.0" y1="245.8714627416112" x2="137.28571428571428" y2="245.8714627416112" stroke="#000"/>
<line x1="97.0" y1="248.90192316043573" x2="137.28571428571428" y2="248.90192316043573" stroke="#000"/>
<line x1="117.14285714285714" y1="245.8714627416112" x2="117.14285714285714" y2="248.90192316043573" stroke="#000"/>
<rect x="137.28571428571428" y="105.1896310383851" width="40.285714285714285" height="392.8103689616148" fill="orange" data-tooltip="1.57x baseline speed (YJIT)"/>
<line x1="137.28571428571428" y1="101.5723250976451" x2="177.57142857142858" y2="101.5723250976451" stroke="#000"/>
<line x1="137.28571428571428" y1="108.80693697912508" x2="177.57142857142858" y2="108.80693697912508" stroke="#000"/>
<line x1="157.42857142857142" y1="101.5723250976451" x2="157.42857142857142" y2="108.80693697912508" stroke="#000"/>
<line x1="157.42857142857142" y1="498.0" x2="157.42857142857142" y2="502.79999999999995" stroke="#000"/>
<text x="157.42857142857142" y="512.4" fill="#111" font-size="small" font-family="monospace" font-weight="bold" text-anchor="end" transform="rotate(-60, 157.42857142857142, 512.4)">
activerecord
</text>
<rect x="217.85714285714286" y="247.38669295102346" width="40.285714285714285" height="250.61330704897648" fill="#7070f8" data-tooltip="1.00x baseline speed (No JIT)"/>
<line x1="217.85714285714286" y1="245.54500839543383" x2="258.1428571428571" y2="245.54500839543383" stroke="#000"/>
<line x1="217.85714285714286" y1="249.22837750661313" x2="258.1428571428571" y2="249.22837750661313" stroke="#000"/>
<line x1="238.0" y1="245.54500839543383" x2="238.0" y2="249.22837750661313" stroke="#000"/>
<rect x="258.1428571428571" y="135.5606636305075" width="40.285714285714285" height="362.4393363694924" fill="orange" data-tooltip="1.45x baseline speed (YJIT)"/>
<line x1="258.1428571428571" y1="128.0803344822019" x2="298.4285714285714" y2="128.0803344822019" stroke="#000"/>
<line x1="258.1428571428571" y1="143.04099277881306" x2="298.4285714285714" y2="143.04099277881306" stroke="#000"/>
<line x1="278.2857142857142" y1="128.0803344822019" x2="278.2857142857142" y2="143.04099277881306" stroke="#000"/>
<line x1="278.2857142857143" y1="498.0" x2="278.2857142857143" y2="502.79999999999995" stroke="#000"/>
<text x="278.2857142857143" y="512.4" fill="#111" font-size="small" font-family="monospace" font-weight="bold" text-anchor="end" transform="rotate(-60, 278.2857142857143, 512.4)">
hexapdf
</text>
<rect x="338.7142857142857" y="247.38669295102346" width="40.285714285714285" height="250.61330704897648" fill="#7070f8" data-tooltip="1.00x baseline speed (No JIT)"/>
<line x1="338.7142857142857" y1="245.46656587712027" x2="379.0" y2="245.46656587712027" stroke="#000"/>
<line x1="338.7142857142857" y1="249.30682002492665" x2="379.0" y2="249.30682002492665" stroke="#000"/>
<line x1="358.8571428571429" y1="245.46656587712027" x2="358.8571428571429" y2="249.30682002492665" stroke="#000"/>
<rect x="379.0" y="100.19999999999999" width="40.285714285714285" height="397.79999999999995" fill="orange" data-tooltip="1.59x baseline speed (YJIT)"/>
<line x1="379.0" y1="93.10547628747717" x2="419.2857142857143" y2="93.10547628747717" stroke="#000"/>
<line x1="379.0" y1="107.2945237125228" x2="419.2857142857143" y2="107.2945237125228" stroke="#000"/>
<line x1="399.1428571428571" y1="93.10547628747717" x2="399.1428571428571" y2="107.2945237125228" stroke="#000"/>
<line x1="399.14285714285717" y1="498.0" x2="399.14285714285717" y2="502.79999999999995" stroke="#000"/>
<text x="399.14285714285717" y="512.4" fill="#111" font-size="small" font-family="monospace" font-weight="bold" text-anchor="end" transform="rotate(-60, 399.14285714285717, 512.4)">
liquid-render
</text>
<rect x="459.5714285714285" y="247.38669295102346" width="40.285714285714285" height="250.61330704897648" fill="#7070f8" data-tooltip="1.00x baseline speed (No JIT)"/>
<line x1="459.5714285714285" y1="247.00987484332268" x2="499.8571428571428" y2="247.00987484332268" stroke="#000"/>
<line x1="459.5714285714285" y1="247.76351105872425" x2="499.8571428571428" y2="247.76351105872425" stroke="#000"/>
<line x1="479.71428571428567" y1="247.00987484332268" x2="479.71428571428567" y2="247.76351105872425" stroke="#000"/>
<rect x="499.8571428571428" y="203.0497973651839" width="40.285714285714285" height="294.95020263481604" fill="orange" data-tooltip="1.18x baseline speed (YJIT)"/>
<line x1="499.8571428571428" y1="202.38651139082643" x2="540.142857142857" y2="202.38651139082643" stroke="#000"/>
<line x1="499.8571428571428" y1="203.71308333954136" x2="540.142857142857" y2="203.71308333954136" stroke="#000"/>
<line x1="519.9999999999999" y1="202.38651139082643" x2="519.9999999999999" y2="203.71308333954136" stroke="#000"/>
<line x1="519.9999999999999" y1="498.0" x2="519.9999999999999" y2="502.79999999999995" stroke="#000"/>
<text x="519.9999999999999" y="512.4" fill="#111" font-size="small" font-family="monospace" font-weight="bold" text-anchor="end" transform="rotate(-60, 519.9999999999999, 512.4)">
mail
</text>
<rect x="580.4285714285714" y="247.38669295102346" width="40.285714285714285" height="250.61330704897648" fill="#7070f8" data-tooltip="1.00x baseline speed (No JIT)"/>
<line x1="580.4285714285714" y1="247.2975682919453" x2="620.7142857142857" y2="247.2975682919453" stroke="#000"/>
<line x1="580.4285714285714" y1="247.47581761010161" x2="620.7142857142857" y2="247.47581761010161" stroke="#000"/>
<line x1="600.5714285714286" y1="247.2975682919453" x2="600.5714285714286" y2="247.47581761010161" stroke="#000"/>
<rect x="620.7142857142857" y="149.3501470471693" width="40.285714285714285" height="348.64985295283066" fill="orange" data-tooltip="1.39x baseline speed (YJIT)"/>
<line x1="620.7142857142857" y1="149.13270462953548" x2="660.9999999999999" y2="149.13270462953548" stroke="#000"/>
<line x1="620.7142857142857" y1="149.56758946480312" x2="660.9999999999999" y2="149.56758946480312" stroke="#000"/>
<line x1="640.8571428571428" y1="149.13270462953548" x2="640.8571428571428" y2="149.56758946480312" stroke="#000"/>
<line x1="640.8571428571428" y1="498.0" x2="640.8571428571428" y2="502.79999999999995" stroke="#000"/>
<text x="640.8571428571428" y="512.4" fill="#111" font-size="small" font-family="monospace" font-weight="bold" text-anchor="end" transform="rotate(-60, 640.8571428571428, 512.4)">
psych-load
</text>
<rect x="701.2857142857143" y="247.38669295102346" width="40.285714285714285" height="250.61330704897648" fill="#7070f8" data-tooltip="1.00x baseline speed (No JIT)"/>
<line x1="701.2857142857143" y1="245.39164255249753" x2="741.5714285714286" y2="245.39164255249753" stroke="#000"/>
<line x1="701.2857142857143" y1="249.3817433495494" x2="741.5714285714286" y2="249.3817433495494" stroke="#000"/>
<line x1="721.4285714285714" y1="245.39164255249753" x2="721.4285714285714" y2="249.3817433495494" stroke="#000"/>
<rect x="741.5714285714286" y="147.21781816070583" width="40.285714285714285" height="350.7821818392941" fill="orange" data-tooltip="1.40x baseline speed (YJIT)"/>
<line x1="741.5714285714286" y1="140.9039279761516" x2="781.8571428571428" y2="140.9039279761516" stroke="#000"/>
<line x1="741.5714285714286" y1="153.53170834526006" x2="781.8571428571428" y2="153.53170834526006" stroke="#000"/>
<line x1="761.7142857142857" y1="140.9039279761516" x2="761.7142857142857" y2="153.53170834526006" stroke="#000"/>
<line x1="761.7142857142857" y1="498.0" x2="761.7142857142857" y2="502.79999999999995" stroke="#000"/>
<text x="761.7142857142857" y="512.4" fill="#111" font-size="small" font-family="monospace" font-weight="bold" text-anchor="end" transform="rotate(-60, 761.7142857142857, 512.4)">
railsbench
</text>
<rect x="822.1428571428571" y="247.38669295102346" width="40.285714285714285" height="250.61330704897648" fill="#7070f8" data-tooltip="1.00x baseline speed (No JIT)"/>
<line x1="822.1428571428571" y1="226.112173027377" x2="862.4285714285713" y2="226.112173027377" stroke="#000"/>
<line x1="822.1428571428571" y1="268.66121287466996" x2="862.4285714285713" y2="268.66121287466996" stroke="#000"/>
<line x1="842.2857142857142" y1="226.112173027377" x2="842.2857142857142" y2="268.66121287466996" stroke="#000"/>
<rect x="862.4285714285713" y="212.59380650355294" width="40.285714285714285" height="285.40619349644703" fill="orange" data-tooltip="1.14x baseline speed (YJIT)"/>
<line x1="862.4285714285713" y1="156.1513351628195" x2="902.7142857142856" y2="156.1513351628195" stroke="#000"/>
<line x1="862.4285714285713" y1="269.03627784428636" x2="902.7142857142856" y2="269.03627784428636" stroke="#000"/>
<line x1="882.5714285714284" y1="156.1513351628195" x2="882.5714285714284" y2="269.03627784428636" stroke="#000"/>
<line x1="882.5714285714284" y1="498.0" x2="882.5714285714284" y2="502.79999999999995" stroke="#000"/>
<text x="882.5714285714284" y="512.4" fill="#111" font-size="small" font-family="monospace" font-weight="bold" text-anchor="end" transform="rotate(-60, 882.5714285714284, 512.4)">
ruby-lsp
</text>
</svg>