<svg viewBox="0 0 1000 600" xmlns="http://www.w3.org/2000/svg" xmlns:xlink="http://www.w3.org/1999/xlink" width="100%" height="100%">

<rect x="50.0" y="30.0" width="940.0" height="467.99999999999994" stroke="#000" fill="#EEE"/>
<line x1="42.0" y1="497.9999999999999" x2="50.0" y2="497.9999999999999" stroke="#000"/>
<text x="26.000000000000004" y="497.9999999999999" text-anchor="end" font-weight="bold" font-size="small" fill="#111">
0.0
</text>
<line x1="42.0" y1="446.0300758174917" x2="50.0" y2="446.0300758174917" stroke="#000"/>
<text x="26.000000000000004" y="446.0300758174917" text-anchor="end" font-weight="bold" font-size="small" fill="#111">
1.0
</text>
<line x1="42.0" y1="394.06015163498347" x2="50.0" y2="394.06015163498347" stroke="#000"/>
<text x="26.000000000000004" y="394.06015163498347" text-anchor="end" font-weight="bold" font-size="small" fill="#111">
2.0
</text>
<line x1="42.0" y1="342.09022745247523" x2="50.0" y2="342.09022745247523" stroke="#000"/>
<text x="26.000000000000004" y="342.09022745247523" text-anchor="end" font-weight="bold" font-size="small" fill="#111">
3.0
</text>
<line x1="42.0" y1="290.12030326996694" x2="50.0" y2="290.12030326996694" stroke="#000"/>
<text x="26.000000000000004" y="290.12030326996694" text-anchor="end" font-weight="bold" font-size="small" fill="#111">
4.0
</text>
<line x1="42.0" y1="238.15037908745873" x2="50.0" y2="238.15037908745873" stroke="#000"/>
<text x="26.000000000000004" y="238.15037908745873" text-anchor="end" font-weight="bold" font-size="small" fill="#111">
5.0
</text>
<line x1="42.0" y1="186.18045490495052" x2="50.0" y2="186.18045490495052" stroke="#000"/>
<text x="26.000000000000004" y="186.18045490495052" text-anchor="end" font-weight="bold" font-size="small" fill="#111">
6.0
</text>
<line x1="42.0" y1="134.21053072244226" x2="50.0" y2="134.21053072244226" stroke="#000"/>
<text x="26.000000000000004" y="134.21053072244226" text-anchor="end" font-weight="bold" font-size="small" fill="#111">
7.0
</text>
<rect x="197.99999999999997" y="36.00000000000001" width="80.0" height="18.0" fill="#7070f8" stroke="#888"/>
<text x="238.0" y="52.50000000000001" font-size="small" text-anchor="middle" font-weight="bold" fill="#EEE">
No JIT
</text>
<rect x="479.99999999999994" y="36.00000000000001" width="80.0" height="18.0" fill="orange" stroke="#888"/>
<text x="519.9999999999999" y="52.50000000000001" font-size="small" text-anchor="middle" font-weight="bold" fill="#EEE">
MJIT
</text>
<rect x="761.9999999999999" y="36.00000000000001" width="80.0" height="18.0" fill="green" stroke="#888"/>
<text x="801.9999999999999" y="52.50000000000001" font-size="small" text-anchor="middle" font-weight="bold" fill="#EEE">
YJIT
</text>
<rect x="97.0" y="446.0300758174917" width="8.8125" height="51.969924182508244" fill="#7070f8" data-tooltip="1.00x baseline speed (No JIT)"/>
<line x1="97.0" y1="445.80830089816976" x2="105.8125" y2="445.80830089816976" stroke="#000"/>
<line x1="97.0" y1="446.2518507368137" x2="105.8125" y2="446.2518507368137" stroke="#000"/>
<line x1="101.40625" y1="445.80830089816976" x2="101.40625" y2="446.2518507368137" stroke="#000"/>
<rect x="105.8125" y="453.1070664395224" width="8.8125" height="44.89293356047757" fill="orange" data-tooltip="0.86x baseline speed (MJIT)"/>
<line x1="105.8125" y1="451.5582461686922" x2="114.625" y2="451.5582461686922" stroke="#000"/>
<line x1="105.8125" y1="454.65588671035255" x2="114.625" y2="454.65588671035255" stroke="#000"/>
<line x1="110.21875" y1="451.5582461686922" x2="110.21875" y2="454.65588671035255" stroke="#000"/>
<rect x="114.625" y="426.85725737234276" width="8.8125" height="71.14274262765724" fill="green" data-tooltip="1.37x baseline speed (YJIT)"/>
<line x1="114.625" y1="426.38111124125254" x2="123.4375" y2="426.38111124125254" stroke="#000"/>
<line x1="114.625" y1="427.333403503433" x2="123.4375" y2="427.333403503433" stroke="#000"/>
<line x1="119.03125" y1="426.38111124125254" x2="119.03125" y2="427.333403503433" stroke="#000"/>
<line x1="114.625" y1="498.0" x2="114.625" y2="502.79999999999995" stroke="#000"/>
<text x="114.625" y="512.4" fill="#111" font-size="small" font-family="monospace" font-weight="bold" text-anchor="end" transform="rotate(-60, 114.625, 512.4)">
activerecord
</text>
<rect x="132.25" y="446.0300758174917" width="8.8125" height="51.969924182508244" fill="#7070f8" data-tooltip="1.00x baseline speed (No JIT)"/>
<line x1="132.25" y1="445.55110166069954" x2="141.0625" y2="445.55110166069954" stroke="#000"/>
<line x1="132.25" y1="446.50904997428387" x2="141.0625" y2="446.50904997428387" stroke="#000"/>
<line x1="136.65625" y1="445.55110166069954" x2="136.65625" y2="446.50904997428387" stroke="#000"/>
<rect x="149.875" y="426.15999572663776" width="8.8125" height="71.84000427336217" fill="green" data-tooltip="1.38x baseline speed (YJIT)"/>
<line x1="149.875" y1="424.3734986912679" x2="158.6875" y2="424.3734986912679" stroke="#000"/>
<line x1="149.875" y1="427.9464927620076" x2="158.6875" y2="427.9464927620076" stroke="#000"/>
<line x1="154.28125" y1="424.3734986912679" x2="154.28125" y2="427.9464927620076" stroke="#000"/>
<line x1="149.875" y1="498.0" x2="149.875" y2="502.79999999999995" stroke="#000"/>
<text x="149.875" y="512.4" fill="#111" font-size="small" font-family="monospace" font-weight="bold" text-anchor="end" transform="rotate(-60, 149.875, 512.4)">
hexapdf
</text>
<rect x="167.49999999999997" y="446.0300758174917" width="8.8125" height="51.969924182508244" fill="#7070f8" data-tooltip="1.00x baseline speed (No JIT)"/>
<line x1="167.49999999999997" y1="444.8703829353766" x2="176.31249999999997" y2="444.8703829353766" stroke="#000"/>
<line x1="167.49999999999997" y1="447.1897686996069" x2="176.31249999999997" y2="447.1897686996069" stroke="#000"/>
<line x1="171.90624999999997" y1="444.8703829353766" x2="171.90624999999997" y2="447.1897686996069" stroke="#000"/>
<rect x="176.31249999999997" y="444.0473653641923" width="8.8125" height="53.95263463580767" fill="orange" data-tooltip="1.04x baseline speed (MJIT)"/>
<line x1="176.31249999999997" y1="442.61339316096763" x2="185.12499999999997" y2="442.61339316096763" stroke="#000"/>
<line x1="176.31249999999997" y1="445.4813375674169" x2="185.12499999999997" y2="445.4813375674169" stroke="#000"/>
<line x1="180.71874999999997" y1="442.61339316096763" x2="180.71874999999997" y2="445.4813375674169" stroke="#000"/>
<rect x="185.12499999999997" y="417.7737182193403" width="8.8125" height="80.22628178065965" fill="green" data-tooltip="1.54x baseline speed (YJIT)"/>
<line x1="185.12499999999997" y1="415.4550074837713" x2="193.93749999999997" y2="415.4550074837713" stroke="#000"/>
<line x1="185.12499999999997" y1="420.0924289549093" x2="193.93749999999997" y2="420.0924289549093" stroke="#000"/>
<line x1="189.53124999999997" y1="415.4550074837713" x2="189.53124999999997" y2="420.0924289549093" stroke="#000"/>
<line x1="185.12499999999997" y1="498.0" x2="185.12499999999997" y2="502.79999999999995" stroke="#000"/>
<text x="185.12499999999997" y="512.4" fill="#111" font-size="small" font-family="monospace" font-weight="bold" text-anchor="end" transform="rotate(-60, 185.12499999999997, 512.4)">
liquid-render
</text>
<rect x="202.75" y="446.0300758174917" width="8.8125" height="51.969924182508244" fill="#7070f8" data-tooltip="1.00x baseline speed (No JIT)"/>
<line x1="202.75" y1="445.94944440733184" x2="211.5625" y2="445.94944440733184" stroke="#000"/>
<line x1="202.75" y1="446.11070722765163" x2="211.5625" y2="446.11070722765163" stroke="#000"/>
<line x1="207.15625" y1="445.94944440733184" x2="207.15625" y2="446.11070722765163" stroke="#000"/>
<rect x="211.5625" y="445.61767091564616" width="8.8125" height="52.38232908435374" fill="orange" data-tooltip="1.01x baseline speed (MJIT)"/>
<line x1="211.5625" y1="445.053063550435" x2="220.375" y2="445.053063550435" stroke="#000"/>
<line x1="211.5625" y1="446.1822782808573" x2="220.375" y2="446.1822782808573" stroke="#000"/>
<line x1="215.96875" y1="445.053063550435" x2="215.96875" y2="446.1822782808573" stroke="#000"/>
<rect x="220.375" y="440.49275600353184" width="8.8125" height="57.50724399646814" fill="green" data-tooltip="1.11x baseline speed (YJIT)"/>
<line x1="220.375" y1="440.26111689902143" x2="229.1875" y2="440.26111689902143" stroke="#000"/>
<line x1="220.375" y1="440.72439510804224" x2="229.1875" y2="440.72439510804224" stroke="#000"/>
<line x1="224.78125" y1="440.26111689902143" x2="224.78125" y2="440.72439510804224" stroke="#000"/>
<line x1="220.375" y1="498.0" x2="220.375" y2="502.79999999999995" stroke="#000"/>
<text x="220.375" y="512.4" fill="#111" font-size="small" font-family="monospace" font-weight="bold" text-anchor="end" transform="rotate(-60, 220.375, 512.4)">
mail
</text>
<rect x="238.0" y="446.0300758174917" width="8.8125" height="51.969924182508244" fill="#7070f8" data-tooltip="1.00x baseline speed (No JIT)"/>
<line x1="238.0" y1="446.0007208842012" x2="246.8125" y2="446.0007208842012" stroke="#000"/>
<line x1="238.0" y1="446.05943075078227" x2="246.8125" y2="446.05943075078227" stroke="#000"/>
<line x1="242.40625" y1="446.0007208842012" x2="242.40625" y2="446.05943075078227" stroke="#000"/>
<rect x="246.8125" y="441.91823410105343" width="8.8125" height="56.081765898946514" fill="orange" data-tooltip="1.08x baseline speed (MJIT)"/>
<line x1="246.8125" y1="441.85593404104475" x2="255.625" y2="441.85593404104475" stroke="#000"/>
<line x1="246.8125" y1="441.98053416106205" x2="255.625" y2="441.98053416106205" stroke="#000"/>
<line x1="251.21875" y1="441.85593404104475" x2="251.21875" y2="441.98053416106205" stroke="#000"/>
<rect x="255.625" y="432.14855786081927" width="8.8125" height="65.85144213918066" fill="green" data-tooltip="1.27x baseline speed (YJIT)"/>
<line x1="255.625" y1="432.07498729829996" x2="264.4375" y2="432.07498729829996" stroke="#000"/>
<line x1="255.625" y1="432.22212842333863" x2="264.4375" y2="432.22212842333863" stroke="#000"/>
<line x1="260.03125" y1="432.07498729829996" x2="260.03125" y2="432.22212842333863" stroke="#000"/>
<line x1="255.625" y1="498.0" x2="255.625" y2="502.79999999999995" stroke="#000"/>
<text x="255.625" y="512.4" fill="#111" font-size="small" font-family="monospace" font-weight="bold" text-anchor="end" transform="rotate(-60, 255.625, 512.4)">
psych-load
</text>
<rect x="273.25" y="446.0300758174917" width="8.8125" height="51.969924182508244" fill="#7070f8" data-tooltip="1.00x baseline speed (No JIT)"/>
<line x1="273.25" y1="445.5860259216303" x2="282.0625" y2="445.5860259216303" stroke="#000"/>
<line x1="273.25" y1="446.47412571335315" x2="282.0625" y2="446.47412571335315" stroke="#000"/>
<line x1="277.65625" y1="445.5860259216303" x2="277.65625" y2="446.47412571335315" stroke="#000"/>
<rect x="282.0625" y="451.8507177328859" width="8.8125" height="46.149282267114025" fill="orange" data-tooltip="0.89x baseline speed (MJIT)"/>
<line x1="282.0625" y1="451.27611933460764" x2="290.875" y2="451.27611933460764" stroke="#000"/>
<line x1="282.0625" y1="452.4253161311642" x2="290.875" y2="452.4253161311642" stroke="#000"/>
<line x1="286.46875" y1="451.27611933460764" x2="286.46875" y2="452.4253161311642" stroke="#000"/>
<rect x="290.875" y="429.603653051671" width="8.8125" height="68.39634694832895" fill="green" data-tooltip="1.32x baseline speed (YJIT)"/>
<line x1="290.875" y1="428.43953658818265" x2="299.6875" y2="428.43953658818265" stroke="#000"/>
<line x1="290.875" y1="430.7677695151594" x2="299.6875" y2="430.7677695151594" stroke="#000"/>
<line x1="295.28125" y1="428.43953658818265" x2="295.28125" y2="430.7677695151594" stroke="#000"/>
<line x1="290.875" y1="498.0" x2="290.875" y2="502.79999999999995" stroke="#000"/>
<text x="290.875" y="512.4" fill="#111" font-size="small" font-family="monospace" font-weight="bold" text-anchor="end" transform="rotate(-60, 290.875, 512.4)">
railsbench
</text>
<rect x="308.5" y="446.0300758174917" width="8.8125" height="51.969924182508244" fill="#7070f8" data-tooltip="1.00x baseline speed (No JIT)"/>
<line x1="308.5" y1="445.9759790099931" x2="317.3125" y2="445.9759790099931" stroke="#000"/>
<line x1="308.5" y1="446.0841726249903" x2="317.3125" y2="446.0841726249903" stroke="#000"/>
<line x1="312.90625" y1="445.9759790099931" x2="312.90625" y2="446.0841726249903" stroke="#000"/>
<rect x="317.3125" y="415.43921740696516" width="8.8125" height="82.56078259303473" fill="orange" data-tooltip="1.59x baseline speed (MJIT)"/>
<line x1="317.3125" y1="415.1759146254613" x2="326.125" y2="415.1759146254613" stroke="#000"/>
<line x1="317.3125" y1="415.702520188469" x2="326.125" y2="415.702520188469" stroke="#000"/>
<line x1="321.71875" y1="415.1759146254613" x2="321.71875" y2="415.702520188469" stroke="#000"/>
<rect x="326.125" y="427.6986206036268" width="8.8125" height="70.3013793963731" fill="green" data-tooltip="1.35x baseline speed (YJIT)"/>
<line x1="326.125" y1="427.55954502242827" x2="334.9375" y2="427.55954502242827" stroke="#000"/>
<line x1="326.125" y1="427.83769618482535" x2="334.9375" y2="427.83769618482535" stroke="#000"/>
<line x1="330.53125" y1="427.55954502242827" x2="330.53125" y2="427.83769618482535" stroke="#000"/>
<line x1="326.125" y1="498.0" x2="326.125" y2="502.79999999999995" stroke="#000"/>
<text x="326.125" y="512.4" fill="#111" font-size="small" font-family="monospace" font-weight="bold" text-anchor="end" transform="rotate(-60, 326.125, 512.4)">
binarytrees
</text>
<rect x="343.75" y="446.0300758174917" width="8.8125" height="51.969924182508244" fill="#7070f8" data-tooltip="1.00x baseline speed (No JIT)"/>
<line x1="343.75" y1="445.9297625428257" x2="352.5625" y2="445.9297625428257" stroke="#000"/>
<line x1="343.75" y1="446.1303890921577" x2="352.5625" y2="446.1303890921577" stroke="#000"/>
<line x1="348.15625" y1="445.9297625428257" x2="348.15625" y2="446.1303890921577" stroke="#000"/>
<rect x="352.5625" y="433.797172440635" width="8.8125" height="64.20282755936492" fill="orange" data-tooltip="1.24x baseline speed (MJIT)"/>
<line x1="352.5625" y1="433.1753859435593" x2="361.375" y2="433.1753859435593" stroke="#000"/>
<line x1="352.5625" y1="434.41895893771067" x2="361.375" y2="434.41895893771067" stroke="#000"/>
<line x1="356.96875" y1="433.1753859435593" x2="356.96875" y2="434.41895893771067" stroke="#000"/>
<rect x="361.375" y="420.85005148314076" width="8.8125" height="77.14994851685917" fill="green" data-tooltip="1.48x baseline speed (YJIT)"/>
<line x1="361.375" y1="420.679239882358" x2="370.1875" y2="420.679239882358" stroke="#000"/>
<line x1="361.375" y1="421.02086308392353" x2="370.1875" y2="421.02086308392353" stroke="#000"/>
<line x1="365.78125" y1="420.679239882358" x2="365.78125" y2="421.02086308392353" stroke="#000"/>
<line x1="361.375" y1="498.0" x2="361.375" y2="502.79999999999995" stroke="#000"/>
<text x="361.375" y="512.4" fill="#111" font-size="small" font-family="monospace" font-weight="bold" text-anchor="end" transform="rotate(-60, 361.375, 512.4)">
chunky_png
</text>
<rect x="379.0" y="446.0300758174917" width="8.8125" height="51.969924182508244" fill="#7070f8" data-tooltip="1.00x baseline speed (No JIT)"/>
<line x1="379.0" y1="438.75679302241105" x2="387.8125" y2="438.75679302241105" stroke="#000"/>
<line x1="379.0" y1="453.3033586125724" x2="387.8125" y2="453.3033586125724" stroke="#000"/>
<line x1="383.40625" y1="438.75679302241105" x2="383.40625" y2="453.3033586125724" stroke="#000"/>
<rect x="387.8125" y="446.32832013784736" width="8.8125" height="51.67167986215256" fill="orange" data-tooltip="0.99x baseline speed (MJIT)"/>
<line x1="387.8125" y1="438.0918913501175" x2="396.625" y2="438.0918913501175" stroke="#000"/>
<line x1="387.8125" y1="454.5647489255772" x2="396.625" y2="454.5647489255772" stroke="#000"/>
<line x1="392.21875" y1="438.0918913501175" x2="392.21875" y2="454.5647489255772" stroke="#000"/>
<rect x="396.625" y="454.3642813803248" width="8.8125" height="43.63571861967504" fill="green" data-tooltip="0.84x baseline speed (YJIT)"/>
<line x1="396.625" y1="447.3050814474135" x2="405.4375" y2="447.3050814474135" stroke="#000"/>
<line x1="396.625" y1="461.4234813132362" x2="405.4375" y2="461.4234813132362" stroke="#000"/>
<line x1="401.03125" y1="447.3050814474135" x2="401.03125" y2="461.4234813132362" stroke="#000"/>
<line x1="396.625" y1="498.0" x2="396.625" y2="502.79999999999995" stroke="#000"/>
<text x="396.625" y="512.4" fill="#111" font-size="small" font-family="monospace" font-weight="bold" text-anchor="end" transform="rotate(-60, 396.625, 512.4)">
discourse
</text>
<rect x="414.25" y="446.0300758174917" width="8.8125" height="51.969924182508244" fill="#7070f8" data-tooltip="1.00x baseline speed (No JIT)"/>
<line x1="414.25" y1="445.7242948033564" x2="423.0625" y2="445.7242948033564" stroke="#000"/>
<line x1="414.25" y1="446.3358568316271" x2="423.0625" y2="446.3358568316271" stroke="#000"/>
<line x1="418.65625" y1="445.7242948033564" x2="418.65625" y2="446.3358568316271" stroke="#000"/>
<rect x="423.0625" y="441.729770608053" width="8.8125" height="56.270229391946884" fill="orange" data-tooltip="1.08x baseline speed (MJIT)"/>
<line x1="423.0625" y1="441.2278937881202" x2="431.875" y2="441.2278937881202" stroke="#000"/>
<line x1="423.0625" y1="442.2316474279858" x2="431.875" y2="442.2316474279858" stroke="#000"/>
<line x1="427.46875" y1="441.2278937881202" x2="427.46875" y2="442.2316474279858" stroke="#000"/>
<rect x="431.875" y="440.2240963591106" width="8.8125" height="57.77590364088935" fill="green" data-tooltip="1.11x baseline speed (YJIT)"/>
<line x1="431.875" y1="439.7203083652058" x2="440.6875" y2="439.7203083652058" stroke="#000"/>
<line x1="431.875" y1="440.7278843530153" x2="440.6875" y2="440.7278843530153" stroke="#000"/>
<line x1="436.28125" y1="439.7203083652058" x2="436.28125" y2="440.7278843530153" stroke="#000"/>
<line x1="431.875" y1="498.0" x2="431.875" y2="502.79999999999995" stroke="#000"/>
<text x="431.875" y="512.4" fill="#111" font-size="small" font-family="monospace" font-weight="bold" text-anchor="end" transform="rotate(-60, 431.875, 512.4)">
erubi
</text>
<rect x="449.5" y="446.0300758174917" width="8.8125" height="51.969924182508244" fill="#7070f8" data-tooltip="1.00x baseline speed (No JIT)"/>
<line x1="449.5" y1="442.7764702333624" x2="458.3125" y2="442.7764702333624" stroke="#000"/>
<line x1="449.5" y1="449.2836814016211" x2="458.3125" y2="449.2836814016211" stroke="#000"/>
<line x1="453.90625" y1="442.7764702333624" x2="453.90625" y2="449.2836814016211" stroke="#000"/>
<rect x="458.3125" y="450.82736836953217" width="8.8125" height="47.17263163046772" fill="orange" data-tooltip="0.91x baseline speed (MJIT)"/>
<line x1="458.3125" y1="447.2390624755533" x2="467.125" y2="447.2390624755533" stroke="#000"/>
<line x1="458.3125" y1="454.41567426351105" x2="467.125" y2="454.41567426351105" stroke="#000"/>
<line x1="462.71875" y1="447.2390624755533" x2="462.71875" y2="454.41567426351105" stroke="#000"/>
<rect x="467.125" y="429.127305258896" width="8.8125" height="68.87269474110394" fill="green" data-tooltip="1.33x baseline speed (YJIT)"/>
<line x1="467.125" y1="424.1436163742806" x2="475.9375" y2="424.1436163742806" stroke="#000"/>
<line x1="467.125" y1="434.11099414351133" x2="475.9375" y2="434.11099414351133" stroke="#000"/>
<line x1="471.53125" y1="424.1436163742806" x2="471.53125" y2="434.11099414351133" stroke="#000"/>
<line x1="467.125" y1="498.0" x2="467.125" y2="502.79999999999995" stroke="#000"/>
<text x="467.125" y="512.4" fill="#111" font-size="small" font-family="monospace" font-weight="bold" text-anchor="end" transform="rotate(-60, 467.125, 512.4)">
erubi_rails
</text>
<rect x="484.75" y="446.0300758174917" width="8.8125" height="51.969924182508244" fill="#7070f8" data-tooltip="1.00x baseline speed (No JIT)"/>
<line x1="484.75" y1="445.9789774557566" x2="493.5625" y2="445.9789774557566" stroke="#000"/>
<line x1="484.75" y1="446.0811741792269" x2="493.5625" y2="446.0811741792269" stroke="#000"/>
<line x1="489.15625" y1="445.9789774557566" x2="489.15625" y2="446.0811741792269" stroke="#000"/>
<rect x="493.5625" y="408.60738585042543" width="8.8125" height="89.39261414957453" fill="orange" data-tooltip="1.72x baseline speed (MJIT)"/>
<line x1="493.5625" y1="408.51152647059905" x2="502.375" y2="408.51152647059905" stroke="#000"/>
<line x1="493.5625" y1="408.7032452302518" x2="502.375" y2="408.7032452302518" stroke="#000"/>
<line x1="497.96875" y1="408.51152647059905" x2="497.96875" y2="408.7032452302518" stroke="#000"/>
<rect x="502.375" y="446.3025446912452" width="8.8125" height="51.69745530875475" fill="green" data-tooltip="0.99x baseline speed (YJIT)"/>
<line x1="502.375" y1="446.23799655309443" x2="511.1875" y2="446.23799655309443" stroke="#000"/>
<line x1="502.375" y1="446.367092829396" x2="511.1875" y2="446.367092829396" stroke="#000"/>
<line x1="506.78124999999994" y1="446.23799655309443" x2="506.78124999999994" y2="446.367092829396" stroke="#000"/>
<line x1="502.375" y1="498.0" x2="502.375" y2="502.79999999999995" stroke="#000"/>
<text x="502.375" y="512.4" fill="#111" font-size="small" font-family="monospace" font-weight="bold" text-anchor="end" transform="rotate(-60, 502.375, 512.4)">
fannkuchredux
</text>
<rect x="519.9999999999999" y="446.0300758174917" width="8.8125" height="51.969924182508244" fill="#7070f8" data-tooltip="1.00x baseline speed (No JIT)"/>
<line x1="519.9999999999999" y1="445.44032386065146" x2="528.8124999999999" y2="445.44032386065146" stroke="#000"/>
<line x1="519.9999999999999" y1="446.61982777433195" x2="528.8124999999999" y2="446.61982777433195" stroke="#000"/>
<line x1="524.4062499999999" y1="445.44032386065146" x2="524.4062499999999" y2="446.61982777433195" stroke="#000"/>
<rect x="528.8124999999999" y="434.9191080693057" width="8.8125" height="63.08089193069431" fill="orange" data-tooltip="1.21x baseline speed (MJIT)"/>
<line x1="528.8124999999999" y1="433.75218030828756" x2="537.6249999999999" y2="433.75218030828756" stroke="#000"/>
<line x1="528.8124999999999" y1="436.0860358303238" x2="537.6249999999999" y2="436.0860358303238" stroke="#000"/>
<line x1="533.2187499999999" y1="433.75218030828756" x2="533.2187499999999" y2="436.0860358303238" stroke="#000"/>
<rect x="537.6249999999999" y="426.6544533909031" width="8.8125" height="71.3455466090968" fill="green" data-tooltip="1.37x baseline speed (YJIT)"/>
<line x1="537.6249999999999" y1="425.3449597595449" x2="546.4374999999999" y2="425.3449597595449" stroke="#000"/>
<line x1="537.6249999999999" y1="427.96394702226127" x2="546.4374999999999" y2="427.96394702226127" stroke="#000"/>
<line x1="542.0312499999999" y1="425.3449597595449" x2="542.0312499999999" y2="427.96394702226127" stroke="#000"/>
<line x1="537.6249999999999" y1="498.0" x2="537.6249999999999" y2="502.79999999999995" stroke="#000"/>
<text x="537.6249999999999" y="512.4" fill="#111" font-size="small" font-family="monospace" font-weight="bold" text-anchor="end" transform="rotate(-60, 537.6249999999999, 512.4)">
lee
</text>
<rect x="555.2499999999999" y="446.0300758174917" width="8.8125" height="51.969924182508244" fill="#7070f8" data-tooltip="1.00x baseline speed (No JIT)"/>
<line x1="555.2499999999999" y1="445.98156528850296" x2="564.0624999999999" y2="445.98156528850296" stroke="#000"/>
<line x1="555.2499999999999" y1="446.07858634648045" x2="564.0624999999999" y2="446.07858634648045" stroke="#000"/>
<line x1="559.6562499999999" y1="445.98156528850296" x2="559.6562499999999" y2="446.07858634648045" stroke="#000"/>
<rect x="564.0624999999999" y="407.4543026156781" width="8.8125" height="90.5456973843219" fill="orange" data-tooltip="1.74x baseline speed (MJIT)"/>
<line x1="564.0624999999999" y1="407.3640726594505" x2="572.8749999999999" y2="407.3640726594505" stroke="#000"/>
<line x1="564.0624999999999" y1="407.5445325719057" x2="572.8749999999999" y2="407.5445325719057" stroke="#000"/>
<line x1="568.4687499999999" y1="407.3640726594505" x2="568.4687499999999" y2="407.5445325719057" stroke="#000"/>
<rect x="572.8749999999999" y="427.0307870266655" width="8.8125" height="70.96921297333445" fill="green" data-tooltip="1.37x baseline speed (YJIT)"/>
<line x1="572.8749999999999" y1="426.69803421870796" x2="581.6874999999999" y2="426.69803421870796" stroke="#000"/>
<line x1="572.8749999999999" y1="427.36353983462305" x2="581.6874999999999" y2="427.36353983462305" stroke="#000"/>
<line x1="577.2812499999999" y1="426.69803421870796" x2="577.2812499999999" y2="427.36353983462305" stroke="#000"/>
<line x1="572.8749999999999" y1="498.0" x2="572.8749999999999" y2="502.79999999999995" stroke="#000"/>
<text x="572.8749999999999" y="512.4" fill="#111" font-size="small" font-family="monospace" font-weight="bold" text-anchor="end" transform="rotate(-60, 572.8749999999999, 512.4)">
nbody
</text>
<rect x="590.4999999999999" y="446.0300758174917" width="8.8125" height="51.969924182508244" fill="#7070f8" data-tooltip="1.00x baseline speed (No JIT)"/>
<line x1="590.4999999999999" y1="445.8011947667002" x2="599.3124999999999" y2="445.8011947667002" stroke="#000"/>
<line x1="590.4999999999999" y1="446.2589568682833" x2="599.3124999999999" y2="446.2589568682833" stroke="#000"/>
<line x1="594.9062499999999" y1="445.8011947667002" x2="594.9062499999999" y2="446.2589568682833" stroke="#000"/>
<rect x="599.3124999999999" y="369.88427688048165" width="8.8125" height="128.11572311951824" fill="orange" data-tooltip="2.47x baseline speed (MJIT)"/>
<line x1="599.3124999999999" y1="368.8914496900021" x2="608.1249999999999" y2="368.8914496900021" stroke="#000"/>
<line x1="599.3124999999999" y1="370.8771040709612" x2="608.1249999999999" y2="370.8771040709612" stroke="#000"/>
<line x1="603.7187499999999" y1="368.8914496900021" x2="603.7187499999999" y2="370.8771040709612" stroke="#000"/>
<rect x="608.1249999999999" y="403.5386224099383" width="8.8125" height="94.46137759006164" fill="green" data-tooltip="1.82x baseline speed (YJIT)"/>
<line x1="608.1249999999999" y1="402.85064167129923" x2="616.9374999999999" y2="402.85064167129923" stroke="#000"/>
<line x1="608.1249999999999" y1="404.2266031485774" x2="616.9374999999999" y2="404.2266031485774" stroke="#000"/>
<line x1="612.5312499999999" y1="402.85064167129923" x2="612.5312499999999" y2="404.2266031485774" stroke="#000"/>
<line x1="608.1249999999999" y1="498.0" x2="608.1249999999999" y2="502.79999999999995" stroke="#000"/>
<text x="608.1249999999999" y="512.4" fill="#111" font-size="small" font-family="monospace" font-weight="bold" text-anchor="end" transform="rotate(-60, 608.1249999999999, 512.4)">
optcarrot
</text>
<rect x="625.7499999999999" y="446.0300758174917" width="8.8125" height="51.969924182508244" fill="#7070f8" data-tooltip="1.00x baseline speed (No JIT)"/>
<line x1="625.7499999999999" y1="445.8806442025575" x2="634.5624999999999" y2="445.8806442025575" stroke="#000"/>
<line x1="625.7499999999999" y1="446.17950743242596" x2="634.5624999999999" y2="446.17950743242596" stroke="#000"/>
<line x1="630.1562499999999" y1="445.8806442025575" x2="630.1562499999999" y2="446.17950743242596" stroke="#000"/>
<rect x="634.5624999999999" y="433.56006435860746" width="8.8125" height="64.43993564139252" fill="orange" data-tooltip="1.24x baseline speed (MJIT)"/>
<line x1="634.5624999999999" y1="431.79828397689795" x2="643.3749999999999" y2="431.79828397689795" stroke="#000"/>
<line x1="634.5624999999999" y1="435.321844740317" x2="643.3749999999999" y2="435.321844740317" stroke="#000"/>
<line x1="638.9687499999999" y1="431.79828397689795" x2="638.9687499999999" y2="435.321844740317" stroke="#000"/>
<rect x="643.3749999999999" y="419.3430535432897" width="8.8125" height="78.65694645671023" fill="green" data-tooltip="1.51x baseline speed (YJIT)"/>
<line x1="643.3749999999999" y1="419.08372871654535" x2="652.1874999999999" y2="419.08372871654535" stroke="#000"/>
<line x1="643.3749999999999" y1="419.60237837003416" x2="652.1874999999999" y2="419.60237837003416" stroke="#000"/>
<line x1="647.7812499999999" y1="419.08372871654535" x2="647.7812499999999" y2="419.60237837003416" stroke="#000"/>
<line x1="643.3749999999999" y1="498.0" x2="643.3749999999999" y2="502.79999999999995" stroke="#000"/>
<text x="643.3749999999999" y="512.4" fill="#111" font-size="small" font-family="monospace" font-weight="bold" text-anchor="end" transform="rotate(-60, 643.3749999999999, 512.4)">
rubykon
</text>
<rect x="660.9999999999999" y="446.0300758174917" width="8.8125" height="51.969924182508244" fill="#7070f8" data-tooltip="1.00x baseline speed (No JIT)"/>
<line x1="660.9999999999999" y1="446.0247389419781" x2="669.8124999999999" y2="446.0247389419781" stroke="#000"/>
<line x1="660.9999999999999" y1="446.0354126930053" x2="669.8124999999999" y2="446.0354126930053" stroke="#000"/>
<line x1="665.4062499999999" y1="446.0247389419781" x2="665.4062499999999" y2="446.0354126930053" stroke="#000"/>
<rect x="669.8124999999999" y="463.34647612515187" width="8.8125" height="34.65352387484809" fill="orange" data-tooltip="0.67x baseline speed (MJIT)"/>
<line x1="669.8124999999999" y1="462.0208809106512" x2="678.6249999999999" y2="462.0208809106512" stroke="#000"/>
<line x1="669.8124999999999" y1="464.6720713396525" x2="678.6249999999999" y2="464.6720713396525" stroke="#000"/>
<line x1="674.2187499999999" y1="462.0208809106512" x2="674.2187499999999" y2="464.6720713396525" stroke="#000"/>
<rect x="678.6249999999999" y="149.9247030745997" width="8.8125" height="348.0752969254002" fill="green" data-tooltip="6.70x baseline speed (YJIT)"/>
<line x1="678.6249999999999" y1="149.25507054851562" x2="687.4374999999999" y2="149.25507054851562" stroke="#000"/>
<line x1="678.6249999999999" y1="150.5943356006838" x2="687.4374999999999" y2="150.5943356006838" stroke="#000"/>
<line x1="683.0312499999999" y1="149.25507054851562" x2="683.0312499999999" y2="150.5943356006838" stroke="#000"/>
<line x1="678.6249999999999" y1="498.0" x2="678.6249999999999" y2="502.79999999999995" stroke="#000"/>
<text x="678.6249999999999" y="512.4" fill="#111" font-size="small" font-family="monospace" font-weight="bold" text-anchor="end" transform="rotate(-60, 678.6249999999999, 512.4)">
30k_ifelse
</text>
<rect x="696.2499999999999" y="446.0300758174917" width="8.8125" height="51.969924182508244" fill="#7070f8" data-tooltip="1.00x baseline speed (No JIT)"/>
<line x1="696.2499999999999" y1="445.99378535469026" x2="705.0624999999999" y2="445.99378535469026" stroke="#000"/>
<line x1="696.2499999999999" y1="446.06636628029315" x2="705.0624999999999" y2="446.06636628029315" stroke="#000"/>
<line x1="700.6562499999999" y1="445.99378535469026" x2="700.6562499999999" y2="446.06636628029315" stroke="#000"/>
<rect x="705.0624999999999" y="464.23965670790955" width="8.8125" height="33.76034329209043" fill="orange" data-tooltip="0.65x baseline speed (MJIT)"/>
<line x1="705.0624999999999" y1="458.20751751488297" x2="713.8749999999999" y2="458.20751751488297" stroke="#000"/>
<line x1="705.0624999999999" y1="470.2717959009361" x2="713.8749999999999" y2="470.2717959009361" stroke="#000"/>
<line x1="709.4687499999999" y1="458.20751751488297" x2="709.4687499999999" y2="470.2717959009361" stroke="#000"/>
<rect x="713.8749999999999" y="104.06914543615534" width="8.8125" height="393.9308545638446" fill="green" data-tooltip="7.58x baseline speed (YJIT)"/>
<line x1="713.8749999999999" y1="103.70198410892202" x2="722.6874999999999" y2="103.70198410892202" stroke="#000"/>
<line x1="713.8749999999999" y1="104.43630676338867" x2="722.6874999999999" y2="104.43630676338867" stroke="#000"/>
<line x1="718.2812499999999" y1="103.70198410892202" x2="718.2812499999999" y2="104.43630676338867" stroke="#000"/>
<line x1="713.8749999999999" y1="498.0" x2="713.8749999999999" y2="502.79999999999995" stroke="#000"/>
<text x="713.8749999999999" y="512.4" fill="#111" font-size="small" font-family="monospace" font-weight="bold" text-anchor="end" transform="rotate(-60, 713.8749999999999, 512.4)">
30k_methods
</text>
<rect x="731.4999999999999" y="446.0300758174917" width="8.8125" height="51.969924182508244" fill="#7070f8" data-tooltip="1.00x baseline speed (No JIT)"/>
<line x1="731.4999999999999" y1="445.9081434948056" x2="740.3124999999999" y2="445.9081434948056" stroke="#000"/>
<line x1="731.4999999999999" y1="446.1520081401778" x2="740.3124999999999" y2="446.1520081401778" stroke="#000"/>
<line x1="735.9062499999999" y1="445.9081434948056" x2="735.9062499999999" y2="446.1520081401778" stroke="#000"/>
<rect x="740.3124999999999" y="413.7192441981136" width="8.8125" height="84.2807558018864" fill="orange" data-tooltip="1.62x baseline speed (MJIT)"/>
<line x1="740.3124999999999" y1="413.4864247998827" x2="749.1249999999999" y2="413.4864247998827" stroke="#000"/>
<line x1="740.3124999999999" y1="413.9520635963445" x2="749.1249999999999" y2="413.9520635963445" stroke="#000"/>
<line x1="744.7187499999999" y1="413.4864247998827" x2="744.7187499999999" y2="413.9520635963445" stroke="#000"/>
<rect x="749.1249999999999" y="371.70903887484445" width="8.8125" height="126.29096112515548" fill="green" data-tooltip="2.43x baseline speed (YJIT)"/>
<line x1="749.1249999999999" y1="370.4065738728998" x2="757.9374999999999" y2="370.4065738728998" stroke="#000"/>
<line x1="749.1249999999999" y1="373.01150387678905" x2="757.9374999999999" y2="373.01150387678905" stroke="#000"/>
<line x1="753.5312499999999" y1="370.4065738728998" x2="753.5312499999999" y2="373.01150387678905" stroke="#000"/>
<line x1="749.1249999999999" y1="498.0" x2="749.1249999999999" y2="502.79999999999995" stroke="#000"/>
<text x="749.1249999999999" y="512.4" fill="#111" font-size="small" font-family="monospace" font-weight="bold" text-anchor="end" transform="rotate(-60, 749.1249999999999, 512.4)">
cfunc_itself
</text>
<rect x="766.7499999999999" y="446.0300758174917" width="8.8125" height="51.969924182508244" fill="#7070f8" data-tooltip="1.00x baseline speed (No JIT)"/>
<line x1="766.7499999999999" y1="446.0017941789135" x2="775.5624999999999" y2="446.0017941789135" stroke="#000"/>
<line x1="766.7499999999999" y1="446.05835745607" x2="775.5624999999999" y2="446.05835745607" stroke="#000"/>
<line x1="771.1562499999999" y1="446.0017941789135" x2="771.1562499999999" y2="446.05835745607" stroke="#000"/>
<rect x="775.5624999999999" y="353.6473867701455" width="8.8125" height="144.35261322985446" fill="orange" data-tooltip="2.78x baseline speed (MJIT)"/>
<line x1="775.5624999999999" y1="353.53707248421836" x2="784.3749999999999" y2="353.53707248421836" stroke="#000"/>
<line x1="775.5624999999999" y1="353.7577010560727" x2="784.3749999999999" y2="353.7577010560727" stroke="#000"/>
<line x1="779.9687499999999" y1="353.53707248421836" x2="779.9687499999999" y2="353.7577010560727" stroke="#000"/>
<rect x="784.3749999999999" y="299.08470962215773" width="8.8125" height="198.9152903778422" fill="green" data-tooltip="3.83x baseline speed (YJIT)"/>
<line x1="784.3749999999999" y1="297.90044960969556" x2="793.1874999999999" y2="297.90044960969556" stroke="#000"/>
<line x1="784.3749999999999" y1="300.2689696346199" x2="793.1874999999999" y2="300.2689696346199" stroke="#000"/>
<line x1="788.7812499999999" y1="297.90044960969556" x2="788.7812499999999" y2="300.2689696346199" stroke="#000"/>
<line x1="784.3749999999999" y1="498.0" x2="784.3749999999999" y2="502.79999999999995" stroke="#000"/>
<text x="784.3749999999999" y="512.4" fill="#111" font-size="small" font-family="monospace" font-weight="bold" text-anchor="end" transform="rotate(-60, 784.3749999999999, 512.4)">
fib
</text>
<rect x="801.9999999999999" y="446.0300758174917" width="8.8125" height="51.969924182508244" fill="#7070f8" data-tooltip="1.00x baseline speed (No JIT)"/>
<line x1="801.9999999999999" y1="446.0026015122539" x2="810.8124999999999" y2="446.0026015122539" stroke="#000"/>
<line x1="801.9999999999999" y1="446.0575501227296" x2="810.8124999999999" y2="446.0575501227296" stroke="#000"/>
<line x1="806.4062499999999" y1="446.0026015122539" x2="806.4062499999999" y2="446.0575501227296" stroke="#000"/>
<rect x="810.8124999999999" y="234.76348430809688" width="8.8125" height="263.2365156919031" fill="orange" data-tooltip="5.07x baseline speed (MJIT)"/>
<line x1="810.8124999999999" y1="68.44890398516367" x2="819.6249999999999" y2="68.44890398516367" stroke="#000"/>
<line x1="810.8124999999999" y1="401.07806463103003" x2="819.6249999999999" y2="401.07806463103003" stroke="#000"/>
<line x1="815.2187499999999" y1="68.44890398516367" x2="815.2187499999999" y2="401.07806463103003" stroke="#000"/>
<rect x="819.6249999999999" y="344.7245957214471" width="8.8125" height="153.27540427855288" fill="green" data-tooltip="2.95x baseline speed (YJIT)"/>
<line x1="819.6249999999999" y1="343.69503626719194" x2="828.4374999999999" y2="343.69503626719194" stroke="#000"/>
<line x1="819.6249999999999" y1="345.7541551757022" x2="828.4374999999999" y2="345.7541551757022" stroke="#000"/>
<line x1="824.0312499999999" y1="343.69503626719194" x2="824.0312499999999" y2="345.7541551757022" stroke="#000"/>
<line x1="819.6249999999999" y1="498.0" x2="819.6249999999999" y2="502.79999999999995" stroke="#000"/>
<text x="819.6249999999999" y="512.4" fill="#111" font-size="small" font-family="monospace" font-weight="bold" text-anchor="end" transform="rotate(-60, 819.6249999999999, 512.4)">
getivar
</text>
<rect x="837.2499999999999" y="446.0300758174917" width="8.8125" height="51.969924182508244" fill="#7070f8" data-tooltip="1.00x baseline speed (No JIT)"/>
<line x1="837.2499999999999" y1="445.98444732016395" x2="846.0624999999999" y2="445.98444732016395" stroke="#000"/>
<line x1="837.2499999999999" y1="446.07570431481946" x2="846.0624999999999" y2="446.07570431481946" stroke="#000"/>
<line x1="841.6562499999999" y1="445.98444732016395" x2="841.6562499999999" y2="446.07570431481946" stroke="#000"/>
<rect x="846.0624999999999" y="433.2700519409252" width="8.8125" height="64.72994805907476" fill="orange" data-tooltip="1.25x baseline speed (MJIT)"/>
<line x1="846.0624999999999" y1="433.06245760592805" x2="854.8749999999999" y2="433.06245760592805" stroke="#000"/>
<line x1="846.0624999999999" y1="433.4776462759224" x2="854.8749999999999" y2="433.4776462759224" stroke="#000"/>
<line x1="850.4687499999999" y1="433.06245760592805" x2="850.4687499999999" y2="433.4776462759224" stroke="#000"/>
<rect x="854.8749999999999" y="225.59427029294937" width="8.8125" height="272.40572970705057" fill="green" data-tooltip="5.24x baseline speed (YJIT)"/>
<line x1="854.8749999999999" y1="223.3120996163653" x2="863.6874999999999" y2="223.3120996163653" stroke="#000"/>
<line x1="854.8749999999999" y1="227.8764409695335" x2="863.6874999999999" y2="227.8764409695335" stroke="#000"/>
<line x1="859.2812499999999" y1="223.3120996163653" x2="859.2812499999999" y2="227.8764409695335" stroke="#000"/>
<line x1="854.8749999999999" y1="498.0" x2="854.8749999999999" y2="502.79999999999995" stroke="#000"/>
<text x="854.8749999999999" y="512.4" fill="#111" font-size="small" font-family="monospace" font-weight="bold" text-anchor="end" transform="rotate(-60, 854.8749999999999, 512.4)">
keyword_args
</text>
<rect x="872.4999999999999" y="446.0300758174917" width="8.8125" height="51.969924182508244" fill="#7070f8" data-tooltip="1.00x baseline speed (No JIT)"/>
<line x1="872.4999999999999" y1="445.91637570759195" x2="881.3125" y2="445.91637570759195" stroke="#000"/>
<line x1="872.4999999999999" y1="446.1437759273915" x2="881.3125" y2="446.1437759273915" stroke="#000"/>
<line x1="876.9062499999999" y1="445.91637570759195" x2="876.9062499999999" y2="446.1437759273915" stroke="#000"/>
<rect x="881.3125" y="437.70760706343015" width="8.8125" height="60.29239293656983" fill="orange" data-tooltip="1.16x baseline speed (MJIT)"/>
<line x1="881.3125" y1="437.5342753031575" x2="890.125" y2="437.5342753031575" stroke="#000"/>
<line x1="881.3125" y1="437.88093882370276" x2="890.125" y2="437.88093882370276" stroke="#000"/>
<line x1="885.7187499999999" y1="437.5342753031575" x2="885.7187499999999" y2="437.88093882370276" stroke="#000"/>
<rect x="890.125" y="424.24877131658786" width="8.8125" height="73.7512286834121" fill="green" data-tooltip="1.42x baseline speed (YJIT)"/>
<line x1="890.125" y1="424.0020940961174" x2="898.9375" y2="424.0020940961174" stroke="#000"/>
<line x1="890.125" y1="424.4954485370584" x2="898.9375" y2="424.4954485370584" stroke="#000"/>
<line x1="894.5312499999999" y1="424.0020940961174" x2="894.5312499999999" y2="424.4954485370584" stroke="#000"/>
<line x1="890.125" y1="498.0" x2="890.125" y2="502.79999999999995" stroke="#000"/>
<text x="890.125" y="512.4" fill="#111" font-size="small" font-family="monospace" font-weight="bold" text-anchor="end" transform="rotate(-60, 890.125, 512.4)">
respond_to
</text>
<rect x="907.75" y="446.0300758174917" width="8.8125" height="51.969924182508244" fill="#7070f8" data-tooltip="1.00x baseline speed (No JIT)"/>
<line x1="907.75" y1="445.80059585779725" x2="916.5625" y2="445.80059585779725" stroke="#000"/>
<line x1="907.75" y1="446.2595557771862" x2="916.5625" y2="446.2595557771862" stroke="#000"/>
<line x1="912.1562499999999" y1="445.80059585779725" x2="912.1562499999999" y2="446.2595557771862" stroke="#000"/>
<rect x="916.5625" y="100.19999999999999" width="8.8125" height="397.79999999999995" fill="orange" data-tooltip="7.65x baseline speed (MJIT)"/>
<line x1="916.5625" y1="-330.6208390016974" x2="925.375" y2="-330.6208390016974" stroke="#000"/>
<line x1="916.5625" y1="531.0208390016974" x2="925.375" y2="531.0208390016974" stroke="#000"/>
<line x1="920.9687499999999" y1="-330.6208390016974" x2="920.9687499999999" y2="531.0208390016974" stroke="#000"/>
<rect x="925.375" y="415.11643809760733" width="8.8125" height="82.88356190239261" fill="green" data-tooltip="1.59x baseline speed (YJIT)"/>
<line x1="925.375" y1="414.5157560165567" x2="934.1875" y2="414.5157560165567" stroke="#000"/>
<line x1="925.375" y1="415.717120178658" x2="934.1875" y2="415.717120178658" stroke="#000"/>
<line x1="929.7812499999999" y1="414.5157560165567" x2="929.7812499999999" y2="415.717120178658" stroke="#000"/>
<line x1="925.375" y1="498.0" x2="925.375" y2="502.79999999999995" stroke="#000"/>
<text x="925.375" y="512.4" fill="#111" font-size="small" font-family="monospace" font-weight="bold" text-anchor="end" transform="rotate(-60, 925.375, 512.4)">
setivar
</text>
</svg>