<svg viewBox="0 0 1000 600" xmlns="http://www.w3.org/2000/svg" xmlns:xlink="http://www.w3.org/1999/xlink" width="100%" height="100%">

<rect x="50.0" y="30.0" width="940.0" height="467.99999999999994" stroke="#000" fill="#EEE"/>
<line x1="42.0" y1="497.9999999999999" x2="50.0" y2="497.9999999999999" stroke="#000"/>
<text x="26.000000000000004" y="497.9999999999999" text-anchor="end" font-weight="bold" font-size="small" fill="#111">
0.0
</text>
<line x1="42.0" y1="428.25452936046753" x2="50.0" y2="428.25452936046753" stroke="#000"/>
<text x="26.000000000000004" y="428.25452936046753" text-anchor="end" font-weight="bold" font-size="small" fill="#111">
0.5
</text>
<line x1="42.0" y1="358.50905872093506" x2="50.0" y2="358.50905872093506" stroke="#000"/>
<text x="26.000000000000004" y="358.50905872093506" text-anchor="end" font-weight="bold" font-size="small" fill="#111">
1.0
</text>
<line x1="42.0" y1="288.76358808140265" x2="50.0" y2="288.76358808140265" stroke="#000"/>
<text x="26.000000000000004" y="288.76358808140265" text-anchor="end" font-weight="bold" font-size="small" fill="#111">
1.5
</text>
<line x1="42.0" y1="219.0181174418702" x2="50.0" y2="219.0181174418702" stroke="#000"/>
<text x="26.000000000000004" y="219.0181174418702" text-anchor="end" font-weight="bold" font-size="small" fill="#111">
2.0
</text>
<line x1="42.0" y1="149.27264680233785" x2="50.0" y2="149.27264680233785" stroke="#000"/>
<text x="26.000000000000004" y="149.27264680233785" text-anchor="end" font-weight="bold" font-size="small" fill="#111">
2.5
</text>
<rect x="268.5" y="36.00000000000001" width="80.0" height="18.0" fill="#7070f8" stroke="#888"/>
<text x="308.5" y="52.50000000000001" font-size="small" text-anchor="middle" font-weight="bold" fill="#EEE">
No JIT
</text>
<rect x="691.4999999999999" y="36.00000000000001" width="80.0" height="18.0" fill="orange" stroke="#888"/>
<text x="731.4999999999999" y="52.50000000000001" font-size="small" text-anchor="middle" font-weight="bold" fill="#EEE">
YJIT
</text>
<rect x="97.0" y="358.50905872093506" width="25.636363636363637" height="139.49094127906486" fill="#7070f8" data-tooltip="1.00x baseline speed (No JIT)"/>
<line x1="97.0" y1="358.1537409403346" x2="122.63636363636364" y2="358.1537409403346" stroke="#000"/>
<line x1="97.0" y1="358.8643765015355" x2="122.63636363636364" y2="358.8643765015355" stroke="#000"/>
<line x1="109.81818181818181" y1="358.1537409403346" x2="109.81818181818181" y2="358.8643765015355" stroke="#000"/>
<rect x="122.63636363636364" y="239.44595359723348" width="25.636363636363637" height="258.5540464027665" fill="orange" data-tooltip="1.85x baseline speed (YJIT)"/>
<line x1="122.63636363636364" y1="237.68768224029068" x2="148.27272727272728" y2="237.68768224029068" stroke="#000"/>
<line x1="122.63636363636364" y1="241.20422495417628" x2="148.27272727272728" y2="241.20422495417628" stroke="#000"/>
<line x1="135.45454545454547" y1="237.68768224029068" x2="135.45454545454547" y2="241.20422495417628" stroke="#000"/>
<line x1="135.45454545454547" y1="498.0" x2="135.45454545454547" y2="502.79999999999995" stroke="#000"/>
<text x="135.45454545454547" y="512.4" fill="#111" font-size="small" font-family="monospace" font-weight="bold" text-anchor="end" transform="rotate(-60, 135.45454545454547, 512.4)">
binarytrees
</text>
<rect x="173.9090909090909" y="358.50905872093506" width="25.636363636363637" height="139.49094127906486" fill="#7070f8" data-tooltip="1.00x baseline speed (No JIT)"/>
<line x1="173.9090909090909" y1="358.24097307218807" x2="199.54545454545453" y2="358.24097307218807" stroke="#000"/>
<line x1="173.9090909090909" y1="358.77714436968205" x2="199.54545454545453" y2="358.77714436968205" stroke="#000"/>
<line x1="186.72727272727272" y1="358.24097307218807" x2="186.72727272727272" y2="358.77714436968205" stroke="#000"/>
<rect x="199.54545454545453" y="289.57337568908116" width="25.636363636363637" height="208.42662431091875" fill="orange" data-tooltip="1.49x baseline speed (YJIT)"/>
<line x1="199.54545454545453" y1="289.08446394568193" x2="225.18181818181816" y2="289.08446394568193" stroke="#000"/>
<line x1="199.54545454545453" y1="290.06228743248045" x2="225.18181818181816" y2="290.06228743248045" stroke="#000"/>
<line x1="212.36363636363635" y1="289.08446394568193" x2="212.36363636363635" y2="290.06228743248045" stroke="#000"/>
<line x1="212.36363636363637" y1="498.0" x2="212.36363636363637" y2="502.79999999999995" stroke="#000"/>
<text x="212.36363636363637" y="512.4" fill="#111" font-size="small" font-family="monospace" font-weight="bold" text-anchor="end" transform="rotate(-60, 212.36363636363637, 512.4)">
chunky_png
</text>
<rect x="250.81818181818184" y="358.50905872093506" width="25.636363636363637" height="139.49094127906486" fill="#7070f8" data-tooltip="1.00x baseline speed (No JIT)"/>
<line x1="250.81818181818184" y1="357.5316430567726" x2="276.45454545454544" y2="357.5316430567726" stroke="#000"/>
<line x1="250.81818181818184" y1="359.4864743850975" x2="276.45454545454544" y2="359.4864743850975" stroke="#000"/>
<line x1="263.6363636363637" y1="357.5316430567726" x2="263.6363636363637" y2="359.4864743850975" stroke="#000"/>
<rect x="276.45454545454544" y="340.4957979528219" width="25.636363636363637" height="157.50420204717807" fill="orange" data-tooltip="1.13x baseline speed (YJIT)"/>
<line x1="276.45454545454544" y1="338.7417664262805" x2="302.09090909090907" y2="338.7417664262805" stroke="#000"/>
<line x1="276.45454545454544" y1="342.2498294793632" x2="302.09090909090907" y2="342.2498294793632" stroke="#000"/>
<line x1="289.2727272727273" y1="338.7417664262805" x2="289.2727272727273" y2="342.2498294793632" stroke="#000"/>
<line x1="289.2727272727273" y1="498.0" x2="289.2727272727273" y2="502.79999999999995" stroke="#000"/>
<text x="289.2727272727273" y="512.4" fill="#111" font-size="small" font-family="monospace" font-weight="bold" text-anchor="end" transform="rotate(-60, 289.2727272727273, 512.4)">
erubi
</text>
<rect x="327.72727272727275" y="358.50905872093506" width="25.636363636363637" height="139.49094127906486" fill="#7070f8" data-tooltip="1.00x baseline speed (No JIT)"/>
<line x1="327.72727272727275" y1="356.12022073833197" x2="353.3636363636364" y2="356.12022073833197" stroke="#000"/>
<line x1="327.72727272727275" y1="360.89789670353815" x2="353.3636363636364" y2="360.89789670353815" stroke="#000"/>
<line x1="340.5454545454546" y1="356.12022073833197" x2="340.5454545454546" y2="360.89789670353815" stroke="#000"/>
<rect x="353.3636363636364" y="305.8907239635034" width="25.636363636363637" height="192.10927603649662" fill="orange" data-tooltip="1.38x baseline speed (YJIT)"/>
<line x1="353.3636363636364" y1="300.7762092868287" x2="379.0" y2="300.7762092868287" stroke="#000"/>
<line x1="353.3636363636364" y1="311.00523864017805" x2="379.0" y2="311.00523864017805" stroke="#000"/>
<line x1="366.18181818181824" y1="300.7762092868287" x2="366.18181818181824" y2="311.00523864017805" stroke="#000"/>
<line x1="366.18181818181824" y1="498.0" x2="366.18181818181824" y2="502.79999999999995" stroke="#000"/>
<text x="366.18181818181824" y="512.4" fill="#111" font-size="small" font-family="monospace" font-weight="bold" text-anchor="end" transform="rotate(-60, 366.18181818181824, 512.4)">
erubi_rails
</text>
<rect x="404.6363636363637" y="358.50905872093506" width="25.636363636363637" height="139.49094127906486" fill="#7070f8" data-tooltip="1.00x baseline speed (No JIT)"/>
<line x1="404.6363636363637" y1="357.93298762575256" x2="430.2727272727273" y2="357.93298762575256" stroke="#000"/>
<line x1="404.6363636363637" y1="359.08512981611756" x2="430.2727272727273" y2="359.08512981611756" stroke="#000"/>
<line x1="417.4545454545455" y1="357.93298762575256" x2="417.4545454545455" y2="359.08512981611756" stroke="#000"/>
<rect x="430.2727272727273" y="358.2536106207888" width="25.636363636363637" height="139.7463893792111" fill="orange" data-tooltip="1.00x baseline speed (YJIT)"/>
<line x1="430.2727272727273" y1="357.4218915987076" x2="455.90909090909093" y2="357.4218915987076" stroke="#000"/>
<line x1="430.2727272727273" y1="359.08532964286997" x2="455.90909090909093" y2="359.08532964286997" stroke="#000"/>
<line x1="443.0909090909091" y1="357.4218915987076" x2="443.0909090909091" y2="359.08532964286997" stroke="#000"/>
<line x1="443.0909090909091" y1="498.0" x2="443.0909090909091" y2="502.79999999999995" stroke="#000"/>
<text x="443.0909090909091" y="512.4" fill="#111" font-size="small" font-family="monospace" font-weight="bold" text-anchor="end" transform="rotate(-60, 443.0909090909091, 512.4)">
etanni
</text>
<rect x="481.5454545454546" y="358.50905872093506" width="25.636363636363637" height="139.49094127906486" fill="#7070f8" data-tooltip="1.00x baseline speed (No JIT)"/>
<line x1="481.5454545454546" y1="356.1010727803116" x2="507.1818181818183" y2="356.1010727803116" stroke="#000"/>
<line x1="481.5454545454546" y1="360.9170446615585" x2="507.1818181818183" y2="360.9170446615585" stroke="#000"/>
<line x1="494.36363636363643" y1="356.1010727803116" x2="494.36363636363643" y2="360.9170446615585" stroke="#000"/>
<rect x="507.1818181818183" y="100.19999999999999" width="25.636363636363637" height="397.79999999999995" fill="orange" data-tooltip="2.85x baseline speed (YJIT)"/>
<line x1="507.1818181818183" y1="93.32418341841581" x2="532.818181818182" y2="93.32418341841581" stroke="#000"/>
<line x1="507.1818181818183" y1="107.07581658158416" x2="532.818181818182" y2="107.07581658158416" stroke="#000"/>
<line x1="520.0000000000001" y1="93.32418341841581" x2="520.0000000000001" y2="107.07581658158416" stroke="#000"/>
<line x1="520.0" y1="498.0" x2="520.0" y2="502.79999999999995" stroke="#000"/>
<text x="520.0" y="512.4" fill="#111" font-size="small" font-family="monospace" font-weight="bold" text-anchor="end" transform="rotate(-60, 520.0, 512.4)">
fannkuchredux
</text>
<rect x="558.4545454545454" y="358.50905872093506" width="25.636363636363637" height="139.49094127906486" fill="#7070f8" data-tooltip="1.00x baseline speed (No JIT)"/>
<line x1="558.4545454545454" y1="358.0267168794161" x2="584.0909090909091" y2="358.0267168794161" stroke="#000"/>
<line x1="558.4545454545454" y1="358.99140056245403" x2="584.0909090909091" y2="358.99140056245403" stroke="#000"/>
<line x1="571.2727272727273" y1="358.0267168794161" x2="571.2727272727273" y2="358.99140056245403" stroke="#000"/>
<rect x="584.0909090909091" y="302.42603037980683" width="25.636363636363637" height="195.5739696201931" fill="orange" data-tooltip="1.40x baseline speed (YJIT)"/>
<line x1="584.0909090909091" y1="301.60591736311517" x2="609.7272727272727" y2="301.60591736311517" stroke="#000"/>
<line x1="584.0909090909091" y1="303.2461433964985" x2="609.7272727272727" y2="303.2461433964985" stroke="#000"/>
<line x1="596.909090909091" y1="301.60591736311517" x2="596.909090909091" y2="303.2461433964985" stroke="#000"/>
<line x1="596.9090909090909" y1="498.0" x2="596.9090909090909" y2="502.79999999999995" stroke="#000"/>
<text x="596.9090909090909" y="512.4" fill="#111" font-size="small" font-family="monospace" font-weight="bold" text-anchor="end" transform="rotate(-60, 596.9090909090909, 512.4)">
lee
</text>
<rect x="635.3636363636364" y="358.50905872093506" width="25.636363636363637" height="139.49094127906486" fill="#7070f8" data-tooltip="1.00x baseline speed (No JIT)"/>
<line x1="635.3636363636364" y1="355.5044340128539" x2="661.0" y2="355.5044340128539" stroke="#000"/>
<line x1="635.3636363636364" y1="361.5136834290162" x2="661.0" y2="361.5136834290162" stroke="#000"/>
<line x1="648.1818181818182" y1="355.5044340128539" x2="648.1818181818182" y2="361.5136834290162" stroke="#000"/>
<rect x="661.0" y="268.4082098793216" width="25.636363636363637" height="229.59179012067835" fill="orange" data-tooltip="1.65x baseline speed (YJIT)"/>
<line x1="661.0" y1="263.4607441804154" x2="686.6363636363637" y2="263.4607441804154" stroke="#000"/>
<line x1="661.0" y1="273.35567557822776" x2="686.6363636363637" y2="273.35567557822776" stroke="#000"/>
<line x1="673.8181818181819" y1="263.4607441804154" x2="673.8181818181819" y2="273.35567557822776" stroke="#000"/>
<line x1="673.8181818181818" y1="498.0" x2="673.8181818181818" y2="502.79999999999995" stroke="#000"/>
<text x="673.8181818181818" y="512.4" fill="#111" font-size="small" font-family="monospace" font-weight="bold" text-anchor="end" transform="rotate(-60, 673.8181818181818, 512.4)">
nbody
</text>
<rect x="712.2727272727273" y="358.50905872093506" width="25.636363636363637" height="139.49094127906486" fill="#7070f8" data-tooltip="1.00x baseline speed (No JIT)"/>
<line x1="712.2727272727273" y1="357.7543790386637" x2="737.909090909091" y2="357.7543790386637" stroke="#000"/>
<line x1="712.2727272727273" y1="359.2637384032064" x2="737.909090909091" y2="359.2637384032064" stroke="#000"/>
<line x1="725.0909090909091" y1="357.7543790386637" x2="725.0909090909091" y2="359.2637384032064" stroke="#000"/>
<rect x="737.909090909091" y="275.02187255103047" width="25.636363636363637" height="222.97812744896947" fill="orange" data-tooltip="1.60x baseline speed (YJIT)"/>
<line x1="737.909090909091" y1="273.1597800306229" x2="763.5454545454546" y2="273.1597800306229" stroke="#000"/>
<line x1="737.909090909091" y1="276.88396507143796" x2="763.5454545454546" y2="276.88396507143796" stroke="#000"/>
<line x1="750.7272727272727" y1="273.1597800306229" x2="750.7272727272727" y2="276.88396507143796" stroke="#000"/>
<line x1="750.7272727272726" y1="498.0" x2="750.7272727272726" y2="502.79999999999995" stroke="#000"/>
<text x="750.7272727272726" y="512.4" fill="#111" font-size="small" font-family="monospace" font-weight="bold" text-anchor="end" transform="rotate(-60, 750.7272727272726, 512.4)">
optcarrot
</text>
<rect x="789.1818181818182" y="358.50905872093506" width="25.636363636363637" height="139.49094127906486" fill="#7070f8" data-tooltip="1.00x baseline speed (No JIT)"/>
<line x1="789.1818181818182" y1="358.3214428216756" x2="814.8181818181819" y2="358.3214428216756" stroke="#000"/>
<line x1="789.1818181818182" y1="358.6966746201945" x2="814.8181818181819" y2="358.6966746201945" stroke="#000"/>
<line x1="802.0" y1="358.3214428216756" x2="802.0" y2="358.6966746201945" stroke="#000"/>
<rect x="814.8181818181819" y="328.01859056976025" width="25.636363636363637" height="169.9814094302396" fill="orange" data-tooltip="1.22x baseline speed (YJIT)"/>
<line x1="814.8181818181819" y1="327.77981651132643" x2="840.4545454545456" y2="327.77981651132643" stroke="#000"/>
<line x1="814.8181818181819" y1="328.2573646281941" x2="840.4545454545456" y2="328.2573646281941" stroke="#000"/>
<line x1="827.6363636363637" y1="327.77981651132643" x2="827.6363636363637" y2="328.2573646281941" stroke="#000"/>
<line x1="827.6363636363636" y1="498.0" x2="827.6363636363636" y2="502.79999999999995" stroke="#000"/>
<text x="827.6363636363636" y="512.4" fill="#111" font-size="small" font-family="monospace" font-weight="bold" text-anchor="end" transform="rotate(-60, 827.6363636363636, 512.4)">
ruby-json
</text>
<rect x="866.0909090909091" y="358.50905872093506" width="25.636363636363637" height="139.49094127906486" fill="#7070f8" data-tooltip="1.00x baseline speed (No JIT)"/>
<line x1="866.0909090909091" y1="357.6678543772438" x2="891.7272727272729" y2="357.6678543772438" stroke="#000"/>
<line x1="866.0909090909091" y1="359.3502630646263" x2="891.7272727272729" y2="359.3502630646263" stroke="#000"/>
<line x1="878.909090909091" y1="357.6678543772438" x2="878.909090909091" y2="359.3502630646263" stroke="#000"/>
<rect x="891.7272727272729" y="282.76743056000737" width="25.636363636363637" height="215.23256943999255" fill="orange" data-tooltip="1.54x baseline speed (YJIT)"/>
<line x1="891.7272727272729" y1="281.2394524371308" x2="917.3636363636365" y2="281.2394524371308" stroke="#000"/>
<line x1="891.7272727272729" y1="284.295408682884" x2="917.3636363636365" y2="284.295408682884" stroke="#000"/>
<line x1="904.5454545454546" y1="281.2394524371308" x2="904.5454545454546" y2="284.295408682884" stroke="#000"/>
<line x1="904.5454545454545" y1="498.0" x2="904.5454545454545" y2="502.79999999999995" stroke="#000"/>
<text x="904.5454545454545" y="512.4" fill="#111" font-size="small" font-family="monospace" font-weight="bold" text-anchor="end" transform="rotate(-60, 904.5454545454545, 512.4)">
rubykon
</text>
</svg>