<svg viewBox="0 0 1000 600" xmlns="http://www.w3.org/2000/svg" xmlns:xlink="http://www.w3.org/1999/xlink" width="100%" height="100%">

<rect x="50.0" y="30.0" width="940.0" height="467.99999999999994" stroke="#000" fill="#EEE"/>
<line x1="42.0" y1="497.9999999999999" x2="50.0" y2="497.9999999999999" stroke="#000"/>
<text x="26.000000000000004" y="497.9999999999999" text-anchor="end" font-weight="bold" font-size="small" fill="#111">
0.0
</text>
<line x1="42.0" y1="451.7270532534531" x2="50.0" y2="451.7270532534531" stroke="#000"/>
<text x="26.000000000000004" y="451.7270532534531" text-anchor="end" font-weight="bold" font-size="small" fill="#111">
0.2
</text>
<line x1="42.0" y1="405.45410650690616" x2="50.0" y2="405.45410650690616" stroke="#000"/>
<text x="26.000000000000004" y="405.45410650690616" text-anchor="end" font-weight="bold" font-size="small" fill="#111">
0.4
</text>
<line x1="42.0" y1="359.18115976035915" x2="50.0" y2="359.18115976035915" stroke="#000"/>
<text x="26.000000000000004" y="359.18115976035915" text-anchor="end" font-weight="bold" font-size="small" fill="#111">
0.6
</text>
<line x1="42.0" y1="312.9082130138123" x2="50.0" y2="312.9082130138123" stroke="#000"/>
<text x="26.000000000000004" y="312.9082130138123" text-anchor="end" font-weight="bold" font-size="small" fill="#111">
0.8
</text>
<line x1="42.0" y1="266.63526626726537" x2="50.0" y2="266.63526626726537" stroke="#000"/>
<text x="26.000000000000004" y="266.63526626726537" text-anchor="end" font-weight="bold" font-size="small" fill="#111">
1.0
</text>
<line x1="42.0" y1="220.36231952071847" x2="50.0" y2="220.36231952071847" stroke="#000"/>
<text x="26.000000000000004" y="220.36231952071847" text-anchor="end" font-weight="bold" font-size="small" fill="#111">
1.2
</text>
<line x1="42.0" y1="174.08937277417158" x2="50.0" y2="174.08937277417158" stroke="#000"/>
<text x="26.000000000000004" y="174.08937277417158" text-anchor="end" font-weight="bold" font-size="small" fill="#111">
1.4
</text>
<line x1="42.0" y1="127.81642602762466" x2="50.0" y2="127.81642602762466" stroke="#000"/>
<text x="26.000000000000004" y="127.81642602762466" text-anchor="end" font-weight="bold" font-size="small" fill="#111">
1.6
</text>
<rect x="268.5" y="36.00000000000001" width="80.0" height="18.0" fill="#7070f8" stroke="#888"/>
<text x="308.5" y="52.50000000000001" font-size="small" text-anchor="middle" font-weight="bold" fill="#EEE">
No JIT
</text>
<rect x="691.4999999999999" y="36.00000000000001" width="80.0" height="18.0" fill="orange" stroke="#888"/>
<text x="731.4999999999999" y="52.50000000000001" font-size="small" text-anchor="middle" font-weight="bold" fill="#EEE">
YJIT
</text>
<rect x="97.0" y="266.63526626726537" width="31.333333333333332" height="231.36473373273455" fill="#7070f8" data-tooltip="1.00x baseline speed (No JIT)"/>
<line x1="97.0" y1="265.6837346703644" x2="128.33333333333331" y2="265.6837346703644" stroke="#000"/>
<line x1="97.0" y1="267.58679786416633" x2="128.33333333333331" y2="267.58679786416633" stroke="#000"/>
<line x1="112.66666666666667" y1="265.6837346703644" x2="112.66666666666667" y2="267.58679786416633" stroke="#000"/>
<rect x="128.33333333333331" y="120.77940418828052" width="31.333333333333332" height="377.2205958117195" fill="orange" data-tooltip="1.63x baseline speed (YJIT)"/>
<line x1="128.33333333333331" y1="117.89438979672265" x2="159.66666666666666" y2="117.89438979672265" stroke="#000"/>
<line x1="128.33333333333331" y1="123.6644185798384" x2="159.66666666666666" y2="123.6644185798384" stroke="#000"/>
<line x1="144.0" y1="117.89438979672265" x2="144.0" y2="123.6644185798384" stroke="#000"/>
<line x1="144.00000000000003" y1="498.0" x2="144.00000000000003" y2="502.79999999999995" stroke="#000"/>
<text x="144.00000000000003" y="512.4" fill="#111" font-size="small" font-family="monospace" font-weight="bold" text-anchor="end" transform="rotate(-60, 144.00000000000003, 512.4)">
activerecord
</text>
<rect x="191.0" y="266.63526626726537" width="31.333333333333332" height="231.36473373273455" fill="#7070f8" data-tooltip="1.00x baseline speed (No JIT)"/>
<line x1="191.0" y1="264.4460239088633" x2="222.33333333333331" y2="264.4460239088633" stroke="#000"/>
<line x1="191.0" y1="268.8245086256674" x2="222.33333333333331" y2="268.8245086256674" stroke="#000"/>
<line x1="206.66666666666666" y1="264.4460239088633" x2="206.66666666666666" y2="268.8245086256674" stroke="#000"/>
<rect x="222.33333333333331" y="147.55714410496356" width="31.333333333333332" height="350.4428558950364" fill="orange" data-tooltip="1.51x baseline speed (YJIT)"/>
<line x1="222.33333333333331" y1="140.26452003173503" x2="253.66666666666666" y2="140.26452003173503" stroke="#000"/>
<line x1="222.33333333333331" y1="154.84976817819205" x2="253.66666666666666" y2="154.84976817819205" stroke="#000"/>
<line x1="238.0" y1="140.26452003173503" x2="238.0" y2="154.84976817819205" stroke="#000"/>
<line x1="238.0" y1="498.0" x2="238.0" y2="502.79999999999995" stroke="#000"/>
<text x="238.0" y="512.4" fill="#111" font-size="small" font-family="monospace" font-weight="bold" text-anchor="end" transform="rotate(-60, 238.0, 512.4)">
hexapdf
</text>
<rect x="285.00000000000006" y="266.63526626726537" width="31.333333333333332" height="231.36473373273455" fill="#7070f8" data-tooltip="1.00x baseline speed (No JIT)"/>
<line x1="285.00000000000006" y1="262.86441045369855" x2="316.33333333333337" y2="262.86441045369855" stroke="#000"/>
<line x1="285.00000000000006" y1="270.40612208083223" x2="316.33333333333337" y2="270.40612208083223" stroke="#000"/>
<line x1="300.6666666666667" y1="262.86441045369855" x2="300.6666666666667" y2="270.40612208083223" stroke="#000"/>
<rect x="316.33333333333337" y="196.1841148557352" width="31.333333333333332" height="301.8158851442647" fill="orange" data-tooltip="1.30x baseline speed (YJIT)"/>
<line x1="316.33333333333337" y1="185.40719470800872" x2="347.6666666666667" y2="185.40719470800872" stroke="#000"/>
<line x1="316.33333333333337" y1="206.96103500346166" x2="347.6666666666667" y2="206.96103500346166" stroke="#000"/>
<line x1="332.0" y1="185.40719470800872" x2="332.0" y2="206.96103500346166" stroke="#000"/>
<line x1="332.0" y1="498.0" x2="332.0" y2="502.79999999999995" stroke="#000"/>
<text x="332.0" y="512.4" fill="#111" font-size="small" font-family="monospace" font-weight="bold" text-anchor="end" transform="rotate(-60, 332.0, 512.4)">
liquid-c
</text>
<rect x="379.0" y="266.63526626726537" width="31.333333333333332" height="231.36473373273455" fill="#7070f8" data-tooltip="1.00x baseline speed (No JIT)"/>
<line x1="379.0" y1="264.47222580735706" x2="410.3333333333333" y2="264.47222580735706" stroke="#000"/>
<line x1="379.0" y1="268.79830672717367" x2="410.3333333333333" y2="268.79830672717367" stroke="#000"/>
<line x1="394.6666666666667" y1="264.47222580735706" x2="394.6666666666667" y2="268.79830672717367" stroke="#000"/>
<rect x="410.3333333333333" y="100.19999999999999" width="31.333333333333332" height="397.79999999999995" fill="orange" data-tooltip="1.72x baseline speed (YJIT)"/>
<line x1="410.3333333333333" y1="91.60218806071921" x2="441.66666666666663" y2="91.60218806071921" stroke="#000"/>
<line x1="410.3333333333333" y1="108.79781193928076" x2="441.66666666666663" y2="108.79781193928076" stroke="#000"/>
<line x1="426.0" y1="91.60218806071921" x2="426.0" y2="108.79781193928076" stroke="#000"/>
<line x1="426.0" y1="498.0" x2="426.0" y2="502.79999999999995" stroke="#000"/>
<text x="426.0" y="512.4" fill="#111" font-size="small" font-family="monospace" font-weight="bold" text-anchor="end" transform="rotate(-60, 426.0, 512.4)">
liquid-render
</text>
<rect x="473.0" y="266.63526626726537" width="31.333333333333332" height="231.36473373273455" fill="#7070f8" data-tooltip="1.00x baseline speed (No JIT)"/>
<line x1="473.0" y1="266.29028279413615" x2="504.3333333333333" y2="266.29028279413615" stroke="#000"/>
<line x1="473.0" y1="266.98024974039464" x2="504.3333333333333" y2="266.98024974039464" stroke="#000"/>
<line x1="488.66666666666663" y1="266.29028279413615" x2="488.66666666666663" y2="266.98024974039464" stroke="#000"/>
<rect x="504.3333333333333" y="221.5848117749252" width="31.333333333333332" height="276.4151882250747" fill="orange" data-tooltip="1.19x baseline speed (YJIT)"/>
<line x1="504.3333333333333" y1="220.89445112641957" x2="535.6666666666666" y2="220.89445112641957" stroke="#000"/>
<line x1="504.3333333333333" y1="222.27517242343086" x2="535.6666666666666" y2="222.27517242343086" stroke="#000"/>
<line x1="520.0" y1="220.89445112641957" x2="520.0" y2="222.27517242343086" stroke="#000"/>
<line x1="520.0" y1="498.0" x2="520.0" y2="502.79999999999995" stroke="#000"/>
<text x="520.0" y="512.4" fill="#111" font-size="small" font-family="monospace" font-weight="bold" text-anchor="end" transform="rotate(-60, 520.0, 512.4)">
mail
</text>
<rect x="567.0" y="266.63526626726537" width="31.333333333333332" height="231.36473373273455" fill="#7070f8" data-tooltip="1.00x baseline speed (No JIT)"/>
<line x1="567.0" y1="266.42095073264755" x2="598.3333333333333" y2="266.42095073264755" stroke="#000"/>
<line x1="567.0" y1="266.8495818018832" x2="598.3333333333333" y2="266.8495818018832" stroke="#000"/>
<line x1="582.6666666666666" y1="266.42095073264755" x2="582.6666666666666" y2="266.8495818018832" stroke="#000"/>
<rect x="598.3333333333333" y="176.30635022168127" width="31.333333333333332" height="321.6936497783187" fill="orange" data-tooltip="1.39x baseline speed (YJIT)"/>
<line x1="598.3333333333333" y1="175.88912286309636" x2="629.6666666666666" y2="175.88912286309636" stroke="#000"/>
<line x1="598.3333333333333" y1="176.72357758026615" x2="629.6666666666666" y2="176.72357758026615" stroke="#000"/>
<line x1="614.0" y1="175.88912286309636" x2="614.0" y2="176.72357758026615" stroke="#000"/>
<line x1="614.0" y1="498.0" x2="614.0" y2="502.79999999999995" stroke="#000"/>
<text x="614.0" y="512.4" fill="#111" font-size="small" font-family="monospace" font-weight="bold" text-anchor="end" transform="rotate(-60, 614.0, 512.4)">
psych-load
</text>
<rect x="661.0" y="266.63526626726537" width="31.333333333333332" height="231.36473373273455" fill="#7070f8" data-tooltip="1.00x baseline speed (No JIT)"/>
<line x1="661.0" y1="264.7815563778812" x2="692.3333333333334" y2="264.7815563778812" stroke="#000"/>
<line x1="661.0" y1="268.4889761566496" x2="692.3333333333334" y2="268.4889761566496" stroke="#000"/>
<line x1="676.6666666666667" y1="264.7815563778812" x2="676.6666666666667" y2="268.4889761566496" stroke="#000"/>
<rect x="692.3333333333334" y="172.4526288917691" width="31.333333333333332" height="325.54737110823083" fill="orange" data-tooltip="1.41x baseline speed (YJIT)"/>
<line x1="692.3333333333334" y1="166.02993529665005" x2="723.6666666666666" y2="166.02993529665005" stroke="#000"/>
<line x1="692.3333333333334" y1="178.87532248688814" x2="723.6666666666666" y2="178.87532248688814" stroke="#000"/>
<line x1="708.0000000000001" y1="166.02993529665005" x2="708.0000000000001" y2="178.87532248688814" stroke="#000"/>
<line x1="708.0000000000001" y1="498.0" x2="708.0000000000001" y2="502.79999999999995" stroke="#000"/>
<text x="708.0000000000001" y="512.4" fill="#111" font-size="small" font-family="monospace" font-weight="bold" text-anchor="end" transform="rotate(-60, 708.0000000000001, 512.4)">
railsbench
</text>
<rect x="755.0" y="266.63526626726537" width="31.333333333333332" height="231.36473373273455" fill="#7070f8" data-tooltip="1.00x baseline speed (No JIT)"/>
<line x1="755.0" y1="246.18570775869543" x2="786.3333333333334" y2="246.18570775869543" stroke="#000"/>
<line x1="755.0" y1="287.08482477583533" x2="786.3333333333334" y2="287.08482477583533" stroke="#000"/>
<line x1="770.6666666666667" y1="246.18570775869543" x2="770.6666666666667" y2="287.08482477583533" stroke="#000"/>
<rect x="786.3333333333334" y="226.73682116287262" width="31.333333333333332" height="271.2631788371273" fill="orange" data-tooltip="1.17x baseline speed (YJIT)"/>
<line x1="786.3333333333334" y1="170.80254015476157" x2="817.6666666666666" y2="170.80254015476157" stroke="#000"/>
<line x1="786.3333333333334" y1="282.67110217098366" x2="817.6666666666666" y2="282.67110217098366" stroke="#000"/>
<line x1="802.0" y1="170.80254015476157" x2="802.0" y2="282.67110217098366" stroke="#000"/>
<line x1="802.0" y1="498.0" x2="802.0" y2="502.79999999999995" stroke="#000"/>
<text x="802.0" y="512.4" fill="#111" font-size="small" font-family="monospace" font-weight="bold" text-anchor="end" transform="rotate(-60, 802.0, 512.4)">
ruby-lsp
</text>
<rect x="849.0" y="266.63526626726537" width="31.333333333333332" height="231.36473373273455" fill="#7070f8" data-tooltip="1.00x baseline speed (No JIT)"/>
<line x1="849.0" y1="263.1822058941571" x2="880.3333333333333" y2="263.1822058941571" stroke="#000"/>
<line x1="849.0" y1="270.0883266403736" x2="880.3333333333333" y2="270.0883266403736" stroke="#000"/>
<line x1="864.6666666666667" y1="263.1822058941571" x2="864.6666666666667" y2="270.0883266403736" stroke="#000"/>
<rect x="880.3333333333333" y="245.13982349114724" width="31.333333333333332" height="252.8601765088527" fill="orange" data-tooltip="1.09x baseline speed (YJIT)"/>
<line x1="880.3333333333333" y1="238.40866734703917" x2="911.6666666666666" y2="238.40866734703917" stroke="#000"/>
<line x1="880.3333333333333" y1="251.8709796352553" x2="911.6666666666666" y2="251.8709796352553" stroke="#000"/>
<line x1="896.0" y1="238.40866734703917" x2="896.0" y2="251.8709796352553" stroke="#000"/>
<line x1="896.0" y1="498.0" x2="896.0" y2="502.79999999999995" stroke="#000"/>
<text x="896.0" y="512.4" fill="#111" font-size="small" font-family="monospace" font-weight="bold" text-anchor="end" transform="rotate(-60, 896.0, 512.4)">
sequel
</text>
</svg>