<svg viewBox="0 0 1000 600" xmlns="http://www.w3.org/2000/svg" xmlns:xlink="http://www.w3.org/1999/xlink" width="100%" height="100%">

<rect x="50.0" y="30.0" width="940.0" height="467.99999999999994" stroke="#000" fill="#EEE"/>
<line x1="42.0" y1="497.9999999999999" x2="50.0" y2="497.9999999999999" stroke="#000"/>
<text x="26.000000000000004" y="497.9999999999999" text-anchor="end" font-weight="bold" font-size="small" fill="#111">
0.0
</text>
<line x1="42.0" y1="405.8108196418176" x2="50.0" y2="405.8108196418176" stroke="#000"/>
<text x="26.000000000000004" y="405.8108196418176" text-anchor="end" font-weight="bold" font-size="small" fill="#111">
2.0
</text>
<line x1="42.0" y1="313.6216392836353" x2="50.0" y2="313.6216392836353" stroke="#000"/>
<text x="26.000000000000004" y="313.6216392836353" text-anchor="end" font-weight="bold" font-size="small" fill="#111">
4.0
</text>
<line x1="42.0" y1="221.432458925453" x2="50.0" y2="221.432458925453" stroke="#000"/>
<text x="26.000000000000004" y="221.432458925453" text-anchor="end" font-weight="bold" font-size="small" fill="#111">
6.0
</text>
<line x1="42.0" y1="129.24327856727066" x2="50.0" y2="129.24327856727066" stroke="#000"/>
<text x="26.000000000000004" y="129.24327856727066" text-anchor="end" font-weight="bold" font-size="small" fill="#111">
8.0
</text>
<rect x="268.5" y="36.00000000000001" width="80.0" height="18.0" fill="#7070f8" stroke="#888"/>
<text x="308.5" y="52.50000000000001" font-size="small" text-anchor="middle" font-weight="bold" fill="#EEE">
No JIT
</text>
<rect x="691.4999999999999" y="36.00000000000001" width="80.0" height="18.0" fill="orange" stroke="#888"/>
<text x="731.4999999999999" y="52.50000000000001" font-size="small" text-anchor="middle" font-weight="bold" fill="#EEE">
YJIT
</text>
<rect x="97.0" y="451.90540982090874" width="10.846153846153845" height="46.09459017909116" fill="#7070f8" data-tooltip="1.00x baseline speed (No JIT)"/>
<line x1="97.0" y1="451.5234071945778" x2="107.84615384615384" y2="451.5234071945778" stroke="#000"/>
<line x1="97.0" y1="452.2874124472397" x2="107.84615384615384" y2="452.2874124472397" stroke="#000"/>
<line x1="102.42307692307692" y1="451.5234071945778" x2="102.42307692307692" y2="452.2874124472397" stroke="#000"/>
<rect x="107.84615384615384" y="425.1585821291315" width="10.846153846153845" height="72.8414178708684" fill="orange" data-tooltip="1.58x baseline speed (YJIT)"/>
<line x1="107.84615384615384" y1="424.26195511718447" x2="118.69230769230768" y2="424.26195511718447" stroke="#000"/>
<line x1="107.84615384615384" y1="426.05520914107854" x2="118.69230769230768" y2="426.05520914107854" stroke="#000"/>
<line x1="113.26923076923076" y1="424.26195511718447" x2="113.26923076923076" y2="426.05520914107854" stroke="#000"/>
<line x1="113.26923076923077" y1="498.0" x2="113.26923076923077" y2="502.79999999999995" stroke="#000"/>
<text x="113.26923076923077" y="512.4" fill="#111" font-size="small" font-family="monospace" font-weight="bold" text-anchor="end" transform="rotate(-60, 113.26923076923077, 512.4)">
activerecord
</text>
<rect x="129.53846153846155" y="451.90540982090874" width="10.846153846153845" height="46.09459017909116" fill="#7070f8" data-tooltip="1.00x baseline speed (No JIT)"/>
<line x1="129.53846153846155" y1="451.53652746812344" x2="140.3846153846154" y2="451.53652746812344" stroke="#000"/>
<line x1="129.53846153846155" y1="452.2742921736941" x2="140.3846153846154" y2="452.2742921736941" stroke="#000"/>
<line x1="134.96153846153845" y1="451.53652746812344" x2="134.96153846153845" y2="452.2742921736941" stroke="#000"/>
<rect x="140.3846153846154" y="434.31922216741646" width="10.846153846153845" height="63.68077783258343" fill="orange" data-tooltip="1.38x baseline speed (YJIT)"/>
<line x1="140.3846153846154" y1="432.80446962612046" x2="151.23076923076923" y2="432.80446962612046" stroke="#000"/>
<line x1="140.3846153846154" y1="435.83397470871245" x2="151.23076923076923" y2="435.83397470871245" stroke="#000"/>
<line x1="145.8076923076923" y1="432.80446962612046" x2="145.8076923076923" y2="435.83397470871245" stroke="#000"/>
<line x1="145.8076923076923" y1="498.0" x2="145.8076923076923" y2="502.79999999999995" stroke="#000"/>
<text x="145.8076923076923" y="512.4" fill="#111" font-size="small" font-family="monospace" font-weight="bold" text-anchor="end" transform="rotate(-60, 145.8076923076923, 512.4)">
hexapdf
</text>
<rect x="162.07692307692307" y="451.90540982090874" width="10.846153846153845" height="46.09459017909116" fill="#7070f8" data-tooltip="1.00x baseline speed (No JIT)"/>
<line x1="162.07692307692307" y1="451.44483677435284" x2="172.9230769230769" y2="451.44483677435284" stroke="#000"/>
<line x1="162.07692307692307" y1="452.3659828674647" x2="172.9230769230769" y2="452.3659828674647" stroke="#000"/>
<line x1="167.49999999999997" y1="451.44483677435284" x2="167.49999999999997" y2="452.3659828674647" stroke="#000"/>
<rect x="172.9230769230769" y="420.39436833696413" width="10.846153846153845" height="77.60563166303575" fill="orange" data-tooltip="1.68x baseline speed (YJIT)"/>
<line x1="172.9230769230769" y1="418.6878084122173" x2="183.76923076923075" y2="418.6878084122173" stroke="#000"/>
<line x1="172.9230769230769" y1="422.10092826171103" x2="183.76923076923075" y2="422.10092826171103" stroke="#000"/>
<line x1="178.3461538461538" y1="418.6878084122173" x2="178.3461538461538" y2="422.10092826171103" stroke="#000"/>
<line x1="178.3461538461538" y1="498.0" x2="178.3461538461538" y2="502.79999999999995" stroke="#000"/>
<text x="178.3461538461538" y="512.4" fill="#111" font-size="small" font-family="monospace" font-weight="bold" text-anchor="end" transform="rotate(-60, 178.3461538461538, 512.4)">
liquid-render
</text>
<rect x="194.6153846153846" y="451.90540982090874" width="10.846153846153845" height="46.09459017909116" fill="#7070f8" data-tooltip="1.00x baseline speed (No JIT)"/>
<line x1="194.6153846153846" y1="451.8406342885444" x2="205.46153846153845" y2="451.8406342885444" stroke="#000"/>
<line x1="194.6153846153846" y1="451.97018535327317" x2="205.46153846153845" y2="451.97018535327317" stroke="#000"/>
<line x1="200.03846153846152" y1="451.8406342885444" x2="200.03846153846152" y2="451.97018535327317" stroke="#000"/>
<rect x="205.46153846153845" y="450.0536003063551" width="10.846153846153845" height="47.946399693644906" fill="orange" data-tooltip="1.04x baseline speed (YJIT)"/>
<line x1="205.46153846153845" y1="449.9506239494797" x2="216.3076923076923" y2="449.9506239494797" stroke="#000"/>
<line x1="205.46153846153845" y1="450.1565766632305" x2="216.3076923076923" y2="450.1565766632305" stroke="#000"/>
<line x1="210.88461538461536" y1="449.9506239494797" x2="210.88461538461536" y2="450.1565766632305" stroke="#000"/>
<line x1="210.88461538461536" y1="498.0" x2="210.88461538461536" y2="502.79999999999995" stroke="#000"/>
<text x="210.88461538461536" y="512.4" fill="#111" font-size="small" font-family="monospace" font-weight="bold" text-anchor="end" transform="rotate(-60, 210.88461538461536, 512.4)">
mail
</text>
<rect x="227.15384615384616" y="451.90540982090874" width="10.846153846153845" height="46.09459017909116" fill="#7070f8" data-tooltip="1.00x baseline speed (No JIT)"/>
<line x1="227.15384615384616" y1="451.8853991567298" x2="238.0" y2="451.8853991567298" stroke="#000"/>
<line x1="227.15384615384616" y1="451.9254204850877" x2="238.0" y2="451.9254204850877" stroke="#000"/>
<line x1="232.57692307692307" y1="451.8853991567298" x2="232.57692307692307" y2="451.9254204850877" stroke="#000"/>
<rect x="238.0" y="438.7036523122078" width="10.846153846153845" height="59.2963476877921" fill="orange" data-tooltip="1.29x baseline speed (YJIT)"/>
<line x1="238.0" y1="438.66964328291664" x2="248.84615384615384" y2="438.66964328291664" stroke="#000"/>
<line x1="238.0" y1="438.7376613414989" x2="248.84615384615384" y2="438.7376613414989" stroke="#000"/>
<line x1="243.4230769230769" y1="438.66964328291664" x2="243.4230769230769" y2="438.7376613414989" stroke="#000"/>
<line x1="243.4230769230769" y1="498.0" x2="243.4230769230769" y2="502.79999999999995" stroke="#000"/>
<text x="243.4230769230769" y="512.4" fill="#111" font-size="small" font-family="monospace" font-weight="bold" text-anchor="end" transform="rotate(-60, 243.4230769230769, 512.4)">
psych-load
</text>
<rect x="259.6923076923077" y="451.90540982090874" width="10.846153846153845" height="46.09459017909116" fill="#7070f8" data-tooltip="1.00x baseline speed (No JIT)"/>
<line x1="259.6923076923077" y1="451.54831635001244" x2="270.5384615384615" y2="451.54831635001244" stroke="#000"/>
<line x1="259.6923076923077" y1="452.26250329180505" x2="270.5384615384615" y2="452.26250329180505" stroke="#000"/>
<line x1="265.1153846153846" y1="451.54831635001244" x2="265.1153846153846" y2="452.26250329180505" stroke="#000"/>
<rect x="270.5384615384615" y="435.1573197246652" width="10.846153846153845" height="62.84268027533475" fill="orange" data-tooltip="1.36x baseline speed (YJIT)"/>
<line x1="270.5384615384615" y1="434.2340582950242" x2="281.38461538461536" y2="434.2340582950242" stroke="#000"/>
<line x1="270.5384615384615" y1="436.08058115430606" x2="281.38461538461536" y2="436.08058115430606" stroke="#000"/>
<line x1="275.96153846153845" y1="434.2340582950242" x2="275.96153846153845" y2="436.08058115430606" stroke="#000"/>
<line x1="275.96153846153845" y1="498.0" x2="275.96153846153845" y2="502.79999999999995" stroke="#000"/>
<text x="275.96153846153845" y="512.4" fill="#111" font-size="small" font-family="monospace" font-weight="bold" text-anchor="end" transform="rotate(-60, 275.96153846153845, 512.4)">
railsbench
</text>
<rect x="292.23076923076917" y="451.90540982090874" width="10.846153846153845" height="46.09459017909116" fill="#7070f8" data-tooltip="1.00x baseline speed (No JIT)"/>
<line x1="292.23076923076917" y1="447.8850363392145" x2="303.07692307692304" y2="447.8850363392145" stroke="#000"/>
<line x1="292.23076923076917" y1="455.925783302603" x2="303.07692307692304" y2="455.925783302603" stroke="#000"/>
<line x1="297.6538461538461" y1="447.8850363392145" x2="297.6538461538461" y2="455.925783302603" stroke="#000"/>
<rect x="303.07692307692304" y="445.69370889859425" width="10.846153846153845" height="52.30629110140572" fill="orange" data-tooltip="1.13x baseline speed (YJIT)"/>
<line x1="303.07692307692304" y1="435.8133340940184" x2="313.92307692307685" y2="435.8133340940184" stroke="#000"/>
<line x1="303.07692307692304" y1="455.5740837031701" x2="313.92307692307685" y2="455.5740837031701" stroke="#000"/>
<line x1="308.49999999999994" y1="435.8133340940184" x2="308.49999999999994" y2="455.5740837031701" stroke="#000"/>
<line x1="308.49999999999994" y1="498.0" x2="308.49999999999994" y2="502.79999999999995" stroke="#000"/>
<text x="308.49999999999994" y="512.4" fill="#111" font-size="small" font-family="monospace" font-weight="bold" text-anchor="end" transform="rotate(-60, 308.49999999999994, 512.4)">
ruby-lsp
</text>
<rect x="324.7692307692308" y="451.90540982090874" width="10.846153846153845" height="46.09459017909116" fill="#7070f8" data-tooltip="1.00x baseline speed (No JIT)"/>
<line x1="324.7692307692308" y1="451.051413014376" x2="335.6153846153846" y2="451.051413014376" stroke="#000"/>
<line x1="324.7692307692308" y1="452.75940662744154" x2="335.6153846153846" y2="452.75940662744154" stroke="#000"/>
<line x1="330.1923076923077" y1="451.051413014376" x2="330.1923076923077" y2="452.75940662744154" stroke="#000"/>
<rect x="335.6153846153846" y="406.3454902018213" width="10.846153846153845" height="91.65450979817865" fill="orange" data-tooltip="1.99x baseline speed (YJIT)"/>
<line x1="335.6153846153846" y1="402.52145275705703" x2="346.46153846153845" y2="402.52145275705703" stroke="#000"/>
<line x1="335.6153846153846" y1="410.1695276465856" x2="346.46153846153845" y2="410.1695276465856" stroke="#000"/>
<line x1="341.0384615384615" y1="402.52145275705703" x2="341.0384615384615" y2="410.1695276465856" stroke="#000"/>
<line x1="341.0384615384615" y1="498.0" x2="341.0384615384615" y2="502.79999999999995" stroke="#000"/>
<text x="341.0384615384615" y="512.4" fill="#111" font-size="small" font-family="monospace" font-weight="bold" text-anchor="end" transform="rotate(-60, 341.0384615384615, 512.4)">
binarytrees
</text>
<rect x="357.3076923076923" y="451.90540982090874" width="10.846153846153845" height="46.09459017909116" fill="#7070f8" data-tooltip="1.00x baseline speed (No JIT)"/>
<line x1="357.3076923076923" y1="451.88786962378236" x2="368.1538461538462" y2="451.88786962378236" stroke="#000"/>
<line x1="357.3076923076923" y1="451.9229500180352" x2="368.1538461538462" y2="451.9229500180352" stroke="#000"/>
<line x1="362.7307692307692" y1="451.88786962378236" x2="362.7307692307692" y2="451.9229500180352" stroke="#000"/>
<rect x="368.1538461538462" y="428.2011067443908" width="10.846153846153845" height="69.79889325560913" fill="orange" data-tooltip="1.51x baseline speed (YJIT)"/>
<line x1="368.1538461538462" y1="428.1551490939945" x2="379.0" y2="428.1551490939945" stroke="#000"/>
<line x1="368.1538461538462" y1="428.24706439478706" x2="379.0" y2="428.24706439478706" stroke="#000"/>
<line x1="373.5769230769231" y1="428.1551490939945" x2="373.5769230769231" y2="428.24706439478706" stroke="#000"/>
<line x1="373.5769230769231" y1="498.0" x2="373.5769230769231" y2="502.79999999999995" stroke="#000"/>
<text x="373.5769230769231" y="512.4" fill="#111" font-size="small" font-family="monospace" font-weight="bold" text-anchor="end" transform="rotate(-60, 373.5769230769231, 512.4)">
chunky_png
</text>
<rect x="389.84615384615387" y="451.90540982090874" width="10.846153846153845" height="46.09459017909116" fill="#7070f8" data-tooltip="1.00x baseline speed (No JIT)"/>
<line x1="389.84615384615387" y1="451.6015541305159" x2="400.6923076923077" y2="451.6015541305159" stroke="#000"/>
<line x1="389.84615384615387" y1="452.2092655113016" x2="400.6923076923077" y2="452.2092655113016" stroke="#000"/>
<line x1="395.2692307692308" y1="451.6015541305159" x2="395.2692307692308" y2="452.2092655113016" stroke="#000"/>
<rect x="400.6923076923077" y="443.43832497028353" width="10.846153846153845" height="54.56167502971633" fill="orange" data-tooltip="1.18x baseline speed (YJIT)"/>
<line x1="400.6923076923077" y1="442.84610597114533" x2="411.53846153846155" y2="442.84610597114533" stroke="#000"/>
<line x1="400.6923076923077" y1="444.0305439694217" x2="411.53846153846155" y2="444.0305439694217" stroke="#000"/>
<line x1="406.1153846153846" y1="442.84610597114533" x2="406.1153846153846" y2="444.0305439694217" stroke="#000"/>
<line x1="406.1153846153846" y1="498.0" x2="406.1153846153846" y2="502.79999999999995" stroke="#000"/>
<text x="406.1153846153846" y="512.4" fill="#111" font-size="small" font-family="monospace" font-weight="bold" text-anchor="end" transform="rotate(-60, 406.1153846153846, 512.4)">
erubi
</text>
<rect x="422.38461538461536" y="451.90540982090874" width="10.846153846153845" height="46.09459017909116" fill="#7070f8" data-tooltip="1.00x baseline speed (No JIT)"/>
<line x1="422.38461538461536" y1="450.6192332981299" x2="433.23076923076917" y2="450.6192332981299" stroke="#000"/>
<line x1="422.38461538461536" y1="453.1915863436876" x2="433.23076923076917" y2="453.1915863436876" stroke="#000"/>
<line x1="427.80769230769226" y1="450.6192332981299" x2="427.80769230769226" y2="453.1915863436876" stroke="#000"/>
<rect x="433.23076923076917" y="431.5367332523306" width="10.846153846153845" height="66.46326674766928" fill="orange" data-tooltip="1.44x baseline speed (YJIT)"/>
<line x1="433.23076923076917" y1="428.3615798580932" x2="444.07692307692304" y2="428.3615798580932" stroke="#000"/>
<line x1="433.23076923076917" y1="434.711886646568" x2="444.07692307692304" y2="434.711886646568" stroke="#000"/>
<line x1="438.65384615384613" y1="428.3615798580932" x2="438.65384615384613" y2="434.711886646568" stroke="#000"/>
<line x1="438.65384615384613" y1="498.0" x2="438.65384615384613" y2="502.79999999999995" stroke="#000"/>
<text x="438.65384615384613" y="512.4" fill="#111" font-size="small" font-family="monospace" font-weight="bold" text-anchor="end" transform="rotate(-60, 438.65384615384613, 512.4)">
erubi_rails
</text>
<rect x="454.92307692307685" y="451.90540982090874" width="10.846153846153845" height="46.09459017909116" fill="#7070f8" data-tooltip="1.00x baseline speed (No JIT)"/>
<line x1="454.92307692307685" y1="451.70429656277406" x2="465.7692307692307" y2="451.70429656277406" stroke="#000"/>
<line x1="454.92307692307685" y1="452.1065230790435" x2="465.7692307692307" y2="452.1065230790435" stroke="#000"/>
<line x1="460.3461538461538" y1="451.70429656277406" x2="460.3461538461538" y2="452.1065230790435" stroke="#000"/>
<rect x="465.7692307692307" y="452.3855851337804" width="10.846153846153845" height="45.614414866219576" fill="orange" data-tooltip="0.99x baseline speed (YJIT)"/>
<line x1="465.7692307692307" y1="452.0884155507902" x2="476.6153846153845" y2="452.0884155507902" stroke="#000"/>
<line x1="465.7692307692307" y1="452.6827547167706" x2="476.6153846153845" y2="452.6827547167706" stroke="#000"/>
<line x1="471.1923076923076" y1="452.0884155507902" x2="471.1923076923076" y2="452.6827547167706" stroke="#000"/>
<line x1="471.1923076923076" y1="498.0" x2="471.1923076923076" y2="502.79999999999995" stroke="#000"/>
<text x="471.1923076923076" y="512.4" fill="#111" font-size="small" font-family="monospace" font-weight="bold" text-anchor="end" transform="rotate(-60, 471.1923076923076, 512.4)">
etanni
</text>
<rect x="487.4615384615384" y="451.90540982090874" width="10.846153846153845" height="46.09459017909116" fill="#7070f8" data-tooltip="1.00x baseline speed (No JIT)"/>
<line x1="487.4615384615384" y1="451.86645029788247" x2="498.3076923076922" y2="451.86645029788247" stroke="#000"/>
<line x1="487.4615384615384" y1="451.944369343935" x2="498.3076923076922" y2="451.944369343935" stroke="#000"/>
<line x1="492.8846153846153" y1="451.86645029788247" x2="492.8846153846153" y2="451.944369343935" stroke="#000"/>
<rect x="498.3076923076922" y="390.56741725265624" width="10.846153846153845" height="107.43258274734376" fill="orange" data-tooltip="2.33x baseline speed (YJIT)"/>
<line x1="498.3076923076922" y1="390.41243624196426" x2="509.1538461538461" y2="390.41243624196426" stroke="#000"/>
<line x1="498.3076923076922" y1="390.72239826334817" x2="509.1538461538461" y2="390.72239826334817" stroke="#000"/>
<line x1="503.7307692307692" y1="390.41243624196426" x2="503.7307692307692" y2="390.72239826334817" stroke="#000"/>
<line x1="503.7307692307692" y1="498.0" x2="503.7307692307692" y2="502.79999999999995" stroke="#000"/>
<text x="503.7307692307692" y="512.4" fill="#111" font-size="small" font-family="monospace" font-weight="bold" text-anchor="end" transform="rotate(-60, 503.7307692307692, 512.4)">
fannkuchredux
</text>
<rect x="520.0" y="451.90540982090874" width="10.846153846153845" height="46.09459017909116" fill="#7070f8" data-tooltip="1.00x baseline speed (No JIT)"/>
<line x1="520.0" y1="451.85264931311946" x2="530.8461538461538" y2="451.85264931311946" stroke="#000"/>
<line x1="520.0" y1="451.95817032869803" x2="530.8461538461538" y2="451.95817032869803" stroke="#000"/>
<line x1="525.423076923077" y1="451.85264931311946" x2="525.423076923077" y2="451.95817032869803" stroke="#000"/>
<rect x="530.8461538461538" y="436.4730756443657" width="10.846153846153845" height="61.52692435563427" fill="orange" data-tooltip="1.33x baseline speed (YJIT)"/>
<line x1="530.8461538461538" y1="436.37165233744736" x2="541.6923076923077" y2="436.37165233744736" stroke="#000"/>
<line x1="530.8461538461538" y1="436.574498951284" x2="541.6923076923077" y2="436.574498951284" stroke="#000"/>
<line x1="536.2692307692308" y1="436.37165233744736" x2="536.2692307692308" y2="436.574498951284" stroke="#000"/>
<line x1="536.2692307692308" y1="498.0" x2="536.2692307692308" y2="502.79999999999995" stroke="#000"/>
<text x="536.2692307692308" y="512.4" fill="#111" font-size="small" font-family="monospace" font-weight="bold" text-anchor="end" transform="rotate(-60, 536.2692307692308, 512.4)">
lee
</text>
<rect x="552.5384615384615" y="451.90540982090874" width="10.846153846153845" height="46.09459017909116" fill="#7070f8" data-tooltip="1.00x baseline speed (No JIT)"/>
<line x1="552.5384615384615" y1="451.81860361503357" x2="563.3846153846154" y2="451.81860361503357" stroke="#000"/>
<line x1="552.5384615384615" y1="451.992216026784" x2="563.3846153846154" y2="451.992216026784" stroke="#000"/>
<line x1="557.9615384615385" y1="451.81860361503357" x2="557.9615384615385" y2="451.992216026784" stroke="#000"/>
<rect x="563.3846153846154" y="425.27556829584574" width="10.846153846153845" height="72.72443170415424" fill="orange" data-tooltip="1.58x baseline speed (YJIT)"/>
<line x1="563.3846153846154" y1="425.1261006569358" x2="574.2307692307692" y2="425.1261006569358" stroke="#000"/>
<line x1="563.3846153846154" y1="425.42503593475567" x2="574.2307692307692" y2="425.42503593475567" stroke="#000"/>
<line x1="568.8076923076924" y1="425.1261006569358" x2="568.8076923076924" y2="425.42503593475567" stroke="#000"/>
<line x1="568.8076923076924" y1="498.0" x2="568.8076923076924" y2="502.79999999999995" stroke="#000"/>
<text x="568.8076923076924" y="512.4" fill="#111" font-size="small" font-family="monospace" font-weight="bold" text-anchor="end" transform="rotate(-60, 568.8076923076924, 512.4)">
nbody
</text>
<rect x="585.0769230769231" y="451.90540982090874" width="10.846153846153845" height="46.09459017909116" fill="#7070f8" data-tooltip="1.00x baseline speed (No JIT)"/>
<line x1="585.0769230769231" y1="451.6640545360013" x2="595.9230769230769" y2="451.6640545360013" stroke="#000"/>
<line x1="585.0769230769231" y1="452.14676510581626" x2="595.9230769230769" y2="452.14676510581626" stroke="#000"/>
<line x1="590.5" y1="451.6640545360013" x2="590.5" y2="452.14676510581626" stroke="#000"/>
<rect x="595.9230769230769" y="406.3161975430254" width="10.846153846153845" height="91.68380245697462" fill="orange" data-tooltip="1.99x baseline speed (YJIT)"/>
<line x1="595.9230769230769" y1="405.6972563560924" x2="606.7692307692307" y2="405.6972563560924" stroke="#000"/>
<line x1="595.9230769230769" y1="406.93513872995834" x2="606.7692307692307" y2="406.93513872995834" stroke="#000"/>
<line x1="601.3461538461538" y1="405.6972563560924" x2="601.3461538461538" y2="406.93513872995834" stroke="#000"/>
<line x1="601.3461538461538" y1="498.0" x2="601.3461538461538" y2="502.79999999999995" stroke="#000"/>
<text x="601.3461538461538" y="512.4" fill="#111" font-size="small" font-family="monospace" font-weight="bold" text-anchor="end" transform="rotate(-60, 601.3461538461538, 512.4)">
optcarrot
</text>
<rect x="617.6153846153845" y="451.90540982090874" width="10.846153846153845" height="46.09459017909116" fill="#7070f8" data-tooltip="1.00x baseline speed (No JIT)"/>
<line x1="617.6153846153845" y1="451.7353812278619" x2="628.4615384615385" y2="451.7353812278619" stroke="#000"/>
<line x1="617.6153846153845" y1="452.0754384139556" x2="628.4615384615385" y2="452.0754384139556" stroke="#000"/>
<line x1="623.0384615384615" y1="451.7353812278619" x2="623.0384615384615" y2="452.0754384139556" stroke="#000"/>
<rect x="628.4615384615385" y="411.63149747471385" width="10.846153846153845" height="86.36850252528603" fill="orange" data-tooltip="1.87x baseline speed (YJIT)"/>
<line x1="628.4615384615385" y1="411.1687388302079" x2="639.3076923076923" y2="411.1687388302079" stroke="#000"/>
<line x1="628.4615384615385" y1="412.09425611921984" x2="639.3076923076923" y2="412.09425611921984" stroke="#000"/>
<line x1="633.8846153846154" y1="411.1687388302079" x2="633.8846153846154" y2="412.09425611921984" stroke="#000"/>
<line x1="633.8846153846154" y1="498.0" x2="633.8846153846154" y2="502.79999999999995" stroke="#000"/>
<text x="633.8846153846154" y="512.4" fill="#111" font-size="small" font-family="monospace" font-weight="bold" text-anchor="end" transform="rotate(-60, 633.8846153846154, 512.4)">
rubykon
</text>
<rect x="650.1538461538461" y="451.90540982090874" width="10.846153846153845" height="46.09459017909116" fill="#7070f8" data-tooltip="1.00x baseline speed (No JIT)"/>
<line x1="650.1538461538461" y1="451.90069356572985" x2="660.9999999999999" y2="451.90069356572985" stroke="#000"/>
<line x1="650.1538461538461" y1="451.9101260760877" x2="660.9999999999999" y2="451.9101260760877" stroke="#000"/>
<line x1="655.5769230769231" y1="451.90069356572985" x2="655.5769230769231" y2="451.9101260760877" stroke="#000"/>
<rect x="660.9999999999999" y="224.99161625924984" width="10.846153846153845" height="273.00838374075005" fill="orange" data-tooltip="5.92x baseline speed (YJIT)"/>
<line x1="660.9999999999999" y1="224.67497074075047" x2="671.8461538461538" y2="224.67497074075047" stroke="#000"/>
<line x1="660.9999999999999" y1="225.3082617777492" x2="671.8461538461538" y2="225.3082617777492" stroke="#000"/>
<line x1="666.4230769230769" y1="224.67497074075047" x2="666.4230769230769" y2="225.3082617777492" stroke="#000"/>
<line x1="666.4230769230769" y1="498.0" x2="666.4230769230769" y2="502.79999999999995" stroke="#000"/>
<text x="666.4230769230769" y="512.4" fill="#111" font-size="small" font-family="monospace" font-weight="bold" text-anchor="end" transform="rotate(-60, 666.4230769230769, 512.4)">
30k_ifelse
</text>
<rect x="682.6923076923076" y="451.90540982090874" width="10.846153846153845" height="46.09459017909116" fill="#7070f8" data-tooltip="1.00x baseline speed (No JIT)"/>
<line x1="682.6923076923076" y1="451.9034657717738" x2="693.5384615384614" y2="451.9034657717738" stroke="#000"/>
<line x1="682.6923076923076" y1="451.9073538700437" x2="693.5384615384614" y2="451.9073538700437" stroke="#000"/>
<line x1="688.1153846153845" y1="451.9034657717738" x2="688.1153846153845" y2="451.9073538700437" stroke="#000"/>
<rect x="693.5384615384614" y="189.48041057098953" width="10.846153846153845" height="308.51958942901047" fill="orange" data-tooltip="6.69x baseline speed (YJIT)"/>
<line x1="693.5384615384614" y1="189.3826987064443" x2="704.3846153846152" y2="189.3826987064443" stroke="#000"/>
<line x1="693.5384615384614" y1="189.57812243553474" x2="704.3846153846152" y2="189.57812243553474" stroke="#000"/>
<line x1="698.9615384615385" y1="189.3826987064443" x2="698.9615384615385" y2="189.57812243553474" stroke="#000"/>
<line x1="698.9615384615385" y1="498.0" x2="698.9615384615385" y2="502.79999999999995" stroke="#000"/>
<text x="698.9615384615385" y="512.4" fill="#111" font-size="small" font-family="monospace" font-weight="bold" text-anchor="end" transform="rotate(-60, 698.9615384615385, 512.4)">
30k_methods
</text>
<rect x="715.2307692307692" y="451.90540982090874" width="10.846153846153845" height="46.09459017909116" fill="#7070f8" data-tooltip="1.00x baseline speed (No JIT)"/>
<line x1="715.2307692307692" y1="451.8420734656495" x2="726.0769230769231" y2="451.8420734656495" stroke="#000"/>
<line x1="715.2307692307692" y1="451.968746176168" x2="726.0769230769231" y2="451.968746176168" stroke="#000"/>
<line x1="720.6538461538462" y1="451.8420734656495" x2="720.6538461538462" y2="451.968746176168" stroke="#000"/>
<rect x="726.0769230769231" y="382.5722727833941" width="10.846153846153845" height="115.42772721660585" fill="orange" data-tooltip="2.50x baseline speed (YJIT)"/>
<line x1="726.0769230769231" y1="382.3552999165696" x2="736.9230769230769" y2="382.3552999165696" stroke="#000"/>
<line x1="726.0769230769231" y1="382.7892456502186" x2="736.9230769230769" y2="382.7892456502186" stroke="#000"/>
<line x1="731.5" y1="382.3552999165696" x2="731.5" y2="382.7892456502186" stroke="#000"/>
<line x1="731.5" y1="498.0" x2="731.5" y2="502.79999999999995" stroke="#000"/>
<text x="731.5" y="512.4" fill="#111" font-size="small" font-family="monospace" font-weight="bold" text-anchor="end" transform="rotate(-60, 731.5, 512.4)">
cfunc_itself
</text>
<rect x="747.7692307692307" y="451.90540982090874" width="10.846153846153845" height="46.09459017909116" fill="#7070f8" data-tooltip="1.00x baseline speed (No JIT)"/>
<line x1="747.7692307692307" y1="451.86799136794014" x2="758.6153846153845" y2="451.86799136794014" stroke="#000"/>
<line x1="747.7692307692307" y1="451.9428282738774" x2="758.6153846153845" y2="451.9428282738774" stroke="#000"/>
<line x1="753.1923076923077" y1="451.86799136794014" x2="753.1923076923077" y2="451.9428282738774" stroke="#000"/>
<rect x="758.6153846153845" y="318.6440501352499" width="10.846153846153845" height="179.35594986475007" fill="orange" data-tooltip="3.89x baseline speed (YJIT)"/>
<line x1="758.6153846153845" y1="318.48194836230573" x2="769.4615384615385" y2="318.48194836230573" stroke="#000"/>
<line x1="758.6153846153845" y1="318.8061519081941" x2="769.4615384615385" y2="318.8061519081941" stroke="#000"/>
<line x1="764.0384615384615" y1="318.48194836230573" x2="764.0384615384615" y2="318.8061519081941" stroke="#000"/>
<line x1="764.0384615384615" y1="498.0" x2="764.0384615384615" y2="502.79999999999995" stroke="#000"/>
<text x="764.0384615384615" y="512.4" fill="#111" font-size="small" font-family="monospace" font-weight="bold" text-anchor="end" transform="rotate(-60, 764.0384615384615, 512.4)">
fib
</text>
<rect x="780.3076923076923" y="451.90540982090874" width="10.846153846153845" height="46.09459017909116" fill="#7070f8" data-tooltip="1.00x baseline speed (No JIT)"/>
<line x1="780.3076923076923" y1="451.73127093203516" x2="791.1538461538461" y2="451.73127093203516" stroke="#000"/>
<line x1="780.3076923076923" y1="452.0795487097824" x2="791.1538461538461" y2="452.0795487097824" stroke="#000"/>
<line x1="785.7307692307693" y1="451.73127093203516" x2="785.7307692307693" y2="452.0795487097824" stroke="#000"/>
<rect x="791.1538461538461" y="385.6697726419373" width="10.846153846153845" height="112.33022735806261" fill="orange" data-tooltip="2.44x baseline speed (YJIT)"/>
<line x1="791.1538461538461" y1="385.24226456666366" x2="801.9999999999999" y2="385.24226456666366" stroke="#000"/>
<line x1="791.1538461538461" y1="386.097280717211" x2="801.9999999999999" y2="386.097280717211" stroke="#000"/>
<line x1="796.5769230769231" y1="385.24226456666366" x2="796.5769230769231" y2="386.097280717211" stroke="#000"/>
<line x1="796.5769230769231" y1="498.0" x2="796.5769230769231" y2="502.79999999999995" stroke="#000"/>
<text x="796.5769230769231" y="512.4" fill="#111" font-size="small" font-family="monospace" font-weight="bold" text-anchor="end" transform="rotate(-60, 796.5769230769231, 512.4)">
getivar
</text>
<rect x="812.8461538461538" y="451.90540982090874" width="10.846153846153845" height="46.09459017909116" fill="#7070f8" data-tooltip="1.00x baseline speed (No JIT)"/>
<line x1="812.8461538461538" y1="451.860214259561" x2="823.6923076923076" y2="451.860214259561" stroke="#000"/>
<line x1="812.8461538461538" y1="451.9506053822565" x2="823.6923076923076" y2="451.9506053822565" stroke="#000"/>
<line x1="818.2692307692307" y1="451.860214259561" x2="818.2692307692307" y2="451.9506053822565" stroke="#000"/>
<rect x="823.6923076923076" y="228.5004624819937" width="10.846153846153845" height="269.4995375180062" fill="orange" data-tooltip="5.85x baseline speed (YJIT)"/>
<line x1="823.6923076923076" y1="228.13840704180873" x2="834.5384615384614" y2="228.13840704180873" stroke="#000"/>
<line x1="823.6923076923076" y1="228.8625179221787" x2="834.5384615384614" y2="228.8625179221787" stroke="#000"/>
<line x1="829.1153846153846" y1="228.13840704180873" x2="829.1153846153846" y2="228.8625179221787" stroke="#000"/>
<line x1="829.1153846153846" y1="498.0" x2="829.1153846153846" y2="502.79999999999995" stroke="#000"/>
<text x="829.1153846153846" y="512.4" fill="#111" font-size="small" font-family="monospace" font-weight="bold" text-anchor="end" transform="rotate(-60, 829.1153846153846, 512.4)">
keyword_args
</text>
<rect x="845.3846153846152" y="451.90540982090874" width="10.846153846153845" height="46.09459017909116" fill="#7070f8" data-tooltip="1.00x baseline speed (No JIT)"/>
<line x1="845.3846153846152" y1="451.5141751210789" x2="856.2307692307692" y2="451.5141751210789" stroke="#000"/>
<line x1="845.3846153846152" y1="452.29664452073865" x2="856.2307692307692" y2="452.29664452073865" stroke="#000"/>
<line x1="850.8076923076923" y1="451.5141751210789" x2="850.8076923076923" y2="452.29664452073865" stroke="#000"/>
<rect x="856.2307692307692" y="100.19999999999999" width="10.846153846153845" height="397.79999999999995" fill="orange" data-tooltip="8.63x baseline speed (YJIT)"/>
<line x1="856.2307692307692" y1="96.3929536686234" x2="867.076923076923" y2="96.3929536686234" stroke="#000"/>
<line x1="856.2307692307692" y1="104.00704633137657" x2="867.076923076923" y2="104.00704633137657" stroke="#000"/>
<line x1="861.6538461538461" y1="96.3929536686234" x2="861.6538461538461" y2="104.00704633137657" stroke="#000"/>
<line x1="861.6538461538461" y1="498.0" x2="861.6538461538461" y2="502.79999999999995" stroke="#000"/>
<text x="861.6538461538461" y="512.4" fill="#111" font-size="small" font-family="monospace" font-weight="bold" text-anchor="end" transform="rotate(-60, 861.6538461538461, 512.4)">
respond_to
</text>
<rect x="877.9230769230768" y="451.90540982090874" width="10.846153846153845" height="46.09459017909116" fill="#7070f8" data-tooltip="1.00x baseline speed (No JIT)"/>
<line x1="877.9230769230768" y1="450.9619705156134" x2="888.7692307692306" y2="450.9619705156134" stroke="#000"/>
<line x1="877.9230769230768" y1="452.8488491262041" x2="888.7692307692306" y2="452.8488491262041" stroke="#000"/>
<line x1="883.3461538461538" y1="450.9619705156134" x2="883.3461538461538" y2="452.8488491262041" stroke="#000"/>
<rect x="888.7692307692306" y="417.8921335114984" width="10.846153846153845" height="80.1078664885015" fill="orange" data-tooltip="1.74x baseline speed (YJIT)"/>
<line x1="888.7692307692306" y1="416.23580144834875" x2="899.6153846153845" y2="416.23580144834875" stroke="#000"/>
<line x1="888.7692307692306" y1="419.54846557464805" x2="899.6153846153845" y2="419.54846557464805" stroke="#000"/>
<line x1="894.1923076923076" y1="416.23580144834875" x2="894.1923076923076" y2="419.54846557464805" stroke="#000"/>
<line x1="894.1923076923076" y1="498.0" x2="894.1923076923076" y2="502.79999999999995" stroke="#000"/>
<text x="894.1923076923076" y="512.4" fill="#111" font-size="small" font-family="monospace" font-weight="bold" text-anchor="end" transform="rotate(-60, 894.1923076923076, 512.4)">
setivar
</text>
<rect x="910.4615384615385" y="451.90540982090874" width="10.846153846153845" height="46.09459017909116" fill="#7070f8" data-tooltip="1.00x baseline speed (No JIT)"/>
<line x1="910.4615384615385" y1="451.45619395819637" x2="921.3076923076923" y2="451.45619395819637" stroke="#000"/>
<line x1="910.4615384615385" y1="452.3546256836211" x2="921.3076923076923" y2="452.3546256836211" stroke="#000"/>
<line x1="915.8846153846154" y1="451.45619395819637" x2="915.8846153846154" y2="452.3546256836211" stroke="#000"/>
<rect x="921.3076923076923" y="404.77494575279235" width="10.846153846153845" height="93.2250542472076" fill="orange" data-tooltip="2.02x baseline speed (YJIT)"/>
<line x1="921.3076923076923" y1="402.96759112061693" x2="932.1538461538461" y2="402.96759112061693" stroke="#000"/>
<line x1="921.3076923076923" y1="406.58230038496777" x2="932.1538461538461" y2="406.58230038496777" stroke="#000"/>
<line x1="926.7307692307693" y1="402.96759112061693" x2="926.7307692307693" y2="406.58230038496777" stroke="#000"/>
<line x1="926.7307692307693" y1="498.0" x2="926.7307692307693" y2="502.79999999999995" stroke="#000"/>
<text x="926.7307692307693" y="512.4" fill="#111" font-size="small" font-family="monospace" font-weight="bold" text-anchor="end" transform="rotate(-60, 926.7307692307693, 512.4)">
str_concat
</text>
</svg>