<svg viewBox="0 0 1000 600" xmlns="http://www.w3.org/2000/svg" xmlns:xlink="http://www.w3.org/1999/xlink" width="100%" height="100%">

<rect x="50.0" y="30.0" width="940.0" height="467.99999999999994" stroke="#000" fill="#EEE"/>
<line x1="42.0" y1="497.9999999999999" x2="50.0" y2="497.9999999999999" stroke="#000"/>
<text x="26.000000000000004" y="497.9999999999999" text-anchor="end" font-weight="bold" font-size="small" fill="#111">
0.0
</text>
<line x1="42.0" y1="440.9488463787232" x2="50.0" y2="440.9488463787232" stroke="#000"/>
<text x="26.000000000000004" y="440.9488463787232" text-anchor="end" font-weight="bold" font-size="small" fill="#111">
1.0
</text>
<line x1="42.0" y1="383.8976927574464" x2="50.0" y2="383.8976927574464" stroke="#000"/>
<text x="26.000000000000004" y="383.8976927574464" text-anchor="end" font-weight="bold" font-size="small" fill="#111">
2.0
</text>
<line x1="42.0" y1="326.84653913616967" x2="50.0" y2="326.84653913616967" stroke="#000"/>
<text x="26.000000000000004" y="326.84653913616967" text-anchor="end" font-weight="bold" font-size="small" fill="#111">
3.0
</text>
<line x1="42.0" y1="269.79538551489287" x2="50.0" y2="269.79538551489287" stroke="#000"/>
<text x="26.000000000000004" y="269.79538551489287" text-anchor="end" font-weight="bold" font-size="small" fill="#111">
4.0
</text>
<line x1="42.0" y1="212.74423189361607" x2="50.0" y2="212.74423189361607" stroke="#000"/>
<text x="26.000000000000004" y="212.74423189361607" text-anchor="end" font-weight="bold" font-size="small" fill="#111">
5.0
</text>
<line x1="42.0" y1="155.6930782723393" x2="50.0" y2="155.6930782723393" stroke="#000"/>
<text x="26.000000000000004" y="155.6930782723393" text-anchor="end" font-weight="bold" font-size="small" fill="#111">
6.0
</text>
<rect x="268.5" y="36.00000000000001" width="80.0" height="18.0" fill="#7070f8" stroke="#888"/>
<text x="308.5" y="52.50000000000001" font-size="small" text-anchor="middle" font-weight="bold" fill="#EEE">
No JIT
</text>
<rect x="691.4999999999999" y="36.00000000000001" width="80.0" height="18.0" fill="orange" stroke="#888"/>
<text x="731.4999999999999" y="52.50000000000001" font-size="small" text-anchor="middle" font-weight="bold" fill="#EEE">
YJIT
</text>
<rect x="97.0" y="440.9488463787232" width="11.749999999999998" height="57.05115362127677" fill="#7070f8" data-tooltip="1.00x baseline speed (No JIT)"/>
<line x1="97.0" y1="440.7699432172366" x2="108.75" y2="440.7699432172366" stroke="#000"/>
<line x1="97.0" y1="441.12774954020983" x2="108.75" y2="441.12774954020983" stroke="#000"/>
<line x1="102.87500000000001" y1="440.7699432172366" x2="102.87500000000001" y2="441.12774954020983" stroke="#000"/>
<rect x="108.75" y="438.89892709805235" width="11.749999999999998" height="59.10107290194755" fill="orange" data-tooltip="1.04x baseline speed (YJIT)"/>
<line x1="108.75" y1="438.69031744519725" x2="120.5" y2="438.69031744519725" stroke="#000"/>
<line x1="108.75" y1="439.10753675090746" x2="120.5" y2="439.10753675090746" stroke="#000"/>
<line x1="114.625" y1="438.69031744519725" x2="114.625" y2="439.10753675090746" stroke="#000"/>
<line x1="114.625" y1="498.0" x2="114.625" y2="502.79999999999995" stroke="#000"/>
<text x="114.625" y="512.4" fill="#111" font-size="small" font-family="monospace" font-weight="bold" text-anchor="end" transform="rotate(-60, 114.625, 512.4)">
activerecord
</text>
<rect x="132.25" y="440.9488463787232" width="11.749999999999998" height="57.05115362127677" fill="#7070f8" data-tooltip="1.00x baseline speed (No JIT)"/>
<line x1="132.25" y1="440.5941088996199" x2="144.00000000000003" y2="440.5941088996199" stroke="#000"/>
<line x1="132.25" y1="441.30358385782654" x2="144.00000000000003" y2="441.30358385782654" stroke="#000"/>
<line x1="138.125" y1="440.5941088996199" x2="138.125" y2="441.30358385782654" stroke="#000"/>
<rect x="144.00000000000003" y="437.9749709244432" width="11.749999999999998" height="60.0250290755567" fill="orange" data-tooltip="1.05x baseline speed (YJIT)"/>
<line x1="144.00000000000003" y1="436.96122372603173" x2="155.75000000000003" y2="436.96122372603173" stroke="#000"/>
<line x1="144.00000000000003" y1="438.98871812285466" x2="155.75000000000003" y2="438.98871812285466" stroke="#000"/>
<line x1="149.875" y1="436.96122372603173" x2="149.875" y2="438.98871812285466" stroke="#000"/>
<line x1="149.875" y1="498.0" x2="149.875" y2="502.79999999999995" stroke="#000"/>
<text x="149.875" y="512.4" fill="#111" font-size="small" font-family="monospace" font-weight="bold" text-anchor="end" transform="rotate(-60, 149.875, 512.4)">
hexapdf
</text>
<rect x="167.49999999999997" y="440.9488463787232" width="11.749999999999998" height="57.05115362127677" fill="#7070f8" data-tooltip="1.00x baseline speed (No JIT)"/>
<line x1="167.49999999999997" y1="440.4532551491221" x2="179.25" y2="440.4532551491221" stroke="#000"/>
<line x1="167.49999999999997" y1="441.44443760832434" x2="179.25" y2="441.44443760832434" stroke="#000"/>
<line x1="173.37499999999997" y1="440.4532551491221" x2="173.37499999999997" y2="441.44443760832434" stroke="#000"/>
<rect x="179.25" y="429.3947952228257" width="11.749999999999998" height="68.60520477717434" fill="orange" data-tooltip="1.20x baseline speed (YJIT)"/>
<line x1="179.25" y1="428.3635915041534" x2="191.0" y2="428.3635915041534" stroke="#000"/>
<line x1="179.25" y1="430.425998941498" x2="191.0" y2="430.425998941498" stroke="#000"/>
<line x1="185.12499999999997" y1="428.3635915041534" x2="185.12499999999997" y2="430.425998941498" stroke="#000"/>
<line x1="185.12499999999997" y1="498.0" x2="185.12499999999997" y2="502.79999999999995" stroke="#000"/>
<text x="185.12499999999997" y="512.4" fill="#111" font-size="small" font-family="monospace" font-weight="bold" text-anchor="end" transform="rotate(-60, 185.12499999999997, 512.4)">
liquid-render
</text>
<rect x="202.75" y="440.9488463787232" width="11.749999999999998" height="57.05115362127677" fill="#7070f8" data-tooltip="1.00x baseline speed (No JIT)"/>
<line x1="202.75" y1="440.55572964326495" x2="214.5" y2="440.55572964326495" stroke="#000"/>
<line x1="202.75" y1="441.3419631141815" x2="214.5" y2="441.3419631141815" stroke="#000"/>
<line x1="208.62499999999997" y1="440.55572964326495" x2="208.62499999999997" y2="441.3419631141815" stroke="#000"/>
<rect x="214.5" y="442.23989154225154" width="11.749999999999998" height="55.760108457748444" fill="orange" data-tooltip="0.98x baseline speed (YJIT)"/>
<line x1="214.5" y1="441.8486464293521" x2="226.25" y2="441.8486464293521" stroke="#000"/>
<line x1="214.5" y1="442.631136655151" x2="226.25" y2="442.631136655151" stroke="#000"/>
<line x1="220.375" y1="441.8486464293521" x2="220.375" y2="442.631136655151" stroke="#000"/>
<line x1="220.375" y1="498.0" x2="220.375" y2="502.79999999999995" stroke="#000"/>
<text x="220.375" y="512.4" fill="#111" font-size="small" font-family="monospace" font-weight="bold" text-anchor="end" transform="rotate(-60, 220.375, 512.4)">
mail
</text>
<rect x="238.0" y="440.9488463787232" width="11.749999999999998" height="57.05115362127677" fill="#7070f8" data-tooltip="1.00x baseline speed (No JIT)"/>
<line x1="238.0" y1="440.8874262319056" x2="249.75" y2="440.8874262319056" stroke="#000"/>
<line x1="238.0" y1="441.0102665255409" x2="249.75" y2="441.0102665255409" stroke="#000"/>
<line x1="243.87499999999997" y1="440.8874262319056" x2="243.87499999999997" y2="441.0102665255409" stroke="#000"/>
<rect x="249.75" y="432.647736969934" width="11.749999999999998" height="65.35226303006598" fill="orange" data-tooltip="1.15x baseline speed (YJIT)"/>
<line x1="249.75" y1="432.56748116638187" x2="261.5" y2="432.56748116638187" stroke="#000"/>
<line x1="249.75" y1="432.7279927734861" x2="261.5" y2="432.7279927734861" stroke="#000"/>
<line x1="255.625" y1="432.56748116638187" x2="255.625" y2="432.7279927734861" stroke="#000"/>
<line x1="255.625" y1="498.0" x2="255.625" y2="502.79999999999995" stroke="#000"/>
<text x="255.625" y="512.4" fill="#111" font-size="small" font-family="monospace" font-weight="bold" text-anchor="end" transform="rotate(-60, 255.625, 512.4)">
psych-load
</text>
<rect x="273.25" y="440.9488463787232" width="11.749999999999998" height="57.05115362127677" fill="#7070f8" data-tooltip="1.00x baseline speed (No JIT)"/>
<line x1="273.25" y1="440.5365800645941" x2="285.0" y2="440.5365800645941" stroke="#000"/>
<line x1="273.25" y1="441.3611126928523" x2="285.0" y2="441.3611126928523" stroke="#000"/>
<line x1="279.125" y1="440.5365800645941" x2="279.125" y2="441.3611126928523" stroke="#000"/>
<rect x="285.0" y="437.24805924214706" width="11.749999999999998" height="60.751940757852914" fill="orange" data-tooltip="1.06x baseline speed (YJIT)"/>
<line x1="285.0" y1="436.684582664659" x2="296.74999999999994" y2="436.684582664659" stroke="#000"/>
<line x1="285.0" y1="437.8115358196351" x2="296.74999999999994" y2="437.8115358196351" stroke="#000"/>
<line x1="290.875" y1="436.684582664659" x2="290.875" y2="437.8115358196351" stroke="#000"/>
<line x1="290.875" y1="498.0" x2="290.875" y2="502.79999999999995" stroke="#000"/>
<text x="290.875" y="512.4" fill="#111" font-size="small" font-family="monospace" font-weight="bold" text-anchor="end" transform="rotate(-60, 290.875, 512.4)">
railsbench
</text>
<rect x="308.5" y="440.9488463787232" width="11.749999999999998" height="57.05115362127677" fill="#7070f8" data-tooltip="1.00x baseline speed (No JIT)"/>
<line x1="308.5" y1="440.8418056990416" x2="320.25" y2="440.8418056990416" stroke="#000"/>
<line x1="308.5" y1="441.0558870584049" x2="320.25" y2="441.0558870584049" stroke="#000"/>
<line x1="314.375" y1="440.8418056990416" x2="314.375" y2="441.0558870584049" stroke="#000"/>
<rect x="320.25" y="395.0618104781992" width="11.749999999999998" height="102.93818952180077" fill="orange" data-tooltip="1.80x baseline speed (YJIT)"/>
<line x1="320.25" y1="394.8300895075435" x2="331.99999999999994" y2="394.8300895075435" stroke="#000"/>
<line x1="320.25" y1="395.2935314488549" x2="331.99999999999994" y2="395.2935314488549" stroke="#000"/>
<line x1="326.125" y1="394.8300895075435" x2="326.125" y2="395.2935314488549" stroke="#000"/>
<line x1="326.125" y1="498.0" x2="326.125" y2="502.79999999999995" stroke="#000"/>
<text x="326.125" y="512.4" fill="#111" font-size="small" font-family="monospace" font-weight="bold" text-anchor="end" transform="rotate(-60, 326.125, 512.4)">
binarytrees
</text>
<rect x="343.75" y="440.9488463787232" width="11.749999999999998" height="57.05115362127677" fill="#7070f8" data-tooltip="1.00x baseline speed (No JIT)"/>
<line x1="343.75" y1="440.8542890756345" x2="355.5" y2="440.8542890756345" stroke="#000"/>
<line x1="343.75" y1="441.043403681812" x2="355.5" y2="441.043403681812" stroke="#000"/>
<line x1="349.625" y1="440.8542890756345" x2="349.625" y2="441.043403681812" stroke="#000"/>
<rect x="355.5" y="414.2500450466338" width="11.749999999999998" height="83.74995495336621" fill="orange" data-tooltip="1.47x baseline speed (YJIT)"/>
<line x1="355.5" y1="414.0451376722219" x2="367.24999999999994" y2="414.0451376722219" stroke="#000"/>
<line x1="355.5" y1="414.45495242104556" x2="367.24999999999994" y2="414.45495242104556" stroke="#000"/>
<line x1="361.375" y1="414.0451376722219" x2="361.375" y2="414.45495242104556" stroke="#000"/>
<line x1="361.375" y1="498.0" x2="361.375" y2="502.79999999999995" stroke="#000"/>
<text x="361.375" y="512.4" fill="#111" font-size="small" font-family="monospace" font-weight="bold" text-anchor="end" transform="rotate(-60, 361.375, 512.4)">
chunky_png
</text>
<rect x="379.0" y="440.9488463787232" width="11.749999999999998" height="57.05115362127677" fill="#7070f8" data-tooltip="1.00x baseline speed (No JIT)"/>
<line x1="379.0" y1="440.44307765880205" x2="390.75" y2="440.44307765880205" stroke="#000"/>
<line x1="379.0" y1="441.4546150986444" x2="390.75" y2="441.4546150986444" stroke="#000"/>
<line x1="384.875" y1="440.44307765880205" x2="384.875" y2="441.4546150986444" stroke="#000"/>
<rect x="390.75" y="435.6136059256781" width="11.749999999999998" height="62.3863940743219" fill="orange" data-tooltip="1.09x baseline speed (YJIT)"/>
<line x1="390.75" y1="434.9159594206211" x2="402.49999999999994" y2="434.9159594206211" stroke="#000"/>
<line x1="390.75" y1="436.3112524307351" x2="402.49999999999994" y2="436.3112524307351" stroke="#000"/>
<line x1="396.625" y1="434.9159594206211" x2="396.625" y2="436.3112524307351" stroke="#000"/>
<line x1="396.625" y1="498.0" x2="396.625" y2="502.79999999999995" stroke="#000"/>
<text x="396.625" y="512.4" fill="#111" font-size="small" font-family="monospace" font-weight="bold" text-anchor="end" transform="rotate(-60, 396.625, 512.4)">
erubi
</text>
<rect x="414.25" y="440.9488463787232" width="11.749999999999998" height="57.05115362127677" fill="#7070f8" data-tooltip="1.00x baseline speed (No JIT)"/>
<line x1="414.25" y1="439.72253755032494" x2="426.0" y2="439.72253755032494" stroke="#000"/>
<line x1="414.25" y1="442.1751552071215" x2="426.0" y2="442.1751552071215" stroke="#000"/>
<line x1="420.125" y1="439.72253755032494" x2="420.125" y2="442.1751552071215" stroke="#000"/>
<rect x="426.0" y="435.23013368580934" width="11.749999999999998" height="62.76986631419066" fill="orange" data-tooltip="1.10x baseline speed (YJIT)"/>
<line x1="426.0" y1="433.3642978115369" x2="437.75" y2="433.3642978115369" stroke="#000"/>
<line x1="426.0" y1="437.09596956008176" x2="437.75" y2="437.09596956008176" stroke="#000"/>
<line x1="431.875" y1="433.3642978115369" x2="431.875" y2="437.09596956008176" stroke="#000"/>
<line x1="431.875" y1="498.0" x2="431.875" y2="502.79999999999995" stroke="#000"/>
<text x="431.875" y="512.4" fill="#111" font-size="small" font-family="monospace" font-weight="bold" text-anchor="end" transform="rotate(-60, 431.875, 512.4)">
erubi_rails
</text>
<rect x="449.5" y="440.9488463787232" width="11.749999999999998" height="57.05115362127677" fill="#7070f8" data-tooltip="1.00x baseline speed (No JIT)"/>
<line x1="449.5" y1="440.37205351062136" x2="461.25" y2="440.37205351062136" stroke="#000"/>
<line x1="449.5" y1="441.5256392468251" x2="461.25" y2="441.5256392468251" stroke="#000"/>
<line x1="455.37500000000006" y1="440.37205351062136" x2="455.37500000000006" y2="441.5256392468251" stroke="#000"/>
<rect x="461.25" y="365.27192807078205" width="11.749999999999998" height="132.7280719292179" fill="orange" data-tooltip="2.33x baseline speed (YJIT)"/>
<line x1="461.25" y1="363.89520492954153" x2="473.0" y2="363.89520492954153" stroke="#000"/>
<line x1="461.25" y1="366.64865121202257" x2="473.0" y2="366.64865121202257" stroke="#000"/>
<line x1="467.125" y1="363.89520492954153" x2="467.125" y2="366.64865121202257" stroke="#000"/>
<line x1="467.125" y1="498.0" x2="467.125" y2="502.79999999999995" stroke="#000"/>
<text x="467.125" y="512.4" fill="#111" font-size="small" font-family="monospace" font-weight="bold" text-anchor="end" transform="rotate(-60, 467.125, 512.4)">
fannkuchredux
</text>
<rect x="484.75" y="440.9488463787232" width="11.749999999999998" height="57.05115362127677" fill="#7070f8" data-tooltip="1.00x baseline speed (No JIT)"/>
<line x1="484.75" y1="440.5411115858576" x2="496.5" y2="440.5411115858576" stroke="#000"/>
<line x1="484.75" y1="441.35658117158886" x2="496.5" y2="441.35658117158886" stroke="#000"/>
<line x1="490.62500000000006" y1="440.5411115858576" x2="490.62500000000006" y2="441.35658117158886" stroke="#000"/>
<rect x="496.5" y="423.300488194635" width="11.749999999999998" height="74.69951180536496" fill="orange" data-tooltip="1.31x baseline speed (YJIT)"/>
<line x1="496.5" y1="421.7747485079103" x2="508.25" y2="421.7747485079103" stroke="#000"/>
<line x1="496.5" y1="424.82622788135967" x2="508.25" y2="424.82622788135967" stroke="#000"/>
<line x1="502.375" y1="421.7747485079103" x2="502.375" y2="424.82622788135967" stroke="#000"/>
<line x1="502.375" y1="498.0" x2="502.375" y2="502.79999999999995" stroke="#000"/>
<text x="502.375" y="512.4" fill="#111" font-size="small" font-family="monospace" font-weight="bold" text-anchor="end" transform="rotate(-60, 502.375, 512.4)">
lee
</text>
<rect x="519.9999999999999" y="440.9488463787232" width="11.749999999999998" height="57.05115362127677" fill="#7070f8" data-tooltip="1.00x baseline speed (No JIT)"/>
<line x1="519.9999999999999" y1="440.4134132419722" x2="531.75" y2="440.4134132419722" stroke="#000"/>
<line x1="519.9999999999999" y1="441.48427951547427" x2="531.75" y2="441.48427951547427" stroke="#000"/>
<line x1="525.8749999999999" y1="440.4134132419722" x2="525.8749999999999" y2="441.48427951547427" stroke="#000"/>
<rect x="531.75" y="419.34474812171067" width="11.749999999999998" height="78.6552518782893" fill="orange" data-tooltip="1.38x baseline speed (YJIT)"/>
<line x1="531.75" y1="418.60384806311816" x2="543.5" y2="418.60384806311816" stroke="#000"/>
<line x1="531.75" y1="420.08564818030317" x2="543.5" y2="420.08564818030317" stroke="#000"/>
<line x1="537.6249999999999" y1="418.60384806311816" x2="537.6249999999999" y2="420.08564818030317" stroke="#000"/>
<line x1="537.6249999999999" y1="498.0" x2="537.6249999999999" y2="502.79999999999995" stroke="#000"/>
<text x="537.6249999999999" y="512.4" fill="#111" font-size="small" font-family="monospace" font-weight="bold" text-anchor="end" transform="rotate(-60, 537.6249999999999, 512.4)">
nbody
</text>
<rect x="555.2499999999999" y="440.9488463787232" width="11.749999999999998" height="57.05115362127677" fill="#7070f8" data-tooltip="1.00x baseline speed (No JIT)"/>
<line x1="555.2499999999999" y1="440.69274081662047" x2="567.0" y2="440.69274081662047" stroke="#000"/>
<line x1="555.2499999999999" y1="441.20495194082594" x2="567.0" y2="441.20495194082594" stroke="#000"/>
<line x1="561.1249999999999" y1="440.69274081662047" x2="561.1249999999999" y2="441.20495194082594" stroke="#000"/>
<rect x="567.0" y="421.1088504747826" width="11.749999999999998" height="76.8911495252173" fill="orange" data-tooltip="1.35x baseline speed (YJIT)"/>
<line x1="567.0" y1="420.41806170786657" x2="578.75" y2="420.41806170786657" stroke="#000"/>
<line x1="567.0" y1="421.7996392416987" x2="578.75" y2="421.7996392416987" stroke="#000"/>
<line x1="572.8749999999999" y1="420.41806170786657" x2="572.8749999999999" y2="421.7996392416987" stroke="#000"/>
<line x1="572.8749999999999" y1="498.0" x2="572.8749999999999" y2="502.79999999999995" stroke="#000"/>
<text x="572.8749999999999" y="512.4" fill="#111" font-size="small" font-family="monospace" font-weight="bold" text-anchor="end" transform="rotate(-60, 572.8749999999999, 512.4)">
optcarrot
</text>
<rect x="590.4999999999999" y="440.9488463787232" width="11.749999999999998" height="57.05115362127677" fill="#7070f8" data-tooltip="1.00x baseline speed (No JIT)"/>
<line x1="590.4999999999999" y1="440.67473759214164" x2="602.25" y2="440.67473759214164" stroke="#000"/>
<line x1="590.4999999999999" y1="441.2229551653048" x2="602.25" y2="441.2229551653048" stroke="#000"/>
<line x1="596.3749999999999" y1="440.67473759214164" x2="596.3749999999999" y2="441.2229551653048" stroke="#000"/>
<rect x="602.25" y="421.46277470527946" width="11.749999999999998" height="76.53722529472046" fill="orange" data-tooltip="1.34x baseline speed (YJIT)"/>
<line x1="602.25" y1="420.9617151247794" x2="614.0" y2="420.9617151247794" stroke="#000"/>
<line x1="602.25" y1="421.96383428577957" x2="614.0" y2="421.96383428577957" stroke="#000"/>
<line x1="608.1249999999999" y1="420.9617151247794" x2="608.1249999999999" y2="421.96383428577957" stroke="#000"/>
<line x1="608.1249999999999" y1="498.0" x2="608.1249999999999" y2="502.79999999999995" stroke="#000"/>
<text x="608.1249999999999" y="512.4" fill="#111" font-size="small" font-family="monospace" font-weight="bold" text-anchor="end" transform="rotate(-60, 608.1249999999999, 512.4)">
rubykon
</text>
<rect x="625.7499999999999" y="440.9488463787232" width="11.749999999999998" height="57.05115362127677" fill="#7070f8" data-tooltip="1.00x baseline speed (No JIT)"/>
<line x1="625.7499999999999" y1="440.8357058261231" x2="637.5" y2="440.8357058261231" stroke="#000"/>
<line x1="625.7499999999999" y1="441.0619869313233" x2="637.5" y2="441.0619869313233" stroke="#000"/>
<line x1="631.6249999999999" y1="440.8357058261231" x2="631.6249999999999" y2="441.0619869313233" stroke="#000"/>
<rect x="637.5" y="343.5112917410463" width="11.749999999999998" height="154.4887082589536" fill="orange" data-tooltip="2.71x baseline speed (YJIT)"/>
<line x1="637.5" y1="343.2009888801793" x2="649.25" y2="343.2009888801793" stroke="#000"/>
<line x1="637.5" y1="343.8215946019134" x2="649.25" y2="343.8215946019134" stroke="#000"/>
<line x1="643.3749999999999" y1="343.2009888801793" x2="643.3749999999999" y2="343.8215946019134" stroke="#000"/>
<line x1="643.3749999999999" y1="498.0" x2="643.3749999999999" y2="502.79999999999995" stroke="#000"/>
<text x="643.3749999999999" y="512.4" fill="#111" font-size="small" font-family="monospace" font-weight="bold" text-anchor="end" transform="rotate(-60, 643.3749999999999, 512.4)">
30k_ifelse
</text>
<rect x="660.9999999999999" y="440.9488463787232" width="11.749999999999998" height="57.05115362127677" fill="#7070f8" data-tooltip="1.00x baseline speed (No JIT)"/>
<line x1="660.9999999999999" y1="440.7299690775637" x2="672.75" y2="440.7299690775637" stroke="#000"/>
<line x1="660.9999999999999" y1="441.1677236798828" x2="672.75" y2="441.1677236798828" stroke="#000"/>
<line x1="666.8749999999999" y1="440.7299690775637" x2="666.8749999999999" y2="441.1677236798828" stroke="#000"/>
<rect x="672.75" y="322.22275243437736" width="11.749999999999998" height="175.77724756562262" fill="orange" data-tooltip="3.08x baseline speed (YJIT)"/>
<line x1="672.75" y1="321.54294546413263" x2="684.5" y2="321.54294546413263" stroke="#000"/>
<line x1="672.75" y1="322.90255940462214" x2="684.5" y2="322.90255940462214" stroke="#000"/>
<line x1="678.6249999999999" y1="321.54294546413263" x2="678.6249999999999" y2="322.90255940462214" stroke="#000"/>
<line x1="678.6249999999999" y1="498.0" x2="678.6249999999999" y2="502.79999999999995" stroke="#000"/>
<text x="678.6249999999999" y="512.4" fill="#111" font-size="small" font-family="monospace" font-weight="bold" text-anchor="end" transform="rotate(-60, 678.6249999999999, 512.4)">
30k_methods
</text>
<rect x="696.2499999999999" y="440.9488463787232" width="11.749999999999998" height="57.05115362127677" fill="#7070f8" data-tooltip="1.00x baseline speed (No JIT)"/>
<line x1="696.2499999999999" y1="440.9236545905574" x2="708.0" y2="440.9236545905574" stroke="#000"/>
<line x1="696.2499999999999" y1="440.974038166889" x2="708.0" y2="440.974038166889" stroke="#000"/>
<line x1="702.1249999999999" y1="440.9236545905574" x2="702.1249999999999" y2="440.974038166889" stroke="#000"/>
<rect x="708.0" y="363.0684781621583" width="11.749999999999998" height="134.93152183784164" fill="orange" data-tooltip="2.37x baseline speed (YJIT)"/>
<line x1="708.0" y1="362.8570453543815" x2="719.75" y2="362.8570453543815" stroke="#000"/>
<line x1="708.0" y1="363.2799109699351" x2="719.75" y2="363.2799109699351" stroke="#000"/>
<line x1="713.8749999999999" y1="362.8570453543815" x2="713.8749999999999" y2="363.2799109699351" stroke="#000"/>
<line x1="713.8749999999999" y1="498.0" x2="713.8749999999999" y2="502.79999999999995" stroke="#000"/>
<text x="713.8749999999999" y="512.4" fill="#111" font-size="small" font-family="monospace" font-weight="bold" text-anchor="end" transform="rotate(-60, 713.8749999999999, 512.4)">
cfunc_itself
</text>
<rect x="731.4999999999999" y="440.9488463787232" width="11.749999999999998" height="57.05115362127677" fill="#7070f8" data-tooltip="1.00x baseline speed (No JIT)"/>
<line x1="731.4999999999999" y1="440.0033143346548" x2="743.25" y2="440.0033143346548" stroke="#000"/>
<line x1="731.4999999999999" y1="441.89437842279165" x2="743.25" y2="441.89437842279165" stroke="#000"/>
<line x1="737.3749999999999" y1="440.0033143346548" x2="737.3749999999999" y2="441.89437842279165" stroke="#000"/>
<rect x="743.25" y="322.65031470866796" width="11.749999999999998" height="175.34968529133198" fill="orange" data-tooltip="3.07x baseline speed (YJIT)"/>
<line x1="743.25" y1="319.6760670876498" x2="755.0" y2="319.6760670876498" stroke="#000"/>
<line x1="743.25" y1="325.62456232968606" x2="755.0" y2="325.62456232968606" stroke="#000"/>
<line x1="749.1249999999999" y1="319.6760670876498" x2="749.1249999999999" y2="325.62456232968606" stroke="#000"/>
<line x1="749.1249999999999" y1="498.0" x2="749.1249999999999" y2="502.79999999999995" stroke="#000"/>
<text x="749.1249999999999" y="512.4" fill="#111" font-size="small" font-family="monospace" font-weight="bold" text-anchor="end" transform="rotate(-60, 749.1249999999999, 512.4)">
fib
</text>
<rect x="766.7499999999999" y="440.9488463787232" width="11.749999999999998" height="57.05115362127677" fill="#7070f8" data-tooltip="1.00x baseline speed (No JIT)"/>
<line x1="766.7499999999999" y1="440.67866289856954" x2="778.5" y2="440.67866289856954" stroke="#000"/>
<line x1="766.7499999999999" y1="441.2190298588769" x2="778.5" y2="441.2190298588769" stroke="#000"/>
<line x1="772.6249999999999" y1="440.67866289856954" x2="772.6249999999999" y2="441.2190298588769" stroke="#000"/>
<rect x="778.5" y="384.6117307445767" width="11.749999999999998" height="113.38826925542324" fill="orange" data-tooltip="1.99x baseline speed (YJIT)"/>
<line x1="778.5" y1="384.07469916019664" x2="790.25" y2="384.07469916019664" stroke="#000"/>
<line x1="778.5" y1="385.1487623289567" x2="790.25" y2="385.1487623289567" stroke="#000"/>
<line x1="784.3749999999999" y1="384.07469916019664" x2="784.3749999999999" y2="385.1487623289567" stroke="#000"/>
<line x1="784.3749999999999" y1="498.0" x2="784.3749999999999" y2="502.79999999999995" stroke="#000"/>
<text x="784.3749999999999" y="512.4" fill="#111" font-size="small" font-family="monospace" font-weight="bold" text-anchor="end" transform="rotate(-60, 784.3749999999999, 512.4)">
getivar
</text>
<rect x="801.9999999999999" y="440.9488463787232" width="11.749999999999998" height="57.05115362127677" fill="#7070f8" data-tooltip="1.00x baseline speed (No JIT)"/>
<line x1="801.9999999999999" y1="440.8211633930665" x2="813.75" y2="440.8211633930665" stroke="#000"/>
<line x1="801.9999999999999" y1="441.07652936437995" x2="813.75" y2="441.07652936437995" stroke="#000"/>
<line x1="807.8749999999999" y1="440.8211633930665" x2="807.8749999999999" y2="441.07652936437995" stroke="#000"/>
<rect x="813.75" y="227.8066189674237" width="11.749999999999998" height="270.1933810325762" fill="orange" data-tooltip="4.74x baseline speed (YJIT)"/>
<line x1="813.75" y1="227.1277573387397" x2="825.5" y2="227.1277573387397" stroke="#000"/>
<line x1="813.75" y1="228.48548059610772" x2="825.5" y2="228.48548059610772" stroke="#000"/>
<line x1="819.6249999999999" y1="227.1277573387397" x2="819.6249999999999" y2="228.48548059610772" stroke="#000"/>
<line x1="819.6249999999999" y1="498.0" x2="819.6249999999999" y2="502.79999999999995" stroke="#000"/>
<text x="819.6249999999999" y="512.4" fill="#111" font-size="small" font-family="monospace" font-weight="bold" text-anchor="end" transform="rotate(-60, 819.6249999999999, 512.4)">
keyword_args
</text>
<rect x="837.2499999999999" y="440.9488463787232" width="11.749999999999998" height="57.05115362127677" fill="#7070f8" data-tooltip="1.00x baseline speed (No JIT)"/>
<line x1="837.2499999999999" y1="440.4552910987998" x2="849.0" y2="440.4552910987998" stroke="#000"/>
<line x1="837.2499999999999" y1="441.44240165864665" x2="849.0" y2="441.44240165864665" stroke="#000"/>
<line x1="843.1249999999999" y1="440.4552910987998" x2="843.1249999999999" y2="441.44240165864665" stroke="#000"/>
<rect x="849.0" y="100.19999999999999" width="11.749999999999998" height="397.79999999999995" fill="orange" data-tooltip="6.97x baseline speed (YJIT)"/>
<line x1="849.0" y1="96.602436352908" x2="860.75" y2="96.602436352908" stroke="#000"/>
<line x1="849.0" y1="103.79756364709198" x2="860.75" y2="103.79756364709198" stroke="#000"/>
<line x1="854.8749999999999" y1="96.602436352908" x2="854.8749999999999" y2="103.79756364709198" stroke="#000"/>
<line x1="854.8749999999999" y1="498.0" x2="854.8749999999999" y2="502.79999999999995" stroke="#000"/>
<text x="854.8749999999999" y="512.4" fill="#111" font-size="small" font-family="monospace" font-weight="bold" text-anchor="end" transform="rotate(-60, 854.8749999999999, 512.4)">
respond_to
</text>
<rect x="872.4999999999999" y="440.9488463787232" width="11.749999999999998" height="57.05115362127677" fill="#7070f8" data-tooltip="1.00x baseline speed (No JIT)"/>
<line x1="872.4999999999999" y1="440.7868708219275" x2="884.25" y2="440.7868708219275" stroke="#000"/>
<line x1="872.4999999999999" y1="441.11082193551897" x2="884.25" y2="441.11082193551897" stroke="#000"/>
<line x1="878.3749999999999" y1="440.7868708219275" x2="878.3749999999999" y2="441.11082193551897" stroke="#000"/>
<rect x="884.25" y="395.3213069949656" width="11.749999999999998" height="102.67869300503433" fill="orange" data-tooltip="1.80x baseline speed (YJIT)"/>
<line x1="884.25" y1="395.0260963772995" x2="896.0" y2="395.0260963772995" stroke="#000"/>
<line x1="884.25" y1="395.6165176126317" x2="896.0" y2="395.6165176126317" stroke="#000"/>
<line x1="890.125" y1="395.0260963772995" x2="890.125" y2="395.6165176126317" stroke="#000"/>
<line x1="890.125" y1="498.0" x2="890.125" y2="502.79999999999995" stroke="#000"/>
<text x="890.125" y="512.4" fill="#111" font-size="small" font-family="monospace" font-weight="bold" text-anchor="end" transform="rotate(-60, 890.125, 512.4)">
setivar
</text>
<rect x="907.75" y="440.9488463787232" width="11.749999999999998" height="57.05115362127677" fill="#7070f8" data-tooltip="1.00x baseline speed (No JIT)"/>
<line x1="907.75" y1="440.594634475223" x2="919.5" y2="440.594634475223" stroke="#000"/>
<line x1="907.75" y1="441.30305828222345" x2="919.5" y2="441.30305828222345" stroke="#000"/>
<line x1="913.6249999999999" y1="440.594634475223" x2="913.6249999999999" y2="441.30305828222345" stroke="#000"/>
<rect x="919.5" y="404.1688471836747" width="11.749999999999998" height="93.83115281632527" fill="orange" data-tooltip="1.64x baseline speed (YJIT)"/>
<line x1="919.5" y1="403.07686813395975" x2="931.25" y2="403.07686813395975" stroke="#000"/>
<line x1="919.5" y1="405.2608262333897" x2="931.25" y2="405.2608262333897" stroke="#000"/>
<line x1="925.375" y1="403.07686813395975" x2="925.375" y2="405.2608262333897" stroke="#000"/>
<line x1="925.375" y1="498.0" x2="925.375" y2="502.79999999999995" stroke="#000"/>
<text x="925.375" y="512.4" fill="#111" font-size="small" font-family="monospace" font-weight="bold" text-anchor="end" transform="rotate(-60, 925.375, 512.4)">
str_concat
</text>
</svg>