<svg viewBox="0 0 1000 600" xmlns="http://www.w3.org/2000/svg" xmlns:xlink="http://www.w3.org/1999/xlink" width="100%" height="100%">

<rect x="50.0" y="30.0" width="940.0" height="467.99999999999994" stroke="#000" fill="#EEE"/>
<line x1="42.0" y1="497.9999999999999" x2="50.0" y2="497.9999999999999" stroke="#000"/>
<text x="26.000000000000004" y="497.9999999999999" text-anchor="end" font-weight="bold" font-size="small" fill="#111">
0.0
</text>
<line x1="42.0" y1="423.72368226999384" x2="50.0" y2="423.72368226999384" stroke="#000"/>
<text x="26.000000000000004" y="423.72368226999384" text-anchor="end" font-weight="bold" font-size="small" fill="#111">
2.0
</text>
<line x1="42.0" y1="349.44736453998763" x2="50.0" y2="349.44736453998763" stroke="#000"/>
<text x="26.000000000000004" y="349.44736453998763" text-anchor="end" font-weight="bold" font-size="small" fill="#111">
4.0
</text>
<line x1="42.0" y1="275.1710468099815" x2="50.0" y2="275.1710468099815" stroke="#000"/>
<text x="26.000000000000004" y="275.1710468099815" text-anchor="end" font-weight="bold" font-size="small" fill="#111">
6.0
</text>
<line x1="42.0" y1="200.89472907997532" x2="50.0" y2="200.89472907997532" stroke="#000"/>
<text x="26.000000000000004" y="200.89472907997532" text-anchor="end" font-weight="bold" font-size="small" fill="#111">
8.0
</text>
<line x1="42.0" y1="126.61841134996912" x2="50.0" y2="126.61841134996912" stroke="#000"/>
<text x="26.000000000000004" y="126.61841134996912" text-anchor="end" font-weight="bold" font-size="small" fill="#111">
10.0
</text>
<rect x="268.5" y="36.00000000000001" width="80.0" height="18.0" fill="#7070f8" stroke="#888"/>
<text x="308.5" y="52.50000000000001" font-size="small" text-anchor="middle" font-weight="bold" fill="#EEE">
No JIT
</text>
<rect x="691.4999999999999" y="36.00000000000001" width="80.0" height="18.0" fill="orange" stroke="#888"/>
<text x="731.4999999999999" y="52.50000000000001" font-size="small" text-anchor="middle" font-weight="bold" fill="#EEE">
YJIT
</text>
<rect x="97.0" y="460.86184113499684" width="8.545454545454545" height="37.13815886500308" fill="#7070f8" data-tooltip="1.00x baseline speed (No JIT)"/>
<line x1="97.0" y1="460.6688790666928" x2="105.54545454545455" y2="460.6688790666928" stroke="#000"/>
<line x1="97.0" y1="461.05480320330093" x2="105.54545454545455" y2="461.05480320330093" stroke="#000"/>
<line x1="101.27272727272728" y1="460.6688790666928" x2="101.27272727272728" y2="461.05480320330093" stroke="#000"/>
<rect x="105.54545454545455" y="430.10789382296815" width="8.545454545454545" height="67.89210617703182" fill="orange" data-tooltip="1.83x baseline speed (YJIT)"/>
<line x1="105.54545454545455" y1="429.4648786250987" x2="114.09090909090911" y2="429.4648786250987" stroke="#000"/>
<line x1="105.54545454545455" y1="430.7509090208376" x2="114.09090909090911" y2="430.7509090208376" stroke="#000"/>
<line x1="109.81818181818183" y1="429.4648786250987" x2="109.81818181818183" y2="430.7509090208376" stroke="#000"/>
<line x1="109.81818181818181" y1="498.0" x2="109.81818181818181" y2="502.79999999999995" stroke="#000"/>
<text x="109.81818181818181" y="512.4" fill="#111" font-size="small" font-family="monospace" font-weight="bold" text-anchor="end" transform="rotate(-60, 109.81818181818181, 512.4)">
activerecord
</text>
<rect x="122.63636363636364" y="460.86184113499684" width="8.545454545454545" height="37.13815886500308" fill="#7070f8" data-tooltip="1.00x baseline speed (No JIT)"/>
<line x1="122.63636363636364" y1="459.9611239922668" x2="131.1818181818182" y2="459.9611239922668" stroke="#000"/>
<line x1="122.63636363636364" y1="461.76255827772695" x2="131.1818181818182" y2="461.76255827772695" stroke="#000"/>
<line x1="126.90909090909092" y1="459.9611239922668" x2="126.90909090909092" y2="461.76255827772695" stroke="#000"/>
<rect x="131.1818181818182" y="435.06967302653845" width="8.545454545454545" height="62.930326973461476" fill="orange" data-tooltip="1.69x baseline speed (YJIT)"/>
<line x1="131.1818181818182" y1="432.4717949356825" x2="139.72727272727272" y2="432.4717949356825" stroke="#000"/>
<line x1="131.1818181818182" y1="437.66755111739445" x2="139.72727272727272" y2="437.66755111739445" stroke="#000"/>
<line x1="135.45454545454544" y1="432.4717949356825" x2="135.45454545454544" y2="437.66755111739445" stroke="#000"/>
<line x1="135.45454545454547" y1="498.0" x2="135.45454545454547" y2="502.79999999999995" stroke="#000"/>
<text x="135.45454545454547" y="512.4" fill="#111" font-size="small" font-family="monospace" font-weight="bold" text-anchor="end" transform="rotate(-60, 135.45454545454547, 512.4)">
erubi_rails
</text>
<rect x="148.27272727272728" y="460.86184113499684" width="8.545454545454545" height="37.13815886500308" fill="#7070f8" data-tooltip="1.00x baseline speed (No JIT)"/>
<line x1="148.27272727272728" y1="460.66496882022847" x2="156.81818181818184" y2="460.66496882022847" stroke="#000"/>
<line x1="148.27272727272728" y1="461.0587134497652" x2="156.81818181818184" y2="461.0587134497652" stroke="#000"/>
<line x1="152.54545454545453" y1="460.66496882022847" x2="152.54545454545453" y2="461.0587134497652" stroke="#000"/>
<rect x="156.81818181818184" y="440.0269688317209" width="8.545454545454545" height="57.973031168279064" fill="orange" data-tooltip="1.56x baseline speed (YJIT)"/>
<line x1="156.81818181818184" y1="438.7116913397972" x2="165.36363636363637" y2="438.7116913397972" stroke="#000"/>
<line x1="156.81818181818184" y1="441.34224632364464" x2="165.36363636363637" y2="441.34224632364464" stroke="#000"/>
<line x1="161.0909090909091" y1="438.7116913397972" x2="161.0909090909091" y2="441.34224632364464" stroke="#000"/>
<line x1="161.0909090909091" y1="498.0" x2="161.0909090909091" y2="502.79999999999995" stroke="#000"/>
<text x="161.0909090909091" y="512.4" fill="#111" font-size="small" font-family="monospace" font-weight="bold" text-anchor="end" transform="rotate(-60, 161.0909090909091, 512.4)">
hexapdf
</text>
<rect x="173.9090909090909" y="460.86184113499684" width="8.545454545454545" height="37.13815886500308" fill="#7070f8" data-tooltip="1.00x baseline speed (No JIT)"/>
<line x1="173.9090909090909" y1="460.3226349772982" x2="182.45454545454544" y2="460.3226349772982" stroke="#000"/>
<line x1="173.9090909090909" y1="461.4010472926955" x2="182.45454545454544" y2="461.4010472926955" stroke="#000"/>
<line x1="178.18181818181816" y1="460.3226349772982" x2="178.18181818181816" y2="461.4010472926955" stroke="#000"/>
<rect x="182.45454545454544" y="447.1986580724006" width="8.545454545454545" height="50.801341927599324" fill="orange" data-tooltip="1.37x baseline speed (YJIT)"/>
<line x1="182.45454545454544" y1="445.86747140324235" x2="191.0" y2="445.86747140324235" stroke="#000"/>
<line x1="182.45454545454544" y1="448.52984474155886" x2="191.0" y2="448.52984474155886" stroke="#000"/>
<line x1="186.72727272727272" y1="445.86747140324235" x2="186.72727272727272" y2="448.52984474155886" stroke="#000"/>
<line x1="186.72727272727272" y1="498.0" x2="186.72727272727272" y2="502.79999999999995" stroke="#000"/>
<text x="186.72727272727272" y="512.4" fill="#111" font-size="small" font-family="monospace" font-weight="bold" text-anchor="end" transform="rotate(-60, 186.72727272727272, 512.4)">
liquid-c
</text>
<rect x="199.54545454545453" y="460.86184113499684" width="8.545454545454545" height="37.13815886500308" fill="#7070f8" data-tooltip="1.00x baseline speed (No JIT)"/>
<line x1="199.54545454545453" y1="459.5439315867438" x2="208.09090909090907" y2="459.5439315867438" stroke="#000"/>
<line x1="199.54545454545453" y1="462.17975068324995" x2="208.09090909090907" y2="462.17975068324995" stroke="#000"/>
<line x1="203.81818181818178" y1="459.5439315867438" x2="203.81818181818178" y2="462.17975068324995" stroke="#000"/>
<rect x="208.09090909090907" y="446.66067737455603" width="8.545454545454545" height="51.339322625443955" fill="orange" data-tooltip="1.38x baseline speed (YJIT)"/>
<line x1="208.09090909090907" y1="443.564819326782" x2="216.63636363636363" y2="443.564819326782" stroke="#000"/>
<line x1="208.09090909090907" y1="449.75653542233" x2="216.63636363636363" y2="449.75653542233" stroke="#000"/>
<line x1="212.36363636363635" y1="443.564819326782" x2="212.36363636363635" y2="449.75653542233" stroke="#000"/>
<line x1="212.36363636363635" y1="498.0" x2="212.36363636363635" y2="502.79999999999995" stroke="#000"/>
<text x="212.36363636363635" y="512.4" fill="#111" font-size="small" font-family="monospace" font-weight="bold" text-anchor="end" transform="rotate(-60, 212.36363636363635, 512.4)">
liquid-compile
</text>
<rect x="225.1818181818182" y="460.86184113499684" width="8.545454545454545" height="37.13815886500308" fill="#7070f8" data-tooltip="1.00x baseline speed (No JIT)"/>
<line x1="225.1818181818182" y1="460.3981196235524" x2="233.72727272727272" y2="460.3981196235524" stroke="#000"/>
<line x1="225.1818181818182" y1="461.3255626464413" x2="233.72727272727272" y2="461.3255626464413" stroke="#000"/>
<line x1="229.45454545454544" y1="460.3981196235524" x2="229.45454545454544" y2="461.3255626464413" stroke="#000"/>
<rect x="233.72727272727272" y="428.26970528202725" width="8.545454545454545" height="69.73029471797264" fill="orange" data-tooltip="1.88x baseline speed (YJIT)"/>
<line x1="233.72727272727272" y1="426.2457952428187" x2="242.27272727272728" y2="426.2457952428187" stroke="#000"/>
<line x1="233.72727272727272" y1="430.29361532123573" x2="242.27272727272728" y2="430.29361532123573" stroke="#000"/>
<line x1="238.0" y1="426.2457952428187" x2="238.0" y2="430.29361532123573" stroke="#000"/>
<line x1="238.0" y1="498.0" x2="238.0" y2="502.79999999999995" stroke="#000"/>
<text x="238.0" y="512.4" fill="#111" font-size="small" font-family="monospace" font-weight="bold" text-anchor="end" transform="rotate(-60, 238.0, 512.4)">
liquid-render
</text>
<rect x="250.81818181818184" y="460.86184113499684" width="8.545454545454545" height="37.13815886500308" fill="#7070f8" data-tooltip="1.00x baseline speed (No JIT)"/>
<line x1="250.81818181818184" y1="460.81819791626003" x2="259.3636363636364" y2="460.81819791626003" stroke="#000"/>
<line x1="250.81818181818184" y1="460.9054843537337" x2="259.3636363636364" y2="460.9054843537337" stroke="#000"/>
<line x1="255.0909090909091" y1="460.81819791626003" x2="255.0909090909091" y2="460.9054843537337" stroke="#000"/>
<rect x="259.3636363636364" y="449.0867726749472" width="8.545454545454545" height="48.913227325052624" fill="orange" data-tooltip="1.32x baseline speed (YJIT)"/>
<line x1="259.3636363636364" y1="448.9207544151719" x2="267.9090909090909" y2="448.9207544151719" stroke="#000"/>
<line x1="259.3636363636364" y1="449.25279093472255" x2="267.9090909090909" y2="449.25279093472255" stroke="#000"/>
<line x1="263.6363636363636" y1="448.9207544151719" x2="263.6363636363636" y2="449.25279093472255" stroke="#000"/>
<line x1="263.6363636363637" y1="498.0" x2="263.6363636363637" y2="502.79999999999995" stroke="#000"/>
<text x="263.6363636363637" y="512.4" fill="#111" font-size="small" font-family="monospace" font-weight="bold" text-anchor="end" transform="rotate(-60, 263.6363636363637, 512.4)">
mail
</text>
<rect x="276.45454545454544" y="460.86184113499684" width="8.545454545454545" height="37.13815886500308" fill="#7070f8" data-tooltip="1.00x baseline speed (No JIT)"/>
<line x1="276.45454545454544" y1="460.80480131423974" x2="285.0" y2="460.80480131423974" stroke="#000"/>
<line x1="276.45454545454544" y1="460.918880955754" x2="285.0" y2="460.918880955754" stroke="#000"/>
<line x1="280.7272727272727" y1="460.80480131423974" x2="280.7272727272727" y2="460.918880955754" stroke="#000"/>
<rect x="285.0" y="445.5892947748222" width="8.545454545454545" height="52.410705225177836" fill="orange" data-tooltip="1.41x baseline speed (YJIT)"/>
<line x1="285.0" y1="445.5033635160602" x2="293.5454545454545" y2="445.5033635160602" stroke="#000"/>
<line x1="285.0" y1="445.6752260335842" x2="293.5454545454545" y2="445.6752260335842" stroke="#000"/>
<line x1="289.27272727272725" y1="445.5033635160602" x2="289.27272727272725" y2="445.6752260335842" stroke="#000"/>
<line x1="289.2727272727273" y1="498.0" x2="289.2727272727273" y2="502.79999999999995" stroke="#000"/>
<text x="289.2727272727273" y="512.4" fill="#111" font-size="small" font-family="monospace" font-weight="bold" text-anchor="end" transform="rotate(-60, 289.2727272727273, 512.4)">
psych-load
</text>
<rect x="302.09090909090907" y="460.86184113499684" width="8.545454545454545" height="37.13815886500308" fill="#7070f8" data-tooltip="1.00x baseline speed (No JIT)"/>
<line x1="302.09090909090907" y1="460.61830902481347" x2="310.6363636363636" y2="460.61830902481347" stroke="#000"/>
<line x1="302.09090909090907" y1="461.10537324518026" x2="310.6363636363636" y2="461.10537324518026" stroke="#000"/>
<line x1="306.3636363636363" y1="460.61830902481347" x2="306.3636363636363" y2="461.10537324518026" stroke="#000"/>
<rect x="310.6363636363636" y="441.1205043989982" width="8.545454545454545" height="56.87949560100178" fill="orange" data-tooltip="1.53x baseline speed (YJIT)"/>
<line x1="310.6363636363636" y1="440.36144584493735" x2="319.18181818181813" y2="440.36144584493735" stroke="#000"/>
<line x1="310.6363636363636" y1="441.87956295305906" x2="319.18181818181813" y2="441.87956295305906" stroke="#000"/>
<line x1="314.9090909090909" y1="440.36144584493735" x2="314.9090909090909" y2="441.87956295305906" stroke="#000"/>
<line x1="314.90909090909093" y1="498.0" x2="314.90909090909093" y2="502.79999999999995" stroke="#000"/>
<text x="314.90909090909093" y="512.4" fill="#111" font-size="small" font-family="monospace" font-weight="bold" text-anchor="end" transform="rotate(-60, 314.90909090909093, 512.4)">
railsbench
</text>
<rect x="327.7272727272727" y="460.86184113499684" width="8.545454545454545" height="37.13815886500308" fill="#7070f8" data-tooltip="1.00x baseline speed (No JIT)"/>
<line x1="327.7272727272727" y1="457.6801999341693" x2="336.2727272727272" y2="457.6801999341693" stroke="#000"/>
<line x1="327.7272727272727" y1="464.0434823358244" x2="336.2727272727272" y2="464.0434823358244" stroke="#000"/>
<line x1="331.99999999999994" y1="457.6801999341693" x2="331.99999999999994" y2="464.0434823358244" stroke="#000"/>
<rect x="336.2727272727272" y="445.95872688570444" width="8.545454545454545" height="52.04127311429554" fill="orange" data-tooltip="1.40x baseline speed (YJIT)"/>
<line x1="336.2727272727272" y1="434.6793272216221" x2="344.81818181818176" y2="434.6793272216221" stroke="#000"/>
<line x1="336.2727272727272" y1="457.23812654978684" x2="344.81818181818176" y2="457.23812654978684" stroke="#000"/>
<line x1="340.5454545454545" y1="434.6793272216221" x2="340.5454545454545" y2="457.23812654978684" stroke="#000"/>
<line x1="340.54545454545456" y1="498.0" x2="340.54545454545456" y2="502.79999999999995" stroke="#000"/>
<text x="340.54545454545456" y="512.4" fill="#111" font-size="small" font-family="monospace" font-weight="bold" text-anchor="end" transform="rotate(-60, 340.54545454545456, 512.4)">
ruby-lsp
</text>
<rect x="353.3636363636363" y="460.86184113499684" width="8.545454545454545" height="37.13815886500308" fill="#7070f8" data-tooltip="1.00x baseline speed (No JIT)"/>
<line x1="353.3636363636363" y1="460.78431694069326" x2="361.9090909090908" y2="460.78431694069326" stroke="#000"/>
<line x1="353.3636363636363" y1="460.9393653293005" x2="361.9090909090908" y2="460.9393653293005" stroke="#000"/>
<line x1="357.63636363636357" y1="460.78431694069326" x2="357.63636363636357" y2="460.9393653293005" stroke="#000"/>
<rect x="361.9090909090908" y="451.20559561800775" width="8.545454545454545" height="46.79440438199221" fill="orange" data-tooltip="1.26x baseline speed (YJIT)"/>
<line x1="361.9090909090908" y1="450.81840033241224" x2="370.4545454545454" y2="450.81840033241224" stroke="#000"/>
<line x1="361.9090909090908" y1="451.59279090360326" x2="370.4545454545454" y2="451.59279090360326" stroke="#000"/>
<line x1="366.18181818181813" y1="450.81840033241224" x2="366.18181818181813" y2="451.59279090360326" stroke="#000"/>
<line x1="366.1818181818182" y1="498.0" x2="366.1818181818182" y2="502.79999999999995" stroke="#000"/>
<text x="366.1818181818182" y="512.4" fill="#111" font-size="small" font-family="monospace" font-weight="bold" text-anchor="end" transform="rotate(-60, 366.1818181818182, 512.4)">
sequel
</text>
<rect x="379.0" y="460.86184113499684" width="8.545454545454545" height="37.13815886500308" fill="#7070f8" data-tooltip="1.00x baseline speed (No JIT)"/>
<line x1="379.0" y1="460.7191890482253" x2="387.5454545454545" y2="460.7191890482253" stroke="#000"/>
<line x1="379.0" y1="461.0044932217684" x2="387.5454545454545" y2="461.0044932217684" stroke="#000"/>
<line x1="383.27272727272725" y1="460.7191890482253" x2="383.27272727272725" y2="461.0044932217684" stroke="#000"/>
<rect x="387.5454545454545" y="422.9263172344263" width="8.545454545454545" height="75.07368276557364" fill="orange" data-tooltip="2.02x baseline speed (YJIT)"/>
<line x1="387.5454545454545" y1="422.6313981124175" x2="396.09090909090907" y2="422.6313981124175" stroke="#000"/>
<line x1="387.5454545454545" y1="423.22123635643504" x2="396.09090909090907" y2="423.22123635643504" stroke="#000"/>
<line x1="391.8181818181818" y1="422.6313981124175" x2="391.8181818181818" y2="423.22123635643504" stroke="#000"/>
<line x1="391.81818181818187" y1="498.0" x2="391.81818181818187" y2="502.79999999999995" stroke="#000"/>
<text x="391.81818181818187" y="512.4" fill="#111" font-size="small" font-family="monospace" font-weight="bold" text-anchor="end" transform="rotate(-60, 391.81818181818187, 512.4)">
binarytrees
</text>
<rect x="404.63636363636357" y="460.86184113499684" width="8.545454545454545" height="37.13815886500308" fill="#7070f8" data-tooltip="1.00x baseline speed (No JIT)"/>
<line x1="404.63636363636357" y1="460.8420326770748" x2="413.1818181818181" y2="460.8420326770748" stroke="#000"/>
<line x1="404.63636363636357" y1="460.8816495929189" x2="413.1818181818181" y2="460.8816495929189" stroke="#000"/>
<line x1="408.9090909090908" y1="460.8420326770748" x2="408.9090909090908" y2="460.8816495929189" stroke="#000"/>
<rect x="413.1818181818181" y="440.7091543173389" width="8.545454545454545" height="57.29084568266104" fill="orange" data-tooltip="1.54x baseline speed (YJIT)"/>
<line x1="413.1818181818181" y1="440.65610507266285" x2="421.72727272727263" y2="440.65610507266285" stroke="#000"/>
<line x1="413.1818181818181" y1="440.76220356201503" x2="421.72727272727263" y2="440.76220356201503" stroke="#000"/>
<line x1="417.4545454545454" y1="440.65610507266285" x2="417.4545454545454" y2="440.76220356201503" stroke="#000"/>
<line x1="417.45454545454544" y1="498.0" x2="417.45454545454544" y2="502.79999999999995" stroke="#000"/>
<text x="417.45454545454544" y="512.4" fill="#111" font-size="small" font-family="monospace" font-weight="bold" text-anchor="end" transform="rotate(-60, 417.45454545454544, 512.4)">
chunky_png
</text>
<rect x="430.27272727272725" y="460.86184113499684" width="8.545454545454545" height="37.13815886500308" fill="#7070f8" data-tooltip="1.00x baseline speed (No JIT)"/>
<line x1="430.27272727272725" y1="460.60358127737" x2="438.81818181818176" y2="460.60358127737" stroke="#000"/>
<line x1="430.27272727272725" y1="461.12010099262375" x2="438.81818181818176" y2="461.12010099262375" stroke="#000"/>
<line x1="434.5454545454545" y1="460.60358127737" x2="434.5454545454545" y2="461.12010099262375" stroke="#000"/>
<rect x="438.81818181818176" y="454.0758808880811" width="8.545454545454545" height="43.92411911191891" fill="orange" data-tooltip="1.18x baseline speed (YJIT)"/>
<line x1="438.81818181818176" y1="453.5750855584769" x2="447.3636363636363" y2="453.5750855584769" stroke="#000"/>
<line x1="438.81818181818176" y1="454.5766762176852" x2="447.3636363636363" y2="454.5766762176852" stroke="#000"/>
<line x1="443.090909090909" y1="453.5750855584769" x2="443.090909090909" y2="454.5766762176852" stroke="#000"/>
<line x1="443.09090909090907" y1="498.0" x2="443.09090909090907" y2="502.79999999999995" stroke="#000"/>
<text x="443.09090909090907" y="512.4" fill="#111" font-size="small" font-family="monospace" font-weight="bold" text-anchor="end" transform="rotate(-60, 443.09090909090907, 512.4)">
erubi
</text>
<rect x="455.90909090909093" y="460.86184113499684" width="8.545454545454545" height="37.13815886500308" fill="#7070f8" data-tooltip="1.00x baseline speed (No JIT)"/>
<line x1="455.90909090909093" y1="460.6905470724882" x2="464.45454545454544" y2="460.6905470724882" stroke="#000"/>
<line x1="455.90909090909093" y1="461.03313519750554" x2="464.45454545454544" y2="461.03313519750554" stroke="#000"/>
<line x1="460.1818181818182" y1="460.6905470724882" x2="460.1818181818182" y2="461.03313519750554" stroke="#000"/>
<rect x="464.45454545454544" y="460.9042905028369" width="8.545454545454545" height="37.09570949716302" fill="orange" data-tooltip="1.00x baseline speed (YJIT)"/>
<line x1="464.45454545454544" y1="460.6687134673078" x2="473.0" y2="460.6687134673078" stroke="#000"/>
<line x1="464.45454545454544" y1="461.139867538366" x2="473.0" y2="461.139867538366" stroke="#000"/>
<line x1="468.7272727272727" y1="460.6687134673078" x2="468.7272727272727" y2="461.139867538366" stroke="#000"/>
<line x1="468.72727272727275" y1="498.0" x2="468.72727272727275" y2="502.79999999999995" stroke="#000"/>
<text x="468.72727272727275" y="512.4" fill="#111" font-size="small" font-family="monospace" font-weight="bold" text-anchor="end" transform="rotate(-60, 468.72727272727275, 512.4)">
etanni
</text>
<rect x="481.5454545454545" y="460.86184113499684" width="8.545454545454545" height="37.13815886500308" fill="#7070f8" data-tooltip="1.00x baseline speed (No JIT)"/>
<line x1="481.5454545454545" y1="460.69036398381684" x2="490.090909090909" y2="460.69036398381684" stroke="#000"/>
<line x1="481.5454545454545" y1="461.0333182861769" x2="490.090909090909" y2="461.0333182861769" stroke="#000"/>
<line x1="485.81818181818176" y1="460.69036398381684" x2="485.81818181818176" y2="461.0333182861769" stroke="#000"/>
<rect x="490.090909090909" y="395.3354937267559" width="8.545454545454545" height="102.66450627324402" fill="orange" data-tooltip="2.76x baseline speed (YJIT)"/>
<line x1="490.090909090909" y1="388.0175640634835" x2="498.63636363636357" y2="388.0175640634835" stroke="#000"/>
<line x1="490.090909090909" y1="402.6534233900282" x2="498.63636363636357" y2="402.6534233900282" stroke="#000"/>
<line x1="494.36363636363626" y1="388.0175640634835" x2="494.36363636363626" y2="402.6534233900282" stroke="#000"/>
<line x1="494.3636363636363" y1="498.0" x2="494.3636363636363" y2="502.79999999999995" stroke="#000"/>
<text x="494.3636363636363" y="512.4" fill="#111" font-size="small" font-family="monospace" font-weight="bold" text-anchor="end" transform="rotate(-60, 494.3636363636363, 512.4)">
fannkuchredux
</text>
<rect x="507.1818181818182" y="460.86184113499684" width="8.545454545454545" height="37.13815886500308" fill="#7070f8" data-tooltip="1.00x baseline speed (No JIT)"/>
<line x1="507.1818181818182" y1="460.744016236784" x2="515.7272727272727" y2="460.744016236784" stroke="#000"/>
<line x1="507.1818181818182" y1="460.97966603320975" x2="515.7272727272727" y2="460.97966603320975" stroke="#000"/>
<line x1="511.4545454545455" y1="460.744016236784" x2="511.4545454545455" y2="460.97966603320975" stroke="#000"/>
<rect x="515.7272727272727" y="446.2897418529393" width="8.545454545454545" height="51.71025814706066" fill="orange" data-tooltip="1.39x baseline speed (YJIT)"/>
<line x1="515.7272727272727" y1="446.03035869394023" x2="524.2727272727273" y2="446.03035869394023" stroke="#000"/>
<line x1="515.7272727272727" y1="446.5491250119383" x2="524.2727272727273" y2="446.5491250119383" stroke="#000"/>
<line x1="520.0" y1="446.03035869394023" x2="520.0" y2="446.5491250119383" stroke="#000"/>
<line x1="520.0" y1="498.0" x2="520.0" y2="502.79999999999995" stroke="#000"/>
<text x="520.0" y="512.4" fill="#111" font-size="small" font-family="monospace" font-weight="bold" text-anchor="end" transform="rotate(-60, 520.0, 512.4)">
lee
</text>
<rect x="532.8181818181818" y="460.86184113499684" width="8.545454545454545" height="37.13815886500308" fill="#7070f8" data-tooltip="1.00x baseline speed (No JIT)"/>
<line x1="532.8181818181818" y1="460.83345228744633" x2="541.3636363636363" y2="460.83345228744633" stroke="#000"/>
<line x1="532.8181818181818" y1="460.8902299825474" x2="541.3636363636363" y2="460.8902299825474" stroke="#000"/>
<line x1="537.090909090909" y1="460.83345228744633" x2="537.090909090909" y2="460.8902299825474" stroke="#000"/>
<rect x="541.3636363636363" y="439.622740551918" width="8.545454545454545" height="58.37725944808189" fill="orange" data-tooltip="1.57x baseline speed (YJIT)"/>
<line x1="541.3636363636363" y1="439.55437308838384" x2="549.9090909090908" y2="439.55437308838384" stroke="#000"/>
<line x1="541.3636363636363" y1="439.6911080154522" x2="549.9090909090908" y2="439.6911080154522" stroke="#000"/>
<line x1="545.6363636363636" y1="439.55437308838384" x2="545.6363636363636" y2="439.6911080154522" stroke="#000"/>
<line x1="545.6363636363636" y1="498.0" x2="545.6363636363636" y2="502.79999999999995" stroke="#000"/>
<text x="545.6363636363636" y="512.4" fill="#111" font-size="small" font-family="monospace" font-weight="bold" text-anchor="end" transform="rotate(-60, 545.6363636363636, 512.4)">
nbody
</text>
<rect x="558.4545454545454" y="460.86184113499684" width="8.545454545454545" height="37.13815886500308" fill="#7070f8" data-tooltip="1.00x baseline speed (No JIT)"/>
<line x1="558.4545454545454" y1="460.62332544211483" x2="567.0" y2="460.62332544211483" stroke="#000"/>
<line x1="558.4545454545454" y1="461.1003568278789" x2="567.0" y2="461.1003568278789" stroke="#000"/>
<line x1="562.7272727272727" y1="460.62332544211483" x2="562.7272727272727" y2="461.1003568278789" stroke="#000"/>
<rect x="567.0" y="395.5634369525209" width="8.545454545454545" height="102.43656304747913" fill="orange" data-tooltip="2.76x baseline speed (YJIT)"/>
<line x1="567.0" y1="394.6374032706558" x2="575.5454545454545" y2="394.6374032706558" stroke="#000"/>
<line x1="567.0" y1="396.4894706343859" x2="575.5454545454545" y2="396.4894706343859" stroke="#000"/>
<line x1="571.2727272727273" y1="394.6374032706558" x2="571.2727272727273" y2="396.4894706343859" stroke="#000"/>
<line x1="571.2727272727273" y1="498.0" x2="571.2727272727273" y2="502.79999999999995" stroke="#000"/>
<text x="571.2727272727273" y="512.4" fill="#111" font-size="small" font-family="monospace" font-weight="bold" text-anchor="end" transform="rotate(-60, 571.2727272727273, 512.4)">
optcarrot
</text>
<rect x="584.0909090909091" y="460.86184113499684" width="8.545454545454545" height="37.13815886500308" fill="#7070f8" data-tooltip="1.00x baseline speed (No JIT)"/>
<line x1="584.0909090909091" y1="460.7927487024333" x2="592.6363636363636" y2="460.7927487024333" stroke="#000"/>
<line x1="584.0909090909091" y1="460.93093356756043" x2="592.6363636363636" y2="460.93093356756043" stroke="#000"/>
<line x1="588.3636363636364" y1="460.7927487024333" x2="588.3636363636364" y2="460.93093356756043" stroke="#000"/>
<rect x="592.6363636363636" y="454.05098077703866" width="8.545454545454545" height="43.9490192229612" fill="orange" data-tooltip="1.18x baseline speed (YJIT)"/>
<line x1="592.6363636363636" y1="453.9188466323191" x2="601.1818181818181" y2="453.9188466323191" stroke="#000"/>
<line x1="592.6363636363636" y1="454.1831149217582" x2="601.1818181818181" y2="454.1831149217582" stroke="#000"/>
<line x1="596.909090909091" y1="453.9188466323191" x2="596.909090909091" y2="454.1831149217582" stroke="#000"/>
<line x1="596.909090909091" y1="498.0" x2="596.909090909091" y2="502.79999999999995" stroke="#000"/>
<text x="596.909090909091" y="512.4" fill="#111" font-size="small" font-family="monospace" font-weight="bold" text-anchor="end" transform="rotate(-60, 596.909090909091, 512.4)">
ruby-json
</text>
<rect x="609.7272727272726" y="460.86184113499684" width="8.545454545454545" height="37.13815886500308" fill="#7070f8" data-tooltip="1.00x baseline speed (No JIT)"/>
<line x1="609.7272727272726" y1="460.7023685629556" x2="618.2727272727273" y2="460.7023685629556" stroke="#000"/>
<line x1="609.7272727272726" y1="461.02131370703813" x2="618.2727272727273" y2="461.02131370703813" stroke="#000"/>
<line x1="614.0" y1="460.7023685629556" x2="614.0" y2="461.02131370703813" stroke="#000"/>
<rect x="618.2727272727273" y="428.8750662494574" width="8.545454545454545" height="69.1249337505425" fill="orange" data-tooltip="1.86x baseline speed (YJIT)"/>
<line x1="618.2727272727273" y1="428.4759845279543" x2="626.8181818181818" y2="428.4759845279543" stroke="#000"/>
<line x1="618.2727272727273" y1="429.27414797096054" x2="626.8181818181818" y2="429.27414797096054" stroke="#000"/>
<line x1="622.5454545454545" y1="428.4759845279543" x2="622.5454545454545" y2="429.27414797096054" stroke="#000"/>
<line x1="622.5454545454545" y1="498.0" x2="622.5454545454545" y2="502.79999999999995" stroke="#000"/>
<text x="622.5454545454545" y="512.4" fill="#111" font-size="small" font-family="monospace" font-weight="bold" text-anchor="end" transform="rotate(-60, 622.5454545454545, 512.4)">
rubykon
</text>
<rect x="635.3636363636363" y="460.86184113499684" width="8.545454545454545" height="37.13815886500308" fill="#7070f8" data-tooltip="1.00x baseline speed (No JIT)"/>
<line x1="635.3636363636363" y1="460.8561207684911" x2="643.9090909090908" y2="460.8561207684911" stroke="#000"/>
<line x1="635.3636363636363" y1="460.8675615015026" x2="643.9090909090908" y2="460.8675615015026" stroke="#000"/>
<line x1="639.6363636363635" y1="460.8561207684911" x2="639.6363636363635" y2="460.8675615015026" stroke="#000"/>
<rect x="643.9090909090908" y="256.5340400751662" width="8.545454545454545" height="241.46595992483373" fill="orange" data-tooltip="6.50x baseline speed (YJIT)"/>
<line x1="643.9090909090908" y1="256.3369098729976" x2="652.4545454545453" y2="256.3369098729976" stroke="#000"/>
<line x1="643.9090909090908" y1="256.7311702773348" x2="652.4545454545453" y2="256.7311702773348" stroke="#000"/>
<line x1="648.1818181818181" y1="256.3369098729976" x2="648.1818181818181" y2="256.7311702773348" stroke="#000"/>
<line x1="648.1818181818181" y1="498.0" x2="648.1818181818181" y2="502.79999999999995" stroke="#000"/>
<text x="648.1818181818181" y="512.4" fill="#111" font-size="small" font-family="monospace" font-weight="bold" text-anchor="end" transform="rotate(-60, 648.1818181818181, 512.4)">
30k_ifelse
</text>
<rect x="660.9999999999999" y="460.86184113499684" width="8.545454545454545" height="37.13815886500308" fill="#7070f8" data-tooltip="1.00x baseline speed (No JIT)"/>
<line x1="660.9999999999999" y1="460.85417941091254" x2="669.5454545454544" y2="460.85417941091254" stroke="#000"/>
<line x1="660.9999999999999" y1="460.8695028590812" x2="669.5454545454544" y2="460.8695028590812" stroke="#000"/>
<line x1="665.2727272727273" y1="460.85417941091254" x2="665.2727272727273" y2="460.8695028590812" stroke="#000"/>
<rect x="669.5454545454544" y="193.6447265030817" width="8.545454545454545" height="304.35527349691824" fill="orange" data-tooltip="8.20x baseline speed (YJIT)"/>
<line x1="669.5454545454544" y1="193.55255410491947" x2="678.090909090909" y2="193.55255410491947" stroke="#000"/>
<line x1="669.5454545454544" y1="193.73689890124396" x2="678.090909090909" y2="193.73689890124396" stroke="#000"/>
<line x1="673.8181818181818" y1="193.55255410491947" x2="673.8181818181818" y2="193.73689890124396" stroke="#000"/>
<line x1="673.8181818181818" y1="498.0" x2="673.8181818181818" y2="502.79999999999995" stroke="#000"/>
<text x="673.8181818181818" y="512.4" fill="#111" font-size="small" font-family="monospace" font-weight="bold" text-anchor="end" transform="rotate(-60, 673.8181818181818, 512.4)">
30k_methods
</text>
<rect x="686.6363636363636" y="460.86184113499684" width="8.545454545454545" height="37.13815886500308" fill="#7070f8" data-tooltip="1.00x baseline speed (No JIT)"/>
<line x1="686.6363636363636" y1="460.7762335590074" x2="695.1818181818181" y2="460.7762335590074" stroke="#000"/>
<line x1="686.6363636363636" y1="460.94744871098635" x2="695.1818181818181" y2="460.94744871098635" stroke="#000"/>
<line x1="690.9090909090909" y1="460.7762335590074" x2="690.9090909090909" y2="460.94744871098635" stroke="#000"/>
<rect x="695.1818181818181" y="397.0346459449412" width="8.545454545454545" height="100.96535405505874" fill="orange" data-tooltip="2.72x baseline speed (YJIT)"/>
<line x1="695.1818181818181" y1="396.7182475549994" x2="703.7272727272726" y2="396.7182475549994" stroke="#000"/>
<line x1="695.1818181818181" y1="397.35104433488306" x2="703.7272727272726" y2="397.35104433488306" stroke="#000"/>
<line x1="699.4545454545455" y1="396.7182475549994" x2="699.4545454545455" y2="397.35104433488306" stroke="#000"/>
<line x1="699.4545454545455" y1="498.0" x2="699.4545454545455" y2="502.79999999999995" stroke="#000"/>
<text x="699.4545454545455" y="512.4" fill="#111" font-size="small" font-family="monospace" font-weight="bold" text-anchor="end" transform="rotate(-60, 699.4545454545455, 512.4)">
cfunc_itself
</text>
<rect x="712.2727272727271" y="460.86184113499684" width="8.545454545454545" height="37.13815886500308" fill="#7070f8" data-tooltip="1.00x baseline speed (No JIT)"/>
<line x1="712.2727272727271" y1="460.68504964775263" x2="720.8181818181816" y2="460.68504964775263" stroke="#000"/>
<line x1="712.2727272727271" y1="461.0386326222411" x2="720.8181818181816" y2="461.0386326222411" stroke="#000"/>
<line x1="716.5454545454545" y1="460.68504964775263" x2="716.5454545454545" y2="461.0386326222411" stroke="#000"/>
<rect x="720.8181818181816" y="306.1179698239111" width="8.545454545454545" height="191.8820301760889" fill="orange" data-tooltip="5.17x baseline speed (YJIT)"/>
<line x1="720.8181818181816" y1="305.19916244124727" x2="729.3636363636363" y2="305.19916244124727" stroke="#000"/>
<line x1="720.8181818181816" y1="307.03677720657487" x2="729.3636363636363" y2="307.03677720657487" stroke="#000"/>
<line x1="725.090909090909" y1="305.19916244124727" x2="725.090909090909" y2="307.03677720657487" stroke="#000"/>
<line x1="725.090909090909" y1="498.0" x2="725.090909090909" y2="502.79999999999995" stroke="#000"/>
<text x="725.090909090909" y="512.4" fill="#111" font-size="small" font-family="monospace" font-weight="bold" text-anchor="end" transform="rotate(-60, 725.090909090909, 512.4)">
fib
</text>
<rect x="737.9090909090909" y="460.86184113499684" width="8.545454545454545" height="37.13815886500308" fill="#7070f8" data-tooltip="1.00x baseline speed (No JIT)"/>
<line x1="737.9090909090909" y1="460.72615347983646" x2="746.4545454545454" y2="460.72615347983646" stroke="#000"/>
<line x1="737.9090909090909" y1="460.9975287901573" x2="746.4545454545454" y2="460.9975287901573" stroke="#000"/>
<line x1="742.1818181818181" y1="460.72615347983646" x2="742.1818181818181" y2="460.9975287901573" stroke="#000"/>
<rect x="746.4545454545454" y="296.4793381108322" width="8.545454545454545" height="201.52066188916777" fill="orange" data-tooltip="5.43x baseline speed (YJIT)"/>
<line x1="746.4545454545454" y1="295.65941309200963" x2="754.9999999999999" y2="295.65941309200963" stroke="#000"/>
<line x1="746.4545454545454" y1="297.2992631296547" x2="754.9999999999999" y2="297.2992631296547" stroke="#000"/>
<line x1="750.7272727272726" y1="295.65941309200963" x2="750.7272727272726" y2="297.2992631296547" stroke="#000"/>
<line x1="750.7272727272726" y1="498.0" x2="750.7272727272726" y2="502.79999999999995" stroke="#000"/>
<text x="750.7272727272726" y="512.4" fill="#111" font-size="small" font-family="monospace" font-weight="bold" text-anchor="end" transform="rotate(-60, 750.7272727272726, 512.4)">
getivar
</text>
<rect x="763.5454545454544" y="460.86184113499684" width="8.545454545454545" height="37.13815886500308" fill="#7070f8" data-tooltip="1.00x baseline speed (No JIT)"/>
<line x1="763.5454545454544" y1="460.81957168545046" x2="772.0909090909089" y2="460.81957168545046" stroke="#000"/>
<line x1="763.5454545454544" y1="460.9041105845433" x2="772.0909090909089" y2="460.9041105845433" stroke="#000"/>
<line x1="767.8181818181818" y1="460.81957168545046" x2="767.8181818181818" y2="460.9041105845433" stroke="#000"/>
<rect x="772.0909090909089" y="277.5294537757806" width="8.545454545454545" height="220.47054622421936" fill="orange" data-tooltip="5.94x baseline speed (YJIT)"/>
<line x1="772.0909090909089" y1="276.91888526241127" x2="780.6363636363635" y2="276.91888526241127" stroke="#000"/>
<line x1="772.0909090909089" y1="278.1400222891499" x2="780.6363636363635" y2="278.1400222891499" stroke="#000"/>
<line x1="776.3636363636363" y1="276.91888526241127" x2="776.3636363636363" y2="278.1400222891499" stroke="#000"/>
<line x1="776.3636363636363" y1="498.0" x2="776.3636363636363" y2="502.79999999999995" stroke="#000"/>
<text x="776.3636363636363" y="512.4" fill="#111" font-size="small" font-family="monospace" font-weight="bold" text-anchor="end" transform="rotate(-60, 776.3636363636363, 512.4)">
keyword_args
</text>
<rect x="789.1818181818181" y="460.86184113499684" width="8.545454545454545" height="37.13815886500308" fill="#7070f8" data-tooltip="1.00x baseline speed (No JIT)"/>
<line x1="789.1818181818181" y1="460.7134861149827" x2="797.7272727272726" y2="460.7134861149827" stroke="#000"/>
<line x1="789.1818181818181" y1="461.01019615501104" x2="797.7272727272726" y2="461.01019615501104" stroke="#000"/>
<line x1="793.4545454545454" y1="460.7134861149827" x2="793.4545454545454" y2="461.01019615501104" stroke="#000"/>
<rect x="797.7272727272726" y="100.19999999999999" width="8.545454545454545" height="397.79999999999995" fill="orange" data-tooltip="10.71x baseline speed (YJIT)"/>
<line x1="797.7272727272726" y1="97.26933378016385" x2="806.2727272727271" y2="97.26933378016385" stroke="#000"/>
<line x1="797.7272727272726" y1="103.13066621983613" x2="806.2727272727271" y2="103.13066621983613" stroke="#000"/>
<line x1="801.9999999999999" y1="97.26933378016385" x2="801.9999999999999" y2="103.13066621983613" stroke="#000"/>
<line x1="801.9999999999999" y1="498.0" x2="801.9999999999999" y2="502.79999999999995" stroke="#000"/>
<text x="801.9999999999999" y="512.4" fill="#111" font-size="small" font-family="monospace" font-weight="bold" text-anchor="end" transform="rotate(-60, 801.9999999999999, 512.4)">
respond_to
</text>
<rect x="814.8181818181818" y="460.86184113499684" width="8.545454545454545" height="37.13815886500308" fill="#7070f8" data-tooltip="1.00x baseline speed (No JIT)"/>
<line x1="814.8181818181818" y1="460.77506799073296" x2="823.3636363636363" y2="460.77506799073296" stroke="#000"/>
<line x1="814.8181818181818" y1="460.94861427926077" x2="823.3636363636363" y2="460.94861427926077" stroke="#000"/>
<line x1="819.0909090909091" y1="460.77506799073296" x2="819.0909090909091" y2="460.94861427926077" stroke="#000"/>
<rect x="823.3636363636363" y="270.8149280807399" width="8.545454545454545" height="227.18507191926005" fill="orange" data-tooltip="6.12x baseline speed (YJIT)"/>
<line x1="823.3636363636363" y1="270.25006177920915" x2="831.9090909090908" y2="270.25006177920915" stroke="#000"/>
<line x1="823.3636363636363" y1="271.3797943822707" x2="831.9090909090908" y2="271.3797943822707" stroke="#000"/>
<line x1="827.6363636363636" y1="270.25006177920915" x2="827.6363636363636" y2="271.3797943822707" stroke="#000"/>
<line x1="827.6363636363636" y1="498.0" x2="827.6363636363636" y2="502.79999999999995" stroke="#000"/>
<text x="827.6363636363636" y="512.4" fill="#111" font-size="small" font-family="monospace" font-weight="bold" text-anchor="end" transform="rotate(-60, 827.6363636363636, 512.4)">
setivar
</text>
<rect x="840.4545454545454" y="460.86184113499684" width="8.545454545454545" height="37.13815886500308" fill="#7070f8" data-tooltip="1.00x baseline speed (No JIT)"/>
<line x1="840.4545454545454" y1="460.05541819573324" x2="848.9999999999999" y2="460.05541819573324" stroke="#000"/>
<line x1="840.4545454545454" y1="461.6682640742605" x2="848.9999999999999" y2="461.6682640742605" stroke="#000"/>
<line x1="844.7272727272726" y1="460.05541819573324" x2="844.7272727272726" y2="461.6682640742605" stroke="#000"/>
<rect x="848.9999999999999" y="407.8068170653975" width="8.545454545454545" height="90.19318293460248" fill="orange" data-tooltip="2.43x baseline speed (YJIT)"/>
<line x1="848.9999999999999" y1="405.2274246133982" x2="857.5454545454544" y2="405.2274246133982" stroke="#000"/>
<line x1="848.9999999999999" y1="410.38620951739676" x2="857.5454545454544" y2="410.38620951739676" stroke="#000"/>
<line x1="853.2727272727271" y1="405.2274246133982" x2="853.2727272727271" y2="410.38620951739676" stroke="#000"/>
<line x1="853.2727272727271" y1="498.0" x2="853.2727272727271" y2="502.79999999999995" stroke="#000"/>
<text x="853.2727272727271" y="512.4" fill="#111" font-size="small" font-family="monospace" font-weight="bold" text-anchor="end" transform="rotate(-60, 853.2727272727271, 512.4)">
setivar_object
</text>
<rect x="866.090909090909" y="460.86184113499684" width="8.545454545454545" height="37.13815886500308" fill="#7070f8" data-tooltip="1.00x baseline speed (No JIT)"/>
<line x1="866.090909090909" y1="460.6161982556624" x2="874.6363636363635" y2="460.6161982556624" stroke="#000"/>
<line x1="866.090909090909" y1="461.1074840143313" x2="874.6363636363635" y2="461.1074840143313" stroke="#000"/>
<line x1="870.3636363636364" y1="460.6161982556624" x2="870.3636363636364" y2="461.1074840143313" stroke="#000"/>
<rect x="874.6363636363635" y="408.86353720201595" width="8.545454545454545" height="89.13646279798397" fill="orange" data-tooltip="2.40x baseline speed (YJIT)"/>
<line x1="874.6363636363635" y1="407.366981003814" x2="883.181818181818" y2="407.366981003814" stroke="#000"/>
<line x1="874.6363636363635" y1="410.3600934002179" x2="883.181818181818" y2="410.3600934002179" stroke="#000"/>
<line x1="878.9090909090909" y1="407.366981003814" x2="878.9090909090909" y2="410.3600934002179" stroke="#000"/>
<line x1="878.9090909090909" y1="498.0" x2="878.9090909090909" y2="502.79999999999995" stroke="#000"/>
<text x="878.9090909090909" y="512.4" fill="#111" font-size="small" font-family="monospace" font-weight="bold" text-anchor="end" transform="rotate(-60, 878.9090909090909, 512.4)">
setivar_young
</text>
<rect x="891.7272727272726" y="460.86184113499684" width="8.545454545454545" height="37.13815886500308" fill="#7070f8" data-tooltip="1.00x baseline speed (No JIT)"/>
<line x1="891.7272727272726" y1="460.59997617435494" x2="900.2727272727271" y2="460.59997617435494" stroke="#000"/>
<line x1="891.7272727272726" y1="461.1237060956388" x2="900.2727272727271" y2="461.1237060956388" stroke="#000"/>
<line x1="895.9999999999999" y1="460.59997617435494" x2="895.9999999999999" y2="461.1237060956388" stroke="#000"/>
<rect x="900.2727272727271" y="427.12290252645755" width="8.545454545454545" height="70.87709747354245" fill="orange" data-tooltip="1.91x baseline speed (YJIT)"/>
<line x1="900.2727272727271" y1="426.0049879012785" x2="908.8181818181816" y2="426.0049879012785" stroke="#000"/>
<line x1="900.2727272727271" y1="428.24081715163663" x2="908.8181818181816" y2="428.24081715163663" stroke="#000"/>
<line x1="904.5454545454544" y1="426.0049879012785" x2="904.5454545454544" y2="428.24081715163663" stroke="#000"/>
<line x1="904.5454545454544" y1="498.0" x2="904.5454545454544" y2="502.79999999999995" stroke="#000"/>
<text x="904.5454545454544" y="512.4" fill="#111" font-size="small" font-family="monospace" font-weight="bold" text-anchor="end" transform="rotate(-60, 904.5454545454544, 512.4)">
str_concat
</text>
<rect x="917.3636363636363" y="460.86184113499684" width="8.545454545454545" height="37.13815886500308" fill="#7070f8" data-tooltip="1.00x baseline speed (No JIT)"/>
<line x1="917.3636363636363" y1="460.7983754818959" x2="925.9090909090908" y2="460.7983754818959" stroke="#000"/>
<line x1="917.3636363636363" y1="460.9253067880978" x2="925.9090909090908" y2="460.9253067880978" stroke="#000"/>
<line x1="921.6363636363636" y1="460.7983754818959" x2="921.6363636363636" y2="460.9253067880978" stroke="#000"/>
<rect x="925.9090909090908" y="452.09633910734874" width="8.545454545454545" height="45.903660892651274" fill="orange" data-tooltip="1.24x baseline speed (YJIT)"/>
<line x1="925.9090909090908" y1="451.967197238444" x2="934.4545454545453" y2="451.967197238444" stroke="#000"/>
<line x1="925.9090909090908" y1="452.2254809762535" x2="934.4545454545453" y2="452.2254809762535" stroke="#000"/>
<line x1="930.1818181818181" y1="451.967197238444" x2="930.1818181818181" y2="452.2254809762535" stroke="#000"/>
<line x1="930.1818181818181" y1="498.0" x2="930.1818181818181" y2="502.79999999999995" stroke="#000"/>
<text x="930.1818181818181" y="512.4" fill="#111" font-size="small" font-family="monospace" font-weight="bold" text-anchor="end" transform="rotate(-60, 930.1818181818181, 512.4)">
throw
</text>
</svg>