<svg viewBox="0 0 1000 600" xmlns="http://www.w3.org/2000/svg" xmlns:xlink="http://www.w3.org/1999/xlink" width="100%" height="100%">

<rect x="50.0" y="30.0" width="940.0" height="467.99999999999994" stroke="#000" fill="#EEE"/>
<line x1="42.0" y1="497.9999999999999" x2="50.0" y2="497.9999999999999" stroke="#000"/>
<text x="26.000000000000004" y="497.9999999999999" text-anchor="end" font-weight="bold" font-size="small" fill="#111">
0.0
</text>
<line x1="42.0" y1="426.4625774638796" x2="50.0" y2="426.4625774638796" stroke="#000"/>
<text x="26.000000000000004" y="426.4625774638796" text-anchor="end" font-weight="bold" font-size="small" fill="#111">
0.5
</text>
<line x1="42.0" y1="354.92515492775925" x2="50.0" y2="354.92515492775925" stroke="#000"/>
<text x="26.000000000000004" y="354.92515492775925" text-anchor="end" font-weight="bold" font-size="small" fill="#111">
1.0
</text>
<line x1="42.0" y1="283.3877323916389" x2="50.0" y2="283.3877323916389" stroke="#000"/>
<text x="26.000000000000004" y="283.3877323916389" text-anchor="end" font-weight="bold" font-size="small" fill="#111">
1.5
</text>
<line x1="42.0" y1="211.8503098555185" x2="50.0" y2="211.8503098555185" stroke="#000"/>
<text x="26.000000000000004" y="211.8503098555185" text-anchor="end" font-weight="bold" font-size="small" fill="#111">
2.0
</text>
<line x1="42.0" y1="140.31288731939816" x2="50.0" y2="140.31288731939816" stroke="#000"/>
<text x="26.000000000000004" y="140.31288731939816" text-anchor="end" font-weight="bold" font-size="small" fill="#111">
2.5
</text>
<rect x="268.5" y="36.00000000000001" width="80.0" height="18.0" fill="#7070f8" stroke="#888"/>
<text x="308.5" y="52.50000000000001" font-size="small" text-anchor="middle" font-weight="bold" fill="#EEE">
No JIT
</text>
<rect x="691.4999999999999" y="36.00000000000001" width="80.0" height="18.0" fill="orange" stroke="#888"/>
<text x="731.4999999999999" y="52.50000000000001" font-size="small" text-anchor="middle" font-weight="bold" fill="#EEE">
YJIT
</text>
<rect x="97.0" y="354.92515492775925" width="28.2" height="143.07484507224072" fill="#7070f8" data-tooltip="1.00x baseline speed (No JIT)"/>
<line x1="97.0" y1="354.85864030503905" x2="125.2" y2="354.85864030503905" stroke="#000"/>
<line x1="97.0" y1="354.99166955047946" x2="125.2" y2="354.99166955047946" stroke="#000"/>
<line x1="111.10000000000001" y1="354.85864030503905" x2="111.10000000000001" y2="354.99166955047946" stroke="#000"/>
<rect x="125.2" y="206.99113619644953" width="28.2" height="291.0088638035504" fill="orange" data-tooltip="2.03x baseline speed (YJIT)"/>
<line x1="125.2" y1="206.67354406294763" x2="153.4" y2="206.67354406294763" stroke="#000"/>
<line x1="125.2" y1="207.30872832995146" x2="153.4" y2="207.30872832995146" stroke="#000"/>
<line x1="139.3" y1="206.67354406294763" x2="139.3" y2="207.30872832995146" stroke="#000"/>
<line x1="139.3" y1="498.0" x2="139.3" y2="502.79999999999995" stroke="#000"/>
<text x="139.3" y="512.4" fill="#111" font-size="small" font-family="monospace" font-weight="bold" text-anchor="end" transform="rotate(-60, 139.3, 512.4)">
binarytrees
</text>
<rect x="181.6" y="354.92515492775925" width="28.2" height="143.07484507224072" fill="#7070f8" data-tooltip="1.00x baseline speed (No JIT)"/>
<line x1="181.6" y1="354.80330447446613" x2="209.79999999999998" y2="354.80330447446613" stroke="#000"/>
<line x1="181.6" y1="355.0470053810524" x2="209.79999999999998" y2="355.0470053810524" stroke="#000"/>
<line x1="195.7" y1="354.80330447446613" x2="195.7" y2="355.0470053810524" stroke="#000"/>
<rect x="209.79999999999998" y="267.07699322081146" width="28.2" height="230.9230067791885" fill="orange" data-tooltip="1.61x baseline speed (YJIT)"/>
<line x1="209.79999999999998" y1="266.8421375260311" x2="238.0" y2="266.8421375260311" stroke="#000"/>
<line x1="209.79999999999998" y1="267.3118489155918" x2="238.0" y2="267.3118489155918" stroke="#000"/>
<line x1="223.89999999999998" y1="266.8421375260311" x2="223.89999999999998" y2="267.3118489155918" stroke="#000"/>
<line x1="223.89999999999998" y1="498.0" x2="223.89999999999998" y2="502.79999999999995" stroke="#000"/>
<text x="223.89999999999998" y="512.4" fill="#111" font-size="small" font-family="monospace" font-weight="bold" text-anchor="end" transform="rotate(-60, 223.89999999999998, 512.4)">
chunky_png
</text>
<rect x="266.2" y="354.92515492775925" width="28.2" height="143.07484507224072" fill="#7070f8" data-tooltip="1.00x baseline speed (No JIT)"/>
<line x1="266.2" y1="353.97145519995047" x2="294.4" y2="353.97145519995047" stroke="#000"/>
<line x1="266.2" y1="355.8788546555681" x2="294.4" y2="355.8788546555681" stroke="#000"/>
<line x1="280.3" y1="353.97145519995047" x2="280.3" y2="355.8788546555681" stroke="#000"/>
<rect x="294.4" y="325.29208474252874" width="28.2" height="172.7079152574712" fill="orange" data-tooltip="1.21x baseline speed (YJIT)"/>
<line x1="294.4" y1="323.3004741713928" x2="322.6" y2="323.3004741713928" stroke="#000"/>
<line x1="294.4" y1="327.28369531366474" x2="322.6" y2="327.28369531366474" stroke="#000"/>
<line x1="308.5" y1="323.3004741713928" x2="308.5" y2="327.28369531366474" stroke="#000"/>
<line x1="308.5" y1="498.0" x2="308.5" y2="502.79999999999995" stroke="#000"/>
<text x="308.5" y="512.4" fill="#111" font-size="small" font-family="monospace" font-weight="bold" text-anchor="end" transform="rotate(-60, 308.5, 512.4)">
erubi
</text>
<rect x="350.8" y="354.92515492775925" width="28.2" height="143.07484507224072" fill="#7070f8" data-tooltip="1.00x baseline speed (No JIT)"/>
<line x1="350.8" y1="354.2779187571313" x2="379.0" y2="354.2779187571313" stroke="#000"/>
<line x1="350.8" y1="355.57239109838724" x2="379.0" y2="355.57239109838724" stroke="#000"/>
<line x1="364.9" y1="354.2779187571313" x2="364.9" y2="355.57239109838724" stroke="#000"/>
<rect x="379.0" y="354.7003128822133" width="28.2" height="143.2996871177866" fill="orange" data-tooltip="1.00x baseline speed (YJIT)"/>
<line x1="379.0" y1="353.7646247033949" x2="407.2" y2="353.7646247033949" stroke="#000"/>
<line x1="379.0" y1="355.6360010610318" x2="407.2" y2="355.6360010610318" stroke="#000"/>
<line x1="393.1" y1="353.7646247033949" x2="393.1" y2="355.6360010610318" stroke="#000"/>
<line x1="393.1" y1="498.0" x2="393.1" y2="502.79999999999995" stroke="#000"/>
<text x="393.1" y="512.4" fill="#111" font-size="small" font-family="monospace" font-weight="bold" text-anchor="end" transform="rotate(-60, 393.1, 512.4)">
etanni
</text>
<rect x="435.40000000000003" y="354.92515492775925" width="28.2" height="143.07484507224072" fill="#7070f8" data-tooltip="1.00x baseline speed (No JIT)"/>
<line x1="435.40000000000003" y1="354.10985103756224" x2="463.6" y2="354.10985103756224" stroke="#000"/>
<line x1="435.40000000000003" y1="355.74045881795627" x2="463.6" y2="355.74045881795627" stroke="#000"/>
<line x1="449.5" y1="354.10985103756224" x2="449.5" y2="355.74045881795627" stroke="#000"/>
<rect x="463.6" y="100.19999999999999" width="28.2" height="397.79999999999995" fill="orange" data-tooltip="2.78x baseline speed (YJIT)"/>
<line x1="463.6" y1="97.92680021998034" x2="491.8" y2="97.92680021998034" stroke="#000"/>
<line x1="463.6" y1="102.47319978001964" x2="491.8" y2="102.47319978001964" stroke="#000"/>
<line x1="477.7" y1="97.92680021998034" x2="477.7" y2="102.47319978001964" stroke="#000"/>
<line x1="477.7" y1="498.0" x2="477.7" y2="502.79999999999995" stroke="#000"/>
<text x="477.7" y="512.4" fill="#111" font-size="small" font-family="monospace" font-weight="bold" text-anchor="end" transform="rotate(-60, 477.7, 512.4)">
fannkuchredux
</text>
<rect x="520.0" y="354.92515492775925" width="28.2" height="143.07484507224072" fill="#7070f8" data-tooltip="1.00x baseline speed (No JIT)"/>
<line x1="520.0" y1="354.55227887051706" x2="548.2" y2="354.55227887051706" stroke="#000"/>
<line x1="520.0" y1="355.29803098500145" x2="548.2" y2="355.29803098500145" stroke="#000"/>
<line x1="534.1" y1="354.55227887051706" x2="534.1" y2="355.29803098500145" stroke="#000"/>
<rect x="548.2" y="297.2262887755028" width="28.2" height="200.77371122449716" fill="orange" data-tooltip="1.40x baseline speed (YJIT)"/>
<line x1="548.2" y1="296.35891663418283" x2="576.4" y2="296.35891663418283" stroke="#000"/>
<line x1="548.2" y1="298.0936609168228" x2="576.4" y2="298.0936609168228" stroke="#000"/>
<line x1="562.3000000000001" y1="296.35891663418283" x2="562.3000000000001" y2="298.0936609168228" stroke="#000"/>
<line x1="562.3000000000001" y1="498.0" x2="562.3000000000001" y2="502.79999999999995" stroke="#000"/>
<text x="562.3000000000001" y="512.4" fill="#111" font-size="small" font-family="monospace" font-weight="bold" text-anchor="end" transform="rotate(-60, 562.3000000000001, 512.4)">
lee
</text>
<rect x="604.5999999999999" y="354.92515492775925" width="28.2" height="143.07484507224072" fill="#7070f8" data-tooltip="1.00x baseline speed (No JIT)"/>
<line x1="604.5999999999999" y1="354.7847049383148" x2="632.8" y2="354.7847049383148" stroke="#000"/>
<line x1="604.5999999999999" y1="355.06560491720376" x2="632.8" y2="355.06560491720376" stroke="#000"/>
<line x1="618.6999999999999" y1="354.7847049383148" x2="618.6999999999999" y2="355.06560491720376" stroke="#000"/>
<rect x="632.8" y="221.0020379062672" width="28.2" height="276.9979620937328" fill="orange" data-tooltip="1.94x baseline speed (YJIT)"/>
<line x1="632.8" y1="220.61604583526082" x2="660.9999999999999" y2="220.61604583526082" stroke="#000"/>
<line x1="632.8" y1="221.38802997727356" x2="660.9999999999999" y2="221.38802997727356" stroke="#000"/>
<line x1="646.8999999999999" y1="220.61604583526082" x2="646.8999999999999" y2="221.38802997727356" stroke="#000"/>
<line x1="646.8999999999999" y1="498.0" x2="646.8999999999999" y2="502.79999999999995" stroke="#000"/>
<text x="646.8999999999999" y="512.4" fill="#111" font-size="small" font-family="monospace" font-weight="bold" text-anchor="end" transform="rotate(-60, 646.8999999999999, 512.4)">
nbody
</text>
<rect x="689.1999999999999" y="354.92515492775925" width="28.2" height="143.07484507224072" fill="#7070f8" data-tooltip="1.00x baseline speed (No JIT)"/>
<line x1="689.1999999999999" y1="354.00532049833333" x2="717.4" y2="354.00532049833333" stroke="#000"/>
<line x1="689.1999999999999" y1="355.84498935718517" x2="717.4" y2="355.84498935718517" stroke="#000"/>
<line x1="703.3" y1="354.00532049833333" x2="703.3" y2="355.84498935718517" stroke="#000"/>
<rect x="717.4" y="115.90656582250014" width="28.2" height="382.0934341774998" fill="orange" data-tooltip="2.67x baseline speed (YJIT)"/>
<line x1="717.4" y1="112.4552695318717" x2="745.5999999999999" y2="112.4552695318717" stroke="#000"/>
<line x1="717.4" y1="119.35786211312856" x2="745.5999999999999" y2="119.35786211312856" stroke="#000"/>
<line x1="731.4999999999999" y1="112.4552695318717" x2="731.4999999999999" y2="119.35786211312856" stroke="#000"/>
<line x1="731.4999999999999" y1="498.0" x2="731.4999999999999" y2="502.79999999999995" stroke="#000"/>
<text x="731.4999999999999" y="512.4" fill="#111" font-size="small" font-family="monospace" font-weight="bold" text-anchor="end" transform="rotate(-60, 731.4999999999999, 512.4)">
optcarrot
</text>
<rect x="773.8" y="354.92515492775925" width="28.2" height="143.07484507224072" fill="#7070f8" data-tooltip="1.00x baseline speed (No JIT)"/>
<line x1="773.8" y1="354.64828702219194" x2="801.9999999999999" y2="354.64828702219194" stroke="#000"/>
<line x1="773.8" y1="355.2020228333266" x2="801.9999999999999" y2="355.2020228333266" stroke="#000"/>
<line x1="787.9" y1="354.64828702219194" x2="787.9" y2="355.2020228333266" stroke="#000"/>
<rect x="801.9999999999999" y="330.240908524248" width="28.2" height="167.7590914757519" fill="orange" data-tooltip="1.17x baseline speed (YJIT)"/>
<line x1="801.9999999999999" y1="329.82276787619134" x2="830.1999999999999" y2="329.82276787619134" stroke="#000"/>
<line x1="801.9999999999999" y1="330.6590491723047" x2="830.1999999999999" y2="330.6590491723047" stroke="#000"/>
<line x1="816.0999999999999" y1="329.82276787619134" x2="816.0999999999999" y2="330.6590491723047" stroke="#000"/>
<line x1="816.0999999999999" y1="498.0" x2="816.0999999999999" y2="502.79999999999995" stroke="#000"/>
<text x="816.0999999999999" y="512.4" fill="#111" font-size="small" font-family="monospace" font-weight="bold" text-anchor="end" transform="rotate(-60, 816.0999999999999, 512.4)">
ruby-json
</text>
<rect x="858.4" y="354.92515492775925" width="28.2" height="143.07484507224072" fill="#7070f8" data-tooltip="1.00x baseline speed (No JIT)"/>
<line x1="858.4" y1="354.1892797233624" x2="886.5999999999999" y2="354.1892797233624" stroke="#000"/>
<line x1="858.4" y1="355.6610301321561" x2="886.5999999999999" y2="355.6610301321561" stroke="#000"/>
<line x1="872.4999999999999" y1="354.1892797233624" x2="872.4999999999999" y2="355.6610301321561" stroke="#000"/>
<rect x="886.5999999999999" y="222.2991141332508" width="28.2" height="275.70088586674916" fill="orange" data-tooltip="1.93x baseline speed (YJIT)"/>
<line x1="886.5999999999999" y1="220.52092733896535" x2="914.8" y2="220.52092733896535" stroke="#000"/>
<line x1="886.5999999999999" y1="224.07730092753627" x2="914.8" y2="224.07730092753627" stroke="#000"/>
<line x1="900.6999999999999" y1="220.52092733896535" x2="900.6999999999999" y2="224.07730092753627" stroke="#000"/>
<line x1="900.6999999999999" y1="498.0" x2="900.6999999999999" y2="502.79999999999995" stroke="#000"/>
<text x="900.6999999999999" y="512.4" fill="#111" font-size="small" font-family="monospace" font-weight="bold" text-anchor="end" transform="rotate(-60, 900.6999999999999, 512.4)">
rubykon
</text>
</svg>