<svg viewBox="0 0 1000 600" xmlns="http://www.w3.org/2000/svg" xmlns:xlink="http://www.w3.org/1999/xlink" width="100%" height="100%">

<rect x="50.0" y="30.0" width="940.0" height="467.99999999999994" stroke="#000" fill="#EEE"/>
<line x1="42.0" y1="497.9999999999999" x2="50.0" y2="497.9999999999999" stroke="#000"/>
<text x="26.000000000000004" y="497.9999999999999" text-anchor="end" font-weight="bold" font-size="small" fill="#111">
0.0
</text>
<line x1="42.0" y1="446.70082737369887" x2="50.0" y2="446.70082737369887" stroke="#000"/>
<text x="26.000000000000004" y="446.70082737369887" text-anchor="end" font-weight="bold" font-size="small" fill="#111">
0.2
</text>
<line x1="42.0" y1="395.4016547473978" x2="50.0" y2="395.4016547473978" stroke="#000"/>
<text x="26.000000000000004" y="395.4016547473978" text-anchor="end" font-weight="bold" font-size="small" fill="#111">
0.4
</text>
<line x1="42.0" y1="344.1024821210967" x2="50.0" y2="344.1024821210967" stroke="#000"/>
<text x="26.000000000000004" y="344.1024821210967" text-anchor="end" font-weight="bold" font-size="small" fill="#111">
0.6
</text>
<line x1="42.0" y1="292.80330949479566" x2="50.0" y2="292.80330949479566" stroke="#000"/>
<text x="26.000000000000004" y="292.80330949479566" text-anchor="end" font-weight="bold" font-size="small" fill="#111">
0.8
</text>
<line x1="42.0" y1="241.5041368684946" x2="50.0" y2="241.5041368684946" stroke="#000"/>
<text x="26.000000000000004" y="241.5041368684946" text-anchor="end" font-weight="bold" font-size="small" fill="#111">
1.0
</text>
<line x1="42.0" y1="190.2049642421935" x2="50.0" y2="190.2049642421935" stroke="#000"/>
<text x="26.000000000000004" y="190.2049642421935" text-anchor="end" font-weight="bold" font-size="small" fill="#111">
1.2
</text>
<line x1="42.0" y1="138.9057916158925" x2="50.0" y2="138.9057916158925" stroke="#000"/>
<text x="26.000000000000004" y="138.9057916158925" text-anchor="end" font-weight="bold" font-size="small" fill="#111">
1.4
</text>
<rect x="197.99999999999997" y="36.00000000000001" width="80.0" height="18.0" fill="#7070f8" stroke="#888"/>
<text x="238.0" y="52.50000000000001" font-size="small" text-anchor="middle" font-weight="bold" fill="#EEE">
No JIT
</text>
<rect x="479.99999999999994" y="36.00000000000001" width="80.0" height="18.0" fill="orange" stroke="#888"/>
<text x="519.9999999999999" y="52.50000000000001" font-size="small" text-anchor="middle" font-weight="bold" fill="#EEE">
MJIT3.0
</text>
<rect x="761.9999999999999" y="36.00000000000001" width="80.0" height="18.0" fill="green" stroke="#888"/>
<text x="801.9999999999999" y="52.50000000000001" font-size="small" text-anchor="middle" font-weight="bold" fill="#EEE">
YJIT
</text>
<rect x="97.0" y="241.5041368684946" width="30.214285714285715" height="256.49586313150536" fill="#7070f8" data-tooltip="1.00x baseline speed (No JIT)"/>
<line x1="97.0" y1="238.03179290853927" x2="127.21428571428572" y2="238.03179290853927" stroke="#000"/>
<line x1="97.0" y1="244.97648082844995" x2="127.21428571428572" y2="244.97648082844995" stroke="#000"/>
<line x1="112.10714285714286" y1="238.03179290853927" x2="112.10714285714286" y2="244.97648082844995" stroke="#000"/>
<rect x="127.21428571428572" y="257.38784298976645" width="30.214285714285715" height="240.61215701023352" fill="orange" data-tooltip="0.94x baseline speed (MJIT3.0)"/>
<line x1="127.21428571428572" y1="253.5217287861506" x2="157.42857142857144" y2="253.5217287861506" stroke="#000"/>
<line x1="127.21428571428572" y1="261.2539571933823" x2="157.42857142857144" y2="261.2539571933823" stroke="#000"/>
<line x1="142.32142857142858" y1="253.5217287861506" x2="142.32142857142858" y2="261.2539571933823" stroke="#000"/>
<rect x="157.42857142857142" y="135.52435321026076" width="30.214285714285715" height="362.4756467897392" fill="green" data-tooltip="1.41x baseline speed (YJIT)"/>
<line x1="157.42857142857142" y1="129.73307355608813" x2="187.64285714285714" y2="129.73307355608813" stroke="#000"/>
<line x1="157.42857142857142" y1="141.31563286443335" x2="187.64285714285714" y2="141.31563286443335" stroke="#000"/>
<line x1="172.53571428571428" y1="129.73307355608813" x2="172.53571428571428" y2="141.31563286443335" stroke="#000"/>
<line x1="157.42857142857142" y1="498.0" x2="157.42857142857142" y2="502.79999999999995" stroke="#000"/>
<text x="157.42857142857142" y="512.4" fill="#111" font-size="small" font-family="monospace" font-weight="bold" text-anchor="end" transform="rotate(-60, 157.42857142857142, 512.4)">
activerecord
</text>
<rect x="217.85714285714286" y="241.5041368684946" width="30.214285714285715" height="256.49586313150536" fill="#7070f8" data-tooltip="1.00x baseline speed (No JIT)"/>
<line x1="217.85714285714286" y1="239.21334884074292" x2="248.07142857142858" y2="239.21334884074292" stroke="#000"/>
<line x1="217.85714285714286" y1="243.7949248962463" x2="248.07142857142858" y2="243.7949248962463" stroke="#000"/>
<line x1="232.9642857142857" y1="239.21334884074292" x2="232.9642857142857" y2="243.7949248962463" stroke="#000"/>
<rect x="248.07142857142858" y="237.89280767475904" width="30.214285714285715" height="260.10719232524093" fill="orange" data-tooltip="1.01x baseline speed (MJIT3.0)"/>
<line x1="248.07142857142858" y1="231.6771649819647" x2="278.2857142857143" y2="231.6771649819647" stroke="#000"/>
<line x1="248.07142857142858" y1="244.10845036755336" x2="278.2857142857143" y2="244.10845036755336" stroke="#000"/>
<line x1="263.17857142857144" y1="231.6771649819647" x2="263.17857142857144" y2="244.10845036755336" stroke="#000"/>
<rect x="278.2857142857143" y="162.01643660905128" width="30.214285714285715" height="335.98356339094863" fill="green" data-tooltip="1.31x baseline speed (YJIT)"/>
<line x1="278.2857142857143" y1="157.13184598484327" x2="308.5" y2="157.13184598484327" stroke="#000"/>
<line x1="278.2857142857143" y1="166.90102723325933" x2="308.5" y2="166.90102723325933" stroke="#000"/>
<line x1="293.39285714285717" y1="157.13184598484327" x2="293.39285714285717" y2="166.90102723325933" stroke="#000"/>
<line x1="278.2857142857143" y1="498.0" x2="278.2857142857143" y2="502.79999999999995" stroke="#000"/>
<text x="278.2857142857143" y="512.4" fill="#111" font-size="small" font-family="monospace" font-weight="bold" text-anchor="end" transform="rotate(-60, 278.2857142857143, 512.4)">
hexapdf
</text>
<rect x="338.7142857142857" y="241.5041368684946" width="30.214285714285715" height="256.49586313150536" fill="#7070f8" data-tooltip="1.00x baseline speed (No JIT)"/>
<line x1="338.7142857142857" y1="237.27098088581766" x2="368.92857142857144" y2="237.27098088581766" stroke="#000"/>
<line x1="338.7142857142857" y1="245.73729285117156" x2="368.92857142857144" y2="245.73729285117156" stroke="#000"/>
<line x1="353.8214285714286" y1="237.27098088581766" x2="353.8214285714286" y2="245.73729285117156" stroke="#000"/>
<rect x="368.92857142857144" y="238.28425118383223" width="30.214285714285715" height="259.7157488161678" fill="orange" data-tooltip="1.01x baseline speed (MJIT3.0)"/>
<line x1="368.92857142857144" y1="231.86160255707478" x2="399.1428571428571" y2="231.86160255707478" stroke="#000"/>
<line x1="368.92857142857144" y1="244.70689981058968" x2="399.1428571428571" y2="244.70689981058968" stroke="#000"/>
<line x1="384.03571428571433" y1="231.86160255707478" x2="384.03571428571433" y2="244.70689981058968" stroke="#000"/>
<rect x="399.14285714285717" y="208.47410414568466" width="30.214285714285715" height="289.5258958543153" fill="green" data-tooltip="1.13x baseline speed (YJIT)"/>
<line x1="399.14285714285717" y1="200.41649161649167" x2="429.3571428571429" y2="200.41649161649167" stroke="#000"/>
<line x1="399.14285714285717" y1="216.53171667487766" x2="429.3571428571429" y2="216.53171667487766" stroke="#000"/>
<line x1="414.25000000000006" y1="200.41649161649167" x2="414.25000000000006" y2="216.53171667487766" stroke="#000"/>
<line x1="399.14285714285717" y1="498.0" x2="399.14285714285717" y2="502.79999999999995" stroke="#000"/>
<text x="399.14285714285717" y="512.4" fill="#111" font-size="small" font-family="monospace" font-weight="bold" text-anchor="end" transform="rotate(-60, 399.14285714285717, 512.4)">
jekyll
</text>
<rect x="459.5714285714285" y="241.5041368684946" width="30.214285714285715" height="256.49586313150536" fill="#7070f8" data-tooltip="1.00x baseline speed (No JIT)"/>
<line x1="459.5714285714285" y1="235.3510181951957" x2="489.7857142857142" y2="235.3510181951957" stroke="#000"/>
<line x1="459.5714285714285" y1="247.65725554179352" x2="489.7857142857142" y2="247.65725554179352" stroke="#000"/>
<line x1="474.6785714285714" y1="235.3510181951957" x2="474.6785714285714" y2="247.65725554179352" stroke="#000"/>
<rect x="489.7857142857142" y="216.0340157462093" width="30.214285714285715" height="281.9659842537907" fill="orange" data-tooltip="1.10x baseline speed (MJIT3.0)"/>
<line x1="489.7857142857142" y1="207.70094711590068" x2="519.9999999999999" y2="207.70094711590068" stroke="#000"/>
<line x1="489.7857142857142" y1="224.36708437651788" x2="519.9999999999999" y2="224.36708437651788" stroke="#000"/>
<line x1="504.89285714285705" y1="207.70094711590068" x2="504.89285714285705" y2="224.36708437651788" stroke="#000"/>
<rect x="519.9999999999999" y="100.19999999999999" width="30.214285714285715" height="397.79999999999995" fill="green" data-tooltip="1.55x baseline speed (YJIT)"/>
<line x1="519.9999999999999" y1="87.42856254385842" x2="550.2142857142857" y2="87.42856254385842" stroke="#000"/>
<line x1="519.9999999999999" y1="112.97143745614157" x2="550.2142857142857" y2="112.97143745614157" stroke="#000"/>
<line x1="535.1071428571428" y1="87.42856254385842" x2="535.1071428571428" y2="112.97143745614157" stroke="#000"/>
<line x1="519.9999999999999" y1="498.0" x2="519.9999999999999" y2="502.79999999999995" stroke="#000"/>
<text x="519.9999999999999" y="512.4" fill="#111" font-size="small" font-family="monospace" font-weight="bold" text-anchor="end" transform="rotate(-60, 519.9999999999999, 512.4)">
liquid-render
</text>
<rect x="580.4285714285714" y="241.5041368684946" width="30.214285714285715" height="256.49586313150536" fill="#7070f8" data-tooltip="1.00x baseline speed (No JIT)"/>
<line x1="580.4285714285714" y1="239.84544796628253" x2="610.6428571428571" y2="239.84544796628253" stroke="#000"/>
<line x1="580.4285714285714" y1="243.1628257707067" x2="610.6428571428571" y2="243.1628257707067" stroke="#000"/>
<line x1="595.5357142857143" y1="239.84544796628253" x2="595.5357142857143" y2="243.1628257707067" stroke="#000"/>
<rect x="610.6428571428571" y="231.19466153880495" width="30.214285714285715" height="266.805338461195" fill="orange" data-tooltip="1.04x baseline speed (MJIT3.0)"/>
<line x1="610.6428571428571" y1="228.94281766611803" x2="640.8571428571429" y2="228.94281766611803" stroke="#000"/>
<line x1="610.6428571428571" y1="233.44650541149187" x2="640.8571428571429" y2="233.44650541149187" stroke="#000"/>
<line x1="625.75" y1="228.94281766611803" x2="625.75" y2="233.44650541149187" stroke="#000"/>
<rect x="640.8571428571428" y="213.00602136280696" width="30.214285714285715" height="284.993978637193" fill="green" data-tooltip="1.11x baseline speed (YJIT)"/>
<line x1="640.8571428571428" y1="210.64805931841096" x2="671.0714285714286" y2="210.64805931841096" stroke="#000"/>
<line x1="640.8571428571428" y1="215.36398340720297" x2="671.0714285714286" y2="215.36398340720297" stroke="#000"/>
<line x1="655.9642857142857" y1="210.64805931841096" x2="655.9642857142857" y2="215.36398340720297" stroke="#000"/>
<line x1="640.8571428571428" y1="498.0" x2="640.8571428571428" y2="502.79999999999995" stroke="#000"/>
<text x="640.8571428571428" y="512.4" fill="#111" font-size="small" font-family="monospace" font-weight="bold" text-anchor="end" transform="rotate(-60, 640.8571428571428, 512.4)">
mail
</text>
<rect x="701.2857142857143" y="241.5041368684946" width="30.214285714285715" height="256.49586313150536" fill="#7070f8" data-tooltip="1.00x baseline speed (No JIT)"/>
<line x1="701.2857142857143" y1="241.1795529089593" x2="731.5" y2="241.1795529089593" stroke="#000"/>
<line x1="701.2857142857143" y1="241.82872082802993" x2="731.5" y2="241.82872082802993" stroke="#000"/>
<line x1="716.3928571428571" y1="241.1795529089593" x2="716.3928571428571" y2="241.82872082802993" stroke="#000"/>
<rect x="731.5" y="216.7176691603415" width="30.214285714285715" height="281.28233083965847" fill="orange" data-tooltip="1.10x baseline speed (MJIT3.0)"/>
<line x1="731.5" y1="209.9635534145747" x2="761.7142857142858" y2="209.9635534145747" stroke="#000"/>
<line x1="731.5" y1="223.4717849061083" x2="761.7142857142858" y2="223.4717849061083" stroke="#000"/>
<line x1="746.6071428571429" y1="209.9635534145747" x2="746.6071428571429" y2="223.4717849061083" stroke="#000"/>
<rect x="761.7142857142857" y="167.20954291102257" width="30.214285714285715" height="330.79045708897735" fill="green" data-tooltip="1.29x baseline speed (YJIT)"/>
<line x1="761.7142857142857" y1="166.59461327195402" x2="791.9285714285714" y2="166.59461327195402" stroke="#000"/>
<line x1="761.7142857142857" y1="167.82447255009112" x2="791.9285714285714" y2="167.82447255009112" stroke="#000"/>
<line x1="776.8214285714286" y1="166.59461327195402" x2="776.8214285714286" y2="167.82447255009112" stroke="#000"/>
<line x1="761.7142857142857" y1="498.0" x2="761.7142857142857" y2="502.79999999999995" stroke="#000"/>
<text x="761.7142857142857" y="512.4" fill="#111" font-size="small" font-family="monospace" font-weight="bold" text-anchor="end" transform="rotate(-60, 761.7142857142857, 512.4)">
psych-load
</text>
<rect x="822.1428571428571" y="241.5041368684946" width="30.214285714285715" height="256.49586313150536" fill="#7070f8" data-tooltip="1.00x baseline speed (No JIT)"/>
<line x1="822.1428571428571" y1="238.7590251188613" x2="852.3571428571428" y2="238.7590251188613" stroke="#000"/>
<line x1="822.1428571428571" y1="244.24924861812792" x2="852.3571428571428" y2="244.24924861812792" stroke="#000"/>
<line x1="837.2499999999999" y1="238.7590251188613" x2="837.2499999999999" y2="244.24924861812792" stroke="#000"/>
<rect x="852.3571428571428" y="249.17249035869128" width="30.214285714285715" height="248.82750964130872" fill="orange" data-tooltip="0.97x baseline speed (MJIT3.0)"/>
<line x1="852.3571428571428" y1="243.72452485902994" x2="882.5714285714286" y2="243.72452485902994" stroke="#000"/>
<line x1="852.3571428571428" y1="254.6204558583526" x2="882.5714285714286" y2="254.6204558583526" stroke="#000"/>
<line x1="867.4642857142857" y1="243.72452485902994" x2="867.4642857142857" y2="254.6204558583526" stroke="#000"/>
<rect x="882.5714285714284" y="178.54159330667272" width="30.214285714285715" height="319.4584066933273" fill="green" data-tooltip="1.25x baseline speed (YJIT)"/>
<line x1="882.5714285714284" y1="170.46695251956584" x2="912.7857142857142" y2="170.46695251956584" stroke="#000"/>
<line x1="882.5714285714284" y1="186.6162340937796" x2="912.7857142857142" y2="186.6162340937796" stroke="#000"/>
<line x1="897.6785714285713" y1="170.46695251956584" x2="897.6785714285713" y2="186.6162340937796" stroke="#000"/>
<line x1="882.5714285714284" y1="498.0" x2="882.5714285714284" y2="502.79999999999995" stroke="#000"/>
<text x="882.5714285714284" y="512.4" fill="#111" font-size="small" font-family="monospace" font-weight="bold" text-anchor="end" transform="rotate(-60, 882.5714285714284, 512.4)">
railsbench
</text>
</svg>