<svg viewBox="0 0 1000 600" xmlns="http://www.w3.org/2000/svg" xmlns:xlink="http://www.w3.org/1999/xlink" width="100%" height="100%">

<rect x="50.0" y="30.0" width="940.0" height="467.99999999999994" stroke="#000" fill="#EEE"/>
<line x1="42.0" y1="497.9999999999999" x2="50.0" y2="497.9999999999999" stroke="#000"/>
<text x="26.000000000000004" y="497.9999999999999" text-anchor="end" font-weight="bold" font-size="small" fill="#EEE">
0.0
</text>
<line x1="42.0" y1="405.40416280772547" x2="50.0" y2="405.40416280772547" stroke="#000"/>
<text x="26.000000000000004" y="405.40416280772547" text-anchor="end" font-weight="bold" font-size="small" fill="#EEE">
2.0
</text>
<line x1="42.0" y1="312.8083256154508" x2="50.0" y2="312.8083256154508" stroke="#000"/>
<text x="26.000000000000004" y="312.8083256154508" text-anchor="end" font-weight="bold" font-size="small" fill="#EEE">
4.0
</text>
<line x1="42.0" y1="220.21248842317632" x2="50.0" y2="220.21248842317632" stroke="#000"/>
<text x="26.000000000000004" y="220.21248842317632" text-anchor="end" font-weight="bold" font-size="small" fill="#EEE">
6.0
</text>
<line x1="42.0" y1="127.61665123090178" x2="50.0" y2="127.61665123090178" stroke="#000"/>
<text x="26.000000000000004" y="127.61665123090178" text-anchor="end" font-weight="bold" font-size="small" fill="#EEE">
8.0
</text>
<rect x="162.74999999999997" y="36.00000000000001" width="80.0" height="18.0" fill="#7070f8" stroke="#888"/>
<text x="202.75" y="52.50000000000001" font-size="small" text-anchor="middle" font-weight="bold" fill="#111">
No JIT
</text>
<rect x="374.25" y="36.00000000000001" width="80.0" height="18.0" fill="orange" stroke="#888"/>
<text x="414.25" y="52.50000000000001" font-size="small" text-anchor="middle" font-weight="bold" fill="#111">
MJIT3.0
</text>
<rect x="585.7499999999999" y="36.00000000000001" width="80.0" height="18.0" fill="green" stroke="#888"/>
<text x="625.7499999999999" y="52.50000000000001" font-size="small" text-anchor="middle" font-weight="bold" fill="#111">
MJIT3.1
</text>
<rect x="797.2499999999999" y="36.00000000000001" width="80.0" height="18.0" fill="#4F3A7A" stroke="#888"/>
<text x="837.2499999999999" y="52.50000000000001" font-size="small" text-anchor="middle" font-weight="bold" fill="#111">
YJIT
</text>
<rect x="97.0" y="451.7020814038627" width="7.356521739130435" height="46.297918596137265" fill="#7070f8" data-tooltip="1.00x baseline speed (No JIT)"/>
<line x1="97.0" y1="451.3755471884186" x2="104.35652173913043" y2="451.3755471884186" stroke="#000"/>
<line x1="97.0" y1="452.0286156193068" x2="104.35652173913043" y2="452.0286156193068" stroke="#000"/>
<line x1="100.67826086956522" y1="451.3755471884186" x2="100.67826086956522" y2="452.0286156193068" stroke="#000"/>
<rect x="104.35652173913043" y="455.2739126358662" width="7.356521739130435" height="42.72608736413367" fill="orange" data-tooltip="0.92x baseline speed (MJIT3.0)"/>
<line x1="104.35652173913043" y1="454.8736410056647" x2="111.71304347826086" y2="454.8736410056647" stroke="#000"/>
<line x1="104.35652173913043" y1="455.6741842660678" x2="111.71304347826086" y2="455.6741842660678" stroke="#000"/>
<line x1="108.03478260869565" y1="454.8736410056647" x2="108.03478260869565" y2="455.6741842660678" stroke="#000"/>
<rect x="111.71304347826087" y="456.54114511035357" width="7.356521739130435" height="41.45885488964633" fill="green" data-tooltip="0.90x baseline speed (MJIT3.1)"/>
<line x1="111.71304347826087" y1="456.14517212739844" x2="119.06956521739131" y2="456.14517212739844" stroke="#000"/>
<line x1="111.71304347826087" y1="456.9371180933087" x2="119.06956521739131" y2="456.9371180933087" stroke="#000"/>
<line x1="115.3913043478261" y1="456.14517212739844" x2="115.3913043478261" y2="456.9371180933087" stroke="#000"/>
<rect x="119.06956521739131" y="435.90263735559654" width="7.356521739130435" height="62.09736264440344" fill="#4F3A7A" data-tooltip="1.34x baseline speed (YJIT)"/>
<line x1="119.06956521739131" y1="434.66938561362684" x2="126.42608695652174" y2="434.66938561362684" stroke="#000"/>
<line x1="119.06956521739131" y1="437.13588909756623" x2="126.42608695652174" y2="437.13588909756623" stroke="#000"/>
<line x1="122.74782608695654" y1="434.66938561362684" x2="122.74782608695654" y2="437.13588909756623" stroke="#000"/>
<line x1="115.3913043478261" y1="498.0" x2="115.3913043478261" y2="502.79999999999995" stroke="#000"/>
<text x="115.3913043478261" y="512.4" fill="#111" font-size="small" font-family="monospace" font-weight="bold" text-anchor="end" transform="rotate(-60, 115.3913043478261, 512.4)">
activerecord
</text>
<rect x="133.7826086956522" y="451.7020814038627" width="7.356521739130435" height="46.297918596137265" fill="#7070f8" data-tooltip="1.00x baseline speed (No JIT)"/>
<line x1="133.7826086956522" y1="451.37699496596565" x2="141.1391304347826" y2="451.37699496596565" stroke="#000"/>
<line x1="133.7826086956522" y1="452.0271678417597" x2="141.1391304347826" y2="452.0271678417597" stroke="#000"/>
<line x1="137.4608695652174" y1="451.37699496596565" x2="137.4608695652174" y2="452.0271678417597" stroke="#000"/>
<rect x="141.1391304347826" y="447.4188941990697" width="7.356521739130435" height="50.581105800930224" fill="orange" data-tooltip="1.09x baseline speed (MJIT3.0)"/>
<line x1="141.1391304347826" y1="446.6095414352023" x2="148.49565217391302" y2="446.6095414352023" stroke="#000"/>
<line x1="141.1391304347826" y1="448.22824696293713" x2="148.49565217391302" y2="448.22824696293713" stroke="#000"/>
<line x1="144.8173913043478" y1="446.6095414352023" x2="144.8173913043478" y2="448.22824696293713" stroke="#000"/>
<rect x="155.8521739130435" y="438.4748148110965" width="7.356521739130435" height="59.52518518890347" fill="#4F3A7A" data-tooltip="1.29x baseline speed (YJIT)"/>
<line x1="155.8521739130435" y1="437.6173073133699" x2="163.2086956521739" y2="437.6173073133699" stroke="#000"/>
<line x1="155.8521739130435" y1="439.3323223088231" x2="163.2086956521739" y2="439.3323223088231" stroke="#000"/>
<line x1="159.5304347826087" y1="437.6173073133699" x2="159.5304347826087" y2="439.3323223088231" stroke="#000"/>
<line x1="152.17391304347828" y1="498.0" x2="152.17391304347828" y2="502.79999999999995" stroke="#000"/>
<text x="152.17391304347828" y="512.4" fill="#111" font-size="small" font-family="monospace" font-weight="bold" text-anchor="end" transform="rotate(-60, 152.17391304347828, 512.4)">
hexapdf
</text>
<rect x="170.56521739130437" y="451.7020814038627" width="7.356521739130435" height="46.297918596137265" fill="#7070f8" data-tooltip="1.00x baseline speed (No JIT)"/>
<line x1="170.56521739130437" y1="451.12675497145466" x2="177.9217391304348" y2="451.12675497145466" stroke="#000"/>
<line x1="170.56521739130437" y1="452.2774078362707" x2="177.9217391304348" y2="452.2774078362707" stroke="#000"/>
<line x1="174.24347826086958" y1="451.12675497145466" x2="174.24347826086958" y2="452.2774078362707" stroke="#000"/>
<rect x="177.9217391304348" y="449.956167791637" width="7.356521739130435" height="48.04383220836306" fill="orange" data-tooltip="1.04x baseline speed (MJIT3.0)"/>
<line x1="177.9217391304348" y1="448.5633605681216" x2="185.27826086956523" y2="448.5633605681216" stroke="#000"/>
<line x1="177.9217391304348" y1="451.34897501515235" x2="185.27826086956523" y2="451.34897501515235" stroke="#000"/>
<line x1="181.60000000000002" y1="448.5633605681216" x2="181.60000000000002" y2="451.34897501515235" stroke="#000"/>
<rect x="185.27826086956523" y="451.83502694939966" width="7.356521739130435" height="46.16497305060032" fill="green" data-tooltip="1.00x baseline speed (MJIT3.1)"/>
<line x1="185.27826086956523" y1="449.9459783862111" x2="192.63478260869564" y2="449.9459783862111" stroke="#000"/>
<line x1="185.27826086956523" y1="453.7240755125883" x2="192.63478260869564" y2="453.7240755125883" stroke="#000"/>
<line x1="188.95652173913044" y1="449.9459783862111" x2="188.95652173913044" y2="453.7240755125883" stroke="#000"/>
<rect x="192.63478260869567" y="446.1361493847488" width="7.356521739130435" height="51.86385061525112" fill="#4F3A7A" data-tooltip="1.12x baseline speed (YJIT)"/>
<line x1="192.63478260869567" y1="444.3850424363646" x2="199.99130434782612" y2="444.3850424363646" stroke="#000"/>
<line x1="192.63478260869567" y1="447.88725633313305" x2="199.99130434782612" y2="447.88725633313305" stroke="#000"/>
<line x1="196.3130434782609" y1="444.3850424363646" x2="196.3130434782609" y2="447.88725633313305" stroke="#000"/>
<line x1="188.95652173913047" y1="498.0" x2="188.95652173913047" y2="502.79999999999995" stroke="#000"/>
<text x="188.95652173913047" y="512.4" fill="#111" font-size="small" font-family="monospace" font-weight="bold" text-anchor="end" transform="rotate(-60, 188.95652173913047, 512.4)">
jekyll
</text>
<rect x="207.34782608695653" y="451.7020814038627" width="7.356521739130435" height="46.297918596137265" fill="#7070f8" data-tooltip="1.00x baseline speed (No JIT)"/>
<line x1="207.34782608695653" y1="451.1185632504064" x2="214.70434782608697" y2="451.1185632504064" stroke="#000"/>
<line x1="207.34782608695653" y1="452.28559955731896" x2="214.70434782608697" y2="452.28559955731896" stroke="#000"/>
<line x1="211.02608695652177" y1="451.1185632504064" x2="211.02608695652177" y2="452.28559955731896" stroke="#000"/>
<rect x="214.70434782608697" y="450.9769889912961" width="7.356521739130435" height="47.02301100870387" fill="orange" data-tooltip="1.02x baseline speed (MJIT3.0)"/>
<line x1="214.70434782608697" y1="449.8556521340138" x2="222.0608695652174" y2="449.8556521340138" stroke="#000"/>
<line x1="214.70434782608697" y1="452.0983258485783" x2="222.0608695652174" y2="452.0983258485783" stroke="#000"/>
<line x1="218.38260869565218" y1="449.8556521340138" x2="218.38260869565218" y2="452.0983258485783" stroke="#000"/>
<rect x="222.06086956521742" y="451.634322386667" width="7.356521739130435" height="46.365677613332856" fill="green" data-tooltip="1.00x baseline speed (MJIT3.1)"/>
<line x1="222.06086956521742" y1="450.6584630626478" x2="229.41739130434786" y2="450.6584630626478" stroke="#000"/>
<line x1="222.06086956521742" y1="452.6101817106862" x2="229.41739130434786" y2="452.6101817106862" stroke="#000"/>
<line x1="225.73913043478262" y1="450.6584630626478" x2="225.73913043478262" y2="452.6101817106862" stroke="#000"/>
<rect x="229.41739130434786" y="430.3164920074257" width="7.356521739130435" height="67.6835079925742" fill="#4F3A7A" data-tooltip="1.46x baseline speed (YJIT)"/>
<line x1="229.41739130434786" y1="428.3481931477664" x2="236.77391304347827" y2="428.3481931477664" stroke="#000"/>
<line x1="229.41739130434786" y1="432.2847908670851" x2="236.77391304347827" y2="432.2847908670851" stroke="#000"/>
<line x1="233.09565217391307" y1="428.3481931477664" x2="233.09565217391307" y2="432.2847908670851" stroke="#000"/>
<line x1="225.73913043478262" y1="498.0" x2="225.73913043478262" y2="502.79999999999995" stroke="#000"/>
<text x="225.73913043478262" y="512.4" fill="#111" font-size="small" font-family="monospace" font-weight="bold" text-anchor="end" transform="rotate(-60, 225.73913043478262, 512.4)">
liquid-render
</text>
<rect x="244.13043478260872" y="451.7020814038627" width="7.356521739130435" height="46.297918596137265" fill="#7070f8" data-tooltip="1.00x baseline speed (No JIT)"/>
<line x1="244.13043478260872" y1="451.13581073444357" x2="251.48695652173913" y2="451.13581073444357" stroke="#000"/>
<line x1="244.13043478260872" y1="452.2683520732818" x2="251.48695652173913" y2="452.2683520732818" stroke="#000"/>
<line x1="247.80869565217392" y1="451.13581073444357" x2="247.80869565217392" y2="452.2683520732818" stroke="#000"/>
<rect x="251.48695652173913" y="447.8625244460836" width="7.356521739130435" height="50.13747555391636" fill="orange" data-tooltip="1.08x baseline speed (MJIT3.0)"/>
<line x1="251.48695652173913" y1="447.21030949181784" x2="258.8434782608696" y2="447.21030949181784" stroke="#000"/>
<line x1="251.48695652173913" y1="448.5147394003494" x2="258.8434782608696" y2="448.5147394003494" stroke="#000"/>
<line x1="255.16521739130437" y1="447.21030949181784" x2="255.16521739130437" y2="448.5147394003494" stroke="#000"/>
<rect x="258.8434782608696" y="452.0002324500185" width="7.356521739130435" height="45.99976754998142" fill="green" data-tooltip="0.99x baseline speed (MJIT3.1)"/>
<line x1="258.8434782608696" y1="451.41382377954653" x2="266.2" y2="451.41382377954653" stroke="#000"/>
<line x1="258.8434782608696" y1="452.58664112049047" x2="266.2" y2="452.58664112049047" stroke="#000"/>
<line x1="262.5217391304348" y1="451.41382377954653" x2="262.5217391304348" y2="452.58664112049047" stroke="#000"/>
<rect x="266.2" y="449.0112283075688" width="7.356521739130435" height="48.988771692431236" fill="#4F3A7A" data-tooltip="1.06x baseline speed (YJIT)"/>
<line x1="266.2" y1="448.1233862561716" x2="273.5565217391304" y2="448.1233862561716" stroke="#000"/>
<line x1="266.2" y1="449.8990703589659" x2="273.5565217391304" y2="449.8990703589659" stroke="#000"/>
<line x1="269.8782608695652" y1="448.1233862561716" x2="269.8782608695652" y2="449.8990703589659" stroke="#000"/>
<line x1="262.5217391304348" y1="498.0" x2="262.5217391304348" y2="502.79999999999995" stroke="#000"/>
<text x="262.5217391304348" y="512.4" fill="#111" font-size="small" font-family="monospace" font-weight="bold" text-anchor="end" transform="rotate(-60, 262.5217391304348, 512.4)">
mail
</text>
<rect x="280.9130434782609" y="451.7020814038627" width="7.356521739130435" height="46.297918596137265" fill="#7070f8" data-tooltip="1.00x baseline speed (No JIT)"/>
<line x1="280.9130434782609" y1="451.471753781349" x2="288.2695652173913" y2="451.471753781349" stroke="#000"/>
<line x1="280.9130434782609" y1="451.9324090263764" x2="288.2695652173913" y2="451.9324090263764" stroke="#000"/>
<line x1="284.5913043478261" y1="451.471753781349" x2="284.5913043478261" y2="451.9324090263764" stroke="#000"/>
<rect x="288.2695652173913" y="447.62569197110327" width="7.356521739130435" height="50.37430802889675" fill="orange" data-tooltip="1.09x baseline speed (MJIT3.0)"/>
<line x1="288.2695652173913" y1="447.11109776637966" x2="295.6260869565217" y2="447.11109776637966" stroke="#000"/>
<line x1="288.2695652173913" y1="448.1402861758268" x2="295.6260869565217" y2="448.1402861758268" stroke="#000"/>
<line x1="291.9478260869565" y1="447.11109776637966" x2="291.9478260869565" y2="448.1402861758268" stroke="#000"/>
<rect x="295.6260869565217" y="448.8866958591106" width="7.356521739130435" height="49.11330414088933" fill="green" data-tooltip="1.06x baseline speed (MJIT3.1)"/>
<line x1="295.6260869565217" y1="448.09924083919924" x2="302.9826086956521" y2="448.09924083919924" stroke="#000"/>
<line x1="295.6260869565217" y1="449.674150879022" x2="302.9826086956521" y2="449.674150879022" stroke="#000"/>
<line x1="299.30434782608694" y1="448.09924083919924" x2="299.30434782608694" y2="449.674150879022" stroke="#000"/>
<rect x="302.9826086956521" y="439.05123481233124" width="7.356521739130435" height="58.94876518766869" fill="#4F3A7A" data-tooltip="1.27x baseline speed (YJIT)"/>
<line x1="302.9826086956521" y1="438.66320693146" x2="310.3391304347826" y2="438.66320693146" stroke="#000"/>
<line x1="302.9826086956521" y1="439.43926269320247" x2="310.3391304347826" y2="439.43926269320247" stroke="#000"/>
<line x1="306.66086956521735" y1="438.66320693146" x2="306.66086956521735" y2="439.43926269320247" stroke="#000"/>
<line x1="299.30434782608694" y1="498.0" x2="299.30434782608694" y2="502.79999999999995" stroke="#000"/>
<text x="299.30434782608694" y="512.4" fill="#111" font-size="small" font-family="monospace" font-weight="bold" text-anchor="end" transform="rotate(-60, 299.30434782608694, 512.4)">
psych-load
</text>
<rect x="317.69565217391306" y="451.7020814038627" width="7.356521739130435" height="46.297918596137265" fill="#7070f8" data-tooltip="1.00x baseline speed (No JIT)"/>
<line x1="317.69565217391306" y1="451.1803465309621" x2="325.0521739130435" y2="451.1803465309621" stroke="#000"/>
<line x1="317.69565217391306" y1="452.2238162767633" x2="325.0521739130435" y2="452.2238162767633" stroke="#000"/>
<line x1="321.3739130434783" y1="451.1803465309621" x2="321.3739130434783" y2="452.2238162767633" stroke="#000"/>
<rect x="325.0521739130435" y="451.97400051226225" width="7.356521739130435" height="46.025999487737785" fill="orange" data-tooltip="0.99x baseline speed (MJIT3.0)"/>
<line x1="325.0521739130435" y1="451.2685077516487" x2="332.4086956521739" y2="451.2685077516487" stroke="#000"/>
<line x1="325.0521739130435" y1="452.6794932728758" x2="332.4086956521739" y2="452.6794932728758" stroke="#000"/>
<line x1="328.7304347826087" y1="451.2685077516487" x2="328.7304347826087" y2="452.6794932728758" stroke="#000"/>
<rect x="332.4086956521739" y="457.08611846124114" width="7.356521739130435" height="40.913881538758844" fill="green" data-tooltip="0.88x baseline speed (MJIT3.1)"/>
<line x1="332.4086956521739" y1="456.5108566812473" x2="339.7652173913043" y2="456.5108566812473" stroke="#000"/>
<line x1="332.4086956521739" y1="457.661380241235" x2="339.7652173913043" y2="457.661380241235" stroke="#000"/>
<line x1="336.0869565217391" y1="456.5108566812473" x2="336.0869565217391" y2="457.661380241235" stroke="#000"/>
<rect x="339.7652173913043" y="444.45528607132627" width="7.356521739130435" height="53.544713928673666" fill="#4F3A7A" data-tooltip="1.16x baseline speed (YJIT)"/>
<line x1="339.7652173913043" y1="443.4507950081881" x2="347.1217391304348" y2="443.4507950081881" stroke="#000"/>
<line x1="339.7652173913043" y1="445.4597771344645" x2="347.1217391304348" y2="445.4597771344645" stroke="#000"/>
<line x1="343.4434782608696" y1="443.4507950081881" x2="343.4434782608696" y2="445.4597771344645" stroke="#000"/>
<line x1="336.0869565217391" y1="498.0" x2="336.0869565217391" y2="502.79999999999995" stroke="#000"/>
<text x="336.0869565217391" y="512.4" fill="#111" font-size="small" font-family="monospace" font-weight="bold" text-anchor="end" transform="rotate(-60, 336.0869565217391, 512.4)">
railsbench
</text>
<rect x="354.47826086956525" y="451.7020814038627" width="7.356521739130435" height="46.297918596137265" fill="#7070f8" data-tooltip="1.00x baseline speed (No JIT)"/>
<line x1="354.47826086956525" y1="450.74838953301264" x2="361.83478260869566" y2="450.74838953301264" stroke="#000"/>
<line x1="354.47826086956525" y1="452.6557732747127" x2="361.83478260869566" y2="452.6557732747127" stroke="#000"/>
<line x1="358.1565217391305" y1="450.74838953301264" x2="358.1565217391305" y2="452.6557732747127" stroke="#000"/>
<rect x="361.83478260869566" y="425.27359342086936" width="7.356521739130435" height="72.72640657913053" fill="orange" data-tooltip="1.57x baseline speed (MJIT3.0)"/>
<line x1="361.83478260869566" y1="423.75079309454577" x2="369.1913043478261" y2="423.75079309454577" stroke="#000"/>
<line x1="361.83478260869566" y1="426.796393747193" x2="369.1913043478261" y2="426.796393747193" stroke="#000"/>
<line x1="365.5130434782609" y1="423.75079309454577" x2="365.5130434782609" y2="426.796393747193" stroke="#000"/>
<rect x="369.1913043478261" y="427.6370207249321" width="7.356521739130435" height="70.36297927506781" fill="green" data-tooltip="1.52x baseline speed (MJIT3.1)"/>
<line x1="369.1913043478261" y1="426.1334904150556" x2="376.54782608695655" y2="426.1334904150556" stroke="#000"/>
<line x1="369.1913043478261" y1="429.1405510348086" x2="376.54782608695655" y2="429.1405510348086" stroke="#000"/>
<line x1="372.86956521739137" y1="426.1334904150556" x2="372.86956521739137" y2="429.1405510348086" stroke="#000"/>
<rect x="376.54782608695655" y="438.61021648049126" width="7.356521739130435" height="59.3897835195087" fill="#4F3A7A" data-tooltip="1.28x baseline speed (YJIT)"/>
<line x1="376.54782608695655" y1="436.6298654761932" x2="383.90434782608696" y2="436.6298654761932" stroke="#000"/>
<line x1="376.54782608695655" y1="440.59056748478935" x2="383.90434782608696" y2="440.59056748478935" stroke="#000"/>
<line x1="380.2260869565218" y1="436.6298654761932" x2="380.2260869565218" y2="440.59056748478935" stroke="#000"/>
<line x1="372.86956521739137" y1="498.0" x2="372.86956521739137" y2="502.79999999999995" stroke="#000"/>
<text x="372.86956521739137" y="512.4" fill="#111" font-size="small" font-family="monospace" font-weight="bold" text-anchor="end" transform="rotate(-60, 372.86956521739137, 512.4)">
binarytrees
</text>
<rect x="391.26086956521743" y="451.7020814038627" width="7.356521739130435" height="46.297918596137265" fill="#7070f8" data-tooltip="1.00x baseline speed (No JIT)"/>
<line x1="391.26086956521743" y1="451.21018890088345" x2="398.61739130434785" y2="451.21018890088345" stroke="#000"/>
<line x1="391.26086956521743" y1="452.1939739068419" x2="398.61739130434785" y2="452.1939739068419" stroke="#000"/>
<line x1="394.93913043478267" y1="451.21018890088345" x2="394.93913043478267" y2="452.1939739068419" stroke="#000"/>
<rect x="398.61739130434785" y="454.82736729712354" width="7.356521739130435" height="43.172632702876356" fill="orange" data-tooltip="0.93x baseline speed (MJIT3.0)"/>
<line x1="398.61739130434785" y1="454.215457721269" x2="405.9739130434783" y2="454.215457721269" stroke="#000"/>
<line x1="398.61739130434785" y1="455.43927687297816" x2="405.9739130434783" y2="455.43927687297816" stroke="#000"/>
<line x1="402.2956521739131" y1="454.215457721269" x2="402.2956521739131" y2="455.43927687297816" stroke="#000"/>
<rect x="405.9739130434783" y="449.209474535553" width="7.356521739130435" height="48.790525464446965" fill="green" data-tooltip="1.05x baseline speed (MJIT3.1)"/>
<line x1="405.9739130434783" y1="448.51276160597035" x2="413.33043478260873" y2="448.51276160597035" stroke="#000"/>
<line x1="405.9739130434783" y1="449.90618746513564" x2="413.33043478260873" y2="449.90618746513564" stroke="#000"/>
<line x1="409.65217391304355" y1="448.51276160597035" x2="409.65217391304355" y2="449.90618746513564" stroke="#000"/>
<rect x="413.33043478260873" y="451.8545368481236" width="7.356521739130435" height="46.14546315187645" fill="#4F3A7A" data-tooltip="1.00x baseline speed (YJIT)"/>
<line x1="413.33043478260873" y1="451.19784351368185" x2="420.68695652173915" y2="451.19784351368185" stroke="#000"/>
<line x1="413.33043478260873" y1="452.5112301825653" x2="420.68695652173915" y2="452.5112301825653" stroke="#000"/>
<line x1="417.00869565217397" y1="451.19784351368185" x2="417.00869565217397" y2="452.5112301825653" stroke="#000"/>
<line x1="409.65217391304355" y1="498.0" x2="409.65217391304355" y2="502.79999999999995" stroke="#000"/>
<text x="409.65217391304355" y="512.4" fill="#111" font-size="small" font-family="monospace" font-weight="bold" text-anchor="end" transform="rotate(-60, 409.65217391304355, 512.4)">
erubi
</text>
<rect x="428.0434782608696" y="451.7020814038627" width="7.356521739130435" height="46.297918596137265" fill="#7070f8" data-tooltip="1.00x baseline speed (No JIT)"/>
<line x1="428.0434782608696" y1="450.5321420351574" x2="435.4000000000001" y2="450.5321420351574" stroke="#000"/>
<line x1="428.0434782608696" y1="452.87202077256796" x2="435.4000000000001" y2="452.87202077256796" stroke="#000"/>
<line x1="431.72173913043486" y1="450.5321420351574" x2="431.72173913043486" y2="452.87202077256796" stroke="#000"/>
<rect x="435.4000000000001" y="457.0568294683644" width="7.356521739130435" height="40.94317053163559" fill="orange" data-tooltip="0.88x baseline speed (MJIT3.0)"/>
<line x1="435.4000000000001" y1="455.15702542719407" x2="442.7565217391305" y2="455.15702542719407" stroke="#000"/>
<line x1="435.4000000000001" y1="458.9566335095347" x2="442.7565217391305" y2="458.9566335095347" stroke="#000"/>
<line x1="439.0782608695653" y1="455.15702542719407" x2="439.0782608695653" y2="458.9566335095347" stroke="#000"/>
<rect x="442.7565217391305" y="450.5447386643593" width="7.356521739130435" height="47.45526133564075" fill="green" data-tooltip="1.02x baseline speed (MJIT3.1)"/>
<line x1="442.7565217391305" y1="448.5160310328614" x2="450.1130434782609" y2="448.5160310328614" stroke="#000"/>
<line x1="442.7565217391305" y1="452.5734462958571" x2="450.1130434782609" y2="452.5734462958571" stroke="#000"/>
<line x1="446.43478260869574" y1="448.5160310328614" x2="446.43478260869574" y2="452.5734462958571" stroke="#000"/>
<rect x="450.1130434782609" y="439.7599410745305" width="7.356521739130435" height="58.24005892546942" fill="#4F3A7A" data-tooltip="1.26x baseline speed (YJIT)"/>
<line x1="450.1130434782609" y1="436.5511453043472" x2="457.46956521739133" y2="436.5511453043472" stroke="#000"/>
<line x1="450.1130434782609" y1="442.9687368447138" x2="457.46956521739133" y2="442.9687368447138" stroke="#000"/>
<line x1="453.79130434782616" y1="436.5511453043472" x2="453.79130434782616" y2="442.9687368447138" stroke="#000"/>
<line x1="446.43478260869574" y1="498.0" x2="446.43478260869574" y2="502.79999999999995" stroke="#000"/>
<text x="446.43478260869574" y="512.4" fill="#111" font-size="small" font-family="monospace" font-weight="bold" text-anchor="end" transform="rotate(-60, 446.43478260869574, 512.4)">
erubi_rails
</text>
<rect x="464.82608695652175" y="451.7020814038627" width="7.356521739130435" height="46.297918596137265" fill="#7070f8" data-tooltip="1.00x baseline speed (No JIT)"/>
<line x1="464.82608695652175" y1="451.68822972813325" x2="472.18260869565216" y2="451.68822972813325" stroke="#000"/>
<line x1="464.82608695652175" y1="451.7159330795921" x2="472.18260869565216" y2="451.7159330795921" stroke="#000"/>
<line x1="468.504347826087" y1="451.68822972813325" x2="468.504347826087" y2="451.7159330795921" stroke="#000"/>
<rect x="472.18260869565216" y="434.3140449057392" width="7.356521739130435" height="63.68595509426069" fill="orange" data-tooltip="1.38x baseline speed (MJIT3.0)"/>
<line x1="472.18260869565216" y1="434.08385255477907" x2="479.5391304347826" y2="434.08385255477907" stroke="#000"/>
<line x1="472.18260869565216" y1="434.5442372566994" x2="479.5391304347826" y2="434.5442372566994" stroke="#000"/>
<line x1="475.8608695652174" y1="434.08385255477907" x2="475.8608695652174" y2="434.5442372566994" stroke="#000"/>
<rect x="479.5391304347826" y="451.81870138605353" width="7.356521739130435" height="46.18129861394637" fill="green" data-tooltip="1.00x baseline speed (MJIT3.1)"/>
<line x1="479.5391304347826" y1="451.7972101743588" x2="486.895652173913" y2="451.7972101743588" stroke="#000"/>
<line x1="479.5391304347826" y1="451.84019259774834" x2="486.895652173913" y2="451.84019259774834" stroke="#000"/>
<line x1="483.2173913043478" y1="451.7972101743588" x2="483.2173913043478" y2="451.84019259774834" stroke="#000"/>
<rect x="486.895652173913" y="452.31800369382404" width="7.356521739130435" height="45.681996306175925" fill="#4F3A7A" data-tooltip="0.99x baseline speed (YJIT)"/>
<line x1="486.895652173913" y1="452.2832745094783" x2="494.2521739130434" y2="452.2832745094783" stroke="#000"/>
<line x1="486.895652173913" y1="452.3527328781698" x2="494.2521739130434" y2="452.3527328781698" stroke="#000"/>
<line x1="490.5739130434782" y1="452.2832745094783" x2="490.5739130434782" y2="452.3527328781698" stroke="#000"/>
<line x1="483.2173913043478" y1="498.0" x2="483.2173913043478" y2="502.79999999999995" stroke="#000"/>
<text x="483.2173913043478" y="512.4" fill="#111" font-size="small" font-family="monospace" font-weight="bold" text-anchor="end" transform="rotate(-60, 483.2173913043478, 512.4)">
fannkuchredux
</text>
<rect x="501.60869565217394" y="451.7020814038627" width="7.356521739130435" height="46.297918596137265" fill="#7070f8" data-tooltip="1.00x baseline speed (No JIT)"/>
<line x1="501.60869565217394" y1="451.61027508970915" x2="508.9652173913044" y2="451.61027508970915" stroke="#000"/>
<line x1="501.60869565217394" y1="451.7938877180162" x2="508.9652173913044" y2="451.7938877180162" stroke="#000"/>
<line x1="505.28695652173917" y1="451.61027508970915" x2="505.28695652173917" y2="451.7938877180162" stroke="#000"/>
<rect x="508.9652173913044" y="445.9102487708209" width="7.356521739130435" height="52.08975122917913" fill="orange" data-tooltip="1.13x baseline speed (MJIT3.0)"/>
<line x1="508.9652173913044" y1="445.4255393222664" x2="516.3217391304349" y2="445.4255393222664" stroke="#000"/>
<line x1="508.9652173913044" y1="446.3949582193753" x2="516.3217391304349" y2="446.3949582193753" stroke="#000"/>
<line x1="512.6434782608696" y1="445.4255393222664" x2="512.6434782608696" y2="446.3949582193753" stroke="#000"/>
<rect x="516.3217391304348" y="441.42121563935706" width="7.356521739130435" height="56.57878436064291" fill="green" data-tooltip="1.22x baseline speed (MJIT3.1)"/>
<line x1="516.3217391304348" y1="441.2980122576341" x2="523.6782608695653" y2="441.2980122576341" stroke="#000"/>
<line x1="516.3217391304348" y1="441.54441902108" x2="523.6782608695653" y2="441.54441902108" stroke="#000"/>
<line x1="520.0" y1="441.2980122576341" x2="520.0" y2="441.54441902108" stroke="#000"/>
<rect x="523.6782608695653" y="444.74846647303895" width="7.356521739130435" height="53.25153352696101" fill="#4F3A7A" data-tooltip="1.15x baseline speed (YJIT)"/>
<line x1="523.6782608695653" y1="444.1163606183175" x2="531.0347826086958" y2="444.1163606183175" stroke="#000"/>
<line x1="523.6782608695653" y1="445.38057232776043" x2="531.0347826086958" y2="445.38057232776043" stroke="#000"/>
<line x1="527.3565217391305" y1="444.1163606183175" x2="527.3565217391305" y2="445.38057232776043" stroke="#000"/>
<line x1="520.0" y1="498.0" x2="520.0" y2="502.79999999999995" stroke="#000"/>
<text x="520.0" y="512.4" fill="#111" font-size="small" font-family="monospace" font-weight="bold" text-anchor="end" transform="rotate(-60, 520.0, 512.4)">
lee
</text>
<rect x="538.3913043478261" y="451.7020814038627" width="7.356521739130435" height="46.297918596137265" fill="#7070f8" data-tooltip="1.00x baseline speed (No JIT)"/>
<line x1="538.3913043478261" y1="451.67549166604533" x2="545.7478260869566" y2="451.67549166604533" stroke="#000"/>
<line x1="538.3913043478261" y1="451.72867114168" x2="545.7478260869566" y2="451.72867114168" stroke="#000"/>
<line x1="542.0695652173914" y1="451.67549166604533" x2="542.0695652173914" y2="451.72867114168" stroke="#000"/>
<rect x="545.7478260869566" y="416.36201094875736" width="7.356521739130435" height="81.63798905124264" fill="orange" data-tooltip="1.76x baseline speed (MJIT3.0)"/>
<line x1="545.7478260869566" y1="414.65492835634706" x2="553.1043478260871" y2="414.65492835634706" stroke="#000"/>
<line x1="545.7478260869566" y1="418.06909354116766" x2="553.1043478260871" y2="418.06909354116766" stroke="#000"/>
<line x1="549.4260869565219" y1="414.65492835634706" x2="549.4260869565219" y2="418.06909354116766" stroke="#000"/>
<rect x="553.104347826087" y="414.5651913056539" width="7.356521739130435" height="83.43480869434605" fill="green" data-tooltip="1.80x baseline speed (MJIT3.1)"/>
<line x1="553.104347826087" y1="414.50706185639336" x2="560.4608695652174" y2="414.50706185639336" stroke="#000"/>
<line x1="553.104347826087" y1="414.62332075491446" x2="560.4608695652174" y2="414.62332075491446" stroke="#000"/>
<line x1="556.7826086956522" y1="414.50706185639336" x2="556.7826086956522" y2="414.62332075491446" stroke="#000"/>
<rect x="560.4608695652174" y="433.0106618951481" width="7.356521739130435" height="64.98933810485187" fill="#4F3A7A" data-tooltip="1.40x baseline speed (YJIT)"/>
<line x1="560.4608695652174" y1="432.807518926109" x2="567.8173913043479" y2="432.807518926109" stroke="#000"/>
<line x1="560.4608695652174" y1="433.2138048641872" x2="567.8173913043479" y2="433.2138048641872" stroke="#000"/>
<line x1="564.1391304347827" y1="432.807518926109" x2="564.1391304347827" y2="433.2138048641872" stroke="#000"/>
<line x1="556.7826086956522" y1="498.0" x2="556.7826086956522" y2="502.79999999999995" stroke="#000"/>
<text x="556.7826086956522" y="512.4" fill="#111" font-size="small" font-family="monospace" font-weight="bold" text-anchor="end" transform="rotate(-60, 556.7826086956522, 512.4)">
nbody
</text>
<rect x="575.1739130434784" y="451.7020814038627" width="7.356521739130435" height="46.297918596137265" fill="#7070f8" data-tooltip="1.00x baseline speed (No JIT)"/>
<line x1="575.1739130434784" y1="451.461040898016" x2="582.5304347826088" y2="451.461040898016" stroke="#000"/>
<line x1="575.1739130434784" y1="451.94312190970936" x2="582.5304347826088" y2="451.94312190970936" stroke="#000"/>
<line x1="578.8521739130435" y1="451.461040898016" x2="578.8521739130435" y2="451.94312190970936" stroke="#000"/>
<rect x="582.5304347826088" y="381.2564000230971" width="7.356521739130435" height="116.74359997690284" fill="orange" data-tooltip="2.52x baseline speed (MJIT3.0)"/>
<line x1="582.5304347826088" y1="380.2428560196616" x2="589.8869565217393" y2="380.2428560196616" stroke="#000"/>
<line x1="582.5304347826088" y1="382.2699440265327" x2="589.8869565217393" y2="382.2699440265327" stroke="#000"/>
<line x1="586.208695652174" y1="380.2428560196616" x2="586.208695652174" y2="382.2699440265327" stroke="#000"/>
<rect x="589.8869565217392" y="380.32891372715153" width="7.356521739130435" height="117.67108627284836" fill="green" data-tooltip="2.54x baseline speed (MJIT3.1)"/>
<line x1="589.8869565217392" y1="379.14096988773355" x2="597.2434782608697" y2="379.14096988773355" stroke="#000"/>
<line x1="589.8869565217392" y1="381.51685756656957" x2="597.2434782608697" y2="381.51685756656957" stroke="#000"/>
<line x1="593.5652173913044" y1="379.14096988773355" x2="593.5652173913044" y2="381.51685756656957" stroke="#000"/>
<rect x="597.2434782608697" y="414.443640910049" width="7.356521739130435" height="83.556359089951" fill="#4F3A7A" data-tooltip="1.80x baseline speed (YJIT)"/>
<line x1="597.2434782608697" y1="413.75753472473605" x2="604.6000000000001" y2="413.75753472473605" stroke="#000"/>
<line x1="597.2434782608697" y1="415.1297470953619" x2="604.6000000000001" y2="415.1297470953619" stroke="#000"/>
<line x1="600.9217391304348" y1="413.75753472473605" x2="600.9217391304348" y2="415.1297470953619" stroke="#000"/>
<line x1="593.5652173913044" y1="498.0" x2="593.5652173913044" y2="502.79999999999995" stroke="#000"/>
<text x="593.5652173913044" y="512.4" fill="#111" font-size="small" font-family="monospace" font-weight="bold" text-anchor="end" transform="rotate(-60, 593.5652173913044, 512.4)">
optcarrot
</text>
<rect x="611.9565217391304" y="451.7020814038627" width="7.356521739130435" height="46.297918596137265" fill="#7070f8" data-tooltip="1.00x baseline speed (No JIT)"/>
<line x1="611.9565217391304" y1="451.3724374849637" x2="619.3130434782609" y2="451.3724374849637" stroke="#000"/>
<line x1="611.9565217391304" y1="452.03172532276164" x2="619.3130434782609" y2="452.03172532276164" stroke="#000"/>
<line x1="615.6347826086957" y1="451.3724374849637" x2="615.6347826086957" y2="452.03172532276164" stroke="#000"/>
<rect x="619.3130434782609" y="424.3189645906391" width="7.356521739130435" height="73.68103540936076" fill="orange" data-tooltip="1.59x baseline speed (MJIT3.0)"/>
<line x1="619.3130434782609" y1="423.6508673069359" x2="626.6695652173913" y2="423.6508673069359" stroke="#000"/>
<line x1="619.3130434782609" y1="424.9870618743423" x2="626.6695652173913" y2="424.9870618743423" stroke="#000"/>
<line x1="622.9913043478261" y1="423.6508673069359" x2="622.9913043478261" y2="424.9870618743423" stroke="#000"/>
<rect x="626.6695652173912" y="426.94961233013464" width="7.356521739130435" height="71.05038766986526" fill="green" data-tooltip="1.53x baseline speed (MJIT3.1)"/>
<line x1="626.6695652173912" y1="426.32304130942833" x2="634.0260869565218" y2="426.32304130942833" stroke="#000"/>
<line x1="626.6695652173912" y1="427.576183350841" x2="634.0260869565218" y2="427.576183350841" stroke="#000"/>
<line x1="630.3478260869565" y1="426.32304130942833" x2="630.3478260869565" y2="427.576183350841" stroke="#000"/>
<rect x="634.0260869565218" y="412.67554016280724" width="7.356521739130435" height="85.32445983719269" fill="#4F3A7A" data-tooltip="1.84x baseline speed (YJIT)"/>
<line x1="634.0260869565218" y1="411.9820681706733" x2="641.3826086956523" y2="411.9820681706733" stroke="#000"/>
<line x1="634.0260869565218" y1="413.3690121549412" x2="641.3826086956523" y2="413.3690121549412" stroke="#000"/>
<line x1="637.704347826087" y1="411.9820681706733" x2="637.704347826087" y2="413.3690121549412" stroke="#000"/>
<line x1="630.3478260869565" y1="498.0" x2="630.3478260869565" y2="502.79999999999995" stroke="#000"/>
<text x="630.3478260869565" y="512.4" fill="#111" font-size="small" font-family="monospace" font-weight="bold" text-anchor="end" transform="rotate(-60, 630.3478260869565, 512.4)">
rubykon
</text>
<rect x="648.7391304347826" y="451.7020814038627" width="7.356521739130435" height="46.297918596137265" fill="#7070f8" data-tooltip="1.00x baseline speed (No JIT)"/>
<line x1="648.7391304347826" y1="449.9738825336008" x2="656.0956521739131" y2="449.9738825336008" stroke="#000"/>
<line x1="648.7391304347826" y1="453.4302802741246" x2="656.0956521739131" y2="453.4302802741246" stroke="#000"/>
<line x1="652.4173913043478" y1="449.9738825336008" x2="652.4173913043478" y2="453.4302802741246" stroke="#000"/>
<rect x="656.0956521739131" y="448.63746143172324" width="7.356521739130435" height="49.362538568276754" fill="orange" data-tooltip="1.07x baseline speed (MJIT3.0)"/>
<line x1="656.0956521739131" y1="446.79102965037697" x2="663.4521739130436" y2="446.79102965037697" stroke="#000"/>
<line x1="656.0956521739131" y1="450.48389321306945" x2="663.4521739130436" y2="450.48389321306945" stroke="#000"/>
<line x1="659.7739130434783" y1="446.79102965037697" x2="659.7739130434783" y2="450.48389321306945" stroke="#000"/>
<rect x="663.4521739130435" y="472.6923089072877" width="7.356521739130435" height="25.307691092712194" fill="green" data-tooltip="0.55x baseline speed (MJIT3.1)"/>
<line x1="663.4521739130435" y1="471.05972379670953" x2="670.8086956521739" y2="471.05972379670953" stroke="#000"/>
<line x1="663.4521739130435" y1="474.324894017866" x2="670.8086956521739" y2="474.324894017866" stroke="#000"/>
<line x1="667.1304347826087" y1="471.05972379670953" x2="667.1304347826087" y2="474.324894017866" stroke="#000"/>
<rect x="670.8086956521739" y="152.89956884221198" width="7.356521739130435" height="345.10043115778797" fill="#4F3A7A" data-tooltip="7.45x baseline speed (YJIT)"/>
<line x1="670.8086956521739" y1="140.00216945452152" x2="678.1652173913044" y2="140.00216945452152" stroke="#000"/>
<line x1="670.8086956521739" y1="165.79696822990243" x2="678.1652173913044" y2="165.79696822990243" stroke="#000"/>
<line x1="674.4869565217392" y1="140.00216945452152" x2="674.4869565217392" y2="165.79696822990243" stroke="#000"/>
<line x1="667.1304347826087" y1="498.0" x2="667.1304347826087" y2="502.79999999999995" stroke="#000"/>
<text x="667.1304347826087" y="512.4" fill="#111" font-size="small" font-family="monospace" font-weight="bold" text-anchor="end" transform="rotate(-60, 667.1304347826087, 512.4)">
30k_ifelse
</text>
<rect x="685.5217391304348" y="451.7020814038627" width="7.356521739130435" height="46.297918596137265" fill="#7070f8" data-tooltip="1.00x baseline speed (No JIT)"/>
<line x1="685.5217391304348" y1="451.686433681016" x2="692.8782608695652" y2="451.686433681016" stroke="#000"/>
<line x1="685.5217391304348" y1="451.71772912670934" x2="692.8782608695652" y2="451.71772912670934" stroke="#000"/>
<line x1="689.2" y1="451.686433681016" x2="689.2" y2="451.71772912670934" stroke="#000"/>
<rect x="692.8782608695652" y="448.31131292125315" width="7.356521739130435" height="49.68868707874677" fill="orange" data-tooltip="1.07x baseline speed (MJIT3.0)"/>
<line x1="692.8782608695652" y1="448.19569074679254" x2="700.2347826086958" y2="448.19569074679254" stroke="#000"/>
<line x1="692.8782608695652" y1="448.4269350957138" x2="700.2347826086958" y2="448.4269350957138" stroke="#000"/>
<line x1="696.5565217391305" y1="448.19569074679254" x2="696.5565217391305" y2="448.4269350957138" stroke="#000"/>
<rect x="700.2347826086957" y="455.3013612519555" width="7.356521739130435" height="42.69863874804446" fill="green" data-tooltip="0.92x baseline speed (MJIT3.1)"/>
<line x1="700.2347826086957" y1="454.29953047041676" x2="707.5913043478262" y2="454.29953047041676" stroke="#000"/>
<line x1="700.2347826086957" y1="456.3031920334942" x2="707.5913043478262" y2="456.3031920334942" stroke="#000"/>
<line x1="703.9130434782609" y1="454.29953047041676" x2="703.9130434782609" y2="456.3031920334942" stroke="#000"/>
<rect x="707.5913043478262" y="100.19999999999999" width="7.356521739130435" height="397.79999999999995" fill="#4F3A7A" data-tooltip="8.59x baseline speed (YJIT)"/>
<line x1="707.5913043478262" y1="99.89861302366445" x2="714.9478260869566" y2="99.89861302366445" stroke="#000"/>
<line x1="707.5913043478262" y1="100.50138697633552" x2="714.9478260869566" y2="100.50138697633552" stroke="#000"/>
<line x1="711.2695652173913" y1="99.89861302366445" x2="711.2695652173913" y2="100.50138697633552" stroke="#000"/>
<line x1="703.9130434782609" y1="498.0" x2="703.9130434782609" y2="502.79999999999995" stroke="#000"/>
<text x="703.9130434782609" y="512.4" fill="#111" font-size="small" font-family="monospace" font-weight="bold" text-anchor="end" transform="rotate(-60, 703.9130434782609, 512.4)">
30k_methods
</text>
<rect x="722.304347826087" y="451.7020814038627" width="7.356521739130435" height="46.297918596137265" fill="#7070f8" data-tooltip="1.00x baseline speed (No JIT)"/>
<line x1="722.304347826087" y1="451.63824905141337" x2="729.6608695652175" y2="451.63824905141337" stroke="#000"/>
<line x1="722.304347826087" y1="451.765913756312" x2="729.6608695652175" y2="451.765913756312" stroke="#000"/>
<line x1="725.9826086956523" y1="451.63824905141337" x2="725.9826086956523" y2="451.765913756312" stroke="#000"/>
<rect x="729.6608695652175" y="428.21513941678035" width="7.356521739130435" height="69.78486058321951" fill="orange" data-tooltip="1.51x baseline speed (MJIT3.0)"/>
<line x1="729.6608695652175" y1="428.10693954242566" x2="737.0173913043479" y2="428.10693954242566" stroke="#000"/>
<line x1="729.6608695652175" y1="428.3233392911351" x2="737.0173913043479" y2="428.3233392911351" stroke="#000"/>
<line x1="733.3391304347828" y1="428.10693954242566" x2="733.3391304347828" y2="428.3233392911351" stroke="#000"/>
<rect x="737.0173913043478" y="432.62192926838054" width="7.356521739130435" height="65.37807073161942" fill="green" data-tooltip="1.41x baseline speed (MJIT3.1)"/>
<line x1="737.0173913043478" y1="432.48116767920686" x2="744.3739130434783" y2="432.48116767920686" stroke="#000"/>
<line x1="737.0173913043478" y1="432.7626908575543" x2="744.3739130434783" y2="432.7626908575543" stroke="#000"/>
<line x1="740.6956521739131" y1="432.48116767920686" x2="740.6956521739131" y2="432.7626908575543" stroke="#000"/>
<rect x="744.3739130434783" y="391.5905388546088" width="7.356521739130435" height="106.40946114539115" fill="#4F3A7A" data-tooltip="2.30x baseline speed (YJIT)"/>
<line x1="744.3739130434783" y1="391.2334401583311" x2="751.7304347826088" y2="391.2334401583311" stroke="#000"/>
<line x1="744.3739130434783" y1="391.9476375508864" x2="751.7304347826088" y2="391.9476375508864" stroke="#000"/>
<line x1="748.0521739130436" y1="391.2334401583311" x2="748.0521739130436" y2="391.9476375508864" stroke="#000"/>
<line x1="740.6956521739131" y1="498.0" x2="740.6956521739131" y2="502.79999999999995" stroke="#000"/>
<text x="740.6956521739131" y="512.4" fill="#111" font-size="small" font-family="monospace" font-weight="bold" text-anchor="end" transform="rotate(-60, 740.6956521739131, 512.4)">
cfunc_itself
</text>
<rect x="759.0869565217392" y="451.7020814038627" width="7.356521739130435" height="46.297918596137265" fill="#7070f8" data-tooltip="1.00x baseline speed (No JIT)"/>
<line x1="759.0869565217392" y1="451.68375187552357" x2="766.4434782608697" y2="451.68375187552357" stroke="#000"/>
<line x1="759.0869565217392" y1="451.7204109322018" x2="766.4434782608697" y2="451.7204109322018" stroke="#000"/>
<line x1="762.7652173913044" y1="451.68375187552357" x2="762.7652173913044" y2="451.7204109322018" stroke="#000"/>
<rect x="766.4434782608697" y="344.59328336194164" width="7.356521739130435" height="153.40671663805833" fill="orange" data-tooltip="3.31x baseline speed (MJIT3.0)"/>
<line x1="766.4434782608697" y1="344.48846879586705" x2="773.8000000000002" y2="344.48846879586705" stroke="#000"/>
<line x1="766.4434782608697" y1="344.6980979280162" x2="773.8000000000002" y2="344.6980979280162" stroke="#000"/>
<line x1="770.1217391304349" y1="344.48846879586705" x2="770.1217391304349" y2="344.6980979280162" stroke="#000"/>
<rect x="773.8000000000001" y="348.30619081441307" width="7.356521739130435" height="149.6938091855869" fill="green" data-tooltip="3.23x baseline speed (MJIT3.1)"/>
<line x1="773.8000000000001" y1="348.21185891045224" x2="781.1565217391305" y2="348.21185891045224" stroke="#000"/>
<line x1="773.8000000000001" y1="348.40052271837385" x2="781.1565217391305" y2="348.40052271837385" stroke="#000"/>
<line x1="777.4782608695652" y1="348.21185891045224" x2="777.4782608695652" y2="348.40052271837385" stroke="#000"/>
<rect x="781.1565217391305" y="318.5021804509224" width="7.356521739130435" height="179.49781954907746" fill="#4F3A7A" data-tooltip="3.88x baseline speed (YJIT)"/>
<line x1="781.1565217391305" y1="318.3648962545799" x2="788.513043478261" y2="318.3648962545799" stroke="#000"/>
<line x1="781.1565217391305" y1="318.639464647265" x2="788.513043478261" y2="318.639464647265" stroke="#000"/>
<line x1="784.8347826086957" y1="318.3648962545799" x2="784.8347826086957" y2="318.639464647265" stroke="#000"/>
<line x1="777.4782608695652" y1="498.0" x2="777.4782608695652" y2="502.79999999999995" stroke="#000"/>
<text x="777.4782608695652" y="512.4" fill="#111" font-size="small" font-family="monospace" font-weight="bold" text-anchor="end" transform="rotate(-60, 777.4782608695652, 512.4)">
fib
</text>
<rect x="795.8695652173913" y="451.7020814038627" width="7.356521739130435" height="46.297918596137265" fill="#7070f8" data-tooltip="1.00x baseline speed (No JIT)"/>
<line x1="795.8695652173913" y1="451.6789832399748" x2="803.2260869565217" y2="451.6789832399748" stroke="#000"/>
<line x1="795.8695652173913" y1="451.72517956775056" x2="803.2260869565217" y2="451.72517956775056" stroke="#000"/>
<line x1="799.5478260869565" y1="451.6789832399748" x2="799.5478260869565" y2="451.72517956775056" stroke="#000"/>
<rect x="803.2260869565217" y="453.4756633290987" width="7.356521739130435" height="44.52433667090128" fill="orange" data-tooltip="0.96x baseline speed (MJIT3.0)"/>
<line x1="803.2260869565217" y1="453.43096066187434" x2="810.5826086956522" y2="453.43096066187434" stroke="#000"/>
<line x1="803.2260869565217" y1="453.52036599632305" x2="810.5826086956522" y2="453.52036599632305" stroke="#000"/>
<line x1="806.904347826087" y1="453.43096066187434" x2="806.904347826087" y2="453.52036599632305" stroke="#000"/>
<rect x="810.5826086956521" y="451.712418319208" width="7.356521739130435" height="46.28758168079198" fill="green" data-tooltip="1.00x baseline speed (MJIT3.1)"/>
<line x1="810.5826086956521" y1="451.675336433724" x2="817.9391304347827" y2="451.675336433724" stroke="#000"/>
<line x1="810.5826086956521" y1="451.7495002046919" x2="817.9391304347827" y2="451.7495002046919" stroke="#000"/>
<line x1="814.2608695652174" y1="451.675336433724" x2="814.2608695652174" y2="451.7495002046919" stroke="#000"/>
<rect x="817.9391304347827" y="380.6990127417467" width="7.356521739130435" height="117.30098725825326" fill="#4F3A7A" data-tooltip="2.53x baseline speed (YJIT)"/>
<line x1="817.9391304347827" y1="380.6359703224148" x2="825.2956521739131" y2="380.6359703224148" stroke="#000"/>
<line x1="817.9391304347827" y1="380.7620551610786" x2="825.2956521739131" y2="380.7620551610786" stroke="#000"/>
<line x1="821.6173913043478" y1="380.6359703224148" x2="821.6173913043478" y2="380.7620551610786" stroke="#000"/>
<line x1="814.2608695652174" y1="498.0" x2="814.2608695652174" y2="502.79999999999995" stroke="#000"/>
<text x="814.2608695652174" y="512.4" fill="#111" font-size="small" font-family="monospace" font-weight="bold" text-anchor="end" transform="rotate(-60, 814.2608695652174, 512.4)">
getivar
</text>
<rect x="832.6521739130435" y="451.7020814038627" width="7.356521739130435" height="46.297918596137265" fill="#7070f8" data-tooltip="1.00x baseline speed (No JIT)"/>
<line x1="832.6521739130435" y1="451.67290694524445" x2="840.008695652174" y2="451.67290694524445" stroke="#000"/>
<line x1="832.6521739130435" y1="451.7312558624809" x2="840.008695652174" y2="451.7312558624809" stroke="#000"/>
<line x1="836.3304347826087" y1="451.67290694524445" x2="836.3304347826087" y2="451.7312558624809" stroke="#000"/>
<rect x="840.008695652174" y="436.08603851659564" width="7.356521739130435" height="61.91396148340434" fill="orange" data-tooltip="1.34x baseline speed (MJIT3.0)"/>
<line x1="840.008695652174" y1="436.0293735763059" x2="847.3652173913044" y2="436.0293735763059" stroke="#000"/>
<line x1="840.008695652174" y1="436.14270345688533" x2="847.3652173913044" y2="436.14270345688533" stroke="#000"/>
<line x1="843.6869565217391" y1="436.0293735763059" x2="843.6869565217391" y2="436.14270345688533" stroke="#000"/>
<rect x="847.3652173913043" y="437.2332357828886" width="7.356521739130435" height="60.76676421711133" fill="green" data-tooltip="1.31x baseline speed (MJIT3.1)"/>
<line x1="847.3652173913043" y1="437.18721528111195" x2="854.7217391304348" y2="437.18721528111195" stroke="#000"/>
<line x1="847.3652173913043" y1="437.2792562846652" x2="854.7217391304348" y2="437.2792562846652" stroke="#000"/>
<line x1="851.0434782608696" y1="437.18721528111195" x2="851.0434782608696" y2="437.2792562846652" stroke="#000"/>
<rect x="854.7217391304348" y="245.07717126871924" width="7.356521739130435" height="252.92282873128067" fill="#4F3A7A" data-tooltip="5.46x baseline speed (YJIT)"/>
<line x1="854.7217391304348" y1="244.7963851243216" x2="862.0782608695653" y2="244.7963851243216" stroke="#000"/>
<line x1="854.7217391304348" y1="245.35795741311688" x2="862.0782608695653" y2="245.35795741311688" stroke="#000"/>
<line x1="858.4000000000001" y1="244.7963851243216" x2="858.4000000000001" y2="245.35795741311688" stroke="#000"/>
<line x1="851.0434782608696" y1="498.0" x2="851.0434782608696" y2="502.79999999999995" stroke="#000"/>
<text x="851.0434782608696" y="512.4" fill="#111" font-size="small" font-family="monospace" font-weight="bold" text-anchor="end" transform="rotate(-60, 851.0434782608696, 512.4)">
keyword_args
</text>
<rect x="869.4347826086956" y="451.7020814038627" width="7.356521739130435" height="46.297918596137265" fill="#7070f8" data-tooltip="1.00x baseline speed (No JIT)"/>
<line x1="869.4347826086956" y1="451.4587343423627" x2="876.7913043478261" y2="451.4587343423627" stroke="#000"/>
<line x1="869.4347826086956" y1="451.9454284653627" x2="876.7913043478261" y2="451.9454284653627" stroke="#000"/>
<line x1="873.1130434782609" y1="451.4587343423627" x2="873.1130434782609" y2="451.9454284653627" stroke="#000"/>
<rect x="876.7913043478261" y="441.8295779001134" width="7.356521739130435" height="56.17042209988655" fill="orange" data-tooltip="1.21x baseline speed (MJIT3.0)"/>
<line x1="876.7913043478261" y1="441.43932091821625" x2="884.1478260869567" y2="441.43932091821625" stroke="#000"/>
<line x1="876.7913043478261" y1="442.2198348820105" x2="884.1478260869567" y2="442.2198348820105" stroke="#000"/>
<line x1="880.4695652173914" y1="441.43932091821625" x2="880.4695652173914" y2="442.2198348820105" stroke="#000"/>
<rect x="884.1478260869566" y="445.89020846155734" width="7.356521739130435" height="52.10979153844253" fill="green" data-tooltip="1.13x baseline speed (MJIT3.1)"/>
<line x1="884.1478260869566" y1="445.5539868256905" x2="891.504347826087" y2="445.5539868256905" stroke="#000"/>
<line x1="884.1478260869566" y1="446.22643009742416" x2="891.504347826087" y2="446.22643009742416" stroke="#000"/>
<line x1="887.8260869565217" y1="445.5539868256905" x2="887.8260869565217" y2="446.22643009742416" stroke="#000"/>
<rect x="891.504347826087" y="427.27081072989034" width="7.356521739130435" height="70.72918927010959" fill="#4F3A7A" data-tooltip="1.53x baseline speed (YJIT)"/>
<line x1="891.504347826087" y1="426.7568694210357" x2="898.8608695652175" y2="426.7568694210357" stroke="#000"/>
<line x1="891.504347826087" y1="427.78475203874495" x2="898.8608695652175" y2="427.78475203874495" stroke="#000"/>
<line x1="895.1826086956522" y1="426.7568694210357" x2="895.1826086956522" y2="427.78475203874495" stroke="#000"/>
<line x1="887.8260869565217" y1="498.0" x2="887.8260869565217" y2="502.79999999999995" stroke="#000"/>
<text x="887.8260869565217" y="512.4" fill="#111" font-size="small" font-family="monospace" font-weight="bold" text-anchor="end" transform="rotate(-60, 887.8260869565217, 512.4)">
respond_to
</text>
<rect x="906.2173913043479" y="451.7020814038627" width="7.356521739130435" height="46.297918596137265" fill="#7070f8" data-tooltip="1.00x baseline speed (No JIT)"/>
<line x1="906.2173913043479" y1="451.5195019351296" x2="913.5739130434783" y2="451.5195019351296" stroke="#000"/>
<line x1="906.2173913043479" y1="451.88466087259576" x2="913.5739130434783" y2="451.88466087259576" stroke="#000"/>
<line x1="909.895652173913" y1="451.5195019351296" x2="909.895652173913" y2="451.88466087259576" stroke="#000"/>
<rect x="913.5739130434783" y="453.01122159149327" width="7.356521739130435" height="44.98877840850664" fill="orange" data-tooltip="0.97x baseline speed (MJIT3.0)"/>
<line x1="913.5739130434783" y1="452.8110492095901" x2="920.9304347826088" y2="452.8110492095901" stroke="#000"/>
<line x1="913.5739130434783" y1="453.21139397339647" x2="920.9304347826088" y2="453.21139397339647" stroke="#000"/>
<line x1="917.2521739130436" y1="452.8110492095901" x2="917.2521739130436" y2="453.21139397339647" stroke="#000"/>
<rect x="920.9304347826087" y="451.7294948118424" width="7.356521739130435" height="46.270505188157514" fill="green" data-tooltip="1.00x baseline speed (MJIT3.1)"/>
<line x1="920.9304347826087" y1="451.48785677980663" x2="928.2869565217392" y2="451.48785677980663" stroke="#000"/>
<line x1="920.9304347826087" y1="451.9711328438782" x2="928.2869565217392" y2="451.9711328438782" stroke="#000"/>
<line x1="924.608695652174" y1="451.48785677980663" x2="924.608695652174" y2="451.9711328438782" stroke="#000"/>
<rect x="928.2869565217392" y="420.83599415600526" width="7.356521739130435" height="77.16400584399476" fill="#4F3A7A" data-tooltip="1.67x baseline speed (YJIT)"/>
<line x1="928.2869565217392" y1="420.4304361591897" x2="935.6434782608696" y2="420.4304361591897" stroke="#000"/>
<line x1="928.2869565217392" y1="421.24155215282076" x2="935.6434782608696" y2="421.24155215282076" stroke="#000"/>
<line x1="931.9652173913045" y1="420.4304361591897" x2="931.9652173913045" y2="421.24155215282076" stroke="#000"/>
<line x1="924.608695652174" y1="498.0" x2="924.608695652174" y2="502.79999999999995" stroke="#000"/>
<text x="924.608695652174" y="512.4" fill="#111" font-size="small" font-family="monospace" font-weight="bold" text-anchor="end" transform="rotate(-60, 924.608695652174, 512.4)">
setivar
</text>
</svg>