<svg viewBox="0 0 1000 600" xmlns="http://www.w3.org/2000/svg" xmlns:xlink="http://www.w3.org/1999/xlink" width="100%" height="100%">

<rect x="50.0" y="30.0" width="940.0" height="467.99999999999994" stroke="#000" fill="#EEE"/>
<line x1="42.0" y1="497.9999999999999" x2="50.0" y2="497.9999999999999" stroke="#000"/>
<text x="26.000000000000004" y="497.9999999999999" text-anchor="end" font-weight="bold" font-size="small" fill="#111">
0.0
</text>
<line x1="42.0" y1="417.6158189701688" x2="50.0" y2="417.6158189701688" stroke="#000"/>
<text x="26.000000000000004" y="417.6158189701688" text-anchor="end" font-weight="bold" font-size="small" fill="#111">
2.0
</text>
<line x1="42.0" y1="337.23163794033775" x2="50.0" y2="337.23163794033775" stroke="#000"/>
<text x="26.000000000000004" y="337.23163794033775" text-anchor="end" font-weight="bold" font-size="small" fill="#111">
4.0
</text>
<line x1="42.0" y1="256.84745691050665" x2="50.0" y2="256.84745691050665" stroke="#000"/>
<text x="26.000000000000004" y="256.84745691050665" text-anchor="end" font-weight="bold" font-size="small" fill="#111">
6.0
</text>
<line x1="42.0" y1="176.4632758806755" x2="50.0" y2="176.4632758806755" stroke="#000"/>
<text x="26.000000000000004" y="176.4632758806755" text-anchor="end" font-weight="bold" font-size="small" fill="#111">
8.0
</text>
<rect x="268.5" y="36.00000000000001" width="80.0" height="18.0" fill="#7070f8" stroke="#888"/>
<text x="308.5" y="52.50000000000001" font-size="small" text-anchor="middle" font-weight="bold" fill="#EEE">
No JIT
</text>
<rect x="691.4999999999999" y="36.00000000000001" width="80.0" height="18.0" fill="orange" stroke="#888"/>
<text x="731.4999999999999" y="52.50000000000001" font-size="small" text-anchor="middle" font-weight="bold" fill="#EEE">
YJIT
</text>
<rect x="97.0" y="457.80790948508445" width="23.499999999999996" height="40.192090514915556" fill="#7070f8" data-tooltip="1.00x baseline speed (No JIT)"/>
<line x1="97.0" y1="457.7867545328101" x2="120.5" y2="457.7867545328101" stroke="#000"/>
<line x1="97.0" y1="457.8290644373588" x2="120.5" y2="457.8290644373588" stroke="#000"/>
<line x1="108.75" y1="457.7867545328101" x2="108.75" y2="457.8290644373588" stroke="#000"/>
<rect x="120.5" y="336.7938549153743" width="23.499999999999996" height="161.20614508462563" fill="orange" data-tooltip="4.01x baseline speed (YJIT)"/>
<line x1="120.5" y1="336.68371465666" x2="144.0" y2="336.68371465666" stroke="#000"/>
<line x1="120.5" y1="336.9039951740886" x2="144.0" y2="336.9039951740886" stroke="#000"/>
<line x1="132.25" y1="336.68371465666" x2="132.25" y2="336.9039951740886" stroke="#000"/>
<line x1="132.25" y1="498.0" x2="132.25" y2="502.79999999999995" stroke="#000"/>
<text x="132.25" y="512.4" fill="#111" font-size="small" font-family="monospace" font-weight="bold" text-anchor="end" transform="rotate(-60, 132.25, 512.4)">
30k_ifelse
</text>
<rect x="167.49999999999997" y="457.80790948508445" width="23.499999999999996" height="40.192090514915556" fill="#7070f8" data-tooltip="1.00x baseline speed (No JIT)"/>
<line x1="167.49999999999997" y1="457.7695916597199" x2="190.99999999999997" y2="457.7695916597199" stroke="#000"/>
<line x1="167.49999999999997" y1="457.84622731044897" x2="190.99999999999997" y2="457.84622731044897" stroke="#000"/>
<line x1="179.25" y1="457.7695916597199" x2="179.25" y2="457.84622731044897" stroke="#000"/>
<rect x="190.99999999999997" y="270.2344989682389" width="23.499999999999996" height="227.76550103176106" fill="orange" data-tooltip="5.67x baseline speed (YJIT)"/>
<line x1="190.99999999999997" y1="269.94960870956146" x2="214.49999999999997" y2="269.94960870956146" stroke="#000"/>
<line x1="190.99999999999997" y1="270.51938922691625" x2="214.49999999999997" y2="270.51938922691625" stroke="#000"/>
<line x1="202.75" y1="269.94960870956146" x2="202.75" y2="270.51938922691625" stroke="#000"/>
<line x1="202.75" y1="498.0" x2="202.75" y2="502.79999999999995" stroke="#000"/>
<text x="202.75" y="512.4" fill="#111" font-size="small" font-family="monospace" font-weight="bold" text-anchor="end" transform="rotate(-60, 202.75, 512.4)">
30k_methods
</text>
<rect x="238.0" y="457.80790948508445" width="23.499999999999996" height="40.192090514915556" fill="#7070f8" data-tooltip="1.00x baseline speed (No JIT)"/>
<line x1="238.0" y1="457.77289831624796" x2="261.5" y2="457.77289831624796" stroke="#000"/>
<line x1="238.0" y1="457.84292065392094" x2="261.5" y2="457.84292065392094" stroke="#000"/>
<line x1="249.75" y1="457.77289831624796" x2="249.75" y2="457.84292065392094" stroke="#000"/>
<rect x="261.5" y="369.09800809049176" width="23.499999999999996" height="128.90199190950813" fill="orange" data-tooltip="3.21x baseline speed (YJIT)"/>
<line x1="261.5" y1="368.9851330325466" x2="285.00000000000006" y2="368.9851330325466" stroke="#000"/>
<line x1="261.5" y1="369.21088314843695" x2="285.00000000000006" y2="369.21088314843695" stroke="#000"/>
<line x1="273.25" y1="368.9851330325466" x2="273.25" y2="369.21088314843695" stroke="#000"/>
<line x1="273.25" y1="498.0" x2="273.25" y2="502.79999999999995" stroke="#000"/>
<text x="273.25" y="512.4" fill="#111" font-size="small" font-family="monospace" font-weight="bold" text-anchor="end" transform="rotate(-60, 273.25, 512.4)">
cfunc_itself
</text>
<rect x="308.5" y="457.80790948508445" width="23.499999999999996" height="40.192090514915556" fill="#7070f8" data-tooltip="1.00x baseline speed (No JIT)"/>
<line x1="308.5" y1="457.41205737146066" x2="332.0" y2="457.41205737146066" stroke="#000"/>
<line x1="308.5" y1="458.20376159870824" x2="332.0" y2="458.20376159870824" stroke="#000"/>
<line x1="320.25" y1="457.41205737146066" x2="320.25" y2="458.20376159870824" stroke="#000"/>
<rect x="332.0" y="319.88568359171535" width="23.499999999999996" height="178.1143164082846" fill="orange" data-tooltip="4.43x baseline speed (YJIT)"/>
<line x1="332.0" y1="318.1273831395656" x2="355.50000000000006" y2="318.1273831395656" stroke="#000"/>
<line x1="332.0" y1="321.6439840438651" x2="355.50000000000006" y2="321.6439840438651" stroke="#000"/>
<line x1="343.75" y1="318.1273831395656" x2="343.75" y2="321.6439840438651" stroke="#000"/>
<line x1="343.75" y1="498.0" x2="343.75" y2="502.79999999999995" stroke="#000"/>
<text x="343.75" y="512.4" fill="#111" font-size="small" font-family="monospace" font-weight="bold" text-anchor="end" transform="rotate(-60, 343.75, 512.4)">
fib
</text>
<rect x="379.0" y="457.80790948508445" width="23.499999999999996" height="40.192090514915556" fill="#7070f8" data-tooltip="1.00x baseline speed (No JIT)"/>
<line x1="379.0" y1="457.71491966461866" x2="402.5" y2="457.71491966461866" stroke="#000"/>
<line x1="379.0" y1="457.90089930555024" x2="402.5" y2="457.90089930555024" stroke="#000"/>
<line x1="390.75" y1="457.71491966461866" x2="390.75" y2="457.90089930555024" stroke="#000"/>
<rect x="402.5" y="269.04347212959374" width="23.499999999999996" height="228.95652787040623" fill="orange" data-tooltip="5.70x baseline speed (YJIT)"/>
<line x1="402.5" y1="268.512886461647" x2="426.00000000000006" y2="268.512886461647" stroke="#000"/>
<line x1="402.5" y1="269.5740577975405" x2="426.00000000000006" y2="269.5740577975405" stroke="#000"/>
<line x1="414.25" y1="268.512886461647" x2="414.25" y2="269.5740577975405" stroke="#000"/>
<line x1="414.25" y1="498.0" x2="414.25" y2="502.79999999999995" stroke="#000"/>
<text x="414.25" y="512.4" fill="#111" font-size="small" font-family="monospace" font-weight="bold" text-anchor="end" transform="rotate(-60, 414.25, 512.4)">
getivar
</text>
<rect x="449.5" y="457.80790948508445" width="23.499999999999996" height="40.192090514915556" fill="#7070f8" data-tooltip="1.00x baseline speed (No JIT)"/>
<line x1="449.5" y1="457.72759119670536" x2="473.00000000000006" y2="457.72759119670536" stroke="#000"/>
<line x1="449.5" y1="457.8882277734635" x2="473.00000000000006" y2="457.8882277734635" stroke="#000"/>
<line x1="461.25" y1="457.72759119670536" x2="461.25" y2="457.8882277734635" stroke="#000"/>
<rect x="473.00000000000006" y="262.2083991215468" width="23.499999999999996" height="235.79160087845318" fill="orange" data-tooltip="5.87x baseline speed (YJIT)"/>
<line x1="473.00000000000006" y1="261.7313983243085" x2="496.50000000000006" y2="261.7313983243085" stroke="#000"/>
<line x1="473.00000000000006" y1="262.6853999187851" x2="496.50000000000006" y2="262.6853999187851" stroke="#000"/>
<line x1="484.75" y1="261.7313983243085" x2="484.75" y2="262.6853999187851" stroke="#000"/>
<line x1="484.75" y1="498.0" x2="484.75" y2="502.79999999999995" stroke="#000"/>
<text x="484.75" y="512.4" fill="#111" font-size="small" font-family="monospace" font-weight="bold" text-anchor="end" transform="rotate(-60, 484.75, 512.4)">
keyword_args
</text>
<rect x="519.9999999999999" y="457.80790948508445" width="23.499999999999996" height="40.192090514915556" fill="#7070f8" data-tooltip="1.00x baseline speed (No JIT)"/>
<line x1="519.9999999999999" y1="457.5445349032632" x2="543.4999999999999" y2="457.5445349032632" stroke="#000"/>
<line x1="519.9999999999999" y1="458.07128406690566" x2="543.4999999999999" y2="458.07128406690566" stroke="#000"/>
<line x1="531.75" y1="457.5445349032632" x2="531.75" y2="458.07128406690566" stroke="#000"/>
<rect x="543.4999999999999" y="100.19999999999999" width="23.499999999999996" height="397.79999999999995" fill="orange" data-tooltip="9.90x baseline speed (YJIT)"/>
<line x1="543.4999999999999" y1="92.87483795772938" x2="566.9999999999999" y2="92.87483795772938" stroke="#000"/>
<line x1="543.4999999999999" y1="107.5251620422706" x2="566.9999999999999" y2="107.5251620422706" stroke="#000"/>
<line x1="555.2499999999999" y1="92.87483795772938" x2="555.2499999999999" y2="107.5251620422706" stroke="#000"/>
<line x1="555.2499999999999" y1="498.0" x2="555.2499999999999" y2="502.79999999999995" stroke="#000"/>
<text x="555.2499999999999" y="512.4" fill="#111" font-size="small" font-family="monospace" font-weight="bold" text-anchor="end" transform="rotate(-60, 555.2499999999999, 512.4)">
respond_to
</text>
<rect x="590.4999999999999" y="457.80790948508445" width="23.499999999999996" height="40.192090514915556" fill="#7070f8" data-tooltip="1.00x baseline speed (No JIT)"/>
<line x1="590.4999999999999" y1="457.62964921831644" x2="613.9999999999999" y2="457.62964921831644" stroke="#000"/>
<line x1="590.4999999999999" y1="457.9861697518524" x2="613.9999999999999" y2="457.9861697518524" stroke="#000"/>
<line x1="602.25" y1="457.62964921831644" x2="602.25" y2="457.9861697518524" stroke="#000"/>
<rect x="613.9999999999999" y="259.13395242180366" width="23.499999999999996" height="238.8660475781963" fill="orange" data-tooltip="5.94x baseline speed (YJIT)"/>
<line x1="613.9999999999999" y1="258.0729293261789" x2="637.4999999999999" y2="258.0729293261789" stroke="#000"/>
<line x1="613.9999999999999" y1="260.19497551742836" x2="637.4999999999999" y2="260.19497551742836" stroke="#000"/>
<line x1="625.7499999999999" y1="258.0729293261789" x2="625.7499999999999" y2="260.19497551742836" stroke="#000"/>
<line x1="625.7499999999999" y1="498.0" x2="625.7499999999999" y2="502.79999999999995" stroke="#000"/>
<text x="625.7499999999999" y="512.4" fill="#111" font-size="small" font-family="monospace" font-weight="bold" text-anchor="end" transform="rotate(-60, 625.7499999999999, 512.4)">
setivar
</text>
<rect x="660.9999999999999" y="457.80790948508445" width="23.499999999999996" height="40.192090514915556" fill="#7070f8" data-tooltip="1.00x baseline speed (No JIT)"/>
<line x1="660.9999999999999" y1="457.6513259773099" x2="684.4999999999999" y2="457.6513259773099" stroke="#000"/>
<line x1="660.9999999999999" y1="457.96449299285894" x2="684.4999999999999" y2="457.96449299285894" stroke="#000"/>
<line x1="672.75" y1="457.6513259773099" x2="672.75" y2="457.96449299285894" stroke="#000"/>
<rect x="684.4999999999999" y="395.5652565272886" width="23.499999999999996" height="102.4347434727113" fill="orange" data-tooltip="2.55x baseline speed (YJIT)"/>
<line x1="684.4999999999999" y1="395.16610861613617" x2="707.9999999999999" y2="395.16610861613617" stroke="#000"/>
<line x1="684.4999999999999" y1="395.96440443844114" x2="707.9999999999999" y2="395.96440443844114" stroke="#000"/>
<line x1="696.2499999999999" y1="395.16610861613617" x2="696.2499999999999" y2="395.96440443844114" stroke="#000"/>
<line x1="696.2499999999999" y1="498.0" x2="696.2499999999999" y2="502.79999999999995" stroke="#000"/>
<text x="696.2499999999999" y="512.4" fill="#111" font-size="small" font-family="monospace" font-weight="bold" text-anchor="end" transform="rotate(-60, 696.2499999999999, 512.4)">
setivar_object
</text>
<rect x="731.4999999999999" y="457.80790948508445" width="23.499999999999996" height="40.192090514915556" fill="#7070f8" data-tooltip="1.00x baseline speed (No JIT)"/>
<line x1="731.4999999999999" y1="457.7163567259311" x2="754.9999999999999" y2="457.7163567259311" stroke="#000"/>
<line x1="731.4999999999999" y1="457.8994622442377" x2="754.9999999999999" y2="457.8994622442377" stroke="#000"/>
<line x1="743.25" y1="457.7163567259311" x2="743.25" y2="457.8994622442377" stroke="#000"/>
<rect x="754.9999999999999" y="395.12954331477397" width="23.499999999999996" height="102.87045668522593" fill="orange" data-tooltip="2.56x baseline speed (YJIT)"/>
<line x1="754.9999999999999" y1="393.1185237765352" x2="778.4999999999999" y2="393.1185237765352" stroke="#000"/>
<line x1="754.9999999999999" y1="397.1405628530127" x2="778.4999999999999" y2="397.1405628530127" stroke="#000"/>
<line x1="766.7499999999999" y1="393.1185237765352" x2="766.7499999999999" y2="397.1405628530127" stroke="#000"/>
<line x1="766.7499999999999" y1="498.0" x2="766.7499999999999" y2="502.79999999999995" stroke="#000"/>
<text x="766.7499999999999" y="512.4" fill="#111" font-size="small" font-family="monospace" font-weight="bold" text-anchor="end" transform="rotate(-60, 766.7499999999999, 512.4)">
setivar_young
</text>
<rect x="801.9999999999999" y="457.80790948508445" width="23.499999999999996" height="40.192090514915556" fill="#7070f8" data-tooltip="1.00x baseline speed (No JIT)"/>
<line x1="801.9999999999999" y1="457.7570435279738" x2="825.4999999999999" y2="457.7570435279738" stroke="#000"/>
<line x1="801.9999999999999" y1="457.85877544219505" x2="825.4999999999999" y2="457.85877544219505" stroke="#000"/>
<line x1="813.75" y1="457.7570435279738" x2="813.75" y2="457.85877544219505" stroke="#000"/>
<rect x="825.4999999999999" y="420.5082753870186" width="23.499999999999996" height="77.49172461298123" fill="orange" data-tooltip="1.93x baseline speed (YJIT)"/>
<line x1="825.4999999999999" y1="420.3138024741528" x2="848.9999999999999" y2="420.3138024741528" stroke="#000"/>
<line x1="825.4999999999999" y1="420.70274829988443" x2="848.9999999999999" y2="420.70274829988443" stroke="#000"/>
<line x1="837.2499999999999" y1="420.3138024741528" x2="837.2499999999999" y2="420.70274829988443" stroke="#000"/>
<line x1="837.2499999999999" y1="498.0" x2="837.2499999999999" y2="502.79999999999995" stroke="#000"/>
<text x="837.2499999999999" y="512.4" fill="#111" font-size="small" font-family="monospace" font-weight="bold" text-anchor="end" transform="rotate(-60, 837.2499999999999, 512.4)">
str_concat
</text>
<rect x="872.4999999999999" y="457.80790948508445" width="23.499999999999996" height="40.192090514915556" fill="#7070f8" data-tooltip="1.00x baseline speed (No JIT)"/>
<line x1="872.4999999999999" y1="457.73996619702666" x2="895.9999999999999" y2="457.73996619702666" stroke="#000"/>
<line x1="872.4999999999999" y1="457.8758527731422" x2="895.9999999999999" y2="457.8758527731422" stroke="#000"/>
<line x1="884.25" y1="457.73996619702666" x2="884.25" y2="457.8758527731422" stroke="#000"/>
<rect x="895.9999999999999" y="443.31422296492684" width="23.499999999999996" height="54.68577703507312" fill="orange" data-tooltip="1.36x baseline speed (YJIT)"/>
<line x1="895.9999999999999" y1="443.1695512246978" x2="919.4999999999999" y2="443.1695512246978" stroke="#000"/>
<line x1="895.9999999999999" y1="443.4588947051559" x2="919.4999999999999" y2="443.4588947051559" stroke="#000"/>
<line x1="907.75" y1="443.1695512246978" x2="907.75" y2="443.4588947051559" stroke="#000"/>
<line x1="907.75" y1="498.0" x2="907.75" y2="502.79999999999995" stroke="#000"/>
<text x="907.75" y="512.4" fill="#111" font-size="small" font-family="monospace" font-weight="bold" text-anchor="end" transform="rotate(-60, 907.75, 512.4)">
throw
</text>
</svg>