<svg viewBox="0 0 1000 600" xmlns="http://www.w3.org/2000/svg" xmlns:xlink="http://www.w3.org/1999/xlink" width="100%" height="100%">

<rect x="50.0" y="30.0" width="940.0" height="467.99999999999994" stroke="#000" fill="#EEE"/>
<line x1="42.0" y1="497.9999999999999" x2="50.0" y2="497.9999999999999" stroke="#000"/>
<text x="26.000000000000004" y="497.9999999999999" text-anchor="end" font-weight="bold" font-size="small" fill="#111">
0.0
</text>
<line x1="42.0" y1="441.09681614247523" x2="50.0" y2="441.09681614247523" stroke="#000"/>
<text x="26.000000000000004" y="441.09681614247523" text-anchor="end" font-weight="bold" font-size="small" fill="#111">
1.0
</text>
<line x1="42.0" y1="384.1936322849505" x2="50.0" y2="384.1936322849505" stroke="#000"/>
<text x="26.000000000000004" y="384.1936322849505" text-anchor="end" font-weight="bold" font-size="small" fill="#111">
2.0
</text>
<line x1="42.0" y1="327.2904484274257" x2="50.0" y2="327.2904484274257" stroke="#000"/>
<text x="26.000000000000004" y="327.2904484274257" text-anchor="end" font-weight="bold" font-size="small" fill="#111">
3.0
</text>
<line x1="42.0" y1="270.38726456990105" x2="50.0" y2="270.38726456990105" stroke="#000"/>
<text x="26.000000000000004" y="270.38726456990105" text-anchor="end" font-weight="bold" font-size="small" fill="#111">
4.0
</text>
<line x1="42.0" y1="213.4840807123763" x2="50.0" y2="213.4840807123763" stroke="#000"/>
<text x="26.000000000000004" y="213.4840807123763" text-anchor="end" font-weight="bold" font-size="small" fill="#111">
5.0
</text>
<line x1="42.0" y1="156.5808968548516" x2="50.0" y2="156.5808968548516" stroke="#000"/>
<text x="26.000000000000004" y="156.5808968548516" text-anchor="end" font-weight="bold" font-size="small" fill="#111">
6.0
</text>
<rect x="268.5" y="36.00000000000001" width="80.0" height="18.0" fill="#7070f8" stroke="#888"/>
<text x="308.5" y="52.50000000000001" font-size="small" text-anchor="middle" font-weight="bold" fill="#EEE">
No JIT
</text>
<rect x="691.4999999999999" y="36.00000000000001" width="80.0" height="18.0" fill="orange" stroke="#888"/>
<text x="731.4999999999999" y="52.50000000000001" font-size="small" text-anchor="middle" font-weight="bold" fill="#EEE">
YJIT
</text>
<rect x="97.0" y="441.09681614247523" width="23.499999999999996" height="56.90318385752473" fill="#7070f8" data-tooltip="1.00x baseline speed (No JIT)"/>
<line x1="97.0" y1="441.0173741718077" x2="120.5" y2="441.0173741718077" stroke="#000"/>
<line x1="97.0" y1="441.17625811314275" x2="120.5" y2="441.17625811314275" stroke="#000"/>
<line x1="108.75" y1="441.0173741718077" x2="108.75" y2="441.17625811314275" stroke="#000"/>
<rect x="120.5" y="288.36890068710744" width="23.499999999999996" height="209.63109931289247" fill="orange" data-tooltip="3.68x baseline speed (YJIT)"/>
<line x1="120.5" y1="288.0684693432523" x2="144.0" y2="288.0684693432523" stroke="#000"/>
<line x1="120.5" y1="288.66933203096266" x2="144.0" y2="288.66933203096266" stroke="#000"/>
<line x1="132.25" y1="288.0684693432523" x2="132.25" y2="288.66933203096266" stroke="#000"/>
<line x1="132.25" y1="498.0" x2="132.25" y2="502.79999999999995" stroke="#000"/>
<text x="132.25" y="512.4" fill="#111" font-size="small" font-family="monospace" font-weight="bold" text-anchor="end" transform="rotate(-60, 132.25, 512.4)">
30k_ifelse
</text>
<rect x="167.49999999999997" y="441.09681614247523" width="23.499999999999996" height="56.90318385752473" fill="#7070f8" data-tooltip="1.00x baseline speed (No JIT)"/>
<line x1="167.49999999999997" y1="440.85530525701915" x2="190.99999999999997" y2="440.85530525701915" stroke="#000"/>
<line x1="167.49999999999997" y1="441.33832702793126" x2="190.99999999999997" y2="441.33832702793126" stroke="#000"/>
<line x1="179.25" y1="440.85530525701915" x2="179.25" y2="441.33832702793126" stroke="#000"/>
<rect x="190.99999999999997" y="238.3626224504807" width="23.499999999999996" height="259.6373775495193" fill="orange" data-tooltip="4.56x baseline speed (YJIT)"/>
<line x1="190.99999999999997" y1="237.2473718281718" x2="214.49999999999997" y2="237.2473718281718" stroke="#000"/>
<line x1="190.99999999999997" y1="239.4778730727896" x2="214.49999999999997" y2="239.4778730727896" stroke="#000"/>
<line x1="202.75" y1="237.2473718281718" x2="202.75" y2="239.4778730727896" stroke="#000"/>
<line x1="202.75" y1="498.0" x2="202.75" y2="502.79999999999995" stroke="#000"/>
<text x="202.75" y="512.4" fill="#111" font-size="small" font-family="monospace" font-weight="bold" text-anchor="end" transform="rotate(-60, 202.75, 512.4)">
30k_methods
</text>
<rect x="238.0" y="441.09681614247523" width="23.499999999999996" height="56.90318385752473" fill="#7070f8" data-tooltip="1.00x baseline speed (No JIT)"/>
<line x1="238.0" y1="441.036180352073" x2="261.5" y2="441.036180352073" stroke="#000"/>
<line x1="238.0" y1="441.1574519328774" x2="261.5" y2="441.1574519328774" stroke="#000"/>
<line x1="249.75" y1="441.036180352073" x2="249.75" y2="441.1574519328774" stroke="#000"/>
<rect x="261.5" y="345.66799920967173" width="23.499999999999996" height="152.33200079032815" fill="orange" data-tooltip="2.68x baseline speed (YJIT)"/>
<line x1="261.5" y1="345.49953612629037" x2="285.00000000000006" y2="345.49953612629037" stroke="#000"/>
<line x1="261.5" y1="345.83646229305316" x2="285.00000000000006" y2="345.83646229305316" stroke="#000"/>
<line x1="273.25" y1="345.49953612629037" x2="273.25" y2="345.83646229305316" stroke="#000"/>
<line x1="273.25" y1="498.0" x2="273.25" y2="502.79999999999995" stroke="#000"/>
<text x="273.25" y="512.4" fill="#111" font-size="small" font-family="monospace" font-weight="bold" text-anchor="end" transform="rotate(-60, 273.25, 512.4)">
cfunc_itself
</text>
<rect x="308.5" y="441.09681614247523" width="23.499999999999996" height="56.90318385752473" fill="#7070f8" data-tooltip="1.00x baseline speed (No JIT)"/>
<line x1="308.5" y1="440.4548385197676" x2="332.0" y2="440.4548385197676" stroke="#000"/>
<line x1="308.5" y1="441.7387937651829" x2="332.0" y2="441.7387937651829" stroke="#000"/>
<line x1="320.25" y1="440.4548385197676" x2="320.25" y2="441.7387937651829" stroke="#000"/>
<rect x="332.0" y="333.4230152251157" width="23.499999999999996" height="164.57698477488424" fill="orange" data-tooltip="2.89x baseline speed (YJIT)"/>
<line x1="332.0" y1="331.56624627865716" x2="355.50000000000006" y2="331.56624627865716" stroke="#000"/>
<line x1="332.0" y1="335.27978417157425" x2="355.50000000000006" y2="335.27978417157425" stroke="#000"/>
<line x1="343.75" y1="331.56624627865716" x2="343.75" y2="335.27978417157425" stroke="#000"/>
<line x1="343.75" y1="498.0" x2="343.75" y2="502.79999999999995" stroke="#000"/>
<text x="343.75" y="512.4" fill="#111" font-size="small" font-family="monospace" font-weight="bold" text-anchor="end" transform="rotate(-60, 343.75, 512.4)">
fib
</text>
<rect x="379.0" y="441.09681614247523" width="23.499999999999996" height="56.90318385752473" fill="#7070f8" data-tooltip="1.00x baseline speed (No JIT)"/>
<line x1="379.0" y1="439.50462182214864" x2="402.5" y2="439.50462182214864" stroke="#000"/>
<line x1="379.0" y1="442.68901046280183" x2="402.5" y2="442.68901046280183" stroke="#000"/>
<line x1="390.75" y1="439.50462182214864" x2="390.75" y2="442.68901046280183" stroke="#000"/>
<rect x="402.5" y="364.24147189029475" width="23.499999999999996" height="133.75852810970517" fill="orange" data-tooltip="2.35x baseline speed (YJIT)"/>
<line x1="402.5" y1="360.4987919043352" x2="426.00000000000006" y2="360.4987919043352" stroke="#000"/>
<line x1="402.5" y1="367.9841518762544" x2="426.00000000000006" y2="367.9841518762544" stroke="#000"/>
<line x1="414.25" y1="360.4987919043352" x2="414.25" y2="367.9841518762544" stroke="#000"/>
<line x1="414.25" y1="498.0" x2="414.25" y2="502.79999999999995" stroke="#000"/>
<text x="414.25" y="512.4" fill="#111" font-size="small" font-family="monospace" font-weight="bold" text-anchor="end" transform="rotate(-60, 414.25, 512.4)">
getivar
</text>
<rect x="449.5" y="441.09681614247523" width="23.499999999999996" height="56.90318385752473" fill="#7070f8" data-tooltip="1.00x baseline speed (No JIT)"/>
<line x1="449.5" y1="440.9992279082448" x2="473.00000000000006" y2="440.9992279082448" stroke="#000"/>
<line x1="449.5" y1="441.1944043767057" x2="473.00000000000006" y2="441.1944043767057" stroke="#000"/>
<line x1="461.25" y1="440.9992279082448" x2="461.25" y2="441.1944043767057" stroke="#000"/>
<rect x="473.00000000000006" y="295.5194374123127" width="23.499999999999996" height="202.48056258768725" fill="orange" data-tooltip="3.56x baseline speed (YJIT)"/>
<line x1="473.00000000000006" y1="295.16593809575755" x2="496.50000000000006" y2="295.16593809575755" stroke="#000"/>
<line x1="473.00000000000006" y1="295.87293672886784" x2="496.50000000000006" y2="295.87293672886784" stroke="#000"/>
<line x1="484.75" y1="295.16593809575755" x2="484.75" y2="295.87293672886784" stroke="#000"/>
<line x1="484.75" y1="498.0" x2="484.75" y2="502.79999999999995" stroke="#000"/>
<text x="484.75" y="512.4" fill="#111" font-size="small" font-family="monospace" font-weight="bold" text-anchor="end" transform="rotate(-60, 484.75, 512.4)">
keyword_args
</text>
<rect x="519.9999999999999" y="441.09681614247523" width="23.499999999999996" height="56.90318385752473" fill="#7070f8" data-tooltip="1.00x baseline speed (No JIT)"/>
<line x1="519.9999999999999" y1="440.5728931970182" x2="543.4999999999999" y2="440.5728931970182" stroke="#000"/>
<line x1="519.9999999999999" y1="441.62073908793224" x2="543.4999999999999" y2="441.62073908793224" stroke="#000"/>
<line x1="531.75" y1="440.5728931970182" x2="531.75" y2="441.62073908793224" stroke="#000"/>
<rect x="543.4999999999999" y="100.19999999999999" width="23.499999999999996" height="397.79999999999995" fill="orange" data-tooltip="6.99x baseline speed (YJIT)"/>
<line x1="543.4999999999999" y1="96.06458883988758" x2="566.9999999999999" y2="96.06458883988758" stroke="#000"/>
<line x1="543.4999999999999" y1="104.3354111601124" x2="566.9999999999999" y2="104.3354111601124" stroke="#000"/>
<line x1="555.2499999999999" y1="96.06458883988758" x2="555.2499999999999" y2="104.3354111601124" stroke="#000"/>
<line x1="555.2499999999999" y1="498.0" x2="555.2499999999999" y2="502.79999999999995" stroke="#000"/>
<text x="555.2499999999999" y="512.4" fill="#111" font-size="small" font-family="monospace" font-weight="bold" text-anchor="end" transform="rotate(-60, 555.2499999999999, 512.4)">
respond_to
</text>
<rect x="590.4999999999999" y="441.09681614247523" width="23.499999999999996" height="56.90318385752473" fill="#7070f8" data-tooltip="1.00x baseline speed (No JIT)"/>
<line x1="590.4999999999999" y1="440.6763042286392" x2="613.9999999999999" y2="440.6763042286392" stroke="#000"/>
<line x1="590.4999999999999" y1="441.5173280563112" x2="613.9999999999999" y2="441.5173280563112" stroke="#000"/>
<line x1="602.25" y1="440.6763042286392" x2="602.25" y2="441.5173280563112" stroke="#000"/>
<rect x="613.9999999999999" y="289.8198210367792" width="23.499999999999996" height="208.18017896322073" fill="orange" data-tooltip="3.66x baseline speed (YJIT)"/>
<line x1="613.9999999999999" y1="288.28099476757234" x2="637.4999999999999" y2="288.28099476757234" stroke="#000"/>
<line x1="613.9999999999999" y1="291.3586473059861" x2="637.4999999999999" y2="291.3586473059861" stroke="#000"/>
<line x1="625.7499999999999" y1="288.28099476757234" x2="625.7499999999999" y2="291.3586473059861" stroke="#000"/>
<line x1="625.7499999999999" y1="498.0" x2="625.7499999999999" y2="502.79999999999995" stroke="#000"/>
<text x="625.7499999999999" y="512.4" fill="#111" font-size="small" font-family="monospace" font-weight="bold" text-anchor="end" transform="rotate(-60, 625.7499999999999, 512.4)">
setivar
</text>
<rect x="660.9999999999999" y="441.09681614247523" width="23.499999999999996" height="56.90318385752473" fill="#7070f8" data-tooltip="1.00x baseline speed (No JIT)"/>
<line x1="660.9999999999999" y1="440.6074418545938" x2="684.4999999999999" y2="440.6074418545938" stroke="#000"/>
<line x1="660.9999999999999" y1="441.5861904303566" x2="684.4999999999999" y2="441.5861904303566" stroke="#000"/>
<line x1="672.75" y1="440.6074418545938" x2="672.75" y2="441.5861904303566" stroke="#000"/>
<rect x="684.4999999999999" y="367.5807762194497" width="23.499999999999996" height="130.4192237805502" fill="orange" data-tooltip="2.29x baseline speed (YJIT)"/>
<line x1="684.4999999999999" y1="365.4607933304682" x2="707.9999999999999" y2="365.4607933304682" stroke="#000"/>
<line x1="684.4999999999999" y1="369.7007591084312" x2="707.9999999999999" y2="369.7007591084312" stroke="#000"/>
<line x1="696.2499999999999" y1="365.4607933304682" x2="696.2499999999999" y2="369.7007591084312" stroke="#000"/>
<line x1="696.2499999999999" y1="498.0" x2="696.2499999999999" y2="502.79999999999995" stroke="#000"/>
<text x="696.2499999999999" y="512.4" fill="#111" font-size="small" font-family="monospace" font-weight="bold" text-anchor="end" transform="rotate(-60, 696.2499999999999, 512.4)">
setivar_object
</text>
<rect x="731.4999999999999" y="441.09681614247523" width="23.499999999999996" height="56.90318385752473" fill="#7070f8" data-tooltip="1.00x baseline speed (No JIT)"/>
<line x1="731.4999999999999" y1="440.897456038691" x2="754.9999999999999" y2="440.897456038691" stroke="#000"/>
<line x1="731.4999999999999" y1="441.29617624625945" x2="754.9999999999999" y2="441.29617624625945" stroke="#000"/>
<line x1="743.25" y1="440.897456038691" x2="743.25" y2="441.29617624625945" stroke="#000"/>
<rect x="754.9999999999999" y="365.67544113933786" width="23.499999999999996" height="132.3245588606621" fill="orange" data-tooltip="2.33x baseline speed (YJIT)"/>
<line x1="754.9999999999999" y1="360.53231144228585" x2="778.4999999999999" y2="360.53231144228585" stroke="#000"/>
<line x1="754.9999999999999" y1="370.8185708363899" x2="778.4999999999999" y2="370.8185708363899" stroke="#000"/>
<line x1="766.7499999999999" y1="360.53231144228585" x2="766.7499999999999" y2="370.8185708363899" stroke="#000"/>
<line x1="766.7499999999999" y1="498.0" x2="766.7499999999999" y2="502.79999999999995" stroke="#000"/>
<text x="766.7499999999999" y="512.4" fill="#111" font-size="small" font-family="monospace" font-weight="bold" text-anchor="end" transform="rotate(-60, 766.7499999999999, 512.4)">
setivar_young_object
</text>
<rect x="801.9999999999999" y="441.09681614247523" width="23.499999999999996" height="56.90318385752473" fill="#7070f8" data-tooltip="1.00x baseline speed (No JIT)"/>
<line x1="801.9999999999999" y1="437.1506959492308" x2="825.4999999999999" y2="437.1506959492308" stroke="#000"/>
<line x1="801.9999999999999" y1="445.0429363357197" x2="825.4999999999999" y2="445.0429363357197" stroke="#000"/>
<line x1="813.75" y1="437.1506959492308" x2="813.75" y2="445.0429363357197" stroke="#000"/>
<rect x="825.4999999999999" y="416.4011956690439" width="23.499999999999996" height="81.59880433095609" fill="orange" data-tooltip="1.43x baseline speed (YJIT)"/>
<line x1="825.4999999999999" y1="410.7118378723193" x2="848.9999999999999" y2="410.7118378723193" stroke="#000"/>
<line x1="825.4999999999999" y1="422.0905534657685" x2="848.9999999999999" y2="422.0905534657685" stroke="#000"/>
<line x1="837.2499999999999" y1="410.7118378723193" x2="837.2499999999999" y2="422.0905534657685" stroke="#000"/>
<line x1="837.2499999999999" y1="498.0" x2="837.2499999999999" y2="502.79999999999995" stroke="#000"/>
<text x="837.2499999999999" y="512.4" fill="#111" font-size="small" font-family="monospace" font-weight="bold" text-anchor="end" transform="rotate(-60, 837.2499999999999, 512.4)">
str_concat
</text>
<rect x="872.4999999999999" y="441.09681614247523" width="23.499999999999996" height="56.90318385752473" fill="#7070f8" data-tooltip="1.00x baseline speed (No JIT)"/>
<line x1="872.4999999999999" y1="440.95039403646405" x2="895.9999999999999" y2="440.95039403646405" stroke="#000"/>
<line x1="872.4999999999999" y1="441.24323824848636" x2="895.9999999999999" y2="441.24323824848636" stroke="#000"/>
<line x1="884.25" y1="440.95039403646405" x2="884.25" y2="441.24323824848636" stroke="#000"/>
<rect x="895.9999999999999" y="417.55850658857054" width="23.499999999999996" height="80.44149341142942" fill="orange" data-tooltip="1.41x baseline speed (YJIT)"/>
<line x1="895.9999999999999" y1="417.3083137567494" x2="919.4999999999999" y2="417.3083137567494" stroke="#000"/>
<line x1="895.9999999999999" y1="417.8086994203917" x2="919.4999999999999" y2="417.8086994203917" stroke="#000"/>
<line x1="907.75" y1="417.3083137567494" x2="907.75" y2="417.8086994203917" stroke="#000"/>
<line x1="907.75" y1="498.0" x2="907.75" y2="502.79999999999995" stroke="#000"/>
<text x="907.75" y="512.4" fill="#111" font-size="small" font-family="monospace" font-weight="bold" text-anchor="end" transform="rotate(-60, 907.75, 512.4)">
throw
</text>
</svg>