<svg viewBox="0 0 1000 600" xmlns="http://www.w3.org/2000/svg" xmlns:xlink="http://www.w3.org/1999/xlink" width="100%" height="100%">

<rect x="50.0" y="30.0" width="940.0" height="467.99999999999994" stroke="#000" fill="#EEE"/>
<line x1="42.0" y1="497.9999999999999" x2="50.0" y2="497.9999999999999" stroke="#000"/>
<text x="26.000000000000004" y="497.9999999999999" text-anchor="end" font-weight="bold" font-size="small" fill="#111">
0.0
</text>
<line x1="42.0" y1="421.2736268040944" x2="50.0" y2="421.2736268040944" stroke="#000"/>
<text x="26.000000000000004" y="421.2736268040944" text-anchor="end" font-weight="bold" font-size="small" fill="#111">
2.0
</text>
<line x1="42.0" y1="344.5472536081889" x2="50.0" y2="344.5472536081889" stroke="#000"/>
<text x="26.000000000000004" y="344.5472536081889" text-anchor="end" font-weight="bold" font-size="small" fill="#111">
4.0
</text>
<line x1="42.0" y1="267.8208804122835" x2="50.0" y2="267.8208804122835" stroke="#000"/>
<text x="26.000000000000004" y="267.8208804122835" text-anchor="end" font-weight="bold" font-size="small" fill="#111">
6.0
</text>
<line x1="42.0" y1="191.094507216378" x2="50.0" y2="191.094507216378" stroke="#000"/>
<text x="26.000000000000004" y="191.094507216378" text-anchor="end" font-weight="bold" font-size="small" fill="#111">
8.0
</text>
<line x1="42.0" y1="114.36813402047251" x2="50.0" y2="114.36813402047251" stroke="#000"/>
<text x="26.000000000000004" y="114.36813402047251" text-anchor="end" font-weight="bold" font-size="small" fill="#111">
10.0
</text>
<rect x="268.5" y="36.00000000000001" width="80.0" height="18.0" fill="#7070f8" stroke="#888"/>
<text x="308.5" y="52.50000000000001" font-size="small" text-anchor="middle" font-weight="bold" fill="#EEE">
No JIT
</text>
<rect x="691.4999999999999" y="36.00000000000001" width="80.0" height="18.0" fill="orange" stroke="#888"/>
<text x="731.4999999999999" y="52.50000000000001" font-size="small" text-anchor="middle" font-weight="bold" fill="#EEE">
YJIT
</text>
<rect x="97.0" y="459.63681340204715" width="8.545454545454545" height="38.36318659795275" fill="#7070f8" data-tooltip="1.00x baseline speed (No JIT)"/>
<line x1="97.0" y1="459.45931326274217" x2="105.54545454545455" y2="459.45931326274217" stroke="#000"/>
<line x1="97.0" y1="459.81431354135213" x2="105.54545454545455" y2="459.81431354135213" stroke="#000"/>
<line x1="101.27272727272728" y1="459.45931326274217" x2="101.27272727272728" y2="459.81431354135213" stroke="#000"/>
<rect x="105.54545454545455" y="426.1896639527585" width="8.545454545454545" height="71.81033604724142" fill="orange" data-tooltip="1.87x baseline speed (YJIT)"/>
<line x1="105.54545454545455" y1="425.45950733941515" x2="114.09090909090911" y2="425.45950733941515" stroke="#000"/>
<line x1="105.54545454545455" y1="426.91982056610186" x2="114.09090909090911" y2="426.91982056610186" stroke="#000"/>
<line x1="109.81818181818183" y1="425.45950733941515" x2="109.81818181818183" y2="426.91982056610186" stroke="#000"/>
<line x1="109.81818181818181" y1="498.0" x2="109.81818181818181" y2="502.79999999999995" stroke="#000"/>
<text x="109.81818181818181" y="512.4" fill="#111" font-size="small" font-family="monospace" font-weight="bold" text-anchor="end" transform="rotate(-60, 109.81818181818181, 512.4)">
activerecord
</text>
<rect x="122.63636363636364" y="459.63681340204715" width="8.545454545454545" height="38.36318659795275" fill="#7070f8" data-tooltip="1.00x baseline speed (No JIT)"/>
<line x1="122.63636363636364" y1="458.76463442449193" x2="131.1818181818182" y2="458.76463442449193" stroke="#000"/>
<line x1="122.63636363636364" y1="460.5089923796024" x2="131.1818181818182" y2="460.5089923796024" stroke="#000"/>
<line x1="126.90909090909092" y1="458.76463442449193" x2="126.90909090909092" y2="460.5089923796024" stroke="#000"/>
<rect x="131.1818181818182" y="433.14680500542744" width="8.545454545454545" height="64.85319499457249" fill="orange" data-tooltip="1.69x baseline speed (YJIT)"/>
<line x1="131.1818181818182" y1="430.33676086351534" x2="139.72727272727272" y2="430.33676086351534" stroke="#000"/>
<line x1="131.1818181818182" y1="435.9568491473395" x2="139.72727272727272" y2="435.9568491473395" stroke="#000"/>
<line x1="135.45454545454544" y1="430.33676086351534" x2="135.45454545454544" y2="435.9568491473395" stroke="#000"/>
<line x1="135.45454545454547" y1="498.0" x2="135.45454545454547" y2="502.79999999999995" stroke="#000"/>
<text x="135.45454545454547" y="512.4" fill="#111" font-size="small" font-family="monospace" font-weight="bold" text-anchor="end" transform="rotate(-60, 135.45454545454547, 512.4)">
erubi_rails
</text>
<rect x="148.27272727272728" y="459.63681340204715" width="8.545454545454545" height="38.36318659795275" fill="#7070f8" data-tooltip="1.00x baseline speed (No JIT)"/>
<line x1="148.27272727272728" y1="459.31566903102765" x2="156.81818181818184" y2="459.31566903102765" stroke="#000"/>
<line x1="148.27272727272728" y1="459.95795777306665" x2="156.81818181818184" y2="459.95795777306665" stroke="#000"/>
<line x1="152.54545454545453" y1="459.31566903102765" x2="152.54545454545453" y2="459.95795777306665" stroke="#000"/>
<rect x="156.81818181818184" y="436.50193920285176" width="8.545454545454545" height="61.49806079714809" fill="orange" data-tooltip="1.60x baseline speed (YJIT)"/>
<line x1="156.81818181818184" y1="435.03211115144455" x2="165.36363636363637" y2="435.03211115144455" stroke="#000"/>
<line x1="156.81818181818184" y1="437.971767254259" x2="165.36363636363637" y2="437.971767254259" stroke="#000"/>
<line x1="161.0909090909091" y1="435.03211115144455" x2="161.0909090909091" y2="437.971767254259" stroke="#000"/>
<line x1="161.0909090909091" y1="498.0" x2="161.0909090909091" y2="502.79999999999995" stroke="#000"/>
<text x="161.0909090909091" y="512.4" fill="#111" font-size="small" font-family="monospace" font-weight="bold" text-anchor="end" transform="rotate(-60, 161.0909090909091, 512.4)">
hexapdf
</text>
<rect x="173.9090909090909" y="459.63681340204715" width="8.545454545454545" height="38.36318659795275" fill="#7070f8" data-tooltip="1.00x baseline speed (No JIT)"/>
<line x1="173.9090909090909" y1="459.11335055714335" x2="182.45454545454544" y2="459.11335055714335" stroke="#000"/>
<line x1="173.9090909090909" y1="460.160276246951" x2="182.45454545454544" y2="460.160276246951" stroke="#000"/>
<line x1="178.18181818181816" y1="459.11335055714335" x2="178.18181818181816" y2="460.160276246951" stroke="#000"/>
<rect x="182.45454545454544" y="445.5365487217966" width="8.545454545454545" height="52.46345127820343" fill="orange" data-tooltip="1.37x baseline speed (YJIT)"/>
<line x1="182.45454545454544" y1="444.27122888546796" x2="191.0" y2="444.27122888546796" stroke="#000"/>
<line x1="182.45454545454544" y1="446.80186855812525" x2="191.0" y2="446.80186855812525" stroke="#000"/>
<line x1="186.72727272727272" y1="444.27122888546796" x2="186.72727272727272" y2="446.80186855812525" stroke="#000"/>
<line x1="186.72727272727272" y1="498.0" x2="186.72727272727272" y2="502.79999999999995" stroke="#000"/>
<text x="186.72727272727272" y="512.4" fill="#111" font-size="small" font-family="monospace" font-weight="bold" text-anchor="end" transform="rotate(-60, 186.72727272727272, 512.4)">
liquid-c
</text>
<rect x="199.54545454545453" y="459.63681340204715" width="8.545454545454545" height="38.36318659795275" fill="#7070f8" data-tooltip="1.00x baseline speed (No JIT)"/>
<line x1="199.54545454545453" y1="459.0960297893585" x2="208.09090909090907" y2="459.0960297893585" stroke="#000"/>
<line x1="199.54545454545453" y1="460.17759701473585" x2="208.09090909090907" y2="460.17759701473585" stroke="#000"/>
<line x1="203.81818181818178" y1="459.0960297893585" x2="203.81818181818178" y2="460.17759701473585" stroke="#000"/>
<rect x="208.09090909090907" y="445.72423815122005" width="8.545454545454545" height="52.275761848779936" fill="orange" data-tooltip="1.36x baseline speed (YJIT)"/>
<line x1="208.09090909090907" y1="444.89293187227474" x2="216.63636363636363" y2="444.89293187227474" stroke="#000"/>
<line x1="208.09090909090907" y1="446.55554443016536" x2="216.63636363636363" y2="446.55554443016536" stroke="#000"/>
<line x1="212.36363636363635" y1="444.89293187227474" x2="212.36363636363635" y2="446.55554443016536" stroke="#000"/>
<line x1="212.36363636363635" y1="498.0" x2="212.36363636363635" y2="502.79999999999995" stroke="#000"/>
<text x="212.36363636363635" y="512.4" fill="#111" font-size="small" font-family="monospace" font-weight="bold" text-anchor="end" transform="rotate(-60, 212.36363636363635, 512.4)">
liquid-compile
</text>
<rect x="225.1818181818182" y="459.63681340204715" width="8.545454545454545" height="38.36318659795275" fill="#7070f8" data-tooltip="1.00x baseline speed (No JIT)"/>
<line x1="225.1818181818182" y1="459.10775554944803" x2="233.72727272727272" y2="459.10775554944803" stroke="#000"/>
<line x1="225.1818181818182" y1="460.1658712546463" x2="233.72727272727272" y2="460.1658712546463" stroke="#000"/>
<line x1="229.45454545454544" y1="459.10775554944803" x2="229.45454545454544" y2="460.1658712546463" stroke="#000"/>
<rect x="233.72727272727272" y="424.3843537733584" width="8.545454545454545" height="73.6156462266416" fill="orange" data-tooltip="1.92x baseline speed (YJIT)"/>
<line x1="233.72727272727272" y1="422.1068666128851" x2="242.27272727272728" y2="422.1068666128851" stroke="#000"/>
<line x1="233.72727272727272" y1="426.6618409338317" x2="242.27272727272728" y2="426.6618409338317" stroke="#000"/>
<line x1="238.0" y1="422.1068666128851" x2="238.0" y2="426.6618409338317" stroke="#000"/>
<line x1="238.0" y1="498.0" x2="238.0" y2="502.79999999999995" stroke="#000"/>
<text x="238.0" y="512.4" fill="#111" font-size="small" font-family="monospace" font-weight="bold" text-anchor="end" transform="rotate(-60, 238.0, 512.4)">
liquid-render
</text>
<rect x="250.81818181818184" y="459.63681340204715" width="8.545454545454545" height="38.36318659795275" fill="#7070f8" data-tooltip="1.00x baseline speed (No JIT)"/>
<line x1="250.81818181818184" y1="459.5860238014493" x2="259.3636363636364" y2="459.5860238014493" stroke="#000"/>
<line x1="250.81818181818184" y1="459.687603002645" x2="259.3636363636364" y2="459.687603002645" stroke="#000"/>
<line x1="255.0909090909091" y1="459.5860238014493" x2="255.0909090909091" y2="459.687603002645" stroke="#000"/>
<rect x="259.3636363636364" y="447.80444970055106" width="8.545454545454545" height="50.19555029944884" fill="orange" data-tooltip="1.31x baseline speed (YJIT)"/>
<line x1="259.3636363636364" y1="447.67510712873207" x2="267.9090909090909" y2="447.67510712873207" stroke="#000"/>
<line x1="259.3636363636364" y1="447.9337922723701" x2="267.9090909090909" y2="447.9337922723701" stroke="#000"/>
<line x1="263.6363636363636" y1="447.67510712873207" x2="263.6363636363636" y2="447.9337922723701" stroke="#000"/>
<line x1="263.6363636363637" y1="498.0" x2="263.6363636363637" y2="502.79999999999995" stroke="#000"/>
<text x="263.6363636363637" y="512.4" fill="#111" font-size="small" font-family="monospace" font-weight="bold" text-anchor="end" transform="rotate(-60, 263.6363636363637, 512.4)">
mail
</text>
<rect x="276.45454545454544" y="459.63681340204715" width="8.545454545454545" height="38.36318659795275" fill="#7070f8" data-tooltip="1.00x baseline speed (No JIT)"/>
<line x1="276.45454545454544" y1="459.60461470395995" x2="285.0" y2="459.60461470395995" stroke="#000"/>
<line x1="276.45454545454544" y1="459.66901210013435" x2="285.0" y2="459.66901210013435" stroke="#000"/>
<line x1="280.7272727272727" y1="459.60461470395995" x2="280.7272727272727" y2="459.66901210013435" stroke="#000"/>
<rect x="285.0" y="445.9111184843073" width="8.545454545454545" height="52.08888151569263" fill="orange" data-tooltip="1.36x baseline speed (YJIT)"/>
<line x1="285.0" y1="445.85198170826413" x2="293.5454545454545" y2="445.85198170826413" stroke="#000"/>
<line x1="285.0" y1="445.9702552603504" x2="293.5454545454545" y2="445.9702552603504" stroke="#000"/>
<line x1="289.27272727272725" y1="445.85198170826413" x2="289.27272727272725" y2="445.9702552603504" stroke="#000"/>
<line x1="289.2727272727273" y1="498.0" x2="289.2727272727273" y2="502.79999999999995" stroke="#000"/>
<text x="289.2727272727273" y="512.4" fill="#111" font-size="small" font-family="monospace" font-weight="bold" text-anchor="end" transform="rotate(-60, 289.2727272727273, 512.4)">
psych-load
</text>
<rect x="302.09090909090907" y="459.63681340204715" width="8.545454545454545" height="38.36318659795275" fill="#7070f8" data-tooltip="1.00x baseline speed (No JIT)"/>
<line x1="302.09090909090907" y1="459.35112790578916" x2="310.6363636363636" y2="459.35112790578916" stroke="#000"/>
<line x1="302.09090909090907" y1="459.9224988983052" x2="310.6363636363636" y2="459.9224988983052" stroke="#000"/>
<line x1="306.3636363636363" y1="459.35112790578916" x2="306.3636363636363" y2="459.9224988983052" stroke="#000"/>
<rect x="310.6363636363636" y="439.9811400750619" width="8.545454545454545" height="58.018859924938056" fill="orange" data-tooltip="1.51x baseline speed (YJIT)"/>
<line x1="310.6363636363636" y1="439.17496436963495" x2="319.18181818181813" y2="439.17496436963495" stroke="#000"/>
<line x1="310.6363636363636" y1="440.78731578048877" x2="319.18181818181813" y2="440.78731578048877" stroke="#000"/>
<line x1="314.9090909090909" y1="439.17496436963495" x2="314.9090909090909" y2="440.78731578048877" stroke="#000"/>
<line x1="314.90909090909093" y1="498.0" x2="314.90909090909093" y2="502.79999999999995" stroke="#000"/>
<text x="314.90909090909093" y="512.4" fill="#111" font-size="small" font-family="monospace" font-weight="bold" text-anchor="end" transform="rotate(-60, 314.90909090909093, 512.4)">
railsbench
</text>
<rect x="327.7272727272727" y="459.63681340204715" width="8.545454545454545" height="38.36318659795275" fill="#7070f8" data-tooltip="1.00x baseline speed (No JIT)"/>
<line x1="327.7272727272727" y1="456.42975388969984" x2="336.2727272727272" y2="456.42975388969984" stroke="#000"/>
<line x1="327.7272727272727" y1="462.8438729143945" x2="336.2727272727272" y2="462.8438729143945" stroke="#000"/>
<line x1="331.99999999999994" y1="456.42975388969984" x2="331.99999999999994" y2="462.8438729143945" stroke="#000"/>
<rect x="336.2727272727272" y="444.3028096891221" width="8.545454545454545" height="53.697190310877865" fill="orange" data-tooltip="1.40x baseline speed (YJIT)"/>
<line x1="336.2727272727272" y1="432.36823826940605" x2="344.81818181818176" y2="432.36823826940605" stroke="#000"/>
<line x1="336.2727272727272" y1="456.2373811088382" x2="344.81818181818176" y2="456.2373811088382" stroke="#000"/>
<line x1="340.5454545454545" y1="432.36823826940605" x2="340.5454545454545" y2="456.2373811088382" stroke="#000"/>
<line x1="340.54545454545456" y1="498.0" x2="340.54545454545456" y2="502.79999999999995" stroke="#000"/>
<text x="340.54545454545456" y="512.4" fill="#111" font-size="small" font-family="monospace" font-weight="bold" text-anchor="end" transform="rotate(-60, 340.54545454545456, 512.4)">
ruby-lsp
</text>
<rect x="353.3636363636363" y="459.63681340204715" width="8.545454545454545" height="38.36318659795275" fill="#7070f8" data-tooltip="1.00x baseline speed (No JIT)"/>
<line x1="353.3636363636363" y1="459.5648847061892" x2="361.9090909090908" y2="459.5648847061892" stroke="#000"/>
<line x1="353.3636363636363" y1="459.7087420979051" x2="361.9090909090908" y2="459.7087420979051" stroke="#000"/>
<line x1="357.63636363636357" y1="459.5648847061892" x2="357.63636363636357" y2="459.7087420979051" stroke="#000"/>
<rect x="361.9090909090908" y="449.2517589025772" width="8.545454545454545" height="48.74824109742271" fill="orange" data-tooltip="1.27x baseline speed (YJIT)"/>
<line x1="361.9090909090908" y1="449.10707382867076" x2="370.4545454545454" y2="449.10707382867076" stroke="#000"/>
<line x1="361.9090909090908" y1="449.3964439764836" x2="370.4545454545454" y2="449.3964439764836" stroke="#000"/>
<line x1="366.18181818181813" y1="449.10707382867076" x2="366.18181818181813" y2="449.3964439764836" stroke="#000"/>
<line x1="366.1818181818182" y1="498.0" x2="366.1818181818182" y2="502.79999999999995" stroke="#000"/>
<text x="366.1818181818182" y="512.4" fill="#111" font-size="small" font-family="monospace" font-weight="bold" text-anchor="end" transform="rotate(-60, 366.1818181818182, 512.4)">
sequel
</text>
<rect x="379.0" y="459.63681340204715" width="8.545454545454545" height="38.36318659795275" fill="#7070f8" data-tooltip="1.00x baseline speed (No JIT)"/>
<line x1="379.0" y1="459.42807200078335" x2="387.5454545454545" y2="459.42807200078335" stroke="#000"/>
<line x1="379.0" y1="459.84555480331096" x2="387.5454545454545" y2="459.84555480331096" stroke="#000"/>
<line x1="383.27272727272725" y1="459.42807200078335" x2="383.27272727272725" y2="459.84555480331096" stroke="#000"/>
<rect x="387.5454545454545" y="421.93742630407473" width="8.545454545454545" height="76.06257369592525" fill="orange" data-tooltip="1.98x baseline speed (YJIT)"/>
<line x1="387.5454545454545" y1="421.47072014906684" x2="396.09090909090907" y2="421.47072014906684" stroke="#000"/>
<line x1="387.5454545454545" y1="422.4041324590826" x2="396.09090909090907" y2="422.4041324590826" stroke="#000"/>
<line x1="391.8181818181818" y1="421.47072014906684" x2="391.8181818181818" y2="422.4041324590826" stroke="#000"/>
<line x1="391.81818181818187" y1="498.0" x2="391.81818181818187" y2="502.79999999999995" stroke="#000"/>
<text x="391.81818181818187" y="512.4" fill="#111" font-size="small" font-family="monospace" font-weight="bold" text-anchor="end" transform="rotate(-60, 391.81818181818187, 512.4)">
binarytrees
</text>
<rect x="404.63636363636357" y="459.63681340204715" width="8.545454545454545" height="38.36318659795275" fill="#7070f8" data-tooltip="1.00x baseline speed (No JIT)"/>
<line x1="404.63636363636357" y1="459.6123383411809" x2="413.1818181818181" y2="459.6123383411809" stroke="#000"/>
<line x1="404.63636363636357" y1="459.66128846291343" x2="413.1818181818181" y2="459.66128846291343" stroke="#000"/>
<line x1="408.9090909090908" y1="459.6123383411809" x2="408.9090909090908" y2="459.66128846291343" stroke="#000"/>
<rect x="413.1818181818181" y="437.4909470897846" width="8.545454545454545" height="60.50905291021541" fill="orange" data-tooltip="1.58x baseline speed (YJIT)"/>
<line x1="413.1818181818181" y1="437.4394312251511" x2="421.72727272727263" y2="437.4394312251511" stroke="#000"/>
<line x1="413.1818181818181" y1="437.54246295441806" x2="421.72727272727263" y2="437.54246295441806" stroke="#000"/>
<line x1="417.4545454545454" y1="437.4394312251511" x2="417.4545454545454" y2="437.54246295441806" stroke="#000"/>
<line x1="417.45454545454544" y1="498.0" x2="417.45454545454544" y2="502.79999999999995" stroke="#000"/>
<text x="417.45454545454544" y="512.4" fill="#111" font-size="small" font-family="monospace" font-weight="bold" text-anchor="end" transform="rotate(-60, 417.45454545454544, 512.4)">
chunky_png
</text>
<rect x="430.27272727272725" y="459.63681340204715" width="8.545454545454545" height="38.36318659795275" fill="#7070f8" data-tooltip="1.00x baseline speed (No JIT)"/>
<line x1="430.27272727272725" y1="459.3654701056014" x2="438.81818181818176" y2="459.3654701056014" stroke="#000"/>
<line x1="430.27272727272725" y1="459.9081566984929" x2="438.81818181818176" y2="459.9081566984929" stroke="#000"/>
<line x1="434.5454545454545" y1="459.3654701056014" x2="434.5454545454545" y2="459.9081566984929" stroke="#000"/>
<rect x="438.81818181818176" y="451.99743391896504" width="8.545454545454545" height="46.00256608103487" fill="orange" data-tooltip="1.20x baseline speed (YJIT)"/>
<line x1="438.81818181818176" y1="451.46543820828947" x2="447.3636363636363" y2="451.46543820828947" stroke="#000"/>
<line x1="438.81818181818176" y1="452.5294296296406" x2="447.3636363636363" y2="452.5294296296406" stroke="#000"/>
<line x1="443.090909090909" y1="451.46543820828947" x2="443.090909090909" y2="452.5294296296406" stroke="#000"/>
<line x1="443.09090909090907" y1="498.0" x2="443.09090909090907" y2="502.79999999999995" stroke="#000"/>
<text x="443.09090909090907" y="512.4" fill="#111" font-size="small" font-family="monospace" font-weight="bold" text-anchor="end" transform="rotate(-60, 443.09090909090907, 512.4)">
erubi
</text>
<rect x="455.90909090909093" y="459.63681340204715" width="8.545454545454545" height="38.36318659795275" fill="#7070f8" data-tooltip="1.00x baseline speed (No JIT)"/>
<line x1="455.90909090909093" y1="459.4570674863642" x2="464.45454545454544" y2="459.4570674863642" stroke="#000"/>
<line x1="455.90909090909093" y1="459.8165593177301" x2="464.45454545454544" y2="459.8165593177301" stroke="#000"/>
<line x1="460.1818181818182" y1="459.4570674863642" x2="460.1818181818182" y2="459.8165593177301" stroke="#000"/>
<rect x="464.45454545454544" y="459.5534541956337" width="8.545454545454545" height="38.44654580436619" fill="orange" data-tooltip="1.00x baseline speed (YJIT)"/>
<line x1="464.45454545454544" y1="459.3048871607768" x2="473.0" y2="459.3048871607768" stroke="#000"/>
<line x1="464.45454545454544" y1="459.8020212304907" x2="473.0" y2="459.8020212304907" stroke="#000"/>
<line x1="468.7272727272727" y1="459.3048871607768" x2="468.7272727272727" y2="459.8020212304907" stroke="#000"/>
<line x1="468.72727272727275" y1="498.0" x2="468.72727272727275" y2="502.79999999999995" stroke="#000"/>
<text x="468.72727272727275" y="512.4" fill="#111" font-size="small" font-family="monospace" font-weight="bold" text-anchor="end" transform="rotate(-60, 468.72727272727275, 512.4)">
etanni
</text>
<rect x="481.5454545454545" y="459.63681340204715" width="8.545454545454545" height="38.36318659795275" fill="#7070f8" data-tooltip="1.00x baseline speed (No JIT)"/>
<line x1="481.5454545454545" y1="459.60880756972176" x2="490.090909090909" y2="459.60880756972176" stroke="#000"/>
<line x1="481.5454545454545" y1="459.66481923437254" x2="490.090909090909" y2="459.66481923437254" stroke="#000"/>
<line x1="485.81818181818176" y1="459.60880756972176" x2="485.81818181818176" y2="459.66481923437254" stroke="#000"/>
<rect x="490.090909090909" y="392.08416099144256" width="8.545454545454545" height="105.9158390085574" fill="orange" data-tooltip="2.76x baseline speed (YJIT)"/>
<line x1="490.090909090909" y1="391.77064377545634" x2="498.63636363636357" y2="391.77064377545634" stroke="#000"/>
<line x1="490.090909090909" y1="392.39767820742884" x2="498.63636363636357" y2="392.39767820742884" stroke="#000"/>
<line x1="494.36363636363626" y1="391.77064377545634" x2="494.36363636363626" y2="392.39767820742884" stroke="#000"/>
<line x1="494.3636363636363" y1="498.0" x2="494.3636363636363" y2="502.79999999999995" stroke="#000"/>
<text x="494.3636363636363" y="512.4" fill="#111" font-size="small" font-family="monospace" font-weight="bold" text-anchor="end" transform="rotate(-60, 494.3636363636363, 512.4)">
fannkuchredux
</text>
<rect x="507.1818181818182" y="459.63681340204715" width="8.545454545454545" height="38.36318659795275" fill="#7070f8" data-tooltip="1.00x baseline speed (No JIT)"/>
<line x1="507.1818181818182" y1="459.5407054939159" x2="515.7272727272727" y2="459.5407054939159" stroke="#000"/>
<line x1="507.1818181818182" y1="459.7329213101784" x2="515.7272727272727" y2="459.7329213101784" stroke="#000"/>
<line x1="511.4545454545455" y1="459.5407054939159" x2="511.4545454545455" y2="459.7329213101784" stroke="#000"/>
<rect x="515.7272727272727" y="443.47979441922257" width="8.545454545454545" height="54.52020558077738" fill="orange" data-tooltip="1.42x baseline speed (YJIT)"/>
<line x1="515.7272727272727" y1="443.2512944908702" x2="524.2727272727273" y2="443.2512944908702" stroke="#000"/>
<line x1="515.7272727272727" y1="443.708294347575" x2="524.2727272727273" y2="443.708294347575" stroke="#000"/>
<line x1="520.0" y1="443.2512944908702" x2="520.0" y2="443.708294347575" stroke="#000"/>
<line x1="520.0" y1="498.0" x2="520.0" y2="502.79999999999995" stroke="#000"/>
<text x="520.0" y="512.4" fill="#111" font-size="small" font-family="monospace" font-weight="bold" text-anchor="end" transform="rotate(-60, 520.0, 512.4)">
lee
</text>
<rect x="532.8181818181818" y="459.63681340204715" width="8.545454545454545" height="38.36318659795275" fill="#7070f8" data-tooltip="1.00x baseline speed (No JIT)"/>
<line x1="532.8181818181818" y1="459.6097841776104" x2="541.3636363636363" y2="459.6097841776104" stroke="#000"/>
<line x1="532.8181818181818" y1="459.6638426264839" x2="541.3636363636363" y2="459.6638426264839" stroke="#000"/>
<line x1="537.090909090909" y1="459.6097841776104" x2="537.090909090909" y2="459.6638426264839" stroke="#000"/>
<rect x="541.3636363636363" y="439.86072860838436" width="8.545454545454545" height="58.13927139161557" fill="orange" data-tooltip="1.52x baseline speed (YJIT)"/>
<line x1="541.3636363636363" y1="439.80492096344653" x2="549.9090909090908" y2="439.80492096344653" stroke="#000"/>
<line x1="541.3636363636363" y1="439.9165362533222" x2="549.9090909090908" y2="439.9165362533222" stroke="#000"/>
<line x1="545.6363636363636" y1="439.80492096344653" x2="545.6363636363636" y2="439.9165362533222" stroke="#000"/>
<line x1="545.6363636363636" y1="498.0" x2="545.6363636363636" y2="502.79999999999995" stroke="#000"/>
<text x="545.6363636363636" y="512.4" fill="#111" font-size="small" font-family="monospace" font-weight="bold" text-anchor="end" transform="rotate(-60, 545.6363636363636, 512.4)">
nbody
</text>
<rect x="558.4545454545454" y="459.63681340204715" width="8.545454545454545" height="38.36318659795275" fill="#7070f8" data-tooltip="1.00x baseline speed (No JIT)"/>
<line x1="558.4545454545454" y1="459.4005676509472" x2="567.0" y2="459.4005676509472" stroke="#000"/>
<line x1="558.4545454545454" y1="459.8730591531471" x2="567.0" y2="459.8730591531471" stroke="#000"/>
<line x1="562.7272727272727" y1="459.4005676509472" x2="562.7272727272727" y2="459.8730591531471" stroke="#000"/>
<rect x="567.0" y="393.12188911894015" width="8.545454545454545" height="104.8781108810598" fill="orange" data-tooltip="2.73x baseline speed (YJIT)"/>
<line x1="567.0" y1="392.2056183356184" x2="575.5454545454545" y2="392.2056183356184" stroke="#000"/>
<line x1="567.0" y1="394.0381599022619" x2="575.5454545454545" y2="394.0381599022619" stroke="#000"/>
<line x1="571.2727272727273" y1="392.2056183356184" x2="571.2727272727273" y2="394.0381599022619" stroke="#000"/>
<line x1="571.2727272727273" y1="498.0" x2="571.2727272727273" y2="502.79999999999995" stroke="#000"/>
<text x="571.2727272727273" y="512.4" fill="#111" font-size="small" font-family="monospace" font-weight="bold" text-anchor="end" transform="rotate(-60, 571.2727272727273, 512.4)">
optcarrot
</text>
<rect x="584.0909090909091" y="459.63681340204715" width="8.545454545454545" height="38.36318659795275" fill="#7070f8" data-tooltip="1.00x baseline speed (No JIT)"/>
<line x1="584.0909090909091" y1="459.4817732096712" x2="592.6363636363636" y2="459.4817732096712" stroke="#000"/>
<line x1="584.0909090909091" y1="459.7918535944231" x2="592.6363636363636" y2="459.7918535944231" stroke="#000"/>
<line x1="588.3636363636364" y1="459.4817732096712" x2="588.3636363636364" y2="459.7918535944231" stroke="#000"/>
<rect x="592.6363636363636" y="453.0013387547683" width="8.545454545454545" height="44.99866124523157" fill="orange" data-tooltip="1.17x baseline speed (YJIT)"/>
<line x1="592.6363636363636" y1="452.71732830660113" x2="601.1818181818181" y2="452.71732830660113" stroke="#000"/>
<line x1="592.6363636363636" y1="453.2853492029355" x2="601.1818181818181" y2="453.2853492029355" stroke="#000"/>
<line x1="596.909090909091" y1="452.71732830660113" x2="596.909090909091" y2="453.2853492029355" stroke="#000"/>
<line x1="596.909090909091" y1="498.0" x2="596.909090909091" y2="502.79999999999995" stroke="#000"/>
<text x="596.909090909091" y="512.4" fill="#111" font-size="small" font-family="monospace" font-weight="bold" text-anchor="end" transform="rotate(-60, 596.909090909091, 512.4)">
ruby-json
</text>
<rect x="609.7272727272726" y="459.63681340204715" width="8.545454545454545" height="38.36318659795275" fill="#7070f8" data-tooltip="1.00x baseline speed (No JIT)"/>
<line x1="609.7272727272726" y1="459.4911153432813" x2="618.2727272727273" y2="459.4911153432813" stroke="#000"/>
<line x1="609.7272727272726" y1="459.78251146081305" x2="618.2727272727273" y2="459.78251146081305" stroke="#000"/>
<line x1="614.0" y1="459.4911153432813" x2="614.0" y2="459.78251146081305" stroke="#000"/>
<rect x="618.2727272727273" y="424.0971075997389" width="8.545454545454545" height="73.90289240026112" fill="orange" data-tooltip="1.93x baseline speed (YJIT)"/>
<line x1="618.2727272727273" y1="423.70501830595384" x2="626.8181818181818" y2="423.70501830595384" stroke="#000"/>
<line x1="618.2727272727273" y1="424.48919689352397" x2="626.8181818181818" y2="424.48919689352397" stroke="#000"/>
<line x1="622.5454545454545" y1="423.70501830595384" x2="622.5454545454545" y2="424.48919689352397" stroke="#000"/>
<line x1="622.5454545454545" y1="498.0" x2="622.5454545454545" y2="502.79999999999995" stroke="#000"/>
<text x="622.5454545454545" y="512.4" fill="#111" font-size="small" font-family="monospace" font-weight="bold" text-anchor="end" transform="rotate(-60, 622.5454545454545, 512.4)">
rubykon
</text>
<rect x="635.3636363636363" y="459.63681340204715" width="8.545454545454545" height="38.36318659795275" fill="#7070f8" data-tooltip="1.00x baseline speed (No JIT)"/>
<line x1="635.3636363636363" y1="459.6264330389661" x2="643.9090909090908" y2="459.6264330389661" stroke="#000"/>
<line x1="635.3636363636363" y1="459.6471937651282" x2="643.9090909090908" y2="459.6471937651282" stroke="#000"/>
<line x1="639.6363636363635" y1="459.6264330389661" x2="639.6363636363635" y2="459.6471937651282" stroke="#000"/>
<rect x="643.9090909090908" y="251.70339295954943" width="8.545454545454545" height="246.2966070404505" fill="orange" data-tooltip="6.42x baseline speed (YJIT)"/>
<line x1="643.9090909090908" y1="251.5384597822675" x2="652.4545454545453" y2="251.5384597822675" stroke="#000"/>
<line x1="643.9090909090908" y1="251.8683261368314" x2="652.4545454545453" y2="251.8683261368314" stroke="#000"/>
<line x1="648.1818181818181" y1="251.5384597822675" x2="648.1818181818181" y2="251.8683261368314" stroke="#000"/>
<line x1="648.1818181818181" y1="498.0" x2="648.1818181818181" y2="502.79999999999995" stroke="#000"/>
<text x="648.1818181818181" y="512.4" fill="#111" font-size="small" font-family="monospace" font-weight="bold" text-anchor="end" transform="rotate(-60, 648.1818181818181, 512.4)">
30k_ifelse
</text>
<rect x="660.9999999999999" y="459.63681340204715" width="8.545454545454545" height="38.36318659795275" fill="#7070f8" data-tooltip="1.00x baseline speed (No JIT)"/>
<line x1="660.9999999999999" y1="459.6332401795987" x2="669.5454545454544" y2="459.6332401795987" stroke="#000"/>
<line x1="660.9999999999999" y1="459.64038662449565" x2="669.5454545454544" y2="459.64038662449565" stroke="#000"/>
<line x1="665.2727272727273" y1="459.6332401795987" x2="665.2727272727273" y2="459.64038662449565" stroke="#000"/>
<rect x="669.5454545454544" y="183.764404831435" width="8.545454545454545" height="314.23559516856494" fill="orange" data-tooltip="8.19x baseline speed (YJIT)"/>
<line x1="669.5454545454544" y1="183.6652713274592" x2="678.090909090909" y2="183.6652713274592" stroke="#000"/>
<line x1="669.5454545454544" y1="183.8635383354108" x2="678.090909090909" y2="183.8635383354108" stroke="#000"/>
<line x1="673.8181818181818" y1="183.6652713274592" x2="673.8181818181818" y2="183.8635383354108" stroke="#000"/>
<line x1="673.8181818181818" y1="498.0" x2="673.8181818181818" y2="502.79999999999995" stroke="#000"/>
<text x="673.8181818181818" y="512.4" fill="#111" font-size="small" font-family="monospace" font-weight="bold" text-anchor="end" transform="rotate(-60, 673.8181818181818, 512.4)">
30k_methods
</text>
<rect x="686.6363636363636" y="459.63681340204715" width="8.545454545454545" height="38.36318659795275" fill="#7070f8" data-tooltip="1.00x baseline speed (No JIT)"/>
<line x1="686.6363636363636" y1="459.49295739358286" x2="695.1818181818181" y2="459.49295739358286" stroke="#000"/>
<line x1="686.6363636363636" y1="459.78066941051145" x2="695.1818181818181" y2="459.78066941051145" stroke="#000"/>
<line x1="690.9090909090909" y1="459.49295739358286" x2="690.9090909090909" y2="459.78066941051145" stroke="#000"/>
<rect x="695.1818181818181" y="390.88778009340444" width="8.545454545454545" height="107.11221990659551" fill="orange" data-tooltip="2.79x baseline speed (YJIT)"/>
<line x1="695.1818181818181" y1="390.2261010414884" x2="703.7272727272726" y2="390.2261010414884" stroke="#000"/>
<line x1="695.1818181818181" y1="391.54945914532044" x2="703.7272727272726" y2="391.54945914532044" stroke="#000"/>
<line x1="699.4545454545455" y1="390.2261010414884" x2="699.4545454545455" y2="391.54945914532044" stroke="#000"/>
<line x1="699.4545454545455" y1="498.0" x2="699.4545454545455" y2="502.79999999999995" stroke="#000"/>
<text x="699.4545454545455" y="512.4" fill="#111" font-size="small" font-family="monospace" font-weight="bold" text-anchor="end" transform="rotate(-60, 699.4545454545455, 512.4)">
cfunc_itself
</text>
<rect x="712.2727272727271" y="459.63681340204715" width="8.545454545454545" height="38.36318659795275" fill="#7070f8" data-tooltip="1.00x baseline speed (No JIT)"/>
<line x1="712.2727272727271" y1="459.39895802848974" x2="720.8181818181816" y2="459.39895802848974" stroke="#000"/>
<line x1="712.2727272727271" y1="459.87466877560456" x2="720.8181818181816" y2="459.87466877560456" stroke="#000"/>
<line x1="716.5454545454545" y1="459.39895802848974" x2="716.5454545454545" y2="459.87466877560456" stroke="#000"/>
<rect x="720.8181818181816" y="304.9691666183163" width="8.545454545454545" height="193.0308333816836" fill="orange" data-tooltip="5.03x baseline speed (YJIT)"/>
<line x1="720.8181818181816" y1="303.7682935337579" x2="729.3636363636363" y2="303.7682935337579" stroke="#000"/>
<line x1="720.8181818181816" y1="306.1700397028747" x2="729.3636363636363" y2="306.1700397028747" stroke="#000"/>
<line x1="725.090909090909" y1="303.7682935337579" x2="725.090909090909" y2="306.1700397028747" stroke="#000"/>
<line x1="725.090909090909" y1="498.0" x2="725.090909090909" y2="502.79999999999995" stroke="#000"/>
<text x="725.090909090909" y="512.4" fill="#111" font-size="small" font-family="monospace" font-weight="bold" text-anchor="end" transform="rotate(-60, 725.090909090909, 512.4)">
fib
</text>
<rect x="737.9090909090909" y="459.63681340204715" width="8.545454545454545" height="38.36318659795275" fill="#7070f8" data-tooltip="1.00x baseline speed (No JIT)"/>
<line x1="737.9090909090909" y1="459.54227604710235" x2="746.4545454545454" y2="459.54227604710235" stroke="#000"/>
<line x1="737.9090909090909" y1="459.73135075699196" x2="746.4545454545454" y2="459.73135075699196" stroke="#000"/>
<line x1="742.1818181818181" y1="459.54227604710235" x2="742.1818181818181" y2="459.73135075699196" stroke="#000"/>
<rect x="746.4545454545454" y="290.6240935457569" width="8.545454545454545" height="207.37590645424305" fill="orange" data-tooltip="5.41x baseline speed (YJIT)"/>
<line x1="746.4545454545454" y1="290.0304053095506" x2="754.9999999999999" y2="290.0304053095506" stroke="#000"/>
<line x1="746.4545454545454" y1="291.2177817819632" x2="754.9999999999999" y2="291.2177817819632" stroke="#000"/>
<line x1="750.7272727272726" y1="290.0304053095506" x2="750.7272727272726" y2="291.2177817819632" stroke="#000"/>
<line x1="750.7272727272726" y1="498.0" x2="750.7272727272726" y2="502.79999999999995" stroke="#000"/>
<text x="750.7272727272726" y="512.4" fill="#111" font-size="small" font-family="monospace" font-weight="bold" text-anchor="end" transform="rotate(-60, 750.7272727272726, 512.4)">
getivar
</text>
<rect x="763.5454545454544" y="459.63681340204715" width="8.545454545454545" height="38.36318659795275" fill="#7070f8" data-tooltip="1.00x baseline speed (No JIT)"/>
<line x1="763.5454545454544" y1="459.579549338931" x2="772.0909090909089" y2="459.579549338931" stroke="#000"/>
<line x1="763.5454545454544" y1="459.6940774651634" x2="772.0909090909089" y2="459.6940774651634" stroke="#000"/>
<line x1="767.8181818181818" y1="459.579549338931" x2="767.8181818181818" y2="459.6940774651634" stroke="#000"/>
<rect x="772.0909090909089" y="276.24476657816325" width="8.545454545454545" height="221.7552334218367" fill="orange" data-tooltip="5.78x baseline speed (YJIT)"/>
<line x1="772.0909090909089" y1="275.8333255939626" x2="780.6363636363635" y2="275.8333255939626" stroke="#000"/>
<line x1="772.0909090909089" y1="276.6562075623639" x2="780.6363636363635" y2="276.6562075623639" stroke="#000"/>
<line x1="776.3636363636363" y1="275.8333255939626" x2="776.3636363636363" y2="276.6562075623639" stroke="#000"/>
<line x1="776.3636363636363" y1="498.0" x2="776.3636363636363" y2="502.79999999999995" stroke="#000"/>
<text x="776.3636363636363" y="512.4" fill="#111" font-size="small" font-family="monospace" font-weight="bold" text-anchor="end" transform="rotate(-60, 776.3636363636363, 512.4)">
keyword_args
</text>
<rect x="789.1818181818181" y="459.63681340204715" width="8.545454545454545" height="38.36318659795275" fill="#7070f8" data-tooltip="1.00x baseline speed (No JIT)"/>
<line x1="789.1818181818181" y1="459.5041918242203" x2="797.7272727272726" y2="459.5041918242203" stroke="#000"/>
<line x1="789.1818181818181" y1="459.76943497987406" x2="797.7272727272726" y2="459.76943497987406" stroke="#000"/>
<line x1="793.4545454545454" y1="459.5041918242203" x2="793.4545454545454" y2="459.76943497987406" stroke="#000"/>
<rect x="797.7272727272726" y="100.19999999999999" width="8.545454545454545" height="397.79999999999995" fill="orange" data-tooltip="10.37x baseline speed (YJIT)"/>
<line x1="797.7272727272726" y1="95.9969361744174" x2="806.2727272727271" y2="95.9969361744174" stroke="#000"/>
<line x1="797.7272727272726" y1="104.40306382558258" x2="806.2727272727271" y2="104.40306382558258" stroke="#000"/>
<line x1="801.9999999999999" y1="95.9969361744174" x2="801.9999999999999" y2="104.40306382558258" stroke="#000"/>
<line x1="801.9999999999999" y1="498.0" x2="801.9999999999999" y2="502.79999999999995" stroke="#000"/>
<text x="801.9999999999999" y="512.4" fill="#111" font-size="small" font-family="monospace" font-weight="bold" text-anchor="end" transform="rotate(-60, 801.9999999999999, 512.4)">
respond_to
</text>
<rect x="814.8181818181818" y="459.63681340204715" width="8.545454545454545" height="38.36318659795275" fill="#7070f8" data-tooltip="1.00x baseline speed (No JIT)"/>
<line x1="814.8181818181818" y1="459.56551973098476" x2="823.3636363636363" y2="459.56551973098476" stroke="#000"/>
<line x1="814.8181818181818" y1="459.70810707310955" x2="823.3636363636363" y2="459.70810707310955" stroke="#000"/>
<line x1="819.0909090909091" y1="459.56551973098476" x2="819.0909090909091" y2="459.70810707310955" stroke="#000"/>
<rect x="823.3636363636363" y="248.26226537404278" width="8.545454545454545" height="249.73773462595713" fill="orange" data-tooltip="6.51x baseline speed (YJIT)"/>
<line x1="823.3636363636363" y1="247.75133509642296" x2="831.9090909090908" y2="247.75133509642296" stroke="#000"/>
<line x1="823.3636363636363" y1="248.7731956516626" x2="831.9090909090908" y2="248.7731956516626" stroke="#000"/>
<line x1="827.6363636363636" y1="247.75133509642296" x2="827.6363636363636" y2="248.7731956516626" stroke="#000"/>
<line x1="827.6363636363636" y1="498.0" x2="827.6363636363636" y2="502.79999999999995" stroke="#000"/>
<text x="827.6363636363636" y="512.4" fill="#111" font-size="small" font-family="monospace" font-weight="bold" text-anchor="end" transform="rotate(-60, 827.6363636363636, 512.4)">
setivar
</text>
<rect x="840.4545454545454" y="459.63681340204715" width="8.545454545454545" height="38.36318659795275" fill="#7070f8" data-tooltip="1.00x baseline speed (No JIT)"/>
<line x1="840.4545454545454" y1="458.67360509789626" x2="848.9999999999999" y2="458.67360509789626" stroke="#000"/>
<line x1="840.4545454545454" y1="460.60002170619805" x2="848.9999999999999" y2="460.60002170619805" stroke="#000"/>
<line x1="844.7272727272726" y1="458.67360509789626" x2="844.7272727272726" y2="460.60002170619805" stroke="#000"/>
<rect x="848.9999999999999" y="406.9431466590782" width="8.545454545454545" height="91.05685334092179" fill="orange" data-tooltip="2.37x baseline speed (YJIT)"/>
<line x1="848.9999999999999" y1="402.3625057677556" x2="857.5454545454544" y2="402.3625057677556" stroke="#000"/>
<line x1="848.9999999999999" y1="411.52378755040075" x2="857.5454545454544" y2="411.52378755040075" stroke="#000"/>
<line x1="853.2727272727271" y1="402.3625057677556" x2="853.2727272727271" y2="411.52378755040075" stroke="#000"/>
<line x1="853.2727272727271" y1="498.0" x2="853.2727272727271" y2="502.79999999999995" stroke="#000"/>
<text x="853.2727272727271" y="512.4" fill="#111" font-size="small" font-family="monospace" font-weight="bold" text-anchor="end" transform="rotate(-60, 853.2727272727271, 512.4)">
setivar_object
</text>
<rect x="866.090909090909" y="459.63681340204715" width="8.545454545454545" height="38.36318659795275" fill="#7070f8" data-tooltip="1.00x baseline speed (No JIT)"/>
<line x1="866.090909090909" y1="459.52577010594115" x2="874.6363636363635" y2="459.52577010594115" stroke="#000"/>
<line x1="866.090909090909" y1="459.7478566981532" x2="874.6363636363635" y2="459.7478566981532" stroke="#000"/>
<line x1="870.3636363636364" y1="459.52577010594115" x2="870.3636363636364" y2="459.7478566981532" stroke="#000"/>
<rect x="874.6363636363635" y="403.9646854859207" width="8.545454545454545" height="94.03531451407925" fill="orange" data-tooltip="2.45x baseline speed (YJIT)"/>
<line x1="874.6363636363635" y1="401.88990123001145" x2="883.181818181818" y2="401.88990123001145" stroke="#000"/>
<line x1="874.6363636363635" y1="406.03946974183003" x2="883.181818181818" y2="406.03946974183003" stroke="#000"/>
<line x1="878.9090909090909" y1="401.88990123001145" x2="878.9090909090909" y2="406.03946974183003" stroke="#000"/>
<line x1="878.9090909090909" y1="498.0" x2="878.9090909090909" y2="502.79999999999995" stroke="#000"/>
<text x="878.9090909090909" y="512.4" fill="#111" font-size="small" font-family="monospace" font-weight="bold" text-anchor="end" transform="rotate(-60, 878.9090909090909, 512.4)">
setivar_young
</text>
<rect x="891.7272727272726" y="459.63681340204715" width="8.545454545454545" height="38.36318659795275" fill="#7070f8" data-tooltip="1.00x baseline speed (No JIT)"/>
<line x1="891.7272727272726" y1="459.36217164911744" x2="900.2727272727271" y2="459.36217164911744" stroke="#000"/>
<line x1="891.7272727272726" y1="459.91145515497686" x2="900.2727272727271" y2="459.91145515497686" stroke="#000"/>
<line x1="895.9999999999999" y1="459.36217164911744" x2="895.9999999999999" y2="459.91145515497686" stroke="#000"/>
<rect x="900.2727272727271" y="423.1545009783119" width="8.545454545454545" height="74.84549902168798" fill="orange" data-tooltip="1.95x baseline speed (YJIT)"/>
<line x1="900.2727272727271" y1="421.75089022158807" x2="908.8181818181816" y2="421.75089022158807" stroke="#000"/>
<line x1="900.2727272727271" y1="424.5581117350357" x2="908.8181818181816" y2="424.5581117350357" stroke="#000"/>
<line x1="904.5454545454544" y1="421.75089022158807" x2="904.5454545454544" y2="424.5581117350357" stroke="#000"/>
<line x1="904.5454545454544" y1="498.0" x2="904.5454545454544" y2="502.79999999999995" stroke="#000"/>
<text x="904.5454545454544" y="512.4" fill="#111" font-size="small" font-family="monospace" font-weight="bold" text-anchor="end" transform="rotate(-60, 904.5454545454544, 512.4)">
str_concat
</text>
<rect x="917.3636363636363" y="459.63681340204715" width="8.545454545454545" height="38.36318659795275" fill="#7070f8" data-tooltip="1.00x baseline speed (No JIT)"/>
<line x1="917.3636363636363" y1="459.5632055851667" x2="925.9090909090908" y2="459.5632055851667" stroke="#000"/>
<line x1="917.3636363636363" y1="459.7104212189276" x2="925.9090909090908" y2="459.7104212189276" stroke="#000"/>
<line x1="921.6363636363636" y1="459.5632055851667" x2="921.6363636363636" y2="459.7104212189276" stroke="#000"/>
<rect x="925.9090909090908" y="452.4916876578618" width="8.545454545454545" height="45.50831234213813" fill="orange" data-tooltip="1.19x baseline speed (YJIT)"/>
<line x1="925.9090909090908" y1="452.3557441048767" x2="934.4545454545453" y2="452.3557441048767" stroke="#000"/>
<line x1="925.9090909090908" y1="452.62763121084686" x2="934.4545454545453" y2="452.62763121084686" stroke="#000"/>
<line x1="930.1818181818181" y1="452.3557441048767" x2="930.1818181818181" y2="452.62763121084686" stroke="#000"/>
<line x1="930.1818181818181" y1="498.0" x2="930.1818181818181" y2="502.79999999999995" stroke="#000"/>
<text x="930.1818181818181" y="512.4" fill="#111" font-size="small" font-family="monospace" font-weight="bold" text-anchor="end" transform="rotate(-60, 930.1818181818181, 512.4)">
throw
</text>
</svg>