<svg viewBox="0 0 1000 600" xmlns="http://www.w3.org/2000/svg" xmlns:xlink="http://www.w3.org/1999/xlink" width="100%" height="100%">

<rect x="50.0" y="30.0" width="940.0" height="467.99999999999994" stroke="#000" fill="#EEE"/>
<line x1="42.0" y1="497.9999999999999" x2="50.0" y2="497.9999999999999" stroke="#000"/>
<text x="26.000000000000004" y="497.9999999999999" text-anchor="end" font-weight="bold" font-size="small" fill="#111">
0.0
</text>
<line x1="42.0" y1="438.70028651391357" x2="50.0" y2="438.70028651391357" stroke="#000"/>
<text x="26.000000000000004" y="438.70028651391357" text-anchor="end" font-weight="bold" font-size="small" fill="#111">
1.0
</text>
<line x1="42.0" y1="379.4005730278271" x2="50.0" y2="379.4005730278271" stroke="#000"/>
<text x="26.000000000000004" y="379.4005730278271" text-anchor="end" font-weight="bold" font-size="small" fill="#111">
2.0
</text>
<line x1="42.0" y1="320.1008595417407" x2="50.0" y2="320.1008595417407" stroke="#000"/>
<text x="26.000000000000004" y="320.1008595417407" text-anchor="end" font-weight="bold" font-size="small" fill="#111">
3.0
</text>
<line x1="42.0" y1="260.8011460556542" x2="50.0" y2="260.8011460556542" stroke="#000"/>
<text x="26.000000000000004" y="260.8011460556542" text-anchor="end" font-weight="bold" font-size="small" fill="#111">
4.0
</text>
<line x1="42.0" y1="201.50143256956784" x2="50.0" y2="201.50143256956784" stroke="#000"/>
<text x="26.000000000000004" y="201.50143256956784" text-anchor="end" font-weight="bold" font-size="small" fill="#111">
5.0
</text>
<line x1="42.0" y1="142.20171908348144" x2="50.0" y2="142.20171908348144" stroke="#000"/>
<text x="26.000000000000004" y="142.20171908348144" text-anchor="end" font-weight="bold" font-size="small" fill="#111">
6.0
</text>
<rect x="268.5" y="36.00000000000001" width="80.0" height="18.0" fill="#7070f8" stroke="#888"/>
<text x="308.5" y="52.50000000000001" font-size="small" text-anchor="middle" font-weight="bold" fill="#EEE">
No JIT
</text>
<rect x="691.4999999999999" y="36.00000000000001" width="80.0" height="18.0" fill="orange" stroke="#888"/>
<text x="731.4999999999999" y="52.50000000000001" font-size="small" text-anchor="middle" font-weight="bold" fill="#EEE">
YJIT
</text>
<rect x="97.0" y="438.70028651391357" width="10.846153846153845" height="59.299713486086425" fill="#7070f8" data-tooltip="1.00x baseline speed (No JIT)"/>
<line x1="97.0" y1="438.6421531616644" x2="107.84615384615384" y2="438.6421531616644" stroke="#000"/>
<line x1="97.0" y1="438.75841986616274" x2="107.84615384615384" y2="438.75841986616274" stroke="#000"/>
<line x1="102.42307692307692" y1="438.6421531616644" x2="102.42307692307692" y2="438.75841986616274" stroke="#000"/>
<rect x="107.84615384615384" y="427.9654026796911" width="10.846153846153845" height="70.03459732030875" fill="orange" data-tooltip="1.18x baseline speed (YJIT)"/>
<line x1="107.84615384615384" y1="427.83841789873543" x2="118.69230769230768" y2="427.83841789873543" stroke="#000"/>
<line x1="107.84615384615384" y1="428.0923874606468" x2="118.69230769230768" y2="428.0923874606468" stroke="#000"/>
<line x1="113.26923076923076" y1="427.83841789873543" x2="113.26923076923076" y2="428.0923874606468" stroke="#000"/>
<line x1="113.26923076923077" y1="498.0" x2="113.26923076923077" y2="502.79999999999995" stroke="#000"/>
<text x="113.26923076923077" y="512.4" fill="#111" font-size="small" font-family="monospace" font-weight="bold" text-anchor="end" transform="rotate(-60, 113.26923076923077, 512.4)">
activerecord
</text>
<rect x="129.53846153846155" y="438.70028651391357" width="10.846153846153845" height="59.299713486086425" fill="#7070f8" data-tooltip="1.00x baseline speed (No JIT)"/>
<line x1="129.53846153846155" y1="438.074195086787" x2="140.3846153846154" y2="438.074195086787" stroke="#000"/>
<line x1="129.53846153846155" y1="439.32637794104016" x2="140.3846153846154" y2="439.32637794104016" stroke="#000"/>
<line x1="134.96153846153845" y1="438.074195086787" x2="134.96153846153845" y2="439.32637794104016" stroke="#000"/>
<rect x="140.3846153846154" y="430.0362018556657" width="10.846153846153845" height="67.9637981443342" fill="orange" data-tooltip="1.15x baseline speed (YJIT)"/>
<line x1="140.3846153846154" y1="428.64113455750385" x2="151.23076923076923" y2="428.64113455750385" stroke="#000"/>
<line x1="140.3846153846154" y1="431.43126915382754" x2="151.23076923076923" y2="431.43126915382754" stroke="#000"/>
<line x1="145.8076923076923" y1="428.64113455750385" x2="145.8076923076923" y2="431.43126915382754" stroke="#000"/>
<line x1="145.8076923076923" y1="498.0" x2="145.8076923076923" y2="502.79999999999995" stroke="#000"/>
<text x="145.8076923076923" y="512.4" fill="#111" font-size="small" font-family="monospace" font-weight="bold" text-anchor="end" transform="rotate(-60, 145.8076923076923, 512.4)">
hexapdf
</text>
<rect x="162.07692307692307" y="438.70028651391357" width="10.846153846153845" height="59.299713486086425" fill="#7070f8" data-tooltip="1.00x baseline speed (No JIT)"/>
<line x1="162.07692307692307" y1="438.21880776909836" x2="172.9230769230769" y2="438.21880776909836" stroke="#000"/>
<line x1="162.07692307692307" y1="439.1817652587288" x2="172.9230769230769" y2="439.1817652587288" stroke="#000"/>
<line x1="167.49999999999997" y1="438.21880776909836" x2="167.49999999999997" y2="439.1817652587288" stroke="#000"/>
<rect x="172.9230769230769" y="426.85900500284936" width="10.846153846153845" height="71.14099499715059" fill="orange" data-tooltip="1.20x baseline speed (YJIT)"/>
<line x1="172.9230769230769" y1="426.02613992976325" x2="183.76923076923075" y2="426.02613992976325" stroke="#000"/>
<line x1="172.9230769230769" y1="427.6918700759354" x2="183.76923076923075" y2="427.6918700759354" stroke="#000"/>
<line x1="178.3461538461538" y1="426.02613992976325" x2="178.3461538461538" y2="427.6918700759354" stroke="#000"/>
<line x1="178.3461538461538" y1="498.0" x2="178.3461538461538" y2="502.79999999999995" stroke="#000"/>
<text x="178.3461538461538" y="512.4" fill="#111" font-size="small" font-family="monospace" font-weight="bold" text-anchor="end" transform="rotate(-60, 178.3461538461538, 512.4)">
liquid-render
</text>
<rect x="194.6153846153846" y="438.70028651391357" width="10.846153846153845" height="59.299713486086425" fill="#7070f8" data-tooltip="1.00x baseline speed (No JIT)"/>
<line x1="194.6153846153846" y1="438.6401947923577" x2="205.46153846153845" y2="438.6401947923577" stroke="#000"/>
<line x1="194.6153846153846" y1="438.76037823546943" x2="205.46153846153845" y2="438.76037823546943" stroke="#000"/>
<line x1="200.03846153846152" y1="438.6401947923577" x2="200.03846153846152" y2="438.76037823546943" stroke="#000"/>
<rect x="205.46153846153845" y="445.2534693434046" width="10.846153846153845" height="52.74653065659537" fill="orange" data-tooltip="0.89x baseline speed (YJIT)"/>
<line x1="205.46153846153845" y1="444.9719178545799" x2="216.3076923076923" y2="444.9719178545799" stroke="#000"/>
<line x1="205.46153846153845" y1="445.53502083222935" x2="216.3076923076923" y2="445.53502083222935" stroke="#000"/>
<line x1="210.88461538461536" y1="444.9719178545799" x2="210.88461538461536" y2="445.53502083222935" stroke="#000"/>
<line x1="210.88461538461536" y1="498.0" x2="210.88461538461536" y2="502.79999999999995" stroke="#000"/>
<text x="210.88461538461536" y="512.4" fill="#111" font-size="small" font-family="monospace" font-weight="bold" text-anchor="end" transform="rotate(-60, 210.88461538461536, 512.4)">
mail
</text>
<rect x="227.15384615384616" y="438.70028651391357" width="10.846153846153845" height="59.299713486086425" fill="#7070f8" data-tooltip="1.00x baseline speed (No JIT)"/>
<line x1="227.15384615384616" y1="438.6556771308942" x2="238.0" y2="438.6556771308942" stroke="#000"/>
<line x1="227.15384615384616" y1="438.7448958969329" x2="238.0" y2="438.7448958969329" stroke="#000"/>
<line x1="232.57692307692307" y1="438.6556771308942" x2="232.57692307692307" y2="438.7448958969329" stroke="#000"/>
<rect x="238.0" y="421.924319523561" width="10.846153846153845" height="76.07568047643888" fill="orange" data-tooltip="1.28x baseline speed (YJIT)"/>
<line x1="238.0" y1="421.83763295096844" x2="248.84615384615384" y2="421.83763295096844" stroke="#000"/>
<line x1="238.0" y1="422.01100609615355" x2="248.84615384615384" y2="422.01100609615355" stroke="#000"/>
<line x1="243.4230769230769" y1="421.83763295096844" x2="243.4230769230769" y2="422.01100609615355" stroke="#000"/>
<line x1="243.4230769230769" y1="498.0" x2="243.4230769230769" y2="502.79999999999995" stroke="#000"/>
<text x="243.4230769230769" y="512.4" fill="#111" font-size="small" font-family="monospace" font-weight="bold" text-anchor="end" transform="rotate(-60, 243.4230769230769, 512.4)">
psych-load
</text>
<rect x="259.6923076923077" y="438.70028651391357" width="10.846153846153845" height="59.299713486086425" fill="#7070f8" data-tooltip="1.00x baseline speed (No JIT)"/>
<line x1="259.6923076923077" y1="438.4949531182805" x2="270.5384615384615" y2="438.4949531182805" stroke="#000"/>
<line x1="259.6923076923077" y1="438.90561990954666" x2="270.5384615384615" y2="438.90561990954666" stroke="#000"/>
<line x1="265.1153846153846" y1="438.4949531182805" x2="265.1153846153846" y2="438.90561990954666" stroke="#000"/>
<rect x="270.5384615384615" y="428.7398184632042" width="10.846153846153845" height="69.2601815367957" fill="orange" data-tooltip="1.17x baseline speed (YJIT)"/>
<line x1="270.5384615384615" y1="428.3977847289025" x2="281.38461538461536" y2="428.3977847289025" stroke="#000"/>
<line x1="270.5384615384615" y1="429.08185219750595" x2="281.38461538461536" y2="429.08185219750595" stroke="#000"/>
<line x1="275.96153846153845" y1="428.3977847289025" x2="275.96153846153845" y2="429.08185219750595" stroke="#000"/>
<line x1="275.96153846153845" y1="498.0" x2="275.96153846153845" y2="502.79999999999995" stroke="#000"/>
<text x="275.96153846153845" y="512.4" fill="#111" font-size="small" font-family="monospace" font-weight="bold" text-anchor="end" transform="rotate(-60, 275.96153846153845, 512.4)">
railsbench
</text>
<rect x="292.23076923076917" y="438.70028651391357" width="10.846153846153845" height="59.299713486086425" fill="#7070f8" data-tooltip="1.00x baseline speed (No JIT)"/>
<line x1="292.23076923076917" y1="434.6097520132581" x2="303.07692307692304" y2="434.6097520132581" stroke="#000"/>
<line x1="292.23076923076917" y1="442.7908210145691" x2="303.07692307692304" y2="442.7908210145691" stroke="#000"/>
<line x1="297.6538461538461" y1="434.6097520132581" x2="297.6538461538461" y2="442.7908210145691" stroke="#000"/>
<rect x="303.07692307692304" y="437.6627551088463" width="10.846153846153845" height="60.33724489115361" fill="orange" data-tooltip="1.02x baseline speed (YJIT)"/>
<line x1="303.07692307692304" y1="429.96501612021046" x2="313.92307692307685" y2="429.96501612021046" stroke="#000"/>
<line x1="303.07692307692304" y1="445.3604940974821" x2="313.92307692307685" y2="445.3604940974821" stroke="#000"/>
<line x1="308.49999999999994" y1="429.96501612021046" x2="308.49999999999994" y2="445.3604940974821" stroke="#000"/>
<line x1="308.49999999999994" y1="498.0" x2="308.49999999999994" y2="502.79999999999995" stroke="#000"/>
<text x="308.49999999999994" y="512.4" fill="#111" font-size="small" font-family="monospace" font-weight="bold" text-anchor="end" transform="rotate(-60, 308.49999999999994, 512.4)">
ruby-lsp
</text>
<rect x="324.7692307692308" y="438.70028651391357" width="10.846153846153845" height="59.299713486086425" fill="#7070f8" data-tooltip="1.00x baseline speed (No JIT)"/>
<line x1="324.7692307692308" y1="438.64829657316346" x2="335.6153846153846" y2="438.64829657316346" stroke="#000"/>
<line x1="324.7692307692308" y1="438.7522764546637" x2="335.6153846153846" y2="438.7522764546637" stroke="#000"/>
<line x1="330.1923076923077" y1="438.64829657316346" x2="330.1923076923077" y2="438.7522764546637" stroke="#000"/>
<rect x="335.6153846153846" y="385.8376603870308" width="10.846153846153845" height="112.16233961296923" fill="orange" data-tooltip="1.89x baseline speed (YJIT)"/>
<line x1="335.6153846153846" y1="385.67160431160323" x2="346.46153846153845" y2="385.67160431160323" stroke="#000"/>
<line x1="335.6153846153846" y1="386.0037164624583" x2="346.46153846153845" y2="386.0037164624583" stroke="#000"/>
<line x1="341.0384615384615" y1="385.67160431160323" x2="341.0384615384615" y2="386.0037164624583" stroke="#000"/>
<line x1="341.0384615384615" y1="498.0" x2="341.0384615384615" y2="502.79999999999995" stroke="#000"/>
<text x="341.0384615384615" y="512.4" fill="#111" font-size="small" font-family="monospace" font-weight="bold" text-anchor="end" transform="rotate(-60, 341.0384615384615, 512.4)">
binarytrees
</text>
<rect x="357.3076923076923" y="438.70028651391357" width="10.846153846153845" height="59.299713486086425" fill="#7070f8" data-tooltip="1.00x baseline speed (No JIT)"/>
<line x1="357.3076923076923" y1="438.4630970770609" x2="368.1538461538462" y2="438.4630970770609" stroke="#000"/>
<line x1="357.3076923076923" y1="438.9374759507662" x2="368.1538461538462" y2="438.9374759507662" stroke="#000"/>
<line x1="362.7307692307692" y1="438.4630970770609" x2="362.7307692307692" y2="438.9374759507662" stroke="#000"/>
<rect x="368.1538461538462" y="408.3944175446642" width="10.846153846153845" height="89.60558245533575" fill="orange" data-tooltip="1.51x baseline speed (YJIT)"/>
<line x1="368.1538461538462" y1="408.02600153642294" x2="379.0" y2="408.02600153642294" stroke="#000"/>
<line x1="368.1538461538462" y1="408.7628335529055" x2="379.0" y2="408.7628335529055" stroke="#000"/>
<line x1="373.5769230769231" y1="408.02600153642294" x2="373.5769230769231" y2="408.7628335529055" stroke="#000"/>
<line x1="373.5769230769231" y1="498.0" x2="373.5769230769231" y2="502.79999999999995" stroke="#000"/>
<text x="373.5769230769231" y="512.4" fill="#111" font-size="small" font-family="monospace" font-weight="bold" text-anchor="end" transform="rotate(-60, 373.5769230769231, 512.4)">
chunky_png
</text>
<rect x="389.84615384615387" y="438.70028651391357" width="10.846153846153845" height="59.299713486086425" fill="#7070f8" data-tooltip="1.00x baseline speed (No JIT)"/>
<line x1="389.84615384615387" y1="438.29700761309726" x2="400.6923076923077" y2="438.29700761309726" stroke="#000"/>
<line x1="389.84615384615387" y1="439.10356541472987" x2="400.6923076923077" y2="439.10356541472987" stroke="#000"/>
<line x1="395.2692307692308" y1="438.29700761309726" x2="395.2692307692308" y2="439.10356541472987" stroke="#000"/>
<rect x="400.6923076923077" y="431.90453177040973" width="10.846153846153845" height="66.09546822959025" fill="orange" data-tooltip="1.11x baseline speed (YJIT)"/>
<line x1="400.6923076923077" y1="431.17710678946213" x2="411.53846153846155" y2="431.17710678946213" stroke="#000"/>
<line x1="400.6923076923077" y1="432.63195675135734" x2="411.53846153846155" y2="432.63195675135734" stroke="#000"/>
<line x1="406.1153846153846" y1="431.17710678946213" x2="406.1153846153846" y2="432.63195675135734" stroke="#000"/>
<line x1="406.1153846153846" y1="498.0" x2="406.1153846153846" y2="502.79999999999995" stroke="#000"/>
<text x="406.1153846153846" y="512.4" fill="#111" font-size="small" font-family="monospace" font-weight="bold" text-anchor="end" transform="rotate(-60, 406.1153846153846, 512.4)">
erubi
</text>
<rect x="422.38461538461536" y="438.70028651391357" width="10.846153846153845" height="59.299713486086425" fill="#7070f8" data-tooltip="1.00x baseline speed (No JIT)"/>
<line x1="422.38461538461536" y1="437.38362834606437" x2="433.23076923076917" y2="437.38362834606437" stroke="#000"/>
<line x1="422.38461538461536" y1="440.01694468176277" x2="433.23076923076917" y2="440.01694468176277" stroke="#000"/>
<line x1="427.80769230769226" y1="437.38362834606437" x2="427.80769230769226" y2="440.01694468176277" stroke="#000"/>
<rect x="433.23076923076917" y="425.8802487509874" width="10.846153846153845" height="72.11975124901254" fill="orange" data-tooltip="1.22x baseline speed (YJIT)"/>
<line x1="433.23076923076917" y1="423.39246632412875" x2="444.07692307692304" y2="423.39246632412875" stroke="#000"/>
<line x1="433.23076923076917" y1="428.3680311778461" x2="444.07692307692304" y2="428.3680311778461" stroke="#000"/>
<line x1="438.65384615384613" y1="423.39246632412875" x2="438.65384615384613" y2="428.3680311778461" stroke="#000"/>
<line x1="438.65384615384613" y1="498.0" x2="438.65384615384613" y2="502.79999999999995" stroke="#000"/>
<text x="438.65384615384613" y="512.4" fill="#111" font-size="small" font-family="monospace" font-weight="bold" text-anchor="end" transform="rotate(-60, 438.65384615384613, 512.4)">
erubi_rails
</text>
<rect x="454.92307692307685" y="438.70028651391357" width="10.846153846153845" height="59.299713486086425" fill="#7070f8" data-tooltip="1.00x baseline speed (No JIT)"/>
<line x1="454.92307692307685" y1="438.43255849280456" x2="465.7692307692307" y2="438.43255849280456" stroke="#000"/>
<line x1="454.92307692307685" y1="438.9680145350226" x2="465.7692307692307" y2="438.9680145350226" stroke="#000"/>
<line x1="460.3461538461538" y1="438.43255849280456" x2="460.3461538461538" y2="438.9680145350226" stroke="#000"/>
<rect x="465.7692307692307" y="436.868623489766" width="10.846153846153845" height="61.13137651023403" fill="orange" data-tooltip="1.03x baseline speed (YJIT)"/>
<line x1="465.7692307692307" y1="436.41219805844673" x2="476.6153846153845" y2="436.41219805844673" stroke="#000"/>
<line x1="465.7692307692307" y1="437.3250489210852" x2="476.6153846153845" y2="437.3250489210852" stroke="#000"/>
<line x1="471.1923076923076" y1="436.41219805844673" x2="471.1923076923076" y2="437.3250489210852" stroke="#000"/>
<line x1="471.1923076923076" y1="498.0" x2="471.1923076923076" y2="502.79999999999995" stroke="#000"/>
<text x="471.1923076923076" y="512.4" fill="#111" font-size="small" font-family="monospace" font-weight="bold" text-anchor="end" transform="rotate(-60, 471.1923076923076, 512.4)">
etanni
</text>
<rect x="487.4615384615384" y="438.70028651391357" width="10.846153846153845" height="59.299713486086425" fill="#7070f8" data-tooltip="1.00x baseline speed (No JIT)"/>
<line x1="487.4615384615384" y1="438.14285878472367" x2="498.3076923076922" y2="438.14285878472367" stroke="#000"/>
<line x1="487.4615384615384" y1="439.25771424310346" x2="498.3076923076922" y2="439.25771424310346" stroke="#000"/>
<line x1="492.8846153846153" y1="438.14285878472367" x2="492.8846153846153" y2="439.25771424310346" stroke="#000"/>
<rect x="498.3076923076922" y="350.6444567791583" width="10.846153846153845" height="147.35554322084164" fill="orange" data-tooltip="2.48x baseline speed (YJIT)"/>
<line x1="498.3076923076922" y1="349.2422544642582" x2="509.1538461538461" y2="349.2422544642582" stroke="#000"/>
<line x1="498.3076923076922" y1="352.0466590940583" x2="509.1538461538461" y2="352.0466590940583" stroke="#000"/>
<line x1="503.7307692307692" y1="349.2422544642582" x2="503.7307692307692" y2="352.0466590940583" stroke="#000"/>
<line x1="503.7307692307692" y1="498.0" x2="503.7307692307692" y2="502.79999999999995" stroke="#000"/>
<text x="503.7307692307692" y="512.4" fill="#111" font-size="small" font-family="monospace" font-weight="bold" text-anchor="end" transform="rotate(-60, 503.7307692307692, 512.4)">
fannkuchredux
</text>
<rect x="520.0" y="438.70028651391357" width="10.846153846153845" height="59.299713486086425" fill="#7070f8" data-tooltip="1.00x baseline speed (No JIT)"/>
<line x1="520.0" y1="437.9828801080469" x2="530.8461538461538" y2="437.9828801080469" stroke="#000"/>
<line x1="520.0" y1="439.4176929197802" x2="530.8461538461538" y2="439.4176929197802" stroke="#000"/>
<line x1="525.423076923077" y1="437.9828801080469" x2="525.423076923077" y2="439.4176929197802" stroke="#000"/>
<rect x="530.8461538461538" y="418.3806353792269" width="10.846153846153845" height="79.61936462077311" fill="orange" data-tooltip="1.34x baseline speed (YJIT)"/>
<line x1="530.8461538461538" y1="417.2442403771462" x2="541.6923076923077" y2="417.2442403771462" stroke="#000"/>
<line x1="530.8461538461538" y1="419.51703038130756" x2="541.6923076923077" y2="419.51703038130756" stroke="#000"/>
<line x1="536.2692307692308" y1="417.2442403771462" x2="536.2692307692308" y2="419.51703038130756" stroke="#000"/>
<line x1="536.2692307692308" y1="498.0" x2="536.2692307692308" y2="502.79999999999995" stroke="#000"/>
<text x="536.2692307692308" y="512.4" fill="#111" font-size="small" font-family="monospace" font-weight="bold" text-anchor="end" transform="rotate(-60, 536.2692307692308, 512.4)">
lee
</text>
<rect x="552.5384615384615" y="438.70028651391357" width="10.846153846153845" height="59.299713486086425" fill="#7070f8" data-tooltip="1.00x baseline speed (No JIT)"/>
<line x1="552.5384615384615" y1="437.74977325816593" x2="563.3846153846154" y2="437.74977325816593" stroke="#000"/>
<line x1="552.5384615384615" y1="439.65079976966126" x2="563.3846153846154" y2="439.65079976966126" stroke="#000"/>
<line x1="557.9615384615385" y1="437.74977325816593" x2="557.9615384615385" y2="439.65079976966126" stroke="#000"/>
<rect x="563.3846153846154" y="401.6708102791466" width="10.846153846153845" height="96.32918972085332" fill="orange" data-tooltip="1.62x baseline speed (YJIT)"/>
<line x1="563.3846153846154" y1="400.1255276661575" x2="574.2307692307692" y2="400.1255276661575" stroke="#000"/>
<line x1="563.3846153846154" y1="403.2160928921358" x2="574.2307692307692" y2="403.2160928921358" stroke="#000"/>
<line x1="568.8076923076924" y1="400.1255276661575" x2="568.8076923076924" y2="403.2160928921358" stroke="#000"/>
<line x1="568.8076923076924" y1="498.0" x2="568.8076923076924" y2="502.79999999999995" stroke="#000"/>
<text x="568.8076923076924" y="512.4" fill="#111" font-size="small" font-family="monospace" font-weight="bold" text-anchor="end" transform="rotate(-60, 568.8076923076924, 512.4)">
nbody
</text>
<rect x="585.0769230769231" y="438.70028651391357" width="10.846153846153845" height="59.299713486086425" fill="#7070f8" data-tooltip="1.00x baseline speed (No JIT)"/>
<line x1="585.0769230769231" y1="438.43751711274456" x2="595.9230769230769" y2="438.43751711274456" stroke="#000"/>
<line x1="585.0769230769231" y1="438.9630559150826" x2="595.9230769230769" y2="438.9630559150826" stroke="#000"/>
<line x1="590.5" y1="438.43751711274456" x2="590.5" y2="438.9630559150826" stroke="#000"/>
<rect x="595.9230769230769" y="415.4304666466762" width="10.846153846153845" height="82.56953335332373" fill="orange" data-tooltip="1.39x baseline speed (YJIT)"/>
<line x1="595.9230769230769" y1="414.9420821952259" x2="606.7692307692307" y2="414.9420821952259" stroke="#000"/>
<line x1="595.9230769230769" y1="415.9188510981266" x2="606.7692307692307" y2="415.9188510981266" stroke="#000"/>
<line x1="601.3461538461538" y1="414.9420821952259" x2="601.3461538461538" y2="415.9188510981266" stroke="#000"/>
<line x1="601.3461538461538" y1="498.0" x2="601.3461538461538" y2="502.79999999999995" stroke="#000"/>
<text x="601.3461538461538" y="512.4" fill="#111" font-size="small" font-family="monospace" font-weight="bold" text-anchor="end" transform="rotate(-60, 601.3461538461538, 512.4)">
optcarrot
</text>
<rect x="617.6153846153845" y="438.70028651391357" width="10.846153846153845" height="59.299713486086425" fill="#7070f8" data-tooltip="1.00x baseline speed (No JIT)"/>
<line x1="617.6153846153845" y1="438.44750006424454" x2="628.4615384615385" y2="438.44750006424454" stroke="#000"/>
<line x1="617.6153846153845" y1="438.9530729635826" x2="628.4615384615385" y2="438.9530729635826" stroke="#000"/>
<line x1="623.0384615384615" y1="438.44750006424454" x2="623.0384615384615" y2="438.9530729635826" stroke="#000"/>
<rect x="628.4615384615385" y="410.2655865308864" width="10.846153846153845" height="87.73441346911358" fill="orange" data-tooltip="1.48x baseline speed (YJIT)"/>
<line x1="628.4615384615385" y1="409.53347414951793" x2="639.3076923076923" y2="409.53347414951793" stroke="#000"/>
<line x1="628.4615384615385" y1="410.99769891225486" x2="639.3076923076923" y2="410.99769891225486" stroke="#000"/>
<line x1="633.8846153846154" y1="409.53347414951793" x2="633.8846153846154" y2="410.99769891225486" stroke="#000"/>
<line x1="633.8846153846154" y1="498.0" x2="633.8846153846154" y2="502.79999999999995" stroke="#000"/>
<text x="633.8846153846154" y="512.4" fill="#111" font-size="small" font-family="monospace" font-weight="bold" text-anchor="end" transform="rotate(-60, 633.8846153846154, 512.4)">
rubykon
</text>
<rect x="650.1538461538461" y="438.70028651391357" width="10.846153846153845" height="59.299713486086425" fill="#7070f8" data-tooltip="1.00x baseline speed (No JIT)"/>
<line x1="650.1538461538461" y1="438.53332809965065" x2="660.9999999999999" y2="438.53332809965065" stroke="#000"/>
<line x1="650.1538461538461" y1="438.8672449281765" x2="660.9999999999999" y2="438.8672449281765" stroke="#000"/>
<line x1="655.5769230769231" y1="438.53332809965065" x2="655.5769230769231" y2="438.8672449281765" stroke="#000"/>
<rect x="660.9999999999999" y="297.6934396255625" width="10.846153846153845" height="200.30656037443745" fill="orange" data-tooltip="3.38x baseline speed (YJIT)"/>
<line x1="660.9999999999999" y1="297.1275420745618" x2="671.8461538461538" y2="297.1275420745618" stroke="#000"/>
<line x1="660.9999999999999" y1="298.2593371765632" x2="671.8461538461538" y2="298.2593371765632" stroke="#000"/>
<line x1="666.4230769230769" y1="297.1275420745618" x2="666.4230769230769" y2="298.2593371765632" stroke="#000"/>
<line x1="666.4230769230769" y1="498.0" x2="666.4230769230769" y2="502.79999999999995" stroke="#000"/>
<text x="666.4230769230769" y="512.4" fill="#111" font-size="small" font-family="monospace" font-weight="bold" text-anchor="end" transform="rotate(-60, 666.4230769230769, 512.4)">
30k_ifelse
</text>
<rect x="682.6923076923076" y="438.70028651391357" width="10.846153846153845" height="59.299713486086425" fill="#7070f8" data-tooltip="1.00x baseline speed (No JIT)"/>
<line x1="682.6923076923076" y1="438.65722018704525" x2="693.5384615384614" y2="438.65722018704525" stroke="#000"/>
<line x1="682.6923076923076" y1="438.74335284078194" x2="693.5384615384614" y2="438.74335284078194" stroke="#000"/>
<line x1="688.1153846153845" y1="438.65722018704525" x2="688.1153846153845" y2="438.74335284078194" stroke="#000"/>
<rect x="693.5384615384614" y="259.7740523123835" width="10.846153846153845" height="238.22594768761647" fill="orange" data-tooltip="4.02x baseline speed (YJIT)"/>
<line x1="693.5384615384614" y1="259.4974625576913" x2="704.3846153846152" y2="259.4974625576913" stroke="#000"/>
<line x1="693.5384615384614" y1="260.05064206707567" x2="704.3846153846152" y2="260.05064206707567" stroke="#000"/>
<line x1="698.9615384615385" y1="259.4974625576913" x2="698.9615384615385" y2="260.05064206707567" stroke="#000"/>
<line x1="698.9615384615385" y1="498.0" x2="698.9615384615385" y2="502.79999999999995" stroke="#000"/>
<text x="698.9615384615385" y="512.4" fill="#111" font-size="small" font-family="monospace" font-weight="bold" text-anchor="end" transform="rotate(-60, 698.9615384615385, 512.4)">
30k_methods
</text>
<rect x="715.2307692307692" y="438.70028651391357" width="10.846153846153845" height="59.299713486086425" fill="#7070f8" data-tooltip="1.00x baseline speed (No JIT)"/>
<line x1="715.2307692307692" y1="438.6810850958274" x2="726.0769230769231" y2="438.6810850958274" stroke="#000"/>
<line x1="715.2307692307692" y1="438.7194879319997" x2="726.0769230769231" y2="438.7194879319997" stroke="#000"/>
<line x1="720.6538461538462" y1="438.6810850958274" x2="720.6538461538462" y2="438.7194879319997" stroke="#000"/>
<rect x="726.0769230769231" y="344.89110866486527" width="10.846153846153845" height="153.10889133513462" fill="orange" data-tooltip="2.58x baseline speed (YJIT)"/>
<line x1="726.0769230769231" y1="344.83924601518254" x2="736.9230769230769" y2="344.83924601518254" stroke="#000"/>
<line x1="726.0769230769231" y1="344.94297131454806" x2="736.9230769230769" y2="344.94297131454806" stroke="#000"/>
<line x1="731.5" y1="344.83924601518254" x2="731.5" y2="344.94297131454806" stroke="#000"/>
<line x1="731.5" y1="498.0" x2="731.5" y2="502.79999999999995" stroke="#000"/>
<text x="731.5" y="512.4" fill="#111" font-size="small" font-family="monospace" font-weight="bold" text-anchor="end" transform="rotate(-60, 731.5, 512.4)">
cfunc_itself
</text>
<rect x="747.7692307692307" y="438.70028651391357" width="10.846153846153845" height="59.299713486086425" fill="#7070f8" data-tooltip="1.00x baseline speed (No JIT)"/>
<line x1="747.7692307692307" y1="437.3198246743573" x2="758.6153846153845" y2="437.3198246743573" stroke="#000"/>
<line x1="747.7692307692307" y1="440.08074835346986" x2="758.6153846153845" y2="440.08074835346986" stroke="#000"/>
<line x1="753.1923076923077" y1="437.3198246743573" x2="753.1923076923077" y2="440.08074835346986" stroke="#000"/>
<rect x="758.6153846153845" y="324.9556265604946" width="10.846153846153845" height="173.04437343950536" fill="orange" data-tooltip="2.92x baseline speed (YJIT)"/>
<line x1="758.6153846153845" y1="320.9272446636383" x2="769.4615384615385" y2="320.9272446636383" stroke="#000"/>
<line x1="758.6153846153845" y1="328.98400845735085" x2="769.4615384615385" y2="328.98400845735085" stroke="#000"/>
<line x1="764.0384615384615" y1="320.9272446636383" x2="764.0384615384615" y2="328.98400845735085" stroke="#000"/>
<line x1="764.0384615384615" y1="498.0" x2="764.0384615384615" y2="502.79999999999995" stroke="#000"/>
<text x="764.0384615384615" y="512.4" fill="#111" font-size="small" font-family="monospace" font-weight="bold" text-anchor="end" transform="rotate(-60, 764.0384615384615, 512.4)">
fib
</text>
<rect x="780.3076923076923" y="438.70028651391357" width="10.846153846153845" height="59.299713486086425" fill="#7070f8" data-tooltip="1.00x baseline speed (No JIT)"/>
<line x1="780.3076923076923" y1="437.28640115536575" x2="791.1538461538461" y2="437.28640115536575" stroke="#000"/>
<line x1="780.3076923076923" y1="440.1141718724614" x2="791.1538461538461" y2="440.1141718724614" stroke="#000"/>
<line x1="785.7307692307693" y1="437.28640115536575" x2="785.7307692307693" y2="440.1141718724614" stroke="#000"/>
<rect x="791.1538461538461" y="366.2365463022151" width="10.846153846153845" height="131.7634536977848" fill="orange" data-tooltip="2.22x baseline speed (YJIT)"/>
<line x1="791.1538461538461" y1="363.0948816400507" x2="801.9999999999999" y2="363.0948816400507" stroke="#000"/>
<line x1="791.1538461538461" y1="369.37821096437955" x2="801.9999999999999" y2="369.37821096437955" stroke="#000"/>
<line x1="796.5769230769231" y1="363.0948816400507" x2="796.5769230769231" y2="369.37821096437955" stroke="#000"/>
<line x1="796.5769230769231" y1="498.0" x2="796.5769230769231" y2="502.79999999999995" stroke="#000"/>
<text x="796.5769230769231" y="512.4" fill="#111" font-size="small" font-family="monospace" font-weight="bold" text-anchor="end" transform="rotate(-60, 796.5769230769231, 512.4)">
getivar
</text>
<rect x="812.8461538461538" y="438.70028651391357" width="10.846153846153845" height="59.299713486086425" fill="#7070f8" data-tooltip="1.00x baseline speed (No JIT)"/>
<line x1="812.8461538461538" y1="438.6345985365989" x2="823.6923076923076" y2="438.6345985365989" stroke="#000"/>
<line x1="812.8461538461538" y1="438.76597449122823" x2="823.6923076923076" y2="438.76597449122823" stroke="#000"/>
<line x1="818.2692307692307" y1="438.6345985365989" x2="818.2692307692307" y2="438.76597449122823" stroke="#000"/>
<rect x="823.6923076923076" y="191.11192354400166" width="10.846153846153845" height="306.8880764559983" fill="orange" data-tooltip="5.18x baseline speed (YJIT)"/>
<line x1="823.6923076923076" y1="190.76952041664111" x2="834.5384615384614" y2="190.76952041664111" stroke="#000"/>
<line x1="823.6923076923076" y1="191.4543266713622" x2="834.5384615384614" y2="191.4543266713622" stroke="#000"/>
<line x1="829.1153846153846" y1="190.76952041664111" x2="829.1153846153846" y2="191.4543266713622" stroke="#000"/>
<line x1="829.1153846153846" y1="498.0" x2="829.1153846153846" y2="502.79999999999995" stroke="#000"/>
<text x="829.1153846153846" y="512.4" fill="#111" font-size="small" font-family="monospace" font-weight="bold" text-anchor="end" transform="rotate(-60, 829.1153846153846, 512.4)">
keyword_args
</text>
<rect x="845.3846153846152" y="438.70028651391357" width="10.846153846153845" height="59.299713486086425" fill="#7070f8" data-tooltip="1.00x baseline speed (No JIT)"/>
<line x1="845.3846153846152" y1="438.39405748810725" x2="856.2307692307692" y2="438.39405748810725" stroke="#000"/>
<line x1="845.3846153846152" y1="439.0065155397199" x2="856.2307692307692" y2="439.0065155397199" stroke="#000"/>
<line x1="850.8076923076923" y1="438.39405748810725" x2="850.8076923076923" y2="439.0065155397199" stroke="#000"/>
<rect x="856.2307692307692" y="100.19999999999999" width="10.846153846153845" height="397.79999999999995" fill="orange" data-tooltip="6.71x baseline speed (YJIT)"/>
<line x1="856.2307692307692" y1="98.1438173323873" x2="867.076923076923" y2="98.1438173323873" stroke="#000"/>
<line x1="856.2307692307692" y1="102.25618266761268" x2="867.076923076923" y2="102.25618266761268" stroke="#000"/>
<line x1="861.6538461538461" y1="98.1438173323873" x2="861.6538461538461" y2="102.25618266761268" stroke="#000"/>
<line x1="861.6538461538461" y1="498.0" x2="861.6538461538461" y2="502.79999999999995" stroke="#000"/>
<text x="861.6538461538461" y="512.4" fill="#111" font-size="small" font-family="monospace" font-weight="bold" text-anchor="end" transform="rotate(-60, 861.6538461538461, 512.4)">
respond_to
</text>
<rect x="877.9230769230768" y="438.70028651391357" width="10.846153846153845" height="59.299713486086425" fill="#7070f8" data-tooltip="1.00x baseline speed (No JIT)"/>
<line x1="877.9230769230768" y1="438.2447080041299" x2="888.7692307692306" y2="438.2447080041299" stroke="#000"/>
<line x1="877.9230769230768" y1="439.15586502369723" x2="888.7692307692306" y2="439.15586502369723" stroke="#000"/>
<line x1="883.3461538461538" y1="438.2447080041299" x2="883.3461538461538" y2="439.15586502369723" stroke="#000"/>
<rect x="888.7692307692306" y="399.9603167848915" width="10.846153846153845" height="98.03968321510845" fill="orange" data-tooltip="1.65x baseline speed (YJIT)"/>
<line x1="888.7692307692306" y1="399.20701872600597" x2="899.6153846153845" y2="399.20701872600597" stroke="#000"/>
<line x1="888.7692307692306" y1="400.713614843777" x2="899.6153846153845" y2="400.713614843777" stroke="#000"/>
<line x1="894.1923076923076" y1="399.20701872600597" x2="894.1923076923076" y2="400.713614843777" stroke="#000"/>
<line x1="894.1923076923076" y1="498.0" x2="894.1923076923076" y2="502.79999999999995" stroke="#000"/>
<text x="894.1923076923076" y="512.4" fill="#111" font-size="small" font-family="monospace" font-weight="bold" text-anchor="end" transform="rotate(-60, 894.1923076923076, 512.4)">
setivar
</text>
<rect x="910.4615384615385" y="438.70028651391357" width="10.846153846153845" height="59.299713486086425" fill="#7070f8" data-tooltip="1.00x baseline speed (No JIT)"/>
<line x1="910.4615384615385" y1="432.89761946292595" x2="921.3076923076923" y2="432.89761946292595" stroke="#000"/>
<line x1="910.4615384615385" y1="444.5029535649012" x2="921.3076923076923" y2="444.5029535649012" stroke="#000"/>
<line x1="915.8846153846154" y1="432.89761946292595" x2="915.8846153846154" y2="444.5029535649012" stroke="#000"/>
<rect x="921.3076923076923" y="395.8988148226128" width="10.846153846153845" height="102.10118517738712" fill="orange" data-tooltip="1.72x baseline speed (YJIT)"/>
<line x1="921.3076923076923" y1="385.87225344584897" x2="932.1538461538461" y2="385.87225344584897" stroke="#000"/>
<line x1="921.3076923076923" y1="405.9253761993766" x2="932.1538461538461" y2="405.9253761993766" stroke="#000"/>
<line x1="926.7307692307693" y1="385.87225344584897" x2="926.7307692307693" y2="405.9253761993766" stroke="#000"/>
<line x1="926.7307692307693" y1="498.0" x2="926.7307692307693" y2="502.79999999999995" stroke="#000"/>
<text x="926.7307692307693" y="512.4" fill="#111" font-size="small" font-family="monospace" font-weight="bold" text-anchor="end" transform="rotate(-60, 926.7307692307693, 512.4)">
str_concat
</text>
</svg>