<svg viewBox="0 0 1000 600" xmlns="http://www.w3.org/2000/svg" xmlns:xlink="http://www.w3.org/1999/xlink" width="100%" height="100%">

<rect x="50.0" y="30.0" width="940.0" height="467.99999999999994" stroke="#000" fill="#EEE"/>
<line x1="42.0" y1="497.9999999999999" x2="50.0" y2="497.9999999999999" stroke="#000"/>
<text x="26.000000000000004" y="497.9999999999999" text-anchor="end" font-weight="bold" font-size="small" fill="#111">
0.0
</text>
<line x1="42.0" y1="409.2513326839749" x2="50.0" y2="409.2513326839749" stroke="#000"/>
<text x="26.000000000000004" y="409.2513326839749" text-anchor="end" font-weight="bold" font-size="small" fill="#111">
2.0
</text>
<line x1="42.0" y1="320.50266536794993" x2="50.0" y2="320.50266536794993" stroke="#000"/>
<text x="26.000000000000004" y="320.50266536794993" text-anchor="end" font-weight="bold" font-size="small" fill="#111">
4.0
</text>
<line x1="42.0" y1="231.75399805192504" x2="50.0" y2="231.75399805192504" stroke="#000"/>
<text x="26.000000000000004" y="231.75399805192504" text-anchor="end" font-weight="bold" font-size="small" fill="#111">
6.0
</text>
<line x1="42.0" y1="143.00533073590003" x2="50.0" y2="143.00533073590003" stroke="#000"/>
<text x="26.000000000000004" y="143.00533073590003" text-anchor="end" font-weight="bold" font-size="small" fill="#111">
8.0
</text>
<rect x="162.74999999999997" y="36.00000000000001" width="80.0" height="18.0" fill="#7070f8" stroke="#888"/>
<text x="202.75" y="52.50000000000001" font-size="small" text-anchor="middle" font-weight="bold" fill="#EEE">
No JIT
</text>
<rect x="374.25" y="36.00000000000001" width="80.0" height="18.0" fill="orange" stroke="#888"/>
<text x="414.25" y="52.50000000000001" font-size="small" text-anchor="middle" font-weight="bold" fill="#EEE">
MJIT3.0
</text>
<rect x="585.7499999999999" y="36.00000000000001" width="80.0" height="18.0" fill="green" stroke="#888"/>
<text x="625.7499999999999" y="52.50000000000001" font-size="small" text-anchor="middle" font-weight="bold" fill="#EEE">
MJIT
</text>
<rect x="797.2499999999999" y="36.00000000000001" width="80.0" height="18.0" fill="#4F3A7A" stroke="#888"/>
<text x="837.2499999999999" y="52.50000000000001" font-size="small" text-anchor="middle" font-weight="bold" fill="#EEE">
YJIT
</text>
<rect x="97.0" y="453.6256663419875" width="21.15" height="44.37433365801249" fill="#7070f8" data-tooltip="1.00x baseline speed (No JIT)"/>
<line x1="97.0" y1="450.5513234735049" x2="118.15" y2="450.5513234735049" stroke="#000"/>
<line x1="97.0" y1="456.70000921047006" x2="118.15" y2="456.70000921047006" stroke="#000"/>
<line x1="107.575" y1="450.5513234735049" x2="107.575" y2="456.70000921047006" stroke="#000"/>
<rect x="118.15" y="455.0416431846374" width="21.15" height="42.95835681536259" fill="orange" data-tooltip="0.97x baseline speed (MJIT3.0)"/>
<line x1="118.15" y1="451.1233610466047" x2="139.3" y2="451.1233610466047" stroke="#000"/>
<line x1="118.15" y1="458.9599253226701" x2="139.3" y2="458.9599253226701" stroke="#000"/>
<line x1="128.725" y1="451.1233610466047" x2="128.725" y2="458.9599253226701" stroke="#000"/>
<rect x="139.3" y="475.12422059666966" width="21.15" height="22.875779403330228" fill="green" data-tooltip="0.52x baseline speed (MJIT)"/>
<line x1="139.3" y1="472.77281663151956" x2="160.45000000000002" y2="472.77281663151956" stroke="#000"/>
<line x1="139.3" y1="477.47562456181976" x2="160.45000000000002" y2="477.47562456181976" stroke="#000"/>
<line x1="149.875" y1="472.77281663151956" x2="149.875" y2="477.47562456181976" stroke="#000"/>
<rect x="160.45" y="174.3573278817688" width="21.15" height="323.64267211823113" fill="#4F3A7A" data-tooltip="7.29x baseline speed (YJIT)"/>
<line x1="160.45" y1="151.93198304456038" x2="181.6" y2="151.93198304456038" stroke="#000"/>
<line x1="160.45" y1="196.7826727189772" x2="181.6" y2="196.7826727189772" stroke="#000"/>
<line x1="171.02499999999998" y1="151.93198304456038" x2="171.02499999999998" y2="196.7826727189772" stroke="#000"/>
<line x1="149.875" y1="498.0" x2="149.875" y2="502.79999999999995" stroke="#000"/>
<text x="149.875" y="512.4" fill="#111" font-size="small" font-family="monospace" font-weight="bold" text-anchor="end" transform="rotate(-60, 149.875, 512.4)">
30k_ifelse
</text>
<rect x="202.75" y="453.6256663419875" width="21.15" height="44.37433365801249" fill="#7070f8" data-tooltip="1.00x baseline speed (No JIT)"/>
<line x1="202.75" y1="453.1188602875528" x2="223.89999999999998" y2="453.1188602875528" stroke="#000"/>
<line x1="202.75" y1="454.13247239642214" x2="223.89999999999998" y2="454.13247239642214" stroke="#000"/>
<line x1="213.325" y1="453.1188602875528" x2="213.325" y2="454.13247239642214" stroke="#000"/>
<rect x="223.89999999999998" y="450.85329762173967" width="21.15" height="47.14670237826029" fill="orange" data-tooltip="1.06x baseline speed (MJIT3.0)"/>
<line x1="223.89999999999998" y1="450.20674240827816" x2="245.04999999999998" y2="450.20674240827816" stroke="#000"/>
<line x1="223.89999999999998" y1="451.4998528352012" x2="245.04999999999998" y2="451.4998528352012" stroke="#000"/>
<line x1="234.475" y1="450.20674240827816" x2="234.475" y2="451.4998528352012" stroke="#000"/>
<rect x="245.04999999999998" y="455.22510699243475" width="21.15" height="42.77489300756517" fill="green" data-tooltip="0.96x baseline speed (MJIT)"/>
<line x1="245.04999999999998" y1="454.39951450615746" x2="266.2" y2="454.39951450615746" stroke="#000"/>
<line x1="245.04999999999998" y1="456.0506994787121" x2="266.2" y2="456.0506994787121" stroke="#000"/>
<line x1="255.625" y1="454.39951450615746" x2="255.625" y2="456.0506994787121" stroke="#000"/>
<rect x="266.2" y="100.19999999999999" width="21.15" height="397.79999999999995" fill="#4F3A7A" data-tooltip="8.96x baseline speed (YJIT)"/>
<line x1="266.2" y1="95.65356164857245" x2="287.35" y2="95.65356164857245" stroke="#000"/>
<line x1="266.2" y1="104.74643835142753" x2="287.35" y2="104.74643835142753" stroke="#000"/>
<line x1="276.775" y1="95.65356164857245" x2="276.775" y2="104.74643835142753" stroke="#000"/>
<line x1="255.625" y1="498.0" x2="255.625" y2="502.79999999999995" stroke="#000"/>
<text x="255.625" y="512.4" fill="#111" font-size="small" font-family="monospace" font-weight="bold" text-anchor="end" transform="rotate(-60, 255.625, 512.4)">
30k_methods
</text>
<rect x="308.5" y="453.6256663419875" width="21.15" height="44.37433365801249" fill="#7070f8" data-tooltip="1.00x baseline speed (No JIT)"/>
<line x1="308.5" y1="453.5371631820772" x2="329.65" y2="453.5371631820772" stroke="#000"/>
<line x1="308.5" y1="453.71416950189774" x2="329.65" y2="453.71416950189774" stroke="#000"/>
<line x1="319.075" y1="453.5371631820772" x2="319.075" y2="453.71416950189774" stroke="#000"/>
<rect x="329.65" y="429.7903046811491" width="21.15" height="68.20969531885082" fill="orange" data-tooltip="1.54x baseline speed (MJIT3.0)"/>
<line x1="329.65" y1="429.6383394198132" x2="350.8" y2="429.6383394198132" stroke="#000"/>
<line x1="329.65" y1="429.9422699424851" x2="350.8" y2="429.9422699424851" stroke="#000"/>
<line x1="340.225" y1="429.6383394198132" x2="340.225" y2="429.9422699424851" stroke="#000"/>
<rect x="350.8" y="434.59567792002684" width="21.15" height="63.40432207997314" fill="green" data-tooltip="1.43x baseline speed (MJIT)"/>
<line x1="350.8" y1="434.4256415637901" x2="371.95" y2="434.4256415637901" stroke="#000"/>
<line x1="350.8" y1="434.76571427626357" x2="371.95" y2="434.76571427626357" stroke="#000"/>
<line x1="361.375" y1="434.4256415637901" x2="361.375" y2="434.76571427626357" stroke="#000"/>
<rect x="371.95" y="393.5825650934956" width="21.15" height="104.41743490650433" fill="#4F3A7A" data-tooltip="2.35x baseline speed (YJIT)"/>
<line x1="371.95" y1="393.2454987806356" x2="393.1" y2="393.2454987806356" stroke="#000"/>
<line x1="371.95" y1="393.9196314063555" x2="393.1" y2="393.9196314063555" stroke="#000"/>
<line x1="382.525" y1="393.2454987806356" x2="382.525" y2="393.9196314063555" stroke="#000"/>
<line x1="361.375" y1="498.0" x2="361.375" y2="502.79999999999995" stroke="#000"/>
<text x="361.375" y="512.4" fill="#111" font-size="small" font-family="monospace" font-weight="bold" text-anchor="end" transform="rotate(-60, 361.375, 512.4)">
cfunc_itself
</text>
<rect x="414.25" y="453.6256663419875" width="21.15" height="44.37433365801249" fill="#7070f8" data-tooltip="1.00x baseline speed (No JIT)"/>
<line x1="414.25" y1="453.60608538048194" x2="435.40000000000003" y2="453.60608538048194" stroke="#000"/>
<line x1="414.25" y1="453.645247303493" x2="435.40000000000003" y2="453.645247303493" stroke="#000"/>
<line x1="424.825" y1="453.60608538048194" x2="424.825" y2="453.645247303493" stroke="#000"/>
<rect x="435.40000000000003" y="350.77162037702226" width="21.15" height="147.22837962297766" fill="orange" data-tooltip="3.32x baseline speed (MJIT3.0)"/>
<line x1="435.40000000000003" y1="350.6703130737708" x2="456.55" y2="350.6703130737708" stroke="#000"/>
<line x1="435.40000000000003" y1="350.8729276802737" x2="456.55" y2="350.8729276802737" stroke="#000"/>
<line x1="445.975" y1="350.6703130737708" x2="445.975" y2="350.8729276802737" stroke="#000"/>
<rect x="456.55" y="355.86506581269583" width="21.15" height="142.1349341873041" fill="green" data-tooltip="3.20x baseline speed (MJIT)"/>
<line x1="456.55" y1="355.72788835033134" x2="477.7" y2="355.72788835033134" stroke="#000"/>
<line x1="456.55" y1="356.0022432750603" x2="477.7" y2="356.0022432750603" stroke="#000"/>
<line x1="467.125" y1="355.72788835033134" x2="467.125" y2="356.0022432750603" stroke="#000"/>
<rect x="477.7" y="328.49465111081264" width="21.15" height="169.5053488891873" fill="#4F3A7A" data-tooltip="3.82x baseline speed (YJIT)"/>
<line x1="477.7" y1="328.2971020877859" x2="498.85" y2="328.2971020877859" stroke="#000"/>
<line x1="477.7" y1="328.6922001338394" x2="498.85" y2="328.6922001338394" stroke="#000"/>
<line x1="488.27500000000003" y1="328.2971020877859" x2="488.27500000000003" y2="328.6922001338394" stroke="#000"/>
<line x1="467.125" y1="498.0" x2="467.125" y2="502.79999999999995" stroke="#000"/>
<text x="467.125" y="512.4" fill="#111" font-size="small" font-family="monospace" font-weight="bold" text-anchor="end" transform="rotate(-60, 467.125, 512.4)">
fib
</text>
<rect x="520.0" y="453.6256663419875" width="21.15" height="44.37433365801249" fill="#7070f8" data-tooltip="1.00x baseline speed (No JIT)"/>
<line x1="520.0" y1="453.59234046358887" x2="541.15" y2="453.59234046358887" stroke="#000"/>
<line x1="520.0" y1="453.6589922203861" x2="541.15" y2="453.6589922203861" stroke="#000"/>
<line x1="530.575" y1="453.59234046358887" x2="530.575" y2="453.6589922203861" stroke="#000"/>
<rect x="541.15" y="456.686481122381" width="21.15" height="41.3135188776189" fill="orange" data-tooltip="0.93x baseline speed (MJIT3.0)"/>
<line x1="541.15" y1="456.5769701986812" x2="562.3000000000001" y2="456.5769701986812" stroke="#000"/>
<line x1="541.15" y1="456.79599204608076" x2="562.3000000000001" y2="456.79599204608076" stroke="#000"/>
<line x1="551.725" y1="456.5769701986812" x2="551.725" y2="456.79599204608076" stroke="#000"/>
<rect x="562.3000000000001" y="454.66350320505444" width="21.15" height="43.336496794945454" fill="green" data-tooltip="0.98x baseline speed (MJIT)"/>
<line x1="562.3000000000001" y1="454.62142313127777" x2="583.45" y2="454.62142313127777" stroke="#000"/>
<line x1="562.3000000000001" y1="454.70558327883117" x2="583.45" y2="454.70558327883117" stroke="#000"/>
<line x1="572.875" y1="454.62142313127777" x2="572.875" y2="454.70558327883117" stroke="#000"/>
<rect x="583.45" y="392.6017256623008" width="21.15" height="105.39827433769919" fill="#4F3A7A" data-tooltip="2.38x baseline speed (YJIT)"/>
<line x1="583.45" y1="392.43925188181635" x2="604.6" y2="392.43925188181635" stroke="#000"/>
<line x1="583.45" y1="392.76419944278524" x2="604.6" y2="392.76419944278524" stroke="#000"/>
<line x1="594.025" y1="392.43925188181635" x2="594.025" y2="392.76419944278524" stroke="#000"/>
<line x1="572.875" y1="498.0" x2="572.875" y2="502.79999999999995" stroke="#000"/>
<text x="572.875" y="512.4" fill="#111" font-size="small" font-family="monospace" font-weight="bold" text-anchor="end" transform="rotate(-60, 572.875, 512.4)">
getivar
</text>
<rect x="625.7499999999999" y="453.6256663419875" width="21.15" height="44.37433365801249" fill="#7070f8" data-tooltip="1.00x baseline speed (No JIT)"/>
<line x1="625.7499999999999" y1="453.60024456343695" x2="646.8999999999999" y2="453.60024456343695" stroke="#000"/>
<line x1="625.7499999999999" y1="453.651088120538" x2="646.8999999999999" y2="453.651088120538" stroke="#000"/>
<line x1="636.3249999999999" y1="453.60024456343695" x2="636.3249999999999" y2="453.651088120538" stroke="#000"/>
<rect x="646.8999999999999" y="441.08772648445404" width="21.15" height="56.91227351554587" fill="orange" data-tooltip="1.28x baseline speed (MJIT3.0)"/>
<line x1="646.8999999999999" y1="441.0392545492874" x2="668.05" y2="441.0392545492874" stroke="#000"/>
<line x1="646.8999999999999" y1="441.1361984196206" x2="668.05" y2="441.1361984196206" stroke="#000"/>
<line x1="657.4749999999999" y1="441.0392545492874" x2="657.4749999999999" y2="441.1361984196206" stroke="#000"/>
<rect x="668.05" y="442.45867402564477" width="21.15" height="55.541325974355196" fill="green" data-tooltip="1.25x baseline speed (MJIT)"/>
<line x1="668.05" y1="442.41692288067264" x2="689.1999999999999" y2="442.41692288067264" stroke="#000"/>
<line x1="668.05" y1="442.50042517061695" x2="689.1999999999999" y2="442.50042517061695" stroke="#000"/>
<line x1="678.6249999999999" y1="442.41692288067264" x2="678.6249999999999" y2="442.50042517061695" stroke="#000"/>
<rect x="689.1999999999999" y="265.62563457764855" width="21.15" height="232.3743654223514" fill="#4F3A7A" data-tooltip="5.24x baseline speed (YJIT)"/>
<line x1="689.1999999999999" y1="265.31846972533543" x2="710.3499999999999" y2="265.31846972533543" stroke="#000"/>
<line x1="689.1999999999999" y1="265.9327994299617" x2="710.3499999999999" y2="265.9327994299617" stroke="#000"/>
<line x1="699.775" y1="265.31846972533543" x2="699.775" y2="265.9327994299617" stroke="#000"/>
<line x1="678.6249999999999" y1="498.0" x2="678.6249999999999" y2="502.79999999999995" stroke="#000"/>
<text x="678.6249999999999" y="512.4" fill="#111" font-size="small" font-family="monospace" font-weight="bold" text-anchor="end" transform="rotate(-60, 678.6249999999999, 512.4)">
keyword_args
</text>
<rect x="731.4999999999999" y="453.6256663419875" width="21.15" height="44.37433365801249" fill="#7070f8" data-tooltip="1.00x baseline speed (No JIT)"/>
<line x1="731.4999999999999" y1="453.51038161066566" x2="752.65" y2="453.51038161066566" stroke="#000"/>
<line x1="731.4999999999999" y1="453.7409510733093" x2="752.65" y2="453.7409510733093" stroke="#000"/>
<line x1="742.0749999999999" y1="453.51038161066566" x2="742.0749999999999" y2="453.7409510733093" stroke="#000"/>
<rect x="752.65" y="445.76766183785224" width="21.15" height="52.23233816214765" fill="orange" data-tooltip="1.18x baseline speed (MJIT3.0)"/>
<line x1="752.65" y1="445.527251672204" x2="773.8" y2="445.527251672204" stroke="#000"/>
<line x1="752.65" y1="446.00807200350044" x2="773.8" y2="446.00807200350044" stroke="#000"/>
<line x1="763.2249999999999" y1="445.527251672204" x2="763.2249999999999" y2="446.00807200350044" stroke="#000"/>
<rect x="773.8" y="450.49094768163064" width="21.15" height="47.5090523183693" fill="green" data-tooltip="1.07x baseline speed (MJIT)"/>
<line x1="773.8" y1="450.3286749170975" x2="794.9499999999999" y2="450.3286749170975" stroke="#000"/>
<line x1="773.8" y1="450.6532204461638" x2="794.9499999999999" y2="450.6532204461638" stroke="#000"/>
<line x1="784.3749999999999" y1="450.3286749170975" x2="784.3749999999999" y2="450.6532204461638" stroke="#000"/>
<rect x="794.9499999999999" y="437.2955169747962" width="21.15" height="60.70448302520368" fill="#4F3A7A" data-tooltip="1.37x baseline speed (YJIT)"/>
<line x1="794.9499999999999" y1="437.0308063279551" x2="816.0999999999999" y2="437.0308063279551" stroke="#000"/>
<line x1="794.9499999999999" y1="437.5602276216373" x2="816.0999999999999" y2="437.5602276216373" stroke="#000"/>
<line x1="805.525" y1="437.0308063279551" x2="805.525" y2="437.5602276216373" stroke="#000"/>
<line x1="784.3749999999999" y1="498.0" x2="784.3749999999999" y2="502.79999999999995" stroke="#000"/>
<text x="784.3749999999999" y="512.4" fill="#111" font-size="small" font-family="monospace" font-weight="bold" text-anchor="end" transform="rotate(-60, 784.3749999999999, 512.4)">
respond_to
</text>
<rect x="837.2499999999999" y="453.6256663419875" width="21.15" height="44.37433365801249" fill="#7070f8" data-tooltip="1.00x baseline speed (No JIT)"/>
<line x1="837.2499999999999" y1="453.5752770044948" x2="858.4" y2="453.5752770044948" stroke="#000"/>
<line x1="837.2499999999999" y1="453.6760556794802" x2="858.4" y2="453.6760556794802" stroke="#000"/>
<line x1="847.8249999999999" y1="453.5752770044948" x2="847.8249999999999" y2="453.6760556794802" stroke="#000"/>
<rect x="858.4" y="455.2318533416416" width="21.15" height="42.76814665835829" fill="orange" data-tooltip="0.96x baseline speed (MJIT3.0)"/>
<line x1="858.4" y1="455.1505085846446" x2="879.55" y2="455.1505085846446" stroke="#000"/>
<line x1="858.4" y1="455.3131980986387" x2="879.55" y2="455.3131980986387" stroke="#000"/>
<line x1="868.9749999999999" y1="455.1505085846446" x2="868.9749999999999" y2="455.3131980986387" stroke="#000"/>
<rect x="879.55" y="453.43528281219767" width="21.15" height="44.56471718780226" fill="green" data-tooltip="1.00x baseline speed (MJIT)"/>
<line x1="879.55" y1="453.37997425699774" x2="900.6999999999999" y2="453.37997425699774" stroke="#000"/>
<line x1="879.55" y1="453.49059136739754" x2="900.6999999999999" y2="453.49059136739754" stroke="#000"/>
<line x1="890.125" y1="453.37997425699774" x2="890.125" y2="453.49059136739754" stroke="#000"/>
<rect x="900.6999999999999" y="431.71352424063366" width="21.15" height="66.28647575936623" fill="#4F3A7A" data-tooltip="1.49x baseline speed (YJIT)"/>
<line x1="900.6999999999999" y1="431.39263595805244" x2="921.8499999999999" y2="431.39263595805244" stroke="#000"/>
<line x1="900.6999999999999" y1="432.03441252321494" x2="921.8499999999999" y2="432.03441252321494" stroke="#000"/>
<line x1="911.275" y1="431.39263595805244" x2="911.275" y2="432.03441252321494" stroke="#000"/>
<line x1="890.125" y1="498.0" x2="890.125" y2="502.79999999999995" stroke="#000"/>
<text x="890.125" y="512.4" fill="#111" font-size="small" font-family="monospace" font-weight="bold" text-anchor="end" transform="rotate(-60, 890.125, 512.4)">
setivar
</text>
</svg>