<svg viewBox="0 0 1000 600" xmlns="http://www.w3.org/2000/svg" xmlns:xlink="http://www.w3.org/1999/xlink" width="100%" height="100%">

<rect x="50.0" y="30.0" width="940.0" height="467.99999999999994" stroke="#000" fill="#EEE"/>
<line x1="42.0" y1="497.9999999999999" x2="50.0" y2="497.9999999999999" stroke="#000"/>
<text x="26.000000000000004" y="497.9999999999999" text-anchor="end" font-weight="bold" font-size="small" fill="#111">
0.0
</text>
<line x1="42.0" y1="403.83901257784237" x2="50.0" y2="403.83901257784237" stroke="#000"/>
<text x="26.000000000000004" y="403.83901257784237" text-anchor="end" font-weight="bold" font-size="small" fill="#111">
2.0
</text>
<line x1="42.0" y1="309.67802515568485" x2="50.0" y2="309.67802515568485" stroke="#000"/>
<text x="26.000000000000004" y="309.67802515568485" text-anchor="end" font-weight="bold" font-size="small" fill="#111">
4.0
</text>
<line x1="42.0" y1="215.51703773352733" x2="50.0" y2="215.51703773352733" stroke="#000"/>
<text x="26.000000000000004" y="215.51703773352733" text-anchor="end" font-weight="bold" font-size="small" fill="#111">
6.0
</text>
<line x1="42.0" y1="121.35605031136983" x2="50.0" y2="121.35605031136983" stroke="#000"/>
<text x="26.000000000000004" y="121.35605031136983" text-anchor="end" font-weight="bold" font-size="small" fill="#111">
8.0
</text>
<rect x="268.5" y="36.00000000000001" width="80.0" height="18.0" fill="#7070f8" stroke="#888"/>
<text x="308.5" y="52.50000000000001" font-size="small" text-anchor="middle" font-weight="bold" fill="#EEE">
No JIT
</text>
<rect x="691.4999999999999" y="36.00000000000001" width="80.0" height="18.0" fill="orange" stroke="#888"/>
<text x="731.4999999999999" y="52.50000000000001" font-size="small" text-anchor="middle" font-weight="bold" fill="#EEE">
YJIT
</text>
<rect x="97.0" y="450.9195062889212" width="28.2" height="47.080493711078766" fill="#7070f8" data-tooltip="1.00x baseline speed (No JIT)"/>
<line x1="97.0" y1="450.9158800205115" x2="125.2" y2="450.9158800205115" stroke="#000"/>
<line x1="97.0" y1="450.9231325573309" x2="125.2" y2="450.9231325573309" stroke="#000"/>
<line x1="111.10000000000001" y1="450.9158800205115" x2="111.10000000000001" y2="450.9231325573309" stroke="#000"/>
<rect x="125.2" y="216.9500812336393" width="28.2" height="281.0499187663607" fill="orange" data-tooltip="5.97x baseline speed (YJIT)"/>
<line x1="125.2" y1="216.5373984213107" x2="153.4" y2="216.5373984213107" stroke="#000"/>
<line x1="125.2" y1="217.36276404596788" x2="153.4" y2="217.36276404596788" stroke="#000"/>
<line x1="139.3" y1="216.5373984213107" x2="139.3" y2="217.36276404596788" stroke="#000"/>
<line x1="139.3" y1="498.0" x2="139.3" y2="502.79999999999995" stroke="#000"/>
<text x="139.3" y="512.4" fill="#111" font-size="small" font-family="monospace" font-weight="bold" text-anchor="end" transform="rotate(-60, 139.3, 512.4)">
30k_ifelse
</text>
<rect x="181.6" y="450.9195062889212" width="28.2" height="47.080493711078766" fill="#7070f8" data-tooltip="1.00x baseline speed (No JIT)"/>
<line x1="181.6" y1="450.91513422957024" x2="209.79999999999998" y2="450.91513422957024" stroke="#000"/>
<line x1="181.6" y1="450.9238783482722" x2="209.79999999999998" y2="450.9238783482722" stroke="#000"/>
<line x1="195.7" y1="450.91513422957024" x2="195.7" y2="450.9238783482722" stroke="#000"/>
<rect x="209.79999999999998" y="193.70608366806752" width="28.2" height="304.2939163319324" fill="orange" data-tooltip="6.46x baseline speed (YJIT)"/>
<line x1="209.79999999999998" y1="193.6080911968344" x2="238.0" y2="193.6080911968344" stroke="#000"/>
<line x1="209.79999999999998" y1="193.80407613930066" x2="238.0" y2="193.80407613930066" stroke="#000"/>
<line x1="223.89999999999998" y1="193.6080911968344" x2="223.89999999999998" y2="193.80407613930066" stroke="#000"/>
<line x1="223.89999999999998" y1="498.0" x2="223.89999999999998" y2="502.79999999999995" stroke="#000"/>
<text x="223.89999999999998" y="512.4" fill="#111" font-size="small" font-family="monospace" font-weight="bold" text-anchor="end" transform="rotate(-60, 223.89999999999998, 512.4)">
30k_methods
</text>
<rect x="266.2" y="450.9195062889212" width="28.2" height="47.080493711078766" fill="#7070f8" data-tooltip="1.00x baseline speed (No JIT)"/>
<line x1="266.2" y1="450.85568898871264" x2="294.4" y2="450.85568898871264" stroke="#000"/>
<line x1="266.2" y1="450.9833235891298" x2="294.4" y2="450.9833235891298" stroke="#000"/>
<line x1="280.3" y1="450.85568898871264" x2="280.3" y2="450.9833235891298" stroke="#000"/>
<rect x="294.4" y="384.48994870176597" width="28.2" height="113.51005129823399" fill="orange" data-tooltip="2.41x baseline speed (YJIT)"/>
<line x1="294.4" y1="384.049561190637" x2="322.6" y2="384.049561190637" stroke="#000"/>
<line x1="294.4" y1="384.9303362128949" x2="322.6" y2="384.9303362128949" stroke="#000"/>
<line x1="308.5" y1="384.049561190637" x2="308.5" y2="384.9303362128949" stroke="#000"/>
<line x1="308.5" y1="498.0" x2="308.5" y2="502.79999999999995" stroke="#000"/>
<text x="308.5" y="512.4" fill="#111" font-size="small" font-family="monospace" font-weight="bold" text-anchor="end" transform="rotate(-60, 308.5, 512.4)">
cfunc_itself
</text>
<rect x="350.8" y="450.9195062889212" width="28.2" height="47.080493711078766" fill="#7070f8" data-tooltip="1.00x baseline speed (No JIT)"/>
<line x1="350.8" y1="450.88698727523644" x2="379.0" y2="450.88698727523644" stroke="#000"/>
<line x1="350.8" y1="450.952025302606" x2="379.0" y2="450.952025302606" stroke="#000"/>
<line x1="364.9" y1="450.88698727523644" x2="364.9" y2="450.952025302606" stroke="#000"/>
<rect x="379.0" y="321.89034519423404" width="28.2" height="176.1096548057659" fill="orange" data-tooltip="3.74x baseline speed (YJIT)"/>
<line x1="379.0" y1="321.6824281683407" x2="407.2" y2="321.6824281683407" stroke="#000"/>
<line x1="379.0" y1="322.09826222012737" x2="407.2" y2="322.09826222012737" stroke="#000"/>
<line x1="393.1" y1="321.6824281683407" x2="393.1" y2="322.09826222012737" stroke="#000"/>
<line x1="393.1" y1="498.0" x2="393.1" y2="502.79999999999995" stroke="#000"/>
<text x="393.1" y="512.4" fill="#111" font-size="small" font-family="monospace" font-weight="bold" text-anchor="end" transform="rotate(-60, 393.1, 512.4)">
fib
</text>
<rect x="435.40000000000003" y="450.9195062889212" width="28.2" height="47.080493711078766" fill="#7070f8" data-tooltip="1.00x baseline speed (No JIT)"/>
<line x1="435.40000000000003" y1="450.898156190211" x2="463.6" y2="450.898156190211" stroke="#000"/>
<line x1="435.40000000000003" y1="450.9408563876314" x2="463.6" y2="450.9408563876314" stroke="#000"/>
<line x1="449.5" y1="450.898156190211" x2="449.5" y2="450.9408563876314" stroke="#000"/>
<rect x="463.6" y="382.1573131746091" width="28.2" height="115.84268682539084" fill="orange" data-tooltip="2.46x baseline speed (YJIT)"/>
<line x1="463.6" y1="381.8805900518584" x2="491.8" y2="381.8805900518584" stroke="#000"/>
<line x1="463.6" y1="382.4340362973598" x2="491.8" y2="382.4340362973598" stroke="#000"/>
<line x1="477.7" y1="381.8805900518584" x2="477.7" y2="382.4340362973598" stroke="#000"/>
<line x1="477.7" y1="498.0" x2="477.7" y2="502.79999999999995" stroke="#000"/>
<text x="477.7" y="512.4" fill="#111" font-size="small" font-family="monospace" font-weight="bold" text-anchor="end" transform="rotate(-60, 477.7, 512.4)">
getivar
</text>
<rect x="520.0" y="450.9195062889212" width="28.2" height="47.080493711078766" fill="#7070f8" data-tooltip="1.00x baseline speed (No JIT)"/>
<line x1="520.0" y1="450.897327704415" x2="548.2" y2="450.897327704415" stroke="#000"/>
<line x1="520.0" y1="450.94168487342745" x2="548.2" y2="450.94168487342745" stroke="#000"/>
<line x1="534.1" y1="450.897327704415" x2="534.1" y2="450.94168487342745" stroke="#000"/>
<rect x="548.2" y="262.5819559411186" width="28.2" height="235.41804405888132" fill="orange" data-tooltip="5.00x baseline speed (YJIT)"/>
<line x1="548.2" y1="262.1141910986628" x2="576.4" y2="262.1141910986628" stroke="#000"/>
<line x1="548.2" y1="263.0497207835745" x2="576.4" y2="263.0497207835745" stroke="#000"/>
<line x1="562.3000000000001" y1="262.1141910986628" x2="562.3000000000001" y2="263.0497207835745" stroke="#000"/>
<line x1="562.3000000000001" y1="498.0" x2="562.3000000000001" y2="502.79999999999995" stroke="#000"/>
<text x="562.3000000000001" y="512.4" fill="#111" font-size="small" font-family="monospace" font-weight="bold" text-anchor="end" transform="rotate(-60, 562.3000000000001, 512.4)">
keyword_args
</text>
<rect x="604.5999999999999" y="450.9195062889212" width="28.2" height="47.080493711078766" fill="#7070f8" data-tooltip="1.00x baseline speed (No JIT)"/>
<line x1="604.5999999999999" y1="450.5627200258252" x2="632.8" y2="450.5627200258252" stroke="#000"/>
<line x1="604.5999999999999" y1="451.27629255201725" x2="632.8" y2="451.27629255201725" stroke="#000"/>
<line x1="618.6999999999999" y1="450.5627200258252" x2="618.6999999999999" y2="451.27629255201725" stroke="#000"/>
<rect x="632.8" y="100.19999999999999" width="28.2" height="397.79999999999995" fill="orange" data-tooltip="8.45x baseline speed (YJIT)"/>
<line x1="632.8" y1="96.98868591291601" x2="660.9999999999999" y2="96.98868591291601" stroke="#000"/>
<line x1="632.8" y1="103.41131408708397" x2="660.9999999999999" y2="103.41131408708397" stroke="#000"/>
<line x1="646.8999999999999" y1="96.98868591291601" x2="646.8999999999999" y2="103.41131408708397" stroke="#000"/>
<line x1="646.8999999999999" y1="498.0" x2="646.8999999999999" y2="502.79999999999995" stroke="#000"/>
<text x="646.8999999999999" y="512.4" fill="#111" font-size="small" font-family="monospace" font-weight="bold" text-anchor="end" transform="rotate(-60, 646.8999999999999, 512.4)">
respond_to
</text>
<rect x="689.1999999999999" y="450.9195062889212" width="28.2" height="47.080493711078766" fill="#7070f8" data-tooltip="1.00x baseline speed (No JIT)"/>
<line x1="689.1999999999999" y1="450.81199564464845" x2="717.4" y2="450.81199564464845" stroke="#000"/>
<line x1="689.1999999999999" y1="451.027016933194" x2="717.4" y2="451.027016933194" stroke="#000"/>
<line x1="703.3" y1="450.81199564464845" x2="703.3" y2="451.027016933194" stroke="#000"/>
<rect x="717.4" y="305.3025009884011" width="28.2" height="192.69749901159878" fill="orange" data-tooltip="4.09x baseline speed (YJIT)"/>
<line x1="717.4" y1="304.83389089994165" x2="745.5999999999999" y2="304.83389089994165" stroke="#000"/>
<line x1="717.4" y1="305.7711110768606" x2="745.5999999999999" y2="305.7711110768606" stroke="#000"/>
<line x1="731.4999999999999" y1="304.83389089994165" x2="731.4999999999999" y2="305.7711110768606" stroke="#000"/>
<line x1="731.4999999999999" y1="498.0" x2="731.4999999999999" y2="502.79999999999995" stroke="#000"/>
<text x="731.4999999999999" y="512.4" fill="#111" font-size="small" font-family="monospace" font-weight="bold" text-anchor="end" transform="rotate(-60, 731.4999999999999, 512.4)">
setivar
</text>
<rect x="773.8" y="450.9195062889212" width="28.2" height="47.080493711078766" fill="#7070f8" data-tooltip="1.00x baseline speed (No JIT)"/>
<line x1="773.8" y1="449.99244048965664" x2="801.9999999999999" y2="449.99244048965664" stroke="#000"/>
<line x1="773.8" y1="451.8465720881858" x2="801.9999999999999" y2="451.8465720881858" stroke="#000"/>
<line x1="787.9" y1="449.99244048965664" x2="787.9" y2="451.8465720881858" stroke="#000"/>
<rect x="801.9999999999999" y="407.7007810962834" width="28.2" height="90.2992189037166" fill="orange" data-tooltip="1.92x baseline speed (YJIT)"/>
<line x1="801.9999999999999" y1="405.31955429855856" x2="830.1999999999999" y2="405.31955429855856" stroke="#000"/>
<line x1="801.9999999999999" y1="410.0820078940082" x2="830.1999999999999" y2="410.0820078940082" stroke="#000"/>
<line x1="816.0999999999999" y1="405.31955429855856" x2="816.0999999999999" y2="410.0820078940082" stroke="#000"/>
<line x1="816.0999999999999" y1="498.0" x2="816.0999999999999" y2="502.79999999999995" stroke="#000"/>
<text x="816.0999999999999" y="512.4" fill="#111" font-size="small" font-family="monospace" font-weight="bold" text-anchor="end" transform="rotate(-60, 816.0999999999999, 512.4)">
setivar_object
</text>
<rect x="858.4" y="450.9195062889212" width="28.2" height="47.080493711078766" fill="#7070f8" data-tooltip="1.00x baseline speed (No JIT)"/>
<line x1="858.4" y1="450.49432278478855" x2="886.5999999999999" y2="450.49432278478855" stroke="#000"/>
<line x1="858.4" y1="451.3446897930539" x2="886.5999999999999" y2="451.3446897930539" stroke="#000"/>
<line x1="872.4999999999999" y1="450.49432278478855" x2="872.4999999999999" y2="451.3446897930539" stroke="#000"/>
<rect x="886.5999999999999" y="408.17372644674333" width="28.2" height="89.82627355325664" fill="orange" data-tooltip="1.91x baseline speed (YJIT)"/>
<line x1="886.5999999999999" y1="406.5645819558609" x2="914.8" y2="406.5645819558609" stroke="#000"/>
<line x1="886.5999999999999" y1="409.7828709376257" x2="914.8" y2="409.7828709376257" stroke="#000"/>
<line x1="900.6999999999999" y1="406.5645819558609" x2="900.6999999999999" y2="409.7828709376257" stroke="#000"/>
<line x1="900.6999999999999" y1="498.0" x2="900.6999999999999" y2="502.79999999999995" stroke="#000"/>
<text x="900.6999999999999" y="512.4" fill="#111" font-size="small" font-family="monospace" font-weight="bold" text-anchor="end" transform="rotate(-60, 900.6999999999999, 512.4)">
str_concat
</text>
</svg>