<svg viewBox="0 0 1000 600" xmlns="http://www.w3.org/2000/svg" xmlns:xlink="http://www.w3.org/1999/xlink" width="100%" height="100%">

<rect x="50.0" y="30.0" width="940.0" height="467.99999999999994" stroke="#000" fill="#EEE"/>
<line x1="42.0" y1="498.0" x2="50.0" y2="498.0" stroke="#000"/>
<text x="26.000000000000004" y="498.0" text-anchor="end" font-weight="bold" font-size="small" fill="#111">
0.0
</text>
<line x1="42.0" y1="447.11325861126136" x2="50.0" y2="447.11325861126136" stroke="#000"/>
<text x="26.000000000000004" y="447.11325861126136" text-anchor="end" font-weight="bold" font-size="small" fill="#111">
1.0
</text>
<line x1="42.0" y1="396.22651722252266" x2="50.0" y2="396.22651722252266" stroke="#000"/>
<text x="26.000000000000004" y="396.22651722252266" text-anchor="end" font-weight="bold" font-size="small" fill="#111">
2.0
</text>
<line x1="42.0" y1="345.33977583378396" x2="50.0" y2="345.33977583378396" stroke="#000"/>
<text x="26.000000000000004" y="345.33977583378396" text-anchor="end" font-weight="bold" font-size="small" fill="#111">
3.0
</text>
<line x1="42.0" y1="294.4530344450453" x2="50.0" y2="294.4530344450453" stroke="#000"/>
<text x="26.000000000000004" y="294.4530344450453" text-anchor="end" font-weight="bold" font-size="small" fill="#111">
4.0
</text>
<line x1="42.0" y1="243.56629305630662" x2="50.0" y2="243.56629305630662" stroke="#000"/>
<text x="26.000000000000004" y="243.56629305630662" text-anchor="end" font-weight="bold" font-size="small" fill="#111">
5.0
</text>
<line x1="42.0" y1="192.67955166756798" x2="50.0" y2="192.67955166756798" stroke="#000"/>
<text x="26.000000000000004" y="192.67955166756798" text-anchor="end" font-weight="bold" font-size="small" fill="#111">
6.0
</text>
<line x1="42.0" y1="141.7928102788293" x2="50.0" y2="141.7928102788293" stroke="#000"/>
<text x="26.000000000000004" y="141.7928102788293" text-anchor="end" font-weight="bold" font-size="small" fill="#111">
7.0
</text>
<line x1="42.0" y1="90.90606889009067" x2="50.0" y2="90.90606889009067" stroke="#000"/>
<text x="26.000000000000004" y="90.90606889009067" text-anchor="end" font-weight="bold" font-size="small" fill="#111">
8.0
</text>
<rect x="179.19999999999996" y="36.00000000000001" width="80.0" height="18.0" fill="#7070f8" stroke="#888"/>
<text x="219.2" y="52.50000000000001" font-size="small" text-anchor="middle" font-weight="bold" fill="#111">
No JIT
</text>
<rect x="479.99999999999994" y="36.00000000000001" width="80.0" height="18.0" fill="orange" stroke="#888"/>
<text x="519.9999999999999" y="52.50000000000001" font-size="small" text-anchor="middle" font-weight="bold" fill="#111">
MJIT
</text>
<rect x="780.7999999999998" y="36.00000000000001" width="80.0" height="18.0" fill="green" stroke="#888"/>
<text x="820.7999999999998" y="52.50000000000001" font-size="small" text-anchor="middle" font-weight="bold" fill="#111">
YJIT
</text>
<rect x="68.8" y="447.11325861126136" width="12.533333333333331" height="50.886741388738656" fill="#7070f8" data-tooltip="No JIT: 1.0"/>
<line x1="68.8" y1="447.0168358334952" x2="81.33333333333333" y2="447.0168358334952" stroke="#000"/>
<line x1="68.8" y1="447.2096813890275" x2="81.33333333333333" y2="447.2096813890275" stroke="#000"/>
<line x1="75.06666666666668" y1="447.0168358334952" x2="75.06666666666668" y2="447.2096813890275" stroke="#000"/>
<rect x="81.33333333333333" y="415.5763667437929" width="12.533333333333331" height="82.42363325620707" fill="orange" data-tooltip="MJIT: 1.6"/>
<line x1="81.33333333333333" y1="415.39152419413097" x2="93.86666666666666" y2="415.39152419413097" stroke="#000"/>
<line x1="81.33333333333333" y1="415.76120929345484" x2="93.86666666666666" y2="415.76120929345484" stroke="#000"/>
<line x1="87.6" y1="415.39152419413097" x2="87.6" y2="415.76120929345484" stroke="#000"/>
<rect x="93.86666666666667" y="382.8710829636962" width="12.533333333333331" height="115.12891703630376" fill="green" data-tooltip="YJIT: 2.3"/>
<line x1="93.86666666666667" y1="382.42367843761286" x2="106.39999999999999" y2="382.42367843761286" stroke="#000"/>
<line x1="93.86666666666667" y1="383.3184874897795" x2="106.39999999999999" y2="383.3184874897795" stroke="#000"/>
<line x1="100.13333333333334" y1="382.42367843761286" x2="100.13333333333334" y2="383.3184874897795" stroke="#000"/>
<line x1="93.86666666666667" y1="498.0" x2="93.86666666666667" y2="502.79999999999995" stroke="#000"/>
<text x="93.86666666666667" y="512.4" fill="#111" font-size="small" font-family="monospace" font-weight="bold" text-anchor="end" transform="rotate(-60, 93.86666666666667, 512.4)">
cfunc_itself
</text>
<rect x="118.93333333333334" y="447.11325861126136" width="12.533333333333331" height="50.886741388738656" fill="#7070f8" data-tooltip="No JIT: 1.0"/>
<line x1="118.93333333333334" y1="447.0954006198154" x2="131.46666666666667" y2="447.0954006198154" stroke="#000"/>
<line x1="118.93333333333334" y1="447.13111660270727" x2="131.46666666666667" y2="447.13111660270727" stroke="#000"/>
<line x1="125.2" y1="447.0954006198154" x2="125.2" y2="447.13111660270727" stroke="#000"/>
<rect x="131.46666666666667" y="335.5939708943014" width="12.533333333333331" height="162.4060291056986" fill="orange" data-tooltip="MJIT: 3.2"/>
<line x1="131.46666666666667" y1="335.5075150878767" x2="144.00000000000003" y2="335.5075150878767" stroke="#000"/>
<line x1="131.46666666666667" y1="335.68042670072606" x2="144.00000000000003" y2="335.68042670072606" stroke="#000"/>
<line x1="137.73333333333335" y1="335.5075150878767" x2="137.73333333333335" y2="335.68042670072606" stroke="#000"/>
<rect x="144.0" y="323.97792057749035" width="12.533333333333331" height="174.02207942250956" fill="green" data-tooltip="YJIT: 3.4"/>
<line x1="144.0" y1="323.8519408317028" x2="156.53333333333333" y2="323.8519408317028" stroke="#000"/>
<line x1="144.0" y1="324.10390032327797" x2="156.53333333333333" y2="324.10390032327797" stroke="#000"/>
<line x1="150.26666666666665" y1="323.8519408317028" x2="150.26666666666665" y2="324.10390032327797" stroke="#000"/>
<line x1="144.0" y1="498.0" x2="144.0" y2="502.79999999999995" stroke="#000"/>
<text x="144.0" y="512.4" fill="#111" font-size="small" font-family="monospace" font-weight="bold" text-anchor="end" transform="rotate(-60, 144.0, 512.4)">
fib
</text>
<rect x="169.06666666666663" y="447.11325861126136" width="12.533333333333331" height="50.886741388738656" fill="#7070f8" data-tooltip="No JIT: 1.0"/>
<line x1="169.06666666666663" y1="447.0057223088082" x2="181.6" y2="447.0057223088082" stroke="#000"/>
<line x1="169.06666666666663" y1="447.2207949137145" x2="181.6" y2="447.2207949137145" stroke="#000"/>
<line x1="175.33333333333331" y1="447.0057223088082" x2="175.33333333333331" y2="447.2207949137145" stroke="#000"/>
<rect x="181.6" y="445.74787718771233" width="12.533333333333331" height="52.25212281228764" fill="orange" data-tooltip="MJIT: 1.0"/>
<line x1="181.6" y1="445.6153271164231" x2="194.13333333333333" y2="445.6153271164231" stroke="#000"/>
<line x1="181.6" y1="445.8804272590016" x2="194.13333333333333" y2="445.8804272590016" stroke="#000"/>
<line x1="187.86666666666665" y1="445.6153271164231" x2="187.86666666666665" y2="445.8804272590016" stroke="#000"/>
<rect x="194.1333333333333" y="367.3341290143536" width="12.533333333333331" height="130.6658709856464" fill="green" data-tooltip="YJIT: 2.6"/>
<line x1="194.1333333333333" y1="367.04955318374624" x2="206.66666666666663" y2="367.04955318374624" stroke="#000"/>
<line x1="194.1333333333333" y1="367.618704844961" x2="206.66666666666663" y2="367.618704844961" stroke="#000"/>
<line x1="200.39999999999998" y1="367.04955318374624" x2="200.39999999999998" y2="367.618704844961" stroke="#000"/>
<line x1="194.1333333333333" y1="498.0" x2="194.1333333333333" y2="502.79999999999995" stroke="#000"/>
<text x="194.1333333333333" y="512.4" fill="#111" font-size="small" font-family="monospace" font-weight="bold" text-anchor="end" transform="rotate(-60, 194.1333333333333, 512.4)">
getivar
</text>
<rect x="219.2" y="447.11325861126136" width="12.533333333333331" height="50.886741388738656" fill="#7070f8" data-tooltip="No JIT: 1.0"/>
<line x1="219.2" y1="446.7400411992511" x2="231.73333333333332" y2="446.7400411992511" stroke="#000"/>
<line x1="219.2" y1="447.48647602327156" x2="231.73333333333332" y2="447.48647602327156" stroke="#000"/>
<line x1="225.46666666666664" y1="446.7400411992511" x2="225.46666666666664" y2="447.48647602327156" stroke="#000"/>
<rect x="231.73333333333332" y="439.9688430564388" width="12.533333333333331" height="58.03115694356116" fill="orange" data-tooltip="MJIT: 1.1"/>
<line x1="231.73333333333332" y1="439.47487319640857" x2="244.26666666666665" y2="439.47487319640857" stroke="#000"/>
<line x1="231.73333333333332" y1="440.4628129164691" x2="244.26666666666665" y2="440.4628129164691" stroke="#000"/>
<line x1="238.0" y1="439.47487319640857" x2="238.0" y2="440.4628129164691" stroke="#000"/>
<rect x="244.26666666666662" y="420.9584107538261" width="12.533333333333331" height="77.04158924617386" fill="green" data-tooltip="YJIT: 1.5"/>
<line x1="244.26666666666662" y1="420.31943832366585" x2="256.79999999999995" y2="420.31943832366585" stroke="#000"/>
<line x1="244.26666666666662" y1="421.59738318398644" x2="256.79999999999995" y2="421.59738318398644" stroke="#000"/>
<line x1="250.53333333333327" y1="420.31943832366585" x2="250.53333333333327" y2="421.59738318398644" stroke="#000"/>
<line x1="244.26666666666662" y1="498.0" x2="244.26666666666662" y2="502.79999999999995" stroke="#000"/>
<text x="244.26666666666662" y="512.4" fill="#111" font-size="small" font-family="monospace" font-weight="bold" text-anchor="end" transform="rotate(-60, 244.26666666666662, 512.4)">
respond_to
</text>
<rect x="269.3333333333333" y="447.11325861126136" width="12.533333333333331" height="50.886741388738656" fill="#7070f8" data-tooltip="No JIT: 1.0"/>
<line x1="269.3333333333333" y1="447.05166080441717" x2="281.8666666666667" y2="447.05166080441717" stroke="#000"/>
<line x1="269.3333333333333" y1="447.1748564181055" x2="281.8666666666667" y2="447.1748564181055" stroke="#000"/>
<line x1="275.59999999999997" y1="447.05166080441717" x2="275.59999999999997" y2="447.1748564181055" stroke="#000"/>
<rect x="281.8666666666667" y="448.3051157031855" width="12.533333333333331" height="49.69488429681446" fill="orange" data-tooltip="MJIT: 1.0"/>
<line x1="281.8666666666667" y1="448.2358537828599" x2="294.4" y2="448.2358537828599" stroke="#000"/>
<line x1="281.8666666666667" y1="448.3743776235111" x2="294.4" y2="448.3743776235111" stroke="#000"/>
<line x1="288.13333333333327" y1="448.2358537828599" x2="288.13333333333327" y2="448.3743776235111" stroke="#000"/>
<rect x="294.4" y="411.447484683308" width="12.533333333333331" height="86.55251531669198" fill="green" data-tooltip="YJIT: 1.7"/>
<line x1="294.4" y1="411.2275155709004" x2="306.93333333333334" y2="411.2275155709004" stroke="#000"/>
<line x1="294.4" y1="411.66745379571563" x2="306.93333333333334" y2="411.66745379571563" stroke="#000"/>
<line x1="300.66666666666663" y1="411.2275155709004" x2="300.66666666666663" y2="411.66745379571563" stroke="#000"/>
<line x1="294.4" y1="498.0" x2="294.4" y2="502.79999999999995" stroke="#000"/>
<text x="294.4" y="512.4" fill="#111" font-size="small" font-family="monospace" font-weight="bold" text-anchor="end" transform="rotate(-60, 294.4, 512.4)">
setivar
</text>
<rect x="319.4666666666667" y="447.11325861126136" width="12.533333333333331" height="50.886741388738656" fill="#7070f8" data-tooltip="No JIT: 1.0"/>
<line x1="319.4666666666667" y1="445.74899424963695" x2="332.0" y2="445.74899424963695" stroke="#000"/>
<line x1="319.4666666666667" y1="448.47752297288577" x2="332.0" y2="448.47752297288577" stroke="#000"/>
<line x1="325.7333333333333" y1="445.74899424963695" x2="325.7333333333333" y2="448.47752297288577" stroke="#000"/>
<rect x="332.0" y="448.84553372205966" width="12.533333333333331" height="49.15446627794032" fill="orange" data-tooltip="MJIT: 1.0"/>
<line x1="332.0" y1="447.52301870874334" x2="344.53333333333336" y2="447.52301870874334" stroke="#000"/>
<line x1="332.0" y1="450.168048735376" x2="344.53333333333336" y2="450.168048735376" stroke="#000"/>
<line x1="338.26666666666665" y1="447.52301870874334" x2="338.26666666666665" y2="450.168048735376" stroke="#000"/>
<rect x="344.53333333333336" y="62.76" width="12.533333333333331" height="435.23999999999995" fill="green" data-tooltip="YJIT: 8.6"/>
<line x1="344.53333333333336" y1="51.090857272547865" x2="357.0666666666667" y2="51.090857272547865" stroke="#000"/>
<line x1="344.53333333333336" y1="74.42914272745213" x2="357.0666666666667" y2="74.42914272745213" stroke="#000"/>
<line x1="350.8" y1="51.090857272547865" x2="350.8" y2="74.42914272745213" stroke="#000"/>
<line x1="344.53333333333336" y1="498.0" x2="344.53333333333336" y2="502.79999999999995" stroke="#000"/>
<text x="344.53333333333336" y="512.4" fill="#111" font-size="small" font-family="monospace" font-weight="bold" text-anchor="end" transform="rotate(-60, 344.53333333333336, 512.4)">
30k_methods
</text>
<rect x="369.5999999999999" y="447.11325861126136" width="12.533333333333331" height="50.886741388738656" fill="#7070f8" data-tooltip="No JIT: 1.0"/>
<line x1="369.5999999999999" y1="446.72416452542626" x2="382.13333333333327" y2="446.72416452542626" stroke="#000"/>
<line x1="369.5999999999999" y1="447.5023526970964" x2="382.13333333333327" y2="447.5023526970964" stroke="#000"/>
<line x1="375.86666666666656" y1="446.72416452542626" x2="375.86666666666656" y2="447.5023526970964" stroke="#000"/>
<rect x="382.13333333333327" y="451.8891483367354" width="12.533333333333331" height="46.110851663264604" fill="orange" data-tooltip="MJIT: 0.9"/>
<line x1="382.13333333333327" y1="451.10968846507336" x2="394.66666666666663" y2="451.10968846507336" stroke="#000"/>
<line x1="382.13333333333327" y1="452.6686082083975" x2="394.66666666666663" y2="452.6686082083975" stroke="#000"/>
<line x1="388.3999999999999" y1="451.10968846507336" x2="388.3999999999999" y2="452.6686082083975" stroke="#000"/>
<rect x="394.66666666666663" y="151.79421800574852" width="12.533333333333331" height="346.2057819942514" fill="green" data-tooltip="YJIT: 6.8"/>
<line x1="394.66666666666663" y1="149.0645112037136" x2="407.19999999999993" y2="149.0645112037136" stroke="#000"/>
<line x1="394.66666666666663" y1="154.5239248077834" x2="407.19999999999993" y2="154.5239248077834" stroke="#000"/>
<line x1="400.9333333333333" y1="149.0645112037136" x2="400.9333333333333" y2="154.5239248077834" stroke="#000"/>
<line x1="394.66666666666663" y1="498.0" x2="394.66666666666663" y2="502.79999999999995" stroke="#000"/>
<text x="394.66666666666663" y="512.4" fill="#111" font-size="small" font-family="monospace" font-weight="bold" text-anchor="end" transform="rotate(-60, 394.66666666666663, 512.4)">
30k_ifelse
</text>
<rect x="419.7333333333333" y="447.11325861126136" width="12.533333333333331" height="50.886741388738656" fill="#7070f8" data-tooltip="No JIT: 1.0"/>
<line x1="419.7333333333333" y1="447.07461598042704" x2="432.26666666666665" y2="447.07461598042704" stroke="#000"/>
<line x1="419.7333333333333" y1="447.1519012420957" x2="432.26666666666665" y2="447.1519012420957" stroke="#000"/>
<line x1="425.99999999999994" y1="447.07461598042704" x2="425.99999999999994" y2="447.1519012420957" stroke="#000"/>
<rect x="432.26666666666665" y="428.5749171696057" width="12.533333333333331" height="69.42508283039426" fill="orange" data-tooltip="MJIT: 1.4"/>
<line x1="432.26666666666665" y1="428.43175895267035" x2="444.79999999999995" y2="428.43175895267035" stroke="#000"/>
<line x1="432.26666666666665" y1="428.7180753865411" x2="444.79999999999995" y2="428.7180753865411" stroke="#000"/>
<line x1="438.5333333333333" y1="428.43175895267035" x2="438.5333333333333" y2="428.7180753865411" stroke="#000"/>
<rect x="444.79999999999995" y="447.14619010860974" width="12.533333333333331" height="50.853809891390185" fill="green" data-tooltip="YJIT: 1.0"/>
<line x1="444.79999999999995" y1="447.09330056697905" x2="457.3333333333333" y2="447.09330056697905" stroke="#000"/>
<line x1="444.79999999999995" y1="447.19907965024044" x2="457.3333333333333" y2="447.19907965024044" stroke="#000"/>
<line x1="451.0666666666666" y1="447.09330056697905" x2="451.0666666666666" y2="447.19907965024044" stroke="#000"/>
<line x1="444.79999999999995" y1="498.0" x2="444.79999999999995" y2="502.79999999999995" stroke="#000"/>
<text x="444.79999999999995" y="512.4" fill="#111" font-size="small" font-family="monospace" font-weight="bold" text-anchor="end" transform="rotate(-60, 444.79999999999995, 512.4)">
fannkuchredux
</text>
<rect x="469.8666666666667" y="447.11325861126136" width="12.533333333333331" height="50.886741388738656" fill="#7070f8" data-tooltip="No JIT: 1.0"/>
<line x1="469.8666666666667" y1="447.09187690853497" x2="482.4" y2="447.09187690853497" stroke="#000"/>
<line x1="469.8666666666667" y1="447.1346403139877" x2="482.4" y2="447.1346403139877" stroke="#000"/>
<line x1="476.1333333333333" y1="447.09187690853497" x2="476.1333333333333" y2="447.1346403139877" stroke="#000"/>
<rect x="482.4" y="415.1716495429492" width="12.533333333333331" height="82.82835045705079" fill="orange" data-tooltip="MJIT: 1.6"/>
<line x1="482.4" y1="414.83727273492144" x2="494.93333333333334" y2="414.83727273492144" stroke="#000"/>
<line x1="482.4" y1="415.506026350977" x2="494.93333333333334" y2="415.506026350977" stroke="#000"/>
<line x1="488.66666666666663" y1="414.83727273492144" x2="488.66666666666663" y2="415.506026350977" stroke="#000"/>
<rect x="494.93333333333334" y="446.9707291639438" width="12.533333333333331" height="51.029270836056206" fill="green" data-tooltip="YJIT: 1.0"/>
<line x1="494.93333333333334" y1="446.7940411004383" x2="507.46666666666664" y2="446.7940411004383" stroke="#000"/>
<line x1="494.93333333333334" y1="447.14741722744935" x2="507.46666666666664" y2="447.14741722744935" stroke="#000"/>
<line x1="501.2" y1="446.7940411004383" x2="501.2" y2="447.14741722744935" stroke="#000"/>
<line x1="494.93333333333334" y1="498.0" x2="494.93333333333334" y2="502.79999999999995" stroke="#000"/>
<text x="494.93333333333334" y="512.4" fill="#111" font-size="small" font-family="monospace" font-weight="bold" text-anchor="end" transform="rotate(-60, 494.93333333333334, 512.4)">
nbody
</text>
<rect x="519.9999999999999" y="447.11325861126136" width="12.533333333333331" height="50.886741388738656" fill="#7070f8" data-tooltip="No JIT: 1.0"/>
<line x1="519.9999999999999" y1="446.98116837221613" x2="532.5333333333332" y2="446.98116837221613" stroke="#000"/>
<line x1="519.9999999999999" y1="447.2453488503066" x2="532.5333333333332" y2="447.2453488503066" stroke="#000"/>
<line x1="526.2666666666665" y1="446.98116837221613" x2="526.2666666666665" y2="447.2453488503066" stroke="#000"/>
<rect x="532.5333333333332" y="421.1739563102775" width="12.533333333333331" height="76.82604368972251" fill="orange" data-tooltip="MJIT: 1.5"/>
<line x1="532.5333333333332" y1="420.74735404440537" x2="545.0666666666665" y2="420.74735404440537" stroke="#000"/>
<line x1="532.5333333333332" y1="421.6005585761496" x2="545.0666666666665" y2="421.6005585761496" stroke="#000"/>
<line x1="538.7999999999998" y1="420.74735404440537" x2="538.7999999999998" y2="421.6005585761496" stroke="#000"/>
<rect x="545.0666666666666" y="432.66050123427704" width="12.533333333333331" height="65.33949876572294" fill="green" data-tooltip="YJIT: 1.3"/>
<line x1="545.0666666666666" y1="432.2491885851104" x2="557.5999999999999" y2="432.2491885851104" stroke="#000"/>
<line x1="545.0666666666666" y1="433.0718138834437" x2="557.5999999999999" y2="433.0718138834437" stroke="#000"/>
<line x1="551.3333333333333" y1="432.2491885851104" x2="551.3333333333333" y2="433.0718138834437" stroke="#000"/>
<line x1="545.0666666666666" y1="498.0" x2="545.0666666666666" y2="502.79999999999995" stroke="#000"/>
<text x="545.0666666666666" y="512.4" fill="#111" font-size="small" font-family="monospace" font-weight="bold" text-anchor="end" transform="rotate(-60, 545.0666666666666, 512.4)">
binarytrees
</text>
<rect x="570.1333333333333" y="447.11325861126136" width="12.533333333333331" height="50.886741388738656" fill="#7070f8" data-tooltip="No JIT: 1.0"/>
<line x1="570.1333333333333" y1="446.91078348127246" x2="582.6666666666665" y2="446.91078348127246" stroke="#000"/>
<line x1="570.1333333333333" y1="447.3157337412502" x2="582.6666666666665" y2="447.3157337412502" stroke="#000"/>
<line x1="576.3999999999999" y1="446.91078348127246" x2="576.3999999999999" y2="447.3157337412502" stroke="#000"/>
<rect x="582.6666666666665" y="440.2534593857336" width="12.533333333333331" height="57.74654061426639" fill="orange" data-tooltip="MJIT: 1.1"/>
<line x1="582.6666666666665" y1="439.53455668762325" x2="595.1999999999998" y2="439.53455668762325" stroke="#000"/>
<line x1="582.6666666666665" y1="440.97236208384396" x2="595.1999999999998" y2="440.97236208384396" stroke="#000"/>
<line x1="588.9333333333332" y1="439.53455668762325" x2="588.9333333333332" y2="440.97236208384396" stroke="#000"/>
<rect x="595.1999999999999" y="436.6790958436103" width="12.533333333333331" height="61.32090415638966" fill="green" data-tooltip="YJIT: 1.2"/>
<line x1="595.1999999999999" y1="436.26130843276167" x2="607.7333333333332" y2="436.26130843276167" stroke="#000"/>
<line x1="595.1999999999999" y1="437.096883254459" x2="607.7333333333332" y2="437.096883254459" stroke="#000"/>
<line x1="601.4666666666666" y1="436.26130843276167" x2="601.4666666666666" y2="437.096883254459" stroke="#000"/>
<line x1="595.1999999999999" y1="498.0" x2="595.1999999999999" y2="502.79999999999995" stroke="#000"/>
<text x="595.1999999999999" y="512.4" fill="#111" font-size="small" font-family="monospace" font-weight="bold" text-anchor="end" transform="rotate(-60, 595.1999999999999, 512.4)">
psych-load
</text>
<rect x="620.2666666666667" y="447.11325861126136" width="12.533333333333331" height="50.886741388738656" fill="#7070f8" data-tooltip="No JIT: 1.0"/>
<line x1="620.2666666666667" y1="446.6055955922638" x2="632.8" y2="446.6055955922638" stroke="#000"/>
<line x1="620.2666666666667" y1="447.6209216302589" x2="632.8" y2="447.6209216302589" stroke="#000"/>
<line x1="626.5333333333333" y1="446.6055955922638" x2="626.5333333333333" y2="447.6209216302589" stroke="#000"/>
<rect x="632.8" y="432.89767215550665" width="12.533333333333331" height="65.10232784449335" fill="orange" data-tooltip="MJIT: 1.3"/>
<line x1="632.8" y1="431.9034238151711" x2="645.3333333333333" y2="431.9034238151711" stroke="#000"/>
<line x1="632.8" y1="433.8919204958422" x2="645.3333333333333" y2="433.8919204958422" stroke="#000"/>
<line x1="639.0666666666666" y1="431.9034238151711" x2="639.0666666666666" y2="433.8919204958422" stroke="#000"/>
<rect x="645.3333333333333" y="426.34635179135455" width="12.533333333333331" height="71.65364820864542" fill="green" data-tooltip="YJIT: 1.4"/>
<line x1="645.3333333333333" y1="424.83580631244484" x2="657.8666666666666" y2="424.83580631244484" stroke="#000"/>
<line x1="645.3333333333333" y1="427.8568972702643" x2="657.8666666666666" y2="427.8568972702643" stroke="#000"/>
<line x1="651.5999999999999" y1="424.83580631244484" x2="651.5999999999999" y2="427.8568972702643" stroke="#000"/>
<line x1="645.3333333333333" y1="498.0" x2="645.3333333333333" y2="502.79999999999995" stroke="#000"/>
<text x="645.3333333333333" y="512.4" fill="#111" font-size="small" font-family="monospace" font-weight="bold" text-anchor="end" transform="rotate(-60, 645.3333333333333, 512.4)">
lee
</text>
<rect x="670.3999999999999" y="447.11325861126136" width="12.533333333333331" height="50.886741388738656" fill="#7070f8" data-tooltip="No JIT: 1.0"/>
<line x1="670.3999999999999" y1="446.62980637266173" x2="682.9333333333332" y2="446.62980637266173" stroke="#000"/>
<line x1="670.3999999999999" y1="447.5967108498609" x2="682.9333333333332" y2="447.5967108498609" stroke="#000"/>
<line x1="676.6666666666665" y1="446.62980637266173" x2="676.6666666666665" y2="447.5967108498609" stroke="#000"/>
<rect x="682.9333333333332" y="442.3597014584132" width="12.533333333333331" height="55.640298541586795" fill="orange" data-tooltip="MJIT: 1.1"/>
<line x1="682.9333333333332" y1="440.6382067637254" x2="695.4666666666665" y2="440.6382067637254" stroke="#000"/>
<line x1="682.9333333333332" y1="444.08119615310096" x2="695.4666666666665" y2="444.08119615310096" stroke="#000"/>
<line x1="689.1999999999998" y1="440.6382067637254" x2="689.1999999999998" y2="444.08119615310096" stroke="#000"/>
<rect x="695.4666666666666" y="434.39958898746164" width="12.533333333333331" height="63.60041101253836" fill="green" data-tooltip="YJIT: 1.2"/>
<line x1="695.4666666666666" y1="433.13496531116516" x2="707.9999999999999" y2="433.13496531116516" stroke="#000"/>
<line x1="695.4666666666666" y1="435.6642126637581" x2="707.9999999999999" y2="435.6642126637581" stroke="#000"/>
<line x1="701.7333333333332" y1="433.13496531116516" x2="701.7333333333332" y2="435.6642126637581" stroke="#000"/>
<line x1="695.4666666666666" y1="498.0" x2="695.4666666666666" y2="502.79999999999995" stroke="#000"/>
<text x="695.4666666666666" y="512.4" fill="#111" font-size="small" font-family="monospace" font-weight="bold" text-anchor="end" transform="rotate(-60, 695.4666666666666, 512.4)">
liquid-render
</text>
<rect x="720.5333333333333" y="447.11325861126136" width="12.533333333333331" height="50.886741388738656" fill="#7070f8" data-tooltip="No JIT: 1.0"/>
<line x1="720.5333333333333" y1="446.3124250775149" x2="733.0666666666665" y2="446.3124250775149" stroke="#000"/>
<line x1="720.5333333333333" y1="447.9140921450078" x2="733.0666666666665" y2="447.9140921450078" stroke="#000"/>
<line x1="726.7999999999998" y1="446.3124250775149" x2="726.7999999999998" y2="447.9140921450078" stroke="#000"/>
<rect x="733.0666666666665" y="448.097568356445" width="12.533333333333331" height="49.902431643554976" fill="orange" data-tooltip="MJIT: 1.0"/>
<line x1="733.0666666666665" y1="447.178504044912" x2="745.5999999999998" y2="447.178504044912" stroke="#000"/>
<line x1="733.0666666666665" y1="449.0166326679779" x2="745.5999999999998" y2="449.0166326679779" stroke="#000"/>
<line x1="739.3333333333331" y1="447.178504044912" x2="739.3333333333331" y2="449.0166326679779" stroke="#000"/>
<rect x="745.5999999999999" y="429.2800481212662" width="12.533333333333331" height="68.7199518787338" fill="green" data-tooltip="YJIT: 1.4"/>
<line x1="745.5999999999999" y1="427.5595250429567" x2="758.1333333333332" y2="427.5595250429567" stroke="#000"/>
<line x1="745.5999999999999" y1="431.0005711995757" x2="758.1333333333332" y2="431.0005711995757" stroke="#000"/>
<line x1="751.8666666666666" y1="427.5595250429567" x2="751.8666666666666" y2="431.0005711995757" stroke="#000"/>
<line x1="745.5999999999999" y1="498.0" x2="745.5999999999999" y2="502.79999999999995" stroke="#000"/>
<text x="745.5999999999999" y="512.4" fill="#111" font-size="small" font-family="monospace" font-weight="bold" text-anchor="end" transform="rotate(-60, 745.5999999999999, 512.4)">
activerecord
</text>
<rect x="770.6666666666666" y="447.11325861126136" width="12.533333333333331" height="50.886741388738656" fill="#7070f8" data-tooltip="No JIT: 1.0"/>
<line x1="770.6666666666666" y1="446.89709036488927" x2="783.1999999999999" y2="446.89709036488927" stroke="#000"/>
<line x1="770.6666666666666" y1="447.3294268576334" x2="783.1999999999999" y2="447.3294268576334" stroke="#000"/>
<line x1="776.9333333333333" y1="446.89709036488927" x2="776.9333333333333" y2="447.3294268576334" stroke="#000"/>
<rect x="783.1999999999999" y="400.1200392009744" width="12.533333333333331" height="97.8799607990255" fill="orange" data-tooltip="MJIT: 1.9"/>
<line x1="783.1999999999999" y1="399.6410877680319" x2="795.7333333333332" y2="399.6410877680319" stroke="#000"/>
<line x1="783.1999999999999" y1="400.5989906339169" x2="795.7333333333332" y2="400.5989906339169" stroke="#000"/>
<line x1="789.4666666666666" y1="399.6410877680319" x2="789.4666666666666" y2="400.5989906339169" stroke="#000"/>
<rect x="795.7333333333333" y="411.6877546503787" width="12.533333333333331" height="86.31224534962129" fill="green" data-tooltip="YJIT: 1.7"/>
<line x1="795.7333333333333" y1="411.3105413251643" x2="808.2666666666665" y2="411.3105413251643" stroke="#000"/>
<line x1="795.7333333333333" y1="412.06496797559305" x2="808.2666666666665" y2="412.06496797559305" stroke="#000"/>
<line x1="801.9999999999999" y1="411.3105413251643" x2="801.9999999999999" y2="412.06496797559305" stroke="#000"/>
<line x1="795.7333333333333" y1="498.0" x2="795.7333333333333" y2="502.79999999999995" stroke="#000"/>
<text x="795.7333333333333" y="512.4" fill="#111" font-size="small" font-family="monospace" font-weight="bold" text-anchor="end" transform="rotate(-60, 795.7333333333333, 512.4)">
optcarrot
</text>
<rect x="820.7999999999998" y="447.11325861126136" width="12.533333333333331" height="50.886741388738656" fill="#7070f8" data-tooltip="No JIT: 1.0"/>
<line x1="820.7999999999998" y1="446.2565336059091" x2="833.3333333333331" y2="446.2565336059091" stroke="#000"/>
<line x1="820.7999999999998" y1="447.9699836166136" x2="833.3333333333331" y2="447.9699836166136" stroke="#000"/>
<line x1="827.0666666666665" y1="446.2565336059091" x2="827.0666666666665" y2="447.9699836166136" stroke="#000"/>
<rect x="833.3333333333331" y="447.21508277133427" width="12.533333333333331" height="50.78491722866566" fill="orange" data-tooltip="MJIT: 1.0"/>
<line x1="833.3333333333331" y1="445.91272946079164" x2="845.8666666666664" y2="445.91272946079164" stroke="#000"/>
<line x1="833.3333333333331" y1="448.5174360818769" x2="845.8666666666664" y2="448.5174360818769" stroke="#000"/>
<line x1="839.5999999999998" y1="445.91272946079164" x2="839.5999999999998" y2="448.5174360818769" stroke="#000"/>
<rect x="845.8666666666666" y="442.5030166421135" width="12.533333333333331" height="55.496983357886535" fill="green" data-tooltip="YJIT: 1.1"/>
<line x1="845.8666666666666" y1="440.82538494579563" x2="858.3999999999999" y2="440.82538494579563" stroke="#000"/>
<line x1="845.8666666666666" y1="444.1806483384313" x2="858.3999999999999" y2="444.1806483384313" stroke="#000"/>
<line x1="852.1333333333332" y1="440.82538494579563" x2="852.1333333333332" y2="444.1806483384313" stroke="#000"/>
<line x1="845.8666666666666" y1="498.0" x2="845.8666666666666" y2="502.79999999999995" stroke="#000"/>
<text x="845.8666666666666" y="512.4" fill="#111" font-size="small" font-family="monospace" font-weight="bold" text-anchor="end" transform="rotate(-60, 845.8666666666666, 512.4)">
jekyll
</text>
<rect x="870.9333333333333" y="447.11325861126136" width="12.533333333333331" height="50.886741388738656" fill="#7070f8" data-tooltip="No JIT: 1.0"/>
<line x1="870.9333333333333" y1="446.4826523733469" x2="883.4666666666665" y2="446.4826523733469" stroke="#000"/>
<line x1="870.9333333333333" y1="447.74386484917574" x2="883.4666666666665" y2="447.74386484917574" stroke="#000"/>
<line x1="877.1999999999998" y1="446.4826523733469" x2="877.1999999999998" y2="447.74386484917574" stroke="#000"/>
<rect x="883.4666666666665" y="447.735525427415" width="12.533333333333331" height="50.26447457258496" fill="orange" data-tooltip="MJIT: 1.0"/>
<line x1="883.4666666666665" y1="446.75831327252735" x2="895.9999999999998" y2="446.75831327252735" stroke="#000"/>
<line x1="883.4666666666665" y1="448.7127375823027" x2="895.9999999999998" y2="448.7127375823027" stroke="#000"/>
<line x1="889.7333333333331" y1="446.75831327252735" x2="889.7333333333331" y2="448.7127375823027" stroke="#000"/>
<rect x="895.9999999999999" y="442.75853726258146" width="12.533333333333331" height="55.24146273741851" fill="green" data-tooltip="YJIT: 1.1"/>
<line x1="895.9999999999999" y1="441.2642991065289" x2="908.5333333333332" y2="441.2642991065289" stroke="#000"/>
<line x1="895.9999999999999" y1="444.2527754186341" x2="908.5333333333332" y2="444.2527754186341" stroke="#000"/>
<line x1="902.2666666666665" y1="441.2642991065289" x2="902.2666666666665" y2="444.2527754186341" stroke="#000"/>
<line x1="895.9999999999999" y1="498.0" x2="895.9999999999999" y2="502.79999999999995" stroke="#000"/>
<text x="895.9999999999999" y="512.4" fill="#111" font-size="small" font-family="monospace" font-weight="bold" text-anchor="end" transform="rotate(-60, 895.9999999999999, 512.4)">
mail
</text>
<rect x="921.0666666666666" y="447.11325861126136" width="12.533333333333331" height="50.886741388738656" fill="#7070f8" data-tooltip="No JIT: 1.0"/>
<line x1="921.0666666666666" y1="446.62303669824223" x2="933.5999999999999" y2="446.62303669824223" stroke="#000"/>
<line x1="921.0666666666666" y1="447.6034805242804" x2="933.5999999999999" y2="447.6034805242804" stroke="#000"/>
<line x1="927.3333333333333" y1="446.62303669824223" x2="927.3333333333333" y2="447.6034805242804" stroke="#000"/>
<rect x="933.5999999999999" y="447.82341023243987" width="12.533333333333331" height="50.17658976756009" fill="orange" data-tooltip="MJIT: 1.0"/>
<line x1="933.5999999999999" y1="447.12750007237105" x2="946.1333333333332" y2="447.12750007237105" stroke="#000"/>
<line x1="933.5999999999999" y1="448.5193203925087" x2="946.1333333333332" y2="448.5193203925087" stroke="#000"/>
<line x1="939.8666666666666" y1="447.12750007237105" x2="939.8666666666666" y2="448.5193203925087" stroke="#000"/>
<rect x="946.1333333333333" y="438.95408045458515" width="12.533333333333331" height="59.0459195454148" fill="green" data-tooltip="YJIT: 1.2"/>
<line x1="946.1333333333333" y1="437.8079961602942" x2="958.6666666666665" y2="437.8079961602942" stroke="#000"/>
<line x1="946.1333333333333" y1="440.1001647488762" x2="958.6666666666665" y2="440.1001647488762" stroke="#000"/>
<line x1="952.3999999999999" y1="437.8079961602942" x2="952.3999999999999" y2="440.1001647488762" stroke="#000"/>
<line x1="946.1333333333333" y1="498.0" x2="946.1333333333333" y2="502.79999999999995" stroke="#000"/>
<text x="946.1333333333333" y="512.4" fill="#111" font-size="small" font-family="monospace" font-weight="bold" text-anchor="end" transform="rotate(-60, 946.1333333333333, 512.4)">
railsbench
</text>
</svg>