<svg viewBox="0 0 1000 600" xmlns="http://www.w3.org/2000/svg" xmlns:xlink="http://www.w3.org/1999/xlink" width="100%" height="100%">

<rect x="50.0" y="30.0" width="940.0" height="467.99999999999994" stroke="#000" fill="#EEE"/>
<line x1="42.0" y1="497.9999999999999" x2="50.0" y2="497.9999999999999" stroke="#000"/>
<text x="26.000000000000004" y="497.9999999999999" text-anchor="end" font-weight="bold" font-size="small" fill="#111">
0.0
</text>
<line x1="42.0" y1="451.06416284858864" x2="50.0" y2="451.06416284858864" stroke="#000"/>
<text x="26.000000000000004" y="451.06416284858864" text-anchor="end" font-weight="bold" font-size="small" fill="#111">
0.2
</text>
<line x1="42.0" y1="404.1283256971773" x2="50.0" y2="404.1283256971773" stroke="#000"/>
<text x="26.000000000000004" y="404.1283256971773" text-anchor="end" font-weight="bold" font-size="small" fill="#111">
0.4
</text>
<line x1="42.0" y1="357.19248854576597" x2="50.0" y2="357.19248854576597" stroke="#000"/>
<text x="26.000000000000004" y="357.19248854576597" text-anchor="end" font-weight="bold" font-size="small" fill="#111">
0.6
</text>
<line x1="42.0" y1="310.2566513943546" x2="50.0" y2="310.2566513943546" stroke="#000"/>
<text x="26.000000000000004" y="310.2566513943546" text-anchor="end" font-weight="bold" font-size="small" fill="#111">
0.8
</text>
<line x1="42.0" y1="263.3208142429433" x2="50.0" y2="263.3208142429433" stroke="#000"/>
<text x="26.000000000000004" y="263.3208142429433" text-anchor="end" font-weight="bold" font-size="small" fill="#111">
1.0
</text>
<line x1="42.0" y1="216.384977091532" x2="50.0" y2="216.384977091532" stroke="#000"/>
<text x="26.000000000000004" y="216.384977091532" text-anchor="end" font-weight="bold" font-size="small" fill="#111">
1.2
</text>
<line x1="42.0" y1="169.44913994012072" x2="50.0" y2="169.44913994012072" stroke="#000"/>
<text x="26.000000000000004" y="169.44913994012072" text-anchor="end" font-weight="bold" font-size="small" fill="#111">
1.4
</text>
<line x1="42.0" y1="122.51330278870937" x2="50.0" y2="122.51330278870937" stroke="#000"/>
<text x="26.000000000000004" y="122.51330278870937" text-anchor="end" font-weight="bold" font-size="small" fill="#111">
1.6
</text>
<rect x="197.99999999999997" y="36.00000000000001" width="80.0" height="18.0" fill="#7070f8" stroke="#888"/>
<text x="238.0" y="52.50000000000001" font-size="small" text-anchor="middle" font-weight="bold" fill="#EEE">
No JIT
</text>
<rect x="479.99999999999994" y="36.00000000000001" width="80.0" height="18.0" fill="orange" stroke="#888"/>
<text x="519.9999999999999" y="52.50000000000001" font-size="small" text-anchor="middle" font-weight="bold" fill="#EEE">
MJIT
</text>
<rect x="761.9999999999999" y="36.00000000000001" width="80.0" height="18.0" fill="green" stroke="#888"/>
<text x="801.9999999999999" y="52.50000000000001" font-size="small" text-anchor="middle" font-weight="bold" fill="#EEE">
YJIT
</text>
<rect x="97.0" y="263.3208142429433" width="35.25" height="234.67918575705664" fill="#7070f8" data-tooltip="1.00x baseline speed (No JIT)"/>
<line x1="97.0" y1="262.29915635579664" x2="132.25" y2="262.29915635579664" stroke="#000"/>
<line x1="97.0" y1="264.34247213009" x2="132.25" y2="264.34247213009" stroke="#000"/>
<line x1="114.625" y1="262.29915635579664" x2="114.625" y2="264.34247213009" stroke="#000"/>
<rect x="132.25" y="298.1870172432964" width="35.25" height="199.81298275670358" fill="orange" data-tooltip="0.85x baseline speed (MJIT)"/>
<line x1="132.25" y1="289.7910124337984" x2="167.5" y2="289.7910124337984" stroke="#000"/>
<line x1="132.25" y1="306.58302205279426" x2="167.5" y2="306.58302205279426" stroke="#000"/>
<line x1="149.875" y1="289.7910124337984" x2="149.875" y2="306.58302205279426" stroke="#000"/>
<rect x="167.49999999999997" y="169.96609022144668" width="35.25" height="328.0339097785532" fill="green" data-tooltip="1.40x baseline speed (YJIT)"/>
<line x1="167.49999999999997" y1="167.57936953576737" x2="202.75" y2="167.57936953576737" stroke="#000"/>
<line x1="167.49999999999997" y1="172.35281090712598" x2="202.75" y2="172.35281090712598" stroke="#000"/>
<line x1="185.12499999999997" y1="167.57936953576737" x2="185.12499999999997" y2="172.35281090712598" stroke="#000"/>
<line x1="167.49999999999997" y1="498.0" x2="167.49999999999997" y2="502.79999999999995" stroke="#000"/>
<text x="167.49999999999997" y="512.4" fill="#111" font-size="small" font-family="monospace" font-weight="bold" text-anchor="end" transform="rotate(-60, 167.49999999999997, 512.4)">
activerecord
</text>
<rect x="238.0" y="263.3208142429433" width="35.25" height="234.67918575705664" fill="#7070f8" data-tooltip="1.00x baseline speed (No JIT)"/>
<line x1="238.0" y1="261.1091300014162" x2="273.25" y2="261.1091300014162" stroke="#000"/>
<line x1="238.0" y1="265.5324984844704" x2="273.25" y2="265.5324984844704" stroke="#000"/>
<line x1="255.625" y1="261.1091300014162" x2="255.625" y2="265.5324984844704" stroke="#000"/>
<rect x="308.5" y="170.30056473473948" width="35.25" height="327.69943526526043" fill="green" data-tooltip="1.40x baseline speed (YJIT)"/>
<line x1="308.5" y1="162.18031766079343" x2="343.75" y2="162.18031766079343" stroke="#000"/>
<line x1="308.5" y1="178.4208118086855" x2="343.75" y2="178.4208118086855" stroke="#000"/>
<line x1="326.125" y1="162.18031766079343" x2="326.125" y2="178.4208118086855" stroke="#000"/>
<line x1="308.5" y1="498.0" x2="308.5" y2="502.79999999999995" stroke="#000"/>
<text x="308.5" y="512.4" fill="#111" font-size="small" font-family="monospace" font-weight="bold" text-anchor="end" transform="rotate(-60, 308.5, 512.4)">
hexapdf
</text>
<rect x="379.0" y="263.3208142429433" width="35.25" height="234.67918575705664" fill="#7070f8" data-tooltip="1.00x baseline speed (No JIT)"/>
<line x1="379.0" y1="261.0868796015822" x2="414.25" y2="261.0868796015822" stroke="#000"/>
<line x1="379.0" y1="265.55474888430444" x2="414.25" y2="265.55474888430444" stroke="#000"/>
<line x1="396.625" y1="261.0868796015822" x2="396.625" y2="265.55474888430444" stroke="#000"/>
<rect x="414.25" y="227.39680718359904" width="35.25" height="270.6031928164009" fill="orange" data-tooltip="1.15x baseline speed (MJIT)"/>
<line x1="414.25" y1="223.4760826512571" x2="449.5" y2="223.4760826512571" stroke="#000"/>
<line x1="414.25" y1="231.317531715941" x2="449.5" y2="231.317531715941" stroke="#000"/>
<line x1="431.875" y1="223.4760826512571" x2="431.875" y2="231.317531715941" stroke="#000"/>
<rect x="449.5" y="100.19999999999999" width="35.25" height="397.79999999999995" fill="green" data-tooltip="1.70x baseline speed (YJIT)"/>
<line x1="449.5" y1="91.65008438715064" x2="484.75" y2="91.65008438715064" stroke="#000"/>
<line x1="449.5" y1="108.74991561284934" x2="484.75" y2="108.74991561284934" stroke="#000"/>
<line x1="467.125" y1="91.65008438715064" x2="467.125" y2="108.74991561284934" stroke="#000"/>
<line x1="449.5" y1="498.0" x2="449.5" y2="502.79999999999995" stroke="#000"/>
<text x="449.5" y="512.4" fill="#111" font-size="small" font-family="monospace" font-weight="bold" text-anchor="end" transform="rotate(-60, 449.5, 512.4)">
liquid-render
</text>
<rect x="519.9999999999999" y="263.3208142429433" width="35.25" height="234.67918575705664" fill="#7070f8" data-tooltip="1.00x baseline speed (No JIT)"/>
<line x1="519.9999999999999" y1="263.0726612909711" x2="555.2499999999999" y2="263.0726612909711" stroke="#000"/>
<line x1="519.9999999999999" y1="263.5689671949155" x2="555.2499999999999" y2="263.5689671949155" stroke="#000"/>
<line x1="537.6249999999999" y1="263.0726612909711" x2="537.6249999999999" y2="263.5689671949155" stroke="#000"/>
<rect x="555.2499999999999" y="252.4423015280291" width="35.25" height="245.55769847197084" fill="orange" data-tooltip="1.05x baseline speed (MJIT)"/>
<line x1="555.2499999999999" y1="246.46179498529233" x2="590.4999999999999" y2="246.46179498529233" stroke="#000"/>
<line x1="555.2499999999999" y1="258.4228080707659" x2="590.4999999999999" y2="258.4228080707659" stroke="#000"/>
<line x1="572.8749999999999" y1="246.46179498529233" x2="572.8749999999999" y2="258.4228080707659" stroke="#000"/>
<rect x="590.4999999999999" y="219.37120460195314" width="35.25" height="278.62879539804686" fill="green" data-tooltip="1.19x baseline speed (YJIT)"/>
<line x1="590.4999999999999" y1="218.70705272247855" x2="625.7499999999999" y2="218.70705272247855" stroke="#000"/>
<line x1="590.4999999999999" y1="220.03535648142773" x2="625.7499999999999" y2="220.03535648142773" stroke="#000"/>
<line x1="608.1249999999999" y1="218.70705272247855" x2="608.1249999999999" y2="220.03535648142773" stroke="#000"/>
<line x1="590.4999999999999" y1="498.0" x2="590.4999999999999" y2="502.79999999999995" stroke="#000"/>
<text x="590.4999999999999" y="512.4" fill="#111" font-size="small" font-family="monospace" font-weight="bold" text-anchor="end" transform="rotate(-60, 590.4999999999999, 512.4)">
mail
</text>
<rect x="660.9999999999999" y="263.3208142429433" width="35.25" height="234.67918575705664" fill="#7070f8" data-tooltip="1.00x baseline speed (No JIT)"/>
<line x1="660.9999999999999" y1="260.734548355223" x2="696.2499999999999" y2="260.734548355223" stroke="#000"/>
<line x1="660.9999999999999" y1="265.9070801306636" x2="696.2499999999999" y2="265.9070801306636" stroke="#000"/>
<line x1="678.6249999999999" y1="260.734548355223" x2="678.6249999999999" y2="265.9070801306636" stroke="#000"/>
<rect x="696.2499999999999" y="225.87259549269" width="35.25" height="272.12740450730996" fill="orange" data-tooltip="1.16x baseline speed (MJIT)"/>
<line x1="696.2499999999999" y1="222.86961305754753" x2="731.4999999999999" y2="222.86961305754753" stroke="#000"/>
<line x1="696.2499999999999" y1="228.8755779278325" x2="731.4999999999999" y2="228.8755779278325" stroke="#000"/>
<line x1="713.8749999999999" y1="222.86961305754753" x2="713.8749999999999" y2="228.8755779278325" stroke="#000"/>
<rect x="731.4999999999999" y="194.76956185577578" width="35.25" height="303.2304381442242" fill="green" data-tooltip="1.29x baseline speed (YJIT)"/>
<line x1="731.4999999999999" y1="191.25948818766065" x2="766.7499999999999" y2="191.25948818766065" stroke="#000"/>
<line x1="731.4999999999999" y1="198.27963552389087" x2="766.7499999999999" y2="198.27963552389087" stroke="#000"/>
<line x1="749.1249999999999" y1="191.25948818766065" x2="749.1249999999999" y2="198.27963552389087" stroke="#000"/>
<line x1="731.4999999999999" y1="498.0" x2="731.4999999999999" y2="502.79999999999995" stroke="#000"/>
<text x="731.4999999999999" y="512.4" fill="#111" font-size="small" font-family="monospace" font-weight="bold" text-anchor="end" transform="rotate(-60, 731.4999999999999, 512.4)">
psych-load
</text>
<rect x="801.9999999999999" y="263.3208142429433" width="35.25" height="234.67918575705664" fill="#7070f8" data-tooltip="1.00x baseline speed (No JIT)"/>
<line x1="801.9999999999999" y1="261.69600929576075" x2="837.2499999999999" y2="261.69600929576075" stroke="#000"/>
<line x1="801.9999999999999" y1="264.9456191901259" x2="837.2499999999999" y2="264.9456191901259" stroke="#000"/>
<line x1="819.6249999999999" y1="261.69600929576075" x2="819.6249999999999" y2="264.9456191901259" stroke="#000"/>
<rect x="837.2499999999999" y="296.32110782979413" width="35.25" height="201.6788921702058" fill="orange" data-tooltip="0.86x baseline speed (MJIT)"/>
<line x1="837.2499999999999" y1="294.5337815073368" x2="872.4999999999999" y2="294.5337815073368" stroke="#000"/>
<line x1="837.2499999999999" y1="298.10843415225145" x2="872.4999999999999" y2="298.10843415225145" stroke="#000"/>
<line x1="854.8749999999999" y1="294.5337815073368" x2="854.8749999999999" y2="298.10843415225145" stroke="#000"/>
<rect x="872.4999999999999" y="185.0252125776029" width="35.25" height="312.974787422397" fill="green" data-tooltip="1.33x baseline speed (YJIT)"/>
<line x1="872.4999999999999" y1="181.86560909056573" x2="907.75" y2="181.86560909056573" stroke="#000"/>
<line x1="872.4999999999999" y1="188.18481606464005" x2="907.75" y2="188.18481606464005" stroke="#000"/>
<line x1="890.125" y1="181.86560909056573" x2="890.125" y2="188.18481606464005" stroke="#000"/>
<line x1="872.4999999999999" y1="498.0" x2="872.4999999999999" y2="502.79999999999995" stroke="#000"/>
<text x="872.4999999999999" y="512.4" fill="#111" font-size="small" font-family="monospace" font-weight="bold" text-anchor="end" transform="rotate(-60, 872.4999999999999, 512.4)">
railsbench
</text>
</svg>