<svg viewBox="0 0 1000 600" xmlns="http://www.w3.org/2000/svg" xmlns:xlink="http://www.w3.org/1999/xlink" width="100%" height="100%">

<rect x="50.0" y="30.0" width="940.0" height="467.99999999999994" stroke="#000" fill="#EEE"/>
<line x1="42.0" y1="497.9999999999999" x2="50.0" y2="497.9999999999999" stroke="#000"/>
<text x="26.000000000000004" y="497.9999999999999" text-anchor="end" font-weight="bold" font-size="small" fill="#111">
0.0
</text>
<line x1="42.0" y1="440.09823405375784" x2="50.0" y2="440.09823405375784" stroke="#000"/>
<text x="26.000000000000004" y="440.09823405375784" text-anchor="end" font-weight="bold" font-size="small" fill="#111">
0.2
</text>
<line x1="42.0" y1="382.19646810751567" x2="50.0" y2="382.19646810751567" stroke="#000"/>
<text x="26.000000000000004" y="382.19646810751567" text-anchor="end" font-weight="bold" font-size="small" fill="#111">
0.4
</text>
<line x1="42.0" y1="324.2947021612736" x2="50.0" y2="324.2947021612736" stroke="#000"/>
<text x="26.000000000000004" y="324.2947021612736" text-anchor="end" font-weight="bold" font-size="small" fill="#111">
0.6
</text>
<line x1="42.0" y1="266.39293621503145" x2="50.0" y2="266.39293621503145" stroke="#000"/>
<text x="26.000000000000004" y="266.39293621503145" text-anchor="end" font-weight="bold" font-size="small" fill="#111">
0.8
</text>
<line x1="42.0" y1="208.49117026878935" x2="50.0" y2="208.49117026878935" stroke="#000"/>
<text x="26.000000000000004" y="208.49117026878935" text-anchor="end" font-weight="bold" font-size="small" fill="#111">
1.0
</text>
<line x1="42.0" y1="150.58940432254724" x2="50.0" y2="150.58940432254724" stroke="#000"/>
<text x="26.000000000000004" y="150.58940432254724" text-anchor="end" font-weight="bold" font-size="small" fill="#111">
1.2
</text>
<rect x="268.5" y="36.00000000000001" width="80.0" height="18.0" fill="#7070f8" stroke="#888"/>
<text x="308.5" y="52.50000000000001" font-size="small" text-anchor="middle" font-weight="bold" fill="#EEE">
No JIT
</text>
<rect x="691.4999999999999" y="36.00000000000001" width="80.0" height="18.0" fill="orange" stroke="#888"/>
<text x="731.4999999999999" y="52.50000000000001" font-size="small" text-anchor="middle" font-weight="bold" fill="#EEE">
YJIT
</text>
<rect x="97.0" y="208.49117026878935" width="35.25" height="289.5088297312106" fill="#7070f8" data-tooltip="1.00x baseline speed (No JIT)"/>
<line x1="97.0" y1="207.84418166715867" x2="132.25" y2="207.84418166715867" stroke="#000"/>
<line x1="97.0" y1="209.13815887042006" x2="132.25" y2="209.13815887042006" stroke="#000"/>
<line x1="114.625" y1="207.84418166715867" x2="114.625" y2="209.13815887042006" stroke="#000"/>
<rect x="132.25" y="142.52877264224207" width="35.25" height="355.47122735775787" fill="orange" data-tooltip="1.23x baseline speed (YJIT)"/>
<line x1="132.25" y1="140.89095623538577" x2="167.5" y2="140.89095623538577" stroke="#000"/>
<line x1="132.25" y1="144.16658904909838" x2="167.5" y2="144.16658904909838" stroke="#000"/>
<line x1="149.875" y1="140.89095623538577" x2="149.875" y2="144.16658904909838" stroke="#000"/>
<line x1="149.875" y1="498.0" x2="149.875" y2="502.79999999999995" stroke="#000"/>
<text x="149.875" y="512.4" fill="#111" font-size="small" font-family="monospace" font-weight="bold" text-anchor="end" transform="rotate(-60, 149.875, 512.4)">
activerecord
</text>
<rect x="202.75" y="208.49117026878935" width="35.25" height="289.5088297312106" fill="#7070f8" data-tooltip="1.00x baseline speed (No JIT)"/>
<line x1="202.75" y1="206.82211037494366" x2="238.0" y2="206.82211037494366" stroke="#000"/>
<line x1="202.75" y1="210.16023016263506" x2="238.0" y2="210.16023016263506" stroke="#000"/>
<line x1="220.375" y1="206.82211037494366" x2="220.375" y2="210.16023016263506" stroke="#000"/>
<rect x="238.0" y="155.02317659863826" width="35.25" height="342.97682340136174" fill="orange" data-tooltip="1.18x baseline speed (YJIT)"/>
<line x1="238.0" y1="150.27953809073355" x2="273.25" y2="150.27953809073355" stroke="#000"/>
<line x1="238.0" y1="159.76681510654294" x2="273.25" y2="159.76681510654294" stroke="#000"/>
<line x1="255.625" y1="150.27953809073355" x2="255.625" y2="159.76681510654294" stroke="#000"/>
<line x1="255.625" y1="498.0" x2="255.625" y2="502.79999999999995" stroke="#000"/>
<text x="255.625" y="512.4" fill="#111" font-size="small" font-family="monospace" font-weight="bold" text-anchor="end" transform="rotate(-60, 255.625, 512.4)">
hexapdf
</text>
<rect x="308.5" y="208.49117026878935" width="35.25" height="289.5088297312106" fill="#7070f8" data-tooltip="1.00x baseline speed (No JIT)"/>
<line x1="308.5" y1="205.8611238140598" x2="343.75" y2="205.8611238140598" stroke="#000"/>
<line x1="308.5" y1="211.12121672351893" x2="343.75" y2="211.12121672351893" stroke="#000"/>
<line x1="326.125" y1="205.8611238140598" x2="326.125" y2="211.12121672351893" stroke="#000"/>
<rect x="343.75" y="100.19999999999999" width="35.25" height="397.79999999999995" fill="orange" data-tooltip="1.37x baseline speed (YJIT)"/>
<line x1="343.75" y1="92.96537116697776" x2="379.0" y2="92.96537116697776" stroke="#000"/>
<line x1="343.75" y1="107.43462883302222" x2="379.0" y2="107.43462883302222" stroke="#000"/>
<line x1="361.375" y1="92.96537116697776" x2="361.375" y2="107.43462883302222" stroke="#000"/>
<line x1="361.375" y1="498.0" x2="361.375" y2="502.79999999999995" stroke="#000"/>
<text x="361.375" y="512.4" fill="#111" font-size="small" font-family="monospace" font-weight="bold" text-anchor="end" transform="rotate(-60, 361.375, 512.4)">
liquid-render
</text>
<rect x="414.25" y="208.49117026878935" width="35.25" height="289.5088297312106" fill="#7070f8" data-tooltip="1.00x baseline speed (No JIT)"/>
<line x1="414.25" y1="206.59048748174388" x2="449.5" y2="206.59048748174388" stroke="#000"/>
<line x1="414.25" y1="210.39185305583484" x2="449.5" y2="210.39185305583484" stroke="#000"/>
<line x1="431.875" y1="206.59048748174388" x2="431.875" y2="210.39185305583484" stroke="#000"/>
<rect x="449.5" y="176.81845212387006" width="35.25" height="321.18154787612986" fill="orange" data-tooltip="1.11x baseline speed (YJIT)"/>
<line x1="449.5" y1="174.6535952035861" x2="484.75" y2="174.6535952035861" stroke="#000"/>
<line x1="449.5" y1="178.98330904415405" x2="484.75" y2="178.98330904415405" stroke="#000"/>
<line x1="467.125" y1="174.6535952035861" x2="467.125" y2="178.98330904415405" stroke="#000"/>
<line x1="467.125" y1="498.0" x2="467.125" y2="502.79999999999995" stroke="#000"/>
<text x="467.125" y="512.4" fill="#111" font-size="small" font-family="monospace" font-weight="bold" text-anchor="end" transform="rotate(-60, 467.125, 512.4)">
mail
</text>
<rect x="520.0" y="208.49117026878935" width="35.25" height="289.5088297312106" fill="#7070f8" data-tooltip="1.00x baseline speed (No JIT)"/>
<line x1="520.0" y1="208.03314017327722" x2="555.25" y2="208.03314017327722" stroke="#000"/>
<line x1="520.0" y1="208.9492003643015" x2="555.25" y2="208.9492003643015" stroke="#000"/>
<line x1="537.625" y1="208.03314017327722" x2="537.625" y2="208.9492003643015" stroke="#000"/>
<rect x="555.25" y="118.22836381159755" width="35.25" height="379.7716361884024" fill="orange" data-tooltip="1.31x baseline speed (YJIT)"/>
<line x1="555.25" y1="117.54703181250864" x2="590.5" y2="117.54703181250864" stroke="#000"/>
<line x1="555.25" y1="118.90969581068647" x2="590.5" y2="118.90969581068647" stroke="#000"/>
<line x1="572.875" y1="117.54703181250864" x2="572.875" y2="118.90969581068647" stroke="#000"/>
<line x1="572.875" y1="498.0" x2="572.875" y2="502.79999999999995" stroke="#000"/>
<text x="572.875" y="512.4" fill="#111" font-size="small" font-family="monospace" font-weight="bold" text-anchor="end" transform="rotate(-60, 572.875, 512.4)">
psych-load
</text>
<rect x="625.7499999999999" y="208.49117026878935" width="35.25" height="289.5088297312106" fill="#7070f8" data-tooltip="1.00x baseline speed (No JIT)"/>
<line x1="625.7499999999999" y1="207.21833023544133" x2="660.9999999999999" y2="207.21833023544133" stroke="#000"/>
<line x1="625.7499999999999" y1="209.7640103021374" x2="660.9999999999999" y2="209.7640103021374" stroke="#000"/>
<line x1="643.3749999999999" y1="207.21833023544133" x2="643.3749999999999" y2="209.7640103021374" stroke="#000"/>
<rect x="660.9999999999999" y="139.21261669785582" width="35.25" height="358.7873833021441" fill="orange" data-tooltip="1.24x baseline speed (YJIT)"/>
<line x1="660.9999999999999" y1="135.60089563605112" x2="696.2499999999999" y2="135.60089563605112" stroke="#000"/>
<line x1="660.9999999999999" y1="142.82433775966055" x2="696.2499999999999" y2="142.82433775966055" stroke="#000"/>
<line x1="678.6249999999999" y1="135.60089563605112" x2="678.6249999999999" y2="142.82433775966055" stroke="#000"/>
<line x1="678.6249999999999" y1="498.0" x2="678.6249999999999" y2="502.79999999999995" stroke="#000"/>
<text x="678.6249999999999" y="512.4" fill="#111" font-size="small" font-family="monospace" font-weight="bold" text-anchor="end" transform="rotate(-60, 678.6249999999999, 512.4)">
railsbench
</text>
<rect x="731.4999999999999" y="208.49117026878935" width="35.25" height="289.5088297312106" fill="#7070f8" data-tooltip="1.00x baseline speed (No JIT)"/>
<line x1="731.4999999999999" y1="188.44212629997955" x2="766.7499999999999" y2="188.44212629997955" stroke="#000"/>
<line x1="731.4999999999999" y1="228.54021423759917" x2="766.7499999999999" y2="228.54021423759917" stroke="#000"/>
<line x1="749.1249999999999" y1="188.44212629997955" x2="749.1249999999999" y2="228.54021423759917" stroke="#000"/>
<rect x="766.7499999999999" y="186.84077118550832" width="35.25" height="311.15922881449166" fill="orange" data-tooltip="1.07x baseline speed (YJIT)"/>
<line x1="766.7499999999999" y1="149.67389628533192" x2="801.9999999999999" y2="149.67389628533192" stroke="#000"/>
<line x1="766.7499999999999" y1="224.0076460856847" x2="801.9999999999999" y2="224.0076460856847" stroke="#000"/>
<line x1="784.3749999999999" y1="149.67389628533192" x2="784.3749999999999" y2="224.0076460856847" stroke="#000"/>
<line x1="784.3749999999999" y1="498.0" x2="784.3749999999999" y2="502.79999999999995" stroke="#000"/>
<text x="784.3749999999999" y="512.4" fill="#111" font-size="small" font-family="monospace" font-weight="bold" text-anchor="end" transform="rotate(-60, 784.3749999999999, 512.4)">
ruby-lsp
</text>
<rect x="837.2499999999999" y="208.49117026878935" width="35.25" height="289.5088297312106" fill="#7070f8" data-tooltip="1.00x baseline speed (No JIT)"/>
<line x1="837.2499999999999" y1="204.034928118646" x2="872.4999999999999" y2="204.034928118646" stroke="#000"/>
<line x1="837.2499999999999" y1="212.94741241893271" x2="872.4999999999999" y2="212.94741241893271" stroke="#000"/>
<line x1="854.8749999999999" y1="204.034928118646" x2="854.8749999999999" y2="212.94741241893271" stroke="#000"/>
<rect x="872.4999999999999" y="207.16976947282268" width="35.25" height="290.83023052717726" fill="orange" data-tooltip="1.00x baseline speed (YJIT)"/>
<line x1="872.4999999999999" y1="199.22038894732168" x2="907.75" y2="199.22038894732168" stroke="#000"/>
<line x1="872.4999999999999" y1="215.11914999832368" x2="907.75" y2="215.11914999832368" stroke="#000"/>
<line x1="890.125" y1="199.22038894732168" x2="890.125" y2="215.11914999832368" stroke="#000"/>
<line x1="890.125" y1="498.0" x2="890.125" y2="502.79999999999995" stroke="#000"/>
<text x="890.125" y="512.4" fill="#111" font-size="small" font-family="monospace" font-weight="bold" text-anchor="end" transform="rotate(-60, 890.125, 512.4)">
sequel
</text>
</svg>