<svg viewBox="0 0 1000 600" xmlns="http://www.w3.org/2000/svg" xmlns:xlink="http://www.w3.org/1999/xlink" width="100%" height="100%">

<rect x="50.0" y="30.0" width="940.0" height="467.99999999999994" stroke="#000" fill="#EEE"/>
<line x1="42.0" y1="497.9999999999999" x2="50.0" y2="497.9999999999999" stroke="#000"/>
<text x="26.000000000000004" y="497.9999999999999" text-anchor="end" font-weight="bold" font-size="small" fill="#111">
0.0
</text>
<line x1="42.0" y1="415.041345016526" x2="50.0" y2="415.041345016526" stroke="#000"/>
<text x="26.000000000000004" y="415.041345016526" text-anchor="end" font-weight="bold" font-size="small" fill="#111">
0.5
</text>
<line x1="42.0" y1="332.08269003305213" x2="50.0" y2="332.08269003305213" stroke="#000"/>
<text x="26.000000000000004" y="332.08269003305213" text-anchor="end" font-weight="bold" font-size="small" fill="#111">
1.0
</text>
<line x1="42.0" y1="249.12403504957817" x2="50.0" y2="249.12403504957817" stroke="#000"/>
<text x="26.000000000000004" y="249.12403504957817" text-anchor="end" font-weight="bold" font-size="small" fill="#111">
1.5
</text>
<line x1="42.0" y1="166.16538006610423" x2="50.0" y2="166.16538006610423" stroke="#000"/>
<text x="26.000000000000004" y="166.16538006610423" text-anchor="end" font-weight="bold" font-size="small" fill="#111">
2.0
</text>
<rect x="268.5" y="36.00000000000001" width="80.0" height="18.0" fill="#7070f8" stroke="#888"/>
<text x="308.5" y="52.50000000000001" font-size="small" text-anchor="middle" font-weight="bold" fill="#EEE">
No JIT
</text>
<rect x="691.4999999999999" y="36.00000000000001" width="80.0" height="18.0" fill="orange" stroke="#888"/>
<text x="731.4999999999999" y="52.50000000000001" font-size="small" text-anchor="middle" font-weight="bold" fill="#EEE">
YJIT
</text>
<rect x="97.0" y="332.08269003305213" width="28.2" height="165.91730996694787" fill="#7070f8" data-tooltip="1.00x baseline speed (No JIT)"/>
<line x1="97.0" y1="332.0108270964198" x2="125.2" y2="332.0108270964198" stroke="#000"/>
<line x1="97.0" y1="332.1545529696844" x2="125.2" y2="332.1545529696844" stroke="#000"/>
<line x1="111.10000000000001" y1="332.0108270964198" x2="111.10000000000001" y2="332.1545529696844" stroke="#000"/>
<rect x="125.2" y="154.05224679829718" width="28.2" height="343.94775320170277" fill="orange" data-tooltip="2.07x baseline speed (YJIT)"/>
<line x1="125.2" y1="141.02244502320403" x2="153.4" y2="141.02244502320403" stroke="#000"/>
<line x1="125.2" y1="167.0820485733903" x2="153.4" y2="167.0820485733903" stroke="#000"/>
<line x1="139.3" y1="141.02244502320403" x2="139.3" y2="167.0820485733903" stroke="#000"/>
<line x1="139.3" y1="498.0" x2="139.3" y2="502.79999999999995" stroke="#000"/>
<text x="139.3" y="512.4" fill="#111" font-size="small" font-family="monospace" font-weight="bold" text-anchor="end" transform="rotate(-60, 139.3, 512.4)">
binarytrees
</text>
<rect x="181.6" y="332.08269003305213" width="28.2" height="165.91730996694787" fill="#7070f8" data-tooltip="1.00x baseline speed (No JIT)"/>
<line x1="181.6" y1="331.59311243614474" x2="209.79999999999998" y2="331.59311243614474" stroke="#000"/>
<line x1="181.6" y1="332.57226762995947" x2="209.79999999999998" y2="332.57226762995947" stroke="#000"/>
<line x1="195.7" y1="331.59311243614474" x2="195.7" y2="332.57226762995947" stroke="#000"/>
<rect x="209.79999999999998" y="249.21003421480205" width="28.2" height="248.7899657851979" fill="orange" data-tooltip="1.50x baseline speed (YJIT)"/>
<line x1="209.79999999999998" y1="248.4544323780378" x2="238.0" y2="248.4544323780378" stroke="#000"/>
<line x1="209.79999999999998" y1="249.9656360515663" x2="238.0" y2="249.9656360515663" stroke="#000"/>
<line x1="223.89999999999998" y1="248.4544323780378" x2="223.89999999999998" y2="249.9656360515663" stroke="#000"/>
<line x1="223.89999999999998" y1="498.0" x2="223.89999999999998" y2="502.79999999999995" stroke="#000"/>
<text x="223.89999999999998" y="512.4" fill="#111" font-size="small" font-family="monospace" font-weight="bold" text-anchor="end" transform="rotate(-60, 223.89999999999998, 512.4)">
chunky_png
</text>
<rect x="266.2" y="332.08269003305213" width="28.2" height="165.91730996694787" fill="#7070f8" data-tooltip="1.00x baseline speed (No JIT)"/>
<line x1="266.2" y1="331.083137629412" x2="294.4" y2="331.083137629412" stroke="#000"/>
<line x1="266.2" y1="333.08224243669224" x2="294.4" y2="333.08224243669224" stroke="#000"/>
<line x1="280.3" y1="331.083137629412" x2="280.3" y2="333.08224243669224" stroke="#000"/>
<rect x="294.4" y="308.42743397313217" width="28.2" height="189.5725660268678" fill="orange" data-tooltip="1.14x baseline speed (YJIT)"/>
<line x1="294.4" y1="306.58275837076155" x2="322.6" y2="306.58275837076155" stroke="#000"/>
<line x1="294.4" y1="310.2721095755027" x2="322.6" y2="310.2721095755027" stroke="#000"/>
<line x1="308.5" y1="306.58275837076155" x2="308.5" y2="310.2721095755027" stroke="#000"/>
<line x1="308.5" y1="498.0" x2="308.5" y2="502.79999999999995" stroke="#000"/>
<text x="308.5" y="512.4" fill="#111" font-size="small" font-family="monospace" font-weight="bold" text-anchor="end" transform="rotate(-60, 308.5, 512.4)">
erubi
</text>
<rect x="350.8" y="332.08269003305213" width="28.2" height="165.91730996694787" fill="#7070f8" data-tooltip="1.00x baseline speed (No JIT)"/>
<line x1="350.8" y1="327.68767776785165" x2="379.0" y2="327.68767776785165" stroke="#000"/>
<line x1="350.8" y1="336.47770229825255" x2="379.0" y2="336.47770229825255" stroke="#000"/>
<line x1="364.9" y1="327.68767776785165" x2="364.9" y2="336.47770229825255" stroke="#000"/>
<rect x="379.0" y="270.6347012458517" width="28.2" height="227.36529875414823" fill="orange" data-tooltip="1.37x baseline speed (YJIT)"/>
<line x1="379.0" y1="259.8315884060413" x2="407.2" y2="259.8315884060413" stroke="#000"/>
<line x1="379.0" y1="281.4378140856621" x2="407.2" y2="281.4378140856621" stroke="#000"/>
<line x1="393.1" y1="259.8315884060413" x2="393.1" y2="281.4378140856621" stroke="#000"/>
<line x1="393.1" y1="498.0" x2="393.1" y2="502.79999999999995" stroke="#000"/>
<text x="393.1" y="512.4" fill="#111" font-size="small" font-family="monospace" font-weight="bold" text-anchor="end" transform="rotate(-60, 393.1, 512.4)">
erubi_rails
</text>
<rect x="435.40000000000003" y="332.08269003305213" width="28.2" height="165.91730996694787" fill="#7070f8" data-tooltip="1.00x baseline speed (No JIT)"/>
<line x1="435.40000000000003" y1="329.37323106773727" x2="463.6" y2="329.37323106773727" stroke="#000"/>
<line x1="435.40000000000003" y1="334.79214899836694" x2="463.6" y2="334.79214899836694" stroke="#000"/>
<line x1="449.5" y1="329.37323106773727" x2="449.5" y2="334.79214899836694" stroke="#000"/>
<rect x="463.6" y="330.437795606974" width="28.2" height="167.56220439302598" fill="orange" data-tooltip="1.01x baseline speed (YJIT)"/>
<line x1="463.6" y1="327.585884358451" x2="491.8" y2="327.585884358451" stroke="#000"/>
<line x1="463.6" y1="333.289706855497" x2="491.8" y2="333.289706855497" stroke="#000"/>
<line x1="477.7" y1="327.585884358451" x2="477.7" y2="333.289706855497" stroke="#000"/>
<line x1="477.7" y1="498.0" x2="477.7" y2="502.79999999999995" stroke="#000"/>
<text x="477.7" y="512.4" fill="#111" font-size="small" font-family="monospace" font-weight="bold" text-anchor="end" transform="rotate(-60, 477.7, 512.4)">
etanni
</text>
<rect x="520.0" y="332.08269003305213" width="28.2" height="165.91730996694787" fill="#7070f8" data-tooltip="1.00x baseline speed (No JIT)"/>
<line x1="520.0" y1="331.8695236660726" x2="548.2" y2="331.8695236660726" stroke="#000"/>
<line x1="520.0" y1="332.29585640003165" x2="548.2" y2="332.29585640003165" stroke="#000"/>
<line x1="534.1" y1="331.8695236660726" x2="534.1" y2="332.29585640003165" stroke="#000"/>
<rect x="548.2" y="100.19999999999999" width="28.2" height="397.79999999999995" fill="orange" data-tooltip="2.40x baseline speed (YJIT)"/>
<line x1="548.2" y1="98.86614355015347" x2="576.4" y2="98.86614355015347" stroke="#000"/>
<line x1="548.2" y1="101.53385644984651" x2="576.4" y2="101.53385644984651" stroke="#000"/>
<line x1="562.3000000000001" y1="98.86614355015347" x2="562.3000000000001" y2="101.53385644984651" stroke="#000"/>
<line x1="562.3000000000001" y1="498.0" x2="562.3000000000001" y2="502.79999999999995" stroke="#000"/>
<text x="562.3000000000001" y="512.4" fill="#111" font-size="small" font-family="monospace" font-weight="bold" text-anchor="end" transform="rotate(-60, 562.3000000000001, 512.4)">
fannkuchredux
</text>
<rect x="604.5999999999999" y="332.08269003305213" width="28.2" height="165.91730996694787" fill="#7070f8" data-tooltip="1.00x baseline speed (No JIT)"/>
<line x1="604.5999999999999" y1="331.254122514757" x2="632.8" y2="331.254122514757" stroke="#000"/>
<line x1="604.5999999999999" y1="332.9112575513472" x2="632.8" y2="332.9112575513472" stroke="#000"/>
<line x1="618.6999999999999" y1="331.254122514757" x2="618.6999999999999" y2="332.9112575513472" stroke="#000"/>
<rect x="632.8" y="270.70821512962885" width="28.2" height="227.2917848703711" fill="orange" data-tooltip="1.37x baseline speed (YJIT)"/>
<line x1="632.8" y1="269.5601127676488" x2="660.9999999999999" y2="269.5601127676488" stroke="#000"/>
<line x1="632.8" y1="271.85631749160893" x2="660.9999999999999" y2="271.85631749160893" stroke="#000"/>
<line x1="646.8999999999999" y1="269.5601127676488" x2="646.8999999999999" y2="271.85631749160893" stroke="#000"/>
<line x1="646.8999999999999" y1="498.0" x2="646.8999999999999" y2="502.79999999999995" stroke="#000"/>
<text x="646.8999999999999" y="512.4" fill="#111" font-size="small" font-family="monospace" font-weight="bold" text-anchor="end" transform="rotate(-60, 646.8999999999999, 512.4)">
lee
</text>
<rect x="689.1999999999999" y="332.08269003305213" width="28.2" height="165.91730996694787" fill="#7070f8" data-tooltip="1.00x baseline speed (No JIT)"/>
<line x1="689.1999999999999" y1="331.91805859360295" x2="717.4" y2="331.91805859360295" stroke="#000"/>
<line x1="689.1999999999999" y1="332.24732147250126" x2="717.4" y2="332.24732147250126" stroke="#000"/>
<line x1="703.3" y1="331.91805859360295" x2="703.3" y2="332.24732147250126" stroke="#000"/>
<rect x="717.4" y="238.47929401754402" width="28.2" height="259.5207059824559" fill="orange" data-tooltip="1.56x baseline speed (YJIT)"/>
<line x1="717.4" y1="238.1482794228864" x2="745.5999999999999" y2="238.1482794228864" stroke="#000"/>
<line x1="717.4" y1="238.81030861220165" x2="745.5999999999999" y2="238.81030861220165" stroke="#000"/>
<line x1="731.4999999999999" y1="238.1482794228864" x2="731.4999999999999" y2="238.81030861220165" stroke="#000"/>
<line x1="731.4999999999999" y1="498.0" x2="731.4999999999999" y2="502.79999999999995" stroke="#000"/>
<text x="731.4999999999999" y="512.4" fill="#111" font-size="small" font-family="monospace" font-weight="bold" text-anchor="end" transform="rotate(-60, 731.4999999999999, 512.4)">
nbody
</text>
<rect x="773.8" y="332.08269003305213" width="28.2" height="165.91730996694787" fill="#7070f8" data-tooltip="1.00x baseline speed (No JIT)"/>
<line x1="773.8" y1="331.37656690169786" x2="801.9999999999999" y2="331.37656690169786" stroke="#000"/>
<line x1="773.8" y1="332.7888131644064" x2="801.9999999999999" y2="332.7888131644064" stroke="#000"/>
<line x1="787.9" y1="331.37656690169786" x2="787.9" y2="332.7888131644064" stroke="#000"/>
<rect x="801.9999999999999" y="150.58423070805165" width="28.2" height="347.41576929194827" fill="orange" data-tooltip="2.09x baseline speed (YJIT)"/>
<line x1="801.9999999999999" y1="148.5830457012455" x2="830.1999999999999" y2="148.5830457012455" stroke="#000"/>
<line x1="801.9999999999999" y1="152.58541571485782" x2="830.1999999999999" y2="152.58541571485782" stroke="#000"/>
<line x1="816.0999999999999" y1="148.5830457012455" x2="816.0999999999999" y2="152.58541571485782" stroke="#000"/>
<line x1="816.0999999999999" y1="498.0" x2="816.0999999999999" y2="502.79999999999995" stroke="#000"/>
<text x="816.0999999999999" y="512.4" fill="#111" font-size="small" font-family="monospace" font-weight="bold" text-anchor="end" transform="rotate(-60, 816.0999999999999, 512.4)">
optcarrot
</text>
<rect x="858.4" y="332.08269003305213" width="28.2" height="165.91730996694787" fill="#7070f8" data-tooltip="1.00x baseline speed (No JIT)"/>
<line x1="858.4" y1="331.5183297756626" x2="886.5999999999999" y2="331.5183297756626" stroke="#000"/>
<line x1="858.4" y1="332.6470502904416" x2="886.5999999999999" y2="332.6470502904416" stroke="#000"/>
<line x1="872.4999999999999" y1="331.5183297756626" x2="872.4999999999999" y2="332.6470502904416" stroke="#000"/>
<rect x="886.5999999999999" y="185.31050989818806" width="28.2" height="312.68949010181194" fill="orange" data-tooltip="1.88x baseline speed (YJIT)"/>
<line x1="886.5999999999999" y1="183.6902271792804" x2="914.8" y2="183.6902271792804" stroke="#000"/>
<line x1="886.5999999999999" y1="186.93079261709568" x2="914.8" y2="186.93079261709568" stroke="#000"/>
<line x1="900.6999999999999" y1="183.6902271792804" x2="900.6999999999999" y2="186.93079261709568" stroke="#000"/>
<line x1="900.6999999999999" y1="498.0" x2="900.6999999999999" y2="502.79999999999995" stroke="#000"/>
<text x="900.6999999999999" y="512.4" fill="#111" font-size="small" font-family="monospace" font-weight="bold" text-anchor="end" transform="rotate(-60, 900.6999999999999, 512.4)">
rubykon
</text>
</svg>