<svg viewBox="0 0 1000 600" xmlns="http://www.w3.org/2000/svg" xmlns:xlink="http://www.w3.org/1999/xlink" width="100%" height="100%">

<rect x="50.0" y="30.0" width="940.0" height="467.99999999999994" stroke="#000" fill="#EEE"/>
<line x1="42.0" y1="497.9999999999999" x2="50.0" y2="497.9999999999999" stroke="#000"/>
<text x="26.000000000000004" y="497.9999999999999" text-anchor="end" font-weight="bold" font-size="small" fill="#111">
0.0
</text>
<line x1="42.0" y1="415.80442613249335" x2="50.0" y2="415.80442613249335" stroke="#000"/>
<text x="26.000000000000004" y="415.80442613249335" text-anchor="end" font-weight="bold" font-size="small" fill="#111">
0.5
</text>
<line x1="42.0" y1="333.6088522649866" x2="50.0" y2="333.6088522649866" stroke="#000"/>
<text x="26.000000000000004" y="333.6088522649866" text-anchor="end" font-weight="bold" font-size="small" fill="#111">
1.0
</text>
<line x1="42.0" y1="251.41327839747998" x2="50.0" y2="251.41327839747998" stroke="#000"/>
<text x="26.000000000000004" y="251.41327839747998" text-anchor="end" font-weight="bold" font-size="small" fill="#111">
1.5
</text>
<line x1="42.0" y1="169.21770452997328" x2="50.0" y2="169.21770452997328" stroke="#000"/>
<text x="26.000000000000004" y="169.21770452997328" text-anchor="end" font-weight="bold" font-size="small" fill="#111">
2.0
</text>
<rect x="197.99999999999997" y="36.00000000000001" width="80.0" height="18.0" fill="#7070f8" stroke="#888"/>
<text x="238.0" y="52.50000000000001" font-size="small" text-anchor="middle" font-weight="bold" fill="#EEE">
No JIT
</text>
<rect x="479.99999999999994" y="36.00000000000001" width="80.0" height="18.0" fill="orange" stroke="#888"/>
<text x="519.9999999999999" y="52.50000000000001" font-size="small" text-anchor="middle" font-weight="bold" fill="#EEE">
MJIT
</text>
<rect x="761.9999999999999" y="36.00000000000001" width="80.0" height="18.0" fill="green" stroke="#888"/>
<text x="801.9999999999999" y="52.50000000000001" font-size="small" text-anchor="middle" font-weight="bold" fill="#EEE">
YJIT
</text>
<rect x="97.0" y="333.6088522649866" width="21.15" height="164.39114773501333" fill="#7070f8" data-tooltip="1.00x baseline speed (No JIT)"/>
<line x1="97.0" y1="333.35225556477013" x2="118.15" y2="333.35225556477013" stroke="#000"/>
<line x1="97.0" y1="333.86544896520303" x2="118.15" y2="333.86544896520303" stroke="#000"/>
<line x1="107.575" y1="333.35225556477013" x2="107.575" y2="333.86544896520303" stroke="#000"/>
<rect x="118.15" y="234.63185892696163" width="21.15" height="263.3681410730383" fill="orange" data-tooltip="1.60x baseline speed (MJIT)"/>
<line x1="118.15" y1="233.7629476460709" x2="139.3" y2="233.7629476460709" stroke="#000"/>
<line x1="118.15" y1="235.50077020785238" x2="139.3" y2="235.50077020785238" stroke="#000"/>
<line x1="128.725" y1="233.7629476460709" x2="128.725" y2="235.50077020785238" stroke="#000"/>
<rect x="139.3" y="276.9220289913468" width="21.15" height="221.07797100865312" fill="green" data-tooltip="1.34x baseline speed (YJIT)"/>
<line x1="139.3" y1="276.44232938781" x2="160.45000000000002" y2="276.44232938781" stroke="#000"/>
<line x1="139.3" y1="277.40172859488365" x2="160.45000000000002" y2="277.40172859488365" stroke="#000"/>
<line x1="149.875" y1="276.44232938781" x2="149.875" y2="277.40172859488365" stroke="#000"/>
<line x1="139.3" y1="498.0" x2="139.3" y2="502.79999999999995" stroke="#000"/>
<text x="139.3" y="512.4" fill="#111" font-size="small" font-family="monospace" font-weight="bold" text-anchor="end" transform="rotate(-60, 139.3, 512.4)">
binarytrees
</text>
<rect x="181.6" y="333.6088522649866" width="21.15" height="164.39114773501333" fill="#7070f8" data-tooltip="1.00x baseline speed (No JIT)"/>
<line x1="181.6" y1="333.11352513683295" x2="202.75" y2="333.11352513683295" stroke="#000"/>
<line x1="181.6" y1="334.10417939314027" x2="202.75" y2="334.10417939314027" stroke="#000"/>
<line x1="192.17499999999998" y1="333.11352513683295" x2="192.17499999999998" y2="334.10417939314027" stroke="#000"/>
<rect x="202.75" y="292.00911096206966" width="21.15" height="205.99088903793026" fill="orange" data-tooltip="1.25x baseline speed (MJIT)"/>
<line x1="202.75" y1="289.47403261461295" x2="223.89999999999998" y2="289.47403261461295" stroke="#000"/>
<line x1="202.75" y1="294.54418930952636" x2="223.89999999999998" y2="294.54418930952636" stroke="#000"/>
<line x1="213.325" y1="289.47403261461295" x2="213.325" y2="294.54418930952636" stroke="#000"/>
<rect x="223.89999999999998" y="251.56370996626498" width="21.15" height="246.43629003373496" fill="green" data-tooltip="1.50x baseline speed (YJIT)"/>
<line x1="223.89999999999998" y1="250.4966877221778" x2="245.04999999999998" y2="250.4966877221778" stroke="#000"/>
<line x1="223.89999999999998" y1="252.63073221035214" x2="245.04999999999998" y2="252.63073221035214" stroke="#000"/>
<line x1="234.475" y1="250.4966877221778" x2="234.475" y2="252.63073221035214" stroke="#000"/>
<line x1="223.89999999999998" y1="498.0" x2="223.89999999999998" y2="502.79999999999995" stroke="#000"/>
<text x="223.89999999999998" y="512.4" fill="#111" font-size="small" font-family="monospace" font-weight="bold" text-anchor="end" transform="rotate(-60, 223.89999999999998, 512.4)">
chunky_png
</text>
<rect x="266.2" y="333.6088522649866" width="21.15" height="164.39114773501333" fill="#7070f8" data-tooltip="1.00x baseline speed (No JIT)"/>
<line x1="266.2" y1="313.63902307977605" x2="287.35" y2="313.63902307977605" stroke="#000"/>
<line x1="266.2" y1="353.57868145019717" x2="287.35" y2="353.57868145019717" stroke="#000"/>
<line x1="276.775" y1="313.63902307977605" x2="276.775" y2="353.57868145019717" stroke="#000"/>
<rect x="287.35" y="340.89121197887135" width="21.15" height="157.1087880211286" fill="orange" data-tooltip="0.96x baseline speed (MJIT)"/>
<line x1="287.35" y1="312.27502626865487" x2="308.5" y2="312.27502626865487" stroke="#000"/>
<line x1="287.35" y1="369.50739768908784" x2="308.5" y2="369.50739768908784" stroke="#000"/>
<line x1="297.925" y1="312.27502626865487" x2="297.925" y2="369.50739768908784" stroke="#000"/>
<rect x="308.5" y="315.41742680549777" width="21.15" height="182.58257319450217" fill="green" data-tooltip="1.11x baseline speed (YJIT)"/>
<line x1="308.5" y1="274.76561802626384" x2="329.65" y2="274.76561802626384" stroke="#000"/>
<line x1="308.5" y1="356.06923558473176" x2="329.65" y2="356.06923558473176" stroke="#000"/>
<line x1="319.075" y1="274.76561802626384" x2="319.075" y2="356.06923558473176" stroke="#000"/>
<line x1="308.5" y1="498.0" x2="308.5" y2="502.79999999999995" stroke="#000"/>
<text x="308.5" y="512.4" fill="#111" font-size="small" font-family="monospace" font-weight="bold" text-anchor="end" transform="rotate(-60, 308.5, 512.4)">
discourse
</text>
<rect x="350.8" y="333.6088522649866" width="21.15" height="164.39114773501333" fill="#7070f8" data-tooltip="1.00x baseline speed (No JIT)"/>
<line x1="350.8" y1="331.6858125613102" x2="371.95" y2="331.6858125613102" stroke="#000"/>
<line x1="350.8" y1="335.53189196866305" x2="371.95" y2="335.53189196866305" stroke="#000"/>
<line x1="361.375" y1="331.6858125613102" x2="361.375" y2="335.53189196866305" stroke="#000"/>
<rect x="371.95" y="327.96323886570195" width="21.15" height="170.036761134298" fill="orange" data-tooltip="1.03x baseline speed (MJIT)"/>
<line x1="371.95" y1="325.13593034540463" x2="393.1" y2="325.13593034540463" stroke="#000"/>
<line x1="371.95" y1="330.7905473859993" x2="393.1" y2="330.7905473859993" stroke="#000"/>
<line x1="382.525" y1="325.13593034540463" x2="382.525" y2="330.7905473859993" stroke="#000"/>
<rect x="393.1" y="307.5125742767166" width="21.15" height="190.48742572328337" fill="green" data-tooltip="1.16x baseline speed (YJIT)"/>
<line x1="393.1" y1="304.7357777553983" x2="414.25" y2="304.7357777553983" stroke="#000"/>
<line x1="393.1" y1="310.2893707980348" x2="414.25" y2="310.2893707980348" stroke="#000"/>
<line x1="403.675" y1="304.7357777553983" x2="403.675" y2="310.2893707980348" stroke="#000"/>
<line x1="393.1" y1="498.0" x2="393.1" y2="502.79999999999995" stroke="#000"/>
<text x="393.1" y="512.4" fill="#111" font-size="small" font-family="monospace" font-weight="bold" text-anchor="end" transform="rotate(-60, 393.1, 512.4)">
erubi
</text>
<rect x="435.40000000000003" y="333.6088522649866" width="21.15" height="164.39114773501333" fill="#7070f8" data-tooltip="1.00x baseline speed (No JIT)"/>
<line x1="435.40000000000003" y1="267.7578170533124" x2="456.55" y2="267.7578170533124" stroke="#000"/>
<line x1="435.40000000000003" y1="399.4598874766608" x2="456.55" y2="399.4598874766608" stroke="#000"/>
<line x1="445.975" y1="267.7578170533124" x2="445.975" y2="399.4598874766608" stroke="#000"/>
<rect x="456.55" y="345.81227921481815" width="21.15" height="152.18772078518182" fill="orange" data-tooltip="0.93x baseline speed (MJIT)"/>
<line x1="456.55" y1="256.338501178313" x2="477.7" y2="256.338501178313" stroke="#000"/>
<line x1="456.55" y1="435.28605725132337" x2="477.7" y2="435.28605725132337" stroke="#000"/>
<line x1="467.125" y1="256.338501178313" x2="467.125" y2="435.28605725132337" stroke="#000"/>
<rect x="477.7" y="287.81378897485286" width="21.15" height="210.1862110251471" fill="green" data-tooltip="1.28x baseline speed (YJIT)"/>
<line x1="477.7" y1="143.72132155362218" x2="498.85" y2="143.72132155362218" stroke="#000"/>
<line x1="477.7" y1="431.9062563960835" x2="498.85" y2="431.9062563960835" stroke="#000"/>
<line x1="488.27500000000003" y1="143.72132155362218" x2="488.27500000000003" y2="431.9062563960835" stroke="#000"/>
<line x1="477.7" y1="498.0" x2="477.7" y2="502.79999999999995" stroke="#000"/>
<text x="477.7" y="512.4" fill="#111" font-size="small" font-family="monospace" font-weight="bold" text-anchor="end" transform="rotate(-60, 477.7, 512.4)">
erubi_rails
</text>
<rect x="520.0" y="333.6088522649866" width="21.15" height="164.39114773501333" fill="#7070f8" data-tooltip="1.00x baseline speed (No JIT)"/>
<line x1="520.0" y1="330.0843933581625" x2="541.15" y2="330.0843933581625" stroke="#000"/>
<line x1="520.0" y1="337.1333111718107" x2="541.15" y2="337.1333111718107" stroke="#000"/>
<line x1="530.575" y1="330.0843933581625" x2="530.575" y2="337.1333111718107" stroke="#000"/>
<rect x="541.15" y="257.28963468319796" width="21.15" height="240.71036531680198" fill="orange" data-tooltip="1.46x baseline speed (MJIT)"/>
<line x1="541.15" y1="252.1273564436487" x2="562.3000000000001" y2="252.1273564436487" stroke="#000"/>
<line x1="541.15" y1="262.4519129227472" x2="562.3000000000001" y2="262.4519129227472" stroke="#000"/>
<line x1="551.725" y1="252.1273564436487" x2="551.725" y2="262.4519129227472" stroke="#000"/>
<rect x="562.3000000000001" y="294.72714297010646" width="21.15" height="203.27285702989346" fill="green" data-tooltip="1.24x baseline speed (YJIT)"/>
<line x1="562.3000000000001" y1="290.34543821684116" x2="583.45" y2="290.34543821684116" stroke="#000"/>
<line x1="562.3000000000001" y1="299.1088477233718" x2="583.45" y2="299.1088477233718" stroke="#000"/>
<line x1="572.875" y1="290.34543821684116" x2="572.875" y2="299.1088477233718" stroke="#000"/>
<line x1="562.3000000000001" y1="498.0" x2="562.3000000000001" y2="502.79999999999995" stroke="#000"/>
<text x="562.3000000000001" y="512.4" fill="#111" font-size="small" font-family="monospace" font-weight="bold" text-anchor="end" transform="rotate(-60, 562.3000000000001, 512.4)">
fannkuchredux
</text>
<rect x="604.5999999999999" y="333.6088522649866" width="21.15" height="164.39114773501333" fill="#7070f8" data-tooltip="1.00x baseline speed (No JIT)"/>
<line x1="604.5999999999999" y1="331.69162653831336" x2="625.7499999999999" y2="331.69162653831336" stroke="#000"/>
<line x1="604.5999999999999" y1="335.52607799165986" x2="625.7499999999999" y2="335.52607799165986" stroke="#000"/>
<line x1="615.175" y1="331.69162653831336" x2="615.175" y2="335.52607799165986" stroke="#000"/>
<rect x="625.7499999999999" y="307.67948276163514" width="21.15" height="190.32051723836486" fill="orange" data-tooltip="1.16x baseline speed (MJIT)"/>
<line x1="625.7499999999999" y1="305.4355694405674" x2="646.8999999999999" y2="305.4355694405674" stroke="#000"/>
<line x1="625.7499999999999" y1="309.9233960827029" x2="646.8999999999999" y2="309.9233960827029" stroke="#000"/>
<line x1="636.3249999999999" y1="305.4355694405674" x2="636.3249999999999" y2="309.9233960827029" stroke="#000"/>
<rect x="646.8999999999999" y="287.6353118743227" width="21.15" height="210.36468812567722" fill="green" data-tooltip="1.28x baseline speed (YJIT)"/>
<line x1="646.8999999999999" y1="285.1083845220332" x2="668.05" y2="285.1083845220332" stroke="#000"/>
<line x1="646.8999999999999" y1="290.16223922661226" x2="668.05" y2="290.16223922661226" stroke="#000"/>
<line x1="657.4749999999999" y1="285.1083845220332" x2="657.4749999999999" y2="290.16223922661226" stroke="#000"/>
<line x1="646.8999999999999" y1="498.0" x2="646.8999999999999" y2="502.79999999999995" stroke="#000"/>
<text x="646.8999999999999" y="512.4" fill="#111" font-size="small" font-family="monospace" font-weight="bold" text-anchor="end" transform="rotate(-60, 646.8999999999999, 512.4)">
lee
</text>
<rect x="689.1999999999999" y="333.6088522649866" width="21.15" height="164.39114773501333" fill="#7070f8" data-tooltip="1.00x baseline speed (No JIT)"/>
<line x1="689.1999999999999" y1="333.49721335869185" x2="710.3499999999999" y2="333.49721335869185" stroke="#000"/>
<line x1="689.1999999999999" y1="333.7204911712813" x2="710.3499999999999" y2="333.7204911712813" stroke="#000"/>
<line x1="699.775" y1="333.49721335869185" x2="699.775" y2="333.7204911712813" stroke="#000"/>
<rect x="710.3499999999999" y="228.3927027873669" width="21.15" height="269.60729721263306" fill="orange" data-tooltip="1.64x baseline speed (MJIT)"/>
<line x1="710.3499999999999" y1="228.19070410493825" x2="731.4999999999999" y2="228.19070410493825" stroke="#000"/>
<line x1="710.3499999999999" y1="228.59470146979552" x2="731.4999999999999" y2="228.59470146979552" stroke="#000"/>
<line x1="720.925" y1="228.19070410493825" x2="720.925" y2="228.59470146979552" stroke="#000"/>
<rect x="731.4999999999999" y="281.58175094498216" width="21.15" height="216.41824905501778" fill="green" data-tooltip="1.32x baseline speed (YJIT)"/>
<line x1="731.4999999999999" y1="280.59414362204717" x2="752.65" y2="280.59414362204717" stroke="#000"/>
<line x1="731.4999999999999" y1="282.56935826791715" x2="752.65" y2="282.56935826791715" stroke="#000"/>
<line x1="742.0749999999999" y1="280.59414362204717" x2="742.0749999999999" y2="282.56935826791715" stroke="#000"/>
<line x1="731.4999999999999" y1="498.0" x2="731.4999999999999" y2="502.79999999999995" stroke="#000"/>
<text x="731.4999999999999" y="512.4" fill="#111" font-size="small" font-family="monospace" font-weight="bold" text-anchor="end" transform="rotate(-60, 731.4999999999999, 512.4)">
nbody
</text>
<rect x="773.8" y="333.6088522649866" width="21.15" height="164.39114773501333" fill="#7070f8" data-tooltip="1.00x baseline speed (No JIT)"/>
<line x1="773.8" y1="332.8619036155774" x2="794.9499999999999" y2="332.8619036155774" stroke="#000"/>
<line x1="773.8" y1="334.35580091439584" x2="794.9499999999999" y2="334.35580091439584" stroke="#000"/>
<line x1="784.3749999999999" y1="332.8619036155774" x2="784.3749999999999" y2="334.35580091439584" stroke="#000"/>
<rect x="794.9499999999999" y="100.19999999999999" width="21.15" height="397.79999999999995" fill="orange" data-tooltip="2.42x baseline speed (MJIT)"/>
<line x1="794.9499999999999" y1="97.13988501419645" x2="816.0999999999999" y2="97.13988501419645" stroke="#000"/>
<line x1="794.9499999999999" y1="103.26011498580353" x2="816.0999999999999" y2="103.26011498580353" stroke="#000"/>
<line x1="805.525" y1="97.13988501419645" x2="805.525" y2="103.26011498580353" stroke="#000"/>
<rect x="816.0999999999999" y="204.10388530927003" width="21.15" height="293.8961146907299" fill="green" data-tooltip="1.79x baseline speed (YJIT)"/>
<line x1="816.0999999999999" y1="201.90796489983614" x2="837.2499999999999" y2="201.90796489983614" stroke="#000"/>
<line x1="816.0999999999999" y1="206.29980571870388" x2="837.2499999999999" y2="206.29980571870388" stroke="#000"/>
<line x1="826.675" y1="201.90796489983614" x2="826.675" y2="206.29980571870388" stroke="#000"/>
<line x1="816.0999999999999" y1="498.0" x2="816.0999999999999" y2="502.79999999999995" stroke="#000"/>
<text x="816.0999999999999" y="512.4" fill="#111" font-size="small" font-family="monospace" font-weight="bold" text-anchor="end" transform="rotate(-60, 816.0999999999999, 512.4)">
optcarrot
</text>
<rect x="858.4" y="333.6088522649866" width="21.15" height="164.39114773501333" fill="#7070f8" data-tooltip="1.00x baseline speed (No JIT)"/>
<line x1="858.4" y1="330.41697937882924" x2="879.55" y2="330.41697937882924" stroke="#000"/>
<line x1="858.4" y1="336.8007251511439" x2="879.55" y2="336.8007251511439" stroke="#000"/>
<line x1="868.9749999999999" y1="330.41697937882924" x2="868.9749999999999" y2="336.8007251511439" stroke="#000"/>
<rect x="879.55" y="299.0156931661564" width="21.15" height="198.98430683384356" fill="orange" data-tooltip="1.21x baseline speed (MJIT)"/>
<line x1="879.55" y1="294.22137977344465" x2="900.6999999999999" y2="294.22137977344465" stroke="#000"/>
<line x1="879.55" y1="303.81000655886817" x2="900.6999999999999" y2="303.81000655886817" stroke="#000"/>
<line x1="890.125" y1="294.22137977344465" x2="890.125" y2="303.81000655886817" stroke="#000"/>
<rect x="900.6999999999999" y="209.25719146164258" width="21.15" height="288.74280853835734" fill="green" data-tooltip="1.76x baseline speed (YJIT)"/>
<line x1="900.6999999999999" y1="198.93571691255377" x2="921.8499999999999" y2="198.93571691255377" stroke="#000"/>
<line x1="900.6999999999999" y1="219.5786660107314" x2="921.8499999999999" y2="219.5786660107314" stroke="#000"/>
<line x1="911.275" y1="198.93571691255377" x2="911.275" y2="219.5786660107314" stroke="#000"/>
<line x1="900.6999999999999" y1="498.0" x2="900.6999999999999" y2="502.79999999999995" stroke="#000"/>
<text x="900.6999999999999" y="512.4" fill="#111" font-size="small" font-family="monospace" font-weight="bold" text-anchor="end" transform="rotate(-60, 900.6999999999999, 512.4)">
rubykon
</text>
</svg>