<svg viewBox="0 0 1000 600" xmlns="http://www.w3.org/2000/svg" xmlns:xlink="http://www.w3.org/1999/xlink" width="100%" height="100%">

<rect x="50.0" y="30.0" width="940.0" height="467.99999999999994" stroke="#000" fill="#EEE"/>
<line x1="42.0" y1="497.9999999999999" x2="50.0" y2="497.9999999999999" stroke="#000"/>
<text x="26.000000000000004" y="497.9999999999999" text-anchor="end" font-weight="bold" font-size="small" fill="#111">
0.0
</text>
<line x1="42.0" y1="400.98111555386174" x2="50.0" y2="400.98111555386174" stroke="#000"/>
<text x="26.000000000000004" y="400.98111555386174" text-anchor="end" font-weight="bold" font-size="small" fill="#111">
2.0
</text>
<line x1="42.0" y1="303.9622311077235" x2="50.0" y2="303.9622311077235" stroke="#000"/>
<text x="26.000000000000004" y="303.9622311077235" text-anchor="end" font-weight="bold" font-size="small" fill="#111">
4.0
</text>
<line x1="42.0" y1="206.9433466615853" x2="50.0" y2="206.9433466615853" stroke="#000"/>
<text x="26.000000000000004" y="206.9433466615853" text-anchor="end" font-weight="bold" font-size="small" fill="#111">
6.0
</text>
<line x1="42.0" y1="109.92446221544706" x2="50.0" y2="109.92446221544706" stroke="#000"/>
<text x="26.000000000000004" y="109.92446221544706" text-anchor="end" font-weight="bold" font-size="small" fill="#111">
8.0
</text>
<rect x="197.99999999999997" y="36.00000000000001" width="80.0" height="18.0" fill="#7070f8" stroke="#888"/>
<text x="238.0" y="52.50000000000001" font-size="small" text-anchor="middle" font-weight="bold" fill="#EEE">
No JIT
</text>
<rect x="479.99999999999994" y="36.00000000000001" width="80.0" height="18.0" fill="orange" stroke="#888"/>
<text x="519.9999999999999" y="52.50000000000001" font-size="small" text-anchor="middle" font-weight="bold" fill="#EEE">
MJIT3.0
</text>
<rect x="761.9999999999999" y="36.00000000000001" width="80.0" height="18.0" fill="green" stroke="#888"/>
<text x="801.9999999999999" y="52.50000000000001" font-size="small" text-anchor="middle" font-weight="bold" fill="#EEE">
YJIT
</text>
<rect x="97.0" y="449.4905577769309" width="30.214285714285715" height="48.50944222306911" fill="#7070f8" data-tooltip="1.00x baseline speed (No JIT)"/>
<line x1="97.0" y1="449.18720152899095" x2="127.21428571428572" y2="449.18720152899095" stroke="#000"/>
<line x1="97.0" y1="449.79391402487084" x2="127.21428571428572" y2="449.79391402487084" stroke="#000"/>
<line x1="112.10714285714286" y1="449.18720152899095" x2="112.10714285714286" y2="449.79391402487084" stroke="#000"/>
<rect x="127.21428571428572" y="451.0446529698341" width="30.214285714285715" height="46.9553470301658" fill="orange" data-tooltip="0.97x baseline speed (MJIT3.0)"/>
<line x1="127.21428571428572" y1="450.6164188871442" x2="157.42857142857144" y2="450.6164188871442" stroke="#000"/>
<line x1="127.21428571428572" y1="451.472887052524" x2="157.42857142857144" y2="451.472887052524" stroke="#000"/>
<line x1="142.32142857142858" y1="450.6164188871442" x2="142.32142857142858" y2="451.472887052524" stroke="#000"/>
<rect x="157.42857142857142" y="165.31401985296614" width="30.214285714285715" height="332.6859801470338" fill="green" data-tooltip="6.86x baseline speed (YJIT)"/>
<line x1="157.42857142857142" y1="163.123279035812" x2="187.64285714285714" y2="163.123279035812" stroke="#000"/>
<line x1="157.42857142857142" y1="167.50476067012028" x2="187.64285714285714" y2="167.50476067012028" stroke="#000"/>
<line x1="172.53571428571428" y1="163.123279035812" x2="172.53571428571428" y2="167.50476067012028" stroke="#000"/>
<line x1="157.42857142857142" y1="498.0" x2="157.42857142857142" y2="502.79999999999995" stroke="#000"/>
<text x="157.42857142857142" y="512.4" fill="#111" font-size="small" font-family="monospace" font-weight="bold" text-anchor="end" transform="rotate(-60, 157.42857142857142, 512.4)">
30k_ifelse
</text>
<rect x="217.85714285714286" y="449.4905577769309" width="30.214285714285715" height="48.50944222306911" fill="#7070f8" data-tooltip="1.00x baseline speed (No JIT)"/>
<line x1="217.85714285714286" y1="449.4823958272235" x2="248.07142857142858" y2="449.4823958272235" stroke="#000"/>
<line x1="217.85714285714286" y1="449.4987197266383" x2="248.07142857142858" y2="449.4987197266383" stroke="#000"/>
<line x1="232.9642857142857" y1="449.4823958272235" x2="232.9642857142857" y2="449.4987197266383" stroke="#000"/>
<rect x="248.07142857142858" y="450.61301874285607" width="30.214285714285715" height="47.38698125714391" fill="orange" data-tooltip="0.98x baseline speed (MJIT3.0)"/>
<line x1="248.07142857142858" y1="450.5252191414234" x2="278.2857142857143" y2="450.5252191414234" stroke="#000"/>
<line x1="248.07142857142858" y1="450.7008183442888" x2="278.2857142857143" y2="450.7008183442888" stroke="#000"/>
<line x1="263.17857142857144" y1="450.5252191414234" x2="263.17857142857144" y2="450.7008183442888" stroke="#000"/>
<rect x="278.2857142857143" y="100.19999999999999" width="30.214285714285715" height="397.79999999999995" fill="green" data-tooltip="8.20x baseline speed (YJIT)"/>
<line x1="278.2857142857143" y1="100.08332839664625" x2="308.5" y2="100.08332839664625" stroke="#000"/>
<line x1="278.2857142857143" y1="100.31667160335373" x2="308.5" y2="100.31667160335373" stroke="#000"/>
<line x1="293.39285714285717" y1="100.08332839664625" x2="293.39285714285717" y2="100.31667160335373" stroke="#000"/>
<line x1="278.2857142857143" y1="498.0" x2="278.2857142857143" y2="502.79999999999995" stroke="#000"/>
<text x="278.2857142857143" y="512.4" fill="#111" font-size="small" font-family="monospace" font-weight="bold" text-anchor="end" transform="rotate(-60, 278.2857142857143, 512.4)">
30k_methods
</text>
<rect x="338.7142857142857" y="449.4905577769309" width="30.214285714285715" height="48.50944222306911" fill="#7070f8" data-tooltip="1.00x baseline speed (No JIT)"/>
<line x1="338.7142857142857" y1="449.4363492027958" x2="368.92857142857144" y2="449.4363492027958" stroke="#000"/>
<line x1="338.7142857142857" y1="449.544766351066" x2="368.92857142857144" y2="449.544766351066" stroke="#000"/>
<line x1="353.8214285714286" y1="449.4363492027958" x2="353.8214285714286" y2="449.544766351066" stroke="#000"/>
<rect x="368.92857142857144" y="422.15127850520645" width="30.214285714285715" height="75.84872149479345" fill="orange" data-tooltip="1.56x baseline speed (MJIT3.0)"/>
<line x1="368.92857142857144" y1="422.0090769771509" x2="399.1428571428571" y2="422.0090769771509" stroke="#000"/>
<line x1="368.92857142857144" y1="422.293480033262" x2="399.1428571428571" y2="422.293480033262" stroke="#000"/>
<line x1="384.03571428571433" y1="422.0090769771509" x2="384.03571428571433" y2="422.293480033262" stroke="#000"/>
<rect x="399.14285714285717" y="398.338125365434" width="30.214285714285715" height="99.66187463456589" fill="green" data-tooltip="2.05x baseline speed (YJIT)"/>
<line x1="399.14285714285717" y1="398.0254779625986" x2="429.3571428571429" y2="398.0254779625986" stroke="#000"/>
<line x1="399.14285714285717" y1="398.65077276826935" x2="429.3571428571429" y2="398.65077276826935" stroke="#000"/>
<line x1="414.25000000000006" y1="398.0254779625986" x2="414.25000000000006" y2="398.65077276826935" stroke="#000"/>
<line x1="399.14285714285717" y1="498.0" x2="399.14285714285717" y2="502.79999999999995" stroke="#000"/>
<text x="399.14285714285717" y="512.4" fill="#111" font-size="small" font-family="monospace" font-weight="bold" text-anchor="end" transform="rotate(-60, 399.14285714285717, 512.4)">
cfunc_itself
</text>
<rect x="459.5714285714285" y="449.4905577769309" width="30.214285714285715" height="48.50944222306911" fill="#7070f8" data-tooltip="1.00x baseline speed (No JIT)"/>
<line x1="459.5714285714285" y1="449.47628749694866" x2="489.7857142857142" y2="449.47628749694866" stroke="#000"/>
<line x1="459.5714285714285" y1="449.50482805691314" x2="489.7857142857142" y2="449.50482805691314" stroke="#000"/>
<line x1="474.6785714285714" y1="449.47628749694866" x2="474.6785714285714" y2="449.50482805691314" stroke="#000"/>
<rect x="489.7857142857142" y="339.3218159638444" width="30.214285714285715" height="158.6781840361555" fill="orange" data-tooltip="3.27x baseline speed (MJIT3.0)"/>
<line x1="489.7857142857142" y1="339.1276353680362" x2="519.9999999999999" y2="339.1276353680362" stroke="#000"/>
<line x1="489.7857142857142" y1="339.51599655965265" x2="519.9999999999999" y2="339.51599655965265" stroke="#000"/>
<line x1="504.89285714285705" y1="339.1276353680362" x2="504.89285714285705" y2="339.51599655965265" stroke="#000"/>
<rect x="519.9999999999999" y="327.6907342372182" width="30.214285714285715" height="170.30926576278176" fill="green" data-tooltip="3.51x baseline speed (YJIT)"/>
<line x1="519.9999999999999" y1="327.6085586057154" x2="550.2142857142857" y2="327.6085586057154" stroke="#000"/>
<line x1="519.9999999999999" y1="327.77290986872094" x2="550.2142857142857" y2="327.77290986872094" stroke="#000"/>
<line x1="535.1071428571428" y1="327.6085586057154" x2="535.1071428571428" y2="327.77290986872094" stroke="#000"/>
<line x1="519.9999999999999" y1="498.0" x2="519.9999999999999" y2="502.79999999999995" stroke="#000"/>
<text x="519.9999999999999" y="512.4" fill="#111" font-size="small" font-family="monospace" font-weight="bold" text-anchor="end" transform="rotate(-60, 519.9999999999999, 512.4)">
fib
</text>
<rect x="580.4285714285714" y="449.4905577769309" width="30.214285714285715" height="48.50944222306911" fill="#7070f8" data-tooltip="1.00x baseline speed (No JIT)"/>
<line x1="580.4285714285714" y1="449.4518669851916" x2="610.6428571428571" y2="449.4518669851916" stroke="#000"/>
<line x1="580.4285714285714" y1="449.5292485686702" x2="610.6428571428571" y2="449.5292485686702" stroke="#000"/>
<line x1="595.5357142857143" y1="449.4518669851916" x2="595.5357142857143" y2="449.5292485686702" stroke="#000"/>
<rect x="610.6428571428571" y="449.4885049349597" width="30.214285714285715" height="48.511495065040236" fill="orange" data-tooltip="1.00x baseline speed (MJIT3.0)"/>
<line x1="610.6428571428571" y1="449.4079861695217" x2="640.8571428571429" y2="449.4079861695217" stroke="#000"/>
<line x1="610.6428571428571" y1="449.5690237003977" x2="640.8571428571429" y2="449.5690237003977" stroke="#000"/>
<line x1="625.75" y1="449.4079861695217" x2="625.75" y2="449.5690237003977" stroke="#000"/>
<rect x="640.8571428571428" y="376.7188305573888" width="30.214285714285715" height="121.2811694426111" fill="green" data-tooltip="2.50x baseline speed (YJIT)"/>
<line x1="640.8571428571428" y1="376.5895594966652" x2="671.0714285714286" y2="376.5895594966652" stroke="#000"/>
<line x1="640.8571428571428" y1="376.8481016181124" x2="671.0714285714286" y2="376.8481016181124" stroke="#000"/>
<line x1="655.9642857142857" y1="376.5895594966652" x2="655.9642857142857" y2="376.8481016181124" stroke="#000"/>
<line x1="640.8571428571428" y1="498.0" x2="640.8571428571428" y2="502.79999999999995" stroke="#000"/>
<text x="640.8571428571428" y="512.4" fill="#111" font-size="small" font-family="monospace" font-weight="bold" text-anchor="end" transform="rotate(-60, 640.8571428571428, 512.4)">
getivar
</text>
<rect x="701.2857142857143" y="449.4905577769309" width="30.214285714285715" height="48.50944222306911" fill="#7070f8" data-tooltip="1.00x baseline speed (No JIT)"/>
<line x1="701.2857142857143" y1="448.84883971280556" x2="731.5" y2="448.84883971280556" stroke="#000"/>
<line x1="701.2857142857143" y1="450.13227584105624" x2="731.5" y2="450.13227584105624" stroke="#000"/>
<line x1="716.3928571428571" y1="448.84883971280556" x2="716.3928571428571" y2="450.13227584105624" stroke="#000"/>
<rect x="731.5" y="440.05737211484694" width="30.214285714285715" height="57.94262788515299" fill="orange" data-tooltip="1.19x baseline speed (MJIT3.0)"/>
<line x1="731.5" y1="439.2819720068983" x2="761.7142857142858" y2="439.2819720068983" stroke="#000"/>
<line x1="731.5" y1="440.8327722227956" x2="761.7142857142858" y2="440.8327722227956" stroke="#000"/>
<line x1="746.6071428571429" y1="439.2819720068983" x2="746.6071428571429" y2="440.8327722227956" stroke="#000"/>
<rect x="761.7142857142857" y="424.13462052316777" width="30.214285714285715" height="73.8653794768321" fill="green" data-tooltip="1.52x baseline speed (YJIT)"/>
<line x1="761.7142857142857" y1="423.14358007752753" x2="791.9285714285714" y2="423.14358007752753" stroke="#000"/>
<line x1="761.7142857142857" y1="425.12566096880806" x2="791.9285714285714" y2="425.12566096880806" stroke="#000"/>
<line x1="776.8214285714286" y1="423.14358007752753" x2="776.8214285714286" y2="425.12566096880806" stroke="#000"/>
<line x1="761.7142857142857" y1="498.0" x2="761.7142857142857" y2="502.79999999999995" stroke="#000"/>
<text x="761.7142857142857" y="512.4" fill="#111" font-size="small" font-family="monospace" font-weight="bold" text-anchor="end" transform="rotate(-60, 761.7142857142857, 512.4)">
respond_to
</text>
<rect x="822.1428571428571" y="449.4905577769309" width="30.214285714285715" height="48.50944222306911" fill="#7070f8" data-tooltip="1.00x baseline speed (No JIT)"/>
<line x1="822.1428571428571" y1="449.4642726460799" x2="852.3571428571428" y2="449.4642726460799" stroke="#000"/>
<line x1="822.1428571428571" y1="449.5168429077819" x2="852.3571428571428" y2="449.5168429077819" stroke="#000"/>
<line x1="837.2499999999999" y1="449.4642726460799" x2="837.2499999999999" y2="449.5168429077819" stroke="#000"/>
<rect x="852.3571428571428" y="451.08437500270344" width="30.214285714285715" height="46.91562499729642" fill="orange" data-tooltip="0.97x baseline speed (MJIT3.0)"/>
<line x1="852.3571428571428" y1="451.04035927957983" x2="882.5714285714286" y2="451.04035927957983" stroke="#000"/>
<line x1="852.3571428571428" y1="451.1283907258271" x2="882.5714285714286" y2="451.1283907258271" stroke="#000"/>
<line x1="867.4642857142857" y1="451.04035927957983" x2="867.4642857142857" y2="451.1283907258271" stroke="#000"/>
<rect x="882.5714285714284" y="415.85836333604766" width="30.214285714285715" height="82.14163666395226" fill="green" data-tooltip="1.69x baseline speed (YJIT)"/>
<line x1="882.5714285714284" y1="415.58652454975913" x2="912.7857142857142" y2="415.58652454975913" stroke="#000"/>
<line x1="882.5714285714284" y1="416.1302021223362" x2="912.7857142857142" y2="416.1302021223362" stroke="#000"/>
<line x1="897.6785714285713" y1="415.58652454975913" x2="897.6785714285713" y2="416.1302021223362" stroke="#000"/>
<line x1="882.5714285714284" y1="498.0" x2="882.5714285714284" y2="502.79999999999995" stroke="#000"/>
<text x="882.5714285714284" y="512.4" fill="#111" font-size="small" font-family="monospace" font-weight="bold" text-anchor="end" transform="rotate(-60, 882.5714285714284, 512.4)">
setivar
</text>
</svg>