<svg viewBox="0 0 1000 600" xmlns="http://www.w3.org/2000/svg" xmlns:xlink="http://www.w3.org/1999/xlink" width="100%" height="100%">

<rect x="50.0" y="30.0" width="940.0" height="467.99999999999994" stroke="#000" fill="#EEE"/>
<line x1="42.0" y1="497.9999999999999" x2="50.0" y2="497.9999999999999" stroke="#000"/>
<text x="26.000000000000004" y="497.9999999999999" text-anchor="end" font-weight="bold" font-size="small" fill="#111">
0.0
</text>
<line x1="42.0" y1="451.4376161259188" x2="50.0" y2="451.4376161259188" stroke="#000"/>
<text x="26.000000000000004" y="451.4376161259188" text-anchor="end" font-weight="bold" font-size="small" fill="#111">
0.2
</text>
<line x1="42.0" y1="404.8752322518375" x2="50.0" y2="404.8752322518375" stroke="#000"/>
<text x="26.000000000000004" y="404.8752322518375" text-anchor="end" font-weight="bold" font-size="small" fill="#111">
0.4
</text>
<line x1="42.0" y1="358.3128483777562" x2="50.0" y2="358.3128483777562" stroke="#000"/>
<text x="26.000000000000004" y="358.3128483777562" text-anchor="end" font-weight="bold" font-size="small" fill="#111">
0.6
</text>
<line x1="42.0" y1="311.7504645036751" x2="50.0" y2="311.7504645036751" stroke="#000"/>
<text x="26.000000000000004" y="311.7504645036751" text-anchor="end" font-weight="bold" font-size="small" fill="#111">
0.8
</text>
<line x1="42.0" y1="265.18808062959386" x2="50.0" y2="265.18808062959386" stroke="#000"/>
<text x="26.000000000000004" y="265.18808062959386" text-anchor="end" font-weight="bold" font-size="small" fill="#111">
1.0
</text>
<line x1="42.0" y1="218.62569675551268" x2="50.0" y2="218.62569675551268" stroke="#000"/>
<text x="26.000000000000004" y="218.62569675551268" text-anchor="end" font-weight="bold" font-size="small" fill="#111">
1.2
</text>
<line x1="42.0" y1="172.06331288143147" x2="50.0" y2="172.06331288143147" stroke="#000"/>
<text x="26.000000000000004" y="172.06331288143147" text-anchor="end" font-weight="bold" font-size="small" fill="#111">
1.4
</text>
<line x1="42.0" y1="125.50092900735024" x2="50.0" y2="125.50092900735024" stroke="#000"/>
<text x="26.000000000000004" y="125.50092900735024" text-anchor="end" font-weight="bold" font-size="small" fill="#111">
1.6
</text>
<rect x="268.5" y="36.00000000000001" width="80.0" height="18.0" fill="#7070f8" stroke="#888"/>
<text x="308.5" y="52.50000000000001" font-size="small" text-anchor="middle" font-weight="bold" fill="#EEE">
No JIT
</text>
<rect x="691.4999999999999" y="36.00000000000001" width="80.0" height="18.0" fill="orange" stroke="#888"/>
<text x="731.4999999999999" y="52.50000000000001" font-size="small" text-anchor="middle" font-weight="bold" fill="#EEE">
YJIT
</text>
<rect x="97.0" y="265.18808062959386" width="40.285714285714285" height="232.8119193704061" fill="#7070f8" data-tooltip="1.00x baseline speed (No JIT)"/>
<line x1="97.0" y1="264.2731866647087" x2="137.28571428571428" y2="264.2731866647087" stroke="#000"/>
<line x1="97.0" y1="266.102974594479" x2="137.28571428571428" y2="266.102974594479" stroke="#000"/>
<line x1="117.14285714285714" y1="264.2731866647087" x2="117.14285714285714" y2="266.102974594479" stroke="#000"/>
<rect x="137.28571428571428" y="128.46284083141438" width="40.285714285714285" height="369.53715916858556" fill="orange" data-tooltip="1.59x baseline speed (YJIT)"/>
<line x1="137.28571428571428" y1="125.14866219755169" x2="177.57142857142858" y2="125.14866219755169" stroke="#000"/>
<line x1="137.28571428571428" y1="131.77701946527708" x2="177.57142857142858" y2="131.77701946527708" stroke="#000"/>
<line x1="157.42857142857142" y1="125.14866219755169" x2="157.42857142857142" y2="131.77701946527708" stroke="#000"/>
<line x1="157.42857142857142" y1="498.0" x2="157.42857142857142" y2="502.79999999999995" stroke="#000"/>
<text x="157.42857142857142" y="512.4" fill="#111" font-size="small" font-family="monospace" font-weight="bold" text-anchor="end" transform="rotate(-60, 157.42857142857142, 512.4)">
activerecord
</text>
<rect x="217.85714285714286" y="265.18808062959386" width="40.285714285714285" height="232.8119193704061" fill="#7070f8" data-tooltip="1.00x baseline speed (No JIT)"/>
<line x1="217.85714285714286" y1="262.81842527831674" x2="258.1428571428571" y2="262.81842527831674" stroke="#000"/>
<line x1="217.85714285714286" y1="267.557735980871" x2="258.1428571428571" y2="267.557735980871" stroke="#000"/>
<line x1="238.0" y1="262.81842527831674" x2="238.0" y2="267.557735980871" stroke="#000"/>
<rect x="258.1428571428571" y="167.65148000098102" width="40.285714285714285" height="330.34851999901895" fill="orange" data-tooltip="1.42x baseline speed (YJIT)"/>
<line x1="258.1428571428571" y1="161.26541317910912" x2="298.4285714285714" y2="161.26541317910912" stroke="#000"/>
<line x1="258.1428571428571" y1="174.03754682285293" x2="298.4285714285714" y2="174.03754682285293" stroke="#000"/>
<line x1="278.2857142857142" y1="161.26541317910912" x2="278.2857142857142" y2="174.03754682285293" stroke="#000"/>
<line x1="278.2857142857143" y1="498.0" x2="278.2857142857143" y2="502.79999999999995" stroke="#000"/>
<text x="278.2857142857143" y="512.4" fill="#111" font-size="small" font-family="monospace" font-weight="bold" text-anchor="end" transform="rotate(-60, 278.2857142857143, 512.4)">
hexapdf
</text>
<rect x="338.7142857142857" y="265.18808062959386" width="40.285714285714285" height="232.8119193704061" fill="#7070f8" data-tooltip="1.00x baseline speed (No JIT)"/>
<line x1="338.7142857142857" y1="259.2363236841505" x2="379.0" y2="259.2363236841505" stroke="#000"/>
<line x1="338.7142857142857" y1="271.13983757503723" x2="379.0" y2="271.13983757503723" stroke="#000"/>
<line x1="358.8571428571429" y1="259.2363236841505" x2="358.8571428571429" y2="271.13983757503723" stroke="#000"/>
<rect x="379.0" y="100.19999999999999" width="40.285714285714285" height="397.79999999999995" fill="orange" data-tooltip="1.71x baseline speed (YJIT)"/>
<line x1="379.0" y1="87.79939854005237" x2="419.2857142857143" y2="87.79939854005237" stroke="#000"/>
<line x1="379.0" y1="112.60060145994763" x2="419.2857142857143" y2="112.60060145994763" stroke="#000"/>
<line x1="399.1428571428571" y1="87.79939854005237" x2="399.1428571428571" y2="112.60060145994763" stroke="#000"/>
<line x1="399.14285714285717" y1="498.0" x2="399.14285714285717" y2="502.79999999999995" stroke="#000"/>
<text x="399.14285714285717" y="512.4" fill="#111" font-size="small" font-family="monospace" font-weight="bold" text-anchor="end" transform="rotate(-60, 399.14285714285717, 512.4)">
liquid-render
</text>
<rect x="459.5714285714285" y="265.18808062959386" width="40.285714285714285" height="232.8119193704061" fill="#7070f8" data-tooltip="1.00x baseline speed (No JIT)"/>
<line x1="459.5714285714285" y1="264.87084735427317" x2="499.8571428571428" y2="264.87084735427317" stroke="#000"/>
<line x1="459.5714285714285" y1="265.50531390491454" x2="499.8571428571428" y2="265.50531390491454" stroke="#000"/>
<line x1="479.71428571428567" y1="264.87084735427317" x2="479.71428571428567" y2="265.50531390491454" stroke="#000"/>
<rect x="499.8571428571428" y="252.9806023881118" width="40.285714285714285" height="245.01939761188814" fill="orange" data-tooltip="1.05x baseline speed (YJIT)"/>
<line x1="499.8571428571428" y1="252.47496471622216" x2="540.142857142857" y2="252.47496471622216" stroke="#000"/>
<line x1="499.8571428571428" y1="253.48624006000145" x2="540.142857142857" y2="253.48624006000145" stroke="#000"/>
<line x1="519.9999999999999" y1="252.47496471622216" x2="519.9999999999999" y2="253.48624006000145" stroke="#000"/>
<line x1="519.9999999999999" y1="498.0" x2="519.9999999999999" y2="502.79999999999995" stroke="#000"/>
<text x="519.9999999999999" y="512.4" fill="#111" font-size="small" font-family="monospace" font-weight="bold" text-anchor="end" transform="rotate(-60, 519.9999999999999, 512.4)">
mail
</text>
<rect x="580.4285714285714" y="265.18808062959386" width="40.285714285714285" height="232.8119193704061" fill="#7070f8" data-tooltip="1.00x baseline speed (No JIT)"/>
<line x1="580.4285714285714" y1="265.08756477687365" x2="620.7142857142857" y2="265.08756477687365" stroke="#000"/>
<line x1="580.4285714285714" y1="265.28859648231406" x2="620.7142857142857" y2="265.28859648231406" stroke="#000"/>
<line x1="600.5714285714286" y1="265.08756477687365" x2="600.5714285714286" y2="265.28859648231406" stroke="#000"/>
<rect x="620.7142857142857" y="192.91362284070567" width="40.285714285714285" height="305.0863771592943" fill="orange" data-tooltip="1.31x baseline speed (YJIT)"/>
<line x1="620.7142857142857" y1="192.75524748643886" x2="660.9999999999999" y2="192.75524748643886" stroke="#000"/>
<line x1="620.7142857142857" y1="193.07199819497248" x2="660.9999999999999" y2="193.07199819497248" stroke="#000"/>
<line x1="640.8571428571428" y1="192.75524748643886" x2="640.8571428571428" y2="193.07199819497248" stroke="#000"/>
<line x1="640.8571428571428" y1="498.0" x2="640.8571428571428" y2="502.79999999999995" stroke="#000"/>
<text x="640.8571428571428" y="512.4" fill="#111" font-size="small" font-family="monospace" font-weight="bold" text-anchor="end" transform="rotate(-60, 640.8571428571428, 512.4)">
psych-load
</text>
<rect x="701.2857142857143" y="265.18808062959386" width="40.285714285714285" height="232.8119193704061" fill="#7070f8" data-tooltip="1.00x baseline speed (No JIT)"/>
<line x1="701.2857142857143" y1="263.55110559583835" x2="741.5714285714286" y2="263.55110559583835" stroke="#000"/>
<line x1="701.2857142857143" y1="266.82505566334936" x2="741.5714285714286" y2="266.82505566334936" stroke="#000"/>
<line x1="721.4285714285714" y1="263.55110559583835" x2="721.4285714285714" y2="266.82505566334936" stroke="#000"/>
<rect x="741.5714285714286" y="180.86463760713568" width="40.285714285714285" height="317.13536239286424" fill="orange" data-tooltip="1.36x baseline speed (YJIT)"/>
<line x1="741.5714285714286" y1="176.24307785365932" x2="781.8571428571428" y2="176.24307785365932" stroke="#000"/>
<line x1="741.5714285714286" y1="185.48619736061204" x2="781.8571428571428" y2="185.48619736061204" stroke="#000"/>
<line x1="761.7142857142857" y1="176.24307785365932" x2="761.7142857142857" y2="185.48619736061204" stroke="#000"/>
<line x1="761.7142857142857" y1="498.0" x2="761.7142857142857" y2="502.79999999999995" stroke="#000"/>
<text x="761.7142857142857" y="512.4" fill="#111" font-size="small" font-family="monospace" font-weight="bold" text-anchor="end" transform="rotate(-60, 761.7142857142857, 512.4)">
railsbench
</text>
<rect x="822.1428571428571" y="265.18808062959386" width="40.285714285714285" height="232.8119193704061" fill="#7070f8" data-tooltip="1.00x baseline speed (No JIT)"/>
<line x1="822.1428571428571" y1="246.57562986310606" x2="862.4285714285713" y2="246.57562986310606" stroke="#000"/>
<line x1="822.1428571428571" y1="283.8005313960817" x2="862.4285714285713" y2="283.8005313960817" stroke="#000"/>
<line x1="842.2857142857142" y1="246.57562986310606" x2="842.2857142857142" y2="283.8005313960817" stroke="#000"/>
<rect x="862.4285714285713" y="271.92685607998305" width="40.285714285714285" height="226.07314392001692" fill="orange" data-tooltip="0.97x baseline speed (YJIT)"/>
<line x1="862.4285714285713" y1="214.8450358090702" x2="902.7142857142856" y2="214.8450358090702" stroke="#000"/>
<line x1="862.4285714285713" y1="329.0086763508959" x2="902.7142857142856" y2="329.0086763508959" stroke="#000"/>
<line x1="882.5714285714284" y1="214.8450358090702" x2="882.5714285714284" y2="329.0086763508959" stroke="#000"/>
<line x1="882.5714285714284" y1="498.0" x2="882.5714285714284" y2="502.79999999999995" stroke="#000"/>
<text x="882.5714285714284" y="512.4" fill="#111" font-size="small" font-family="monospace" font-weight="bold" text-anchor="end" transform="rotate(-60, 882.5714285714284, 512.4)">
ruby-lsp
</text>
</svg>