<svg viewBox="0 0 1000 600" xmlns="http://www.w3.org/2000/svg" xmlns:xlink="http://www.w3.org/1999/xlink" width="100%" height="100%">

<rect x="50.0" y="30.0" width="940.0" height="467.99999999999994" stroke="#000" fill="#EEE"/>
<line x1="42.0" y1="497.9999999999999" x2="50.0" y2="497.9999999999999" stroke="#000"/>
<text x="26.000000000000004" y="497.9999999999999" text-anchor="end" font-weight="bold" font-size="small" fill="#111">
0.0
</text>
<line x1="42.0" y1="399.60463881883715" x2="50.0" y2="399.60463881883715" stroke="#000"/>
<text x="26.000000000000004" y="399.60463881883715" text-anchor="end" font-weight="bold" font-size="small" fill="#111">
2.0
</text>
<line x1="42.0" y1="301.2092776376744" x2="50.0" y2="301.2092776376744" stroke="#000"/>
<text x="26.000000000000004" y="301.2092776376744" text-anchor="end" font-weight="bold" font-size="small" fill="#111">
4.0
</text>
<line x1="42.0" y1="202.81391645651155" x2="50.0" y2="202.81391645651155" stroke="#000"/>
<text x="26.000000000000004" y="202.81391645651155" text-anchor="end" font-weight="bold" font-size="small" fill="#111">
6.0
</text>
<line x1="42.0" y1="104.41855527534875" x2="50.0" y2="104.41855527534875" stroke="#000"/>
<text x="26.000000000000004" y="104.41855527534875" text-anchor="end" font-weight="bold" font-size="small" fill="#111">
8.0
</text>
<rect x="197.99999999999997" y="36.00000000000001" width="80.0" height="18.0" fill="#7070f8" stroke="#888"/>
<text x="238.0" y="52.50000000000001" font-size="small" text-anchor="middle" font-weight="bold" fill="#EEE">
No JIT
</text>
<rect x="479.99999999999994" y="36.00000000000001" width="80.0" height="18.0" fill="orange" stroke="#888"/>
<text x="519.9999999999999" y="52.50000000000001" font-size="small" text-anchor="middle" font-weight="bold" fill="#EEE">
MJIT3.0
</text>
<rect x="761.9999999999999" y="36.00000000000001" width="80.0" height="18.0" fill="green" stroke="#888"/>
<text x="801.9999999999999" y="52.50000000000001" font-size="small" text-anchor="middle" font-weight="bold" fill="#EEE">
YJIT
</text>
<rect x="97.0" y="448.80231940941854" width="26.4375" height="49.1976805905814" fill="#7070f8" data-tooltip="1.00x baseline speed (No JIT)"/>
<line x1="97.0" y1="448.45303165805217" x2="123.4375" y2="448.45303165805217" stroke="#000"/>
<line x1="97.0" y1="449.15160716078486" x2="123.4375" y2="449.15160716078486" stroke="#000"/>
<line x1="110.21875" y1="448.45303165805217" x2="110.21875" y2="449.15160716078486" stroke="#000"/>
<rect x="123.4375" y="446.7420694734375" width="26.4375" height="51.25793052656247" fill="orange" data-tooltip="1.04x baseline speed (MJIT3.0)"/>
<line x1="123.4375" y1="446.3006493363756" x2="149.875" y2="446.3006493363756" stroke="#000"/>
<line x1="123.4375" y1="447.1834896104994" x2="149.875" y2="447.1834896104994" stroke="#000"/>
<line x1="136.65625" y1="446.3006493363756" x2="136.65625" y2="447.1834896104994" stroke="#000"/>
<rect x="149.875" y="152.5293792707731" width="26.4375" height="345.4706207292268" fill="green" data-tooltip="7.02x baseline speed (YJIT)"/>
<line x1="149.875" y1="149.9971230126916" x2="176.3125" y2="149.9971230126916" stroke="#000"/>
<line x1="149.875" y1="155.0616355288546" x2="176.3125" y2="155.0616355288546" stroke="#000"/>
<line x1="163.09375" y1="149.9971230126916" x2="163.09375" y2="155.0616355288546" stroke="#000"/>
<line x1="149.875" y1="498.0" x2="149.875" y2="502.79999999999995" stroke="#000"/>
<text x="149.875" y="512.4" fill="#111" font-size="small" font-family="monospace" font-weight="bold" text-anchor="end" transform="rotate(-60, 149.875, 512.4)">
30k_ifelse
</text>
<rect x="202.75" y="448.80231940941854" width="26.4375" height="49.1976805905814" fill="#7070f8" data-tooltip="1.00x baseline speed (No JIT)"/>
<line x1="202.75" y1="448.26279056772796" x2="229.1875" y2="448.26279056772796" stroke="#000"/>
<line x1="202.75" y1="449.3418482511091" x2="229.1875" y2="449.3418482511091" stroke="#000"/>
<line x1="215.96875" y1="448.26279056772796" x2="215.96875" y2="449.3418482511091" stroke="#000"/>
<rect x="229.1875" y="447.7420979484207" width="26.4375" height="50.25790205157919" fill="orange" data-tooltip="1.02x baseline speed (MJIT3.0)"/>
<line x1="229.1875" y1="447.16943486965795" x2="255.625" y2="447.16943486965795" stroke="#000"/>
<line x1="229.1875" y1="448.31476102718347" x2="255.625" y2="448.31476102718347" stroke="#000"/>
<line x1="242.40625" y1="447.16943486965795" x2="242.40625" y2="448.31476102718347" stroke="#000"/>
<rect x="255.625" y="100.19999999999999" width="26.4375" height="397.79999999999995" fill="green" data-tooltip="8.09x baseline speed (YJIT)"/>
<line x1="255.625" y1="95.83652666926136" x2="282.0625" y2="95.83652666926136" stroke="#000"/>
<line x1="255.625" y1="104.56347333073862" x2="282.0625" y2="104.56347333073862" stroke="#000"/>
<line x1="268.84375" y1="95.83652666926136" x2="268.84375" y2="104.56347333073862" stroke="#000"/>
<line x1="255.625" y1="498.0" x2="255.625" y2="502.79999999999995" stroke="#000"/>
<text x="255.625" y="512.4" fill="#111" font-size="small" font-family="monospace" font-weight="bold" text-anchor="end" transform="rotate(-60, 255.625, 512.4)">
30k_methods
</text>
<rect x="308.5" y="448.80231940941854" width="26.4375" height="49.1976805905814" fill="#7070f8" data-tooltip="1.00x baseline speed (No JIT)"/>
<line x1="308.5" y1="448.7332942501911" x2="334.9375" y2="448.7332942501911" stroke="#000"/>
<line x1="308.5" y1="448.87134456864595" x2="334.9375" y2="448.87134456864595" stroke="#000"/>
<line x1="321.71875" y1="448.7332942501911" x2="321.71875" y2="448.87134456864595" stroke="#000"/>
<rect x="334.9375" y="424.76547058805704" width="26.4375" height="73.23452941194282" fill="orange" data-tooltip="1.49x baseline speed (MJIT3.0)"/>
<line x1="334.9375" y1="424.6456354954021" x2="361.375" y2="424.6456354954021" stroke="#000"/>
<line x1="334.9375" y1="424.88530568071207" x2="361.375" y2="424.88530568071207" stroke="#000"/>
<line x1="348.15625" y1="424.6456354954021" x2="348.15625" y2="424.88530568071207" stroke="#000"/>
<rect x="361.375" y="388.9839219197878" width="26.4375" height="109.01607808021217" fill="green" data-tooltip="2.22x baseline speed (YJIT)"/>
<line x1="361.375" y1="388.69822450284795" x2="387.8125" y2="388.69822450284795" stroke="#000"/>
<line x1="361.375" y1="389.26961933672766" x2="387.8125" y2="389.26961933672766" stroke="#000"/>
<line x1="374.59375" y1="388.69822450284795" x2="374.59375" y2="389.26961933672766" stroke="#000"/>
<line x1="361.375" y1="498.0" x2="361.375" y2="502.79999999999995" stroke="#000"/>
<text x="361.375" y="512.4" fill="#111" font-size="small" font-family="monospace" font-weight="bold" text-anchor="end" transform="rotate(-60, 361.375, 512.4)">
cfunc_itself
</text>
<rect x="414.25" y="448.80231940941854" width="26.4375" height="49.1976805905814" fill="#7070f8" data-tooltip="1.00x baseline speed (No JIT)"/>
<line x1="414.25" y1="448.6775398902312" x2="440.6875" y2="448.6775398902312" stroke="#000"/>
<line x1="414.25" y1="448.92709892860586" x2="440.6875" y2="448.92709892860586" stroke="#000"/>
<line x1="427.46875" y1="448.6775398902312" x2="427.46875" y2="448.92709892860586" stroke="#000"/>
<rect x="440.6875" y="338.4179775034232" width="26.4375" height="159.58202249657677" fill="orange" data-tooltip="3.24x baseline speed (MJIT3.0)"/>
<line x1="440.6875" y1="338.01221384155286" x2="467.125" y2="338.01221384155286" stroke="#000"/>
<line x1="440.6875" y1="338.8237411652934" x2="467.125" y2="338.8237411652934" stroke="#000"/>
<line x1="453.90625" y1="338.01221384155286" x2="453.90625" y2="338.8237411652934" stroke="#000"/>
<rect x="467.125" y="305.6462662732546" width="26.4375" height="192.35373372674528" fill="green" data-tooltip="3.91x baseline speed (YJIT)"/>
<line x1="467.125" y1="305.1495608986957" x2="493.5625" y2="305.1495608986957" stroke="#000"/>
<line x1="467.125" y1="306.14297164781345" x2="493.5625" y2="306.14297164781345" stroke="#000"/>
<line x1="480.34375" y1="305.1495608986957" x2="480.34375" y2="306.14297164781345" stroke="#000"/>
<line x1="467.125" y1="498.0" x2="467.125" y2="502.79999999999995" stroke="#000"/>
<text x="467.125" y="512.4" fill="#111" font-size="small" font-family="monospace" font-weight="bold" text-anchor="end" transform="rotate(-60, 467.125, 512.4)">
fib
</text>
<rect x="520.0" y="448.80231940941854" width="26.4375" height="49.1976805905814" fill="#7070f8" data-tooltip="1.00x baseline speed (No JIT)"/>
<line x1="520.0" y1="448.7484941680462" x2="546.4375" y2="448.7484941680462" stroke="#000"/>
<line x1="520.0" y1="448.85614465079084" x2="546.4375" y2="448.85614465079084" stroke="#000"/>
<line x1="533.21875" y1="448.7484941680462" x2="533.21875" y2="448.85614465079084" stroke="#000"/>
<rect x="546.4375" y="445.8218221084139" width="26.4375" height="52.17817789158603" fill="orange" data-tooltip="1.06x baseline speed (MJIT3.0)"/>
<line x1="546.4375" y1="445.72790229273755" x2="572.875" y2="445.72790229273755" stroke="#000"/>
<line x1="546.4375" y1="445.9157419240903" x2="572.875" y2="445.9157419240903" stroke="#000"/>
<line x1="559.65625" y1="445.72790229273755" x2="559.65625" y2="445.9157419240903" stroke="#000"/>
<rect x="572.875" y="367.478678310584" width="26.4375" height="130.52132168941594" fill="green" data-tooltip="2.65x baseline speed (YJIT)"/>
<line x1="572.875" y1="367.31041398096727" x2="599.3125" y2="367.31041398096727" stroke="#000"/>
<line x1="572.875" y1="367.6469426402007" x2="599.3125" y2="367.6469426402007" stroke="#000"/>
<line x1="586.09375" y1="367.31041398096727" x2="586.09375" y2="367.6469426402007" stroke="#000"/>
<line x1="572.875" y1="498.0" x2="572.875" y2="502.79999999999995" stroke="#000"/>
<text x="572.875" y="512.4" fill="#111" font-size="small" font-family="monospace" font-weight="bold" text-anchor="end" transform="rotate(-60, 572.875, 512.4)">
getivar
</text>
<rect x="625.7499999999999" y="448.80231940941854" width="26.4375" height="49.1976805905814" fill="#7070f8" data-tooltip="1.00x baseline speed (No JIT)"/>
<line x1="625.7499999999999" y1="448.76291423763166" x2="652.1874999999999" y2="448.76291423763166" stroke="#000"/>
<line x1="625.7499999999999" y1="448.84172458120537" x2="652.1874999999999" y2="448.84172458120537" stroke="#000"/>
<line x1="638.9687499999999" y1="448.76291423763166" x2="638.9687499999999" y2="448.84172458120537" stroke="#000"/>
<rect x="652.1874999999999" y="432.2366390368069" width="26.4375" height="65.7633609631931" fill="orange" data-tooltip="1.34x baseline speed (MJIT3.0)"/>
<line x1="652.1874999999999" y1="432.1794474943234" x2="678.6249999999999" y2="432.1794474943234" stroke="#000"/>
<line x1="652.1874999999999" y1="432.29383057929033" x2="678.6249999999999" y2="432.29383057929033" stroke="#000"/>
<line x1="665.4062499999999" y1="432.1794474943234" x2="665.4062499999999" y2="432.29383057929033" stroke="#000"/>
<rect x="678.6249999999999" y="447.1991670900465" width="26.4375" height="50.800832909953414" fill="green" data-tooltip="1.03x baseline speed (YJIT)"/>
<line x1="678.6249999999999" y1="447.1470597585745" x2="705.0624999999999" y2="447.1470597585745" stroke="#000"/>
<line x1="678.6249999999999" y1="447.2512744215185" x2="705.0624999999999" y2="447.2512744215185" stroke="#000"/>
<line x1="691.8437499999999" y1="447.1470597585745" x2="691.8437499999999" y2="447.2512744215185" stroke="#000"/>
<line x1="678.6249999999999" y1="498.0" x2="678.6249999999999" y2="502.79999999999995" stroke="#000"/>
<text x="678.6249999999999" y="512.4" fill="#111" font-size="small" font-family="monospace" font-weight="bold" text-anchor="end" transform="rotate(-60, 678.6249999999999, 512.4)">
keyword_args
</text>
<rect x="731.4999999999999" y="448.80231940941854" width="26.4375" height="49.1976805905814" fill="#7070f8" data-tooltip="1.00x baseline speed (No JIT)"/>
<line x1="731.4999999999999" y1="448.52806087359056" x2="757.9374999999999" y2="448.52806087359056" stroke="#000"/>
<line x1="731.4999999999999" y1="449.07657794524647" x2="757.9374999999999" y2="449.07657794524647" stroke="#000"/>
<line x1="744.7187499999999" y1="448.52806087359056" x2="744.7187499999999" y2="449.07657794524647" stroke="#000"/>
<rect x="757.9374999999999" y="439.69687726397683" width="26.4375" height="58.30312273602316" fill="orange" data-tooltip="1.19x baseline speed (MJIT3.0)"/>
<line x1="757.9374999999999" y1="439.3136041961898" x2="784.3749999999999" y2="439.3136041961898" stroke="#000"/>
<line x1="757.9374999999999" y1="440.08015033176395" x2="784.3749999999999" y2="440.08015033176395" stroke="#000"/>
<line x1="771.1562499999999" y1="439.3136041961898" x2="771.1562499999999" y2="440.08015033176395" stroke="#000"/>
<rect x="784.3749999999999" y="431.0938008084273" width="26.4375" height="66.90619919157254" fill="green" data-tooltip="1.36x baseline speed (YJIT)"/>
<line x1="784.3749999999999" y1="430.70065630007946" x2="810.8124999999999" y2="430.70065630007946" stroke="#000"/>
<line x1="784.3749999999999" y1="431.4869453167752" x2="810.8124999999999" y2="431.4869453167752" stroke="#000"/>
<line x1="797.5937499999999" y1="430.70065630007946" x2="797.5937499999999" y2="431.4869453167752" stroke="#000"/>
<line x1="784.3749999999999" y1="498.0" x2="784.3749999999999" y2="502.79999999999995" stroke="#000"/>
<text x="784.3749999999999" y="512.4" fill="#111" font-size="small" font-family="monospace" font-weight="bold" text-anchor="end" transform="rotate(-60, 784.3749999999999, 512.4)">
respond_to
</text>
<rect x="837.2499999999999" y="448.80231940941854" width="26.4375" height="49.1976805905814" fill="#7070f8" data-tooltip="1.00x baseline speed (No JIT)"/>
<line x1="837.2499999999999" y1="448.77084540859664" x2="863.6874999999999" y2="448.77084540859664" stroke="#000"/>
<line x1="837.2499999999999" y1="448.8337934102404" x2="863.6874999999999" y2="448.8337934102404" stroke="#000"/>
<line x1="850.4687499999999" y1="448.77084540859664" x2="850.4687499999999" y2="448.8337934102404" stroke="#000"/>
<rect x="863.6874999999999" y="451.4710985082532" width="26.4375" height="46.5289014917468" fill="orange" data-tooltip="0.95x baseline speed (MJIT3.0)"/>
<line x1="863.6874999999999" y1="451.4190509259486" x2="890.125" y2="451.4190509259486" stroke="#000"/>
<line x1="863.6874999999999" y1="451.52314609055776" x2="890.125" y2="451.52314609055776" stroke="#000"/>
<line x1="876.9062499999999" y1="451.4190509259486" x2="876.9062499999999" y2="451.52314609055776" stroke="#000"/>
<rect x="890.125" y="411.84418653047" width="26.4375" height="86.15581346953002" fill="green" data-tooltip="1.75x baseline speed (YJIT)"/>
<line x1="890.125" y1="411.7592729949359" x2="916.5625" y2="411.7592729949359" stroke="#000"/>
<line x1="890.125" y1="411.9291000660041" x2="916.5625" y2="411.9291000660041" stroke="#000"/>
<line x1="903.3437499999999" y1="411.7592729949359" x2="903.3437499999999" y2="411.9291000660041" stroke="#000"/>
<line x1="890.125" y1="498.0" x2="890.125" y2="502.79999999999995" stroke="#000"/>
<text x="890.125" y="512.4" fill="#111" font-size="small" font-family="monospace" font-weight="bold" text-anchor="end" transform="rotate(-60, 890.125, 512.4)">
setivar
</text>
</svg>