<svg viewBox="0 0 1000 600" xmlns="http://www.w3.org/2000/svg" xmlns:xlink="http://www.w3.org/1999/xlink" width="100%" height="100%">

<rect x="50.0" y="30.0" width="940.0" height="467.99999999999994" stroke="#000" fill="#EEE"/>
<line x1="42.0" y1="497.9999999999999" x2="50.0" y2="497.9999999999999" stroke="#000"/>
<text x="26.000000000000004" y="497.9999999999999" text-anchor="end" font-weight="bold" font-size="small" fill="#111">
0.0
</text>
<line x1="42.0" y1="445.87690762333665" x2="50.0" y2="445.87690762333665" stroke="#000"/>
<text x="26.000000000000004" y="445.87690762333665" text-anchor="end" font-weight="bold" font-size="small" fill="#111">
1.0
</text>
<line x1="42.0" y1="393.7538152466733" x2="50.0" y2="393.7538152466733" stroke="#000"/>
<text x="26.000000000000004" y="393.7538152466733" text-anchor="end" font-weight="bold" font-size="small" fill="#111">
2.0
</text>
<line x1="42.0" y1="341.63072287000995" x2="50.0" y2="341.63072287000995" stroke="#000"/>
<text x="26.000000000000004" y="341.63072287000995" text-anchor="end" font-weight="bold" font-size="small" fill="#111">
3.0
</text>
<line x1="42.0" y1="289.50763049334665" x2="50.0" y2="289.50763049334665" stroke="#000"/>
<text x="26.000000000000004" y="289.50763049334665" text-anchor="end" font-weight="bold" font-size="small" fill="#111">
4.0
</text>
<line x1="42.0" y1="237.3845381166833" x2="50.0" y2="237.3845381166833" stroke="#000"/>
<text x="26.000000000000004" y="237.3845381166833" text-anchor="end" font-weight="bold" font-size="small" fill="#111">
5.0
</text>
<line x1="42.0" y1="185.26144574002" x2="50.0" y2="185.26144574002" stroke="#000"/>
<text x="26.000000000000004" y="185.26144574002" text-anchor="end" font-weight="bold" font-size="small" fill="#111">
6.0
</text>
<line x1="42.0" y1="133.13835336335666" x2="50.0" y2="133.13835336335666" stroke="#000"/>
<text x="26.000000000000004" y="133.13835336335666" text-anchor="end" font-weight="bold" font-size="small" fill="#111">
7.0
</text>
<rect x="197.99999999999997" y="36.00000000000001" width="80.0" height="18.0" fill="#7070f8" stroke="#888"/>
<text x="238.0" y="52.50000000000001" font-size="small" text-anchor="middle" font-weight="bold" fill="#EEE">
No JIT
</text>
<rect x="479.99999999999994" y="36.00000000000001" width="80.0" height="18.0" fill="orange" stroke="#888"/>
<text x="519.9999999999999" y="52.50000000000001" font-size="small" text-anchor="middle" font-weight="bold" fill="#EEE">
MJIT
</text>
<rect x="761.9999999999999" y="36.00000000000001" width="80.0" height="18.0" fill="green" stroke="#888"/>
<text x="801.9999999999999" y="52.50000000000001" font-size="small" text-anchor="middle" font-weight="bold" fill="#EEE">
YJIT
</text>
<rect x="97.0" y="445.87690762333665" width="26.4375" height="52.12309237666333" fill="#7070f8" data-tooltip="1.00x baseline speed (No JIT)"/>
<line x1="97.0" y1="445.8720121067805" x2="123.4375" y2="445.8720121067805" stroke="#000"/>
<line x1="97.0" y1="445.8818031398928" x2="123.4375" y2="445.8818031398928" stroke="#000"/>
<line x1="110.21875" y1="445.8720121067805" x2="110.21875" y2="445.8818031398928" stroke="#000"/>
<rect x="123.4375" y="464.9912556810181" width="26.4375" height="33.00874431898186" fill="orange" data-tooltip="0.63x baseline speed (MJIT)"/>
<line x1="123.4375" y1="463.73803549567754" x2="149.875" y2="463.73803549567754" stroke="#000"/>
<line x1="123.4375" y1="466.2444758663587" x2="149.875" y2="466.2444758663587" stroke="#000"/>
<line x1="136.65625" y1="463.73803549567754" x2="136.65625" y2="466.2444758663587" stroke="#000"/>
<rect x="149.875" y="163.99312318969982" width="26.4375" height="334.0068768103001" fill="green" data-tooltip="6.41x baseline speed (YJIT)"/>
<line x1="149.875" y1="163.43358976820028" x2="176.3125" y2="163.43358976820028" stroke="#000"/>
<line x1="149.875" y1="164.55265661119935" x2="176.3125" y2="164.55265661119935" stroke="#000"/>
<line x1="163.09375" y1="163.43358976820028" x2="163.09375" y2="164.55265661119935" stroke="#000"/>
<line x1="149.875" y1="498.0" x2="149.875" y2="502.79999999999995" stroke="#000"/>
<text x="149.875" y="512.4" fill="#111" font-size="small" font-family="monospace" font-weight="bold" text-anchor="end" transform="rotate(-60, 149.875, 512.4)">
30k_ifelse
</text>
<rect x="202.75" y="445.87690762333665" width="26.4375" height="52.12309237666333" fill="#7070f8" data-tooltip="1.00x baseline speed (No JIT)"/>
<line x1="202.75" y1="445.87424970941674" x2="229.1875" y2="445.87424970941674" stroke="#000"/>
<line x1="202.75" y1="445.87956553725655" x2="229.1875" y2="445.87956553725655" stroke="#000"/>
<line x1="215.96875" y1="445.87424970941674" x2="215.96875" y2="445.87956553725655" stroke="#000"/>
<rect x="229.1875" y="463.1685363516873" width="26.4375" height="34.8314636483127" fill="orange" data-tooltip="0.67x baseline speed (MJIT)"/>
<line x1="229.1875" y1="456.7621664714536" x2="255.625" y2="456.7621664714536" stroke="#000"/>
<line x1="229.1875" y1="469.5749062319209" x2="255.625" y2="469.5749062319209" stroke="#000"/>
<line x1="242.40625" y1="456.7621664714536" x2="242.40625" y2="469.5749062319209" stroke="#000"/>
<rect x="255.625" y="100.19999999999999" width="26.4375" height="397.79999999999995" fill="green" data-tooltip="7.63x baseline speed (YJIT)"/>
<line x1="255.625" y1="99.97625600640835" x2="282.0625" y2="99.97625600640835" stroke="#000"/>
<line x1="255.625" y1="100.42374399359163" x2="282.0625" y2="100.42374399359163" stroke="#000"/>
<line x1="268.84375" y1="99.97625600640835" x2="268.84375" y2="100.42374399359163" stroke="#000"/>
<line x1="255.625" y1="498.0" x2="255.625" y2="502.79999999999995" stroke="#000"/>
<text x="255.625" y="512.4" fill="#111" font-size="small" font-family="monospace" font-weight="bold" text-anchor="end" transform="rotate(-60, 255.625, 512.4)">
30k_methods
</text>
<rect x="308.5" y="445.87690762333665" width="26.4375" height="52.12309237666333" fill="#7070f8" data-tooltip="1.00x baseline speed (No JIT)"/>
<line x1="308.5" y1="445.7535694397524" x2="334.9375" y2="445.7535694397524" stroke="#000"/>
<line x1="308.5" y1="446.0002458069209" x2="334.9375" y2="446.0002458069209" stroke="#000"/>
<line x1="321.71875" y1="445.7535694397524" x2="321.71875" y2="446.0002458069209" stroke="#000"/>
<rect x="334.9375" y="417.4859814153975" width="26.4375" height="80.5140185846024" fill="orange" data-tooltip="1.54x baseline speed (MJIT)"/>
<line x1="334.9375" y1="417.2502742207562" x2="361.375" y2="417.2502742207562" stroke="#000"/>
<line x1="334.9375" y1="417.7216886100388" x2="361.375" y2="417.7216886100388" stroke="#000"/>
<line x1="348.15625" y1="417.2502742207562" x2="348.15625" y2="417.7216886100388" stroke="#000"/>
<rect x="361.375" y="374.67020596597746" width="26.4375" height="123.32979403402248" fill="green" data-tooltip="2.37x baseline speed (YJIT)"/>
<line x1="361.375" y1="373.60713088119235" x2="387.8125" y2="373.60713088119235" stroke="#000"/>
<line x1="361.375" y1="375.7332810507625" x2="387.8125" y2="375.7332810507625" stroke="#000"/>
<line x1="374.59375" y1="373.60713088119235" x2="374.59375" y2="375.7332810507625" stroke="#000"/>
<line x1="361.375" y1="498.0" x2="361.375" y2="502.79999999999995" stroke="#000"/>
<text x="361.375" y="512.4" fill="#111" font-size="small" font-family="monospace" font-weight="bold" text-anchor="end" transform="rotate(-60, 361.375, 512.4)">
cfunc_itself
</text>
<rect x="414.25" y="445.87690762333665" width="26.4375" height="52.12309237666333" fill="#7070f8" data-tooltip="1.00x baseline speed (No JIT)"/>
<line x1="414.25" y1="445.8020066799314" x2="440.6875" y2="445.8020066799314" stroke="#000"/>
<line x1="414.25" y1="445.9518085667419" x2="440.6875" y2="445.9518085667419" stroke="#000"/>
<line x1="427.46875" y1="445.8020066799314" x2="427.46875" y2="445.9518085667419" stroke="#000"/>
<rect x="440.6875" y="351.3651057287112" width="26.4375" height="146.63489427128872" fill="orange" data-tooltip="2.81x baseline speed (MJIT)"/>
<line x1="440.6875" y1="351.1288961230822" x2="467.125" y2="351.1288961230822" stroke="#000"/>
<line x1="440.6875" y1="351.6013153343402" x2="467.125" y2="351.6013153343402" stroke="#000"/>
<line x1="453.90625" y1="351.1288961230822" x2="453.90625" y2="351.6013153343402" stroke="#000"/>
<rect x="467.125" y="296.1403726939016" width="26.4375" height="201.85962730609833" fill="green" data-tooltip="3.87x baseline speed (YJIT)"/>
<line x1="467.125" y1="294.84462696442154" x2="493.5625" y2="294.84462696442154" stroke="#000"/>
<line x1="467.125" y1="297.43611842338163" x2="493.5625" y2="297.43611842338163" stroke="#000"/>
<line x1="480.34375" y1="294.84462696442154" x2="480.34375" y2="297.43611842338163" stroke="#000"/>
<line x1="467.125" y1="498.0" x2="467.125" y2="502.79999999999995" stroke="#000"/>
<text x="467.125" y="512.4" fill="#111" font-size="small" font-family="monospace" font-weight="bold" text-anchor="end" transform="rotate(-60, 467.125, 512.4)">
fib
</text>
<rect x="520.0" y="445.87690762333665" width="26.4375" height="52.12309237666333" fill="#7070f8" data-tooltip="1.00x baseline speed (No JIT)"/>
<line x1="520.0" y1="445.69339677760394" x2="546.4375" y2="445.69339677760394" stroke="#000"/>
<line x1="520.0" y1="446.06041846906936" x2="546.4375" y2="446.06041846906936" stroke="#000"/>
<line x1="533.21875" y1="445.69339677760394" x2="533.21875" y2="446.06041846906936" stroke="#000"/>
<rect x="546.4375" y="285.657017021097" width="26.4375" height="212.342982978903" fill="orange" data-tooltip="4.07x baseline speed (MJIT)"/>
<line x1="546.4375" y1="146.91335015866926" x2="572.875" y2="146.91335015866926" stroke="#000"/>
<line x1="546.4375" y1="424.4006838835246" x2="572.875" y2="424.4006838835246" stroke="#000"/>
<line x1="559.65625" y1="146.91335015866926" x2="559.65625" y2="424.4006838835246" stroke="#000"/>
<rect x="572.875" y="368.62308162006576" width="26.4375" height="129.3769183799342" fill="green" data-tooltip="2.48x baseline speed (YJIT)"/>
<line x1="572.875" y1="367.60917685208346" x2="599.3125" y2="367.60917685208346" stroke="#000"/>
<line x1="572.875" y1="369.63698638804806" x2="599.3125" y2="369.63698638804806" stroke="#000"/>
<line x1="586.09375" y1="367.60917685208346" x2="586.09375" y2="369.63698638804806" stroke="#000"/>
<line x1="572.875" y1="498.0" x2="572.875" y2="502.79999999999995" stroke="#000"/>
<text x="572.875" y="512.4" fill="#111" font-size="small" font-family="monospace" font-weight="bold" text-anchor="end" transform="rotate(-60, 572.875, 512.4)">
getivar
</text>
<rect x="625.7499999999999" y="445.87690762333665" width="26.4375" height="52.12309237666333" fill="#7070f8" data-tooltip="1.00x baseline speed (No JIT)"/>
<line x1="625.7499999999999" y1="445.83252734417107" x2="652.1874999999999" y2="445.83252734417107" stroke="#000"/>
<line x1="625.7499999999999" y1="445.92128790250223" x2="652.1874999999999" y2="445.92128790250223" stroke="#000"/>
<line x1="638.9687499999999" y1="445.83252734417107" x2="638.9687499999999" y2="445.92128790250223" stroke="#000"/>
<rect x="652.1874999999999" y="429.9465645686425" width="26.4375" height="68.05343543135741" fill="orange" data-tooltip="1.31x baseline speed (MJIT)"/>
<line x1="652.1874999999999" y1="429.8734054064066" x2="678.6249999999999" y2="429.8734054064066" stroke="#000"/>
<line x1="652.1874999999999" y1="430.01972373087835" x2="678.6249999999999" y2="430.01972373087835" stroke="#000"/>
<line x1="665.4062499999999" y1="429.8734054064066" x2="665.4062499999999" y2="430.01972373087835" stroke="#000"/>
<rect x="678.6249999999999" y="212.33298344980463" width="26.4375" height="285.6670165501953" fill="green" data-tooltip="5.48x baseline speed (YJIT)"/>
<line x1="678.6249999999999" y1="210.33276856313435" x2="705.0624999999999" y2="210.33276856313435" stroke="#000"/>
<line x1="678.6249999999999" y1="214.3331983364749" x2="705.0624999999999" y2="214.3331983364749" stroke="#000"/>
<line x1="691.8437499999999" y1="210.33276856313435" x2="691.8437499999999" y2="214.3331983364749" stroke="#000"/>
<line x1="678.6249999999999" y1="498.0" x2="678.6249999999999" y2="502.79999999999995" stroke="#000"/>
<text x="678.6249999999999" y="512.4" fill="#111" font-size="small" font-family="monospace" font-weight="bold" text-anchor="end" transform="rotate(-60, 678.6249999999999, 512.4)">
keyword_args
</text>
<rect x="731.4999999999999" y="445.87690762333665" width="26.4375" height="52.12309237666333" fill="#7070f8" data-tooltip="1.00x baseline speed (No JIT)"/>
<line x1="731.4999999999999" y1="445.5427835639234" x2="757.9374999999999" y2="445.5427835639234" stroke="#000"/>
<line x1="731.4999999999999" y1="446.2110316827499" x2="757.9374999999999" y2="446.2110316827499" stroke="#000"/>
<line x1="744.7187499999999" y1="445.5427835639234" x2="744.7187499999999" y2="446.2110316827499" stroke="#000"/>
<rect x="757.9374999999999" y="432.4607829864255" width="26.4375" height="65.5392170135745" fill="orange" data-tooltip="1.26x baseline speed (MJIT)"/>
<line x1="757.9374999999999" y1="431.8461127070948" x2="784.3749999999999" y2="431.8461127070948" stroke="#000"/>
<line x1="757.9374999999999" y1="433.0754532657562" x2="784.3749999999999" y2="433.0754532657562" stroke="#000"/>
<line x1="771.1562499999999" y1="431.8461127070948" x2="771.1562499999999" y2="433.0754532657562" stroke="#000"/>
<rect x="784.3749999999999" y="417.67962570397515" width="26.4375" height="80.32037429602477" fill="green" data-tooltip="1.54x baseline speed (YJIT)"/>
<line x1="784.3749999999999" y1="417.01828290597206" x2="810.8124999999999" y2="417.01828290597206" stroke="#000"/>
<line x1="784.3749999999999" y1="418.3409685019782" x2="810.8124999999999" y2="418.3409685019782" stroke="#000"/>
<line x1="797.5937499999999" y1="417.01828290597206" x2="797.5937499999999" y2="418.3409685019782" stroke="#000"/>
<line x1="784.3749999999999" y1="498.0" x2="784.3749999999999" y2="502.79999999999995" stroke="#000"/>
<text x="784.3749999999999" y="512.4" fill="#111" font-size="small" font-family="monospace" font-weight="bold" text-anchor="end" transform="rotate(-60, 784.3749999999999, 512.4)">
respond_to
</text>
<rect x="837.2499999999999" y="445.87690762333665" width="26.4375" height="52.12309237666333" fill="#7070f8" data-tooltip="1.00x baseline speed (No JIT)"/>
<line x1="837.2499999999999" y1="445.6879787004501" x2="863.6874999999999" y2="445.6879787004501" stroke="#000"/>
<line x1="837.2499999999999" y1="446.0658365462232" x2="863.6874999999999" y2="446.0658365462232" stroke="#000"/>
<line x1="850.4687499999999" y1="445.6879787004501" x2="850.4687499999999" y2="446.0658365462232" stroke="#000"/>
<rect x="863.6874999999999" y="129.8543167006259" width="26.4375" height="368.145683299374" fill="orange" data-tooltip="7.06x baseline speed (MJIT)"/>
<line x1="863.6874999999999" y1="-272.4089230426315" x2="890.125" y2="-272.4089230426315" stroke="#000"/>
<line x1="863.6874999999999" y1="532.1175564438832" x2="890.125" y2="532.1175564438832" stroke="#000"/>
<line x1="876.9062499999999" y1="-272.4089230426315" x2="876.9062499999999" y2="532.1175564438832" stroke="#000"/>
<rect x="890.125" y="414.13439538375206" width="26.4375" height="83.86560461624788" fill="green" data-tooltip="1.61x baseline speed (YJIT)"/>
<line x1="890.125" y1="413.5184280391632" x2="916.5625" y2="413.5184280391632" stroke="#000"/>
<line x1="890.125" y1="414.7503627283409" x2="916.5625" y2="414.7503627283409" stroke="#000"/>
<line x1="903.3437499999999" y1="413.5184280391632" x2="903.3437499999999" y2="414.7503627283409" stroke="#000"/>
<line x1="890.125" y1="498.0" x2="890.125" y2="502.79999999999995" stroke="#000"/>
<text x="890.125" y="512.4" fill="#111" font-size="small" font-family="monospace" font-weight="bold" text-anchor="end" transform="rotate(-60, 890.125, 512.4)">
setivar
</text>
</svg>