<svg viewBox="0 0 1000 600" xmlns="http://www.w3.org/2000/svg" xmlns:xlink="http://www.w3.org/1999/xlink" width="100%" height="100%">

<rect x="50.0" y="30.0" width="940.0" height="467.99999999999994" stroke="#000" fill="#EEE"/>
<line x1="42.0" y1="497.9999999999999" x2="50.0" y2="497.9999999999999" stroke="#000"/>
<text x="26.000000000000004" y="497.9999999999999" text-anchor="end" font-weight="bold" font-size="small" fill="#111">
0.0
</text>
<line x1="42.0" y1="419.0640189502961" x2="50.0" y2="419.0640189502961" stroke="#000"/>
<text x="26.000000000000004" y="419.0640189502961" text-anchor="end" font-weight="bold" font-size="small" fill="#111">
0.5
</text>
<line x1="42.0" y1="340.1280379005923" x2="50.0" y2="340.1280379005923" stroke="#000"/>
<text x="26.000000000000004" y="340.1280379005923" text-anchor="end" font-weight="bold" font-size="small" fill="#111">
1.0
</text>
<line x1="42.0" y1="261.19205685088843" x2="50.0" y2="261.19205685088843" stroke="#000"/>
<text x="26.000000000000004" y="261.19205685088843" text-anchor="end" font-weight="bold" font-size="small" fill="#111">
1.5
</text>
<line x1="42.0" y1="182.25607580118464" x2="50.0" y2="182.25607580118464" stroke="#000"/>
<text x="26.000000000000004" y="182.25607580118464" text-anchor="end" font-weight="bold" font-size="small" fill="#111">
2.0
</text>
<line x1="42.0" y1="103.32009475148082" x2="50.0" y2="103.32009475148082" stroke="#000"/>
<text x="26.000000000000004" y="103.32009475148082" text-anchor="end" font-weight="bold" font-size="small" fill="#111">
2.5
</text>
<rect x="268.5" y="36.00000000000001" width="80.0" height="18.0" fill="#7070f8" stroke="#888"/>
<text x="308.5" y="52.50000000000001" font-size="small" text-anchor="middle" font-weight="bold" fill="#EEE">
No JIT
</text>
<rect x="691.4999999999999" y="36.00000000000001" width="80.0" height="18.0" fill="orange" stroke="#888"/>
<text x="731.4999999999999" y="52.50000000000001" font-size="small" text-anchor="middle" font-weight="bold" fill="#EEE">
YJIT
</text>
<rect x="97.0" y="340.1280379005923" width="28.2" height="157.87196209940765" fill="#7070f8" data-tooltip="1.00x baseline speed (No JIT)"/>
<line x1="97.0" y1="338.07500431781443" x2="125.2" y2="338.07500431781443" stroke="#000"/>
<line x1="97.0" y1="342.1810714833702" x2="125.2" y2="342.1810714833702" stroke="#000"/>
<line x1="111.10000000000001" y1="338.07500431781443" x2="111.10000000000001" y2="342.1810714833702" stroke="#000"/>
<rect x="125.2" y="179.57335979090004" width="28.2" height="318.42664020909996" fill="orange" data-tooltip="2.02x baseline speed (YJIT)"/>
<line x1="125.2" y1="175.42318679365707" x2="153.4" y2="175.42318679365707" stroke="#000"/>
<line x1="125.2" y1="183.72353278814302" x2="153.4" y2="183.72353278814302" stroke="#000"/>
<line x1="139.3" y1="175.42318679365707" x2="139.3" y2="183.72353278814302" stroke="#000"/>
<line x1="139.3" y1="498.0" x2="139.3" y2="502.79999999999995" stroke="#000"/>
<text x="139.3" y="512.4" fill="#111" font-size="small" font-family="monospace" font-weight="bold" text-anchor="end" transform="rotate(-60, 139.3, 512.4)">
binarytrees
</text>
<rect x="181.6" y="340.1280379005923" width="28.2" height="157.87196209940765" fill="#7070f8" data-tooltip="1.00x baseline speed (No JIT)"/>
<line x1="181.6" y1="340.04728822380395" x2="209.79999999999998" y2="340.04728822380395" stroke="#000"/>
<line x1="181.6" y1="340.2087875773807" x2="209.79999999999998" y2="340.2087875773807" stroke="#000"/>
<line x1="195.7" y1="340.04728822380395" x2="195.7" y2="340.2087875773807" stroke="#000"/>
<rect x="209.79999999999998" y="254.1299598547806" width="28.2" height="243.87004014521935" fill="orange" data-tooltip="1.54x baseline speed (YJIT)"/>
<line x1="209.79999999999998" y1="253.89834505029637" x2="238.0" y2="253.89834505029637" stroke="#000"/>
<line x1="209.79999999999998" y1="254.36157465926485" x2="238.0" y2="254.36157465926485" stroke="#000"/>
<line x1="223.89999999999998" y1="253.89834505029637" x2="223.89999999999998" y2="254.36157465926485" stroke="#000"/>
<line x1="223.89999999999998" y1="498.0" x2="223.89999999999998" y2="502.79999999999995" stroke="#000"/>
<text x="223.89999999999998" y="512.4" fill="#111" font-size="small" font-family="monospace" font-weight="bold" text-anchor="end" transform="rotate(-60, 223.89999999999998, 512.4)">
chunky_png
</text>
<rect x="266.2" y="340.1280379005923" width="28.2" height="157.87196209940765" fill="#7070f8" data-tooltip="1.00x baseline speed (No JIT)"/>
<line x1="266.2" y1="338.8355091964678" x2="294.4" y2="338.8355091964678" stroke="#000"/>
<line x1="266.2" y1="341.4205666047168" x2="294.4" y2="341.4205666047168" stroke="#000"/>
<line x1="280.3" y1="338.8355091964678" x2="280.3" y2="341.4205666047168" stroke="#000"/>
<rect x="294.4" y="310.31230878391574" width="28.2" height="187.68769121608423" fill="orange" data-tooltip="1.19x baseline speed (YJIT)"/>
<line x1="294.4" y1="308.00784494993553" x2="322.6" y2="308.00784494993553" stroke="#000"/>
<line x1="294.4" y1="312.6167726178959" x2="322.6" y2="312.6167726178959" stroke="#000"/>
<line x1="308.5" y1="308.00784494993553" x2="308.5" y2="312.6167726178959" stroke="#000"/>
<line x1="308.5" y1="498.0" x2="308.5" y2="502.79999999999995" stroke="#000"/>
<text x="308.5" y="512.4" fill="#111" font-size="small" font-family="monospace" font-weight="bold" text-anchor="end" transform="rotate(-60, 308.5, 512.4)">
erubi
</text>
<rect x="350.8" y="340.1280379005923" width="28.2" height="157.87196209940765" fill="#7070f8" data-tooltip="1.00x baseline speed (No JIT)"/>
<line x1="350.8" y1="339.37559614304445" x2="379.0" y2="339.37559614304445" stroke="#000"/>
<line x1="350.8" y1="340.8804796581402" x2="379.0" y2="340.8804796581402" stroke="#000"/>
<line x1="364.9" y1="339.37559614304445" x2="364.9" y2="340.8804796581402" stroke="#000"/>
<rect x="379.0" y="340.0735230768566" width="28.2" height="157.92647692314335" fill="orange" data-tooltip="1.00x baseline speed (YJIT)"/>
<line x1="379.0" y1="339.02705772459126" x2="407.2" y2="339.02705772459126" stroke="#000"/>
<line x1="379.0" y1="341.11998842912186" x2="407.2" y2="341.11998842912186" stroke="#000"/>
<line x1="393.1" y1="339.02705772459126" x2="393.1" y2="341.11998842912186" stroke="#000"/>
<line x1="393.1" y1="498.0" x2="393.1" y2="502.79999999999995" stroke="#000"/>
<text x="393.1" y="512.4" fill="#111" font-size="small" font-family="monospace" font-weight="bold" text-anchor="end" transform="rotate(-60, 393.1, 512.4)">
etanni
</text>
<rect x="435.40000000000003" y="340.1280379005923" width="28.2" height="157.87196209940765" fill="#7070f8" data-tooltip="1.00x baseline speed (No JIT)"/>
<line x1="435.40000000000003" y1="339.8289629070191" x2="463.6" y2="339.8289629070191" stroke="#000"/>
<line x1="435.40000000000003" y1="340.4271128941655" x2="463.6" y2="340.4271128941655" stroke="#000"/>
<line x1="449.5" y1="339.8289629070191" x2="449.5" y2="340.4271128941655" stroke="#000"/>
<rect x="463.6" y="100.19999999999999" width="28.2" height="397.79999999999995" fill="orange" data-tooltip="2.52x baseline speed (YJIT)"/>
<line x1="463.6" y1="97.3840076368924" x2="491.8" y2="97.3840076368924" stroke="#000"/>
<line x1="463.6" y1="103.01599236310757" x2="491.8" y2="103.01599236310757" stroke="#000"/>
<line x1="477.7" y1="97.3840076368924" x2="477.7" y2="103.01599236310757" stroke="#000"/>
<line x1="477.7" y1="498.0" x2="477.7" y2="502.79999999999995" stroke="#000"/>
<text x="477.7" y="512.4" fill="#111" font-size="small" font-family="monospace" font-weight="bold" text-anchor="end" transform="rotate(-60, 477.7, 512.4)">
fannkuchredux
</text>
<rect x="520.0" y="340.1280379005923" width="28.2" height="157.87196209940765" fill="#7070f8" data-tooltip="1.00x baseline speed (No JIT)"/>
<line x1="520.0" y1="339.6401431494359" x2="548.2" y2="339.6401431494359" stroke="#000"/>
<line x1="520.0" y1="340.61593265174866" x2="548.2" y2="340.61593265174866" stroke="#000"/>
<line x1="534.1" y1="339.6401431494359" x2="534.1" y2="340.61593265174866" stroke="#000"/>
<rect x="548.2" y="277.6132622190747" width="28.2" height="220.3867377809252" fill="orange" data-tooltip="1.40x baseline speed (YJIT)"/>
<line x1="548.2" y1="276.6012398935528" x2="576.4" y2="276.6012398935528" stroke="#000"/>
<line x1="548.2" y1="278.62528454459664" x2="576.4" y2="278.62528454459664" stroke="#000"/>
<line x1="562.3000000000001" y1="276.6012398935528" x2="562.3000000000001" y2="278.62528454459664" stroke="#000"/>
<line x1="562.3000000000001" y1="498.0" x2="562.3000000000001" y2="502.79999999999995" stroke="#000"/>
<text x="562.3000000000001" y="512.4" fill="#111" font-size="small" font-family="monospace" font-weight="bold" text-anchor="end" transform="rotate(-60, 562.3000000000001, 512.4)">
lee
</text>
<rect x="604.5999999999999" y="340.1280379005923" width="28.2" height="157.87196209940765" fill="#7070f8" data-tooltip="1.00x baseline speed (No JIT)"/>
<line x1="604.5999999999999" y1="340.0587488365342" x2="632.8" y2="340.0587488365342" stroke="#000"/>
<line x1="604.5999999999999" y1="340.19732696465036" x2="632.8" y2="340.19732696465036" stroke="#000"/>
<line x1="618.6999999999999" y1="340.0587488365342" x2="618.6999999999999" y2="340.19732696465036" stroke="#000"/>
<rect x="632.8" y="211.2284107413896" width="28.2" height="286.77158925861033" fill="orange" data-tooltip="1.82x baseline speed (YJIT)"/>
<line x1="632.8" y1="210.979431297792" x2="660.9999999999999" y2="210.979431297792" stroke="#000"/>
<line x1="632.8" y1="211.47739018498723" x2="660.9999999999999" y2="211.47739018498723" stroke="#000"/>
<line x1="646.8999999999999" y1="210.979431297792" x2="646.8999999999999" y2="211.47739018498723" stroke="#000"/>
<line x1="646.8999999999999" y1="498.0" x2="646.8999999999999" y2="502.79999999999995" stroke="#000"/>
<text x="646.8999999999999" y="512.4" fill="#111" font-size="small" font-family="monospace" font-weight="bold" text-anchor="end" transform="rotate(-60, 646.8999999999999, 512.4)">
nbody
</text>
<rect x="689.1999999999999" y="340.1280379005923" width="28.2" height="157.87196209940765" fill="#7070f8" data-tooltip="1.00x baseline speed (No JIT)"/>
<line x1="689.1999999999999" y1="339.1182061004989" x2="717.4" y2="339.1182061004989" stroke="#000"/>
<line x1="689.1999999999999" y1="341.13786970068566" x2="717.4" y2="341.13786970068566" stroke="#000"/>
<line x1="703.3" y1="339.1182061004989" x2="703.3" y2="341.13786970068566" stroke="#000"/>
<rect x="717.4" y="126.61229936677083" width="28.2" height="371.38770063322914" fill="orange" data-tooltip="2.35x baseline speed (YJIT)"/>
<line x1="717.4" y1="123.19534008381267" x2="745.5999999999999" y2="123.19534008381267" stroke="#000"/>
<line x1="717.4" y1="130.029258649729" x2="745.5999999999999" y2="130.029258649729" stroke="#000"/>
<line x1="731.4999999999999" y1="123.19534008381267" x2="731.4999999999999" y2="130.029258649729" stroke="#000"/>
<line x1="731.4999999999999" y1="498.0" x2="731.4999999999999" y2="502.79999999999995" stroke="#000"/>
<text x="731.4999999999999" y="512.4" fill="#111" font-size="small" font-family="monospace" font-weight="bold" text-anchor="end" transform="rotate(-60, 731.4999999999999, 512.4)">
optcarrot
</text>
<rect x="773.8" y="340.1280379005923" width="28.2" height="157.87196209940765" fill="#7070f8" data-tooltip="1.00x baseline speed (No JIT)"/>
<line x1="773.8" y1="339.2879855765156" x2="801.9999999999999" y2="339.2879855765156" stroke="#000"/>
<line x1="773.8" y1="340.968090224669" x2="801.9999999999999" y2="340.968090224669" stroke="#000"/>
<line x1="787.9" y1="339.2879855765156" x2="787.9" y2="340.968090224669" stroke="#000"/>
<rect x="801.9999999999999" y="313.86043600706677" width="28.2" height="184.13956399293312" fill="orange" data-tooltip="1.17x baseline speed (YJIT)"/>
<line x1="801.9999999999999" y1="312.8504397106841" x2="830.1999999999999" y2="312.8504397106841" stroke="#000"/>
<line x1="801.9999999999999" y1="314.8704323034495" x2="830.1999999999999" y2="314.8704323034495" stroke="#000"/>
<line x1="816.0999999999999" y1="312.8504397106841" x2="816.0999999999999" y2="314.8704323034495" stroke="#000"/>
<line x1="816.0999999999999" y1="498.0" x2="816.0999999999999" y2="502.79999999999995" stroke="#000"/>
<text x="816.0999999999999" y="512.4" fill="#111" font-size="small" font-family="monospace" font-weight="bold" text-anchor="end" transform="rotate(-60, 816.0999999999999, 512.4)">
ruby-json
</text>
<rect x="858.4" y="340.1280379005923" width="28.2" height="157.87196209940765" fill="#7070f8" data-tooltip="1.00x baseline speed (No JIT)"/>
<line x1="858.4" y1="339.3582034345694" x2="886.5999999999999" y2="339.3582034345694" stroke="#000"/>
<line x1="858.4" y1="340.89787236661516" x2="886.5999999999999" y2="340.89787236661516" stroke="#000"/>
<line x1="872.4999999999999" y1="339.3582034345694" x2="872.4999999999999" y2="340.89787236661516" stroke="#000"/>
<rect x="886.5999999999999" y="199.4945454313765" width="28.2" height="298.50545456862346" fill="orange" data-tooltip="1.89x baseline speed (YJIT)"/>
<line x1="886.5999999999999" y1="193.8583622419649" x2="914.8" y2="193.8583622419649" stroke="#000"/>
<line x1="886.5999999999999" y1="205.1307286207881" x2="914.8" y2="205.1307286207881" stroke="#000"/>
<line x1="900.6999999999999" y1="193.8583622419649" x2="900.6999999999999" y2="205.1307286207881" stroke="#000"/>
<line x1="900.6999999999999" y1="498.0" x2="900.6999999999999" y2="502.79999999999995" stroke="#000"/>
<text x="900.6999999999999" y="512.4" fill="#111" font-size="small" font-family="monospace" font-weight="bold" text-anchor="end" transform="rotate(-60, 900.6999999999999, 512.4)">
rubykon
</text>
</svg>