<svg viewBox="0 0 1000 600" xmlns="http://www.w3.org/2000/svg" xmlns:xlink="http://www.w3.org/1999/xlink" width="100%" height="100%">

<rect x="50.0" y="30.0" width="940.0" height="467.99999999999994" stroke="#000" fill="#EEE"/>
<line x1="42.0" y1="497.9999999999999" x2="50.0" y2="497.9999999999999" stroke="#000"/>
<text x="26.000000000000004" y="497.9999999999999" text-anchor="end" font-weight="bold" font-size="small" fill="#111">
0.0
</text>
<line x1="42.0" y1="441.1600024693741" x2="50.0" y2="441.1600024693741" stroke="#000"/>
<text x="26.000000000000004" y="441.1600024693741" text-anchor="end" font-weight="bold" font-size="small" fill="#111">
0.2
</text>
<line x1="42.0" y1="384.3200049387481" x2="50.0" y2="384.3200049387481" stroke="#000"/>
<text x="26.000000000000004" y="384.3200049387481" text-anchor="end" font-weight="bold" font-size="small" fill="#111">
0.4
</text>
<line x1="42.0" y1="327.48000740812216" x2="50.0" y2="327.48000740812216" stroke="#000"/>
<text x="26.000000000000004" y="327.48000740812216" text-anchor="end" font-weight="bold" font-size="small" fill="#111">
0.6
</text>
<line x1="42.0" y1="270.6400098774962" x2="50.0" y2="270.6400098774962" stroke="#000"/>
<text x="26.000000000000004" y="270.6400098774962" text-anchor="end" font-weight="bold" font-size="small" fill="#111">
0.8
</text>
<line x1="42.0" y1="213.8000123468703" x2="50.0" y2="213.8000123468703" stroke="#000"/>
<text x="26.000000000000004" y="213.8000123468703" text-anchor="end" font-weight="bold" font-size="small" fill="#111">
1.0
</text>
<line x1="42.0" y1="156.96001481624435" x2="50.0" y2="156.96001481624435" stroke="#000"/>
<text x="26.000000000000004" y="156.96001481624435" text-anchor="end" font-weight="bold" font-size="small" fill="#111">
1.2
</text>
<rect x="197.99999999999997" y="36.00000000000001" width="80.0" height="18.0" fill="#7070f8" stroke="#888"/>
<text x="238.0" y="52.50000000000001" font-size="small" text-anchor="middle" font-weight="bold" fill="#111">
No JIT
</text>
<rect x="479.99999999999994" y="36.00000000000001" width="80.0" height="18.0" fill="orange" stroke="#888"/>
<text x="519.9999999999999" y="52.50000000000001" font-size="small" text-anchor="middle" font-weight="bold" fill="#111">
MJIT3.0
</text>
<rect x="761.9999999999999" y="36.00000000000001" width="80.0" height="18.0" fill="green" stroke="#888"/>
<text x="801.9999999999999" y="52.50000000000001" font-size="small" text-anchor="middle" font-weight="bold" fill="#111">
YJIT
</text>
<rect x="97.0" y="213.8000123468703" width="35.25" height="284.19998765312965" fill="#7070f8" data-tooltip="1.00x No-JIT time (No JIT)"/>
<line x1="97.0" y1="209.8963106213277" x2="132.25" y2="209.8963106213277" stroke="#000"/>
<line x1="97.0" y1="217.70371407241288" x2="132.25" y2="217.70371407241288" stroke="#000"/>
<line x1="114.625" y1="209.8963106213277" x2="114.625" y2="217.70371407241288" stroke="#000"/>
<rect x="132.25" y="220.464635234926" width="35.25" height="277.53536476507395" fill="orange" data-tooltip="0.98x No-JIT time (MJIT3.0)"/>
<line x1="132.25" y1="216.27610493236924" x2="167.5" y2="216.27610493236924" stroke="#000"/>
<line x1="132.25" y1="224.65316553748275" x2="167.5" y2="224.65316553748275" stroke="#000"/>
<line x1="149.875" y1="216.27610493236924" x2="149.875" y2="224.65316553748275" stroke="#000"/>
<rect x="167.49999999999997" y="100.19999999999999" width="35.25" height="397.79999999999995" fill="green" data-tooltip="1.40x No-JIT time (YJIT)"/>
<line x1="167.49999999999997" y1="90.96386347659728" x2="202.75" y2="90.96386347659728" stroke="#000"/>
<line x1="167.49999999999997" y1="109.4361365234027" x2="202.75" y2="109.4361365234027" stroke="#000"/>
<line x1="185.12499999999997" y1="90.96386347659728" x2="185.12499999999997" y2="109.4361365234027" stroke="#000"/>
<line x1="167.49999999999997" y1="498.0" x2="167.49999999999997" y2="502.79999999999995" stroke="#000"/>
<text x="167.49999999999997" y="512.4" fill="#111" font-size="small" font-family="monospace" font-weight="bold" text-anchor="end" transform="rotate(-60, 167.49999999999997, 512.4)">
activerecord
</text>
<rect x="238.0" y="213.8000123468703" width="35.25" height="284.19998765312965" fill="#7070f8" data-tooltip="1.00x No-JIT time (No JIT)"/>
<line x1="238.0" y1="208.55178213063058" x2="273.25" y2="208.55178213063058" stroke="#000"/>
<line x1="238.0" y1="219.04824256311" x2="273.25" y2="219.04824256311" stroke="#000"/>
<line x1="255.625" y1="208.55178213063058" x2="255.625" y2="219.04824256311" stroke="#000"/>
<rect x="273.25" y="212.69871571012874" width="35.25" height="285.3012842898712" fill="orange" data-tooltip="1.00x No-JIT time (MJIT3.0)"/>
<line x1="273.25" y1="204.92928817817275" x2="308.5" y2="204.92928817817275" stroke="#000"/>
<line x1="273.25" y1="220.46814324208472" x2="308.5" y2="220.46814324208472" stroke="#000"/>
<line x1="290.875" y1="204.92928817817275" x2="290.875" y2="220.46814324208472" stroke="#000"/>
<rect x="308.5" y="178.7821510469378" width="35.25" height="319.2178489530622" fill="green" data-tooltip="1.12x No-JIT time (YJIT)"/>
<line x1="308.5" y1="170.22762412220817" x2="343.75" y2="170.22762412220817" stroke="#000"/>
<line x1="308.5" y1="187.33667797166743" x2="343.75" y2="187.33667797166743" stroke="#000"/>
<line x1="326.125" y1="170.22762412220817" x2="326.125" y2="187.33667797166743" stroke="#000"/>
<line x1="308.5" y1="498.0" x2="308.5" y2="502.79999999999995" stroke="#000"/>
<text x="308.5" y="512.4" fill="#111" font-size="small" font-family="monospace" font-weight="bold" text-anchor="end" transform="rotate(-60, 308.5, 512.4)">
jekyll
</text>
<rect x="379.0" y="213.8000123468703" width="35.25" height="284.19998765312965" fill="#7070f8" data-tooltip="1.00x No-JIT time (No JIT)"/>
<line x1="379.0" y1="208.0007219939307" x2="414.25" y2="208.0007219939307" stroke="#000"/>
<line x1="379.0" y1="219.59930269980987" x2="414.25" y2="219.59930269980987" stroke="#000"/>
<line x1="396.625" y1="208.0007219939307" x2="396.625" y2="219.59930269980987" stroke="#000"/>
<rect x="414.25" y="175.91086943602028" width="35.25" height="322.08913056397967" fill="orange" data-tooltip="1.13x No-JIT time (MJIT3.0)"/>
<line x1="414.25" y1="165.85876857354378" x2="449.5" y2="165.85876857354378" stroke="#000"/>
<line x1="414.25" y1="185.9629702984968" x2="449.5" y2="185.9629702984968" stroke="#000"/>
<line x1="431.875" y1="165.85876857354378" x2="431.875" y2="185.9629702984968" stroke="#000"/>
<rect x="449.5" y="134.70868388707123" width="35.25" height="363.29131611292866" fill="green" data-tooltip="1.28x No-JIT time (YJIT)"/>
<line x1="449.5" y1="122.8480493260986" x2="484.75" y2="122.8480493260986" stroke="#000"/>
<line x1="449.5" y1="146.5693184480439" x2="484.75" y2="146.5693184480439" stroke="#000"/>
<line x1="467.125" y1="122.8480493260986" x2="467.125" y2="146.5693184480439" stroke="#000"/>
<line x1="449.5" y1="498.0" x2="449.5" y2="502.79999999999995" stroke="#000"/>
<text x="449.5" y="512.4" fill="#111" font-size="small" font-family="monospace" font-weight="bold" text-anchor="end" transform="rotate(-60, 449.5, 512.4)">
liquid-render
</text>
<rect x="519.9999999999999" y="213.8000123468703" width="35.25" height="284.19998765312965" fill="#7070f8" data-tooltip="1.00x No-JIT time (No JIT)"/>
<line x1="519.9999999999999" y1="209.76027494817612" x2="555.2499999999999" y2="209.76027494817612" stroke="#000"/>
<line x1="519.9999999999999" y1="217.8397497455645" x2="555.2499999999999" y2="217.8397497455645" stroke="#000"/>
<line x1="537.6249999999999" y1="209.76027494817612" x2="537.6249999999999" y2="217.8397497455645" stroke="#000"/>
<rect x="555.2499999999999" y="210.3490479862605" width="35.25" height="287.6509520137394" fill="orange" data-tooltip="1.01x No-JIT time (MJIT3.0)"/>
<line x1="555.2499999999999" y1="204.5694227451637" x2="590.4999999999999" y2="204.5694227451637" stroke="#000"/>
<line x1="555.2499999999999" y1="216.1286732273573" x2="590.4999999999999" y2="216.1286732273573" stroke="#000"/>
<line x1="572.8749999999999" y1="204.5694227451637" x2="572.8749999999999" y2="216.1286732273573" stroke="#000"/>
<rect x="590.4999999999999" y="183.74084507956718" width="35.25" height="314.25915492043276" fill="green" data-tooltip="1.11x No-JIT time (YJIT)"/>
<line x1="590.4999999999999" y1="176.85667274939277" x2="625.7499999999999" y2="176.85667274939277" stroke="#000"/>
<line x1="590.4999999999999" y1="190.62501740974156" x2="625.7499999999999" y2="190.62501740974156" stroke="#000"/>
<line x1="608.1249999999999" y1="176.85667274939277" x2="608.1249999999999" y2="190.62501740974156" stroke="#000"/>
<line x1="590.4999999999999" y1="498.0" x2="590.4999999999999" y2="502.79999999999995" stroke="#000"/>
<text x="590.4999999999999" y="512.4" fill="#111" font-size="small" font-family="monospace" font-weight="bold" text-anchor="end" transform="rotate(-60, 590.4999999999999, 512.4)">
mail
</text>
<rect x="660.9999999999999" y="213.8000123468703" width="35.25" height="284.19998765312965" fill="#7070f8" data-tooltip="1.00x No-JIT time (No JIT)"/>
<line x1="660.9999999999999" y1="212.12400789716543" x2="696.2499999999999" y2="212.12400789716543" stroke="#000"/>
<line x1="660.9999999999999" y1="215.47601679657515" x2="696.2499999999999" y2="215.47601679657515" stroke="#000"/>
<line x1="678.6249999999999" y1="212.12400789716543" x2="678.6249999999999" y2="215.47601679657515" stroke="#000"/>
<rect x="696.2499999999999" y="183.75302183673264" width="35.25" height="314.24697816326733" fill="orange" data-tooltip="1.11x No-JIT time (MJIT3.0)"/>
<line x1="696.2499999999999" y1="177.60608617181396" x2="731.4999999999999" y2="177.60608617181396" stroke="#000"/>
<line x1="696.2499999999999" y1="189.89995750165136" x2="731.4999999999999" y2="189.89995750165136" stroke="#000"/>
<line x1="713.8749999999999" y1="177.60608617181396" x2="713.8749999999999" y2="189.89995750165136" stroke="#000"/>
<rect x="731.4999999999999" y="135.4837953341144" width="35.25" height="362.51620466588554" fill="green" data-tooltip="1.28x No-JIT time (YJIT)"/>
<line x1="731.4999999999999" y1="132.2892315004783" x2="766.7499999999999" y2="132.2892315004783" stroke="#000"/>
<line x1="731.4999999999999" y1="138.6783591677505" x2="766.7499999999999" y2="138.6783591677505" stroke="#000"/>
<line x1="749.1249999999999" y1="132.2892315004783" x2="749.1249999999999" y2="138.6783591677505" stroke="#000"/>
<line x1="731.4999999999999" y1="498.0" x2="731.4999999999999" y2="502.79999999999995" stroke="#000"/>
<text x="731.4999999999999" y="512.4" fill="#111" font-size="small" font-family="monospace" font-weight="bold" text-anchor="end" transform="rotate(-60, 731.4999999999999, 512.4)">
psych-load
</text>
<rect x="801.9999999999999" y="213.8000123468703" width="35.25" height="284.19998765312965" fill="#7070f8" data-tooltip="1.00x No-JIT time (No JIT)"/>
<line x1="801.9999999999999" y1="210.71806094337722" x2="837.2499999999999" y2="210.71806094337722" stroke="#000"/>
<line x1="801.9999999999999" y1="216.88196375036335" x2="837.2499999999999" y2="216.88196375036335" stroke="#000"/>
<line x1="819.6249999999999" y1="210.71806094337722" x2="819.6249999999999" y2="216.88196375036335" stroke="#000"/>
<rect x="837.2499999999999" y="216.12713198053285" width="35.25" height="281.8728680194671" fill="orange" data-tooltip="0.99x No-JIT time (MJIT3.0)"/>
<line x1="837.2499999999999" y1="211.99128691687855" x2="872.4999999999999" y2="211.99128691687855" stroke="#000"/>
<line x1="837.2499999999999" y1="220.26297704418715" x2="872.4999999999999" y2="220.26297704418715" stroke="#000"/>
<line x1="854.8749999999999" y1="211.99128691687855" x2="854.8749999999999" y2="220.26297704418715" stroke="#000"/>
<rect x="872.4999999999999" y="164.79534580661854" width="35.25" height="333.2046541933814" fill="green" data-tooltip="1.17x No-JIT time (YJIT)"/>
<line x1="872.4999999999999" y1="158.81015072386887" x2="907.75" y2="158.81015072386887" stroke="#000"/>
<line x1="872.4999999999999" y1="170.7805408893682" x2="907.75" y2="170.7805408893682" stroke="#000"/>
<line x1="890.125" y1="158.81015072386887" x2="890.125" y2="170.7805408893682" stroke="#000"/>
<line x1="872.4999999999999" y1="498.0" x2="872.4999999999999" y2="502.79999999999995" stroke="#000"/>
<text x="872.4999999999999" y="512.4" fill="#111" font-size="small" font-family="monospace" font-weight="bold" text-anchor="end" transform="rotate(-60, 872.4999999999999, 512.4)">
railsbench
</text>
</svg>