<svg viewBox="0 0 1000 600" xmlns="http://www.w3.org/2000/svg" xmlns:xlink="http://www.w3.org/1999/xlink" width="100%" height="100%">

<rect x="50.0" y="30.0" width="940.0" height="467.99999999999994" stroke="#000" fill="#EEE"/>
<line x1="42.0" y1="497.9999999999999" x2="50.0" y2="497.9999999999999" stroke="#000"/>
<text x="26.000000000000004" y="497.9999999999999" text-anchor="end" font-weight="bold" font-size="small" fill="#111">
0.0
</text>
<line x1="42.0" y1="414.0923422969839" x2="50.0" y2="414.0923422969839" stroke="#000"/>
<text x="26.000000000000004" y="414.0923422969839" text-anchor="end" font-weight="bold" font-size="small" fill="#111">
0.5
</text>
<line x1="42.0" y1="330.184684593968" x2="50.0" y2="330.184684593968" stroke="#000"/>
<text x="26.000000000000004" y="330.184684593968" text-anchor="end" font-weight="bold" font-size="small" fill="#111">
1.0
</text>
<line x1="42.0" y1="246.2770268909519" x2="50.0" y2="246.2770268909519" stroke="#000"/>
<text x="26.000000000000004" y="246.2770268909519" text-anchor="end" font-weight="bold" font-size="small" fill="#111">
1.5
</text>
<line x1="42.0" y1="162.3693691879359" x2="50.0" y2="162.3693691879359" stroke="#000"/>
<text x="26.000000000000004" y="162.3693691879359" text-anchor="end" font-weight="bold" font-size="small" fill="#111">
2.0
</text>
<rect x="268.5" y="36.00000000000001" width="80.0" height="18.0" fill="#7070f8" stroke="#888"/>
<text x="308.5" y="52.50000000000001" font-size="small" text-anchor="middle" font-weight="bold" fill="#EEE">
No JIT
</text>
<rect x="691.4999999999999" y="36.00000000000001" width="80.0" height="18.0" fill="orange" stroke="#888"/>
<text x="731.4999999999999" y="52.50000000000001" font-size="small" text-anchor="middle" font-weight="bold" fill="#EEE">
YJIT
</text>
<rect x="97.0" y="330.184684593968" width="28.2" height="167.81531540603203" fill="#7070f8" data-tooltip="1.00x baseline speed (No JIT)"/>
<line x1="97.0" y1="330.1222544654241" x2="125.2" y2="330.1222544654241" stroke="#000"/>
<line x1="97.0" y1="330.2471147225118" x2="125.2" y2="330.2471147225118" stroke="#000"/>
<line x1="111.10000000000001" y1="330.1222544654241" x2="111.10000000000001" y2="330.2471147225118" stroke="#000"/>
<rect x="125.2" y="168.57915257477245" width="28.2" height="329.42084742522746" fill="orange" data-tooltip="1.96x baseline speed (YJIT)"/>
<line x1="125.2" y1="168.36609537613506" x2="153.4" y2="168.36609537613506" stroke="#000"/>
<line x1="125.2" y1="168.79220977340987" x2="153.4" y2="168.79220977340987" stroke="#000"/>
<line x1="139.3" y1="168.36609537613506" x2="139.3" y2="168.79220977340987" stroke="#000"/>
<line x1="139.3" y1="498.0" x2="139.3" y2="502.79999999999995" stroke="#000"/>
<text x="139.3" y="512.4" fill="#111" font-size="small" font-family="monospace" font-weight="bold" text-anchor="end" transform="rotate(-60, 139.3, 512.4)">
binarytrees
</text>
<rect x="181.6" y="330.184684593968" width="28.2" height="167.81531540603203" fill="#7070f8" data-tooltip="1.00x baseline speed (No JIT)"/>
<line x1="181.6" y1="330.103406180127" x2="209.79999999999998" y2="330.103406180127" stroke="#000"/>
<line x1="181.6" y1="330.26596300780886" x2="209.79999999999998" y2="330.26596300780886" stroke="#000"/>
<line x1="195.7" y1="330.103406180127" x2="195.7" y2="330.26596300780886" stroke="#000"/>
<rect x="209.79999999999998" y="240.01077693320045" width="28.2" height="257.98922306679947" fill="orange" data-tooltip="1.54x baseline speed (YJIT)"/>
<line x1="209.79999999999998" y1="239.81838410258146" x2="238.0" y2="239.81838410258146" stroke="#000"/>
<line x1="209.79999999999998" y1="240.20316976381946" x2="238.0" y2="240.20316976381946" stroke="#000"/>
<line x1="223.89999999999998" y1="239.81838410258146" x2="223.89999999999998" y2="240.20316976381946" stroke="#000"/>
<line x1="223.89999999999998" y1="498.0" x2="223.89999999999998" y2="502.79999999999995" stroke="#000"/>
<text x="223.89999999999998" y="512.4" fill="#111" font-size="small" font-family="monospace" font-weight="bold" text-anchor="end" transform="rotate(-60, 223.89999999999998, 512.4)">
chunky_png
</text>
<rect x="266.2" y="330.184684593968" width="28.2" height="167.81531540603203" fill="#7070f8" data-tooltip="1.00x baseline speed (No JIT)"/>
<line x1="266.2" y1="328.72842398320455" x2="294.4" y2="328.72842398320455" stroke="#000"/>
<line x1="266.2" y1="331.64094520473134" x2="294.4" y2="331.64094520473134" stroke="#000"/>
<line x1="280.3" y1="328.72842398320455" x2="280.3" y2="331.64094520473134" stroke="#000"/>
<rect x="294.4" y="297.0759053718559" width="28.2" height="200.924094628144" fill="orange" data-tooltip="1.20x baseline speed (YJIT)"/>
<line x1="294.4" y1="294.6028991239814" x2="322.6" y2="294.6028991239814" stroke="#000"/>
<line x1="294.4" y1="299.5489116197305" x2="322.6" y2="299.5489116197305" stroke="#000"/>
<line x1="308.5" y1="294.6028991239814" x2="308.5" y2="299.5489116197305" stroke="#000"/>
<line x1="308.5" y1="498.0" x2="308.5" y2="502.79999999999995" stroke="#000"/>
<text x="308.5" y="512.4" fill="#111" font-size="small" font-family="monospace" font-weight="bold" text-anchor="end" transform="rotate(-60, 308.5, 512.4)">
erubi
</text>
<rect x="350.8" y="330.184684593968" width="28.2" height="167.81531540603203" fill="#7070f8" data-tooltip="1.00x baseline speed (No JIT)"/>
<line x1="350.8" y1="326.1330443900624" x2="379.0" y2="326.1330443900624" stroke="#000"/>
<line x1="350.8" y1="334.23632479787346" x2="379.0" y2="334.23632479787346" stroke="#000"/>
<line x1="364.9" y1="326.1330443900624" x2="364.9" y2="334.23632479787346" stroke="#000"/>
<rect x="379.0" y="233.0738350096425" width="28.2" height="264.92616499035745" fill="orange" data-tooltip="1.58x baseline speed (YJIT)"/>
<line x1="379.0" y1="222.3793389091206" x2="407.2" y2="222.3793389091206" stroke="#000"/>
<line x1="379.0" y1="243.76833111016438" x2="407.2" y2="243.76833111016438" stroke="#000"/>
<line x1="393.1" y1="222.3793389091206" x2="393.1" y2="243.76833111016438" stroke="#000"/>
<line x1="393.1" y1="498.0" x2="393.1" y2="502.79999999999995" stroke="#000"/>
<text x="393.1" y="512.4" fill="#111" font-size="small" font-family="monospace" font-weight="bold" text-anchor="end" transform="rotate(-60, 393.1, 512.4)">
erubi_rails
</text>
<rect x="435.40000000000003" y="330.184684593968" width="28.2" height="167.81531540603203" fill="#7070f8" data-tooltip="1.00x baseline speed (No JIT)"/>
<line x1="435.40000000000003" y1="329.33607254317366" x2="463.6" y2="329.33607254317366" stroke="#000"/>
<line x1="435.40000000000003" y1="331.03329664476223" x2="463.6" y2="331.03329664476223" stroke="#000"/>
<line x1="449.5" y1="329.33607254317366" x2="449.5" y2="331.03329664476223" stroke="#000"/>
<rect x="463.6" y="328.35139134250977" width="28.2" height="169.64860865749017" fill="orange" data-tooltip="1.01x baseline speed (YJIT)"/>
<line x1="463.6" y1="327.17683431112243" x2="491.8" y2="327.17683431112243" stroke="#000"/>
<line x1="463.6" y1="329.52594837389705" x2="491.8" y2="329.52594837389705" stroke="#000"/>
<line x1="477.7" y1="327.17683431112243" x2="477.7" y2="329.52594837389705" stroke="#000"/>
<line x1="477.7" y1="498.0" x2="477.7" y2="502.79999999999995" stroke="#000"/>
<text x="477.7" y="512.4" fill="#111" font-size="small" font-family="monospace" font-weight="bold" text-anchor="end" transform="rotate(-60, 477.7, 512.4)">
etanni
</text>
<rect x="520.0" y="330.184684593968" width="28.2" height="167.81531540603203" fill="#7070f8" data-tooltip="1.00x baseline speed (No JIT)"/>
<line x1="520.0" y1="329.9726969623597" x2="548.2" y2="329.9726969623597" stroke="#000"/>
<line x1="520.0" y1="330.39667222557625" x2="548.2" y2="330.39667222557625" stroke="#000"/>
<line x1="534.1" y1="329.9726969623597" x2="534.1" y2="330.39667222557625" stroke="#000"/>
<rect x="548.2" y="100.19999999999999" width="28.2" height="397.79999999999995" fill="orange" data-tooltip="2.37x baseline speed (YJIT)"/>
<line x1="548.2" y1="99.65453002725717" x2="576.4" y2="99.65453002725717" stroke="#000"/>
<line x1="548.2" y1="100.74546997274282" x2="576.4" y2="100.74546997274282" stroke="#000"/>
<line x1="562.3000000000001" y1="99.65453002725717" x2="562.3000000000001" y2="100.74546997274282" stroke="#000"/>
<line x1="562.3000000000001" y1="498.0" x2="562.3000000000001" y2="502.79999999999995" stroke="#000"/>
<text x="562.3000000000001" y="512.4" fill="#111" font-size="small" font-family="monospace" font-weight="bold" text-anchor="end" transform="rotate(-60, 562.3000000000001, 512.4)">
fannkuchredux
</text>
<rect x="604.5999999999999" y="330.184684593968" width="28.2" height="167.81531540603203" fill="#7070f8" data-tooltip="1.00x baseline speed (No JIT)"/>
<line x1="604.5999999999999" y1="330.01849351241736" x2="632.8" y2="330.01849351241736" stroke="#000"/>
<line x1="604.5999999999999" y1="330.3508756755185" x2="632.8" y2="330.3508756755185" stroke="#000"/>
<line x1="618.6999999999999" y1="330.01849351241736" x2="618.6999999999999" y2="330.3508756755185" stroke="#000"/>
<rect x="632.8" y="266.36791115604484" width="28.2" height="231.6320888439551" fill="orange" data-tooltip="1.38x baseline speed (YJIT)"/>
<line x1="632.8" y1="266.0325519796915" x2="660.9999999999999" y2="266.0325519796915" stroke="#000"/>
<line x1="632.8" y1="266.7032703323982" x2="660.9999999999999" y2="266.7032703323982" stroke="#000"/>
<line x1="646.8999999999999" y1="266.0325519796915" x2="646.8999999999999" y2="266.7032703323982" stroke="#000"/>
<line x1="646.8999999999999" y1="498.0" x2="646.8999999999999" y2="502.79999999999995" stroke="#000"/>
<text x="646.8999999999999" y="512.4" fill="#111" font-size="small" font-family="monospace" font-weight="bold" text-anchor="end" transform="rotate(-60, 646.8999999999999, 512.4)">
lee
</text>
<rect x="689.1999999999999" y="330.184684593968" width="28.2" height="167.81531540603203" fill="#7070f8" data-tooltip="1.00x baseline speed (No JIT)"/>
<line x1="689.1999999999999" y1="330.0599859184515" x2="717.4" y2="330.0599859184515" stroke="#000"/>
<line x1="689.1999999999999" y1="330.3093832694844" x2="717.4" y2="330.3093832694844" stroke="#000"/>
<line x1="703.3" y1="330.0599859184515" x2="703.3" y2="330.3093832694844" stroke="#000"/>
<rect x="717.4" y="201.18702243603133" width="28.2" height="296.8129775639686" fill="orange" data-tooltip="1.77x baseline speed (YJIT)"/>
<line x1="717.4" y1="200.90607072550324" x2="745.5999999999999" y2="200.90607072550324" stroke="#000"/>
<line x1="717.4" y1="201.4679741465594" x2="745.5999999999999" y2="201.4679741465594" stroke="#000"/>
<line x1="731.4999999999999" y1="200.90607072550324" x2="731.4999999999999" y2="201.4679741465594" stroke="#000"/>
<line x1="731.4999999999999" y1="498.0" x2="731.4999999999999" y2="502.79999999999995" stroke="#000"/>
<text x="731.4999999999999" y="512.4" fill="#111" font-size="small" font-family="monospace" font-weight="bold" text-anchor="end" transform="rotate(-60, 731.4999999999999, 512.4)">
nbody
</text>
<rect x="773.8" y="330.184684593968" width="28.2" height="167.81531540603203" fill="#7070f8" data-tooltip="1.00x baseline speed (No JIT)"/>
<line x1="773.8" y1="329.2645767431327" x2="801.9999999999999" y2="329.2645767431327" stroke="#000"/>
<line x1="773.8" y1="331.1047924448032" x2="801.9999999999999" y2="331.1047924448032" stroke="#000"/>
<line x1="787.9" y1="329.2645767431327" x2="787.9" y2="331.1047924448032" stroke="#000"/>
<rect x="801.9999999999999" y="324.4053611080326" width="28.2" height="173.59463889196732" fill="orange" data-tooltip="1.03x baseline speed (YJIT)"/>
<line x1="801.9999999999999" y1="323.3818137500246" x2="830.1999999999999" y2="323.3818137500246" stroke="#000"/>
<line x1="801.9999999999999" y1="325.42890846604064" x2="830.1999999999999" y2="325.42890846604064" stroke="#000"/>
<line x1="816.0999999999999" y1="323.3818137500246" x2="816.0999999999999" y2="325.42890846604064" stroke="#000"/>
<line x1="816.0999999999999" y1="498.0" x2="816.0999999999999" y2="502.79999999999995" stroke="#000"/>
<text x="816.0999999999999" y="512.4" fill="#111" font-size="small" font-family="monospace" font-weight="bold" text-anchor="end" transform="rotate(-60, 816.0999999999999, 512.4)">
optcarrot
</text>
<rect x="858.4" y="330.184684593968" width="28.2" height="167.81531540603203" fill="#7070f8" data-tooltip="1.00x baseline speed (No JIT)"/>
<line x1="858.4" y1="329.6383928458722" x2="886.5999999999999" y2="329.6383928458722" stroke="#000"/>
<line x1="858.4" y1="330.7309763420637" x2="886.5999999999999" y2="330.7309763420637" stroke="#000"/>
<line x1="872.4999999999999" y1="329.6383928458722" x2="872.4999999999999" y2="330.7309763420637" stroke="#000"/>
<rect x="886.5999999999999" y="175.79641141230056" width="28.2" height="322.2035885876994" fill="orange" data-tooltip="1.92x baseline speed (YJIT)"/>
<line x1="886.5999999999999" y1="174.18622241566365" x2="914.8" y2="174.18622241566365" stroke="#000"/>
<line x1="886.5999999999999" y1="177.40660040893746" x2="914.8" y2="177.40660040893746" stroke="#000"/>
<line x1="900.6999999999999" y1="174.18622241566365" x2="900.6999999999999" y2="177.40660040893746" stroke="#000"/>
<line x1="900.6999999999999" y1="498.0" x2="900.6999999999999" y2="502.79999999999995" stroke="#000"/>
<text x="900.6999999999999" y="512.4" fill="#111" font-size="small" font-family="monospace" font-weight="bold" text-anchor="end" transform="rotate(-60, 900.6999999999999, 512.4)">
rubykon
</text>
</svg>