<svg viewBox="0 0 1000 600" xmlns="http://www.w3.org/2000/svg" xmlns:xlink="http://www.w3.org/1999/xlink" width="100%" height="100%">

<rect x="50.0" y="30.0" width="940.0" height="467.99999999999994" stroke="#000" fill="#EEE"/>
<line x1="42.0" y1="497.9999999999999" x2="50.0" y2="497.9999999999999" stroke="#000"/>
<text x="26.000000000000004" y="497.9999999999999" text-anchor="end" font-weight="bold" font-size="small" fill="#111">
0.0
</text>
<line x1="42.0" y1="439.93633609155086" x2="50.0" y2="439.93633609155086" stroke="#000"/>
<text x="26.000000000000004" y="439.93633609155086" text-anchor="end" font-weight="bold" font-size="small" fill="#111">
1.0
</text>
<line x1="42.0" y1="381.87267218310177" x2="50.0" y2="381.87267218310177" stroke="#000"/>
<text x="26.000000000000004" y="381.87267218310177" text-anchor="end" font-weight="bold" font-size="small" fill="#111">
2.0
</text>
<line x1="42.0" y1="323.8090082746527" x2="50.0" y2="323.8090082746527" stroke="#000"/>
<text x="26.000000000000004" y="323.8090082746527" text-anchor="end" font-weight="bold" font-size="small" fill="#111">
3.0
</text>
<line x1="42.0" y1="265.74534436620365" x2="50.0" y2="265.74534436620365" stroke="#000"/>
<text x="26.000000000000004" y="265.74534436620365" text-anchor="end" font-weight="bold" font-size="small" fill="#111">
4.0
</text>
<line x1="42.0" y1="207.6816804577546" x2="50.0" y2="207.6816804577546" stroke="#000"/>
<text x="26.000000000000004" y="207.6816804577546" text-anchor="end" font-weight="bold" font-size="small" fill="#111">
5.0
</text>
<line x1="42.0" y1="149.61801654930548" x2="50.0" y2="149.61801654930548" stroke="#000"/>
<text x="26.000000000000004" y="149.61801654930548" text-anchor="end" font-weight="bold" font-size="small" fill="#111">
6.0
</text>
<rect x="268.5" y="36.00000000000001" width="80.0" height="18.0" fill="#7070f8" stroke="#888"/>
<text x="308.5" y="52.50000000000001" font-size="small" text-anchor="middle" font-weight="bold" fill="#EEE">
No JIT
</text>
<rect x="691.4999999999999" y="36.00000000000001" width="80.0" height="18.0" fill="orange" stroke="#888"/>
<text x="731.4999999999999" y="52.50000000000001" font-size="small" text-anchor="middle" font-weight="bold" fill="#EEE">
YJIT
</text>
<rect x="97.0" y="439.93633609155086" width="28.2" height="58.06366390844908" fill="#7070f8" data-tooltip="1.00x baseline speed (No JIT)"/>
<line x1="97.0" y1="439.8988545889199" x2="125.2" y2="439.8988545889199" stroke="#000"/>
<line x1="97.0" y1="439.9738175941818" x2="125.2" y2="439.9738175941818" stroke="#000"/>
<line x1="111.10000000000001" y1="439.8988545889199" x2="111.10000000000001" y2="439.9738175941818" stroke="#000"/>
<rect x="125.2" y="292.84382118190814" width="28.2" height="205.15617881809183" fill="orange" data-tooltip="3.53x baseline speed (YJIT)"/>
<line x1="125.2" y1="292.6991940757431" x2="153.4" y2="292.6991940757431" stroke="#000"/>
<line x1="125.2" y1="292.98844828807313" x2="153.4" y2="292.98844828807313" stroke="#000"/>
<line x1="139.3" y1="292.6991940757431" x2="139.3" y2="292.98844828807313" stroke="#000"/>
<line x1="139.3" y1="498.0" x2="139.3" y2="502.79999999999995" stroke="#000"/>
<text x="139.3" y="512.4" fill="#111" font-size="small" font-family="monospace" font-weight="bold" text-anchor="end" transform="rotate(-60, 139.3, 512.4)">
30k_ifelse
</text>
<rect x="181.6" y="439.93633609155086" width="28.2" height="58.06366390844908" fill="#7070f8" data-tooltip="1.00x baseline speed (No JIT)"/>
<line x1="181.6" y1="439.8823983508396" x2="209.79999999999998" y2="439.8823983508396" stroke="#000"/>
<line x1="181.6" y1="439.9902738322622" x2="209.79999999999998" y2="439.9902738322622" stroke="#000"/>
<line x1="195.7" y1="439.8823983508396" x2="195.7" y2="439.9902738322622" stroke="#000"/>
<rect x="209.79999999999998" y="232.4566246062287" width="28.2" height="265.54337539377127" fill="orange" data-tooltip="4.57x baseline speed (YJIT)"/>
<line x1="209.79999999999998" y1="232.10211685458825" x2="238.0" y2="232.10211685458825" stroke="#000"/>
<line x1="209.79999999999998" y1="232.81113235786916" x2="238.0" y2="232.81113235786916" stroke="#000"/>
<line x1="223.89999999999998" y1="232.10211685458825" x2="223.89999999999998" y2="232.81113235786916" stroke="#000"/>
<line x1="223.89999999999998" y1="498.0" x2="223.89999999999998" y2="502.79999999999995" stroke="#000"/>
<text x="223.89999999999998" y="512.4" fill="#111" font-size="small" font-family="monospace" font-weight="bold" text-anchor="end" transform="rotate(-60, 223.89999999999998, 512.4)">
30k_methods
</text>
<rect x="266.2" y="439.93633609155086" width="28.2" height="58.06366390844908" fill="#7070f8" data-tooltip="1.00x baseline speed (No JIT)"/>
<line x1="266.2" y1="439.8865063817401" x2="294.4" y2="439.8865063817401" stroke="#000"/>
<line x1="266.2" y1="439.98616580136166" x2="294.4" y2="439.98616580136166" stroke="#000"/>
<line x1="280.3" y1="439.8865063817401" x2="280.3" y2="439.98616580136166" stroke="#000"/>
<rect x="294.4" y="347.10788490226554" width="28.2" height="150.8921150977345" fill="orange" data-tooltip="2.60x baseline speed (YJIT)"/>
<line x1="294.4" y1="346.9772240395496" x2="322.6" y2="346.9772240395496" stroke="#000"/>
<line x1="294.4" y1="347.23854576498144" x2="322.6" y2="347.23854576498144" stroke="#000"/>
<line x1="308.5" y1="346.9772240395496" x2="308.5" y2="347.23854576498144" stroke="#000"/>
<line x1="308.5" y1="498.0" x2="308.5" y2="502.79999999999995" stroke="#000"/>
<text x="308.5" y="512.4" fill="#111" font-size="small" font-family="monospace" font-weight="bold" text-anchor="end" transform="rotate(-60, 308.5, 512.4)">
cfunc_itself
</text>
<rect x="350.8" y="439.93633609155086" width="28.2" height="58.06366390844908" fill="#7070f8" data-tooltip="1.00x baseline speed (No JIT)"/>
<line x1="350.8" y1="439.1549482642267" x2="379.0" y2="439.1549482642267" stroke="#000"/>
<line x1="350.8" y1="440.71772391887504" x2="379.0" y2="440.71772391887504" stroke="#000"/>
<line x1="364.9" y1="439.1549482642267" x2="364.9" y2="440.71772391887504" stroke="#000"/>
<rect x="379.0" y="332.24687036181683" width="28.2" height="165.75312963818314" fill="orange" data-tooltip="2.85x baseline speed (YJIT)"/>
<line x1="379.0" y1="330.0162241343484" x2="407.2" y2="330.0162241343484" stroke="#000"/>
<line x1="379.0" y1="334.47751658928524" x2="407.2" y2="334.47751658928524" stroke="#000"/>
<line x1="393.1" y1="330.0162241343484" x2="393.1" y2="334.47751658928524" stroke="#000"/>
<line x1="393.1" y1="498.0" x2="393.1" y2="502.79999999999995" stroke="#000"/>
<text x="393.1" y="512.4" fill="#111" font-size="small" font-family="monospace" font-weight="bold" text-anchor="end" transform="rotate(-60, 393.1, 512.4)">
fib
</text>
<rect x="435.40000000000003" y="439.93633609155086" width="28.2" height="58.06366390844908" fill="#7070f8" data-tooltip="1.00x baseline speed (No JIT)"/>
<line x1="435.40000000000003" y1="438.4092669887935" x2="463.6" y2="438.4092669887935" stroke="#000"/>
<line x1="435.40000000000003" y1="441.4634051943083" x2="463.6" y2="441.4634051943083" stroke="#000"/>
<line x1="449.5" y1="438.4092669887935" x2="449.5" y2="441.4634051943083" stroke="#000"/>
<rect x="463.6" y="372.8189759474387" width="28.2" height="125.18102405256124" fill="orange" data-tooltip="2.16x baseline speed (YJIT)"/>
<line x1="463.6" y1="369.52671311653495" x2="491.8" y2="369.52671311653495" stroke="#000"/>
<line x1="463.6" y1="376.11123877834245" x2="491.8" y2="376.11123877834245" stroke="#000"/>
<line x1="477.7" y1="369.52671311653495" x2="477.7" y2="376.11123877834245" stroke="#000"/>
<line x1="477.7" y1="498.0" x2="477.7" y2="502.79999999999995" stroke="#000"/>
<text x="477.7" y="512.4" fill="#111" font-size="small" font-family="monospace" font-weight="bold" text-anchor="end" transform="rotate(-60, 477.7, 512.4)">
getivar
</text>
<rect x="520.0" y="439.93633609155086" width="28.2" height="58.06366390844908" fill="#7070f8" data-tooltip="1.00x baseline speed (No JIT)"/>
<line x1="520.0" y1="439.783586514451" x2="548.2" y2="439.783586514451" stroke="#000"/>
<line x1="520.0" y1="440.0890856686508" x2="548.2" y2="440.0890856686508" stroke="#000"/>
<line x1="534.1" y1="439.783586514451" x2="534.1" y2="440.0890856686508" stroke="#000"/>
<rect x="548.2" y="278.73332755752784" width="28.2" height="219.2666724424721" fill="orange" data-tooltip="3.78x baseline speed (YJIT)"/>
<line x1="548.2" y1="278.15607080959313" x2="576.4" y2="278.15607080959313" stroke="#000"/>
<line x1="548.2" y1="279.31058430546256" x2="576.4" y2="279.31058430546256" stroke="#000"/>
<line x1="562.3000000000001" y1="278.15607080959313" x2="562.3000000000001" y2="279.31058430546256" stroke="#000"/>
<line x1="562.3000000000001" y1="498.0" x2="562.3000000000001" y2="502.79999999999995" stroke="#000"/>
<text x="562.3000000000001" y="512.4" fill="#111" font-size="small" font-family="monospace" font-weight="bold" text-anchor="end" transform="rotate(-60, 562.3000000000001, 512.4)">
keyword_args
</text>
<rect x="604.5999999999999" y="439.93633609155086" width="28.2" height="58.06366390844908" fill="#7070f8" data-tooltip="1.00x baseline speed (No JIT)"/>
<line x1="604.5999999999999" y1="439.55773756174403" x2="632.8" y2="439.55773756174403" stroke="#000"/>
<line x1="604.5999999999999" y1="440.31493462135774" x2="632.8" y2="440.31493462135774" stroke="#000"/>
<line x1="618.6999999999999" y1="439.55773756174403" x2="618.6999999999999" y2="440.31493462135774" stroke="#000"/>
<rect x="632.8" y="100.19999999999999" width="28.2" height="397.79999999999995" fill="orange" data-tooltip="6.85x baseline speed (YJIT)"/>
<line x1="632.8" y1="94.67273667383996" x2="660.9999999999999" y2="94.67273667383996" stroke="#000"/>
<line x1="632.8" y1="105.72726332616001" x2="660.9999999999999" y2="105.72726332616001" stroke="#000"/>
<line x1="646.8999999999999" y1="94.67273667383996" x2="646.8999999999999" y2="105.72726332616001" stroke="#000"/>
<line x1="646.8999999999999" y1="498.0" x2="646.8999999999999" y2="502.79999999999995" stroke="#000"/>
<text x="646.8999999999999" y="512.4" fill="#111" font-size="small" font-family="monospace" font-weight="bold" text-anchor="end" transform="rotate(-60, 646.8999999999999, 512.4)">
respond_to
</text>
<rect x="689.1999999999999" y="439.93633609155086" width="28.2" height="58.06366390844908" fill="#7070f8" data-tooltip="1.00x baseline speed (No JIT)"/>
<line x1="689.1999999999999" y1="439.8854144981118" x2="717.4" y2="439.8854144981118" stroke="#000"/>
<line x1="689.1999999999999" y1="439.98725768498997" x2="717.4" y2="439.98725768498997" stroke="#000"/>
<line x1="703.3" y1="439.8854144981118" x2="703.3" y2="439.98725768498997" stroke="#000"/>
<rect x="717.4" y="287.8869988138683" width="28.2" height="210.11300118613164" fill="orange" data-tooltip="3.62x baseline speed (YJIT)"/>
<line x1="717.4" y1="287.70039305623413" x2="745.5999999999999" y2="287.70039305623413" stroke="#000"/>
<line x1="717.4" y1="288.07360457150247" x2="745.5999999999999" y2="288.07360457150247" stroke="#000"/>
<line x1="731.4999999999999" y1="287.70039305623413" x2="731.4999999999999" y2="288.07360457150247" stroke="#000"/>
<line x1="731.4999999999999" y1="498.0" x2="731.4999999999999" y2="502.79999999999995" stroke="#000"/>
<text x="731.4999999999999" y="512.4" fill="#111" font-size="small" font-family="monospace" font-weight="bold" text-anchor="end" transform="rotate(-60, 731.4999999999999, 512.4)">
setivar
</text>
<rect x="773.8" y="439.93633609155086" width="28.2" height="58.06366390844908" fill="#7070f8" data-tooltip="1.00x baseline speed (No JIT)"/>
<line x1="773.8" y1="439.6858606354536" x2="801.9999999999999" y2="439.6858606354536" stroke="#000"/>
<line x1="773.8" y1="440.1868115476481" x2="801.9999999999999" y2="440.1868115476481" stroke="#000"/>
<line x1="787.9" y1="439.6858606354536" x2="787.9" y2="440.1868115476481" stroke="#000"/>
<rect x="801.9999999999999" y="365.71125079852015" width="28.2" height="132.28874920147976" fill="orange" data-tooltip="2.28x baseline speed (YJIT)"/>
<line x1="801.9999999999999" y1="364.4335939632154" x2="830.1999999999999" y2="364.4335939632154" stroke="#000"/>
<line x1="801.9999999999999" y1="366.98890763382497" x2="830.1999999999999" y2="366.98890763382497" stroke="#000"/>
<line x1="816.0999999999999" y1="364.4335939632154" x2="816.0999999999999" y2="366.98890763382497" stroke="#000"/>
<line x1="816.0999999999999" y1="498.0" x2="816.0999999999999" y2="502.79999999999995" stroke="#000"/>
<text x="816.0999999999999" y="512.4" fill="#111" font-size="small" font-family="monospace" font-weight="bold" text-anchor="end" transform="rotate(-60, 816.0999999999999, 512.4)">
setivar_object
</text>
<rect x="858.4" y="439.93633609155086" width="28.2" height="58.06366390844908" fill="#7070f8" data-tooltip="1.00x baseline speed (No JIT)"/>
<line x1="858.4" y1="439.67792473840575" x2="886.5999999999999" y2="439.67792473840575" stroke="#000"/>
<line x1="858.4" y1="440.19474744469596" x2="886.5999999999999" y2="440.19474744469596" stroke="#000"/>
<line x1="872.4999999999999" y1="439.67792473840575" x2="872.4999999999999" y2="440.19474744469596" stroke="#000"/>
<rect x="886.5999999999999" y="408.23006063961986" width="28.2" height="89.76993936038009" fill="orange" data-tooltip="1.55x baseline speed (YJIT)"/>
<line x1="886.5999999999999" y1="407.4903659533477" x2="914.8" y2="407.4903659533477" stroke="#000"/>
<line x1="886.5999999999999" y1="408.96975532589204" x2="914.8" y2="408.96975532589204" stroke="#000"/>
<line x1="900.6999999999999" y1="407.4903659533477" x2="900.6999999999999" y2="408.96975532589204" stroke="#000"/>
<line x1="900.6999999999999" y1="498.0" x2="900.6999999999999" y2="502.79999999999995" stroke="#000"/>
<text x="900.6999999999999" y="512.4" fill="#111" font-size="small" font-family="monospace" font-weight="bold" text-anchor="end" transform="rotate(-60, 900.6999999999999, 512.4)">
str_concat
</text>
</svg>