<svg viewBox="0 0 1000 600" xmlns="http://www.w3.org/2000/svg" xmlns:xlink="http://www.w3.org/1999/xlink" width="100%" height="100%">

<rect x="50.0" y="30.0" width="940.0" height="467.99999999999994" stroke="#000" fill="#EEE"/>
<line x1="42.0" y1="497.9999999999999" x2="50.0" y2="497.9999999999999" stroke="#000"/>
<text x="26.000000000000004" y="497.9999999999999" text-anchor="end" font-weight="bold" font-size="small" fill="#111">
0.0
</text>
<line x1="42.0" y1="442.8436194217784" x2="50.0" y2="442.8436194217784" stroke="#000"/>
<text x="26.000000000000004" y="442.8436194217784" text-anchor="end" font-weight="bold" font-size="small" fill="#111">
1.0
</text>
<line x1="42.0" y1="387.68723884355694" x2="50.0" y2="387.68723884355694" stroke="#000"/>
<text x="26.000000000000004" y="387.68723884355694" text-anchor="end" font-weight="bold" font-size="small" fill="#111">
2.0
</text>
<line x1="42.0" y1="332.5308582653353" x2="50.0" y2="332.5308582653353" stroke="#000"/>
<text x="26.000000000000004" y="332.5308582653353" text-anchor="end" font-weight="bold" font-size="small" fill="#111">
3.0
</text>
<line x1="42.0" y1="277.3744776871138" x2="50.0" y2="277.3744776871138" stroke="#000"/>
<text x="26.000000000000004" y="277.3744776871138" text-anchor="end" font-weight="bold" font-size="small" fill="#111">
4.0
</text>
<line x1="42.0" y1="222.2180971088923" x2="50.0" y2="222.2180971088923" stroke="#000"/>
<text x="26.000000000000004" y="222.2180971088923" text-anchor="end" font-weight="bold" font-size="small" fill="#111">
5.0
</text>
<line x1="42.0" y1="167.06171653067076" x2="50.0" y2="167.06171653067076" stroke="#000"/>
<text x="26.000000000000004" y="167.06171653067076" text-anchor="end" font-weight="bold" font-size="small" fill="#111">
6.0
</text>
<line x1="42.0" y1="111.90533595244924" x2="50.0" y2="111.90533595244924" stroke="#000"/>
<text x="26.000000000000004" y="111.90533595244924" text-anchor="end" font-weight="bold" font-size="small" fill="#111">
7.0
</text>
<rect x="197.99999999999997" y="36.00000000000001" width="80.0" height="18.0" fill="#7070f8" stroke="#888"/>
<text x="238.0" y="52.50000000000001" font-size="small" text-anchor="middle" font-weight="bold" fill="#EEE">
No JIT
</text>
<rect x="479.99999999999994" y="36.00000000000001" width="80.0" height="18.0" fill="orange" stroke="#888"/>
<text x="519.9999999999999" y="52.50000000000001" font-size="small" text-anchor="middle" font-weight="bold" fill="#EEE">
MJIT
</text>
<rect x="761.9999999999999" y="36.00000000000001" width="80.0" height="18.0" fill="green" stroke="#888"/>
<text x="801.9999999999999" y="52.50000000000001" font-size="small" text-anchor="middle" font-weight="bold" fill="#EEE">
YJIT
</text>
<rect x="97.0" y="442.8436194217784" width="8.46" height="55.15638057822152" fill="#7070f8" data-tooltip="1.00x baseline speed (No JIT)"/>
<line x1="97.0" y1="442.112945614588" x2="105.46" y2="442.112945614588" stroke="#000"/>
<line x1="97.0" y1="443.5742932289688" x2="105.46" y2="443.5742932289688" stroke="#000"/>
<line x1="101.23" y1="442.112945614588" x2="101.23" y2="443.5742932289688" stroke="#000"/>
<rect x="105.46" y="454.9837922244205" width="8.46" height="43.016207775579474" fill="orange" data-tooltip="0.78x baseline speed (MJIT)"/>
<line x1="105.46" y1="452.68081582088485" x2="113.91999999999999" y2="452.68081582088485" stroke="#000"/>
<line x1="105.46" y1="457.2867686279561" x2="113.91999999999999" y2="457.2867686279561" stroke="#000"/>
<line x1="109.69" y1="452.68081582088485" x2="109.69" y2="457.2867686279561" stroke="#000"/>
<rect x="113.92" y="417.96364975067775" width="8.46" height="80.03635024932218" fill="green" data-tooltip="1.45x baseline speed (YJIT)"/>
<line x1="113.92" y1="413.42590518187797" x2="122.38000000000001" y2="413.42590518187797" stroke="#000"/>
<line x1="113.92" y1="422.5013943194775" x2="122.38000000000001" y2="422.5013943194775" stroke="#000"/>
<line x1="118.15" y1="413.42590518187797" x2="118.15" y2="422.5013943194775" stroke="#000"/>
<line x1="113.92" y1="498.0" x2="113.92" y2="502.79999999999995" stroke="#000"/>
<text x="113.92" y="512.4" fill="#111" font-size="small" font-family="monospace" font-weight="bold" text-anchor="end" transform="rotate(-60, 113.92, 512.4)">
activerecord
</text>
<rect x="130.84" y="442.8436194217784" width="8.46" height="55.15638057822152" fill="#7070f8" data-tooltip="1.00x baseline speed (No JIT)"/>
<line x1="130.84" y1="442.08983295478527" x2="139.3" y2="442.08983295478527" stroke="#000"/>
<line x1="130.84" y1="443.59740588877156" x2="139.3" y2="443.59740588877156" stroke="#000"/>
<line x1="135.07000000000002" y1="442.08983295478527" x2="135.07000000000002" y2="443.59740588877156" stroke="#000"/>
<rect x="147.76" y="422.2655697791768" width="8.46" height="75.73443022082306" fill="green" data-tooltip="1.37x baseline speed (YJIT)"/>
<line x1="147.76" y1="421.19874092004227" x2="156.22" y2="421.19874092004227" stroke="#000"/>
<line x1="147.76" y1="423.3323986383113" x2="156.22" y2="423.3323986383113" stroke="#000"/>
<line x1="151.99" y1="421.19874092004227" x2="151.99" y2="423.3323986383113" stroke="#000"/>
<line x1="147.76" y1="498.0" x2="147.76" y2="502.79999999999995" stroke="#000"/>
<text x="147.76" y="512.4" fill="#111" font-size="small" font-family="monospace" font-weight="bold" text-anchor="end" transform="rotate(-60, 147.76, 512.4)">
hexapdf
</text>
<rect x="164.68" y="442.8436194217784" width="8.46" height="55.15638057822152" fill="#7070f8" data-tooltip="1.00x baseline speed (No JIT)"/>
<line x1="164.68" y1="442.30250316562154" x2="173.14" y2="442.30250316562154" stroke="#000"/>
<line x1="164.68" y1="443.3847356779353" x2="173.14" y2="443.3847356779353" stroke="#000"/>
<line x1="168.91" y1="442.30250316562154" x2="168.91" y2="443.3847356779353" stroke="#000"/>
<rect x="173.14" y="440.2787528376221" width="8.46" height="57.7212471623779" fill="orange" data-tooltip="1.05x baseline speed (MJIT)"/>
<line x1="173.14" y1="439.2838900033988" x2="181.6" y2="439.2838900033988" stroke="#000"/>
<line x1="173.14" y1="441.27361567184533" x2="181.6" y2="441.27361567184533" stroke="#000"/>
<line x1="177.37" y1="439.2838900033988" x2="177.37" y2="441.27361567184533" stroke="#000"/>
<rect x="181.6" y="416.8886031541049" width="8.46" height="81.11139684589502" fill="green" data-tooltip="1.47x baseline speed (YJIT)"/>
<line x1="181.6" y1="415.2305796417283" x2="190.05999999999997" y2="415.2305796417283" stroke="#000"/>
<line x1="181.6" y1="418.5466266664815" x2="190.05999999999997" y2="418.5466266664815" stroke="#000"/>
<line x1="185.82999999999998" y1="415.2305796417283" x2="185.82999999999998" y2="418.5466266664815" stroke="#000"/>
<line x1="181.6" y1="498.0" x2="181.6" y2="502.79999999999995" stroke="#000"/>
<text x="181.6" y="512.4" fill="#111" font-size="small" font-family="monospace" font-weight="bold" text-anchor="end" transform="rotate(-60, 181.6, 512.4)">
liquid-render
</text>
<rect x="198.52" y="442.8436194217784" width="8.46" height="55.15638057822152" fill="#7070f8" data-tooltip="1.00x baseline speed (No JIT)"/>
<line x1="198.52" y1="441.79034266351414" x2="206.98" y2="441.79034266351414" stroke="#000"/>
<line x1="198.52" y1="443.8968961800427" x2="206.98" y2="443.8968961800427" stroke="#000"/>
<line x1="202.75" y1="441.79034266351414" x2="202.75" y2="443.8968961800427" stroke="#000"/>
<rect x="206.98" y="442.6624116965551" width="8.46" height="55.33758830344483" fill="orange" data-tooltip="1.00x baseline speed (MJIT)"/>
<line x1="206.98" y1="440.6100369098787" x2="215.44" y2="440.6100369098787" stroke="#000"/>
<line x1="206.98" y1="444.71478648323153" x2="215.44" y2="444.71478648323153" stroke="#000"/>
<line x1="211.21" y1="440.6100369098787" x2="211.21" y2="444.71478648323153" stroke="#000"/>
<rect x="215.44" y="437.11426905734794" width="8.46" height="60.885730942652046" fill="green" data-tooltip="1.10x baseline speed (YJIT)"/>
<line x1="215.44" y1="435.1398826733848" x2="223.89999999999998" y2="435.1398826733848" stroke="#000"/>
<line x1="215.44" y1="439.088655441311" x2="223.89999999999998" y2="439.088655441311" stroke="#000"/>
<line x1="219.67000000000002" y1="435.1398826733848" x2="219.67000000000002" y2="439.088655441311" stroke="#000"/>
<line x1="215.44" y1="498.0" x2="215.44" y2="502.79999999999995" stroke="#000"/>
<text x="215.44" y="512.4" fill="#111" font-size="small" font-family="monospace" font-weight="bold" text-anchor="end" transform="rotate(-60, 215.44, 512.4)">
mail
</text>
<rect x="232.36" y="442.8436194217784" width="8.46" height="55.15638057822152" fill="#7070f8" data-tooltip="1.00x baseline speed (No JIT)"/>
<line x1="232.36" y1="442.44702449553114" x2="240.82" y2="442.44702449553114" stroke="#000"/>
<line x1="232.36" y1="443.2402143480257" x2="240.82" y2="443.2402143480257" stroke="#000"/>
<line x1="236.59000000000003" y1="442.44702449553114" x2="236.59000000000003" y2="443.2402143480257" stroke="#000"/>
<rect x="240.82" y="433.4455523119471" width="8.46" height="64.55444768805283" fill="orange" data-tooltip="1.17x baseline speed (MJIT)"/>
<line x1="240.82" y1="432.97563609032113" x2="249.28" y2="432.97563609032113" stroke="#000"/>
<line x1="240.82" y1="433.91546853357306" x2="249.28" y2="433.91546853357306" stroke="#000"/>
<line x1="245.05" y1="432.97563609032113" x2="245.05" y2="433.91546853357306" stroke="#000"/>
<rect x="249.28" y="429.6586417276154" width="8.46" height="68.34135827238454" fill="green" data-tooltip="1.24x baseline speed (YJIT)"/>
<line x1="249.28" y1="429.1189110552951" x2="257.74" y2="429.1189110552951" stroke="#000"/>
<line x1="249.28" y1="430.19837239993575" x2="257.74" y2="430.19837239993575" stroke="#000"/>
<line x1="253.51000000000002" y1="429.1189110552951" x2="253.51000000000002" y2="430.19837239993575" stroke="#000"/>
<line x1="249.28" y1="498.0" x2="249.28" y2="502.79999999999995" stroke="#000"/>
<text x="249.28" y="512.4" fill="#111" font-size="small" font-family="monospace" font-weight="bold" text-anchor="end" transform="rotate(-60, 249.28, 512.4)">
psych-load
</text>
<rect x="266.2" y="442.8436194217784" width="8.46" height="55.15638057822152" fill="#7070f8" data-tooltip="1.00x baseline speed (No JIT)"/>
<line x1="266.2" y1="442.6044509617969" x2="274.66" y2="442.6044509617969" stroke="#000"/>
<line x1="266.2" y1="443.08278788175994" x2="274.66" y2="443.08278788175994" stroke="#000"/>
<line x1="270.43" y1="442.6044509617969" x2="270.43" y2="443.08278788175994" stroke="#000"/>
<rect x="274.66" y="447.9646919880935" width="8.46" height="50.03530801190646" fill="orange" data-tooltip="0.91x baseline speed (MJIT)"/>
<line x1="274.66" y1="447.54157605612113" x2="283.12000000000006" y2="447.54157605612113" stroke="#000"/>
<line x1="274.66" y1="448.3878079200658" x2="283.12000000000006" y2="448.3878079200658" stroke="#000"/>
<line x1="278.89000000000004" y1="447.54157605612113" x2="278.89000000000004" y2="448.3878079200658" stroke="#000"/>
<rect x="283.12" y="426.89698854388354" width="8.46" height="71.1030114561164" fill="green" data-tooltip="1.29x baseline speed (YJIT)"/>
<line x1="283.12" y1="426.3898095769425" x2="291.58" y2="426.3898095769425" stroke="#000"/>
<line x1="283.12" y1="427.40416751082455" x2="291.58" y2="427.40416751082455" stroke="#000"/>
<line x1="287.35" y1="426.3898095769425" x2="287.35" y2="427.40416751082455" stroke="#000"/>
<line x1="283.12" y1="498.0" x2="283.12" y2="502.79999999999995" stroke="#000"/>
<text x="283.12" y="512.4" fill="#111" font-size="small" font-family="monospace" font-weight="bold" text-anchor="end" transform="rotate(-60, 283.12, 512.4)">
railsbench
</text>
<rect x="300.03999999999996" y="442.8436194217784" width="8.46" height="55.15638057822152" fill="#7070f8" data-tooltip="1.00x baseline speed (No JIT)"/>
<line x1="300.03999999999996" y1="442.81773959034496" x2="308.5" y2="442.81773959034496" stroke="#000"/>
<line x1="300.03999999999996" y1="442.86949925321187" x2="308.5" y2="442.86949925321187" stroke="#000"/>
<line x1="304.27" y1="442.81773959034496" x2="304.27" y2="442.86949925321187" stroke="#000"/>
<rect x="308.5" y="415.55625838322806" width="8.46" height="82.44374161677192" fill="orange" data-tooltip="1.49x baseline speed (MJIT)"/>
<line x1="308.5" y1="415.2876475409064" x2="316.96000000000004" y2="415.2876475409064" stroke="#000"/>
<line x1="308.5" y1="415.8248692255497" x2="316.96000000000004" y2="415.8248692255497" stroke="#000"/>
<line x1="312.73" y1="415.2876475409064" x2="312.73" y2="415.8248692255497" stroke="#000"/>
<rect x="316.96" y="427.65075361573116" width="8.46" height="70.34924638426888" fill="green" data-tooltip="1.28x baseline speed (YJIT)"/>
<line x1="316.96" y1="427.54469972133796" x2="325.41999999999996" y2="427.54469972133796" stroke="#000"/>
<line x1="316.96" y1="427.7568075101243" x2="325.41999999999996" y2="427.7568075101243" stroke="#000"/>
<line x1="321.19" y1="427.54469972133796" x2="321.19" y2="427.7568075101243" stroke="#000"/>
<line x1="316.96" y1="498.0" x2="316.96" y2="502.79999999999995" stroke="#000"/>
<text x="316.96" y="512.4" fill="#111" font-size="small" font-family="monospace" font-weight="bold" text-anchor="end" transform="rotate(-60, 316.96, 512.4)">
binarytrees
</text>
<rect x="333.88" y="442.8436194217784" width="8.46" height="55.15638057822152" fill="#7070f8" data-tooltip="1.00x baseline speed (No JIT)"/>
<line x1="333.88" y1="442.7654324716016" x2="342.34000000000003" y2="442.7654324716016" stroke="#000"/>
<line x1="333.88" y1="442.9218063719552" x2="342.34000000000003" y2="442.9218063719552" stroke="#000"/>
<line x1="338.11" y1="442.7654324716016" x2="338.11" y2="442.9218063719552" stroke="#000"/>
<rect x="342.34000000000003" y="431.3415265849826" width="8.46" height="66.65847341501733" fill="orange" data-tooltip="1.21x baseline speed (MJIT)"/>
<line x1="342.34000000000003" y1="430.66648370772367" x2="350.80000000000007" y2="430.66648370772367" stroke="#000"/>
<line x1="342.34000000000003" y1="432.0165694622416" x2="350.80000000000007" y2="432.0165694622416" stroke="#000"/>
<line x1="346.57000000000005" y1="430.66648370772367" x2="346.57000000000005" y2="432.0165694622416" stroke="#000"/>
<rect x="350.8" y="417.6106780842328" width="8.46" height="80.38932191576721" fill="green" data-tooltip="1.46x baseline speed (YJIT)"/>
<line x1="350.8" y1="417.4130414714693" x2="359.26000000000005" y2="417.4130414714693" stroke="#000"/>
<line x1="350.8" y1="417.8083146969963" x2="359.26000000000005" y2="417.8083146969963" stroke="#000"/>
<line x1="355.03000000000003" y1="417.4130414714693" x2="355.03000000000003" y2="417.8083146969963" stroke="#000"/>
<line x1="350.8" y1="498.0" x2="350.8" y2="502.79999999999995" stroke="#000"/>
<text x="350.8" y="512.4" fill="#111" font-size="small" font-family="monospace" font-weight="bold" text-anchor="end" transform="rotate(-60, 350.8, 512.4)">
chunky_png
</text>
<rect x="367.72" y="442.8436194217784" width="8.46" height="55.15638057822152" fill="#7070f8" data-tooltip="1.00x baseline speed (No JIT)"/>
<line x1="367.72" y1="432.38546397273024" x2="376.18000000000006" y2="432.38546397273024" stroke="#000"/>
<line x1="367.72" y1="453.3017748708266" x2="376.18000000000006" y2="453.3017748708266" stroke="#000"/>
<line x1="371.95000000000005" y1="432.38546397273024" x2="371.95000000000005" y2="453.3017748708266" stroke="#000"/>
<rect x="376.18000000000006" y="443.0661079875492" width="8.46" height="54.93389201245081" fill="orange" data-tooltip="1.00x baseline speed (MJIT)"/>
<line x1="376.18000000000006" y1="430.1113591475331" x2="384.6400000000001" y2="430.1113591475331" stroke="#000"/>
<line x1="376.18000000000006" y1="456.02085682756524" x2="384.6400000000001" y2="456.02085682756524" stroke="#000"/>
<line x1="380.4100000000001" y1="430.1113591475331" x2="380.4100000000001" y2="456.02085682756524" stroke="#000"/>
<rect x="384.64000000000004" y="432.92980182874265" width="8.46" height="65.07019817125725" fill="green" data-tooltip="1.18x baseline speed (YJIT)"/>
<line x1="384.64000000000004" y1="415.70651331810825" x2="393.1000000000001" y2="415.70651331810825" stroke="#000"/>
<line x1="384.64000000000004" y1="450.1530903393771" x2="393.1000000000001" y2="450.1530903393771" stroke="#000"/>
<line x1="388.87000000000006" y1="415.70651331810825" x2="388.87000000000006" y2="450.1530903393771" stroke="#000"/>
<line x1="384.64000000000004" y1="498.0" x2="384.64000000000004" y2="502.79999999999995" stroke="#000"/>
<text x="384.64000000000004" y="512.4" fill="#111" font-size="small" font-family="monospace" font-weight="bold" text-anchor="end" transform="rotate(-60, 384.64000000000004, 512.4)">
discourse
</text>
<rect x="401.56" y="442.8436194217784" width="8.46" height="55.15638057822152" fill="#7070f8" data-tooltip="1.00x baseline speed (No JIT)"/>
<line x1="401.56" y1="442.6123936060555" x2="410.02000000000004" y2="442.6123936060555" stroke="#000"/>
<line x1="401.56" y1="443.07484523750134" x2="410.02000000000004" y2="443.07484523750134" stroke="#000"/>
<line x1="405.79" y1="442.6123936060555" x2="405.79" y2="443.07484523750134" stroke="#000"/>
<rect x="410.02000000000004" y="437.03604634476835" width="8.46" height="60.963953655231634" fill="orange" data-tooltip="1.11x baseline speed (MJIT)"/>
<line x1="410.02000000000004" y1="436.25482145227" x2="418.4800000000001" y2="436.25482145227" stroke="#000"/>
<line x1="410.02000000000004" y1="437.8172712372667" x2="418.4800000000001" y2="437.8172712372667" stroke="#000"/>
<line x1="414.25000000000006" y1="436.25482145227" x2="414.25000000000006" y2="437.8172712372667" stroke="#000"/>
<rect x="418.48" y="428.97161630145814" width="8.46" height="69.02838369854182" fill="green" data-tooltip="1.25x baseline speed (YJIT)"/>
<line x1="418.48" y1="427.7178638758862" x2="426.94000000000005" y2="427.7178638758862" stroke="#000"/>
<line x1="418.48" y1="430.22536872703006" x2="426.94000000000005" y2="430.22536872703006" stroke="#000"/>
<line x1="422.71000000000004" y1="427.7178638758862" x2="422.71000000000004" y2="430.22536872703006" stroke="#000"/>
<line x1="418.48" y1="498.0" x2="418.48" y2="502.79999999999995" stroke="#000"/>
<text x="418.48" y="512.4" fill="#111" font-size="small" font-family="monospace" font-weight="bold" text-anchor="end" transform="rotate(-60, 418.48, 512.4)">
erubi
</text>
<rect x="435.40000000000003" y="442.8436194217784" width="8.46" height="55.15638057822152" fill="#7070f8" data-tooltip="1.00x baseline speed (No JIT)"/>
<line x1="435.40000000000003" y1="420.70137517545135" x2="443.86" y2="420.70137517545135" stroke="#000"/>
<line x1="435.40000000000003" y1="464.9858636681055" x2="443.86" y2="464.9858636681055" stroke="#000"/>
<line x1="439.63" y1="420.70137517545135" x2="439.63" y2="464.9858636681055" stroke="#000"/>
<rect x="443.86" y="447.89536900665905" width="8.46" height="50.10463099334089" fill="orange" data-tooltip="0.91x baseline speed (MJIT)"/>
<line x1="443.86" y1="418.4869740664856" x2="452.32000000000005" y2="418.4869740664856" stroke="#000"/>
<line x1="443.86" y1="477.3037639468325" x2="452.32000000000005" y2="477.3037639468325" stroke="#000"/>
<line x1="448.09000000000003" y1="418.4869740664856" x2="448.09000000000003" y2="477.3037639468325" stroke="#000"/>
<rect x="452.32" y="427.4741483396317" width="8.46" height="70.52585166036826" fill="green" data-tooltip="1.28x baseline speed (YJIT)"/>
<line x1="452.32" y1="379.5902613381543" x2="460.78000000000003" y2="379.5902613381543" stroke="#000"/>
<line x1="452.32" y1="475.3580353411091" x2="460.78000000000003" y2="475.3580353411091" stroke="#000"/>
<line x1="456.55" y1="379.5902613381543" x2="456.55" y2="475.3580353411091" stroke="#000"/>
<line x1="452.32" y1="498.0" x2="452.32" y2="502.79999999999995" stroke="#000"/>
<text x="452.32" y="512.4" fill="#111" font-size="small" font-family="monospace" font-weight="bold" text-anchor="end" transform="rotate(-60, 452.32, 512.4)">
erubi_rails
</text>
<rect x="469.24" y="442.8436194217784" width="8.46" height="55.15638057822152" fill="#7070f8" data-tooltip="1.00x baseline speed (No JIT)"/>
<line x1="469.24" y1="436.69536272176794" x2="477.7" y2="436.69536272176794" stroke="#000"/>
<line x1="469.24" y1="448.9918761217889" x2="477.7" y2="448.9918761217889" stroke="#000"/>
<line x1="473.47" y1="436.69536272176794" x2="473.47" y2="448.9918761217889" stroke="#000"/>
<rect x="477.7" y="423.75112714000335" width="8.46" height="74.2488728599966" fill="orange" data-tooltip="1.35x baseline speed (MJIT)"/>
<line x1="477.7" y1="415.47370687671366" x2="486.16" y2="415.47370687671366" stroke="#000"/>
<line x1="477.7" y1="432.0285474032931" x2="486.16" y2="432.0285474032931" stroke="#000"/>
<line x1="481.93" y1="415.47370687671366" x2="481.93" y2="432.0285474032931" stroke="#000"/>
<rect x="486.15999999999997" y="448.7388519514399" width="8.46" height="49.26114804856008" fill="green" data-tooltip="0.89x baseline speed (YJIT)"/>
<line x1="486.15999999999997" y1="443.2475797748808" x2="494.62" y2="443.2475797748808" stroke="#000"/>
<line x1="486.15999999999997" y1="454.23012412799903" x2="494.62" y2="454.23012412799903" stroke="#000"/>
<line x1="490.39" y1="443.2475797748808" x2="490.39" y2="454.23012412799903" stroke="#000"/>
<line x1="486.15999999999997" y1="498.0" x2="486.15999999999997" y2="502.79999999999995" stroke="#000"/>
<text x="486.15999999999997" y="512.4" fill="#111" font-size="small" font-family="monospace" font-weight="bold" text-anchor="end" transform="rotate(-60, 486.15999999999997, 512.4)">
fannkuchredux
</text>
<rect x="503.08" y="442.8436194217784" width="8.46" height="55.15638057822152" fill="#7070f8" data-tooltip="1.00x baseline speed (No JIT)"/>
<line x1="503.08" y1="442.7273692343167" x2="511.54" y2="442.7273692343167" stroke="#000"/>
<line x1="503.08" y1="442.9598696092401" x2="511.54" y2="442.9598696092401" stroke="#000"/>
<line x1="507.30999999999995" y1="442.7273692343167" x2="507.30999999999995" y2="442.9598696092401" stroke="#000"/>
<rect x="511.54" y="431.4421922704338" width="8.46" height="66.55780772956612" fill="orange" data-tooltip="1.21x baseline speed (MJIT)"/>
<line x1="511.54" y1="431.2202744698317" x2="520.0" y2="431.2202744698317" stroke="#000"/>
<line x1="511.54" y1="431.66411007103585" x2="520.0" y2="431.66411007103585" stroke="#000"/>
<line x1="515.77" y1="431.2202744698317" x2="515.77" y2="431.66411007103585" stroke="#000"/>
<rect x="520.0" y="421.25863438362944" width="8.46" height="76.74136561637044" fill="green" data-tooltip="1.39x baseline speed (YJIT)"/>
<line x1="520.0" y1="420.35930687696646" x2="528.46" y2="420.35930687696646" stroke="#000"/>
<line x1="520.0" y1="422.1579618902925" x2="528.46" y2="422.1579618902925" stroke="#000"/>
<line x1="524.23" y1="420.35930687696646" x2="524.23" y2="422.1579618902925" stroke="#000"/>
<line x1="520.0" y1="498.0" x2="520.0" y2="502.79999999999995" stroke="#000"/>
<text x="520.0" y="512.4" fill="#111" font-size="small" font-family="monospace" font-weight="bold" text-anchor="end" transform="rotate(-60, 520.0, 512.4)">
lee
</text>
<rect x="536.9200000000001" y="442.8436194217784" width="8.46" height="55.15638057822152" fill="#7070f8" data-tooltip="1.00x baseline speed (No JIT)"/>
<line x1="536.9200000000001" y1="442.7974481845884" x2="545.3800000000001" y2="442.7974481845884" stroke="#000"/>
<line x1="536.9200000000001" y1="442.8897906589684" x2="545.3800000000001" y2="442.8897906589684" stroke="#000"/>
<line x1="541.15" y1="442.7974481845884" x2="541.15" y2="442.8897906589684" stroke="#000"/>
<rect x="545.3800000000001" y="405.27144862386666" width="8.46" height="92.72855137613325" fill="orange" data-tooltip="1.68x baseline speed (MJIT)"/>
<line x1="545.3800000000001" y1="405.1873204434553" x2="553.8400000000001" y2="405.1873204434553" stroke="#000"/>
<line x1="545.3800000000001" y1="405.35557680427803" x2="553.8400000000001" y2="405.35557680427803" stroke="#000"/>
<line x1="549.61" y1="405.1873204434553" x2="549.61" y2="405.35557680427803" stroke="#000"/>
<rect x="553.8400000000001" y="420.9981185717788" width="8.46" height="77.00188142822121" fill="green" data-tooltip="1.40x baseline speed (YJIT)"/>
<line x1="553.8400000000001" y1="420.6251758713683" x2="562.3000000000002" y2="420.6251758713683" stroke="#000"/>
<line x1="553.8400000000001" y1="421.3710612721893" x2="562.3000000000002" y2="421.3710612721893" stroke="#000"/>
<line x1="558.07" y1="420.6251758713683" x2="558.07" y2="421.3710612721893" stroke="#000"/>
<line x1="553.8400000000001" y1="498.0" x2="553.8400000000001" y2="502.79999999999995" stroke="#000"/>
<text x="553.8400000000001" y="512.4" fill="#111" font-size="small" font-family="monospace" font-weight="bold" text-anchor="end" transform="rotate(-60, 553.8400000000001, 512.4)">
nbody
</text>
<rect x="570.76" y="442.8436194217784" width="8.46" height="55.15638057822152" fill="#7070f8" data-tooltip="1.00x baseline speed (No JIT)"/>
<line x1="570.76" y1="442.60655265474185" x2="579.22" y2="442.60655265474185" stroke="#000"/>
<line x1="570.76" y1="443.080686188815" x2="579.22" y2="443.080686188815" stroke="#000"/>
<line x1="574.99" y1="442.60655265474185" x2="574.99" y2="443.080686188815" stroke="#000"/>
<rect x="579.22" y="368.3944087414834" width="8.46" height="129.60559125851654" fill="orange" data-tooltip="2.35x baseline speed (MJIT)"/>
<line x1="579.22" y1="367.4186402027435" x2="587.6800000000001" y2="367.4186402027435" stroke="#000"/>
<line x1="579.22" y1="369.37017728022334" x2="587.6800000000001" y2="369.37017728022334" stroke="#000"/>
<line x1="583.45" y1="367.4186402027435" x2="583.45" y2="369.37017728022334" stroke="#000"/>
<rect x="587.6800000000001" y="398.8247450396482" width="8.46" height="99.17525496035177" fill="green" data-tooltip="1.80x baseline speed (YJIT)"/>
<line x1="587.6800000000001" y1="398.1015298837986" x2="596.1400000000001" y2="398.1015298837986" stroke="#000"/>
<line x1="587.6800000000001" y1="399.5479601954977" x2="596.1400000000001" y2="399.5479601954977" stroke="#000"/>
<line x1="591.9100000000001" y1="398.1015298837986" x2="591.9100000000001" y2="399.5479601954977" stroke="#000"/>
<line x1="587.6800000000001" y1="498.0" x2="587.6800000000001" y2="502.79999999999995" stroke="#000"/>
<text x="587.6800000000001" y="512.4" fill="#111" font-size="small" font-family="monospace" font-weight="bold" text-anchor="end" transform="rotate(-60, 587.6800000000001, 512.4)">
optcarrot
</text>
<rect x="604.6" y="442.8436194217784" width="8.46" height="55.15638057822152" fill="#7070f8" data-tooltip="1.00x baseline speed (No JIT)"/>
<line x1="604.6" y1="441.6962784649821" x2="613.0600000000001" y2="441.6962784649821" stroke="#000"/>
<line x1="604.6" y1="443.99096037857475" x2="613.0600000000001" y2="443.99096037857475" stroke="#000"/>
<line x1="608.8299999999999" y1="441.6962784649821" x2="608.8299999999999" y2="443.99096037857475" stroke="#000"/>
<rect x="613.0600000000001" y="432.8005188693186" width="8.46" height="65.19948113068136" fill="orange" data-tooltip="1.18x baseline speed (MJIT)"/>
<line x1="613.0600000000001" y1="431.07994491340196" x2="621.5200000000001" y2="431.07994491340196" stroke="#000"/>
<line x1="613.0600000000001" y1="434.52109282523526" x2="621.5200000000001" y2="434.52109282523526" stroke="#000"/>
<line x1="617.29" y1="431.07994491340196" x2="617.29" y2="434.52109282523526" stroke="#000"/>
<rect x="621.5200000000001" y="403.99483498912156" width="8.46" height="94.00516501087837" fill="green" data-tooltip="1.70x baseline speed (YJIT)"/>
<line x1="621.5200000000001" y1="400.74041168401715" x2="629.9800000000001" y2="400.74041168401715" stroke="#000"/>
<line x1="621.5200000000001" y1="407.2492582942259" x2="629.9800000000001" y2="407.2492582942259" stroke="#000"/>
<line x1="625.75" y1="400.74041168401715" x2="625.75" y2="407.2492582942259" stroke="#000"/>
<line x1="621.5200000000001" y1="498.0" x2="621.5200000000001" y2="502.79999999999995" stroke="#000"/>
<text x="621.5200000000001" y="512.4" fill="#111" font-size="small" font-family="monospace" font-weight="bold" text-anchor="end" transform="rotate(-60, 621.5200000000001, 512.4)">
rubykon
</text>
<rect x="638.44" y="442.8436194217784" width="8.46" height="55.15638057822152" fill="#7070f8" data-tooltip="1.00x baseline speed (No JIT)"/>
<line x1="638.44" y1="442.83362045072806" x2="646.9" y2="442.83362045072806" stroke="#000"/>
<line x1="638.44" y1="442.85361839282876" x2="646.9" y2="442.85361839282876" stroke="#000"/>
<line x1="642.67" y1="442.83362045072806" x2="642.67" y2="442.85361839282876" stroke="#000"/>
<rect x="646.9" y="461.6129933912791" width="8.46" height="36.38700660872084" fill="orange" data-tooltip="0.66x baseline speed (MJIT)"/>
<line x1="646.9" y1="460.26669578786135" x2="655.36" y2="460.26669578786135" stroke="#000"/>
<line x1="646.9" y1="462.95929099469686" x2="655.36" y2="462.95929099469686" stroke="#000"/>
<line x1="651.13" y1="460.26669578786135" x2="651.13" y2="462.95929099469686" stroke="#000"/>
<rect x="655.36" y="137.41650567586316" width="8.46" height="360.5834943241368" fill="green" data-tooltip="6.54x baseline speed (YJIT)"/>
<line x1="655.36" y1="136.523485774401" x2="663.82" y2="136.523485774401" stroke="#000"/>
<line x1="655.36" y1="138.30952557732536" x2="663.82" y2="138.30952557732536" stroke="#000"/>
<line x1="659.59" y1="136.523485774401" x2="659.59" y2="138.30952557732536" stroke="#000"/>
<line x1="655.36" y1="498.0" x2="655.36" y2="502.79999999999995" stroke="#000"/>
<text x="655.36" y="512.4" fill="#111" font-size="small" font-family="monospace" font-weight="bold" text-anchor="end" transform="rotate(-60, 655.36, 512.4)">
30k_ifelse
</text>
<rect x="672.28" y="442.8436194217784" width="8.46" height="55.15638057822152" fill="#7070f8" data-tooltip="1.00x baseline speed (No JIT)"/>
<line x1="672.28" y1="442.8348560070205" x2="680.74" y2="442.8348560070205" stroke="#000"/>
<line x1="672.28" y1="442.8523828365363" x2="680.74" y2="442.8523828365363" stroke="#000"/>
<line x1="676.51" y1="442.8348560070205" x2="676.51" y2="442.8523828365363" stroke="#000"/>
<rect x="680.74" y="463.80434495885254" width="8.46" height="34.19565504114741" fill="orange" data-tooltip="0.62x baseline speed (MJIT)"/>
<line x1="680.74" y1="458.5211500091177" x2="689.2" y2="458.5211500091177" stroke="#000"/>
<line x1="680.74" y1="469.0875399085873" x2="689.2" y2="469.0875399085873" stroke="#000"/>
<line x1="684.9699999999999" y1="458.5211500091177" x2="684.9699999999999" y2="469.0875399085873" stroke="#000"/>
<rect x="689.2" y="104.61342725260415" width="8.46" height="393.3865727473958" fill="green" data-tooltip="7.13x baseline speed (YJIT)"/>
<line x1="689.2" y1="104.36456997799081" x2="697.6600000000001" y2="104.36456997799081" stroke="#000"/>
<line x1="689.2" y1="104.8622845272175" x2="697.6600000000001" y2="104.8622845272175" stroke="#000"/>
<line x1="693.43" y1="104.36456997799081" x2="693.43" y2="104.8622845272175" stroke="#000"/>
<line x1="689.2" y1="498.0" x2="689.2" y2="502.79999999999995" stroke="#000"/>
<text x="689.2" y="512.4" fill="#111" font-size="small" font-family="monospace" font-weight="bold" text-anchor="end" transform="rotate(-60, 689.2, 512.4)">
30k_methods
</text>
<rect x="706.12" y="442.8436194217784" width="8.46" height="55.15638057822152" fill="#7070f8" data-tooltip="1.00x baseline speed (No JIT)"/>
<line x1="706.12" y1="442.0405467692712" x2="714.58" y2="442.0405467692712" stroke="#000"/>
<line x1="706.12" y1="443.6466920742856" x2="714.58" y2="443.6466920742856" stroke="#000"/>
<line x1="710.3499999999999" y1="442.0405467692712" x2="710.3499999999999" y2="443.6466920742856" stroke="#000"/>
<rect x="714.58" y="418.0066347163504" width="8.46" height="79.99336528364952" fill="orange" data-tooltip="1.45x baseline speed (MJIT)"/>
<line x1="714.58" y1="416.53387716428205" x2="723.04" y2="416.53387716428205" stroke="#000"/>
<line x1="714.58" y1="419.4793922684187" x2="723.04" y2="419.4793922684187" stroke="#000"/>
<line x1="718.81" y1="416.53387716428205" x2="718.81" y2="419.4793922684187" stroke="#000"/>
<rect x="723.04" y="371.9609640743579" width="8.46" height="126.03903592564208" fill="green" data-tooltip="2.29x baseline speed (YJIT)"/>
<line x1="723.04" y1="369.73258022416405" x2="731.5" y2="369.73258022416405" stroke="#000"/>
<line x1="723.04" y1="374.1893479245517" x2="731.5" y2="374.1893479245517" stroke="#000"/>
<line x1="727.27" y1="369.73258022416405" x2="727.27" y2="374.1893479245517" stroke="#000"/>
<line x1="723.04" y1="498.0" x2="723.04" y2="502.79999999999995" stroke="#000"/>
<text x="723.04" y="512.4" fill="#111" font-size="small" font-family="monospace" font-weight="bold" text-anchor="end" transform="rotate(-60, 723.04, 512.4)">
cfunc_itself
</text>
<rect x="739.96" y="442.8436194217784" width="8.46" height="55.15638057822152" fill="#7070f8" data-tooltip="1.00x baseline speed (No JIT)"/>
<line x1="739.96" y1="442.8212367094863" x2="748.4200000000001" y2="442.8212367094863" stroke="#000"/>
<line x1="739.96" y1="442.8660021340705" x2="748.4200000000001" y2="442.8660021340705" stroke="#000"/>
<line x1="744.19" y1="442.8212367094863" x2="744.19" y2="442.8660021340705" stroke="#000"/>
<rect x="748.4200000000001" y="346.12682251762163" width="8.46" height="151.87317748237828" fill="orange" data-tooltip="2.75x baseline speed (MJIT)"/>
<line x1="748.4200000000001" y1="346.0492481370674" x2="756.8800000000001" y2="346.0492481370674" stroke="#000"/>
<line x1="748.4200000000001" y1="346.20439689817584" x2="756.8800000000001" y2="346.20439689817584" stroke="#000"/>
<line x1="752.6500000000001" y1="346.0492481370674" x2="752.6500000000001" y2="346.20439689817584" stroke="#000"/>
<rect x="756.8800000000001" y="288.76017214266994" width="8.46" height="209.23982785733003" fill="green" data-tooltip="3.79x baseline speed (YJIT)"/>
<line x1="756.8800000000001" y1="287.53038377951475" x2="765.3400000000001" y2="287.53038377951475" stroke="#000"/>
<line x1="756.8800000000001" y1="289.9899605058251" x2="765.3400000000001" y2="289.9899605058251" stroke="#000"/>
<line x1="761.11" y1="287.53038377951475" x2="761.11" y2="289.9899605058251" stroke="#000"/>
<line x1="756.8800000000001" y1="498.0" x2="756.8800000000001" y2="502.79999999999995" stroke="#000"/>
<text x="756.8800000000001" y="512.4" fill="#111" font-size="small" font-family="monospace" font-weight="bold" text-anchor="end" transform="rotate(-60, 756.8800000000001, 512.4)">
fib
</text>
<rect x="773.8000000000001" y="442.8436194217784" width="8.46" height="55.15638057822152" fill="#7070f8" data-tooltip="1.00x baseline speed (No JIT)"/>
<line x1="773.8000000000001" y1="442.65691257821976" x2="782.2600000000001" y2="442.65691257821976" stroke="#000"/>
<line x1="773.8000000000001" y1="443.03032626533707" x2="782.2600000000001" y2="443.03032626533707" stroke="#000"/>
<line x1="778.03" y1="442.65691257821976" x2="778.03" y2="443.03032626533707" stroke="#000"/>
<rect x="782.2600000000001" y="272.9386216516517" width="8.46" height="225.06137834834826" fill="orange" data-tooltip="4.08x baseline speed (MJIT)"/>
<line x1="782.2600000000001" y1="125.20230506042292" x2="790.7200000000001" y2="125.20230506042292" stroke="#000"/>
<line x1="782.2600000000001" y1="420.67493824288044" x2="790.7200000000001" y2="420.67493824288044" stroke="#000"/>
<line x1="786.49" y1="125.20230506042292" x2="786.49" y2="420.67493824288044" stroke="#000"/>
<rect x="790.7200000000001" y="360.7883766865075" width="8.46" height="137.21162331349248" fill="green" data-tooltip="2.49x baseline speed (YJIT)"/>
<line x1="790.7200000000001" y1="359.76049535149" x2="799.1800000000001" y2="359.76049535149" stroke="#000"/>
<line x1="790.7200000000001" y1="361.8162580215249" x2="799.1800000000001" y2="361.8162580215249" stroke="#000"/>
<line x1="794.95" y1="359.76049535149" x2="794.95" y2="361.8162580215249" stroke="#000"/>
<line x1="790.7200000000001" y1="498.0" x2="790.7200000000001" y2="502.79999999999995" stroke="#000"/>
<text x="790.7200000000001" y="512.4" fill="#111" font-size="small" font-family="monospace" font-weight="bold" text-anchor="end" transform="rotate(-60, 790.7200000000001, 512.4)">
getivar
</text>
<rect x="807.64" y="442.8436194217784" width="8.46" height="55.15638057822152" fill="#7070f8" data-tooltip="1.00x baseline speed (No JIT)"/>
<line x1="807.64" y1="442.7953957195965" x2="816.1" y2="442.7953957195965" stroke="#000"/>
<line x1="807.64" y1="442.8918431239603" x2="816.1" y2="442.8918431239603" stroke="#000"/>
<line x1="811.87" y1="442.7953957195965" x2="811.87" y2="442.8918431239603" stroke="#000"/>
<rect x="816.1" y="428.33018202267766" width="8.46" height="69.66981797732234" fill="orange" data-tooltip="1.26x baseline speed (MJIT)"/>
<line x1="816.1" y1="428.0498812597025" x2="824.5600000000001" y2="428.0498812597025" stroke="#000"/>
<line x1="816.1" y1="428.61048278565283" x2="824.5600000000001" y2="428.61048278565283" stroke="#000"/>
<line x1="820.33" y1="428.0498812597025" x2="820.33" y2="428.61048278565283" stroke="#000"/>
<rect x="824.5600000000001" y="204.5722932064411" width="8.46" height="293.42770679355885" fill="green" data-tooltip="5.32x baseline speed (YJIT)"/>
<line x1="824.5600000000001" y1="202.64228037351478" x2="833.0200000000001" y2="202.64228037351478" stroke="#000"/>
<line x1="824.5600000000001" y1="206.5023060393674" x2="833.0200000000001" y2="206.5023060393674" stroke="#000"/>
<line x1="828.7900000000001" y1="202.64228037351478" x2="828.7900000000001" y2="206.5023060393674" stroke="#000"/>
<line x1="824.5600000000001" y1="498.0" x2="824.5600000000001" y2="502.79999999999995" stroke="#000"/>
<text x="824.5600000000001" y="512.4" fill="#111" font-size="small" font-family="monospace" font-weight="bold" text-anchor="end" transform="rotate(-60, 824.5600000000001, 512.4)">
keyword_args
</text>
<rect x="841.48" y="442.8436194217784" width="8.46" height="55.15638057822152" fill="#7070f8" data-tooltip="1.00x baseline speed (No JIT)"/>
<line x1="841.48" y1="442.7323058604539" x2="849.94" y2="442.7323058604539" stroke="#000"/>
<line x1="841.48" y1="442.95493298310294" x2="849.94" y2="442.95493298310294" stroke="#000"/>
<line x1="845.7099999999999" y1="442.7323058604539" x2="845.7099999999999" y2="442.95493298310294" stroke="#000"/>
<rect x="849.94" y="433.01476284669445" width="8.46" height="64.98523715330556" fill="orange" data-tooltip="1.18x baseline speed (MJIT)"/>
<line x1="849.94" y1="432.1741771660294" x2="858.4000000000001" y2="432.1741771660294" stroke="#000"/>
<line x1="849.94" y1="433.8553485273595" x2="858.4000000000001" y2="433.8553485273595" stroke="#000"/>
<line x1="854.17" y1="432.1741771660294" x2="854.17" y2="433.8553485273595" stroke="#000"/>
<rect x="858.4000000000001" y="416.52031488278715" width="8.46" height="81.47968511721277" fill="green" data-tooltip="1.48x baseline speed (YJIT)"/>
<line x1="858.4000000000001" y1="413.4444776961282" x2="866.8600000000001" y2="413.4444776961282" stroke="#000"/>
<line x1="858.4000000000001" y1="419.596152069446" x2="866.8600000000001" y2="419.596152069446" stroke="#000"/>
<line x1="862.63" y1="413.4444776961282" x2="862.63" y2="419.596152069446" stroke="#000"/>
<line x1="858.4000000000001" y1="498.0" x2="858.4000000000001" y2="502.79999999999995" stroke="#000"/>
<text x="858.4000000000001" y="512.4" fill="#111" font-size="small" font-family="monospace" font-weight="bold" text-anchor="end" transform="rotate(-60, 858.4000000000001, 512.4)">
respond_to
</text>
<rect x="875.3199999999999" y="442.8436194217784" width="8.46" height="55.15638057822152" fill="#7070f8" data-tooltip="1.00x baseline speed (No JIT)"/>
<line x1="875.3199999999999" y1="442.61863124669947" x2="883.78" y2="442.61863124669947" stroke="#000"/>
<line x1="875.3199999999999" y1="443.06860759685736" x2="883.78" y2="443.06860759685736" stroke="#000"/>
<line x1="879.55" y1="442.61863124669947" x2="879.55" y2="443.06860759685736" stroke="#000"/>
<rect x="883.78" y="100.19999999999999" width="8.46" height="397.79999999999995" fill="orange" data-tooltip="7.21x baseline speed (MJIT)"/>
<line x1="883.78" y1="-304.0660268508064" x2="892.24" y2="-304.0660268508064" stroke="#000"/>
<line x1="883.78" y1="504.46602685080626" x2="892.24" y2="504.46602685080626" stroke="#000"/>
<line x1="888.01" y1="-304.0660268508064" x2="888.01" y2="504.46602685080626" stroke="#000"/>
<rect x="892.24" y="415.55797716458846" width="8.46" height="82.44202283541144" fill="green" data-tooltip="1.49x baseline speed (YJIT)"/>
<line x1="892.24" y1="414.76419279335306" x2="900.7" y2="414.76419279335306" stroke="#000"/>
<line x1="892.24" y1="416.3517615358239" x2="900.7" y2="416.3517615358239" stroke="#000"/>
<line x1="896.47" y1="414.76419279335306" x2="896.47" y2="416.3517615358239" stroke="#000"/>
<line x1="892.24" y1="498.0" x2="892.24" y2="502.79999999999995" stroke="#000"/>
<text x="892.24" y="512.4" fill="#111" font-size="small" font-family="monospace" font-weight="bold" text-anchor="end" transform="rotate(-60, 892.24, 512.4)">
setivar
</text>
<rect x="909.16" y="442.8436194217784" width="8.46" height="55.15638057822152" fill="#7070f8" data-tooltip="1.00x baseline speed (No JIT)"/>
<line x1="909.16" y1="439.8658265462518" x2="917.62" y2="439.8658265462518" stroke="#000"/>
<line x1="909.16" y1="445.821412297305" x2="917.62" y2="445.821412297305" stroke="#000"/>
<line x1="913.3899999999999" y1="439.8658265462518" x2="913.3899999999999" y2="445.821412297305" stroke="#000"/>
<rect x="917.62" y="425.3905013933034" width="8.46" height="72.60949860669653" fill="orange" data-tooltip="1.32x baseline speed (MJIT)"/>
<line x1="917.62" y1="421.350622075933" x2="926.08" y2="421.350622075933" stroke="#000"/>
<line x1="917.62" y1="429.4303807106738" x2="926.08" y2="429.4303807106738" stroke="#000"/>
<line x1="921.8499999999999" y1="421.350622075933" x2="921.8499999999999" y2="429.4303807106738" stroke="#000"/>
<rect x="926.08" y="429.4950416048346" width="8.46" height="68.50495839516532" fill="green" data-tooltip="1.24x baseline speed (YJIT)"/>
<line x1="926.08" y1="425.6891054035174" x2="934.5400000000001" y2="425.6891054035174" stroke="#000"/>
<line x1="926.08" y1="433.3009778061518" x2="934.5400000000001" y2="433.3009778061518" stroke="#000"/>
<line x1="930.31" y1="425.6891054035174" x2="930.31" y2="433.3009778061518" stroke="#000"/>
<line x1="926.08" y1="498.0" x2="926.08" y2="502.79999999999995" stroke="#000"/>
<text x="926.08" y="512.4" fill="#111" font-size="small" font-family="monospace" font-weight="bold" text-anchor="end" transform="rotate(-60, 926.08, 512.4)">
str_concat
</text>
</svg>