<svg viewBox="0 0 1000 600" xmlns="http://www.w3.org/2000/svg" xmlns:xlink="http://www.w3.org/1999/xlink" width="100%" height="100%">

<rect x="50.0" y="30.0" width="940.0" height="467.99999999999994" stroke="#000" fill="#EEE"/>
<line x1="42.0" y1="497.9999999999999" x2="50.0" y2="497.9999999999999" stroke="#000"/>
<text x="26.000000000000004" y="497.9999999999999" text-anchor="end" font-weight="bold" font-size="small" fill="#111">
0.0
</text>
<line x1="42.0" y1="437.2951024973404" x2="50.0" y2="437.2951024973404" stroke="#000"/>
<text x="26.000000000000004" y="437.2951024973404" text-anchor="end" font-weight="bold" font-size="small" fill="#111">
0.2
</text>
<line x1="42.0" y1="376.59020499468085" x2="50.0" y2="376.59020499468085" stroke="#000"/>
<text x="26.000000000000004" y="376.59020499468085" text-anchor="end" font-weight="bold" font-size="small" fill="#111">
0.4
</text>
<line x1="42.0" y1="315.88530749202124" x2="50.0" y2="315.88530749202124" stroke="#000"/>
<text x="26.000000000000004" y="315.88530749202124" text-anchor="end" font-weight="bold" font-size="small" fill="#111">
0.6
</text>
<line x1="42.0" y1="255.18040998936172" x2="50.0" y2="255.18040998936172" stroke="#000"/>
<text x="26.000000000000004" y="255.18040998936172" text-anchor="end" font-weight="bold" font-size="small" fill="#111">
0.8
</text>
<line x1="42.0" y1="194.4755124867022" x2="50.0" y2="194.4755124867022" stroke="#000"/>
<text x="26.000000000000004" y="194.4755124867022" text-anchor="end" font-weight="bold" font-size="small" fill="#111">
1.0
</text>
<line x1="42.0" y1="133.7706149840427" x2="50.0" y2="133.7706149840427" stroke="#000"/>
<text x="26.000000000000004" y="133.7706149840427" text-anchor="end" font-weight="bold" font-size="small" fill="#111">
1.2
</text>
<rect x="197.99999999999997" y="36.00000000000001" width="80.0" height="18.0" fill="#7070f8" stroke="#888"/>
<text x="238.0" y="52.50000000000001" font-size="small" text-anchor="middle" font-weight="bold" fill="#111">
No JIT
</text>
<rect x="479.99999999999994" y="36.00000000000001" width="80.0" height="18.0" fill="orange" stroke="#888"/>
<text x="519.9999999999999" y="52.50000000000001" font-size="small" text-anchor="middle" font-weight="bold" fill="#111">
MJIT
</text>
<rect x="761.9999999999999" y="36.00000000000001" width="80.0" height="18.0" fill="green" stroke="#888"/>
<text x="801.9999999999999" y="52.50000000000001" font-size="small" text-anchor="middle" font-weight="bold" fill="#111">
YJIT
</text>
<rect x="97.0" y="194.4755124867022" width="42.3" height="303.5244875132977" fill="#7070f8" data-tooltip="1.00x No-JIT time (No JIT)"/>
<line x1="97.0" y1="189.9148112833851" x2="139.3" y2="189.9148112833851" stroke="#000"/>
<line x1="97.0" y1="199.0362136900193" x2="139.3" y2="199.0362136900193" stroke="#000"/>
<line x1="118.15" y1="189.9148112833851" x2="118.15" y2="199.0362136900193" stroke="#000"/>
<rect x="139.3" y="213.51727365229823" width="42.3" height="284.4827263477017" fill="orange" data-tooltip="0.94x No-JIT time (MJIT)"/>
<line x1="139.3" y1="208.54364697572052" x2="181.60000000000002" y2="208.54364697572052" stroke="#000"/>
<line x1="139.3" y1="218.49090032887594" x2="181.60000000000002" y2="218.49090032887594" stroke="#000"/>
<line x1="160.45000000000002" y1="208.54364697572052" x2="160.45000000000002" y2="218.49090032887594" stroke="#000"/>
<rect x="181.6" y="100.19999999999999" width="42.3" height="397.79999999999995" fill="green" data-tooltip="1.31x No-JIT time (YJIT)"/>
<line x1="181.6" y1="90.34042720778365" x2="223.89999999999998" y2="90.34042720778365" stroke="#000"/>
<line x1="181.6" y1="110.05957279221634" x2="223.89999999999998" y2="110.05957279221634" stroke="#000"/>
<line x1="202.75" y1="90.34042720778365" x2="202.75" y2="110.05957279221634" stroke="#000"/>
<line x1="181.6" y1="498.0" x2="181.6" y2="502.79999999999995" stroke="#000"/>
<text x="181.6" y="512.4" fill="#111" font-size="small" font-family="monospace" font-weight="bold" text-anchor="end" transform="rotate(-60, 181.6, 512.4)">
activerecord
</text>
<rect x="266.2" y="194.4755124867022" width="42.3" height="303.5244875132977" fill="#7070f8" data-tooltip="1.00x No-JIT time (No JIT)"/>
<line x1="266.2" y1="189.2345347058314" x2="308.5" y2="189.2345347058314" stroke="#000"/>
<line x1="266.2" y1="199.716490267573" x2="308.5" y2="199.716490267573" stroke="#000"/>
<line x1="287.35" y1="189.2345347058314" x2="287.35" y2="199.716490267573" stroke="#000"/>
<rect x="308.5" y="192.8617394141853" width="42.3" height="305.13826058581463" fill="orange" data-tooltip="1.01x No-JIT time (MJIT)"/>
<line x1="308.5" y1="185.09270557730943" x2="350.8" y2="185.09270557730943" stroke="#000"/>
<line x1="308.5" y1="200.63077325106116" x2="350.8" y2="200.63077325106116" stroke="#000"/>
<line x1="329.65" y1="185.09270557730943" x2="329.65" y2="200.63077325106116" stroke="#000"/>
<rect x="350.8" y="165.46351577892156" width="42.3" height="332.5364842210784" fill="green" data-tooltip="1.10x No-JIT time (YJIT)"/>
<line x1="350.8" y1="154.30213369723975" x2="393.1" y2="154.30213369723975" stroke="#000"/>
<line x1="350.8" y1="176.62489786060337" x2="393.1" y2="176.62489786060337" stroke="#000"/>
<line x1="371.95" y1="154.30213369723975" x2="371.95" y2="176.62489786060337" stroke="#000"/>
<line x1="350.8" y1="498.0" x2="350.8" y2="502.79999999999995" stroke="#000"/>
<text x="350.8" y="512.4" fill="#111" font-size="small" font-family="monospace" font-weight="bold" text-anchor="end" transform="rotate(-60, 350.8, 512.4)">
jekyll
</text>
<rect x="435.40000000000003" y="194.4755124867022" width="42.3" height="303.5244875132977" fill="#7070f8" data-tooltip="1.00x No-JIT time (No JIT)"/>
<line x1="435.40000000000003" y1="191.08182294830834" x2="477.7" y2="191.08182294830834" stroke="#000"/>
<line x1="435.40000000000003" y1="197.86920202509606" x2="477.7" y2="197.86920202509606" stroke="#000"/>
<line x1="456.55" y1="191.08182294830834" x2="456.55" y2="197.86920202509606" stroke="#000"/>
<rect x="477.7" y="151.4133392577589" width="42.3" height="346.586660742241" fill="orange" data-tooltip="1.14x No-JIT time (MJIT)"/>
<line x1="477.7" y1="141.91594539740558" x2="520.0" y2="141.91594539740558" stroke="#000"/>
<line x1="477.7" y1="160.91073311811226" x2="520.0" y2="160.91073311811226" stroke="#000"/>
<line x1="498.85" y1="141.91594539740558" x2="498.85" y2="160.91073311811226" stroke="#000"/>
<rect x="520.0" y="120.08514650567962" width="42.3" height="377.9148534943203" fill="green" data-tooltip="1.25x No-JIT time (YJIT)"/>
<line x1="520.0" y1="112.30781988594796" x2="562.3000000000001" y2="112.30781988594796" stroke="#000"/>
<line x1="520.0" y1="127.86247312541127" x2="562.3000000000001" y2="127.86247312541127" stroke="#000"/>
<line x1="541.15" y1="112.30781988594796" x2="541.15" y2="127.86247312541127" stroke="#000"/>
<line x1="520.0" y1="498.0" x2="520.0" y2="502.79999999999995" stroke="#000"/>
<text x="520.0" y="512.4" fill="#111" font-size="small" font-family="monospace" font-weight="bold" text-anchor="end" transform="rotate(-60, 520.0, 512.4)">
liquid-render
</text>
<rect x="604.5999999999999" y="194.4755124867022" width="42.3" height="303.5244875132977" fill="#7070f8" data-tooltip="1.00x No-JIT time (No JIT)"/>
<line x1="604.5999999999999" y1="193.0826293467437" x2="646.8999999999999" y2="193.0826293467437" stroke="#000"/>
<line x1="604.5999999999999" y1="195.86839562666074" x2="646.8999999999999" y2="195.86839562666074" stroke="#000"/>
<line x1="625.7499999999999" y1="193.0826293467437" x2="625.7499999999999" y2="195.86839562666074" stroke="#000"/>
<rect x="646.8999999999999" y="170.83448241255027" width="42.3" height="327.1655175874497" fill="orange" data-tooltip="1.08x No-JIT time (MJIT)"/>
<line x1="646.8999999999999" y1="160.87120845178126" x2="689.1999999999999" y2="160.87120845178126" stroke="#000"/>
<line x1="646.8999999999999" y1="180.7977563733193" x2="689.1999999999999" y2="180.7977563733193" stroke="#000"/>
<line x1="668.05" y1="160.87120845178126" x2="668.05" y2="180.7977563733193" stroke="#000"/>
<rect x="689.1999999999999" y="135.5373822189448" width="42.3" height="362.4626177810552" fill="green" data-tooltip="1.19x No-JIT time (YJIT)"/>
<line x1="689.1999999999999" y1="132.72776464647922" x2="731.4999999999999" y2="132.72776464647922" stroke="#000"/>
<line x1="689.1999999999999" y1="138.34699979141038" x2="731.4999999999999" y2="138.34699979141038" stroke="#000"/>
<line x1="710.3499999999999" y1="132.72776464647922" x2="710.3499999999999" y2="138.34699979141038" stroke="#000"/>
<line x1="689.1999999999999" y1="498.0" x2="689.1999999999999" y2="502.79999999999995" stroke="#000"/>
<text x="689.1999999999999" y="512.4" fill="#111" font-size="small" font-family="monospace" font-weight="bold" text-anchor="end" transform="rotate(-60, 689.1999999999999, 512.4)">
psych-load
</text>
<rect x="773.8" y="194.4755124867022" width="42.3" height="303.5244875132977" fill="#7070f8" data-tooltip="1.00x No-JIT time (No JIT)"/>
<line x1="773.8" y1="190.6562639952322" x2="816.0999999999999" y2="190.6562639952322" stroke="#000"/>
<line x1="773.8" y1="198.2947609781722" x2="816.0999999999999" y2="198.2947609781722" stroke="#000"/>
<line x1="794.9499999999999" y1="190.6562639952322" x2="794.9499999999999" y2="198.2947609781722" stroke="#000"/>
<rect x="816.0999999999999" y="200.14315290658743" width="42.3" height="297.8568470934125" fill="orange" data-tooltip="0.98x No-JIT time (MJIT)"/>
<line x1="816.0999999999999" y1="195.22492870549857" x2="858.4" y2="195.22492870549857" stroke="#000"/>
<line x1="816.0999999999999" y1="205.06137710767626" x2="858.4" y2="205.06137710767626" stroke="#000"/>
<line x1="837.2499999999999" y1="195.22492870549857" x2="837.2499999999999" y2="205.06137710767626" stroke="#000"/>
<rect x="858.4" y="149.51076859248627" width="42.3" height="348.48923140751367" fill="green" data-tooltip="1.15x No-JIT time (YJIT)"/>
<line x1="858.4" y1="142.5490991493095" x2="900.6999999999999" y2="142.5490991493095" stroke="#000"/>
<line x1="858.4" y1="156.472438035663" x2="900.6999999999999" y2="156.472438035663" stroke="#000"/>
<line x1="879.55" y1="142.5490991493095" x2="879.55" y2="156.472438035663" stroke="#000"/>
<line x1="858.4" y1="498.0" x2="858.4" y2="502.79999999999995" stroke="#000"/>
<text x="858.4" y="512.4" fill="#111" font-size="small" font-family="monospace" font-weight="bold" text-anchor="end" transform="rotate(-60, 858.4, 512.4)">
railsbench
</text>
</svg>