<svg viewBox="0 0 1000 600" xmlns="http://www.w3.org/2000/svg" xmlns:xlink="http://www.w3.org/1999/xlink" width="100%" height="100%">

<rect x="50.0" y="30.0" width="940.0" height="467.99999999999994" stroke="#000" fill="#EEE"/>
<line x1="42.0" y1="497.9999999999999" x2="50.0" y2="497.9999999999999" stroke="#000"/>
<text x="26.000000000000004" y="497.9999999999999" text-anchor="end" font-weight="bold" font-size="small" fill="#111">
0.0
</text>
<line x1="42.0" y1="415.0150714987566" x2="50.0" y2="415.0150714987566" stroke="#000"/>
<text x="26.000000000000004" y="415.0150714987566" text-anchor="end" font-weight="bold" font-size="small" fill="#111">
0.5
</text>
<line x1="42.0" y1="332.0301429975132" x2="50.0" y2="332.0301429975132" stroke="#000"/>
<text x="26.000000000000004" y="332.0301429975132" text-anchor="end" font-weight="bold" font-size="small" fill="#111">
1.0
</text>
<line x1="42.0" y1="249.04521449626992" x2="50.0" y2="249.04521449626992" stroke="#000"/>
<text x="26.000000000000004" y="249.04521449626992" text-anchor="end" font-weight="bold" font-size="small" fill="#111">
1.5
</text>
<line x1="42.0" y1="166.0602859950266" x2="50.0" y2="166.0602859950266" stroke="#000"/>
<text x="26.000000000000004" y="166.0602859950266" text-anchor="end" font-weight="bold" font-size="small" fill="#111">
2.0
</text>
<rect x="197.99999999999997" y="36.00000000000001" width="80.0" height="18.0" fill="#7070f8" stroke="#888"/>
<text x="238.0" y="52.50000000000001" font-size="small" text-anchor="middle" font-weight="bold" fill="#EEE">
No JIT
</text>
<rect x="479.99999999999994" y="36.00000000000001" width="80.0" height="18.0" fill="orange" stroke="#888"/>
<text x="519.9999999999999" y="52.50000000000001" font-size="small" text-anchor="middle" font-weight="bold" fill="#EEE">
MJIT
</text>
<rect x="761.9999999999999" y="36.00000000000001" width="80.0" height="18.0" fill="green" stroke="#888"/>
<text x="801.9999999999999" y="52.50000000000001" font-size="small" text-anchor="middle" font-weight="bold" fill="#EEE">
YJIT
</text>
<rect x="97.0" y="332.0301429975132" width="21.15" height="165.96985700248666" fill="#7070f8" data-tooltip="1.00x baseline speed (No JIT)"/>
<line x1="97.0" y1="331.97390740756646" x2="118.15" y2="331.97390740756646" stroke="#000"/>
<line x1="97.0" y1="332.08637858746" x2="118.15" y2="332.08637858746" stroke="#000"/>
<line x1="107.575" y1="331.97390740756646" x2="107.575" y2="332.08637858746" stroke="#000"/>
<rect x="118.15" y="245.83176020962742" width="21.15" height="252.16823979037252" fill="orange" data-tooltip="1.52x baseline speed (MJIT)"/>
<line x1="118.15" y1="245.00550593492292" x2="139.3" y2="245.00550593492292" stroke="#000"/>
<line x1="118.15" y1="246.65801448433194" x2="139.3" y2="246.65801448433194" stroke="#000"/>
<line x1="128.725" y1="245.00550593492292" x2="128.725" y2="246.65801448433194" stroke="#000"/>
<rect x="139.3" y="282.82934812890807" width="21.15" height="215.17065187109185" fill="green" data-tooltip="1.30x baseline speed (YJIT)"/>
<line x1="139.3" y1="282.5088540582148" x2="160.45000000000002" y2="282.5088540582148" stroke="#000"/>
<line x1="139.3" y1="283.1498421996013" x2="160.45000000000002" y2="283.1498421996013" stroke="#000"/>
<line x1="149.875" y1="282.5088540582148" x2="149.875" y2="283.1498421996013" stroke="#000"/>
<line x1="139.3" y1="498.0" x2="139.3" y2="502.79999999999995" stroke="#000"/>
<text x="139.3" y="512.4" fill="#111" font-size="small" font-family="monospace" font-weight="bold" text-anchor="end" transform="rotate(-60, 139.3, 512.4)">
binarytrees
</text>
<rect x="181.6" y="332.0301429975132" width="21.15" height="165.96985700248666" fill="#7070f8" data-tooltip="1.00x baseline speed (No JIT)"/>
<line x1="181.6" y1="331.9369628328682" x2="202.75" y2="331.9369628328682" stroke="#000"/>
<line x1="181.6" y1="332.12332316215833" x2="202.75" y2="332.12332316215833" stroke="#000"/>
<line x1="192.17499999999998" y1="331.9369628328682" x2="192.17499999999998" y2="332.12332316215833" stroke="#000"/>
<rect x="202.75" y="296.7295311327285" width="21.15" height="201.27046886727146" fill="orange" data-tooltip="1.21x baseline speed (MJIT)"/>
<line x1="202.75" y1="295.9562991840387" x2="223.89999999999998" y2="295.9562991840387" stroke="#000"/>
<line x1="202.75" y1="297.50276308141827" x2="223.89999999999998" y2="297.50276308141827" stroke="#000"/>
<line x1="213.325" y1="295.9562991840387" x2="213.325" y2="297.50276308141827" stroke="#000"/>
<rect x="223.89999999999998" y="256.3084121239089" width="21.15" height="241.691587876091" fill="green" data-tooltip="1.46x baseline speed (YJIT)"/>
<line x1="223.89999999999998" y1="256.0079661483933" x2="245.04999999999998" y2="256.0079661483933" stroke="#000"/>
<line x1="223.89999999999998" y1="256.6088580994246" x2="245.04999999999998" y2="256.6088580994246" stroke="#000"/>
<line x1="234.475" y1="256.0079661483933" x2="234.475" y2="256.6088580994246" stroke="#000"/>
<line x1="223.89999999999998" y1="498.0" x2="223.89999999999998" y2="502.79999999999995" stroke="#000"/>
<text x="223.89999999999998" y="512.4" fill="#111" font-size="small" font-family="monospace" font-weight="bold" text-anchor="end" transform="rotate(-60, 223.89999999999998, 512.4)">
chunky_png
</text>
<rect x="266.2" y="332.0301429975132" width="21.15" height="165.96985700248666" fill="#7070f8" data-tooltip="1.00x baseline speed (No JIT)"/>
<line x1="266.2" y1="322.99564476281756" x2="287.35" y2="322.99564476281756" stroke="#000"/>
<line x1="266.2" y1="341.0646412322089" x2="287.35" y2="341.0646412322089" stroke="#000"/>
<line x1="276.775" y1="322.99564476281756" x2="276.775" y2="341.0646412322089" stroke="#000"/>
<rect x="287.35" y="341.60527094668834" width="21.15" height="156.39472905331164" fill="orange" data-tooltip="0.94x baseline speed (MJIT)"/>
<line x1="287.35" y1="326.0617432573657" x2="308.5" y2="326.0617432573657" stroke="#000"/>
<line x1="287.35" y1="357.14879863601095" x2="308.5" y2="357.14879863601095" stroke="#000"/>
<line x1="297.925" y1="326.0617432573657" x2="297.925" y2="357.14879863601095" stroke="#000"/>
<rect x="308.5" y="308.35162728658787" width="21.15" height="189.64837271341207" fill="green" data-tooltip="1.14x baseline speed (YJIT)"/>
<line x1="308.5" y1="297.35691235271526" x2="329.65" y2="297.35691235271526" stroke="#000"/>
<line x1="308.5" y1="319.34634222046054" x2="329.65" y2="319.34634222046054" stroke="#000"/>
<line x1="319.075" y1="297.35691235271526" x2="319.075" y2="319.34634222046054" stroke="#000"/>
<line x1="308.5" y1="498.0" x2="308.5" y2="502.79999999999995" stroke="#000"/>
<text x="308.5" y="512.4" fill="#111" font-size="small" font-family="monospace" font-weight="bold" text-anchor="end" transform="rotate(-60, 308.5, 512.4)">
discourse
</text>
<rect x="350.8" y="332.0301429975132" width="21.15" height="165.96985700248666" fill="#7070f8" data-tooltip="1.00x baseline speed (No JIT)"/>
<line x1="350.8" y1="330.79790855082064" x2="371.95" y2="330.79790855082064" stroke="#000"/>
<line x1="350.8" y1="333.2623774442058" x2="371.95" y2="333.2623774442058" stroke="#000"/>
<line x1="361.375" y1="330.79790855082064" x2="361.375" y2="333.2623774442058" stroke="#000"/>
<rect x="371.95" y="319.75491738816135" width="21.15" height="178.24508261183857" fill="orange" data-tooltip="1.07x baseline speed (MJIT)"/>
<line x1="371.95" y1="318.00108184167027" x2="393.1" y2="318.00108184167027" stroke="#000"/>
<line x1="371.95" y1="321.5087529346524" x2="393.1" y2="321.5087529346524" stroke="#000"/>
<line x1="382.525" y1="318.00108184167027" x2="382.525" y2="321.5087529346524" stroke="#000"/>
<rect x="393.1" y="304.3298637538935" width="21.15" height="193.6701362461064" fill="green" data-tooltip="1.17x baseline speed (YJIT)"/>
<line x1="393.1" y1="302.399681734323" x2="414.25" y2="302.399681734323" stroke="#000"/>
<line x1="393.1" y1="306.26004577346407" x2="414.25" y2="306.26004577346407" stroke="#000"/>
<line x1="403.675" y1="302.399681734323" x2="403.675" y2="306.26004577346407" stroke="#000"/>
<line x1="393.1" y1="498.0" x2="393.1" y2="502.79999999999995" stroke="#000"/>
<text x="393.1" y="512.4" fill="#111" font-size="small" font-family="monospace" font-weight="bold" text-anchor="end" transform="rotate(-60, 393.1, 512.4)">
erubi
</text>
<rect x="435.40000000000003" y="332.0301429975132" width="21.15" height="165.96985700248666" fill="#7070f8" data-tooltip="1.00x baseline speed (No JIT)"/>
<line x1="435.40000000000003" y1="328.32700571419537" x2="456.55" y2="328.32700571419537" stroke="#000"/>
<line x1="435.40000000000003" y1="335.7332802808311" x2="456.55" y2="335.7332802808311" stroke="#000"/>
<line x1="445.975" y1="328.32700571419537" x2="445.975" y2="335.7332802808311" stroke="#000"/>
<rect x="456.55" y="347.350561668955" width="21.15" height="150.64943833104502" fill="orange" data-tooltip="0.91x baseline speed (MJIT)"/>
<line x1="456.55" y1="340.1122888452515" x2="477.7" y2="340.1122888452515" stroke="#000"/>
<line x1="456.55" y1="354.58883449265846" x2="477.7" y2="354.58883449265846" stroke="#000"/>
<line x1="467.125" y1="340.1122888452515" x2="467.125" y2="354.58883449265846" stroke="#000"/>
<rect x="477.7" y="271.4643812329926" width="21.15" height="226.53561876700732" fill="green" data-tooltip="1.36x baseline speed (YJIT)"/>
<line x1="477.7" y1="261.5194797990231" x2="498.85" y2="261.5194797990231" stroke="#000"/>
<line x1="477.7" y1="281.40928266696216" x2="498.85" y2="281.40928266696216" stroke="#000"/>
<line x1="488.27500000000003" y1="261.5194797990231" x2="488.27500000000003" y2="281.40928266696216" stroke="#000"/>
<line x1="477.7" y1="498.0" x2="477.7" y2="502.79999999999995" stroke="#000"/>
<text x="477.7" y="512.4" fill="#111" font-size="small" font-family="monospace" font-weight="bold" text-anchor="end" transform="rotate(-60, 477.7, 512.4)">
erubi_rails
</text>
<rect x="520.0" y="332.0301429975132" width="21.15" height="165.96985700248666" fill="#7070f8" data-tooltip="1.00x baseline speed (No JIT)"/>
<line x1="520.0" y1="331.7737329051534" x2="541.15" y2="331.7737329051534" stroke="#000"/>
<line x1="520.0" y1="332.28655308987305" x2="541.15" y2="332.28655308987305" stroke="#000"/>
<line x1="530.575" y1="331.7737329051534" x2="530.575" y2="332.28655308987305" stroke="#000"/>
<rect x="541.15" y="246.8207351071888" width="21.15" height="251.17926489281115" fill="orange" data-tooltip="1.51x baseline speed (MJIT)"/>
<line x1="541.15" y1="246.09869427139736" x2="562.3000000000001" y2="246.09869427139736" stroke="#000"/>
<line x1="541.15" y1="247.5427759429802" x2="562.3000000000001" y2="247.5427759429802" stroke="#000"/>
<line x1="551.725" y1="246.09869427139736" x2="551.725" y2="247.5427759429802" stroke="#000"/>
<rect x="562.3000000000001" y="333.67256038704744" width="21.15" height="164.32743961295247" fill="green" data-tooltip="0.99x baseline speed (YJIT)"/>
<line x1="562.3000000000001" y1="333.34343939455044" x2="583.45" y2="333.34343939455044" stroke="#000"/>
<line x1="562.3000000000001" y1="334.0016813795445" x2="583.45" y2="334.0016813795445" stroke="#000"/>
<line x1="572.875" y1="333.34343939455044" x2="572.875" y2="334.0016813795445" stroke="#000"/>
<line x1="562.3000000000001" y1="498.0" x2="562.3000000000001" y2="502.79999999999995" stroke="#000"/>
<text x="562.3000000000001" y="512.4" fill="#111" font-size="small" font-family="monospace" font-weight="bold" text-anchor="end" transform="rotate(-60, 562.3000000000001, 512.4)">
fannkuchredux
</text>
<rect x="604.5999999999999" y="332.0301429975132" width="21.15" height="165.96985700248666" fill="#7070f8" data-tooltip="1.00x baseline speed (No JIT)"/>
<line x1="604.5999999999999" y1="331.0310939011448" x2="625.7499999999999" y2="331.0310939011448" stroke="#000"/>
<line x1="604.5999999999999" y1="333.0291920938817" x2="625.7499999999999" y2="333.0291920938817" stroke="#000"/>
<line x1="615.175" y1="331.0310939011448" x2="615.175" y2="333.0291920938817" stroke="#000"/>
<rect x="625.7499999999999" y="294.769513330215" width="21.15" height="203.23048666978497" fill="orange" data-tooltip="1.22x baseline speed (MJIT)"/>
<line x1="625.7499999999999" y1="293.4680091566812" x2="646.8999999999999" y2="293.4680091566812" stroke="#000"/>
<line x1="625.7499999999999" y1="296.07101750374875" x2="646.8999999999999" y2="296.07101750374875" stroke="#000"/>
<line x1="636.3249999999999" y1="293.4680091566812" x2="636.3249999999999" y2="296.07101750374875" stroke="#000"/>
<rect x="646.8999999999999" y="269.7050658290279" width="21.15" height="228.29493417097206" fill="green" data-tooltip="1.38x baseline speed (YJIT)"/>
<line x1="646.8999999999999" y1="266.37637156135486" x2="668.05" y2="266.37637156135486" stroke="#000"/>
<line x1="646.8999999999999" y1="273.033760096701" x2="668.05" y2="273.033760096701" stroke="#000"/>
<line x1="657.4749999999999" y1="266.37637156135486" x2="657.4749999999999" y2="273.033760096701" stroke="#000"/>
<line x1="646.8999999999999" y1="498.0" x2="646.8999999999999" y2="502.79999999999995" stroke="#000"/>
<text x="646.8999999999999" y="512.4" fill="#111" font-size="small" font-family="monospace" font-weight="bold" text-anchor="end" transform="rotate(-60, 646.8999999999999, 512.4)">
lee
</text>
<rect x="689.1999999999999" y="332.0301429975132" width="21.15" height="165.96985700248666" fill="#7070f8" data-tooltip="1.00x baseline speed (No JIT)"/>
<line x1="689.1999999999999" y1="331.9341687413618" x2="710.3499999999999" y2="331.9341687413618" stroke="#000"/>
<line x1="689.1999999999999" y1="332.1261172536647" x2="710.3499999999999" y2="332.1261172536647" stroke="#000"/>
<line x1="699.775" y1="331.9341687413618" x2="699.775" y2="332.1261172536647" stroke="#000"/>
<rect x="710.3499999999999" y="218.53140581766374" width="21.15" height="279.46859418233623" fill="orange" data-tooltip="1.68x baseline speed (MJIT)"/>
<line x1="710.3499999999999" y1="218.04041834851932" x2="731.4999999999999" y2="218.04041834851932" stroke="#000"/>
<line x1="710.3499999999999" y1="219.02239328680812" x2="731.4999999999999" y2="219.02239328680812" stroke="#000"/>
<line x1="720.925" y1="218.04041834851932" x2="720.925" y2="219.02239328680812" stroke="#000"/>
<rect x="731.4999999999999" y="273.8786317015836" width="21.15" height="224.12136829841637" fill="green" data-tooltip="1.35x baseline speed (YJIT)"/>
<line x1="731.4999999999999" y1="272.84512324081913" x2="752.65" y2="272.84512324081913" stroke="#000"/>
<line x1="731.4999999999999" y1="274.912140162348" x2="752.65" y2="274.912140162348" stroke="#000"/>
<line x1="742.0749999999999" y1="272.84512324081913" x2="742.0749999999999" y2="274.912140162348" stroke="#000"/>
<line x1="731.4999999999999" y1="498.0" x2="731.4999999999999" y2="502.79999999999995" stroke="#000"/>
<text x="731.4999999999999" y="512.4" fill="#111" font-size="small" font-family="monospace" font-weight="bold" text-anchor="end" transform="rotate(-60, 731.4999999999999, 512.4)">
nbody
</text>
<rect x="773.8" y="332.0301429975132" width="21.15" height="165.96985700248666" fill="#7070f8" data-tooltip="1.00x baseline speed (No JIT)"/>
<line x1="773.8" y1="331.328634350468" x2="794.9499999999999" y2="331.328634350468" stroke="#000"/>
<line x1="773.8" y1="332.73165164455844" x2="794.9499999999999" y2="332.73165164455844" stroke="#000"/>
<line x1="784.3749999999999" y1="331.328634350468" x2="784.3749999999999" y2="332.73165164455844" stroke="#000"/>
<rect x="794.9499999999999" y="100.19999999999999" width="21.15" height="397.79999999999995" fill="orange" data-tooltip="2.40x baseline speed (MJIT)"/>
<line x1="794.9499999999999" y1="97.25722452592608" x2="816.0999999999999" y2="97.25722452592608" stroke="#000"/>
<line x1="794.9499999999999" y1="103.1427754740739" x2="816.0999999999999" y2="103.1427754740739" stroke="#000"/>
<line x1="805.525" y1="97.25722452592608" x2="805.525" y2="103.1427754740739" stroke="#000"/>
<rect x="816.0999999999999" y="200.50771763244043" width="21.15" height="297.49228236755954" fill="green" data-tooltip="1.79x baseline speed (YJIT)"/>
<line x1="816.0999999999999" y1="198.28765198574493" x2="837.2499999999999" y2="198.28765198574493" stroke="#000"/>
<line x1="816.0999999999999" y1="202.7277832791359" x2="837.2499999999999" y2="202.7277832791359" stroke="#000"/>
<line x1="826.675" y1="198.28765198574493" x2="826.675" y2="202.7277832791359" stroke="#000"/>
<line x1="816.0999999999999" y1="498.0" x2="816.0999999999999" y2="502.79999999999995" stroke="#000"/>
<text x="816.0999999999999" y="512.4" fill="#111" font-size="small" font-family="monospace" font-weight="bold" text-anchor="end" transform="rotate(-60, 816.0999999999999, 512.4)">
optcarrot
</text>
<rect x="858.4" y="332.0301429975132" width="21.15" height="165.96985700248666" fill="#7070f8" data-tooltip="1.00x baseline speed (No JIT)"/>
<line x1="858.4" y1="329.17801506497824" x2="879.55" y2="329.17801506497824" stroke="#000"/>
<line x1="858.4" y1="334.8822709300482" x2="879.55" y2="334.8822709300482" stroke="#000"/>
<line x1="868.9749999999999" y1="329.17801506497824" x2="868.9749999999999" y2="334.8822709300482" stroke="#000"/>
<rect x="879.55" y="257.3514945111497" width="21.15" height="240.64850548885025" fill="orange" data-tooltip="1.45x baseline speed (MJIT)"/>
<line x1="879.55" y1="248.84117936939015" x2="900.6999999999999" y2="248.84117936939015" stroke="#000"/>
<line x1="879.55" y1="265.86180965290924" x2="900.6999999999999" y2="265.86180965290924" stroke="#000"/>
<line x1="890.125" y1="248.84117936939015" x2="890.125" y2="265.86180965290924" stroke="#000"/>
<rect x="900.6999999999999" y="213.84921160729618" width="21.15" height="284.15078839270376" fill="green" data-tooltip="1.71x baseline speed (YJIT)"/>
<line x1="900.6999999999999" y1="199.11904212317447" x2="921.8499999999999" y2="199.11904212317447" stroke="#000"/>
<line x1="900.6999999999999" y1="228.5793810914179" x2="921.8499999999999" y2="228.5793810914179" stroke="#000"/>
<line x1="911.275" y1="199.11904212317447" x2="911.275" y2="228.5793810914179" stroke="#000"/>
<line x1="900.6999999999999" y1="498.0" x2="900.6999999999999" y2="502.79999999999995" stroke="#000"/>
<text x="900.6999999999999" y="512.4" fill="#111" font-size="small" font-family="monospace" font-weight="bold" text-anchor="end" transform="rotate(-60, 900.6999999999999, 512.4)">
rubykon
</text>
</svg>