<svg viewBox="0 0 1000 600" xmlns="http://www.w3.org/2000/svg" xmlns:xlink="http://www.w3.org/1999/xlink" width="100%" height="100%">

<rect x="50.0" y="30.0" width="940.0" height="467.99999999999994" stroke="#000" fill="#EEE"/>
<line x1="42.0" y1="497.9999999999999" x2="50.0" y2="497.9999999999999" stroke="#000"/>
<text x="26.000000000000004" y="497.9999999999999" text-anchor="end" font-weight="bold" font-size="small" fill="#111">
0.0
</text>
<line x1="42.0" y1="446.0991529332338" x2="50.0" y2="446.0991529332338" stroke="#000"/>
<text x="26.000000000000004" y="446.0991529332338" text-anchor="end" font-weight="bold" font-size="small" fill="#111">
1.0
</text>
<line x1="42.0" y1="394.19830586646765" x2="50.0" y2="394.19830586646765" stroke="#000"/>
<text x="26.000000000000004" y="394.19830586646765" text-anchor="end" font-weight="bold" font-size="small" fill="#111">
2.0
</text>
<line x1="42.0" y1="342.2974587997015" x2="50.0" y2="342.2974587997015" stroke="#000"/>
<text x="26.000000000000004" y="342.2974587997015" text-anchor="end" font-weight="bold" font-size="small" fill="#111">
3.0
</text>
<line x1="42.0" y1="290.39661173293536" x2="50.0" y2="290.39661173293536" stroke="#000"/>
<text x="26.000000000000004" y="290.39661173293536" text-anchor="end" font-weight="bold" font-size="small" fill="#111">
4.0
</text>
<line x1="42.0" y1="238.4957646661692" x2="50.0" y2="238.4957646661692" stroke="#000"/>
<text x="26.000000000000004" y="238.4957646661692" text-anchor="end" font-weight="bold" font-size="small" fill="#111">
5.0
</text>
<line x1="42.0" y1="186.59491759940306" x2="50.0" y2="186.59491759940306" stroke="#000"/>
<text x="26.000000000000004" y="186.59491759940306" text-anchor="end" font-weight="bold" font-size="small" fill="#111">
6.0
</text>
<line x1="42.0" y1="134.69407053263689" x2="50.0" y2="134.69407053263689" stroke="#000"/>
<text x="26.000000000000004" y="134.69407053263689" text-anchor="end" font-weight="bold" font-size="small" fill="#111">
7.0
</text>
<rect x="197.99999999999997" y="36.00000000000001" width="80.0" height="18.0" fill="#7070f8" stroke="#888"/>
<text x="238.0" y="52.50000000000001" font-size="small" text-anchor="middle" font-weight="bold" fill="#EEE">
No JIT
</text>
<rect x="479.99999999999994" y="36.00000000000001" width="80.0" height="18.0" fill="orange" stroke="#888"/>
<text x="519.9999999999999" y="52.50000000000001" font-size="small" text-anchor="middle" font-weight="bold" fill="#EEE">
MJIT
</text>
<rect x="761.9999999999999" y="36.00000000000001" width="80.0" height="18.0" fill="green" stroke="#888"/>
<text x="801.9999999999999" y="52.50000000000001" font-size="small" text-anchor="middle" font-weight="bold" fill="#EEE">
YJIT
</text>
<rect x="97.0" y="446.0991529332338" width="8.46" height="51.900847066766154" fill="#7070f8" data-tooltip="1.00x baseline speed (No JIT)"/>
<line x1="97.0" y1="445.90912711447874" x2="105.46" y2="445.90912711447874" stroke="#000"/>
<line x1="97.0" y1="446.28917875198897" x2="105.46" y2="446.28917875198897" stroke="#000"/>
<line x1="101.23" y1="445.90912711447874" x2="101.23" y2="446.28917875198897" stroke="#000"/>
<rect x="105.46" y="451.81407987047305" width="8.46" height="46.1859201295269" fill="orange" data-tooltip="0.89x baseline speed (MJIT)"/>
<line x1="105.46" y1="450.0668004222551" x2="113.91999999999999" y2="450.0668004222551" stroke="#000"/>
<line x1="105.46" y1="453.561359318691" x2="113.91999999999999" y2="453.561359318691" stroke="#000"/>
<line x1="109.69" y1="450.0668004222551" x2="109.69" y2="453.561359318691" stroke="#000"/>
<rect x="113.92" y="422.32189513941125" width="8.46" height="75.67810486058862" fill="green" data-tooltip="1.46x baseline speed (YJIT)"/>
<line x1="113.92" y1="421.8510849989718" x2="122.38000000000001" y2="421.8510849989718" stroke="#000"/>
<line x1="113.92" y1="422.7927052798507" x2="122.38000000000001" y2="422.7927052798507" stroke="#000"/>
<line x1="118.15" y1="421.8510849989718" x2="118.15" y2="422.7927052798507" stroke="#000"/>
<line x1="113.92" y1="498.0" x2="113.92" y2="502.79999999999995" stroke="#000"/>
<text x="113.92" y="512.4" fill="#111" font-size="small" font-family="monospace" font-weight="bold" text-anchor="end" transform="rotate(-60, 113.92, 512.4)">
activerecord
</text>
<rect x="130.84" y="446.0991529332338" width="8.46" height="51.900847066766154" fill="#7070f8" data-tooltip="1.00x baseline speed (No JIT)"/>
<line x1="130.84" y1="445.5136411548534" x2="139.3" y2="445.5136411548534" stroke="#000"/>
<line x1="130.84" y1="446.6846647116143" x2="139.3" y2="446.6846647116143" stroke="#000"/>
<line x1="135.07000000000002" y1="445.5136411548534" x2="135.07000000000002" y2="446.6846647116143" stroke="#000"/>
<rect x="147.76" y="427.46259235912316" width="8.46" height="70.53740764087681" fill="green" data-tooltip="1.36x baseline speed (YJIT)"/>
<line x1="147.76" y1="426.19081230408" x2="156.22" y2="426.19081230408" stroke="#000"/>
<line x1="147.76" y1="428.73437241416633" x2="156.22" y2="428.73437241416633" stroke="#000"/>
<line x1="151.99" y1="426.19081230408" x2="151.99" y2="428.73437241416633" stroke="#000"/>
<line x1="147.76" y1="498.0" x2="147.76" y2="502.79999999999995" stroke="#000"/>
<text x="147.76" y="512.4" fill="#111" font-size="small" font-family="monospace" font-weight="bold" text-anchor="end" transform="rotate(-60, 147.76, 512.4)">
hexapdf
</text>
<rect x="164.68" y="446.0991529332338" width="8.46" height="51.900847066766154" fill="#7070f8" data-tooltip="1.00x baseline speed (No JIT)"/>
<line x1="164.68" y1="445.51753291890736" x2="173.14" y2="445.51753291890736" stroke="#000"/>
<line x1="164.68" y1="446.68077294756034" x2="173.14" y2="446.68077294756034" stroke="#000"/>
<line x1="168.91" y1="445.51753291890736" x2="168.91" y2="446.68077294756034" stroke="#000"/>
<rect x="173.14" y="444.0408799083927" width="8.46" height="53.959120091607296" fill="orange" data-tooltip="1.04x baseline speed (MJIT)"/>
<line x1="173.14" y1="443.1149697044118" x2="181.6" y2="443.1149697044118" stroke="#000"/>
<line x1="173.14" y1="444.96679011237353" x2="181.6" y2="444.96679011237353" stroke="#000"/>
<line x1="177.37" y1="443.1149697044118" x2="177.37" y2="444.96679011237353" stroke="#000"/>
<rect x="181.6" y="422.14564853176313" width="8.46" height="75.85435146823679" fill="green" data-tooltip="1.46x baseline speed (YJIT)"/>
<line x1="181.6" y1="420.50520124282707" x2="190.05999999999997" y2="420.50520124282707" stroke="#000"/>
<line x1="181.6" y1="423.7860958206992" x2="190.05999999999997" y2="423.7860958206992" stroke="#000"/>
<line x1="185.82999999999998" y1="420.50520124282707" x2="185.82999999999998" y2="423.7860958206992" stroke="#000"/>
<line x1="181.6" y1="498.0" x2="181.6" y2="502.79999999999995" stroke="#000"/>
<text x="181.6" y="512.4" fill="#111" font-size="small" font-family="monospace" font-weight="bold" text-anchor="end" transform="rotate(-60, 181.6, 512.4)">
liquid-render
</text>
<rect x="198.52" y="446.0991529332338" width="8.46" height="51.900847066766154" fill="#7070f8" data-tooltip="1.00x baseline speed (No JIT)"/>
<line x1="198.52" y1="444.91052937418914" x2="206.98" y2="444.91052937418914" stroke="#000"/>
<line x1="198.52" y1="447.28777649227857" x2="206.98" y2="447.28777649227857" stroke="#000"/>
<line x1="202.75" y1="444.91052937418914" x2="202.75" y2="447.28777649227857" stroke="#000"/>
<rect x="206.98" y="445.49150108202775" width="8.46" height="52.50849891797223" fill="orange" data-tooltip="1.01x baseline speed (MJIT)"/>
<line x1="206.98" y1="443.34889607817905" x2="215.44" y2="443.34889607817905" stroke="#000"/>
<line x1="206.98" y1="447.6341060858765" x2="215.44" y2="447.6341060858765" stroke="#000"/>
<line x1="211.21" y1="443.34889607817905" x2="211.21" y2="447.6341060858765" stroke="#000"/>
<rect x="215.44" y="440.57778397955" width="8.46" height="57.42221602044989" fill="green" data-tooltip="1.11x baseline speed (YJIT)"/>
<line x1="215.44" y1="438.5778965604539" x2="223.89999999999998" y2="438.5778965604539" stroke="#000"/>
<line x1="215.44" y1="442.57767139864615" x2="223.89999999999998" y2="442.57767139864615" stroke="#000"/>
<line x1="219.67000000000002" y1="438.5778965604539" x2="219.67000000000002" y2="442.57767139864615" stroke="#000"/>
<line x1="215.44" y1="498.0" x2="215.44" y2="502.79999999999995" stroke="#000"/>
<text x="215.44" y="512.4" fill="#111" font-size="small" font-family="monospace" font-weight="bold" text-anchor="end" transform="rotate(-60, 215.44, 512.4)">
mail
</text>
<rect x="232.36" y="446.0991529332338" width="8.46" height="51.900847066766154" fill="#7070f8" data-tooltip="1.00x baseline speed (No JIT)"/>
<line x1="232.36" y1="446.0432964878511" x2="240.82" y2="446.0432964878511" stroke="#000"/>
<line x1="232.36" y1="446.1550093786166" x2="240.82" y2="446.1550093786166" stroke="#000"/>
<line x1="236.59000000000003" y1="446.0432964878511" x2="236.59000000000003" y2="446.1550093786166" stroke="#000"/>
<rect x="240.82" y="437.77348057484454" width="8.46" height="60.22651942515537" fill="orange" data-tooltip="1.16x baseline speed (MJIT)"/>
<line x1="240.82" y1="437.6558333533434" x2="249.28" y2="437.6558333533434" stroke="#000"/>
<line x1="240.82" y1="437.8911277963457" x2="249.28" y2="437.8911277963457" stroke="#000"/>
<line x1="245.05" y1="437.6558333533434" x2="245.05" y2="437.8911277963457" stroke="#000"/>
<rect x="249.28" y="433.79477917381695" width="8.46" height="64.20522082618304" fill="green" data-tooltip="1.24x baseline speed (YJIT)"/>
<line x1="249.28" y1="433.7026287893125" x2="257.74" y2="433.7026287893125" stroke="#000"/>
<line x1="249.28" y1="433.8869295583214" x2="257.74" y2="433.8869295583214" stroke="#000"/>
<line x1="253.51000000000002" y1="433.7026287893125" x2="253.51000000000002" y2="433.8869295583214" stroke="#000"/>
<line x1="249.28" y1="498.0" x2="249.28" y2="502.79999999999995" stroke="#000"/>
<text x="249.28" y="512.4" fill="#111" font-size="small" font-family="monospace" font-weight="bold" text-anchor="end" transform="rotate(-60, 249.28, 512.4)">
psych-load
</text>
<rect x="266.2" y="446.0991529332338" width="8.46" height="51.900847066766154" fill="#7070f8" data-tooltip="1.00x baseline speed (No JIT)"/>
<line x1="266.2" y1="445.9555599508976" x2="274.66" y2="445.9555599508976" stroke="#000"/>
<line x1="266.2" y1="446.2427459155701" x2="274.66" y2="446.2427459155701" stroke="#000"/>
<line x1="270.43" y1="445.9555599508976" x2="270.43" y2="446.2427459155701" stroke="#000"/>
<rect x="274.66" y="453.0154847925039" width="8.46" height="44.98451520749611" fill="orange" data-tooltip="0.87x baseline speed (MJIT)"/>
<line x1="274.66" y1="452.7136795677129" x2="283.12000000000006" y2="452.7136795677129" stroke="#000"/>
<line x1="274.66" y1="453.3172900172949" x2="283.12000000000006" y2="453.3172900172949" stroke="#000"/>
<line x1="278.89000000000004" y1="452.7136795677129" x2="278.89000000000004" y2="453.3172900172949" stroke="#000"/>
<rect x="283.12" y="431.4258802341519" width="8.46" height="66.57411976584807" fill="green" data-tooltip="1.28x baseline speed (YJIT)"/>
<line x1="283.12" y1="430.8486188868395" x2="291.58" y2="430.8486188868395" stroke="#000"/>
<line x1="283.12" y1="432.00314158146426" x2="291.58" y2="432.00314158146426" stroke="#000"/>
<line x1="287.35" y1="430.8486188868395" x2="287.35" y2="432.00314158146426" stroke="#000"/>
<line x1="283.12" y1="498.0" x2="283.12" y2="502.79999999999995" stroke="#000"/>
<text x="283.12" y="512.4" fill="#111" font-size="small" font-family="monospace" font-weight="bold" text-anchor="end" transform="rotate(-60, 283.12, 512.4)">
railsbench
</text>
<rect x="300.03999999999996" y="446.0991529332338" width="8.46" height="51.900847066766154" fill="#7070f8" data-tooltip="1.00x baseline speed (No JIT)"/>
<line x1="300.03999999999996" y1="446.07713891844827" x2="308.5" y2="446.07713891844827" stroke="#000"/>
<line x1="300.03999999999996" y1="446.1211669480194" x2="308.5" y2="446.1211669480194" stroke="#000"/>
<line x1="304.27" y1="446.07713891844827" x2="304.27" y2="446.1211669480194" stroke="#000"/>
<rect x="308.5" y="419.0991264445281" width="8.46" height="78.90087355547183" fill="orange" data-tooltip="1.52x baseline speed (MJIT)"/>
<line x1="308.5" y1="418.85187485356954" x2="316.96000000000004" y2="418.85187485356954" stroke="#000"/>
<line x1="308.5" y1="419.3463780354867" x2="316.96000000000004" y2="419.3463780354867" stroke="#000"/>
<line x1="312.73" y1="418.85187485356954" x2="312.73" y2="419.3463780354867" stroke="#000"/>
<rect x="316.96" y="432.0051867043427" width="8.46" height="65.99481329565725" fill="green" data-tooltip="1.27x baseline speed (YJIT)"/>
<line x1="316.96" y1="431.9000290220347" x2="325.41999999999996" y2="431.9000290220347" stroke="#000"/>
<line x1="316.96" y1="432.11034438665064" x2="325.41999999999996" y2="432.11034438665064" stroke="#000"/>
<line x1="321.19" y1="431.9000290220347" x2="321.19" y2="432.11034438665064" stroke="#000"/>
<line x1="316.96" y1="498.0" x2="316.96" y2="502.79999999999995" stroke="#000"/>
<text x="316.96" y="512.4" fill="#111" font-size="small" font-family="monospace" font-weight="bold" text-anchor="end" transform="rotate(-60, 316.96, 512.4)">
binarytrees
</text>
<rect x="333.88" y="446.0991529332338" width="8.46" height="51.900847066766154" fill="#7070f8" data-tooltip="1.00x baseline speed (No JIT)"/>
<line x1="333.88" y1="445.9459179919409" x2="342.34000000000003" y2="445.9459179919409" stroke="#000"/>
<line x1="333.88" y1="446.25238787452673" x2="342.34000000000003" y2="446.25238787452673" stroke="#000"/>
<line x1="338.11" y1="445.9459179919409" x2="338.11" y2="446.25238787452673" stroke="#000"/>
<rect x="342.34000000000003" y="434.63757801369445" width="8.46" height="63.36242198630546" fill="orange" data-tooltip="1.22x baseline speed (MJIT)"/>
<line x1="342.34000000000003" y1="434.20511210717257" x2="350.80000000000007" y2="434.20511210717257" stroke="#000"/>
<line x1="342.34000000000003" y1="435.07004392021634" x2="350.80000000000007" y2="435.07004392021634" stroke="#000"/>
<line x1="346.57000000000005" y1="434.20511210717257" x2="346.57000000000005" y2="435.07004392021634" stroke="#000"/>
<rect x="350.8" y="421.9706561562001" width="8.46" height="76.02934384379978" fill="green" data-tooltip="1.46x baseline speed (YJIT)"/>
<line x1="350.8" y1="421.49997436265375" x2="359.26000000000005" y2="421.49997436265375" stroke="#000"/>
<line x1="350.8" y1="422.4413379497465" x2="359.26000000000005" y2="422.4413379497465" stroke="#000"/>
<line x1="355.03000000000003" y1="421.49997436265375" x2="355.03000000000003" y2="422.4413379497465" stroke="#000"/>
<line x1="350.8" y1="498.0" x2="350.8" y2="502.79999999999995" stroke="#000"/>
<text x="350.8" y="512.4" fill="#111" font-size="small" font-family="monospace" font-weight="bold" text-anchor="end" transform="rotate(-60, 350.8, 512.4)">
chunky_png
</text>
<rect x="367.72" y="446.0991529332338" width="8.46" height="51.900847066766154" fill="#7070f8" data-tooltip="1.00x baseline speed (No JIT)"/>
<line x1="367.72" y1="438.1740116136758" x2="376.18000000000006" y2="438.1740116136758" stroke="#000"/>
<line x1="367.72" y1="454.02429425279183" x2="376.18000000000006" y2="454.02429425279183" stroke="#000"/>
<line x1="371.95000000000005" y1="438.1740116136758" x2="371.95000000000005" y2="454.02429425279183" stroke="#000"/>
<rect x="376.18000000000006" y="444.1019246108863" width="8.46" height="53.89807538911372" fill="orange" data-tooltip="1.04x baseline speed (MJIT)"/>
<line x1="376.18000000000006" y1="432.45095615777154" x2="384.6400000000001" y2="432.45095615777154" stroke="#000"/>
<line x1="376.18000000000006" y1="455.75289306400094" x2="384.6400000000001" y2="455.75289306400094" stroke="#000"/>
<line x1="380.4100000000001" y1="432.45095615777154" x2="380.4100000000001" y2="455.75289306400094" stroke="#000"/>
<rect x="384.64000000000004" y="444.27658732753827" width="8.46" height="53.72341267246163" fill="green" data-tooltip="1.04x baseline speed (YJIT)"/>
<line x1="384.64000000000004" y1="431.11881672897476" x2="393.1000000000001" y2="431.11881672897476" stroke="#000"/>
<line x1="384.64000000000004" y1="457.43435792610177" x2="393.1000000000001" y2="457.43435792610177" stroke="#000"/>
<line x1="388.87000000000006" y1="431.11881672897476" x2="388.87000000000006" y2="457.43435792610177" stroke="#000"/>
<line x1="384.64000000000004" y1="498.0" x2="384.64000000000004" y2="502.79999999999995" stroke="#000"/>
<text x="384.64000000000004" y="512.4" fill="#111" font-size="small" font-family="monospace" font-weight="bold" text-anchor="end" transform="rotate(-60, 384.64000000000004, 512.4)">
discourse
</text>
<rect x="401.56" y="446.0991529332338" width="8.46" height="51.900847066766154" fill="#7070f8" data-tooltip="1.00x baseline speed (No JIT)"/>
<line x1="401.56" y1="445.7943987697786" x2="410.02000000000004" y2="445.7943987697786" stroke="#000"/>
<line x1="401.56" y1="446.4039070966891" x2="410.02000000000004" y2="446.4039070966891" stroke="#000"/>
<line x1="405.79" y1="445.7943987697786" x2="405.79" y2="446.4039070966891" stroke="#000"/>
<rect x="410.02000000000004" y="443.32584506743893" width="8.46" height="54.67415493256102" fill="orange" data-tooltip="1.05x baseline speed (MJIT)"/>
<line x1="410.02000000000004" y1="442.6004072599456" x2="418.4800000000001" y2="442.6004072599456" stroke="#000"/>
<line x1="410.02000000000004" y1="444.05128287493227" x2="418.4800000000001" y2="444.05128287493227" stroke="#000"/>
<line x1="414.25000000000006" y1="442.6004072599456" x2="414.25000000000006" y2="444.05128287493227" stroke="#000"/>
<rect x="418.48" y="435.8273240305757" width="8.46" height="62.17267596942416" fill="green" data-tooltip="1.20x baseline speed (YJIT)"/>
<line x1="418.48" y1="435.2703035855477" x2="426.94000000000005" y2="435.2703035855477" stroke="#000"/>
<line x1="418.48" y1="436.3843444756037" x2="426.94000000000005" y2="436.3843444756037" stroke="#000"/>
<line x1="422.71000000000004" y1="435.2703035855477" x2="422.71000000000004" y2="436.3843444756037" stroke="#000"/>
<line x1="418.48" y1="498.0" x2="418.48" y2="502.79999999999995" stroke="#000"/>
<text x="418.48" y="512.4" fill="#111" font-size="small" font-family="monospace" font-weight="bold" text-anchor="end" transform="rotate(-60, 418.48, 512.4)">
erubi
</text>
<rect x="435.40000000000003" y="446.0991529332338" width="8.46" height="51.900847066766154" fill="#7070f8" data-tooltip="1.00x baseline speed (No JIT)"/>
<line x1="435.40000000000003" y1="425.56482157095417" x2="443.86" y2="425.56482157095417" stroke="#000"/>
<line x1="435.40000000000003" y1="466.6334842955135" x2="443.86" y2="466.6334842955135" stroke="#000"/>
<line x1="439.63" y1="425.56482157095417" x2="439.63" y2="466.6334842955135" stroke="#000"/>
<rect x="443.86" y="450.4794011836313" width="8.46" height="47.52059881636857" fill="orange" data-tooltip="0.92x baseline speed (MJIT)"/>
<line x1="443.86" y1="422.72846876183957" x2="452.32000000000005" y2="422.72846876183957" stroke="#000"/>
<line x1="443.86" y1="478.2303336054231" x2="452.32000000000005" y2="478.2303336054231" stroke="#000"/>
<line x1="448.09000000000003" y1="422.72846876183957" x2="448.09000000000003" y2="478.2303336054231" stroke="#000"/>
<rect x="452.32" y="430.7625375506572" width="8.46" height="67.23746244934273" fill="green" data-tooltip="1.30x baseline speed (YJIT)"/>
<line x1="452.32" y1="385.7405994584844" x2="460.78000000000003" y2="385.7405994584844" stroke="#000"/>
<line x1="452.32" y1="475.78447564283" x2="460.78000000000003" y2="475.78447564283" stroke="#000"/>
<line x1="456.55" y1="385.7405994584844" x2="456.55" y2="475.78447564283" stroke="#000"/>
<line x1="452.32" y1="498.0" x2="452.32" y2="502.79999999999995" stroke="#000"/>
<text x="452.32" y="512.4" fill="#111" font-size="small" font-family="monospace" font-weight="bold" text-anchor="end" transform="rotate(-60, 452.32, 512.4)">
erubi_rails
</text>
<rect x="469.24" y="446.0991529332338" width="8.46" height="51.900847066766154" fill="#7070f8" data-tooltip="1.00x baseline speed (No JIT)"/>
<line x1="469.24" y1="446.0283662225529" x2="477.7" y2="446.0283662225529" stroke="#000"/>
<line x1="469.24" y1="446.16993964391474" x2="477.7" y2="446.16993964391474" stroke="#000"/>
<line x1="473.47" y1="446.0283662225529" x2="473.47" y2="446.16993964391474" stroke="#000"/>
<rect x="477.7" y="421.43608191718414" width="8.46" height="76.56391808281579" fill="orange" data-tooltip="1.48x baseline speed (MJIT)"/>
<line x1="477.7" y1="421.24278166341463" x2="486.16" y2="421.24278166341463" stroke="#000"/>
<line x1="477.7" y1="421.62938217095365" x2="486.16" y2="421.62938217095365" stroke="#000"/>
<line x1="481.93" y1="421.24278166341463" x2="481.93" y2="421.62938217095365" stroke="#000"/>
<rect x="486.15999999999997" y="447.3022551652875" width="8.46" height="50.697744834712424" fill="green" data-tooltip="0.98x baseline speed (YJIT)"/>
<line x1="486.15999999999997" y1="447.1833568893006" x2="494.62" y2="447.1833568893006" stroke="#000"/>
<line x1="486.15999999999997" y1="447.4211534412743" x2="494.62" y2="447.4211534412743" stroke="#000"/>
<line x1="490.39" y1="447.1833568893006" x2="490.39" y2="447.4211534412743" stroke="#000"/>
<line x1="486.15999999999997" y1="498.0" x2="486.15999999999997" y2="502.79999999999995" stroke="#000"/>
<text x="486.15999999999997" y="512.4" fill="#111" font-size="small" font-family="monospace" font-weight="bold" text-anchor="end" transform="rotate(-60, 486.15999999999997, 512.4)">
fannkuchredux
</text>
<rect x="503.08" y="446.0991529332338" width="8.46" height="51.900847066766154" fill="#7070f8" data-tooltip="1.00x baseline speed (No JIT)"/>
<line x1="503.08" y1="446.03608837670845" x2="511.54" y2="446.03608837670845" stroke="#000"/>
<line x1="503.08" y1="446.16221748975926" x2="511.54" y2="446.16221748975926" stroke="#000"/>
<line x1="507.30999999999995" y1="446.03608837670845" x2="507.30999999999995" y2="446.16221748975926" stroke="#000"/>
<rect x="511.54" y="435.96025345924636" width="8.46" height="62.03974654075356" fill="orange" data-tooltip="1.20x baseline speed (MJIT)"/>
<line x1="511.54" y1="435.76711735114355" x2="520.0" y2="435.76711735114355" stroke="#000"/>
<line x1="511.54" y1="436.1533895673491" x2="520.0" y2="436.1533895673491" stroke="#000"/>
<line x1="515.77" y1="435.76711735114355" x2="515.77" y2="436.1533895673491" stroke="#000"/>
<rect x="520.0" y="425.6918580193214" width="8.46" height="72.30814198067858" fill="green" data-tooltip="1.39x baseline speed (YJIT)"/>
<line x1="520.0" y1="424.50045804070106" x2="528.46" y2="424.50045804070106" stroke="#000"/>
<line x1="520.0" y1="426.88325799794177" x2="528.46" y2="426.88325799794177" stroke="#000"/>
<line x1="524.23" y1="424.50045804070106" x2="524.23" y2="426.88325799794177" stroke="#000"/>
<line x1="520.0" y1="498.0" x2="520.0" y2="502.79999999999995" stroke="#000"/>
<text x="520.0" y="512.4" fill="#111" font-size="small" font-family="monospace" font-weight="bold" text-anchor="end" transform="rotate(-60, 520.0, 512.4)">
lee
</text>
<rect x="536.9200000000001" y="446.0991529332338" width="8.46" height="51.900847066766154" fill="#7070f8" data-tooltip="1.00x baseline speed (No JIT)"/>
<line x1="536.9200000000001" y1="446.01305024488056" x2="545.3800000000001" y2="446.01305024488056" stroke="#000"/>
<line x1="536.9200000000001" y1="446.1852556215871" x2="545.3800000000001" y2="446.1852556215871" stroke="#000"/>
<line x1="541.15" y1="446.01305024488056" x2="541.15" y2="446.1852556215871" stroke="#000"/>
<rect x="545.3800000000001" y="410.8746925430252" width="8.46" height="87.12530745697472" fill="orange" data-tooltip="1.68x baseline speed (MJIT)"/>
<line x1="545.3800000000001" y1="410.69195416751944" x2="553.8400000000001" y2="410.69195416751944" stroke="#000"/>
<line x1="545.3800000000001" y1="411.05743091853094" x2="553.8400000000001" y2="411.05743091853094" stroke="#000"/>
<line x1="549.61" y1="410.69195416751944" x2="549.61" y2="411.05743091853094" stroke="#000"/>
<rect x="553.8400000000001" y="425.90918840757826" width="8.46" height="72.0908115924217" fill="green" data-tooltip="1.39x baseline speed (YJIT)"/>
<line x1="553.8400000000001" y1="425.5467599560516" x2="562.3000000000002" y2="425.5467599560516" stroke="#000"/>
<line x1="553.8400000000001" y1="426.27161685910494" x2="562.3000000000002" y2="426.27161685910494" stroke="#000"/>
<line x1="558.07" y1="425.5467599560516" x2="558.07" y2="426.27161685910494" stroke="#000"/>
<line x1="553.8400000000001" y1="498.0" x2="553.8400000000001" y2="502.79999999999995" stroke="#000"/>
<text x="553.8400000000001" y="512.4" fill="#111" font-size="small" font-family="monospace" font-weight="bold" text-anchor="end" transform="rotate(-60, 553.8400000000001, 512.4)">
nbody
</text>
<rect x="570.76" y="446.0991529332338" width="8.46" height="51.900847066766154" fill="#7070f8" data-tooltip="1.00x baseline speed (No JIT)"/>
<line x1="570.76" y1="445.86923601143667" x2="579.22" y2="445.86923601143667" stroke="#000"/>
<line x1="570.76" y1="446.32906985503104" x2="579.22" y2="446.32906985503104" stroke="#000"/>
<line x1="574.99" y1="445.86923601143667" x2="574.99" y2="446.32906985503104" stroke="#000"/>
<rect x="579.22" y="387.3779681102232" width="8.46" height="110.62203188977672" fill="orange" data-tooltip="2.13x baseline speed (MJIT)"/>
<line x1="579.22" y1="386.59769908639055" x2="587.6800000000001" y2="386.59769908639055" stroke="#000"/>
<line x1="579.22" y1="388.15823713405587" x2="587.6800000000001" y2="388.15823713405587" stroke="#000"/>
<line x1="583.45" y1="386.59769908639055" x2="583.45" y2="388.15823713405587" stroke="#000"/>
<rect x="587.6800000000001" y="407.7901466183395" width="8.46" height="90.20985338166051" fill="green" data-tooltip="1.74x baseline speed (YJIT)"/>
<line x1="587.6800000000001" y1="407.136939162756" x2="596.1400000000001" y2="407.136939162756" stroke="#000"/>
<line x1="587.6800000000001" y1="408.44335407392305" x2="596.1400000000001" y2="408.44335407392305" stroke="#000"/>
<line x1="591.9100000000001" y1="407.136939162756" x2="591.9100000000001" y2="408.44335407392305" stroke="#000"/>
<line x1="587.6800000000001" y1="498.0" x2="587.6800000000001" y2="502.79999999999995" stroke="#000"/>
<text x="587.6800000000001" y="512.4" fill="#111" font-size="small" font-family="monospace" font-weight="bold" text-anchor="end" transform="rotate(-60, 587.6800000000001, 512.4)">
optcarrot
</text>
<rect x="604.6" y="446.0991529332338" width="8.46" height="51.900847066766154" fill="#7070f8" data-tooltip="1.00x baseline speed (No JIT)"/>
<line x1="604.6" y1="445.07522654153166" x2="613.0600000000001" y2="445.07522654153166" stroke="#000"/>
<line x1="604.6" y1="447.12307932493604" x2="613.0600000000001" y2="447.12307932493604" stroke="#000"/>
<line x1="608.8299999999999" y1="445.07522654153166" x2="608.8299999999999" y2="447.12307932493604" stroke="#000"/>
<rect x="613.0600000000001" y="436.6984808527901" width="8.46" height="61.301519147209824" fill="orange" data-tooltip="1.18x baseline speed (MJIT)"/>
<line x1="613.0600000000001" y1="435.373783387395" x2="621.5200000000001" y2="435.373783387395" stroke="#000"/>
<line x1="613.0600000000001" y1="438.0231783181852" x2="621.5200000000001" y2="438.0231783181852" stroke="#000"/>
<line x1="617.29" y1="435.373783387395" x2="617.29" y2="438.0231783181852" stroke="#000"/>
<rect x="621.5200000000001" y="409.54569655451706" width="8.46" height="88.4543034454829" fill="green" data-tooltip="1.70x baseline speed (YJIT)"/>
<line x1="621.5200000000001" y1="405.93914640660336" x2="629.9800000000001" y2="405.93914640660336" stroke="#000"/>
<line x1="621.5200000000001" y1="413.15224670243083" x2="629.9800000000001" y2="413.15224670243083" stroke="#000"/>
<line x1="625.75" y1="405.93914640660336" x2="625.75" y2="413.15224670243083" stroke="#000"/>
<line x1="621.5200000000001" y1="498.0" x2="621.5200000000001" y2="502.79999999999995" stroke="#000"/>
<text x="621.5200000000001" y="512.4" fill="#111" font-size="small" font-family="monospace" font-weight="bold" text-anchor="end" transform="rotate(-60, 621.5200000000001, 512.4)">
rubykon
</text>
<rect x="638.44" y="446.0991529332338" width="8.46" height="51.900847066766154" fill="#7070f8" data-tooltip="1.00x baseline speed (No JIT)"/>
<line x1="638.44" y1="446.0929477173141" x2="646.9" y2="446.0929477173141" stroke="#000"/>
<line x1="638.44" y1="446.1053581491536" x2="646.9" y2="446.1053581491536" stroke="#000"/>
<line x1="642.67" y1="446.0929477173141" x2="642.67" y2="446.1053581491536" stroke="#000"/>
<rect x="646.9" y="464.42244565406463" width="8.46" height="33.57755434593531" fill="orange" data-tooltip="0.65x baseline speed (MJIT)"/>
<line x1="646.9" y1="463.15007535218035" x2="655.36" y2="463.15007535218035" stroke="#000"/>
<line x1="646.9" y1="465.69481595594885" x2="655.36" y2="465.69481595594885" stroke="#000"/>
<line x1="651.13" y1="463.15007535218035" x2="651.13" y2="465.69481595594885" stroke="#000"/>
<rect x="655.36" y="168.71150107121358" width="8.46" height="329.2884989287864" fill="green" data-tooltip="6.34x baseline speed (YJIT)"/>
<line x1="655.36" y1="168.11627539495393" x2="663.82" y2="168.11627539495393" stroke="#000"/>
<line x1="655.36" y1="169.30672674747322" x2="663.82" y2="169.30672674747322" stroke="#000"/>
<line x1="659.59" y1="168.11627539495393" x2="659.59" y2="169.30672674747322" stroke="#000"/>
<line x1="655.36" y1="498.0" x2="655.36" y2="502.79999999999995" stroke="#000"/>
<text x="655.36" y="512.4" fill="#111" font-size="small" font-family="monospace" font-weight="bold" text-anchor="end" transform="rotate(-60, 655.36, 512.4)">
30k_ifelse
</text>
<rect x="672.28" y="446.0991529332338" width="8.46" height="51.900847066766154" fill="#7070f8" data-tooltip="1.00x baseline speed (No JIT)"/>
<line x1="672.28" y1="446.0936870096085" x2="680.74" y2="446.0936870096085" stroke="#000"/>
<line x1="672.28" y1="446.10461885685913" x2="680.74" y2="446.10461885685913" stroke="#000"/>
<line x1="676.51" y1="446.0936870096085" x2="676.51" y2="446.10461885685913" stroke="#000"/>
<rect x="680.74" y="465.0294781770633" width="8.46" height="32.970521822936675" fill="orange" data-tooltip="0.64x baseline speed (MJIT)"/>
<line x1="680.74" y1="459.12483473112763" x2="689.2" y2="459.12483473112763" stroke="#000"/>
<line x1="680.74" y1="470.93412162299893" x2="689.2" y2="470.93412162299893" stroke="#000"/>
<line x1="684.9699999999999" y1="459.12483473112763" x2="684.9699999999999" y2="470.93412162299893" stroke="#000"/>
<rect x="689.2" y="114.66231387953725" width="8.46" height="383.3376861204627" fill="green" data-tooltip="7.39x baseline speed (YJIT)"/>
<line x1="689.2" y1="114.40563050546383" x2="697.6600000000001" y2="114.40563050546383" stroke="#000"/>
<line x1="689.2" y1="114.91899725361068" x2="697.6600000000001" y2="114.91899725361068" stroke="#000"/>
<line x1="693.43" y1="114.40563050546383" x2="693.43" y2="114.91899725361068" stroke="#000"/>
<line x1="689.2" y1="498.0" x2="689.2" y2="502.79999999999995" stroke="#000"/>
<text x="689.2" y="512.4" fill="#111" font-size="small" font-family="monospace" font-weight="bold" text-anchor="end" transform="rotate(-60, 689.2, 512.4)">
30k_methods
</text>
<rect x="706.12" y="446.0991529332338" width="8.46" height="51.900847066766154" fill="#7070f8" data-tooltip="1.00x baseline speed (No JIT)"/>
<line x1="706.12" y1="446.007048262103" x2="714.58" y2="446.007048262103" stroke="#000"/>
<line x1="706.12" y1="446.1912576043647" x2="714.58" y2="446.1912576043647" stroke="#000"/>
<line x1="710.3499999999999" y1="446.007048262103" x2="710.3499999999999" y2="446.1912576043647" stroke="#000"/>
<rect x="714.58" y="419.3659464767733" width="8.46" height="78.63405352322673" fill="orange" data-tooltip="1.52x baseline speed (MJIT)"/>
<line x1="714.58" y1="418.57677637435785" x2="723.04" y2="418.57677637435785" stroke="#000"/>
<line x1="714.58" y1="420.15511657918876" x2="723.04" y2="420.15511657918876" stroke="#000"/>
<line x1="718.81" y1="418.57677637435785" x2="718.81" y2="420.15511657918876" stroke="#000"/>
<rect x="723.04" y="377.9452394097053" width="8.46" height="120.05476059029466" fill="green" data-tooltip="2.31x baseline speed (YJIT)"/>
<line x1="723.04" y1="376.7056044392301" x2="731.5" y2="376.7056044392301" stroke="#000"/>
<line x1="723.04" y1="379.1848743801805" x2="731.5" y2="379.1848743801805" stroke="#000"/>
<line x1="727.27" y1="376.7056044392301" x2="727.27" y2="379.1848743801805" stroke="#000"/>
<line x1="723.04" y1="498.0" x2="723.04" y2="502.79999999999995" stroke="#000"/>
<text x="723.04" y="512.4" fill="#111" font-size="small" font-family="monospace" font-weight="bold" text-anchor="end" transform="rotate(-60, 723.04, 512.4)">
cfunc_itself
</text>
<rect x="739.96" y="446.0991529332338" width="8.46" height="51.900847066766154" fill="#7070f8" data-tooltip="1.00x baseline speed (No JIT)"/>
<line x1="739.96" y1="446.0651817981629" x2="748.4200000000001" y2="446.0651817981629" stroke="#000"/>
<line x1="739.96" y1="446.1331240683048" x2="748.4200000000001" y2="446.1331240683048" stroke="#000"/>
<line x1="744.19" y1="446.0651817981629" x2="744.19" y2="446.1331240683048" stroke="#000"/>
<rect x="748.4200000000001" y="347.7082865168525" width="8.46" height="150.29171348314742" fill="orange" data-tooltip="2.90x baseline speed (MJIT)"/>
<line x1="748.4200000000001" y1="347.60007769044074" x2="756.8800000000001" y2="347.60007769044074" stroke="#000"/>
<line x1="748.4200000000001" y1="347.81649534326425" x2="756.8800000000001" y2="347.81649534326425" stroke="#000"/>
<line x1="752.6500000000001" y1="347.60007769044074" x2="752.6500000000001" y2="347.81649534326425" stroke="#000"/>
<rect x="756.8800000000001" y="290.8180949961434" width="8.46" height="207.18190500385657" fill="green" data-tooltip="3.99x baseline speed (YJIT)"/>
<line x1="756.8800000000001" y1="289.59491024863024" x2="765.3400000000001" y2="289.59491024863024" stroke="#000"/>
<line x1="756.8800000000001" y1="292.0412797436565" x2="765.3400000000001" y2="292.0412797436565" stroke="#000"/>
<line x1="761.11" y1="289.59491024863024" x2="761.11" y2="292.0412797436565" stroke="#000"/>
<line x1="756.8800000000001" y1="498.0" x2="756.8800000000001" y2="502.79999999999995" stroke="#000"/>
<text x="756.8800000000001" y="512.4" fill="#111" font-size="small" font-family="monospace" font-weight="bold" text-anchor="end" transform="rotate(-60, 756.8800000000001, 512.4)">
fib
</text>
<rect x="773.8000000000001" y="446.0991529332338" width="8.46" height="51.900847066766154" fill="#7070f8" data-tooltip="1.00x baseline speed (No JIT)"/>
<line x1="773.8000000000001" y1="445.80449813613143" x2="782.2600000000001" y2="445.80449813613143" stroke="#000"/>
<line x1="773.8000000000001" y1="446.3938077303362" x2="782.2600000000001" y2="446.3938077303362" stroke="#000"/>
<line x1="778.03" y1="445.80449813613143" x2="778.03" y2="446.3938077303362" stroke="#000"/>
<rect x="782.2600000000001" y="284.726752890634" width="8.46" height="213.27324710936594" fill="orange" data-tooltip="4.11x baseline speed (MJIT)"/>
<line x1="782.2600000000001" y1="137.8023662947041" x2="790.7200000000001" y2="137.8023662947041" stroke="#000"/>
<line x1="782.2600000000001" y1="431.6511394865639" x2="790.7200000000001" y2="431.6511394865639" stroke="#000"/>
<line x1="786.49" y1="137.8023662947041" x2="786.49" y2="431.6511394865639" stroke="#000"/>
<rect x="790.7200000000001" y="366.18567635882806" width="8.46" height="131.81432364117185" fill="green" data-tooltip="2.54x baseline speed (YJIT)"/>
<line x1="790.7200000000001" y1="365.00871160759397" x2="799.1800000000001" y2="365.00871160759397" stroke="#000"/>
<line x1="790.7200000000001" y1="367.3626411100622" x2="799.1800000000001" y2="367.3626411100622" stroke="#000"/>
<line x1="794.95" y1="365.00871160759397" x2="794.95" y2="367.3626411100622" stroke="#000"/>
<line x1="790.7200000000001" y1="498.0" x2="790.7200000000001" y2="502.79999999999995" stroke="#000"/>
<text x="790.7200000000001" y="512.4" fill="#111" font-size="small" font-family="monospace" font-weight="bold" text-anchor="end" transform="rotate(-60, 790.7200000000001, 512.4)">
getivar
</text>
<rect x="807.64" y="446.0991529332338" width="8.46" height="51.900847066766154" fill="#7070f8" data-tooltip="1.00x baseline speed (No JIT)"/>
<line x1="807.64" y1="446.06339952906427" x2="816.1" y2="446.06339952906427" stroke="#000"/>
<line x1="807.64" y1="446.1349063374034" x2="816.1" y2="446.1349063374034" stroke="#000"/>
<line x1="811.87" y1="446.06339952906427" x2="811.87" y2="446.1349063374034" stroke="#000"/>
<rect x="816.1" y="428.78497796798547" width="8.46" height="69.2150220320145" fill="orange" data-tooltip="1.33x baseline speed (MJIT)"/>
<line x1="816.1" y1="428.33154638451623" x2="824.5600000000001" y2="428.33154638451623" stroke="#000"/>
<line x1="816.1" y1="429.23840955145477" x2="824.5600000000001" y2="429.23840955145477" stroke="#000"/>
<line x1="820.33" y1="428.33154638451623" x2="820.33" y2="429.23840955145477" stroke="#000"/>
<rect x="824.5600000000001" y="206.37552878228635" width="8.46" height="291.6244712177136" fill="green" data-tooltip="5.62x baseline speed (YJIT)"/>
<line x1="824.5600000000001" y1="204.19912433152956" x2="833.0200000000001" y2="204.19912433152956" stroke="#000"/>
<line x1="824.5600000000001" y1="208.55193323304314" x2="833.0200000000001" y2="208.55193323304314" stroke="#000"/>
<line x1="828.7900000000001" y1="204.19912433152956" x2="828.7900000000001" y2="208.55193323304314" stroke="#000"/>
<line x1="824.5600000000001" y1="498.0" x2="824.5600000000001" y2="502.79999999999995" stroke="#000"/>
<text x="824.5600000000001" y="512.4" fill="#111" font-size="small" font-family="monospace" font-weight="bold" text-anchor="end" transform="rotate(-60, 824.5600000000001, 512.4)">
keyword_args
</text>
<rect x="841.48" y="446.0991529332338" width="8.46" height="51.900847066766154" fill="#7070f8" data-tooltip="1.00x baseline speed (No JIT)"/>
<line x1="841.48" y1="446.0216625194492" x2="849.94" y2="446.0216625194492" stroke="#000"/>
<line x1="841.48" y1="446.17664334701846" x2="849.94" y2="446.17664334701846" stroke="#000"/>
<line x1="845.7099999999999" y1="446.0216625194492" x2="845.7099999999999" y2="446.17664334701846" stroke="#000"/>
<rect x="849.94" y="439.25368265736483" width="8.46" height="58.746317342635024" fill="orange" data-tooltip="1.13x baseline speed (MJIT)"/>
<line x1="849.94" y1="438.83967975786334" x2="858.4000000000001" y2="438.83967975786334" stroke="#000"/>
<line x1="849.94" y1="439.66768555686633" x2="858.4000000000001" y2="439.66768555686633" stroke="#000"/>
<line x1="854.17" y1="438.83967975786334" x2="854.17" y2="439.66768555686633" stroke="#000"/>
<rect x="858.4000000000001" y="422.8103453583658" width="8.46" height="75.18965464163423" fill="green" data-tooltip="1.45x baseline speed (YJIT)"/>
<line x1="858.4000000000001" y1="422.5590801132834" x2="866.8600000000001" y2="422.5590801132834" stroke="#000"/>
<line x1="858.4000000000001" y1="423.0616106034481" x2="866.8600000000001" y2="423.0616106034481" stroke="#000"/>
<line x1="862.63" y1="422.5590801132834" x2="862.63" y2="423.0616106034481" stroke="#000"/>
<line x1="858.4000000000001" y1="498.0" x2="858.4000000000001" y2="502.79999999999995" stroke="#000"/>
<text x="858.4000000000001" y="512.4" fill="#111" font-size="small" font-family="monospace" font-weight="bold" text-anchor="end" transform="rotate(-60, 858.4000000000001, 512.4)">
respond_to
</text>
<rect x="875.3199999999999" y="446.0991529332338" width="8.46" height="51.900847066766154" fill="#7070f8" data-tooltip="1.00x baseline speed (No JIT)"/>
<line x1="875.3199999999999" y1="445.9433213286081" x2="883.78" y2="445.9433213286081" stroke="#000"/>
<line x1="875.3199999999999" y1="446.2549845378596" x2="883.78" y2="446.2549845378596" stroke="#000"/>
<line x1="879.55" y1="445.9433213286081" x2="879.55" y2="446.2549845378596" stroke="#000"/>
<rect x="883.78" y="100.19999999999999" width="8.46" height="397.79999999999995" fill="orange" data-tooltip="7.66x baseline speed (MJIT)"/>
<line x1="883.78" y1="-301.23791685367416" x2="892.24" y2="-301.23791685367416" stroke="#000"/>
<line x1="883.78" y1="501.6379168536742" x2="892.24" y2="501.6379168536742" stroke="#000"/>
<line x1="888.01" y1="-301.23791685367416" x2="888.01" y2="501.6379168536742" stroke="#000"/>
<rect x="892.24" y="413.7890432042524" width="8.46" height="84.21095679574765" fill="green" data-tooltip="1.62x baseline speed (YJIT)"/>
<line x1="892.24" y1="413.18581643909704" x2="900.7" y2="413.18581643909704" stroke="#000"/>
<line x1="892.24" y1="414.3922699694077" x2="900.7" y2="414.3922699694077" stroke="#000"/>
<line x1="896.47" y1="413.18581643909704" x2="896.47" y2="414.3922699694077" stroke="#000"/>
<line x1="892.24" y1="498.0" x2="892.24" y2="502.79999999999995" stroke="#000"/>
<text x="892.24" y="512.4" fill="#111" font-size="small" font-family="monospace" font-weight="bold" text-anchor="end" transform="rotate(-60, 892.24, 512.4)">
setivar
</text>
<rect x="909.16" y="446.0991529332338" width="8.46" height="51.900847066766154" fill="#7070f8" data-tooltip="1.00x baseline speed (No JIT)"/>
<line x1="909.16" y1="445.6396134324552" x2="917.62" y2="445.6396134324552" stroke="#000"/>
<line x1="909.16" y1="446.55869243401247" x2="917.62" y2="446.55869243401247" stroke="#000"/>
<line x1="913.3899999999999" y1="445.6396134324552" x2="913.3899999999999" y2="446.55869243401247" stroke="#000"/>
<rect x="917.62" y="430.3688887466658" width="8.46" height="67.6311112533341" fill="orange" data-tooltip="1.30x baseline speed (MJIT)"/>
<line x1="917.62" y1="429.41291544812043" x2="926.08" y2="429.41291544812043" stroke="#000"/>
<line x1="917.62" y1="431.32486204521115" x2="926.08" y2="431.32486204521115" stroke="#000"/>
<line x1="921.8499999999999" y1="429.41291544812043" x2="921.8499999999999" y2="431.32486204521115" stroke="#000"/>
<rect x="926.08" y="433.9797863430077" width="8.46" height="64.0202136569923" fill="green" data-tooltip="1.23x baseline speed (YJIT)"/>
<line x1="926.08" y1="432.92173930875026" x2="934.5400000000001" y2="432.92173930875026" stroke="#000"/>
<line x1="926.08" y1="435.0378333772651" x2="934.5400000000001" y2="435.0378333772651" stroke="#000"/>
<line x1="930.31" y1="432.92173930875026" x2="930.31" y2="435.0378333772651" stroke="#000"/>
<line x1="926.08" y1="498.0" x2="926.08" y2="502.79999999999995" stroke="#000"/>
<text x="926.08" y="512.4" fill="#111" font-size="small" font-family="monospace" font-weight="bold" text-anchor="end" transform="rotate(-60, 926.08, 512.4)">
str_concat
</text>
</svg>