<svg viewBox="0 0 1000 600" xmlns="http://www.w3.org/2000/svg" xmlns:xlink="http://www.w3.org/1999/xlink" width="100%" height="100%">

<rect x="50.0" y="30.0" width="940.0" height="467.99999999999994" stroke="#000" fill="#EEE"/>
<line x1="42.0" y1="497.9999999999999" x2="50.0" y2="497.9999999999999" stroke="#000"/>
<text x="26.000000000000004" y="497.9999999999999" text-anchor="end" font-weight="bold" font-size="small" fill="#111">
0.0
</text>
<line x1="42.0" y1="424.16826489101095" x2="50.0" y2="424.16826489101095" stroke="#000"/>
<text x="26.000000000000004" y="424.16826489101095" text-anchor="end" font-weight="bold" font-size="small" fill="#111">
2.0
</text>
<line x1="42.0" y1="350.336529782022" x2="50.0" y2="350.336529782022" stroke="#000"/>
<text x="26.000000000000004" y="350.336529782022" text-anchor="end" font-weight="bold" font-size="small" fill="#111">
4.0
</text>
<line x1="42.0" y1="276.504794673033" x2="50.0" y2="276.504794673033" stroke="#000"/>
<text x="26.000000000000004" y="276.504794673033" text-anchor="end" font-weight="bold" font-size="small" fill="#111">
6.0
</text>
<line x1="42.0" y1="202.67305956404397" x2="50.0" y2="202.67305956404397" stroke="#000"/>
<text x="26.000000000000004" y="202.67305956404397" text-anchor="end" font-weight="bold" font-size="small" fill="#111">
8.0
</text>
<line x1="42.0" y1="128.841324455055" x2="50.0" y2="128.841324455055" stroke="#000"/>
<text x="26.000000000000004" y="128.841324455055" text-anchor="end" font-weight="bold" font-size="small" fill="#111">
10.0
</text>
<rect x="268.5" y="36.00000000000001" width="80.0" height="18.0" fill="#7070f8" stroke="#888"/>
<text x="308.5" y="52.50000000000001" font-size="small" text-anchor="middle" font-weight="bold" fill="#EEE">
No JIT
</text>
<rect x="691.4999999999999" y="36.00000000000001" width="80.0" height="18.0" fill="orange" stroke="#888"/>
<text x="731.4999999999999" y="52.50000000000001" font-size="small" text-anchor="middle" font-weight="bold" fill="#EEE">
YJIT
</text>
<rect x="97.0" y="461.0841324455055" width="23.499999999999996" height="36.9158675544945" fill="#7070f8" data-tooltip="1.00x baseline speed (No JIT)"/>
<line x1="97.0" y1="461.07872405941214" x2="120.5" y2="461.07872405941214" stroke="#000"/>
<line x1="97.0" y1="461.08954083159887" x2="120.5" y2="461.08954083159887" stroke="#000"/>
<line x1="108.75" y1="461.07872405941214" x2="108.75" y2="461.08954083159887" stroke="#000"/>
<rect x="120.5" y="258.27274863310635" width="23.499999999999996" height="239.72725136689363" fill="orange" data-tooltip="6.49x baseline speed (YJIT)"/>
<line x1="120.5" y1="258.11446291499567" x2="144.0" y2="258.11446291499567" stroke="#000"/>
<line x1="120.5" y1="258.43103435121697" x2="144.0" y2="258.43103435121697" stroke="#000"/>
<line x1="132.25" y1="258.11446291499567" x2="132.25" y2="258.43103435121697" stroke="#000"/>
<line x1="132.25" y1="498.0" x2="132.25" y2="502.79999999999995" stroke="#000"/>
<text x="132.25" y="512.4" fill="#111" font-size="small" font-family="monospace" font-weight="bold" text-anchor="end" transform="rotate(-60, 132.25, 512.4)">
30k_ifelse
</text>
<rect x="167.49999999999997" y="461.0841324455055" width="23.499999999999996" height="36.9158675544945" fill="#7070f8" data-tooltip="1.00x baseline speed (No JIT)"/>
<line x1="167.49999999999997" y1="461.0739134273009" x2="190.99999999999997" y2="461.0739134273009" stroke="#000"/>
<line x1="167.49999999999997" y1="461.0943514637101" x2="190.99999999999997" y2="461.0943514637101" stroke="#000"/>
<line x1="179.25" y1="461.0739134273009" x2="179.25" y2="461.0943514637101" stroke="#000"/>
<rect x="190.99999999999997" y="197.50845506228742" width="23.499999999999996" height="300.4915449377125" fill="orange" data-tooltip="8.14x baseline speed (YJIT)"/>
<line x1="190.99999999999997" y1="197.41460619750723" x2="214.49999999999997" y2="197.41460619750723" stroke="#000"/>
<line x1="190.99999999999997" y1="197.60230392706765" x2="214.49999999999997" y2="197.60230392706765" stroke="#000"/>
<line x1="202.75" y1="197.41460619750723" x2="202.75" y2="197.60230392706765" stroke="#000"/>
<line x1="202.75" y1="498.0" x2="202.75" y2="502.79999999999995" stroke="#000"/>
<text x="202.75" y="512.4" fill="#111" font-size="small" font-family="monospace" font-weight="bold" text-anchor="end" transform="rotate(-60, 202.75, 512.4)">
30k_methods
</text>
<rect x="238.0" y="461.0841324455055" width="23.499999999999996" height="36.9158675544945" fill="#7070f8" data-tooltip="1.00x baseline speed (No JIT)"/>
<line x1="238.0" y1="461.0241677043671" x2="261.5" y2="461.0241677043671" stroke="#000"/>
<line x1="238.0" y1="461.14409718664393" x2="261.5" y2="461.14409718664393" stroke="#000"/>
<line x1="249.75" y1="461.0241677043671" x2="249.75" y2="461.14409718664393" stroke="#000"/>
<rect x="261.5" y="397.6462295364268" width="23.499999999999996" height="100.35377046357313" fill="orange" data-tooltip="2.72x baseline speed (YJIT)"/>
<line x1="261.5" y1="397.4125451155499" x2="285.00000000000006" y2="397.4125451155499" stroke="#000"/>
<line x1="261.5" y1="397.8799139573037" x2="285.00000000000006" y2="397.8799139573037" stroke="#000"/>
<line x1="273.25" y1="397.4125451155499" x2="273.25" y2="397.8799139573037" stroke="#000"/>
<line x1="273.25" y1="498.0" x2="273.25" y2="502.79999999999995" stroke="#000"/>
<text x="273.25" y="512.4" fill="#111" font-size="small" font-family="monospace" font-weight="bold" text-anchor="end" transform="rotate(-60, 273.25, 512.4)">
cfunc_itself
</text>
<rect x="308.5" y="461.0841324455055" width="23.499999999999996" height="36.9158675544945" fill="#7070f8" data-tooltip="1.00x baseline speed (No JIT)"/>
<line x1="308.5" y1="461.0737562000326" x2="332.0" y2="461.0737562000326" stroke="#000"/>
<line x1="308.5" y1="461.0945086909784" x2="332.0" y2="461.0945086909784" stroke="#000"/>
<line x1="320.25" y1="461.0737562000326" x2="320.25" y2="461.0945086909784" stroke="#000"/>
<rect x="332.0" y="310.1700280477078" width="23.499999999999996" height="187.82997195229217" fill="orange" data-tooltip="5.09x baseline speed (YJIT)"/>
<line x1="332.0" y1="310.0634549258891" x2="355.50000000000006" y2="310.0634549258891" stroke="#000"/>
<line x1="332.0" y1="310.2766011695264" x2="355.50000000000006" y2="310.2766011695264" stroke="#000"/>
<line x1="343.75" y1="310.0634549258891" x2="343.75" y2="310.2766011695264" stroke="#000"/>
<line x1="343.75" y1="498.0" x2="343.75" y2="502.79999999999995" stroke="#000"/>
<text x="343.75" y="512.4" fill="#111" font-size="small" font-family="monospace" font-weight="bold" text-anchor="end" transform="rotate(-60, 343.75, 512.4)">
fib
</text>
<rect x="379.0" y="461.0841324455055" width="23.499999999999996" height="36.9158675544945" fill="#7070f8" data-tooltip="1.00x baseline speed (No JIT)"/>
<line x1="379.0" y1="461.02926864437205" x2="402.5" y2="461.02926864437205" stroke="#000"/>
<line x1="379.0" y1="461.13899624663895" x2="402.5" y2="461.13899624663895" stroke="#000"/>
<line x1="390.75" y1="461.02926864437205" x2="390.75" y2="461.13899624663895" stroke="#000"/>
<rect x="402.5" y="300.8995532711" width="23.499999999999996" height="197.10044672889998" fill="orange" data-tooltip="5.34x baseline speed (YJIT)"/>
<line x1="402.5" y1="300.4861089854662" x2="426.00000000000006" y2="300.4861089854662" stroke="#000"/>
<line x1="402.5" y1="301.3129975567337" x2="426.00000000000006" y2="301.3129975567337" stroke="#000"/>
<line x1="414.25" y1="300.4861089854662" x2="414.25" y2="301.3129975567337" stroke="#000"/>
<line x1="414.25" y1="498.0" x2="414.25" y2="502.79999999999995" stroke="#000"/>
<text x="414.25" y="512.4" fill="#111" font-size="small" font-family="monospace" font-weight="bold" text-anchor="end" transform="rotate(-60, 414.25, 512.4)">
getivar
</text>
<rect x="449.5" y="461.0841324455055" width="23.499999999999996" height="36.9158675544945" fill="#7070f8" data-tooltip="1.00x baseline speed (No JIT)"/>
<line x1="449.5" y1="461.0447776609369" x2="473.00000000000006" y2="461.0447776609369" stroke="#000"/>
<line x1="449.5" y1="461.1234872300741" x2="473.00000000000006" y2="461.1234872300741" stroke="#000"/>
<line x1="461.25" y1="461.0447776609369" x2="461.25" y2="461.1234872300741" stroke="#000"/>
<rect x="473.00000000000006" y="283.6970645099642" width="23.499999999999996" height="214.30293549003574" fill="orange" data-tooltip="5.81x baseline speed (YJIT)"/>
<line x1="473.00000000000006" y1="283.1749247449665" x2="496.50000000000006" y2="283.1749247449665" stroke="#000"/>
<line x1="473.00000000000006" y1="284.2192042749619" x2="496.50000000000006" y2="284.2192042749619" stroke="#000"/>
<line x1="484.75" y1="283.1749247449665" x2="484.75" y2="284.2192042749619" stroke="#000"/>
<line x1="484.75" y1="498.0" x2="484.75" y2="502.79999999999995" stroke="#000"/>
<text x="484.75" y="512.4" fill="#111" font-size="small" font-family="monospace" font-weight="bold" text-anchor="end" transform="rotate(-60, 484.75, 512.4)">
keyword_args
</text>
<rect x="519.9999999999999" y="461.0841324455055" width="23.499999999999996" height="36.9158675544945" fill="#7070f8" data-tooltip="1.00x baseline speed (No JIT)"/>
<line x1="519.9999999999999" y1="461.00473206722273" x2="543.4999999999999" y2="461.00473206722273" stroke="#000"/>
<line x1="519.9999999999999" y1="461.1635328237883" x2="543.4999999999999" y2="461.1635328237883" stroke="#000"/>
<line x1="531.75" y1="461.00473206722273" x2="531.75" y2="461.1635328237883" stroke="#000"/>
<rect x="543.4999999999999" y="100.19999999999999" width="23.499999999999996" height="397.79999999999995" fill="orange" data-tooltip="10.78x baseline speed (YJIT)"/>
<line x1="543.4999999999999" y1="97.04657558929142" x2="566.9999999999999" y2="97.04657558929142" stroke="#000"/>
<line x1="543.4999999999999" y1="103.35342441070856" x2="566.9999999999999" y2="103.35342441070856" stroke="#000"/>
<line x1="555.2499999999999" y1="97.04657558929142" x2="555.2499999999999" y2="103.35342441070856" stroke="#000"/>
<line x1="555.2499999999999" y1="498.0" x2="555.2499999999999" y2="502.79999999999995" stroke="#000"/>
<text x="555.2499999999999" y="512.4" fill="#111" font-size="small" font-family="monospace" font-weight="bold" text-anchor="end" transform="rotate(-60, 555.2499999999999, 512.4)">
respond_to
</text>
<rect x="590.4999999999999" y="461.0841324455055" width="23.499999999999996" height="36.9158675544945" fill="#7070f8" data-tooltip="1.00x baseline speed (No JIT)"/>
<line x1="590.4999999999999" y1="460.9081013679495" x2="613.9999999999999" y2="460.9081013679495" stroke="#000"/>
<line x1="590.4999999999999" y1="461.2601635230615" x2="613.9999999999999" y2="461.2601635230615" stroke="#000"/>
<line x1="602.25" y1="460.9081013679495" x2="602.25" y2="461.2601635230615" stroke="#000"/>
<rect x="613.9999999999999" y="259.3710418092875" width="23.499999999999996" height="238.62895819071247" fill="orange" data-tooltip="6.46x baseline speed (YJIT)"/>
<line x1="613.9999999999999" y1="258.21085164965655" x2="637.4999999999999" y2="258.21085164965655" stroke="#000"/>
<line x1="613.9999999999999" y1="260.5312319689184" x2="637.4999999999999" y2="260.5312319689184" stroke="#000"/>
<line x1="625.7499999999999" y1="258.21085164965655" x2="625.7499999999999" y2="260.5312319689184" stroke="#000"/>
<line x1="625.7499999999999" y1="498.0" x2="625.7499999999999" y2="502.79999999999995" stroke="#000"/>
<text x="625.7499999999999" y="512.4" fill="#111" font-size="small" font-family="monospace" font-weight="bold" text-anchor="end" transform="rotate(-60, 625.7499999999999, 512.4)">
setivar
</text>
<rect x="660.9999999999999" y="461.0841324455055" width="23.499999999999996" height="36.9158675544945" fill="#7070f8" data-tooltip="1.00x baseline speed (No JIT)"/>
<line x1="660.9999999999999" y1="459.8848671744035" x2="684.4999999999999" y2="459.8848671744035" stroke="#000"/>
<line x1="660.9999999999999" y1="462.2833977166075" x2="684.4999999999999" y2="462.2833977166075" stroke="#000"/>
<line x1="672.75" y1="459.8848671744035" x2="672.75" y2="462.2833977166075" stroke="#000"/>
<rect x="684.4999999999999" y="404.75596741058126" width="23.499999999999996" height="93.24403258941867" fill="orange" data-tooltip="2.53x baseline speed (YJIT)"/>
<line x1="684.4999999999999" y1="401.26257064442194" x2="707.9999999999999" y2="401.26257064442194" stroke="#000"/>
<line x1="684.4999999999999" y1="408.2493641767406" x2="707.9999999999999" y2="408.2493641767406" stroke="#000"/>
<line x1="696.2499999999999" y1="401.26257064442194" x2="696.2499999999999" y2="408.2493641767406" stroke="#000"/>
<line x1="696.2499999999999" y1="498.0" x2="696.2499999999999" y2="502.79999999999995" stroke="#000"/>
<text x="696.2499999999999" y="512.4" fill="#111" font-size="small" font-family="monospace" font-weight="bold" text-anchor="end" transform="rotate(-60, 696.2499999999999, 512.4)">
setivar_object
</text>
<rect x="731.4999999999999" y="461.0841324455055" width="23.499999999999996" height="36.9158675544945" fill="#7070f8" data-tooltip="1.00x baseline speed (No JIT)"/>
<line x1="731.4999999999999" y1="460.9227003624093" x2="754.9999999999999" y2="460.9227003624093" stroke="#000"/>
<line x1="731.4999999999999" y1="461.24556452860173" x2="754.9999999999999" y2="461.24556452860173" stroke="#000"/>
<line x1="743.25" y1="460.9227003624093" x2="743.25" y2="461.24556452860173" stroke="#000"/>
<rect x="754.9999999999999" y="407.0764470723165" width="23.499999999999996" height="90.92355292768333" fill="orange" data-tooltip="2.46x baseline speed (YJIT)"/>
<line x1="754.9999999999999" y1="405.90692903410513" x2="778.4999999999999" y2="405.90692903410513" stroke="#000"/>
<line x1="754.9999999999999" y1="408.24596511052795" x2="778.4999999999999" y2="408.24596511052795" stroke="#000"/>
<line x1="766.7499999999999" y1="405.90692903410513" x2="766.7499999999999" y2="408.24596511052795" stroke="#000"/>
<line x1="766.7499999999999" y1="498.0" x2="766.7499999999999" y2="502.79999999999995" stroke="#000"/>
<text x="766.7499999999999" y="512.4" fill="#111" font-size="small" font-family="monospace" font-weight="bold" text-anchor="end" transform="rotate(-60, 766.7499999999999, 512.4)">
setivar_young
</text>
<rect x="801.9999999999999" y="461.0841324455055" width="23.499999999999996" height="36.9158675544945" fill="#7070f8" data-tooltip="1.00x baseline speed (No JIT)"/>
<line x1="801.9999999999999" y1="460.81819029461633" x2="825.4999999999999" y2="460.81819029461633" stroke="#000"/>
<line x1="801.9999999999999" y1="461.3500745963947" x2="825.4999999999999" y2="461.3500745963947" stroke="#000"/>
<line x1="813.75" y1="460.81819029461633" x2="813.75" y2="461.3500745963947" stroke="#000"/>
<rect x="825.4999999999999" y="427.9598633064931" width="23.499999999999996" height="70.0401366935069" fill="orange" data-tooltip="1.90x baseline speed (YJIT)"/>
<line x1="825.4999999999999" y1="426.82764431059127" x2="848.9999999999999" y2="426.82764431059127" stroke="#000"/>
<line x1="825.4999999999999" y1="429.09208230239494" x2="848.9999999999999" y2="429.09208230239494" stroke="#000"/>
<line x1="837.2499999999999" y1="426.82764431059127" x2="837.2499999999999" y2="429.09208230239494" stroke="#000"/>
<line x1="837.2499999999999" y1="498.0" x2="837.2499999999999" y2="502.79999999999995" stroke="#000"/>
<text x="837.2499999999999" y="512.4" fill="#111" font-size="small" font-family="monospace" font-weight="bold" text-anchor="end" transform="rotate(-60, 837.2499999999999, 512.4)">
str_concat
</text>
<rect x="872.4999999999999" y="461.0841324455055" width="23.499999999999996" height="36.9158675544945" fill="#7070f8" data-tooltip="1.00x baseline speed (No JIT)"/>
<line x1="872.4999999999999" y1="461.0175667735339" x2="895.9999999999999" y2="461.0175667735339" stroke="#000"/>
<line x1="872.4999999999999" y1="461.15069811747713" x2="895.9999999999999" y2="461.15069811747713" stroke="#000"/>
<line x1="884.25" y1="461.0175667735339" x2="884.25" y2="461.15069811747713" stroke="#000"/>
<rect x="895.9999999999999" y="452.7774162247285" width="23.499999999999996" height="45.222583775271424" fill="orange" data-tooltip="1.23x baseline speed (YJIT)"/>
<line x1="895.9999999999999" y1="452.6472529150555" x2="919.4999999999999" y2="452.6472529150555" stroke="#000"/>
<line x1="895.9999999999999" y1="452.90757953440146" x2="919.4999999999999" y2="452.90757953440146" stroke="#000"/>
<line x1="907.75" y1="452.6472529150555" x2="907.75" y2="452.90757953440146" stroke="#000"/>
<line x1="907.75" y1="498.0" x2="907.75" y2="502.79999999999995" stroke="#000"/>
<text x="907.75" y="512.4" fill="#111" font-size="small" font-family="monospace" font-weight="bold" text-anchor="end" transform="rotate(-60, 907.75, 512.4)">
throw
</text>
</svg>