<svg viewBox="0 0 1000 600" xmlns="http://www.w3.org/2000/svg" xmlns:xlink="http://www.w3.org/1999/xlink" width="100%" height="100%">

<rect x="50.0" y="30.0" width="940.0" height="467.99999999999994" stroke="#000" fill="#EEE"/>
<line x1="42.0" y1="497.9999999999999" x2="50.0" y2="497.9999999999999" stroke="#000"/>
<text x="26.000000000000004" y="497.9999999999999" text-anchor="end" font-weight="bold" font-size="small" fill="#111">
0.0
</text>
<line x1="42.0" y1="436.5053169493508" x2="50.0" y2="436.5053169493508" stroke="#000"/>
<text x="26.000000000000004" y="436.5053169493508" text-anchor="end" font-weight="bold" font-size="small" fill="#111">
0.2
</text>
<line x1="42.0" y1="375.0106338987019" x2="50.0" y2="375.0106338987019" stroke="#000"/>
<text x="26.000000000000004" y="375.0106338987019" text-anchor="end" font-weight="bold" font-size="small" fill="#111">
0.4
</text>
<line x1="42.0" y1="313.5159508480528" x2="50.0" y2="313.5159508480528" stroke="#000"/>
<text x="26.000000000000004" y="313.5159508480528" text-anchor="end" font-weight="bold" font-size="small" fill="#111">
0.6
</text>
<line x1="42.0" y1="252.02126779740382" x2="50.0" y2="252.02126779740382" stroke="#000"/>
<text x="26.000000000000004" y="252.02126779740382" text-anchor="end" font-weight="bold" font-size="small" fill="#111">
0.8
</text>
<line x1="42.0" y1="190.52658474675474" x2="50.0" y2="190.52658474675474" stroke="#000"/>
<text x="26.000000000000004" y="190.52658474675474" text-anchor="end" font-weight="bold" font-size="small" fill="#111">
1.0
</text>
<line x1="42.0" y1="129.03190169610573" x2="50.0" y2="129.03190169610573" stroke="#000"/>
<text x="26.000000000000004" y="129.03190169610573" text-anchor="end" font-weight="bold" font-size="small" fill="#111">
1.2
</text>
<rect x="197.99999999999997" y="36.00000000000001" width="80.0" height="18.0" fill="#7070f8" stroke="#888"/>
<text x="238.0" y="52.50000000000001" font-size="small" text-anchor="middle" font-weight="bold" fill="#111">
No JIT
</text>
<rect x="479.99999999999994" y="36.00000000000001" width="80.0" height="18.0" fill="orange" stroke="#888"/>
<text x="519.9999999999999" y="52.50000000000001" font-size="small" text-anchor="middle" font-weight="bold" fill="#111">
MJIT3.0
</text>
<rect x="761.9999999999999" y="36.00000000000001" width="80.0" height="18.0" fill="green" stroke="#888"/>
<text x="801.9999999999999" y="52.50000000000001" font-size="small" text-anchor="middle" font-weight="bold" fill="#111">
YJIT
</text>
<rect x="97.0" y="190.52658474675474" width="35.25" height="307.4734152532452" fill="#7070f8" data-tooltip="1.00x No-JIT time (No JIT)"/>
<line x1="97.0" y1="187.01298979814516" x2="132.25" y2="187.01298979814516" stroke="#000"/>
<line x1="97.0" y1="194.0401796953643" x2="132.25" y2="194.0401796953643" stroke="#000"/>
<line x1="114.625" y1="187.01298979814516" x2="114.625" y2="194.0401796953643" stroke="#000"/>
<rect x="132.25" y="205.58514457829625" width="35.25" height="292.4148554217037" fill="orange" data-tooltip="0.95x No-JIT time (MJIT3.0)"/>
<line x1="132.25" y1="201.9517882698139" x2="167.5" y2="201.9517882698139" stroke="#000"/>
<line x1="132.25" y1="209.21850088677857" x2="167.5" y2="209.21850088677857" stroke="#000"/>
<line x1="149.875" y1="201.9517882698139" x2="149.875" y2="209.21850088677857" stroke="#000"/>
<rect x="167.49999999999997" y="100.19999999999999" width="35.25" height="397.79999999999995" fill="green" data-tooltip="1.29x No-JIT time (YJIT)"/>
<line x1="167.49999999999997" y1="92.17356058549078" x2="202.75" y2="92.17356058549078" stroke="#000"/>
<line x1="167.49999999999997" y1="108.2264394145092" x2="202.75" y2="108.2264394145092" stroke="#000"/>
<line x1="185.12499999999997" y1="92.17356058549078" x2="185.12499999999997" y2="108.2264394145092" stroke="#000"/>
<line x1="167.49999999999997" y1="498.0" x2="167.49999999999997" y2="502.79999999999995" stroke="#000"/>
<text x="167.49999999999997" y="512.4" fill="#111" font-size="small" font-family="monospace" font-weight="bold" text-anchor="end" transform="rotate(-60, 167.49999999999997, 512.4)">
activerecord
</text>
<rect x="238.0" y="190.52658474675474" width="35.25" height="307.4734152532452" fill="#7070f8" data-tooltip="1.00x No-JIT time (No JIT)"/>
<line x1="238.0" y1="182.37917205889673" x2="273.25" y2="182.37917205889673" stroke="#000"/>
<line x1="238.0" y1="198.67399743461272" x2="273.25" y2="198.67399743461272" stroke="#000"/>
<line x1="255.625" y1="182.37917205889673" x2="255.625" y2="198.67399743461272" stroke="#000"/>
<rect x="273.25" y="188.16087961650575" width="35.25" height="309.83912038349416" fill="orange" data-tooltip="1.01x No-JIT time (MJIT3.0)"/>
<line x1="273.25" y1="177.85142863998857" x2="308.5" y2="177.85142863998857" stroke="#000"/>
<line x1="273.25" y1="198.47033059302294" x2="308.5" y2="198.47033059302294" stroke="#000"/>
<line x1="290.875" y1="177.85142863998857" x2="290.875" y2="198.47033059302294" stroke="#000"/>
<rect x="308.5" y="159.48325433589676" width="35.25" height="338.5167456641032" fill="green" data-tooltip="1.10x No-JIT time (YJIT)"/>
<line x1="308.5" y1="146.68161586974114" x2="343.75" y2="146.68161586974114" stroke="#000"/>
<line x1="308.5" y1="172.28489280205235" x2="343.75" y2="172.28489280205235" stroke="#000"/>
<line x1="326.125" y1="146.68161586974114" x2="326.125" y2="172.28489280205235" stroke="#000"/>
<line x1="308.5" y1="498.0" x2="308.5" y2="502.79999999999995" stroke="#000"/>
<text x="308.5" y="512.4" fill="#111" font-size="small" font-family="monospace" font-weight="bold" text-anchor="end" transform="rotate(-60, 308.5, 512.4)">
jekyll
</text>
<rect x="379.0" y="190.52658474675474" width="35.25" height="307.4734152532452" fill="#7070f8" data-tooltip="1.00x No-JIT time (No JIT)"/>
<line x1="379.0" y1="184.62941941719745" x2="414.25" y2="184.62941941719745" stroke="#000"/>
<line x1="379.0" y1="196.423750076312" x2="414.25" y2="196.423750076312" stroke="#000"/>
<line x1="396.625" y1="184.62941941719745" x2="396.625" y2="196.423750076312" stroke="#000"/>
<rect x="414.25" y="145.10568796409515" width="35.25" height="352.89431203590476" fill="orange" data-tooltip="1.15x No-JIT time (MJIT3.0)"/>
<line x1="414.25" y1="131.7144193576734" x2="449.5" y2="131.7144193576734" stroke="#000"/>
<line x1="414.25" y1="158.49695657051697" x2="449.5" y2="158.49695657051697" stroke="#000"/>
<line x1="431.875" y1="131.7144193576734" x2="431.875" y2="158.49695657051697" stroke="#000"/>
<rect x="449.5" y="101.17382784078515" width="35.25" height="396.82617215921476" fill="green" data-tooltip="1.29x No-JIT time (YJIT)"/>
<line x1="449.5" y1="91.0694380250607" x2="484.75" y2="91.0694380250607" stroke="#000"/>
<line x1="449.5" y1="111.27821765650961" x2="484.75" y2="111.27821765650961" stroke="#000"/>
<line x1="467.125" y1="91.0694380250607" x2="467.125" y2="111.27821765650961" stroke="#000"/>
<line x1="449.5" y1="498.0" x2="449.5" y2="502.79999999999995" stroke="#000"/>
<text x="449.5" y="512.4" fill="#111" font-size="small" font-family="monospace" font-weight="bold" text-anchor="end" transform="rotate(-60, 449.5, 512.4)">
liquid-render
</text>
<rect x="519.9999999999999" y="190.52658474675474" width="35.25" height="307.4734152532452" fill="#7070f8" data-tooltip="1.00x No-JIT time (No JIT)"/>
<line x1="519.9999999999999" y1="185.79685891207177" x2="555.2499999999999" y2="185.79685891207177" stroke="#000"/>
<line x1="519.9999999999999" y1="195.25631058143767" x2="555.2499999999999" y2="195.25631058143767" stroke="#000"/>
<line x1="537.6249999999999" y1="185.79685891207177" x2="537.6249999999999" y2="195.25631058143767" stroke="#000"/>
<rect x="555.2499999999999" y="184.48372817809798" width="35.25" height="313.5162718219019" fill="orange" data-tooltip="1.02x No-JIT time (MJIT3.0)"/>
<line x1="555.2499999999999" y1="176.8559409491788" x2="590.4999999999999" y2="176.8559409491788" stroke="#000"/>
<line x1="555.2499999999999" y1="192.11151540701712" x2="590.4999999999999" y2="192.11151540701712" stroke="#000"/>
<line x1="572.8749999999999" y1="176.8559409491788" x2="572.8749999999999" y2="192.11151540701712" stroke="#000"/>
<rect x="590.4999999999999" y="158.95789646886885" width="35.25" height="339.0421035311311" fill="green" data-tooltip="1.10x No-JIT time (YJIT)"/>
<line x1="590.4999999999999" y1="151.36477017009022" x2="625.7499999999999" y2="151.36477017009022" stroke="#000"/>
<line x1="590.4999999999999" y1="166.5510227676475" x2="625.7499999999999" y2="166.5510227676475" stroke="#000"/>
<line x1="608.1249999999999" y1="151.36477017009022" x2="608.1249999999999" y2="166.5510227676475" stroke="#000"/>
<line x1="590.4999999999999" y1="498.0" x2="590.4999999999999" y2="502.79999999999995" stroke="#000"/>
<text x="590.4999999999999" y="512.4" fill="#111" font-size="small" font-family="monospace" font-weight="bold" text-anchor="end" transform="rotate(-60, 590.4999999999999, 512.4)">
mail
</text>
<rect x="660.9999999999999" y="190.52658474675474" width="35.25" height="307.4734152532452" fill="#7070f8" data-tooltip="1.00x No-JIT time (No JIT)"/>
<line x1="660.9999999999999" y1="187.4048376952675" x2="696.2499999999999" y2="187.4048376952675" stroke="#000"/>
<line x1="660.9999999999999" y1="193.64833179824197" x2="696.2499999999999" y2="193.64833179824197" stroke="#000"/>
<line x1="678.6249999999999" y1="187.4048376952675" x2="678.6249999999999" y2="193.64833179824197" stroke="#000"/>
<rect x="696.2499999999999" y="152.18063663933006" width="35.25" height="345.8193633606699" fill="orange" data-tooltip="1.12x No-JIT time (MJIT3.0)"/>
<line x1="696.2499999999999" y1="147.50706628166637" x2="731.4999999999999" y2="147.50706628166637" stroke="#000"/>
<line x1="696.2499999999999" y1="156.85420699699372" x2="731.4999999999999" y2="156.85420699699372" stroke="#000"/>
<line x1="713.8749999999999" y1="147.50706628166637" x2="713.8749999999999" y2="156.85420699699372" stroke="#000"/>
<rect x="731.4999999999999" y="126.07636372581443" width="35.25" height="371.9236362741855" fill="green" data-tooltip="1.21x No-JIT time (YJIT)"/>
<line x1="731.4999999999999" y1="121.77339238903026" x2="766.7499999999999" y2="121.77339238903026" stroke="#000"/>
<line x1="731.4999999999999" y1="130.37933506259859" x2="766.7499999999999" y2="130.37933506259859" stroke="#000"/>
<line x1="749.1249999999999" y1="121.77339238903026" x2="749.1249999999999" y2="130.37933506259859" stroke="#000"/>
<line x1="731.4999999999999" y1="498.0" x2="731.4999999999999" y2="502.79999999999995" stroke="#000"/>
<text x="731.4999999999999" y="512.4" fill="#111" font-size="small" font-family="monospace" font-weight="bold" text-anchor="end" transform="rotate(-60, 731.4999999999999, 512.4)">
psych-load
</text>
<rect x="801.9999999999999" y="190.52658474675474" width="35.25" height="307.4734152532452" fill="#7070f8" data-tooltip="1.00x No-JIT time (No JIT)"/>
<line x1="801.9999999999999" y1="187.44419378432647" x2="837.2499999999999" y2="187.44419378432647" stroke="#000"/>
<line x1="801.9999999999999" y1="193.60897570918297" x2="837.2499999999999" y2="193.60897570918297" stroke="#000"/>
<line x1="819.6249999999999" y1="187.44419378432647" x2="819.6249999999999" y2="193.60897570918297" stroke="#000"/>
<rect x="837.2499999999999" y="182.53516751577834" width="35.25" height="315.46483248422163" fill="orange" data-tooltip="1.03x No-JIT time (MJIT3.0)"/>
<line x1="837.2499999999999" y1="177.98209028744398" x2="872.4999999999999" y2="177.98209028744398" stroke="#000"/>
<line x1="837.2499999999999" y1="187.08824474411267" x2="872.4999999999999" y2="187.08824474411267" stroke="#000"/>
<line x1="854.8749999999999" y1="177.98209028744398" x2="854.8749999999999" y2="187.08824474411267" stroke="#000"/>
<rect x="872.4999999999999" y="136.15644063581644" width="35.25" height="361.84355936418353" fill="green" data-tooltip="1.18x No-JIT time (YJIT)"/>
<line x1="872.4999999999999" y1="130.29293515580315" x2="907.75" y2="130.29293515580315" stroke="#000"/>
<line x1="872.4999999999999" y1="142.01994611582973" x2="907.75" y2="142.01994611582973" stroke="#000"/>
<line x1="890.125" y1="130.29293515580315" x2="890.125" y2="142.01994611582973" stroke="#000"/>
<line x1="872.4999999999999" y1="498.0" x2="872.4999999999999" y2="502.79999999999995" stroke="#000"/>
<text x="872.4999999999999" y="512.4" fill="#111" font-size="small" font-family="monospace" font-weight="bold" text-anchor="end" transform="rotate(-60, 872.4999999999999, 512.4)">
railsbench
</text>
</svg>