<svg viewBox="0 0 1000 600" xmlns="http://www.w3.org/2000/svg" xmlns:xlink="http://www.w3.org/1999/xlink" width="100%" height="100%">

<rect x="50.0" y="30.0" width="940.0" height="467.99999999999994" stroke="#000" fill="#EEE"/>
<line x1="42.0" y1="497.9999999999999" x2="50.0" y2="497.9999999999999" stroke="#000"/>
<text x="26.000000000000004" y="497.9999999999999" text-anchor="end" font-weight="bold" font-size="small" fill="#111">
0.0
</text>
<line x1="42.0" y1="446.41448844723675" x2="50.0" y2="446.41448844723675" stroke="#000"/>
<text x="26.000000000000004" y="446.41448844723675" text-anchor="end" font-weight="bold" font-size="small" fill="#111">
0.2
</text>
<line x1="42.0" y1="394.82897689447367" x2="50.0" y2="394.82897689447367" stroke="#000"/>
<text x="26.000000000000004" y="394.82897689447367" text-anchor="end" font-weight="bold" font-size="small" fill="#111">
0.4
</text>
<line x1="42.0" y1="343.24346534171053" x2="50.0" y2="343.24346534171053" stroke="#000"/>
<text x="26.000000000000004" y="343.24346534171053" text-anchor="end" font-weight="bold" font-size="small" fill="#111">
0.6
</text>
<line x1="42.0" y1="291.6579537889474" x2="50.0" y2="291.6579537889474" stroke="#000"/>
<text x="26.000000000000004" y="291.6579537889474" text-anchor="end" font-weight="bold" font-size="small" fill="#111">
0.8
</text>
<line x1="42.0" y1="240.07244223618426" x2="50.0" y2="240.07244223618426" stroke="#000"/>
<text x="26.000000000000004" y="240.07244223618426" text-anchor="end" font-weight="bold" font-size="small" fill="#111">
1.0
</text>
<line x1="42.0" y1="188.48693068342115" x2="50.0" y2="188.48693068342115" stroke="#000"/>
<text x="26.000000000000004" y="188.48693068342115" text-anchor="end" font-weight="bold" font-size="small" fill="#111">
1.2
</text>
<line x1="42.0" y1="136.90141913065804" x2="50.0" y2="136.90141913065804" stroke="#000"/>
<text x="26.000000000000004" y="136.90141913065804" text-anchor="end" font-weight="bold" font-size="small" fill="#111">
1.4
</text>
<rect x="268.5" y="36.00000000000001" width="80.0" height="18.0" fill="#7070f8" stroke="#888"/>
<text x="308.5" y="52.50000000000001" font-size="small" text-anchor="middle" font-weight="bold" fill="#EEE">
No JIT
</text>
<rect x="691.4999999999999" y="36.00000000000001" width="80.0" height="18.0" fill="orange" stroke="#888"/>
<text x="731.4999999999999" y="52.50000000000001" font-size="small" text-anchor="middle" font-weight="bold" fill="#EEE">
YJIT
</text>
<rect x="97.0" y="240.07244223618426" width="31.333333333333332" height="257.9275577638157" fill="#7070f8" data-tooltip="1.00x baseline speed (No JIT)"/>
<line x1="97.0" y1="239.55107590303268" x2="128.33333333333331" y2="239.55107590303268" stroke="#000"/>
<line x1="97.0" y1="240.59380856933583" x2="128.33333333333331" y2="240.59380856933583" stroke="#000"/>
<line x1="112.66666666666667" y1="239.55107590303268" x2="112.66666666666667" y2="240.59380856933583" stroke="#000"/>
<rect x="128.33333333333331" y="161.70138722516995" width="31.333333333333332" height="336.29861277483" fill="orange" data-tooltip="1.30x baseline speed (YJIT)"/>
<line x1="128.33333333333331" y1="160.70807483782343" x2="159.66666666666666" y2="160.70807483782343" stroke="#000"/>
<line x1="128.33333333333331" y1="162.69469961251644" x2="159.66666666666666" y2="162.69469961251644" stroke="#000"/>
<line x1="144.0" y1="160.70807483782343" x2="144.0" y2="162.69469961251644" stroke="#000"/>
<line x1="144.00000000000003" y1="498.0" x2="144.00000000000003" y2="502.79999999999995" stroke="#000"/>
<text x="144.00000000000003" y="512.4" fill="#111" font-size="small" font-family="monospace" font-weight="bold" text-anchor="end" transform="rotate(-60, 144.00000000000003, 512.4)">
activerecord
</text>
<rect x="191.0" y="240.07244223618426" width="31.333333333333332" height="257.9275577638157" fill="#7070f8" data-tooltip="1.00x baseline speed (No JIT)"/>
<line x1="191.0" y1="238.48224322147743" x2="222.33333333333331" y2="238.48224322147743" stroke="#000"/>
<line x1="191.0" y1="241.66264125089108" x2="222.33333333333331" y2="241.66264125089108" stroke="#000"/>
<line x1="206.66666666666666" y1="238.48224322147743" x2="206.66666666666666" y2="241.66264125089108" stroke="#000"/>
<rect x="222.33333333333331" y="165.797780395666" width="31.333333333333332" height="332.202219604334" fill="orange" data-tooltip="1.29x baseline speed (YJIT)"/>
<line x1="222.33333333333331" y1="158.5319609399436" x2="253.66666666666666" y2="158.5319609399436" stroke="#000"/>
<line x1="222.33333333333331" y1="173.0635998513884" x2="253.66666666666666" y2="173.0635998513884" stroke="#000"/>
<line x1="238.0" y1="158.5319609399436" x2="238.0" y2="173.0635998513884" stroke="#000"/>
<line x1="238.0" y1="498.0" x2="238.0" y2="502.79999999999995" stroke="#000"/>
<text x="238.0" y="512.4" fill="#111" font-size="small" font-family="monospace" font-weight="bold" text-anchor="end" transform="rotate(-60, 238.0, 512.4)">
hexapdf
</text>
<rect x="285.00000000000006" y="240.07244223618426" width="31.333333333333332" height="257.9275577638157" fill="#7070f8" data-tooltip="1.00x baseline speed (No JIT)"/>
<line x1="285.00000000000006" y1="236.72746865411278" x2="316.33333333333337" y2="236.72746865411278" stroke="#000"/>
<line x1="285.00000000000006" y1="243.41741581825573" x2="316.33333333333337" y2="243.41741581825573" stroke="#000"/>
<line x1="300.6666666666667" y1="236.72746865411278" x2="300.6666666666667" y2="243.41741581825573" stroke="#000"/>
<rect x="316.33333333333337" y="182.9583083811669" width="31.333333333333332" height="315.041691618833" fill="orange" data-tooltip="1.22x baseline speed (YJIT)"/>
<line x1="316.33333333333337" y1="176.04505932909044" x2="347.6666666666667" y2="176.04505932909044" stroke="#000"/>
<line x1="316.33333333333337" y1="189.87155743324334" x2="347.6666666666667" y2="189.87155743324334" stroke="#000"/>
<line x1="332.0" y1="176.04505932909044" x2="332.0" y2="189.87155743324334" stroke="#000"/>
<line x1="332.0" y1="498.0" x2="332.0" y2="502.79999999999995" stroke="#000"/>
<text x="332.0" y="512.4" fill="#111" font-size="small" font-family="monospace" font-weight="bold" text-anchor="end" transform="rotate(-60, 332.0, 512.4)">
liquid-c
</text>
<rect x="379.0" y="240.07244223618426" width="31.333333333333332" height="257.9275577638157" fill="#7070f8" data-tooltip="1.00x baseline speed (No JIT)"/>
<line x1="379.0" y1="236.86190293200997" x2="410.3333333333333" y2="236.86190293200997" stroke="#000"/>
<line x1="379.0" y1="243.28298154035855" x2="410.3333333333333" y2="243.28298154035855" stroke="#000"/>
<line x1="394.6666666666667" y1="236.86190293200997" x2="394.6666666666667" y2="243.28298154035855" stroke="#000"/>
<rect x="410.3333333333333" y="100.19999999999999" width="31.333333333333332" height="397.79999999999995" fill="orange" data-tooltip="1.54x baseline speed (YJIT)"/>
<line x1="410.3333333333333" y1="89.92149256187761" x2="441.66666666666663" y2="89.92149256187761" stroke="#000"/>
<line x1="410.3333333333333" y1="110.47850743812236" x2="441.66666666666663" y2="110.47850743812236" stroke="#000"/>
<line x1="426.0" y1="89.92149256187761" x2="426.0" y2="110.47850743812236" stroke="#000"/>
<line x1="426.0" y1="498.0" x2="426.0" y2="502.79999999999995" stroke="#000"/>
<text x="426.0" y="512.4" fill="#111" font-size="small" font-family="monospace" font-weight="bold" text-anchor="end" transform="rotate(-60, 426.0, 512.4)">
liquid-render
</text>
<rect x="473.0" y="240.07244223618426" width="31.333333333333332" height="257.9275577638157" fill="#7070f8" data-tooltip="1.00x baseline speed (No JIT)"/>
<line x1="473.0" y1="239.64177507078915" x2="504.3333333333333" y2="239.64177507078915" stroke="#000"/>
<line x1="473.0" y1="240.50310940157937" x2="504.3333333333333" y2="240.50310940157937" stroke="#000"/>
<line x1="488.66666666666663" y1="239.64177507078915" x2="488.66666666666663" y2="240.50310940157937" stroke="#000"/>
<rect x="504.3333333333333" y="187.89479280793955" width="31.333333333333332" height="310.10520719206045" fill="orange" data-tooltip="1.20x baseline speed (YJIT)"/>
<line x1="504.3333333333333" y1="186.89766410125412" x2="535.6666666666666" y2="186.89766410125412" stroke="#000"/>
<line x1="504.3333333333333" y1="188.89192151462495" x2="535.6666666666666" y2="188.89192151462495" stroke="#000"/>
<line x1="520.0" y1="186.89766410125412" x2="520.0" y2="188.89192151462495" stroke="#000"/>
<line x1="520.0" y1="498.0" x2="520.0" y2="502.79999999999995" stroke="#000"/>
<text x="520.0" y="512.4" fill="#111" font-size="small" font-family="monospace" font-weight="bold" text-anchor="end" transform="rotate(-60, 520.0, 512.4)">
mail
</text>
<rect x="567.0" y="240.07244223618426" width="31.333333333333332" height="257.9275577638157" fill="#7070f8" data-tooltip="1.00x baseline speed (No JIT)"/>
<line x1="567.0" y1="239.83293579825036" x2="598.3333333333333" y2="239.83293579825036" stroke="#000"/>
<line x1="567.0" y1="240.31194867411816" x2="598.3333333333333" y2="240.31194867411816" stroke="#000"/>
<line x1="582.6666666666666" y1="239.83293579825036" x2="582.6666666666666" y2="240.31194867411816" stroke="#000"/>
<rect x="598.3333333333333" y="145.7731405591552" width="31.333333333333332" height="352.22685944084475" fill="orange" data-tooltip="1.37x baseline speed (YJIT)"/>
<line x1="598.3333333333333" y1="145.3254182438374" x2="629.6666666666666" y2="145.3254182438374" stroke="#000"/>
<line x1="598.3333333333333" y1="146.220862874473" x2="629.6666666666666" y2="146.220862874473" stroke="#000"/>
<line x1="614.0" y1="145.3254182438374" x2="614.0" y2="146.220862874473" stroke="#000"/>
<line x1="614.0" y1="498.0" x2="614.0" y2="502.79999999999995" stroke="#000"/>
<text x="614.0" y="512.4" fill="#111" font-size="small" font-family="monospace" font-weight="bold" text-anchor="end" transform="rotate(-60, 614.0, 512.4)">
psych-load
</text>
<rect x="661.0" y="240.07244223618426" width="31.333333333333332" height="257.9275577638157" fill="#7070f8" data-tooltip="1.00x baseline speed (No JIT)"/>
<line x1="661.0" y1="238.9088686338558" x2="692.3333333333334" y2="238.9088686338558" stroke="#000"/>
<line x1="661.0" y1="241.2360158385127" x2="692.3333333333334" y2="241.2360158385127" stroke="#000"/>
<line x1="676.6666666666667" y1="238.9088686338558" x2="676.6666666666667" y2="241.2360158385127" stroke="#000"/>
<rect x="692.3333333333334" y="155.12432563171473" width="31.333333333333332" height="342.87567436828516" fill="orange" data-tooltip="1.33x baseline speed (YJIT)"/>
<line x1="692.3333333333334" y1="152.12139117613205" x2="723.6666666666666" y2="152.12139117613205" stroke="#000"/>
<line x1="692.3333333333334" y1="158.12726008729737" x2="723.6666666666666" y2="158.12726008729737" stroke="#000"/>
<line x1="708.0000000000001" y1="152.12139117613205" x2="708.0000000000001" y2="158.12726008729737" stroke="#000"/>
<line x1="708.0000000000001" y1="498.0" x2="708.0000000000001" y2="502.79999999999995" stroke="#000"/>
<text x="708.0000000000001" y="512.4" fill="#111" font-size="small" font-family="monospace" font-weight="bold" text-anchor="end" transform="rotate(-60, 708.0000000000001, 512.4)">
railsbench
</text>
<rect x="755.0" y="240.07244223618426" width="31.333333333333332" height="257.9275577638157" fill="#7070f8" data-tooltip="1.00x baseline speed (No JIT)"/>
<line x1="755.0" y1="222.6637953307174" x2="786.3333333333334" y2="222.6637953307174" stroke="#000"/>
<line x1="755.0" y1="257.4810891416511" x2="786.3333333333334" y2="257.4810891416511" stroke="#000"/>
<line x1="770.6666666666667" y1="222.6637953307174" x2="770.6666666666667" y2="257.4810891416511" stroke="#000"/>
<rect x="786.3333333333334" y="195.66772190371827" width="31.333333333333332" height="302.3322780962817" fill="orange" data-tooltip="1.17x baseline speed (YJIT)"/>
<line x1="786.3333333333334" y1="155.4727071969227" x2="817.6666666666666" y2="155.4727071969227" stroke="#000"/>
<line x1="786.3333333333334" y1="235.86273661051388" x2="817.6666666666666" y2="235.86273661051388" stroke="#000"/>
<line x1="802.0" y1="155.4727071969227" x2="802.0" y2="235.86273661051388" stroke="#000"/>
<line x1="802.0" y1="498.0" x2="802.0" y2="502.79999999999995" stroke="#000"/>
<text x="802.0" y="512.4" fill="#111" font-size="small" font-family="monospace" font-weight="bold" text-anchor="end" transform="rotate(-60, 802.0, 512.4)">
ruby-lsp
</text>
<rect x="849.0" y="240.07244223618426" width="31.333333333333332" height="257.9275577638157" fill="#7070f8" data-tooltip="1.00x baseline speed (No JIT)"/>
<line x1="849.0" y1="236.48921439090046" x2="880.3333333333333" y2="236.48921439090046" stroke="#000"/>
<line x1="849.0" y1="243.65567008146806" x2="880.3333333333333" y2="243.65567008146806" stroke="#000"/>
<line x1="864.6666666666667" y1="236.48921439090046" x2="864.6666666666667" y2="243.65567008146806" stroke="#000"/>
<rect x="880.3333333333333" y="245.20284617006672" width="31.333333333333332" height="252.7971538299332" fill="orange" data-tooltip="0.98x baseline speed (YJIT)"/>
<line x1="880.3333333333333" y1="238.79750293669264" x2="911.6666666666666" y2="238.79750293669264" stroke="#000"/>
<line x1="880.3333333333333" y1="251.60818940344083" x2="911.6666666666666" y2="251.60818940344083" stroke="#000"/>
<line x1="896.0" y1="238.79750293669264" x2="896.0" y2="251.60818940344083" stroke="#000"/>
<line x1="896.0" y1="498.0" x2="896.0" y2="502.79999999999995" stroke="#000"/>
<text x="896.0" y="512.4" fill="#111" font-size="small" font-family="monospace" font-weight="bold" text-anchor="end" transform="rotate(-60, 896.0, 512.4)">
sequel
</text>
</svg>