<svg viewBox="0 0 1000 600" xmlns="http://www.w3.org/2000/svg" xmlns:xlink="http://www.w3.org/1999/xlink" width="100%" height="100%">

<rect x="50.0" y="30.0" width="940.0" height="467.99999999999994" stroke="#000" fill="#EEE"/>
<line x1="42.0" y1="497.9999999999999" x2="50.0" y2="497.9999999999999" stroke="#000"/>
<text x="26.000000000000004" y="497.9999999999999" text-anchor="end" font-weight="bold" font-size="small" fill="#111">
0.0
</text>
<line x1="42.0" y1="418.2677930200842" x2="50.0" y2="418.2677930200842" stroke="#000"/>
<text x="26.000000000000004" y="418.2677930200842" text-anchor="end" font-weight="bold" font-size="small" fill="#111">
0.5
</text>
<line x1="42.0" y1="338.53558604016837" x2="50.0" y2="338.53558604016837" stroke="#000"/>
<text x="26.000000000000004" y="338.53558604016837" text-anchor="end" font-weight="bold" font-size="small" fill="#111">
1.0
</text>
<line x1="42.0" y1="258.8033790602526" x2="50.0" y2="258.8033790602526" stroke="#000"/>
<text x="26.000000000000004" y="258.8033790602526" text-anchor="end" font-weight="bold" font-size="small" fill="#111">
1.5
</text>
<line x1="42.0" y1="179.07117208033685" x2="50.0" y2="179.07117208033685" stroke="#000"/>
<text x="26.000000000000004" y="179.07117208033685" text-anchor="end" font-weight="bold" font-size="small" fill="#111">
2.0
</text>
<rect x="268.5" y="36.00000000000001" width="80.0" height="18.0" fill="#7070f8" stroke="#888"/>
<text x="308.5" y="52.50000000000001" font-size="small" text-anchor="middle" font-weight="bold" fill="#EEE">
No JIT
</text>
<rect x="691.4999999999999" y="36.00000000000001" width="80.0" height="18.0" fill="orange" stroke="#888"/>
<text x="731.4999999999999" y="52.50000000000001" font-size="small" text-anchor="middle" font-weight="bold" fill="#EEE">
YJIT
</text>
<rect x="97.0" y="338.53558604016837" width="25.636363636363637" height="159.46441395983157" fill="#7070f8" data-tooltip="1.00x baseline speed (No JIT)"/>
<line x1="97.0" y1="338.42174100028166" x2="122.63636363636364" y2="338.42174100028166" stroke="#000"/>
<line x1="97.0" y1="338.64943108005514" x2="122.63636363636364" y2="338.64943108005514" stroke="#000"/>
<line x1="109.81818181818181" y1="338.42174100028166" x2="109.81818181818181" y2="338.64943108005514" stroke="#000"/>
<rect x="122.63636363636364" y="177.35773458511676" width="25.636363636363637" height="320.6422654148831" fill="orange" data-tooltip="2.01x baseline speed (YJIT)"/>
<line x1="122.63636363636364" y1="176.7123713536012" x2="148.27272727272728" y2="176.7123713536012" stroke="#000"/>
<line x1="122.63636363636364" y1="178.00309781663233" x2="148.27272727272728" y2="178.00309781663233" stroke="#000"/>
<line x1="135.45454545454547" y1="176.7123713536012" x2="135.45454545454547" y2="178.00309781663233" stroke="#000"/>
<line x1="135.45454545454547" y1="498.0" x2="135.45454545454547" y2="502.79999999999995" stroke="#000"/>
<text x="135.45454545454547" y="512.4" fill="#111" font-size="small" font-family="monospace" font-weight="bold" text-anchor="end" transform="rotate(-60, 135.45454545454547, 512.4)">
binarytrees
</text>
<rect x="173.9090909090909" y="338.53558604016837" width="25.636363636363637" height="159.46441395983157" fill="#7070f8" data-tooltip="1.00x baseline speed (No JIT)"/>
<line x1="173.9090909090909" y1="338.4885793279441" x2="199.54545454545453" y2="338.4885793279441" stroke="#000"/>
<line x1="173.9090909090909" y1="338.58259275239266" x2="199.54545454545453" y2="338.58259275239266" stroke="#000"/>
<line x1="186.72727272727272" y1="338.4885793279441" x2="186.72727272727272" y2="338.58259275239266" stroke="#000"/>
<rect x="199.54545454545453" y="254.99638065708803" width="25.636363636363637" height="243.00361934291192" fill="orange" data-tooltip="1.52x baseline speed (YJIT)"/>
<line x1="199.54545454545453" y1="254.8605772571249" x2="225.18181818181816" y2="254.8605772571249" stroke="#000"/>
<line x1="199.54545454545453" y1="255.13218405705112" x2="225.18181818181816" y2="255.13218405705112" stroke="#000"/>
<line x1="212.36363636363635" y1="254.8605772571249" x2="212.36363636363635" y2="255.13218405705112" stroke="#000"/>
<line x1="212.36363636363637" y1="498.0" x2="212.36363636363637" y2="502.79999999999995" stroke="#000"/>
<text x="212.36363636363637" y="512.4" fill="#111" font-size="small" font-family="monospace" font-weight="bold" text-anchor="end" transform="rotate(-60, 212.36363636363637, 512.4)">
chunky_png
</text>
<rect x="250.81818181818184" y="338.53558604016837" width="25.636363636363637" height="159.46441395983157" fill="#7070f8" data-tooltip="1.00x baseline speed (No JIT)"/>
<line x1="250.81818181818184" y1="337.56442702289985" x2="276.45454545454544" y2="337.56442702289985" stroke="#000"/>
<line x1="250.81818181818184" y1="339.5067450574369" x2="276.45454545454544" y2="339.5067450574369" stroke="#000"/>
<line x1="263.6363636363637" y1="337.56442702289985" x2="263.6363636363637" y2="339.5067450574369" stroke="#000"/>
<rect x="276.45454545454544" y="317.8706958841675" width="25.636363636363637" height="180.1293041158324" fill="orange" data-tooltip="1.13x baseline speed (YJIT)"/>
<line x1="276.45454545454544" y1="315.9575085831081" x2="302.09090909090907" y2="315.9575085831081" stroke="#000"/>
<line x1="276.45454545454544" y1="319.7838831852269" x2="302.09090909090907" y2="319.7838831852269" stroke="#000"/>
<line x1="289.2727272727273" y1="315.9575085831081" x2="289.2727272727273" y2="319.7838831852269" stroke="#000"/>
<line x1="289.2727272727273" y1="498.0" x2="289.2727272727273" y2="502.79999999999995" stroke="#000"/>
<text x="289.2727272727273" y="512.4" fill="#111" font-size="small" font-family="monospace" font-weight="bold" text-anchor="end" transform="rotate(-60, 289.2727272727273, 512.4)">
erubi
</text>
<rect x="327.72727272727275" y="338.53558604016837" width="25.636363636363637" height="159.46441395983157" fill="#7070f8" data-tooltip="1.00x baseline speed (No JIT)"/>
<line x1="327.72727272727275" y1="334.3819677200952" x2="353.3636363636364" y2="334.3819677200952" stroke="#000"/>
<line x1="327.72727272727275" y1="342.68920436024155" x2="353.3636363636364" y2="342.68920436024155" stroke="#000"/>
<line x1="340.5454545454546" y1="334.3819677200952" x2="340.5454545454546" y2="342.68920436024155" stroke="#000"/>
<rect x="353.3636363636364" y="261.3215902272036" width="25.636363636363637" height="236.67840977279633" fill="orange" data-tooltip="1.48x baseline speed (YJIT)"/>
<line x1="353.3636363636364" y1="250.20294252147022" x2="379.0" y2="250.20294252147022" stroke="#000"/>
<line x1="353.3636363636364" y1="272.440237932937" x2="379.0" y2="272.440237932937" stroke="#000"/>
<line x1="366.18181818181824" y1="250.20294252147022" x2="366.18181818181824" y2="272.440237932937" stroke="#000"/>
<line x1="366.18181818181824" y1="498.0" x2="366.18181818181824" y2="502.79999999999995" stroke="#000"/>
<text x="366.18181818181824" y="512.4" fill="#111" font-size="small" font-family="monospace" font-weight="bold" text-anchor="end" transform="rotate(-60, 366.18181818181824, 512.4)">
erubi_rails
</text>
<rect x="404.6363636363637" y="338.53558604016837" width="25.636363636363637" height="159.46441395983157" fill="#7070f8" data-tooltip="1.00x baseline speed (No JIT)"/>
<line x1="404.6363636363637" y1="337.5620156617783" x2="430.2727272727273" y2="337.5620156617783" stroke="#000"/>
<line x1="404.6363636363637" y1="339.50915641855846" x2="430.2727272727273" y2="339.50915641855846" stroke="#000"/>
<line x1="417.4545454545455" y1="337.5620156617783" x2="417.4545454545455" y2="339.50915641855846" stroke="#000"/>
<rect x="430.2727272727273" y="339.2509944660061" width="25.636363636363637" height="158.74900553399385" fill="orange" data-tooltip="1.00x baseline speed (YJIT)"/>
<line x1="430.2727272727273" y1="338.0198805998056" x2="455.90909090909093" y2="338.0198805998056" stroke="#000"/>
<line x1="430.2727272727273" y1="340.48210833220656" x2="455.90909090909093" y2="340.48210833220656" stroke="#000"/>
<line x1="443.0909090909091" y1="338.0198805998056" x2="443.0909090909091" y2="340.48210833220656" stroke="#000"/>
<line x1="443.0909090909091" y1="498.0" x2="443.0909090909091" y2="502.79999999999995" stroke="#000"/>
<text x="443.0909090909091" y="512.4" fill="#111" font-size="small" font-family="monospace" font-weight="bold" text-anchor="end" transform="rotate(-60, 443.0909090909091, 512.4)">
etanni
</text>
<rect x="481.5454545454546" y="338.53558604016837" width="25.636363636363637" height="159.46441395983157" fill="#7070f8" data-tooltip="1.00x baseline speed (No JIT)"/>
<line x1="481.5454545454546" y1="338.3741570893609" x2="507.1818181818183" y2="338.3741570893609" stroke="#000"/>
<line x1="481.5454545454546" y1="338.69701499097584" x2="507.1818181818183" y2="338.69701499097584" stroke="#000"/>
<line x1="494.36363636363643" y1="338.3741570893609" x2="494.36363636363643" y2="338.69701499097584" stroke="#000"/>
<rect x="507.1818181818183" y="131.70291234713585" width="25.636363636363637" height="366.2970876528641" fill="orange" data-tooltip="2.30x baseline speed (YJIT)"/>
<line x1="507.1818181818183" y1="131.1086939852263" x2="532.818181818182" y2="131.1086939852263" stroke="#000"/>
<line x1="507.1818181818183" y1="132.29713070904538" x2="532.818181818182" y2="132.29713070904538" stroke="#000"/>
<line x1="520.0000000000001" y1="131.1086939852263" x2="520.0000000000001" y2="132.29713070904538" stroke="#000"/>
<line x1="520.0" y1="498.0" x2="520.0" y2="502.79999999999995" stroke="#000"/>
<text x="520.0" y="512.4" fill="#111" font-size="small" font-family="monospace" font-weight="bold" text-anchor="end" transform="rotate(-60, 520.0, 512.4)">
fannkuchredux
</text>
<rect x="558.4545454545454" y="338.53558604016837" width="25.636363636363637" height="159.46441395983157" fill="#7070f8" data-tooltip="1.00x baseline speed (No JIT)"/>
<line x1="558.4545454545454" y1="336.52743628792126" x2="584.0909090909091" y2="336.52743628792126" stroke="#000"/>
<line x1="558.4545454545454" y1="340.5437357924155" x2="584.0909090909091" y2="340.5437357924155" stroke="#000"/>
<line x1="571.2727272727273" y1="336.52743628792126" x2="571.2727272727273" y2="340.5437357924155" stroke="#000"/>
<rect x="584.0909090909091" y="279.9393595503037" width="25.636363636363637" height="218.0606404496962" fill="orange" data-tooltip="1.37x baseline speed (YJIT)"/>
<line x1="584.0909090909091" y1="277.1920427530087" x2="609.7272727272727" y2="277.1920427530087" stroke="#000"/>
<line x1="584.0909090909091" y1="282.6866763475988" x2="609.7272727272727" y2="282.6866763475988" stroke="#000"/>
<line x1="596.909090909091" y1="277.1920427530087" x2="596.909090909091" y2="282.6866763475988" stroke="#000"/>
<line x1="596.9090909090909" y1="498.0" x2="596.9090909090909" y2="502.79999999999995" stroke="#000"/>
<text x="596.9090909090909" y="512.4" fill="#111" font-size="small" font-family="monospace" font-weight="bold" text-anchor="end" transform="rotate(-60, 596.9090909090909, 512.4)">
lee
</text>
<rect x="635.3636363636364" y="338.53558604016837" width="25.636363636363637" height="159.46441395983157" fill="#7070f8" data-tooltip="1.00x baseline speed (No JIT)"/>
<line x1="635.3636363636364" y1="338.3737375422554" x2="661.0" y2="338.3737375422554" stroke="#000"/>
<line x1="635.3636363636364" y1="338.6974345380814" x2="661.0" y2="338.6974345380814" stroke="#000"/>
<line x1="648.1818181818182" y1="338.3737375422554" x2="648.1818181818182" y2="338.6974345380814" stroke="#000"/>
<rect x="661.0" y="220.7824762080229" width="25.636363636363637" height="277.21752379197704" fill="orange" data-tooltip="1.74x baseline speed (YJIT)"/>
<line x1="661.0" y1="220.4834782569111" x2="686.6363636363637" y2="220.4834782569111" stroke="#000"/>
<line x1="661.0" y1="221.0814741591347" x2="686.6363636363637" y2="221.0814741591347" stroke="#000"/>
<line x1="673.8181818181819" y1="220.4834782569111" x2="673.8181818181819" y2="221.0814741591347" stroke="#000"/>
<line x1="673.8181818181818" y1="498.0" x2="673.8181818181818" y2="502.79999999999995" stroke="#000"/>
<text x="673.8181818181818" y="512.4" fill="#111" font-size="small" font-family="monospace" font-weight="bold" text-anchor="end" transform="rotate(-60, 673.8181818181818, 512.4)">
nbody
</text>
<rect x="712.2727272727273" y="338.53558604016837" width="25.636363636363637" height="159.46441395983157" fill="#7070f8" data-tooltip="1.00x baseline speed (No JIT)"/>
<line x1="712.2727272727273" y1="337.8600459223234" x2="737.909090909091" y2="337.8600459223234" stroke="#000"/>
<line x1="712.2727272727273" y1="339.2111261580133" x2="737.909090909091" y2="339.2111261580133" stroke="#000"/>
<line x1="725.0909090909091" y1="337.8600459223234" x2="725.0909090909091" y2="339.2111261580133" stroke="#000"/>
<rect x="737.909090909091" y="100.19999999999999" width="25.636363636363637" height="397.79999999999995" fill="orange" data-tooltip="2.49x baseline speed (YJIT)"/>
<line x1="737.909090909091" y1="97.8183683932394" x2="763.5454545454546" y2="97.8183683932394" stroke="#000"/>
<line x1="737.909090909091" y1="102.58163160676058" x2="763.5454545454546" y2="102.58163160676058" stroke="#000"/>
<line x1="750.7272727272727" y1="97.8183683932394" x2="750.7272727272727" y2="102.58163160676058" stroke="#000"/>
<line x1="750.7272727272726" y1="498.0" x2="750.7272727272726" y2="502.79999999999995" stroke="#000"/>
<text x="750.7272727272726" y="512.4" fill="#111" font-size="small" font-family="monospace" font-weight="bold" text-anchor="end" transform="rotate(-60, 750.7272727272726, 512.4)">
optcarrot
</text>
<rect x="789.1818181818182" y="338.53558604016837" width="25.636363636363637" height="159.46441395983157" fill="#7070f8" data-tooltip="1.00x baseline speed (No JIT)"/>
<line x1="789.1818181818182" y1="337.83902414196274" x2="814.8181818181819" y2="337.83902414196274" stroke="#000"/>
<line x1="789.1818181818182" y1="339.23214793837406" x2="814.8181818181819" y2="339.23214793837406" stroke="#000"/>
<line x1="802.0" y1="337.83902414196274" x2="802.0" y2="339.23214793837406" stroke="#000"/>
<rect x="814.8181818181819" y="196.0331568064619" width="25.636363636363637" height="301.966843193538" fill="orange" data-tooltip="1.89x baseline speed (YJIT)"/>
<line x1="814.8181818181819" y1="194.3228068167716" x2="840.4545454545456" y2="194.3228068167716" stroke="#000"/>
<line x1="814.8181818181819" y1="197.7435067961522" x2="840.4545454545456" y2="197.7435067961522" stroke="#000"/>
<line x1="827.6363636363637" y1="194.3228068167716" x2="827.6363636363637" y2="197.7435067961522" stroke="#000"/>
<line x1="827.6363636363636" y1="498.0" x2="827.6363636363636" y2="502.79999999999995" stroke="#000"/>
<text x="827.6363636363636" y="512.4" fill="#111" font-size="small" font-family="monospace" font-weight="bold" text-anchor="end" transform="rotate(-60, 827.6363636363636, 512.4)">
rubykon
</text>
<rect x="866.0909090909091" y="338.53558604016837" width="25.636363636363637" height="159.46441395983157" fill="#7070f8" data-tooltip="1.00x baseline speed (No JIT)"/>
<line x1="866.0909090909091" y1="338.1637144551915" x2="891.7272727272729" y2="338.1637144551915" stroke="#000"/>
<line x1="866.0909090909091" y1="338.9074576251453" x2="891.7272727272729" y2="338.9074576251453" stroke="#000"/>
<line x1="878.909090909091" y1="338.1637144551915" x2="878.909090909091" y2="338.9074576251453" stroke="#000"/>
<rect x="891.7272727272729" y="101.68199600989868" width="25.636363636363637" height="396.3180039901012" fill="orange" data-tooltip="2.49x baseline speed (YJIT)"/>
<line x1="891.7272727272729" y1="100.7380405225181" x2="917.3636363636365" y2="100.7380405225181" stroke="#000"/>
<line x1="891.7272727272729" y1="102.62595149727927" x2="917.3636363636365" y2="102.62595149727927" stroke="#000"/>
<line x1="904.5454545454546" y1="100.7380405225181" x2="904.5454545454546" y2="102.62595149727927" stroke="#000"/>
<line x1="904.5454545454545" y1="498.0" x2="904.5454545454545" y2="502.79999999999995" stroke="#000"/>
<text x="904.5454545454545" y="512.4" fill="#111" font-size="small" font-family="monospace" font-weight="bold" text-anchor="end" transform="rotate(-60, 904.5454545454545, 512.4)">
setivar_object
</text>
</svg>