<svg viewBox="0 0 1000 600" xmlns="http://www.w3.org/2000/svg" xmlns:xlink="http://www.w3.org/1999/xlink" width="100%" height="100%">

<rect x="50.0" y="30.0" width="940.0" height="467.99999999999994" stroke="#000" fill="#EEE"/>
<line x1="42.0" y1="497.9999999999999" x2="50.0" y2="497.9999999999999" stroke="#000"/>
<text x="26.000000000000004" y="497.9999999999999" text-anchor="end" font-weight="bold" font-size="small" fill="#111">
0.0
</text>
<line x1="42.0" y1="445.51123000771014" x2="50.0" y2="445.51123000771014" stroke="#000"/>
<text x="26.000000000000004" y="445.51123000771014" text-anchor="end" font-weight="bold" font-size="small" fill="#111">
0.2
</text>
<line x1="42.0" y1="393.02246001542034" x2="50.0" y2="393.02246001542034" stroke="#000"/>
<text x="26.000000000000004" y="393.02246001542034" text-anchor="end" font-weight="bold" font-size="small" fill="#111">
0.4
</text>
<line x1="42.0" y1="340.53369002313036" x2="50.0" y2="340.53369002313036" stroke="#000"/>
<text x="26.000000000000004" y="340.53369002313036" text-anchor="end" font-weight="bold" font-size="small" fill="#111">
0.6
</text>
<line x1="42.0" y1="288.0449200308407" x2="50.0" y2="288.0449200308407" stroke="#000"/>
<text x="26.000000000000004" y="288.0449200308407" text-anchor="end" font-weight="bold" font-size="small" fill="#111">
0.8
</text>
<line x1="42.0" y1="235.55615003855078" x2="50.0" y2="235.55615003855078" stroke="#000"/>
<text x="26.000000000000004" y="235.55615003855078" text-anchor="end" font-weight="bold" font-size="small" fill="#111">
1.0
</text>
<line x1="42.0" y1="183.06738004626095" x2="50.0" y2="183.06738004626095" stroke="#000"/>
<text x="26.000000000000004" y="183.06738004626095" text-anchor="end" font-weight="bold" font-size="small" fill="#111">
1.2
</text>
<line x1="42.0" y1="130.57861005397118" x2="50.0" y2="130.57861005397118" stroke="#000"/>
<text x="26.000000000000004" y="130.57861005397118" text-anchor="end" font-weight="bold" font-size="small" fill="#111">
1.4
</text>
<rect x="197.99999999999997" y="36.00000000000001" width="80.0" height="18.0" fill="#7070f8" stroke="#888"/>
<text x="238.0" y="52.50000000000001" font-size="small" text-anchor="middle" font-weight="bold" fill="#EEE">
No JIT
</text>
<rect x="479.99999999999994" y="36.00000000000001" width="80.0" height="18.0" fill="orange" stroke="#888"/>
<text x="519.9999999999999" y="52.50000000000001" font-size="small" text-anchor="middle" font-weight="bold" fill="#EEE">
MJIT
</text>
<rect x="761.9999999999999" y="36.00000000000001" width="80.0" height="18.0" fill="green" stroke="#888"/>
<text x="801.9999999999999" y="52.50000000000001" font-size="small" text-anchor="middle" font-weight="bold" fill="#EEE">
YJIT
</text>
<rect x="97.0" y="235.55615003855078" width="35.25" height="262.44384996144913" fill="#7070f8" data-tooltip="1.00x baseline speed (No JIT)"/>
<line x1="97.0" y1="234.5053641948646" x2="132.25" y2="234.5053641948646" stroke="#000"/>
<line x1="97.0" y1="236.606935882237" x2="132.25" y2="236.606935882237" stroke="#000"/>
<line x1="114.625" y1="234.5053641948646" x2="114.625" y2="236.606935882237" stroke="#000"/>
<rect x="132.25" y="244.83962205699572" width="35.25" height="253.16037794300422" fill="orange" data-tooltip="0.96x baseline speed (MJIT)"/>
<line x1="132.25" y1="243.48455640062113" x2="167.5" y2="243.48455640062113" stroke="#000"/>
<line x1="132.25" y1="246.1946877133703" x2="167.5" y2="246.1946877133703" stroke="#000"/>
<line x1="149.875" y1="243.48455640062113" x2="149.875" y2="246.1946877133703" stroke="#000"/>
<rect x="167.49999999999997" y="113.76252176548331" width="35.25" height="384.23747823451663" fill="green" data-tooltip="1.46x baseline speed (YJIT)"/>
<line x1="167.49999999999997" y1="110.8570032665411" x2="202.75" y2="110.8570032665411" stroke="#000"/>
<line x1="167.49999999999997" y1="116.66804026442551" x2="202.75" y2="116.66804026442551" stroke="#000"/>
<line x1="185.12499999999997" y1="110.8570032665411" x2="185.12499999999997" y2="116.66804026442551" stroke="#000"/>
<line x1="167.49999999999997" y1="498.0" x2="167.49999999999997" y2="502.79999999999995" stroke="#000"/>
<text x="167.49999999999997" y="512.4" fill="#111" font-size="small" font-family="monospace" font-weight="bold" text-anchor="end" transform="rotate(-60, 167.49999999999997, 512.4)">
activerecord
</text>
<rect x="238.0" y="235.55615003855078" width="35.25" height="262.44384996144913" fill="#7070f8" data-tooltip="1.00x baseline speed (No JIT)"/>
<line x1="238.0" y1="232.91883898503787" x2="273.25" y2="232.91883898503787" stroke="#000"/>
<line x1="238.0" y1="238.19346109206373" x2="273.25" y2="238.19346109206373" stroke="#000"/>
<line x1="255.625" y1="232.91883898503787" x2="255.625" y2="238.19346109206373" stroke="#000"/>
<rect x="308.5" y="147.91161219200146" width="35.25" height="350.0883878079985" fill="green" data-tooltip="1.33x baseline speed (YJIT)"/>
<line x1="308.5" y1="141.38928518015194" x2="343.75" y2="141.38928518015194" stroke="#000"/>
<line x1="308.5" y1="154.43393920385097" x2="343.75" y2="154.43393920385097" stroke="#000"/>
<line x1="326.125" y1="141.38928518015194" x2="326.125" y2="154.43393920385097" stroke="#000"/>
<line x1="308.5" y1="498.0" x2="308.5" y2="502.79999999999995" stroke="#000"/>
<text x="308.5" y="512.4" fill="#111" font-size="small" font-family="monospace" font-weight="bold" text-anchor="end" transform="rotate(-60, 308.5, 512.4)">
hexapdf
</text>
<rect x="379.0" y="235.55615003855078" width="35.25" height="262.44384996144913" fill="#7070f8" data-tooltip="1.00x baseline speed (No JIT)"/>
<line x1="379.0" y1="230.98854896812662" x2="414.25" y2="230.98854896812662" stroke="#000"/>
<line x1="379.0" y1="240.12375110897497" x2="414.25" y2="240.12375110897497" stroke="#000"/>
<line x1="396.625" y1="230.98854896812662" x2="396.625" y2="240.12375110897497" stroke="#000"/>
<rect x="414.25" y="206.12027241493595" width="35.25" height="291.87972758506396" fill="orange" data-tooltip="1.11x baseline speed (MJIT)"/>
<line x1="414.25" y1="194.91333334323986" x2="449.5" y2="194.91333334323986" stroke="#000"/>
<line x1="414.25" y1="217.32721148663205" x2="449.5" y2="217.32721148663205" stroke="#000"/>
<line x1="431.875" y1="194.91333334323986" x2="431.875" y2="217.32721148663205" stroke="#000"/>
<rect x="449.5" y="100.19999999999999" width="35.25" height="397.79999999999995" fill="green" data-tooltip="1.52x baseline speed (YJIT)"/>
<line x1="449.5" y1="90.86762161418169" x2="484.75" y2="90.86762161418169" stroke="#000"/>
<line x1="449.5" y1="109.53237838581829" x2="484.75" y2="109.53237838581829" stroke="#000"/>
<line x1="467.125" y1="90.86762161418169" x2="467.125" y2="109.53237838581829" stroke="#000"/>
<line x1="449.5" y1="498.0" x2="449.5" y2="502.79999999999995" stroke="#000"/>
<text x="449.5" y="512.4" fill="#111" font-size="small" font-family="monospace" font-weight="bold" text-anchor="end" transform="rotate(-60, 449.5, 512.4)">
liquid-render
</text>
<rect x="519.9999999999999" y="235.55615003855078" width="35.25" height="262.44384996144913" fill="#7070f8" data-tooltip="1.00x baseline speed (No JIT)"/>
<line x1="519.9999999999999" y1="231.83819091687528" x2="555.2499999999999" y2="231.83819091687528" stroke="#000"/>
<line x1="519.9999999999999" y1="239.27410916022632" x2="555.2499999999999" y2="239.27410916022632" stroke="#000"/>
<line x1="537.6249999999999" y1="231.83819091687528" x2="537.6249999999999" y2="239.27410916022632" stroke="#000"/>
<rect x="555.2499999999999" y="235.1055409547176" width="35.25" height="262.8944590452823" fill="orange" data-tooltip="1.00x baseline speed (MJIT)"/>
<line x1="555.2499999999999" y1="225.20424093535834" x2="590.4999999999999" y2="225.20424093535834" stroke="#000"/>
<line x1="555.2499999999999" y1="245.00684097407688" x2="590.4999999999999" y2="245.00684097407688" stroke="#000"/>
<line x1="572.8749999999999" y1="225.20424093535834" x2="572.8749999999999" y2="245.00684097407688" stroke="#000"/>
<rect x="590.4999999999999" y="201.1506844579848" width="35.25" height="296.8493155420152" fill="green" data-tooltip="1.13x baseline speed (YJIT)"/>
<line x1="590.4999999999999" y1="196.88236934870767" x2="625.7499999999999" y2="196.88236934870767" stroke="#000"/>
<line x1="590.4999999999999" y1="205.4189995672619" x2="625.7499999999999" y2="205.4189995672619" stroke="#000"/>
<line x1="608.1249999999999" y1="196.88236934870767" x2="608.1249999999999" y2="205.4189995672619" stroke="#000"/>
<line x1="590.4999999999999" y1="498.0" x2="590.4999999999999" y2="502.79999999999995" stroke="#000"/>
<text x="590.4999999999999" y="512.4" fill="#111" font-size="small" font-family="monospace" font-weight="bold" text-anchor="end" transform="rotate(-60, 590.4999999999999, 512.4)">
mail
</text>
<rect x="660.9999999999999" y="235.55615003855078" width="35.25" height="262.44384996144913" fill="#7070f8" data-tooltip="1.00x baseline speed (No JIT)"/>
<line x1="660.9999999999999" y1="235.04331337665738" x2="696.2499999999999" y2="235.04331337665738" stroke="#000"/>
<line x1="660.9999999999999" y1="236.0689867004442" x2="696.2499999999999" y2="236.0689867004442" stroke="#000"/>
<line x1="678.6249999999999" y1="235.04331337665738" x2="678.6249999999999" y2="236.0689867004442" stroke="#000"/>
<rect x="696.2499999999999" y="200.36372380836823" width="35.25" height="297.6362761916317" fill="orange" data-tooltip="1.13x baseline speed (MJIT)"/>
<line x1="696.2499999999999" y1="199.73656483711494" x2="731.4999999999999" y2="199.73656483711494" stroke="#000"/>
<line x1="696.2499999999999" y1="200.99088277962156" x2="731.4999999999999" y2="200.99088277962156" stroke="#000"/>
<line x1="713.8749999999999" y1="199.73656483711494" x2="713.8749999999999" y2="200.99088277962156" stroke="#000"/>
<rect x="731.4999999999999" y="158.89899247426158" width="35.25" height="339.1010075257384" fill="green" data-tooltip="1.29x baseline speed (YJIT)"/>
<line x1="731.4999999999999" y1="158.2345349863918" x2="766.7499999999999" y2="158.2345349863918" stroke="#000"/>
<line x1="731.4999999999999" y1="159.56344996213136" x2="766.7499999999999" y2="159.56344996213136" stroke="#000"/>
<line x1="749.1249999999999" y1="158.2345349863918" x2="749.1249999999999" y2="159.56344996213136" stroke="#000"/>
<line x1="731.4999999999999" y1="498.0" x2="731.4999999999999" y2="502.79999999999995" stroke="#000"/>
<text x="731.4999999999999" y="512.4" fill="#111" font-size="small" font-family="monospace" font-weight="bold" text-anchor="end" transform="rotate(-60, 731.4999999999999, 512.4)">
psych-load
</text>
<rect x="801.9999999999999" y="235.55615003855078" width="35.25" height="262.44384996144913" fill="#7070f8" data-tooltip="1.00x baseline speed (No JIT)"/>
<line x1="801.9999999999999" y1="233.59999423829535" x2="837.2499999999999" y2="233.59999423829535" stroke="#000"/>
<line x1="801.9999999999999" y1="237.51230583880624" x2="837.2499999999999" y2="237.51230583880624" stroke="#000"/>
<line x1="819.6249999999999" y1="233.59999423829535" x2="819.6249999999999" y2="237.51230583880624" stroke="#000"/>
<rect x="837.2499999999999" y="236.78730132132753" width="35.25" height="261.2126986786724" fill="orange" data-tooltip="1.00x baseline speed (MJIT)"/>
<line x1="837.2499999999999" y1="234.36278190660852" x2="872.4999999999999" y2="234.36278190660852" stroke="#000"/>
<line x1="837.2499999999999" y1="239.21182073604658" x2="872.4999999999999" y2="239.21182073604658" stroke="#000"/>
<line x1="854.8749999999999" y1="234.36278190660852" x2="854.8749999999999" y2="239.21182073604658" stroke="#000"/>
<rect x="872.4999999999999" y="152.11593384850534" width="35.25" height="345.8840661514946" fill="green" data-tooltip="1.32x baseline speed (YJIT)"/>
<line x1="872.4999999999999" y1="148.39575465756334" x2="907.75" y2="148.39575465756334" stroke="#000"/>
<line x1="872.4999999999999" y1="155.8361130394473" x2="907.75" y2="155.8361130394473" stroke="#000"/>
<line x1="890.125" y1="148.39575465756334" x2="890.125" y2="155.8361130394473" stroke="#000"/>
<line x1="872.4999999999999" y1="498.0" x2="872.4999999999999" y2="502.79999999999995" stroke="#000"/>
<text x="872.4999999999999" y="512.4" fill="#111" font-size="small" font-family="monospace" font-weight="bold" text-anchor="end" transform="rotate(-60, 872.4999999999999, 512.4)">
railsbench
</text>
</svg>