<svg viewBox="0 0 1000 600" xmlns="http://www.w3.org/2000/svg" xmlns:xlink="http://www.w3.org/1999/xlink" width="100%" height="100%">

<rect x="50.0" y="30.0" width="940.0" height="467.99999999999994" stroke="#000" fill="#EEE"/>
<line x1="42.0" y1="497.9999999999999" x2="50.0" y2="497.9999999999999" stroke="#000"/>
<text x="26.000000000000004" y="497.9999999999999" text-anchor="end" font-weight="bold" font-size="small" fill="#111">
0.0
</text>
<line x1="42.0" y1="440.8541323420809" x2="50.0" y2="440.8541323420809" stroke="#000"/>
<text x="26.000000000000004" y="440.8541323420809" text-anchor="end" font-weight="bold" font-size="small" fill="#111">
1.0
</text>
<line x1="42.0" y1="383.7082646841618" x2="50.0" y2="383.7082646841618" stroke="#000"/>
<text x="26.000000000000004" y="383.7082646841618" text-anchor="end" font-weight="bold" font-size="small" fill="#111">
2.0
</text>
<line x1="42.0" y1="326.5623970262428" x2="50.0" y2="326.5623970262428" stroke="#000"/>
<text x="26.000000000000004" y="326.5623970262428" text-anchor="end" font-weight="bold" font-size="small" fill="#111">
3.0
</text>
<line x1="42.0" y1="269.4165293683238" x2="50.0" y2="269.4165293683238" stroke="#000"/>
<text x="26.000000000000004" y="269.4165293683238" text-anchor="end" font-weight="bold" font-size="small" fill="#111">
4.0
</text>
<line x1="42.0" y1="212.27066171040468" x2="50.0" y2="212.27066171040468" stroke="#000"/>
<text x="26.000000000000004" y="212.27066171040468" text-anchor="end" font-weight="bold" font-size="small" fill="#111">
5.0
</text>
<line x1="42.0" y1="155.12479405248564" x2="50.0" y2="155.12479405248564" stroke="#000"/>
<text x="26.000000000000004" y="155.12479405248564" text-anchor="end" font-weight="bold" font-size="small" fill="#111">
6.0
</text>
<rect x="268.5" y="36.00000000000001" width="80.0" height="18.0" fill="#7070f8" stroke="#888"/>
<text x="308.5" y="52.50000000000001" font-size="small" text-anchor="middle" font-weight="bold" fill="#EEE">
No JIT
</text>
<rect x="691.4999999999999" y="36.00000000000001" width="80.0" height="18.0" fill="orange" stroke="#888"/>
<text x="731.4999999999999" y="52.50000000000001" font-size="small" text-anchor="middle" font-weight="bold" fill="#EEE">
YJIT
</text>
<rect x="97.0" y="440.8541323420809" width="11.28" height="57.14586765791905" fill="#7070f8" data-tooltip="1.00x baseline speed (No JIT)"/>
<line x1="97.0" y1="440.8117184187351" x2="108.28" y2="440.8117184187351" stroke="#000"/>
<line x1="97.0" y1="440.89654626542676" x2="108.28" y2="440.89654626542676" stroke="#000"/>
<line x1="102.64000000000001" y1="440.8117184187351" x2="102.64000000000001" y2="440.89654626542676" stroke="#000"/>
<rect x="108.28" y="437.7048130858696" width="11.28" height="60.29518691413032" fill="orange" data-tooltip="1.06x baseline speed (YJIT)"/>
<line x1="108.28" y1="437.5362154414293" x2="119.56" y2="437.5362154414293" stroke="#000"/>
<line x1="108.28" y1="437.8734107303099" x2="119.56" y2="437.8734107303099" stroke="#000"/>
<line x1="113.92" y1="437.5362154414293" x2="113.92" y2="437.8734107303099" stroke="#000"/>
<line x1="113.92" y1="498.0" x2="113.92" y2="502.79999999999995" stroke="#000"/>
<text x="113.92" y="512.4" fill="#111" font-size="small" font-family="monospace" font-weight="bold" text-anchor="end" transform="rotate(-60, 113.92, 512.4)">
activerecord
</text>
<rect x="130.84" y="440.8541323420809" width="11.28" height="57.14586765791905" fill="#7070f8" data-tooltip="1.00x baseline speed (No JIT)"/>
<line x1="130.84" y1="440.30714736655057" x2="142.12000000000003" y2="440.30714736655057" stroke="#000"/>
<line x1="130.84" y1="441.4011173176113" x2="142.12000000000003" y2="441.4011173176113" stroke="#000"/>
<line x1="136.48000000000002" y1="440.30714736655057" x2="136.48000000000002" y2="441.4011173176113" stroke="#000"/>
<rect x="142.12000000000003" y="437.63778183793" width="11.28" height="60.362218162069894" fill="orange" data-tooltip="1.06x baseline speed (YJIT)"/>
<line x1="142.12000000000003" y1="436.43332314267104" x2="153.40000000000003" y2="436.43332314267104" stroke="#000"/>
<line x1="142.12000000000003" y1="438.84224053318894" x2="153.40000000000003" y2="438.84224053318894" stroke="#000"/>
<line x1="147.76000000000002" y1="436.43332314267104" x2="147.76000000000002" y2="438.84224053318894" stroke="#000"/>
<line x1="147.76" y1="498.0" x2="147.76" y2="502.79999999999995" stroke="#000"/>
<text x="147.76" y="512.4" fill="#111" font-size="small" font-family="monospace" font-weight="bold" text-anchor="end" transform="rotate(-60, 147.76, 512.4)">
hexapdf
</text>
<rect x="164.68" y="440.8541323420809" width="11.28" height="57.14586765791905" fill="#7070f8" data-tooltip="1.00x baseline speed (No JIT)"/>
<line x1="164.68" y1="440.34222770620323" x2="175.96" y2="440.34222770620323" stroke="#000"/>
<line x1="164.68" y1="441.36603697795863" x2="175.96" y2="441.36603697795863" stroke="#000"/>
<line x1="170.32" y1="440.34222770620323" x2="170.32" y2="441.36603697795863" stroke="#000"/>
<rect x="175.96" y="426.3604898695355" width="11.28" height="71.63951013046434" fill="orange" data-tooltip="1.25x baseline speed (YJIT)"/>
<line x1="175.96" y1="425.16081274554296" x2="187.24" y2="425.16081274554296" stroke="#000"/>
<line x1="175.96" y1="427.5601669935281" x2="187.24" y2="427.5601669935281" stroke="#000"/>
<line x1="181.60000000000002" y1="425.16081274554296" x2="181.60000000000002" y2="427.5601669935281" stroke="#000"/>
<line x1="181.6" y1="498.0" x2="181.6" y2="502.79999999999995" stroke="#000"/>
<text x="181.6" y="512.4" fill="#111" font-size="small" font-family="monospace" font-weight="bold" text-anchor="end" transform="rotate(-60, 181.6, 512.4)">
liquid-render
</text>
<rect x="198.52" y="440.8541323420809" width="11.28" height="57.14586765791905" fill="#7070f8" data-tooltip="1.00x baseline speed (No JIT)"/>
<line x1="198.52" y1="440.7848792436539" x2="209.8" y2="440.7848792436539" stroke="#000"/>
<line x1="198.52" y1="440.92338544050796" x2="209.8" y2="440.92338544050796" stroke="#000"/>
<line x1="204.16" y1="440.7848792436539" x2="204.16" y2="440.92338544050796" stroke="#000"/>
<rect x="209.8" y="442.71109666411826" width="11.28" height="55.28890333588167" fill="orange" data-tooltip="0.97x baseline speed (YJIT)"/>
<line x1="209.8" y1="442.6236395264863" x2="221.08" y2="442.6236395264863" stroke="#000"/>
<line x1="209.8" y1="442.79855380175024" x2="221.08" y2="442.79855380175024" stroke="#000"/>
<line x1="215.44000000000003" y1="442.6236395264863" x2="215.44000000000003" y2="442.79855380175024" stroke="#000"/>
<line x1="215.44" y1="498.0" x2="215.44" y2="502.79999999999995" stroke="#000"/>
<text x="215.44" y="512.4" fill="#111" font-size="small" font-family="monospace" font-weight="bold" text-anchor="end" transform="rotate(-60, 215.44, 512.4)">
mail
</text>
<rect x="232.36" y="440.8541323420809" width="11.28" height="57.14586765791905" fill="#7070f8" data-tooltip="1.00x baseline speed (No JIT)"/>
<line x1="232.36" y1="440.78187188253395" x2="243.64000000000001" y2="440.78187188253395" stroke="#000"/>
<line x1="232.36" y1="440.9263928016279" x2="243.64000000000001" y2="440.9263928016279" stroke="#000"/>
<line x1="238.00000000000003" y1="440.78187188253395" x2="238.00000000000003" y2="440.9263928016279" stroke="#000"/>
<rect x="243.64000000000001" y="428.92794398662204" width="11.28" height="69.07205601337785" fill="orange" data-tooltip="1.21x baseline speed (YJIT)"/>
<line x1="243.64000000000001" y1="428.83863880011313" x2="254.92000000000004" y2="428.83863880011313" stroke="#000"/>
<line x1="243.64000000000001" y1="429.01724917313095" x2="254.92000000000004" y2="429.01724917313095" stroke="#000"/>
<line x1="249.28000000000003" y1="428.83863880011313" x2="249.28000000000003" y2="429.01724917313095" stroke="#000"/>
<line x1="249.28" y1="498.0" x2="249.28" y2="502.79999999999995" stroke="#000"/>
<text x="249.28" y="512.4" fill="#111" font-size="small" font-family="monospace" font-weight="bold" text-anchor="end" transform="rotate(-60, 249.28, 512.4)">
psych-load
</text>
<rect x="266.2" y="440.8541323420809" width="11.28" height="57.14586765791905" fill="#7070f8" data-tooltip="1.00x baseline speed (No JIT)"/>
<line x1="266.2" y1="440.6346438067193" x2="277.48" y2="440.6346438067193" stroke="#000"/>
<line x1="266.2" y1="441.0736208774426" x2="277.48" y2="441.0736208774426" stroke="#000"/>
<line x1="271.84" y1="440.6346438067193" x2="271.84" y2="441.0736208774426" stroke="#000"/>
<rect x="277.48" y="436.9945290159995" width="11.28" height="61.00547098400043" fill="orange" data-tooltip="1.07x baseline speed (YJIT)"/>
<line x1="277.48" y1="436.58248212791915" x2="288.76" y2="436.58248212791915" stroke="#000"/>
<line x1="277.48" y1="437.4065759040798" x2="288.76" y2="437.4065759040798" stroke="#000"/>
<line x1="283.12" y1="436.58248212791915" x2="283.12" y2="437.4065759040798" stroke="#000"/>
<line x1="283.12" y1="498.0" x2="283.12" y2="502.79999999999995" stroke="#000"/>
<text x="283.12" y="512.4" fill="#111" font-size="small" font-family="monospace" font-weight="bold" text-anchor="end" transform="rotate(-60, 283.12, 512.4)">
railsbench
</text>
<rect x="300.03999999999996" y="440.8541323420809" width="11.28" height="57.14586765791905" fill="#7070f8" data-tooltip="1.00x baseline speed (No JIT)"/>
<line x1="300.03999999999996" y1="440.60262258439343" x2="311.32" y2="440.60262258439343" stroke="#000"/>
<line x1="300.03999999999996" y1="441.10564209976843" x2="311.32" y2="441.10564209976843" stroke="#000"/>
<line x1="305.67999999999995" y1="440.60262258439343" x2="305.67999999999995" y2="441.10564209976843" stroke="#000"/>
<rect x="311.32" y="389.0711514066024" width="11.28" height="108.9288485933976" fill="orange" data-tooltip="1.91x baseline speed (YJIT)"/>
<line x1="311.32" y1="384.9324196352065" x2="322.6" y2="384.9324196352065" stroke="#000"/>
<line x1="311.32" y1="393.2098831779983" x2="322.6" y2="393.2098831779983" stroke="#000"/>
<line x1="316.96" y1="384.9324196352065" x2="316.96" y2="393.2098831779983" stroke="#000"/>
<line x1="316.96" y1="498.0" x2="316.96" y2="502.79999999999995" stroke="#000"/>
<text x="316.96" y="512.4" fill="#111" font-size="small" font-family="monospace" font-weight="bold" text-anchor="end" transform="rotate(-60, 316.96, 512.4)">
binarytrees
</text>
<rect x="333.88" y="440.8541323420809" width="11.28" height="57.14586765791905" fill="#7070f8" data-tooltip="1.00x baseline speed (No JIT)"/>
<line x1="333.88" y1="440.57979604434416" x2="345.16" y2="440.57979604434416" stroke="#000"/>
<line x1="333.88" y1="441.1284686398177" x2="345.16" y2="441.1284686398177" stroke="#000"/>
<line x1="339.52" y1="440.57979604434416" x2="339.52" y2="441.1284686398177" stroke="#000"/>
<rect x="345.16" y="411.462851384904" width="11.28" height="86.5371486150959" fill="orange" data-tooltip="1.51x baseline speed (YJIT)"/>
<line x1="345.16" y1="411.0036097148321" x2="356.44000000000005" y2="411.0036097148321" stroke="#000"/>
<line x1="345.16" y1="411.92209305497596" x2="356.44000000000005" y2="411.92209305497596" stroke="#000"/>
<line x1="350.8" y1="411.0036097148321" x2="350.8" y2="411.92209305497596" stroke="#000"/>
<line x1="350.8" y1="498.0" x2="350.8" y2="502.79999999999995" stroke="#000"/>
<text x="350.8" y="512.4" fill="#111" font-size="small" font-family="monospace" font-weight="bold" text-anchor="end" transform="rotate(-60, 350.8, 512.4)">
chunky_png
</text>
<rect x="367.72" y="440.8541323420809" width="11.28" height="57.14586765791905" fill="#7070f8" data-tooltip="1.00x baseline speed (No JIT)"/>
<line x1="367.72" y1="440.03047938788524" x2="379.00000000000006" y2="440.03047938788524" stroke="#000"/>
<line x1="367.72" y1="441.6777852962766" x2="379.00000000000006" y2="441.6777852962766" stroke="#000"/>
<line x1="373.36" y1="440.03047938788524" x2="373.36" y2="441.6777852962766" stroke="#000"/>
<rect x="379.00000000000006" y="437.1417412530048" width="11.28" height="60.8582587469951" fill="orange" data-tooltip="1.06x baseline speed (YJIT)"/>
<line x1="379.00000000000006" y1="436.00411434207473" x2="390.2800000000001" y2="436.00411434207473" stroke="#000"/>
<line x1="379.00000000000006" y1="438.2793681639349" x2="390.2800000000001" y2="438.2793681639349" stroke="#000"/>
<line x1="384.64000000000004" y1="436.00411434207473" x2="384.64000000000004" y2="438.2793681639349" stroke="#000"/>
<line x1="384.64000000000004" y1="498.0" x2="384.64000000000004" y2="502.79999999999995" stroke="#000"/>
<text x="384.64000000000004" y="512.4" fill="#111" font-size="small" font-family="monospace" font-weight="bold" text-anchor="end" transform="rotate(-60, 384.64000000000004, 512.4)">
erubi
</text>
<rect x="401.56" y="440.8541323420809" width="11.28" height="57.14586765791905" fill="#7070f8" data-tooltip="1.00x baseline speed (No JIT)"/>
<line x1="401.56" y1="439.6735645701853" x2="412.84000000000003" y2="439.6735645701853" stroke="#000"/>
<line x1="401.56" y1="442.03470011397656" x2="412.84000000000003" y2="442.03470011397656" stroke="#000"/>
<line x1="407.2" y1="439.6735645701853" x2="407.2" y2="442.03470011397656" stroke="#000"/>
<rect x="412.84000000000003" y="434.4513953692198" width="11.28" height="63.54860463078017" fill="orange" data-tooltip="1.11x baseline speed (YJIT)"/>
<line x1="412.84000000000003" y1="432.34835011609664" x2="424.12000000000006" y2="432.34835011609664" stroke="#000"/>
<line x1="412.84000000000003" y1="436.554440622343" x2="424.12000000000006" y2="436.554440622343" stroke="#000"/>
<line x1="418.48" y1="432.34835011609664" x2="418.48" y2="436.554440622343" stroke="#000"/>
<line x1="418.48" y1="498.0" x2="418.48" y2="502.79999999999995" stroke="#000"/>
<text x="418.48" y="512.4" fill="#111" font-size="small" font-family="monospace" font-weight="bold" text-anchor="end" transform="rotate(-60, 418.48, 512.4)">
erubi_rails
</text>
<rect x="435.40000000000003" y="440.8541323420809" width="11.28" height="57.14586765791905" fill="#7070f8" data-tooltip="1.00x baseline speed (No JIT)"/>
<line x1="435.40000000000003" y1="440.5481453415841" x2="446.68" y2="440.5481453415841" stroke="#000"/>
<line x1="435.40000000000003" y1="441.1601193425778" x2="446.68" y2="441.1601193425778" stroke="#000"/>
<line x1="441.03999999999996" y1="440.5481453415841" x2="441.03999999999996" y2="441.1601193425778" stroke="#000"/>
<rect x="446.68" y="441.8546216674252" width="11.28" height="56.145378332574694" fill="orange" data-tooltip="0.98x baseline speed (YJIT)"/>
<line x1="446.68" y1="441.3126687611841" x2="457.96000000000004" y2="441.3126687611841" stroke="#000"/>
<line x1="446.68" y1="442.39657457366627" x2="457.96000000000004" y2="442.39657457366627" stroke="#000"/>
<line x1="452.32" y1="441.3126687611841" x2="452.32" y2="442.39657457366627" stroke="#000"/>
<line x1="452.32" y1="498.0" x2="452.32" y2="502.79999999999995" stroke="#000"/>
<text x="452.32" y="512.4" fill="#111" font-size="small" font-family="monospace" font-weight="bold" text-anchor="end" transform="rotate(-60, 452.32, 512.4)">
etanni
</text>
<rect x="469.24" y="440.8541323420809" width="11.28" height="57.14586765791905" fill="#7070f8" data-tooltip="1.00x baseline speed (No JIT)"/>
<line x1="469.24" y1="440.07664912628104" x2="480.52" y2="440.07664912628104" stroke="#000"/>
<line x1="469.24" y1="441.6316155578808" x2="480.52" y2="441.6316155578808" stroke="#000"/>
<line x1="474.88" y1="440.07664912628104" x2="474.88" y2="441.6316155578808" stroke="#000"/>
<rect x="480.52" y="352.63641893427524" width="11.28" height="145.36358106572467" fill="orange" data-tooltip="2.54x baseline speed (YJIT)"/>
<line x1="480.52" y1="350.6365166458359" x2="491.8" y2="350.6365166458359" stroke="#000"/>
<line x1="480.52" y1="354.63632122271457" x2="491.8" y2="354.63632122271457" stroke="#000"/>
<line x1="486.15999999999997" y1="350.6365166458359" x2="486.15999999999997" y2="354.63632122271457" stroke="#000"/>
<line x1="486.15999999999997" y1="498.0" x2="486.15999999999997" y2="502.79999999999995" stroke="#000"/>
<text x="486.15999999999997" y="512.4" fill="#111" font-size="small" font-family="monospace" font-weight="bold" text-anchor="end" transform="rotate(-60, 486.15999999999997, 512.4)">
fannkuchredux
</text>
<rect x="503.08" y="440.8541323420809" width="11.28" height="57.14586765791905" fill="#7070f8" data-tooltip="1.00x baseline speed (No JIT)"/>
<line x1="503.08" y1="440.49971266720775" x2="514.3599999999999" y2="440.49971266720775" stroke="#000"/>
<line x1="503.08" y1="441.2085520169541" x2="514.3599999999999" y2="441.2085520169541" stroke="#000"/>
<line x1="508.71999999999997" y1="440.49971266720775" x2="508.71999999999997" y2="441.2085520169541" stroke="#000"/>
<rect x="514.3599999999999" y="429.0787946316051" width="11.28" height="68.9212053683949" fill="orange" data-tooltip="1.21x baseline speed (YJIT)"/>
<line x1="514.3599999999999" y1="428.6465065122828" x2="525.6399999999999" y2="428.6465065122828" stroke="#000"/>
<line x1="514.3599999999999" y1="429.5110827509273" x2="525.6399999999999" y2="429.5110827509273" stroke="#000"/>
<line x1="519.9999999999999" y1="428.6465065122828" x2="519.9999999999999" y2="429.5110827509273" stroke="#000"/>
<line x1="520.0" y1="498.0" x2="520.0" y2="502.79999999999995" stroke="#000"/>
<text x="520.0" y="512.4" fill="#111" font-size="small" font-family="monospace" font-weight="bold" text-anchor="end" transform="rotate(-60, 520.0, 512.4)">
lee
</text>
<rect x="536.9200000000001" y="440.8541323420809" width="11.28" height="57.14586765791905" fill="#7070f8" data-tooltip="1.00x baseline speed (No JIT)"/>
<line x1="536.9200000000001" y1="440.1085479055367" x2="548.2" y2="440.1085479055367" stroke="#000"/>
<line x1="536.9200000000001" y1="441.5997167786252" x2="548.2" y2="441.5997167786252" stroke="#000"/>
<line x1="542.5600000000001" y1="440.1085479055367" x2="542.5600000000001" y2="441.5997167786252" stroke="#000"/>
<rect x="548.2" y="414.73744073828294" width="11.28" height="83.26255926171703" fill="orange" data-tooltip="1.46x baseline speed (YJIT)"/>
<line x1="548.2" y1="413.59245612034994" x2="559.48" y2="413.59245612034994" stroke="#000"/>
<line x1="548.2" y1="415.88242535621595" x2="559.48" y2="415.88242535621595" stroke="#000"/>
<line x1="553.84" y1="413.59245612034994" x2="553.84" y2="415.88242535621595" stroke="#000"/>
<line x1="553.8400000000001" y1="498.0" x2="553.8400000000001" y2="502.79999999999995" stroke="#000"/>
<text x="553.8400000000001" y="512.4" fill="#111" font-size="small" font-family="monospace" font-weight="bold" text-anchor="end" transform="rotate(-60, 553.8400000000001, 512.4)">
nbody
</text>
<rect x="570.76" y="440.8541323420809" width="11.28" height="57.14586765791905" fill="#7070f8" data-tooltip="1.00x baseline speed (No JIT)"/>
<line x1="570.76" y1="440.52332677617284" x2="582.04" y2="440.52332677617284" stroke="#000"/>
<line x1="570.76" y1="441.184937907989" x2="582.04" y2="441.184937907989" stroke="#000"/>
<line x1="576.4" y1="440.52332677617284" x2="576.4" y2="441.184937907989" stroke="#000"/>
<rect x="582.04" y="415.2646694806585" width="11.28" height="82.73533051934137" fill="orange" data-tooltip="1.45x baseline speed (YJIT)"/>
<line x1="582.04" y1="414.664949034181" x2="593.3199999999999" y2="414.664949034181" stroke="#000"/>
<line x1="582.04" y1="415.86438992713596" x2="593.3199999999999" y2="415.86438992713596" stroke="#000"/>
<line x1="587.68" y1="414.664949034181" x2="587.68" y2="415.86438992713596" stroke="#000"/>
<line x1="587.6800000000001" y1="498.0" x2="587.6800000000001" y2="502.79999999999995" stroke="#000"/>
<text x="587.6800000000001" y="512.4" fill="#111" font-size="small" font-family="monospace" font-weight="bold" text-anchor="end" transform="rotate(-60, 587.6800000000001, 512.4)">
optcarrot
</text>
<rect x="604.6" y="440.8541323420809" width="11.28" height="57.14586765791905" fill="#7070f8" data-tooltip="1.00x baseline speed (No JIT)"/>
<line x1="604.6" y1="440.61457963495707" x2="615.88" y2="440.61457963495707" stroke="#000"/>
<line x1="604.6" y1="441.09368504920474" x2="615.88" y2="441.09368504920474" stroke="#000"/>
<line x1="610.24" y1="440.61457963495707" x2="610.24" y2="441.09368504920474" stroke="#000"/>
<rect x="615.88" y="417.02988164192607" width="11.28" height="80.97011835807385" fill="orange" data-tooltip="1.42x baseline speed (YJIT)"/>
<line x1="615.88" y1="416.6020676764226" x2="627.16" y2="416.6020676764226" stroke="#000"/>
<line x1="615.88" y1="417.45769560742957" x2="627.16" y2="417.45769560742957" stroke="#000"/>
<line x1="621.52" y1="416.6020676764226" x2="621.52" y2="417.45769560742957" stroke="#000"/>
<line x1="621.5200000000001" y1="498.0" x2="621.5200000000001" y2="502.79999999999995" stroke="#000"/>
<text x="621.5200000000001" y="512.4" fill="#111" font-size="small" font-family="monospace" font-weight="bold" text-anchor="end" transform="rotate(-60, 621.5200000000001, 512.4)">
rubykon
</text>
<rect x="638.44" y="440.8541323420809" width="11.28" height="57.14586765791905" fill="#7070f8" data-tooltip="1.00x baseline speed (No JIT)"/>
<line x1="638.44" y1="440.70194657893506" x2="649.7199999999999" y2="440.70194657893506" stroke="#000"/>
<line x1="638.44" y1="441.0063181052268" x2="649.7199999999999" y2="441.0063181052268" stroke="#000"/>
<line x1="644.08" y1="440.70194657893506" x2="644.08" y2="441.0063181052268" stroke="#000"/>
<rect x="649.7199999999999" y="352.020828486995" width="11.28" height="145.97917151300493" fill="orange" data-tooltip="2.55x baseline speed (YJIT)"/>
<line x1="649.7199999999999" y1="351.6292526978309" x2="660.9999999999999" y2="351.6292526978309" stroke="#000"/>
<line x1="649.7199999999999" y1="352.4124042761591" x2="660.9999999999999" y2="352.4124042761591" stroke="#000"/>
<line x1="655.3599999999999" y1="351.6292526978309" x2="655.3599999999999" y2="352.4124042761591" stroke="#000"/>
<line x1="655.36" y1="498.0" x2="655.36" y2="502.79999999999995" stroke="#000"/>
<text x="655.36" y="512.4" fill="#111" font-size="small" font-family="monospace" font-weight="bold" text-anchor="end" transform="rotate(-60, 655.36, 512.4)">
30k_ifelse
</text>
<rect x="672.28" y="440.8541323420809" width="11.28" height="57.14586765791905" fill="#7070f8" data-tooltip="1.00x baseline speed (No JIT)"/>
<line x1="672.28" y1="440.61318043979327" x2="683.56" y2="440.61318043979327" stroke="#000"/>
<line x1="672.28" y1="441.09508424436854" x2="683.56" y2="441.09508424436854" stroke="#000"/>
<line x1="677.92" y1="440.61318043979327" x2="677.92" y2="441.09508424436854" stroke="#000"/>
<rect x="683.56" y="329.4909684137647" width="11.28" height="168.50903158623524" fill="orange" data-tooltip="2.95x baseline speed (YJIT)"/>
<line x1="683.56" y1="328.7779652804956" x2="694.8399999999999" y2="328.7779652804956" stroke="#000"/>
<line x1="683.56" y1="330.2039715470337" x2="694.8399999999999" y2="330.2039715470337" stroke="#000"/>
<line x1="689.1999999999999" y1="328.7779652804956" x2="689.1999999999999" y2="330.2039715470337" stroke="#000"/>
<line x1="689.2" y1="498.0" x2="689.2" y2="502.79999999999995" stroke="#000"/>
<text x="689.2" y="512.4" fill="#111" font-size="small" font-family="monospace" font-weight="bold" text-anchor="end" transform="rotate(-60, 689.2, 512.4)">
30k_methods
</text>
<rect x="706.12" y="440.8541323420809" width="11.28" height="57.14586765791905" fill="#7070f8" data-tooltip="1.00x baseline speed (No JIT)"/>
<line x1="706.12" y1="440.8062938217834" x2="717.4" y2="440.8062938217834" stroke="#000"/>
<line x1="706.12" y1="440.90197086237845" x2="717.4" y2="440.90197086237845" stroke="#000"/>
<line x1="711.76" y1="440.8062938217834" x2="711.76" y2="440.90197086237845" stroke="#000"/>
<rect x="717.4" y="365.21738617690164" width="11.28" height="132.78261382309827" fill="orange" data-tooltip="2.32x baseline speed (YJIT)"/>
<line x1="717.4" y1="364.56717487319224" x2="728.6799999999998" y2="364.56717487319224" stroke="#000"/>
<line x1="717.4" y1="365.86759748061104" x2="728.6799999999998" y2="365.86759748061104" stroke="#000"/>
<line x1="723.0399999999998" y1="364.56717487319224" x2="723.0399999999998" y2="365.86759748061104" stroke="#000"/>
<line x1="723.04" y1="498.0" x2="723.04" y2="502.79999999999995" stroke="#000"/>
<text x="723.04" y="512.4" fill="#111" font-size="small" font-family="monospace" font-weight="bold" text-anchor="end" transform="rotate(-60, 723.04, 512.4)">
cfunc_itself
</text>
<rect x="739.96" y="440.8541323420809" width="11.28" height="57.14586765791905" fill="#7070f8" data-tooltip="1.00x baseline speed (No JIT)"/>
<line x1="739.96" y1="439.7276156418997" x2="751.24" y2="439.7276156418997" stroke="#000"/>
<line x1="739.96" y1="441.98064904226214" x2="751.24" y2="441.98064904226214" stroke="#000"/>
<line x1="745.6" y1="439.7276156418997" x2="745.6" y2="441.98064904226214" stroke="#000"/>
<rect x="751.24" y="322.4113564715564" width="11.28" height="175.5886435284435" fill="orange" data-tooltip="3.07x baseline speed (YJIT)"/>
<line x1="751.24" y1="318.9112566010106" x2="762.52" y2="318.9112566010106" stroke="#000"/>
<line x1="751.24" y1="325.9114563421022" x2="762.52" y2="325.9114563421022" stroke="#000"/>
<line x1="756.88" y1="318.9112566010106" x2="756.88" y2="325.9114563421022" stroke="#000"/>
<line x1="756.8800000000001" y1="498.0" x2="756.8800000000001" y2="502.79999999999995" stroke="#000"/>
<text x="756.8800000000001" y="512.4" fill="#111" font-size="small" font-family="monospace" font-weight="bold" text-anchor="end" transform="rotate(-60, 756.8800000000001, 512.4)">
fib
</text>
<rect x="773.8000000000001" y="440.8541323420809" width="11.28" height="57.14586765791905" fill="#7070f8" data-tooltip="1.00x baseline speed (No JIT)"/>
<line x1="773.8000000000001" y1="440.5258648577977" x2="785.08" y2="440.5258648577977" stroke="#000"/>
<line x1="773.8000000000001" y1="441.18239982636413" x2="785.08" y2="441.18239982636413" stroke="#000"/>
<line x1="779.44" y1="440.5258648577977" x2="779.44" y2="441.18239982636413" stroke="#000"/>
<rect x="785.08" y="355.98293201520113" width="11.28" height="142.01706798479884" fill="orange" data-tooltip="2.49x baseline speed (YJIT)"/>
<line x1="785.08" y1="355.16697933921466" x2="796.3599999999999" y2="355.16697933921466" stroke="#000"/>
<line x1="785.08" y1="356.7988846911876" x2="796.3599999999999" y2="356.7988846911876" stroke="#000"/>
<line x1="790.72" y1="355.16697933921466" x2="790.72" y2="356.7988846911876" stroke="#000"/>
<line x1="790.7200000000001" y1="498.0" x2="790.7200000000001" y2="502.79999999999995" stroke="#000"/>
<text x="790.7200000000001" y="512.4" fill="#111" font-size="small" font-family="monospace" font-weight="bold" text-anchor="end" transform="rotate(-60, 790.7200000000001, 512.4)">
getivar
</text>
<rect x="807.64" y="440.8541323420809" width="11.28" height="57.14586765791905" fill="#7070f8" data-tooltip="1.00x baseline speed (No JIT)"/>
<line x1="807.64" y1="440.51141069646917" x2="818.92" y2="440.51141069646917" stroke="#000"/>
<line x1="807.64" y1="441.1968539876927" x2="818.92" y2="441.1968539876927" stroke="#000"/>
<line x1="813.28" y1="440.51141069646917" x2="813.28" y2="441.1968539876927" stroke="#000"/>
<rect x="818.92" y="225.57329560474557" width="11.28" height="272.4267043952544" fill="orange" data-tooltip="4.77x baseline speed (YJIT)"/>
<line x1="818.92" y1="223.93802934562223" x2="830.1999999999999" y2="223.93802934562223" stroke="#000"/>
<line x1="818.92" y1="227.2085618638689" x2="830.1999999999999" y2="227.2085618638689" stroke="#000"/>
<line x1="824.56" y1="223.93802934562223" x2="824.56" y2="227.2085618638689" stroke="#000"/>
<line x1="824.5600000000001" y1="498.0" x2="824.5600000000001" y2="502.79999999999995" stroke="#000"/>
<text x="824.5600000000001" y="512.4" fill="#111" font-size="small" font-family="monospace" font-weight="bold" text-anchor="end" transform="rotate(-60, 824.5600000000001, 512.4)">
keyword_args
</text>
<rect x="841.48" y="440.8541323420809" width="11.28" height="57.14586765791905" fill="#7070f8" data-tooltip="1.00x baseline speed (No JIT)"/>
<line x1="841.48" y1="440.4695683738273" x2="852.76" y2="440.4695683738273" stroke="#000"/>
<line x1="841.48" y1="441.23869631033455" x2="852.76" y2="441.23869631033455" stroke="#000"/>
<line x1="847.12" y1="440.4695683738273" x2="847.12" y2="441.23869631033455" stroke="#000"/>
<rect x="852.76" y="100.19999999999999" width="11.28" height="397.79999999999995" fill="orange" data-tooltip="6.96x baseline speed (YJIT)"/>
<line x1="852.76" y1="95.35551956820173" x2="864.04" y2="95.35551956820173" stroke="#000"/>
<line x1="852.76" y1="105.04448043179825" x2="864.04" y2="105.04448043179825" stroke="#000"/>
<line x1="858.4" y1="95.35551956820173" x2="858.4" y2="105.04448043179825" stroke="#000"/>
<line x1="858.4000000000001" y1="498.0" x2="858.4000000000001" y2="502.79999999999995" stroke="#000"/>
<text x="858.4000000000001" y="512.4" fill="#111" font-size="small" font-family="monospace" font-weight="bold" text-anchor="end" transform="rotate(-60, 858.4000000000001, 512.4)">
respond_to
</text>
<rect x="875.3199999999999" y="440.8541323420809" width="11.28" height="57.14586765791905" fill="#7070f8" data-tooltip="1.00x baseline speed (No JIT)"/>
<line x1="875.3199999999999" y1="440.8213345119579" x2="886.5999999999999" y2="440.8213345119579" stroke="#000"/>
<line x1="875.3199999999999" y1="440.88693017220396" x2="886.5999999999999" y2="440.88693017220396" stroke="#000"/>
<line x1="880.9599999999999" y1="440.8213345119579" x2="880.9599999999999" y2="440.88693017220396" stroke="#000"/>
<rect x="886.5999999999999" y="407.67020067277633" width="11.28" height="90.32979932722357" fill="orange" data-tooltip="1.58x baseline speed (YJIT)"/>
<line x1="886.5999999999999" y1="407.61812491927003" x2="897.8799999999999" y2="407.61812491927003" stroke="#000"/>
<line x1="886.5999999999999" y1="407.7222764262826" x2="897.8799999999999" y2="407.7222764262826" stroke="#000"/>
<line x1="892.2399999999999" y1="407.61812491927003" x2="892.2399999999999" y2="407.7222764262826" stroke="#000"/>
<line x1="892.24" y1="498.0" x2="892.24" y2="502.79999999999995" stroke="#000"/>
<text x="892.24" y="512.4" fill="#111" font-size="small" font-family="monospace" font-weight="bold" text-anchor="end" transform="rotate(-60, 892.24, 512.4)">
setivar
</text>
<rect x="909.16" y="440.8541323420809" width="11.28" height="57.14586765791905" fill="#7070f8" data-tooltip="1.00x baseline speed (No JIT)"/>
<line x1="909.16" y1="440.4728581880653" x2="920.4399999999999" y2="440.4728581880653" stroke="#000"/>
<line x1="909.16" y1="441.2354064960966" x2="920.4399999999999" y2="441.2354064960966" stroke="#000"/>
<line x1="914.8" y1="440.4728581880653" x2="914.8" y2="441.2354064960966" stroke="#000"/>
<rect x="920.4399999999999" y="404.87488993632155" width="11.28" height="93.12511006367836" fill="orange" data-tooltip="1.63x baseline speed (YJIT)"/>
<line x1="920.4399999999999" y1="403.854841130345" x2="931.7199999999999" y2="403.854841130345" stroke="#000"/>
<line x1="920.4399999999999" y1="405.8949387422981" x2="931.7199999999999" y2="405.8949387422981" stroke="#000"/>
<line x1="926.0799999999999" y1="403.854841130345" x2="926.0799999999999" y2="405.8949387422981" stroke="#000"/>
<line x1="926.08" y1="498.0" x2="926.08" y2="502.79999999999995" stroke="#000"/>
<text x="926.08" y="512.4" fill="#111" font-size="small" font-family="monospace" font-weight="bold" text-anchor="end" transform="rotate(-60, 926.08, 512.4)">
str_concat
</text>
</svg>