<svg viewBox="0 0 1000 600" xmlns="http://www.w3.org/2000/svg" xmlns:xlink="http://www.w3.org/1999/xlink" width="100%" height="100%">

<rect x="50.0" y="30.0" width="940.0" height="467.99999999999994" stroke="#000" fill="#EEE"/>
<line x1="42.0" y1="497.9999999999999" x2="50.0" y2="497.9999999999999" stroke="#000"/>
<text x="26.000000000000004" y="497.9999999999999" text-anchor="end" font-weight="bold" font-size="small" fill="#111">
0.0
</text>
<line x1="42.0" y1="411.7197597796927" x2="50.0" y2="411.7197597796927" stroke="#000"/>
<text x="26.000000000000004" y="411.7197597796927" text-anchor="end" font-weight="bold" font-size="small" fill="#111">
2.0
</text>
<line x1="42.0" y1="325.43951955938553" x2="50.0" y2="325.43951955938553" stroke="#000"/>
<text x="26.000000000000004" y="325.43951955938553" text-anchor="end" font-weight="bold" font-size="small" fill="#111">
4.0
</text>
<line x1="42.0" y1="239.15927933907818" x2="50.0" y2="239.15927933907818" stroke="#000"/>
<text x="26.000000000000004" y="239.15927933907818" text-anchor="end" font-weight="bold" font-size="small" fill="#111">
6.0
</text>
<line x1="42.0" y1="152.87903911877098" x2="50.0" y2="152.87903911877098" stroke="#000"/>
<text x="26.000000000000004" y="152.87903911877098" text-anchor="end" font-weight="bold" font-size="small" fill="#111">
8.0
</text>
<rect x="268.5" y="36.00000000000001" width="80.0" height="18.0" fill="#7070f8" stroke="#888"/>
<text x="308.5" y="52.50000000000001" font-size="small" text-anchor="middle" font-weight="bold" fill="#EEE">
No JIT
</text>
<rect x="691.4999999999999" y="36.00000000000001" width="80.0" height="18.0" fill="orange" stroke="#888"/>
<text x="731.4999999999999" y="52.50000000000001" font-size="small" text-anchor="middle" font-weight="bold" fill="#EEE">
YJIT
</text>
<rect x="97.0" y="454.8598798898463" width="31.333333333333332" height="43.140120110153624" fill="#7070f8" data-tooltip="1.00x baseline speed (No JIT)"/>
<line x1="97.0" y1="454.83383988058876" x2="128.33333333333331" y2="454.83383988058876" stroke="#000"/>
<line x1="97.0" y1="454.88591989910384" x2="128.33333333333331" y2="454.88591989910384" stroke="#000"/>
<line x1="112.66666666666667" y1="454.83383988058876" x2="112.66666666666667" y2="454.88591989910384" stroke="#000"/>
<rect x="128.33333333333331" y="235.03971686468626" width="31.333333333333332" height="262.96028313531366" fill="orange" data-tooltip="6.10x baseline speed (YJIT)"/>
<line x1="128.33333333333331" y1="234.69913799724793" x2="159.66666666666666" y2="234.69913799724793" stroke="#000"/>
<line x1="128.33333333333331" y1="235.3802957321246" x2="159.66666666666666" y2="235.3802957321246" stroke="#000"/>
<line x1="144.0" y1="234.69913799724793" x2="144.0" y2="235.3802957321246" stroke="#000"/>
<line x1="144.00000000000003" y1="498.0" x2="144.00000000000003" y2="502.79999999999995" stroke="#000"/>
<text x="144.00000000000003" y="512.4" fill="#111" font-size="small" font-family="monospace" font-weight="bold" text-anchor="end" transform="rotate(-60, 144.00000000000003, 512.4)">
30k_ifelse
</text>
<rect x="191.0" y="454.8598798898463" width="31.333333333333332" height="43.140120110153624" fill="#7070f8" data-tooltip="1.00x baseline speed (No JIT)"/>
<line x1="191.0" y1="454.84121936571853" x2="222.33333333333331" y2="454.84121936571853" stroke="#000"/>
<line x1="191.0" y1="454.87854041397406" x2="222.33333333333331" y2="454.87854041397406" stroke="#000"/>
<line x1="206.66666666666666" y1="454.84121936571853" x2="206.66666666666666" y2="454.87854041397406" stroke="#000"/>
<rect x="222.33333333333331" y="156.0137107328249" width="31.333333333333332" height="341.98628926717504" fill="orange" data-tooltip="7.93x baseline speed (YJIT)"/>
<line x1="222.33333333333331" y1="155.82666178567803" x2="253.66666666666666" y2="155.82666178567803" stroke="#000"/>
<line x1="222.33333333333331" y1="156.2007596799718" x2="253.66666666666666" y2="156.2007596799718" stroke="#000"/>
<line x1="238.0" y1="155.82666178567803" x2="238.0" y2="156.2007596799718" stroke="#000"/>
<line x1="238.0" y1="498.0" x2="238.0" y2="502.79999999999995" stroke="#000"/>
<text x="238.0" y="512.4" fill="#111" font-size="small" font-family="monospace" font-weight="bold" text-anchor="end" transform="rotate(-60, 238.0, 512.4)">
30k_methods
</text>
<rect x="285.00000000000006" y="454.8598798898463" width="31.333333333333332" height="43.140120110153624" fill="#7070f8" data-tooltip="1.00x baseline speed (No JIT)"/>
<line x1="285.00000000000006" y1="454.81529943291787" x2="316.33333333333337" y2="454.81529943291787" stroke="#000"/>
<line x1="285.00000000000006" y1="454.9044603467747" x2="316.33333333333337" y2="454.9044603467747" stroke="#000"/>
<line x1="300.6666666666667" y1="454.81529943291787" x2="300.6666666666667" y2="454.9044603467747" stroke="#000"/>
<rect x="316.33333333333337" y="388.7240534444463" width="31.333333333333332" height="109.27594655555366" fill="orange" data-tooltip="2.53x baseline speed (YJIT)"/>
<line x1="316.33333333333337" y1="388.5238983959195" x2="347.6666666666667" y2="388.5238983959195" stroke="#000"/>
<line x1="316.33333333333337" y1="388.9242084929731" x2="347.6666666666667" y2="388.9242084929731" stroke="#000"/>
<line x1="332.0" y1="388.5238983959195" x2="332.0" y2="388.9242084929731" stroke="#000"/>
<line x1="332.0" y1="498.0" x2="332.0" y2="502.79999999999995" stroke="#000"/>
<text x="332.0" y="512.4" fill="#111" font-size="small" font-family="monospace" font-weight="bold" text-anchor="end" transform="rotate(-60, 332.0, 512.4)">
cfunc_itself
</text>
<rect x="379.0" y="454.8598798898463" width="31.333333333333332" height="43.140120110153624" fill="#7070f8" data-tooltip="1.00x baseline speed (No JIT)"/>
<line x1="379.0" y1="454.84772261091257" x2="410.3333333333333" y2="454.84772261091257" stroke="#000"/>
<line x1="379.0" y1="454.8720371687801" x2="410.3333333333333" y2="454.8720371687801" stroke="#000"/>
<line x1="394.6666666666667" y1="454.84772261091257" x2="394.6666666666667" y2="454.8720371687801" stroke="#000"/>
<rect x="410.3333333333333" y="331.00509213200337" width="31.333333333333332" height="166.99490786799657" fill="orange" data-tooltip="3.87x baseline speed (YJIT)"/>
<line x1="410.3333333333333" y1="330.73066349415325" x2="441.66666666666663" y2="330.73066349415325" stroke="#000"/>
<line x1="410.3333333333333" y1="331.27952076985355" x2="441.66666666666663" y2="331.27952076985355" stroke="#000"/>
<line x1="426.0" y1="330.73066349415325" x2="426.0" y2="331.27952076985355" stroke="#000"/>
<line x1="426.0" y1="498.0" x2="426.0" y2="502.79999999999995" stroke="#000"/>
<text x="426.0" y="512.4" fill="#111" font-size="small" font-family="monospace" font-weight="bold" text-anchor="end" transform="rotate(-60, 426.0, 512.4)">
fib
</text>
<rect x="473.0" y="454.8598798898463" width="31.333333333333332" height="43.140120110153624" fill="#7070f8" data-tooltip="1.00x baseline speed (No JIT)"/>
<line x1="473.0" y1="454.70782079941137" x2="504.3333333333333" y2="454.70782079941137" stroke="#000"/>
<line x1="473.0" y1="455.01193898028123" x2="504.3333333333333" y2="455.01193898028123" stroke="#000"/>
<line x1="488.66666666666663" y1="454.70782079941137" x2="488.66666666666663" y2="455.01193898028123" stroke="#000"/>
<rect x="504.3333333333333" y="384.19140977810343" width="31.333333333333332" height="113.80859022189655" fill="orange" data-tooltip="2.64x baseline speed (YJIT)"/>
<line x1="504.3333333333333" y1="383.78625859513284" x2="535.6666666666666" y2="383.78625859513284" stroke="#000"/>
<line x1="504.3333333333333" y1="384.59656096107403" x2="535.6666666666666" y2="384.59656096107403" stroke="#000"/>
<line x1="520.0" y1="383.78625859513284" x2="520.0" y2="384.59656096107403" stroke="#000"/>
<line x1="520.0" y1="498.0" x2="520.0" y2="502.79999999999995" stroke="#000"/>
<text x="520.0" y="512.4" fill="#111" font-size="small" font-family="monospace" font-weight="bold" text-anchor="end" transform="rotate(-60, 520.0, 512.4)">
getivar
</text>
<rect x="567.0" y="454.8598798898463" width="31.333333333333332" height="43.140120110153624" fill="#7070f8" data-tooltip="1.00x baseline speed (No JIT)"/>
<line x1="567.0" y1="454.83800855840406" x2="598.3333333333333" y2="454.83800855840406" stroke="#000"/>
<line x1="567.0" y1="454.8817512212886" x2="598.3333333333333" y2="454.8817512212886" stroke="#000"/>
<line x1="582.6666666666666" y1="454.83800855840406" x2="582.6666666666666" y2="454.8817512212886" stroke="#000"/>
<rect x="598.3333333333333" y="254.02576116834902" width="31.333333333333332" height="243.97423883165092" fill="orange" data-tooltip="5.66x baseline speed (YJIT)"/>
<line x1="598.3333333333333" y1="253.742966628723" x2="629.6666666666666" y2="253.742966628723" stroke="#000"/>
<line x1="598.3333333333333" y1="254.30855570797502" x2="629.6666666666666" y2="254.30855570797502" stroke="#000"/>
<line x1="614.0" y1="253.742966628723" x2="614.0" y2="254.30855570797502" stroke="#000"/>
<line x1="614.0" y1="498.0" x2="614.0" y2="502.79999999999995" stroke="#000"/>
<text x="614.0" y="512.4" fill="#111" font-size="small" font-family="monospace" font-weight="bold" text-anchor="end" transform="rotate(-60, 614.0, 512.4)">
keyword_args
</text>
<rect x="661.0" y="454.8598798898463" width="31.333333333333332" height="43.140120110153624" fill="#7070f8" data-tooltip="1.00x baseline speed (No JIT)"/>
<line x1="661.0" y1="454.6646314231849" x2="692.3333333333334" y2="454.6646314231849" stroke="#000"/>
<line x1="661.0" y1="455.0551283565077" x2="692.3333333333334" y2="455.0551283565077" stroke="#000"/>
<line x1="676.6666666666667" y1="454.6646314231849" x2="676.6666666666667" y2="455.0551283565077" stroke="#000"/>
<rect x="692.3333333333334" y="100.19999999999999" width="31.333333333333332" height="397.79999999999995" fill="orange" data-tooltip="9.22x baseline speed (YJIT)"/>
<line x1="692.3333333333334" y1="97.22433175253671" x2="723.6666666666666" y2="97.22433175253671" stroke="#000"/>
<line x1="692.3333333333334" y1="103.17566824746326" x2="723.6666666666666" y2="103.17566824746326" stroke="#000"/>
<line x1="708.0000000000001" y1="97.22433175253671" x2="708.0000000000001" y2="103.17566824746326" stroke="#000"/>
<line x1="708.0000000000001" y1="498.0" x2="708.0000000000001" y2="502.79999999999995" stroke="#000"/>
<text x="708.0000000000001" y="512.4" fill="#111" font-size="small" font-family="monospace" font-weight="bold" text-anchor="end" transform="rotate(-60, 708.0000000000001, 512.4)">
respond_to
</text>
<rect x="755.0" y="454.8598798898463" width="31.333333333333332" height="43.140120110153624" fill="#7070f8" data-tooltip="1.00x baseline speed (No JIT)"/>
<line x1="755.0" y1="454.75129792311435" x2="786.3333333333334" y2="454.75129792311435" stroke="#000"/>
<line x1="755.0" y1="454.9684618565783" x2="786.3333333333334" y2="454.9684618565783" stroke="#000"/>
<line x1="770.6666666666667" y1="454.75129792311435" x2="770.6666666666667" y2="454.9684618565783" stroke="#000"/>
<rect x="786.3333333333334" y="417.20885803820306" width="31.333333333333332" height="80.7911419617968" fill="orange" data-tooltip="1.87x baseline speed (YJIT)"/>
<line x1="786.3333333333334" y1="416.8688002803457" x2="817.6666666666666" y2="416.8688002803457" stroke="#000"/>
<line x1="786.3333333333334" y1="417.5489157960605" x2="817.6666666666666" y2="417.5489157960605" stroke="#000"/>
<line x1="802.0" y1="416.8688002803457" x2="802.0" y2="417.5489157960605" stroke="#000"/>
<line x1="802.0" y1="498.0" x2="802.0" y2="502.79999999999995" stroke="#000"/>
<text x="802.0" y="512.4" fill="#111" font-size="small" font-family="monospace" font-weight="bold" text-anchor="end" transform="rotate(-60, 802.0, 512.4)">
setivar
</text>
<rect x="849.0" y="454.8598798898463" width="31.333333333333332" height="43.140120110153624" fill="#7070f8" data-tooltip="1.00x baseline speed (No JIT)"/>
<line x1="849.0" y1="454.41980055070894" x2="880.3333333333333" y2="454.41980055070894" stroke="#000"/>
<line x1="849.0" y1="455.29995922898365" x2="880.3333333333333" y2="455.29995922898365" stroke="#000"/>
<line x1="864.6666666666667" y1="454.41980055070894" x2="864.6666666666667" y2="455.29995922898365" stroke="#000"/>
<rect x="880.3333333333333" y="420.92922529475237" width="31.333333333333332" height="77.07077470524763" fill="orange" data-tooltip="1.79x baseline speed (YJIT)"/>
<line x1="880.3333333333333" y1="419.46698838448657" x2="911.6666666666666" y2="419.46698838448657" stroke="#000"/>
<line x1="880.3333333333333" y1="422.3914622050182" x2="911.6666666666666" y2="422.3914622050182" stroke="#000"/>
<line x1="896.0" y1="419.46698838448657" x2="896.0" y2="422.3914622050182" stroke="#000"/>
<line x1="896.0" y1="498.0" x2="896.0" y2="502.79999999999995" stroke="#000"/>
<text x="896.0" y="512.4" fill="#111" font-size="small" font-family="monospace" font-weight="bold" text-anchor="end" transform="rotate(-60, 896.0, 512.4)">
str_concat
</text>
</svg>