<svg viewBox="0 0 1000 600" xmlns="http://www.w3.org/2000/svg" xmlns:xlink="http://www.w3.org/1999/xlink" width="100%" height="100%">

<rect x="50.0" y="30.0" width="940.0" height="467.99999999999994" stroke="#000" fill="#EEE"/>
<line x1="42.0" y1="497.9999999999999" x2="50.0" y2="497.9999999999999" stroke="#000"/>
<text x="26.000000000000004" y="497.9999999999999" text-anchor="end" font-weight="bold" font-size="small" fill="#111">
0.0
</text>
<line x1="42.0" y1="446.6780342238464" x2="50.0" y2="446.6780342238464" stroke="#000"/>
<text x="26.000000000000004" y="446.6780342238464" text-anchor="end" font-weight="bold" font-size="small" fill="#111">
1.0
</text>
<line x1="42.0" y1="395.35606844769285" x2="50.0" y2="395.35606844769285" stroke="#000"/>
<text x="26.000000000000004" y="395.35606844769285" text-anchor="end" font-weight="bold" font-size="small" fill="#111">
2.0
</text>
<line x1="42.0" y1="344.0341026715393" x2="50.0" y2="344.0341026715393" stroke="#000"/>
<text x="26.000000000000004" y="344.0341026715393" text-anchor="end" font-weight="bold" font-size="small" fill="#111">
3.0
</text>
<line x1="42.0" y1="292.7121368953858" x2="50.0" y2="292.7121368953858" stroke="#000"/>
<text x="26.000000000000004" y="292.7121368953858" text-anchor="end" font-weight="bold" font-size="small" fill="#111">
4.0
</text>
<line x1="42.0" y1="241.39017111923224" x2="50.0" y2="241.39017111923224" stroke="#000"/>
<text x="26.000000000000004" y="241.39017111923224" text-anchor="end" font-weight="bold" font-size="small" fill="#111">
5.0
</text>
<line x1="42.0" y1="190.06820534307872" x2="50.0" y2="190.06820534307872" stroke="#000"/>
<text x="26.000000000000004" y="190.06820534307872" text-anchor="end" font-weight="bold" font-size="small" fill="#111">
6.0
</text>
<line x1="42.0" y1="138.74623956692517" x2="50.0" y2="138.74623956692517" stroke="#000"/>
<text x="26.000000000000004" y="138.74623956692517" text-anchor="end" font-weight="bold" font-size="small" fill="#111">
7.0
</text>
<rect x="197.99999999999997" y="36.00000000000001" width="80.0" height="18.0" fill="#7070f8" stroke="#888"/>
<text x="238.0" y="52.50000000000001" font-size="small" text-anchor="middle" font-weight="bold" fill="#EEE">
No JIT
</text>
<rect x="479.99999999999994" y="36.00000000000001" width="80.0" height="18.0" fill="orange" stroke="#888"/>
<text x="519.9999999999999" y="52.50000000000001" font-size="small" text-anchor="middle" font-weight="bold" fill="#EEE">
MJIT
</text>
<rect x="761.9999999999999" y="36.00000000000001" width="80.0" height="18.0" fill="green" stroke="#888"/>
<text x="801.9999999999999" y="52.50000000000001" font-size="small" text-anchor="middle" font-weight="bold" fill="#EEE">
YJIT
</text>
<rect x="97.0" y="446.6780342238464" width="8.8125" height="51.32196577615353" fill="#7070f8" data-tooltip="1.00x baseline speed (No JIT)"/>
<line x1="97.0" y1="446.4889349373669" x2="105.8125" y2="446.4889349373669" stroke="#000"/>
<line x1="97.0" y1="446.86713351032586" x2="105.8125" y2="446.86713351032586" stroke="#000"/>
<line x1="101.40625" y1="446.4889349373669" x2="101.40625" y2="446.86713351032586" stroke="#000"/>
<rect x="105.8125" y="446.4423605806187" width="8.8125" height="51.55763941938118" fill="orange" data-tooltip="1.00x baseline speed (MJIT)"/>
<line x1="105.8125" y1="446.1845974633194" x2="114.625" y2="446.1845974633194" stroke="#000"/>
<line x1="105.8125" y1="446.700123697918" x2="114.625" y2="446.700123697918" stroke="#000"/>
<line x1="110.21875" y1="446.1845974633194" x2="110.21875" y2="446.700123697918" stroke="#000"/>
<rect x="114.625" y="421.76791858188466" width="8.8125" height="76.23208141811527" fill="green" data-tooltip="1.49x baseline speed (YJIT)"/>
<line x1="114.625" y1="421.246224823009" x2="123.4375" y2="421.246224823009" stroke="#000"/>
<line x1="114.625" y1="422.2896123407603" x2="123.4375" y2="422.2896123407603" stroke="#000"/>
<line x1="119.03125" y1="421.246224823009" x2="119.03125" y2="422.2896123407603" stroke="#000"/>
<line x1="114.625" y1="498.0" x2="114.625" y2="502.79999999999995" stroke="#000"/>
<text x="114.625" y="512.4" fill="#111" font-size="small" font-family="monospace" font-weight="bold" text-anchor="end" transform="rotate(-60, 114.625, 512.4)">
activerecord
</text>
<rect x="132.25" y="446.6780342238464" width="8.8125" height="51.32196577615353" fill="#7070f8" data-tooltip="1.00x baseline speed (No JIT)"/>
<line x1="132.25" y1="446.05091097704496" x2="141.0625" y2="446.05091097704496" stroke="#000"/>
<line x1="132.25" y1="447.30515747064777" x2="141.0625" y2="447.30515747064777" stroke="#000"/>
<line x1="136.65625" y1="446.05091097704496" x2="136.65625" y2="447.30515747064777" stroke="#000"/>
<rect x="149.875" y="428.0550012207945" width="8.8125" height="69.94499877920536" fill="green" data-tooltip="1.36x baseline speed (YJIT)"/>
<line x1="149.875" y1="425.88662071565" x2="158.6875" y2="425.88662071565" stroke="#000"/>
<line x1="149.875" y1="430.2233817259391" x2="158.6875" y2="430.2233817259391" stroke="#000"/>
<line x1="154.28125" y1="425.88662071565" x2="154.28125" y2="430.2233817259391" stroke="#000"/>
<line x1="149.875" y1="498.0" x2="149.875" y2="502.79999999999995" stroke="#000"/>
<text x="149.875" y="512.4" fill="#111" font-size="small" font-family="monospace" font-weight="bold" text-anchor="end" transform="rotate(-60, 149.875, 512.4)">
hexapdf
</text>
<rect x="167.49999999999997" y="446.6780342238464" width="8.8125" height="51.32196577615353" fill="#7070f8" data-tooltip="1.00x baseline speed (No JIT)"/>
<line x1="167.49999999999997" y1="446.181501116822" x2="176.31249999999997" y2="446.181501116822" stroke="#000"/>
<line x1="167.49999999999997" y1="447.17456733087073" x2="176.31249999999997" y2="447.17456733087073" stroke="#000"/>
<line x1="171.90624999999997" y1="446.181501116822" x2="171.90624999999997" y2="447.17456733087073" stroke="#000"/>
<rect x="176.31249999999997" y="440.9275112285778" width="8.8125" height="57.07248877142209" fill="orange" data-tooltip="1.11x baseline speed (MJIT)"/>
<line x1="176.31249999999997" y1="438.8073128364881" x2="185.12499999999997" y2="438.8073128364881" stroke="#000"/>
<line x1="176.31249999999997" y1="443.04770962066755" x2="185.12499999999997" y2="443.04770962066755" stroke="#000"/>
<line x1="180.71874999999997" y1="438.8073128364881" x2="180.71874999999997" y2="443.04770962066755" stroke="#000"/>
<rect x="185.12499999999997" y="418.8223085862769" width="8.8125" height="79.17769141372301" fill="green" data-tooltip="1.54x baseline speed (YJIT)"/>
<line x1="185.12499999999997" y1="417.3038336256051" x2="193.93749999999997" y2="417.3038336256051" stroke="#000"/>
<line x1="185.12499999999997" y1="420.3407835469487" x2="193.93749999999997" y2="420.3407835469487" stroke="#000"/>
<line x1="189.53124999999997" y1="417.3038336256051" x2="189.53124999999997" y2="420.3407835469487" stroke="#000"/>
<line x1="185.12499999999997" y1="498.0" x2="185.12499999999997" y2="502.79999999999995" stroke="#000"/>
<text x="185.12499999999997" y="512.4" fill="#111" font-size="small" font-family="monospace" font-weight="bold" text-anchor="end" transform="rotate(-60, 185.12499999999997, 512.4)">
liquid-render
</text>
<rect x="202.75" y="446.6780342238464" width="8.8125" height="51.32196577615353" fill="#7070f8" data-tooltip="1.00x baseline speed (No JIT)"/>
<line x1="202.75" y1="446.61564349725" x2="211.5625" y2="446.61564349725" stroke="#000"/>
<line x1="202.75" y1="446.74042495044273" x2="211.5625" y2="446.74042495044273" stroke="#000"/>
<line x1="207.15625" y1="446.61564349725" x2="207.15625" y2="446.74042495044273" stroke="#000"/>
<rect x="211.5625" y="446.45574030241346" width="8.8125" height="51.54425969758655" fill="orange" data-tooltip="1.00x baseline speed (MJIT)"/>
<line x1="211.5625" y1="444.81553885190465" x2="220.375" y2="444.81553885190465" stroke="#000"/>
<line x1="211.5625" y1="448.0959417529223" x2="220.375" y2="448.0959417529223" stroke="#000"/>
<line x1="215.96875" y1="444.81553885190465" x2="215.96875" y2="448.0959417529223" stroke="#000"/>
<rect x="220.375" y="440.0637961918626" width="8.8125" height="57.936203808137336" fill="green" data-tooltip="1.13x baseline speed (YJIT)"/>
<line x1="220.375" y1="439.94306921946" x2="229.1875" y2="439.94306921946" stroke="#000"/>
<line x1="220.375" y1="440.1845231642652" x2="229.1875" y2="440.1845231642652" stroke="#000"/>
<line x1="224.78125" y1="439.94306921946" x2="224.78125" y2="440.1845231642652" stroke="#000"/>
<line x1="220.375" y1="498.0" x2="220.375" y2="502.79999999999995" stroke="#000"/>
<text x="220.375" y="512.4" fill="#111" font-size="small" font-family="monospace" font-weight="bold" text-anchor="end" transform="rotate(-60, 220.375, 512.4)">
mail
</text>
<rect x="238.0" y="446.6780342238464" width="8.8125" height="51.32196577615353" fill="#7070f8" data-tooltip="1.00x baseline speed (No JIT)"/>
<line x1="238.0" y1="446.65766587588456" x2="246.8125" y2="446.65766587588456" stroke="#000"/>
<line x1="238.0" y1="446.6984025718082" x2="246.8125" y2="446.6984025718082" stroke="#000"/>
<line x1="242.40625" y1="446.65766587588456" x2="242.40625" y2="446.6984025718082" stroke="#000"/>
<rect x="246.8125" y="439.3400702016113" width="8.8125" height="58.65992979838864" fill="orange" data-tooltip="1.14x baseline speed (MJIT)"/>
<line x1="246.8125" y1="439.3130806435749" x2="255.625" y2="439.3130806435749" stroke="#000"/>
<line x1="246.8125" y1="439.3670597596477" x2="255.625" y2="439.3670597596477" stroke="#000"/>
<line x1="251.21875" y1="439.3130806435749" x2="251.21875" y2="439.3670597596477" stroke="#000"/>
<rect x="255.625" y="434.68385714042023" width="8.8125" height="63.31614285957976" fill="green" data-tooltip="1.23x baseline speed (YJIT)"/>
<line x1="255.625" y1="434.63508172979533" x2="264.4375" y2="434.63508172979533" stroke="#000"/>
<line x1="255.625" y1="434.7326325510451" x2="264.4375" y2="434.7326325510451" stroke="#000"/>
<line x1="260.03125" y1="434.63508172979533" x2="260.03125" y2="434.7326325510451" stroke="#000"/>
<line x1="255.625" y1="498.0" x2="255.625" y2="502.79999999999995" stroke="#000"/>
<text x="255.625" y="512.4" fill="#111" font-size="small" font-family="monospace" font-weight="bold" text-anchor="end" transform="rotate(-60, 255.625, 512.4)">
psych-load
</text>
<rect x="273.25" y="446.6780342238464" width="8.8125" height="51.32196577615353" fill="#7070f8" data-tooltip="1.00x baseline speed (No JIT)"/>
<line x1="273.25" y1="446.3896141172751" x2="282.0625" y2="446.3896141172751" stroke="#000"/>
<line x1="273.25" y1="446.96645433041766" x2="282.0625" y2="446.96645433041766" stroke="#000"/>
<line x1="277.65625" y1="446.3896141172751" x2="277.65625" y2="446.96645433041766" stroke="#000"/>
<rect x="282.0625" y="447.5658634711346" width="8.8125" height="50.434136528865245" fill="orange" data-tooltip="0.98x baseline speed (MJIT)"/>
<line x1="282.0625" y1="447.2474212308939" x2="290.875" y2="447.2474212308939" stroke="#000"/>
<line x1="282.0625" y1="447.88430571137536" x2="290.875" y2="447.88430571137536" stroke="#000"/>
<line x1="286.46875" y1="447.2474212308939" x2="286.46875" y2="447.88430571137536" stroke="#000"/>
<rect x="290.875" y="428.7201624984087" width="8.8125" height="69.27983750159123" fill="green" data-tooltip="1.35x baseline speed (YJIT)"/>
<line x1="290.875" y1="427.7849187086933" x2="299.6875" y2="427.7849187086933" stroke="#000"/>
<line x1="290.875" y1="429.6554062881241" x2="299.6875" y2="429.6554062881241" stroke="#000"/>
<line x1="295.28125" y1="427.7849187086933" x2="295.28125" y2="429.6554062881241" stroke="#000"/>
<line x1="290.875" y1="498.0" x2="290.875" y2="502.79999999999995" stroke="#000"/>
<text x="290.875" y="512.4" fill="#111" font-size="small" font-family="monospace" font-weight="bold" text-anchor="end" transform="rotate(-60, 290.875, 512.4)">
railsbench
</text>
<rect x="308.5" y="446.6780342238464" width="8.8125" height="51.32196577615353" fill="#7070f8" data-tooltip="1.00x baseline speed (No JIT)"/>
<line x1="308.5" y1="446.63495140107636" x2="317.3125" y2="446.63495140107636" stroke="#000"/>
<line x1="308.5" y1="446.72111704661637" x2="317.3125" y2="446.72111704661637" stroke="#000"/>
<line x1="312.90625" y1="446.63495140107636" x2="312.90625" y2="446.72111704661637" stroke="#000"/>
<rect x="317.3125" y="421.4692271886487" width="8.8125" height="76.5307728113512" fill="orange" data-tooltip="1.49x baseline speed (MJIT)"/>
<line x1="317.3125" y1="420.5371080616747" x2="326.125" y2="420.5371080616747" stroke="#000"/>
<line x1="317.3125" y1="422.4013463156227" x2="326.125" y2="422.4013463156227" stroke="#000"/>
<line x1="321.71875" y1="420.5371080616747" x2="321.71875" y2="422.4013463156227" stroke="#000"/>
<rect x="326.125" y="433.4716831767016" width="8.8125" height="64.52831682329824" fill="green" data-tooltip="1.26x baseline speed (YJIT)"/>
<line x1="326.125" y1="433.38319694249515" x2="334.9375" y2="433.38319694249515" stroke="#000"/>
<line x1="326.125" y1="433.5601694109081" x2="334.9375" y2="433.5601694109081" stroke="#000"/>
<line x1="330.53125" y1="433.38319694249515" x2="330.53125" y2="433.5601694109081" stroke="#000"/>
<line x1="326.125" y1="498.0" x2="326.125" y2="502.79999999999995" stroke="#000"/>
<text x="326.125" y="512.4" fill="#111" font-size="small" font-family="monospace" font-weight="bold" text-anchor="end" transform="rotate(-60, 326.125, 512.4)">
binarytrees
</text>
<rect x="343.75" y="446.6780342238464" width="8.8125" height="51.32196577615353" fill="#7070f8" data-tooltip="1.00x baseline speed (No JIT)"/>
<line x1="343.75" y1="446.6528706240591" x2="352.5625" y2="446.6528706240591" stroke="#000"/>
<line x1="343.75" y1="446.7031978236337" x2="352.5625" y2="446.7031978236337" stroke="#000"/>
<line x1="348.15625" y1="446.6528706240591" x2="348.15625" y2="446.7031978236337" stroke="#000"/>
<rect x="352.5625" y="433.64818461170927" width="8.8125" height="64.35181538829065" fill="orange" data-tooltip="1.25x baseline speed (MJIT)"/>
<line x1="352.5625" y1="433.6084099550414" x2="361.375" y2="433.6084099550414" stroke="#000"/>
<line x1="352.5625" y1="433.6879592683771" x2="361.375" y2="433.6879592683771" stroke="#000"/>
<line x1="356.96875" y1="433.6084099550414" x2="356.96875" y2="433.6879592683771" stroke="#000"/>
<rect x="361.375" y="421.75088425134226" width="8.8125" height="76.2491157486577" fill="green" data-tooltip="1.49x baseline speed (YJIT)"/>
<line x1="361.375" y1="421.69595163774665" x2="370.1875" y2="421.69595163774665" stroke="#000"/>
<line x1="361.375" y1="421.8058168649379" x2="370.1875" y2="421.8058168649379" stroke="#000"/>
<line x1="365.78125" y1="421.69595163774665" x2="365.78125" y2="421.8058168649379" stroke="#000"/>
<line x1="361.375" y1="498.0" x2="361.375" y2="502.79999999999995" stroke="#000"/>
<text x="361.375" y="512.4" fill="#111" font-size="small" font-family="monospace" font-weight="bold" text-anchor="end" transform="rotate(-60, 361.375, 512.4)">
chunky_png
</text>
<rect x="379.0" y="446.6780342238464" width="8.8125" height="51.32196577615353" fill="#7070f8" data-tooltip="1.00x baseline speed (No JIT)"/>
<line x1="379.0" y1="446.2564050496544" x2="387.8125" y2="446.2564050496544" stroke="#000"/>
<line x1="379.0" y1="447.09966339803833" x2="387.8125" y2="447.09966339803833" stroke="#000"/>
<line x1="383.40625" y1="446.2564050496544" x2="383.40625" y2="447.09966339803833" stroke="#000"/>
<rect x="387.8125" y="444.11383398285403" width="8.8125" height="53.88616601714587" fill="orange" data-tooltip="1.05x baseline speed (MJIT)"/>
<line x1="387.8125" y1="442.6006831933901" x2="396.625" y2="442.6006831933901" stroke="#000"/>
<line x1="387.8125" y1="445.62698477231794" x2="396.625" y2="445.62698477231794" stroke="#000"/>
<line x1="392.21875" y1="442.6006831933901" x2="392.21875" y2="445.62698477231794" stroke="#000"/>
<rect x="396.625" y="438.67817424872044" width="8.8125" height="59.32182575127954" fill="green" data-tooltip="1.16x baseline speed (YJIT)"/>
<line x1="396.625" y1="438.0476837434899" x2="405.4375" y2="438.0476837434899" stroke="#000"/>
<line x1="396.625" y1="439.3086647539509" x2="405.4375" y2="439.3086647539509" stroke="#000"/>
<line x1="401.03125" y1="438.0476837434899" x2="401.03125" y2="439.3086647539509" stroke="#000"/>
<line x1="396.625" y1="498.0" x2="396.625" y2="502.79999999999995" stroke="#000"/>
<text x="396.625" y="512.4" fill="#111" font-size="small" font-family="monospace" font-weight="bold" text-anchor="end" transform="rotate(-60, 396.625, 512.4)">
erubi
</text>
<rect x="414.25" y="446.6780342238464" width="8.8125" height="51.32196577615353" fill="#7070f8" data-tooltip="1.00x baseline speed (No JIT)"/>
<line x1="414.25" y1="445.5857289245609" x2="423.0625" y2="445.5857289245609" stroke="#000"/>
<line x1="414.25" y1="447.77033952313184" x2="423.0625" y2="447.77033952313184" stroke="#000"/>
<line x1="418.65625" y1="445.5857289245609" x2="418.65625" y2="447.77033952313184" stroke="#000"/>
<rect x="423.0625" y="446.9280461070999" width="8.8125" height="51.0719538929001" fill="orange" data-tooltip="1.00x baseline speed (MJIT)"/>
<line x1="423.0625" y1="445.3304600572852" x2="431.875" y2="445.3304600572852" stroke="#000"/>
<line x1="423.0625" y1="448.52563215691447" x2="431.875" y2="448.52563215691447" stroke="#000"/>
<line x1="427.46875" y1="445.3304600572852" x2="427.46875" y2="448.52563215691447" stroke="#000"/>
<rect x="431.875" y="427.0973017208809" width="8.8125" height="70.90269827911898" fill="green" data-tooltip="1.38x baseline speed (YJIT)"/>
<line x1="431.875" y1="424.05565401193184" x2="440.6875" y2="424.05565401193184" stroke="#000"/>
<line x1="431.875" y1="430.13894942983" x2="440.6875" y2="430.13894942983" stroke="#000"/>
<line x1="436.28125" y1="424.05565401193184" x2="436.28125" y2="430.13894942983" stroke="#000"/>
<line x1="431.875" y1="498.0" x2="431.875" y2="502.79999999999995" stroke="#000"/>
<text x="431.875" y="512.4" fill="#111" font-size="small" font-family="monospace" font-weight="bold" text-anchor="end" transform="rotate(-60, 431.875, 512.4)">
erubi_rails
</text>
<rect x="449.5" y="446.6780342238464" width="8.8125" height="51.32196577615353" fill="#7070f8" data-tooltip="1.00x baseline speed (No JIT)"/>
<line x1="449.5" y1="446.62749404560725" x2="458.3125" y2="446.62749404560725" stroke="#000"/>
<line x1="449.5" y1="446.7285744020855" x2="458.3125" y2="446.7285744020855" stroke="#000"/>
<line x1="453.90625" y1="446.62749404560725" x2="453.90625" y2="446.7285744020855" stroke="#000"/>
<rect x="458.3125" y="390.34657294756175" width="8.8125" height="107.65342705243822" fill="orange" data-tooltip="2.10x baseline speed (MJIT)"/>
<line x1="458.3125" y1="390.2316274935162" x2="467.125" y2="390.2316274935162" stroke="#000"/>
<line x1="458.3125" y1="390.4615184016073" x2="467.125" y2="390.4615184016073" stroke="#000"/>
<line x1="462.71875" y1="390.2316274935162" x2="462.71875" y2="390.4615184016073" stroke="#000"/>
<rect x="467.125" y="383.90768026061863" width="8.8125" height="114.09231973938138" fill="green" data-tooltip="2.22x baseline speed (YJIT)"/>
<line x1="467.125" y1="383.6356778483513" x2="475.9375" y2="383.6356778483513" stroke="#000"/>
<line x1="467.125" y1="384.179682672886" x2="475.9375" y2="384.179682672886" stroke="#000"/>
<line x1="471.53125" y1="383.6356778483513" x2="471.53125" y2="384.179682672886" stroke="#000"/>
<line x1="467.125" y1="498.0" x2="467.125" y2="502.79999999999995" stroke="#000"/>
<text x="467.125" y="512.4" fill="#111" font-size="small" font-family="monospace" font-weight="bold" text-anchor="end" transform="rotate(-60, 467.125, 512.4)">
fannkuchredux
</text>
<rect x="484.75" y="446.6780342238464" width="8.8125" height="51.32196577615353" fill="#7070f8" data-tooltip="1.00x baseline speed (No JIT)"/>
<line x1="484.75" y1="446.0317754869152" x2="493.5625" y2="446.0317754869152" stroke="#000"/>
<line x1="484.75" y1="447.32429296077754" x2="493.5625" y2="447.32429296077754" stroke="#000"/>
<line x1="489.15625" y1="446.0317754869152" x2="489.15625" y2="447.32429296077754" stroke="#000"/>
<rect x="493.5625" y="437.9869927400378" width="8.8125" height="60.01300725996215" fill="orange" data-tooltip="1.17x baseline speed (MJIT)"/>
<line x1="493.5625" y1="436.7720613950807" x2="502.375" y2="436.7720613950807" stroke="#000"/>
<line x1="493.5625" y1="439.2019240849949" x2="502.375" y2="439.2019240849949" stroke="#000"/>
<line x1="497.96875" y1="436.7720613950807" x2="497.96875" y2="439.2019240849949" stroke="#000"/>
<rect x="502.375" y="431.3578910419728" width="8.8125" height="66.64210895802721" fill="green" data-tooltip="1.30x baseline speed (YJIT)"/>
<line x1="502.375" y1="429.9648706941446" x2="511.1875" y2="429.9648706941446" stroke="#000"/>
<line x1="502.375" y1="432.75091138980093" x2="511.1875" y2="432.75091138980093" stroke="#000"/>
<line x1="506.78124999999994" y1="429.9648706941446" x2="506.78124999999994" y2="432.75091138980093" stroke="#000"/>
<line x1="502.375" y1="498.0" x2="502.375" y2="502.79999999999995" stroke="#000"/>
<text x="502.375" y="512.4" fill="#111" font-size="small" font-family="monospace" font-weight="bold" text-anchor="end" transform="rotate(-60, 502.375, 512.4)">
lee
</text>
<rect x="519.9999999999999" y="446.6780342238464" width="8.8125" height="51.32196577615353" fill="#7070f8" data-tooltip="1.00x baseline speed (No JIT)"/>
<line x1="519.9999999999999" y1="446.6366127587648" x2="528.8124999999999" y2="446.6366127587648" stroke="#000"/>
<line x1="519.9999999999999" y1="446.71945568892795" x2="528.8124999999999" y2="446.71945568892795" stroke="#000"/>
<line x1="524.4062499999999" y1="446.6366127587648" x2="524.4062499999999" y2="446.71945568892795" stroke="#000"/>
<rect x="528.8124999999999" y="409.9508608133888" width="8.8125" height="88.04913918661111" fill="orange" data-tooltip="1.72x baseline speed (MJIT)"/>
<line x1="528.8124999999999" y1="409.3871762712336" x2="537.6249999999999" y2="409.3871762712336" stroke="#000"/>
<line x1="528.8124999999999" y1="410.514545355544" x2="537.6249999999999" y2="410.514545355544" stroke="#000"/>
<line x1="533.2187499999999" y1="409.3871762712336" x2="533.2187499999999" y2="410.514545355544" stroke="#000"/>
<rect x="537.6249999999999" y="427.1965746603202" width="8.8125" height="70.80342533967975" fill="green" data-tooltip="1.38x baseline speed (YJIT)"/>
<line x1="537.6249999999999" y1="427.07967511557655" x2="546.4374999999999" y2="427.07967511557655" stroke="#000"/>
<line x1="537.6249999999999" y1="427.31347420506387" x2="546.4374999999999" y2="427.31347420506387" stroke="#000"/>
<line x1="542.0312499999999" y1="427.07967511557655" x2="542.0312499999999" y2="427.31347420506387" stroke="#000"/>
<line x1="537.6249999999999" y1="498.0" x2="537.6249999999999" y2="502.79999999999995" stroke="#000"/>
<text x="537.6249999999999" y="512.4" fill="#111" font-size="small" font-family="monospace" font-weight="bold" text-anchor="end" transform="rotate(-60, 537.6249999999999, 512.4)">
nbody
</text>
<rect x="555.2499999999999" y="446.6780342238464" width="8.8125" height="51.32196577615353" fill="#7070f8" data-tooltip="1.00x baseline speed (No JIT)"/>
<line x1="555.2499999999999" y1="446.45818272671494" x2="564.0624999999999" y2="446.45818272671494" stroke="#000"/>
<line x1="555.2499999999999" y1="446.8978857209778" x2="564.0624999999999" y2="446.8978857209778" stroke="#000"/>
<line x1="559.6562499999999" y1="446.45818272671494" x2="559.6562499999999" y2="446.8978857209778" stroke="#000"/>
<rect x="564.0624999999999" y="383.6288966154545" width="8.8125" height="114.3711033845454" fill="orange" data-tooltip="2.23x baseline speed (MJIT)"/>
<line x1="564.0624999999999" y1="382.77973350124444" x2="572.8749999999999" y2="382.77973350124444" stroke="#000"/>
<line x1="564.0624999999999" y1="384.4780597296646" x2="572.8749999999999" y2="384.4780597296646" stroke="#000"/>
<line x1="568.4687499999999" y1="382.77973350124444" x2="568.4687499999999" y2="384.4780597296646" stroke="#000"/>
<rect x="572.8749999999999" y="406.84224398962925" width="8.8125" height="91.15775601037066" fill="green" data-tooltip="1.78x baseline speed (YJIT)"/>
<line x1="572.8749999999999" y1="406.1752489657739" x2="581.6874999999999" y2="406.1752489657739" stroke="#000"/>
<line x1="572.8749999999999" y1="407.5092390134846" x2="581.6874999999999" y2="407.5092390134846" stroke="#000"/>
<line x1="577.2812499999999" y1="406.1752489657739" x2="577.2812499999999" y2="407.5092390134846" stroke="#000"/>
<line x1="572.8749999999999" y1="498.0" x2="572.8749999999999" y2="502.79999999999995" stroke="#000"/>
<text x="572.8749999999999" y="512.4" fill="#111" font-size="small" font-family="monospace" font-weight="bold" text-anchor="end" transform="rotate(-60, 572.8749999999999, 512.4)">
optcarrot
</text>
<rect x="590.4999999999999" y="446.6780342238464" width="8.8125" height="51.32196577615353" fill="#7070f8" data-tooltip="1.00x baseline speed (No JIT)"/>
<line x1="590.4999999999999" y1="446.4513429540882" x2="599.3124999999999" y2="446.4513429540882" stroke="#000"/>
<line x1="590.4999999999999" y1="446.9047254936046" x2="599.3124999999999" y2="446.9047254936046" stroke="#000"/>
<line x1="594.9062499999999" y1="446.4513429540882" x2="594.9062499999999" y2="446.9047254936046" stroke="#000"/>
<rect x="599.3124999999999" y="418.7719687573981" width="8.8125" height="79.22803124260183" fill="orange" data-tooltip="1.54x baseline speed (MJIT)"/>
<line x1="599.3124999999999" y1="418.2407924286216" x2="608.1249999999999" y2="418.2407924286216" stroke="#000"/>
<line x1="599.3124999999999" y1="419.30314508617454" x2="608.1249999999999" y2="419.30314508617454" stroke="#000"/>
<line x1="603.7187499999999" y1="418.2407924286216" x2="603.7187499999999" y2="419.30314508617454" stroke="#000"/>
<rect x="608.1249999999999" y="403.1432678111311" width="8.8125" height="94.85673218886883" fill="green" data-tooltip="1.85x baseline speed (YJIT)"/>
<line x1="608.1249999999999" y1="402.4392172322087" x2="616.9374999999999" y2="402.4392172322087" stroke="#000"/>
<line x1="608.1249999999999" y1="403.84731839005354" x2="616.9374999999999" y2="403.84731839005354" stroke="#000"/>
<line x1="612.5312499999999" y1="402.4392172322087" x2="612.5312499999999" y2="403.84731839005354" stroke="#000"/>
<line x1="608.1249999999999" y1="498.0" x2="608.1249999999999" y2="502.79999999999995" stroke="#000"/>
<text x="608.1249999999999" y="512.4" fill="#111" font-size="small" font-family="monospace" font-weight="bold" text-anchor="end" transform="rotate(-60, 608.1249999999999, 512.4)">
rubykon
</text>
<rect x="625.7499999999999" y="446.6780342238464" width="8.8125" height="51.32196577615353" fill="#7070f8" data-tooltip="1.00x baseline speed (No JIT)"/>
<line x1="625.7499999999999" y1="446.67271408051596" x2="634.5624999999999" y2="446.67271408051596" stroke="#000"/>
<line x1="625.7499999999999" y1="446.6833543671768" x2="634.5624999999999" y2="446.6833543671768" stroke="#000"/>
<line x1="630.1562499999999" y1="446.67271408051596" x2="630.1562499999999" y2="446.6833543671768" stroke="#000"/>
<rect x="634.5624999999999" y="472.59077912394656" width="8.8125" height="25.40922087605343" fill="orange" data-tooltip="0.50x baseline speed (MJIT)"/>
<line x1="634.5624999999999" y1="471.7386417421588" x2="643.3749999999999" y2="471.7386417421588" stroke="#000"/>
<line x1="634.5624999999999" y1="473.4429165057343" x2="643.3749999999999" y2="473.4429165057343" stroke="#000"/>
<line x1="638.9687499999999" y1="471.7386417421588" x2="638.9687499999999" y2="473.4429165057343" stroke="#000"/>
<rect x="643.3749999999999" y="166.04503670927275" width="8.8125" height="331.9549632907272" fill="green" data-tooltip="6.47x baseline speed (YJIT)"/>
<line x1="643.3749999999999" y1="165.76467588680902" x2="652.1874999999999" y2="165.76467588680902" stroke="#000"/>
<line x1="643.3749999999999" y1="166.32539753173648" x2="652.1874999999999" y2="166.32539753173648" stroke="#000"/>
<line x1="647.7812499999999" y1="165.76467588680902" x2="647.7812499999999" y2="166.32539753173648" stroke="#000"/>
<line x1="643.3749999999999" y1="498.0" x2="643.3749999999999" y2="502.79999999999995" stroke="#000"/>
<text x="643.3749999999999" y="512.4" fill="#111" font-size="small" font-family="monospace" font-weight="bold" text-anchor="end" transform="rotate(-60, 643.3749999999999, 512.4)">
30k_ifelse
</text>
<rect x="660.9999999999999" y="446.6780342238464" width="8.8125" height="51.32196577615353" fill="#7070f8" data-tooltip="1.00x baseline speed (No JIT)"/>
<line x1="660.9999999999999" y1="446.45835654198225" x2="669.8124999999999" y2="446.45835654198225" stroke="#000"/>
<line x1="660.9999999999999" y1="446.8977119057105" x2="669.8124999999999" y2="446.8977119057105" stroke="#000"/>
<line x1="665.4062499999999" y1="446.45835654198225" x2="665.4062499999999" y2="446.8977119057105" stroke="#000"/>
<rect x="669.8124999999999" y="471.4737270052156" width="8.8125" height="26.52627299478428" fill="orange" data-tooltip="0.52x baseline speed (MJIT)"/>
<line x1="669.8124999999999" y1="470.2454319155443" x2="678.6249999999999" y2="470.2454319155443" stroke="#000"/>
<line x1="669.8124999999999" y1="472.7020220948869" x2="678.6249999999999" y2="472.7020220948869" stroke="#000"/>
<line x1="674.2187499999999" y1="470.2454319155443" x2="674.2187499999999" y2="472.7020220948869" stroke="#000"/>
<rect x="678.6249999999999" y="100.19999999999999" width="8.8125" height="397.79999999999995" fill="green" data-tooltip="7.75x baseline speed (YJIT)"/>
<line x1="678.6249999999999" y1="98.4958813955333" x2="687.4374999999999" y2="98.4958813955333" stroke="#000"/>
<line x1="678.6249999999999" y1="101.90411860446667" x2="687.4374999999999" y2="101.90411860446667" stroke="#000"/>
<line x1="683.0312499999999" y1="98.4958813955333" x2="683.0312499999999" y2="101.90411860446667" stroke="#000"/>
<line x1="678.6249999999999" y1="498.0" x2="678.6249999999999" y2="502.79999999999995" stroke="#000"/>
<text x="678.6249999999999" y="512.4" fill="#111" font-size="small" font-family="monospace" font-weight="bold" text-anchor="end" transform="rotate(-60, 678.6249999999999, 512.4)">
30k_methods
</text>
<rect x="696.2499999999999" y="446.6780342238464" width="8.8125" height="51.32196577615353" fill="#7070f8" data-tooltip="1.00x baseline speed (No JIT)"/>
<line x1="696.2499999999999" y1="446.5716278550684" x2="705.0624999999999" y2="446.5716278550684" stroke="#000"/>
<line x1="696.2499999999999" y1="446.7844405926244" x2="705.0624999999999" y2="446.7844405926244" stroke="#000"/>
<line x1="700.6562499999999" y1="446.5716278550684" x2="700.6562499999999" y2="446.7844405926244" stroke="#000"/>
<rect x="705.0624999999999" y="420.1985715856285" width="8.8125" height="77.80142841437146" fill="orange" data-tooltip="1.52x baseline speed (MJIT)"/>
<line x1="705.0624999999999" y1="418.9636071571985" x2="713.8749999999999" y2="418.9636071571985" stroke="#000"/>
<line x1="705.0624999999999" y1="421.4335360140585" x2="713.8749999999999" y2="421.4335360140585" stroke="#000"/>
<line x1="709.4687499999999" y1="418.9636071571985" x2="709.4687499999999" y2="421.4335360140585" stroke="#000"/>
<rect x="713.8749999999999" y="380.0445456948264" width="8.8125" height="117.95545430517353" fill="green" data-tooltip="2.30x baseline speed (YJIT)"/>
<line x1="713.8749999999999" y1="379.1544205988918" x2="722.6874999999999" y2="379.1544205988918" stroke="#000"/>
<line x1="713.8749999999999" y1="380.934670790761" x2="722.6874999999999" y2="380.934670790761" stroke="#000"/>
<line x1="718.2812499999999" y1="379.1544205988918" x2="718.2812499999999" y2="380.934670790761" stroke="#000"/>
<line x1="713.8749999999999" y1="498.0" x2="713.8749999999999" y2="502.79999999999995" stroke="#000"/>
<text x="713.8749999999999" y="512.4" fill="#111" font-size="small" font-family="monospace" font-weight="bold" text-anchor="end" transform="rotate(-60, 713.8749999999999, 512.4)">
cfunc_itself
</text>
<rect x="731.4999999999999" y="446.6780342238464" width="8.8125" height="51.32196577615353" fill="#7070f8" data-tooltip="1.00x baseline speed (No JIT)"/>
<line x1="731.4999999999999" y1="446.5529668478415" x2="740.3124999999999" y2="446.5529668478415" stroke="#000"/>
<line x1="731.4999999999999" y1="446.80310159985123" x2="740.3124999999999" y2="446.80310159985123" stroke="#000"/>
<line x1="735.9062499999999" y1="446.5529668478415" x2="735.9062499999999" y2="446.80310159985123" stroke="#000"/>
<rect x="740.3124999999999" y="350.275888036831" width="8.8125" height="147.72411196316887" fill="orange" data-tooltip="2.88x baseline speed (MJIT)"/>
<line x1="740.3124999999999" y1="349.3030007628648" x2="749.1249999999999" y2="349.3030007628648" stroke="#000"/>
<line x1="740.3124999999999" y1="351.2487753107972" x2="749.1249999999999" y2="351.2487753107972" stroke="#000"/>
<line x1="744.7187499999999" y1="349.3030007628648" x2="744.7187499999999" y2="351.2487753107972" stroke="#000"/>
<rect x="749.1249999999999" y="296.6527935637337" width="8.8125" height="201.34720643626625" fill="green" data-tooltip="3.92x baseline speed (YJIT)"/>
<line x1="749.1249999999999" y1="294.6726199386922" x2="757.9374999999999" y2="294.6726199386922" stroke="#000"/>
<line x1="749.1249999999999" y1="298.63296718877524" x2="757.9374999999999" y2="298.63296718877524" stroke="#000"/>
<line x1="753.5312499999999" y1="294.6726199386922" x2="753.5312499999999" y2="298.63296718877524" stroke="#000"/>
<line x1="749.1249999999999" y1="498.0" x2="749.1249999999999" y2="502.79999999999995" stroke="#000"/>
<text x="749.1249999999999" y="512.4" fill="#111" font-size="small" font-family="monospace" font-weight="bold" text-anchor="end" transform="rotate(-60, 749.1249999999999, 512.4)">
fib
</text>
<rect x="766.7499999999999" y="446.6780342238464" width="8.8125" height="51.32196577615353" fill="#7070f8" data-tooltip="1.00x baseline speed (No JIT)"/>
<line x1="766.7499999999999" y1="446.44471471160085" x2="775.5624999999999" y2="446.44471471160085" stroke="#000"/>
<line x1="766.7499999999999" y1="446.9113537360919" x2="775.5624999999999" y2="446.9113537360919" stroke="#000"/>
<line x1="771.1562499999999" y1="446.44471471160085" x2="771.1562499999999" y2="446.9113537360919" stroke="#000"/>
<rect x="775.5624999999999" y="326.5387810861451" width="8.8125" height="171.4612189138548" fill="orange" data-tooltip="3.34x baseline speed (MJIT)"/>
<line x1="775.5624999999999" y1="232.53075059097034" x2="784.3749999999999" y2="232.53075059097034" stroke="#000"/>
<line x1="775.5624999999999" y1="420.54681158131984" x2="784.3749999999999" y2="420.54681158131984" stroke="#000"/>
<line x1="779.9687499999999" y1="232.53075059097034" x2="779.9687499999999" y2="420.54681158131984" stroke="#000"/>
<rect x="784.3749999999999" y="372.4565264753917" width="8.8125" height="125.54347352460825" fill="green" data-tooltip="2.45x baseline speed (YJIT)"/>
<line x1="784.3749999999999" y1="371.88256608973194" x2="793.1874999999999" y2="371.88256608973194" stroke="#000"/>
<line x1="784.3749999999999" y1="373.03048686105143" x2="793.1874999999999" y2="373.03048686105143" stroke="#000"/>
<line x1="788.7812499999999" y1="371.88256608973194" x2="788.7812499999999" y2="373.03048686105143" stroke="#000"/>
<line x1="784.3749999999999" y1="498.0" x2="784.3749999999999" y2="502.79999999999995" stroke="#000"/>
<text x="784.3749999999999" y="512.4" fill="#111" font-size="small" font-family="monospace" font-weight="bold" text-anchor="end" transform="rotate(-60, 784.3749999999999, 512.4)">
getivar
</text>
<rect x="801.9999999999999" y="446.6780342238464" width="8.8125" height="51.32196577615353" fill="#7070f8" data-tooltip="1.00x baseline speed (No JIT)"/>
<line x1="801.9999999999999" y1="446.62637518466084" x2="810.8124999999999" y2="446.62637518466084" stroke="#000"/>
<line x1="801.9999999999999" y1="446.72969326303195" x2="810.8124999999999" y2="446.72969326303195" stroke="#000"/>
<line x1="806.4062499999999" y1="446.62637518466084" x2="806.4062499999999" y2="446.72969326303195" stroke="#000"/>
<rect x="810.8124999999999" y="433.7270504879205" width="8.8125" height="64.27294951207946" fill="orange" data-tooltip="1.25x baseline speed (MJIT)"/>
<line x1="810.8124999999999" y1="432.54517897652806" x2="819.6249999999999" y2="432.54517897652806" stroke="#000"/>
<line x1="810.8124999999999" y1="434.9089219993129" x2="819.6249999999999" y2="434.9089219993129" stroke="#000"/>
<line x1="815.2187499999999" y1="432.54517897652806" x2="815.2187499999999" y2="434.9089219993129" stroke="#000"/>
<rect x="819.6249999999999" y="233.25305465895494" width="8.8125" height="264.746945341045" fill="green" data-tooltip="5.16x baseline speed (YJIT)"/>
<line x1="819.6249999999999" y1="232.71763845680087" x2="828.4374999999999" y2="232.71763845680087" stroke="#000"/>
<line x1="819.6249999999999" y1="233.78847086110903" x2="828.4374999999999" y2="233.78847086110903" stroke="#000"/>
<line x1="824.0312499999999" y1="232.71763845680087" x2="824.0312499999999" y2="233.78847086110903" stroke="#000"/>
<line x1="819.6249999999999" y1="498.0" x2="819.6249999999999" y2="502.79999999999995" stroke="#000"/>
<text x="819.6249999999999" y="512.4" fill="#111" font-size="small" font-family="monospace" font-weight="bold" text-anchor="end" transform="rotate(-60, 819.6249999999999, 512.4)">
keyword_args
</text>
<rect x="837.2499999999999" y="446.6780342238464" width="8.8125" height="51.32196577615353" fill="#7070f8" data-tooltip="1.00x baseline speed (No JIT)"/>
<line x1="837.2499999999999" y1="446.59654638409927" x2="846.0624999999999" y2="446.59654638409927" stroke="#000"/>
<line x1="837.2499999999999" y1="446.7595220635935" x2="846.0624999999999" y2="446.7595220635935" stroke="#000"/>
<line x1="841.6562499999999" y1="446.59654638409927" x2="841.6562499999999" y2="446.7595220635935" stroke="#000"/>
<rect x="846.0624999999999" y="439.23372324580197" width="8.8125" height="58.766276754197975" fill="orange" data-tooltip="1.15x baseline speed (MJIT)"/>
<line x1="846.0624999999999" y1="438.6680025119172" x2="854.8749999999999" y2="438.6680025119172" stroke="#000"/>
<line x1="846.0624999999999" y1="439.7994439796867" x2="854.8749999999999" y2="439.7994439796867" stroke="#000"/>
<line x1="850.4687499999999" y1="438.6680025119172" x2="850.4687499999999" y2="439.7994439796867" stroke="#000"/>
<rect x="854.8749999999999" y="424.3959216088319" width="8.8125" height="73.60407839116809" fill="green" data-tooltip="1.43x baseline speed (YJIT)"/>
<line x1="854.8749999999999" y1="424.26772652599936" x2="863.6874999999999" y2="424.26772652599936" stroke="#000"/>
<line x1="854.8749999999999" y1="424.52411669166446" x2="863.6874999999999" y2="424.52411669166446" stroke="#000"/>
<line x1="859.2812499999999" y1="424.26772652599936" x2="859.2812499999999" y2="424.52411669166446" stroke="#000"/>
<line x1="854.8749999999999" y1="498.0" x2="854.8749999999999" y2="502.79999999999995" stroke="#000"/>
<text x="854.8749999999999" y="512.4" fill="#111" font-size="small" font-family="monospace" font-weight="bold" text-anchor="end" transform="rotate(-60, 854.8749999999999, 512.4)">
respond_to
</text>
<rect x="872.4999999999999" y="446.6780342238464" width="8.8125" height="51.32196577615353" fill="#7070f8" data-tooltip="1.00x baseline speed (No JIT)"/>
<line x1="872.4999999999999" y1="446.64260240880884" x2="881.3125" y2="446.64260240880884" stroke="#000"/>
<line x1="872.4999999999999" y1="446.71346603888395" x2="881.3125" y2="446.71346603888395" stroke="#000"/>
<line x1="876.9062499999999" y1="446.64260240880884" x2="876.9062499999999" y2="446.71346603888395" stroke="#000"/>
<rect x="881.3125" y="291.5486815584864" width="8.8125" height="206.4513184415135" fill="orange" data-tooltip="4.02x baseline speed (MJIT)"/>
<line x1="881.3125" y1="164.0676281809762" x2="890.125" y2="164.0676281809762" stroke="#000"/>
<line x1="881.3125" y1="419.02973493599666" x2="890.125" y2="419.02973493599666" stroke="#000"/>
<line x1="885.7187499999999" y1="164.0676281809762" x2="885.7187499999999" y2="419.02973493599666" stroke="#000"/>
<rect x="890.125" y="414.3679375714814" width="8.8125" height="83.63206242851865" fill="green" data-tooltip="1.63x baseline speed (YJIT)"/>
<line x1="890.125" y1="414.14678374824206" x2="898.9375" y2="414.14678374824206" stroke="#000"/>
<line x1="890.125" y1="414.5890913947207" x2="898.9375" y2="414.5890913947207" stroke="#000"/>
<line x1="894.5312499999999" y1="414.14678374824206" x2="894.5312499999999" y2="414.5890913947207" stroke="#000"/>
<line x1="890.125" y1="498.0" x2="890.125" y2="502.79999999999995" stroke="#000"/>
<text x="890.125" y="512.4" fill="#111" font-size="small" font-family="monospace" font-weight="bold" text-anchor="end" transform="rotate(-60, 890.125, 512.4)">
setivar
</text>
<rect x="907.75" y="446.6780342238464" width="8.8125" height="51.32196577615353" fill="#7070f8" data-tooltip="1.00x baseline speed (No JIT)"/>
<line x1="907.75" y1="446.14092651727833" x2="916.5625" y2="446.14092651727833" stroke="#000"/>
<line x1="907.75" y1="447.2151419304144" x2="916.5625" y2="447.2151419304144" stroke="#000"/>
<line x1="912.1562499999999" y1="446.14092651727833" x2="912.1562499999999" y2="447.2151419304144" stroke="#000"/>
<rect x="916.5625" y="422.5467687625207" width="8.8125" height="75.45323123747929" fill="orange" data-tooltip="1.47x baseline speed (MJIT)"/>
<line x1="916.5625" y1="414.6615935519691" x2="925.375" y2="414.6615935519691" stroke="#000"/>
<line x1="916.5625" y1="430.43194397307235" x2="925.375" y2="430.43194397307235" stroke="#000"/>
<line x1="920.9687499999999" y1="414.6615935519691" x2="920.9687499999999" y2="430.43194397307235" stroke="#000"/>
<rect x="925.375" y="406.30997355336984" width="8.8125" height="91.69002644663001" fill="green" data-tooltip="1.79x baseline speed (YJIT)"/>
<line x1="925.375" y1="404.8178740106896" x2="934.1875" y2="404.8178740106896" stroke="#000"/>
<line x1="925.375" y1="407.80207309605015" x2="934.1875" y2="407.80207309605015" stroke="#000"/>
<line x1="929.7812499999999" y1="404.8178740106896" x2="929.7812499999999" y2="407.80207309605015" stroke="#000"/>
<line x1="925.375" y1="498.0" x2="925.375" y2="502.79999999999995" stroke="#000"/>
<text x="925.375" y="512.4" fill="#111" font-size="small" font-family="monospace" font-weight="bold" text-anchor="end" transform="rotate(-60, 925.375, 512.4)">
str_concat
</text>
</svg>