<svg viewBox="0 0 1000 600" xmlns="http://www.w3.org/2000/svg" xmlns:xlink="http://www.w3.org/1999/xlink" width="100%" height="100%">

<rect x="50.0" y="30.0" width="940.0" height="467.99999999999994" stroke="#000" fill="#EEE"/>
<line x1="42.0" y1="497.9999999999999" x2="50.0" y2="497.9999999999999" stroke="#000"/>
<text x="26.000000000000004" y="497.9999999999999" text-anchor="end" font-weight="bold" font-size="small" fill="#111">
0.0
</text>
<line x1="42.0" y1="445.7814049978175" x2="50.0" y2="445.7814049978175" stroke="#000"/>
<text x="26.000000000000004" y="445.7814049978175" text-anchor="end" font-weight="bold" font-size="small" fill="#111">
0.2
</text>
<line x1="42.0" y1="393.56280999563506" x2="50.0" y2="393.56280999563506" stroke="#000"/>
<text x="26.000000000000004" y="393.56280999563506" text-anchor="end" font-weight="bold" font-size="small" fill="#111">
0.4
</text>
<line x1="42.0" y1="341.3442149934525" x2="50.0" y2="341.3442149934525" stroke="#000"/>
<text x="26.000000000000004" y="341.3442149934525" text-anchor="end" font-weight="bold" font-size="small" fill="#111">
0.6
</text>
<line x1="42.0" y1="289.1256199912701" x2="50.0" y2="289.1256199912701" stroke="#000"/>
<text x="26.000000000000004" y="289.1256199912701" text-anchor="end" font-weight="bold" font-size="small" fill="#111">
0.8
</text>
<line x1="42.0" y1="236.90702498908766" x2="50.0" y2="236.90702498908766" stroke="#000"/>
<text x="26.000000000000004" y="236.90702498908766" text-anchor="end" font-weight="bold" font-size="small" fill="#111">
1.0
</text>
<line x1="42.0" y1="184.68842998690525" x2="50.0" y2="184.68842998690525" stroke="#000"/>
<text x="26.000000000000004" y="184.68842998690525" text-anchor="end" font-weight="bold" font-size="small" fill="#111">
1.2
</text>
<line x1="42.0" y1="132.46983498472278" x2="50.0" y2="132.46983498472278" stroke="#000"/>
<text x="26.000000000000004" y="132.46983498472278" text-anchor="end" font-weight="bold" font-size="small" fill="#111">
1.4
</text>
<rect x="162.74999999999997" y="36.00000000000001" width="80.0" height="18.0" fill="#7070f8" stroke="#888"/>
<text x="202.75" y="52.50000000000001" font-size="small" text-anchor="middle" font-weight="bold" fill="#EEE">
No JIT
</text>
<rect x="374.25" y="36.00000000000001" width="80.0" height="18.0" fill="orange" stroke="#888"/>
<text x="414.25" y="52.50000000000001" font-size="small" text-anchor="middle" font-weight="bold" fill="#EEE">
MJIT3.0
</text>
<rect x="585.7499999999999" y="36.00000000000001" width="80.0" height="18.0" fill="green" stroke="#888"/>
<text x="625.7499999999999" y="52.50000000000001" font-size="small" text-anchor="middle" font-weight="bold" fill="#EEE">
MJIT
</text>
<rect x="797.2499999999999" y="36.00000000000001" width="80.0" height="18.0" fill="#4F3A7A" stroke="#888"/>
<text x="837.2499999999999" y="52.50000000000001" font-size="small" text-anchor="middle" font-weight="bold" fill="#EEE">
YJIT
</text>
<rect x="97.0" y="236.90702498908766" width="24.171428571428574" height="261.09297501091226" fill="#7070f8" data-tooltip="1.00x baseline speed (No JIT)"/>
<line x1="97.0" y1="234.89345096004575" x2="121.17142857142856" y2="234.89345096004575" stroke="#000"/>
<line x1="97.0" y1="238.92059901812956" x2="121.17142857142856" y2="238.92059901812956" stroke="#000"/>
<line x1="109.08571428571429" y1="234.89345096004575" x2="109.08571428571429" y2="238.92059901812956" stroke="#000"/>
<rect x="121.17142857142856" y="265.2744925542317" width="24.171428571428574" height="232.72550744576824" fill="orange" data-tooltip="0.89x baseline speed (MJIT3.0)"/>
<line x1="121.17142857142856" y1="262.23159642578884" x2="145.34285714285713" y2="262.23159642578884" stroke="#000"/>
<line x1="121.17142857142856" y1="268.3173886826745" x2="145.34285714285713" y2="268.3173886826745" stroke="#000"/>
<line x1="133.25714285714284" y1="262.23159642578884" x2="133.25714285714284" y2="268.3173886826745" stroke="#000"/>
<rect x="145.34285714285716" y="281.1980365737114" width="24.171428571428574" height="216.80196342628852" fill="green" data-tooltip="0.83x baseline speed (MJIT)"/>
<line x1="145.34285714285716" y1="272.2349587435554" x2="169.51428571428573" y2="272.2349587435554" stroke="#000"/>
<line x1="145.34285714285716" y1="290.16111440386743" x2="169.51428571428573" y2="290.16111440386743" stroke="#000"/>
<line x1="157.42857142857144" y1="272.2349587435554" x2="157.42857142857144" y2="290.16111440386743" stroke="#000"/>
<rect x="169.51428571428573" y="133.789377365648" width="24.171428571428574" height="364.2106226343519" fill="#4F3A7A" data-tooltip="1.39x baseline speed (YJIT)"/>
<line x1="169.51428571428573" y1="130.75744829113293" x2="193.68571428571428" y2="130.75744829113293" stroke="#000"/>
<line x1="169.51428571428573" y1="136.82130644016306" x2="193.68571428571428" y2="136.82130644016306" stroke="#000"/>
<line x1="181.60000000000002" y1="130.75744829113293" x2="181.60000000000002" y2="136.82130644016306" stroke="#000"/>
<line x1="157.42857142857142" y1="498.0" x2="157.42857142857142" y2="502.79999999999995" stroke="#000"/>
<text x="157.42857142857142" y="512.4" fill="#111" font-size="small" font-family="monospace" font-weight="bold" text-anchor="end" transform="rotate(-60, 157.42857142857142, 512.4)">
activerecord
</text>
<rect x="217.85714285714286" y="236.90702498908766" width="24.171428571428574" height="261.09297501091226" fill="#7070f8" data-tooltip="1.00x baseline speed (No JIT)"/>
<line x1="217.85714285714286" y1="234.44538641399032" x2="242.02857142857144" y2="234.44538641399032" stroke="#000"/>
<line x1="217.85714285714286" y1="239.368663564185" x2="242.02857142857144" y2="239.368663564185" stroke="#000"/>
<line x1="229.94285714285715" y1="234.44538641399032" x2="229.94285714285715" y2="239.368663564185" stroke="#000"/>
<rect x="242.02857142857144" y="202.2365946194428" width="24.171428571428574" height="295.7634053805571" fill="orange" data-tooltip="1.13x baseline speed (MJIT3.0)"/>
<line x1="242.02857142857144" y1="198.3003263711743" x2="266.2" y2="198.3003263711743" stroke="#000"/>
<line x1="242.02857142857144" y1="206.1728628677113" x2="266.2" y2="206.1728628677113" stroke="#000"/>
<line x1="254.11428571428573" y1="198.3003263711743" x2="254.11428571428573" y2="206.1728628677113" stroke="#000"/>
<rect x="290.3714285714286" y="156.74166923691496" width="24.171428571428574" height="341.258330763085" fill="#4F3A7A" data-tooltip="1.31x baseline speed (YJIT)"/>
<line x1="290.3714285714286" y1="149.77702265076906" x2="314.5428571428572" y2="149.77702265076906" stroke="#000"/>
<line x1="290.3714285714286" y1="163.70631582306086" x2="314.5428571428572" y2="163.70631582306086" stroke="#000"/>
<line x1="302.4571428571429" y1="149.77702265076906" x2="302.4571428571429" y2="163.70631582306086" stroke="#000"/>
<line x1="278.2857142857143" y1="498.0" x2="278.2857142857143" y2="502.79999999999995" stroke="#000"/>
<text x="278.2857142857143" y="512.4" fill="#111" font-size="small" font-family="monospace" font-weight="bold" text-anchor="end" transform="rotate(-60, 278.2857142857143, 512.4)">
hexapdf
</text>
<rect x="338.7142857142857" y="236.90702498908766" width="24.171428571428574" height="261.09297501091226" fill="#7070f8" data-tooltip="1.00x baseline speed (No JIT)"/>
<line x1="338.7142857142857" y1="232.88359693918105" x2="362.8857142857143" y2="232.88359693918105" stroke="#000"/>
<line x1="338.7142857142857" y1="240.9304530389943" x2="362.8857142857143" y2="240.9304530389943" stroke="#000"/>
<line x1="350.80000000000007" y1="232.88359693918105" x2="350.80000000000007" y2="240.9304530389943" stroke="#000"/>
<rect x="362.8857142857143" y="224.3782738568265" width="24.171428571428574" height="273.6217261431734" fill="orange" data-tooltip="1.05x baseline speed (MJIT3.0)"/>
<line x1="362.8857142857143" y1="215.72596170661583" x2="387.0571428571429" y2="215.72596170661583" stroke="#000"/>
<line x1="362.8857142857143" y1="233.0305860070372" x2="387.0571428571429" y2="233.0305860070372" stroke="#000"/>
<line x1="374.97142857142865" y1="215.72596170661583" x2="374.97142857142865" y2="233.0305860070372" stroke="#000"/>
<rect x="387.0571428571429" y="234.84554281415615" width="24.171428571428574" height="263.1544571858438" fill="green" data-tooltip="1.01x baseline speed (MJIT)"/>
<line x1="387.0571428571429" y1="224.48780754922225" x2="411.22857142857146" y2="224.48780754922225" stroke="#000"/>
<line x1="387.0571428571429" y1="245.20327807909" x2="411.22857142857146" y2="245.20327807909" stroke="#000"/>
<line x1="399.14285714285717" y1="224.48780754922225" x2="399.14285714285717" y2="245.20327807909" stroke="#000"/>
<rect x="411.2285714285715" y="206.7324136878034" width="24.171428571428574" height="291.2675863121966" fill="#4F3A7A" data-tooltip="1.12x baseline speed (YJIT)"/>
<line x1="411.2285714285715" y1="196.282679811742" x2="435.4000000000001" y2="196.282679811742" stroke="#000"/>
<line x1="411.2285714285715" y1="217.18214756386473" x2="435.4000000000001" y2="217.18214756386473" stroke="#000"/>
<line x1="423.3142857142858" y1="196.282679811742" x2="423.3142857142858" y2="217.18214756386473" stroke="#000"/>
<line x1="399.14285714285717" y1="498.0" x2="399.14285714285717" y2="502.79999999999995" stroke="#000"/>
<text x="399.14285714285717" y="512.4" fill="#111" font-size="small" font-family="monospace" font-weight="bold" text-anchor="end" transform="rotate(-60, 399.14285714285717, 512.4)">
jekyll
</text>
<rect x="459.5714285714285" y="236.90702498908766" width="24.171428571428574" height="261.09297501091226" fill="#7070f8" data-tooltip="1.00x baseline speed (No JIT)"/>
<line x1="459.5714285714285" y1="232.68776416097967" x2="483.7428571428571" y2="232.68776416097967" stroke="#000"/>
<line x1="459.5714285714285" y1="241.12628581719568" x2="483.7428571428571" y2="241.12628581719568" stroke="#000"/>
<line x1="471.65714285714284" y1="232.68776416097967" x2="471.65714285714284" y2="241.12628581719568" stroke="#000"/>
<rect x="483.7428571428571" y="209.10338817952382" width="24.171428571428574" height="288.8966118204761" fill="orange" data-tooltip="1.11x baseline speed (MJIT3.0)"/>
<line x1="483.7428571428571" y1="201.04996657691348" x2="507.91428571428565" y2="201.04996657691348" stroke="#000"/>
<line x1="483.7428571428571" y1="217.1568097821342" x2="507.91428571428565" y2="217.1568097821342" stroke="#000"/>
<line x1="495.8285714285714" y1="201.04996657691348" x2="495.8285714285714" y2="217.1568097821342" stroke="#000"/>
<rect x="507.91428571428565" y="210.32472248942753" width="24.171428571428574" height="287.6752775105724" fill="green" data-tooltip="1.10x baseline speed (MJIT)"/>
<line x1="507.91428571428565" y1="194.92410782968196" x2="532.0857142857143" y2="194.92410782968196" stroke="#000"/>
<line x1="507.91428571428565" y1="225.7253371491731" x2="532.0857142857143" y2="225.7253371491731" stroke="#000"/>
<line x1="519.9999999999999" y1="194.92410782968196" x2="519.9999999999999" y2="225.7253371491731" stroke="#000"/>
<rect x="532.0857142857143" y="100.19999999999999" width="24.171428571428574" height="397.79999999999995" fill="#4F3A7A" data-tooltip="1.52x baseline speed (YJIT)"/>
<line x1="532.0857142857143" y1="89.70122715356263" x2="556.2571428571429" y2="89.70122715356263" stroke="#000"/>
<line x1="532.0857142857143" y1="110.69877284643735" x2="556.2571428571429" y2="110.69877284643735" stroke="#000"/>
<line x1="544.1714285714286" y1="89.70122715356263" x2="544.1714285714286" y2="110.69877284643735" stroke="#000"/>
<line x1="519.9999999999999" y1="498.0" x2="519.9999999999999" y2="502.79999999999995" stroke="#000"/>
<text x="519.9999999999999" y="512.4" fill="#111" font-size="small" font-family="monospace" font-weight="bold" text-anchor="end" transform="rotate(-60, 519.9999999999999, 512.4)">
liquid-render
</text>
<rect x="580.4285714285714" y="236.90702498908766" width="24.171428571428574" height="261.09297501091226" fill="#7070f8" data-tooltip="1.00x baseline speed (No JIT)"/>
<line x1="580.4285714285714" y1="236.3617248744255" x2="604.6" y2="236.3617248744255" stroke="#000"/>
<line x1="580.4285714285714" y1="237.45232510374984" x2="604.6" y2="237.45232510374984" stroke="#000"/>
<line x1="592.5142857142856" y1="236.3617248744255" x2="592.5142857142856" y2="237.45232510374984" stroke="#000"/>
<rect x="604.6" y="221.95782642888437" width="24.171428571428574" height="276.04217357111554" fill="orange" data-tooltip="1.06x baseline speed (MJIT3.0)"/>
<line x1="604.6" y1="220.62346490480155" x2="628.7714285714286" y2="220.62346490480155" stroke="#000"/>
<line x1="604.6" y1="223.2921879529672" x2="628.7714285714286" y2="223.2921879529672" stroke="#000"/>
<line x1="616.6857142857143" y1="220.62346490480155" x2="616.6857142857143" y2="223.2921879529672" stroke="#000"/>
<rect x="628.7714285714285" y="233.1357951295462" width="24.171428571428574" height="264.86420487045376" fill="green" data-tooltip="1.01x baseline speed (MJIT)"/>
<line x1="628.7714285714285" y1="227.0589874153875" x2="652.9428571428572" y2="227.0589874153875" stroke="#000"/>
<line x1="628.7714285714285" y1="239.21260284370493" x2="652.9428571428572" y2="239.21260284370493" stroke="#000"/>
<line x1="640.8571428571428" y1="227.0589874153875" x2="640.8571428571428" y2="239.21260284370493" stroke="#000"/>
<rect x="652.9428571428572" y="218.57388377372" width="24.171428571428574" height="279.42611622628" fill="#4F3A7A" data-tooltip="1.07x baseline speed (YJIT)"/>
<line x1="652.9428571428572" y1="212.8678553992951" x2="677.1142857142858" y2="212.8678553992951" stroke="#000"/>
<line x1="652.9428571428572" y1="224.2799121481449" x2="677.1142857142858" y2="224.2799121481449" stroke="#000"/>
<line x1="665.0285714285715" y1="212.8678553992951" x2="665.0285714285715" y2="224.2799121481449" stroke="#000"/>
<line x1="640.8571428571428" y1="498.0" x2="640.8571428571428" y2="502.79999999999995" stroke="#000"/>
<text x="640.8571428571428" y="512.4" fill="#111" font-size="small" font-family="monospace" font-weight="bold" text-anchor="end" transform="rotate(-60, 640.8571428571428, 512.4)">
mail
</text>
<rect x="701.2857142857143" y="236.90702498908766" width="24.171428571428574" height="261.09297501091226" fill="#7070f8" data-tooltip="1.00x baseline speed (No JIT)"/>
<line x1="701.2857142857143" y1="235.14477604688506" x2="725.4571428571429" y2="235.14477604688506" stroke="#000"/>
<line x1="701.2857142857143" y1="238.66927393129026" x2="725.4571428571429" y2="238.66927393129026" stroke="#000"/>
<line x1="713.3714285714285" y1="235.14477604688506" x2="713.3714285714285" y2="238.66927393129026" stroke="#000"/>
<rect x="725.4571428571429" y="213.31203861629223" width="24.171428571428574" height="284.6879613837077" fill="orange" data-tooltip="1.09x baseline speed (MJIT3.0)"/>
<line x1="725.4571428571429" y1="209.47619376046887" x2="749.6285714285715" y2="209.47619376046887" stroke="#000"/>
<line x1="725.4571428571429" y1="217.14788347211558" x2="749.6285714285715" y2="217.14788347211558" stroke="#000"/>
<line x1="737.5428571428572" y1="209.47619376046887" x2="737.5428571428572" y2="217.14788347211558" stroke="#000"/>
<rect x="749.6285714285714" y="206.61883335422783" width="24.171428571428574" height="291.38116664577205" fill="green" data-tooltip="1.12x baseline speed (MJIT)"/>
<line x1="749.6285714285714" y1="204.28752928470308" x2="773.8000000000001" y2="204.28752928470308" stroke="#000"/>
<line x1="749.6285714285714" y1="208.95013742375258" x2="773.8000000000001" y2="208.95013742375258" stroke="#000"/>
<line x1="761.7142857142857" y1="204.28752928470308" x2="761.7142857142857" y2="208.95013742375258" stroke="#000"/>
<rect x="773.8000000000001" y="153.09709343921278" width="24.171428571428574" height="344.9029065607872" fill="#4F3A7A" data-tooltip="1.32x baseline speed (YJIT)"/>
<line x1="773.8000000000001" y1="150.4351625905584" x2="797.9714285714286" y2="150.4351625905584" stroke="#000"/>
<line x1="773.8000000000001" y1="155.75902428786713" x2="797.9714285714286" y2="155.75902428786713" stroke="#000"/>
<line x1="785.8857142857142" y1="150.4351625905584" x2="785.8857142857142" y2="155.75902428786713" stroke="#000"/>
<line x1="761.7142857142857" y1="498.0" x2="761.7142857142857" y2="502.79999999999995" stroke="#000"/>
<text x="761.7142857142857" y="512.4" fill="#111" font-size="small" font-family="monospace" font-weight="bold" text-anchor="end" transform="rotate(-60, 761.7142857142857, 512.4)">
psych-load
</text>
<rect x="822.1428571428571" y="236.90702498908766" width="24.171428571428574" height="261.09297501091226" fill="#7070f8" data-tooltip="1.00x baseline speed (No JIT)"/>
<line x1="822.1428571428571" y1="233.33161022923298" x2="846.3142857142857" y2="233.33161022923298" stroke="#000"/>
<line x1="822.1428571428571" y1="240.48243974894237" x2="846.3142857142857" y2="240.48243974894237" stroke="#000"/>
<line x1="834.2285714285713" y1="233.33161022923298" x2="834.2285714285713" y2="240.48243974894237" stroke="#000"/>
<rect x="846.3142857142857" y="239.26166174142415" width="24.171428571428574" height="258.73833825857577" fill="orange" data-tooltip="0.99x baseline speed (MJIT3.0)"/>
<line x1="846.3142857142857" y1="234.92829234960305" x2="870.4857142857143" y2="234.92829234960305" stroke="#000"/>
<line x1="846.3142857142857" y1="243.59503113324527" x2="870.4857142857143" y2="243.59503113324527" stroke="#000"/>
<line x1="858.4" y1="234.92829234960305" x2="858.4" y2="243.59503113324527" stroke="#000"/>
<rect x="870.4857142857142" y="264.38999390414386" width="24.171428571428574" height="233.6100060958561" fill="green" data-tooltip="0.89x baseline speed (MJIT)"/>
<line x1="870.4857142857142" y1="258.65316972052074" x2="894.6571428571428" y2="258.65316972052074" stroke="#000"/>
<line x1="870.4857142857142" y1="270.12681808776694" x2="894.6571428571428" y2="270.12681808776694" stroke="#000"/>
<line x1="882.5714285714284" y1="258.65316972052074" x2="882.5714285714284" y2="270.12681808776694" stroke="#000"/>
<rect x="894.6571428571428" y="177.95213155138111" width="24.171428571428574" height="320.04786844861883" fill="#4F3A7A" data-tooltip="1.23x baseline speed (YJIT)"/>
<line x1="894.6571428571428" y1="171.57793973873342" x2="918.8285714285714" y2="171.57793973873342" stroke="#000"/>
<line x1="894.6571428571428" y1="184.3263233640288" x2="918.8285714285714" y2="184.3263233640288" stroke="#000"/>
<line x1="906.742857142857" y1="171.57793973873342" x2="906.742857142857" y2="184.3263233640288" stroke="#000"/>
<line x1="882.5714285714284" y1="498.0" x2="882.5714285714284" y2="502.79999999999995" stroke="#000"/>
<text x="882.5714285714284" y="512.4" fill="#111" font-size="small" font-family="monospace" font-weight="bold" text-anchor="end" transform="rotate(-60, 882.5714285714284, 512.4)">
railsbench
</text>
</svg>