<svg viewBox="0 0 1000 600" xmlns="http://www.w3.org/2000/svg" xmlns:xlink="http://www.w3.org/1999/xlink" width="100%" height="100%">

<rect x="50.0" y="30.0" width="940.0" height="467.99999999999994" stroke="#000" fill="#EEE"/>
<line x1="42.0" y1="497.9999999999999" x2="50.0" y2="497.9999999999999" stroke="#000"/>
<text x="26.000000000000004" y="497.9999999999999" text-anchor="end" font-weight="bold" font-size="small" fill="#EEE">
0.0
</text>
<line x1="42.0" y1="399.0042334779995" x2="50.0" y2="399.0042334779995" stroke="#000"/>
<text x="26.000000000000004" y="399.0042334779995" text-anchor="end" font-weight="bold" font-size="small" fill="#EEE">
2.0
</text>
<line x1="42.0" y1="300.0084669559991" x2="50.0" y2="300.0084669559991" stroke="#000"/>
<text x="26.000000000000004" y="300.0084669559991" text-anchor="end" font-weight="bold" font-size="small" fill="#EEE">
4.0
</text>
<line x1="42.0" y1="201.01270043399876" x2="50.0" y2="201.01270043399876" stroke="#000"/>
<text x="26.000000000000004" y="201.01270043399876" text-anchor="end" font-weight="bold" font-size="small" fill="#EEE">
6.0
</text>
<line x1="42.0" y1="102.01693391199834" x2="50.0" y2="102.01693391199834" stroke="#000"/>
<text x="26.000000000000004" y="102.01693391199834" text-anchor="end" font-weight="bold" font-size="small" fill="#EEE">
8.0
</text>
<rect x="197.99999999999997" y="36.00000000000001" width="80.0" height="18.0" fill="#7070f8" stroke="#888"/>
<text x="238.0" y="52.50000000000001" font-size="small" text-anchor="middle" font-weight="bold" fill="#111">
No JIT
</text>
<rect x="479.99999999999994" y="36.00000000000001" width="80.0" height="18.0" fill="orange" stroke="#888"/>
<text x="519.9999999999999" y="52.50000000000001" font-size="small" text-anchor="middle" font-weight="bold" fill="#111">
MJIT3.0
</text>
<rect x="761.9999999999999" y="36.00000000000001" width="80.0" height="18.0" fill="green" stroke="#888"/>
<text x="801.9999999999999" y="52.50000000000001" font-size="small" text-anchor="middle" font-weight="bold" fill="#111">
YJIT
</text>
<rect x="97.0" y="448.5021167389997" width="10.071428571428571" height="49.497883261000204" fill="#7070f8" data-tooltip="1.00x baseline speed (No JIT)"/>
<line x1="97.0" y1="448.11390431738926" x2="107.07142857142857" y2="448.11390431738926" stroke="#000"/>
<line x1="97.0" y1="448.8903291606102" x2="107.07142857142857" y2="448.8903291606102" stroke="#000"/>
<line x1="102.03571428571429" y1="448.11390431738926" x2="102.03571428571429" y2="448.8903291606102" stroke="#000"/>
<rect x="107.07142857142857" y="452.97217239445683" width="10.071428571428571" height="45.02782760554304" fill="orange" data-tooltip="0.91x baseline speed (MJIT3.0)"/>
<line x1="107.07142857142857" y1="452.50565792125656" x2="117.14285714285714" y2="452.50565792125656" stroke="#000"/>
<line x1="107.07142857142857" y1="453.43868686765717" x2="117.14285714285714" y2="453.43868686765717" stroke="#000"/>
<line x1="112.10714285714285" y1="452.50565792125656" x2="112.10714285714285" y2="453.43868686765717" stroke="#000"/>
<rect x="117.14285714285714" y="429.8472660861125" width="10.071428571428571" height="68.15273391388742" fill="green" data-tooltip="1.38x baseline speed (YJIT)"/>
<line x1="117.14285714285714" y1="429.23701848697476" x2="127.21428571428572" y2="429.23701848697476" stroke="#000"/>
<line x1="117.14285714285714" y1="430.4575136852502" x2="127.21428571428572" y2="430.4575136852502" stroke="#000"/>
<line x1="122.17857142857143" y1="429.23701848697476" x2="122.17857142857143" y2="430.4575136852502" stroke="#000"/>
<line x1="117.14285714285714" y1="498.0" x2="117.14285714285714" y2="502.79999999999995" stroke="#000"/>
<text x="117.14285714285714" y="512.4" fill="#111" font-size="small" font-family="monospace" font-weight="bold" text-anchor="end" transform="rotate(-60, 117.14285714285714, 512.4)">
activerecord
</text>
<rect x="137.28571428571428" y="448.5021167389997" width="10.071428571428571" height="49.497883261000204" fill="#7070f8" data-tooltip="1.00x baseline speed (No JIT)"/>
<line x1="137.28571428571428" y1="448.0811327398879" x2="147.35714285714286" y2="448.0811327398879" stroke="#000"/>
<line x1="137.28571428571428" y1="448.92310073811154" x2="147.35714285714286" y2="448.92310073811154" stroke="#000"/>
<line x1="142.32142857142858" y1="448.0811327398879" x2="142.32142857142858" y2="448.92310073811154" stroke="#000"/>
<rect x="147.35714285714286" y="443.36416055776675" width="10.071428571428571" height="54.63583944223318" fill="orange" data-tooltip="1.10x baseline speed (MJIT3.0)"/>
<line x1="147.35714285714286" y1="442.5384186900667" x2="157.42857142857142" y2="442.5384186900667" stroke="#000"/>
<line x1="147.35714285714286" y1="444.18990242546687" x2="157.42857142857142" y2="444.18990242546687" stroke="#000"/>
<line x1="152.39285714285714" y1="442.5384186900667" x2="152.39285714285714" y2="444.18990242546687" stroke="#000"/>
<rect x="157.42857142857142" y="433.7942897388067" width="10.071428571428571" height="64.20571026119332" fill="green" data-tooltip="1.30x baseline speed (YJIT)"/>
<line x1="157.42857142857142" y1="432.49916548168466" x2="167.49999999999997" y2="432.49916548168466" stroke="#000"/>
<line x1="157.42857142857142" y1="435.0894139959287" x2="167.49999999999997" y2="435.0894139959287" stroke="#000"/>
<line x1="162.4642857142857" y1="432.49916548168466" x2="162.4642857142857" y2="435.0894139959287" stroke="#000"/>
<line x1="157.42857142857142" y1="498.0" x2="157.42857142857142" y2="502.79999999999995" stroke="#000"/>
<text x="157.42857142857142" y="512.4" fill="#111" font-size="small" font-family="monospace" font-weight="bold" text-anchor="end" transform="rotate(-60, 157.42857142857142, 512.4)">
hexapdf
</text>
<rect x="177.57142857142858" y="448.5021167389997" width="10.071428571428571" height="49.497883261000204" fill="#7070f8" data-tooltip="1.00x baseline speed (No JIT)"/>
<line x1="177.57142857142858" y1="447.51251951894324" x2="187.64285714285714" y2="447.51251951894324" stroke="#000"/>
<line x1="177.57142857142858" y1="449.4917139590562" x2="187.64285714285714" y2="449.4917139590562" stroke="#000"/>
<line x1="182.60714285714286" y1="447.51251951894324" x2="182.60714285714286" y2="449.4917139590562" stroke="#000"/>
<rect x="187.64285714285714" y="445.0508359306982" width="10.071428571428571" height="52.94916406930171" fill="orange" data-tooltip="1.07x baseline speed (MJIT3.0)"/>
<line x1="187.64285714285714" y1="443.48733095380726" x2="197.7142857142857" y2="443.48733095380726" stroke="#000"/>
<line x1="187.64285714285714" y1="446.61434090758917" x2="197.7142857142857" y2="446.61434090758917" stroke="#000"/>
<line x1="192.67857142857142" y1="443.48733095380726" x2="192.67857142857142" y2="446.61434090758917" stroke="#000"/>
<rect x="197.71428571428572" y="441.4552082107854" width="10.071428571428571" height="56.54479178921447" fill="green" data-tooltip="1.14x baseline speed (YJIT)"/>
<line x1="197.71428571428572" y1="439.8109014361862" x2="207.7857142857143" y2="439.8109014361862" stroke="#000"/>
<line x1="197.71428571428572" y1="443.09951498538453" x2="207.7857142857143" y2="443.09951498538453" stroke="#000"/>
<line x1="202.75" y1="439.8109014361862" x2="202.75" y2="443.09951498538453" stroke="#000"/>
<line x1="197.71428571428572" y1="498.0" x2="197.71428571428572" y2="502.79999999999995" stroke="#000"/>
<text x="197.71428571428572" y="512.4" fill="#111" font-size="small" font-family="monospace" font-weight="bold" text-anchor="end" transform="rotate(-60, 197.71428571428572, 512.4)">
jekyll
</text>
<rect x="217.85714285714286" y="448.5021167389997" width="10.071428571428571" height="49.497883261000204" fill="#7070f8" data-tooltip="1.00x baseline speed (No JIT)"/>
<line x1="217.85714285714286" y1="447.8871990053739" x2="227.92857142857142" y2="447.8871990053739" stroke="#000"/>
<line x1="217.85714285714286" y1="449.11703447262556" x2="227.92857142857142" y2="449.11703447262556" stroke="#000"/>
<line x1="222.89285714285714" y1="447.8871990053739" x2="222.89285714285714" y2="449.11703447262556" stroke="#000"/>
<rect x="227.92857142857142" y="446.3648153501826" width="10.071428571428571" height="51.63518464981739" fill="orange" data-tooltip="1.04x baseline speed (MJIT3.0)"/>
<line x1="227.92857142857142" y1="444.7900588956446" x2="238.0" y2="444.7900588956446" stroke="#000"/>
<line x1="227.92857142857142" y1="447.9395718047206" x2="238.0" y2="447.9395718047206" stroke="#000"/>
<line x1="232.9642857142857" y1="444.7900588956446" x2="232.9642857142857" y2="447.9395718047206" stroke="#000"/>
<rect x="238.0" y="425.13352611408794" width="10.071428571428571" height="72.86647388591204" fill="green" data-tooltip="1.47x baseline speed (YJIT)"/>
<line x1="238.0" y1="423.4283966260142" x2="248.07142857142856" y2="423.4283966260142" stroke="#000"/>
<line x1="238.0" y1="426.8386556021616" x2="248.07142857142856" y2="426.8386556021616" stroke="#000"/>
<line x1="243.03571428571428" y1="423.4283966260142" x2="243.03571428571428" y2="426.8386556021616" stroke="#000"/>
<line x1="238.0" y1="498.0" x2="238.0" y2="502.79999999999995" stroke="#000"/>
<text x="238.0" y="512.4" fill="#111" font-size="small" font-family="monospace" font-weight="bold" text-anchor="end" transform="rotate(-60, 238.0, 512.4)">
liquid-render
</text>
<rect x="258.1428571428571" y="448.5021167389997" width="10.071428571428571" height="49.497883261000204" fill="#7070f8" data-tooltip="1.00x baseline speed (No JIT)"/>
<line x1="258.1428571428571" y1="448.42301840244426" x2="268.21428571428567" y2="448.42301840244426" stroke="#000"/>
<line x1="258.1428571428571" y1="448.5812150755552" x2="268.21428571428567" y2="448.5812150755552" stroke="#000"/>
<line x1="263.17857142857144" y1="448.42301840244426" x2="263.17857142857144" y2="448.5812150755552" stroke="#000"/>
<rect x="268.21428571428567" y="445.33259883331885" width="10.071428571428571" height="52.667401166681074" fill="orange" data-tooltip="1.06x baseline speed (MJIT3.0)"/>
<line x1="268.21428571428567" y1="444.9914753443498" x2="278.2857142857142" y2="444.9914753443498" stroke="#000"/>
<line x1="268.21428571428567" y1="445.673722322288" x2="278.2857142857142" y2="445.673722322288" stroke="#000"/>
<line x1="273.25" y1="444.9914753443498" x2="273.25" y2="445.673722322288" stroke="#000"/>
<rect x="278.2857142857142" y="442.4015719913073" width="10.071428571428571" height="55.59842800869266" fill="green" data-tooltip="1.12x baseline speed (YJIT)"/>
<line x1="278.2857142857142" y1="442.2562084002668" x2="288.35714285714283" y2="442.2562084002668" stroke="#000"/>
<line x1="278.2857142857142" y1="442.54693558234777" x2="288.35714285714283" y2="442.54693558234777" stroke="#000"/>
<line x1="283.32142857142856" y1="442.2562084002668" x2="283.32142857142856" y2="442.54693558234777" stroke="#000"/>
<line x1="278.2857142857142" y1="498.0" x2="278.2857142857142" y2="502.79999999999995" stroke="#000"/>
<text x="278.2857142857142" y="512.4" fill="#111" font-size="small" font-family="monospace" font-weight="bold" text-anchor="end" transform="rotate(-60, 278.2857142857142, 512.4)">
mail
</text>
<rect x="298.42857142857144" y="448.5021167389997" width="10.071428571428571" height="49.497883261000204" fill="#7070f8" data-tooltip="1.00x baseline speed (No JIT)"/>
<line x1="298.42857142857144" y1="448.4263048088107" x2="308.5" y2="448.4263048088107" stroke="#000"/>
<line x1="298.42857142857144" y1="448.57792866918874" x2="308.5" y2="448.57792866918874" stroke="#000"/>
<line x1="303.4642857142857" y1="448.4263048088107" x2="303.4642857142857" y2="448.57792866918874" stroke="#000"/>
<rect x="308.5" y="445.5168551098755" width="10.071428571428571" height="52.48314489012437" fill="orange" data-tooltip="1.06x baseline speed (MJIT3.0)"/>
<line x1="308.5" y1="444.44345440179455" x2="318.57142857142856" y2="444.44345440179455" stroke="#000"/>
<line x1="308.5" y1="446.59025581795646" x2="318.57142857142856" y2="446.59025581795646" stroke="#000"/>
<line x1="313.53571428571433" y1="444.44345440179455" x2="313.53571428571433" y2="446.59025581795646" stroke="#000"/>
<rect x="318.57142857142856" y="432.0234180850731" width="10.071428571428571" height="65.97658191492685" fill="green" data-tooltip="1.33x baseline speed (YJIT)"/>
<line x1="318.57142857142856" y1="431.7286828613961" x2="328.6428571428571" y2="431.7286828613961" stroke="#000"/>
<line x1="318.57142857142856" y1="432.3181533087501" x2="328.6428571428571" y2="432.3181533087501" stroke="#000"/>
<line x1="323.6071428571429" y1="431.7286828613961" x2="323.6071428571429" y2="432.3181533087501" stroke="#000"/>
<line x1="318.57142857142856" y1="498.0" x2="318.57142857142856" y2="502.79999999999995" stroke="#000"/>
<text x="318.57142857142856" y="512.4" fill="#111" font-size="small" font-family="monospace" font-weight="bold" text-anchor="end" transform="rotate(-60, 318.57142857142856, 512.4)">
psych-load
</text>
<rect x="338.7142857142857" y="448.5021167389997" width="10.071428571428571" height="49.497883261000204" fill="#7070f8" data-tooltip="1.00x baseline speed (No JIT)"/>
<line x1="338.7142857142857" y1="448.0896256383368" x2="348.78571428571433" y2="448.0896256383368" stroke="#000"/>
<line x1="338.7142857142857" y1="448.9146078396626" x2="348.78571428571433" y2="448.9146078396626" stroke="#000"/>
<line x1="343.75000000000006" y1="448.0896256383368" x2="343.75000000000006" y2="448.9146078396626" stroke="#000"/>
<rect x="348.78571428571433" y="448.3986096606127" width="10.071428571428571" height="49.60139033938725" fill="orange" data-tooltip="1.00x baseline speed (MJIT3.0)"/>
<line x1="348.78571428571433" y1="447.73019697502116" x2="358.8571428571429" y2="447.73019697502116" stroke="#000"/>
<line x1="348.78571428571433" y1="449.0670223462042" x2="358.8571428571429" y2="449.0670223462042" stroke="#000"/>
<line x1="353.8214285714286" y1="447.73019697502116" x2="353.8214285714286" y2="449.0670223462042" stroke="#000"/>
<rect x="358.8571428571429" y="438.80219991689506" width="10.071428571428571" height="59.19780008310485" fill="green" data-tooltip="1.20x baseline speed (YJIT)"/>
<line x1="358.8571428571429" y1="437.7560432634906" x2="368.92857142857144" y2="437.7560432634906" stroke="#000"/>
<line x1="358.8571428571429" y1="439.8483565702996" x2="368.92857142857144" y2="439.8483565702996" stroke="#000"/>
<line x1="363.89285714285717" y1="437.7560432634906" x2="363.89285714285717" y2="439.8483565702996" stroke="#000"/>
<line x1="358.8571428571429" y1="498.0" x2="358.8571428571429" y2="502.79999999999995" stroke="#000"/>
<text x="358.8571428571429" y="512.4" fill="#111" font-size="small" font-family="monospace" font-weight="bold" text-anchor="end" transform="rotate(-60, 358.8571428571429, 512.4)">
railsbench
</text>
<rect x="379.0" y="448.5021167389997" width="10.071428571428571" height="49.497883261000204" fill="#7070f8" data-tooltip="1.00x baseline speed (No JIT)"/>
<line x1="379.0" y1="448.456419448243" x2="389.07142857142856" y2="448.456419448243" stroke="#000"/>
<line x1="379.0" y1="448.5478140297564" x2="389.07142857142856" y2="448.5478140297564" stroke="#000"/>
<line x1="384.03571428571433" y1="448.456419448243" x2="384.03571428571433" y2="448.5478140297564" stroke="#000"/>
<rect x="389.07142857142856" y="421.10279926987937" width="10.071428571428571" height="76.8972007301206" fill="orange" data-tooltip="1.55x baseline speed (MJIT3.0)"/>
<line x1="389.07142857142856" y1="420.97799096642694" x2="399.1428571428571" y2="420.97799096642694" stroke="#000"/>
<line x1="389.07142857142856" y1="421.22760757333174" x2="399.1428571428571" y2="421.22760757333174" stroke="#000"/>
<line x1="394.1071428571429" y1="420.97799096642694" x2="394.1071428571429" y2="421.22760757333174" stroke="#000"/>
<rect x="399.1428571428571" y="435.8514888931392" width="10.071428571428571" height="62.14851110686074" fill="green" data-tooltip="1.26x baseline speed (YJIT)"/>
<line x1="399.1428571428571" y1="434.2417842162363" x2="409.2142857142857" y2="434.2417842162363" stroke="#000"/>
<line x1="399.1428571428571" y1="437.4611935700421" x2="409.2142857142857" y2="437.4611935700421" stroke="#000"/>
<line x1="404.17857142857144" y1="434.2417842162363" x2="404.17857142857144" y2="437.4611935700421" stroke="#000"/>
<line x1="399.1428571428571" y1="498.0" x2="399.1428571428571" y2="502.79999999999995" stroke="#000"/>
<text x="399.1428571428571" y="512.4" fill="#111" font-size="small" font-family="monospace" font-weight="bold" text-anchor="end" transform="rotate(-60, 399.1428571428571, 512.4)">
binarytrees
</text>
<rect x="419.2857142857143" y="448.5021167389997" width="10.071428571428571" height="49.497883261000204" fill="#7070f8" data-tooltip="1.00x baseline speed (No JIT)"/>
<line x1="419.2857142857143" y1="448.3441270787871" x2="429.35714285714283" y2="448.3441270787871" stroke="#000"/>
<line x1="419.2857142857143" y1="448.66010639921234" x2="429.35714285714283" y2="448.66010639921234" stroke="#000"/>
<line x1="424.32142857142856" y1="448.3441270787871" x2="424.32142857142856" y2="448.66010639921234" stroke="#000"/>
<rect x="429.35714285714283" y="427.27069639647306" width="10.071428571428571" height="70.72930360352687" fill="orange" data-tooltip="1.43x baseline speed (MJIT3.0)"/>
<line x1="429.35714285714283" y1="426.16076919747485" x2="439.4285714285714" y2="426.16076919747485" stroke="#000"/>
<line x1="429.35714285714283" y1="428.38062359547126" x2="439.4285714285714" y2="428.38062359547126" stroke="#000"/>
<line x1="434.3928571428571" y1="426.16076919747485" x2="434.3928571428571" y2="428.38062359547126" stroke="#000"/>
<rect x="439.4285714285714" y="448.4588718735286" width="10.071428571428571" height="49.54112812647136" fill="green" data-tooltip="1.00x baseline speed (YJIT)"/>
<line x1="439.4285714285714" y1="448.28832556601293" x2="449.49999999999994" y2="448.28832556601293" stroke="#000"/>
<line x1="439.4285714285714" y1="448.6294181810443" x2="449.49999999999994" y2="448.6294181810443" stroke="#000"/>
<line x1="444.4642857142857" y1="448.28832556601293" x2="444.4642857142857" y2="448.6294181810443" stroke="#000"/>
<line x1="439.4285714285714" y1="498.0" x2="439.4285714285714" y2="502.79999999999995" stroke="#000"/>
<text x="439.4285714285714" y="512.4" fill="#111" font-size="small" font-family="monospace" font-weight="bold" text-anchor="end" transform="rotate(-60, 439.4285714285714, 512.4)">
fannkuchredux
</text>
<rect x="459.5714285714285" y="448.5021167389997" width="10.071428571428571" height="49.497883261000204" fill="#7070f8" data-tooltip="1.00x baseline speed (No JIT)"/>
<line x1="459.5714285714285" y1="448.0148096805117" x2="469.6428571428571" y2="448.0148096805117" stroke="#000"/>
<line x1="459.5714285714285" y1="448.98942379748775" x2="469.6428571428571" y2="448.98942379748775" stroke="#000"/>
<line x1="464.60714285714283" y1="448.0148096805117" x2="464.60714285714283" y2="448.98942379748775" stroke="#000"/>
<rect x="469.6428571428571" y="438.343292600789" width="10.071428571428571" height="59.656707399210966" fill="orange" data-tooltip="1.21x baseline speed (MJIT3.0)"/>
<line x1="469.6428571428571" y1="437.7464774331428" x2="479.71428571428567" y2="437.7464774331428" stroke="#000"/>
<line x1="469.6428571428571" y1="438.94010776843527" x2="479.71428571428567" y2="438.94010776843527" stroke="#000"/>
<line x1="474.6785714285714" y1="437.7464774331428" x2="474.6785714285714" y2="438.94010776843527" stroke="#000"/>
<rect x="479.71428571428567" y="430.4187762926857" width="10.071428571428571" height="67.58122370731417" fill="green" data-tooltip="1.37x baseline speed (YJIT)"/>
<line x1="479.71428571428567" y1="429.2736600234106" x2="489.7857142857142" y2="429.2736600234106" stroke="#000"/>
<line x1="479.71428571428567" y1="431.56389256196087" x2="489.7857142857142" y2="431.56389256196087" stroke="#000"/>
<line x1="484.74999999999994" y1="429.2736600234106" x2="484.74999999999994" y2="431.56389256196087" stroke="#000"/>
<line x1="479.71428571428567" y1="498.0" x2="479.71428571428567" y2="502.79999999999995" stroke="#000"/>
<text x="479.71428571428567" y="512.4" fill="#111" font-size="small" font-family="monospace" font-weight="bold" text-anchor="end" transform="rotate(-60, 479.71428571428567, 512.4)">
lee
</text>
<rect x="499.8571428571429" y="448.5021167389997" width="10.071428571428571" height="49.497883261000204" fill="#7070f8" data-tooltip="1.00x baseline speed (No JIT)"/>
<line x1="499.8571428571429" y1="448.46732511479286" x2="509.9285714285715" y2="448.46732511479286" stroke="#000"/>
<line x1="499.8571428571429" y1="448.5369083632066" x2="509.9285714285715" y2="448.5369083632066" stroke="#000"/>
<line x1="504.89285714285717" y1="448.46732511479286" x2="504.89285714285717" y2="448.5369083632066" stroke="#000"/>
<rect x="509.9285714285715" y="406.44653000185474" width="10.071428571428571" height="91.55346999814526" fill="orange" data-tooltip="1.85x baseline speed (MJIT3.0)"/>
<line x1="509.9285714285715" y1="405.6257875206244" x2="520.0000000000001" y2="405.6257875206244" stroke="#000"/>
<line x1="509.9285714285715" y1="407.26727248308504" x2="520.0000000000001" y2="407.26727248308504" stroke="#000"/>
<line x1="514.9642857142858" y1="405.6257875206244" x2="514.9642857142858" y2="407.26727248308504" stroke="#000"/>
<rect x="520.0" y="422.90102128447677" width="10.071428571428571" height="75.09897871552322" fill="green" data-tooltip="1.52x baseline speed (YJIT)"/>
<line x1="520.0" y1="422.83411665129177" x2="530.0714285714287" y2="422.83411665129177" stroke="#000"/>
<line x1="520.0" y1="422.9679259176618" x2="530.0714285714287" y2="422.9679259176618" stroke="#000"/>
<line x1="525.0357142857142" y1="422.83411665129177" x2="525.0357142857142" y2="422.9679259176618" stroke="#000"/>
<line x1="520.0" y1="498.0" x2="520.0" y2="502.79999999999995" stroke="#000"/>
<text x="520.0" y="512.4" fill="#111" font-size="small" font-family="monospace" font-weight="bold" text-anchor="end" transform="rotate(-60, 520.0, 512.4)">
nbody
</text>
<rect x="540.1428571428571" y="448.5021167389997" width="10.071428571428571" height="49.497883261000204" fill="#7070f8" data-tooltip="1.00x baseline speed (No JIT)"/>
<line x1="540.1428571428571" y1="448.1988823739166" x2="550.2142857142858" y2="448.1988823739166" stroke="#000"/>
<line x1="540.1428571428571" y1="448.80535110408283" x2="550.2142857142858" y2="448.80535110408283" stroke="#000"/>
<line x1="545.1785714285714" y1="448.1988823739166" x2="545.1785714285714" y2="448.80535110408283" stroke="#000"/>
<rect x="550.2142857142858" y="387.45331241052867" width="10.071428571428571" height="110.54668758947123" fill="orange" data-tooltip="2.23x baseline speed (MJIT3.0)"/>
<line x1="550.2142857142858" y1="386.54640493872427" x2="560.2857142857143" y2="386.54640493872427" stroke="#000"/>
<line x1="550.2142857142858" y1="388.3602198823331" x2="560.2857142857143" y2="388.3602198823331" stroke="#000"/>
<line x1="555.25" y1="386.54640493872427" x2="555.25" y2="388.3602198823331" stroke="#000"/>
<rect x="560.2857142857142" y="421.8198939649017" width="10.071428571428571" height="76.18010603509819" fill="green" data-tooltip="1.54x baseline speed (YJIT)"/>
<line x1="560.2857142857142" y1="421.22876590456013" x2="570.3571428571429" y2="421.22876590456013" stroke="#000"/>
<line x1="560.2857142857142" y1="422.41102202524337" x2="570.3571428571429" y2="422.41102202524337" stroke="#000"/>
<line x1="565.3214285714286" y1="421.22876590456013" x2="565.3214285714286" y2="422.41102202524337" stroke="#000"/>
<line x1="560.2857142857142" y1="498.0" x2="560.2857142857142" y2="502.79999999999995" stroke="#000"/>
<text x="560.2857142857142" y="512.4" fill="#111" font-size="small" font-family="monospace" font-weight="bold" text-anchor="end" transform="rotate(-60, 560.2857142857142, 512.4)">
optcarrot
</text>
<rect x="580.4285714285714" y="448.5021167389997" width="10.071428571428571" height="49.497883261000204" fill="#7070f8" data-tooltip="1.00x baseline speed (No JIT)"/>
<line x1="580.4285714285714" y1="448.29053272376854" x2="590.5" y2="448.29053272376854" stroke="#000"/>
<line x1="580.4285714285714" y1="448.7137007542309" x2="590.5" y2="448.7137007542309" stroke="#000"/>
<line x1="585.4642857142857" y1="448.29053272376854" x2="585.4642857142857" y2="448.7137007542309" stroke="#000"/>
<rect x="590.5" y="419.8432526389554" width="10.071428571428571" height="78.15674736104454" fill="orange" data-tooltip="1.58x baseline speed (MJIT3.0)"/>
<line x1="590.5" y1="419.21184596029326" x2="600.5714285714287" y2="419.21184596029326" stroke="#000"/>
<line x1="590.5" y1="420.47465931761747" x2="600.5714285714287" y2="420.47465931761747" stroke="#000"/>
<line x1="595.5357142857143" y1="419.21184596029326" x2="595.5357142857143" y2="420.47465931761747" stroke="#000"/>
<rect x="600.5714285714286" y="408.72862863805943" width="10.071428571428571" height="89.27137136194058" fill="green" data-tooltip="1.80x baseline speed (YJIT)"/>
<line x1="600.5714285714286" y1="407.9333304201616" x2="610.6428571428571" y2="407.9333304201616" stroke="#000"/>
<line x1="600.5714285714286" y1="409.5239268559572" x2="610.6428571428571" y2="409.5239268559572" stroke="#000"/>
<line x1="605.6071428571428" y1="407.9333304201616" x2="605.6071428571428" y2="409.5239268559572" stroke="#000"/>
<line x1="600.5714285714286" y1="498.0" x2="600.5714285714286" y2="502.79999999999995" stroke="#000"/>
<text x="600.5714285714286" y="512.4" fill="#111" font-size="small" font-family="monospace" font-weight="bold" text-anchor="end" transform="rotate(-60, 600.5714285714286, 512.4)">
rubykon
</text>
<rect x="620.7142857142857" y="448.5021167389997" width="10.071428571428571" height="49.497883261000204" fill="#7070f8" data-tooltip="1.00x baseline speed (No JIT)"/>
<line x1="620.7142857142857" y1="448.4608780735543" x2="630.7857142857143" y2="448.4608780735543" stroke="#000"/>
<line x1="620.7142857142857" y1="448.5433554044451" x2="630.7857142857143" y2="448.5433554044451" stroke="#000"/>
<line x1="625.7499999999999" y1="448.4608780735543" x2="625.7499999999999" y2="448.5433554044451" stroke="#000"/>
<rect x="630.7857142857143" y="450.39891787582394" width="10.071428571428571" height="47.60108212417595" fill="orange" data-tooltip="0.96x baseline speed (MJIT3.0)"/>
<line x1="630.7857142857143" y1="450.15637580731465" x2="640.8571428571429" y2="450.15637580731465" stroke="#000"/>
<line x1="630.7857142857143" y1="450.6414599443333" x2="640.8571428571429" y2="450.6414599443333" stroke="#000"/>
<line x1="635.8214285714286" y1="450.15637580731465" x2="635.8214285714286" y2="450.6414599443333" stroke="#000"/>
<rect x="640.8571428571428" y="164.60364581424653" width="10.071428571428571" height="333.3963541857534" fill="green" data-tooltip="6.74x baseline speed (YJIT)"/>
<line x1="640.8571428571428" y1="164.09311769858468" x2="650.9285714285714" y2="164.09311769858468" stroke="#000"/>
<line x1="640.8571428571428" y1="165.11417392990836" x2="650.9285714285714" y2="165.11417392990836" stroke="#000"/>
<line x1="645.892857142857" y1="164.09311769858468" x2="645.892857142857" y2="165.11417392990836" stroke="#000"/>
<line x1="640.8571428571428" y1="498.0" x2="640.8571428571428" y2="502.79999999999995" stroke="#000"/>
<text x="640.8571428571428" y="512.4" fill="#111" font-size="small" font-family="monospace" font-weight="bold" text-anchor="end" transform="rotate(-60, 640.8571428571428, 512.4)">
30k_ifelse
</text>
<rect x="661.0" y="448.5021167389997" width="10.071428571428571" height="49.497883261000204" fill="#7070f8" data-tooltip="1.00x baseline speed (No JIT)"/>
<line x1="661.0" y1="448.48396834781164" x2="671.0714285714287" y2="448.48396834781164" stroke="#000"/>
<line x1="661.0" y1="448.5202651301878" x2="671.0714285714287" y2="448.5202651301878" stroke="#000"/>
<line x1="666.0357142857143" y1="448.48396834781164" x2="666.0357142857143" y2="448.5202651301878" stroke="#000"/>
<rect x="671.0714285714287" y="446.5867431576742" width="10.071428571428571" height="51.41325684232577" fill="orange" data-tooltip="1.04x baseline speed (MJIT3.0)"/>
<line x1="671.0714285714287" y1="446.52919728788316" x2="681.1428571428572" y2="446.52919728788316" stroke="#000"/>
<line x1="671.0714285714287" y1="446.6442890274653" x2="681.1428571428572" y2="446.6442890274653" stroke="#000"/>
<line x1="676.1071428571429" y1="446.52919728788316" x2="676.1071428571429" y2="446.6442890274653" stroke="#000"/>
<rect x="681.1428571428571" y="100.19999999999999" width="10.071428571428571" height="397.79999999999995" fill="green" data-tooltip="8.04x baseline speed (YJIT)"/>
<line x1="681.1428571428571" y1="100.03035136921268" x2="691.2142857142858" y2="100.03035136921268" stroke="#000"/>
<line x1="681.1428571428571" y1="100.3696486307873" x2="691.2142857142858" y2="100.3696486307873" stroke="#000"/>
<line x1="686.1785714285714" y1="100.03035136921268" x2="686.1785714285714" y2="100.3696486307873" stroke="#000"/>
<line x1="681.1428571428571" y1="498.0" x2="681.1428571428571" y2="502.79999999999995" stroke="#000"/>
<text x="681.1428571428571" y="512.4" fill="#111" font-size="small" font-family="monospace" font-weight="bold" text-anchor="end" transform="rotate(-60, 681.1428571428571, 512.4)">
30k_methods
</text>
<rect x="701.2857142857143" y="448.5021167389997" width="10.071428571428571" height="49.497883261000204" fill="#7070f8" data-tooltip="1.00x baseline speed (No JIT)"/>
<line x1="701.2857142857143" y1="448.4500875798632" x2="711.3571428571429" y2="448.4500875798632" stroke="#000"/>
<line x1="701.2857142857143" y1="448.5541458981362" x2="711.3571428571429" y2="448.5541458981362" stroke="#000"/>
<line x1="706.3214285714286" y1="448.4500875798632" x2="706.3214285714286" y2="448.5541458981362" stroke="#000"/>
<rect x="711.3571428571429" y="425.4676145796651" width="10.071428571428571" height="72.53238542033483" fill="orange" data-tooltip="1.47x baseline speed (MJIT3.0)"/>
<line x1="711.3571428571429" y1="425.3431407431501" x2="721.4285714285716" y2="425.3431407431501" stroke="#000"/>
<line x1="711.3571428571429" y1="425.5920884161801" x2="721.4285714285716" y2="425.5920884161801" stroke="#000"/>
<line x1="716.3928571428571" y1="425.3431407431501" x2="716.3928571428571" y2="425.5920884161801" stroke="#000"/>
<rect x="721.4285714285714" y="383.10358415030254" width="10.071428571428571" height="114.89641584969743" fill="green" data-tooltip="2.32x baseline speed (YJIT)"/>
<line x1="721.4285714285714" y1="382.80248926011683" x2="731.5" y2="382.80248926011683" stroke="#000"/>
<line x1="721.4285714285714" y1="383.4046790404882" x2="731.5" y2="383.4046790404882" stroke="#000"/>
<line x1="726.4642857142857" y1="382.80248926011683" x2="726.4642857142857" y2="383.4046790404882" stroke="#000"/>
<line x1="721.4285714285714" y1="498.0" x2="721.4285714285714" y2="502.79999999999995" stroke="#000"/>
<text x="721.4285714285714" y="512.4" fill="#111" font-size="small" font-family="monospace" font-weight="bold" text-anchor="end" transform="rotate(-60, 721.4285714285714, 512.4)">
cfunc_itself
</text>
<rect x="741.5714285714286" y="448.5021167389997" width="10.071428571428571" height="49.497883261000204" fill="#7070f8" data-tooltip="1.00x baseline speed (No JIT)"/>
<line x1="741.5714285714286" y1="448.48860424296544" x2="751.6428571428572" y2="448.48860424296544" stroke="#000"/>
<line x1="741.5714285714286" y1="448.515629235034" x2="751.6428571428572" y2="448.515629235034" stroke="#000"/>
<line x1="746.6071428571428" y1="448.48860424296544" x2="746.6071428571428" y2="448.515629235034" stroke="#000"/>
<rect x="751.6428571428572" y="327.45651901884287" width="10.071428571428571" height="170.5434809811571" fill="orange" data-tooltip="3.45x baseline speed (MJIT3.0)"/>
<line x1="751.6428571428572" y1="327.35717144246706" x2="761.7142857142858" y2="327.35717144246706" stroke="#000"/>
<line x1="751.6428571428572" y1="327.5558665952187" x2="761.7142857142858" y2="327.5558665952187" stroke="#000"/>
<line x1="756.6785714285714" y1="327.35717144246706" x2="756.6785714285714" y2="327.5558665952187" stroke="#000"/>
<rect x="761.7142857142857" y="301.6721868860119" width="10.071428571428571" height="196.32781311398801" fill="green" data-tooltip="3.97x baseline speed (YJIT)"/>
<line x1="761.7142857142857" y1="301.5943998199753" x2="771.7857142857143" y2="301.5943998199753" stroke="#000"/>
<line x1="761.7142857142857" y1="301.7499739520485" x2="771.7857142857143" y2="301.7499739520485" stroke="#000"/>
<line x1="766.7499999999999" y1="301.5943998199753" x2="766.7499999999999" y2="301.7499739520485" stroke="#000"/>
<line x1="761.7142857142857" y1="498.0" x2="761.7142857142857" y2="502.79999999999995" stroke="#000"/>
<text x="761.7142857142857" y="512.4" fill="#111" font-size="small" font-family="monospace" font-weight="bold" text-anchor="end" transform="rotate(-60, 761.7142857142857, 512.4)">
fib
</text>
<rect x="781.8571428571428" y="448.5021167389997" width="10.071428571428571" height="49.497883261000204" fill="#7070f8" data-tooltip="1.00x baseline speed (No JIT)"/>
<line x1="781.8571428571428" y1="448.38852613575875" x2="791.9285714285714" y2="448.38852613575875" stroke="#000"/>
<line x1="781.8571428571428" y1="448.6157073422407" x2="791.9285714285714" y2="448.6157073422407" stroke="#000"/>
<line x1="786.8928571428571" y1="448.38852613575875" x2="786.8928571428571" y2="448.6157073422407" stroke="#000"/>
<rect x="791.9285714285714" y="445.7433178523384" width="10.071428571428571" height="52.256682147661536" fill="orange" data-tooltip="1.06x baseline speed (MJIT3.0)"/>
<line x1="791.9285714285714" y1="445.5514439874964" x2="802.0" y2="445.5514439874964" stroke="#000"/>
<line x1="791.9285714285714" y1="445.93519171718043" x2="802.0" y2="445.93519171718043" stroke="#000"/>
<line x1="796.9642857142857" y1="445.5514439874964" x2="796.9642857142857" y2="445.93519171718043" stroke="#000"/>
<rect x="801.9999999999999" y="362.2248783978079" width="10.071428571428571" height="135.77512160219203" fill="green" data-tooltip="2.74x baseline speed (YJIT)"/>
<line x1="801.9999999999999" y1="361.9092053617558" x2="812.0714285714286" y2="361.9092053617558" stroke="#000"/>
<line x1="801.9999999999999" y1="362.54055143386" x2="812.0714285714286" y2="362.54055143386" stroke="#000"/>
<line x1="807.0357142857142" y1="361.9092053617558" x2="807.0357142857142" y2="362.54055143386" stroke="#000"/>
<line x1="801.9999999999999" y1="498.0" x2="801.9999999999999" y2="502.79999999999995" stroke="#000"/>
<text x="801.9999999999999" y="512.4" fill="#111" font-size="small" font-family="monospace" font-weight="bold" text-anchor="end" transform="rotate(-60, 801.9999999999999, 512.4)">
getivar
</text>
<rect x="822.1428571428571" y="448.5021167389997" width="10.071428571428571" height="49.497883261000204" fill="#7070f8" data-tooltip="1.00x baseline speed (No JIT)"/>
<line x1="822.1428571428571" y1="448.4545716510473" x2="832.2142857142857" y2="448.4545716510473" stroke="#000"/>
<line x1="822.1428571428571" y1="448.5496618269521" x2="832.2142857142857" y2="448.5496618269521" stroke="#000"/>
<line x1="827.1785714285713" y1="448.4545716510473" x2="827.1785714285713" y2="448.5496618269521" stroke="#000"/>
<rect x="832.2142857142857" y="433.7846780270964" width="10.071428571428571" height="64.2153219729035" fill="orange" data-tooltip="1.30x baseline speed (MJIT3.0)"/>
<line x1="832.2142857142857" y1="433.71526263210546" x2="842.2857142857143" y2="433.71526263210546" stroke="#000"/>
<line x1="832.2142857142857" y1="433.8540934220873" x2="842.2857142857143" y2="433.8540934220873" stroke="#000"/>
<line x1="837.2499999999999" y1="433.71526263210546" x2="837.2499999999999" y2="433.8540934220873" stroke="#000"/>
<rect x="842.2857142857142" y="234.17645570733782" width="10.071428571428571" height="263.8235442926621" fill="green" data-tooltip="5.33x baseline speed (YJIT)"/>
<line x1="842.2857142857142" y1="233.83212252527494" x2="852.3571428571428" y2="233.83212252527494" stroke="#000"/>
<line x1="842.2857142857142" y1="234.52078888940073" x2="852.3571428571428" y2="234.52078888940073" stroke="#000"/>
<line x1="847.3214285714284" y1="233.83212252527494" x2="847.3214285714284" y2="234.52078888940073" stroke="#000"/>
<line x1="842.2857142857142" y1="498.0" x2="842.2857142857142" y2="502.79999999999995" stroke="#000"/>
<text x="842.2857142857142" y="512.4" fill="#111" font-size="small" font-family="monospace" font-weight="bold" text-anchor="end" transform="rotate(-60, 842.2857142857142, 512.4)">
keyword_args
</text>
<rect x="862.4285714285714" y="448.5021167389997" width="10.071428571428571" height="49.497883261000204" fill="#7070f8" data-tooltip="1.00x baseline speed (No JIT)"/>
<line x1="862.4285714285714" y1="448.368439730188" x2="872.5" y2="448.368439730188" stroke="#000"/>
<line x1="862.4285714285714" y1="448.6357937478114" x2="872.5" y2="448.6357937478114" stroke="#000"/>
<line x1="867.4642857142857" y1="448.368439730188" x2="867.4642857142857" y2="448.6357937478114" stroke="#000"/>
<rect x="872.5" y="439.46370470693574" width="10.071428571428571" height="58.5362952930642" fill="orange" data-tooltip="1.18x baseline speed (MJIT3.0)"/>
<line x1="872.5" y1="439.15848152713403" x2="882.5714285714287" y2="439.15848152713403" stroke="#000"/>
<line x1="872.5" y1="439.7689278867374" x2="882.5714285714287" y2="439.7689278867374" stroke="#000"/>
<line x1="877.5357142857143" y1="439.15848152713403" x2="877.5357142857143" y2="439.7689278867374" stroke="#000"/>
<rect x="882.5714285714286" y="426.0226971624853" width="10.071428571428571" height="71.97730283751461" fill="green" data-tooltip="1.45x baseline speed (YJIT)"/>
<line x1="882.5714285714286" y1="425.7775233462148" x2="892.6428571428572" y2="425.7775233462148" stroke="#000"/>
<line x1="882.5714285714286" y1="426.26787097875587" x2="892.6428571428572" y2="426.26787097875587" stroke="#000"/>
<line x1="887.6071428571428" y1="425.7775233462148" x2="887.6071428571428" y2="426.26787097875587" stroke="#000"/>
<line x1="882.5714285714286" y1="498.0" x2="882.5714285714286" y2="502.79999999999995" stroke="#000"/>
<text x="882.5714285714286" y="512.4" fill="#111" font-size="small" font-family="monospace" font-weight="bold" text-anchor="end" transform="rotate(-60, 882.5714285714286, 512.4)">
respond_to
</text>
<rect x="902.7142857142857" y="448.5021167389997" width="10.071428571428571" height="49.497883261000204" fill="#7070f8" data-tooltip="1.00x baseline speed (No JIT)"/>
<line x1="902.7142857142857" y1="448.4732127297891" x2="912.7857142857143" y2="448.4732127297891" stroke="#000"/>
<line x1="902.7142857142857" y1="448.5310207482103" x2="912.7857142857143" y2="448.5310207482103" stroke="#000"/>
<line x1="907.75" y1="448.4732127297891" x2="907.75" y2="448.5310207482103" stroke="#000"/>
<rect x="912.7857142857143" y="449.2934166319892" width="10.071428571428571" height="48.70658336801075" fill="orange" data-tooltip="0.98x baseline speed (MJIT3.0)"/>
<line x1="912.7857142857143" y1="449.0452988205937" x2="922.8571428571429" y2="449.0452988205937" stroke="#000"/>
<line x1="912.7857142857143" y1="449.54153444338476" x2="922.8571428571429" y2="449.54153444338476" stroke="#000"/>
<line x1="917.8214285714286" y1="449.0452988205937" x2="917.8214285714286" y2="449.54153444338476" stroke="#000"/>
<rect x="922.8571428571428" y="423.11916586402344" width="10.071428571428571" height="74.8808341359765" fill="green" data-tooltip="1.51x baseline speed (YJIT)"/>
<line x1="922.8571428571428" y1="422.1618067125788" x2="932.9285714285714" y2="422.1618067125788" stroke="#000"/>
<line x1="922.8571428571428" y1="424.0765250154681" x2="932.9285714285714" y2="424.0765250154681" stroke="#000"/>
<line x1="927.8928571428571" y1="422.1618067125788" x2="927.8928571428571" y2="424.0765250154681" stroke="#000"/>
<line x1="922.8571428571428" y1="498.0" x2="922.8571428571428" y2="502.79999999999995" stroke="#000"/>
<text x="922.8571428571428" y="512.4" fill="#111" font-size="small" font-family="monospace" font-weight="bold" text-anchor="end" transform="rotate(-60, 922.8571428571428, 512.4)">
setivar
</text>
</svg>