<svg viewBox="0 0 1000 600" xmlns="http://www.w3.org/2000/svg" xmlns:xlink="http://www.w3.org/1999/xlink" width="100%" height="100%">

<rect x="50.0" y="30.0" width="940.0" height="467.99999999999994" stroke="#000" fill="#EEE"/>
<line x1="42.0" y1="497.9999999999999" x2="50.0" y2="497.9999999999999" stroke="#000"/>
<text x="26.000000000000004" y="497.9999999999999" text-anchor="end" font-weight="bold" font-size="small" fill="#111">
0.0
</text>
<line x1="42.0" y1="437.36806323472786" x2="50.0" y2="437.36806323472786" stroke="#000"/>
<text x="26.000000000000004" y="437.36806323472786" text-anchor="end" font-weight="bold" font-size="small" fill="#111">
0.5
</text>
<line x1="42.0" y1="376.73612646945577" x2="50.0" y2="376.73612646945577" stroke="#000"/>
<text x="26.000000000000004" y="376.73612646945577" text-anchor="end" font-weight="bold" font-size="small" fill="#111">
1.0
</text>
<line x1="42.0" y1="316.10418970418374" x2="50.0" y2="316.10418970418374" stroke="#000"/>
<text x="26.000000000000004" y="316.10418970418374" text-anchor="end" font-weight="bold" font-size="small" fill="#111">
1.5
</text>
<line x1="42.0" y1="255.47225293891168" x2="50.0" y2="255.47225293891168" stroke="#000"/>
<text x="26.000000000000004" y="255.47225293891168" text-anchor="end" font-weight="bold" font-size="small" fill="#111">
2.0
</text>
<line x1="42.0" y1="194.8403161736396" x2="50.0" y2="194.8403161736396" stroke="#000"/>
<text x="26.000000000000004" y="194.8403161736396" text-anchor="end" font-weight="bold" font-size="small" fill="#111">
2.5
</text>
<line x1="42.0" y1="134.20837940836756" x2="50.0" y2="134.20837940836756" stroke="#000"/>
<text x="26.000000000000004" y="134.20837940836756" text-anchor="end" font-weight="bold" font-size="small" fill="#111">
3.0
</text>
<rect x="268.5" y="36.00000000000001" width="80.0" height="18.0" fill="#7070f8" stroke="#888"/>
<text x="308.5" y="52.50000000000001" font-size="small" text-anchor="middle" font-weight="bold" fill="#EEE">
No JIT
</text>
<rect x="691.4999999999999" y="36.00000000000001" width="80.0" height="18.0" fill="orange" stroke="#888"/>
<text x="731.4999999999999" y="52.50000000000001" font-size="small" text-anchor="middle" font-weight="bold" fill="#EEE">
YJIT
</text>
<rect x="97.0" y="376.73612646945577" width="28.2" height="121.26387353054413" fill="#7070f8" data-tooltip="1.00x baseline speed (No JIT)"/>
<line x1="97.0" y1="376.63577356842353" x2="125.2" y2="376.63577356842353" stroke="#000"/>
<line x1="97.0" y1="376.836479370488" x2="125.2" y2="376.836479370488" stroke="#000"/>
<line x1="111.10000000000001" y1="376.63577356842353" x2="111.10000000000001" y2="376.836479370488" stroke="#000"/>
<rect x="125.2" y="255.59771140424397" width="28.2" height="242.40228859575598" fill="orange" data-tooltip="2.00x baseline speed (YJIT)"/>
<line x1="125.2" y1="255.2296802136231" x2="153.4" y2="255.2296802136231" stroke="#000"/>
<line x1="125.2" y1="255.9657425948648" x2="153.4" y2="255.9657425948648" stroke="#000"/>
<line x1="139.3" y1="255.2296802136231" x2="139.3" y2="255.9657425948648" stroke="#000"/>
<line x1="139.3" y1="498.0" x2="139.3" y2="502.79999999999995" stroke="#000"/>
<text x="139.3" y="512.4" fill="#111" font-size="small" font-family="monospace" font-weight="bold" text-anchor="end" transform="rotate(-60, 139.3, 512.4)">
binarytrees
</text>
<rect x="181.6" y="376.73612646945577" width="28.2" height="121.26387353054413" fill="#7070f8" data-tooltip="1.00x baseline speed (No JIT)"/>
<line x1="181.6" y1="376.4776052198946" x2="209.79999999999998" y2="376.4776052198946" stroke="#000"/>
<line x1="181.6" y1="376.9946477190169" x2="209.79999999999998" y2="376.9946477190169" stroke="#000"/>
<line x1="195.7" y1="376.4776052198946" x2="195.7" y2="376.9946477190169" stroke="#000"/>
<rect x="209.79999999999998" y="309.77000907141036" width="28.2" height="188.22999092858953" fill="orange" data-tooltip="1.55x baseline speed (YJIT)"/>
<line x1="209.79999999999998" y1="309.32732617361233" x2="238.0" y2="309.32732617361233" stroke="#000"/>
<line x1="209.79999999999998" y1="310.2126919692084" x2="238.0" y2="310.2126919692084" stroke="#000"/>
<line x1="223.89999999999998" y1="309.32732617361233" x2="223.89999999999998" y2="310.2126919692084" stroke="#000"/>
<line x1="223.89999999999998" y1="498.0" x2="223.89999999999998" y2="502.79999999999995" stroke="#000"/>
<text x="223.89999999999998" y="512.4" fill="#111" font-size="small" font-family="monospace" font-weight="bold" text-anchor="end" transform="rotate(-60, 223.89999999999998, 512.4)">
chunky_png
</text>
<rect x="266.2" y="376.73612646945577" width="28.2" height="121.26387353054413" fill="#7070f8" data-tooltip="1.00x baseline speed (No JIT)"/>
<line x1="266.2" y1="375.76736258393424" x2="294.4" y2="375.76736258393424" stroke="#000"/>
<line x1="266.2" y1="377.7048903549773" x2="294.4" y2="377.7048903549773" stroke="#000"/>
<line x1="280.3" y1="375.76736258393424" x2="280.3" y2="377.7048903549773" stroke="#000"/>
<rect x="294.4" y="363.4910160827888" width="28.2" height="134.5089839172112" fill="orange" data-tooltip="1.11x baseline speed (YJIT)"/>
<line x1="294.4" y1="361.89013550825166" x2="322.6" y2="361.89013550825166" stroke="#000"/>
<line x1="294.4" y1="365.0918966573259" x2="322.6" y2="365.0918966573259" stroke="#000"/>
<line x1="308.5" y1="361.89013550825166" x2="308.5" y2="365.0918966573259" stroke="#000"/>
<line x1="308.5" y1="498.0" x2="308.5" y2="502.79999999999995" stroke="#000"/>
<text x="308.5" y="512.4" fill="#111" font-size="small" font-family="monospace" font-weight="bold" text-anchor="end" transform="rotate(-60, 308.5, 512.4)">
erubi
</text>
<rect x="350.8" y="376.73612646945577" width="28.2" height="121.26387353054413" fill="#7070f8" data-tooltip="1.00x baseline speed (No JIT)"/>
<line x1="350.8" y1="376.2077416840337" x2="379.0" y2="376.2077416840337" stroke="#000"/>
<line x1="350.8" y1="377.2645112548778" x2="379.0" y2="377.2645112548778" stroke="#000"/>
<line x1="364.9" y1="376.2077416840337" x2="364.9" y2="377.2645112548778" stroke="#000"/>
<rect x="379.0" y="375.0092483980218" width="28.2" height="122.99075160197806" fill="orange" data-tooltip="1.01x baseline speed (YJIT)"/>
<line x1="379.0" y1="374.24516253463077" x2="407.2" y2="374.24516253463077" stroke="#000"/>
<line x1="379.0" y1="375.77333426141286" x2="407.2" y2="375.77333426141286" stroke="#000"/>
<line x1="393.1" y1="374.24516253463077" x2="393.1" y2="375.77333426141286" stroke="#000"/>
<line x1="393.1" y1="498.0" x2="393.1" y2="502.79999999999995" stroke="#000"/>
<text x="393.1" y="512.4" fill="#111" font-size="small" font-family="monospace" font-weight="bold" text-anchor="end" transform="rotate(-60, 393.1, 512.4)">
etanni
</text>
<rect x="435.40000000000003" y="376.73612646945577" width="28.2" height="121.26387353054413" fill="#7070f8" data-tooltip="1.00x baseline speed (No JIT)"/>
<line x1="435.40000000000003" y1="375.2898158489038" x2="463.6" y2="375.2898158489038" stroke="#000"/>
<line x1="435.40000000000003" y1="378.18243709000774" x2="463.6" y2="378.18243709000774" stroke="#000"/>
<line x1="449.5" y1="375.2898158489038" x2="449.5" y2="378.18243709000774" stroke="#000"/>
<rect x="463.6" y="100.19999999999999" width="28.2" height="397.79999999999995" fill="orange" data-tooltip="3.28x baseline speed (YJIT)"/>
<line x1="463.6" y1="95.4427782542362" x2="491.8" y2="95.4427782542362" stroke="#000"/>
<line x1="463.6" y1="104.95722174576377" x2="491.8" y2="104.95722174576377" stroke="#000"/>
<line x1="477.7" y1="95.4427782542362" x2="477.7" y2="104.95722174576377" stroke="#000"/>
<line x1="477.7" y1="498.0" x2="477.7" y2="502.79999999999995" stroke="#000"/>
<text x="477.7" y="512.4" fill="#111" font-size="small" font-family="monospace" font-weight="bold" text-anchor="end" transform="rotate(-60, 477.7, 512.4)">
fannkuchredux
</text>
<rect x="520.0" y="376.73612646945577" width="28.2" height="121.26387353054413" fill="#7070f8" data-tooltip="1.00x baseline speed (No JIT)"/>
<line x1="520.0" y1="376.32476934071155" x2="548.2" y2="376.32476934071155" stroke="#000"/>
<line x1="520.0" y1="377.1474835982" x2="548.2" y2="377.1474835982" stroke="#000"/>
<line x1="534.1" y1="376.32476934071155" x2="534.1" y2="377.1474835982" stroke="#000"/>
<rect x="548.2" y="329.22034571134725" width="28.2" height="168.77965428865272" fill="orange" data-tooltip="1.39x baseline speed (YJIT)"/>
<line x1="548.2" y1="328.54633619888153" x2="576.4" y2="328.54633619888153" stroke="#000"/>
<line x1="548.2" y1="329.89435522381297" x2="576.4" y2="329.89435522381297" stroke="#000"/>
<line x1="562.3000000000001" y1="328.54633619888153" x2="562.3000000000001" y2="329.89435522381297" stroke="#000"/>
<line x1="562.3000000000001" y1="498.0" x2="562.3000000000001" y2="502.79999999999995" stroke="#000"/>
<text x="562.3000000000001" y="512.4" fill="#111" font-size="small" font-family="monospace" font-weight="bold" text-anchor="end" transform="rotate(-60, 562.3000000000001, 512.4)">
lee
</text>
<rect x="604.5999999999999" y="376.73612646945577" width="28.2" height="121.26387353054413" fill="#7070f8" data-tooltip="1.00x baseline speed (No JIT)"/>
<line x1="604.5999999999999" y1="375.63956763383334" x2="632.8" y2="375.63956763383334" stroke="#000"/>
<line x1="604.5999999999999" y1="377.8326853050782" x2="632.8" y2="377.8326853050782" stroke="#000"/>
<line x1="618.6999999999999" y1="375.63956763383334" x2="618.6999999999999" y2="377.8326853050782" stroke="#000"/>
<rect x="632.8" y="298.37641361654175" width="28.2" height="199.62358638345816" fill="orange" data-tooltip="1.65x baseline speed (YJIT)"/>
<line x1="632.8" y1="296.54398115941547" x2="660.9999999999999" y2="296.54398115941547" stroke="#000"/>
<line x1="632.8" y1="300.20884607366804" x2="660.9999999999999" y2="300.20884607366804" stroke="#000"/>
<line x1="646.8999999999999" y1="296.54398115941547" x2="646.8999999999999" y2="300.20884607366804" stroke="#000"/>
<line x1="646.8999999999999" y1="498.0" x2="646.8999999999999" y2="502.79999999999995" stroke="#000"/>
<text x="646.8999999999999" y="512.4" fill="#111" font-size="small" font-family="monospace" font-weight="bold" text-anchor="end" transform="rotate(-60, 646.8999999999999, 512.4)">
nbody
</text>
<rect x="689.1999999999999" y="376.73612646945577" width="28.2" height="121.26387353054413" fill="#7070f8" data-tooltip="1.00x baseline speed (No JIT)"/>
<line x1="689.1999999999999" y1="376.0202695495063" x2="717.4" y2="376.0202695495063" stroke="#000"/>
<line x1="689.1999999999999" y1="377.45198338940526" x2="717.4" y2="377.45198338940526" stroke="#000"/>
<line x1="703.3" y1="376.0202695495063" x2="703.3" y2="377.45198338940526" stroke="#000"/>
<rect x="717.4" y="299.71803602955913" width="28.2" height="198.2819639704408" fill="orange" data-tooltip="1.64x baseline speed (YJIT)"/>
<line x1="717.4" y1="297.95977420440965" x2="745.5999999999999" y2="297.95977420440965" stroke="#000"/>
<line x1="717.4" y1="301.47629785470855" x2="745.5999999999999" y2="301.47629785470855" stroke="#000"/>
<line x1="731.4999999999999" y1="297.95977420440965" x2="731.4999999999999" y2="301.47629785470855" stroke="#000"/>
<line x1="731.4999999999999" y1="498.0" x2="731.4999999999999" y2="502.79999999999995" stroke="#000"/>
<text x="731.4999999999999" y="512.4" fill="#111" font-size="small" font-family="monospace" font-weight="bold" text-anchor="end" transform="rotate(-60, 731.4999999999999, 512.4)">
optcarrot
</text>
<rect x="773.8" y="376.73612646945577" width="28.2" height="121.26387353054413" fill="#7070f8" data-tooltip="1.00x baseline speed (No JIT)"/>
<line x1="773.8" y1="376.42313842281936" x2="801.9999999999999" y2="376.42313842281936" stroke="#000"/>
<line x1="773.8" y1="377.0491145160922" x2="801.9999999999999" y2="377.0491145160922" stroke="#000"/>
<line x1="787.9" y1="376.42313842281936" x2="787.9" y2="377.0491145160922" stroke="#000"/>
<rect x="801.9999999999999" y="350.9138242907195" width="28.2" height="147.08617570928044" fill="orange" data-tooltip="1.21x baseline speed (YJIT)"/>
<line x1="801.9999999999999" y1="350.47891425488916" x2="830.1999999999999" y2="350.47891425488916" stroke="#000"/>
<line x1="801.9999999999999" y1="351.34873432654985" x2="830.1999999999999" y2="351.34873432654985" stroke="#000"/>
<line x1="816.0999999999999" y1="350.47891425488916" x2="816.0999999999999" y2="351.34873432654985" stroke="#000"/>
<line x1="816.0999999999999" y1="498.0" x2="816.0999999999999" y2="502.79999999999995" stroke="#000"/>
<text x="816.0999999999999" y="512.4" fill="#111" font-size="small" font-family="monospace" font-weight="bold" text-anchor="end" transform="rotate(-60, 816.0999999999999, 512.4)">
ruby-json
</text>
<rect x="858.4" y="376.73612646945577" width="28.2" height="121.26387353054413" fill="#7070f8" data-tooltip="1.00x baseline speed (No JIT)"/>
<line x1="858.4" y1="376.2297871053902" x2="886.5999999999999" y2="376.2297871053902" stroke="#000"/>
<line x1="858.4" y1="377.24246583352135" x2="886.5999999999999" y2="377.24246583352135" stroke="#000"/>
<line x1="872.4999999999999" y1="376.2297871053902" x2="872.4999999999999" y2="377.24246583352135" stroke="#000"/>
<rect x="886.5999999999999" y="308.5748138263316" width="28.2" height="189.42518617366832" fill="orange" data-tooltip="1.56x baseline speed (YJIT)"/>
<line x1="886.5999999999999" y1="307.2962556534918" x2="914.8" y2="307.2962556534918" stroke="#000"/>
<line x1="886.5999999999999" y1="309.8533719991714" x2="914.8" y2="309.8533719991714" stroke="#000"/>
<line x1="900.6999999999999" y1="307.2962556534918" x2="900.6999999999999" y2="309.8533719991714" stroke="#000"/>
<line x1="900.6999999999999" y1="498.0" x2="900.6999999999999" y2="502.79999999999995" stroke="#000"/>
<text x="900.6999999999999" y="512.4" fill="#111" font-size="small" font-family="monospace" font-weight="bold" text-anchor="end" transform="rotate(-60, 900.6999999999999, 512.4)">
rubykon
</text>
</svg>