<svg viewBox="0 0 1000 600" xmlns="http://www.w3.org/2000/svg" xmlns:xlink="http://www.w3.org/1999/xlink" width="100%" height="100%">

<rect x="50.0" y="30.0" width="940.0" height="467.99999999999994" stroke="#000" fill="#EEE"/>
<line x1="42.0" y1="497.9999999999999" x2="50.0" y2="497.9999999999999" stroke="#000"/>
<text x="26.000000000000004" y="497.9999999999999" text-anchor="end" font-weight="bold" font-size="small" fill="#111">
0.0
</text>
<line x1="42.0" y1="432.75263897707055" x2="50.0" y2="432.75263897707055" stroke="#000"/>
<text x="26.000000000000004" y="432.75263897707055" text-anchor="end" font-weight="bold" font-size="small" fill="#111">
0.2
</text>
<line x1="42.0" y1="367.5052779541411" x2="50.0" y2="367.5052779541411" stroke="#000"/>
<text x="26.000000000000004" y="367.5052779541411" text-anchor="end" font-weight="bold" font-size="small" fill="#111">
0.4
</text>
<line x1="42.0" y1="302.25791693121164" x2="50.0" y2="302.25791693121164" stroke="#000"/>
<text x="26.000000000000004" y="302.25791693121164" text-anchor="end" font-weight="bold" font-size="small" fill="#111">
0.6
</text>
<line x1="42.0" y1="237.01055590828219" x2="50.0" y2="237.01055590828219" stroke="#000"/>
<text x="26.000000000000004" y="237.01055590828219" text-anchor="end" font-weight="bold" font-size="small" fill="#111">
0.8
</text>
<line x1="42.0" y1="171.76319488535273" x2="50.0" y2="171.76319488535273" stroke="#000"/>
<text x="26.000000000000004" y="171.76319488535273" text-anchor="end" font-weight="bold" font-size="small" fill="#111">
1.0
</text>
<line x1="42.0" y1="106.51583386242335" x2="50.0" y2="106.51583386242335" stroke="#000"/>
<text x="26.000000000000004" y="106.51583386242335" text-anchor="end" font-weight="bold" font-size="small" fill="#111">
1.2
</text>
<rect x="268.5" y="36.00000000000001" width="80.0" height="18.0" fill="#7070f8" stroke="#888"/>
<text x="308.5" y="52.50000000000001" font-size="small" text-anchor="middle" font-weight="bold" fill="#EEE">
No JIT
</text>
<rect x="691.4999999999999" y="36.00000000000001" width="80.0" height="18.0" fill="orange" stroke="#888"/>
<text x="731.4999999999999" y="52.50000000000001" font-size="small" text-anchor="middle" font-weight="bold" fill="#EEE">
YJIT
</text>
<rect x="97.0" y="171.76319488535273" width="46.99999999999999" height="326.23680511464715" fill="#7070f8" data-tooltip="1.00x baseline speed (No JIT)"/>
<line x1="97.0" y1="171.0685283723539" x2="144.0" y2="171.0685283723539" stroke="#000"/>
<line x1="97.0" y1="172.45786139835158" x2="144.0" y2="172.45786139835158" stroke="#000"/>
<line x1="120.5" y1="171.0685283723539" x2="120.5" y2="172.45786139835158" stroke="#000"/>
<rect x="144.0" y="160.58285774763993" width="46.99999999999999" height="337.41714225236" fill="orange" data-tooltip="1.03x baseline speed (YJIT)"/>
<line x1="144.0" y1="159.56959631727761" x2="190.99999999999997" y2="159.56959631727761" stroke="#000"/>
<line x1="144.0" y1="161.59611917800223" x2="190.99999999999997" y2="161.59611917800223" stroke="#000"/>
<line x1="167.49999999999997" y1="159.56959631727761" x2="167.49999999999997" y2="161.59611917800223" stroke="#000"/>
<line x1="167.49999999999997" y1="498.0" x2="167.49999999999997" y2="502.79999999999995" stroke="#000"/>
<text x="167.49999999999997" y="512.4" fill="#111" font-size="small" font-family="monospace" font-weight="bold" text-anchor="end" transform="rotate(-60, 167.49999999999997, 512.4)">
activerecord
</text>
<rect x="238.0" y="171.76319488535273" width="46.99999999999999" height="326.23680511464715" fill="#7070f8" data-tooltip="1.00x baseline speed (No JIT)"/>
<line x1="238.0" y1="169.71147279084053" x2="285.0" y2="169.71147279084053" stroke="#000"/>
<line x1="238.0" y1="173.81491697986493" x2="285.0" y2="173.81491697986493" stroke="#000"/>
<line x1="261.5" y1="169.71147279084053" x2="261.5" y2="173.81491697986493" stroke="#000"/>
<rect x="285.0" y="155.33872071987633" width="46.99999999999999" height="342.6612792801236" fill="orange" data-tooltip="1.05x baseline speed (YJIT)"/>
<line x1="285.0" y1="150.53369578862595" x2="331.99999999999994" y2="150.53369578862595" stroke="#000"/>
<line x1="285.0" y1="160.14374565112675" x2="331.99999999999994" y2="160.14374565112675" stroke="#000"/>
<line x1="308.5" y1="150.53369578862595" x2="308.5" y2="160.14374565112675" stroke="#000"/>
<line x1="308.5" y1="498.0" x2="308.5" y2="502.79999999999995" stroke="#000"/>
<text x="308.5" y="512.4" fill="#111" font-size="small" font-family="monospace" font-weight="bold" text-anchor="end" transform="rotate(-60, 308.5, 512.4)">
hexapdf
</text>
<rect x="379.0" y="171.76319488535273" width="46.99999999999999" height="326.23680511464715" fill="#7070f8" data-tooltip="1.00x baseline speed (No JIT)"/>
<line x1="379.0" y1="168.71156566167517" x2="426.0" y2="168.71156566167517" stroke="#000"/>
<line x1="379.0" y1="174.8148241090303" x2="426.0" y2="174.8148241090303" stroke="#000"/>
<line x1="402.5" y1="168.71156566167517" x2="402.5" y2="174.8148241090303" stroke="#000"/>
<rect x="426.0" y="100.19999999999999" width="46.99999999999999" height="397.79999999999995" fill="orange" data-tooltip="1.22x baseline speed (YJIT)"/>
<line x1="426.0" y1="93.73698248213637" x2="473.0" y2="93.73698248213637" stroke="#000"/>
<line x1="426.0" y1="106.66301751786361" x2="473.0" y2="106.66301751786361" stroke="#000"/>
<line x1="449.5" y1="93.73698248213637" x2="449.5" y2="106.66301751786361" stroke="#000"/>
<line x1="449.5" y1="498.0" x2="449.5" y2="502.79999999999995" stroke="#000"/>
<text x="449.5" y="512.4" fill="#111" font-size="small" font-family="monospace" font-weight="bold" text-anchor="end" transform="rotate(-60, 449.5, 512.4)">
liquid-render
</text>
<rect x="519.9999999999999" y="171.76319488535273" width="46.99999999999999" height="326.23680511464715" fill="#7070f8" data-tooltip="1.00x baseline speed (No JIT)"/>
<line x1="519.9999999999999" y1="171.51228420376268" x2="567.0" y2="171.51228420376268" stroke="#000"/>
<line x1="519.9999999999999" y1="172.01410556694282" x2="567.0" y2="172.01410556694282" stroke="#000"/>
<line x1="543.4999999999999" y1="171.51228420376268" x2="543.4999999999999" y2="172.01410556694282" stroke="#000"/>
<rect x="567.0" y="181.7821997340337" width="46.99999999999999" height="316.2178002659663" fill="orange" data-tooltip="0.97x baseline speed (YJIT)"/>
<line x1="567.0" y1="180.27502129872917" x2="614.0" y2="180.27502129872917" stroke="#000"/>
<line x1="567.0" y1="183.2893781693382" x2="614.0" y2="183.2893781693382" stroke="#000"/>
<line x1="590.4999999999999" y1="180.27502129872917" x2="590.4999999999999" y2="183.2893781693382" stroke="#000"/>
<line x1="590.4999999999999" y1="498.0" x2="590.4999999999999" y2="502.79999999999995" stroke="#000"/>
<text x="590.4999999999999" y="512.4" fill="#111" font-size="small" font-family="monospace" font-weight="bold" text-anchor="end" transform="rotate(-60, 590.4999999999999, 512.4)">
mail
</text>
<rect x="660.9999999999999" y="171.76319488535273" width="46.99999999999999" height="326.23680511464715" fill="#7070f8" data-tooltip="1.00x baseline speed (No JIT)"/>
<line x1="660.9999999999999" y1="171.51389391106053" x2="708.0" y2="171.51389391106053" stroke="#000"/>
<line x1="660.9999999999999" y1="172.01249585964496" x2="708.0" y2="172.01249585964496" stroke="#000"/>
<line x1="684.4999999999999" y1="171.51389391106053" x2="684.4999999999999" y2="172.01249585964496" stroke="#000"/>
<rect x="708.0" y="111.58641545271625" width="46.99999999999999" height="386.4135845472837" fill="orange" data-tooltip="1.18x baseline speed (YJIT)"/>
<line x1="708.0" y1="111.25356272952287" x2="755.0" y2="111.25356272952287" stroke="#000"/>
<line x1="708.0" y1="111.91926817590964" x2="755.0" y2="111.91926817590964" stroke="#000"/>
<line x1="731.4999999999999" y1="111.25356272952287" x2="731.4999999999999" y2="111.91926817590964" stroke="#000"/>
<line x1="731.4999999999999" y1="498.0" x2="731.4999999999999" y2="502.79999999999995" stroke="#000"/>
<text x="731.4999999999999" y="512.4" fill="#111" font-size="small" font-family="monospace" font-weight="bold" text-anchor="end" transform="rotate(-60, 731.4999999999999, 512.4)">
psych-load
</text>
<rect x="801.9999999999999" y="171.76319488535273" width="46.99999999999999" height="326.23680511464715" fill="#7070f8" data-tooltip="1.00x baseline speed (No JIT)"/>
<line x1="801.9999999999999" y1="170.29000260521372" x2="849.0" y2="170.29000260521372" stroke="#000"/>
<line x1="801.9999999999999" y1="173.23638716549178" x2="849.0" y2="173.23638716549178" stroke="#000"/>
<line x1="825.4999999999999" y1="170.29000260521372" x2="825.4999999999999" y2="173.23638716549178" stroke="#000"/>
<rect x="849.0" y="147.64462495350753" width="46.99999999999999" height="350.35537504649244" fill="orange" data-tooltip="1.07x baseline speed (YJIT)"/>
<line x1="849.0" y1="144.55941341695632" x2="896.0" y2="144.55941341695632" stroke="#000"/>
<line x1="849.0" y1="150.72983649005874" x2="896.0" y2="150.72983649005874" stroke="#000"/>
<line x1="872.4999999999999" y1="144.55941341695632" x2="872.4999999999999" y2="150.72983649005874" stroke="#000"/>
<line x1="872.4999999999999" y1="498.0" x2="872.4999999999999" y2="502.79999999999995" stroke="#000"/>
<text x="872.4999999999999" y="512.4" fill="#111" font-size="small" font-family="monospace" font-weight="bold" text-anchor="end" transform="rotate(-60, 872.4999999999999, 512.4)">
railsbench
</text>
</svg>