<svg viewBox="0 0 1000 600" xmlns="http://www.w3.org/2000/svg" xmlns:xlink="http://www.w3.org/1999/xlink" width="100%" height="100%">

<rect x="50.0" y="30.0" width="940.0" height="467.99999999999994" stroke="#000" fill="#EEE"/>
<line x1="42.0" y1="497.9999999999999" x2="50.0" y2="497.9999999999999" stroke="#000"/>
<text x="26.000000000000004" y="497.9999999999999" text-anchor="end" font-weight="bold" font-size="small" fill="#111">
0.0
</text>
<line x1="42.0" y1="440.76253346494616" x2="50.0" y2="440.76253346494616" stroke="#000"/>
<text x="26.000000000000004" y="440.76253346494616" text-anchor="end" font-weight="bold" font-size="small" fill="#111">
1.0
</text>
<line x1="42.0" y1="383.5250669298924" x2="50.0" y2="383.5250669298924" stroke="#000"/>
<text x="26.000000000000004" y="383.5250669298924" text-anchor="end" font-weight="bold" font-size="small" fill="#111">
2.0
</text>
<line x1="42.0" y1="326.2876003948386" x2="50.0" y2="326.2876003948386" stroke="#000"/>
<text x="26.000000000000004" y="326.2876003948386" text-anchor="end" font-weight="bold" font-size="small" fill="#111">
3.0
</text>
<line x1="42.0" y1="269.05013385978475" x2="50.0" y2="269.05013385978475" stroke="#000"/>
<text x="26.000000000000004" y="269.05013385978475" text-anchor="end" font-weight="bold" font-size="small" fill="#111">
4.0
</text>
<line x1="42.0" y1="211.812667324731" x2="50.0" y2="211.812667324731" stroke="#000"/>
<text x="26.000000000000004" y="211.812667324731" text-anchor="end" font-weight="bold" font-size="small" fill="#111">
5.0
</text>
<line x1="42.0" y1="154.5752007896772" x2="50.0" y2="154.5752007896772" stroke="#000"/>
<text x="26.000000000000004" y="154.5752007896772" text-anchor="end" font-weight="bold" font-size="small" fill="#111">
6.0
</text>
<rect x="268.5" y="36.00000000000001" width="80.0" height="18.0" fill="#7070f8" stroke="#888"/>
<text x="308.5" y="52.50000000000001" font-size="small" text-anchor="middle" font-weight="bold" fill="#EEE">
No JIT
</text>
<rect x="691.4999999999999" y="36.00000000000001" width="80.0" height="18.0" fill="orange" stroke="#888"/>
<text x="731.4999999999999" y="52.50000000000001" font-size="small" text-anchor="middle" font-weight="bold" fill="#EEE">
YJIT
</text>
<rect x="97.0" y="440.76253346494616" width="28.2" height="57.23746653505379" fill="#7070f8" data-tooltip="1.00x baseline speed (No JIT)"/>
<line x1="97.0" y1="440.70759697139295" x2="125.2" y2="440.70759697139295" stroke="#000"/>
<line x1="97.0" y1="440.81746995849943" x2="125.2" y2="440.81746995849943" stroke="#000"/>
<line x1="111.10000000000001" y1="440.70759697139295" x2="111.10000000000001" y2="440.81746995849943" stroke="#000"/>
<rect x="125.2" y="294.8022945020469" width="28.2" height="203.19770549795308" fill="orange" data-tooltip="3.55x baseline speed (YJIT)"/>
<line x1="125.2" y1="294.6041839510869" x2="153.4" y2="294.6041839510869" stroke="#000"/>
<line x1="125.2" y1="295.00040505300683" x2="153.4" y2="295.00040505300683" stroke="#000"/>
<line x1="139.3" y1="294.6041839510869" x2="139.3" y2="295.00040505300683" stroke="#000"/>
<line x1="139.3" y1="498.0" x2="139.3" y2="502.79999999999995" stroke="#000"/>
<text x="139.3" y="512.4" fill="#111" font-size="small" font-family="monospace" font-weight="bold" text-anchor="end" transform="rotate(-60, 139.3, 512.4)">
30k_ifelse
</text>
<rect x="181.6" y="440.76253346494616" width="28.2" height="57.23746653505379" fill="#7070f8" data-tooltip="1.00x baseline speed (No JIT)"/>
<line x1="181.6" y1="440.37644049290054" x2="209.79999999999998" y2="440.37644049290054" stroke="#000"/>
<line x1="181.6" y1="441.14862643699183" x2="209.79999999999998" y2="441.14862643699183" stroke="#000"/>
<line x1="195.7" y1="440.37644049290054" x2="195.7" y2="441.14862643699183" stroke="#000"/>
<rect x="209.79999999999998" y="191.58676709930808" width="28.2" height="306.41323290069187" fill="orange" data-tooltip="5.35x baseline speed (YJIT)"/>
<line x1="209.79999999999998" y1="189.4982842858614" x2="238.0" y2="189.4982842858614" stroke="#000"/>
<line x1="209.79999999999998" y1="193.67524991275474" x2="238.0" y2="193.67524991275474" stroke="#000"/>
<line x1="223.89999999999998" y1="189.4982842858614" x2="223.89999999999998" y2="193.67524991275474" stroke="#000"/>
<line x1="223.89999999999998" y1="498.0" x2="223.89999999999998" y2="502.79999999999995" stroke="#000"/>
<text x="223.89999999999998" y="512.4" fill="#111" font-size="small" font-family="monospace" font-weight="bold" text-anchor="end" transform="rotate(-60, 223.89999999999998, 512.4)">
30k_methods
</text>
<rect x="266.2" y="440.76253346494616" width="28.2" height="57.23746653505379" fill="#7070f8" data-tooltip="1.00x baseline speed (No JIT)"/>
<line x1="266.2" y1="440.72910035234105" x2="294.4" y2="440.72910035234105" stroke="#000"/>
<line x1="266.2" y1="440.7959665775513" x2="294.4" y2="440.7959665775513" stroke="#000"/>
<line x1="280.3" y1="440.72910035234105" x2="280.3" y2="440.7959665775513" stroke="#000"/>
<rect x="294.4" y="347.4403986286168" width="28.2" height="150.55960137138322" fill="orange" data-tooltip="2.63x baseline speed (YJIT)"/>
<line x1="294.4" y1="347.3340641890608" x2="322.6" y2="347.3340641890608" stroke="#000"/>
<line x1="294.4" y1="347.54673306817267" x2="322.6" y2="347.54673306817267" stroke="#000"/>
<line x1="308.5" y1="347.3340641890608" x2="308.5" y2="347.54673306817267" stroke="#000"/>
<line x1="308.5" y1="498.0" x2="308.5" y2="502.79999999999995" stroke="#000"/>
<text x="308.5" y="512.4" fill="#111" font-size="small" font-family="monospace" font-weight="bold" text-anchor="end" transform="rotate(-60, 308.5, 512.4)">
cfunc_itself
</text>
<rect x="350.8" y="440.76253346494616" width="28.2" height="57.23746653505379" fill="#7070f8" data-tooltip="1.00x baseline speed (No JIT)"/>
<line x1="350.8" y1="440.09707293118817" x2="379.0" y2="440.09707293118817" stroke="#000"/>
<line x1="350.8" y1="441.4279939987042" x2="379.0" y2="441.4279939987042" stroke="#000"/>
<line x1="364.9" y1="440.09707293118817" x2="364.9" y2="441.4279939987042" stroke="#000"/>
<rect x="379.0" y="333.5270179514447" width="28.2" height="164.47298204855525" fill="orange" data-tooltip="2.87x baseline speed (YJIT)"/>
<line x1="379.0" y1="331.6147766887296" x2="407.2" y2="331.6147766887296" stroke="#000"/>
<line x1="379.0" y1="335.43925921415973" x2="407.2" y2="335.43925921415973" stroke="#000"/>
<line x1="393.1" y1="331.6147766887296" x2="393.1" y2="335.43925921415973" stroke="#000"/>
<line x1="393.1" y1="498.0" x2="393.1" y2="502.79999999999995" stroke="#000"/>
<text x="393.1" y="512.4" fill="#111" font-size="small" font-family="monospace" font-weight="bold" text-anchor="end" transform="rotate(-60, 393.1, 512.4)">
fib
</text>
<rect x="435.40000000000003" y="440.76253346494616" width="28.2" height="57.23746653505379" fill="#7070f8" data-tooltip="1.00x baseline speed (No JIT)"/>
<line x1="435.40000000000003" y1="440.4684750782201" x2="463.6" y2="440.4684750782201" stroke="#000"/>
<line x1="435.40000000000003" y1="441.0565918516723" x2="463.6" y2="441.0565918516723" stroke="#000"/>
<line x1="449.5" y1="440.4684750782201" x2="449.5" y2="441.0565918516723" stroke="#000"/>
<rect x="463.6" y="375.4942679112145" width="28.2" height="122.50573208878548" fill="orange" data-tooltip="2.14x baseline speed (YJIT)"/>
<line x1="463.6" y1="374.86482414766004" x2="491.8" y2="374.86482414766004" stroke="#000"/>
<line x1="463.6" y1="376.12371167476886" x2="491.8" y2="376.12371167476886" stroke="#000"/>
<line x1="477.7" y1="374.86482414766004" x2="477.7" y2="376.12371167476886" stroke="#000"/>
<line x1="477.7" y1="498.0" x2="477.7" y2="502.79999999999995" stroke="#000"/>
<text x="477.7" y="512.4" fill="#111" font-size="small" font-family="monospace" font-weight="bold" text-anchor="end" transform="rotate(-60, 477.7, 512.4)">
getivar
</text>
<rect x="520.0" y="440.76253346494616" width="28.2" height="57.23746653505379" fill="#7070f8" data-tooltip="1.00x baseline speed (No JIT)"/>
<line x1="520.0" y1="440.5608612700904" x2="548.2" y2="440.5608612700904" stroke="#000"/>
<line x1="520.0" y1="440.96420565980196" x2="548.2" y2="440.96420565980196" stroke="#000"/>
<line x1="534.1" y1="440.5608612700904" x2="534.1" y2="440.96420565980196" stroke="#000"/>
<rect x="548.2" y="288.2495048464521" width="28.2" height="209.75049515354783" fill="orange" data-tooltip="3.66x baseline speed (YJIT)"/>
<line x1="548.2" y1="287.51009935718315" x2="576.4" y2="287.51009935718315" stroke="#000"/>
<line x1="548.2" y1="288.988910335721" x2="576.4" y2="288.988910335721" stroke="#000"/>
<line x1="562.3000000000001" y1="287.51009935718315" x2="562.3000000000001" y2="288.988910335721" stroke="#000"/>
<line x1="562.3000000000001" y1="498.0" x2="562.3000000000001" y2="502.79999999999995" stroke="#000"/>
<text x="562.3000000000001" y="512.4" fill="#111" font-size="small" font-family="monospace" font-weight="bold" text-anchor="end" transform="rotate(-60, 562.3000000000001, 512.4)">
keyword_args
</text>
<rect x="604.5999999999999" y="440.76253346494616" width="28.2" height="57.23746653505379" fill="#7070f8" data-tooltip="1.00x baseline speed (No JIT)"/>
<line x1="604.5999999999999" y1="440.42938158964193" x2="632.8" y2="440.42938158964193" stroke="#000"/>
<line x1="604.5999999999999" y1="441.09568534025044" x2="632.8" y2="441.09568534025044" stroke="#000"/>
<line x1="618.6999999999999" y1="440.42938158964193" x2="618.6999999999999" y2="441.09568534025044" stroke="#000"/>
<rect x="632.8" y="100.19999999999999" width="28.2" height="397.79999999999995" fill="orange" data-tooltip="6.95x baseline speed (YJIT)"/>
<line x1="632.8" y1="97.68492680696028" x2="660.9999999999999" y2="97.68492680696028" stroke="#000"/>
<line x1="632.8" y1="102.71507319303971" x2="660.9999999999999" y2="102.71507319303971" stroke="#000"/>
<line x1="646.8999999999999" y1="97.68492680696028" x2="646.8999999999999" y2="102.71507319303971" stroke="#000"/>
<line x1="646.8999999999999" y1="498.0" x2="646.8999999999999" y2="502.79999999999995" stroke="#000"/>
<text x="646.8999999999999" y="512.4" fill="#111" font-size="small" font-family="monospace" font-weight="bold" text-anchor="end" transform="rotate(-60, 646.8999999999999, 512.4)">
respond_to
</text>
<rect x="689.1999999999999" y="440.76253346494616" width="28.2" height="57.23746653505379" fill="#7070f8" data-tooltip="1.00x baseline speed (No JIT)"/>
<line x1="689.1999999999999" y1="440.43186017673764" x2="717.4" y2="440.43186017673764" stroke="#000"/>
<line x1="689.1999999999999" y1="441.09320675315473" x2="717.4" y2="441.09320675315473" stroke="#000"/>
<line x1="703.3" y1="440.43186017673764" x2="703.3" y2="441.09320675315473" stroke="#000"/>
<rect x="717.4" y="290.36768335758325" width="28.2" height="207.63231664241667" fill="orange" data-tooltip="3.63x baseline speed (YJIT)"/>
<line x1="717.4" y1="289.16788215899277" x2="745.5999999999999" y2="289.16788215899277" stroke="#000"/>
<line x1="717.4" y1="291.5674845561737" x2="745.5999999999999" y2="291.5674845561737" stroke="#000"/>
<line x1="731.4999999999999" y1="289.16788215899277" x2="731.4999999999999" y2="291.5674845561737" stroke="#000"/>
<line x1="731.4999999999999" y1="498.0" x2="731.4999999999999" y2="502.79999999999995" stroke="#000"/>
<text x="731.4999999999999" y="512.4" fill="#111" font-size="small" font-family="monospace" font-weight="bold" text-anchor="end" transform="rotate(-60, 731.4999999999999, 512.4)">
setivar
</text>
<rect x="773.8" y="440.76253346494616" width="28.2" height="57.23746653505379" fill="#7070f8" data-tooltip="1.00x baseline speed (No JIT)"/>
<line x1="773.8" y1="440.445701699558" x2="801.9999999999999" y2="440.445701699558" stroke="#000"/>
<line x1="773.8" y1="441.07936523033436" x2="801.9999999999999" y2="441.07936523033436" stroke="#000"/>
<line x1="787.9" y1="440.445701699558" x2="787.9" y2="441.07936523033436" stroke="#000"/>
<rect x="801.9999999999999" y="366.69575568595747" width="28.2" height="131.3042443140425" fill="orange" data-tooltip="2.29x baseline speed (YJIT)"/>
<line x1="801.9999999999999" y1="365.27688312041823" x2="830.1999999999999" y2="365.27688312041823" stroke="#000"/>
<line x1="801.9999999999999" y1="368.11462825149675" x2="830.1999999999999" y2="368.11462825149675" stroke="#000"/>
<line x1="816.0999999999999" y1="365.27688312041823" x2="816.0999999999999" y2="368.11462825149675" stroke="#000"/>
<line x1="816.0999999999999" y1="498.0" x2="816.0999999999999" y2="502.79999999999995" stroke="#000"/>
<text x="816.0999999999999" y="512.4" fill="#111" font-size="small" font-family="monospace" font-weight="bold" text-anchor="end" transform="rotate(-60, 816.0999999999999, 512.4)">
setivar_object
</text>
<rect x="858.4" y="440.76253346494616" width="28.2" height="57.23746653505379" fill="#7070f8" data-tooltip="1.00x baseline speed (No JIT)"/>
<line x1="858.4" y1="440.5128434013477" x2="886.5999999999999" y2="440.5128434013477" stroke="#000"/>
<line x1="858.4" y1="441.01222352854467" x2="886.5999999999999" y2="441.01222352854467" stroke="#000"/>
<line x1="872.4999999999999" y1="440.5128434013477" x2="872.4999999999999" y2="441.01222352854467" stroke="#000"/>
<rect x="886.5999999999999" y="409.41424476606613" width="28.2" height="88.58575523393378" fill="orange" data-tooltip="1.55x baseline speed (YJIT)"/>
<line x1="886.5999999999999" y1="408.692695817275" x2="914.8" y2="408.692695817275" stroke="#000"/>
<line x1="886.5999999999999" y1="410.1357937148572" x2="914.8" y2="410.1357937148572" stroke="#000"/>
<line x1="900.6999999999999" y1="408.692695817275" x2="900.6999999999999" y2="410.1357937148572" stroke="#000"/>
<line x1="900.6999999999999" y1="498.0" x2="900.6999999999999" y2="502.79999999999995" stroke="#000"/>
<text x="900.6999999999999" y="512.4" fill="#111" font-size="small" font-family="monospace" font-weight="bold" text-anchor="end" transform="rotate(-60, 900.6999999999999, 512.4)">
str_concat
</text>
</svg>