<svg viewBox="0 0 1000 600" xmlns="http://www.w3.org/2000/svg" xmlns:xlink="http://www.w3.org/1999/xlink" width="100%" height="100%">

<rect x="50.0" y="30.0" width="940.0" height="467.99999999999994" stroke="#000" fill="#EEE"/>
<line x1="42.0" y1="497.9999999999999" x2="50.0" y2="497.9999999999999" stroke="#000"/>
<text x="26.000000000000004" y="497.9999999999999" text-anchor="end" font-weight="bold" font-size="small" fill="#111">
0.0
</text>
<line x1="42.0" y1="444.98418215524947" x2="50.0" y2="444.98418215524947" stroke="#000"/>
<text x="26.000000000000004" y="444.98418215524947" text-anchor="end" font-weight="bold" font-size="small" fill="#111">
0.2
</text>
<line x1="42.0" y1="391.9683643104989" x2="50.0" y2="391.9683643104989" stroke="#000"/>
<text x="26.000000000000004" y="391.9683643104989" text-anchor="end" font-weight="bold" font-size="small" fill="#111">
0.4
</text>
<line x1="42.0" y1="338.9525464657484" x2="50.0" y2="338.9525464657484" stroke="#000"/>
<text x="26.000000000000004" y="338.9525464657484" text-anchor="end" font-weight="bold" font-size="small" fill="#111">
0.6
</text>
<line x1="42.0" y1="285.9367286209979" x2="50.0" y2="285.9367286209979" stroke="#000"/>
<text x="26.000000000000004" y="285.9367286209979" text-anchor="end" font-weight="bold" font-size="small" fill="#111">
0.8
</text>
<line x1="42.0" y1="232.92091077624738" x2="50.0" y2="232.92091077624738" stroke="#000"/>
<text x="26.000000000000004" y="232.92091077624738" text-anchor="end" font-weight="bold" font-size="small" fill="#111">
1.0
</text>
<line x1="42.0" y1="179.9050929314969" x2="50.0" y2="179.9050929314969" stroke="#000"/>
<text x="26.000000000000004" y="179.9050929314969" text-anchor="end" font-weight="bold" font-size="small" fill="#111">
1.2
</text>
<line x1="42.0" y1="126.88927508674635" x2="50.0" y2="126.88927508674635" stroke="#000"/>
<text x="26.000000000000004" y="126.88927508674635" text-anchor="end" font-weight="bold" font-size="small" fill="#111">
1.4
</text>
<rect x="197.99999999999997" y="36.00000000000001" width="80.0" height="18.0" fill="#7070f8" stroke="#888"/>
<text x="238.0" y="52.50000000000001" font-size="small" text-anchor="middle" font-weight="bold" fill="#EEE">
No JIT
</text>
<rect x="479.99999999999994" y="36.00000000000001" width="80.0" height="18.0" fill="orange" stroke="#888"/>
<text x="519.9999999999999" y="52.50000000000001" font-size="small" text-anchor="middle" font-weight="bold" fill="#EEE">
MJIT
</text>
<rect x="761.9999999999999" y="36.00000000000001" width="80.0" height="18.0" fill="green" stroke="#888"/>
<text x="801.9999999999999" y="52.50000000000001" font-size="small" text-anchor="middle" font-weight="bold" fill="#EEE">
YJIT
</text>
<rect x="97.0" y="232.92091077624738" width="35.25" height="265.0790892237526" fill="#7070f8" data-tooltip="1.00x baseline speed (No JIT)"/>
<line x1="97.0" y1="231.98021551429088" x2="132.25" y2="231.98021551429088" stroke="#000"/>
<line x1="97.0" y1="233.8616060382039" x2="132.25" y2="233.8616060382039" stroke="#000"/>
<line x1="114.625" y1="231.98021551429088" x2="114.625" y2="233.8616060382039" stroke="#000"/>
<rect x="132.25" y="234.21560155738646" width="35.25" height="263.7843984426135" fill="orange" data-tooltip="1.00x baseline speed (MJIT)"/>
<line x1="132.25" y1="232.9828021286749" x2="167.5" y2="232.9828021286749" stroke="#000"/>
<line x1="132.25" y1="235.448400986098" x2="167.5" y2="235.448400986098" stroke="#000"/>
<line x1="149.875" y1="232.9828021286749" x2="149.875" y2="235.448400986098" stroke="#000"/>
<rect x="167.49999999999997" y="100.19999999999999" width="35.25" height="397.79999999999995" fill="green" data-tooltip="1.50x baseline speed (YJIT)"/>
<line x1="167.49999999999997" y1="97.366484579017" x2="202.75" y2="97.366484579017" stroke="#000"/>
<line x1="167.49999999999997" y1="103.03351542098298" x2="202.75" y2="103.03351542098298" stroke="#000"/>
<line x1="185.12499999999997" y1="97.366484579017" x2="185.12499999999997" y2="103.03351542098298" stroke="#000"/>
<line x1="167.49999999999997" y1="498.0" x2="167.49999999999997" y2="502.79999999999995" stroke="#000"/>
<text x="167.49999999999997" y="512.4" fill="#111" font-size="small" font-family="monospace" font-weight="bold" text-anchor="end" transform="rotate(-60, 167.49999999999997, 512.4)">
activerecord
</text>
<rect x="238.0" y="232.92091077624738" width="35.25" height="265.0790892237526" fill="#7070f8" data-tooltip="1.00x baseline speed (No JIT)"/>
<line x1="238.0" y1="230.15267849851958" x2="273.25" y2="230.15267849851958" stroke="#000"/>
<line x1="238.0" y1="235.6891430539752" x2="273.25" y2="235.6891430539752" stroke="#000"/>
<line x1="255.625" y1="230.15267849851958" x2="255.625" y2="235.6891430539752" stroke="#000"/>
<rect x="308.5" y="130.0864458638529" width="35.25" height="367.913554136147" fill="green" data-tooltip="1.39x baseline speed (YJIT)"/>
<line x1="308.5" y1="121.76294583343346" x2="343.75" y2="121.76294583343346" stroke="#000"/>
<line x1="308.5" y1="138.40994589427234" x2="343.75" y2="138.40994589427234" stroke="#000"/>
<line x1="326.125" y1="121.76294583343346" x2="326.125" y2="138.40994589427234" stroke="#000"/>
<line x1="308.5" y1="498.0" x2="308.5" y2="502.79999999999995" stroke="#000"/>
<text x="308.5" y="512.4" fill="#111" font-size="small" font-family="monospace" font-weight="bold" text-anchor="end" transform="rotate(-60, 308.5, 512.4)">
hexapdf
</text>
<rect x="379.0" y="232.92091077624738" width="35.25" height="265.0790892237526" fill="#7070f8" data-tooltip="1.00x baseline speed (No JIT)"/>
<line x1="379.0" y1="230.45199690011742" x2="414.25" y2="230.45199690011742" stroke="#000"/>
<line x1="379.0" y1="235.38982465237734" x2="414.25" y2="235.38982465237734" stroke="#000"/>
<line x1="396.625" y1="230.45199690011742" x2="396.625" y2="235.38982465237734" stroke="#000"/>
<rect x="414.25" y="194.7806212971327" width="35.25" height="303.21937870286723" fill="orange" data-tooltip="1.14x baseline speed (MJIT)"/>
<line x1="414.25" y1="189.09838009698703" x2="449.5" y2="189.09838009698703" stroke="#000"/>
<line x1="414.25" y1="200.4628624972784" x2="449.5" y2="200.4628624972784" stroke="#000"/>
<line x1="431.875" y1="189.09838009698703" x2="431.875" y2="200.4628624972784" stroke="#000"/>
<rect x="449.5" y="106.60979860675718" width="35.25" height="391.39020139324276" fill="green" data-tooltip="1.48x baseline speed (YJIT)"/>
<line x1="449.5" y1="99.27281052773094" x2="484.75" y2="99.27281052773094" stroke="#000"/>
<line x1="449.5" y1="113.94678668578344" x2="484.75" y2="113.94678668578344" stroke="#000"/>
<line x1="467.125" y1="99.27281052773094" x2="467.125" y2="113.94678668578344" stroke="#000"/>
<line x1="449.5" y1="498.0" x2="449.5" y2="502.79999999999995" stroke="#000"/>
<text x="449.5" y="512.4" fill="#111" font-size="small" font-family="monospace" font-weight="bold" text-anchor="end" transform="rotate(-60, 449.5, 512.4)">
liquid-render
</text>
<rect x="519.9999999999999" y="232.92091077624738" width="35.25" height="265.0790892237526" fill="#7070f8" data-tooltip="1.00x baseline speed (No JIT)"/>
<line x1="519.9999999999999" y1="232.57576845844667" x2="555.2499999999999" y2="232.57576845844667" stroke="#000"/>
<line x1="519.9999999999999" y1="233.2660530940481" x2="555.2499999999999" y2="233.2660530940481" stroke="#000"/>
<line x1="537.6249999999999" y1="232.57576845844667" x2="537.6249999999999" y2="233.2660530940481" stroke="#000"/>
<rect x="555.2499999999999" y="223.16340164482008" width="35.25" height="274.83659835517983" fill="orange" data-tooltip="1.04x baseline speed (MJIT)"/>
<line x1="555.2499999999999" y1="217.85455083712955" x2="590.4999999999999" y2="217.85455083712955" stroke="#000"/>
<line x1="555.2499999999999" y1="228.47225245251062" x2="590.4999999999999" y2="228.47225245251062" stroke="#000"/>
<line x1="572.8749999999999" y1="217.85455083712955" x2="572.8749999999999" y2="228.47225245251062" stroke="#000"/>
<rect x="590.4999999999999" y="190.34969522878995" width="35.25" height="307.65030477121" fill="green" data-tooltip="1.16x baseline speed (YJIT)"/>
<line x1="590.4999999999999" y1="189.7150801779857" x2="625.7499999999999" y2="189.7150801779857" stroke="#000"/>
<line x1="590.4999999999999" y1="190.98431027959418" x2="625.7499999999999" y2="190.98431027959418" stroke="#000"/>
<line x1="608.1249999999999" y1="189.7150801779857" x2="608.1249999999999" y2="190.98431027959418" stroke="#000"/>
<line x1="590.4999999999999" y1="498.0" x2="590.4999999999999" y2="502.79999999999995" stroke="#000"/>
<text x="590.4999999999999" y="512.4" fill="#111" font-size="small" font-family="monospace" font-weight="bold" text-anchor="end" transform="rotate(-60, 590.4999999999999, 512.4)">
mail
</text>
<rect x="660.9999999999999" y="232.92091077624738" width="35.25" height="265.0790892237526" fill="#7070f8" data-tooltip="1.00x baseline speed (No JIT)"/>
<line x1="660.9999999999999" y1="232.75413076671347" x2="696.2499999999999" y2="232.75413076671347" stroke="#000"/>
<line x1="660.9999999999999" y1="233.0876907857813" x2="696.2499999999999" y2="233.0876907857813" stroke="#000"/>
<line x1="678.6249999999999" y1="232.75413076671347" x2="678.6249999999999" y2="233.0876907857813" stroke="#000"/>
<rect x="696.2499999999999" y="199.54671958804659" width="35.25" height="298.45328041195336" fill="orange" data-tooltip="1.13x baseline speed (MJIT)"/>
<line x1="696.2499999999999" y1="199.1470563262319" x2="731.4999999999999" y2="199.1470563262319" stroke="#000"/>
<line x1="696.2499999999999" y1="199.9463828498613" x2="731.4999999999999" y2="199.9463828498613" stroke="#000"/>
<line x1="713.8749999999999" y1="199.1470563262319" x2="713.8749999999999" y2="199.9463828498613" stroke="#000"/>
<rect x="731.4999999999999" y="142.9709656015302" width="35.25" height="355.0290343984697" fill="green" data-tooltip="1.34x baseline speed (YJIT)"/>
<line x1="731.4999999999999" y1="142.67517462846914" x2="766.7499999999999" y2="142.67517462846914" stroke="#000"/>
<line x1="731.4999999999999" y1="143.26675657459128" x2="766.7499999999999" y2="143.26675657459128" stroke="#000"/>
<line x1="749.1249999999999" y1="142.67517462846914" x2="749.1249999999999" y2="143.26675657459128" stroke="#000"/>
<line x1="731.4999999999999" y1="498.0" x2="731.4999999999999" y2="502.79999999999995" stroke="#000"/>
<text x="731.4999999999999" y="512.4" fill="#111" font-size="small" font-family="monospace" font-weight="bold" text-anchor="end" transform="rotate(-60, 731.4999999999999, 512.4)">
psych-load
</text>
<rect x="801.9999999999999" y="232.92091077624738" width="35.25" height="265.0790892237526" fill="#7070f8" data-tooltip="1.00x baseline speed (No JIT)"/>
<line x1="801.9999999999999" y1="231.42507473998103" x2="837.2499999999999" y2="231.42507473998103" stroke="#000"/>
<line x1="801.9999999999999" y1="234.41674681251374" x2="837.2499999999999" y2="234.41674681251374" stroke="#000"/>
<line x1="819.6249999999999" y1="231.42507473998103" x2="819.6249999999999" y2="234.41674681251374" stroke="#000"/>
<rect x="837.2499999999999" y="234.16862290781518" width="35.25" height="263.8313770921848" fill="orange" data-tooltip="1.00x baseline speed (MJIT)"/>
<line x1="837.2499999999999" y1="232.0119711040532" x2="872.4999999999999" y2="232.0119711040532" stroke="#000"/>
<line x1="837.2499999999999" y1="236.32527471157715" x2="872.4999999999999" y2="236.32527471157715" stroke="#000"/>
<line x1="854.8749999999999" y1="232.0119711040532" x2="854.8749999999999" y2="236.32527471157715" stroke="#000"/>
<rect x="872.4999999999999" y="147.08488435873974" width="35.25" height="350.9151156412602" fill="green" data-tooltip="1.32x baseline speed (YJIT)"/>
<line x1="872.4999999999999" y1="142.92702002235563" x2="907.75" y2="142.92702002235563" stroke="#000"/>
<line x1="872.4999999999999" y1="151.24274869512388" x2="907.75" y2="151.24274869512388" stroke="#000"/>
<line x1="890.125" y1="142.92702002235563" x2="890.125" y2="151.24274869512388" stroke="#000"/>
<line x1="872.4999999999999" y1="498.0" x2="872.4999999999999" y2="502.79999999999995" stroke="#000"/>
<text x="872.4999999999999" y="512.4" fill="#111" font-size="small" font-family="monospace" font-weight="bold" text-anchor="end" transform="rotate(-60, 872.4999999999999, 512.4)">
railsbench
</text>
</svg>