<svg viewBox="0 0 1000 600" xmlns="http://www.w3.org/2000/svg" xmlns:xlink="http://www.w3.org/1999/xlink" width="100%" height="100%">

<rect x="50.0" y="30.0" width="940.0" height="467.99999999999994" stroke="#000" fill="#EEE"/>
<line x1="42.0" y1="497.9999999999999" x2="50.0" y2="497.9999999999999" stroke="#000"/>
<text x="26.000000000000004" y="497.9999999999999" text-anchor="end" font-weight="bold" font-size="small" fill="#111">
0.0
</text>
<line x1="42.0" y1="413.99176803391356" x2="50.0" y2="413.99176803391356" stroke="#000"/>
<text x="26.000000000000004" y="413.99176803391356" text-anchor="end" font-weight="bold" font-size="small" fill="#111">
2.0
</text>
<line x1="42.0" y1="329.98353606782723" x2="50.0" y2="329.98353606782723" stroke="#000"/>
<text x="26.000000000000004" y="329.98353606782723" text-anchor="end" font-weight="bold" font-size="small" fill="#111">
4.0
</text>
<line x1="42.0" y1="245.97530410174093" x2="50.0" y2="245.97530410174093" stroke="#000"/>
<text x="26.000000000000004" y="245.97530410174093" text-anchor="end" font-weight="bold" font-size="small" fill="#111">
6.0
</text>
<line x1="42.0" y1="161.96707213565458" x2="50.0" y2="161.96707213565458" stroke="#000"/>
<text x="26.000000000000004" y="161.96707213565458" text-anchor="end" font-weight="bold" font-size="small" fill="#111">
8.0
</text>
<rect x="268.5" y="36.00000000000001" width="80.0" height="18.0" fill="#7070f8" stroke="#888"/>
<text x="308.5" y="52.50000000000001" font-size="small" text-anchor="middle" font-weight="bold" fill="#EEE">
No JIT
</text>
<rect x="691.4999999999999" y="36.00000000000001" width="80.0" height="18.0" fill="orange" stroke="#888"/>
<text x="731.4999999999999" y="52.50000000000001" font-size="small" text-anchor="middle" font-weight="bold" fill="#EEE">
YJIT
</text>
<rect x="97.0" y="455.99588401695684" width="28.2" height="42.00411598304318" fill="#7070f8" data-tooltip="1.00x baseline speed (No JIT)"/>
<line x1="97.0" y1="455.9890515284774" x2="125.2" y2="455.9890515284774" stroke="#000"/>
<line x1="97.0" y1="456.00271650543624" x2="125.2" y2="456.00271650543624" stroke="#000"/>
<line x1="111.10000000000001" y1="455.9890515284774" x2="111.10000000000001" y2="456.00271650543624" stroke="#000"/>
<rect x="125.2" y="263.88862231593197" width="28.2" height="234.111377684068" fill="orange" data-tooltip="5.57x baseline speed (YJIT)"/>
<line x1="125.2" y1="263.69149988348863" x2="153.4" y2="263.69149988348863" stroke="#000"/>
<line x1="125.2" y1="264.08574474837525" x2="153.4" y2="264.08574474837525" stroke="#000"/>
<line x1="139.3" y1="263.69149988348863" x2="139.3" y2="264.08574474837525" stroke="#000"/>
<line x1="139.3" y1="498.0" x2="139.3" y2="502.79999999999995" stroke="#000"/>
<text x="139.3" y="512.4" fill="#111" font-size="small" font-family="monospace" font-weight="bold" text-anchor="end" transform="rotate(-60, 139.3, 512.4)">
30k_ifelse
</text>
<rect x="181.6" y="455.99588401695684" width="28.2" height="42.00411598304318" fill="#7070f8" data-tooltip="1.00x baseline speed (No JIT)"/>
<line x1="181.6" y1="455.99114751019516" x2="209.79999999999998" y2="455.99114751019516" stroke="#000"/>
<line x1="181.6" y1="456.00062052371845" x2="209.79999999999998" y2="456.00062052371845" stroke="#000"/>
<line x1="195.7" y1="455.99114751019516" x2="195.7" y2="456.00062052371845" stroke="#000"/>
<rect x="209.79999999999998" y="218.96304103880271" width="28.2" height="279.03695896119723" fill="orange" data-tooltip="6.64x baseline speed (YJIT)"/>
<line x1="209.79999999999998" y1="218.79818971206177" x2="238.0" y2="218.79818971206177" stroke="#000"/>
<line x1="209.79999999999998" y1="219.12789236554366" x2="238.0" y2="219.12789236554366" stroke="#000"/>
<line x1="223.89999999999998" y1="218.79818971206177" x2="223.89999999999998" y2="219.12789236554366" stroke="#000"/>
<line x1="223.89999999999998" y1="498.0" x2="223.89999999999998" y2="502.79999999999995" stroke="#000"/>
<text x="223.89999999999998" y="512.4" fill="#111" font-size="small" font-family="monospace" font-weight="bold" text-anchor="end" transform="rotate(-60, 223.89999999999998, 512.4)">
30k_methods
</text>
<rect x="266.2" y="455.99588401695684" width="28.2" height="42.00411598304318" fill="#7070f8" data-tooltip="1.00x baseline speed (No JIT)"/>
<line x1="266.2" y1="455.75789849259894" x2="294.4" y2="455.75789849259894" stroke="#000"/>
<line x1="266.2" y1="456.2338695413147" x2="294.4" y2="456.2338695413147" stroke="#000"/>
<line x1="280.3" y1="455.75789849259894" x2="280.3" y2="456.2338695413147" stroke="#000"/>
<rect x="294.4" y="395.9240954217036" width="28.2" height="102.07590457829639" fill="orange" data-tooltip="2.43x baseline speed (YJIT)"/>
<line x1="294.4" y1="395.3102054600049" x2="322.6" y2="395.3102054600049" stroke="#000"/>
<line x1="294.4" y1="396.53798538340226" x2="322.6" y2="396.53798538340226" stroke="#000"/>
<line x1="308.5" y1="395.3102054600049" x2="308.5" y2="396.53798538340226" stroke="#000"/>
<line x1="308.5" y1="498.0" x2="308.5" y2="502.79999999999995" stroke="#000"/>
<text x="308.5" y="512.4" fill="#111" font-size="small" font-family="monospace" font-weight="bold" text-anchor="end" transform="rotate(-60, 308.5, 512.4)">
cfunc_itself
</text>
<rect x="350.8" y="455.99588401695684" width="28.2" height="42.00411598304318" fill="#7070f8" data-tooltip="1.00x baseline speed (No JIT)"/>
<line x1="350.8" y1="455.98260125218593" x2="379.0" y2="455.98260125218593" stroke="#000"/>
<line x1="350.8" y1="456.0091667817277" x2="379.0" y2="456.0091667817277" stroke="#000"/>
<line x1="364.9" y1="455.98260125218593" x2="364.9" y2="456.0091667817277" stroke="#000"/>
<rect x="379.0" y="332.0020251069667" width="28.2" height="165.99797489303322" fill="orange" data-tooltip="3.95x baseline speed (YJIT)"/>
<line x1="379.0" y1="331.92004083648914" x2="407.2" y2="331.92004083648914" stroke="#000"/>
<line x1="379.0" y1="332.0840093774443" x2="407.2" y2="332.0840093774443" stroke="#000"/>
<line x1="393.1" y1="331.92004083648914" x2="393.1" y2="332.0840093774443" stroke="#000"/>
<line x1="393.1" y1="498.0" x2="393.1" y2="502.79999999999995" stroke="#000"/>
<text x="393.1" y="512.4" fill="#111" font-size="small" font-family="monospace" font-weight="bold" text-anchor="end" transform="rotate(-60, 393.1, 512.4)">
fib
</text>
<rect x="435.40000000000003" y="455.99588401695684" width="28.2" height="42.00411598304318" fill="#7070f8" data-tooltip="1.00x baseline speed (No JIT)"/>
<line x1="435.40000000000003" y1="455.970174878609" x2="463.6" y2="455.970174878609" stroke="#000"/>
<line x1="435.40000000000003" y1="456.02159315530463" x2="463.6" y2="456.02159315530463" stroke="#000"/>
<line x1="449.5" y1="455.970174878609" x2="449.5" y2="456.02159315530463" stroke="#000"/>
<rect x="463.6" y="388.2958425379262" width="28.2" height="109.7041574620738" fill="orange" data-tooltip="2.61x baseline speed (YJIT)"/>
<line x1="463.6" y1="388.0959348295124" x2="491.8" y2="388.0959348295124" stroke="#000"/>
<line x1="463.6" y1="388.49575024634" x2="491.8" y2="388.49575024634" stroke="#000"/>
<line x1="477.7" y1="388.0959348295124" x2="477.7" y2="388.49575024634" stroke="#000"/>
<line x1="477.7" y1="498.0" x2="477.7" y2="502.79999999999995" stroke="#000"/>
<text x="477.7" y="512.4" fill="#111" font-size="small" font-family="monospace" font-weight="bold" text-anchor="end" transform="rotate(-60, 477.7, 512.4)">
getivar
</text>
<rect x="520.0" y="455.99588401695684" width="28.2" height="42.00411598304318" fill="#7070f8" data-tooltip="1.00x baseline speed (No JIT)"/>
<line x1="520.0" y1="455.96362109531685" x2="548.2" y2="455.96362109531685" stroke="#000"/>
<line x1="520.0" y1="456.02814693859676" x2="548.2" y2="456.02814693859676" stroke="#000"/>
<line x1="534.1" y1="455.96362109531685" x2="534.1" y2="456.02814693859676" stroke="#000"/>
<rect x="548.2" y="274.86963070051655" width="28.2" height="223.1303692994834" fill="orange" data-tooltip="5.31x baseline speed (YJIT)"/>
<line x1="548.2" y1="274.40444472576877" x2="576.4" y2="274.40444472576877" stroke="#000"/>
<line x1="548.2" y1="275.33481667526434" x2="576.4" y2="275.33481667526434" stroke="#000"/>
<line x1="562.3000000000001" y1="274.40444472576877" x2="562.3000000000001" y2="275.33481667526434" stroke="#000"/>
<line x1="562.3000000000001" y1="498.0" x2="562.3000000000001" y2="502.79999999999995" stroke="#000"/>
<text x="562.3000000000001" y="512.4" fill="#111" font-size="small" font-family="monospace" font-weight="bold" text-anchor="end" transform="rotate(-60, 562.3000000000001, 512.4)">
keyword_args
</text>
<rect x="604.5999999999999" y="455.99588401695684" width="28.2" height="42.00411598304318" fill="#7070f8" data-tooltip="1.00x baseline speed (No JIT)"/>
<line x1="604.5999999999999" y1="455.91036629341573" x2="632.8" y2="455.91036629341573" stroke="#000"/>
<line x1="604.5999999999999" y1="456.0814017404979" x2="632.8" y2="456.0814017404979" stroke="#000"/>
<line x1="618.6999999999999" y1="455.91036629341573" x2="618.6999999999999" y2="456.0814017404979" stroke="#000"/>
<rect x="632.8" y="100.19999999999999" width="28.2" height="397.79999999999995" fill="orange" data-tooltip="9.47x baseline speed (YJIT)"/>
<line x1="632.8" y1="97.13025617541221" x2="660.9999999999999" y2="97.13025617541221" stroke="#000"/>
<line x1="632.8" y1="103.26974382458776" x2="660.9999999999999" y2="103.26974382458776" stroke="#000"/>
<line x1="646.8999999999999" y1="97.13025617541221" x2="646.8999999999999" y2="103.26974382458776" stroke="#000"/>
<line x1="646.8999999999999" y1="498.0" x2="646.8999999999999" y2="502.79999999999995" stroke="#000"/>
<text x="646.8999999999999" y="512.4" fill="#111" font-size="small" font-family="monospace" font-weight="bold" text-anchor="end" transform="rotate(-60, 646.8999999999999, 512.4)">
respond_to
</text>
<rect x="689.1999999999999" y="455.99588401695684" width="28.2" height="42.00411598304318" fill="#7070f8" data-tooltip="1.00x baseline speed (No JIT)"/>
<line x1="689.1999999999999" y1="455.7738745613259" x2="717.4" y2="455.7738745613259" stroke="#000"/>
<line x1="689.1999999999999" y1="456.2178934725877" x2="717.4" y2="456.2178934725877" stroke="#000"/>
<line x1="703.3" y1="455.7738745613259" x2="703.3" y2="456.2178934725877" stroke="#000"/>
<rect x="717.4" y="295.01048212795916" width="28.2" height="202.9895178720408" fill="orange" data-tooltip="4.83x baseline speed (YJIT)"/>
<line x1="717.4" y1="293.9262294211508" x2="745.5999999999999" y2="293.9262294211508" stroke="#000"/>
<line x1="717.4" y1="296.09473483476745" x2="745.5999999999999" y2="296.09473483476745" stroke="#000"/>
<line x1="731.4999999999999" y1="293.9262294211508" x2="731.4999999999999" y2="296.09473483476745" stroke="#000"/>
<line x1="731.4999999999999" y1="498.0" x2="731.4999999999999" y2="502.79999999999995" stroke="#000"/>
<text x="731.4999999999999" y="512.4" fill="#111" font-size="small" font-family="monospace" font-weight="bold" text-anchor="end" transform="rotate(-60, 731.4999999999999, 512.4)">
setivar
</text>
<rect x="773.8" y="455.99588401695684" width="28.2" height="42.00411598304318" fill="#7070f8" data-tooltip="1.00x baseline speed (No JIT)"/>
<line x1="773.8" y1="455.1552800034933" x2="801.9999999999999" y2="455.1552800034933" stroke="#000"/>
<line x1="773.8" y1="456.8364880304203" x2="801.9999999999999" y2="456.8364880304203" stroke="#000"/>
<line x1="787.9" y1="455.1552800034933" x2="787.9" y2="456.8364880304203" stroke="#000"/>
<rect x="801.9999999999999" y="404.134628102021" width="28.2" height="93.86537189797892" fill="orange" data-tooltip="2.23x baseline speed (YJIT)"/>
<line x1="801.9999999999999" y1="402.07983032015545" x2="830.1999999999999" y2="402.07983032015545" stroke="#000"/>
<line x1="801.9999999999999" y1="406.1894258838866" x2="830.1999999999999" y2="406.1894258838866" stroke="#000"/>
<line x1="816.0999999999999" y1="402.07983032015545" x2="816.0999999999999" y2="406.1894258838866" stroke="#000"/>
<line x1="816.0999999999999" y1="498.0" x2="816.0999999999999" y2="502.79999999999995" stroke="#000"/>
<text x="816.0999999999999" y="512.4" fill="#111" font-size="small" font-family="monospace" font-weight="bold" text-anchor="end" transform="rotate(-60, 816.0999999999999, 512.4)">
setivar_object
</text>
<rect x="858.4" y="455.99588401695684" width="28.2" height="42.00411598304318" fill="#7070f8" data-tooltip="1.00x baseline speed (No JIT)"/>
<line x1="858.4" y1="455.7045300196379" x2="886.5999999999999" y2="455.7045300196379" stroke="#000"/>
<line x1="858.4" y1="456.2872380142757" x2="886.5999999999999" y2="456.2872380142757" stroke="#000"/>
<line x1="872.4999999999999" y1="455.7045300196379" x2="872.4999999999999" y2="456.2872380142757" stroke="#000"/>
<rect x="886.5999999999999" y="416.61926798624046" width="28.2" height="81.38073201375948" fill="orange" data-tooltip="1.94x baseline speed (YJIT)"/>
<line x1="886.5999999999999" y1="415.28941866245594" x2="914.8" y2="415.28941866245594" stroke="#000"/>
<line x1="886.5999999999999" y1="417.94911731002503" x2="914.8" y2="417.94911731002503" stroke="#000"/>
<line x1="900.6999999999999" y1="415.28941866245594" x2="900.6999999999999" y2="417.94911731002503" stroke="#000"/>
<line x1="900.6999999999999" y1="498.0" x2="900.6999999999999" y2="502.79999999999995" stroke="#000"/>
<text x="900.6999999999999" y="512.4" fill="#111" font-size="small" font-family="monospace" font-weight="bold" text-anchor="end" transform="rotate(-60, 900.6999999999999, 512.4)">
str_concat
</text>
</svg>