<svg viewBox="0 0 1000 600" xmlns="http://www.w3.org/2000/svg" xmlns:xlink="http://www.w3.org/1999/xlink" width="100%" height="100%">

<rect x="50.0" y="30.0" width="940.0" height="467.99999999999994" stroke="#000" fill="#EEE"/>
<line x1="42.0" y1="497.9999999999999" x2="50.0" y2="497.9999999999999" stroke="#000"/>
<text x="26.000000000000004" y="497.9999999999999" text-anchor="end" font-weight="bold" font-size="small" fill="#111">
0.0
</text>
<line x1="42.0" y1="400.54463580413284" x2="50.0" y2="400.54463580413284" stroke="#000"/>
<text x="26.000000000000004" y="400.54463580413284" text-anchor="end" font-weight="bold" font-size="small" fill="#111">
0.5
</text>
<line x1="42.0" y1="303.0892716082657" x2="50.0" y2="303.0892716082657" stroke="#000"/>
<text x="26.000000000000004" y="303.0892716082657" text-anchor="end" font-weight="bold" font-size="small" fill="#111">
1.0
</text>
<line x1="42.0" y1="205.63390741239857" x2="50.0" y2="205.63390741239857" stroke="#000"/>
<text x="26.000000000000004" y="205.63390741239857" text-anchor="end" font-weight="bold" font-size="small" fill="#111">
1.5
</text>
<line x1="42.0" y1="108.17854321653145" x2="50.0" y2="108.17854321653145" stroke="#000"/>
<text x="26.000000000000004" y="108.17854321653145" text-anchor="end" font-weight="bold" font-size="small" fill="#111">
2.0
</text>
<rect x="197.99999999999997" y="36.00000000000001" width="80.0" height="18.0" fill="#7070f8" stroke="#888"/>
<text x="238.0" y="52.50000000000001" font-size="small" text-anchor="middle" font-weight="bold" fill="#111">
No JIT
</text>
<rect x="479.99999999999994" y="36.00000000000001" width="80.0" height="18.0" fill="orange" stroke="#888"/>
<text x="519.9999999999999" y="52.50000000000001" font-size="small" text-anchor="middle" font-weight="bold" fill="#111">
MJIT
</text>
<rect x="761.9999999999999" y="36.00000000000001" width="80.0" height="18.0" fill="green" stroke="#888"/>
<text x="801.9999999999999" y="52.50000000000001" font-size="small" text-anchor="middle" font-weight="bold" fill="#111">
YJIT
</text>
<rect x="97.0" y="303.0892716082657" width="42.3" height="194.91072839173424" fill="#7070f8" data-tooltip="1.00x No-JIT time (No JIT)"/>
<line x1="97.0" y1="302.15381332861085" x2="139.3" y2="302.15381332861085" stroke="#000"/>
<line x1="97.0" y1="304.0247298879205" x2="139.3" y2="304.0247298879205" stroke="#000"/>
<line x1="118.15" y1="302.15381332861085" x2="118.15" y2="304.0247298879205" stroke="#000"/>
<rect x="139.3" y="210.98628050726626" width="42.3" height="287.0137194927337" fill="orange" data-tooltip="1.47x No-JIT time (MJIT)"/>
<line x1="139.3" y1="209.48876873161325" x2="181.60000000000002" y2="209.48876873161325" stroke="#000"/>
<line x1="139.3" y1="212.48379228291927" x2="181.60000000000002" y2="212.48379228291927" stroke="#000"/>
<line x1="160.45000000000002" y1="209.48876873161325" x2="160.45000000000002" y2="212.48379228291927" stroke="#000"/>
<rect x="181.6" y="256.8109399894822" width="42.3" height="241.1890600105177" fill="green" data-tooltip="1.24x No-JIT time (YJIT)"/>
<line x1="181.6" y1="254.87859224057473" x2="223.89999999999998" y2="254.87859224057473" stroke="#000"/>
<line x1="181.6" y1="258.74328773838977" x2="223.89999999999998" y2="258.74328773838977" stroke="#000"/>
<line x1="202.75" y1="254.87859224057473" x2="202.75" y2="258.74328773838977" stroke="#000"/>
<line x1="181.6" y1="498.0" x2="181.6" y2="502.79999999999995" stroke="#000"/>
<text x="181.6" y="512.4" fill="#111" font-size="small" font-family="monospace" font-weight="bold" text-anchor="end" transform="rotate(-60, 181.6, 512.4)">
binarytrees
</text>
<rect x="266.2" y="303.0892716082657" width="42.3" height="194.91072839173424" fill="#7070f8" data-tooltip="1.00x No-JIT time (No JIT)"/>
<line x1="266.2" y1="302.95486869700125" x2="308.5" y2="302.95486869700125" stroke="#000"/>
<line x1="266.2" y1="303.2236745195301" x2="308.5" y2="303.2236745195301" stroke="#000"/>
<line x1="287.35" y1="302.95486869700125" x2="287.35" y2="303.2236745195301" stroke="#000"/>
<rect x="308.5" y="214.58097342174935" width="42.3" height="283.41902657825057" fill="orange" data-tooltip="1.45x No-JIT time (MJIT)"/>
<line x1="308.5" y1="214.29159860610173" x2="350.8" y2="214.29159860610173" stroke="#000"/>
<line x1="308.5" y1="214.87034823739697" x2="350.8" y2="214.87034823739697" stroke="#000"/>
<line x1="329.65" y1="214.29159860610173" x2="329.65" y2="214.87034823739697" stroke="#000"/>
<rect x="350.8" y="292.3807016379379" width="42.3" height="205.61929836206204" fill="green" data-tooltip="1.05x No-JIT time (YJIT)"/>
<line x1="350.8" y1="292.18716903029053" x2="393.1" y2="292.18716903029053" stroke="#000"/>
<line x1="350.8" y1="292.5742342455852" x2="393.1" y2="292.5742342455852" stroke="#000"/>
<line x1="371.95" y1="292.18716903029053" x2="371.95" y2="292.5742342455852" stroke="#000"/>
<line x1="350.8" y1="498.0" x2="350.8" y2="502.79999999999995" stroke="#000"/>
<text x="350.8" y="512.4" fill="#111" font-size="small" font-family="monospace" font-weight="bold" text-anchor="end" transform="rotate(-60, 350.8, 512.4)">
fannkuchredux
</text>
<rect x="435.40000000000003" y="303.0892716082657" width="42.3" height="194.91072839173424" fill="#7070f8" data-tooltip="1.00x No-JIT time (No JIT)"/>
<line x1="435.40000000000003" y1="301.11678759059697" x2="477.7" y2="301.11678759059697" stroke="#000"/>
<line x1="435.40000000000003" y1="305.0617556259343" x2="477.7" y2="305.0617556259343" stroke="#000"/>
<line x1="456.55" y1="301.11678759059697" x2="456.55" y2="305.0617556259343" stroke="#000"/>
<rect x="477.7" y="253.25694866900548" width="42.3" height="244.74305133099446" fill="orange" data-tooltip="1.26x No-JIT time (MJIT)"/>
<line x1="477.7" y1="250.2826739942695" x2="520.0" y2="250.2826739942695" stroke="#000"/>
<line x1="477.7" y1="256.2312233437415" x2="520.0" y2="256.2312233437415" stroke="#000"/>
<line x1="498.85" y1="250.2826739942695" x2="498.85" y2="256.2312233437415" stroke="#000"/>
<rect x="520.0" y="228.26641230098963" width="42.3" height="269.73358769901034" fill="green" data-tooltip="1.38x No-JIT time (YJIT)"/>
<line x1="520.0" y1="223.1258051994312" x2="562.3000000000001" y2="223.1258051994312" stroke="#000"/>
<line x1="520.0" y1="233.40701940254806" x2="562.3000000000001" y2="233.40701940254806" stroke="#000"/>
<line x1="541.15" y1="223.1258051994312" x2="541.15" y2="233.40701940254806" stroke="#000"/>
<line x1="520.0" y1="498.0" x2="520.0" y2="502.79999999999995" stroke="#000"/>
<text x="520.0" y="512.4" fill="#111" font-size="small" font-family="monospace" font-weight="bold" text-anchor="end" transform="rotate(-60, 520.0, 512.4)">
lee
</text>
<rect x="604.5999999999999" y="303.0892716082657" width="42.3" height="194.91072839173424" fill="#7070f8" data-tooltip="1.00x No-JIT time (No JIT)"/>
<line x1="604.5999999999999" y1="303.0552239594372" x2="646.8999999999999" y2="303.0552239594372" stroke="#000"/>
<line x1="604.5999999999999" y1="303.1233192570941" x2="646.8999999999999" y2="303.1233192570941" stroke="#000"/>
<line x1="625.7499999999999" y1="303.0552239594372" x2="625.7499999999999" y2="303.1233192570941" stroke="#000"/>
<rect x="646.8999999999999" y="173.48033939952248" width="42.3" height="324.5196606004775" fill="orange" data-tooltip="1.66x No-JIT time (MJIT)"/>
<line x1="646.8999999999999" y1="172.30030253862847" x2="689.1999999999999" y2="172.30030253862847" stroke="#000"/>
<line x1="646.8999999999999" y1="174.66037626041648" x2="689.1999999999999" y2="174.66037626041648" stroke="#000"/>
<line x1="668.05" y1="172.30030253862847" x2="668.05" y2="174.66037626041648" stroke="#000"/>
<rect x="689.1999999999999" y="302.16883161288047" width="42.3" height="195.8311683871195" fill="green" data-tooltip="1.00x No-JIT time (YJIT)"/>
<line x1="689.1999999999999" y1="302.1041346740172" x2="731.4999999999999" y2="302.1041346740172" stroke="#000"/>
<line x1="689.1999999999999" y1="302.2335285517437" x2="731.4999999999999" y2="302.2335285517437" stroke="#000"/>
<line x1="710.3499999999999" y1="302.1041346740172" x2="710.3499999999999" y2="302.2335285517437" stroke="#000"/>
<line x1="689.1999999999999" y1="498.0" x2="689.1999999999999" y2="502.79999999999995" stroke="#000"/>
<text x="689.1999999999999" y="512.4" fill="#111" font-size="small" font-family="monospace" font-weight="bold" text-anchor="end" transform="rotate(-60, 689.1999999999999, 512.4)">
nbody
</text>
<rect x="773.8" y="303.0892716082657" width="42.3" height="194.91072839173424" fill="#7070f8" data-tooltip="1.00x No-JIT time (No JIT)"/>
<line x1="773.8" y1="302.3080505926544" x2="816.0999999999999" y2="302.3080505926544" stroke="#000"/>
<line x1="773.8" y1="303.87049262387694" x2="816.0999999999999" y2="303.87049262387694" stroke="#000"/>
<line x1="794.9499999999999" y1="302.3080505926544" x2="794.9499999999999" y2="303.87049262387694" stroke="#000"/>
<rect x="816.0999999999999" y="100.19999999999999" width="42.3" height="397.79999999999995" fill="orange" data-tooltip="2.04x No-JIT time (MJIT)"/>
<line x1="816.0999999999999" y1="98.4196506788244" x2="858.4" y2="98.4196506788244" stroke="#000"/>
<line x1="816.0999999999999" y1="101.98034932117558" x2="858.4" y2="101.98034932117558" stroke="#000"/>
<line x1="837.2499999999999" y1="98.4196506788244" x2="837.2499999999999" y2="101.98034932117558" stroke="#000"/>
<rect x="858.4" y="157.47329481201672" width="42.3" height="340.5267051879832" fill="green" data-tooltip="1.75x No-JIT time (YJIT)"/>
<line x1="858.4" y1="155.8612481631027" x2="900.6999999999999" y2="155.8612481631027" stroke="#000"/>
<line x1="858.4" y1="159.08534146093075" x2="900.6999999999999" y2="159.08534146093075" stroke="#000"/>
<line x1="879.55" y1="155.8612481631027" x2="879.55" y2="159.08534146093075" stroke="#000"/>
<line x1="858.4" y1="498.0" x2="858.4" y2="502.79999999999995" stroke="#000"/>
<text x="858.4" y="512.4" fill="#111" font-size="small" font-family="monospace" font-weight="bold" text-anchor="end" transform="rotate(-60, 858.4, 512.4)">
optcarrot
</text>
</svg>