<svg viewBox="0 0 1000 600" xmlns="http://www.w3.org/2000/svg" xmlns:xlink="http://www.w3.org/1999/xlink" width="100%" height="100%">

<rect x="50.0" y="30.0" width="940.0" height="467.99999999999994" stroke="#000" fill="#EEE"/>
<line x1="42.0" y1="497.9999999999999" x2="50.0" y2="497.9999999999999" stroke="#000"/>
<text x="26.000000000000004" y="497.9999999999999" text-anchor="end" font-weight="bold" font-size="small" fill="#111">
0.0
</text>
<line x1="42.0" y1="439.530551489426" x2="50.0" y2="439.530551489426" stroke="#000"/>
<text x="26.000000000000004" y="439.530551489426" text-anchor="end" font-weight="bold" font-size="small" fill="#111">
1.0
</text>
<line x1="42.0" y1="381.061102978852" x2="50.0" y2="381.061102978852" stroke="#000"/>
<text x="26.000000000000004" y="381.061102978852" text-anchor="end" font-weight="bold" font-size="small" fill="#111">
2.0
</text>
<line x1="42.0" y1="322.59165446827797" x2="50.0" y2="322.59165446827797" stroke="#000"/>
<text x="26.000000000000004" y="322.59165446827797" text-anchor="end" font-weight="bold" font-size="small" fill="#111">
3.0
</text>
<line x1="42.0" y1="264.122205957704" x2="50.0" y2="264.122205957704" stroke="#000"/>
<text x="26.000000000000004" y="264.122205957704" text-anchor="end" font-weight="bold" font-size="small" fill="#111">
4.0
</text>
<line x1="42.0" y1="205.65275744713003" x2="50.0" y2="205.65275744713003" stroke="#000"/>
<text x="26.000000000000004" y="205.65275744713003" text-anchor="end" font-weight="bold" font-size="small" fill="#111">
5.0
</text>
<line x1="42.0" y1="147.18330893655605" x2="50.0" y2="147.18330893655605" stroke="#000"/>
<text x="26.000000000000004" y="147.18330893655605" text-anchor="end" font-weight="bold" font-size="small" fill="#111">
6.0
</text>
<rect x="268.5" y="36.00000000000001" width="80.0" height="18.0" fill="#7070f8" stroke="#888"/>
<text x="308.5" y="52.50000000000001" font-size="small" text-anchor="middle" font-weight="bold" fill="#EEE">
No JIT
</text>
<rect x="691.4999999999999" y="36.00000000000001" width="80.0" height="18.0" fill="orange" stroke="#888"/>
<text x="731.4999999999999" y="52.50000000000001" font-size="small" text-anchor="middle" font-weight="bold" fill="#EEE">
YJIT
</text>
<rect x="97.0" y="439.530551489426" width="10.444444444444443" height="58.469448510573976" fill="#7070f8" data-tooltip="1.00x baseline speed (No JIT)"/>
<line x1="97.0" y1="439.27339866271865" x2="107.44444444444446" y2="439.27339866271865" stroke="#000"/>
<line x1="97.0" y1="439.7877043161334" x2="107.44444444444446" y2="439.7877043161334" stroke="#000"/>
<line x1="102.22222222222223" y1="439.27339866271865" x2="102.22222222222223" y2="439.7877043161334" stroke="#000"/>
<rect x="107.44444444444446" y="427.7886589001572" width="10.444444444444443" height="70.21134109984271" fill="orange" data-tooltip="1.20x baseline speed (YJIT)"/>
<line x1="107.44444444444446" y1="427.45163370958744" x2="117.8888888888889" y2="427.45163370958744" stroke="#000"/>
<line x1="107.44444444444446" y1="428.12568409072696" x2="117.8888888888889" y2="428.12568409072696" stroke="#000"/>
<line x1="112.66666666666669" y1="427.45163370958744" x2="112.66666666666669" y2="428.12568409072696" stroke="#000"/>
<line x1="112.66666666666667" y1="498.0" x2="112.66666666666667" y2="502.79999999999995" stroke="#000"/>
<text x="112.66666666666667" y="512.4" fill="#111" font-size="small" font-family="monospace" font-weight="bold" text-anchor="end" transform="rotate(-60, 112.66666666666667, 512.4)">
activerecord
</text>
<rect x="128.33333333333331" y="439.530551489426" width="10.444444444444443" height="58.469448510573976" fill="#7070f8" data-tooltip="1.00x baseline speed (No JIT)"/>
<line x1="128.33333333333331" y1="439.03536277239294" x2="138.77777777777777" y2="439.03536277239294" stroke="#000"/>
<line x1="128.33333333333331" y1="440.02574020645903" x2="138.77777777777777" y2="440.02574020645903" stroke="#000"/>
<line x1="133.55555555555554" y1="439.03536277239294" x2="133.55555555555554" y2="440.02574020645903" stroke="#000"/>
<rect x="138.77777777777777" y="428.6996505018313" width="10.444444444444443" height="69.30034949816871" fill="orange" data-tooltip="1.19x baseline speed (YJIT)"/>
<line x1="138.77777777777777" y1="427.842328236563" x2="149.22222222222223" y2="427.842328236563" stroke="#000"/>
<line x1="138.77777777777777" y1="429.5569727670996" x2="149.22222222222223" y2="429.5569727670996" stroke="#000"/>
<line x1="144.0" y1="427.842328236563" x2="144.0" y2="429.5569727670996" stroke="#000"/>
<line x1="144.0" y1="498.0" x2="144.0" y2="502.79999999999995" stroke="#000"/>
<text x="144.0" y="512.4" fill="#111" font-size="small" font-family="monospace" font-weight="bold" text-anchor="end" transform="rotate(-60, 144.0, 512.4)">
hexapdf
</text>
<rect x="159.66666666666669" y="439.530551489426" width="10.444444444444443" height="58.469448510573976" fill="#7070f8" data-tooltip="1.00x baseline speed (No JIT)"/>
<line x1="159.66666666666669" y1="439.0057466735966" x2="170.11111111111114" y2="439.0057466735966" stroke="#000"/>
<line x1="159.66666666666669" y1="440.05535630525543" x2="170.11111111111114" y2="440.05535630525543" stroke="#000"/>
<line x1="164.88888888888889" y1="439.0057466735966" x2="164.88888888888889" y2="440.05535630525543" stroke="#000"/>
<rect x="170.11111111111114" y="417.3506015837904" width="10.444444444444443" height="80.64939841620942" fill="orange" data-tooltip="1.38x baseline speed (YJIT)"/>
<line x1="170.11111111111114" y1="415.894031171669" x2="180.55555555555557" y2="415.894031171669" stroke="#000"/>
<line x1="170.11111111111114" y1="418.8071719959119" x2="180.55555555555557" y2="418.8071719959119" stroke="#000"/>
<line x1="175.33333333333334" y1="415.894031171669" x2="175.33333333333334" y2="418.8071719959119" stroke="#000"/>
<line x1="175.33333333333334" y1="498.0" x2="175.33333333333334" y2="502.79999999999995" stroke="#000"/>
<text x="175.33333333333334" y="512.4" fill="#111" font-size="small" font-family="monospace" font-weight="bold" text-anchor="end" transform="rotate(-60, 175.33333333333334, 512.4)">
liquid-render
</text>
<rect x="191.0" y="439.530551489426" width="10.444444444444443" height="58.469448510573976" fill="#7070f8" data-tooltip="1.00x baseline speed (No JIT)"/>
<line x1="191.0" y1="439.4678590460643" x2="201.44444444444446" y2="439.4678590460643" stroke="#000"/>
<line x1="191.0" y1="439.59324393278774" x2="201.44444444444446" y2="439.59324393278774" stroke="#000"/>
<line x1="196.22222222222223" y1="439.4678590460643" x2="196.22222222222223" y2="439.59324393278774" stroke="#000"/>
<rect x="201.44444444444446" y="434.1686910136402" width="10.444444444444443" height="63.83130898635972" fill="orange" data-tooltip="1.09x baseline speed (YJIT)"/>
<line x1="201.44444444444446" y1="434.07395808660476" x2="211.8888888888889" y2="434.07395808660476" stroke="#000"/>
<line x1="201.44444444444446" y1="434.2634239406757" x2="211.8888888888889" y2="434.2634239406757" stroke="#000"/>
<line x1="206.66666666666666" y1="434.07395808660476" x2="206.66666666666666" y2="434.2634239406757" stroke="#000"/>
<line x1="206.66666666666666" y1="498.0" x2="206.66666666666666" y2="502.79999999999995" stroke="#000"/>
<text x="206.66666666666666" y="512.4" fill="#111" font-size="small" font-family="monospace" font-weight="bold" text-anchor="end" transform="rotate(-60, 206.66666666666666, 512.4)">
mail
</text>
<rect x="222.33333333333331" y="439.530551489426" width="10.444444444444443" height="58.469448510573976" fill="#7070f8" data-tooltip="1.00x baseline speed (No JIT)"/>
<line x1="222.33333333333331" y1="439.4641181877393" x2="232.77777777777777" y2="439.4641181877393" stroke="#000"/>
<line x1="222.33333333333331" y1="439.59698479111273" x2="232.77777777777777" y2="439.59698479111273" stroke="#000"/>
<line x1="227.55555555555554" y1="439.4641181877393" x2="227.55555555555554" y2="439.59698479111273" stroke="#000"/>
<rect x="232.77777777777777" y="421.5394383325868" width="10.444444444444443" height="76.46056166741313" fill="orange" data-tooltip="1.31x baseline speed (YJIT)"/>
<line x1="232.77777777777777" y1="421.43710609187434" x2="243.22222222222223" y2="421.43710609187434" stroke="#000"/>
<line x1="232.77777777777777" y1="421.6417705732993" x2="243.22222222222223" y2="421.6417705732993" stroke="#000"/>
<line x1="238.0" y1="421.43710609187434" x2="238.0" y2="421.6417705732993" stroke="#000"/>
<line x1="238.0" y1="498.0" x2="238.0" y2="502.79999999999995" stroke="#000"/>
<text x="238.0" y="512.4" fill="#111" font-size="small" font-family="monospace" font-weight="bold" text-anchor="end" transform="rotate(-60, 238.0, 512.4)">
psych-load
</text>
<rect x="253.66666666666666" y="439.530551489426" width="10.444444444444443" height="58.469448510573976" fill="#7070f8" data-tooltip="1.00x baseline speed (No JIT)"/>
<line x1="253.66666666666666" y1="439.3481419850175" x2="264.1111111111111" y2="439.3481419850175" stroke="#000"/>
<line x1="253.66666666666666" y1="439.71296099383454" x2="264.1111111111111" y2="439.71296099383454" stroke="#000"/>
<line x1="258.8888888888889" y1="439.3481419850175" x2="258.8888888888889" y2="439.71296099383454" stroke="#000"/>
<rect x="264.1111111111111" y="427.4618765512296" width="10.444444444444443" height="70.53812344877036" fill="orange" data-tooltip="1.21x baseline speed (YJIT)"/>
<line x1="264.1111111111111" y1="427.23055068864886" x2="274.5555555555555" y2="427.23055068864886" stroke="#000"/>
<line x1="264.1111111111111" y1="427.69320241381024" x2="274.5555555555555" y2="427.69320241381024" stroke="#000"/>
<line x1="269.3333333333333" y1="427.23055068864886" x2="269.3333333333333" y2="427.69320241381024" stroke="#000"/>
<line x1="269.3333333333333" y1="498.0" x2="269.3333333333333" y2="502.79999999999995" stroke="#000"/>
<text x="269.3333333333333" y="512.4" fill="#111" font-size="small" font-family="monospace" font-weight="bold" text-anchor="end" transform="rotate(-60, 269.3333333333333, 512.4)">
railsbench
</text>
<rect x="285.00000000000006" y="439.530551489426" width="10.444444444444443" height="58.469448510573976" fill="#7070f8" data-tooltip="1.00x baseline speed (No JIT)"/>
<line x1="285.00000000000006" y1="435.3710679065835" x2="295.44444444444446" y2="435.3710679065835" stroke="#000"/>
<line x1="285.00000000000006" y1="443.69003507226853" x2="295.44444444444446" y2="443.69003507226853" stroke="#000"/>
<line x1="290.2222222222223" y1="435.3710679065835" x2="290.2222222222223" y2="443.69003507226853" stroke="#000"/>
<rect x="295.44444444444446" y="435.365467814318" width="10.444444444444443" height="62.63453218568191" fill="orange" data-tooltip="1.07x baseline speed (YJIT)"/>
<line x1="295.44444444444446" y1="428.1716399634136" x2="305.88888888888886" y2="428.1716399634136" stroke="#000"/>
<line x1="295.44444444444446" y1="442.5592956652224" x2="305.88888888888886" y2="442.5592956652224" stroke="#000"/>
<line x1="300.6666666666667" y1="428.1716399634136" x2="300.6666666666667" y2="442.5592956652224" stroke="#000"/>
<line x1="300.6666666666667" y1="498.0" x2="300.6666666666667" y2="502.79999999999995" stroke="#000"/>
<text x="300.6666666666667" y="512.4" fill="#111" font-size="small" font-family="monospace" font-weight="bold" text-anchor="end" transform="rotate(-60, 300.6666666666667, 512.4)">
ruby-lsp
</text>
<rect x="316.33333333333337" y="439.530551489426" width="10.444444444444443" height="58.469448510573976" fill="#7070f8" data-tooltip="1.00x baseline speed (No JIT)"/>
<line x1="316.33333333333337" y1="439.31237474412154" x2="326.77777777777777" y2="439.31237474412154" stroke="#000"/>
<line x1="316.33333333333337" y1="439.7487282347305" x2="326.77777777777777" y2="439.7487282347305" stroke="#000"/>
<line x1="321.5555555555556" y1="439.31237474412154" x2="321.5555555555556" y2="439.7487282347305" stroke="#000"/>
<rect x="326.77777777777777" y="388.6787187351676" width="10.444444444444443" height="109.32128126483236" fill="orange" data-tooltip="1.87x baseline speed (YJIT)"/>
<line x1="326.77777777777777" y1="388.20469765245537" x2="337.22222222222223" y2="388.20469765245537" stroke="#000"/>
<line x1="326.77777777777777" y1="389.1527398178798" x2="337.22222222222223" y2="389.1527398178798" stroke="#000"/>
<line x1="332.0" y1="388.20469765245537" x2="332.0" y2="389.1527398178798" stroke="#000"/>
<line x1="332.0" y1="498.0" x2="332.0" y2="502.79999999999995" stroke="#000"/>
<text x="332.0" y="512.4" fill="#111" font-size="small" font-family="monospace" font-weight="bold" text-anchor="end" transform="rotate(-60, 332.0, 512.4)">
binarytrees
</text>
<rect x="347.6666666666667" y="439.530551489426" width="10.444444444444443" height="58.469448510573976" fill="#7070f8" data-tooltip="1.00x baseline speed (No JIT)"/>
<line x1="347.6666666666667" y1="439.29654289826584" x2="358.1111111111111" y2="439.29654289826584" stroke="#000"/>
<line x1="347.6666666666667" y1="439.7645600805862" x2="358.1111111111111" y2="439.7645600805862" stroke="#000"/>
<line x1="352.8888888888889" y1="439.29654289826584" x2="352.8888888888889" y2="439.7645600805862" stroke="#000"/>
<rect x="358.1111111111111" y="411.87125934554854" width="10.444444444444443" height="86.12874065445138" fill="orange" data-tooltip="1.47x baseline speed (YJIT)"/>
<line x1="358.1111111111111" y1="411.52009858991016" x2="368.55555555555554" y2="411.52009858991016" stroke="#000"/>
<line x1="358.1111111111111" y1="412.22242010118686" x2="368.55555555555554" y2="412.22242010118686" stroke="#000"/>
<line x1="363.3333333333333" y1="411.52009858991016" x2="363.3333333333333" y2="412.22242010118686" stroke="#000"/>
<line x1="363.3333333333333" y1="498.0" x2="363.3333333333333" y2="502.79999999999995" stroke="#000"/>
<text x="363.3333333333333" y="512.4" fill="#111" font-size="small" font-family="monospace" font-weight="bold" text-anchor="end" transform="rotate(-60, 363.3333333333333, 512.4)">
chunky_png
</text>
<rect x="379.0" y="439.530551489426" width="10.444444444444443" height="58.469448510573976" fill="#7070f8" data-tooltip="1.00x baseline speed (No JIT)"/>
<line x1="379.0" y1="438.97835859588656" x2="389.4444444444444" y2="438.97835859588656" stroke="#000"/>
<line x1="379.0" y1="440.0827443829654" x2="389.4444444444444" y2="440.0827443829654" stroke="#000"/>
<line x1="384.22222222222223" y1="438.97835859588656" x2="384.22222222222223" y2="440.0827443829654" stroke="#000"/>
<rect x="389.4444444444444" y="433.25942704355504" width="10.444444444444443" height="64.74057295644485" fill="orange" data-tooltip="1.11x baseline speed (YJIT)"/>
<line x1="389.4444444444444" y1="432.29148203956095" x2="399.88888888888886" y2="432.29148203956095" stroke="#000"/>
<line x1="389.4444444444444" y1="434.22737204754907" x2="399.88888888888886" y2="434.22737204754907" stroke="#000"/>
<line x1="394.6666666666667" y1="432.29148203956095" x2="394.6666666666667" y2="434.22737204754907" stroke="#000"/>
<line x1="394.6666666666667" y1="498.0" x2="394.6666666666667" y2="502.79999999999995" stroke="#000"/>
<text x="394.6666666666667" y="512.4" fill="#111" font-size="small" font-family="monospace" font-weight="bold" text-anchor="end" transform="rotate(-60, 394.6666666666667, 512.4)">
erubi
</text>
<rect x="410.3333333333333" y="439.530551489426" width="10.444444444444443" height="58.469448510573976" fill="#7070f8" data-tooltip="1.00x baseline speed (No JIT)"/>
<line x1="410.3333333333333" y1="438.24502375435077" x2="420.77777777777777" y2="438.24502375435077" stroke="#000"/>
<line x1="410.3333333333333" y1="440.81607922450127" x2="420.77777777777777" y2="440.81607922450127" stroke="#000"/>
<line x1="415.55555555555554" y1="438.24502375435077" x2="415.55555555555554" y2="440.81607922450127" stroke="#000"/>
<rect x="420.77777777777777" y="425.17091817588863" width="10.444444444444443" height="72.82908182411124" fill="orange" data-tooltip="1.25x baseline speed (YJIT)"/>
<line x1="420.77777777777777" y1="422.7797302121151" x2="431.2222222222222" y2="422.7797302121151" stroke="#000"/>
<line x1="420.77777777777777" y1="427.5621061396622" x2="431.2222222222222" y2="427.5621061396622" stroke="#000"/>
<line x1="426.0" y1="422.7797302121151" x2="426.0" y2="427.5621061396622" stroke="#000"/>
<line x1="426.0" y1="498.0" x2="426.0" y2="502.79999999999995" stroke="#000"/>
<text x="426.0" y="512.4" fill="#111" font-size="small" font-family="monospace" font-weight="bold" text-anchor="end" transform="rotate(-60, 426.0, 512.4)">
erubi_rails
</text>
<rect x="441.66666666666663" y="439.530551489426" width="10.444444444444443" height="58.469448510573976" fill="#7070f8" data-tooltip="1.00x baseline speed (No JIT)"/>
<line x1="441.66666666666663" y1="438.93413393686905" x2="452.1111111111111" y2="438.93413393686905" stroke="#000"/>
<line x1="441.66666666666663" y1="440.126969041983" x2="452.1111111111111" y2="440.126969041983" stroke="#000"/>
<line x1="446.8888888888889" y1="438.93413393686905" x2="446.8888888888889" y2="440.126969041983" stroke="#000"/>
<rect x="452.1111111111111" y="439.62584838337165" width="10.444444444444443" height="58.37415161662835" fill="orange" data-tooltip="1.00x baseline speed (YJIT)"/>
<line x1="452.1111111111111" y1="438.75945722916083" x2="462.5555555555555" y2="438.75945722916083" stroke="#000"/>
<line x1="452.1111111111111" y1="440.4922395375825" x2="462.5555555555555" y2="440.4922395375825" stroke="#000"/>
<line x1="457.3333333333333" y1="438.75945722916083" x2="457.3333333333333" y2="440.4922395375825" stroke="#000"/>
<line x1="457.3333333333333" y1="498.0" x2="457.3333333333333" y2="502.79999999999995" stroke="#000"/>
<text x="457.3333333333333" y="512.4" fill="#111" font-size="small" font-family="monospace" font-weight="bold" text-anchor="end" transform="rotate(-60, 457.3333333333333, 512.4)">
etanni
</text>
<rect x="473.0" y="439.530551489426" width="10.444444444444443" height="58.469448510573976" fill="#7070f8" data-tooltip="1.00x baseline speed (No JIT)"/>
<line x1="473.0" y1="438.76638182381976" x2="483.4444444444444" y2="438.76638182381976" stroke="#000"/>
<line x1="473.0" y1="440.2947211550323" x2="483.4444444444444" y2="440.2947211550323" stroke="#000"/>
<line x1="478.22222222222223" y1="438.76638182381976" x2="478.22222222222223" y2="440.2947211550323" stroke="#000"/>
<rect x="483.4444444444444" y="349.0608974356584" width="10.444444444444443" height="148.9391025643416" fill="orange" data-tooltip="2.55x baseline speed (YJIT)"/>
<line x1="483.4444444444444" y1="347.0969377625637" x2="493.8888888888888" y2="347.0969377625637" stroke="#000"/>
<line x1="483.4444444444444" y1="351.02485710875305" x2="493.8888888888888" y2="351.02485710875305" stroke="#000"/>
<line x1="488.66666666666663" y1="347.0969377625637" x2="488.66666666666663" y2="351.02485710875305" stroke="#000"/>
<line x1="488.66666666666663" y1="498.0" x2="488.66666666666663" y2="502.79999999999995" stroke="#000"/>
<text x="488.66666666666663" y="512.4" fill="#111" font-size="small" font-family="monospace" font-weight="bold" text-anchor="end" transform="rotate(-60, 488.66666666666663, 512.4)">
fannkuchredux
</text>
<rect x="504.3333333333333" y="439.530551489426" width="10.444444444444443" height="58.469448510573976" fill="#7070f8" data-tooltip="1.00x baseline speed (No JIT)"/>
<line x1="504.3333333333333" y1="439.409449555561" x2="514.7777777777778" y2="439.409449555561" stroke="#000"/>
<line x1="504.3333333333333" y1="439.651653423291" x2="514.7777777777778" y2="439.651653423291" stroke="#000"/>
<line x1="509.55555555555554" y1="439.409449555561" x2="509.55555555555554" y2="439.651653423291" stroke="#000"/>
<rect x="514.7777777777778" y="425.10641002817846" width="10.444444444444443" height="72.89358997182154" fill="orange" data-tooltip="1.25x baseline speed (YJIT)"/>
<line x1="514.7777777777778" y1="424.8627022311364" x2="525.2222222222223" y2="424.8627022311364" stroke="#000"/>
<line x1="514.7777777777778" y1="425.35011782522054" x2="525.2222222222223" y2="425.35011782522054" stroke="#000"/>
<line x1="520.0" y1="424.8627022311364" x2="520.0" y2="425.35011782522054" stroke="#000"/>
<line x1="520.0" y1="498.0" x2="520.0" y2="502.79999999999995" stroke="#000"/>
<text x="520.0" y="512.4" fill="#111" font-size="small" font-family="monospace" font-weight="bold" text-anchor="end" transform="rotate(-60, 520.0, 512.4)">
lee
</text>
<rect x="535.6666666666666" y="439.530551489426" width="10.444444444444443" height="58.469448510573976" fill="#7070f8" data-tooltip="1.00x baseline speed (No JIT)"/>
<line x1="535.6666666666666" y1="438.70064004519" x2="546.1111111111111" y2="438.70064004519" stroke="#000"/>
<line x1="535.6666666666666" y1="440.360462933662" x2="546.1111111111111" y2="440.360462933662" stroke="#000"/>
<line x1="540.8888888888889" y1="438.70064004519" x2="540.8888888888889" y2="440.360462933662" stroke="#000"/>
<rect x="546.1111111111111" y="405.321947367169" width="10.444444444444443" height="92.67805263283091" fill="orange" data-tooltip="1.59x baseline speed (YJIT)"/>
<line x1="546.1111111111111" y1="404.005434829458" x2="556.5555555555555" y2="404.005434829458" stroke="#000"/>
<line x1="546.1111111111111" y1="406.63845990487994" x2="556.5555555555555" y2="406.63845990487994" stroke="#000"/>
<line x1="551.3333333333334" y1="404.005434829458" x2="551.3333333333334" y2="406.63845990487994" stroke="#000"/>
<line x1="551.3333333333334" y1="498.0" x2="551.3333333333334" y2="502.79999999999995" stroke="#000"/>
<text x="551.3333333333334" y="512.4" fill="#111" font-size="small" font-family="monospace" font-weight="bold" text-anchor="end" transform="rotate(-60, 551.3333333333334, 512.4)">
nbody
</text>
<rect x="567.0" y="439.530551489426" width="10.444444444444443" height="58.469448510573976" fill="#7070f8" data-tooltip="1.00x baseline speed (No JIT)"/>
<line x1="567.0" y1="439.22848201961835" x2="577.4444444444445" y2="439.22848201961835" stroke="#000"/>
<line x1="567.0" y1="439.8326209592337" x2="577.4444444444445" y2="439.8326209592337" stroke="#000"/>
<line x1="572.2222222222222" y1="439.22848201961835" x2="572.2222222222222" y2="439.8326209592337" stroke="#000"/>
<rect x="577.4444444444445" y="414.70769100756286" width="10.444444444444443" height="83.29230899243706" fill="orange" data-tooltip="1.42x baseline speed (YJIT)"/>
<line x1="577.4444444444445" y1="414.1763872111056" x2="587.8888888888889" y2="414.1763872111056" stroke="#000"/>
<line x1="577.4444444444445" y1="415.23899480402014" x2="587.8888888888889" y2="415.23899480402014" stroke="#000"/>
<line x1="582.6666666666666" y1="414.1763872111056" x2="582.6666666666666" y2="415.23899480402014" stroke="#000"/>
<line x1="582.6666666666666" y1="498.0" x2="582.6666666666666" y2="502.79999999999995" stroke="#000"/>
<text x="582.6666666666666" y="512.4" fill="#111" font-size="small" font-family="monospace" font-weight="bold" text-anchor="end" transform="rotate(-60, 582.6666666666666, 512.4)">
optcarrot
</text>
<rect x="598.3333333333333" y="439.530551489426" width="10.444444444444443" height="58.469448510573976" fill="#7070f8" data-tooltip="1.00x baseline speed (No JIT)"/>
<line x1="598.3333333333333" y1="439.3026250242109" x2="608.7777777777777" y2="439.3026250242109" stroke="#000"/>
<line x1="598.3333333333333" y1="439.75847795464114" x2="608.7777777777777" y2="439.75847795464114" stroke="#000"/>
<line x1="603.5555555555555" y1="439.3026250242109" x2="603.5555555555555" y2="439.75847795464114" stroke="#000"/>
<rect x="608.7777777777777" y="409.7068330982586" width="10.444444444444443" height="88.29316690174142" fill="orange" data-tooltip="1.51x baseline speed (YJIT)"/>
<line x1="608.7777777777777" y1="409.24614423106357" x2="619.2222222222223" y2="409.24614423106357" stroke="#000"/>
<line x1="608.7777777777777" y1="410.1675219654536" x2="619.2222222222223" y2="410.1675219654536" stroke="#000"/>
<line x1="614.0" y1="409.24614423106357" x2="614.0" y2="410.1675219654536" stroke="#000"/>
<line x1="614.0" y1="498.0" x2="614.0" y2="502.79999999999995" stroke="#000"/>
<text x="614.0" y="512.4" fill="#111" font-size="small" font-family="monospace" font-weight="bold" text-anchor="end" transform="rotate(-60, 614.0, 512.4)">
rubykon
</text>
<rect x="629.6666666666666" y="439.530551489426" width="10.444444444444443" height="58.469448510573976" fill="#7070f8" data-tooltip="1.00x baseline speed (No JIT)"/>
<line x1="629.6666666666666" y1="439.4576024923705" x2="640.1111111111111" y2="439.4576024923705" stroke="#000"/>
<line x1="629.6666666666666" y1="439.60350048648155" x2="640.1111111111111" y2="439.60350048648155" stroke="#000"/>
<line x1="634.8888888888888" y1="439.4576024923705" x2="634.8888888888888" y2="439.60350048648155" stroke="#000"/>
<rect x="640.1111111111111" y="277.97447062806685" width="10.444444444444443" height="220.02552937193312" fill="orange" data-tooltip="3.76x baseline speed (YJIT)"/>
<line x1="640.1111111111111" y1="277.6806784464074" x2="650.5555555555555" y2="277.6806784464074" stroke="#000"/>
<line x1="640.1111111111111" y1="278.26826280972625" x2="650.5555555555555" y2="278.26826280972625" stroke="#000"/>
<line x1="645.3333333333333" y1="277.6806784464074" x2="645.3333333333333" y2="278.26826280972625" stroke="#000"/>
<line x1="645.3333333333333" y1="498.0" x2="645.3333333333333" y2="502.79999999999995" stroke="#000"/>
<text x="645.3333333333333" y="512.4" fill="#111" font-size="small" font-family="monospace" font-weight="bold" text-anchor="end" transform="rotate(-60, 645.3333333333333, 512.4)">
30k_ifelse
</text>
<rect x="660.9999999999999" y="439.530551489426" width="10.444444444444443" height="58.469448510573976" fill="#7070f8" data-tooltip="1.00x baseline speed (No JIT)"/>
<line x1="660.9999999999999" y1="439.4114772772988" x2="671.4444444444443" y2="439.4114772772988" stroke="#000"/>
<line x1="660.9999999999999" y1="439.64962570155325" x2="671.4444444444443" y2="439.64962570155325" stroke="#000"/>
<line x1="666.2222222222222" y1="439.4114772772988" x2="666.2222222222222" y2="439.64962570155325" stroke="#000"/>
<rect x="671.4444444444443" y="234.444935376649" width="10.444444444444443" height="263.555064623351" fill="orange" data-tooltip="4.51x baseline speed (YJIT)"/>
<line x1="671.4444444444443" y1="233.8823585821066" x2="681.8888888888889" y2="233.8823585821066" stroke="#000"/>
<line x1="671.4444444444443" y1="235.00751217119137" x2="681.8888888888889" y2="235.00751217119137" stroke="#000"/>
<line x1="676.6666666666666" y1="233.8823585821066" x2="676.6666666666666" y2="235.00751217119137" stroke="#000"/>
<line x1="676.6666666666666" y1="498.0" x2="676.6666666666666" y2="502.79999999999995" stroke="#000"/>
<text x="676.6666666666666" y="512.4" fill="#111" font-size="small" font-family="monospace" font-weight="bold" text-anchor="end" transform="rotate(-60, 676.6666666666666, 512.4)">
30k_methods
</text>
<rect x="692.3333333333333" y="439.530551489426" width="10.444444444444443" height="58.469448510573976" fill="#7070f8" data-tooltip="1.00x baseline speed (No JIT)"/>
<line x1="692.3333333333333" y1="439.5086000171634" x2="702.7777777777777" y2="439.5086000171634" stroke="#000"/>
<line x1="692.3333333333333" y1="439.5525029616886" x2="702.7777777777777" y2="439.5525029616886" stroke="#000"/>
<line x1="697.5555555555554" y1="439.5086000171634" x2="697.5555555555554" y2="439.5525029616886" stroke="#000"/>
<rect x="702.7777777777777" y="347.65667351317234" width="10.444444444444443" height="150.34332648682764" fill="orange" data-tooltip="2.57x baseline speed (YJIT)"/>
<line x1="702.7777777777777" y1="347.5918879470419" x2="713.2222222222222" y2="347.5918879470419" stroke="#000"/>
<line x1="702.7777777777777" y1="347.7214590793028" x2="713.2222222222222" y2="347.7214590793028" stroke="#000"/>
<line x1="708.0" y1="347.5918879470419" x2="708.0" y2="347.7214590793028" stroke="#000"/>
<line x1="708.0" y1="498.0" x2="708.0" y2="502.79999999999995" stroke="#000"/>
<text x="708.0" y="512.4" fill="#111" font-size="small" font-family="monospace" font-weight="bold" text-anchor="end" transform="rotate(-60, 708.0, 512.4)">
cfunc_itself
</text>
<rect x="723.6666666666665" y="439.530551489426" width="10.444444444444443" height="58.469448510573976" fill="#7070f8" data-tooltip="1.00x baseline speed (No JIT)"/>
<line x1="723.6666666666665" y1="438.0907503207113" x2="734.1111111111111" y2="438.0907503207113" stroke="#000"/>
<line x1="723.6666666666665" y1="440.9703526581407" x2="734.1111111111111" y2="440.9703526581407" stroke="#000"/>
<line x1="728.8888888888888" y1="438.0907503207113" x2="728.8888888888888" y2="440.9703526581407" stroke="#000"/>
<rect x="734.1111111111111" y="315.4756256049834" width="10.444444444444443" height="182.52437439501657" fill="orange" data-tooltip="3.12x baseline speed (YJIT)"/>
<line x1="734.1111111111111" y1="310.9809569158668" x2="744.5555555555555" y2="310.9809569158668" stroke="#000"/>
<line x1="734.1111111111111" y1="319.97029429410003" x2="744.5555555555555" y2="319.97029429410003" stroke="#000"/>
<line x1="739.3333333333333" y1="310.9809569158668" x2="739.3333333333333" y2="319.97029429410003" stroke="#000"/>
<line x1="739.3333333333333" y1="498.0" x2="739.3333333333333" y2="502.79999999999995" stroke="#000"/>
<text x="739.3333333333333" y="512.4" fill="#111" font-size="small" font-family="monospace" font-weight="bold" text-anchor="end" transform="rotate(-60, 739.3333333333333, 512.4)">
fib
</text>
<rect x="754.9999999999999" y="439.530551489426" width="10.444444444444443" height="58.469448510573976" fill="#7070f8" data-tooltip="1.00x baseline speed (No JIT)"/>
<line x1="754.9999999999999" y1="439.01867592627303" x2="765.4444444444443" y2="439.01867592627303" stroke="#000"/>
<line x1="754.9999999999999" y1="440.042427052579" x2="765.4444444444443" y2="440.042427052579" stroke="#000"/>
<line x1="760.2222222222222" y1="439.01867592627303" x2="760.2222222222222" y2="440.042427052579" stroke="#000"/>
<rect x="765.4444444444443" y="370.27225880864023" width="10.444444444444443" height="127.72774119135973" fill="orange" data-tooltip="2.18x baseline speed (YJIT)"/>
<line x1="765.4444444444443" y1="369.153975684566" x2="775.8888888888888" y2="369.153975684566" stroke="#000"/>
<line x1="765.4444444444443" y1="371.3905419327145" x2="775.8888888888888" y2="371.3905419327145" stroke="#000"/>
<line x1="770.6666666666666" y1="369.153975684566" x2="770.6666666666666" y2="371.3905419327145" stroke="#000"/>
<line x1="770.6666666666666" y1="498.0" x2="770.6666666666666" y2="502.79999999999995" stroke="#000"/>
<text x="770.6666666666666" y="512.4" fill="#111" font-size="small" font-family="monospace" font-weight="bold" text-anchor="end" transform="rotate(-60, 770.6666666666666, 512.4)">
getivar
</text>
<rect x="786.3333333333333" y="439.530551489426" width="10.444444444444443" height="58.469448510573976" fill="#7070f8" data-tooltip="1.00x baseline speed (No JIT)"/>
<line x1="786.3333333333333" y1="439.32706516810225" x2="796.7777777777777" y2="439.32706516810225" stroke="#000"/>
<line x1="786.3333333333333" y1="439.7340378107498" x2="796.7777777777777" y2="439.7340378107498" stroke="#000"/>
<line x1="791.5555555555554" y1="439.32706516810225" x2="791.5555555555554" y2="439.7340378107498" stroke="#000"/>
<rect x="796.7777777777777" y="220.40193959380326" width="10.444444444444443" height="277.5980604061967" fill="orange" data-tooltip="4.75x baseline speed (YJIT)"/>
<line x1="796.7777777777777" y1="219.43529233526502" x2="807.2222222222222" y2="219.43529233526502" stroke="#000"/>
<line x1="796.7777777777777" y1="221.36858685234154" x2="807.2222222222222" y2="221.36858685234154" stroke="#000"/>
<line x1="801.9999999999999" y1="219.43529233526502" x2="801.9999999999999" y2="221.36858685234154" stroke="#000"/>
<line x1="801.9999999999999" y1="498.0" x2="801.9999999999999" y2="502.79999999999995" stroke="#000"/>
<text x="801.9999999999999" y="512.4" fill="#111" font-size="small" font-family="monospace" font-weight="bold" text-anchor="end" transform="rotate(-60, 801.9999999999999, 512.4)">
keyword_args
</text>
<rect x="817.6666666666665" y="439.530551489426" width="10.444444444444443" height="58.469448510573976" fill="#7070f8" data-tooltip="1.00x baseline speed (No JIT)"/>
<line x1="817.6666666666665" y1="438.9234558044864" x2="828.111111111111" y2="438.9234558044864" stroke="#000"/>
<line x1="817.6666666666665" y1="440.1376471743656" x2="828.111111111111" y2="440.1376471743656" stroke="#000"/>
<line x1="822.8888888888888" y1="438.9234558044864" x2="822.8888888888888" y2="440.1376471743656" stroke="#000"/>
<rect x="828.111111111111" y="100.19999999999999" width="10.444444444444443" height="397.79999999999995" fill="orange" data-tooltip="6.80x baseline speed (YJIT)"/>
<line x1="828.111111111111" y1="93.63534844982156" x2="838.5555555555555" y2="93.63534844982156" stroke="#000"/>
<line x1="828.111111111111" y1="106.76465155017841" x2="838.5555555555555" y2="106.76465155017841" stroke="#000"/>
<line x1="833.3333333333333" y1="93.63534844982156" x2="833.3333333333333" y2="106.76465155017841" stroke="#000"/>
<line x1="833.3333333333333" y1="498.0" x2="833.3333333333333" y2="502.79999999999995" stroke="#000"/>
<text x="833.3333333333333" y="512.4" fill="#111" font-size="small" font-family="monospace" font-weight="bold" text-anchor="end" transform="rotate(-60, 833.3333333333333, 512.4)">
respond_to
</text>
<rect x="849.0" y="439.530551489426" width="10.444444444444443" height="58.469448510573976" fill="#7070f8" data-tooltip="1.00x baseline speed (No JIT)"/>
<line x1="849.0" y1="439.19108416589154" x2="859.4444444444445" y2="439.19108416589154" stroke="#000"/>
<line x1="849.0" y1="439.8700188129605" x2="859.4444444444445" y2="439.8700188129605" stroke="#000"/>
<line x1="854.2222222222222" y1="439.19108416589154" x2="854.2222222222222" y2="439.8700188129605" stroke="#000"/>
<rect x="859.4444444444445" y="287.3663637802686" width="10.444444444444443" height="210.6336362197313" fill="orange" data-tooltip="3.60x baseline speed (YJIT)"/>
<line x1="859.4444444444445" y1="286.1431038093595" x2="869.8888888888889" y2="286.1431038093595" stroke="#000"/>
<line x1="859.4444444444445" y1="288.5896237511778" x2="869.8888888888889" y2="288.5896237511778" stroke="#000"/>
<line x1="864.6666666666667" y1="286.1431038093595" x2="864.6666666666667" y2="288.5896237511778" stroke="#000"/>
<line x1="864.6666666666667" y1="498.0" x2="864.6666666666667" y2="502.79999999999995" stroke="#000"/>
<text x="864.6666666666667" y="512.4" fill="#111" font-size="small" font-family="monospace" font-weight="bold" text-anchor="end" transform="rotate(-60, 864.6666666666667, 512.4)">
setivar
</text>
<rect x="880.3333333333333" y="439.530551489426" width="10.444444444444443" height="58.469448510573976" fill="#7070f8" data-tooltip="1.00x baseline speed (No JIT)"/>
<line x1="880.3333333333333" y1="438.0314185567573" x2="890.7777777777778" y2="438.0314185567573" stroke="#000"/>
<line x1="880.3333333333333" y1="441.02968442209476" x2="890.7777777777778" y2="441.02968442209476" stroke="#000"/>
<line x1="885.5555555555555" y1="438.0314185567573" x2="885.5555555555555" y2="441.02968442209476" stroke="#000"/>
<rect x="890.7777777777778" y="358.8283778820026" width="10.444444444444443" height="139.1716221179974" fill="orange" data-tooltip="2.38x baseline speed (YJIT)"/>
<line x1="890.7777777777778" y1="354.7944310052722" x2="901.2222222222223" y2="354.7944310052722" stroke="#000"/>
<line x1="890.7777777777778" y1="362.862324758733" x2="901.2222222222223" y2="362.862324758733" stroke="#000"/>
<line x1="896.0" y1="354.7944310052722" x2="896.0" y2="362.862324758733" stroke="#000"/>
<line x1="896.0" y1="498.0" x2="896.0" y2="502.79999999999995" stroke="#000"/>
<text x="896.0" y="512.4" fill="#111" font-size="small" font-family="monospace" font-weight="bold" text-anchor="end" transform="rotate(-60, 896.0, 512.4)">
setivar_object
</text>
<rect x="911.6666666666666" y="439.530551489426" width="10.444444444444443" height="58.469448510573976" fill="#7070f8" data-tooltip="1.00x baseline speed (No JIT)"/>
<line x1="911.6666666666666" y1="435.50117569437793" x2="922.1111111111111" y2="435.50117569437793" stroke="#000"/>
<line x1="911.6666666666666" y1="443.5599272844741" x2="922.1111111111111" y2="443.5599272844741" stroke="#000"/>
<line x1="916.8888888888889" y1="435.50117569437793" x2="916.8888888888889" y2="443.5599272844741" stroke="#000"/>
<rect x="922.1111111111111" y="406.3168712047317" width="10.444444444444443" height="91.6831287952683" fill="orange" data-tooltip="1.57x baseline speed (YJIT)"/>
<line x1="922.1111111111111" y1="399.95520325630906" x2="932.5555555555555" y2="399.95520325630906" stroke="#000"/>
<line x1="922.1111111111111" y1="412.6785391531543" x2="932.5555555555555" y2="412.6785391531543" stroke="#000"/>
<line x1="927.3333333333334" y1="399.95520325630906" x2="927.3333333333334" y2="412.6785391531543" stroke="#000"/>
<line x1="927.3333333333334" y1="498.0" x2="927.3333333333334" y2="502.79999999999995" stroke="#000"/>
<text x="927.3333333333334" y="512.4" fill="#111" font-size="small" font-family="monospace" font-weight="bold" text-anchor="end" transform="rotate(-60, 927.3333333333334, 512.4)">
str_concat
</text>
</svg>