<svg viewBox="0 0 1000 600" xmlns="http://www.w3.org/2000/svg" xmlns:xlink="http://www.w3.org/1999/xlink" width="100%" height="100%">

<rect x="50.0" y="30.0" width="940.0" height="467.99999999999994" stroke="#000" fill="#EEE"/>
<line x1="42.0" y1="497.9999999999999" x2="50.0" y2="497.9999999999999" stroke="#000"/>
<text x="26.000000000000004" y="497.9999999999999" text-anchor="end" font-weight="bold" font-size="small" fill="#111">
0.0
</text>
<line x1="42.0" y1="413.7975010469107" x2="50.0" y2="413.7975010469107" stroke="#000"/>
<text x="26.000000000000004" y="413.7975010469107" text-anchor="end" font-weight="bold" font-size="small" fill="#111">
2.0
</text>
<line x1="42.0" y1="329.59500209382156" x2="50.0" y2="329.59500209382156" stroke="#000"/>
<text x="26.000000000000004" y="329.59500209382156" text-anchor="end" font-weight="bold" font-size="small" fill="#111">
4.0
</text>
<line x1="42.0" y1="245.3925031407325" x2="50.0" y2="245.3925031407325" stroke="#000"/>
<text x="26.000000000000004" y="245.3925031407325" text-anchor="end" font-weight="bold" font-size="small" fill="#111">
6.0
</text>
<line x1="42.0" y1="161.1900041876433" x2="50.0" y2="161.1900041876433" stroke="#000"/>
<text x="26.000000000000004" y="161.1900041876433" text-anchor="end" font-weight="bold" font-size="small" fill="#111">
8.0
</text>
<rect x="268.5" y="36.00000000000001" width="80.0" height="18.0" fill="#7070f8" stroke="#888"/>
<text x="308.5" y="52.50000000000001" font-size="small" text-anchor="middle" font-weight="bold" fill="#EEE">
No JIT
</text>
<rect x="691.4999999999999" y="36.00000000000001" width="80.0" height="18.0" fill="orange" stroke="#888"/>
<text x="731.4999999999999" y="52.50000000000001" font-size="small" text-anchor="middle" font-weight="bold" fill="#EEE">
YJIT
</text>
<rect x="97.0" y="455.89875052345536" width="28.2" height="42.10124947654458" fill="#7070f8" data-tooltip="1.00x baseline speed (No JIT)"/>
<line x1="97.0" y1="455.8938318978244" x2="125.2" y2="455.8938318978244" stroke="#000"/>
<line x1="97.0" y1="455.9036691490864" x2="125.2" y2="455.9036691490864" stroke="#000"/>
<line x1="111.10000000000001" y1="455.8938318978244" x2="111.10000000000001" y2="455.9036691490864" stroke="#000"/>
<rect x="125.2" y="268.6930355168552" width="28.2" height="229.30696448314472" fill="orange" data-tooltip="5.45x baseline speed (YJIT)"/>
<line x1="125.2" y1="268.54225798589914" x2="153.4" y2="268.54225798589914" stroke="#000"/>
<line x1="125.2" y1="268.84381304781135" x2="153.4" y2="268.84381304781135" stroke="#000"/>
<line x1="139.3" y1="268.54225798589914" x2="139.3" y2="268.84381304781135" stroke="#000"/>
<line x1="139.3" y1="498.0" x2="139.3" y2="502.79999999999995" stroke="#000"/>
<text x="139.3" y="512.4" fill="#111" font-size="small" font-family="monospace" font-weight="bold" text-anchor="end" transform="rotate(-60, 139.3, 512.4)">
30k_ifelse
</text>
<rect x="181.6" y="455.89875052345536" width="28.2" height="42.10124947654458" fill="#7070f8" data-tooltip="1.00x baseline speed (No JIT)"/>
<line x1="181.6" y1="455.89690870887756" x2="209.79999999999998" y2="455.89690870887756" stroke="#000"/>
<line x1="181.6" y1="455.9005923380332" x2="209.79999999999998" y2="455.9005923380332" stroke="#000"/>
<line x1="195.7" y1="455.89690870887756" x2="195.7" y2="455.9005923380332" stroke="#000"/>
<rect x="209.79999999999998" y="222.67490389993145" width="28.2" height="275.3250961000685" fill="orange" data-tooltip="6.54x baseline speed (YJIT)"/>
<line x1="209.79999999999998" y1="222.55521305279794" x2="238.0" y2="222.55521305279794" stroke="#000"/>
<line x1="209.79999999999998" y1="222.79459474706496" x2="238.0" y2="222.79459474706496" stroke="#000"/>
<line x1="223.89999999999998" y1="222.55521305279794" x2="223.89999999999998" y2="222.79459474706496" stroke="#000"/>
<line x1="223.89999999999998" y1="498.0" x2="223.89999999999998" y2="502.79999999999995" stroke="#000"/>
<text x="223.89999999999998" y="512.4" fill="#111" font-size="small" font-family="monospace" font-weight="bold" text-anchor="end" transform="rotate(-60, 223.89999999999998, 512.4)">
30k_methods
</text>
<rect x="266.2" y="455.89875052345536" width="28.2" height="42.10124947654458" fill="#7070f8" data-tooltip="1.00x baseline speed (No JIT)"/>
<line x1="266.2" y1="455.8303955339448" x2="294.4" y2="455.8303955339448" stroke="#000"/>
<line x1="266.2" y1="455.96710551296593" x2="294.4" y2="455.96710551296593" stroke="#000"/>
<line x1="280.3" y1="455.8303955339448" x2="280.3" y2="455.96710551296593" stroke="#000"/>
<rect x="294.4" y="397.2328148769195" width="28.2" height="100.76718512308042" fill="orange" data-tooltip="2.39x baseline speed (YJIT)"/>
<line x1="294.4" y1="396.9933392739618" x2="322.6" y2="396.9933392739618" stroke="#000"/>
<line x1="294.4" y1="397.47229047987724" x2="322.6" y2="397.47229047987724" stroke="#000"/>
<line x1="308.5" y1="396.9933392739618" x2="308.5" y2="397.47229047987724" stroke="#000"/>
<line x1="308.5" y1="498.0" x2="308.5" y2="502.79999999999995" stroke="#000"/>
<text x="308.5" y="512.4" fill="#111" font-size="small" font-family="monospace" font-weight="bold" text-anchor="end" transform="rotate(-60, 308.5, 512.4)">
cfunc_itself
</text>
<rect x="350.8" y="455.89875052345536" width="28.2" height="42.10124947654458" fill="#7070f8" data-tooltip="1.00x baseline speed (No JIT)"/>
<line x1="350.8" y1="455.8711712221692" x2="379.0" y2="455.8711712221692" stroke="#000"/>
<line x1="350.8" y1="455.9263298247416" x2="379.0" y2="455.9263298247416" stroke="#000"/>
<line x1="364.9" y1="455.8711712221692" x2="364.9" y2="455.9263298247416" stroke="#000"/>
<rect x="379.0" y="333.91638860061084" width="28.2" height="164.08361139938907" fill="orange" data-tooltip="3.90x baseline speed (YJIT)"/>
<line x1="379.0" y1="333.7489060916887" x2="407.2" y2="333.7489060916887" stroke="#000"/>
<line x1="379.0" y1="334.08387110953305" x2="407.2" y2="334.08387110953305" stroke="#000"/>
<line x1="393.1" y1="333.7489060916887" x2="393.1" y2="334.08387110953305" stroke="#000"/>
<line x1="393.1" y1="498.0" x2="393.1" y2="502.79999999999995" stroke="#000"/>
<text x="393.1" y="512.4" fill="#111" font-size="small" font-family="monospace" font-weight="bold" text-anchor="end" transform="rotate(-60, 393.1, 512.4)">
fib
</text>
<rect x="435.40000000000003" y="455.89875052345536" width="28.2" height="42.10124947654458" fill="#7070f8" data-tooltip="1.00x baseline speed (No JIT)"/>
<line x1="435.40000000000003" y1="455.87711302072427" x2="463.6" y2="455.87711302072427" stroke="#000"/>
<line x1="435.40000000000003" y1="455.9203880261865" x2="463.6" y2="455.9203880261865" stroke="#000"/>
<line x1="449.5" y1="455.87711302072427" x2="449.5" y2="455.9203880261865" stroke="#000"/>
<rect x="463.6" y="391.5696698512273" width="28.2" height="106.43033014877264" fill="orange" data-tooltip="2.53x baseline speed (YJIT)"/>
<line x1="463.6" y1="391.4967407958586" x2="491.8" y2="391.4967407958586" stroke="#000"/>
<line x1="463.6" y1="391.6425989065959" x2="491.8" y2="391.6425989065959" stroke="#000"/>
<line x1="477.7" y1="391.4967407958586" x2="477.7" y2="391.6425989065959" stroke="#000"/>
<line x1="477.7" y1="498.0" x2="477.7" y2="502.79999999999995" stroke="#000"/>
<text x="477.7" y="512.4" fill="#111" font-size="small" font-family="monospace" font-weight="bold" text-anchor="end" transform="rotate(-60, 477.7, 512.4)">
getivar
</text>
<rect x="520.0" y="455.89875052345536" width="28.2" height="42.10124947654458" fill="#7070f8" data-tooltip="1.00x baseline speed (No JIT)"/>
<line x1="520.0" y1="455.840233465347" x2="548.2" y2="455.840233465347" stroke="#000"/>
<line x1="520.0" y1="455.95726758156377" x2="548.2" y2="455.95726758156377" stroke="#000"/>
<line x1="534.1" y1="455.840233465347" x2="534.1" y2="455.95726758156377" stroke="#000"/>
<rect x="548.2" y="266.8288055716965" width="28.2" height="231.17119442830344" fill="orange" data-tooltip="5.49x baseline speed (YJIT)"/>
<line x1="548.2" y1="266.397424384429" x2="576.4" y2="266.397424384429" stroke="#000"/>
<line x1="548.2" y1="267.26018675896404" x2="576.4" y2="267.26018675896404" stroke="#000"/>
<line x1="562.3000000000001" y1="266.397424384429" x2="562.3000000000001" y2="267.26018675896404" stroke="#000"/>
<line x1="562.3000000000001" y1="498.0" x2="562.3000000000001" y2="502.79999999999995" stroke="#000"/>
<text x="562.3000000000001" y="512.4" fill="#111" font-size="small" font-family="monospace" font-weight="bold" text-anchor="end" transform="rotate(-60, 562.3000000000001, 512.4)">
keyword_args
</text>
<rect x="604.5999999999999" y="455.89875052345536" width="28.2" height="42.10124947654458" fill="#7070f8" data-tooltip="1.00x baseline speed (No JIT)"/>
<line x1="604.5999999999999" y1="455.8045292168321" x2="632.8" y2="455.8045292168321" stroke="#000"/>
<line x1="604.5999999999999" y1="455.99297183007866" x2="632.8" y2="455.99297183007866" stroke="#000"/>
<line x1="618.6999999999999" y1="455.8045292168321" x2="618.6999999999999" y2="455.99297183007866" stroke="#000"/>
<rect x="632.8" y="100.19999999999999" width="28.2" height="397.79999999999995" fill="orange" data-tooltip="9.45x baseline speed (YJIT)"/>
<line x1="632.8" y1="98.38510085837474" x2="660.9999999999999" y2="98.38510085837474" stroke="#000"/>
<line x1="632.8" y1="102.01489914162524" x2="660.9999999999999" y2="102.01489914162524" stroke="#000"/>
<line x1="646.8999999999999" y1="98.38510085837474" x2="646.8999999999999" y2="102.01489914162524" stroke="#000"/>
<line x1="646.8999999999999" y1="498.0" x2="646.8999999999999" y2="502.79999999999995" stroke="#000"/>
<text x="646.8999999999999" y="512.4" fill="#111" font-size="small" font-family="monospace" font-weight="bold" text-anchor="end" transform="rotate(-60, 646.8999999999999, 512.4)">
respond_to
</text>
<rect x="689.1999999999999" y="455.89875052345536" width="28.2" height="42.10124947654458" fill="#7070f8" data-tooltip="1.00x baseline speed (No JIT)"/>
<line x1="689.1999999999999" y1="455.88127638106425" x2="717.4" y2="455.88127638106425" stroke="#000"/>
<line x1="689.1999999999999" y1="455.9162246658465" x2="717.4" y2="455.9162246658465" stroke="#000"/>
<line x1="703.3" y1="455.88127638106425" x2="703.3" y2="455.9162246658465" stroke="#000"/>
<rect x="717.4" y="290.32788155734596" width="28.2" height="207.67211844265398" fill="orange" data-tooltip="4.93x baseline speed (YJIT)"/>
<line x1="717.4" y1="290.1236018497264" x2="745.5999999999999" y2="290.1236018497264" stroke="#000"/>
<line x1="717.4" y1="290.53216126496557" x2="745.5999999999999" y2="290.53216126496557" stroke="#000"/>
<line x1="731.4999999999999" y1="290.1236018497264" x2="731.4999999999999" y2="290.53216126496557" stroke="#000"/>
<line x1="731.4999999999999" y1="498.0" x2="731.4999999999999" y2="502.79999999999995" stroke="#000"/>
<text x="731.4999999999999" y="512.4" fill="#111" font-size="small" font-family="monospace" font-weight="bold" text-anchor="end" transform="rotate(-60, 731.4999999999999, 512.4)">
setivar
</text>
<rect x="773.8" y="455.89875052345536" width="28.2" height="42.10124947654458" fill="#7070f8" data-tooltip="1.00x baseline speed (No JIT)"/>
<line x1="773.8" y1="455.07683224077704" x2="801.9999999999999" y2="455.07683224077704" stroke="#000"/>
<line x1="773.8" y1="456.72066880613374" x2="801.9999999999999" y2="456.72066880613374" stroke="#000"/>
<line x1="787.9" y1="455.07683224077704" x2="787.9" y2="456.72066880613374" stroke="#000"/>
<rect x="801.9999999999999" y="403.2195513447334" width="28.2" height="94.78044865526647" fill="orange" data-tooltip="2.25x baseline speed (YJIT)"/>
<line x1="801.9999999999999" y1="401.1821623821769" x2="830.1999999999999" y2="401.1821623821769" stroke="#000"/>
<line x1="801.9999999999999" y1="405.25694030728994" x2="830.1999999999999" y2="405.25694030728994" stroke="#000"/>
<line x1="816.0999999999999" y1="401.1821623821769" x2="816.0999999999999" y2="405.25694030728994" stroke="#000"/>
<line x1="816.0999999999999" y1="498.0" x2="816.0999999999999" y2="502.79999999999995" stroke="#000"/>
<text x="816.0999999999999" y="512.4" fill="#111" font-size="small" font-family="monospace" font-weight="bold" text-anchor="end" transform="rotate(-60, 816.0999999999999, 512.4)">
setivar_object
</text>
<rect x="858.4" y="455.89875052345536" width="28.2" height="42.10124947654458" fill="#7070f8" data-tooltip="1.00x baseline speed (No JIT)"/>
<line x1="858.4" y1="455.6030850130962" x2="886.5999999999999" y2="455.6030850130962" stroke="#000"/>
<line x1="858.4" y1="456.1944160338146" x2="886.5999999999999" y2="456.1944160338146" stroke="#000"/>
<line x1="872.4999999999999" y1="455.6030850130962" x2="872.4999999999999" y2="456.1944160338146" stroke="#000"/>
<rect x="886.5999999999999" y="417.115538330712" width="28.2" height="80.88446166928796" fill="orange" data-tooltip="1.92x baseline speed (YJIT)"/>
<line x1="886.5999999999999" y1="415.80900758477065" x2="914.8" y2="415.80900758477065" stroke="#000"/>
<line x1="886.5999999999999" y1="418.4220690766534" x2="914.8" y2="418.4220690766534" stroke="#000"/>
<line x1="900.6999999999999" y1="415.80900758477065" x2="900.6999999999999" y2="418.4220690766534" stroke="#000"/>
<line x1="900.6999999999999" y1="498.0" x2="900.6999999999999" y2="502.79999999999995" stroke="#000"/>
<text x="900.6999999999999" y="512.4" fill="#111" font-size="small" font-family="monospace" font-weight="bold" text-anchor="end" transform="rotate(-60, 900.6999999999999, 512.4)">
str_concat
</text>
</svg>