<svg viewBox="0 0 1000 600" xmlns="http://www.w3.org/2000/svg" xmlns:xlink="http://www.w3.org/1999/xlink" width="100%" height="100%">

<rect x="50.0" y="30.0" width="940.0" height="467.99999999999994" stroke="#000" fill="#EEE"/>
<line x1="42.0" y1="497.9999999999999" x2="50.0" y2="497.9999999999999" stroke="#000"/>
<text x="26.000000000000004" y="497.9999999999999" text-anchor="end" font-weight="bold" font-size="small" fill="#111">
0.0
</text>
<line x1="42.0" y1="448.07320964865755" x2="50.0" y2="448.07320964865755" stroke="#000"/>
<text x="26.000000000000004" y="448.07320964865755" text-anchor="end" font-weight="bold" font-size="small" fill="#111">
0.2
</text>
<line x1="42.0" y1="398.1464192973152" x2="50.0" y2="398.1464192973152" stroke="#000"/>
<text x="26.000000000000004" y="398.1464192973152" text-anchor="end" font-weight="bold" font-size="small" fill="#111">
0.4
</text>
<line x1="42.0" y1="348.2196289459729" x2="50.0" y2="348.2196289459729" stroke="#000"/>
<text x="26.000000000000004" y="348.2196289459729" text-anchor="end" font-weight="bold" font-size="small" fill="#111">
0.6
</text>
<line x1="42.0" y1="298.29283859463055" x2="50.0" y2="298.29283859463055" stroke="#000"/>
<text x="26.000000000000004" y="298.29283859463055" text-anchor="end" font-weight="bold" font-size="small" fill="#111">
0.8
</text>
<line x1="42.0" y1="248.36604824328822" x2="50.0" y2="248.36604824328822" stroke="#000"/>
<text x="26.000000000000004" y="248.36604824328822" text-anchor="end" font-weight="bold" font-size="small" fill="#111">
1.0
</text>
<line x1="42.0" y1="198.4392578919459" x2="50.0" y2="198.4392578919459" stroke="#000"/>
<text x="26.000000000000004" y="198.4392578919459" text-anchor="end" font-weight="bold" font-size="small" fill="#111">
1.2
</text>
<line x1="42.0" y1="148.51246754060358" x2="50.0" y2="148.51246754060358" stroke="#000"/>
<text x="26.000000000000004" y="148.51246754060358" text-anchor="end" font-weight="bold" font-size="small" fill="#111">
1.4
</text>
<rect x="268.5" y="36.00000000000001" width="80.0" height="18.0" fill="#7070f8" stroke="#888"/>
<text x="308.5" y="52.50000000000001" font-size="small" text-anchor="middle" font-weight="bold" fill="#EEE">
No JIT
</text>
<rect x="691.4999999999999" y="36.00000000000001" width="80.0" height="18.0" fill="orange" stroke="#888"/>
<text x="731.4999999999999" y="52.50000000000001" font-size="small" text-anchor="middle" font-weight="bold" fill="#EEE">
YJIT
</text>
<rect x="97.0" y="248.36604824328822" width="40.285714285714285" height="249.63395175671172" fill="#7070f8" data-tooltip="1.00x baseline speed (No JIT)"/>
<line x1="97.0" y1="246.37326371432522" x2="137.28571428571428" y2="246.37326371432522" stroke="#000"/>
<line x1="97.0" y1="250.35883277225125" x2="137.28571428571428" y2="250.35883277225125" stroke="#000"/>
<line x1="117.14285714285714" y1="246.37326371432522" x2="117.14285714285714" y2="250.35883277225125" stroke="#000"/>
<rect x="137.28571428571428" y="100.19999999999999" width="40.285714285714285" height="397.79999999999995" fill="orange" data-tooltip="1.59x baseline speed (YJIT)"/>
<line x1="137.28571428571428" y1="96.09707686382455" x2="177.57142857142858" y2="96.09707686382455" stroke="#000"/>
<line x1="137.28571428571428" y1="104.30292313617542" x2="177.57142857142858" y2="104.30292313617542" stroke="#000"/>
<line x1="157.42857142857142" y1="96.09707686382455" x2="157.42857142857142" y2="104.30292313617542" stroke="#000"/>
<line x1="157.42857142857142" y1="498.0" x2="157.42857142857142" y2="502.79999999999995" stroke="#000"/>
<text x="157.42857142857142" y="512.4" fill="#111" font-size="small" font-family="monospace" font-weight="bold" text-anchor="end" transform="rotate(-60, 157.42857142857142, 512.4)">
activerecord
</text>
<rect x="217.85714285714286" y="248.36604824328822" width="40.285714285714285" height="249.63395175671172" fill="#7070f8" data-tooltip="1.00x baseline speed (No JIT)"/>
<line x1="217.85714285714286" y1="245.89606682088737" x2="258.1428571428571" y2="245.89606682088737" stroke="#000"/>
<line x1="217.85714285714286" y1="250.8360296656891" x2="258.1428571428571" y2="250.8360296656891" stroke="#000"/>
<line x1="238.0" y1="245.89606682088737" x2="238.0" y2="250.8360296656891" stroke="#000"/>
<rect x="258.1428571428571" y="144.00197084218644" width="40.285714285714285" height="353.99802915781345" fill="orange" data-tooltip="1.42x baseline speed (YJIT)"/>
<line x1="258.1428571428571" y1="136.65032089048285" x2="298.4285714285714" y2="136.65032089048285" stroke="#000"/>
<line x1="258.1428571428571" y1="151.35362079389003" x2="298.4285714285714" y2="151.35362079389003" stroke="#000"/>
<line x1="278.2857142857142" y1="136.65032089048285" x2="278.2857142857142" y2="151.35362079389003" stroke="#000"/>
<line x1="278.2857142857143" y1="498.0" x2="278.2857142857143" y2="502.79999999999995" stroke="#000"/>
<text x="278.2857142857143" y="512.4" fill="#111" font-size="small" font-family="monospace" font-weight="bold" text-anchor="end" transform="rotate(-60, 278.2857142857143, 512.4)">
hexapdf
</text>
<rect x="338.7142857142857" y="248.36604824328822" width="40.285714285714285" height="249.63395175671172" fill="#7070f8" data-tooltip="1.00x baseline speed (No JIT)"/>
<line x1="338.7142857142857" y1="243.46443360747762" x2="379.0" y2="243.46443360747762" stroke="#000"/>
<line x1="338.7142857142857" y1="253.26766287909885" x2="379.0" y2="253.26766287909885" stroke="#000"/>
<line x1="358.8571428571429" y1="243.46443360747762" x2="358.8571428571429" y2="253.26766287909885" stroke="#000"/>
<rect x="379.0" y="108.31021810058677" width="40.285714285714285" height="389.68978189941316" fill="orange" data-tooltip="1.56x baseline speed (YJIT)"/>
<line x1="379.0" y1="99.33352693363935" x2="419.2857142857143" y2="99.33352693363935" stroke="#000"/>
<line x1="379.0" y1="117.2869092675342" x2="419.2857142857143" y2="117.2869092675342" stroke="#000"/>
<line x1="399.1428571428571" y1="99.33352693363935" x2="399.1428571428571" y2="117.2869092675342" stroke="#000"/>
<line x1="399.14285714285717" y1="498.0" x2="399.14285714285717" y2="502.79999999999995" stroke="#000"/>
<text x="399.14285714285717" y="512.4" fill="#111" font-size="small" font-family="monospace" font-weight="bold" text-anchor="end" transform="rotate(-60, 399.14285714285717, 512.4)">
liquid-render
</text>
<rect x="459.5714285714285" y="248.36604824328822" width="40.285714285714285" height="249.63395175671172" fill="#7070f8" data-tooltip="1.00x baseline speed (No JIT)"/>
<line x1="459.5714285714285" y1="248.08557898055957" x2="499.8571428571428" y2="248.08557898055957" stroke="#000"/>
<line x1="459.5714285714285" y1="248.64651750601686" x2="499.8571428571428" y2="248.64651750601686" stroke="#000"/>
<line x1="479.71428571428567" y1="248.08557898055957" x2="479.71428571428567" y2="248.64651750601686" stroke="#000"/>
<rect x="499.8571428571428" y="209.39457273554987" width="40.285714285714285" height="288.6054272644501" fill="orange" data-tooltip="1.16x baseline speed (YJIT)"/>
<line x1="499.8571428571428" y1="208.84029683280667" x2="540.142857142857" y2="208.84029683280667" stroke="#000"/>
<line x1="499.8571428571428" y1="209.94884863829304" x2="540.142857142857" y2="209.94884863829304" stroke="#000"/>
<line x1="519.9999999999999" y1="208.84029683280667" x2="519.9999999999999" y2="209.94884863829304" stroke="#000"/>
<line x1="519.9999999999999" y1="498.0" x2="519.9999999999999" y2="502.79999999999995" stroke="#000"/>
<text x="519.9999999999999" y="512.4" fill="#111" font-size="small" font-family="monospace" font-weight="bold" text-anchor="end" transform="rotate(-60, 519.9999999999999, 512.4)">
mail
</text>
<rect x="580.4285714285714" y="248.36604824328822" width="40.285714285714285" height="249.63395175671172" fill="#7070f8" data-tooltip="1.00x baseline speed (No JIT)"/>
<line x1="580.4285714285714" y1="248.25585213759396" x2="620.7142857142857" y2="248.25585213759396" stroke="#000"/>
<line x1="580.4285714285714" y1="248.4762443489825" x2="620.7142857142857" y2="248.4762443489825" stroke="#000"/>
<line x1="600.5714285714286" y1="248.25585213759396" x2="600.5714285714286" y2="248.4762443489825" stroke="#000"/>
<rect x="620.7142857142857" y="157.8873565280355" width="40.285714285714285" height="340.1126434719644" fill="orange" data-tooltip="1.36x baseline speed (YJIT)"/>
<line x1="620.7142857142857" y1="157.73119549030193" x2="660.9999999999999" y2="157.73119549030193" stroke="#000"/>
<line x1="620.7142857142857" y1="158.04351756576906" x2="660.9999999999999" y2="158.04351756576906" stroke="#000"/>
<line x1="640.8571428571428" y1="157.73119549030193" x2="640.8571428571428" y2="158.04351756576906" stroke="#000"/>
<line x1="640.8571428571428" y1="498.0" x2="640.8571428571428" y2="502.79999999999995" stroke="#000"/>
<text x="640.8571428571428" y="512.4" fill="#111" font-size="small" font-family="monospace" font-weight="bold" text-anchor="end" transform="rotate(-60, 640.8571428571428, 512.4)">
psych-load
</text>
<rect x="701.2857142857143" y="248.36604824328822" width="40.285714285714285" height="249.63395175671172" fill="#7070f8" data-tooltip="1.00x baseline speed (No JIT)"/>
<line x1="701.2857142857143" y1="246.11240728215571" x2="741.5714285714286" y2="246.11240728215571" stroke="#000"/>
<line x1="701.2857142857143" y1="250.61968920442072" x2="741.5714285714286" y2="250.61968920442072" stroke="#000"/>
<line x1="721.4285714285714" y1="246.11240728215571" x2="721.4285714285714" y2="250.61968920442072" stroke="#000"/>
<rect x="741.5714285714286" y="161.15631496604573" width="40.285714285714285" height="336.8436850339542" fill="orange" data-tooltip="1.35x baseline speed (YJIT)"/>
<line x1="741.5714285714286" y1="154.32384088455993" x2="781.8571428571428" y2="154.32384088455993" stroke="#000"/>
<line x1="741.5714285714286" y1="167.98878904753153" x2="781.8571428571428" y2="167.98878904753153" stroke="#000"/>
<line x1="761.7142857142857" y1="154.32384088455993" x2="761.7142857142857" y2="167.98878904753153" stroke="#000"/>
<line x1="761.7142857142857" y1="498.0" x2="761.7142857142857" y2="502.79999999999995" stroke="#000"/>
<text x="761.7142857142857" y="512.4" fill="#111" font-size="small" font-family="monospace" font-weight="bold" text-anchor="end" transform="rotate(-60, 761.7142857142857, 512.4)">
railsbench
</text>
<rect x="822.1428571428571" y="248.36604824328822" width="40.285714285714285" height="249.63395175671172" fill="#7070f8" data-tooltip="1.00x baseline speed (No JIT)"/>
<line x1="822.1428571428571" y1="226.25607739098132" x2="862.4285714285713" y2="226.25607739098132" stroke="#000"/>
<line x1="822.1428571428571" y1="270.4760190955951" x2="862.4285714285713" y2="270.4760190955951" stroke="#000"/>
<line x1="842.2857142857142" y1="226.25607739098132" x2="842.2857142857142" y2="270.4760190955951" stroke="#000"/>
<rect x="862.4285714285713" y="217.08115129674627" width="40.285714285714285" height="280.9188487032537" fill="orange" data-tooltip="1.13x baseline speed (YJIT)"/>
<line x1="862.4285714285713" y1="161.81453387371744" x2="902.7142857142856" y2="161.81453387371744" stroke="#000"/>
<line x1="862.4285714285713" y1="272.3477687197751" x2="902.7142857142856" y2="272.3477687197751" stroke="#000"/>
<line x1="882.5714285714284" y1="161.81453387371744" x2="882.5714285714284" y2="272.3477687197751" stroke="#000"/>
<line x1="882.5714285714284" y1="498.0" x2="882.5714285714284" y2="502.79999999999995" stroke="#000"/>
<text x="882.5714285714284" y="512.4" fill="#111" font-size="small" font-family="monospace" font-weight="bold" text-anchor="end" transform="rotate(-60, 882.5714285714284, 512.4)">
ruby-lsp
</text>
</svg>