<svg viewBox="0 0 1000 600" xmlns="http://www.w3.org/2000/svg" xmlns:xlink="http://www.w3.org/1999/xlink" width="100%" height="100%">

<rect x="50.0" y="30.0" width="940.0" height="467.99999999999994" stroke="#000" fill="#EEE"/>
<line x1="42.0" y1="497.9999999999999" x2="50.0" y2="497.9999999999999" stroke="#000"/>
<text x="26.000000000000004" y="497.9999999999999" text-anchor="end" font-weight="bold" font-size="small" fill="#111">
0.0
</text>
<line x1="42.0" y1="424.12297049747417" x2="50.0" y2="424.12297049747417" stroke="#000"/>
<text x="26.000000000000004" y="424.12297049747417" text-anchor="end" font-weight="bold" font-size="small" fill="#111">
0.5
</text>
<line x1="42.0" y1="350.2459409949484" x2="50.0" y2="350.2459409949484" stroke="#000"/>
<text x="26.000000000000004" y="350.2459409949484" text-anchor="end" font-weight="bold" font-size="small" fill="#111">
1.0
</text>
<line x1="42.0" y1="276.36891149242257" x2="50.0" y2="276.36891149242257" stroke="#000"/>
<text x="26.000000000000004" y="276.36891149242257" text-anchor="end" font-weight="bold" font-size="small" fill="#111">
1.5
</text>
<line x1="42.0" y1="202.4918819898968" x2="50.0" y2="202.4918819898968" stroke="#000"/>
<text x="26.000000000000004" y="202.4918819898968" text-anchor="end" font-weight="bold" font-size="small" fill="#111">
2.0
</text>
<line x1="42.0" y1="128.61485248737102" x2="50.0" y2="128.61485248737102" stroke="#000"/>
<text x="26.000000000000004" y="128.61485248737102" text-anchor="end" font-weight="bold" font-size="small" fill="#111">
2.5
</text>
<rect x="268.5" y="36.00000000000001" width="80.0" height="18.0" fill="#7070f8" stroke="#888"/>
<text x="308.5" y="52.50000000000001" font-size="small" text-anchor="middle" font-weight="bold" fill="#EEE">
No JIT
</text>
<rect x="691.4999999999999" y="36.00000000000001" width="80.0" height="18.0" fill="orange" stroke="#888"/>
<text x="731.4999999999999" y="52.50000000000001" font-size="small" text-anchor="middle" font-weight="bold" fill="#EEE">
YJIT
</text>
<rect x="97.0" y="350.2459409949484" width="28.2" height="147.75405900505157" fill="#7070f8" data-tooltip="1.00x baseline speed (No JIT)"/>
<line x1="97.0" y1="350.11212536712503" x2="125.2" y2="350.11212536712503" stroke="#000"/>
<line x1="97.0" y1="350.37975662277177" x2="125.2" y2="350.37975662277177" stroke="#000"/>
<line x1="111.10000000000001" y1="350.11212536712503" x2="111.10000000000001" y2="350.37975662277177" stroke="#000"/>
<rect x="125.2" y="221.56833853255148" width="28.2" height="276.4316614674484" fill="orange" data-tooltip="1.87x baseline speed (YJIT)"/>
<line x1="125.2" y1="221.15826128858794" x2="153.4" y2="221.15826128858794" stroke="#000"/>
<line x1="125.2" y1="221.97841577651505" x2="153.4" y2="221.97841577651505" stroke="#000"/>
<line x1="139.3" y1="221.15826128858794" x2="139.3" y2="221.97841577651505" stroke="#000"/>
<line x1="139.3" y1="498.0" x2="139.3" y2="502.79999999999995" stroke="#000"/>
<text x="139.3" y="512.4" fill="#111" font-size="small" font-family="monospace" font-weight="bold" text-anchor="end" transform="rotate(-60, 139.3, 512.4)">
binarytrees
</text>
<rect x="181.6" y="350.2459409949484" width="28.2" height="147.75405900505157" fill="#7070f8" data-tooltip="1.00x baseline speed (No JIT)"/>
<line x1="181.6" y1="349.7692792865108" x2="209.79999999999998" y2="349.7692792865108" stroke="#000"/>
<line x1="181.6" y1="350.722602703386" x2="209.79999999999998" y2="350.722602703386" stroke="#000"/>
<line x1="195.7" y1="349.7692792865108" x2="195.7" y2="350.722602703386" stroke="#000"/>
<rect x="209.79999999999998" y="270.23443935452985" width="28.2" height="227.76556064547012" fill="orange" data-tooltip="1.54x baseline speed (YJIT)"/>
<line x1="209.79999999999998" y1="269.49052570259585" x2="238.0" y2="269.49052570259585" stroke="#000"/>
<line x1="209.79999999999998" y1="270.97835300646386" x2="238.0" y2="270.97835300646386" stroke="#000"/>
<line x1="223.89999999999998" y1="269.49052570259585" x2="223.89999999999998" y2="270.97835300646386" stroke="#000"/>
<line x1="223.89999999999998" y1="498.0" x2="223.89999999999998" y2="502.79999999999995" stroke="#000"/>
<text x="223.89999999999998" y="512.4" fill="#111" font-size="small" font-family="monospace" font-weight="bold" text-anchor="end" transform="rotate(-60, 223.89999999999998, 512.4)">
chunky_png
</text>
<rect x="266.2" y="350.2459409949484" width="28.2" height="147.75405900505157" fill="#7070f8" data-tooltip="1.00x baseline speed (No JIT)"/>
<line x1="266.2" y1="349.0628730725714" x2="294.4" y2="349.0628730725714" stroke="#000"/>
<line x1="266.2" y1="351.4290089173254" x2="294.4" y2="351.4290089173254" stroke="#000"/>
<line x1="280.3" y1="349.0628730725714" x2="280.3" y2="351.4290089173254" stroke="#000"/>
<rect x="294.4" y="328.6922628880452" width="28.2" height="169.30773711195476" fill="orange" data-tooltip="1.15x baseline speed (YJIT)"/>
<line x1="294.4" y1="326.49549313471744" x2="322.6" y2="326.49549313471744" stroke="#000"/>
<line x1="294.4" y1="330.8890326413729" x2="322.6" y2="330.8890326413729" stroke="#000"/>
<line x1="308.5" y1="326.49549313471744" x2="308.5" y2="330.8890326413729" stroke="#000"/>
<line x1="308.5" y1="498.0" x2="308.5" y2="502.79999999999995" stroke="#000"/>
<text x="308.5" y="512.4" fill="#111" font-size="small" font-family="monospace" font-weight="bold" text-anchor="end" transform="rotate(-60, 308.5, 512.4)">
erubi
</text>
<rect x="350.8" y="350.2459409949484" width="28.2" height="147.75405900505157" fill="#7070f8" data-tooltip="1.00x baseline speed (No JIT)"/>
<line x1="350.8" y1="347.56966785406604" x2="379.0" y2="347.56966785406604" stroke="#000"/>
<line x1="350.8" y1="352.9222141358307" x2="379.0" y2="352.9222141358307" stroke="#000"/>
<line x1="364.9" y1="347.56966785406604" x2="364.9" y2="352.9222141358307" stroke="#000"/>
<rect x="379.0" y="298.30078770697446" width="28.2" height="199.6992122930255" fill="orange" data-tooltip="1.35x baseline speed (YJIT)"/>
<line x1="379.0" y1="292.17201554727495" x2="407.2" y2="292.17201554727495" stroke="#000"/>
<line x1="379.0" y1="304.4295598666739" x2="407.2" y2="304.4295598666739" stroke="#000"/>
<line x1="393.1" y1="292.17201554727495" x2="393.1" y2="304.4295598666739" stroke="#000"/>
<line x1="393.1" y1="498.0" x2="393.1" y2="502.79999999999995" stroke="#000"/>
<text x="393.1" y="512.4" fill="#111" font-size="small" font-family="monospace" font-weight="bold" text-anchor="end" transform="rotate(-60, 393.1, 512.4)">
erubi_rails
</text>
<rect x="435.40000000000003" y="350.2459409949484" width="28.2" height="147.75405900505157" fill="#7070f8" data-tooltip="1.00x baseline speed (No JIT)"/>
<line x1="435.40000000000003" y1="349.6956591421862" x2="463.6" y2="349.6956591421862" stroke="#000"/>
<line x1="435.40000000000003" y1="350.79622284771057" x2="463.6" y2="350.79622284771057" stroke="#000"/>
<line x1="449.5" y1="349.6956591421862" x2="449.5" y2="350.79622284771057" stroke="#000"/>
<rect x="463.6" y="350.59513018771554" width="28.2" height="147.4048698122844" fill="orange" data-tooltip="1.00x baseline speed (YJIT)"/>
<line x1="463.6" y1="349.728954960218" x2="491.8" y2="349.728954960218" stroke="#000"/>
<line x1="463.6" y1="351.4613054152131" x2="491.8" y2="351.4613054152131" stroke="#000"/>
<line x1="477.7" y1="349.728954960218" x2="477.7" y2="351.4613054152131" stroke="#000"/>
<line x1="477.7" y1="498.0" x2="477.7" y2="502.79999999999995" stroke="#000"/>
<text x="477.7" y="512.4" fill="#111" font-size="small" font-family="monospace" font-weight="bold" text-anchor="end" transform="rotate(-60, 477.7, 512.4)">
etanni
</text>
<rect x="520.0" y="350.2459409949484" width="28.2" height="147.75405900505157" fill="#7070f8" data-tooltip="1.00x baseline speed (No JIT)"/>
<line x1="520.0" y1="348.726234961764" x2="548.2" y2="348.726234961764" stroke="#000"/>
<line x1="520.0" y1="351.7656470281327" x2="548.2" y2="351.7656470281327" stroke="#000"/>
<line x1="534.1" y1="348.726234961764" x2="534.1" y2="351.7656470281327" stroke="#000"/>
<rect x="548.2" y="100.19999999999999" width="28.2" height="397.79999999999995" fill="orange" data-tooltip="2.69x baseline speed (YJIT)"/>
<line x1="548.2" y1="96.09826641657621" x2="576.4" y2="96.09826641657621" stroke="#000"/>
<line x1="548.2" y1="104.30173358342377" x2="576.4" y2="104.30173358342377" stroke="#000"/>
<line x1="562.3000000000001" y1="96.09826641657621" x2="562.3000000000001" y2="104.30173358342377" stroke="#000"/>
<line x1="562.3000000000001" y1="498.0" x2="562.3000000000001" y2="502.79999999999995" stroke="#000"/>
<text x="562.3000000000001" y="512.4" fill="#111" font-size="small" font-family="monospace" font-weight="bold" text-anchor="end" transform="rotate(-60, 562.3000000000001, 512.4)">
fannkuchredux
</text>
<rect x="604.5999999999999" y="350.2459409949484" width="28.2" height="147.75405900505157" fill="#7070f8" data-tooltip="1.00x baseline speed (No JIT)"/>
<line x1="604.5999999999999" y1="349.59113601993823" x2="632.8" y2="349.59113601993823" stroke="#000"/>
<line x1="604.5999999999999" y1="350.9007459699585" x2="632.8" y2="350.9007459699585" stroke="#000"/>
<line x1="618.6999999999999" y1="349.59113601993823" x2="618.6999999999999" y2="350.9007459699585" stroke="#000"/>
<rect x="632.8" y="293.92767774065754" width="28.2" height="204.0723222593424" fill="orange" data-tooltip="1.38x baseline speed (YJIT)"/>
<line x1="632.8" y1="292.9954740833261" x2="660.9999999999999" y2="292.9954740833261" stroke="#000"/>
<line x1="632.8" y1="294.859881397989" x2="660.9999999999999" y2="294.859881397989" stroke="#000"/>
<line x1="646.8999999999999" y1="292.9954740833261" x2="646.8999999999999" y2="294.859881397989" stroke="#000"/>
<line x1="646.8999999999999" y1="498.0" x2="646.8999999999999" y2="502.79999999999995" stroke="#000"/>
<text x="646.8999999999999" y="512.4" fill="#111" font-size="small" font-family="monospace" font-weight="bold" text-anchor="end" transform="rotate(-60, 646.8999999999999, 512.4)">
lee
</text>
<rect x="689.1999999999999" y="350.2459409949484" width="28.2" height="147.75405900505157" fill="#7070f8" data-tooltip="1.00x baseline speed (No JIT)"/>
<line x1="689.1999999999999" y1="348.7966643149205" x2="717.4" y2="348.7966643149205" stroke="#000"/>
<line x1="689.1999999999999" y1="351.6952176749762" x2="717.4" y2="351.6952176749762" stroke="#000"/>
<line x1="703.3" y1="348.7966643149205" x2="703.3" y2="351.6952176749762" stroke="#000"/>
<rect x="717.4" y="262.3850883720063" width="28.2" height="235.61491162799365" fill="orange" data-tooltip="1.59x baseline speed (YJIT)"/>
<line x1="717.4" y1="260.06614237411634" x2="745.5999999999999" y2="260.06614237411634" stroke="#000"/>
<line x1="717.4" y1="264.70403436989625" x2="745.5999999999999" y2="264.70403436989625" stroke="#000"/>
<line x1="731.4999999999999" y1="260.06614237411634" x2="731.4999999999999" y2="264.70403436989625" stroke="#000"/>
<line x1="731.4999999999999" y1="498.0" x2="731.4999999999999" y2="502.79999999999995" stroke="#000"/>
<text x="731.4999999999999" y="512.4" fill="#111" font-size="small" font-family="monospace" font-weight="bold" text-anchor="end" transform="rotate(-60, 731.4999999999999, 512.4)">
nbody
</text>
<rect x="773.8" y="350.2459409949484" width="28.2" height="147.75405900505157" fill="#7070f8" data-tooltip="1.00x baseline speed (No JIT)"/>
<line x1="773.8" y1="349.3920282049508" x2="801.9999999999999" y2="349.3920282049508" stroke="#000"/>
<line x1="773.8" y1="351.099853784946" x2="801.9999999999999" y2="351.099853784946" stroke="#000"/>
<line x1="787.9" y1="349.3920282049508" x2="787.9" y2="351.099853784946" stroke="#000"/>
<rect x="801.9999999999999" y="302.7318335136784" width="28.2" height="195.2681664863216" fill="orange" data-tooltip="1.32x baseline speed (YJIT)"/>
<line x1="801.9999999999999" y1="301.2539660231919" x2="830.1999999999999" y2="301.2539660231919" stroke="#000"/>
<line x1="801.9999999999999" y1="304.2097010041649" x2="830.1999999999999" y2="304.2097010041649" stroke="#000"/>
<line x1="816.0999999999999" y1="301.2539660231919" x2="816.0999999999999" y2="304.2097010041649" stroke="#000"/>
<line x1="816.0999999999999" y1="498.0" x2="816.0999999999999" y2="502.79999999999995" stroke="#000"/>
<text x="816.0999999999999" y="512.4" fill="#111" font-size="small" font-family="monospace" font-weight="bold" text-anchor="end" transform="rotate(-60, 816.0999999999999, 512.4)">
optcarrot
</text>
<rect x="858.4" y="350.2459409949484" width="28.2" height="147.75405900505157" fill="#7070f8" data-tooltip="1.00x baseline speed (No JIT)"/>
<line x1="858.4" y1="349.71183827689345" x2="886.5999999999999" y2="349.71183827689345" stroke="#000"/>
<line x1="858.4" y1="350.78004371300335" x2="886.5999999999999" y2="350.78004371300335" stroke="#000"/>
<line x1="872.4999999999999" y1="349.71183827689345" x2="872.4999999999999" y2="350.78004371300335" stroke="#000"/>
<rect x="886.5999999999999" y="270.9103078907946" width="28.2" height="227.08969210920534" fill="orange" data-tooltip="1.54x baseline speed (YJIT)"/>
<line x1="886.5999999999999" y1="269.6908384285972" x2="914.8" y2="269.6908384285972" stroke="#000"/>
<line x1="886.5999999999999" y1="272.129777352992" x2="914.8" y2="272.129777352992" stroke="#000"/>
<line x1="900.6999999999999" y1="269.6908384285972" x2="900.6999999999999" y2="272.129777352992" stroke="#000"/>
<line x1="900.6999999999999" y1="498.0" x2="900.6999999999999" y2="502.79999999999995" stroke="#000"/>
<text x="900.6999999999999" y="512.4" fill="#111" font-size="small" font-family="monospace" font-weight="bold" text-anchor="end" transform="rotate(-60, 900.6999999999999, 512.4)">
rubykon
</text>
</svg>