<svg viewBox="0 0 1000 600" xmlns="http://www.w3.org/2000/svg" xmlns:xlink="http://www.w3.org/1999/xlink" width="100%" height="100%">

<rect x="50.0" y="30.0" width="940.0" height="467.99999999999994" stroke="#000" fill="#EEE"/>
<line x1="42.0" y1="497.9999999999999" x2="50.0" y2="497.9999999999999" stroke="#000"/>
<text x="26.000000000000004" y="497.9999999999999" text-anchor="end" font-weight="bold" font-size="small" fill="#111">
0.0
</text>
<line x1="42.0" y1="455.8417598865625" x2="50.0" y2="455.8417598865625" stroke="#000"/>
<text x="26.000000000000004" y="455.8417598865625" text-anchor="end" font-weight="bold" font-size="small" fill="#111">
0.2
</text>
<line x1="42.0" y1="413.6835197731251" x2="50.0" y2="413.6835197731251" stroke="#000"/>
<text x="26.000000000000004" y="413.6835197731251" text-anchor="end" font-weight="bold" font-size="small" fill="#111">
0.4
</text>
<line x1="42.0" y1="371.52527965968756" x2="50.0" y2="371.52527965968756" stroke="#000"/>
<text x="26.000000000000004" y="371.52527965968756" text-anchor="end" font-weight="bold" font-size="small" fill="#111">
0.6
</text>
<line x1="42.0" y1="329.36703954625017" x2="50.0" y2="329.36703954625017" stroke="#000"/>
<text x="26.000000000000004" y="329.36703954625017" text-anchor="end" font-weight="bold" font-size="small" fill="#111">
0.8
</text>
<line x1="42.0" y1="287.20879943281267" x2="50.0" y2="287.20879943281267" stroke="#000"/>
<text x="26.000000000000004" y="287.20879943281267" text-anchor="end" font-weight="bold" font-size="small" fill="#111">
1.0
</text>
<line x1="42.0" y1="245.0505593193752" x2="50.0" y2="245.0505593193752" stroke="#000"/>
<text x="26.000000000000004" y="245.0505593193752" text-anchor="end" font-weight="bold" font-size="small" fill="#111">
1.2
</text>
<line x1="42.0" y1="202.8923192059378" x2="50.0" y2="202.8923192059378" stroke="#000"/>
<text x="26.000000000000004" y="202.8923192059378" text-anchor="end" font-weight="bold" font-size="small" fill="#111">
1.4
</text>
<line x1="42.0" y1="160.73407909250034" x2="50.0" y2="160.73407909250034" stroke="#000"/>
<text x="26.000000000000004" y="160.73407909250034" text-anchor="end" font-weight="bold" font-size="small" fill="#111">
1.6
</text>
<line x1="42.0" y1="118.57583897906287" x2="50.0" y2="118.57583897906287" stroke="#000"/>
<text x="26.000000000000004" y="118.57583897906287" text-anchor="end" font-weight="bold" font-size="small" fill="#111">
1.8
</text>
<rect x="197.99999999999997" y="36.00000000000001" width="80.0" height="18.0" fill="#7070f8" stroke="#888"/>
<text x="238.0" y="52.50000000000001" font-size="small" text-anchor="middle" font-weight="bold" fill="#EEE">
No JIT
</text>
<rect x="479.99999999999994" y="36.00000000000001" width="80.0" height="18.0" fill="orange" stroke="#888"/>
<text x="519.9999999999999" y="52.50000000000001" font-size="small" text-anchor="middle" font-weight="bold" fill="#EEE">
MJIT3.0
</text>
<rect x="761.9999999999999" y="36.00000000000001" width="80.0" height="18.0" fill="green" stroke="#888"/>
<text x="801.9999999999999" y="52.50000000000001" font-size="small" text-anchor="middle" font-weight="bold" fill="#EEE">
YJIT
</text>
<rect x="97.0" y="287.20879943281267" width="42.3" height="210.79120056718727" fill="#7070f8" data-tooltip="1.00x baseline speed (No JIT)"/>
<line x1="97.0" y1="286.8094675546989" x2="139.3" y2="286.8094675546989" stroke="#000"/>
<line x1="97.0" y1="287.6081313109264" x2="139.3" y2="287.6081313109264" stroke="#000"/>
<line x1="118.15" y1="286.8094675546989" x2="118.15" y2="287.6081313109264" stroke="#000"/>
<rect x="139.3" y="189.37001892996363" width="42.3" height="308.6299810700363" fill="orange" data-tooltip="1.46x baseline speed (MJIT3.0)"/>
<line x1="139.3" y1="187.73062768140556" x2="181.60000000000002" y2="187.73062768140556" stroke="#000"/>
<line x1="139.3" y1="191.00941017852168" x2="181.60000000000002" y2="191.00941017852168" stroke="#000"/>
<line x1="160.45000000000002" y1="187.73062768140556" x2="160.45000000000002" y2="191.00941017852168" stroke="#000"/>
<rect x="181.6" y="226.48035010873616" width="42.3" height="271.5196498912638" fill="green" data-tooltip="1.29x baseline speed (YJIT)"/>
<line x1="181.6" y1="219.21516314336526" x2="223.89999999999998" y2="219.21516314336526" stroke="#000"/>
<line x1="181.6" y1="233.7455370741071" x2="223.89999999999998" y2="233.7455370741071" stroke="#000"/>
<line x1="202.75" y1="219.21516314336526" x2="202.75" y2="233.7455370741071" stroke="#000"/>
<line x1="181.6" y1="498.0" x2="181.6" y2="502.79999999999995" stroke="#000"/>
<text x="181.6" y="512.4" fill="#111" font-size="small" font-family="monospace" font-weight="bold" text-anchor="end" transform="rotate(-60, 181.6, 512.4)">
binarytrees
</text>
<rect x="266.2" y="287.20879943281267" width="42.3" height="210.79120056718727" fill="#7070f8" data-tooltip="1.00x baseline speed (No JIT)"/>
<line x1="266.2" y1="287.1251702432476" x2="308.5" y2="287.1251702432476" stroke="#000"/>
<line x1="266.2" y1="287.2924286223777" x2="308.5" y2="287.2924286223777" stroke="#000"/>
<line x1="287.35" y1="287.1251702432476" x2="287.35" y2="287.2924286223777" stroke="#000"/>
<rect x="308.5" y="205.9999159030319" width="42.3" height="292.00008409696807" fill="orange" data-tooltip="1.39x baseline speed (MJIT3.0)"/>
<line x1="308.5" y1="202.4619959090457" x2="350.8" y2="202.4619959090457" stroke="#000"/>
<line x1="308.5" y1="209.5378358970181" x2="350.8" y2="209.5378358970181" stroke="#000"/>
<line x1="329.65" y1="202.4619959090457" x2="329.65" y2="209.5378358970181" stroke="#000"/>
<rect x="350.8" y="287.1127701766817" width="42.3" height="210.88722982331825" fill="green" data-tooltip="1.00x baseline speed (YJIT)"/>
<line x1="350.8" y1="286.8764832806616" x2="393.1" y2="286.8764832806616" stroke="#000"/>
<line x1="350.8" y1="287.3490570727018" x2="393.1" y2="287.3490570727018" stroke="#000"/>
<line x1="371.95" y1="286.8764832806616" x2="371.95" y2="287.3490570727018" stroke="#000"/>
<line x1="350.8" y1="498.0" x2="350.8" y2="502.79999999999995" stroke="#000"/>
<text x="350.8" y="512.4" fill="#111" font-size="small" font-family="monospace" font-weight="bold" text-anchor="end" transform="rotate(-60, 350.8, 512.4)">
fannkuchredux
</text>
<rect x="435.40000000000003" y="287.20879943281267" width="42.3" height="210.79120056718727" fill="#7070f8" data-tooltip="1.00x baseline speed (No JIT)"/>
<line x1="435.40000000000003" y1="285.5362815871734" x2="477.7" y2="285.5362815871734" stroke="#000"/>
<line x1="435.40000000000003" y1="288.881317278452" x2="477.7" y2="288.881317278452" stroke="#000"/>
<line x1="456.55" y1="285.5362815871734" x2="456.55" y2="288.881317278452" stroke="#000"/>
<rect x="477.7" y="231.73703476247113" width="42.3" height="266.2629652375288" fill="orange" data-tooltip="1.26x baseline speed (MJIT3.0)"/>
<line x1="477.7" y1="227.77982455306997" x2="520.0" y2="227.77982455306997" stroke="#000"/>
<line x1="477.7" y1="235.6942449718723" x2="520.0" y2="235.6942449718723" stroke="#000"/>
<line x1="498.85" y1="227.77982455306997" x2="498.85" y2="235.6942449718723" stroke="#000"/>
<rect x="520.0" y="203.3422678845889" width="42.3" height="294.6577321154111" fill="green" data-tooltip="1.40x baseline speed (YJIT)"/>
<line x1="520.0" y1="197.88140953262504" x2="562.3000000000001" y2="197.88140953262504" stroke="#000"/>
<line x1="520.0" y1="208.8031262365527" x2="562.3000000000001" y2="208.8031262365527" stroke="#000"/>
<line x1="541.15" y1="197.88140953262504" x2="541.15" y2="208.8031262365527" stroke="#000"/>
<line x1="520.0" y1="498.0" x2="520.0" y2="502.79999999999995" stroke="#000"/>
<text x="520.0" y="512.4" fill="#111" font-size="small" font-family="monospace" font-weight="bold" text-anchor="end" transform="rotate(-60, 520.0, 512.4)">
lee
</text>
<rect x="604.5999999999999" y="287.20879943281267" width="42.3" height="210.79120056718727" fill="#7070f8" data-tooltip="1.00x baseline speed (No JIT)"/>
<line x1="604.5999999999999" y1="287.1363590564955" x2="646.8999999999999" y2="287.1363590564955" stroke="#000"/>
<line x1="604.5999999999999" y1="287.28123980912983" x2="646.8999999999999" y2="287.28123980912983" stroke="#000"/>
<line x1="625.7499999999999" y1="287.1363590564955" x2="625.7499999999999" y2="287.28123980912983" stroke="#000"/>
<rect x="646.8999999999999" y="100.19999999999999" width="42.3" height="397.79999999999995" fill="orange" data-tooltip="1.89x baseline speed (MJIT3.0)"/>
<line x1="646.8999999999999" y1="95.3057805348597" x2="689.1999999999999" y2="95.3057805348597" stroke="#000"/>
<line x1="646.8999999999999" y1="105.09421946514028" x2="689.1999999999999" y2="105.09421946514028" stroke="#000"/>
<line x1="668.05" y1="95.3057805348597" x2="668.05" y2="105.09421946514028" stroke="#000"/>
<rect x="689.1999999999999" y="193.75854033786487" width="42.3" height="304.24145966213507" fill="green" data-tooltip="1.44x baseline speed (YJIT)"/>
<line x1="689.1999999999999" y1="193.62525841100506" x2="731.4999999999999" y2="193.62525841100506" stroke="#000"/>
<line x1="689.1999999999999" y1="193.8918222647247" x2="731.4999999999999" y2="193.8918222647247" stroke="#000"/>
<line x1="710.3499999999999" y1="193.62525841100506" x2="710.3499999999999" y2="193.8918222647247" stroke="#000"/>
<line x1="689.1999999999999" y1="498.0" x2="689.1999999999999" y2="502.79999999999995" stroke="#000"/>
<text x="689.1999999999999" y="512.4" fill="#111" font-size="small" font-family="monospace" font-weight="bold" text-anchor="end" transform="rotate(-60, 689.1999999999999, 512.4)">
nbody
</text>
<rect x="773.8" y="287.20879943281267" width="42.3" height="210.79120056718727" fill="#7070f8" data-tooltip="1.00x baseline speed (No JIT)"/>
<line x1="773.8" y1="286.01823933169504" x2="816.0999999999999" y2="286.01823933169504" stroke="#000"/>
<line x1="773.8" y1="288.3993595339303" x2="816.0999999999999" y2="288.3993595339303" stroke="#000"/>
<line x1="794.9499999999999" y1="286.01823933169504" x2="794.9499999999999" y2="288.3993595339303" stroke="#000"/>
<rect x="816.0999999999999" y="256.421036489455" width="42.3" height="241.57896351054495" fill="orange" data-tooltip="1.15x baseline speed (MJIT3.0)"/>
<line x1="816.0999999999999" y1="253.6607235514" x2="858.4" y2="253.6607235514" stroke="#000"/>
<line x1="816.0999999999999" y1="259.18134942751" x2="858.4" y2="259.18134942751" stroke="#000"/>
<line x1="837.2499999999999" y1="253.6607235514" x2="837.2499999999999" y2="259.18134942751" stroke="#000"/>
<rect x="858.4" y="166.0177260993663" width="42.3" height="331.9822739006336" fill="green" data-tooltip="1.57x baseline speed (YJIT)"/>
<line x1="858.4" y1="163.60560032501633" x2="900.6999999999999" y2="163.60560032501633" stroke="#000"/>
<line x1="858.4" y1="168.4298518737163" x2="900.6999999999999" y2="168.4298518737163" stroke="#000"/>
<line x1="879.55" y1="163.60560032501633" x2="879.55" y2="168.4298518737163" stroke="#000"/>
<line x1="858.4" y1="498.0" x2="858.4" y2="502.79999999999995" stroke="#000"/>
<text x="858.4" y="512.4" fill="#111" font-size="small" font-family="monospace" font-weight="bold" text-anchor="end" transform="rotate(-60, 858.4, 512.4)">
optcarrot
</text>
</svg>