<svg viewBox="0 0 1000 600" xmlns="http://www.w3.org/2000/svg" xmlns:xlink="http://www.w3.org/1999/xlink" width="100%" height="100%">

<rect x="50.0" y="30.0" width="940.0" height="467.99999999999994" stroke="#000" fill="#EEE"/>
<line x1="42.0" y1="497.9999999999999" x2="50.0" y2="497.9999999999999" stroke="#000"/>
<text x="26.000000000000004" y="497.9999999999999" text-anchor="end" font-weight="bold" font-size="small" fill="#111">
0.0
</text>
<line x1="42.0" y1="406.9404902323159" x2="50.0" y2="406.9404902323159" stroke="#000"/>
<text x="26.000000000000004" y="406.9404902323159" text-anchor="end" font-weight="bold" font-size="small" fill="#111">
2.0
</text>
<line x1="42.0" y1="315.88098046463176" x2="50.0" y2="315.88098046463176" stroke="#000"/>
<text x="26.000000000000004" y="315.88098046463176" text-anchor="end" font-weight="bold" font-size="small" fill="#111">
4.0
</text>
<line x1="42.0" y1="224.8214706969477" x2="50.0" y2="224.8214706969477" stroke="#000"/>
<text x="26.000000000000004" y="224.8214706969477" text-anchor="end" font-weight="bold" font-size="small" fill="#111">
6.0
</text>
<line x1="42.0" y1="133.7619609292636" x2="50.0" y2="133.7619609292636" stroke="#000"/>
<text x="26.000000000000004" y="133.7619609292636" text-anchor="end" font-weight="bold" font-size="small" fill="#111">
8.0
</text>
<rect x="162.74999999999997" y="36.00000000000001" width="80.0" height="18.0" fill="#7070f8" stroke="#888"/>
<text x="202.75" y="52.50000000000001" font-size="small" text-anchor="middle" font-weight="bold" fill="#111">
No JIT
</text>
<rect x="374.25" y="36.00000000000001" width="80.0" height="18.0" fill="orange" stroke="#888"/>
<text x="414.25" y="52.50000000000001" font-size="small" text-anchor="middle" font-weight="bold" fill="#111">
MJIT3.0
</text>
<rect x="585.7499999999999" y="36.00000000000001" width="80.0" height="18.0" fill="green" stroke="#888"/>
<text x="625.7499999999999" y="52.50000000000001" font-size="small" text-anchor="middle" font-weight="bold" fill="#111">
MJIT3.1
</text>
<rect x="797.2499999999999" y="36.00000000000001" width="80.0" height="18.0" fill="#4F3A7A" stroke="#888"/>
<text x="837.2499999999999" y="52.50000000000001" font-size="small" text-anchor="middle" font-weight="bold" fill="#111">
YJIT
</text>
<rect x="97.0" y="452.47024511615797" width="7.356521739130435" height="45.529754883842045" fill="#7070f8" data-tooltip="1.00x No-JIT time (No JIT)"/>
<line x1="97.0" y1="451.97130256556073" x2="104.35652173913043" y2="451.97130256556073" stroke="#000"/>
<line x1="97.0" y1="452.9691876667552" x2="104.35652173913043" y2="452.9691876667552" stroke="#000"/>
<line x1="100.67826086956522" y1="451.97130256556073" x2="100.67826086956522" y2="452.9691876667552" stroke="#000"/>
<rect x="104.35652173913043" y="456.78090423098666" width="7.356521739130435" height="41.21909576901329" fill="orange" data-tooltip="0.91x No-JIT time (MJIT3.0)"/>
<line x1="104.35652173913043" y1="456.30291908038197" x2="111.71304347826086" y2="456.30291908038197" stroke="#000"/>
<line x1="104.35652173913043" y1="457.25888938159136" x2="111.71304347826086" y2="457.25888938159136" stroke="#000"/>
<line x1="108.03478260869565" y1="456.30291908038197" x2="108.03478260869565" y2="457.25888938159136" stroke="#000"/>
<rect x="111.71304347826087" y="460.01006049997335" width="7.356521739130435" height="37.98993950002665" fill="green" data-tooltip="0.83x No-JIT time (MJIT3.1)"/>
<line x1="111.71304347826087" y1="458.4568536753969" x2="119.06956521739131" y2="458.4568536753969" stroke="#000"/>
<line x1="111.71304347826087" y1="461.5632673245497" x2="119.06956521739131" y2="461.5632673245497" stroke="#000"/>
<line x1="115.3913043478261" y1="458.4568536753969" x2="115.3913043478261" y2="461.5632673245497" stroke="#000"/>
<rect x="119.06956521739131" y="436.279712426361" width="7.356521739130435" height="61.720287573638885" fill="#4F3A7A" data-tooltip="1.36x No-JIT time (YJIT)"/>
<line x1="119.06956521739131" y1="435.0768272776834" x2="126.42608695652174" y2="435.0768272776834" stroke="#000"/>
<line x1="119.06956521739131" y1="437.48259757503865" x2="126.42608695652174" y2="437.48259757503865" stroke="#000"/>
<line x1="122.74782608695654" y1="435.0768272776834" x2="122.74782608695654" y2="437.48259757503865" stroke="#000"/>
<line x1="115.3913043478261" y1="498.0" x2="115.3913043478261" y2="502.79999999999995" stroke="#000"/>
<text x="115.3913043478261" y="512.4" fill="#111" font-size="small" font-family="monospace" font-weight="bold" text-anchor="end" transform="rotate(-60, 115.3913043478261, 512.4)">
activerecord
</text>
<rect x="133.7826086956522" y="452.47024511615797" width="7.356521739130435" height="45.529754883842045" fill="#7070f8" data-tooltip="1.00x No-JIT time (No JIT)"/>
<line x1="133.7826086956522" y1="451.94150372551576" x2="141.1391304347826" y2="451.94150372551576" stroke="#000"/>
<line x1="133.7826086956522" y1="452.9989865068002" x2="141.1391304347826" y2="452.9989865068002" stroke="#000"/>
<line x1="137.4608695652174" y1="451.94150372551576" x2="137.4608695652174" y2="452.9989865068002" stroke="#000"/>
<rect x="141.1391304347826" y="448.09466016830913" width="7.356521739130435" height="49.90533983169084" fill="orange" data-tooltip="1.10x No-JIT time (MJIT3.0)"/>
<line x1="141.1391304347826" y1="447.2532547482413" x2="148.49565217391302" y2="447.2532547482413" stroke="#000"/>
<line x1="141.1391304347826" y1="448.93606558837695" x2="148.49565217391302" y2="448.93606558837695" stroke="#000"/>
<line x1="144.8173913043478" y1="447.2532547482413" x2="144.8173913043478" y2="448.93606558837695" stroke="#000"/>
<rect x="155.8521739130435" y="438.3429449635615" width="7.356521739130435" height="59.65705503643838" fill="#4F3A7A" data-tooltip="1.31x No-JIT time (YJIT)"/>
<line x1="155.8521739130435" y1="437.38927615829965" x2="163.2086956521739" y2="437.38927615829965" stroke="#000"/>
<line x1="155.8521739130435" y1="439.2966137688233" x2="163.2086956521739" y2="439.2966137688233" stroke="#000"/>
<line x1="159.5304347826087" y1="437.38927615829965" x2="159.5304347826087" y2="439.2966137688233" stroke="#000"/>
<line x1="152.17391304347828" y1="498.0" x2="152.17391304347828" y2="502.79999999999995" stroke="#000"/>
<text x="152.17391304347828" y="512.4" fill="#111" font-size="small" font-family="monospace" font-weight="bold" text-anchor="end" transform="rotate(-60, 152.17391304347828, 512.4)">
hexapdf
</text>
<rect x="170.56521739130437" y="452.47024511615797" width="7.356521739130435" height="45.529754883842045" fill="#7070f8" data-tooltip="1.00x No-JIT time (No JIT)"/>
<line x1="170.56521739130437" y1="451.79671352228377" x2="177.9217391304348" y2="451.79671352228377" stroke="#000"/>
<line x1="170.56521739130437" y1="453.14377671003217" x2="177.9217391304348" y2="453.14377671003217" stroke="#000"/>
<line x1="174.24347826086958" y1="451.79671352228377" x2="174.24347826086958" y2="453.14377671003217" stroke="#000"/>
<rect x="177.9217391304348" y="450.3503799211491" width="7.356521739130435" height="47.649620078850866" fill="orange" data-tooltip="1.05x No-JIT time (MJIT3.0)"/>
<line x1="177.9217391304348" y1="449.011706493755" x2="185.27826086956523" y2="449.011706493755" stroke="#000"/>
<line x1="177.9217391304348" y1="451.6890533485432" x2="185.27826086956523" y2="451.6890533485432" stroke="#000"/>
<line x1="181.60000000000002" y1="449.011706493755" x2="181.60000000000002" y2="451.6890533485432" stroke="#000"/>
<rect x="185.27826086956523" y="452.27175915155493" width="7.356521739130435" height="45.72824084844506" fill="green" data-tooltip="1.00x No-JIT time (MJIT3.1)"/>
<line x1="185.27826086956523" y1="450.29741385689164" x2="192.63478260869564" y2="450.29741385689164" stroke="#000"/>
<line x1="185.27826086956523" y1="454.24610444621817" x2="192.63478260869564" y2="454.24610444621817" stroke="#000"/>
<line x1="188.95652173913044" y1="450.29741385689164" x2="188.95652173913044" y2="454.24610444621817" stroke="#000"/>
<rect x="192.63478260869567" y="447.35573339931955" width="7.356521739130435" height="50.644266600680346" fill="#4F3A7A" data-tooltip="1.11x No-JIT time (YJIT)"/>
<line x1="192.63478260869567" y1="445.5640868802914" x2="199.99130434782612" y2="445.5640868802914" stroke="#000"/>
<line x1="192.63478260869567" y1="449.14737991834767" x2="199.99130434782612" y2="449.14737991834767" stroke="#000"/>
<line x1="196.3130434782609" y1="445.5640868802914" x2="196.3130434782609" y2="449.14737991834767" stroke="#000"/>
<line x1="188.95652173913047" y1="498.0" x2="188.95652173913047" y2="502.79999999999995" stroke="#000"/>
<text x="188.95652173913047" y="512.4" fill="#111" font-size="small" font-family="monospace" font-weight="bold" text-anchor="end" transform="rotate(-60, 188.95652173913047, 512.4)">
jekyll
</text>
<rect x="207.34782608695653" y="452.47024511615797" width="7.356521739130435" height="45.529754883842045" fill="#7070f8" data-tooltip="1.00x No-JIT time (No JIT)"/>
<line x1="207.34782608695653" y1="451.8398382506629" x2="214.70434782608697" y2="451.8398382506629" stroke="#000"/>
<line x1="207.34782608695653" y1="453.100651981653" x2="214.70434782608697" y2="453.100651981653" stroke="#000"/>
<line x1="211.02608695652177" y1="451.8398382506629" x2="211.02608695652177" y2="453.100651981653" stroke="#000"/>
<rect x="214.70434782608697" y="450.2498519537393" width="7.356521739130435" height="47.75014804626067" fill="orange" data-tooltip="1.05x No-JIT time (MJIT3.0)"/>
<line x1="214.70434782608697" y1="449.0370344069833" x2="222.0608695652174" y2="449.0370344069833" stroke="#000"/>
<line x1="214.70434782608697" y1="451.46266950049534" x2="222.0608695652174" y2="451.46266950049534" stroke="#000"/>
<line x1="218.38260869565218" y1="449.0370344069833" x2="218.38260869565218" y2="451.46266950049534" stroke="#000"/>
<rect x="222.06086956521742" y="450.9743610177654" width="7.356521739130435" height="47.02563898223455" fill="green" data-tooltip="1.03x No-JIT time (MJIT3.1)"/>
<line x1="222.06086956521742" y1="448.3595973419043" x2="229.41739130434786" y2="448.3595973419043" stroke="#000"/>
<line x1="222.06086956521742" y1="453.5891246936265" x2="229.41739130434786" y2="453.5891246936265" stroke="#000"/>
<line x1="225.73913043478262" y1="448.3595973419043" x2="225.73913043478262" y2="453.5891246936265" stroke="#000"/>
<rect x="229.41739130434786" y="437.7222990607494" width="7.356521739130435" height="60.27770093925057" fill="#4F3A7A" data-tooltip="1.32x No-JIT time (YJIT)"/>
<line x1="229.41739130434786" y1="436.38893280389937" x2="236.77391304347827" y2="436.38893280389937" stroke="#000"/>
<line x1="229.41739130434786" y1="439.05566531759945" x2="236.77391304347827" y2="439.05566531759945" stroke="#000"/>
<line x1="233.09565217391307" y1="436.38893280389937" x2="233.09565217391307" y2="439.05566531759945" stroke="#000"/>
<line x1="225.73913043478262" y1="498.0" x2="225.73913043478262" y2="502.79999999999995" stroke="#000"/>
<text x="225.73913043478262" y="512.4" fill="#111" font-size="small" font-family="monospace" font-weight="bold" text-anchor="end" transform="rotate(-60, 225.73913043478262, 512.4)">
liquid-render
</text>
<rect x="244.13043478260872" y="452.47024511615797" width="7.356521739130435" height="45.529754883842045" fill="#7070f8" data-tooltip="1.00x No-JIT time (No JIT)"/>
<line x1="244.13043478260872" y1="452.2930518557481" x2="251.48695652173913" y2="452.2930518557481" stroke="#000"/>
<line x1="244.13043478260872" y1="452.6474383765678" x2="251.48695652173913" y2="452.6474383765678" stroke="#000"/>
<line x1="247.80869565217392" y1="452.2930518557481" x2="247.80869565217392" y2="452.6474383765678" stroke="#000"/>
<rect x="251.48695652173913" y="449.6625312505841" width="7.356521739130435" height="48.337468749415784" fill="orange" data-tooltip="1.06x No-JIT time (MJIT3.0)"/>
<line x1="251.48695652173913" y1="449.41342294561116" x2="258.8434782608696" y2="449.41342294561116" stroke="#000"/>
<line x1="251.48695652173913" y1="449.9116395555571" x2="258.8434782608696" y2="449.9116395555571" stroke="#000"/>
<line x1="255.16521739130437" y1="449.41342294561116" x2="255.16521739130437" y2="449.9116395555571" stroke="#000"/>
<rect x="258.8434782608696" y="452.1175676095194" width="7.356521739130435" height="45.88243239048057" fill="green" data-tooltip="1.01x No-JIT time (MJIT3.1)"/>
<line x1="258.8434782608696" y1="451.4409490108906" x2="266.2" y2="451.4409490108906" stroke="#000"/>
<line x1="258.8434782608696" y1="452.7941862081482" x2="266.2" y2="452.7941862081482" stroke="#000"/>
<line x1="262.5217391304348" y1="451.4409490108906" x2="262.5217391304348" y2="452.7941862081482" stroke="#000"/>
<rect x="266.2" y="447.6693430013098" width="7.356521739130435" height="50.33065699869015" fill="#4F3A7A" data-tooltip="1.11x No-JIT time (YJIT)"/>
<line x1="266.2" y1="447.44759374468737" x2="273.5565217391304" y2="447.44759374468737" stroke="#000"/>
<line x1="266.2" y1="447.89109225793226" x2="273.5565217391304" y2="447.89109225793226" stroke="#000"/>
<line x1="269.8782608695652" y1="447.44759374468737" x2="269.8782608695652" y2="447.89109225793226" stroke="#000"/>
<line x1="262.5217391304348" y1="498.0" x2="262.5217391304348" y2="502.79999999999995" stroke="#000"/>
<text x="262.5217391304348" y="512.4" fill="#111" font-size="small" font-family="monospace" font-weight="bold" text-anchor="end" transform="rotate(-60, 262.5217391304348, 512.4)">
mail
</text>
<rect x="280.9130434782609" y="452.47024511615797" width="7.356521739130435" height="45.529754883842045" fill="#7070f8" data-tooltip="1.00x No-JIT time (No JIT)"/>
<line x1="280.9130434782609" y1="452.2760707804939" x2="288.2695652173913" y2="452.2760707804939" stroke="#000"/>
<line x1="280.9130434782609" y1="452.664419451822" x2="288.2695652173913" y2="452.664419451822" stroke="#000"/>
<line x1="284.5913043478261" y1="452.2760707804939" x2="284.5913043478261" y2="452.664419451822" stroke="#000"/>
<rect x="288.2695652173913" y="448.4093229973471" width="7.356521739130435" height="49.59067700265279" fill="orange" data-tooltip="1.09x No-JIT time (MJIT3.0)"/>
<line x1="288.2695652173913" y1="448.01333537818635" x2="295.6260869565217" y2="448.01333537818635" stroke="#000"/>
<line x1="288.2695652173913" y1="448.8053106165079" x2="295.6260869565217" y2="448.8053106165079" stroke="#000"/>
<line x1="291.9478260869565" y1="448.01333537818635" x2="291.9478260869565" y2="448.8053106165079" stroke="#000"/>
<rect x="295.6260869565217" y="448.60157059744853" width="7.356521739130435" height="49.398429402551365" fill="green" data-tooltip="1.08x No-JIT time (MJIT3.1)"/>
<line x1="295.6260869565217" y1="448.26726965057935" x2="302.9826086956521" y2="448.26726965057935" stroke="#000"/>
<line x1="295.6260869565217" y1="448.93587154431765" x2="302.9826086956521" y2="448.93587154431765" stroke="#000"/>
<line x1="299.30434782608694" y1="448.26726965057935" x2="299.30434782608694" y2="448.93587154431765" stroke="#000"/>
<rect x="302.9826086956521" y="442.70762635684656" width="7.356521739130435" height="55.292373643153354" fill="#4F3A7A" data-tooltip="1.21x No-JIT time (YJIT)"/>
<line x1="302.9826086956521" y1="442.42053902198063" x2="310.3391304347826" y2="442.42053902198063" stroke="#000"/>
<line x1="302.9826086956521" y1="442.99471369171255" x2="310.3391304347826" y2="442.99471369171255" stroke="#000"/>
<line x1="306.66086956521735" y1="442.42053902198063" x2="306.66086956521735" y2="442.99471369171255" stroke="#000"/>
<line x1="299.30434782608694" y1="498.0" x2="299.30434782608694" y2="502.79999999999995" stroke="#000"/>
<text x="299.30434782608694" y="512.4" fill="#111" font-size="small" font-family="monospace" font-weight="bold" text-anchor="end" transform="rotate(-60, 299.30434782608694, 512.4)">
psych-load
</text>
<rect x="317.69565217391306" y="452.47024511615797" width="7.356521739130435" height="45.529754883842045" fill="#7070f8" data-tooltip="1.00x No-JIT time (No JIT)"/>
<line x1="317.69565217391306" y1="451.99367221031866" x2="325.0521739130435" y2="451.99367221031866" stroke="#000"/>
<line x1="317.69565217391306" y1="452.9468180219973" x2="325.0521739130435" y2="452.9468180219973" stroke="#000"/>
<line x1="321.3739130434783" y1="451.99367221031866" x2="321.3739130434783" y2="452.9468180219973" stroke="#000"/>
<rect x="325.0521739130435" y="457.2637765247473" width="7.356521739130435" height="40.736223475252665" fill="orange" data-tooltip="0.89x No-JIT time (MJIT3.0)"/>
<line x1="325.0521739130435" y1="456.6964867455176" x2="332.4086956521739" y2="456.6964867455176" stroke="#000"/>
<line x1="325.0521739130435" y1="457.831066303977" x2="332.4086956521739" y2="457.831066303977" stroke="#000"/>
<line x1="328.7304347826087" y1="456.6964867455176" x2="328.7304347826087" y2="457.831066303977" stroke="#000"/>
<rect x="332.4086956521739" y="458.0905257484039" width="7.356521739130435" height="39.90947425159609" fill="green" data-tooltip="0.88x No-JIT time (MJIT3.1)"/>
<line x1="332.4086956521739" y1="457.468021544934" x2="339.7652173913043" y2="457.468021544934" stroke="#000"/>
<line x1="332.4086956521739" y1="458.7130299518737" x2="339.7652173913043" y2="458.7130299518737" stroke="#000"/>
<line x1="336.0869565217391" y1="457.468021544934" x2="336.0869565217391" y2="458.7130299518737" stroke="#000"/>
<rect x="339.7652173913043" y="441.91338248534413" width="7.356521739130435" height="56.0866175146558" fill="#4F3A7A" data-tooltip="1.23x No-JIT time (YJIT)"/>
<line x1="339.7652173913043" y1="440.9360824963036" x2="347.1217391304348" y2="440.9360824963036" stroke="#000"/>
<line x1="339.7652173913043" y1="442.8906824743847" x2="347.1217391304348" y2="442.8906824743847" stroke="#000"/>
<line x1="343.4434782608696" y1="440.9360824963036" x2="343.4434782608696" y2="442.8906824743847" stroke="#000"/>
<line x1="336.0869565217391" y1="498.0" x2="336.0869565217391" y2="502.79999999999995" stroke="#000"/>
<text x="336.0869565217391" y="512.4" fill="#111" font-size="small" font-family="monospace" font-weight="bold" text-anchor="end" transform="rotate(-60, 336.0869565217391, 512.4)">
railsbench
</text>
<rect x="354.47826086956525" y="452.47024511615797" width="7.356521739130435" height="45.529754883842045" fill="#7070f8" data-tooltip="1.00x No-JIT time (No JIT)"/>
<line x1="354.47826086956525" y1="451.57892639147826" x2="361.83478260869566" y2="451.57892639147826" stroke="#000"/>
<line x1="354.47826086956525" y1="453.3615638408377" x2="361.83478260869566" y2="453.3615638408377" stroke="#000"/>
<line x1="358.1565217391305" y1="451.57892639147826" x2="358.1565217391305" y2="453.3615638408377" stroke="#000"/>
<rect x="361.83478260869566" y="422.1686929637714" width="7.356521739130435" height="75.83130703622864" fill="orange" data-tooltip="1.67x No-JIT time (MJIT3.0)"/>
<line x1="361.83478260869566" y1="420.6455634209887" x2="369.1913043478261" y2="420.6455634209887" stroke="#000"/>
<line x1="361.83478260869566" y1="423.691822506554" x2="369.1913043478261" y2="423.691822506554" stroke="#000"/>
<line x1="365.5130434782609" y1="420.6455634209887" x2="365.5130434782609" y2="423.691822506554" stroke="#000"/>
<rect x="369.1913043478261" y="427.9144747371452" width="7.356521739130435" height="70.08552526285472" fill="green" data-tooltip="1.54x No-JIT time (MJIT3.1)"/>
<line x1="369.1913043478261" y1="426.54165195058664" x2="376.54782608695655" y2="426.54165195058664" stroke="#000"/>
<line x1="369.1913043478261" y1="429.2872975237037" x2="376.54782608695655" y2="429.2872975237037" stroke="#000"/>
<line x1="372.86956521739137" y1="426.54165195058664" x2="372.86956521739137" y2="429.2872975237037" stroke="#000"/>
<rect x="376.54782608695655" y="438.8140330011539" width="7.356521739130435" height="59.185966998846055" fill="#4F3A7A" data-tooltip="1.30x No-JIT time (YJIT)"/>
<line x1="376.54782608695655" y1="437.6500060856032" x2="383.90434782608696" y2="437.6500060856032" stroke="#000"/>
<line x1="376.54782608695655" y1="439.9780599167047" x2="383.90434782608696" y2="439.9780599167047" stroke="#000"/>
<line x1="380.2260869565218" y1="437.6500060856032" x2="380.2260869565218" y2="439.9780599167047" stroke="#000"/>
<line x1="372.86956521739137" y1="498.0" x2="372.86956521739137" y2="502.79999999999995" stroke="#000"/>
<text x="372.86956521739137" y="512.4" fill="#111" font-size="small" font-family="monospace" font-weight="bold" text-anchor="end" transform="rotate(-60, 372.86956521739137, 512.4)">
binarytrees
</text>
<rect x="391.26086956521743" y="452.47024511615797" width="7.356521739130435" height="45.529754883842045" fill="#7070f8" data-tooltip="1.00x No-JIT time (No JIT)"/>
<line x1="391.26086956521743" y1="452.1594709001672" x2="398.61739130434785" y2="452.1594709001672" stroke="#000"/>
<line x1="391.26086956521743" y1="452.78101933214873" x2="398.61739130434785" y2="452.78101933214873" stroke="#000"/>
<line x1="394.93913043478267" y1="452.1594709001672" x2="394.93913043478267" y2="452.78101933214873" stroke="#000"/>
<rect x="398.61739130434785" y="450.8437040202259" width="7.356521739130435" height="47.15629597977403" fill="orange" data-tooltip="1.04x No-JIT time (MJIT3.0)"/>
<line x1="398.61739130434785" y1="450.08443506788825" x2="405.9739130434783" y2="450.08443506788825" stroke="#000"/>
<line x1="398.61739130434785" y1="451.6029729725636" x2="405.9739130434783" y2="451.6029729725636" stroke="#000"/>
<line x1="402.2956521739131" y1="450.08443506788825" x2="402.2956521739131" y2="451.6029729725636" stroke="#000"/>
<rect x="405.9739130434783" y="449.16617006525826" width="7.356521739130435" height="48.8338299347416" fill="green" data-tooltip="1.07x No-JIT time (MJIT3.1)"/>
<line x1="405.9739130434783" y1="448.7071737510294" x2="413.33043478260873" y2="448.7071737510294" stroke="#000"/>
<line x1="405.9739130434783" y1="449.62516637948715" x2="413.33043478260873" y2="449.62516637948715" stroke="#000"/>
<line x1="409.65217391304355" y1="448.7071737510294" x2="409.65217391304355" y2="449.62516637948715" stroke="#000"/>
<rect x="413.33043478260873" y="451.85065156029276" width="7.356521739130435" height="46.14934843970718" fill="#4F3A7A" data-tooltip="1.01x No-JIT time (YJIT)"/>
<line x1="413.33043478260873" y1="451.28115060345147" x2="420.68695652173915" y2="451.28115060345147" stroke="#000"/>
<line x1="413.33043478260873" y1="452.4201525171341" x2="420.68695652173915" y2="452.4201525171341" stroke="#000"/>
<line x1="417.00869565217397" y1="451.28115060345147" x2="417.00869565217397" y2="452.4201525171341" stroke="#000"/>
<line x1="409.65217391304355" y1="498.0" x2="409.65217391304355" y2="502.79999999999995" stroke="#000"/>
<text x="409.65217391304355" y="512.4" fill="#111" font-size="small" font-family="monospace" font-weight="bold" text-anchor="end" transform="rotate(-60, 409.65217391304355, 512.4)">
erubi
</text>
<rect x="428.0434782608696" y="452.47024511615797" width="7.356521739130435" height="45.529754883842045" fill="#7070f8" data-tooltip="1.00x No-JIT time (No JIT)"/>
<line x1="428.0434782608696" y1="451.194969817797" x2="435.4000000000001" y2="451.194969817797" stroke="#000"/>
<line x1="428.0434782608696" y1="453.7455204145189" x2="435.4000000000001" y2="453.7455204145189" stroke="#000"/>
<line x1="431.72173913043486" y1="451.194969817797" x2="431.72173913043486" y2="453.7455204145189" stroke="#000"/>
<rect x="435.4000000000001" y="464.29730645690495" width="7.356521739130435" height="33.70269354309504" fill="orange" data-tooltip="0.74x No-JIT time (MJIT3.0)"/>
<line x1="435.4000000000001" y1="461.8821110363081" x2="442.7565217391305" y2="461.8821110363081" stroke="#000"/>
<line x1="435.4000000000001" y1="466.7125018775017" x2="442.7565217391305" y2="466.7125018775017" stroke="#000"/>
<line x1="439.0782608695653" y1="461.8821110363081" x2="439.0782608695653" y2="466.7125018775017" stroke="#000"/>
<rect x="442.7565217391305" y="455.69157061825155" width="7.356521739130435" height="42.308429381748425" fill="green" data-tooltip="0.93x No-JIT time (MJIT3.1)"/>
<line x1="442.7565217391305" y1="453.4292112091954" x2="450.1130434782609" y2="453.4292112091954" stroke="#000"/>
<line x1="442.7565217391305" y1="457.9539300273077" x2="450.1130434782609" y2="457.9539300273077" stroke="#000"/>
<line x1="446.43478260869574" y1="453.4292112091954" x2="446.43478260869574" y2="457.9539300273077" stroke="#000"/>
<rect x="450.1130434782609" y="448.4980698010043" width="7.356521739130435" height="49.50193019899562" fill="#4F3A7A" data-tooltip="1.09x No-JIT time (YJIT)"/>
<line x1="450.1130434782609" y1="439.98766893585207" x2="457.46956521739133" y2="439.98766893585207" stroke="#000"/>
<line x1="450.1130434782609" y1="457.0084706661566" x2="457.46956521739133" y2="457.0084706661566" stroke="#000"/>
<line x1="453.79130434782616" y1="439.98766893585207" x2="453.79130434782616" y2="457.0084706661566" stroke="#000"/>
<line x1="446.43478260869574" y1="498.0" x2="446.43478260869574" y2="502.79999999999995" stroke="#000"/>
<text x="446.43478260869574" y="512.4" fill="#111" font-size="small" font-family="monospace" font-weight="bold" text-anchor="end" transform="rotate(-60, 446.43478260869574, 512.4)">
erubi_rails
</text>
<rect x="464.82608695652175" y="452.47024511615797" width="7.356521739130435" height="45.529754883842045" fill="#7070f8" data-tooltip="1.00x No-JIT time (No JIT)"/>
<line x1="464.82608695652175" y1="452.41396151249006" x2="472.18260869565216" y2="452.41396151249006" stroke="#000"/>
<line x1="464.82608695652175" y1="452.5265287198259" x2="472.18260869565216" y2="452.5265287198259" stroke="#000"/>
<line x1="468.504347826087" y1="452.41396151249006" x2="468.504347826087" y2="452.5265287198259" stroke="#000"/>
<rect x="472.18260869565216" y="435.05435367467686" width="7.356521739130435" height="62.945646325323075" fill="orange" data-tooltip="1.38x No-JIT time (MJIT3.0)"/>
<line x1="472.18260869565216" y1="434.88494348355187" x2="479.5391304347826" y2="434.88494348355187" stroke="#000"/>
<line x1="472.18260869565216" y1="435.2237638658019" x2="479.5391304347826" y2="435.2237638658019" stroke="#000"/>
<line x1="475.8608695652174" y1="434.88494348355187" x2="475.8608695652174" y2="435.2237638658019" stroke="#000"/>
<rect x="479.5391304347826" y="452.648310207233" width="7.356521739130435" height="45.35168979276693" fill="green" data-tooltip="1.00x No-JIT time (MJIT3.1)"/>
<line x1="479.5391304347826" y1="452.5735162137343" x2="486.895652173913" y2="452.5735162137343" stroke="#000"/>
<line x1="479.5391304347826" y1="452.7231042007317" x2="486.895652173913" y2="452.7231042007317" stroke="#000"/>
<line x1="483.2173913043478" y1="452.5735162137343" x2="483.2173913043478" y2="452.7231042007317" stroke="#000"/>
<rect x="486.895652173913" y="452.62309769622846" width="7.356521739130435" height="45.376902303771466" fill="#4F3A7A" data-tooltip="1.00x No-JIT time (YJIT)"/>
<line x1="486.895652173913" y1="452.5364213775132" x2="494.2521739130434" y2="452.5364213775132" stroke="#000"/>
<line x1="486.895652173913" y1="452.7097740149437" x2="494.2521739130434" y2="452.7097740149437" stroke="#000"/>
<line x1="490.5739130434782" y1="452.5364213775132" x2="490.5739130434782" y2="452.7097740149437" stroke="#000"/>
<line x1="483.2173913043478" y1="498.0" x2="483.2173913043478" y2="502.79999999999995" stroke="#000"/>
<text x="483.2173913043478" y="512.4" fill="#111" font-size="small" font-family="monospace" font-weight="bold" text-anchor="end" transform="rotate(-60, 483.2173913043478, 512.4)">
fannkuchredux
</text>
<rect x="501.60869565217394" y="452.47024511615797" width="7.356521739130435" height="45.529754883842045" fill="#7070f8" data-tooltip="1.00x No-JIT time (No JIT)"/>
<line x1="501.60869565217394" y1="451.9939107213566" x2="508.9652173913044" y2="451.9939107213566" stroke="#000"/>
<line x1="501.60869565217394" y1="452.94657951095934" x2="508.9652173913044" y2="452.94657951095934" stroke="#000"/>
<line x1="505.28695652173917" y1="451.9939107213566" x2="505.28695652173917" y2="452.94657951095934" stroke="#000"/>
<rect x="508.9652173913044" y="446.8564108711033" width="7.356521739130435" height="51.14358912889669" fill="orange" data-tooltip="1.12x No-JIT time (MJIT3.0)"/>
<line x1="508.9652173913044" y1="446.1969986839623" x2="516.3217391304349" y2="446.1969986839623" stroke="#000"/>
<line x1="508.9652173913044" y1="447.51582305824434" x2="516.3217391304349" y2="447.51582305824434" stroke="#000"/>
<line x1="512.6434782608696" y1="446.1969986839623" x2="512.6434782608696" y2="447.51582305824434" stroke="#000"/>
<rect x="516.3217391304348" y="441.6128536639416" width="7.356521739130435" height="56.3871463360583" fill="green" data-tooltip="1.24x No-JIT time (MJIT3.1)"/>
<line x1="516.3217391304348" y1="440.6421289022618" x2="523.6782608695653" y2="440.6421289022618" stroke="#000"/>
<line x1="516.3217391304348" y1="442.58357842562145" x2="523.6782608695653" y2="442.58357842562145" stroke="#000"/>
<line x1="520.0" y1="440.6421289022618" x2="520.0" y2="442.58357842562145" stroke="#000"/>
<rect x="523.6782608695653" y="436.122592619385" width="7.356521739130435" height="61.87740738061502" fill="#4F3A7A" data-tooltip="1.36x No-JIT time (YJIT)"/>
<line x1="523.6782608695653" y1="434.7734819907188" x2="531.0347826086958" y2="434.7734819907188" stroke="#000"/>
<line x1="523.6782608695653" y1="437.4717032480512" x2="531.0347826086958" y2="437.4717032480512" stroke="#000"/>
<line x1="527.3565217391305" y1="434.7734819907188" x2="527.3565217391305" y2="437.4717032480512" stroke="#000"/>
<line x1="520.0" y1="498.0" x2="520.0" y2="502.79999999999995" stroke="#000"/>
<text x="520.0" y="512.4" fill="#111" font-size="small" font-family="monospace" font-weight="bold" text-anchor="end" transform="rotate(-60, 520.0, 512.4)">
lee
</text>
<rect x="538.3913043478261" y="452.47024511615797" width="7.356521739130435" height="45.529754883842045" fill="#7070f8" data-tooltip="1.00x No-JIT time (No JIT)"/>
<line x1="538.3913043478261" y1="452.3884364546778" x2="545.7478260869566" y2="452.3884364546778" stroke="#000"/>
<line x1="538.3913043478261" y1="452.55205377763815" x2="545.7478260869566" y2="452.55205377763815" stroke="#000"/>
<line x1="542.0695652173914" y1="452.3884364546778" x2="542.0695652173914" y2="452.55205377763815" stroke="#000"/>
<rect x="545.7478260869566" y="419.1754284663019" width="7.356521739130435" height="78.82457153369808" fill="orange" data-tooltip="1.73x No-JIT time (MJIT3.0)"/>
<line x1="545.7478260869566" y1="418.8589384282555" x2="553.1043478260871" y2="418.8589384282555" stroke="#000"/>
<line x1="545.7478260869566" y1="419.49191850434835" x2="553.1043478260871" y2="419.49191850434835" stroke="#000"/>
<line x1="549.4260869565219" y1="418.8589384282555" x2="549.4260869565219" y2="419.49191850434835" stroke="#000"/>
<rect x="553.104347826087" y="415.950357926591" width="7.356521739130435" height="82.04964207340898" fill="green" data-tooltip="1.80x No-JIT time (MJIT3.1)"/>
<line x1="553.104347826087" y1="415.80076048347036" x2="560.4608695652174" y2="415.80076048347036" stroke="#000"/>
<line x1="553.104347826087" y1="416.0999553697116" x2="560.4608695652174" y2="416.0999553697116" stroke="#000"/>
<line x1="556.7826086956522" y1="415.80076048347036" x2="556.7826086956522" y2="416.0999553697116" stroke="#000"/>
<rect x="560.4608695652174" y="434.44794280085944" width="7.356521739130435" height="63.552057199140485" fill="#4F3A7A" data-tooltip="1.40x No-JIT time (YJIT)"/>
<line x1="560.4608695652174" y1="433.9264348603326" x2="567.8173913043479" y2="433.9264348603326" stroke="#000"/>
<line x1="560.4608695652174" y1="434.9694507413862" x2="567.8173913043479" y2="434.9694507413862" stroke="#000"/>
<line x1="564.1391304347827" y1="433.9264348603326" x2="564.1391304347827" y2="434.9694507413862" stroke="#000"/>
<line x1="556.7826086956522" y1="498.0" x2="556.7826086956522" y2="502.79999999999995" stroke="#000"/>
<text x="556.7826086956522" y="512.4" fill="#111" font-size="small" font-family="monospace" font-weight="bold" text-anchor="end" transform="rotate(-60, 556.7826086956522, 512.4)">
nbody
</text>
<rect x="575.1739130434784" y="452.47024511615797" width="7.356521739130435" height="45.529754883842045" fill="#7070f8" data-tooltip="1.00x No-JIT time (No JIT)"/>
<line x1="575.1739130434784" y1="452.2500509637328" x2="582.5304347826088" y2="452.2500509637328" stroke="#000"/>
<line x1="575.1739130434784" y1="452.69043926858313" x2="582.5304347826088" y2="452.69043926858313" stroke="#000"/>
<line x1="578.8521739130435" y1="452.2500509637328" x2="578.8521739130435" y2="452.69043926858313" stroke="#000"/>
<rect x="582.5304347826088" y="392.5413326761764" width="7.356521739130435" height="105.45866732382359" fill="orange" data-tooltip="2.32x No-JIT time (MJIT3.0)"/>
<line x1="582.5304347826088" y1="391.74148033179523" x2="589.8869565217393" y2="391.74148033179523" stroke="#000"/>
<line x1="582.5304347826088" y1="393.3411850205576" x2="589.8869565217393" y2="393.3411850205576" stroke="#000"/>
<line x1="586.208695652174" y1="391.74148033179523" x2="586.208695652174" y2="393.3411850205576" stroke="#000"/>
<rect x="589.8869565217392" y="388.2842228210747" width="7.356521739130435" height="109.71577717892521" fill="green" data-tooltip="2.41x No-JIT time (MJIT3.1)"/>
<line x1="589.8869565217392" y1="387.39282456304056" x2="597.2434782608697" y2="387.39282456304056" stroke="#000"/>
<line x1="589.8869565217392" y1="389.1756210791088" x2="597.2434782608697" y2="389.1756210791088" stroke="#000"/>
<line x1="593.5652173913044" y1="387.39282456304056" x2="593.5652173913044" y2="389.1756210791088" stroke="#000"/>
<rect x="597.2434782608697" y="421.82087762556347" width="7.356521739130435" height="76.17912237443652" fill="#4F3A7A" data-tooltip="1.67x No-JIT time (YJIT)"/>
<line x1="597.2434782608697" y1="421.24519635652126" x2="604.6000000000001" y2="421.24519635652126" stroke="#000"/>
<line x1="597.2434782608697" y1="422.3965588946057" x2="604.6000000000001" y2="422.3965588946057" stroke="#000"/>
<line x1="600.9217391304348" y1="421.24519635652126" x2="600.9217391304348" y2="422.3965588946057" stroke="#000"/>
<line x1="593.5652173913044" y1="498.0" x2="593.5652173913044" y2="502.79999999999995" stroke="#000"/>
<text x="593.5652173913044" y="512.4" fill="#111" font-size="small" font-family="monospace" font-weight="bold" text-anchor="end" transform="rotate(-60, 593.5652173913044, 512.4)">
optcarrot
</text>
<rect x="611.9565217391304" y="452.47024511615797" width="7.356521739130435" height="45.529754883842045" fill="#7070f8" data-tooltip="1.00x No-JIT time (No JIT)"/>
<line x1="611.9565217391304" y1="452.30010989929997" x2="619.3130434782609" y2="452.30010989929997" stroke="#000"/>
<line x1="611.9565217391304" y1="452.64038033301597" x2="619.3130434782609" y2="452.64038033301597" stroke="#000"/>
<line x1="615.6347826086957" y1="452.30010989929997" x2="615.6347826086957" y2="452.64038033301597" stroke="#000"/>
<rect x="619.3130434782609" y="425.12535925535747" width="7.356521739130435" height="72.87464074464245" fill="orange" data-tooltip="1.60x No-JIT time (MJIT3.0)"/>
<line x1="619.3130434782609" y1="424.72550991085717" x2="626.6695652173913" y2="424.72550991085717" stroke="#000"/>
<line x1="619.3130434782609" y1="425.5252085998577" x2="626.6695652173913" y2="425.5252085998577" stroke="#000"/>
<line x1="622.9913043478261" y1="424.72550991085717" x2="622.9913043478261" y2="425.5252085998577" stroke="#000"/>
<rect x="626.6695652173912" y="427.6107320977118" width="7.356521739130435" height="70.38926790228813" fill="green" data-tooltip="1.55x No-JIT time (MJIT3.1)"/>
<line x1="626.6695652173912" y1="427.2690767961162" x2="634.0260869565218" y2="427.2690767961162" stroke="#000"/>
<line x1="626.6695652173912" y1="427.9523873993073" x2="634.0260869565218" y2="427.9523873993073" stroke="#000"/>
<line x1="630.3478260869565" y1="427.2690767961162" x2="630.3478260869565" y2="427.9523873993073" stroke="#000"/>
<rect x="634.0260869565218" y="413.2167659095703" width="7.356521739130435" height="84.78323409042969" fill="#4F3A7A" data-tooltip="1.86x No-JIT time (YJIT)"/>
<line x1="634.0260869565218" y1="412.7606911134009" x2="641.3826086956523" y2="412.7606911134009" stroke="#000"/>
<line x1="634.0260869565218" y1="413.6728407057397" x2="641.3826086956523" y2="413.6728407057397" stroke="#000"/>
<line x1="637.704347826087" y1="412.7606911134009" x2="637.704347826087" y2="413.6728407057397" stroke="#000"/>
<line x1="630.3478260869565" y1="498.0" x2="630.3478260869565" y2="502.79999999999995" stroke="#000"/>
<text x="630.3478260869565" y="512.4" fill="#111" font-size="small" font-family="monospace" font-weight="bold" text-anchor="end" transform="rotate(-60, 630.3478260869565, 512.4)">
rubykon
</text>
<rect x="648.7391304347826" y="452.47024511615797" width="7.356521739130435" height="45.529754883842045" fill="#7070f8" data-tooltip="1.00x No-JIT time (No JIT)"/>
<line x1="648.7391304347826" y1="451.2763697807732" x2="656.0956521739131" y2="451.2763697807732" stroke="#000"/>
<line x1="648.7391304347826" y1="453.6641204515427" x2="656.0956521739131" y2="453.6641204515427" stroke="#000"/>
<line x1="652.4173913043478" y1="451.2763697807732" x2="652.4173913043478" y2="453.6641204515427" stroke="#000"/>
<rect x="656.0956521739131" y="454.06852339117535" width="7.356521739130435" height="43.93147660882459" fill="orange" data-tooltip="0.96x No-JIT time (MJIT3.0)"/>
<line x1="656.0956521739131" y1="452.9141116719127" x2="663.4521739130436" y2="452.9141116719127" stroke="#000"/>
<line x1="656.0956521739131" y1="455.222935110438" x2="663.4521739130436" y2="455.222935110438" stroke="#000"/>
<line x1="659.7739130434783" y1="452.9141116719127" x2="659.7739130434783" y2="455.222935110438" stroke="#000"/>
<rect x="663.4521739130435" y="471.9600977971605" width="7.356521739130435" height="26.039902202839414" fill="green" data-tooltip="0.57x No-JIT time (MJIT3.1)"/>
<line x1="663.4521739130435" y1="470.55440964701154" x2="670.8086956521739" y2="470.55440964701154" stroke="#000"/>
<line x1="663.4521739130435" y1="473.3657859473094" x2="670.8086956521739" y2="473.3657859473094" stroke="#000"/>
<line x1="667.1304347826087" y1="470.55440964701154" x2="667.1304347826087" y2="473.3657859473094" stroke="#000"/>
<rect x="670.8086956521739" y="171.04568418683138" width="7.356521739130435" height="326.95431581316853" fill="#4F3A7A" data-tooltip="7.18x No-JIT time (YJIT)"/>
<line x1="670.8086956521739" y1="162.46700853600177" x2="678.1652173913044" y2="162.46700853600177" stroke="#000"/>
<line x1="670.8086956521739" y1="179.62435983766096" x2="678.1652173913044" y2="179.62435983766096" stroke="#000"/>
<line x1="674.4869565217392" y1="162.46700853600177" x2="674.4869565217392" y2="179.62435983766096" stroke="#000"/>
<line x1="667.1304347826087" y1="498.0" x2="667.1304347826087" y2="502.79999999999995" stroke="#000"/>
<text x="667.1304347826087" y="512.4" fill="#111" font-size="small" font-family="monospace" font-weight="bold" text-anchor="end" transform="rotate(-60, 667.1304347826087, 512.4)">
30k_ifelse
</text>
<rect x="685.5217391304348" y="452.47024511615797" width="7.356521739130435" height="45.529754883842045" fill="#7070f8" data-tooltip="1.00x No-JIT time (No JIT)"/>
<line x1="685.5217391304348" y1="452.45848954758026" x2="692.8782608695652" y2="452.45848954758026" stroke="#000"/>
<line x1="685.5217391304348" y1="452.4820006847357" x2="692.8782608695652" y2="452.4820006847357" stroke="#000"/>
<line x1="689.2" y1="452.45848954758026" x2="689.2" y2="452.4820006847357" stroke="#000"/>
<rect x="692.8782608695652" y="450.6499204557427" width="7.356521739130435" height="47.35007954425727" fill="orange" data-tooltip="1.04x No-JIT time (MJIT3.0)"/>
<line x1="692.8782608695652" y1="450.60546706015134" x2="700.2347826086958" y2="450.60546706015134" stroke="#000"/>
<line x1="692.8782608695652" y1="450.69437385133403" x2="700.2347826086958" y2="450.69437385133403" stroke="#000"/>
<line x1="696.5565217391305" y1="450.60546706015134" x2="696.5565217391305" y2="450.69437385133403" stroke="#000"/>
<rect x="700.2347826086957" y="454.50037974994206" width="7.356521739130435" height="43.499620250057866" fill="green" data-tooltip="0.96x No-JIT time (MJIT3.1)"/>
<line x1="700.2347826086957" y1="454.2712592118683" x2="707.5913043478262" y2="454.2712592118683" stroke="#000"/>
<line x1="700.2347826086957" y1="454.7295002880158" x2="707.5913043478262" y2="454.7295002880158" stroke="#000"/>
<line x1="703.9130434782609" y1="454.2712592118683" x2="703.9130434782609" y2="454.7295002880158" stroke="#000"/>
<rect x="707.5913043478262" y="100.19999999999999" width="7.356521739130435" height="397.79999999999995" fill="#4F3A7A" data-tooltip="8.74x No-JIT time (YJIT)"/>
<line x1="707.5913043478262" y1="99.8703090726933" x2="714.9478260869566" y2="99.8703090726933" stroke="#000"/>
<line x1="707.5913043478262" y1="100.52969092730667" x2="714.9478260869566" y2="100.52969092730667" stroke="#000"/>
<line x1="711.2695652173913" y1="99.8703090726933" x2="711.2695652173913" y2="100.52969092730667" stroke="#000"/>
<line x1="703.9130434782609" y1="498.0" x2="703.9130434782609" y2="502.79999999999995" stroke="#000"/>
<text x="703.9130434782609" y="512.4" fill="#111" font-size="small" font-family="monospace" font-weight="bold" text-anchor="end" transform="rotate(-60, 703.9130434782609, 512.4)">
30k_methods
</text>
<rect x="722.304347826087" y="452.47024511615797" width="7.356521739130435" height="45.529754883842045" fill="#7070f8" data-tooltip="1.00x No-JIT time (No JIT)"/>
<line x1="722.304347826087" y1="452.3702945640369" x2="729.6608695652175" y2="452.3702945640369" stroke="#000"/>
<line x1="722.304347826087" y1="452.57019566827904" x2="729.6608695652175" y2="452.57019566827904" stroke="#000"/>
<line x1="725.9826086956523" y1="452.3702945640369" x2="725.9826086956523" y2="452.57019566827904" stroke="#000"/>
<rect x="729.6608695652175" y="430.90259043245266" width="7.356521739130435" height="67.09740956754727" fill="orange" data-tooltip="1.47x No-JIT time (MJIT3.0)"/>
<line x1="729.6608695652175" y1="430.7412584314637" x2="737.0173913043479" y2="430.7412584314637" stroke="#000"/>
<line x1="729.6608695652175" y1="431.0639224334416" x2="737.0173913043479" y2="431.0639224334416" stroke="#000"/>
<line x1="733.3391304347828" y1="430.7412584314637" x2="733.3391304347828" y2="431.0639224334416" stroke="#000"/>
<rect x="737.0173913043478" y="436.62350645969366" width="7.356521739130435" height="61.37649354030631" fill="green" data-tooltip="1.35x No-JIT time (MJIT3.1)"/>
<line x1="737.0173913043478" y1="436.4062460854743" x2="744.3739130434783" y2="436.4062460854743" stroke="#000"/>
<line x1="737.0173913043478" y1="436.840766833913" x2="744.3739130434783" y2="436.840766833913" stroke="#000"/>
<line x1="740.6956521739131" y1="436.4062460854743" x2="740.6956521739131" y2="436.840766833913" stroke="#000"/>
<rect x="744.3739130434783" y="400.7510042933966" width="7.356521739130435" height="97.24899570660334" fill="#4F3A7A" data-tooltip="2.14x No-JIT time (YJIT)"/>
<line x1="744.3739130434783" y1="400.3784730113308" x2="751.7304347826088" y2="400.3784730113308" stroke="#000"/>
<line x1="744.3739130434783" y1="401.12353557546237" x2="751.7304347826088" y2="401.12353557546237" stroke="#000"/>
<line x1="748.0521739130436" y1="400.3784730113308" x2="748.0521739130436" y2="401.12353557546237" stroke="#000"/>
<line x1="740.6956521739131" y1="498.0" x2="740.6956521739131" y2="502.79999999999995" stroke="#000"/>
<text x="740.6956521739131" y="512.4" fill="#111" font-size="small" font-family="monospace" font-weight="bold" text-anchor="end" transform="rotate(-60, 740.6956521739131, 512.4)">
cfunc_itself
</text>
<rect x="759.0869565217392" y="452.47024511615797" width="7.356521739130435" height="45.529754883842045" fill="#7070f8" data-tooltip="1.00x No-JIT time (No JIT)"/>
<line x1="759.0869565217392" y1="452.45859206196303" x2="766.4434782608697" y2="452.45859206196303" stroke="#000"/>
<line x1="759.0869565217392" y1="452.4818981703529" x2="766.4434782608697" y2="452.4818981703529" stroke="#000"/>
<line x1="762.7652173913044" y1="452.45859206196303" x2="762.7652173913044" y2="452.4818981703529" stroke="#000"/>
<rect x="766.4434782608697" y="345.870988616519" width="7.356521739130435" height="152.12901138348093" fill="orange" data-tooltip="3.34x No-JIT time (MJIT3.0)"/>
<line x1="766.4434782608697" y1="345.7951439452255" x2="773.8000000000002" y2="345.7951439452255" stroke="#000"/>
<line x1="766.4434782608697" y1="345.94683328781247" x2="773.8000000000002" y2="345.94683328781247" stroke="#000"/>
<line x1="770.1217391304349" y1="345.7951439452255" x2="770.1217391304349" y2="345.94683328781247" stroke="#000"/>
<rect x="773.8000000000001" y="351.66987197786324" width="7.356521739130435" height="146.3301280221367" fill="green" data-tooltip="3.21x No-JIT time (MJIT3.1)"/>
<line x1="773.8000000000001" y1="351.5830611681096" x2="781.1565217391305" y2="351.5830611681096" stroke="#000"/>
<line x1="773.8000000000001" y1="351.7566827876168" x2="781.1565217391305" y2="351.7566827876168" stroke="#000"/>
<line x1="777.4782608695652" y1="351.5830611681096" x2="777.4782608695652" y2="351.7566827876168" stroke="#000"/>
<rect x="781.1565217391305" y="322.72728543289486" width="7.356521739130435" height="175.2727145671051" fill="#4F3A7A" data-tooltip="3.85x No-JIT time (YJIT)"/>
<line x1="781.1565217391305" y1="322.6423965637412" x2="788.513043478261" y2="322.6423965637412" stroke="#000"/>
<line x1="781.1565217391305" y1="322.8121743020485" x2="788.513043478261" y2="322.8121743020485" stroke="#000"/>
<line x1="784.8347826086957" y1="322.6423965637412" x2="784.8347826086957" y2="322.8121743020485" stroke="#000"/>
<line x1="777.4782608695652" y1="498.0" x2="777.4782608695652" y2="502.79999999999995" stroke="#000"/>
<text x="777.4782608695652" y="512.4" fill="#111" font-size="small" font-family="monospace" font-weight="bold" text-anchor="end" transform="rotate(-60, 777.4782608695652, 512.4)">
fib
</text>
<rect x="795.8695652173913" y="452.47024511615797" width="7.356521739130435" height="45.529754883842045" fill="#7070f8" data-tooltip="1.00x No-JIT time (No JIT)"/>
<line x1="795.8695652173913" y1="452.4507857645631" x2="803.2260869565217" y2="452.4507857645631" stroke="#000"/>
<line x1="795.8695652173913" y1="452.48970446775286" x2="803.2260869565217" y2="452.48970446775286" stroke="#000"/>
<line x1="799.5478260869565" y1="452.4507857645631" x2="799.5478260869565" y2="452.48970446775286" stroke="#000"/>
<rect x="803.2260869565217" y="446.2579686723855" width="7.356521739130435" height="51.742031327614406" fill="orange" data-tooltip="1.14x No-JIT time (MJIT3.0)"/>
<line x1="803.2260869565217" y1="446.1568654805326" x2="810.5826086956522" y2="446.1568654805326" stroke="#000"/>
<line x1="803.2260869565217" y1="446.35907186423844" x2="810.5826086956522" y2="446.35907186423844" stroke="#000"/>
<line x1="806.904347826087" y1="446.1568654805326" x2="806.904347826087" y2="446.35907186423844" stroke="#000"/>
<rect x="810.5826086956521" y="452.3968741787639" width="7.356521739130435" height="45.60312582123604" fill="green" data-tooltip="1.00x No-JIT time (MJIT3.1)"/>
<line x1="810.5826086956521" y1="452.36065677853964" x2="817.9391304347827" y2="452.36065677853964" stroke="#000"/>
<line x1="810.5826086956521" y1="452.4330915789881" x2="817.9391304347827" y2="452.4330915789881" stroke="#000"/>
<line x1="814.2608695652174" y1="452.36065677853964" x2="814.2608695652174" y2="452.4330915789881" stroke="#000"/>
<rect x="817.9391304347827" y="365.8557847781677" width="7.356521739130435" height="132.14421522183227" fill="#4F3A7A" data-tooltip="2.90x No-JIT time (YJIT)"/>
<line x1="817.9391304347827" y1="365.7917794339143" x2="825.2956521739131" y2="365.7917794339143" stroke="#000"/>
<line x1="817.9391304347827" y1="365.9197901224211" x2="825.2956521739131" y2="365.9197901224211" stroke="#000"/>
<line x1="821.6173913043478" y1="365.7917794339143" x2="821.6173913043478" y2="365.9197901224211" stroke="#000"/>
<line x1="814.2608695652174" y1="498.0" x2="814.2608695652174" y2="502.79999999999995" stroke="#000"/>
<text x="814.2608695652174" y="512.4" fill="#111" font-size="small" font-family="monospace" font-weight="bold" text-anchor="end" transform="rotate(-60, 814.2608695652174, 512.4)">
getivar
</text>
<rect x="832.6521739130435" y="452.47024511615797" width="7.356521739130435" height="45.529754883842045" fill="#7070f8" data-tooltip="1.00x No-JIT time (No JIT)"/>
<line x1="832.6521739130435" y1="452.4387389971787" x2="840.008695652174" y2="452.4387389971787" stroke="#000"/>
<line x1="832.6521739130435" y1="452.50175123513725" x2="840.008695652174" y2="452.50175123513725" stroke="#000"/>
<line x1="836.3304347826087" y1="452.4387389971787" x2="836.3304347826087" y2="452.50175123513725" stroke="#000"/>
<rect x="840.008695652174" y="439.0218961179705" width="7.356521739130435" height="58.978103882029416" fill="orange" data-tooltip="1.30x No-JIT time (MJIT3.0)"/>
<line x1="840.008695652174" y1="438.9687196261582" x2="847.3652173913044" y2="438.9687196261582" stroke="#000"/>
<line x1="840.008695652174" y1="439.0750726097828" x2="847.3652173913044" y2="439.0750726097828" stroke="#000"/>
<line x1="843.6869565217391" y1="438.9687196261582" x2="843.6869565217391" y2="439.0750726097828" stroke="#000"/>
<rect x="847.3652173913043" y="440.3246281717926" width="7.356521739130435" height="57.67537182820728" fill="green" data-tooltip="1.27x No-JIT time (MJIT3.1)"/>
<line x1="847.3652173913043" y1="440.2738872273572" x2="854.7217391304348" y2="440.2738872273572" stroke="#000"/>
<line x1="847.3652173913043" y1="440.375369116228" x2="854.7217391304348" y2="440.375369116228" stroke="#000"/>
<line x1="851.0434782608696" y1="440.2738872273572" x2="851.0434782608696" y2="440.375369116228" stroke="#000"/>
<rect x="854.7217391304348" y="261.82469695409435" width="7.356521739130435" height="236.1753030459056" fill="#4F3A7A" data-tooltip="5.19x No-JIT time (YJIT)"/>
<line x1="854.7217391304348" y1="260.8782011516638" x2="862.0782608695653" y2="260.8782011516638" stroke="#000"/>
<line x1="854.7217391304348" y1="262.77119275652484" x2="862.0782608695653" y2="262.77119275652484" stroke="#000"/>
<line x1="858.4000000000001" y1="260.8782011516638" x2="858.4000000000001" y2="262.77119275652484" stroke="#000"/>
<line x1="851.0434782608696" y1="498.0" x2="851.0434782608696" y2="502.79999999999995" stroke="#000"/>
<text x="851.0434782608696" y="512.4" fill="#111" font-size="small" font-family="monospace" font-weight="bold" text-anchor="end" transform="rotate(-60, 851.0434782608696, 512.4)">
keyword_args
</text>
<rect x="869.4347826086956" y="452.47024511615797" width="7.356521739130435" height="45.529754883842045" fill="#7070f8" data-tooltip="1.00x No-JIT time (No JIT)"/>
<line x1="869.4347826086956" y1="452.17059709544014" x2="876.7913043478261" y2="452.17059709544014" stroke="#000"/>
<line x1="869.4347826086956" y1="452.7698931368758" x2="876.7913043478261" y2="452.7698931368758" stroke="#000"/>
<line x1="873.1130434782609" y1="452.17059709544014" x2="873.1130434782609" y2="452.7698931368758" stroke="#000"/>
<rect x="876.7913043478261" y="442.1201236516354" width="7.356521739130435" height="55.879876348364526" fill="orange" data-tooltip="1.23x No-JIT time (MJIT3.0)"/>
<line x1="876.7913043478261" y1="441.4381974360712" x2="884.1478260869567" y2="441.4381974360712" stroke="#000"/>
<line x1="876.7913043478261" y1="442.80204986719957" x2="884.1478260869567" y2="442.80204986719957" stroke="#000"/>
<line x1="880.4695652173914" y1="441.4381974360712" x2="880.4695652173914" y2="442.80204986719957" stroke="#000"/>
<rect x="884.1478260869566" y="446.1069147393065" width="7.356521739130435" height="51.893085260693475" fill="green" data-tooltip="1.14x No-JIT time (MJIT3.1)"/>
<line x1="884.1478260869566" y1="445.6954439769886" x2="891.504347826087" y2="445.6954439769886" stroke="#000"/>
<line x1="884.1478260869566" y1="446.5183855016244" x2="891.504347826087" y2="446.5183855016244" stroke="#000"/>
<line x1="887.8260869565217" y1="445.6954439769886" x2="887.8260869565217" y2="446.5183855016244" stroke="#000"/>
<rect x="891.504347826087" y="430.8352002079275" width="7.356521739130435" height="67.16479979207246" fill="#4F3A7A" data-tooltip="1.48x No-JIT time (YJIT)"/>
<line x1="891.504347826087" y1="430.354801611406" x2="898.8608695652175" y2="430.354801611406" stroke="#000"/>
<line x1="891.504347826087" y1="431.31559880444905" x2="898.8608695652175" y2="431.31559880444905" stroke="#000"/>
<line x1="895.1826086956522" y1="430.354801611406" x2="895.1826086956522" y2="431.31559880444905" stroke="#000"/>
<line x1="887.8260869565217" y1="498.0" x2="887.8260869565217" y2="502.79999999999995" stroke="#000"/>
<text x="887.8260869565217" y="512.4" fill="#111" font-size="small" font-family="monospace" font-weight="bold" text-anchor="end" transform="rotate(-60, 887.8260869565217, 512.4)">
respond_to
</text>
<rect x="906.2173913043479" y="452.47024511615797" width="7.356521739130435" height="45.529754883842045" fill="#7070f8" data-tooltip="1.00x No-JIT time (No JIT)"/>
<line x1="906.2173913043479" y1="452.39453384649954" x2="913.5739130434783" y2="452.39453384649954" stroke="#000"/>
<line x1="906.2173913043479" y1="452.54595638581634" x2="913.5739130434783" y2="452.54595638581634" stroke="#000"/>
<line x1="909.895652173913" y1="452.39453384649954" x2="909.895652173913" y2="452.54595638581634" stroke="#000"/>
<rect x="913.5739130434783" y="454.85764028311706" width="7.356521739130435" height="43.14235971688286" fill="orange" data-tooltip="0.95x No-JIT time (MJIT3.0)"/>
<line x1="913.5739130434783" y1="454.76872364651337" x2="920.9304347826088" y2="454.76872364651337" stroke="#000"/>
<line x1="913.5739130434783" y1="454.9465569197207" x2="920.9304347826088" y2="454.9465569197207" stroke="#000"/>
<line x1="917.2521739130436" y1="454.76872364651337" x2="917.2521739130436" y2="454.9465569197207" stroke="#000"/>
<rect x="920.9304347826087" y="453.0524371970558" width="7.356521739130435" height="44.94756280294417" fill="green" data-tooltip="0.99x No-JIT time (MJIT3.1)"/>
<line x1="920.9304347826087" y1="452.9401671113157" x2="928.2869565217392" y2="452.9401671113157" stroke="#000"/>
<line x1="920.9304347826087" y1="453.1647072827958" x2="928.2869565217392" y2="453.1647072827958" stroke="#000"/>
<line x1="924.608695652174" y1="452.9401671113157" x2="924.608695652174" y2="453.1647072827958" stroke="#000"/>
<rect x="928.2869565217392" y="427.7173756012196" width="7.356521739130435" height="70.28262439878033" fill="#4F3A7A" data-tooltip="1.54x No-JIT time (YJIT)"/>
<line x1="928.2869565217392" y1="427.50163025297195" x2="935.6434782608696" y2="427.50163025297195" stroke="#000"/>
<line x1="928.2869565217392" y1="427.9331209494673" x2="935.6434782608696" y2="427.9331209494673" stroke="#000"/>
<line x1="931.9652173913045" y1="427.50163025297195" x2="931.9652173913045" y2="427.9331209494673" stroke="#000"/>
<line x1="924.608695652174" y1="498.0" x2="924.608695652174" y2="502.79999999999995" stroke="#000"/>
<text x="924.608695652174" y="512.4" fill="#111" font-size="small" font-family="monospace" font-weight="bold" text-anchor="end" transform="rotate(-60, 924.608695652174, 512.4)">
setivar
</text>
</svg>