<svg viewBox="0 0 1000 600" xmlns="http://www.w3.org/2000/svg" xmlns:xlink="http://www.w3.org/1999/xlink" width="100%" height="100%">

<rect x="50.0" y="30.0" width="940.0" height="467.99999999999994" stroke="#000" fill="#EEE"/>
<line x1="42.0" y1="497.9999999999999" x2="50.0" y2="497.9999999999999" stroke="#000"/>
<text x="26.000000000000004" y="497.9999999999999" text-anchor="end" font-weight="bold" font-size="small" fill="#111">
0.0
</text>
<line x1="42.0" y1="423.77174601385633" x2="50.0" y2="423.77174601385633" stroke="#000"/>
<text x="26.000000000000004" y="423.77174601385633" text-anchor="end" font-weight="bold" font-size="small" fill="#111">
2.0
</text>
<line x1="42.0" y1="349.5434920277127" x2="50.0" y2="349.5434920277127" stroke="#000"/>
<text x="26.000000000000004" y="349.5434920277127" text-anchor="end" font-weight="bold" font-size="small" fill="#111">
4.0
</text>
<line x1="42.0" y1="275.3152380415692" x2="50.0" y2="275.3152380415692" stroke="#000"/>
<text x="26.000000000000004" y="275.3152380415692" text-anchor="end" font-weight="bold" font-size="small" fill="#111">
6.0
</text>
<line x1="42.0" y1="201.08698405542563" x2="50.0" y2="201.08698405542563" stroke="#000"/>
<text x="26.000000000000004" y="201.08698405542563" text-anchor="end" font-weight="bold" font-size="small" fill="#111">
8.0
</text>
<line x1="42.0" y1="126.85873006928203" x2="50.0" y2="126.85873006928203" stroke="#000"/>
<text x="26.000000000000004" y="126.85873006928203" text-anchor="end" font-weight="bold" font-size="small" fill="#111">
10.0
</text>
<rect x="268.5" y="36.00000000000001" width="80.0" height="18.0" fill="#7070f8" stroke="#888"/>
<text x="308.5" y="52.50000000000001" font-size="small" text-anchor="middle" font-weight="bold" fill="#EEE">
No JIT
</text>
<rect x="691.4999999999999" y="36.00000000000001" width="80.0" height="18.0" fill="orange" stroke="#888"/>
<text x="731.4999999999999" y="52.50000000000001" font-size="small" text-anchor="middle" font-weight="bold" fill="#EEE">
YJIT
</text>
<rect x="97.0" y="460.88587300692814" width="8.545454545454545" height="37.11412699307179" fill="#7070f8" data-tooltip="1.00x baseline speed (No JIT)"/>
<line x1="97.0" y1="460.690402745982" x2="105.54545454545455" y2="460.690402745982" stroke="#000"/>
<line x1="97.0" y1="461.0813432678742" x2="105.54545454545455" y2="461.0813432678742" stroke="#000"/>
<line x1="101.27272727272728" y1="460.690402745982" x2="101.27272727272728" y2="461.0813432678742" stroke="#000"/>
<rect x="105.54545454545455" y="429.4469030048556" width="8.545454545454545" height="68.55309699514433" fill="orange" data-tooltip="1.85x baseline speed (YJIT)"/>
<line x1="105.54545454545455" y1="428.79969632120174" x2="114.09090909090911" y2="428.79969632120174" stroke="#000"/>
<line x1="105.54545454545455" y1="430.09410968850943" x2="114.09090909090911" y2="430.09410968850943" stroke="#000"/>
<line x1="109.81818181818183" y1="428.79969632120174" x2="109.81818181818183" y2="430.09410968850943" stroke="#000"/>
<line x1="109.81818181818181" y1="498.0" x2="109.81818181818181" y2="502.79999999999995" stroke="#000"/>
<text x="109.81818181818181" y="512.4" fill="#111" font-size="small" font-family="monospace" font-weight="bold" text-anchor="end" transform="rotate(-60, 109.81818181818181, 512.4)">
activerecord
</text>
<rect x="122.63636363636364" y="460.88587300692814" width="8.545454545454545" height="37.11412699307179" fill="#7070f8" data-tooltip="1.00x baseline speed (No JIT)"/>
<line x1="122.63636363636364" y1="460.0963125394659" x2="131.1818181818182" y2="460.0963125394659" stroke="#000"/>
<line x1="122.63636363636364" y1="461.67543347439033" x2="131.1818181818182" y2="461.67543347439033" stroke="#000"/>
<line x1="126.90909090909092" y1="460.0963125394659" x2="126.90909090909092" y2="461.67543347439033" stroke="#000"/>
<rect x="131.1818181818182" y="434.38309055227063" width="8.545454545454545" height="63.61690944772924" fill="orange" data-tooltip="1.71x baseline speed (YJIT)"/>
<line x1="131.1818181818182" y1="431.7435846034649" x2="139.72727272727272" y2="431.7435846034649" stroke="#000"/>
<line x1="131.1818181818182" y1="437.0225965010763" x2="139.72727272727272" y2="437.0225965010763" stroke="#000"/>
<line x1="135.45454545454544" y1="431.7435846034649" x2="135.45454545454544" y2="437.0225965010763" stroke="#000"/>
<line x1="135.45454545454547" y1="498.0" x2="135.45454545454547" y2="502.79999999999995" stroke="#000"/>
<text x="135.45454545454547" y="512.4" fill="#111" font-size="small" font-family="monospace" font-weight="bold" text-anchor="end" transform="rotate(-60, 135.45454545454547, 512.4)">
erubi_rails
</text>
<rect x="148.27272727272728" y="460.88587300692814" width="8.545454545454545" height="37.11412699307179" fill="#7070f8" data-tooltip="1.00x baseline speed (No JIT)"/>
<line x1="148.27272727272728" y1="460.70243100642625" x2="156.81818181818184" y2="460.70243100642625" stroke="#000"/>
<line x1="148.27272727272728" y1="461.06931500742996" x2="156.81818181818184" y2="461.06931500742996" stroke="#000"/>
<line x1="152.54545454545453" y1="460.70243100642625" x2="152.54545454545453" y2="461.06931500742996" stroke="#000"/>
<rect x="156.81818181818184" y="440.9333224755924" width="8.545454545454545" height="57.066677524407595" fill="orange" data-tooltip="1.54x baseline speed (YJIT)"/>
<line x1="156.81818181818184" y1="439.8031512771131" x2="165.36363636363637" y2="439.8031512771131" stroke="#000"/>
<line x1="156.81818181818184" y1="442.06349367407165" x2="165.36363636363637" y2="442.06349367407165" stroke="#000"/>
<line x1="161.0909090909091" y1="439.8031512771131" x2="161.0909090909091" y2="442.06349367407165" stroke="#000"/>
<line x1="161.0909090909091" y1="498.0" x2="161.0909090909091" y2="502.79999999999995" stroke="#000"/>
<text x="161.0909090909091" y="512.4" fill="#111" font-size="small" font-family="monospace" font-weight="bold" text-anchor="end" transform="rotate(-60, 161.0909090909091, 512.4)">
hexapdf
</text>
<rect x="173.9090909090909" y="460.88587300692814" width="8.545454545454545" height="37.11412699307179" fill="#7070f8" data-tooltip="1.00x baseline speed (No JIT)"/>
<line x1="173.9090909090909" y1="460.3976592862027" x2="182.45454545454544" y2="460.3976592862027" stroke="#000"/>
<line x1="173.9090909090909" y1="461.3740867276535" x2="182.45454545454544" y2="461.3740867276535" stroke="#000"/>
<line x1="178.18181818181816" y1="460.3976592862027" x2="178.18181818181816" y2="461.3740867276535" stroke="#000"/>
<rect x="182.45454545454544" y="447.3517215053504" width="8.545454545454545" height="50.64827849464951" fill="orange" data-tooltip="1.36x baseline speed (YJIT)"/>
<line x1="182.45454545454544" y1="446.12731569627783" x2="191.0" y2="446.12731569627783" stroke="#000"/>
<line x1="182.45454545454544" y1="448.5761273144229" x2="191.0" y2="448.5761273144229" stroke="#000"/>
<line x1="186.72727272727272" y1="446.12731569627783" x2="186.72727272727272" y2="448.5761273144229" stroke="#000"/>
<line x1="186.72727272727272" y1="498.0" x2="186.72727272727272" y2="502.79999999999995" stroke="#000"/>
<text x="186.72727272727272" y="512.4" fill="#111" font-size="small" font-family="monospace" font-weight="bold" text-anchor="end" transform="rotate(-60, 186.72727272727272, 512.4)">
liquid-c
</text>
<rect x="199.54545454545453" y="460.88587300692814" width="8.545454545454545" height="37.11412699307179" fill="#7070f8" data-tooltip="1.00x baseline speed (No JIT)"/>
<line x1="199.54545454545453" y1="459.77496585406715" x2="208.09090909090907" y2="459.77496585406715" stroke="#000"/>
<line x1="199.54545454545453" y1="461.99678015978907" x2="208.09090909090907" y2="461.99678015978907" stroke="#000"/>
<line x1="203.81818181818178" y1="459.77496585406715" x2="203.81818181818178" y2="461.99678015978907" stroke="#000"/>
<rect x="208.09090909090907" y="447.0880739491593" width="8.545454545454545" height="50.9119260508407" fill="orange" data-tooltip="1.37x baseline speed (YJIT)"/>
<line x1="208.09090909090907" y1="444.0990082113085" x2="216.63636363636363" y2="444.0990082113085" stroke="#000"/>
<line x1="208.09090909090907" y1="450.0771396870101" x2="216.63636363636363" y2="450.0771396870101" stroke="#000"/>
<line x1="212.36363636363635" y1="444.0990082113085" x2="212.36363636363635" y2="450.0771396870101" stroke="#000"/>
<line x1="212.36363636363635" y1="498.0" x2="212.36363636363635" y2="502.79999999999995" stroke="#000"/>
<text x="212.36363636363635" y="512.4" fill="#111" font-size="small" font-family="monospace" font-weight="bold" text-anchor="end" transform="rotate(-60, 212.36363636363635, 512.4)">
liquid-compile
</text>
<rect x="225.1818181818182" y="460.88587300692814" width="8.545454545454545" height="37.11412699307179" fill="#7070f8" data-tooltip="1.00x baseline speed (No JIT)"/>
<line x1="225.1818181818182" y1="460.3440167801267" x2="233.72727272727272" y2="460.3440167801267" stroke="#000"/>
<line x1="225.1818181818182" y1="461.4277292337295" x2="233.72727272727272" y2="461.4277292337295" stroke="#000"/>
<line x1="229.45454545454544" y1="460.3440167801267" x2="229.45454545454544" y2="461.4277292337295" stroke="#000"/>
<rect x="233.72727272727272" y="427.2657868734483" width="8.545454545454545" height="70.7342131265517" fill="orange" data-tooltip="1.91x baseline speed (YJIT)"/>
<line x1="233.72727272727272" y1="425.11385357988513" x2="242.27272727272728" y2="425.11385357988513" stroke="#000"/>
<line x1="233.72727272727272" y1="429.4177201670114" x2="242.27272727272728" y2="429.4177201670114" stroke="#000"/>
<line x1="238.0" y1="425.11385357988513" x2="238.0" y2="429.4177201670114" stroke="#000"/>
<line x1="238.0" y1="498.0" x2="238.0" y2="502.79999999999995" stroke="#000"/>
<text x="238.0" y="512.4" fill="#111" font-size="small" font-family="monospace" font-weight="bold" text-anchor="end" transform="rotate(-60, 238.0, 512.4)">
liquid-render
</text>
<rect x="250.81818181818184" y="460.88587300692814" width="8.545454545454545" height="37.11412699307179" fill="#7070f8" data-tooltip="1.00x baseline speed (No JIT)"/>
<line x1="250.81818181818184" y1="460.8417076599879" x2="259.3636363636364" y2="460.8417076599879" stroke="#000"/>
<line x1="250.81818181818184" y1="460.9300383538683" x2="259.3636363636364" y2="460.9300383538683" stroke="#000"/>
<line x1="255.0909090909091" y1="460.8417076599879" x2="255.0909090909091" y2="460.9300383538683" stroke="#000"/>
<rect x="259.3636363636364" y="448.9497405035905" width="8.545454545454545" height="49.05025949640948" fill="orange" data-tooltip="1.32x baseline speed (YJIT)"/>
<line x1="259.3636363636364" y1="448.85170917153835" x2="267.9090909090909" y2="448.85170917153835" stroke="#000"/>
<line x1="259.3636363636364" y1="449.0477718356426" x2="267.9090909090909" y2="449.0477718356426" stroke="#000"/>
<line x1="263.6363636363636" y1="448.85170917153835" x2="263.6363636363636" y2="449.0477718356426" stroke="#000"/>
<line x1="263.6363636363637" y1="498.0" x2="263.6363636363637" y2="502.79999999999995" stroke="#000"/>
<text x="263.6363636363637" y="512.4" fill="#111" font-size="small" font-family="monospace" font-weight="bold" text-anchor="end" transform="rotate(-60, 263.6363636363637, 512.4)">
mail
</text>
<rect x="276.45454545454544" y="460.88587300692814" width="8.545454545454545" height="37.11412699307179" fill="#7070f8" data-tooltip="1.00x baseline speed (No JIT)"/>
<line x1="276.45454545454544" y1="460.83299609458777" x2="285.0" y2="460.83299609458777" stroke="#000"/>
<line x1="276.45454545454544" y1="460.93874991926845" x2="285.0" y2="460.93874991926845" stroke="#000"/>
<line x1="280.7272727272727" y1="460.83299609458777" x2="280.7272727272727" y2="460.93874991926845" stroke="#000"/>
<rect x="285.0" y="445.8398214533782" width="8.545454545454545" height="52.16017854662174" fill="orange" data-tooltip="1.41x baseline speed (YJIT)"/>
<line x1="285.0" y1="445.74698588530566" x2="293.5454545454545" y2="445.74698588530566" stroke="#000"/>
<line x1="285.0" y1="445.9326570214507" x2="293.5454545454545" y2="445.9326570214507" stroke="#000"/>
<line x1="289.27272727272725" y1="445.74698588530566" x2="289.27272727272725" y2="445.9326570214507" stroke="#000"/>
<line x1="289.2727272727273" y1="498.0" x2="289.2727272727273" y2="502.79999999999995" stroke="#000"/>
<text x="289.2727272727273" y="512.4" fill="#111" font-size="small" font-family="monospace" font-weight="bold" text-anchor="end" transform="rotate(-60, 289.2727272727273, 512.4)">
psych-load
</text>
<rect x="302.09090909090907" y="460.88587300692814" width="8.545454545454545" height="37.11412699307179" fill="#7070f8" data-tooltip="1.00x baseline speed (No JIT)"/>
<line x1="302.09090909090907" y1="460.6138938598869" x2="310.6363636363636" y2="460.6138938598869" stroke="#000"/>
<line x1="302.09090909090907" y1="461.1578521539693" x2="310.6363636363636" y2="461.1578521539693" stroke="#000"/>
<line x1="306.3636363636363" y1="460.6138938598869" x2="306.3636363636363" y2="461.1578521539693" stroke="#000"/>
<rect x="310.6363636363636" y="441.39998742724197" width="8.545454545454545" height="56.60001257275797" fill="orange" data-tooltip="1.53x baseline speed (YJIT)"/>
<line x1="310.6363636363636" y1="440.59672888306557" x2="319.18181818181813" y2="440.59672888306557" stroke="#000"/>
<line x1="310.6363636363636" y1="442.20324597141837" x2="319.18181818181813" y2="442.20324597141837" stroke="#000"/>
<line x1="314.9090909090909" y1="440.59672888306557" x2="314.9090909090909" y2="442.20324597141837" stroke="#000"/>
<line x1="314.90909090909093" y1="498.0" x2="314.90909090909093" y2="502.79999999999995" stroke="#000"/>
<text x="314.90909090909093" y="512.4" fill="#111" font-size="small" font-family="monospace" font-weight="bold" text-anchor="end" transform="rotate(-60, 314.90909090909093, 512.4)">
railsbench
</text>
<rect x="327.7272727272727" y="460.88587300692814" width="8.545454545454545" height="37.11412699307179" fill="#7070f8" data-tooltip="1.00x baseline speed (No JIT)"/>
<line x1="327.7272727272727" y1="457.78451828066244" x2="336.2727272727272" y2="457.78451828066244" stroke="#000"/>
<line x1="327.7272727272727" y1="463.98722773319383" x2="336.2727272727272" y2="463.98722773319383" stroke="#000"/>
<line x1="331.99999999999994" y1="457.78451828066244" x2="331.99999999999994" y2="463.98722773319383" stroke="#000"/>
<rect x="336.2727272727272" y="446.1464787111054" width="8.545454545454545" height="51.8535212888946" fill="orange" data-tooltip="1.40x baseline speed (YJIT)"/>
<line x1="336.2727272727272" y1="434.77419344334953" x2="344.81818181818176" y2="434.77419344334953" stroke="#000"/>
<line x1="336.2727272727272" y1="457.5187639788612" x2="344.81818181818176" y2="457.5187639788612" stroke="#000"/>
<line x1="340.5454545454545" y1="434.77419344334953" x2="340.5454545454545" y2="457.5187639788612" stroke="#000"/>
<line x1="340.54545454545456" y1="498.0" x2="340.54545454545456" y2="502.79999999999995" stroke="#000"/>
<text x="340.54545454545456" y="512.4" fill="#111" font-size="small" font-family="monospace" font-weight="bold" text-anchor="end" transform="rotate(-60, 340.54545454545456, 512.4)">
ruby-lsp
</text>
<rect x="353.3636363636363" y="460.88587300692814" width="8.545454545454545" height="37.11412699307179" fill="#7070f8" data-tooltip="1.00x baseline speed (No JIT)"/>
<line x1="353.3636363636363" y1="460.81526023965876" x2="361.9090909090908" y2="460.81526023965876" stroke="#000"/>
<line x1="353.3636363636363" y1="460.9564857741975" x2="361.9090909090908" y2="460.9564857741975" stroke="#000"/>
<line x1="357.63636363636357" y1="460.81526023965876" x2="357.63636363636357" y2="460.9564857741975" stroke="#000"/>
<rect x="361.9090909090908" y="450.92486762103186" width="8.545454545454545" height="47.075132378968064" fill="orange" data-tooltip="1.27x baseline speed (YJIT)"/>
<line x1="361.9090909090908" y1="450.7698605068103" x2="370.4545454545454" y2="450.7698605068103" stroke="#000"/>
<line x1="361.9090909090908" y1="451.07987473525344" x2="370.4545454545454" y2="451.07987473525344" stroke="#000"/>
<line x1="366.18181818181813" y1="450.7698605068103" x2="366.18181818181813" y2="451.07987473525344" stroke="#000"/>
<line x1="366.1818181818182" y1="498.0" x2="366.1818181818182" y2="502.79999999999995" stroke="#000"/>
<text x="366.1818181818182" y="512.4" fill="#111" font-size="small" font-family="monospace" font-weight="bold" text-anchor="end" transform="rotate(-60, 366.1818181818182, 512.4)">
sequel
</text>
<rect x="379.0" y="460.88587300692814" width="8.545454545454545" height="37.11412699307179" fill="#7070f8" data-tooltip="1.00x baseline speed (No JIT)"/>
<line x1="379.0" y1="460.86774972970306" x2="387.5454545454545" y2="460.86774972970306" stroke="#000"/>
<line x1="379.0" y1="460.9039962841532" x2="387.5454545454545" y2="460.9039962841532" stroke="#000"/>
<line x1="383.27272727272725" y1="460.86774972970306" x2="383.27272727272725" y2="460.9039962841532" stroke="#000"/>
<rect x="387.5454545454545" y="422.89795891559004" width="8.545454545454545" height="75.10204108440982" fill="orange" data-tooltip="2.02x baseline speed (YJIT)"/>
<line x1="387.5454545454545" y1="422.8274315905203" x2="396.09090909090907" y2="422.8274315905203" stroke="#000"/>
<line x1="387.5454545454545" y1="422.9684862406598" x2="396.09090909090907" y2="422.9684862406598" stroke="#000"/>
<line x1="391.8181818181818" y1="422.8274315905203" x2="391.8181818181818" y2="422.9684862406598" stroke="#000"/>
<line x1="391.81818181818187" y1="498.0" x2="391.81818181818187" y2="502.79999999999995" stroke="#000"/>
<text x="391.81818181818187" y="512.4" fill="#111" font-size="small" font-family="monospace" font-weight="bold" text-anchor="end" transform="rotate(-60, 391.81818181818187, 512.4)">
binarytrees
</text>
<rect x="404.63636363636357" y="460.88587300692814" width="8.545454545454545" height="37.11412699307179" fill="#7070f8" data-tooltip="1.00x baseline speed (No JIT)"/>
<line x1="404.63636363636357" y1="460.8625107025274" x2="413.1818181818181" y2="460.8625107025274" stroke="#000"/>
<line x1="404.63636363636357" y1="460.9092353113288" x2="413.1818181818181" y2="460.9092353113288" stroke="#000"/>
<line x1="408.9090909090908" y1="460.8625107025274" x2="408.9090909090908" y2="460.9092353113288" stroke="#000"/>
<rect x="413.1818181818181" y="440.91774278057494" width="8.545454545454545" height="57.082257219424996" fill="orange" data-tooltip="1.54x baseline speed (YJIT)"/>
<line x1="413.1818181818181" y1="440.82834653463567" x2="421.72727272727263" y2="440.82834653463567" stroke="#000"/>
<line x1="413.1818181818181" y1="441.00713902651427" x2="421.72727272727263" y2="441.00713902651427" stroke="#000"/>
<line x1="417.4545454545454" y1="440.82834653463567" x2="417.4545454545454" y2="441.00713902651427" stroke="#000"/>
<line x1="417.45454545454544" y1="498.0" x2="417.45454545454544" y2="502.79999999999995" stroke="#000"/>
<text x="417.45454545454544" y="512.4" fill="#111" font-size="small" font-family="monospace" font-weight="bold" text-anchor="end" transform="rotate(-60, 417.45454545454544, 512.4)">
chunky_png
</text>
<rect x="430.27272727272725" y="460.88587300692814" width="8.545454545454545" height="37.11412699307179" fill="#7070f8" data-tooltip="1.00x baseline speed (No JIT)"/>
<line x1="430.27272727272725" y1="460.6452992932643" x2="438.81818181818176" y2="460.6452992932643" stroke="#000"/>
<line x1="430.27272727272725" y1="461.12644672059196" x2="438.81818181818176" y2="461.12644672059196" stroke="#000"/>
<line x1="434.5454545454545" y1="460.6452992932643" x2="434.5454545454545" y2="461.12644672059196" stroke="#000"/>
<rect x="438.81818181818176" y="453.7925594043933" width="8.545454545454545" height="44.20744059560662" fill="orange" data-tooltip="1.19x baseline speed (YJIT)"/>
<line x1="438.81818181818176" y1="453.32278405212594" x2="447.3636363636363" y2="453.32278405212594" stroke="#000"/>
<line x1="438.81818181818176" y1="454.2623347566606" x2="447.3636363636363" y2="454.2623347566606" stroke="#000"/>
<line x1="443.090909090909" y1="453.32278405212594" x2="443.090909090909" y2="454.2623347566606" stroke="#000"/>
<line x1="443.09090909090907" y1="498.0" x2="443.09090909090907" y2="502.79999999999995" stroke="#000"/>
<text x="443.09090909090907" y="512.4" fill="#111" font-size="small" font-family="monospace" font-weight="bold" text-anchor="end" transform="rotate(-60, 443.09090909090907, 512.4)">
erubi
</text>
<rect x="455.90909090909093" y="460.88587300692814" width="8.545454545454545" height="37.11412699307179" fill="#7070f8" data-tooltip="1.00x baseline speed (No JIT)"/>
<line x1="455.90909090909093" y1="460.72581751664643" x2="464.45454545454544" y2="460.72581751664643" stroke="#000"/>
<line x1="455.90909090909093" y1="461.0459284972098" x2="464.45454545454544" y2="461.0459284972098" stroke="#000"/>
<line x1="460.1818181818182" y1="460.72581751664643" x2="460.1818181818182" y2="461.0459284972098" stroke="#000"/>
<rect x="464.45454545454544" y="461.2219060697993" width="8.545454545454545" height="36.77809393020061" fill="orange" data-tooltip="0.99x baseline speed (YJIT)"/>
<line x1="464.45454545454544" y1="460.99422289455214" x2="473.0" y2="460.99422289455214" stroke="#000"/>
<line x1="464.45454545454544" y1="461.4495892450464" x2="473.0" y2="461.4495892450464" stroke="#000"/>
<line x1="468.7272727272727" y1="460.99422289455214" x2="468.7272727272727" y2="461.4495892450464" stroke="#000"/>
<line x1="468.72727272727275" y1="498.0" x2="468.72727272727275" y2="502.79999999999995" stroke="#000"/>
<text x="468.72727272727275" y="512.4" fill="#111" font-size="small" font-family="monospace" font-weight="bold" text-anchor="end" transform="rotate(-60, 468.72727272727275, 512.4)">
etanni
</text>
<rect x="481.5454545454545" y="460.88587300692814" width="8.545454545454545" height="37.11412699307179" fill="#7070f8" data-tooltip="1.00x baseline speed (No JIT)"/>
<line x1="481.5454545454545" y1="460.8499939334415" x2="490.090909090909" y2="460.8499939334415" stroke="#000"/>
<line x1="481.5454545454545" y1="460.92175208041476" x2="490.090909090909" y2="460.92175208041476" stroke="#000"/>
<line x1="485.81818181818176" y1="460.8499939334415" x2="485.81818181818176" y2="460.92175208041476" stroke="#000"/>
<rect x="490.090909090909" y="394.0142936137632" width="8.545454545454545" height="103.98570638623677" fill="orange" data-tooltip="2.80x baseline speed (YJIT)"/>
<line x1="490.090909090909" y1="393.89537272078945" x2="498.63636363636357" y2="393.89537272078945" stroke="#000"/>
<line x1="490.090909090909" y1="394.13321450673686" x2="498.63636363636357" y2="394.13321450673686" stroke="#000"/>
<line x1="494.36363636363626" y1="393.89537272078945" x2="494.36363636363626" y2="394.13321450673686" stroke="#000"/>
<line x1="494.3636363636363" y1="498.0" x2="494.3636363636363" y2="502.79999999999995" stroke="#000"/>
<text x="494.3636363636363" y="512.4" fill="#111" font-size="small" font-family="monospace" font-weight="bold" text-anchor="end" transform="rotate(-60, 494.3636363636363, 512.4)">
fannkuchredux
</text>
<rect x="507.1818181818182" y="460.88587300692814" width="8.545454545454545" height="37.11412699307179" fill="#7070f8" data-tooltip="1.00x baseline speed (No JIT)"/>
<line x1="507.1818181818182" y1="460.7691364342208" x2="515.7272727272727" y2="460.7691364342208" stroke="#000"/>
<line x1="507.1818181818182" y1="461.0026095796354" x2="515.7272727272727" y2="461.0026095796354" stroke="#000"/>
<line x1="511.4545454545455" y1="460.7691364342208" x2="511.4545454545455" y2="461.0026095796354" stroke="#000"/>
<rect x="515.7272727272727" y="446.2414743274559" width="8.545454545454545" height="51.758525672544124" fill="orange" data-tooltip="1.39x baseline speed (YJIT)"/>
<line x1="515.7272727272727" y1="445.9836855137842" x2="524.2727272727273" y2="445.9836855137842" stroke="#000"/>
<line x1="515.7272727272727" y1="446.4992631411275" x2="524.2727272727273" y2="446.4992631411275" stroke="#000"/>
<line x1="520.0" y1="445.9836855137842" x2="520.0" y2="446.4992631411275" stroke="#000"/>
<line x1="520.0" y1="498.0" x2="520.0" y2="502.79999999999995" stroke="#000"/>
<text x="520.0" y="512.4" fill="#111" font-size="small" font-family="monospace" font-weight="bold" text-anchor="end" transform="rotate(-60, 520.0, 512.4)">
lee
</text>
<rect x="532.8181818181818" y="460.88587300692814" width="8.545454545454545" height="37.11412699307179" fill="#7070f8" data-tooltip="1.00x baseline speed (No JIT)"/>
<line x1="532.8181818181818" y1="460.85753829818697" x2="541.3636363636363" y2="460.85753829818697" stroke="#000"/>
<line x1="532.8181818181818" y1="460.9142077156693" x2="541.3636363636363" y2="460.9142077156693" stroke="#000"/>
<line x1="537.090909090909" y1="460.85753829818697" x2="537.090909090909" y2="460.9142077156693" stroke="#000"/>
<rect x="541.3636363636363" y="439.6244763116717" width="8.545454545454545" height="58.37552368832826" fill="orange" data-tooltip="1.57x baseline speed (YJIT)"/>
<line x1="541.3636363636363" y1="439.5528452942682" x2="549.9090909090908" y2="439.5528452942682" stroke="#000"/>
<line x1="541.3636363636363" y1="439.6961073290751" x2="549.9090909090908" y2="439.6961073290751" stroke="#000"/>
<line x1="545.6363636363636" y1="439.5528452942682" x2="545.6363636363636" y2="439.6961073290751" stroke="#000"/>
<line x1="545.6363636363636" y1="498.0" x2="545.6363636363636" y2="502.79999999999995" stroke="#000"/>
<text x="545.6363636363636" y="512.4" fill="#111" font-size="small" font-family="monospace" font-weight="bold" text-anchor="end" transform="rotate(-60, 545.6363636363636, 512.4)">
nbody
</text>
<rect x="558.4545454545454" y="460.88587300692814" width="8.545454545454545" height="37.11412699307179" fill="#7070f8" data-tooltip="1.00x baseline speed (No JIT)"/>
<line x1="558.4545454545454" y1="460.6413381180403" x2="567.0" y2="460.6413381180403" stroke="#000"/>
<line x1="558.4545454545454" y1="461.1304078958159" x2="567.0" y2="461.1304078958159" stroke="#000"/>
<line x1="562.7272727272727" y1="460.6413381180403" x2="562.7272727272727" y2="461.1304078958159" stroke="#000"/>
<rect x="567.0" y="396.8977531271275" width="8.545454545454545" height="101.10224687287247" fill="orange" data-tooltip="2.72x baseline speed (YJIT)"/>
<line x1="567.0" y1="395.9801355555471" x2="575.5454545454545" y2="395.9801355555471" stroke="#000"/>
<line x1="567.0" y1="397.81537069870785" x2="575.5454545454545" y2="397.81537069870785" stroke="#000"/>
<line x1="571.2727272727273" y1="395.9801355555471" x2="571.2727272727273" y2="397.81537069870785" stroke="#000"/>
<line x1="571.2727272727273" y1="498.0" x2="571.2727272727273" y2="502.79999999999995" stroke="#000"/>
<text x="571.2727272727273" y="512.4" fill="#111" font-size="small" font-family="monospace" font-weight="bold" text-anchor="end" transform="rotate(-60, 571.2727272727273, 512.4)">
optcarrot
</text>
<rect x="584.0909090909091" y="460.88587300692814" width="8.545454545454545" height="37.11412699307179" fill="#7070f8" data-tooltip="1.00x baseline speed (No JIT)"/>
<line x1="584.0909090909091" y1="460.8450261921179" x2="592.6363636363636" y2="460.8450261921179" stroke="#000"/>
<line x1="584.0909090909091" y1="460.92671982173835" x2="592.6363636363636" y2="460.92671982173835" stroke="#000"/>
<line x1="588.3636363636364" y1="460.8450261921179" x2="588.3636363636364" y2="460.92671982173835" stroke="#000"/>
<rect x="592.6363636363636" y="454.174196734744" width="8.545454545454545" height="43.825803265255914" fill="orange" data-tooltip="1.18x baseline speed (YJIT)"/>
<line x1="592.6363636363636" y1="454.0581398803574" x2="601.1818181818181" y2="454.0581398803574" stroke="#000"/>
<line x1="592.6363636363636" y1="454.2902535891306" x2="601.1818181818181" y2="454.2902535891306" stroke="#000"/>
<line x1="596.909090909091" y1="454.0581398803574" x2="596.909090909091" y2="454.2902535891306" stroke="#000"/>
<line x1="596.909090909091" y1="498.0" x2="596.909090909091" y2="502.79999999999995" stroke="#000"/>
<text x="596.909090909091" y="512.4" fill="#111" font-size="small" font-family="monospace" font-weight="bold" text-anchor="end" transform="rotate(-60, 596.909090909091, 512.4)">
ruby-json
</text>
<rect x="609.7272727272726" y="460.88587300692814" width="8.545454545454545" height="37.11412699307179" fill="#7070f8" data-tooltip="1.00x baseline speed (No JIT)"/>
<line x1="609.7272727272726" y1="460.7378960329178" x2="618.2727272727273" y2="460.7378960329178" stroke="#000"/>
<line x1="609.7272727272726" y1="461.03384998093844" x2="618.2727272727273" y2="461.03384998093844" stroke="#000"/>
<line x1="614.0" y1="460.7378960329178" x2="614.0" y2="461.03384998093844" stroke="#000"/>
<rect x="618.2727272727273" y="428.45580740958206" width="8.545454545454545" height="69.54419259041782" fill="orange" data-tooltip="1.87x baseline speed (YJIT)"/>
<line x1="618.2727272727273" y1="428.08301768551297" x2="626.8181818181818" y2="428.08301768551297" stroke="#000"/>
<line x1="618.2727272727273" y1="428.82859713365116" x2="626.8181818181818" y2="428.82859713365116" stroke="#000"/>
<line x1="622.5454545454545" y1="428.08301768551297" x2="622.5454545454545" y2="428.82859713365116" stroke="#000"/>
<line x1="622.5454545454545" y1="498.0" x2="622.5454545454545" y2="502.79999999999995" stroke="#000"/>
<text x="622.5454545454545" y="512.4" fill="#111" font-size="small" font-family="monospace" font-weight="bold" text-anchor="end" transform="rotate(-60, 622.5454545454545, 512.4)">
rubykon
</text>
<rect x="635.3636363636363" y="460.88587300692814" width="8.545454545454545" height="37.11412699307179" fill="#7070f8" data-tooltip="1.00x baseline speed (No JIT)"/>
<line x1="635.3636363636363" y1="460.88000050012323" x2="643.9090909090908" y2="460.88000050012323" stroke="#000"/>
<line x1="635.3636363636363" y1="460.89174551373304" x2="643.9090909090908" y2="460.89174551373304" stroke="#000"/>
<line x1="639.6363636363635" y1="460.88000050012323" x2="639.6363636363635" y2="460.89174551373304" stroke="#000"/>
<rect x="643.9090909090908" y="257.62131473877395" width="8.545454545454545" height="240.378685261226" fill="orange" data-tooltip="6.48x baseline speed (YJIT)"/>
<line x1="643.9090909090908" y1="257.46673572103344" x2="652.4545454545453" y2="257.46673572103344" stroke="#000"/>
<line x1="643.9090909090908" y1="257.77589375651445" x2="652.4545454545453" y2="257.77589375651445" stroke="#000"/>
<line x1="648.1818181818181" y1="257.46673572103344" x2="648.1818181818181" y2="257.77589375651445" stroke="#000"/>
<line x1="648.1818181818181" y1="498.0" x2="648.1818181818181" y2="502.79999999999995" stroke="#000"/>
<text x="648.1818181818181" y="512.4" fill="#111" font-size="small" font-family="monospace" font-weight="bold" text-anchor="end" transform="rotate(-60, 648.1818181818181, 512.4)">
30k_ifelse
</text>
<rect x="660.9999999999999" y="460.88587300692814" width="8.545454545454545" height="37.11412699307179" fill="#7070f8" data-tooltip="1.00x baseline speed (No JIT)"/>
<line x1="660.9999999999999" y1="460.87820971369854" x2="669.5454545454544" y2="460.87820971369854" stroke="#000"/>
<line x1="660.9999999999999" y1="460.8935363001577" x2="669.5454545454544" y2="460.8935363001577" stroke="#000"/>
<line x1="665.2727272727273" y1="460.87820971369854" x2="665.2727272727273" y2="460.8935363001577" stroke="#000"/>
<rect x="669.5454545454544" y="194.67020252344895" width="8.545454545454545" height="303.32979747655094" fill="orange" data-tooltip="8.17x baseline speed (YJIT)"/>
<line x1="669.5454545454544" y1="194.56766447108447" x2="678.090909090909" y2="194.56766447108447" stroke="#000"/>
<line x1="669.5454545454544" y1="194.77274057581346" x2="678.090909090909" y2="194.77274057581346" stroke="#000"/>
<line x1="673.8181818181818" y1="194.56766447108447" x2="673.8181818181818" y2="194.77274057581346" stroke="#000"/>
<line x1="673.8181818181818" y1="498.0" x2="673.8181818181818" y2="502.79999999999995" stroke="#000"/>
<text x="673.8181818181818" y="512.4" fill="#111" font-size="small" font-family="monospace" font-weight="bold" text-anchor="end" transform="rotate(-60, 673.8181818181818, 512.4)">
30k_methods
</text>
<rect x="686.6363636363636" y="460.88587300692814" width="8.545454545454545" height="37.11412699307179" fill="#7070f8" data-tooltip="1.00x baseline speed (No JIT)"/>
<line x1="686.6363636363636" y1="460.80072156230943" x2="695.1818181818181" y2="460.80072156230943" stroke="#000"/>
<line x1="686.6363636363636" y1="460.9710244515468" x2="695.1818181818181" y2="460.9710244515468" stroke="#000"/>
<line x1="690.9090909090909" y1="460.80072156230943" x2="690.9090909090909" y2="460.9710244515468" stroke="#000"/>
<rect x="695.1818181818181" y="397.0508247166684" width="8.545454545454545" height="100.94917528333157" fill="orange" data-tooltip="2.72x baseline speed (YJIT)"/>
<line x1="695.1818181818181" y1="396.7490944830524" x2="703.7272727272726" y2="396.7490944830524" stroke="#000"/>
<line x1="695.1818181818181" y1="397.3525549502844" x2="703.7272727272726" y2="397.3525549502844" stroke="#000"/>
<line x1="699.4545454545455" y1="396.7490944830524" x2="699.4545454545455" y2="397.3525549502844" stroke="#000"/>
<line x1="699.4545454545455" y1="498.0" x2="699.4545454545455" y2="502.79999999999995" stroke="#000"/>
<text x="699.4545454545455" y="512.4" fill="#111" font-size="small" font-family="monospace" font-weight="bold" text-anchor="end" transform="rotate(-60, 699.4545454545455, 512.4)">
cfunc_itself
</text>
<rect x="712.2727272727271" y="460.88587300692814" width="8.545454545454545" height="37.11412699307179" fill="#7070f8" data-tooltip="1.00x baseline speed (No JIT)"/>
<line x1="712.2727272727271" y1="460.7567654705617" x2="720.8181818181816" y2="460.7567654705617" stroke="#000"/>
<line x1="712.2727272727271" y1="461.0149805432946" x2="720.8181818181816" y2="461.0149805432946" stroke="#000"/>
<line x1="716.5454545454545" y1="460.7567654705617" x2="716.5454545454545" y2="461.0149805432946" stroke="#000"/>
<rect x="720.8181818181816" y="299.7323218358744" width="8.545454545454545" height="198.26767816412553" fill="orange" data-tooltip="5.34x baseline speed (YJIT)"/>
<line x1="720.8181818181816" y1="299.0357644445101" x2="729.3636363636363" y2="299.0357644445101" stroke="#000"/>
<line x1="720.8181818181816" y1="300.4288792272388" x2="729.3636363636363" y2="300.4288792272388" stroke="#000"/>
<line x1="725.090909090909" y1="299.0357644445101" x2="725.090909090909" y2="300.4288792272388" stroke="#000"/>
<line x1="725.090909090909" y1="498.0" x2="725.090909090909" y2="502.79999999999995" stroke="#000"/>
<text x="725.090909090909" y="512.4" fill="#111" font-size="small" font-family="monospace" font-weight="bold" text-anchor="end" transform="rotate(-60, 725.090909090909, 512.4)">
fib
</text>
<rect x="737.9090909090909" y="460.88587300692814" width="8.545454545454545" height="37.11412699307179" fill="#7070f8" data-tooltip="1.00x baseline speed (No JIT)"/>
<line x1="737.9090909090909" y1="460.78664553802713" x2="746.4545454545454" y2="460.78664553802713" stroke="#000"/>
<line x1="737.9090909090909" y1="460.9851004758291" x2="746.4545454545454" y2="460.9851004758291" stroke="#000"/>
<line x1="742.1818181818181" y1="460.78664553802713" x2="742.1818181818181" y2="460.9851004758291" stroke="#000"/>
<rect x="746.4545454545454" y="297.03866781756676" width="8.545454545454545" height="200.96133218243318" fill="orange" data-tooltip="5.41x baseline speed (YJIT)"/>
<line x1="746.4545454545454" y1="296.33942037107636" x2="754.9999999999999" y2="296.33942037107636" stroke="#000"/>
<line x1="746.4545454545454" y1="297.73791526405716" x2="754.9999999999999" y2="297.73791526405716" stroke="#000"/>
<line x1="750.7272727272726" y1="296.33942037107636" x2="750.7272727272726" y2="297.73791526405716" stroke="#000"/>
<line x1="750.7272727272726" y1="498.0" x2="750.7272727272726" y2="502.79999999999995" stroke="#000"/>
<text x="750.7272727272726" y="512.4" fill="#111" font-size="small" font-family="monospace" font-weight="bold" text-anchor="end" transform="rotate(-60, 750.7272727272726, 512.4)">
getivar
</text>
<rect x="763.5454545454544" y="460.88587300692814" width="8.545454545454545" height="37.11412699307179" fill="#7070f8" data-tooltip="1.00x baseline speed (No JIT)"/>
<line x1="763.5454545454544" y1="460.8459119328086" x2="772.0909090909089" y2="460.8459119328086" stroke="#000"/>
<line x1="763.5454545454544" y1="460.92583408104764" x2="772.0909090909089" y2="460.92583408104764" stroke="#000"/>
<line x1="767.8181818181818" y1="460.8459119328086" x2="767.8181818181818" y2="460.92583408104764" stroke="#000"/>
<rect x="772.0909090909089" y="276.906880794633" width="8.545454545454545" height="221.09311920536692" fill="orange" data-tooltip="5.96x baseline speed (YJIT)"/>
<line x1="772.0909090909089" y1="276.38110237840567" x2="780.6363636363635" y2="276.38110237840567" stroke="#000"/>
<line x1="772.0909090909089" y1="277.4326592108603" x2="780.6363636363635" y2="277.4326592108603" stroke="#000"/>
<line x1="776.3636363636363" y1="276.38110237840567" x2="776.3636363636363" y2="277.4326592108603" stroke="#000"/>
<line x1="776.3636363636363" y1="498.0" x2="776.3636363636363" y2="502.79999999999995" stroke="#000"/>
<text x="776.3636363636363" y="512.4" fill="#111" font-size="small" font-family="monospace" font-weight="bold" text-anchor="end" transform="rotate(-60, 776.3636363636363, 512.4)">
keyword_args
</text>
<rect x="789.1818181818181" y="460.88587300692814" width="8.545454545454545" height="37.11412699307179" fill="#7070f8" data-tooltip="1.00x baseline speed (No JIT)"/>
<line x1="789.1818181818181" y1="460.78337538330527" x2="797.7272727272726" y2="460.78337538330527" stroke="#000"/>
<line x1="789.1818181818181" y1="460.98837063055095" x2="797.7272727272726" y2="460.98837063055095" stroke="#000"/>
<line x1="793.4545454545454" y1="460.78337538330527" x2="793.4545454545454" y2="460.98837063055095" stroke="#000"/>
<rect x="797.7272727272726" y="100.19999999999999" width="8.545454545454545" height="397.79999999999995" fill="orange" data-tooltip="10.72x baseline speed (YJIT)"/>
<line x1="797.7272727272726" y1="97.56174860948919" x2="806.2727272727271" y2="97.56174860948919" stroke="#000"/>
<line x1="797.7272727272726" y1="102.83825139051079" x2="806.2727272727271" y2="102.83825139051079" stroke="#000"/>
<line x1="801.9999999999999" y1="97.56174860948919" x2="801.9999999999999" y2="102.83825139051079" stroke="#000"/>
<line x1="801.9999999999999" y1="498.0" x2="801.9999999999999" y2="502.79999999999995" stroke="#000"/>
<text x="801.9999999999999" y="512.4" fill="#111" font-size="small" font-family="monospace" font-weight="bold" text-anchor="end" transform="rotate(-60, 801.9999999999999, 512.4)">
respond_to
</text>
<rect x="814.8181818181818" y="460.88587300692814" width="8.545454545454545" height="37.11412699307179" fill="#7070f8" data-tooltip="1.00x baseline speed (No JIT)"/>
<line x1="814.8181818181818" y1="460.7977609531242" x2="823.3636363636363" y2="460.7977609531242" stroke="#000"/>
<line x1="814.8181818181818" y1="460.973985060732" x2="823.3636363636363" y2="460.973985060732" stroke="#000"/>
<line x1="819.0909090909091" y1="460.7977609531242" x2="819.0909090909091" y2="460.973985060732" stroke="#000"/>
<rect x="823.3636363636363" y="271.11214002260306" width="8.545454545454545" height="226.8878599773969" fill="orange" data-tooltip="6.11x baseline speed (YJIT)"/>
<line x1="823.3636363636363" y1="270.5031123940032" x2="831.9090909090908" y2="270.5031123940032" stroke="#000"/>
<line x1="823.3636363636363" y1="271.7211676512029" x2="831.9090909090908" y2="271.7211676512029" stroke="#000"/>
<line x1="827.6363636363636" y1="270.5031123940032" x2="827.6363636363636" y2="271.7211676512029" stroke="#000"/>
<line x1="827.6363636363636" y1="498.0" x2="827.6363636363636" y2="502.79999999999995" stroke="#000"/>
<text x="827.6363636363636" y="512.4" fill="#111" font-size="small" font-family="monospace" font-weight="bold" text-anchor="end" transform="rotate(-60, 827.6363636363636, 512.4)">
setivar
</text>
<rect x="840.4545454545454" y="460.88587300692814" width="8.545454545454545" height="37.11412699307179" fill="#7070f8" data-tooltip="1.00x baseline speed (No JIT)"/>
<line x1="840.4545454545454" y1="460.0409122658139" x2="848.9999999999999" y2="460.0409122658139" stroke="#000"/>
<line x1="840.4545454545454" y1="461.7308337480423" x2="848.9999999999999" y2="461.7308337480423" stroke="#000"/>
<line x1="844.7272727272726" y1="460.0409122658139" x2="844.7272727272726" y2="461.7308337480423" stroke="#000"/>
<rect x="848.9999999999999" y="407.6995721140091" width="8.545454545454545" height="90.30042788599091" fill="orange" data-tooltip="2.43x baseline speed (YJIT)"/>
<line x1="848.9999999999999" y1="405.0344222967947" x2="857.5454545454544" y2="405.0344222967947" stroke="#000"/>
<line x1="848.9999999999999" y1="410.3647219312235" x2="857.5454545454544" y2="410.3647219312235" stroke="#000"/>
<line x1="853.2727272727271" y1="405.0344222967947" x2="853.2727272727271" y2="410.3647219312235" stroke="#000"/>
<line x1="853.2727272727271" y1="498.0" x2="853.2727272727271" y2="502.79999999999995" stroke="#000"/>
<text x="853.2727272727271" y="512.4" fill="#111" font-size="small" font-family="monospace" font-weight="bold" text-anchor="end" transform="rotate(-60, 853.2727272727271, 512.4)">
setivar_object
</text>
<rect x="866.090909090909" y="460.88587300692814" width="8.545454545454545" height="37.11412699307179" fill="#7070f8" data-tooltip="1.00x baseline speed (No JIT)"/>
<line x1="866.090909090909" y1="460.61191842460687" x2="874.6363636363635" y2="460.61191842460687" stroke="#000"/>
<line x1="866.090909090909" y1="461.15982758924935" x2="874.6363636363635" y2="461.15982758924935" stroke="#000"/>
<line x1="870.3636363636364" y1="460.61191842460687" x2="870.3636363636364" y2="461.15982758924935" stroke="#000"/>
<rect x="874.6363636363635" y="408.64481849624445" width="8.545454545454545" height="89.35518150375547" fill="orange" data-tooltip="2.41x baseline speed (YJIT)"/>
<line x1="874.6363636363635" y1="407.1597865315305" x2="883.181818181818" y2="407.1597865315305" stroke="#000"/>
<line x1="874.6363636363635" y1="410.1298504609584" x2="883.181818181818" y2="410.1298504609584" stroke="#000"/>
<line x1="878.9090909090909" y1="407.1597865315305" x2="878.9090909090909" y2="410.1298504609584" stroke="#000"/>
<line x1="878.9090909090909" y1="498.0" x2="878.9090909090909" y2="502.79999999999995" stroke="#000"/>
<text x="878.9090909090909" y="512.4" fill="#111" font-size="small" font-family="monospace" font-weight="bold" text-anchor="end" transform="rotate(-60, 878.9090909090909, 512.4)">
setivar_young
</text>
<rect x="891.7272727272726" y="460.88587300692814" width="8.545454545454545" height="37.11412699307179" fill="#7070f8" data-tooltip="1.00x baseline speed (No JIT)"/>
<line x1="891.7272727272726" y1="460.63179608841125" x2="900.2727272727271" y2="460.63179608841125" stroke="#000"/>
<line x1="891.7272727272726" y1="461.139949925445" x2="900.2727272727271" y2="461.139949925445" stroke="#000"/>
<line x1="895.9999999999999" y1="460.63179608841125" x2="895.9999999999999" y2="461.139949925445" stroke="#000"/>
<rect x="900.2727272727271" y="427.20092208703164" width="8.545454545454545" height="70.79907791296834" fill="orange" data-tooltip="1.91x baseline speed (YJIT)"/>
<line x1="900.2727272727271" y1="426.08938670299443" x2="908.8181818181816" y2="426.08938670299443" stroke="#000"/>
<line x1="900.2727272727271" y1="428.31245747106885" x2="908.8181818181816" y2="428.31245747106885" stroke="#000"/>
<line x1="904.5454545454544" y1="426.08938670299443" x2="904.5454545454544" y2="428.31245747106885" stroke="#000"/>
<line x1="904.5454545454544" y1="498.0" x2="904.5454545454544" y2="502.79999999999995" stroke="#000"/>
<text x="904.5454545454544" y="512.4" fill="#111" font-size="small" font-family="monospace" font-weight="bold" text-anchor="end" transform="rotate(-60, 904.5454545454544, 512.4)">
str_concat
</text>
<rect x="917.3636363636363" y="460.88587300692814" width="8.545454545454545" height="37.11412699307179" fill="#7070f8" data-tooltip="1.00x baseline speed (No JIT)"/>
<line x1="917.3636363636363" y1="460.8211243763144" x2="925.9090909090908" y2="460.8211243763144" stroke="#000"/>
<line x1="917.3636363636363" y1="460.9506216375418" x2="925.9090909090908" y2="460.9506216375418" stroke="#000"/>
<line x1="921.6363636363636" y1="460.8211243763144" x2="921.6363636363636" y2="460.9506216375418" stroke="#000"/>
<rect x="925.9090909090908" y="452.475645328133" width="8.545454545454545" height="45.52435467186694" fill="orange" data-tooltip="1.23x baseline speed (YJIT)"/>
<line x1="925.9090909090908" y1="452.3449964563891" x2="934.4545454545453" y2="452.3449964563891" stroke="#000"/>
<line x1="925.9090909090908" y1="452.60629419987697" x2="934.4545454545453" y2="452.60629419987697" stroke="#000"/>
<line x1="930.1818181818181" y1="452.3449964563891" x2="930.1818181818181" y2="452.60629419987697" stroke="#000"/>
<line x1="930.1818181818181" y1="498.0" x2="930.1818181818181" y2="502.79999999999995" stroke="#000"/>
<text x="930.1818181818181" y="512.4" fill="#111" font-size="small" font-family="monospace" font-weight="bold" text-anchor="end" transform="rotate(-60, 930.1818181818181, 512.4)">
throw
</text>
</svg>