<svg viewBox="0 0 1000 600" xmlns="http://www.w3.org/2000/svg" xmlns:xlink="http://www.w3.org/1999/xlink" width="100%" height="100%">

<rect x="50.0" y="30.0" width="940.0" height="467.99999999999994" stroke="#000" fill="#EEE"/>
<line x1="42.0" y1="497.9999999999999" x2="50.0" y2="497.9999999999999" stroke="#000"/>
<text x="26.000000000000004" y="497.9999999999999" text-anchor="end" font-weight="bold" font-size="small" fill="#111">
0.0
</text>
<line x1="42.0" y1="412.2381003935949" x2="50.0" y2="412.2381003935949" stroke="#000"/>
<text x="26.000000000000004" y="412.2381003935949" text-anchor="end" font-weight="bold" font-size="small" fill="#111">
2.0
</text>
<line x1="42.0" y1="326.47620078718995" x2="50.0" y2="326.47620078718995" stroke="#000"/>
<text x="26.000000000000004" y="326.47620078718995" text-anchor="end" font-weight="bold" font-size="small" fill="#111">
4.0
</text>
<line x1="42.0" y1="240.71430118078493" x2="50.0" y2="240.71430118078493" stroke="#000"/>
<text x="26.000000000000004" y="240.71430118078493" text-anchor="end" font-weight="bold" font-size="small" fill="#111">
6.0
</text>
<line x1="42.0" y1="154.95240157437996" x2="50.0" y2="154.95240157437996" stroke="#000"/>
<text x="26.000000000000004" y="154.95240157437996" text-anchor="end" font-weight="bold" font-size="small" fill="#111">
8.0
</text>
<rect x="268.5" y="36.00000000000001" width="80.0" height="18.0" fill="#7070f8" stroke="#888"/>
<text x="308.5" y="52.50000000000001" font-size="small" text-anchor="middle" font-weight="bold" fill="#EEE">
No JIT
</text>
<rect x="691.4999999999999" y="36.00000000000001" width="80.0" height="18.0" fill="orange" stroke="#888"/>
<text x="731.4999999999999" y="52.50000000000001" font-size="small" text-anchor="middle" font-weight="bold" fill="#EEE">
YJIT
</text>
<rect x="97.0" y="455.1190501967975" width="10.846153846153845" height="42.8809498032025" fill="#7070f8" data-tooltip="1.00x baseline speed (No JIT)"/>
<line x1="97.0" y1="454.8976128329888" x2="107.84615384615384" y2="454.8976128329888" stroke="#000"/>
<line x1="97.0" y1="455.34048756060616" x2="107.84615384615384" y2="455.34048756060616" stroke="#000"/>
<line x1="102.42307692307692" y1="454.8976128329888" x2="102.42307692307692" y2="455.34048756060616" stroke="#000"/>
<rect x="107.84615384615384" y="437.30615880286564" width="10.846153846153845" height="60.69384119713436" fill="orange" data-tooltip="1.42x baseline speed (YJIT)"/>
<line x1="107.84615384615384" y1="436.831324976149" x2="118.69230769230768" y2="436.831324976149" stroke="#000"/>
<line x1="107.84615384615384" y1="437.7809926295823" x2="118.69230769230768" y2="437.7809926295823" stroke="#000"/>
<line x1="113.26923076923076" y1="436.831324976149" x2="113.26923076923076" y2="437.7809926295823" stroke="#000"/>
<line x1="113.26923076923077" y1="498.0" x2="113.26923076923077" y2="502.79999999999995" stroke="#000"/>
<text x="113.26923076923077" y="512.4" fill="#111" font-size="small" font-family="monospace" font-weight="bold" text-anchor="end" transform="rotate(-60, 113.26923076923077, 512.4)">
activerecord
</text>
<rect x="129.53846153846155" y="455.1190501967975" width="10.846153846153845" height="42.8809498032025" fill="#7070f8" data-tooltip="1.00x baseline speed (No JIT)"/>
<line x1="129.53846153846155" y1="454.62436196037794" x2="140.3846153846154" y2="454.62436196037794" stroke="#000"/>
<line x1="129.53846153846155" y1="455.61373843321707" x2="140.3846153846154" y2="455.61373843321707" stroke="#000"/>
<line x1="134.96153846153845" y1="454.62436196037794" x2="134.96153846153845" y2="455.61373843321707" stroke="#000"/>
<rect x="140.3846153846154" y="440.1842802413716" width="10.846153846153845" height="57.815719758628276" fill="orange" data-tooltip="1.35x baseline speed (YJIT)"/>
<line x1="140.3846153846154" y1="438.94800033643276" x2="151.23076923076923" y2="438.94800033643276" stroke="#000"/>
<line x1="140.3846153846154" y1="441.4205601463105" x2="151.23076923076923" y2="441.4205601463105" stroke="#000"/>
<line x1="145.8076923076923" y1="438.94800033643276" x2="145.8076923076923" y2="441.4205601463105" stroke="#000"/>
<line x1="145.8076923076923" y1="498.0" x2="145.8076923076923" y2="502.79999999999995" stroke="#000"/>
<text x="145.8076923076923" y="512.4" fill="#111" font-size="small" font-family="monospace" font-weight="bold" text-anchor="end" transform="rotate(-60, 145.8076923076923, 512.4)">
hexapdf
</text>
<rect x="162.07692307692307" y="455.1190501967975" width="10.846153846153845" height="42.8809498032025" fill="#7070f8" data-tooltip="1.00x baseline speed (No JIT)"/>
<line x1="162.07692307692307" y1="454.47755285452524" x2="172.9230769230769" y2="454.47755285452524" stroke="#000"/>
<line x1="162.07692307692307" y1="455.7605475390697" x2="172.9230769230769" y2="455.7605475390697" stroke="#000"/>
<line x1="167.49999999999997" y1="454.47755285452524" x2="167.49999999999997" y2="455.7605475390697" stroke="#000"/>
<rect x="172.9230769230769" y="425.3715474396223" width="10.846153846153845" height="72.62845256037762" fill="orange" data-tooltip="1.69x baseline speed (YJIT)"/>
<line x1="172.9230769230769" y1="423.5670539424634" x2="183.76923076923075" y2="423.5670539424634" stroke="#000"/>
<line x1="172.9230769230769" y1="427.1760409367812" x2="183.76923076923075" y2="427.1760409367812" stroke="#000"/>
<line x1="178.3461538461538" y1="423.5670539424634" x2="178.3461538461538" y2="427.1760409367812" stroke="#000"/>
<line x1="178.3461538461538" y1="498.0" x2="178.3461538461538" y2="502.79999999999995" stroke="#000"/>
<text x="178.3461538461538" y="512.4" fill="#111" font-size="small" font-family="monospace" font-weight="bold" text-anchor="end" transform="rotate(-60, 178.3461538461538, 512.4)">
liquid-render
</text>
<rect x="194.6153846153846" y="455.1190501967975" width="10.846153846153845" height="42.8809498032025" fill="#7070f8" data-tooltip="1.00x baseline speed (No JIT)"/>
<line x1="194.6153846153846" y1="455.06093078938505" x2="205.46153846153845" y2="455.06093078938505" stroke="#000"/>
<line x1="194.6153846153846" y1="455.1771696042099" x2="205.46153846153845" y2="455.1771696042099" stroke="#000"/>
<line x1="200.03846153846152" y1="455.06093078938505" x2="200.03846153846152" y2="455.1771696042099" stroke="#000"/>
<rect x="205.46153846153845" y="449.25005883411575" width="10.846153846153845" height="48.74994116588417" fill="orange" data-tooltip="1.14x baseline speed (YJIT)"/>
<line x1="205.46153846153845" y1="449.16230436553667" x2="216.3076923076923" y2="449.16230436553667" stroke="#000"/>
<line x1="205.46153846153845" y1="449.33781330269477" x2="216.3076923076923" y2="449.33781330269477" stroke="#000"/>
<line x1="210.88461538461536" y1="449.16230436553667" x2="210.88461538461536" y2="449.33781330269477" stroke="#000"/>
<line x1="210.88461538461536" y1="498.0" x2="210.88461538461536" y2="502.79999999999995" stroke="#000"/>
<text x="210.88461538461536" y="512.4" fill="#111" font-size="small" font-family="monospace" font-weight="bold" text-anchor="end" transform="rotate(-60, 210.88461538461536, 512.4)">
mail
</text>
<rect x="227.15384615384616" y="455.1190501967975" width="10.846153846153845" height="42.8809498032025" fill="#7070f8" data-tooltip="1.00x baseline speed (No JIT)"/>
<line x1="227.15384615384616" y1="455.1008885871018" x2="238.0" y2="455.1008885871018" stroke="#000"/>
<line x1="227.15384615384616" y1="455.13721180649316" x2="238.0" y2="455.13721180649316" stroke="#000"/>
<line x1="232.57692307692307" y1="455.1008885871018" x2="232.57692307692307" y2="455.13721180649316" stroke="#000"/>
<rect x="238.0" y="440.3713449886941" width="10.846153846153845" height="57.62865501130591" fill="orange" data-tooltip="1.34x baseline speed (YJIT)"/>
<line x1="238.0" y1="440.3273213249396" x2="248.84615384615384" y2="440.3273213249396" stroke="#000"/>
<line x1="238.0" y1="440.4153686524486" x2="248.84615384615384" y2="440.4153686524486" stroke="#000"/>
<line x1="243.4230769230769" y1="440.3273213249396" x2="243.4230769230769" y2="440.4153686524486" stroke="#000"/>
<line x1="243.4230769230769" y1="498.0" x2="243.4230769230769" y2="502.79999999999995" stroke="#000"/>
<text x="243.4230769230769" y="512.4" fill="#111" font-size="small" font-family="monospace" font-weight="bold" text-anchor="end" transform="rotate(-60, 243.4230769230769, 512.4)">
psych-load
</text>
<rect x="259.6923076923077" y="455.1190501967975" width="10.846153846153845" height="42.8809498032025" fill="#7070f8" data-tooltip="1.00x baseline speed (No JIT)"/>
<line x1="259.6923076923077" y1="454.8543338276038" x2="270.5384615384615" y2="454.8543338276038" stroke="#000"/>
<line x1="259.6923076923077" y1="455.38376656599115" x2="270.5384615384615" y2="455.38376656599115" stroke="#000"/>
<line x1="265.1153846153846" y1="454.8543338276038" x2="265.1153846153846" y2="455.38376656599115" stroke="#000"/>
<rect x="270.5384615384615" y="440.4513749700115" width="10.846153846153845" height="57.5486250299884" fill="orange" data-tooltip="1.34x baseline speed (YJIT)"/>
<line x1="270.5384615384615" y1="439.86336941767803" x2="281.38461538461536" y2="439.86336941767803" stroke="#000"/>
<line x1="270.5384615384615" y1="441.03938052234497" x2="281.38461538461536" y2="441.03938052234497" stroke="#000"/>
<line x1="275.96153846153845" y1="439.86336941767803" x2="275.96153846153845" y2="441.03938052234497" stroke="#000"/>
<line x1="275.96153846153845" y1="498.0" x2="275.96153846153845" y2="502.79999999999995" stroke="#000"/>
<text x="275.96153846153845" y="512.4" fill="#111" font-size="small" font-family="monospace" font-weight="bold" text-anchor="end" transform="rotate(-60, 275.96153846153845, 512.4)">
railsbench
</text>
<rect x="292.23076923076917" y="455.1190501967975" width="10.846153846153845" height="42.8809498032025" fill="#7070f8" data-tooltip="1.00x baseline speed (No JIT)"/>
<line x1="292.23076923076917" y1="449.8514880411776" x2="303.07692307692304" y2="449.8514880411776" stroke="#000"/>
<line x1="292.23076923076917" y1="460.38661235241733" x2="303.07692307692304" y2="460.38661235241733" stroke="#000"/>
<line x1="297.6538461538461" y1="449.8514880411776" x2="297.6538461538461" y2="460.38661235241733" stroke="#000"/>
<rect x="303.07692307692304" y="453.2071807670144" width="10.846153846153845" height="44.7928192329855" fill="orange" data-tooltip="1.04x baseline speed (YJIT)"/>
<line x1="303.07692307692304" y1="441.29946286876276" x2="313.92307692307685" y2="441.29946286876276" stroke="#000"/>
<line x1="303.07692307692304" y1="465.114898665266" x2="313.92307692307685" y2="465.114898665266" stroke="#000"/>
<line x1="308.49999999999994" y1="441.29946286876276" x2="308.49999999999994" y2="465.114898665266" stroke="#000"/>
<line x1="308.49999999999994" y1="498.0" x2="308.49999999999994" y2="502.79999999999995" stroke="#000"/>
<text x="308.49999999999994" y="512.4" fill="#111" font-size="small" font-family="monospace" font-weight="bold" text-anchor="end" transform="rotate(-60, 308.49999999999994, 512.4)">
ruby-lsp
</text>
<rect x="324.7692307692308" y="455.1190501967975" width="10.846153846153845" height="42.8809498032025" fill="#7070f8" data-tooltip="1.00x baseline speed (No JIT)"/>
<line x1="324.7692307692308" y1="454.3073135137306" x2="335.6153846153846" y2="454.3073135137306" stroke="#000"/>
<line x1="324.7692307692308" y1="455.93078687986434" x2="335.6153846153846" y2="455.93078687986434" stroke="#000"/>
<line x1="330.1923076923077" y1="454.3073135137306" x2="330.1923076923077" y2="455.93078687986434" stroke="#000"/>
<rect x="335.6153846153846" y="411.22583764671845" width="10.846153846153845" height="86.77416235328147" fill="orange" data-tooltip="2.02x baseline speed (YJIT)"/>
<line x1="335.6153846153846" y1="407.57281196539634" x2="346.46153846153845" y2="407.57281196539634" stroke="#000"/>
<line x1="335.6153846153846" y1="414.8788633280405" x2="346.46153846153845" y2="414.8788633280405" stroke="#000"/>
<line x1="341.0384615384615" y1="407.57281196539634" x2="341.0384615384615" y2="414.8788633280405" stroke="#000"/>
<line x1="341.0384615384615" y1="498.0" x2="341.0384615384615" y2="502.79999999999995" stroke="#000"/>
<text x="341.0384615384615" y="512.4" fill="#111" font-size="small" font-family="monospace" font-weight="bold" text-anchor="end" transform="rotate(-60, 341.0384615384615, 512.4)">
binarytrees
</text>
<rect x="357.3076923076923" y="455.1190501967975" width="10.846153846153845" height="42.8809498032025" fill="#7070f8" data-tooltip="1.00x baseline speed (No JIT)"/>
<line x1="357.3076923076923" y1="455.1076987330342" x2="368.1538461538462" y2="455.1076987330342" stroke="#000"/>
<line x1="357.3076923076923" y1="455.1304016605607" x2="368.1538461538462" y2="455.1304016605607" stroke="#000"/>
<line x1="362.7307692307692" y1="455.1076987330342" x2="362.7307692307692" y2="455.1304016605607" stroke="#000"/>
<rect x="368.1538461538462" y="431.661760033605" width="10.846153846153845" height="66.33823996639491" fill="orange" data-tooltip="1.55x baseline speed (YJIT)"/>
<line x1="368.1538461538462" y1="431.6242392792556" x2="379.0" y2="431.6242392792556" stroke="#000"/>
<line x1="368.1538461538462" y1="431.6992807879544" x2="379.0" y2="431.6992807879544" stroke="#000"/>
<line x1="373.5769230769231" y1="431.6242392792556" x2="373.5769230769231" y2="431.6992807879544" stroke="#000"/>
<line x1="373.5769230769231" y1="498.0" x2="373.5769230769231" y2="502.79999999999995" stroke="#000"/>
<text x="373.5769230769231" y="512.4" fill="#111" font-size="small" font-family="monospace" font-weight="bold" text-anchor="end" transform="rotate(-60, 373.5769230769231, 512.4)">
chunky_png
</text>
<rect x="389.84615384615387" y="455.1190501967975" width="10.846153846153845" height="42.8809498032025" fill="#7070f8" data-tooltip="1.00x baseline speed (No JIT)"/>
<line x1="389.84615384615387" y1="454.86931201751406" x2="400.6923076923077" y2="454.86931201751406" stroke="#000"/>
<line x1="389.84615384615387" y1="455.3687883760809" x2="400.6923076923077" y2="455.3687883760809" stroke="#000"/>
<line x1="395.2692307692308" y1="454.86931201751406" x2="395.2692307692308" y2="455.3687883760809" stroke="#000"/>
<rect x="400.6923076923077" y="447.6695631019949" width="10.846153846153845" height="50.33043689800507" fill="orange" data-tooltip="1.17x baseline speed (YJIT)"/>
<line x1="400.6923076923077" y1="447.17159402960084" x2="411.53846153846155" y2="447.17159402960084" stroke="#000"/>
<line x1="400.6923076923077" y1="448.16753217438907" x2="411.53846153846155" y2="448.16753217438907" stroke="#000"/>
<line x1="406.1153846153846" y1="447.17159402960084" x2="406.1153846153846" y2="448.16753217438907" stroke="#000"/>
<line x1="406.1153846153846" y1="498.0" x2="406.1153846153846" y2="502.79999999999995" stroke="#000"/>
<text x="406.1153846153846" y="512.4" fill="#111" font-size="small" font-family="monospace" font-weight="bold" text-anchor="end" transform="rotate(-60, 406.1153846153846, 512.4)">
erubi
</text>
<rect x="422.38461538461536" y="455.1190501967975" width="10.846153846153845" height="42.8809498032025" fill="#7070f8" data-tooltip="1.00x baseline speed (No JIT)"/>
<line x1="422.38461538461536" y1="454.02883664309417" x2="433.23076923076917" y2="454.02883664309417" stroke="#000"/>
<line x1="422.38461538461536" y1="456.20926375050084" x2="433.23076923076917" y2="456.20926375050084" stroke="#000"/>
<line x1="427.80769230769226" y1="454.02883664309417" x2="427.80769230769226" y2="456.20926375050084" stroke="#000"/>
<rect x="433.23076923076917" y="437.9409604635552" width="10.846153846153845" height="60.059039536444665" fill="orange" data-tooltip="1.40x baseline speed (YJIT)"/>
<line x1="433.23076923076917" y1="435.2560727627968" x2="444.07692307692304" y2="435.2560727627968" stroke="#000"/>
<line x1="433.23076923076917" y1="440.62584816431365" x2="444.07692307692304" y2="440.62584816431365" stroke="#000"/>
<line x1="438.65384615384613" y1="435.2560727627968" x2="438.65384615384613" y2="440.62584816431365" stroke="#000"/>
<line x1="438.65384615384613" y1="498.0" x2="438.65384615384613" y2="502.79999999999995" stroke="#000"/>
<text x="438.65384615384613" y="512.4" fill="#111" font-size="small" font-family="monospace" font-weight="bold" text-anchor="end" transform="rotate(-60, 438.65384615384613, 512.4)">
erubi_rails
</text>
<rect x="454.92307692307685" y="455.1190501967975" width="10.846153846153845" height="42.8809498032025" fill="#7070f8" data-tooltip="1.00x baseline speed (No JIT)"/>
<line x1="454.92307692307685" y1="454.91980654794367" x2="465.7692307692307" y2="454.91980654794367" stroke="#000"/>
<line x1="454.92307692307685" y1="455.3182938456513" x2="465.7692307692307" y2="455.3182938456513" stroke="#000"/>
<line x1="460.3461538461538" y1="454.91980654794367" x2="460.3461538461538" y2="455.3182938456513" stroke="#000"/>
<rect x="465.7692307692307" y="455.6355099468942" width="10.846153846153845" height="42.36449005310576" fill="orange" data-tooltip="0.99x baseline speed (YJIT)"/>
<line x1="465.7692307692307" y1="455.3618905907117" x2="476.6153846153845" y2="455.3618905907117" stroke="#000"/>
<line x1="465.7692307692307" y1="455.90912930307667" x2="476.6153846153845" y2="455.90912930307667" stroke="#000"/>
<line x1="471.1923076923076" y1="455.3618905907117" x2="471.1923076923076" y2="455.90912930307667" stroke="#000"/>
<line x1="471.1923076923076" y1="498.0" x2="471.1923076923076" y2="502.79999999999995" stroke="#000"/>
<text x="471.1923076923076" y="512.4" fill="#111" font-size="small" font-family="monospace" font-weight="bold" text-anchor="end" transform="rotate(-60, 471.1923076923076, 512.4)">
etanni
</text>
<rect x="487.4615384615384" y="455.1190501967975" width="10.846153846153845" height="42.8809498032025" fill="#7070f8" data-tooltip="1.00x baseline speed (No JIT)"/>
<line x1="487.4615384615384" y1="455.0411376648661" x2="498.3076923076922" y2="455.0411376648661" stroke="#000"/>
<line x1="487.4615384615384" y1="455.19696272872886" x2="498.3076923076922" y2="455.19696272872886" stroke="#000"/>
<line x1="492.8846153846153" y1="455.0411376648661" x2="492.8846153846153" y2="455.19696272872886" stroke="#000"/>
<rect x="498.3076923076922" y="398.4952467854343" width="10.846153846153845" height="99.50475321456574" fill="orange" data-tooltip="2.32x baseline speed (YJIT)"/>
<line x1="498.3076923076922" y1="398.299527974412" x2="509.1538461538461" y2="398.299527974412" stroke="#000"/>
<line x1="498.3076923076922" y1="398.6909655964565" x2="509.1538461538461" y2="398.6909655964565" stroke="#000"/>
<line x1="503.7307692307692" y1="398.299527974412" x2="503.7307692307692" y2="398.6909655964565" stroke="#000"/>
<line x1="503.7307692307692" y1="498.0" x2="503.7307692307692" y2="502.79999999999995" stroke="#000"/>
<text x="503.7307692307692" y="512.4" fill="#111" font-size="small" font-family="monospace" font-weight="bold" text-anchor="end" transform="rotate(-60, 503.7307692307692, 512.4)">
fannkuchredux
</text>
<rect x="520.0" y="455.1190501967975" width="10.846153846153845" height="42.8809498032025" fill="#7070f8" data-tooltip="1.00x baseline speed (No JIT)"/>
<line x1="520.0" y1="455.10817570186333" x2="530.8461538461538" y2="455.10817570186333" stroke="#000"/>
<line x1="520.0" y1="455.1299246917316" x2="530.8461538461538" y2="455.1299246917316" stroke="#000"/>
<line x1="525.423076923077" y1="455.10817570186333" x2="525.423076923077" y2="455.1299246917316" stroke="#000"/>
<rect x="530.8461538461538" y="441.53328328050804" width="10.846153846153845" height="56.46671671949182" fill="orange" data-tooltip="1.32x baseline speed (YJIT)"/>
<line x1="530.8461538461538" y1="441.4881273137005" x2="541.6923076923077" y2="441.4881273137005" stroke="#000"/>
<line x1="530.8461538461538" y1="441.57843924731566" x2="541.6923076923077" y2="441.57843924731566" stroke="#000"/>
<line x1="536.2692307692308" y1="441.4881273137005" x2="536.2692307692308" y2="441.57843924731566" stroke="#000"/>
<line x1="536.2692307692308" y1="498.0" x2="536.2692307692308" y2="502.79999999999995" stroke="#000"/>
<text x="536.2692307692308" y="512.4" fill="#111" font-size="small" font-family="monospace" font-weight="bold" text-anchor="end" transform="rotate(-60, 536.2692307692308, 512.4)">
lee
</text>
<rect x="552.5384615384615" y="455.1190501967975" width="10.846153846153845" height="42.8809498032025" fill="#7070f8" data-tooltip="1.00x baseline speed (No JIT)"/>
<line x1="552.5384615384615" y1="455.08021509301864" x2="563.3846153846154" y2="455.08021509301864" stroke="#000"/>
<line x1="552.5384615384615" y1="455.1578853005763" x2="563.3846153846154" y2="455.1578853005763" stroke="#000"/>
<line x1="557.9615384615385" y1="455.08021509301864" x2="557.9615384615385" y2="455.1578853005763" stroke="#000"/>
<rect x="563.3846153846154" y="430.52900031497427" width="10.846153846153845" height="67.47099968502569" fill="orange" data-tooltip="1.57x baseline speed (YJIT)"/>
<line x1="563.3846153846154" y1="430.4434545546904" x2="574.2307692307692" y2="430.4434545546904" stroke="#000"/>
<line x1="563.3846153846154" y1="430.6145460752581" x2="574.2307692307692" y2="430.6145460752581" stroke="#000"/>
<line x1="568.8076923076924" y1="430.4434545546904" x2="568.8076923076924" y2="430.6145460752581" stroke="#000"/>
<line x1="568.8076923076924" y1="498.0" x2="568.8076923076924" y2="502.79999999999995" stroke="#000"/>
<text x="568.8076923076924" y="512.4" fill="#111" font-size="small" font-family="monospace" font-weight="bold" text-anchor="end" transform="rotate(-60, 568.8076923076924, 512.4)">
nbody
</text>
<rect x="585.0769230769231" y="455.1190501967975" width="10.846153846153845" height="42.8809498032025" fill="#7070f8" data-tooltip="1.00x baseline speed (No JIT)"/>
<line x1="585.0769230769231" y1="454.92685225117333" x2="595.9230769230769" y2="454.92685225117333" stroke="#000"/>
<line x1="585.0769230769231" y1="455.3112481424216" x2="595.9230769230769" y2="455.3112481424216" stroke="#000"/>
<line x1="590.5" y1="454.92685225117333" x2="590.5" y2="455.3112481424216" stroke="#000"/>
<rect x="595.9230769230769" y="408.5043775631256" width="10.846153846153845" height="89.49562243687431" fill="orange" data-tooltip="2.09x baseline speed (YJIT)"/>
<line x1="595.9230769230769" y1="407.9799926518623" x2="606.7692307692307" y2="407.9799926518623" stroke="#000"/>
<line x1="595.9230769230769" y1="409.028762474389" x2="606.7692307692307" y2="409.028762474389" stroke="#000"/>
<line x1="601.3461538461538" y1="407.9799926518623" x2="601.3461538461538" y2="409.028762474389" stroke="#000"/>
<line x1="601.3461538461538" y1="498.0" x2="601.3461538461538" y2="502.79999999999995" stroke="#000"/>
<text x="601.3461538461538" y="512.4" fill="#111" font-size="small" font-family="monospace" font-weight="bold" text-anchor="end" transform="rotate(-60, 601.3461538461538, 512.4)">
optcarrot
</text>
<rect x="617.6153846153845" y="455.1190501967975" width="10.846153846153845" height="42.8809498032025" fill="#7070f8" data-tooltip="1.00x baseline speed (No JIT)"/>
<line x1="617.6153846153845" y1="454.94660124617707" x2="628.4615384615385" y2="454.94660124617707" stroke="#000"/>
<line x1="617.6153846153845" y1="455.2914991474179" x2="628.4615384615385" y2="455.2914991474179" stroke="#000"/>
<line x1="623.0384615384615" y1="454.94660124617707" x2="623.0384615384615" y2="455.2914991474179" stroke="#000"/>
<rect x="628.4615384615385" y="419.8792523707732" width="10.846153846153845" height="78.12074762922673" fill="orange" data-tooltip="1.82x baseline speed (YJIT)"/>
<line x1="628.4615384615385" y1="419.4622505318272" x2="639.3076923076923" y2="419.4622505318272" stroke="#000"/>
<line x1="628.4615384615385" y1="420.29625420971917" x2="639.3076923076923" y2="420.29625420971917" stroke="#000"/>
<line x1="633.8846153846154" y1="419.4622505318272" x2="633.8846153846154" y2="420.29625420971917" stroke="#000"/>
<line x1="633.8846153846154" y1="498.0" x2="633.8846153846154" y2="502.79999999999995" stroke="#000"/>
<text x="633.8846153846154" y="512.4" fill="#111" font-size="small" font-family="monospace" font-weight="bold" text-anchor="end" transform="rotate(-60, 633.8846153846154, 512.4)">
rubykon
</text>
<rect x="650.1538461538461" y="455.1190501967975" width="10.846153846153845" height="42.8809498032025" fill="#7070f8" data-tooltip="1.00x baseline speed (No JIT)"/>
<line x1="650.1538461538461" y1="455.11441276450563" x2="660.9999999999999" y2="455.11441276450563" stroke="#000"/>
<line x1="650.1538461538461" y1="455.1236876290893" x2="660.9999999999999" y2="455.1236876290893" stroke="#000"/>
<line x1="655.5769230769231" y1="455.11441276450563" x2="655.5769230769231" y2="455.1236876290893" stroke="#000"/>
<rect x="660.9999999999999" y="249.84659265330745" width="10.846153846153845" height="248.15340734669252" fill="orange" data-tooltip="5.79x baseline speed (YJIT)"/>
<line x1="660.9999999999999" y1="249.5498807619954" x2="671.8461538461538" y2="249.5498807619954" stroke="#000"/>
<line x1="660.9999999999999" y1="250.1433045446195" x2="671.8461538461538" y2="250.1433045446195" stroke="#000"/>
<line x1="666.4230769230769" y1="249.5498807619954" x2="666.4230769230769" y2="250.1433045446195" stroke="#000"/>
<line x1="666.4230769230769" y1="498.0" x2="666.4230769230769" y2="502.79999999999995" stroke="#000"/>
<text x="666.4230769230769" y="512.4" fill="#111" font-size="small" font-family="monospace" font-weight="bold" text-anchor="end" transform="rotate(-60, 666.4230769230769, 512.4)">
30k_ifelse
</text>
<rect x="682.6923076923076" y="455.1190501967975" width="10.846153846153845" height="42.8809498032025" fill="#7070f8" data-tooltip="1.00x baseline speed (No JIT)"/>
<line x1="682.6923076923076" y1="455.11317496537214" x2="693.5384615384614" y2="455.11317496537214" stroke="#000"/>
<line x1="682.6923076923076" y1="455.12492542822287" x2="693.5384615384614" y2="455.12492542822287" stroke="#000"/>
<line x1="688.1153846153845" y1="455.11317496537214" x2="688.1153846153845" y2="455.12492542822287" stroke="#000"/>
<rect x="693.5384615384614" y="217.67026680310013" width="10.846153846153845" height="280.32973319689984" fill="orange" data-tooltip="6.54x baseline speed (YJIT)"/>
<line x1="693.5384615384614" y1="217.55465223889436" x2="704.3846153846152" y2="217.55465223889436" stroke="#000"/>
<line x1="693.5384615384614" y1="217.78588136730588" x2="704.3846153846152" y2="217.78588136730588" stroke="#000"/>
<line x1="698.9615384615385" y1="217.55465223889436" x2="698.9615384615385" y2="217.78588136730588" stroke="#000"/>
<line x1="698.9615384615385" y1="498.0" x2="698.9615384615385" y2="502.79999999999995" stroke="#000"/>
<text x="698.9615384615385" y="512.4" fill="#111" font-size="small" font-family="monospace" font-weight="bold" text-anchor="end" transform="rotate(-60, 698.9615384615385, 512.4)">
30k_methods
</text>
<rect x="715.2307692307692" y="455.1190501967975" width="10.846153846153845" height="42.8809498032025" fill="#7070f8" data-tooltip="1.00x baseline speed (No JIT)"/>
<line x1="715.2307692307692" y1="455.04336912651536" x2="726.0769230769231" y2="455.04336912651536" stroke="#000"/>
<line x1="715.2307692307692" y1="455.1947312670796" x2="726.0769230769231" y2="455.1947312670796" stroke="#000"/>
<line x1="720.6538461538462" y1="455.04336912651536" x2="720.6538461538462" y2="455.1947312670796" stroke="#000"/>
<rect x="726.0769230769231" y="384.5931772093016" width="10.846153846153845" height="113.40682279069837" fill="orange" data-tooltip="2.64x baseline speed (YJIT)"/>
<line x1="726.0769230769231" y1="384.3061395123084" x2="736.9230769230769" y2="384.3061395123084" stroke="#000"/>
<line x1="726.0769230769231" y1="384.8802149062948" x2="736.9230769230769" y2="384.8802149062948" stroke="#000"/>
<line x1="731.5" y1="384.3061395123084" x2="731.5" y2="384.8802149062948" stroke="#000"/>
<line x1="731.5" y1="498.0" x2="731.5" y2="502.79999999999995" stroke="#000"/>
<text x="731.5" y="512.4" fill="#111" font-size="small" font-family="monospace" font-weight="bold" text-anchor="end" transform="rotate(-60, 731.5, 512.4)">
cfunc_itself
</text>
<rect x="747.7692307692307" y="455.1190501967975" width="10.846153846153845" height="42.8809498032025" fill="#7070f8" data-tooltip="1.00x baseline speed (No JIT)"/>
<line x1="747.7692307692307" y1="455.10340521054763" x2="758.6153846153845" y2="455.10340521054763" stroke="#000"/>
<line x1="747.7692307692307" y1="455.1346951830473" x2="758.6153846153845" y2="455.1346951830473" stroke="#000"/>
<line x1="753.1923076923077" y1="455.10340521054763" x2="753.1923076923077" y2="455.1346951830473" stroke="#000"/>
<rect x="758.6153846153845" y="320.9671578763491" width="10.846153846153845" height="177.03284212365085" fill="orange" data-tooltip="4.13x baseline speed (YJIT)"/>
<line x1="758.6153846153845" y1="320.87064198882774" x2="769.4615384615385" y2="320.87064198882774" stroke="#000"/>
<line x1="758.6153846153845" y1="321.06367376387055" x2="769.4615384615385" y2="321.06367376387055" stroke="#000"/>
<line x1="764.0384615384615" y1="320.87064198882774" x2="764.0384615384615" y2="321.06367376387055" stroke="#000"/>
<line x1="764.0384615384615" y1="498.0" x2="764.0384615384615" y2="502.79999999999995" stroke="#000"/>
<text x="764.0384615384615" y="512.4" fill="#111" font-size="small" font-family="monospace" font-weight="bold" text-anchor="end" transform="rotate(-60, 764.0384615384615, 512.4)">
fib
</text>
<rect x="780.3076923076923" y="455.1190501967975" width="10.846153846153845" height="42.8809498032025" fill="#7070f8" data-tooltip="1.00x baseline speed (No JIT)"/>
<line x1="780.3076923076923" y1="455.0312729442331" x2="791.1538461538461" y2="455.0312729442331" stroke="#000"/>
<line x1="780.3076923076923" y1="455.20682744936187" x2="791.1538461538461" y2="455.20682744936187" stroke="#000"/>
<line x1="785.7307692307693" y1="455.0312729442331" x2="785.7307692307693" y2="455.20682744936187" stroke="#000"/>
<rect x="791.1538461538461" y="396.32694839255845" width="10.846153846153845" height="101.67305160744155" fill="orange" data-tooltip="2.37x baseline speed (YJIT)"/>
<line x1="791.1538461538461" y1="396.112725597463" x2="801.9999999999999" y2="396.112725597463" stroke="#000"/>
<line x1="791.1538461538461" y1="396.5411711876539" x2="801.9999999999999" y2="396.5411711876539" stroke="#000"/>
<line x1="796.5769230769231" y1="396.112725597463" x2="796.5769230769231" y2="396.5411711876539" stroke="#000"/>
<line x1="796.5769230769231" y1="498.0" x2="796.5769230769231" y2="502.79999999999995" stroke="#000"/>
<text x="796.5769230769231" y="512.4" fill="#111" font-size="small" font-family="monospace" font-weight="bold" text-anchor="end" transform="rotate(-60, 796.5769230769231, 512.4)">
getivar
</text>
<rect x="812.8461538461538" y="455.1190501967975" width="10.846153846153845" height="42.8809498032025" fill="#7070f8" data-tooltip="1.00x baseline speed (No JIT)"/>
<line x1="812.8461538461538" y1="455.09385761212053" x2="823.6923076923076" y2="455.09385761212053" stroke="#000"/>
<line x1="812.8461538461538" y1="455.1442427814745" x2="823.6923076923076" y2="455.1442427814745" stroke="#000"/>
<line x1="818.2692307692307" y1="455.09385761212053" x2="818.2692307692307" y2="455.1442427814745" stroke="#000"/>
<rect x="823.6923076923076" y="261.4617713130292" width="10.846153846153845" height="236.53822868697074" fill="orange" data-tooltip="5.52x baseline speed (YJIT)"/>
<line x1="823.6923076923076" y1="261.03604702002673" x2="834.5384615384614" y2="261.03604702002673" stroke="#000"/>
<line x1="823.6923076923076" y1="261.8874956060317" x2="834.5384615384614" y2="261.8874956060317" stroke="#000"/>
<line x1="829.1153846153846" y1="261.03604702002673" x2="829.1153846153846" y2="261.8874956060317" stroke="#000"/>
<line x1="829.1153846153846" y1="498.0" x2="829.1153846153846" y2="502.79999999999995" stroke="#000"/>
<text x="829.1153846153846" y="512.4" fill="#111" font-size="small" font-family="monospace" font-weight="bold" text-anchor="end" transform="rotate(-60, 829.1153846153846, 512.4)">
keyword_args
</text>
<rect x="845.3846153846152" y="455.1190501967975" width="10.846153846153845" height="42.8809498032025" fill="#7070f8" data-tooltip="1.00x baseline speed (No JIT)"/>
<line x1="845.3846153846152" y1="454.7944691082894" x2="856.2307692307692" y2="454.7944691082894" stroke="#000"/>
<line x1="845.3846153846152" y1="455.44363128530557" x2="856.2307692307692" y2="455.44363128530557" stroke="#000"/>
<line x1="850.8076923076923" y1="454.7944691082894" x2="850.8076923076923" y2="455.44363128530557" stroke="#000"/>
<rect x="856.2307692307692" y="100.19999999999999" width="10.846153846153845" height="397.79999999999995" fill="orange" data-tooltip="9.28x baseline speed (YJIT)"/>
<line x1="856.2307692307692" y1="96.88095078540607" x2="867.076923076923" y2="96.88095078540607" stroke="#000"/>
<line x1="856.2307692307692" y1="103.5190492145939" x2="867.076923076923" y2="103.5190492145939" stroke="#000"/>
<line x1="861.6538461538461" y1="96.88095078540607" x2="861.6538461538461" y2="103.5190492145939" stroke="#000"/>
<line x1="861.6538461538461" y1="498.0" x2="861.6538461538461" y2="502.79999999999995" stroke="#000"/>
<text x="861.6538461538461" y="512.4" fill="#111" font-size="small" font-family="monospace" font-weight="bold" text-anchor="end" transform="rotate(-60, 861.6538461538461, 512.4)">
respond_to
</text>
<rect x="877.9230769230768" y="455.1190501967975" width="10.846153846153845" height="42.8809498032025" fill="#7070f8" data-tooltip="1.00x baseline speed (No JIT)"/>
<line x1="877.9230769230768" y1="455.0304978062369" x2="888.7692307692306" y2="455.0304978062369" stroke="#000"/>
<line x1="877.9230769230768" y1="455.2076025873581" x2="888.7692307692306" y2="455.2076025873581" stroke="#000"/>
<line x1="883.3461538461538" y1="455.0304978062369" x2="883.3461538461538" y2="455.2076025873581" stroke="#000"/>
<rect x="888.7692307692306" y="423.8003337934767" width="10.846153846153845" height="74.19966620652325" fill="orange" data-tooltip="1.73x baseline speed (YJIT)"/>
<line x1="888.7692307692306" y1="423.512415337215" x2="899.6153846153845" y2="423.512415337215" stroke="#000"/>
<line x1="888.7692307692306" y1="424.0882522497384" x2="899.6153846153845" y2="424.0882522497384" stroke="#000"/>
<line x1="894.1923076923076" y1="423.512415337215" x2="894.1923076923076" y2="424.0882522497384" stroke="#000"/>
<line x1="894.1923076923076" y1="498.0" x2="894.1923076923076" y2="502.79999999999995" stroke="#000"/>
<text x="894.1923076923076" y="512.4" fill="#111" font-size="small" font-family="monospace" font-weight="bold" text-anchor="end" transform="rotate(-60, 894.1923076923076, 512.4)">
setivar
</text>
<rect x="910.4615384615385" y="455.1190501967975" width="10.846153846153845" height="42.8809498032025" fill="#7070f8" data-tooltip="1.00x baseline speed (No JIT)"/>
<line x1="910.4615384615385" y1="454.80940655181547" x2="921.3076923076923" y2="454.80940655181547" stroke="#000"/>
<line x1="910.4615384615385" y1="455.4286938417795" x2="921.3076923076923" y2="455.4286938417795" stroke="#000"/>
<line x1="915.8846153846154" y1="454.80940655181547" x2="915.8846153846154" y2="455.4286938417795" stroke="#000"/>
<rect x="921.3076923076923" y="413.9781430634453" width="10.846153846153845" height="84.02185693655458" fill="orange" data-tooltip="1.96x baseline speed (YJIT)"/>
<line x1="921.3076923076923" y1="412.5090835745844" x2="932.1538461538461" y2="412.5090835745844" stroke="#000"/>
<line x1="921.3076923076923" y1="415.44720255230624" x2="932.1538461538461" y2="415.44720255230624" stroke="#000"/>
<line x1="926.7307692307693" y1="412.5090835745844" x2="926.7307692307693" y2="415.44720255230624" stroke="#000"/>
<line x1="926.7307692307693" y1="498.0" x2="926.7307692307693" y2="502.79999999999995" stroke="#000"/>
<text x="926.7307692307693" y="512.4" fill="#111" font-size="small" font-family="monospace" font-weight="bold" text-anchor="end" transform="rotate(-60, 926.7307692307693, 512.4)">
str_concat
</text>
</svg>