<svg viewBox="0 0 1000 600" xmlns="http://www.w3.org/2000/svg" xmlns:xlink="http://www.w3.org/1999/xlink" width="100%" height="100%">

<rect x="50.0" y="30.0" width="940.0" height="467.99999999999994" stroke="#000" fill="#EEE"/>
<line x1="42.0" y1="497.9999999999999" x2="50.0" y2="497.9999999999999" stroke="#000"/>
<text x="26.000000000000004" y="497.9999999999999" text-anchor="end" font-weight="bold" font-size="small" fill="#111">
0.0
</text>
<line x1="42.0" y1="444.05676595728465" x2="50.0" y2="444.05676595728465" stroke="#000"/>
<text x="26.000000000000004" y="444.05676595728465" text-anchor="end" font-weight="bold" font-size="small" fill="#111">
1.0
</text>
<line x1="42.0" y1="390.11353191456936" x2="50.0" y2="390.11353191456936" stroke="#000"/>
<text x="26.000000000000004" y="390.11353191456936" text-anchor="end" font-weight="bold" font-size="small" fill="#111">
2.0
</text>
<line x1="42.0" y1="336.17029787185413" x2="50.0" y2="336.17029787185413" stroke="#000"/>
<text x="26.000000000000004" y="336.17029787185413" text-anchor="end" font-weight="bold" font-size="small" fill="#111">
3.0
</text>
<line x1="42.0" y1="282.22706382913884" x2="50.0" y2="282.22706382913884" stroke="#000"/>
<text x="26.000000000000004" y="282.22706382913884" text-anchor="end" font-weight="bold" font-size="small" fill="#111">
4.0
</text>
<line x1="42.0" y1="228.28382978642355" x2="50.0" y2="228.28382978642355" stroke="#000"/>
<text x="26.000000000000004" y="228.28382978642355" text-anchor="end" font-weight="bold" font-size="small" fill="#111">
5.0
</text>
<line x1="42.0" y1="174.3405957437083" x2="50.0" y2="174.3405957437083" stroke="#000"/>
<text x="26.000000000000004" y="174.3405957437083" text-anchor="end" font-weight="bold" font-size="small" fill="#111">
6.0
</text>
<line x1="42.0" y1="120.39736170099302" x2="50.0" y2="120.39736170099302" stroke="#000"/>
<text x="26.000000000000004" y="120.39736170099302" text-anchor="end" font-weight="bold" font-size="small" fill="#111">
7.0
</text>
<rect x="197.99999999999997" y="36.00000000000001" width="80.0" height="18.0" fill="#7070f8" stroke="#888"/>
<text x="238.0" y="52.50000000000001" font-size="small" text-anchor="middle" font-weight="bold" fill="#EEE">
No JIT
</text>
<rect x="479.99999999999994" y="36.00000000000001" width="80.0" height="18.0" fill="orange" stroke="#888"/>
<text x="519.9999999999999" y="52.50000000000001" font-size="small" text-anchor="middle" font-weight="bold" fill="#EEE">
MJIT
</text>
<rect x="761.9999999999999" y="36.00000000000001" width="80.0" height="18.0" fill="green" stroke="#888"/>
<text x="801.9999999999999" y="52.50000000000001" font-size="small" text-anchor="middle" font-weight="bold" fill="#EEE">
YJIT
</text>
<rect x="97.0" y="444.05676595728465" width="8.8125" height="53.943234042715275" fill="#7070f8" data-tooltip="1.00x baseline speed (No JIT)"/>
<line x1="97.0" y1="443.8423501362193" x2="105.8125" y2="443.8423501362193" stroke="#000"/>
<line x1="97.0" y1="444.27118177834996" x2="105.8125" y2="444.27118177834996" stroke="#000"/>
<line x1="101.40625" y1="443.8423501362193" x2="101.40625" y2="444.27118177834996" stroke="#000"/>
<rect x="105.8125" y="450.7048021669587" width="8.8125" height="47.29519783304123" fill="orange" data-tooltip="0.88x baseline speed (MJIT)"/>
<line x1="105.8125" y1="449.06832032077335" x2="114.625" y2="449.06832032077335" stroke="#000"/>
<line x1="105.8125" y1="452.341284013144" x2="114.625" y2="452.341284013144" stroke="#000"/>
<line x1="110.21875" y1="449.06832032077335" x2="110.21875" y2="452.341284013144" stroke="#000"/>
<rect x="114.625" y="422.0329764914261" width="8.8125" height="75.96702350857379" fill="green" data-tooltip="1.41x baseline speed (YJIT)"/>
<line x1="114.625" y1="421.58440622993135" x2="123.4375" y2="421.58440622993135" stroke="#000"/>
<line x1="114.625" y1="422.48154675292085" x2="123.4375" y2="422.48154675292085" stroke="#000"/>
<line x1="119.03125" y1="421.58440622993135" x2="119.03125" y2="422.48154675292085" stroke="#000"/>
<line x1="114.625" y1="498.0" x2="114.625" y2="502.79999999999995" stroke="#000"/>
<text x="114.625" y="512.4" fill="#111" font-size="small" font-family="monospace" font-weight="bold" text-anchor="end" transform="rotate(-60, 114.625, 512.4)">
activerecord
</text>
<rect x="132.25" y="444.05676595728465" width="8.8125" height="53.943234042715275" fill="#7070f8" data-tooltip="1.00x baseline speed (No JIT)"/>
<line x1="132.25" y1="443.5248419282531" x2="141.0625" y2="443.5248419282531" stroke="#000"/>
<line x1="132.25" y1="444.5886899863161" x2="141.0625" y2="444.5886899863161" stroke="#000"/>
<line x1="136.65625" y1="443.5248419282531" x2="136.65625" y2="444.5886899863161" stroke="#000"/>
<rect x="149.875" y="424.2647985303819" width="8.8125" height="73.7352014696181" fill="green" data-tooltip="1.37x baseline speed (YJIT)"/>
<line x1="149.875" y1="422.6157374157916" x2="158.6875" y2="422.6157374157916" stroke="#000"/>
<line x1="149.875" y1="425.91385964497215" x2="158.6875" y2="425.91385964497215" stroke="#000"/>
<line x1="154.28125" y1="422.6157374157916" x2="154.28125" y2="425.91385964497215" stroke="#000"/>
<line x1="149.875" y1="498.0" x2="149.875" y2="502.79999999999995" stroke="#000"/>
<text x="149.875" y="512.4" fill="#111" font-size="small" font-family="monospace" font-weight="bold" text-anchor="end" transform="rotate(-60, 149.875, 512.4)">
hexapdf
</text>
<rect x="167.49999999999997" y="444.05676595728465" width="8.8125" height="53.943234042715275" fill="#7070f8" data-tooltip="1.00x baseline speed (No JIT)"/>
<line x1="167.49999999999997" y1="443.449914405977" x2="176.31249999999997" y2="443.449914405977" stroke="#000"/>
<line x1="167.49999999999997" y1="444.66361750859227" x2="176.31249999999997" y2="444.66361750859227" stroke="#000"/>
<line x1="171.90624999999997" y1="443.449914405977" x2="171.90624999999997" y2="444.66361750859227" stroke="#000"/>
<rect x="176.31249999999997" y="440.9605831705261" width="8.8125" height="57.03941682947389" fill="orange" data-tooltip="1.06x baseline speed (MJIT)"/>
<line x1="176.31249999999997" y1="439.86980495261315" x2="185.12499999999997" y2="439.86980495261315" stroke="#000"/>
<line x1="176.31249999999997" y1="442.051361388439" x2="185.12499999999997" y2="442.051361388439" stroke="#000"/>
<line x1="180.71874999999997" y1="439.86980495261315" x2="180.71874999999997" y2="442.051361388439" stroke="#000"/>
<rect x="185.12499999999997" y="414.59194526752435" width="8.8125" height="83.4080547324756" fill="green" data-tooltip="1.55x baseline speed (YJIT)"/>
<line x1="185.12499999999997" y1="412.7783439189983" x2="193.93749999999997" y2="412.7783439189983" stroke="#000"/>
<line x1="185.12499999999997" y1="416.4055466160504" x2="193.93749999999997" y2="416.4055466160504" stroke="#000"/>
<line x1="189.53124999999997" y1="412.7783439189983" x2="189.53124999999997" y2="416.4055466160504" stroke="#000"/>
<line x1="185.12499999999997" y1="498.0" x2="185.12499999999997" y2="502.79999999999995" stroke="#000"/>
<text x="185.12499999999997" y="512.4" fill="#111" font-size="small" font-family="monospace" font-weight="bold" text-anchor="end" transform="rotate(-60, 185.12499999999997, 512.4)">
liquid-render
</text>
<rect x="202.75" y="444.05676595728465" width="8.8125" height="53.943234042715275" fill="#7070f8" data-tooltip="1.00x baseline speed (No JIT)"/>
<line x1="202.75" y1="444.00737979684686" x2="211.5625" y2="444.00737979684686" stroke="#000"/>
<line x1="202.75" y1="444.1061521177224" x2="211.5625" y2="444.1061521177224" stroke="#000"/>
<line x1="207.15625" y1="444.00737979684686" x2="207.15625" y2="444.1061521177224" stroke="#000"/>
<rect x="211.5625" y="444.0914076464187" width="8.8125" height="53.90859235358123" fill="orange" data-tooltip="1.00x baseline speed (MJIT)"/>
<line x1="211.5625" y1="443.44907518830394" x2="220.375" y2="443.44907518830394" stroke="#000"/>
<line x1="211.5625" y1="444.7337401045334" x2="220.375" y2="444.7337401045334" stroke="#000"/>
<line x1="215.96875" y1="443.44907518830394" x2="215.96875" y2="444.7337401045334" stroke="#000"/>
<rect x="220.375" y="434.738639269248" width="8.8125" height="63.26136073075186" fill="green" data-tooltip="1.17x baseline speed (YJIT)"/>
<line x1="220.375" y1="434.495213389751" x2="229.1875" y2="434.495213389751" stroke="#000"/>
<line x1="220.375" y1="434.98206514874505" x2="229.1875" y2="434.98206514874505" stroke="#000"/>
<line x1="224.78125" y1="434.495213389751" x2="224.78125" y2="434.98206514874505" stroke="#000"/>
<line x1="220.375" y1="498.0" x2="220.375" y2="502.79999999999995" stroke="#000"/>
<text x="220.375" y="512.4" fill="#111" font-size="small" font-family="monospace" font-weight="bold" text-anchor="end" transform="rotate(-60, 220.375, 512.4)">
mail
</text>
<rect x="238.0" y="444.05676595728465" width="8.8125" height="53.943234042715275" fill="#7070f8" data-tooltip="1.00x baseline speed (No JIT)"/>
<line x1="238.0" y1="443.8512080640433" x2="246.8125" y2="443.8512080640433" stroke="#000"/>
<line x1="238.0" y1="444.262323850526" x2="246.8125" y2="444.262323850526" stroke="#000"/>
<line x1="242.40625" y1="443.8512080640433" x2="242.40625" y2="444.262323850526" stroke="#000"/>
<rect x="246.8125" y="436.5276117181254" width="8.8125" height="61.47238828187448" fill="orange" data-tooltip="1.14x baseline speed (MJIT)"/>
<line x1="246.8125" y1="436.29294964599956" x2="255.625" y2="436.29294964599956" stroke="#000"/>
<line x1="246.8125" y1="436.7622737902513" x2="255.625" y2="436.7622737902513" stroke="#000"/>
<line x1="251.21875" y1="436.29294964599956" x2="251.21875" y2="436.7622737902513" stroke="#000"/>
<rect x="255.625" y="426.0744138624522" width="8.8125" height="71.92558613754774" fill="green" data-tooltip="1.33x baseline speed (YJIT)"/>
<line x1="255.625" y1="425.7993688599502" x2="264.4375" y2="425.7993688599502" stroke="#000"/>
<line x1="255.625" y1="426.3494588649542" x2="264.4375" y2="426.3494588649542" stroke="#000"/>
<line x1="260.03125" y1="425.7993688599502" x2="260.03125" y2="426.3494588649542" stroke="#000"/>
<line x1="255.625" y1="498.0" x2="255.625" y2="502.79999999999995" stroke="#000"/>
<text x="255.625" y="512.4" fill="#111" font-size="small" font-family="monospace" font-weight="bold" text-anchor="end" transform="rotate(-60, 255.625, 512.4)">
psych-load
</text>
<rect x="273.25" y="444.05676595728465" width="8.8125" height="53.943234042715275" fill="#7070f8" data-tooltip="1.00x baseline speed (No JIT)"/>
<line x1="273.25" y1="443.5210632331155" x2="282.0625" y2="443.5210632331155" stroke="#000"/>
<line x1="273.25" y1="444.59246868145374" x2="282.0625" y2="444.59246868145374" stroke="#000"/>
<line x1="277.65625" y1="443.5210632331155" x2="277.65625" y2="444.59246868145374" stroke="#000"/>
<rect x="282.0625" y="448.8705682037283" width="8.8125" height="49.12943179627169" fill="orange" data-tooltip="0.91x baseline speed (MJIT)"/>
<line x1="282.0625" y1="448.1494041393788" x2="290.875" y2="448.1494041393788" stroke="#000"/>
<line x1="282.0625" y1="449.5917322680777" x2="290.875" y2="449.5917322680777" stroke="#000"/>
<line x1="286.46875" y1="448.1494041393788" x2="286.46875" y2="449.5917322680777" stroke="#000"/>
<rect x="290.875" y="427.9299155869963" width="8.8125" height="70.07008441300357" fill="green" data-tooltip="1.30x baseline speed (YJIT)"/>
<line x1="290.875" y1="426.63932036240794" x2="299.6875" y2="426.63932036240794" stroke="#000"/>
<line x1="290.875" y1="429.22051081158463" x2="299.6875" y2="429.22051081158463" stroke="#000"/>
<line x1="295.28125" y1="426.63932036240794" x2="295.28125" y2="429.22051081158463" stroke="#000"/>
<line x1="290.875" y1="498.0" x2="290.875" y2="502.79999999999995" stroke="#000"/>
<text x="290.875" y="512.4" fill="#111" font-size="small" font-family="monospace" font-weight="bold" text-anchor="end" transform="rotate(-60, 290.875, 512.4)">
railsbench
</text>
<rect x="308.5" y="444.05676595728465" width="8.8125" height="53.943234042715275" fill="#7070f8" data-tooltip="1.00x baseline speed (No JIT)"/>
<line x1="308.5" y1="444.01645189866485" x2="317.3125" y2="444.01645189866485" stroke="#000"/>
<line x1="308.5" y1="444.0970800159044" x2="317.3125" y2="444.0970800159044" stroke="#000"/>
<line x1="312.90625" y1="444.01645189866485" x2="312.90625" y2="444.0970800159044" stroke="#000"/>
<rect x="317.3125" y="415.4296842159187" width="8.8125" height="82.57031578408115" fill="orange" data-tooltip="1.53x baseline speed (MJIT)"/>
<line x1="317.3125" y1="415.1704923473526" x2="326.125" y2="415.1704923473526" stroke="#000"/>
<line x1="317.3125" y1="415.68887608448483" x2="326.125" y2="415.68887608448483" stroke="#000"/>
<line x1="321.71875" y1="415.1704923473526" x2="321.71875" y2="415.68887608448483" stroke="#000"/>
<rect x="326.125" y="427.16236387654715" width="8.8125" height="70.83763612345274" fill="green" data-tooltip="1.31x baseline speed (YJIT)"/>
<line x1="326.125" y1="427.0404225310476" x2="334.9375" y2="427.0404225310476" stroke="#000"/>
<line x1="326.125" y1="427.2843052220467" x2="334.9375" y2="427.2843052220467" stroke="#000"/>
<line x1="330.53125" y1="427.0404225310476" x2="330.53125" y2="427.2843052220467" stroke="#000"/>
<line x1="326.125" y1="498.0" x2="326.125" y2="502.79999999999995" stroke="#000"/>
<text x="326.125" y="512.4" fill="#111" font-size="small" font-family="monospace" font-weight="bold" text-anchor="end" transform="rotate(-60, 326.125, 512.4)">
binarytrees
</text>
<rect x="343.75" y="444.05676595728465" width="8.8125" height="53.943234042715275" fill="#7070f8" data-tooltip="1.00x baseline speed (No JIT)"/>
<line x1="343.75" y1="444.0383639479032" x2="352.5625" y2="444.0383639479032" stroke="#000"/>
<line x1="343.75" y1="444.0751679666661" x2="352.5625" y2="444.0751679666661" stroke="#000"/>
<line x1="348.15625" y1="444.0383639479032" x2="348.15625" y2="444.0751679666661" stroke="#000"/>
<rect x="352.5625" y="431.60653875968626" width="8.8125" height="66.39346124031363" fill="orange" data-tooltip="1.23x baseline speed (MJIT)"/>
<line x1="352.5625" y1="431.3935398044024" x2="361.375" y2="431.3935398044024" stroke="#000"/>
<line x1="352.5625" y1="431.8195377149701" x2="361.375" y2="431.8195377149701" stroke="#000"/>
<line x1="356.96875" y1="431.3935398044024" x2="356.96875" y2="431.8195377149701" stroke="#000"/>
<rect x="361.375" y="418.62570135442854" width="8.8125" height="79.37429864557133" fill="green" data-tooltip="1.47x baseline speed (YJIT)"/>
<line x1="361.375" y1="418.5380921760151" x2="370.1875" y2="418.5380921760151" stroke="#000"/>
<line x1="361.375" y1="418.71331053284206" x2="370.1875" y2="418.71331053284206" stroke="#000"/>
<line x1="365.78125" y1="418.5380921760151" x2="365.78125" y2="418.71331053284206" stroke="#000"/>
<line x1="361.375" y1="498.0" x2="361.375" y2="502.79999999999995" stroke="#000"/>
<text x="361.375" y="512.4" fill="#111" font-size="small" font-family="monospace" font-weight="bold" text-anchor="end" transform="rotate(-60, 361.375, 512.4)">
chunky_png
</text>
<rect x="379.0" y="444.05676595728465" width="8.8125" height="53.943234042715275" fill="#7070f8" data-tooltip="1.00x baseline speed (No JIT)"/>
<line x1="379.0" y1="433.99305875375046" x2="387.8125" y2="433.99305875375046" stroke="#000"/>
<line x1="379.0" y1="454.1204731608188" x2="387.8125" y2="454.1204731608188" stroke="#000"/>
<line x1="383.40625" y1="433.99305875375046" x2="383.40625" y2="454.1204731608188" stroke="#000"/>
<rect x="387.8125" y="441.81589655671894" width="8.8125" height="56.18410344328101" fill="orange" data-tooltip="1.04x baseline speed (MJIT)"/>
<line x1="387.8125" y1="429.5457286115483" x2="396.625" y2="429.5457286115483" stroke="#000"/>
<line x1="387.8125" y1="454.08606450188955" x2="396.625" y2="454.08606450188955" stroke="#000"/>
<line x1="392.21875" y1="429.5457286115483" x2="392.21875" y2="454.08606450188955" stroke="#000"/>
<rect x="396.625" y="442.13603128503263" width="8.8125" height="55.86396871496727" fill="green" data-tooltip="1.04x baseline speed (YJIT)"/>
<line x1="396.625" y1="428.76393150874634" x2="405.4375" y2="428.76393150874634" stroke="#000"/>
<line x1="396.625" y1="455.50813106131886" x2="405.4375" y2="455.50813106131886" stroke="#000"/>
<line x1="401.03125" y1="428.76393150874634" x2="401.03125" y2="455.50813106131886" stroke="#000"/>
<line x1="396.625" y1="498.0" x2="396.625" y2="502.79999999999995" stroke="#000"/>
<text x="396.625" y="512.4" fill="#111" font-size="small" font-family="monospace" font-weight="bold" text-anchor="end" transform="rotate(-60, 396.625, 512.4)">
discourse
</text>
<rect x="414.25" y="444.05676595728465" width="8.8125" height="53.943234042715275" fill="#7070f8" data-tooltip="1.00x baseline speed (No JIT)"/>
<line x1="414.25" y1="443.7478742795784" x2="423.0625" y2="443.7478742795784" stroke="#000"/>
<line x1="414.25" y1="444.36565763499084" x2="423.0625" y2="444.36565763499084" stroke="#000"/>
<line x1="418.65625" y1="443.7478742795784" x2="418.65625" y2="444.36565763499084" stroke="#000"/>
<rect x="423.0625" y="439.85503788344744" width="8.8125" height="58.1449621165525" fill="orange" data-tooltip="1.08x baseline speed (MJIT)"/>
<line x1="423.0625" y1="439.38300385235755" x2="431.875" y2="439.38300385235755" stroke="#000"/>
<line x1="423.0625" y1="440.3270719145374" x2="431.875" y2="440.3270719145374" stroke="#000"/>
<line x1="427.46875" y1="439.38300385235755" x2="427.46875" y2="440.3270719145374" stroke="#000"/>
<rect x="431.875" y="438.8305708279329" width="8.8125" height="59.16942917206705" fill="green" data-tooltip="1.10x baseline speed (YJIT)"/>
<line x1="431.875" y1="438.263043801508" x2="440.6875" y2="438.263043801508" stroke="#000"/>
<line x1="431.875" y1="439.3980978543578" x2="440.6875" y2="439.3980978543578" stroke="#000"/>
<line x1="436.28125" y1="438.263043801508" x2="436.28125" y2="439.3980978543578" stroke="#000"/>
<line x1="431.875" y1="498.0" x2="431.875" y2="502.79999999999995" stroke="#000"/>
<text x="431.875" y="512.4" fill="#111" font-size="small" font-family="monospace" font-weight="bold" text-anchor="end" transform="rotate(-60, 431.875, 512.4)">
erubi
</text>
<rect x="449.5" y="444.05676595728465" width="8.8125" height="53.943234042715275" fill="#7070f8" data-tooltip="1.00x baseline speed (No JIT)"/>
<line x1="449.5" y1="442.78330532535523" x2="458.3125" y2="442.78330532535523" stroke="#000"/>
<line x1="449.5" y1="445.330226589214" x2="458.3125" y2="445.330226589214" stroke="#000"/>
<line x1="453.90625" y1="442.78330532535523" x2="453.90625" y2="445.330226589214" stroke="#000"/>
<rect x="458.3125" y="446.41202858126354" width="8.8125" height="51.58797141873633" fill="orange" data-tooltip="0.96x baseline speed (MJIT)"/>
<line x1="458.3125" y1="443.9847227259575" x2="467.125" y2="443.9847227259575" stroke="#000"/>
<line x1="458.3125" y1="448.83933443656963" x2="467.125" y2="448.83933443656963" stroke="#000"/>
<line x1="462.71875" y1="443.9847227259575" x2="462.71875" y2="448.83933443656963" stroke="#000"/>
<rect x="467.125" y="427.0795194872508" width="8.8125" height="70.92048051274918" fill="green" data-tooltip="1.31x baseline speed (YJIT)"/>
<line x1="467.125" y1="424.06393768697035" x2="475.9375" y2="424.06393768697035" stroke="#000"/>
<line x1="467.125" y1="430.09510128753124" x2="475.9375" y2="430.09510128753124" stroke="#000"/>
<line x1="471.53125" y1="424.06393768697035" x2="471.53125" y2="430.09510128753124" stroke="#000"/>
<line x1="467.125" y1="498.0" x2="467.125" y2="502.79999999999995" stroke="#000"/>
<text x="467.125" y="512.4" fill="#111" font-size="small" font-family="monospace" font-weight="bold" text-anchor="end" transform="rotate(-60, 467.125, 512.4)">
erubi_rails
</text>
<rect x="484.75" y="444.05676595728465" width="8.8125" height="53.943234042715275" fill="#7070f8" data-tooltip="1.00x baseline speed (No JIT)"/>
<line x1="484.75" y1="443.96393892261113" x2="493.5625" y2="443.96393892261113" stroke="#000"/>
<line x1="484.75" y1="444.1495929919581" x2="493.5625" y2="444.1495929919581" stroke="#000"/>
<line x1="489.15625" y1="443.96393892261113" x2="489.15625" y2="444.1495929919581" stroke="#000"/>
<rect x="493.5625" y="389.2055043225291" width="8.8125" height="108.79449567747079" fill="orange" data-tooltip="2.02x baseline speed (MJIT)"/>
<line x1="493.5625" y1="388.9345408918172" x2="502.375" y2="388.9345408918172" stroke="#000"/>
<line x1="493.5625" y1="389.476467753241" x2="502.375" y2="389.476467753241" stroke="#000"/>
<line x1="497.96875" y1="388.9345408918172" x2="497.96875" y2="389.476467753241" stroke="#000"/>
<rect x="502.375" y="444.8442017796778" width="8.8125" height="53.15579822032216" fill="green" data-tooltip="0.99x baseline speed (YJIT)"/>
<line x1="502.375" y1="444.7493136235967" x2="511.1875" y2="444.7493136235967" stroke="#000"/>
<line x1="502.375" y1="444.93908993575894" x2="511.1875" y2="444.93908993575894" stroke="#000"/>
<line x1="506.78124999999994" y1="444.7493136235967" x2="506.78124999999994" y2="444.93908993575894" stroke="#000"/>
<line x1="502.375" y1="498.0" x2="502.375" y2="502.79999999999995" stroke="#000"/>
<text x="502.375" y="512.4" fill="#111" font-size="small" font-family="monospace" font-weight="bold" text-anchor="end" transform="rotate(-60, 502.375, 512.4)">
fannkuchredux
</text>
<rect x="519.9999999999999" y="444.05676595728465" width="8.8125" height="53.943234042715275" fill="#7070f8" data-tooltip="1.00x baseline speed (No JIT)"/>
<line x1="519.9999999999999" y1="443.49475629051784" x2="528.8124999999999" y2="443.49475629051784" stroke="#000"/>
<line x1="519.9999999999999" y1="444.6187756240514" x2="528.8124999999999" y2="444.6187756240514" stroke="#000"/>
<line x1="524.4062499999999" y1="443.49475629051784" x2="524.4062499999999" y2="444.6187756240514" stroke="#000"/>
<rect x="528.8124999999999" y="432.87376271371335" width="8.8125" height="65.12623728628655" fill="orange" data-tooltip="1.21x baseline speed (MJIT)"/>
<line x1="528.8124999999999" y1="431.0675037307197" x2="537.6249999999999" y2="431.0675037307197" stroke="#000"/>
<line x1="528.8124999999999" y1="434.68002169670706" x2="537.6249999999999" y2="434.68002169670706" stroke="#000"/>
<line x1="533.2187499999999" y1="431.0675037307197" x2="533.2187499999999" y2="434.68002169670706" stroke="#000"/>
<rect x="537.6249999999999" y="424.4046076723177" width="8.8125" height="73.59539232768219" fill="green" data-tooltip="1.36x baseline speed (YJIT)"/>
<line x1="537.6249999999999" y1="422.902297748802" x2="546.4374999999999" y2="422.902297748802" stroke="#000"/>
<line x1="537.6249999999999" y1="425.9069175958334" x2="546.4374999999999" y2="425.9069175958334" stroke="#000"/>
<line x1="542.0312499999999" y1="422.902297748802" x2="542.0312499999999" y2="425.9069175958334" stroke="#000"/>
<line x1="537.6249999999999" y1="498.0" x2="537.6249999999999" y2="502.79999999999995" stroke="#000"/>
<text x="537.6249999999999" y="512.4" fill="#111" font-size="small" font-family="monospace" font-weight="bold" text-anchor="end" transform="rotate(-60, 537.6249999999999, 512.4)">
lee
</text>
<rect x="555.2499999999999" y="444.05676595728465" width="8.8125" height="53.943234042715275" fill="#7070f8" data-tooltip="1.00x baseline speed (No JIT)"/>
<line x1="555.2499999999999" y1="443.9927502411753" x2="564.0624999999999" y2="443.9927502411753" stroke="#000"/>
<line x1="555.2499999999999" y1="444.12078167339394" x2="564.0624999999999" y2="444.12078167339394" stroke="#000"/>
<line x1="559.6562499999999" y1="443.9927502411753" x2="559.6562499999999" y2="444.12078167339394" stroke="#000"/>
<rect x="564.0624999999999" y="402.4037928965274" width="8.8125" height="95.59620710347251" fill="orange" data-tooltip="1.77x baseline speed (MJIT)"/>
<line x1="564.0624999999999" y1="402.2841001138712" x2="572.8749999999999" y2="402.2841001138712" stroke="#000"/>
<line x1="564.0624999999999" y1="402.52348567918364" x2="572.8749999999999" y2="402.52348567918364" stroke="#000"/>
<line x1="568.4687499999999" y1="402.2841001138712" x2="568.4687499999999" y2="402.52348567918364" stroke="#000"/>
<rect x="572.8749999999999" y="419.12576391785683" width="8.8125" height="78.87423608214317" fill="green" data-tooltip="1.46x baseline speed (YJIT)"/>
<line x1="572.8749999999999" y1="418.7200288968107" x2="581.6874999999999" y2="418.7200288968107" stroke="#000"/>
<line x1="572.8749999999999" y1="419.531498938903" x2="581.6874999999999" y2="419.531498938903" stroke="#000"/>
<line x1="577.2812499999999" y1="418.7200288968107" x2="577.2812499999999" y2="419.531498938903" stroke="#000"/>
<line x1="572.8749999999999" y1="498.0" x2="572.8749999999999" y2="502.79999999999995" stroke="#000"/>
<text x="572.8749999999999" y="512.4" fill="#111" font-size="small" font-family="monospace" font-weight="bold" text-anchor="end" transform="rotate(-60, 572.8749999999999, 512.4)">
nbody
</text>
<rect x="590.4999999999999" y="444.05676595728465" width="8.8125" height="53.943234042715275" fill="#7070f8" data-tooltip="1.00x baseline speed (No JIT)"/>
<line x1="590.4999999999999" y1="443.81830172578697" x2="599.3124999999999" y2="443.81830172578697" stroke="#000"/>
<line x1="590.4999999999999" y1="444.2952301887823" x2="599.3124999999999" y2="444.2952301887823" stroke="#000"/>
<line x1="594.9062499999999" y1="443.81830172578697" x2="594.9062499999999" y2="444.2952301887823" stroke="#000"/>
<rect x="599.3124999999999" y="367.3558825583527" width="8.8125" height="130.64411744164732" fill="orange" data-tooltip="2.42x baseline speed (MJIT)"/>
<line x1="599.3124999999999" y1="366.3766954723746" x2="608.1249999999999" y2="366.3766954723746" stroke="#000"/>
<line x1="599.3124999999999" y1="368.33506964433076" x2="608.1249999999999" y2="368.33506964433076" stroke="#000"/>
<line x1="603.7187499999999" y1="366.3766954723746" x2="603.7187499999999" y2="368.33506964433076" stroke="#000"/>
<rect x="608.1249999999999" y="404.3122284020561" width="8.8125" height="93.68777159794381" fill="green" data-tooltip="1.74x baseline speed (YJIT)"/>
<line x1="608.1249999999999" y1="403.6104532650608" x2="616.9374999999999" y2="403.6104532650608" stroke="#000"/>
<line x1="608.1249999999999" y1="405.01400353905143" x2="616.9374999999999" y2="405.01400353905143" stroke="#000"/>
<line x1="612.5312499999999" y1="403.6104532650608" x2="612.5312499999999" y2="405.01400353905143" stroke="#000"/>
<line x1="608.1249999999999" y1="498.0" x2="608.1249999999999" y2="502.79999999999995" stroke="#000"/>
<text x="608.1249999999999" y="512.4" fill="#111" font-size="small" font-family="monospace" font-weight="bold" text-anchor="end" transform="rotate(-60, 608.1249999999999, 512.4)">
optcarrot
</text>
<rect x="625.7499999999999" y="444.05676595728465" width="8.8125" height="53.943234042715275" fill="#7070f8" data-tooltip="1.00x baseline speed (No JIT)"/>
<line x1="625.7499999999999" y1="443.78933308022755" x2="634.5624999999999" y2="443.78933308022755" stroke="#000"/>
<line x1="625.7499999999999" y1="444.3241988343417" x2="634.5624999999999" y2="444.3241988343417" stroke="#000"/>
<line x1="630.1562499999999" y1="443.78933308022755" x2="630.1562499999999" y2="444.3241988343417" stroke="#000"/>
<rect x="634.5624999999999" y="415.4039338021818" width="8.8125" height="82.59606619781815" fill="orange" data-tooltip="1.53x baseline speed (MJIT)"/>
<line x1="634.5624999999999" y1="414.9313569588499" x2="643.3749999999999" y2="414.9313569588499" stroke="#000"/>
<line x1="634.5624999999999" y1="415.87651064551375" x2="643.3749999999999" y2="415.87651064551375" stroke="#000"/>
<line x1="638.9687499999999" y1="414.9313569588499" x2="638.9687499999999" y2="415.87651064551375" stroke="#000"/>
<rect x="643.3749999999999" y="397.74908118681856" width="8.8125" height="100.25091881318134" fill="green" data-tooltip="1.86x baseline speed (YJIT)"/>
<line x1="643.3749999999999" y1="397.11579645917647" x2="652.1874999999999" y2="397.11579645917647" stroke="#000"/>
<line x1="643.3749999999999" y1="398.38236591446065" x2="652.1874999999999" y2="398.38236591446065" stroke="#000"/>
<line x1="647.7812499999999" y1="397.11579645917647" x2="647.7812499999999" y2="398.38236591446065" stroke="#000"/>
<line x1="643.3749999999999" y1="498.0" x2="643.3749999999999" y2="502.79999999999995" stroke="#000"/>
<text x="643.3749999999999" y="512.4" fill="#111" font-size="small" font-family="monospace" font-weight="bold" text-anchor="end" transform="rotate(-60, 643.3749999999999, 512.4)">
rubykon
</text>
<rect x="660.9999999999999" y="444.05676595728465" width="8.8125" height="53.943234042715275" fill="#7070f8" data-tooltip="1.00x baseline speed (No JIT)"/>
<line x1="660.9999999999999" y1="444.05286417917745" x2="669.8124999999999" y2="444.05286417917745" stroke="#000"/>
<line x1="660.9999999999999" y1="444.06066773539186" x2="669.8124999999999" y2="444.06066773539186" stroke="#000"/>
<line x1="665.4062499999999" y1="444.05286417917745" x2="665.4062499999999" y2="444.06066773539186" stroke="#000"/>
<rect x="669.8124999999999" y="465.3888314960147" width="8.8125" height="32.6111685039852" fill="orange" data-tooltip="0.60x baseline speed (MJIT)"/>
<line x1="669.8124999999999" y1="464.142774173" x2="678.6249999999999" y2="464.142774173" stroke="#000"/>
<line x1="669.8124999999999" y1="466.6348888190293" x2="678.6249999999999" y2="466.6348888190293" stroke="#000"/>
<line x1="674.2187499999999" y1="464.142774173" x2="674.2187499999999" y2="466.6348888190293" stroke="#000"/>
<rect x="678.6249999999999" y="147.83566547947234" width="8.8125" height="350.1643345205276" fill="green" data-tooltip="6.49x baseline speed (YJIT)"/>
<line x1="678.6249999999999" y1="147.2525858068721" x2="687.4374999999999" y2="147.2525858068721" stroke="#000"/>
<line x1="678.6249999999999" y1="148.41874515207255" x2="687.4374999999999" y2="148.41874515207255" stroke="#000"/>
<line x1="683.0312499999999" y1="147.2525858068721" x2="683.0312499999999" y2="148.41874515207255" stroke="#000"/>
<line x1="678.6249999999999" y1="498.0" x2="678.6249999999999" y2="502.79999999999995" stroke="#000"/>
<text x="678.6249999999999" y="512.4" fill="#111" font-size="small" font-family="monospace" font-weight="bold" text-anchor="end" transform="rotate(-60, 678.6249999999999, 512.4)">
30k_ifelse
</text>
<rect x="696.2499999999999" y="444.05676595728465" width="8.8125" height="53.943234042715275" fill="#7070f8" data-tooltip="1.00x baseline speed (No JIT)"/>
<line x1="696.2499999999999" y1="444.0544726977099" x2="705.0624999999999" y2="444.0544726977099" stroke="#000"/>
<line x1="696.2499999999999" y1="444.05905921685934" x2="705.0624999999999" y2="444.05905921685934" stroke="#000"/>
<line x1="700.6562499999999" y1="444.0544726977099" x2="700.6562499999999" y2="444.05905921685934" stroke="#000"/>
<rect x="705.0624999999999" y="463.93823287051464" width="8.8125" height="34.061767129485304" fill="orange" data-tooltip="0.63x baseline speed (MJIT)"/>
<line x1="705.0624999999999" y1="458.42107226269206" x2="713.8749999999999" y2="458.42107226269206" stroke="#000"/>
<line x1="705.0624999999999" y1="469.45539347833727" x2="713.8749999999999" y2="469.45539347833727" stroke="#000"/>
<line x1="709.4687499999999" y1="458.42107226269206" x2="709.4687499999999" y2="469.45539347833727" stroke="#000"/>
<rect x="713.8749999999999" y="100.19999999999999" width="8.8125" height="397.79999999999995" fill="green" data-tooltip="7.37x baseline speed (YJIT)"/>
<line x1="713.8749999999999" y1="99.98996772701693" x2="722.6874999999999" y2="99.98996772701693" stroke="#000"/>
<line x1="713.8749999999999" y1="100.41003227298305" x2="722.6874999999999" y2="100.41003227298305" stroke="#000"/>
<line x1="718.2812499999999" y1="99.98996772701693" x2="718.2812499999999" y2="100.41003227298305" stroke="#000"/>
<line x1="713.8749999999999" y1="498.0" x2="713.8749999999999" y2="502.79999999999995" stroke="#000"/>
<text x="713.8749999999999" y="512.4" fill="#111" font-size="small" font-family="monospace" font-weight="bold" text-anchor="end" transform="rotate(-60, 713.8749999999999, 512.4)">
30k_methods
</text>
<rect x="731.4999999999999" y="444.05676595728465" width="8.8125" height="53.943234042715275" fill="#7070f8" data-tooltip="1.00x baseline speed (No JIT)"/>
<line x1="731.4999999999999" y1="443.96466352890843" x2="740.3124999999999" y2="443.96466352890843" stroke="#000"/>
<line x1="731.4999999999999" y1="444.1488683856608" x2="740.3124999999999" y2="444.1488683856608" stroke="#000"/>
<line x1="735.9062499999999" y1="443.96466352890843" x2="735.9062499999999" y2="444.1488683856608" stroke="#000"/>
<rect x="740.3124999999999" y="412.6849091549239" width="8.8125" height="85.31509084507614" fill="orange" data-tooltip="1.58x baseline speed (MJIT)"/>
<line x1="740.3124999999999" y1="412.3055496254433" x2="749.1249999999999" y2="412.3055496254433" stroke="#000"/>
<line x1="740.3124999999999" y1="413.0642686844045" x2="749.1249999999999" y2="413.0642686844045" stroke="#000"/>
<line x1="744.7187499999999" y1="412.3055496254433" x2="744.7187499999999" y2="413.0642686844045" stroke="#000"/>
<rect x="749.1249999999999" y="368.1071449846798" width="8.8125" height="129.89285501532015" fill="green" data-tooltip="2.41x baseline speed (YJIT)"/>
<line x1="749.1249999999999" y1="366.9536151159662" x2="757.9374999999999" y2="366.9536151159662" stroke="#000"/>
<line x1="749.1249999999999" y1="369.2606748533934" x2="757.9374999999999" y2="369.2606748533934" stroke="#000"/>
<line x1="753.5312499999999" y1="366.9536151159662" x2="753.5312499999999" y2="369.2606748533934" stroke="#000"/>
<line x1="749.1249999999999" y1="498.0" x2="749.1249999999999" y2="502.79999999999995" stroke="#000"/>
<text x="749.1249999999999" y="512.4" fill="#111" font-size="small" font-family="monospace" font-weight="bold" text-anchor="end" transform="rotate(-60, 749.1249999999999, 512.4)">
cfunc_itself
</text>
<rect x="766.7499999999999" y="444.05676595728465" width="8.8125" height="53.943234042715275" fill="#7070f8" data-tooltip="1.00x baseline speed (No JIT)"/>
<line x1="766.7499999999999" y1="443.97988319745514" x2="775.5624999999999" y2="443.97988319745514" stroke="#000"/>
<line x1="766.7499999999999" y1="444.1336487171141" x2="775.5624999999999" y2="444.1336487171141" stroke="#000"/>
<line x1="771.1562499999999" y1="443.97988319745514" x2="771.1562499999999" y2="444.1336487171141" stroke="#000"/>
<rect x="775.5624999999999" y="348.33945623223104" width="8.8125" height="149.6605437677689" fill="orange" data-tooltip="2.77x baseline speed (MJIT)"/>
<line x1="775.5624999999999" y1="348.1213315100875" x2="784.3749999999999" y2="348.1213315100875" stroke="#000"/>
<line x1="775.5624999999999" y1="348.55758095437466" x2="784.3749999999999" y2="348.55758095437466" stroke="#000"/>
<line x1="779.9687499999999" y1="348.1213315100875" x2="779.9687499999999" y2="348.55758095437466" stroke="#000"/>
<rect x="784.3749999999999" y="291.7520850393851" width="8.8125" height="206.24791496061482" fill="green" data-tooltip="3.82x baseline speed (YJIT)"/>
<line x1="784.3749999999999" y1="290.4833958229961" x2="793.1874999999999" y2="290.4833958229961" stroke="#000"/>
<line x1="784.3749999999999" y1="293.02077425577414" x2="793.1874999999999" y2="293.02077425577414" stroke="#000"/>
<line x1="788.7812499999999" y1="290.4833958229961" x2="788.7812499999999" y2="293.02077425577414" stroke="#000"/>
<line x1="784.3749999999999" y1="498.0" x2="784.3749999999999" y2="502.79999999999995" stroke="#000"/>
<text x="784.3749999999999" y="512.4" fill="#111" font-size="small" font-family="monospace" font-weight="bold" text-anchor="end" transform="rotate(-60, 784.3749999999999, 512.4)">
fib
</text>
<rect x="801.9999999999999" y="444.05676595728465" width="8.8125" height="53.943234042715275" fill="#7070f8" data-tooltip="1.00x baseline speed (No JIT)"/>
<line x1="801.9999999999999" y1="444.035331408624" x2="810.8124999999999" y2="444.035331408624" stroke="#000"/>
<line x1="801.9999999999999" y1="444.07820050594523" x2="810.8124999999999" y2="444.07820050594523" stroke="#000"/>
<line x1="806.4062499999999" y1="444.035331408624" x2="806.4062499999999" y2="444.07820050594523" stroke="#000"/>
<rect x="810.8124999999999" y="226.41290996525257" width="8.8125" height="271.58709003474735" fill="orange" data-tooltip="5.03x baseline speed (MJIT)"/>
<line x1="810.8124999999999" y1="50.91413463900153" x2="819.6249999999999" y2="50.91413463900153" stroke="#000"/>
<line x1="810.8124999999999" y1="401.9116852915036" x2="819.6249999999999" y2="401.9116852915036" stroke="#000"/>
<line x1="815.2187499999999" y1="50.91413463900153" x2="815.2187499999999" y2="401.9116852915036" stroke="#000"/>
<rect x="819.6249999999999" y="338.9125595472977" width="8.8125" height="159.08744045270225" fill="green" data-tooltip="2.95x baseline speed (YJIT)"/>
<line x1="819.6249999999999" y1="337.80846308244463" x2="828.4374999999999" y2="337.80846308244463" stroke="#000"/>
<line x1="819.6249999999999" y1="340.01665601215075" x2="828.4374999999999" y2="340.01665601215075" stroke="#000"/>
<line x1="824.0312499999999" y1="337.80846308244463" x2="824.0312499999999" y2="340.01665601215075" stroke="#000"/>
<line x1="819.6249999999999" y1="498.0" x2="819.6249999999999" y2="502.79999999999995" stroke="#000"/>
<text x="819.6249999999999" y="512.4" fill="#111" font-size="small" font-family="monospace" font-weight="bold" text-anchor="end" transform="rotate(-60, 819.6249999999999, 512.4)">
getivar
</text>
<rect x="837.2499999999999" y="444.05676595728465" width="8.8125" height="53.943234042715275" fill="#7070f8" data-tooltip="1.00x baseline speed (No JIT)"/>
<line x1="837.2499999999999" y1="444.00739698924036" x2="846.0624999999999" y2="444.00739698924036" stroke="#000"/>
<line x1="837.2499999999999" y1="444.1061349253289" x2="846.0624999999999" y2="444.1061349253289" stroke="#000"/>
<line x1="841.6562499999999" y1="444.00739698924036" x2="841.6562499999999" y2="444.1061349253289" stroke="#000"/>
<rect x="846.0624999999999" y="430.1034993220138" width="8.8125" height="67.89650067798605" fill="orange" data-tooltip="1.26x baseline speed (MJIT)"/>
<line x1="846.0624999999999" y1="429.68294289593814" x2="854.8749999999999" y2="429.68294289593814" stroke="#000"/>
<line x1="846.0624999999999" y1="430.5240557480895" x2="854.8749999999999" y2="430.5240557480895" stroke="#000"/>
<line x1="850.4687499999999" y1="429.68294289593814" x2="850.4687499999999" y2="430.5240557480895" stroke="#000"/>
<rect x="854.8749999999999" y="204.1173490346359" width="8.8125" height="293.882650965364" fill="green" data-tooltip="5.45x baseline speed (YJIT)"/>
<line x1="854.8749999999999" y1="201.9851391158668" x2="863.6874999999999" y2="201.9851391158668" stroke="#000"/>
<line x1="854.8749999999999" y1="206.24955895340503" x2="863.6874999999999" y2="206.24955895340503" stroke="#000"/>
<line x1="859.2812499999999" y1="201.9851391158668" x2="859.2812499999999" y2="206.24955895340503" stroke="#000"/>
<line x1="854.8749999999999" y1="498.0" x2="854.8749999999999" y2="502.79999999999995" stroke="#000"/>
<text x="854.8749999999999" y="512.4" fill="#111" font-size="small" font-family="monospace" font-weight="bold" text-anchor="end" transform="rotate(-60, 854.8749999999999, 512.4)">
keyword_args
</text>
<rect x="872.4999999999999" y="444.05676595728465" width="8.8125" height="53.943234042715275" fill="#7070f8" data-tooltip="1.00x baseline speed (No JIT)"/>
<line x1="872.4999999999999" y1="444.00646025974163" x2="881.3125" y2="444.00646025974163" stroke="#000"/>
<line x1="872.4999999999999" y1="444.1070716548276" x2="881.3125" y2="444.1070716548276" stroke="#000"/>
<line x1="876.9062499999999" y1="444.00646025974163" x2="876.9062499999999" y2="444.1070716548276" stroke="#000"/>
<rect x="881.3125" y="433.8122161416767" width="8.8125" height="64.18778385832324" fill="orange" data-tooltip="1.19x baseline speed (MJIT)"/>
<line x1="881.3125" y1="433.54195651698035" x2="890.125" y2="433.54195651698035" stroke="#000"/>
<line x1="881.3125" y1="434.082475766373" x2="890.125" y2="434.082475766373" stroke="#000"/>
<line x1="885.7187499999999" y1="433.54195651698035" x2="885.7187499999999" y2="434.082475766373" stroke="#000"/>
<rect x="890.125" y="422.36166639969434" width="8.8125" height="75.63833360030563" fill="green" data-tooltip="1.40x baseline speed (YJIT)"/>
<line x1="890.125" y1="422.1446122484665" x2="898.9375" y2="422.1446122484665" stroke="#000"/>
<line x1="890.125" y1="422.5787205509222" x2="898.9375" y2="422.5787205509222" stroke="#000"/>
<line x1="894.5312499999999" y1="422.1446122484665" x2="894.5312499999999" y2="422.5787205509222" stroke="#000"/>
<line x1="890.125" y1="498.0" x2="890.125" y2="502.79999999999995" stroke="#000"/>
<text x="890.125" y="512.4" fill="#111" font-size="small" font-family="monospace" font-weight="bold" text-anchor="end" transform="rotate(-60, 890.125, 512.4)">
respond_to
</text>
<rect x="907.75" y="444.05676595728465" width="8.8125" height="53.943234042715275" fill="#7070f8" data-tooltip="1.00x baseline speed (No JIT)"/>
<line x1="907.75" y1="443.8150030133351" x2="916.5625" y2="443.8150030133351" stroke="#000"/>
<line x1="907.75" y1="444.29852890123414" x2="916.5625" y2="444.29852890123414" stroke="#000"/>
<line x1="912.1562499999999" y1="443.8150030133351" x2="912.1562499999999" y2="444.29852890123414" stroke="#000"/>
<rect x="916.5625" y="102.34968960880435" width="8.8125" height="395.6503103911956" fill="orange" data-tooltip="7.33x baseline speed (MJIT)"/>
<line x1="916.5625" y1="-272.85721661037206" x2="925.375" y2="-272.85721661037206" stroke="#000"/>
<line x1="916.5625" y1="477.5565958279808" x2="925.375" y2="477.5565958279808" stroke="#000"/>
<line x1="920.9687499999999" y1="-272.85721661037206" x2="920.9687499999999" y2="477.5565958279808" stroke="#000"/>
<rect x="925.375" y="418.8477754325694" width="8.8125" height="79.15222456743061" fill="green" data-tooltip="1.47x baseline speed (YJIT)"/>
<line x1="925.375" y1="418.27637623122473" x2="934.1875" y2="418.27637623122473" stroke="#000"/>
<line x1="925.375" y1="419.41917463391405" x2="934.1875" y2="419.41917463391405" stroke="#000"/>
<line x1="929.7812499999999" y1="418.27637623122473" x2="929.7812499999999" y2="419.41917463391405" stroke="#000"/>
<line x1="925.375" y1="498.0" x2="925.375" y2="502.79999999999995" stroke="#000"/>
<text x="925.375" y="512.4" fill="#111" font-size="small" font-family="monospace" font-weight="bold" text-anchor="end" transform="rotate(-60, 925.375, 512.4)">
setivar
</text>
</svg>