<svg viewBox="0 0 1000 600" xmlns="http://www.w3.org/2000/svg" xmlns:xlink="http://www.w3.org/1999/xlink" width="100%" height="100%">

<rect x="50.0" y="30.0" width="940.0" height="467.99999999999994" stroke="#000" fill="#EEE"/>
<line x1="42.0" y1="497.9999999999999" x2="50.0" y2="497.9999999999999" stroke="#000"/>
<text x="26.000000000000004" y="497.9999999999999" text-anchor="end" font-weight="bold" font-size="small" fill="#111">
0.0
</text>
<line x1="42.0" y1="402.42806907890724" x2="50.0" y2="402.42806907890724" stroke="#000"/>
<text x="26.000000000000004" y="402.42806907890724" text-anchor="end" font-weight="bold" font-size="small" fill="#111">
2.0
</text>
<line x1="42.0" y1="306.8561381578144" x2="50.0" y2="306.8561381578144" stroke="#000"/>
<text x="26.000000000000004" y="306.8561381578144" text-anchor="end" font-weight="bold" font-size="small" fill="#111">
4.0
</text>
<line x1="42.0" y1="211.28420723672173" x2="50.0" y2="211.28420723672173" stroke="#000"/>
<text x="26.000000000000004" y="211.28420723672173" text-anchor="end" font-weight="bold" font-size="small" fill="#111">
6.0
</text>
<line x1="42.0" y1="115.71227631562896" x2="50.0" y2="115.71227631562896" stroke="#000"/>
<text x="26.000000000000004" y="115.71227631562896" text-anchor="end" font-weight="bold" font-size="small" fill="#111">
8.0
</text>
<rect x="197.99999999999997" y="36.00000000000001" width="80.0" height="18.0" fill="#7070f8" stroke="#888"/>
<text x="238.0" y="52.50000000000001" font-size="small" text-anchor="middle" font-weight="bold" fill="#EEE">
No JIT
</text>
<rect x="479.99999999999994" y="36.00000000000001" width="80.0" height="18.0" fill="orange" stroke="#888"/>
<text x="519.9999999999999" y="52.50000000000001" font-size="small" text-anchor="middle" font-weight="bold" fill="#EEE">
MJIT3.0
</text>
<rect x="761.9999999999999" y="36.00000000000001" width="80.0" height="18.0" fill="green" stroke="#888"/>
<text x="801.9999999999999" y="52.50000000000001" font-size="small" text-anchor="middle" font-weight="bold" fill="#EEE">
YJIT
</text>
<rect x="97.0" y="450.2140345394536" width="10.071428571428571" height="47.78596546054638" fill="#7070f8" data-tooltip="1.00x baseline speed (No JIT)"/>
<line x1="97.0" y1="449.81627501268935" x2="107.07142857142857" y2="449.81627501268935" stroke="#000"/>
<line x1="97.0" y1="450.6117940662179" x2="107.07142857142857" y2="450.6117940662179" stroke="#000"/>
<line x1="102.03571428571429" y1="449.81627501268935" x2="102.03571428571429" y2="450.6117940662179" stroke="#000"/>
<rect x="107.07142857142857" y="452.6846232299843" width="10.071428571428571" height="45.31537677001562" fill="orange" data-tooltip="0.95x baseline speed (MJIT3.0)"/>
<line x1="107.07142857142857" y1="452.1487266635895" x2="117.14285714285714" y2="452.1487266635895" stroke="#000"/>
<line x1="107.07142857142857" y1="453.22051979637905" x2="117.14285714285714" y2="453.22051979637905" stroke="#000"/>
<line x1="112.10714285714285" y1="452.1487266635895" x2="112.10714285714285" y2="453.22051979637905" stroke="#000"/>
<rect x="117.14285714285714" y="430.4918190605908" width="10.071428571428571" height="67.5081809394092" fill="green" data-tooltip="1.41x baseline speed (YJIT)"/>
<line x1="117.14285714285714" y1="429.8073586077158" x2="127.21428571428572" y2="429.8073586077158" stroke="#000"/>
<line x1="117.14285714285714" y1="431.1762795134658" x2="127.21428571428572" y2="431.1762795134658" stroke="#000"/>
<line x1="122.17857142857143" y1="429.8073586077158" x2="122.17857142857143" y2="431.1762795134658" stroke="#000"/>
<line x1="117.14285714285714" y1="498.0" x2="117.14285714285714" y2="502.79999999999995" stroke="#000"/>
<text x="117.14285714285714" y="512.4" fill="#111" font-size="small" font-family="monospace" font-weight="bold" text-anchor="end" transform="rotate(-60, 117.14285714285714, 512.4)">
activerecord
</text>
<rect x="137.28571428571428" y="450.2140345394536" width="10.071428571428571" height="47.78596546054638" fill="#7070f8" data-tooltip="1.00x baseline speed (No JIT)"/>
<line x1="137.28571428571428" y1="449.7435623236955" x2="147.35714285714286" y2="449.7435623236955" stroke="#000"/>
<line x1="137.28571428571428" y1="450.68450675521177" x2="147.35714285714286" y2="450.68450675521177" stroke="#000"/>
<line x1="142.32142857142858" y1="449.7435623236955" x2="142.32142857142858" y2="450.68450675521177" stroke="#000"/>
<rect x="147.35714285714286" y="448.6778675321311" width="10.071428571428571" height="49.322132467868954" fill="orange" data-tooltip="1.03x baseline speed (MJIT3.0)"/>
<line x1="147.35714285714286" y1="447.77884069089515" x2="157.42857142857142" y2="447.77884069089515" stroke="#000"/>
<line x1="147.35714285714286" y1="449.576894373367" x2="157.42857142857142" y2="449.576894373367" stroke="#000"/>
<line x1="152.39285714285714" y1="447.77884069089515" x2="152.39285714285714" y2="449.576894373367" stroke="#000"/>
<rect x="157.42857142857142" y="435.5732484883685" width="10.071428571428571" height="62.42675151163146" fill="green" data-tooltip="1.31x baseline speed (YJIT)"/>
<line x1="157.42857142857142" y1="434.7032246418881" x2="167.49999999999997" y2="434.7032246418881" stroke="#000"/>
<line x1="157.42857142857142" y1="436.4432723348489" x2="167.49999999999997" y2="436.4432723348489" stroke="#000"/>
<line x1="162.4642857142857" y1="434.7032246418881" x2="162.4642857142857" y2="436.4432723348489" stroke="#000"/>
<line x1="157.42857142857142" y1="498.0" x2="157.42857142857142" y2="502.79999999999995" stroke="#000"/>
<text x="157.42857142857142" y="512.4" fill="#111" font-size="small" font-family="monospace" font-weight="bold" text-anchor="end" transform="rotate(-60, 157.42857142857142, 512.4)">
hexapdf
</text>
<rect x="177.57142857142858" y="450.2140345394536" width="10.071428571428571" height="47.78596546054638" fill="#7070f8" data-tooltip="1.00x baseline speed (No JIT)"/>
<line x1="177.57142857142858" y1="449.1433432400596" x2="187.64285714285714" y2="449.1433432400596" stroke="#000"/>
<line x1="177.57142857142858" y1="451.28472583884763" x2="187.64285714285714" y2="451.28472583884763" stroke="#000"/>
<line x1="182.60714285714286" y1="449.1433432400596" x2="182.60714285714286" y2="451.28472583884763" stroke="#000"/>
<rect x="187.64285714285714" y="448.79753128191055" width="10.071428571428571" height="49.202468718089335" fill="orange" data-tooltip="1.03x baseline speed (MJIT3.0)"/>
<line x1="187.64285714285714" y1="447.4511263758847" x2="197.7142857142857" y2="447.4511263758847" stroke="#000"/>
<line x1="187.64285714285714" y1="450.14393618793645" x2="197.7142857142857" y2="450.14393618793645" stroke="#000"/>
<line x1="192.67857142857142" y1="447.4511263758847" x2="192.67857142857142" y2="450.14393618793645" stroke="#000"/>
<rect x="197.71428571428572" y="443.035241416582" width="10.071428571428571" height="54.96475858341794" fill="green" data-tooltip="1.15x baseline speed (YJIT)"/>
<line x1="197.71428571428572" y1="441.5172987865164" x2="207.7857142857143" y2="441.5172987865164" stroke="#000"/>
<line x1="197.71428571428572" y1="444.55318404664763" x2="207.7857142857143" y2="444.55318404664763" stroke="#000"/>
<line x1="202.75" y1="441.5172987865164" x2="202.75" y2="444.55318404664763" stroke="#000"/>
<line x1="197.71428571428572" y1="498.0" x2="197.71428571428572" y2="502.79999999999995" stroke="#000"/>
<text x="197.71428571428572" y="512.4" fill="#111" font-size="small" font-family="monospace" font-weight="bold" text-anchor="end" transform="rotate(-60, 197.71428571428572, 512.4)">
jekyll
</text>
<rect x="217.85714285714286" y="450.2140345394536" width="10.071428571428571" height="47.78596546054638" fill="#7070f8" data-tooltip="1.00x baseline speed (No JIT)"/>
<line x1="217.85714285714286" y1="449.6027858582146" x2="227.92857142857142" y2="449.6027858582146" stroke="#000"/>
<line x1="217.85714285714286" y1="450.8252832206927" x2="227.92857142857142" y2="450.8252832206927" stroke="#000"/>
<line x1="222.89285714285714" y1="449.6027858582146" x2="222.89285714285714" y2="450.8252832206927" stroke="#000"/>
<rect x="227.92857142857142" y="446.8047339789303" width="10.071428571428571" height="51.19526602106971" fill="orange" data-tooltip="1.07x baseline speed (MJIT3.0)"/>
<line x1="227.92857142857142" y1="445.6138358437202" x2="238.0" y2="445.6138358437202" stroke="#000"/>
<line x1="227.92857142857142" y1="447.99563211414034" x2="238.0" y2="447.99563211414034" stroke="#000"/>
<line x1="232.9642857142857" y1="445.6138358437202" x2="232.9642857142857" y2="447.99563211414034" stroke="#000"/>
<rect x="238.0" y="424.7184955600038" width="10.071428571428571" height="73.2815044399961" fill="green" data-tooltip="1.53x baseline speed (YJIT)"/>
<line x1="238.0" y1="422.8193115445495" x2="248.07142857142856" y2="422.8193115445495" stroke="#000"/>
<line x1="238.0" y1="426.61767957545806" x2="248.07142857142856" y2="426.61767957545806" stroke="#000"/>
<line x1="243.03571428571428" y1="422.8193115445495" x2="243.03571428571428" y2="426.61767957545806" stroke="#000"/>
<line x1="238.0" y1="498.0" x2="238.0" y2="502.79999999999995" stroke="#000"/>
<text x="238.0" y="512.4" fill="#111" font-size="small" font-family="monospace" font-weight="bold" text-anchor="end" transform="rotate(-60, 238.0, 512.4)">
liquid-render
</text>
<rect x="258.1428571428571" y="450.2140345394536" width="10.071428571428571" height="47.78596546054638" fill="#7070f8" data-tooltip="1.00x baseline speed (No JIT)"/>
<line x1="258.1428571428571" y1="449.9828274358168" x2="268.21428571428567" y2="449.9828274358168" stroke="#000"/>
<line x1="258.1428571428571" y1="450.4452416430905" x2="268.21428571428567" y2="450.4452416430905" stroke="#000"/>
<line x1="263.17857142857144" y1="449.9828274358168" x2="263.17857142857144" y2="450.4452416430905" stroke="#000"/>
<rect x="268.21428571428567" y="449.068296499698" width="10.071428571428571" height="48.93170350030198" fill="orange" data-tooltip="1.02x baseline speed (MJIT3.0)"/>
<line x1="268.21428571428567" y1="448.59164535935207" x2="278.2857142857142" y2="448.59164535935207" stroke="#000"/>
<line x1="268.21428571428567" y1="449.544947640044" x2="278.2857142857142" y2="449.544947640044" stroke="#000"/>
<line x1="273.25" y1="448.59164535935207" x2="273.25" y2="449.544947640044" stroke="#000"/>
<rect x="278.2857142857142" y="445.5576629469735" width="10.071428571428571" height="52.44233705302642" fill="green" data-tooltip="1.10x baseline speed (YJIT)"/>
<line x1="278.2857142857142" y1="445.2187835962718" x2="288.35714285714283" y2="445.2187835962718" stroke="#000"/>
<line x1="278.2857142857142" y1="445.89654229767524" x2="288.35714285714283" y2="445.89654229767524" stroke="#000"/>
<line x1="283.32142857142856" y1="445.2187835962718" x2="283.32142857142856" y2="445.89654229767524" stroke="#000"/>
<line x1="278.2857142857142" y1="498.0" x2="278.2857142857142" y2="502.79999999999995" stroke="#000"/>
<text x="278.2857142857142" y="512.4" fill="#111" font-size="small" font-family="monospace" font-weight="bold" text-anchor="end" transform="rotate(-60, 278.2857142857142, 512.4)">
mail
</text>
<rect x="298.42857142857144" y="450.2140345394536" width="10.071428571428571" height="47.78596546054638" fill="#7070f8" data-tooltip="1.00x baseline speed (No JIT)"/>
<line x1="298.42857142857144" y1="449.96829741895533" x2="308.5" y2="449.96829741895533" stroke="#000"/>
<line x1="298.42857142857144" y1="450.45977165995197" x2="308.5" y2="450.45977165995197" stroke="#000"/>
<line x1="303.4642857142857" y1="449.96829741895533" x2="303.4642857142857" y2="450.45977165995197" stroke="#000"/>
<rect x="308.5" y="448.28854977360874" width="10.071428571428571" height="49.71145022639118" fill="orange" data-tooltip="1.04x baseline speed (MJIT3.0)"/>
<line x1="308.5" y1="447.37402578170907" x2="318.57142857142856" y2="447.37402578170907" stroke="#000"/>
<line x1="308.5" y1="449.2030737655084" x2="318.57142857142856" y2="449.2030737655084" stroke="#000"/>
<line x1="313.53571428571433" y1="447.37402578170907" x2="313.53571428571433" y2="449.2030737655084" stroke="#000"/>
<rect x="318.57142857142856" y="435.0914913411115" width="10.071428571428571" height="62.90850865888843" fill="green" data-tooltip="1.32x baseline speed (YJIT)"/>
<line x1="318.57142857142856" y1="434.57618885353634" x2="328.6428571428571" y2="434.57618885353634" stroke="#000"/>
<line x1="318.57142857142856" y1="435.6067938286867" x2="328.6428571428571" y2="435.6067938286867" stroke="#000"/>
<line x1="323.6071428571429" y1="434.57618885353634" x2="323.6071428571429" y2="435.6067938286867" stroke="#000"/>
<line x1="318.57142857142856" y1="498.0" x2="318.57142857142856" y2="502.79999999999995" stroke="#000"/>
<text x="318.57142857142856" y="512.4" fill="#111" font-size="small" font-family="monospace" font-weight="bold" text-anchor="end" transform="rotate(-60, 318.57142857142856, 512.4)">
psych-load
</text>
<rect x="338.7142857142857" y="450.2140345394536" width="10.071428571428571" height="47.78596546054638" fill="#7070f8" data-tooltip="1.00x baseline speed (No JIT)"/>
<line x1="338.7142857142857" y1="449.72062504622056" x2="348.78571428571433" y2="449.72062504622056" stroke="#000"/>
<line x1="338.7142857142857" y1="450.70744403268674" x2="348.78571428571433" y2="450.70744403268674" stroke="#000"/>
<line x1="343.75000000000006" y1="449.72062504622056" x2="343.75000000000006" y2="450.70744403268674" stroke="#000"/>
<rect x="348.78571428571433" y="453.2060650680982" width="10.071428571428571" height="44.793934931901795" fill="orange" data-tooltip="0.94x baseline speed (MJIT3.0)"/>
<line x1="348.78571428571433" y1="452.3160619704315" x2="358.8571428571429" y2="452.3160619704315" stroke="#000"/>
<line x1="348.78571428571433" y1="454.0960681657649" x2="358.8571428571429" y2="454.0960681657649" stroke="#000"/>
<line x1="353.8214285714286" y1="452.3160619704315" x2="353.8214285714286" y2="454.0960681657649" stroke="#000"/>
<rect x="358.8571428571429" y="440.427984961291" width="10.071428571428571" height="57.572015038709004" fill="green" data-tooltip="1.20x baseline speed (YJIT)"/>
<line x1="358.8571428571429" y1="439.29702811883493" x2="368.92857142857144" y2="439.29702811883493" stroke="#000"/>
<line x1="358.8571428571429" y1="441.55894180374696" x2="368.92857142857144" y2="441.55894180374696" stroke="#000"/>
<line x1="363.89285714285717" y1="439.29702811883493" x2="363.89285714285717" y2="441.55894180374696" stroke="#000"/>
<line x1="358.8571428571429" y1="498.0" x2="358.8571428571429" y2="502.79999999999995" stroke="#000"/>
<text x="358.8571428571429" y="512.4" fill="#111" font-size="small" font-family="monospace" font-weight="bold" text-anchor="end" transform="rotate(-60, 358.8571428571429, 512.4)">
railsbench
</text>
<rect x="379.0" y="450.2140345394536" width="10.071428571428571" height="47.78596546054638" fill="#7070f8" data-tooltip="1.00x baseline speed (No JIT)"/>
<line x1="379.0" y1="450.1659417914425" x2="389.07142857142856" y2="450.1659417914425" stroke="#000"/>
<line x1="379.0" y1="450.26212728746475" x2="389.07142857142856" y2="450.26212728746475" stroke="#000"/>
<line x1="384.03571428571433" y1="450.1659417914425" x2="384.03571428571433" y2="450.26212728746475" stroke="#000"/>
<rect x="389.07142857142856" y="426.5817237557375" width="10.071428571428571" height="71.41827624426236" fill="orange" data-tooltip="1.49x baseline speed (MJIT3.0)"/>
<line x1="389.07142857142856" y1="426.44081633144066" x2="399.1428571428571" y2="426.44081633144066" stroke="#000"/>
<line x1="389.07142857142856" y1="426.7226311800344" x2="399.1428571428571" y2="426.7226311800344" stroke="#000"/>
<line x1="394.1071428571429" y1="426.44081633144066" x2="394.1071428571429" y2="426.7226311800344" stroke="#000"/>
<rect x="399.1428571428571" y="438.02659023488417" width="10.071428571428571" height="59.97340976511575" fill="green" data-tooltip="1.26x baseline speed (YJIT)"/>
<line x1="399.1428571428571" y1="436.3927432348086" x2="409.2142857142857" y2="436.3927432348086" stroke="#000"/>
<line x1="399.1428571428571" y1="439.6604372349598" x2="409.2142857142857" y2="439.6604372349598" stroke="#000"/>
<line x1="404.17857142857144" y1="436.3927432348086" x2="404.17857142857144" y2="439.6604372349598" stroke="#000"/>
<line x1="399.1428571428571" y1="498.0" x2="399.1428571428571" y2="502.79999999999995" stroke="#000"/>
<text x="399.1428571428571" y="512.4" fill="#111" font-size="small" font-family="monospace" font-weight="bold" text-anchor="end" transform="rotate(-60, 399.1428571428571, 512.4)">
binarytrees
</text>
<rect x="419.2857142857143" y="450.2140345394536" width="10.071428571428571" height="47.78596546054638" fill="#7070f8" data-tooltip="1.00x baseline speed (No JIT)"/>
<line x1="419.2857142857143" y1="450.193067872799" x2="429.35714285714283" y2="450.193067872799" stroke="#000"/>
<line x1="419.2857142857143" y1="450.2350012061082" x2="429.35714285714283" y2="450.2350012061082" stroke="#000"/>
<line x1="424.32142857142856" y1="450.193067872799" x2="424.32142857142856" y2="450.2350012061082" stroke="#000"/>
<rect x="429.35714285714283" y="432.904321154126" width="10.071428571428571" height="65.09567884587399" fill="orange" data-tooltip="1.36x baseline speed (MJIT3.0)"/>
<line x1="429.35714285714283" y1="432.87300613673676" x2="439.4285714285714" y2="432.87300613673676" stroke="#000"/>
<line x1="429.35714285714283" y1="432.9356361715152" x2="439.4285714285714" y2="432.9356361715152" stroke="#000"/>
<line x1="434.3928571428571" y1="432.87300613673676" x2="434.3928571428571" y2="432.9356361715152" stroke="#000"/>
<rect x="439.4285714285714" y="450.4458293508109" width="10.071428571428571" height="47.55417064918903" fill="green" data-tooltip="1.00x baseline speed (YJIT)"/>
<line x1="439.4285714285714" y1="450.38425212681875" x2="449.49999999999994" y2="450.38425212681875" stroke="#000"/>
<line x1="439.4285714285714" y1="450.50740657480316" x2="449.49999999999994" y2="450.50740657480316" stroke="#000"/>
<line x1="444.4642857142857" y1="450.38425212681875" x2="444.4642857142857" y2="450.50740657480316" stroke="#000"/>
<line x1="439.4285714285714" y1="498.0" x2="439.4285714285714" y2="502.79999999999995" stroke="#000"/>
<text x="439.4285714285714" y="512.4" fill="#111" font-size="small" font-family="monospace" font-weight="bold" text-anchor="end" transform="rotate(-60, 439.4285714285714, 512.4)">
fannkuchredux
</text>
<rect x="459.5714285714285" y="450.2140345394536" width="10.071428571428571" height="47.78596546054638" fill="#7070f8" data-tooltip="1.00x baseline speed (No JIT)"/>
<line x1="459.5714285714285" y1="449.5994434322584" x2="469.6428571428571" y2="449.5994434322584" stroke="#000"/>
<line x1="459.5714285714285" y1="450.82862564664885" x2="469.6428571428571" y2="450.82862564664885" stroke="#000"/>
<line x1="464.60714285714283" y1="449.5994434322584" x2="464.60714285714283" y2="450.82862564664885" stroke="#000"/>
<rect x="469.6428571428571" y="435.13691239925015" width="10.071428571428571" height="62.863087600749765" fill="orange" data-tooltip="1.32x baseline speed (MJIT3.0)"/>
<line x1="469.6428571428571" y1="432.0487335588908" x2="479.71428571428567" y2="432.0487335588908" stroke="#000"/>
<line x1="469.6428571428571" y1="438.2250912396095" x2="479.71428571428567" y2="438.2250912396095" stroke="#000"/>
<line x1="474.6785714285714" y1="432.0487335588908" x2="474.6785714285714" y2="438.2250912396095" stroke="#000"/>
<rect x="479.71428571428567" y="431.3627847130248" width="10.071428571428571" height="66.6372152869752" fill="green" data-tooltip="1.39x baseline speed (YJIT)"/>
<line x1="479.71428571428567" y1="430.14414558512703" x2="489.7857142857142" y2="430.14414558512703" stroke="#000"/>
<line x1="479.71428571428567" y1="432.58142384092247" x2="489.7857142857142" y2="432.58142384092247" stroke="#000"/>
<line x1="484.74999999999994" y1="430.14414558512703" x2="484.74999999999994" y2="432.58142384092247" stroke="#000"/>
<line x1="479.71428571428567" y1="498.0" x2="479.71428571428567" y2="502.79999999999995" stroke="#000"/>
<text x="479.71428571428567" y="512.4" fill="#111" font-size="small" font-family="monospace" font-weight="bold" text-anchor="end" transform="rotate(-60, 479.71428571428567, 512.4)">
lee
</text>
<rect x="499.8571428571429" y="450.2140345394536" width="10.071428571428571" height="47.78596546054638" fill="#7070f8" data-tooltip="1.00x baseline speed (No JIT)"/>
<line x1="499.8571428571429" y1="450.1828680181062" x2="509.9285714285715" y2="450.1828680181062" stroke="#000"/>
<line x1="499.8571428571429" y1="450.2452010608011" x2="509.9285714285715" y2="450.2452010608011" stroke="#000"/>
<line x1="504.89285714285717" y1="450.1828680181062" x2="504.89285714285717" y2="450.2452010608011" stroke="#000"/>
<rect x="509.9285714285715" y="408.1110014432265" width="10.071428571428571" height="89.8889985567734" fill="orange" data-tooltip="1.88x baseline speed (MJIT3.0)"/>
<line x1="509.9285714285715" y1="407.38502328042057" x2="520.0000000000001" y2="407.38502328042057" stroke="#000"/>
<line x1="509.9285714285715" y1="408.8369796060324" x2="520.0000000000001" y2="408.8369796060324" stroke="#000"/>
<line x1="514.9642857142858" y1="407.38502328042057" x2="514.9642857142858" y2="408.8369796060324" stroke="#000"/>
<rect x="520.0" y="427.85285713044567" width="10.071428571428571" height="70.14714286955427" fill="green" data-tooltip="1.47x baseline speed (YJIT)"/>
<line x1="520.0" y1="427.8021308897131" x2="530.0714285714287" y2="427.8021308897131" stroke="#000"/>
<line x1="520.0" y1="427.90358337117823" x2="530.0714285714287" y2="427.90358337117823" stroke="#000"/>
<line x1="525.0357142857142" y1="427.8021308897131" x2="525.0357142857142" y2="427.90358337117823" stroke="#000"/>
<line x1="520.0" y1="498.0" x2="520.0" y2="502.79999999999995" stroke="#000"/>
<text x="520.0" y="512.4" fill="#111" font-size="small" font-family="monospace" font-weight="bold" text-anchor="end" transform="rotate(-60, 520.0, 512.4)">
nbody
</text>
<rect x="540.1428571428571" y="450.2140345394536" width="10.071428571428571" height="47.78596546054638" fill="#7070f8" data-tooltip="1.00x baseline speed (No JIT)"/>
<line x1="540.1428571428571" y1="449.92860026854515" x2="550.2142857142858" y2="449.92860026854515" stroke="#000"/>
<line x1="540.1428571428571" y1="450.49946881036215" x2="550.2142857142858" y2="450.49946881036215" stroke="#000"/>
<line x1="545.1785714285714" y1="449.92860026854515" x2="545.1785714285714" y2="450.49946881036215" stroke="#000"/>
<rect x="550.2142857142858" y="442.9214181576754" width="10.071428571428571" height="55.078581842324496" fill="orange" data-tooltip="1.15x baseline speed (MJIT3.0)"/>
<line x1="550.2142857142858" y1="442.2996522184058" x2="560.2857142857143" y2="442.2996522184058" stroke="#000"/>
<line x1="550.2142857142858" y1="443.543184096945" x2="560.2857142857143" y2="443.543184096945" stroke="#000"/>
<line x1="555.25" y1="442.2996522184058" x2="555.25" y2="443.543184096945" stroke="#000"/>
<rect x="560.2857142857142" y="423.587883195727" width="10.071428571428571" height="74.41211680427294" fill="green" data-tooltip="1.56x baseline speed (YJIT)"/>
<line x1="560.2857142857142" y1="423.00326932470006" x2="570.3571428571429" y2="423.00326932470006" stroke="#000"/>
<line x1="560.2857142857142" y1="424.17249706675386" x2="570.3571428571429" y2="424.17249706675386" stroke="#000"/>
<line x1="565.3214285714286" y1="423.00326932470006" x2="565.3214285714286" y2="424.17249706675386" stroke="#000"/>
<line x1="560.2857142857142" y1="498.0" x2="560.2857142857142" y2="502.79999999999995" stroke="#000"/>
<text x="560.2857142857142" y="512.4" fill="#111" font-size="small" font-family="monospace" font-weight="bold" text-anchor="end" transform="rotate(-60, 560.2857142857142, 512.4)">
optcarrot
</text>
<rect x="580.4285714285714" y="450.2140345394536" width="10.071428571428571" height="47.78596546054638" fill="#7070f8" data-tooltip="1.00x baseline speed (No JIT)"/>
<line x1="580.4285714285714" y1="450.0467940047473" x2="590.5" y2="450.0467940047473" stroke="#000"/>
<line x1="580.4285714285714" y1="450.38127507415993" x2="590.5" y2="450.38127507415993" stroke="#000"/>
<line x1="585.4642857142857" y1="450.0467940047473" x2="585.4642857142857" y2="450.38127507415993" stroke="#000"/>
<rect x="590.5" y="436.3723791421598" width="10.071428571428571" height="61.62762085784013" fill="orange" data-tooltip="1.29x baseline speed (MJIT3.0)"/>
<line x1="590.5" y1="436.04242271199973" x2="600.5714285714287" y2="436.04242271199973" stroke="#000"/>
<line x1="590.5" y1="436.70233557231984" x2="600.5714285714287" y2="436.70233557231984" stroke="#000"/>
<line x1="595.5357142857143" y1="436.04242271199973" x2="595.5357142857143" y2="436.70233557231984" stroke="#000"/>
<rect x="600.5714285714286" y="411.7277800325276" width="10.071428571428571" height="86.27221996747227" fill="green" data-tooltip="1.81x baseline speed (YJIT)"/>
<line x1="600.5714285714286" y1="411.3863871728241" x2="610.6428571428571" y2="411.3863871728241" stroke="#000"/>
<line x1="600.5714285714286" y1="412.06917289223117" x2="610.6428571428571" y2="412.06917289223117" stroke="#000"/>
<line x1="605.6071428571428" y1="411.3863871728241" x2="605.6071428571428" y2="412.06917289223117" stroke="#000"/>
<line x1="600.5714285714286" y1="498.0" x2="600.5714285714286" y2="502.79999999999995" stroke="#000"/>
<text x="600.5714285714286" y="512.4" fill="#111" font-size="small" font-family="monospace" font-weight="bold" text-anchor="end" transform="rotate(-60, 600.5714285714286, 512.4)">
rubykon
</text>
<rect x="620.7142857142857" y="450.2140345394536" width="10.071428571428571" height="47.78596546054638" fill="#7070f8" data-tooltip="1.00x baseline speed (No JIT)"/>
<line x1="620.7142857142857" y1="450.0779431653692" x2="630.7857142857143" y2="450.0779431653692" stroke="#000"/>
<line x1="620.7142857142857" y1="450.350125913538" x2="630.7857142857143" y2="450.350125913538" stroke="#000"/>
<line x1="625.7499999999999" y1="450.0779431653692" x2="625.7499999999999" y2="450.350125913538" stroke="#000"/>
<rect x="630.7857142857143" y="447.13442475191914" width="10.071428571428571" height="50.86557524808079" fill="orange" data-tooltip="1.06x baseline speed (MJIT3.0)"/>
<line x1="630.7857142857143" y1="446.35462814581007" x2="640.8571428571429" y2="446.35462814581007" stroke="#000"/>
<line x1="630.7857142857143" y1="447.91422135802816" x2="640.8571428571429" y2="447.91422135802816" stroke="#000"/>
<line x1="635.8214285714286" y1="446.35462814581007" x2="635.8214285714286" y2="447.91422135802816" stroke="#000"/>
<rect x="640.8571428571428" y="152.46514453850526" width="10.071428571428571" height="345.5348554614947" fill="green" data-tooltip="7.23x baseline speed (YJIT)"/>
<line x1="640.8571428571428" y1="151.26116470551278" x2="650.9285714285714" y2="151.26116470551278" stroke="#000"/>
<line x1="640.8571428571428" y1="153.66912437149773" x2="650.9285714285714" y2="153.66912437149773" stroke="#000"/>
<line x1="645.892857142857" y1="151.26116470551278" x2="645.892857142857" y2="153.66912437149773" stroke="#000"/>
<line x1="640.8571428571428" y1="498.0" x2="640.8571428571428" y2="502.79999999999995" stroke="#000"/>
<text x="640.8571428571428" y="512.4" fill="#111" font-size="small" font-family="monospace" font-weight="bold" text-anchor="end" transform="rotate(-60, 640.8571428571428, 512.4)">
30k_ifelse
</text>
<rect x="661.0" y="450.2140345394536" width="10.071428571428571" height="47.78596546054638" fill="#7070f8" data-tooltip="1.00x baseline speed (No JIT)"/>
<line x1="661.0" y1="450.0271859018299" x2="671.0714285714287" y2="450.0271859018299" stroke="#000"/>
<line x1="661.0" y1="450.40088317707733" x2="671.0714285714287" y2="450.40088317707733" stroke="#000"/>
<line x1="666.0357142857143" y1="450.0271859018299" x2="666.0357142857143" y2="450.40088317707733" stroke="#000"/>
<rect x="671.0714285714287" y="449.0621214720804" width="10.071428571428571" height="48.93787852791956" fill="orange" data-tooltip="1.02x baseline speed (MJIT3.0)"/>
<line x1="671.0714285714287" y1="448.8442272361722" x2="681.1428571428572" y2="448.8442272361722" stroke="#000"/>
<line x1="671.0714285714287" y1="449.2800157079886" x2="681.1428571428572" y2="449.2800157079886" stroke="#000"/>
<line x1="676.1071428571429" y1="448.8442272361722" x2="676.1071428571429" y2="449.2800157079886" stroke="#000"/>
<rect x="681.1428571428571" y="100.19999999999999" width="10.071428571428571" height="397.79999999999995" fill="green" data-tooltip="8.32x baseline speed (YJIT)"/>
<line x1="681.1428571428571" y1="98.49911766842109" x2="691.2142857142858" y2="98.49911766842109" stroke="#000"/>
<line x1="681.1428571428571" y1="101.90088233157888" x2="691.2142857142858" y2="101.90088233157888" stroke="#000"/>
<line x1="686.1785714285714" y1="98.49911766842109" x2="686.1785714285714" y2="101.90088233157888" stroke="#000"/>
<line x1="681.1428571428571" y1="498.0" x2="681.1428571428571" y2="502.79999999999995" stroke="#000"/>
<text x="681.1428571428571" y="512.4" fill="#111" font-size="small" font-family="monospace" font-weight="bold" text-anchor="end" transform="rotate(-60, 681.1428571428571, 512.4)">
30k_methods
</text>
<rect x="701.2857142857143" y="450.2140345394536" width="10.071428571428571" height="47.78596546054638" fill="#7070f8" data-tooltip="1.00x baseline speed (No JIT)"/>
<line x1="701.2857142857143" y1="450.14686442580285" x2="711.3571428571429" y2="450.14686442580285" stroke="#000"/>
<line x1="701.2857142857143" y1="450.28120465310445" x2="711.3571428571429" y2="450.28120465310445" stroke="#000"/>
<line x1="706.3214285714286" y1="450.14686442580285" x2="706.3214285714286" y2="450.28120465310445" stroke="#000"/>
<rect x="711.3571428571429" y="420.31655047508025" width="10.071428571428571" height="77.68344952491968" fill="orange" data-tooltip="1.63x baseline speed (MJIT3.0)"/>
<line x1="711.3571428571429" y1="420.073499897674" x2="721.4285714285716" y2="420.073499897674" stroke="#000"/>
<line x1="711.3571428571429" y1="420.5596010524864" x2="721.4285714285716" y2="420.5596010524864" stroke="#000"/>
<line x1="716.3928571428571" y1="420.073499897674" x2="716.3928571428571" y2="420.5596010524864" stroke="#000"/>
<rect x="721.4285714285714" y="383.7061888355945" width="10.071428571428571" height="114.29381116440545" fill="green" data-tooltip="2.39x baseline speed (YJIT)"/>
<line x1="721.4285714285714" y1="383.3877604489462" x2="731.5" y2="383.3877604489462" stroke="#000"/>
<line x1="721.4285714285714" y1="384.0246172222428" x2="731.5" y2="384.0246172222428" stroke="#000"/>
<line x1="726.4642857142857" y1="383.3877604489462" x2="726.4642857142857" y2="384.0246172222428" stroke="#000"/>
<line x1="721.4285714285714" y1="498.0" x2="721.4285714285714" y2="502.79999999999995" stroke="#000"/>
<text x="721.4285714285714" y="512.4" fill="#111" font-size="small" font-family="monospace" font-weight="bold" text-anchor="end" transform="rotate(-60, 721.4285714285714, 512.4)">
cfunc_itself
</text>
<rect x="741.5714285714286" y="450.2140345394536" width="10.071428571428571" height="47.78596546054638" fill="#7070f8" data-tooltip="1.00x baseline speed (No JIT)"/>
<line x1="741.5714285714286" y1="450.19811294007116" x2="751.6428571428572" y2="450.19811294007116" stroke="#000"/>
<line x1="741.5714285714286" y1="450.22995613883614" x2="751.6428571428572" y2="450.22995613883614" stroke="#000"/>
<line x1="746.6071428571428" y1="450.19811294007116" x2="746.6071428571428" y2="450.22995613883614" stroke="#000"/>
<rect x="751.6428571428572" y="350.6282156400887" width="10.071428571428571" height="147.37178435991126" fill="orange" data-tooltip="3.08x baseline speed (MJIT3.0)"/>
<line x1="751.6428571428572" y1="350.5470779167427" x2="761.7142857142858" y2="350.5470779167427" stroke="#000"/>
<line x1="751.6428571428572" y1="350.7093533634347" x2="761.7142857142858" y2="350.7093533634347" stroke="#000"/>
<line x1="756.6785714285714" y1="350.5470779167427" x2="756.6785714285714" y2="350.7093533634347" stroke="#000"/>
<rect x="761.7142857142857" y="320.96408023664134" width="10.071428571428571" height="177.03591976335855" fill="green" data-tooltip="3.70x baseline speed (YJIT)"/>
<line x1="761.7142857142857" y1="320.8794677098217" x2="771.7857142857143" y2="320.8794677098217" stroke="#000"/>
<line x1="761.7142857142857" y1="321.0486927634609" x2="771.7857142857143" y2="321.0486927634609" stroke="#000"/>
<line x1="766.7499999999999" y1="320.8794677098217" x2="766.7499999999999" y2="321.0486927634609" stroke="#000"/>
<line x1="761.7142857142857" y1="498.0" x2="761.7142857142857" y2="502.79999999999995" stroke="#000"/>
<text x="761.7142857142857" y="512.4" fill="#111" font-size="small" font-family="monospace" font-weight="bold" text-anchor="end" transform="rotate(-60, 761.7142857142857, 512.4)">
fib
</text>
<rect x="781.8571428571428" y="450.2140345394536" width="10.071428571428571" height="47.78596546054638" fill="#7070f8" data-tooltip="1.00x baseline speed (No JIT)"/>
<line x1="781.8571428571428" y1="450.15158302781083" x2="791.9285714285714" y2="450.15158302781083" stroke="#000"/>
<line x1="781.8571428571428" y1="450.27648605109647" x2="791.9285714285714" y2="450.27648605109647" stroke="#000"/>
<line x1="786.8928571428571" y1="450.15158302781083" x2="786.8928571428571" y2="450.27648605109647" stroke="#000"/>
<rect x="791.9285714285714" y="449.8226769275555" width="10.071428571428571" height="48.17732307244441" fill="orange" data-tooltip="1.01x baseline speed (MJIT3.0)"/>
<line x1="791.9285714285714" y1="449.7324108845535" x2="802.0" y2="449.7324108845535" stroke="#000"/>
<line x1="791.9285714285714" y1="449.91294297055754" x2="802.0" y2="449.91294297055754" stroke="#000"/>
<line x1="796.9642857142857" y1="449.7324108845535" x2="796.9642857142857" y2="449.91294297055754" stroke="#000"/>
<rect x="801.9999999999999" y="374.7134611806963" width="10.071428571428571" height="123.28653881930366" fill="green" data-tooltip="2.58x baseline speed (YJIT)"/>
<line x1="801.9999999999999" y1="374.49253471445996" x2="812.0714285714286" y2="374.49253471445996" stroke="#000"/>
<line x1="801.9999999999999" y1="374.9343876469326" x2="812.0714285714286" y2="374.9343876469326" stroke="#000"/>
<line x1="807.0357142857142" y1="374.49253471445996" x2="807.0357142857142" y2="374.9343876469326" stroke="#000"/>
<line x1="801.9999999999999" y1="498.0" x2="801.9999999999999" y2="502.79999999999995" stroke="#000"/>
<text x="801.9999999999999" y="512.4" fill="#111" font-size="small" font-family="monospace" font-weight="bold" text-anchor="end" transform="rotate(-60, 801.9999999999999, 512.4)">
getivar
</text>
<rect x="822.1428571428571" y="450.2140345394536" width="10.071428571428571" height="47.78596546054638" fill="#7070f8" data-tooltip="1.00x baseline speed (No JIT)"/>
<line x1="822.1428571428571" y1="450.1747738302297" x2="832.2142857142857" y2="450.1747738302297" stroke="#000"/>
<line x1="822.1428571428571" y1="450.25329524867755" x2="832.2142857142857" y2="450.25329524867755" stroke="#000"/>
<line x1="827.1785714285713" y1="450.1747738302297" x2="827.1785714285713" y2="450.25329524867755" stroke="#000"/>
<rect x="832.2142857142857" y="438.85289559030525" width="10.071428571428571" height="59.14710440969471" fill="orange" data-tooltip="1.24x baseline speed (MJIT3.0)"/>
<line x1="832.2142857142857" y1="438.79790453393196" x2="842.2857142857143" y2="438.79790453393196" stroke="#000"/>
<line x1="832.2142857142857" y1="438.9078866466785" x2="842.2857142857143" y2="438.9078866466785" stroke="#000"/>
<line x1="837.2499999999999" y1="438.79790453393196" x2="837.2499999999999" y2="438.9078866466785" stroke="#000"/>
<rect x="842.2857142857142" y="254.47226445439065" width="10.071428571428571" height="243.5277355456093" fill="green" data-tooltip="5.10x baseline speed (YJIT)"/>
<line x1="842.2857142857142" y1="254.14835873548387" x2="852.3571428571428" y2="254.14835873548387" stroke="#000"/>
<line x1="842.2857142857142" y1="254.79617017329744" x2="852.3571428571428" y2="254.79617017329744" stroke="#000"/>
<line x1="847.3214285714284" y1="254.14835873548387" x2="847.3214285714284" y2="254.79617017329744" stroke="#000"/>
<line x1="842.2857142857142" y1="498.0" x2="842.2857142857142" y2="502.79999999999995" stroke="#000"/>
<text x="842.2857142857142" y="512.4" fill="#111" font-size="small" font-family="monospace" font-weight="bold" text-anchor="end" transform="rotate(-60, 842.2857142857142, 512.4)">
keyword_args
</text>
<rect x="862.4285714285714" y="450.2140345394536" width="10.071428571428571" height="47.78596546054638" fill="#7070f8" data-tooltip="1.00x baseline speed (No JIT)"/>
<line x1="862.4285714285714" y1="450.13980208416484" x2="872.5" y2="450.13980208416484" stroke="#000"/>
<line x1="862.4285714285714" y1="450.2882669947424" x2="872.5" y2="450.2882669947424" stroke="#000"/>
<line x1="867.4642857142857" y1="450.13980208416484" x2="867.4642857142857" y2="450.2882669947424" stroke="#000"/>
<rect x="872.5" y="443.1146118365052" width="10.071428571428571" height="54.88538816349469" fill="orange" data-tooltip="1.15x baseline speed (MJIT3.0)"/>
<line x1="872.5" y1="442.92196409755456" x2="882.5714285714287" y2="442.92196409755456" stroke="#000"/>
<line x1="872.5" y1="443.30725957545593" x2="882.5714285714287" y2="443.30725957545593" stroke="#000"/>
<line x1="877.5357142857143" y1="442.92196409755456" x2="877.5357142857143" y2="443.30725957545593" stroke="#000"/>
<rect x="882.5714285714286" y="425.38331729326853" width="10.071428571428571" height="72.61668270673144" fill="green" data-tooltip="1.52x baseline speed (YJIT)"/>
<line x1="882.5714285714286" y1="423.758273728927" x2="892.6428571428572" y2="423.758273728927" stroke="#000"/>
<line x1="882.5714285714286" y1="427.00836085761006" x2="892.6428571428572" y2="427.00836085761006" stroke="#000"/>
<line x1="887.6071428571428" y1="423.758273728927" x2="887.6071428571428" y2="427.00836085761006" stroke="#000"/>
<line x1="882.5714285714286" y1="498.0" x2="882.5714285714286" y2="502.79999999999995" stroke="#000"/>
<text x="882.5714285714286" y="512.4" fill="#111" font-size="small" font-family="monospace" font-weight="bold" text-anchor="end" transform="rotate(-60, 882.5714285714286, 512.4)">
respond_to
</text>
<rect x="902.7142857142857" y="450.2140345394536" width="10.071428571428571" height="47.78596546054638" fill="#7070f8" data-tooltip="1.00x baseline speed (No JIT)"/>
<line x1="902.7142857142857" y1="450.1764333905703" x2="912.7857142857143" y2="450.1764333905703" stroke="#000"/>
<line x1="902.7142857142857" y1="450.25163568833693" x2="912.7857142857143" y2="450.25163568833693" stroke="#000"/>
<line x1="907.75" y1="450.1764333905703" x2="907.75" y2="450.25163568833693" stroke="#000"/>
<rect x="912.7857142857143" y="454.7167225247887" width="10.071428571428571" height="43.28327747521127" fill="orange" data-tooltip="0.91x baseline speed (MJIT3.0)"/>
<line x1="912.7857142857143" y1="454.6673959634454" x2="922.8571428571429" y2="454.6673959634454" stroke="#000"/>
<line x1="912.7857142857143" y1="454.7660490861319" x2="922.8571428571429" y2="454.7660490861319" stroke="#000"/>
<line x1="917.8214285714286" y1="454.6673959634454" x2="917.8214285714286" y2="454.7660490861319" stroke="#000"/>
<rect x="922.8571428571428" y="422.80876123079094" width="10.071428571428571" height="75.19123876920894" fill="green" data-tooltip="1.57x baseline speed (YJIT)"/>
<line x1="922.8571428571428" y1="422.65441848889395" x2="932.9285714285714" y2="422.65441848889395" stroke="#000"/>
<line x1="922.8571428571428" y1="422.96310397268786" x2="932.9285714285714" y2="422.96310397268786" stroke="#000"/>
<line x1="927.8928571428571" y1="422.65441848889395" x2="927.8928571428571" y2="422.96310397268786" stroke="#000"/>
<line x1="922.8571428571428" y1="498.0" x2="922.8571428571428" y2="502.79999999999995" stroke="#000"/>
<text x="922.8571428571428" y="512.4" fill="#111" font-size="small" font-family="monospace" font-weight="bold" text-anchor="end" transform="rotate(-60, 922.8571428571428, 512.4)">
setivar
</text>
</svg>