<svg viewBox="0 0 1000 600" xmlns="http://www.w3.org/2000/svg" xmlns:xlink="http://www.w3.org/1999/xlink" width="100%" height="100%">

<rect x="50.0" y="30.0" width="940.0" height="467.99999999999994" stroke="#000" fill="#EEE"/>
<line x1="42.0" y1="497.9999999999999" x2="50.0" y2="497.9999999999999" stroke="#000"/>
<text x="26.000000000000004" y="497.9999999999999" text-anchor="end" font-weight="bold" font-size="small" fill="#111">
0.0
</text>
<line x1="42.0" y1="418.3103362540242" x2="50.0" y2="418.3103362540242" stroke="#000"/>
<text x="26.000000000000004" y="418.3103362540242" text-anchor="end" font-weight="bold" font-size="small" fill="#111">
2.0
</text>
<line x1="42.0" y1="338.6206725080483" x2="50.0" y2="338.6206725080483" stroke="#000"/>
<text x="26.000000000000004" y="338.6206725080483" text-anchor="end" font-weight="bold" font-size="small" fill="#111">
4.0
</text>
<line x1="42.0" y1="258.9310087620726" x2="50.0" y2="258.9310087620726" stroke="#000"/>
<text x="26.000000000000004" y="258.9310087620726" text-anchor="end" font-weight="bold" font-size="small" fill="#111">
6.0
</text>
<line x1="42.0" y1="179.24134501609683" x2="50.0" y2="179.24134501609683" stroke="#000"/>
<text x="26.000000000000004" y="179.24134501609683" text-anchor="end" font-weight="bold" font-size="small" fill="#111">
8.0
</text>
<rect x="268.5" y="36.00000000000001" width="80.0" height="18.0" fill="#7070f8" stroke="#888"/>
<text x="308.5" y="52.50000000000001" font-size="small" text-anchor="middle" font-weight="bold" fill="#EEE">
No JIT
</text>
<rect x="691.4999999999999" y="36.00000000000001" width="80.0" height="18.0" fill="orange" stroke="#888"/>
<text x="731.4999999999999" y="52.50000000000001" font-size="small" text-anchor="middle" font-weight="bold" fill="#EEE">
YJIT
</text>
<rect x="97.0" y="458.1551681270121" width="23.499999999999996" height="39.84483187298789" fill="#7070f8" data-tooltip="1.00x baseline speed (No JIT)"/>
<line x1="97.0" y1="458.1353748371942" x2="120.5" y2="458.1353748371942" stroke="#000"/>
<line x1="97.0" y1="458.1749614168299" x2="120.5" y2="458.1749614168299" stroke="#000"/>
<line x1="108.75" y1="458.1353748371942" x2="108.75" y2="458.1749614168299" stroke="#000"/>
<rect x="120.5" y="339.17695858198135" width="23.499999999999996" height="158.8230414180186" fill="orange" data-tooltip="3.99x baseline speed (YJIT)"/>
<line x1="120.5" y1="339.08827204456486" x2="144.0" y2="339.08827204456486" stroke="#000"/>
<line x1="120.5" y1="339.26564511939785" x2="144.0" y2="339.26564511939785" stroke="#000"/>
<line x1="132.25" y1="339.08827204456486" x2="132.25" y2="339.26564511939785" stroke="#000"/>
<line x1="132.25" y1="498.0" x2="132.25" y2="502.79999999999995" stroke="#000"/>
<text x="132.25" y="512.4" fill="#111" font-size="small" font-family="monospace" font-weight="bold" text-anchor="end" transform="rotate(-60, 132.25, 512.4)">
30k_ifelse
</text>
<rect x="167.49999999999997" y="458.1551681270121" width="23.499999999999996" height="39.84483187298789" fill="#7070f8" data-tooltip="1.00x baseline speed (No JIT)"/>
<line x1="167.49999999999997" y1="458.08871570697016" x2="190.99999999999997" y2="458.08871570697016" stroke="#000"/>
<line x1="167.49999999999997" y1="458.22162054705393" x2="190.99999999999997" y2="458.22162054705393" stroke="#000"/>
<line x1="179.25" y1="458.08871570697016" x2="179.25" y2="458.22162054705393" stroke="#000"/>
<rect x="190.99999999999997" y="282.8743973390117" width="23.499999999999996" height="215.12560266098825" fill="orange" data-tooltip="5.40x baseline speed (YJIT)"/>
<line x1="190.99999999999997" y1="282.3882675590648" x2="214.49999999999997" y2="282.3882675590648" stroke="#000"/>
<line x1="190.99999999999997" y1="283.36052711895866" x2="214.49999999999997" y2="283.36052711895866" stroke="#000"/>
<line x1="202.75" y1="282.3882675590648" x2="202.75" y2="283.36052711895866" stroke="#000"/>
<line x1="202.75" y1="498.0" x2="202.75" y2="502.79999999999995" stroke="#000"/>
<text x="202.75" y="512.4" fill="#111" font-size="small" font-family="monospace" font-weight="bold" text-anchor="end" transform="rotate(-60, 202.75, 512.4)">
30k_methods
</text>
<rect x="238.0" y="458.1551681270121" width="23.499999999999996" height="39.84483187298789" fill="#7070f8" data-tooltip="1.00x baseline speed (No JIT)"/>
<line x1="238.0" y1="458.1296491104087" x2="261.5" y2="458.1296491104087" stroke="#000"/>
<line x1="238.0" y1="458.1806871436154" x2="261.5" y2="458.1806871436154" stroke="#000"/>
<line x1="249.75" y1="458.1296491104087" x2="249.75" y2="458.1806871436154" stroke="#000"/>
<rect x="261.5" y="374.90806678648465" width="23.499999999999996" height="123.09193321351529" fill="orange" data-tooltip="3.09x baseline speed (YJIT)"/>
<line x1="261.5" y1="374.82823988814204" x2="285.00000000000006" y2="374.82823988814204" stroke="#000"/>
<line x1="261.5" y1="374.9878936848273" x2="285.00000000000006" y2="374.9878936848273" stroke="#000"/>
<line x1="273.25" y1="374.82823988814204" x2="273.25" y2="374.9878936848273" stroke="#000"/>
<line x1="273.25" y1="498.0" x2="273.25" y2="502.79999999999995" stroke="#000"/>
<text x="273.25" y="512.4" fill="#111" font-size="small" font-family="monospace" font-weight="bold" text-anchor="end" transform="rotate(-60, 273.25, 512.4)">
cfunc_itself
</text>
<rect x="308.5" y="458.1551681270121" width="23.499999999999996" height="39.84483187298789" fill="#7070f8" data-tooltip="1.00x baseline speed (No JIT)"/>
<line x1="308.5" y1="457.8458602808741" x2="332.0" y2="457.8458602808741" stroke="#000"/>
<line x1="308.5" y1="458.46447597315" x2="332.0" y2="458.46447597315" stroke="#000"/>
<line x1="320.25" y1="457.8458602808741" x2="320.25" y2="458.46447597315" stroke="#000"/>
<rect x="332.0" y="324.5278912414398" width="23.499999999999996" height="173.47210875856015" fill="orange" data-tooltip="4.35x baseline speed (YJIT)"/>
<line x1="332.0" y1="323.17414655632416" x2="355.50000000000006" y2="323.17414655632416" stroke="#000"/>
<line x1="332.0" y1="325.8816359265554" x2="355.50000000000006" y2="325.8816359265554" stroke="#000"/>
<line x1="343.75" y1="323.17414655632416" x2="343.75" y2="325.8816359265554" stroke="#000"/>
<line x1="343.75" y1="498.0" x2="343.75" y2="502.79999999999995" stroke="#000"/>
<text x="343.75" y="512.4" fill="#111" font-size="small" font-family="monospace" font-weight="bold" text-anchor="end" transform="rotate(-60, 343.75, 512.4)">
fib
</text>
<rect x="379.0" y="458.1551681270121" width="23.499999999999996" height="39.84483187298789" fill="#7070f8" data-tooltip="1.00x baseline speed (No JIT)"/>
<line x1="379.0" y1="458.01125071492135" x2="402.5" y2="458.01125071492135" stroke="#000"/>
<line x1="379.0" y1="458.29908553910275" x2="402.5" y2="458.29908553910275" stroke="#000"/>
<line x1="390.75" y1="458.01125071492135" x2="390.75" y2="458.29908553910275" stroke="#000"/>
<rect x="402.5" y="271.2630176556859" width="23.499999999999996" height="226.73698234431401" fill="orange" data-tooltip="5.69x baseline speed (YJIT)"/>
<line x1="402.5" y1="270.44315251140915" x2="426.00000000000006" y2="270.44315251140915" stroke="#000"/>
<line x1="402.5" y1="272.0828827999627" x2="426.00000000000006" y2="272.0828827999627" stroke="#000"/>
<line x1="414.25" y1="270.44315251140915" x2="414.25" y2="272.0828827999627" stroke="#000"/>
<line x1="414.25" y1="498.0" x2="414.25" y2="502.79999999999995" stroke="#000"/>
<text x="414.25" y="512.4" fill="#111" font-size="small" font-family="monospace" font-weight="bold" text-anchor="end" transform="rotate(-60, 414.25, 512.4)">
getivar
</text>
<rect x="449.5" y="458.1551681270121" width="23.499999999999996" height="39.84483187298789" fill="#7070f8" data-tooltip="1.00x baseline speed (No JIT)"/>
<line x1="449.5" y1="458.10514663847385" x2="473.00000000000006" y2="458.10514663847385" stroke="#000"/>
<line x1="449.5" y1="458.20518961555024" x2="473.00000000000006" y2="458.20518961555024" stroke="#000"/>
<line x1="461.25" y1="458.10514663847385" x2="461.25" y2="458.20518961555024" stroke="#000"/>
<rect x="473.00000000000006" y="268.38583290214007" width="23.499999999999996" height="229.6141670978599" fill="orange" data-tooltip="5.76x baseline speed (YJIT)"/>
<line x1="473.00000000000006" y1="268.0965190362657" x2="496.50000000000006" y2="268.0965190362657" stroke="#000"/>
<line x1="473.00000000000006" y1="268.6751467680144" x2="496.50000000000006" y2="268.6751467680144" stroke="#000"/>
<line x1="484.75" y1="268.0965190362657" x2="484.75" y2="268.6751467680144" stroke="#000"/>
<line x1="484.75" y1="498.0" x2="484.75" y2="502.79999999999995" stroke="#000"/>
<text x="484.75" y="512.4" fill="#111" font-size="small" font-family="monospace" font-weight="bold" text-anchor="end" transform="rotate(-60, 484.75, 512.4)">
keyword_args
</text>
<rect x="519.9999999999999" y="458.1551681270121" width="23.499999999999996" height="39.84483187298789" fill="#7070f8" data-tooltip="1.00x baseline speed (No JIT)"/>
<line x1="519.9999999999999" y1="457.85926858100754" x2="543.4999999999999" y2="457.85926858100754" stroke="#000"/>
<line x1="519.9999999999999" y1="458.45106767301655" x2="543.4999999999999" y2="458.45106767301655" stroke="#000"/>
<line x1="531.75" y1="457.85926858100754" x2="531.75" y2="458.45106767301655" stroke="#000"/>
<rect x="543.4999999999999" y="100.19999999999999" width="23.499999999999996" height="397.79999999999995" fill="orange" data-tooltip="9.98x baseline speed (YJIT)"/>
<line x1="543.4999999999999" y1="94.3019646351531" x2="566.9999999999999" y2="94.3019646351531" stroke="#000"/>
<line x1="543.4999999999999" y1="106.09803536484688" x2="566.9999999999999" y2="106.09803536484688" stroke="#000"/>
<line x1="555.2499999999999" y1="94.3019646351531" x2="555.2499999999999" y2="106.09803536484688" stroke="#000"/>
<line x1="555.2499999999999" y1="498.0" x2="555.2499999999999" y2="502.79999999999995" stroke="#000"/>
<text x="555.2499999999999" y="512.4" fill="#111" font-size="small" font-family="monospace" font-weight="bold" text-anchor="end" transform="rotate(-60, 555.2499999999999, 512.4)">
respond_to
</text>
<rect x="590.4999999999999" y="458.1551681270121" width="23.499999999999996" height="39.84483187298789" fill="#7070f8" data-tooltip="1.00x baseline speed (No JIT)"/>
<line x1="590.4999999999999" y1="457.9661957367958" x2="613.9999999999999" y2="457.9661957367958" stroke="#000"/>
<line x1="590.4999999999999" y1="458.3441405172283" x2="613.9999999999999" y2="458.3441405172283" stroke="#000"/>
<line x1="602.25" y1="457.9661957367958" x2="602.25" y2="458.3441405172283" stroke="#000"/>
<rect x="613.9999999999999" y="260.92935961260474" width="23.499999999999996" height="237.07064038739517" fill="orange" data-tooltip="5.95x baseline speed (YJIT)"/>
<line x1="613.9999999999999" y1="259.80419807701236" x2="637.4999999999999" y2="259.80419807701236" stroke="#000"/>
<line x1="613.9999999999999" y1="262.0545211481971" x2="637.4999999999999" y2="262.0545211481971" stroke="#000"/>
<line x1="625.7499999999999" y1="259.80419807701236" x2="625.7499999999999" y2="262.0545211481971" stroke="#000"/>
<line x1="625.7499999999999" y1="498.0" x2="625.7499999999999" y2="502.79999999999995" stroke="#000"/>
<text x="625.7499999999999" y="512.4" fill="#111" font-size="small" font-family="monospace" font-weight="bold" text-anchor="end" transform="rotate(-60, 625.7499999999999, 512.4)">
setivar
</text>
<rect x="660.9999999999999" y="458.1551681270121" width="23.499999999999996" height="39.84483187298789" fill="#7070f8" data-tooltip="1.00x baseline speed (No JIT)"/>
<line x1="660.9999999999999" y1="457.8219035631377" x2="684.4999999999999" y2="457.8219035631377" stroke="#000"/>
<line x1="660.9999999999999" y1="458.4884326908864" x2="684.4999999999999" y2="458.4884326908864" stroke="#000"/>
<line x1="672.75" y1="457.8219035631377" x2="672.75" y2="458.4884326908864" stroke="#000"/>
<rect x="684.4999999999999" y="397.62430462448316" width="23.499999999999996" height="100.37569537551673" fill="orange" data-tooltip="2.52x baseline speed (YJIT)"/>
<line x1="684.4999999999999" y1="395.78894073836375" x2="707.9999999999999" y2="395.78894073836375" stroke="#000"/>
<line x1="684.4999999999999" y1="399.45966851060257" x2="707.9999999999999" y2="399.45966851060257" stroke="#000"/>
<line x1="696.2499999999999" y1="395.78894073836375" x2="696.2499999999999" y2="399.45966851060257" stroke="#000"/>
<line x1="696.2499999999999" y1="498.0" x2="696.2499999999999" y2="502.79999999999995" stroke="#000"/>
<text x="696.2499999999999" y="512.4" fill="#111" font-size="small" font-family="monospace" font-weight="bold" text-anchor="end" transform="rotate(-60, 696.2499999999999, 512.4)">
setivar_object
</text>
<rect x="731.4999999999999" y="458.1551681270121" width="23.499999999999996" height="39.84483187298789" fill="#7070f8" data-tooltip="1.00x baseline speed (No JIT)"/>
<line x1="731.4999999999999" y1="458.05696620774364" x2="754.9999999999999" y2="458.05696620774364" stroke="#000"/>
<line x1="731.4999999999999" y1="458.25337004628045" x2="754.9999999999999" y2="458.25337004628045" stroke="#000"/>
<line x1="743.25" y1="458.05696620774364" x2="743.25" y2="458.25337004628045" stroke="#000"/>
<rect x="754.9999999999999" y="395.88042864609605" width="23.499999999999996" height="102.11957135390386" fill="orange" data-tooltip="2.56x baseline speed (YJIT)"/>
<line x1="754.9999999999999" y1="395.6279466558123" x2="778.4999999999999" y2="395.6279466558123" stroke="#000"/>
<line x1="754.9999999999999" y1="396.1329106363798" x2="778.4999999999999" y2="396.1329106363798" stroke="#000"/>
<line x1="766.7499999999999" y1="395.6279466558123" x2="766.7499999999999" y2="396.1329106363798" stroke="#000"/>
<line x1="766.7499999999999" y1="498.0" x2="766.7499999999999" y2="502.79999999999995" stroke="#000"/>
<text x="766.7499999999999" y="512.4" fill="#111" font-size="small" font-family="monospace" font-weight="bold" text-anchor="end" transform="rotate(-60, 766.7499999999999, 512.4)">
setivar_young
</text>
<rect x="801.9999999999999" y="458.1551681270121" width="23.499999999999996" height="39.84483187298789" fill="#7070f8" data-tooltip="1.00x baseline speed (No JIT)"/>
<line x1="801.9999999999999" y1="457.95691130955726" x2="825.4999999999999" y2="457.95691130955726" stroke="#000"/>
<line x1="801.9999999999999" y1="458.35342494446684" x2="825.4999999999999" y2="458.35342494446684" stroke="#000"/>
<line x1="813.75" y1="457.95691130955726" x2="813.75" y2="458.35342494446684" stroke="#000"/>
<rect x="825.4999999999999" y="420.12082381485214" width="23.499999999999996" height="77.87917618514783" fill="orange" data-tooltip="1.95x baseline speed (YJIT)"/>
<line x1="825.4999999999999" y1="419.2167280088315" x2="848.9999999999999" y2="419.2167280088315" stroke="#000"/>
<line x1="825.4999999999999" y1="421.0249196208728" x2="848.9999999999999" y2="421.0249196208728" stroke="#000"/>
<line x1="837.2499999999999" y1="419.2167280088315" x2="837.2499999999999" y2="421.0249196208728" stroke="#000"/>
<line x1="837.2499999999999" y1="498.0" x2="837.2499999999999" y2="502.79999999999995" stroke="#000"/>
<text x="837.2499999999999" y="512.4" fill="#111" font-size="small" font-family="monospace" font-weight="bold" text-anchor="end" transform="rotate(-60, 837.2499999999999, 512.4)">
str_concat
</text>
<rect x="872.4999999999999" y="458.1551681270121" width="23.499999999999996" height="39.84483187298789" fill="#7070f8" data-tooltip="1.00x baseline speed (No JIT)"/>
<line x1="872.4999999999999" y1="458.08098829161327" x2="895.9999999999999" y2="458.08098829161327" stroke="#000"/>
<line x1="872.4999999999999" y1="458.2293479624108" x2="895.9999999999999" y2="458.2293479624108" stroke="#000"/>
<line x1="884.25" y1="458.08098829161327" x2="884.25" y2="458.2293479624108" stroke="#000"/>
<rect x="895.9999999999999" y="442.5186000648597" width="23.499999999999996" height="55.481399935140196" fill="orange" data-tooltip="1.39x baseline speed (YJIT)"/>
<line x1="895.9999999999999" y1="441.4886576204987" x2="919.4999999999999" y2="441.4886576204987" stroke="#000"/>
<line x1="895.9999999999999" y1="443.5485425092206" x2="919.4999999999999" y2="443.5485425092206" stroke="#000"/>
<line x1="907.75" y1="441.4886576204987" x2="907.75" y2="443.5485425092206" stroke="#000"/>
<line x1="907.75" y1="498.0" x2="907.75" y2="502.79999999999995" stroke="#000"/>
<text x="907.75" y="512.4" fill="#111" font-size="small" font-family="monospace" font-weight="bold" text-anchor="end" transform="rotate(-60, 907.75, 512.4)">
throw
</text>
</svg>