<svg viewBox="0 0 1000 600" xmlns="http://www.w3.org/2000/svg" xmlns:xlink="http://www.w3.org/1999/xlink" width="100%" height="100%">

<rect x="50.0" y="30.0" width="940.0" height="467.99999999999994" stroke="#000" fill="#EEE"/>
<line x1="42.0" y1="497.9999999999999" x2="50.0" y2="497.9999999999999" stroke="#000"/>
<text x="26.000000000000004" y="497.9999999999999" text-anchor="end" font-weight="bold" font-size="small" fill="#111">
0.0
</text>
<line x1="42.0" y1="400.1272524538561" x2="50.0" y2="400.1272524538561" stroke="#000"/>
<text x="26.000000000000004" y="400.1272524538561" text-anchor="end" font-weight="bold" font-size="small" fill="#111">
0.5
</text>
<line x1="42.0" y1="302.25450490771226" x2="50.0" y2="302.25450490771226" stroke="#000"/>
<text x="26.000000000000004" y="302.25450490771226" text-anchor="end" font-weight="bold" font-size="small" fill="#111">
1.0
</text>
<line x1="42.0" y1="204.38175736156848" x2="50.0" y2="204.38175736156848" stroke="#000"/>
<text x="26.000000000000004" y="204.38175736156848" text-anchor="end" font-weight="bold" font-size="small" fill="#111">
1.5
</text>
<line x1="42.0" y1="106.50900981542466" x2="50.0" y2="106.50900981542466" stroke="#000"/>
<text x="26.000000000000004" y="106.50900981542466" text-anchor="end" font-weight="bold" font-size="small" fill="#111">
2.0
</text>
<rect x="197.99999999999997" y="36.00000000000001" width="80.0" height="18.0" fill="#7070f8" stroke="#888"/>
<text x="238.0" y="52.50000000000001" font-size="small" text-anchor="middle" font-weight="bold" fill="#111">
No JIT
</text>
<rect x="479.99999999999994" y="36.00000000000001" width="80.0" height="18.0" fill="orange" stroke="#888"/>
<text x="519.9999999999999" y="52.50000000000001" font-size="small" text-anchor="middle" font-weight="bold" fill="#111">
MJIT3.0
</text>
<rect x="761.9999999999999" y="36.00000000000001" width="80.0" height="18.0" fill="green" stroke="#888"/>
<text x="801.9999999999999" y="52.50000000000001" font-size="small" text-anchor="middle" font-weight="bold" fill="#111">
YJIT
</text>
<rect x="97.0" y="302.25450490771226" width="42.3" height="195.74549509228765" fill="#7070f8" data-tooltip="1.00x No-JIT time (No JIT)"/>
<line x1="97.0" y1="301.3462117042309" x2="139.3" y2="301.3462117042309" stroke="#000"/>
<line x1="97.0" y1="303.16279811119364" x2="139.3" y2="303.16279811119364" stroke="#000"/>
<line x1="118.15" y1="301.3462117042309" x2="118.15" y2="303.16279811119364" stroke="#000"/>
<rect x="139.3" y="211.2113121657069" width="42.3" height="286.78868783429306" fill="orange" data-tooltip="1.47x No-JIT time (MJIT3.0)"/>
<line x1="139.3" y1="209.72926531986033" x2="181.60000000000002" y2="209.72926531986033" stroke="#000"/>
<line x1="139.3" y1="212.69335901155344" x2="181.60000000000002" y2="212.69335901155344" stroke="#000"/>
<line x1="160.45000000000002" y1="209.72926531986033" x2="160.45000000000002" y2="212.69335901155344" stroke="#000"/>
<rect x="181.6" y="244.18516132350052" width="42.3" height="253.81483867649942" fill="green" data-tooltip="1.30x No-JIT time (YJIT)"/>
<line x1="181.6" y1="242.23657590889565" x2="223.89999999999998" y2="242.23657590889565" stroke="#000"/>
<line x1="181.6" y1="246.13374673810537" x2="223.89999999999998" y2="246.13374673810537" stroke="#000"/>
<line x1="202.75" y1="242.23657590889565" x2="202.75" y2="246.13374673810537" stroke="#000"/>
<line x1="181.6" y1="498.0" x2="181.6" y2="502.79999999999995" stroke="#000"/>
<text x="181.6" y="512.4" fill="#111" font-size="small" font-family="monospace" font-weight="bold" text-anchor="end" transform="rotate(-60, 181.6, 512.4)">
binarytrees
</text>
<rect x="266.2" y="302.25450490771226" width="42.3" height="195.74549509228765" fill="#7070f8" data-tooltip="1.00x No-JIT time (No JIT)"/>
<line x1="266.2" y1="302.1351514144996" x2="308.5" y2="302.1351514144996" stroke="#000"/>
<line x1="266.2" y1="302.373858400925" x2="308.5" y2="302.373858400925" stroke="#000"/>
<line x1="287.35" y1="302.1351514144996" x2="287.35" y2="302.373858400925" stroke="#000"/>
<rect x="308.5" y="231.32889040575915" width="42.3" height="266.67110959424076" fill="orange" data-tooltip="1.36x No-JIT time (MJIT3.0)"/>
<line x1="308.5" y1="231.1068104826077" x2="350.8" y2="231.1068104826077" stroke="#000"/>
<line x1="308.5" y1="231.5509703289106" x2="350.8" y2="231.5509703289106" stroke="#000"/>
<line x1="329.65" y1="231.1068104826077" x2="329.65" y2="231.5509703289106" stroke="#000"/>
<rect x="350.8" y="302.28705614211714" width="42.3" height="195.71294385788286" fill="green" data-tooltip="1.00x No-JIT time (YJIT)"/>
<line x1="350.8" y1="302.10924677837284" x2="393.1" y2="302.10924677837284" stroke="#000"/>
<line x1="350.8" y1="302.4648655058615" x2="393.1" y2="302.4648655058615" stroke="#000"/>
<line x1="371.95" y1="302.10924677837284" x2="371.95" y2="302.4648655058615" stroke="#000"/>
<line x1="350.8" y1="498.0" x2="350.8" y2="502.79999999999995" stroke="#000"/>
<text x="350.8" y="512.4" fill="#111" font-size="small" font-family="monospace" font-weight="bold" text-anchor="end" transform="rotate(-60, 350.8, 512.4)">
fannkuchredux
</text>
<rect x="435.40000000000003" y="302.25450490771226" width="42.3" height="195.74549509228765" fill="#7070f8" data-tooltip="1.00x No-JIT time (No JIT)"/>
<line x1="435.40000000000003" y1="300.0164644449662" x2="477.7" y2="300.0164644449662" stroke="#000"/>
<line x1="435.40000000000003" y1="304.4925453704584" x2="477.7" y2="304.4925453704584" stroke="#000"/>
<line x1="456.55" y1="300.0164644449662" x2="456.55" y2="304.4925453704584" stroke="#000"/>
<rect x="477.7" y="248.49944191003277" width="42.3" height="249.5005580899672" fill="orange" data-tooltip="1.27x No-JIT time (MJIT3.0)"/>
<line x1="477.7" y1="244.19035113229702" x2="520.0" y2="244.19035113229702" stroke="#000"/>
<line x1="477.7" y1="252.80853268776852" x2="520.0" y2="252.80853268776852" stroke="#000"/>
<line x1="498.85" y1="244.19035113229702" x2="498.85" y2="252.80853268776852" stroke="#000"/>
<rect x="520.0" y="227.80763294168716" width="42.3" height="270.19236705831275" fill="green" data-tooltip="1.38x No-JIT time (YJIT)"/>
<line x1="520.0" y1="222.39471767960987" x2="562.3000000000001" y2="222.39471767960987" stroke="#000"/>
<line x1="520.0" y1="233.22054820376448" x2="562.3000000000001" y2="233.22054820376448" stroke="#000"/>
<line x1="541.15" y1="222.39471767960987" x2="541.15" y2="233.22054820376448" stroke="#000"/>
<line x1="520.0" y1="498.0" x2="520.0" y2="502.79999999999995" stroke="#000"/>
<text x="520.0" y="512.4" fill="#111" font-size="small" font-family="monospace" font-weight="bold" text-anchor="end" transform="rotate(-60, 520.0, 512.4)">
lee
</text>
<rect x="604.5999999999999" y="302.25450490771226" width="42.3" height="195.74549509228765" fill="#7070f8" data-tooltip="1.00x No-JIT time (No JIT)"/>
<line x1="604.5999999999999" y1="301.92330511990974" x2="646.8999999999999" y2="301.92330511990974" stroke="#000"/>
<line x1="604.5999999999999" y1="302.58570469551483" x2="646.8999999999999" y2="302.58570469551483" stroke="#000"/>
<line x1="625.7499999999999" y1="301.92330511990974" x2="625.7499999999999" y2="302.58570469551483" stroke="#000"/>
<rect x="646.8999999999999" y="165.9391193262266" width="42.3" height="332.0608806737734" fill="orange" data-tooltip="1.70x No-JIT time (MJIT3.0)"/>
<line x1="646.8999999999999" y1="164.9049311033805" x2="689.1999999999999" y2="164.9049311033805" stroke="#000"/>
<line x1="646.8999999999999" y1="166.9733075490727" x2="689.1999999999999" y2="166.9733075490727" stroke="#000"/>
<line x1="668.05" y1="164.9049311033805" x2="668.05" y2="166.9733075490727" stroke="#000"/>
<rect x="689.1999999999999" y="296.1102405508016" width="42.3" height="201.88975944919832" fill="green" data-tooltip="1.03x No-JIT time (YJIT)"/>
<line x1="689.1999999999999" y1="295.5168123020521" x2="731.4999999999999" y2="295.5168123020521" stroke="#000"/>
<line x1="689.1999999999999" y1="296.70366879955117" x2="731.4999999999999" y2="296.70366879955117" stroke="#000"/>
<line x1="710.3499999999999" y1="295.5168123020521" x2="710.3499999999999" y2="296.70366879955117" stroke="#000"/>
<line x1="689.1999999999999" y1="498.0" x2="689.1999999999999" y2="502.79999999999995" stroke="#000"/>
<text x="689.1999999999999" y="512.4" fill="#111" font-size="small" font-family="monospace" font-weight="bold" text-anchor="end" transform="rotate(-60, 689.1999999999999, 512.4)">
nbody
</text>
<rect x="773.8" y="302.25450490771226" width="42.3" height="195.74549509228765" fill="#7070f8" data-tooltip="1.00x No-JIT time (No JIT)"/>
<line x1="773.8" y1="301.50734516191346" x2="816.0999999999999" y2="301.50734516191346" stroke="#000"/>
<line x1="773.8" y1="303.0016646535111" x2="816.0999999999999" y2="303.0016646535111" stroke="#000"/>
<line x1="794.9499999999999" y1="301.50734516191346" x2="794.9499999999999" y2="303.0016646535111" stroke="#000"/>
<rect x="816.0999999999999" y="100.19999999999999" width="42.3" height="397.79999999999995" fill="orange" data-tooltip="2.03x No-JIT time (MJIT3.0)"/>
<line x1="816.0999999999999" y1="98.39804650725871" x2="858.4" y2="98.39804650725871" stroke="#000"/>
<line x1="816.0999999999999" y1="102.00195349274126" x2="858.4" y2="102.00195349274126" stroke="#000"/>
<line x1="837.2499999999999" y1="98.39804650725871" x2="837.2499999999999" y2="102.00195349274126" stroke="#000"/>
<rect x="858.4" y="152.75978637118624" width="42.3" height="345.2402136288137" fill="green" data-tooltip="1.76x No-JIT time (YJIT)"/>
<line x1="858.4" y1="151.19355070338506" x2="900.6999999999999" y2="151.19355070338506" stroke="#000"/>
<line x1="858.4" y1="154.3260220389874" x2="900.6999999999999" y2="154.3260220389874" stroke="#000"/>
<line x1="879.55" y1="151.19355070338506" x2="879.55" y2="154.3260220389874" stroke="#000"/>
<line x1="858.4" y1="498.0" x2="858.4" y2="502.79999999999995" stroke="#000"/>
<text x="858.4" y="512.4" fill="#111" font-size="small" font-family="monospace" font-weight="bold" text-anchor="end" transform="rotate(-60, 858.4, 512.4)">
optcarrot
</text>
</svg>