<svg viewBox="0 0 1000 600" xmlns="http://www.w3.org/2000/svg" xmlns:xlink="http://www.w3.org/1999/xlink" width="100%" height="100%">

<rect x="50.0" y="30.0" width="940.0" height="467.99999999999994" stroke="#000" fill="#EEE"/>
<line x1="42.0" y1="497.9999999999999" x2="50.0" y2="497.9999999999999" stroke="#000"/>
<text x="26.000000000000004" y="497.9999999999999" text-anchor="end" font-weight="bold" font-size="small" fill="#111">
0.0
</text>
<line x1="42.0" y1="455.5635308539992" x2="50.0" y2="455.5635308539992" stroke="#000"/>
<text x="26.000000000000004" y="455.5635308539992" text-anchor="end" font-weight="bold" font-size="small" fill="#111">
0.2
</text>
<line x1="42.0" y1="413.12706170799845" x2="50.0" y2="413.12706170799845" stroke="#000"/>
<text x="26.000000000000004" y="413.12706170799845" text-anchor="end" font-weight="bold" font-size="small" fill="#111">
0.4
</text>
<line x1="42.0" y1="370.69059256199773" x2="50.0" y2="370.69059256199773" stroke="#000"/>
<text x="26.000000000000004" y="370.69059256199773" text-anchor="end" font-weight="bold" font-size="small" fill="#111">
0.6
</text>
<line x1="42.0" y1="328.254123415997" x2="50.0" y2="328.254123415997" stroke="#000"/>
<text x="26.000000000000004" y="328.254123415997" text-anchor="end" font-weight="bold" font-size="small" fill="#111">
0.8
</text>
<line x1="42.0" y1="285.81765426999624" x2="50.0" y2="285.81765426999624" stroke="#000"/>
<text x="26.000000000000004" y="285.81765426999624" text-anchor="end" font-weight="bold" font-size="small" fill="#111">
1.0
</text>
<line x1="42.0" y1="243.38118512399555" x2="50.0" y2="243.38118512399555" stroke="#000"/>
<text x="26.000000000000004" y="243.38118512399555" text-anchor="end" font-weight="bold" font-size="small" fill="#111">
1.2
</text>
<line x1="42.0" y1="200.94471597799478" x2="50.0" y2="200.94471597799478" stroke="#000"/>
<text x="26.000000000000004" y="200.94471597799478" text-anchor="end" font-weight="bold" font-size="small" fill="#111">
1.4
</text>
<line x1="42.0" y1="158.5082468319941" x2="50.0" y2="158.5082468319941" stroke="#000"/>
<text x="26.000000000000004" y="158.5082468319941" text-anchor="end" font-weight="bold" font-size="small" fill="#111">
1.6
</text>
<line x1="42.0" y1="116.07177768599334" x2="50.0" y2="116.07177768599334" stroke="#000"/>
<text x="26.000000000000004" y="116.07177768599334" text-anchor="end" font-weight="bold" font-size="small" fill="#111">
1.8
</text>
<rect x="268.5" y="36.00000000000001" width="80.0" height="18.0" fill="#7070f8" stroke="#888"/>
<text x="308.5" y="52.50000000000001" font-size="small" text-anchor="middle" font-weight="bold" fill="#EEE">
No JIT
</text>
<rect x="691.4999999999999" y="36.00000000000001" width="80.0" height="18.0" fill="orange" stroke="#888"/>
<text x="731.4999999999999" y="52.50000000000001" font-size="small" text-anchor="middle" font-weight="bold" fill="#EEE">
YJIT
</text>
<rect x="97.0" y="285.81765426999624" width="25.636363636363637" height="212.18234573000368" fill="#7070f8" data-tooltip="1.00x baseline speed (No JIT)"/>
<line x1="97.0" y1="281.6309958043502" x2="122.63636363636364" y2="281.6309958043502" stroke="#000"/>
<line x1="97.0" y1="290.0043127356423" x2="122.63636363636364" y2="290.0043127356423" stroke="#000"/>
<line x1="109.81818181818181" y1="281.6309958043502" x2="109.81818181818181" y2="290.0043127356423" stroke="#000"/>
<rect x="122.63636363636364" y="100.19999999999999" width="25.636363636363637" height="397.79999999999995" fill="orange" data-tooltip="1.87x baseline speed (YJIT)"/>
<line x1="122.63636363636364" y1="82.05679812727278" x2="148.27272727272728" y2="82.05679812727278" stroke="#000"/>
<line x1="122.63636363636364" y1="118.34320187272719" x2="148.27272727272728" y2="118.34320187272719" stroke="#000"/>
<line x1="135.45454545454547" y1="82.05679812727278" x2="135.45454545454547" y2="118.34320187272719" stroke="#000"/>
<line x1="135.45454545454547" y1="498.0" x2="135.45454545454547" y2="502.79999999999995" stroke="#000"/>
<text x="135.45454545454547" y="512.4" fill="#111" font-size="small" font-family="monospace" font-weight="bold" text-anchor="end" transform="rotate(-60, 135.45454545454547, 512.4)">
activerecord
</text>
<rect x="173.9090909090909" y="285.81765426999624" width="25.636363636363637" height="212.18234573000368" fill="#7070f8" data-tooltip="1.00x baseline speed (No JIT)"/>
<line x1="173.9090909090909" y1="259.81952092112726" x2="199.54545454545453" y2="259.81952092112726" stroke="#000"/>
<line x1="173.9090909090909" y1="311.8157876188652" x2="199.54545454545453" y2="311.8157876188652" stroke="#000"/>
<line x1="186.72727272727272" y1="259.81952092112726" x2="186.72727272727272" y2="311.8157876188652" stroke="#000"/>
<rect x="199.54545454545453" y="141.7198239450352" width="25.636363636363637" height="356.2801760549647" fill="orange" data-tooltip="1.68x baseline speed (YJIT)"/>
<line x1="199.54545454545453" y1="54.34918821556987" x2="225.18181818181816" y2="54.34918821556987" stroke="#000"/>
<line x1="199.54545454545453" y1="229.09045967450052" x2="225.18181818181816" y2="229.09045967450052" stroke="#000"/>
<line x1="212.36363636363635" y1="54.34918821556987" x2="212.36363636363635" y2="229.09045967450052" stroke="#000"/>
<line x1="212.36363636363637" y1="498.0" x2="212.36363636363637" y2="502.79999999999995" stroke="#000"/>
<text x="212.36363636363637" y="512.4" fill="#111" font-size="small" font-family="monospace" font-weight="bold" text-anchor="end" transform="rotate(-60, 212.36363636363637, 512.4)">
erubi_rails
</text>
<rect x="250.81818181818184" y="285.81765426999624" width="25.636363636363637" height="212.18234573000368" fill="#7070f8" data-tooltip="1.00x baseline speed (No JIT)"/>
<line x1="250.81818181818184" y1="284.35486914253636" x2="276.45454545454544" y2="284.35486914253636" stroke="#000"/>
<line x1="250.81818181818184" y1="287.2804393974562" x2="276.45454545454544" y2="287.2804393974562" stroke="#000"/>
<line x1="263.6363636363637" y1="284.35486914253636" x2="263.6363636363637" y2="287.2804393974562" stroke="#000"/>
<rect x="276.45454545454544" y="168.99245754336312" width="25.636363636363637" height="329.0075424566369" fill="orange" data-tooltip="1.55x baseline speed (YJIT)"/>
<line x1="276.45454545454544" y1="162.54864420615422" x2="302.09090909090907" y2="162.54864420615422" stroke="#000"/>
<line x1="276.45454545454544" y1="175.436270880572" x2="302.09090909090907" y2="175.436270880572" stroke="#000"/>
<line x1="289.2727272727273" y1="162.54864420615422" x2="289.2727272727273" y2="175.436270880572" stroke="#000"/>
<line x1="289.2727272727273" y1="498.0" x2="289.2727272727273" y2="502.79999999999995" stroke="#000"/>
<text x="289.2727272727273" y="512.4" fill="#111" font-size="small" font-family="monospace" font-weight="bold" text-anchor="end" transform="rotate(-60, 289.2727272727273, 512.4)">
hexapdf
</text>
<rect x="327.72727272727275" y="285.81765426999624" width="25.636363636363637" height="212.18234573000368" fill="#7070f8" data-tooltip="1.00x baseline speed (No JIT)"/>
<line x1="327.72727272727275" y1="282.6355437841101" x2="353.3636363636364" y2="282.6355437841101" stroke="#000"/>
<line x1="327.72727272727275" y1="288.99976475588244" x2="353.3636363636364" y2="288.99976475588244" stroke="#000"/>
<line x1="340.5454545454546" y1="282.6355437841101" x2="340.5454545454546" y2="288.99976475588244" stroke="#000"/>
<rect x="353.3636363636364" y="208.36396061556363" width="25.636363636363637" height="289.63603938443634" fill="orange" data-tooltip="1.37x baseline speed (YJIT)"/>
<line x1="353.3636363636364" y1="201.61798015625368" x2="379.0" y2="201.61798015625368" stroke="#000"/>
<line x1="353.3636363636364" y1="215.10994107487355" x2="379.0" y2="215.10994107487355" stroke="#000"/>
<line x1="366.18181818181824" y1="201.61798015625368" x2="366.18181818181824" y2="215.10994107487355" stroke="#000"/>
<line x1="366.18181818181824" y1="498.0" x2="366.18181818181824" y2="502.79999999999995" stroke="#000"/>
<text x="366.18181818181824" y="512.4" fill="#111" font-size="small" font-family="monospace" font-weight="bold" text-anchor="end" transform="rotate(-60, 366.18181818181824, 512.4)">
liquid-c
</text>
<rect x="404.6363636363637" y="285.81765426999624" width="25.636363636363637" height="212.18234573000368" fill="#7070f8" data-tooltip="1.00x baseline speed (No JIT)"/>
<line x1="404.6363636363637" y1="279.6844207931005" x2="430.2727272727273" y2="279.6844207931005" stroke="#000"/>
<line x1="404.6363636363637" y1="291.950887746892" x2="430.2727272727273" y2="291.950887746892" stroke="#000"/>
<line x1="417.4545454545455" y1="279.6844207931005" x2="417.4545454545455" y2="291.950887746892" stroke="#000"/>
<rect x="430.2727272727273" y="209.80133040711982" width="25.636363636363637" height="288.19866959288015" fill="orange" data-tooltip="1.36x baseline speed (YJIT)"/>
<line x1="430.2727272727273" y1="193.7733230366985" x2="455.90909090909093" y2="193.7733230366985" stroke="#000"/>
<line x1="430.2727272727273" y1="225.8293377775411" x2="455.90909090909093" y2="225.8293377775411" stroke="#000"/>
<line x1="443.0909090909091" y1="193.7733230366985" x2="443.0909090909091" y2="225.8293377775411" stroke="#000"/>
<line x1="443.0909090909091" y1="498.0" x2="443.0909090909091" y2="502.79999999999995" stroke="#000"/>
<text x="443.0909090909091" y="512.4" fill="#111" font-size="small" font-family="monospace" font-weight="bold" text-anchor="end" transform="rotate(-60, 443.0909090909091, 512.4)">
liquid-compile
</text>
<rect x="481.5454545454546" y="285.81765426999624" width="25.636363636363637" height="212.18234573000368" fill="#7070f8" data-tooltip="1.00x baseline speed (No JIT)"/>
<line x1="481.5454545454546" y1="283.31962602586043" x2="507.1818181818183" y2="283.31962602586043" stroke="#000"/>
<line x1="481.5454545454546" y1="288.31568251413205" x2="507.1818181818183" y2="288.31568251413205" stroke="#000"/>
<line x1="494.36363636363643" y1="283.31962602586043" x2="494.36363636363643" y2="288.31568251413205" stroke="#000"/>
<rect x="507.1818181818183" y="106.4921223662147" width="25.636363636363637" height="391.50787763378526" fill="orange" data-tooltip="1.85x baseline speed (YJIT)"/>
<line x1="507.1818181818183" y1="95.90182778963714" x2="532.818181818182" y2="95.90182778963714" stroke="#000"/>
<line x1="507.1818181818183" y1="117.08241694279226" x2="532.818181818182" y2="117.08241694279226" stroke="#000"/>
<line x1="520.0000000000001" y1="95.90182778963714" x2="520.0000000000001" y2="117.08241694279226" stroke="#000"/>
<line x1="520.0" y1="498.0" x2="520.0" y2="502.79999999999995" stroke="#000"/>
<text x="520.0" y="512.4" fill="#111" font-size="small" font-family="monospace" font-weight="bold" text-anchor="end" transform="rotate(-60, 520.0, 512.4)">
liquid-render
</text>
<rect x="558.4545454545454" y="285.81765426999624" width="25.636363636363637" height="212.18234573000368" fill="#7070f8" data-tooltip="1.00x baseline speed (No JIT)"/>
<line x1="558.4545454545454" y1="285.36004561295914" x2="584.0909090909091" y2="285.36004561295914" stroke="#000"/>
<line x1="558.4545454545454" y1="286.2752629270334" x2="584.0909090909091" y2="286.2752629270334" stroke="#000"/>
<line x1="571.2727272727273" y1="285.36004561295914" x2="571.2727272727273" y2="286.2752629270334" stroke="#000"/>
<rect x="584.0909090909091" y="214.91005166740257" width="25.636363636363637" height="283.0899483325974" fill="orange" data-tooltip="1.33x baseline speed (YJIT)"/>
<line x1="584.0909090909091" y1="214.13261039969578" x2="609.7272727272727" y2="214.13261039969578" stroke="#000"/>
<line x1="584.0909090909091" y1="215.68749293510936" x2="609.7272727272727" y2="215.68749293510936" stroke="#000"/>
<line x1="596.909090909091" y1="214.13261039969578" x2="596.909090909091" y2="215.68749293510936" stroke="#000"/>
<line x1="596.9090909090909" y1="498.0" x2="596.9090909090909" y2="502.79999999999995" stroke="#000"/>
<text x="596.9090909090909" y="512.4" fill="#111" font-size="small" font-family="monospace" font-weight="bold" text-anchor="end" transform="rotate(-60, 596.9090909090909, 512.4)">
mail
</text>
<rect x="635.3636363636364" y="285.81765426999624" width="25.636363636363637" height="212.18234573000368" fill="#7070f8" data-tooltip="1.00x baseline speed (No JIT)"/>
<line x1="635.3636363636364" y1="285.66672701996663" x2="661.0" y2="285.66672701996663" stroke="#000"/>
<line x1="635.3636363636364" y1="285.9685815200259" x2="661.0" y2="285.9685815200259" stroke="#000"/>
<line x1="648.1818181818182" y1="285.66672701996663" x2="648.1818181818182" y2="285.9685815200259" stroke="#000"/>
<rect x="661.0" y="200.48203076595007" width="25.636363636363637" height="297.5179692340499" fill="orange" data-tooltip="1.40x baseline speed (YJIT)"/>
<line x1="661.0" y1="200.05887766300313" x2="686.6363636363637" y2="200.05887766300313" stroke="#000"/>
<line x1="661.0" y1="200.90518386889698" x2="686.6363636363637" y2="200.90518386889698" stroke="#000"/>
<line x1="673.8181818181819" y1="200.05887766300313" x2="673.8181818181819" y2="200.90518386889698" stroke="#000"/>
<line x1="673.8181818181818" y1="498.0" x2="673.8181818181818" y2="502.79999999999995" stroke="#000"/>
<text x="673.8181818181818" y="512.4" fill="#111" font-size="small" font-family="monospace" font-weight="bold" text-anchor="end" transform="rotate(-60, 673.8181818181818, 512.4)">
psych-load
</text>
<rect x="712.2727272727273" y="285.81765426999624" width="25.636363636363637" height="212.18234573000368" fill="#7070f8" data-tooltip="1.00x baseline speed (No JIT)"/>
<line x1="712.2727272727273" y1="284.3256875561429" x2="737.909090909091" y2="284.3256875561429" stroke="#000"/>
<line x1="712.2727272727273" y1="287.3096209838496" x2="737.909090909091" y2="287.3096209838496" stroke="#000"/>
<line x1="725.0909090909091" y1="284.3256875561429" x2="725.0909090909091" y2="287.3096209838496" stroke="#000"/>
<rect x="737.909090909091" y="175.92772874843453" width="25.636363636363637" height="322.07227125156544" fill="orange" data-tooltip="1.52x baseline speed (YJIT)"/>
<line x1="737.909090909091" y1="171.31816512034362" x2="763.5454545454546" y2="171.31816512034362" stroke="#000"/>
<line x1="737.909090909091" y1="180.53729237652541" x2="763.5454545454546" y2="180.53729237652541" stroke="#000"/>
<line x1="750.7272727272727" y1="171.31816512034362" x2="750.7272727272727" y2="180.53729237652541" stroke="#000"/>
<line x1="750.7272727272726" y1="498.0" x2="750.7272727272726" y2="502.79999999999995" stroke="#000"/>
<text x="750.7272727272726" y="512.4" fill="#111" font-size="small" font-family="monospace" font-weight="bold" text-anchor="end" transform="rotate(-60, 750.7272727272726, 512.4)">
railsbench
</text>
<rect x="789.1818181818182" y="285.81765426999624" width="25.636363636363637" height="212.18234573000368" fill="#7070f8" data-tooltip="1.00x baseline speed (No JIT)"/>
<line x1="789.1818181818182" y1="269.293384162097" x2="814.8181818181819" y2="269.293384162097" stroke="#000"/>
<line x1="789.1818181818182" y1="302.3419243778955" x2="814.8181818181819" y2="302.3419243778955" stroke="#000"/>
<line x1="802.0" y1="269.293384162097" x2="802.0" y2="302.3419243778955" stroke="#000"/>
<rect x="814.8181818181819" y="258.083762393781" width="25.636363636363637" height="239.91623760621894" fill="orange" data-tooltip="1.13x baseline speed (YJIT)"/>
<line x1="814.8181818181819" y1="183.58507626524172" x2="840.4545454545456" y2="183.58507626524172" stroke="#000"/>
<line x1="814.8181818181819" y1="332.5824485223203" x2="840.4545454545456" y2="332.5824485223203" stroke="#000"/>
<line x1="827.6363636363637" y1="183.58507626524172" x2="827.6363636363637" y2="332.5824485223203" stroke="#000"/>
<line x1="827.6363636363636" y1="498.0" x2="827.6363636363636" y2="502.79999999999995" stroke="#000"/>
<text x="827.6363636363636" y="512.4" fill="#111" font-size="small" font-family="monospace" font-weight="bold" text-anchor="end" transform="rotate(-60, 827.6363636363636, 512.4)">
ruby-lsp
</text>
<rect x="866.0909090909091" y="285.81765426999624" width="25.636363636363637" height="212.18234573000368" fill="#7070f8" data-tooltip="1.00x baseline speed (No JIT)"/>
<line x1="866.0909090909091" y1="281.12691918612984" x2="891.7272727272729" y2="281.12691918612984" stroke="#000"/>
<line x1="866.0909090909091" y1="290.5083893538627" x2="891.7272727272729" y2="290.5083893538627" stroke="#000"/>
<line x1="878.909090909091" y1="281.12691918612984" x2="878.909090909091" y2="290.5083893538627" stroke="#000"/>
<rect x="891.7272727272729" y="223.459003759184" width="25.636363636363637" height="274.54099624081596" fill="orange" data-tooltip="1.29x baseline speed (YJIT)"/>
<line x1="891.7272727272729" y1="216.04729403552344" x2="917.3636363636365" y2="216.04729403552344" stroke="#000"/>
<line x1="891.7272727272729" y1="230.87071348284456" x2="917.3636363636365" y2="230.87071348284456" stroke="#000"/>
<line x1="904.5454545454546" y1="216.04729403552344" x2="904.5454545454546" y2="230.87071348284456" stroke="#000"/>
<line x1="904.5454545454545" y1="498.0" x2="904.5454545454545" y2="502.79999999999995" stroke="#000"/>
<text x="904.5454545454545" y="512.4" fill="#111" font-size="small" font-family="monospace" font-weight="bold" text-anchor="end" transform="rotate(-60, 904.5454545454545, 512.4)">
sequel
</text>
</svg>