<svg viewBox="0 0 1000 600" xmlns="http://www.w3.org/2000/svg" xmlns:xlink="http://www.w3.org/1999/xlink" width="100%" height="100%">

<rect x="50.0" y="30.0" width="940.0" height="467.99999999999994" stroke="#000" fill="#EEE"/>
<line x1="42.0" y1="497.9999999999999" x2="50.0" y2="497.9999999999999" stroke="#000"/>
<text x="26.000000000000004" y="497.9999999999999" text-anchor="end" font-weight="bold" font-size="small" fill="#111">
0.0
</text>
<line x1="42.0" y1="417.05268585931907" x2="50.0" y2="417.05268585931907" stroke="#000"/>
<text x="26.000000000000004" y="417.05268585931907" text-anchor="end" font-weight="bold" font-size="small" fill="#111">
0.5
</text>
<line x1="42.0" y1="336.1053717186382" x2="50.0" y2="336.1053717186382" stroke="#000"/>
<text x="26.000000000000004" y="336.1053717186382" text-anchor="end" font-weight="bold" font-size="small" fill="#111">
1.0
</text>
<line x1="42.0" y1="255.15805757795732" x2="50.0" y2="255.15805757795732" stroke="#000"/>
<text x="26.000000000000004" y="255.15805757795732" text-anchor="end" font-weight="bold" font-size="small" fill="#111">
1.5
</text>
<line x1="42.0" y1="174.21074343727648" x2="50.0" y2="174.21074343727648" stroke="#000"/>
<text x="26.000000000000004" y="174.21074343727648" text-anchor="end" font-weight="bold" font-size="small" fill="#111">
2.0
</text>
<rect x="268.5" y="36.00000000000001" width="80.0" height="18.0" fill="#7070f8" stroke="#888"/>
<text x="308.5" y="52.50000000000001" font-size="small" text-anchor="middle" font-weight="bold" fill="#EEE">
No JIT
</text>
<rect x="691.4999999999999" y="36.00000000000001" width="80.0" height="18.0" fill="orange" stroke="#888"/>
<text x="731.4999999999999" y="52.50000000000001" font-size="small" text-anchor="middle" font-weight="bold" fill="#EEE">
YJIT
</text>
<rect x="97.0" y="336.1053717186382" width="28.2" height="161.89462828136172" fill="#7070f8" data-tooltip="1.00x baseline speed (No JIT)"/>
<line x1="97.0" y1="335.7600490158508" x2="125.2" y2="335.7600490158508" stroke="#000"/>
<line x1="97.0" y1="336.45069442142557" x2="125.2" y2="336.45069442142557" stroke="#000"/>
<line x1="111.10000000000001" y1="335.7600490158508" x2="111.10000000000001" y2="336.45069442142557" stroke="#000"/>
<rect x="125.2" y="172.6320633556315" width="28.2" height="325.36793664436846" fill="orange" data-tooltip="2.01x baseline speed (YJIT)"/>
<line x1="125.2" y1="171.9172883512253" x2="153.4" y2="171.9172883512253" stroke="#000"/>
<line x1="125.2" y1="173.34683836003768" x2="153.4" y2="173.34683836003768" stroke="#000"/>
<line x1="139.3" y1="171.9172883512253" x2="139.3" y2="173.34683836003768" stroke="#000"/>
<line x1="139.3" y1="498.0" x2="139.3" y2="502.79999999999995" stroke="#000"/>
<text x="139.3" y="512.4" fill="#111" font-size="small" font-family="monospace" font-weight="bold" text-anchor="end" transform="rotate(-60, 139.3, 512.4)">
binarytrees
</text>
<rect x="181.6" y="336.1053717186382" width="28.2" height="161.89462828136172" fill="#7070f8" data-tooltip="1.00x baseline speed (No JIT)"/>
<line x1="181.6" y1="336.0267236104767" x2="209.79999999999998" y2="336.0267236104767" stroke="#000"/>
<line x1="181.6" y1="336.1840198267996" x2="209.79999999999998" y2="336.1840198267996" stroke="#000"/>
<line x1="195.7" y1="336.0267236104767" x2="195.7" y2="336.1840198267996" stroke="#000"/>
<rect x="209.79999999999998" y="244.16212785456284" width="28.2" height="253.8378721454371" fill="orange" data-tooltip="1.57x baseline speed (YJIT)"/>
<line x1="209.79999999999998" y1="243.98428855183283" x2="238.0" y2="243.98428855183283" stroke="#000"/>
<line x1="209.79999999999998" y1="244.33996715729285" x2="238.0" y2="244.33996715729285" stroke="#000"/>
<line x1="223.89999999999998" y1="243.98428855183283" x2="223.89999999999998" y2="244.33996715729285" stroke="#000"/>
<line x1="223.89999999999998" y1="498.0" x2="223.89999999999998" y2="502.79999999999995" stroke="#000"/>
<text x="223.89999999999998" y="512.4" fill="#111" font-size="small" font-family="monospace" font-weight="bold" text-anchor="end" transform="rotate(-60, 223.89999999999998, 512.4)">
chunky_png
</text>
<rect x="266.2" y="336.1053717186382" width="28.2" height="161.89462828136172" fill="#7070f8" data-tooltip="1.00x baseline speed (No JIT)"/>
<line x1="266.2" y1="329.2606576104593" x2="294.4" y2="329.2606576104593" stroke="#000"/>
<line x1="266.2" y1="342.95008582681703" x2="294.4" y2="342.95008582681703" stroke="#000"/>
<line x1="280.3" y1="329.2606576104593" x2="280.3" y2="342.95008582681703" stroke="#000"/>
<rect x="294.4" y="297.29576974043925" width="28.2" height="200.7042302595607" fill="orange" data-tooltip="1.24x baseline speed (YJIT)"/>
<line x1="294.4" y1="288.585644645064" x2="322.6" y2="288.585644645064" stroke="#000"/>
<line x1="294.4" y1="306.0058948358145" x2="322.6" y2="306.0058948358145" stroke="#000"/>
<line x1="308.5" y1="288.585644645064" x2="308.5" y2="306.0058948358145" stroke="#000"/>
<line x1="308.5" y1="498.0" x2="308.5" y2="502.79999999999995" stroke="#000"/>
<text x="308.5" y="512.4" fill="#111" font-size="small" font-family="monospace" font-weight="bold" text-anchor="end" transform="rotate(-60, 308.5, 512.4)">
erubi
</text>
<rect x="350.8" y="336.1053717186382" width="28.2" height="161.89462828136172" fill="#7070f8" data-tooltip="1.00x baseline speed (No JIT)"/>
<line x1="350.8" y1="332.09380763703547" x2="379.0" y2="332.09380763703547" stroke="#000"/>
<line x1="350.8" y1="340.1169358002409" x2="379.0" y2="340.1169358002409" stroke="#000"/>
<line x1="364.9" y1="332.09380763703547" x2="364.9" y2="340.1169358002409" stroke="#000"/>
<rect x="379.0" y="260.1463681850798" width="28.2" height="237.8536318149202" fill="orange" data-tooltip="1.47x baseline speed (YJIT)"/>
<line x1="379.0" y1="248.94390458525112" x2="407.2" y2="248.94390458525112" stroke="#000"/>
<line x1="379.0" y1="271.3488317849084" x2="407.2" y2="271.3488317849084" stroke="#000"/>
<line x1="393.1" y1="248.94390458525112" x2="393.1" y2="271.3488317849084" stroke="#000"/>
<line x1="393.1" y1="498.0" x2="393.1" y2="502.79999999999995" stroke="#000"/>
<text x="393.1" y="512.4" fill="#111" font-size="small" font-family="monospace" font-weight="bold" text-anchor="end" transform="rotate(-60, 393.1, 512.4)">
erubi_rails
</text>
<rect x="435.40000000000003" y="336.1053717186382" width="28.2" height="161.89462828136172" fill="#7070f8" data-tooltip="1.00x baseline speed (No JIT)"/>
<line x1="435.40000000000003" y1="334.37046733921386" x2="463.6" y2="334.37046733921386" stroke="#000"/>
<line x1="435.40000000000003" y1="337.84027609806253" x2="463.6" y2="337.84027609806253" stroke="#000"/>
<line x1="449.5" y1="334.37046733921386" x2="449.5" y2="337.84027609806253" stroke="#000"/>
<rect x="463.6" y="336.80988243140433" width="28.2" height="161.19011756859558" fill="orange" data-tooltip="1.00x baseline speed (YJIT)"/>
<line x1="463.6" y1="334.807330184642" x2="491.8" y2="334.807330184642" stroke="#000"/>
<line x1="463.6" y1="338.81243467816665" x2="491.8" y2="338.81243467816665" stroke="#000"/>
<line x1="477.7" y1="334.807330184642" x2="477.7" y2="338.81243467816665" stroke="#000"/>
<line x1="477.7" y1="498.0" x2="477.7" y2="502.79999999999995" stroke="#000"/>
<text x="477.7" y="512.4" fill="#111" font-size="small" font-family="monospace" font-weight="bold" text-anchor="end" transform="rotate(-60, 477.7, 512.4)">
etanni
</text>
<rect x="520.0" y="336.1053717186382" width="28.2" height="161.89462828136172" fill="#7070f8" data-tooltip="1.00x baseline speed (No JIT)"/>
<line x1="520.0" y1="334.7237521557141" x2="548.2" y2="334.7237521557141" stroke="#000"/>
<line x1="520.0" y1="337.48699128156227" x2="548.2" y2="337.48699128156227" stroke="#000"/>
<line x1="534.1" y1="334.7237521557141" x2="534.1" y2="337.48699128156227" stroke="#000"/>
<rect x="548.2" y="101.31162971871646" width="28.2" height="396.6883702812835" fill="orange" data-tooltip="2.45x baseline speed (YJIT)"/>
<line x1="548.2" y1="97.91533005175386" x2="576.4" y2="97.91533005175386" stroke="#000"/>
<line x1="548.2" y1="104.70792938567907" x2="576.4" y2="104.70792938567907" stroke="#000"/>
<line x1="562.3000000000001" y1="97.91533005175386" x2="562.3000000000001" y2="104.70792938567907" stroke="#000"/>
<line x1="562.3000000000001" y1="498.0" x2="562.3000000000001" y2="502.79999999999995" stroke="#000"/>
<text x="562.3000000000001" y="512.4" fill="#111" font-size="small" font-family="monospace" font-weight="bold" text-anchor="end" transform="rotate(-60, 562.3000000000001, 512.4)">
fannkuchredux
</text>
<rect x="604.5999999999999" y="336.1053717186382" width="28.2" height="161.89462828136172" fill="#7070f8" data-tooltip="1.00x baseline speed (No JIT)"/>
<line x1="604.5999999999999" y1="335.67713088340605" x2="632.8" y2="335.67713088340605" stroke="#000"/>
<line x1="604.5999999999999" y1="336.53361255387034" x2="632.8" y2="336.53361255387034" stroke="#000"/>
<line x1="618.6999999999999" y1="335.67713088340605" x2="618.6999999999999" y2="336.53361255387034" stroke="#000"/>
<rect x="632.8" y="276.41464363852987" width="28.2" height="221.58535636147008" fill="orange" data-tooltip="1.37x baseline speed (YJIT)"/>
<line x1="632.8" y1="275.6573221008799" x2="660.9999999999999" y2="275.6573221008799" stroke="#000"/>
<line x1="632.8" y1="277.1719651761798" x2="660.9999999999999" y2="277.1719651761798" stroke="#000"/>
<line x1="646.8999999999999" y1="275.6573221008799" x2="646.8999999999999" y2="277.1719651761798" stroke="#000"/>
<line x1="646.8999999999999" y1="498.0" x2="646.8999999999999" y2="502.79999999999995" stroke="#000"/>
<text x="646.8999999999999" y="512.4" fill="#111" font-size="small" font-family="monospace" font-weight="bold" text-anchor="end" transform="rotate(-60, 646.8999999999999, 512.4)">
lee
</text>
<rect x="689.1999999999999" y="336.1053717186382" width="28.2" height="161.89462828136172" fill="#7070f8" data-tooltip="1.00x baseline speed (No JIT)"/>
<line x1="689.1999999999999" y1="335.6819795712168" x2="717.4" y2="335.6819795712168" stroke="#000"/>
<line x1="689.1999999999999" y1="336.5287638660596" x2="717.4" y2="336.5287638660596" stroke="#000"/>
<line x1="703.3" y1="335.6819795712168" x2="703.3" y2="336.5287638660596" stroke="#000"/>
<rect x="717.4" y="191.65054078601617" width="28.2" height="306.3494592139837" fill="orange" data-tooltip="1.89x baseline speed (YJIT)"/>
<line x1="717.4" y1="190.8221079791153" x2="745.5999999999999" y2="190.8221079791153" stroke="#000"/>
<line x1="717.4" y1="192.47897359291704" x2="745.5999999999999" y2="192.47897359291704" stroke="#000"/>
<line x1="731.4999999999999" y1="190.8221079791153" x2="731.4999999999999" y2="192.47897359291704" stroke="#000"/>
<line x1="731.4999999999999" y1="498.0" x2="731.4999999999999" y2="502.79999999999995" stroke="#000"/>
<text x="731.4999999999999" y="512.4" fill="#111" font-size="small" font-family="monospace" font-weight="bold" text-anchor="end" transform="rotate(-60, 731.4999999999999, 512.4)">
nbody
</text>
<rect x="773.8" y="336.1053717186382" width="28.2" height="161.89462828136172" fill="#7070f8" data-tooltip="1.00x baseline speed (No JIT)"/>
<line x1="773.8" y1="335.4023782656043" x2="801.9999999999999" y2="335.4023782656043" stroke="#000"/>
<line x1="773.8" y1="336.8083651716721" x2="801.9999999999999" y2="336.8083651716721" stroke="#000"/>
<line x1="787.9" y1="335.4023782656043" x2="787.9" y2="336.8083651716721" stroke="#000"/>
<rect x="801.9999999999999" y="100.19999999999999" width="28.2" height="397.79999999999995" fill="orange" data-tooltip="2.46x baseline speed (YJIT)"/>
<line x1="801.9999999999999" y1="97.7420172817601" x2="830.1999999999999" y2="97.7420172817601" stroke="#000"/>
<line x1="801.9999999999999" y1="102.65798271823988" x2="830.1999999999999" y2="102.65798271823988" stroke="#000"/>
<line x1="816.0999999999999" y1="97.7420172817601" x2="816.0999999999999" y2="102.65798271823988" stroke="#000"/>
<line x1="816.0999999999999" y1="498.0" x2="816.0999999999999" y2="502.79999999999995" stroke="#000"/>
<text x="816.0999999999999" y="512.4" fill="#111" font-size="small" font-family="monospace" font-weight="bold" text-anchor="end" transform="rotate(-60, 816.0999999999999, 512.4)">
optcarrot
</text>
<rect x="858.4" y="336.1053717186382" width="28.2" height="161.89462828136172" fill="#7070f8" data-tooltip="1.00x baseline speed (No JIT)"/>
<line x1="858.4" y1="335.372795532229" x2="886.5999999999999" y2="335.372795532229" stroke="#000"/>
<line x1="858.4" y1="336.8379479050474" x2="886.5999999999999" y2="336.8379479050474" stroke="#000"/>
<line x1="872.4999999999999" y1="335.372795532229" x2="872.4999999999999" y2="336.8379479050474" stroke="#000"/>
<rect x="886.5999999999999" y="192.02789558010195" width="28.2" height="305.972104419898" fill="orange" data-tooltip="1.89x baseline speed (YJIT)"/>
<line x1="886.5999999999999" y1="186.3048641303411" x2="914.8" y2="186.3048641303411" stroke="#000"/>
<line x1="886.5999999999999" y1="197.75092702986285" x2="914.8" y2="197.75092702986285" stroke="#000"/>
<line x1="900.6999999999999" y1="186.3048641303411" x2="900.6999999999999" y2="197.75092702986285" stroke="#000"/>
<line x1="900.6999999999999" y1="498.0" x2="900.6999999999999" y2="502.79999999999995" stroke="#000"/>
<text x="900.6999999999999" y="512.4" fill="#111" font-size="small" font-family="monospace" font-weight="bold" text-anchor="end" transform="rotate(-60, 900.6999999999999, 512.4)">
rubykon
</text>
</svg>