<svg viewBox="0 0 1000 600" xmlns="http://www.w3.org/2000/svg" xmlns:xlink="http://www.w3.org/1999/xlink" width="100%" height="100%">

<rect x="50.0" y="30.0" width="940.0" height="467.99999999999994" stroke="#000" fill="#EEE"/>
<line x1="42.0" y1="497.9999999999999" x2="50.0" y2="497.9999999999999" stroke="#000"/>
<text x="26.000000000000004" y="497.9999999999999" text-anchor="end" font-weight="bold" font-size="small" fill="#111">
0.0
</text>
<line x1="42.0" y1="411.2003599940302" x2="50.0" y2="411.2003599940302" stroke="#000"/>
<text x="26.000000000000004" y="411.2003599940302" text-anchor="end" font-weight="bold" font-size="small" fill="#111">
2.0
</text>
<line x1="42.0" y1="324.4007199880605" x2="50.0" y2="324.4007199880605" stroke="#000"/>
<text x="26.000000000000004" y="324.4007199880605" text-anchor="end" font-weight="bold" font-size="small" fill="#111">
4.0
</text>
<line x1="42.0" y1="237.60107998209077" x2="50.0" y2="237.60107998209077" stroke="#000"/>
<text x="26.000000000000004" y="237.60107998209077" text-anchor="end" font-weight="bold" font-size="small" fill="#111">
6.0
</text>
<line x1="42.0" y1="150.80143997612106" x2="50.0" y2="150.80143997612106" stroke="#000"/>
<text x="26.000000000000004" y="150.80143997612106" text-anchor="end" font-weight="bold" font-size="small" fill="#111">
8.0
</text>
<rect x="268.5" y="36.00000000000001" width="80.0" height="18.0" fill="#7070f8" stroke="#888"/>
<text x="308.5" y="52.50000000000001" font-size="small" text-anchor="middle" font-weight="bold" fill="#EEE">
No JIT
</text>
<rect x="691.4999999999999" y="36.00000000000001" width="80.0" height="18.0" fill="orange" stroke="#888"/>
<text x="731.4999999999999" y="52.50000000000001" font-size="small" text-anchor="middle" font-weight="bold" fill="#EEE">
YJIT
</text>
<rect x="97.0" y="454.60017999701506" width="9.724137931034482" height="43.39982000298485" fill="#7070f8" data-tooltip="1.00x baseline speed (No JIT)"/>
<line x1="97.0" y1="454.46534704069603" x2="106.72413793103448" y2="454.46534704069603" stroke="#000"/>
<line x1="97.0" y1="454.73501295333404" x2="106.72413793103448" y2="454.73501295333404" stroke="#000"/>
<line x1="101.86206896551725" y1="454.46534704069603" x2="101.86206896551725" y2="454.73501295333404" stroke="#000"/>
<rect x="106.72413793103448" y="423.8846824086324" width="9.724137931034482" height="74.11531759136754" fill="orange" data-tooltip="1.71x baseline speed (YJIT)"/>
<line x1="106.72413793103448" y1="423.44632135423643" x2="116.44827586206897" y2="423.44632135423643" stroke="#000"/>
<line x1="106.72413793103448" y1="424.3230434630283" x2="116.44827586206897" y2="424.3230434630283" stroke="#000"/>
<line x1="111.58620689655173" y1="423.44632135423643" x2="111.58620689655173" y2="424.3230434630283" stroke="#000"/>
<line x1="111.58620689655173" y1="498.0" x2="111.58620689655173" y2="502.79999999999995" stroke="#000"/>
<text x="111.58620689655173" y="512.4" fill="#111" font-size="small" font-family="monospace" font-weight="bold" text-anchor="end" transform="rotate(-60, 111.58620689655173, 512.4)">
activerecord
</text>
<rect x="126.17241379310346" y="454.60017999701506" width="9.724137931034482" height="43.39982000298485" fill="#7070f8" data-tooltip="1.00x baseline speed (No JIT)"/>
<line x1="126.17241379310346" y1="454.2902542880121" x2="135.89655172413794" y2="454.2902542880121" stroke="#000"/>
<line x1="126.17241379310346" y1="454.910105706018" x2="135.89655172413794" y2="454.910105706018" stroke="#000"/>
<line x1="131.0344827586207" y1="454.2902542880121" x2="131.0344827586207" y2="454.910105706018" stroke="#000"/>
<rect x="135.89655172413794" y="429.3500327339872" width="9.724137931034482" height="68.64996726601281" fill="orange" data-tooltip="1.58x baseline speed (YJIT)"/>
<line x1="135.89655172413794" y1="428.0809405005181" x2="145.62068965517244" y2="428.0809405005181" stroke="#000"/>
<line x1="135.89655172413794" y1="430.61912496745623" x2="145.62068965517244" y2="430.61912496745623" stroke="#000"/>
<line x1="140.7586206896552" y1="428.0809405005181" x2="140.7586206896552" y2="430.61912496745623" stroke="#000"/>
<line x1="140.75862068965517" y1="498.0" x2="140.75862068965517" y2="502.79999999999995" stroke="#000"/>
<text x="140.75862068965517" y="512.4" fill="#111" font-size="small" font-family="monospace" font-weight="bold" text-anchor="end" transform="rotate(-60, 140.75862068965517, 512.4)">
hexapdf
</text>
<rect x="155.34482758620692" y="454.60017999701506" width="9.724137931034482" height="43.39982000298485" fill="#7070f8" data-tooltip="1.00x baseline speed (No JIT)"/>
<line x1="155.34482758620692" y1="453.99476757484945" x2="165.0689655172414" y2="453.99476757484945" stroke="#000"/>
<line x1="155.34482758620692" y1="455.2055924191806" x2="165.0689655172414" y2="455.2055924191806" stroke="#000"/>
<line x1="160.20689655172416" y1="453.99476757484945" x2="160.20689655172416" y2="455.2055924191806" stroke="#000"/>
<rect x="165.0689655172414" y="439.6232999308312" width="9.724137931034482" height="58.3767000691688" fill="orange" data-tooltip="1.35x baseline speed (YJIT)"/>
<line x1="165.0689655172414" y1="438.10046072711515" x2="174.7931034482759" y2="438.10046072711515" stroke="#000"/>
<line x1="165.0689655172414" y1="441.14613913454724" x2="174.7931034482759" y2="441.14613913454724" stroke="#000"/>
<line x1="169.93103448275863" y1="438.10046072711515" x2="169.93103448275863" y2="441.14613913454724" stroke="#000"/>
<line x1="169.93103448275863" y1="498.0" x2="169.93103448275863" y2="502.79999999999995" stroke="#000"/>
<text x="169.93103448275863" y="512.4" fill="#111" font-size="small" font-family="monospace" font-weight="bold" text-anchor="end" transform="rotate(-60, 169.93103448275863, 512.4)">
liquid-c
</text>
<rect x="184.51724137931035" y="454.60017999701506" width="9.724137931034482" height="43.39982000298485" fill="#7070f8" data-tooltip="1.00x baseline speed (No JIT)"/>
<line x1="184.51724137931035" y1="454.02620477583866" x2="194.24137931034485" y2="454.02620477583866" stroke="#000"/>
<line x1="184.51724137931035" y1="455.1741552181914" x2="194.24137931034485" y2="455.1741552181914" stroke="#000"/>
<line x1="189.37931034482762" y1="454.02620477583866" x2="189.37931034482762" y2="455.1741552181914" stroke="#000"/>
<rect x="194.24137931034485" y="420.3648710528446" width="9.724137931034482" height="77.6351289471553" fill="orange" data-tooltip="1.79x baseline speed (YJIT)"/>
<line x1="194.24137931034485" y1="418.0812252040128" x2="203.96551724137936" y2="418.0812252040128" stroke="#000"/>
<line x1="194.24137931034485" y1="422.6485169016764" x2="203.96551724137936" y2="422.6485169016764" stroke="#000"/>
<line x1="199.1034482758621" y1="418.0812252040128" x2="199.1034482758621" y2="422.6485169016764" stroke="#000"/>
<line x1="199.10344827586206" y1="498.0" x2="199.10344827586206" y2="502.79999999999995" stroke="#000"/>
<text x="199.10344827586206" y="512.4" fill="#111" font-size="small" font-family="monospace" font-weight="bold" text-anchor="end" transform="rotate(-60, 199.10344827586206, 512.4)">
liquid-render
</text>
<rect x="213.68965517241378" y="454.60017999701506" width="9.724137931034482" height="43.39982000298485" fill="#7070f8" data-tooltip="1.00x baseline speed (No JIT)"/>
<line x1="213.68965517241378" y1="454.5481063709411" x2="223.41379310344828" y2="454.5481063709411" stroke="#000"/>
<line x1="213.68965517241378" y1="454.65225362308894" x2="223.41379310344828" y2="454.65225362308894" stroke="#000"/>
<line x1="218.55172413793102" y1="454.5481063709411" x2="218.55172413793102" y2="454.65225362308894" stroke="#000"/>
<rect x="223.41379310344828" y="442.35358105969544" width="9.724137931034482" height="55.64641894030448" fill="orange" data-tooltip="1.28x baseline speed (YJIT)"/>
<line x1="223.41379310344828" y1="442.24797167242735" x2="233.13793103448276" y2="442.24797167242735" stroke="#000"/>
<line x1="223.41379310344828" y1="442.4591904469635" x2="233.13793103448276" y2="442.4591904469635" stroke="#000"/>
<line x1="228.27586206896552" y1="442.24797167242735" x2="228.27586206896552" y2="442.4591904469635" stroke="#000"/>
<line x1="228.2758620689655" y1="498.0" x2="228.2758620689655" y2="502.79999999999995" stroke="#000"/>
<text x="228.2758620689655" y="512.4" fill="#111" font-size="small" font-family="monospace" font-weight="bold" text-anchor="end" transform="rotate(-60, 228.2758620689655, 512.4)">
mail
</text>
<rect x="242.86206896551724" y="454.60017999701506" width="9.724137931034482" height="43.39982000298485" fill="#7070f8" data-tooltip="1.00x baseline speed (No JIT)"/>
<line x1="242.86206896551724" y1="454.5829609509546" x2="252.58620689655172" y2="454.5829609509546" stroke="#000"/>
<line x1="242.86206896551724" y1="454.6173990430755" x2="252.58620689655172" y2="454.6173990430755" stroke="#000"/>
<line x1="247.72413793103448" y1="454.5829609509546" x2="247.72413793103448" y2="454.6173990430755" stroke="#000"/>
<rect x="252.58620689655172" y="438.0822470396645" width="9.724137931034482" height="59.917752960335456" fill="orange" data-tooltip="1.38x baseline speed (YJIT)"/>
<line x1="252.58620689655172" y1="438.0494585968253" x2="262.3103448275862" y2="438.0494585968253" stroke="#000"/>
<line x1="252.58620689655172" y1="438.11503548250363" x2="262.3103448275862" y2="438.11503548250363" stroke="#000"/>
<line x1="257.4482758620689" y1="438.0494585968253" x2="257.4482758620689" y2="438.11503548250363" stroke="#000"/>
<line x1="257.44827586206895" y1="498.0" x2="257.44827586206895" y2="502.79999999999995" stroke="#000"/>
<text x="257.44827586206895" y="512.4" fill="#111" font-size="small" font-family="monospace" font-weight="bold" text-anchor="end" transform="rotate(-60, 257.44827586206895, 512.4)">
psych-load
</text>
<rect x="272.0344827586207" y="454.60017999701506" width="9.724137931034482" height="43.39982000298485" fill="#7070f8" data-tooltip="1.00x baseline speed (No JIT)"/>
<line x1="272.0344827586207" y1="454.3123741789427" x2="281.7586206896552" y2="454.3123741789427" stroke="#000"/>
<line x1="272.0344827586207" y1="454.8879858150874" x2="281.7586206896552" y2="454.8879858150874" stroke="#000"/>
<line x1="276.8965517241379" y1="454.3123741789427" x2="276.8965517241379" y2="454.8879858150874" stroke="#000"/>
<rect x="281.7586206896552" y="432.86303926737924" width="9.724137931034482" height="65.13696073262075" fill="orange" data-tooltip="1.50x baseline speed (YJIT)"/>
<line x1="281.7586206896552" y1="431.94506394152967" x2="291.48275862068965" y2="431.94506394152967" stroke="#000"/>
<line x1="281.7586206896552" y1="433.7810145932288" x2="291.48275862068965" y2="433.7810145932288" stroke="#000"/>
<line x1="286.6206896551724" y1="431.94506394152967" x2="286.6206896551724" y2="433.7810145932288" stroke="#000"/>
<line x1="286.6206896551724" y1="498.0" x2="286.6206896551724" y2="502.79999999999995" stroke="#000"/>
<text x="286.6206896551724" y="512.4" fill="#111" font-size="small" font-family="monospace" font-weight="bold" text-anchor="end" transform="rotate(-60, 286.6206896551724, 512.4)">
railsbench
</text>
<rect x="301.2068965517242" y="454.60017999701506" width="9.724137931034482" height="43.39982000298485" fill="#7070f8" data-tooltip="1.00x baseline speed (No JIT)"/>
<line x1="301.2068965517242" y1="450.69424482796745" x2="310.93103448275866" y2="450.69424482796745" stroke="#000"/>
<line x1="301.2068965517242" y1="458.50611516606267" x2="310.93103448275866" y2="458.50611516606267" stroke="#000"/>
<line x1="306.0689655172414" y1="450.69424482796745" x2="306.0689655172414" y2="458.50611516606267" stroke="#000"/>
<rect x="310.93103448275866" y="442.6770510164308" width="9.724137931034482" height="55.32294898356917" fill="orange" data-tooltip="1.27x baseline speed (YJIT)"/>
<line x1="310.93103448275866" y1="431.1247846517229" x2="320.65517241379314" y2="431.1247846517229" stroke="#000"/>
<line x1="310.93103448275866" y1="454.2293173811387" x2="320.65517241379314" y2="454.2293173811387" stroke="#000"/>
<line x1="315.7931034482759" y1="431.1247846517229" x2="315.7931034482759" y2="454.2293173811387" stroke="#000"/>
<line x1="315.7931034482759" y1="498.0" x2="315.7931034482759" y2="502.79999999999995" stroke="#000"/>
<text x="315.7931034482759" y="512.4" fill="#111" font-size="small" font-family="monospace" font-weight="bold" text-anchor="end" transform="rotate(-60, 315.7931034482759, 512.4)">
ruby-lsp
</text>
<rect x="330.3793103448276" y="454.60017999701506" width="9.724137931034482" height="43.39982000298485" fill="#7070f8" data-tooltip="1.00x baseline speed (No JIT)"/>
<line x1="330.3793103448276" y1="453.9042096784478" x2="340.1034482758621" y2="453.9042096784478" stroke="#000"/>
<line x1="330.3793103448276" y1="455.2961503155823" x2="340.1034482758621" y2="455.2961503155823" stroke="#000"/>
<line x1="335.2413793103448" y1="453.9042096784478" x2="335.2413793103448" y2="455.2961503155823" stroke="#000"/>
<rect x="340.1034482758621" y="449.5071744940734" width="9.724137931034482" height="48.492825505926525" fill="orange" data-tooltip="1.12x baseline speed (YJIT)"/>
<line x1="340.1034482758621" y1="448.27522094554354" x2="349.82758620689657" y2="448.27522094554354" stroke="#000"/>
<line x1="340.1034482758621" y1="450.7391280426033" x2="349.82758620689657" y2="450.7391280426033" stroke="#000"/>
<line x1="344.9655172413793" y1="448.27522094554354" x2="344.9655172413793" y2="450.7391280426033" stroke="#000"/>
<line x1="344.9655172413793" y1="498.0" x2="344.9655172413793" y2="502.79999999999995" stroke="#000"/>
<text x="344.9655172413793" y="512.4" fill="#111" font-size="small" font-family="monospace" font-weight="bold" text-anchor="end" transform="rotate(-60, 344.9655172413793, 512.4)">
sequel
</text>
<rect x="359.551724137931" y="454.60017999701506" width="9.724137931034482" height="43.39982000298485" fill="#7070f8" data-tooltip="1.00x baseline speed (No JIT)"/>
<line x1="359.551724137931" y1="454.5847322364384" x2="369.2758620689655" y2="454.5847322364384" stroke="#000"/>
<line x1="359.551724137931" y1="454.6156277575917" x2="369.2758620689655" y2="454.6156277575917" stroke="#000"/>
<line x1="364.41379310344826" y1="454.5847322364384" x2="364.41379310344826" y2="454.6156277575917" stroke="#000"/>
<rect x="369.2758620689655" y="412.5108169754071" width="9.724137931034482" height="85.48918302459282" fill="orange" data-tooltip="1.97x baseline speed (YJIT)"/>
<line x1="369.2758620689655" y1="412.4412152936343" x2="379.0" y2="412.4412152936343" stroke="#000"/>
<line x1="369.2758620689655" y1="412.58041865717996" x2="379.0" y2="412.58041865717996" stroke="#000"/>
<line x1="374.13793103448273" y1="412.4412152936343" x2="374.13793103448273" y2="412.58041865717996" stroke="#000"/>
<line x1="374.13793103448273" y1="498.0" x2="374.13793103448273" y2="502.79999999999995" stroke="#000"/>
<text x="374.13793103448273" y="512.4" fill="#111" font-size="small" font-family="monospace" font-weight="bold" text-anchor="end" transform="rotate(-60, 374.13793103448273, 512.4)">
binarytrees
</text>
<rect x="388.7241379310344" y="454.60017999701506" width="9.724137931034482" height="43.39982000298485" fill="#7070f8" data-tooltip="1.00x baseline speed (No JIT)"/>
<line x1="388.7241379310344" y1="454.5867284689858" x2="398.44827586206895" y2="454.5867284689858" stroke="#000"/>
<line x1="388.7241379310344" y1="454.6136315250443" x2="398.44827586206895" y2="454.6136315250443" stroke="#000"/>
<line x1="393.5862068965517" y1="454.5867284689858" x2="393.5862068965517" y2="454.6136315250443" stroke="#000"/>
<rect x="398.44827586206895" y="430.458671273008" width="9.724137931034482" height="67.54132872699189" fill="orange" data-tooltip="1.56x baseline speed (YJIT)"/>
<line x1="398.44827586206895" y1="430.420040727288" x2="408.17241379310343" y2="430.420040727288" stroke="#000"/>
<line x1="398.44827586206895" y1="430.49730181872803" x2="408.17241379310343" y2="430.49730181872803" stroke="#000"/>
<line x1="403.31034482758616" y1="430.420040727288" x2="403.31034482758616" y2="430.49730181872803" stroke="#000"/>
<line x1="403.31034482758616" y1="498.0" x2="403.31034482758616" y2="502.79999999999995" stroke="#000"/>
<text x="403.31034482758616" y="512.4" fill="#111" font-size="small" font-family="monospace" font-weight="bold" text-anchor="end" transform="rotate(-60, 403.31034482758616, 512.4)">
chunky_png
</text>
<rect x="417.89655172413796" y="454.60017999701506" width="9.724137931034482" height="43.39982000298485" fill="#7070f8" data-tooltip="1.00x baseline speed (No JIT)"/>
<line x1="417.89655172413796" y1="454.21407782609833" x2="427.6206896551725" y2="454.21407782609833" stroke="#000"/>
<line x1="417.89655172413796" y1="454.9862821679318" x2="427.6206896551725" y2="454.9862821679318" stroke="#000"/>
<line x1="422.7586206896552" y1="454.21407782609833" x2="422.7586206896552" y2="454.9862821679318" stroke="#000"/>
<rect x="427.6206896551725" y="446.7587145501915" width="9.724137931034482" height="51.241285449808416" fill="orange" data-tooltip="1.18x baseline speed (YJIT)"/>
<line x1="427.6206896551725" y1="446.1043182419344" x2="437.344827586207" y2="446.1043182419344" stroke="#000"/>
<line x1="427.6206896551725" y1="447.4131108584486" x2="437.344827586207" y2="447.4131108584486" stroke="#000"/>
<line x1="432.4827586206897" y1="446.1043182419344" x2="432.4827586206897" y2="447.4131108584486" stroke="#000"/>
<line x1="432.4827586206897" y1="498.0" x2="432.4827586206897" y2="502.79999999999995" stroke="#000"/>
<text x="432.4827586206897" y="512.4" fill="#111" font-size="small" font-family="monospace" font-weight="bold" text-anchor="end" transform="rotate(-60, 432.4827586206897, 512.4)">
erubi
</text>
<rect x="447.0689655172414" y="454.60017999701506" width="9.724137931034482" height="43.39982000298485" fill="#7070f8" data-tooltip="1.00x baseline speed (No JIT)"/>
<line x1="447.0689655172414" y1="453.60080859026226" x2="456.7931034482759" y2="453.60080859026226" stroke="#000"/>
<line x1="447.0689655172414" y1="455.5995514037678" x2="456.7931034482759" y2="455.5995514037678" stroke="#000"/>
<line x1="451.9310344827586" y1="453.60080859026226" x2="451.9310344827586" y2="455.5995514037678" stroke="#000"/>
<rect x="456.7931034482759" y="426.9677193009222" width="9.724137931034482" height="71.03228069907773" fill="orange" data-tooltip="1.64x baseline speed (YJIT)"/>
<line x1="456.7931034482759" y1="424.1043691607172" x2="466.5172413793104" y2="424.1043691607172" stroke="#000"/>
<line x1="456.7931034482759" y1="429.8310694411272" x2="466.5172413793104" y2="429.8310694411272" stroke="#000"/>
<line x1="461.65517241379314" y1="424.1043691607172" x2="461.65517241379314" y2="429.8310694411272" stroke="#000"/>
<line x1="461.65517241379314" y1="498.0" x2="461.65517241379314" y2="502.79999999999995" stroke="#000"/>
<text x="461.65517241379314" y="512.4" fill="#111" font-size="small" font-family="monospace" font-weight="bold" text-anchor="end" transform="rotate(-60, 461.65517241379314, 512.4)">
erubi_rails
</text>
<rect x="476.2413793103448" y="454.60017999701506" width="9.724137931034482" height="43.39982000298485" fill="#7070f8" data-tooltip="1.00x baseline speed (No JIT)"/>
<line x1="476.2413793103448" y1="454.38295828006625" x2="485.9655172413793" y2="454.38295828006625" stroke="#000"/>
<line x1="476.2413793103448" y1="454.8174017139639" x2="485.9655172413793" y2="454.8174017139639" stroke="#000"/>
<line x1="481.10344827586204" y1="454.38295828006625" x2="481.10344827586204" y2="454.8174017139639" stroke="#000"/>
<rect x="485.9655172413793" y="454.11811201457965" width="9.724137931034482" height="43.881887985420214" fill="orange" data-tooltip="1.01x baseline speed (YJIT)"/>
<line x1="485.9655172413793" y1="453.8265134099223" x2="495.68965517241384" y2="453.8265134099223" stroke="#000"/>
<line x1="485.9655172413793" y1="454.40971061923705" x2="495.68965517241384" y2="454.40971061923705" stroke="#000"/>
<line x1="490.8275862068965" y1="453.8265134099223" x2="490.8275862068965" y2="454.40971061923705" stroke="#000"/>
<line x1="490.8275862068965" y1="498.0" x2="490.8275862068965" y2="502.79999999999995" stroke="#000"/>
<text x="490.8275862068965" y="512.4" fill="#111" font-size="small" font-family="monospace" font-weight="bold" text-anchor="end" transform="rotate(-60, 490.8275862068965, 512.4)">
etanni
</text>
<rect x="505.41379310344826" y="454.60017999701506" width="9.724137931034482" height="43.39982000298485" fill="#7070f8" data-tooltip="1.00x baseline speed (No JIT)"/>
<line x1="505.41379310344826" y1="454.5476529834213" x2="515.1379310344827" y2="454.5476529834213" stroke="#000"/>
<line x1="505.41379310344826" y1="454.6527070106088" x2="515.1379310344827" y2="454.6527070106088" stroke="#000"/>
<line x1="510.27586206896547" y1="454.5476529834213" x2="510.27586206896547" y2="454.6527070106088" stroke="#000"/>
<rect x="515.1379310344827" y="390.86066337126476" width="9.724137931034482" height="107.13933662873515" fill="orange" data-tooltip="2.47x baseline speed (YJIT)"/>
<line x1="515.1379310344827" y1="390.69574597112984" x2="524.8620689655171" y2="390.69574597112984" stroke="#000"/>
<line x1="515.1379310344827" y1="391.0255807713997" x2="524.8620689655171" y2="391.0255807713997" stroke="#000"/>
<line x1="519.9999999999999" y1="390.69574597112984" x2="519.9999999999999" y2="391.0255807713997" stroke="#000"/>
<line x1="520.0" y1="498.0" x2="520.0" y2="502.79999999999995" stroke="#000"/>
<text x="520.0" y="512.4" fill="#111" font-size="small" font-family="monospace" font-weight="bold" text-anchor="end" transform="rotate(-60, 520.0, 512.4)">
fannkuchredux
</text>
<rect x="534.5862068965517" y="454.60017999701506" width="9.724137931034482" height="43.39982000298485" fill="#7070f8" data-tooltip="1.00x baseline speed (No JIT)"/>
<line x1="534.5862068965517" y1="454.56562915882085" x2="544.3103448275863" y2="454.56562915882085" stroke="#000"/>
<line x1="534.5862068965517" y1="454.63473083520927" x2="544.3103448275863" y2="454.63473083520927" stroke="#000"/>
<line x1="539.448275862069" y1="454.56562915882085" x2="539.448275862069" y2="454.63473083520927" stroke="#000"/>
<rect x="544.3103448275863" y="438.2308293891828" width="9.724137931034482" height="59.76917061081712" fill="orange" data-tooltip="1.38x baseline speed (YJIT)"/>
<line x1="544.3103448275863" y1="438.15352811537286" x2="554.0344827586207" y2="438.15352811537286" stroke="#000"/>
<line x1="544.3103448275863" y1="438.30813066299277" x2="554.0344827586207" y2="438.30813066299277" stroke="#000"/>
<line x1="549.1724137931035" y1="438.15352811537286" x2="549.1724137931035" y2="438.30813066299277" stroke="#000"/>
<line x1="549.1724137931036" y1="498.0" x2="549.1724137931036" y2="502.79999999999995" stroke="#000"/>
<text x="549.1724137931036" y="512.4" fill="#111" font-size="small" font-family="monospace" font-weight="bold" text-anchor="end" transform="rotate(-60, 549.1724137931036, 512.4)">
lee
</text>
<rect x="563.7586206896552" y="454.60017999701506" width="9.724137931034482" height="43.39982000298485" fill="#7070f8" data-tooltip="1.00x baseline speed (No JIT)"/>
<line x1="563.7586206896552" y1="454.02954746153364" x2="573.4827586206897" y2="454.02954746153364" stroke="#000"/>
<line x1="563.7586206896552" y1="455.1708125324964" x2="573.4827586206897" y2="455.1708125324964" stroke="#000"/>
<line x1="568.6206896551724" y1="454.02954746153364" x2="568.6206896551724" y2="455.1708125324964" stroke="#000"/>
<rect x="573.4827586206897" y="421.0705003115665" width="9.724137931034482" height="76.9294996884335" fill="orange" data-tooltip="1.77x baseline speed (YJIT)"/>
<line x1="573.4827586206897" y1="420.05795567933933" x2="583.2068965517241" y2="420.05795567933933" stroke="#000"/>
<line x1="573.4827586206897" y1="422.08304494379365" x2="583.2068965517241" y2="422.08304494379365" stroke="#000"/>
<line x1="578.3448275862069" y1="420.05795567933933" x2="578.3448275862069" y2="422.08304494379365" stroke="#000"/>
<line x1="578.344827586207" y1="498.0" x2="578.344827586207" y2="502.79999999999995" stroke="#000"/>
<text x="578.344827586207" y="512.4" fill="#111" font-size="small" font-family="monospace" font-weight="bold" text-anchor="end" transform="rotate(-60, 578.344827586207, 512.4)">
nbody
</text>
<rect x="592.9310344827586" y="454.60017999701506" width="9.724137931034482" height="43.39982000298485" fill="#7070f8" data-tooltip="1.00x baseline speed (No JIT)"/>
<line x1="592.9310344827586" y1="454.3635130269813" x2="602.655172413793" y2="454.3635130269813" stroke="#000"/>
<line x1="592.9310344827586" y1="454.8368469670488" x2="602.655172413793" y2="454.8368469670488" stroke="#000"/>
<line x1="597.7931034482758" y1="454.3635130269813" x2="597.7931034482758" y2="454.8368469670488" stroke="#000"/>
<rect x="602.655172413793" y="439.88506974068105" width="9.724137931034482" height="58.11493025931884" fill="orange" data-tooltip="1.34x baseline speed (YJIT)"/>
<line x1="602.655172413793" y1="439.5309793916698" x2="612.3793103448276" y2="439.5309793916698" stroke="#000"/>
<line x1="602.655172413793" y1="440.2391600896923" x2="612.3793103448276" y2="440.2391600896923" stroke="#000"/>
<line x1="607.5172413793102" y1="439.5309793916698" x2="607.5172413793102" y2="440.2391600896923" stroke="#000"/>
<line x1="607.5172413793103" y1="498.0" x2="607.5172413793103" y2="502.79999999999995" stroke="#000"/>
<text x="607.5172413793103" y="512.4" fill="#111" font-size="small" font-family="monospace" font-weight="bold" text-anchor="end" transform="rotate(-60, 607.5172413793103, 512.4)">
optcarrot
</text>
<rect x="622.1034482758621" y="454.60017999701506" width="9.724137931034482" height="43.39982000298485" fill="#7070f8" data-tooltip="1.00x baseline speed (No JIT)"/>
<line x1="622.1034482758621" y1="454.4696996519658" x2="631.8275862068965" y2="454.4696996519658" stroke="#000"/>
<line x1="622.1034482758621" y1="454.7306603420643" x2="631.8275862068965" y2="454.7306603420643" stroke="#000"/>
<line x1="626.9655172413793" y1="454.4696996519658" x2="626.9655172413793" y2="454.7306603420643" stroke="#000"/>
<rect x="631.8275862068965" y="415.7350508996289" width="9.724137931034482" height="82.26494910037104" fill="orange" data-tooltip="1.90x baseline speed (YJIT)"/>
<line x1="631.8275862068965" y1="415.3066072123845" x2="641.5517241379309" y2="415.3066072123845" stroke="#000"/>
<line x1="631.8275862068965" y1="416.16349458687336" x2="641.5517241379309" y2="416.16349458687336" stroke="#000"/>
<line x1="636.6896551724137" y1="415.3066072123845" x2="636.6896551724137" y2="416.16349458687336" stroke="#000"/>
<line x1="636.6896551724138" y1="498.0" x2="636.6896551724138" y2="502.79999999999995" stroke="#000"/>
<text x="636.6896551724138" y="512.4" fill="#111" font-size="small" font-family="monospace" font-weight="bold" text-anchor="end" transform="rotate(-60, 636.6896551724138, 512.4)">
rubykon
</text>
<rect x="651.2758620689655" y="454.60017999701506" width="9.724137931034482" height="43.39982000298485" fill="#7070f8" data-tooltip="1.00x baseline speed (No JIT)"/>
<line x1="651.2758620689655" y1="454.5856825350728" x2="660.9999999999999" y2="454.5856825350728" stroke="#000"/>
<line x1="651.2758620689655" y1="454.6146774589573" x2="660.9999999999999" y2="454.6146774589573" stroke="#000"/>
<line x1="656.1379310344827" y1="454.5856825350728" x2="656.1379310344827" y2="454.6146774589573" stroke="#000"/>
<rect x="660.9999999999999" y="256.1653256822755" width="9.724137931034482" height="241.83467431772442" fill="orange" data-tooltip="5.57x baseline speed (YJIT)"/>
<line x1="660.9999999999999" y1="255.97170923170484" x2="670.7241379310343" y2="255.97170923170484" stroke="#000"/>
<line x1="660.9999999999999" y1="256.3589421328462" x2="670.7241379310343" y2="256.3589421328462" stroke="#000"/>
<line x1="665.8620689655171" y1="255.97170923170484" x2="665.8620689655171" y2="256.3589421328462" stroke="#000"/>
<line x1="665.8620689655172" y1="498.0" x2="665.8620689655172" y2="502.79999999999995" stroke="#000"/>
<text x="665.8620689655172" y="512.4" fill="#111" font-size="small" font-family="monospace" font-weight="bold" text-anchor="end" transform="rotate(-60, 665.8620689655172, 512.4)">
30k_ifelse
</text>
<rect x="680.448275862069" y="454.60017999701506" width="9.724137931034482" height="43.39982000298485" fill="#7070f8" data-tooltip="1.00x baseline speed (No JIT)"/>
<line x1="680.448275862069" y1="454.59540103785446" x2="690.1724137931034" y2="454.59540103785446" stroke="#000"/>
<line x1="680.448275862069" y1="454.60495895617566" x2="690.1724137931034" y2="454.60495895617566" stroke="#000"/>
<line x1="685.3103448275862" y1="454.59540103785446" x2="685.3103448275862" y2="454.60495895617566" stroke="#000"/>
<rect x="690.1724137931034" y="207.85259036137822" width="9.724137931034482" height="290.1474096386217" fill="orange" data-tooltip="6.69x baseline speed (YJIT)"/>
<line x1="690.1724137931034" y1="207.73709902601186" x2="699.8965517241378" y2="207.73709902601186" stroke="#000"/>
<line x1="690.1724137931034" y1="207.96808169674458" x2="699.8965517241378" y2="207.96808169674458" stroke="#000"/>
<line x1="695.0344827586206" y1="207.73709902601186" x2="695.0344827586206" y2="207.96808169674458" stroke="#000"/>
<line x1="695.0344827586207" y1="498.0" x2="695.0344827586207" y2="502.79999999999995" stroke="#000"/>
<text x="695.0344827586207" y="512.4" fill="#111" font-size="small" font-family="monospace" font-weight="bold" text-anchor="end" transform="rotate(-60, 695.0344827586207, 512.4)">
30k_methods
</text>
<rect x="709.6206896551724" y="454.60017999701506" width="9.724137931034482" height="43.39982000298485" fill="#7070f8" data-tooltip="1.00x baseline speed (No JIT)"/>
<line x1="709.6206896551724" y1="454.4885039816664" x2="719.3448275862069" y2="454.4885039816664" stroke="#000"/>
<line x1="709.6206896551724" y1="454.71185601236374" x2="719.3448275862069" y2="454.71185601236374" stroke="#000"/>
<line x1="714.4827586206897" y1="454.4885039816664" x2="714.4827586206897" y2="454.71185601236374" stroke="#000"/>
<rect x="719.3448275862069" y="392.66139888945173" width="9.724137931034482" height="105.33860111054824" fill="orange" data-tooltip="2.43x baseline speed (YJIT)"/>
<line x1="719.3448275862069" y1="392.3657890073627" x2="729.0689655172413" y2="392.3657890073627" stroke="#000"/>
<line x1="719.3448275862069" y1="392.95700877154076" x2="729.0689655172413" y2="392.95700877154076" stroke="#000"/>
<line x1="724.2068965517241" y1="392.3657890073627" x2="724.2068965517241" y2="392.95700877154076" stroke="#000"/>
<line x1="724.2068965517242" y1="498.0" x2="724.2068965517242" y2="502.79999999999995" stroke="#000"/>
<text x="724.2068965517242" y="512.4" fill="#111" font-size="small" font-family="monospace" font-weight="bold" text-anchor="end" transform="rotate(-60, 724.2068965517242, 512.4)">
cfunc_itself
</text>
<rect x="738.7931034482758" y="454.60017999701506" width="9.724137931034482" height="43.39982000298485" fill="#7070f8" data-tooltip="1.00x baseline speed (No JIT)"/>
<line x1="738.7931034482758" y1="454.5682230906002" x2="748.5172413793103" y2="454.5682230906002" stroke="#000"/>
<line x1="738.7931034482758" y1="454.6321369034299" x2="748.5172413793103" y2="454.6321369034299" stroke="#000"/>
<line x1="743.6551724137931" y1="454.5682230906002" x2="743.6551724137931" y2="454.6321369034299" stroke="#000"/>
<rect x="748.5172413793103" y="329.84049253080383" width="9.724137931034482" height="168.1595074691961" fill="orange" data-tooltip="3.87x baseline speed (YJIT)"/>
<line x1="748.5172413793103" y1="329.6922365308448" x2="758.2413793103448" y2="329.6922365308448" stroke="#000"/>
<line x1="748.5172413793103" y1="329.9887485307629" x2="758.2413793103448" y2="329.9887485307629" stroke="#000"/>
<line x1="753.3793103448276" y1="329.6922365308448" x2="753.3793103448276" y2="329.9887485307629" stroke="#000"/>
<line x1="753.3793103448277" y1="498.0" x2="753.3793103448277" y2="502.79999999999995" stroke="#000"/>
<text x="753.3793103448277" y="512.4" fill="#111" font-size="small" font-family="monospace" font-weight="bold" text-anchor="end" transform="rotate(-60, 753.3793103448277, 512.4)">
fib
</text>
<rect x="767.9655172413793" y="454.60017999701506" width="9.724137931034482" height="43.39982000298485" fill="#7070f8" data-tooltip="1.00x baseline speed (No JIT)"/>
<line x1="767.9655172413793" y1="454.5624028242071" x2="777.6896551724137" y2="454.5624028242071" stroke="#000"/>
<line x1="767.9655172413793" y1="454.637957169823" x2="777.6896551724137" y2="454.637957169823" stroke="#000"/>
<line x1="772.8275862068965" y1="454.5624028242071" x2="772.8275862068965" y2="454.637957169823" stroke="#000"/>
<rect x="777.6896551724137" y="388.6816353941964" width="9.724137931034482" height="109.31836460580351" fill="orange" data-tooltip="2.52x baseline speed (YJIT)"/>
<line x1="777.6896551724137" y1="388.4373389781765" x2="787.4137931034481" y2="388.4373389781765" stroke="#000"/>
<line x1="777.6896551724137" y1="388.92593181021635" x2="787.4137931034481" y2="388.92593181021635" stroke="#000"/>
<line x1="782.5517241379309" y1="388.4373389781765" x2="782.5517241379309" y2="388.92593181021635" stroke="#000"/>
<line x1="782.551724137931" y1="498.0" x2="782.551724137931" y2="502.79999999999995" stroke="#000"/>
<text x="782.551724137931" y="512.4" fill="#111" font-size="small" font-family="monospace" font-weight="bold" text-anchor="end" transform="rotate(-60, 782.551724137931, 512.4)">
getivar
</text>
<rect x="797.1379310344827" y="454.60017999701506" width="9.724137931034482" height="43.39982000298485" fill="#7070f8" data-tooltip="1.00x baseline speed (No JIT)"/>
<line x1="797.1379310344827" y1="454.5584586663052" x2="806.8620689655172" y2="454.5584586663052" stroke="#000"/>
<line x1="797.1379310344827" y1="454.6419013277249" x2="806.8620689655172" y2="454.6419013277249" stroke="#000"/>
<line x1="801.9999999999999" y1="454.5584586663052" x2="801.9999999999999" y2="454.6419013277249" stroke="#000"/>
<rect x="806.8620689655172" y="266.00013913698723" width="9.724137931034482" height="231.99986086301269" fill="orange" data-tooltip="5.35x baseline speed (YJIT)"/>
<line x1="806.8620689655172" y1="265.34809079529055" x2="816.5862068965516" y2="265.34809079529055" stroke="#000"/>
<line x1="806.8620689655172" y1="266.6521874786839" x2="816.5862068965516" y2="266.6521874786839" stroke="#000"/>
<line x1="811.7241379310344" y1="265.34809079529055" x2="811.7241379310344" y2="266.6521874786839" stroke="#000"/>
<line x1="811.7241379310345" y1="498.0" x2="811.7241379310345" y2="502.79999999999995" stroke="#000"/>
<text x="811.7241379310345" y="512.4" fill="#111" font-size="small" font-family="monospace" font-weight="bold" text-anchor="end" transform="rotate(-60, 811.7241379310345, 512.4)">
keyword_args
</text>
<rect x="826.3103448275862" y="454.60017999701506" width="9.724137931034482" height="43.39982000298485" fill="#7070f8" data-tooltip="1.00x baseline speed (No JIT)"/>
<line x1="826.3103448275862" y1="454.53368157467634" x2="836.0344827586206" y2="454.53368157467634" stroke="#000"/>
<line x1="826.3103448275862" y1="454.66667841935373" x2="836.0344827586206" y2="454.66667841935373" stroke="#000"/>
<line x1="831.1724137931034" y1="454.53368157467634" x2="831.1724137931034" y2="454.66667841935373" stroke="#000"/>
<rect x="836.0344827586206" y="100.19999999999999" width="9.724137931034482" height="397.79999999999995" fill="orange" data-tooltip="9.17x baseline speed (YJIT)"/>
<line x1="836.0344827586206" y1="98.23421273303168" x2="845.758620689655" y2="98.23421273303168" stroke="#000"/>
<line x1="836.0344827586206" y1="102.1657872669683" x2="845.758620689655" y2="102.1657872669683" stroke="#000"/>
<line x1="840.8965517241378" y1="98.23421273303168" x2="840.8965517241378" y2="102.1657872669683" stroke="#000"/>
<line x1="840.8965517241379" y1="498.0" x2="840.8965517241379" y2="502.79999999999995" stroke="#000"/>
<text x="840.8965517241379" y="512.4" fill="#111" font-size="small" font-family="monospace" font-weight="bold" text-anchor="end" transform="rotate(-60, 840.8965517241379, 512.4)">
respond_to
</text>
<rect x="855.4827586206897" y="454.60017999701506" width="9.724137931034482" height="43.39982000298485" fill="#7070f8" data-tooltip="1.00x baseline speed (No JIT)"/>
<line x1="855.4827586206897" y1="454.4025081834303" x2="865.2068965517241" y2="454.4025081834303" stroke="#000"/>
<line x1="855.4827586206897" y1="454.79785181059975" x2="865.2068965517241" y2="454.79785181059975" stroke="#000"/>
<line x1="860.3448275862069" y1="454.4025081834303" x2="860.3448275862069" y2="454.79785181059975" stroke="#000"/>
<rect x="865.2068965517241" y="298.7190037770973" width="9.724137931034482" height="199.28099622290264" fill="orange" data-tooltip="4.59x baseline speed (YJIT)"/>
<line x1="865.2068965517241" y1="297.7989358879018" x2="874.9310344827586" y2="297.7989358879018" stroke="#000"/>
<line x1="865.2068965517241" y1="299.6390716662928" x2="874.9310344827586" y2="299.6390716662928" stroke="#000"/>
<line x1="870.0689655172413" y1="297.7989358879018" x2="870.0689655172413" y2="299.6390716662928" stroke="#000"/>
<line x1="870.0689655172414" y1="498.0" x2="870.0689655172414" y2="502.79999999999995" stroke="#000"/>
<text x="870.0689655172414" y="512.4" fill="#111" font-size="small" font-family="monospace" font-weight="bold" text-anchor="end" transform="rotate(-60, 870.0689655172414, 512.4)">
setivar
</text>
<rect x="884.6551724137931" y="454.60017999701506" width="9.724137931034482" height="43.39982000298485" fill="#7070f8" data-tooltip="1.00x baseline speed (No JIT)"/>
<line x1="884.6551724137931" y1="453.9220876719906" x2="894.3793103448276" y2="453.9220876719906" stroke="#000"/>
<line x1="884.6551724137931" y1="455.2782723220395" x2="894.3793103448276" y2="455.2782723220395" stroke="#000"/>
<line x1="889.5172413793103" y1="453.9220876719906" x2="889.5172413793103" y2="455.2782723220395" stroke="#000"/>
<rect x="894.3793103448276" y="401.0353686882934" width="9.724137931034482" height="96.96463131170657" fill="orange" data-tooltip="2.23x baseline speed (YJIT)"/>
<line x1="894.3793103448276" y1="399.2924661549723" x2="904.103448275862" y2="399.2924661549723" stroke="#000"/>
<line x1="894.3793103448276" y1="402.7782712216145" x2="904.103448275862" y2="402.7782712216145" stroke="#000"/>
<line x1="899.2413793103448" y1="399.2924661549723" x2="899.2413793103448" y2="402.7782712216145" stroke="#000"/>
<line x1="899.2413793103449" y1="498.0" x2="899.2413793103449" y2="502.79999999999995" stroke="#000"/>
<text x="899.2413793103449" y="512.4" fill="#111" font-size="small" font-family="monospace" font-weight="bold" text-anchor="end" transform="rotate(-60, 899.2413793103449, 512.4)">
setivar_object
</text>
<rect x="913.8275862068965" y="454.60017999701506" width="9.724137931034482" height="43.39982000298485" fill="#7070f8" data-tooltip="1.00x baseline speed (No JIT)"/>
<line x1="913.8275862068965" y1="454.3068773443168" x2="923.5517241379309" y2="454.3068773443168" stroke="#000"/>
<line x1="913.8275862068965" y1="454.89348264971335" x2="923.5517241379309" y2="454.89348264971335" stroke="#000"/>
<line x1="918.6896551724137" y1="454.3068773443168" x2="918.6896551724137" y2="454.89348264971335" stroke="#000"/>
<rect x="923.5517241379309" y="408.85546870490487" width="9.724137931034482" height="89.14453129509506" fill="orange" data-tooltip="2.05x baseline speed (YJIT)"/>
<line x1="923.5517241379309" y1="407.34581597321977" x2="933.2758620689654" y2="407.34581597321977" stroke="#000"/>
<line x1="923.5517241379309" y1="410.3651214365899" x2="933.2758620689654" y2="410.3651214365899" stroke="#000"/>
<line x1="928.4137931034481" y1="407.34581597321977" x2="928.4137931034481" y2="410.3651214365899" stroke="#000"/>
<line x1="928.4137931034483" y1="498.0" x2="928.4137931034483" y2="502.79999999999995" stroke="#000"/>
<text x="928.4137931034483" y="512.4" fill="#111" font-size="small" font-family="monospace" font-weight="bold" text-anchor="end" transform="rotate(-60, 928.4137931034483, 512.4)">
str_concat
</text>
</svg>