<svg viewBox="0 0 1000 600" xmlns="http://www.w3.org/2000/svg" xmlns:xlink="http://www.w3.org/1999/xlink" width="100%" height="100%">

<rect x="50.0" y="30.0" width="940.0" height="467.99999999999994" stroke="#000" fill="#EEE"/>
<line x1="42.0" y1="497.9999999999999" x2="50.0" y2="497.9999999999999" stroke="#000"/>
<text x="26.000000000000004" y="497.9999999999999" text-anchor="end" font-weight="bold" font-size="small" fill="#111">
0.0
</text>
<line x1="42.0" y1="454.51989084893387" x2="50.0" y2="454.51989084893387" stroke="#000"/>
<text x="26.000000000000004" y="454.51989084893387" text-anchor="end" font-weight="bold" font-size="small" fill="#111">
0.2
</text>
<line x1="42.0" y1="411.0397816978677" x2="50.0" y2="411.0397816978677" stroke="#000"/>
<text x="26.000000000000004" y="411.0397816978677" text-anchor="end" font-weight="bold" font-size="small" fill="#111">
0.4
</text>
<line x1="42.0" y1="367.5596725468016" x2="50.0" y2="367.5596725468016" stroke="#000"/>
<text x="26.000000000000004" y="367.5596725468016" text-anchor="end" font-weight="bold" font-size="small" fill="#111">
0.6
</text>
<line x1="42.0" y1="324.0795633957355" x2="50.0" y2="324.0795633957355" stroke="#000"/>
<text x="26.000000000000004" y="324.0795633957355" text-anchor="end" font-weight="bold" font-size="small" fill="#111">
0.8
</text>
<line x1="42.0" y1="280.5994542446694" x2="50.0" y2="280.5994542446694" stroke="#000"/>
<text x="26.000000000000004" y="280.5994542446694" text-anchor="end" font-weight="bold" font-size="small" fill="#111">
1.0
</text>
<line x1="42.0" y1="237.11934509360324" x2="50.0" y2="237.11934509360324" stroke="#000"/>
<text x="26.000000000000004" y="237.11934509360324" text-anchor="end" font-weight="bold" font-size="small" fill="#111">
1.2
</text>
<line x1="42.0" y1="193.63923594253717" x2="50.0" y2="193.63923594253717" stroke="#000"/>
<text x="26.000000000000004" y="193.63923594253717" text-anchor="end" font-weight="bold" font-size="small" fill="#111">
1.4
</text>
<line x1="42.0" y1="150.15912679147107" x2="50.0" y2="150.15912679147107" stroke="#000"/>
<text x="26.000000000000004" y="150.15912679147107" text-anchor="end" font-weight="bold" font-size="small" fill="#111">
1.6
</text>
<line x1="42.0" y1="106.67901764040494" x2="50.0" y2="106.67901764040494" stroke="#000"/>
<text x="26.000000000000004" y="106.67901764040494" text-anchor="end" font-weight="bold" font-size="small" fill="#111">
1.8
</text>
<rect x="268.5" y="36.00000000000001" width="80.0" height="18.0" fill="#7070f8" stroke="#888"/>
<text x="308.5" y="52.50000000000001" font-size="small" text-anchor="middle" font-weight="bold" fill="#EEE">
No JIT
</text>
<rect x="691.4999999999999" y="36.00000000000001" width="80.0" height="18.0" fill="orange" stroke="#888"/>
<text x="731.4999999999999" y="52.50000000000001" font-size="small" text-anchor="middle" font-weight="bold" fill="#EEE">
YJIT
</text>
<rect x="97.0" y="280.5994542446694" width="25.636363636363637" height="217.40054575533057" fill="#7070f8" data-tooltip="1.00x baseline speed (No JIT)"/>
<line x1="97.0" y1="279.51702044539917" x2="122.63636363636364" y2="279.51702044539917" stroke="#000"/>
<line x1="97.0" y1="281.6818880439396" x2="122.63636363636364" y2="281.6818880439396" stroke="#000"/>
<line x1="109.81818181818181" y1="279.51702044539917" x2="109.81818181818181" y2="281.6818880439396" stroke="#000"/>
<rect x="122.63636363636364" y="101.7760892667536" width="25.636363636363637" height="396.2239107332464" fill="orange" data-tooltip="1.82x baseline speed (YJIT)"/>
<line x1="122.63636363636364" y1="98.09905143722231" x2="148.27272727272728" y2="98.09905143722231" stroke="#000"/>
<line x1="122.63636363636364" y1="105.45312709628487" x2="148.27272727272728" y2="105.45312709628487" stroke="#000"/>
<line x1="135.45454545454547" y1="98.09905143722231" x2="135.45454545454547" y2="105.45312709628487" stroke="#000"/>
<line x1="135.45454545454547" y1="498.0" x2="135.45454545454547" y2="502.79999999999995" stroke="#000"/>
<text x="135.45454545454547" y="512.4" fill="#111" font-size="small" font-family="monospace" font-weight="bold" text-anchor="end" transform="rotate(-60, 135.45454545454547, 512.4)">
activerecord
</text>
<rect x="173.9090909090909" y="280.5994542446694" width="25.636363636363637" height="217.40054575533057" fill="#7070f8" data-tooltip="1.00x baseline speed (No JIT)"/>
<line x1="173.9090909090909" y1="276.05667582537814" x2="199.54545454545453" y2="276.05667582537814" stroke="#000"/>
<line x1="173.9090909090909" y1="285.1422326639606" x2="199.54545454545453" y2="285.1422326639606" stroke="#000"/>
<line x1="186.72727272727272" y1="276.05667582537814" x2="186.72727272727272" y2="285.1422326639606" stroke="#000"/>
<rect x="199.54545454545453" y="130.39277806185498" width="25.636363636363637" height="367.6072219381449" fill="orange" data-tooltip="1.69x baseline speed (YJIT)"/>
<line x1="199.54545454545453" y1="115.71227336187889" x2="225.18181818181816" y2="115.71227336187889" stroke="#000"/>
<line x1="199.54545454545453" y1="145.07328276183108" x2="225.18181818181816" y2="145.07328276183108" stroke="#000"/>
<line x1="212.36363636363635" y1="115.71227336187889" x2="212.36363636363635" y2="145.07328276183108" stroke="#000"/>
<line x1="212.36363636363637" y1="498.0" x2="212.36363636363637" y2="502.79999999999995" stroke="#000"/>
<text x="212.36363636363637" y="512.4" fill="#111" font-size="small" font-family="monospace" font-weight="bold" text-anchor="end" transform="rotate(-60, 212.36363636363637, 512.4)">
erubi_rails
</text>
<rect x="250.81818181818184" y="280.5994542446694" width="25.636363636363637" height="217.40054575533057" fill="#7070f8" data-tooltip="1.00x baseline speed (No JIT)"/>
<line x1="250.81818181818184" y1="279.5636226145731" x2="276.45454545454544" y2="279.5636226145731" stroke="#000"/>
<line x1="250.81818181818184" y1="281.63528587476566" x2="276.45454545454544" y2="281.63528587476566" stroke="#000"/>
<line x1="263.6363636363637" y1="279.5636226145731" x2="263.6363636363637" y2="281.63528587476566" stroke="#000"/>
<rect x="276.45454545454544" y="157.50328303006955" width="25.636363636363637" height="340.4967169699304" fill="orange" data-tooltip="1.57x baseline speed (YJIT)"/>
<line x1="276.45454545454544" y1="148.37844756269126" x2="302.09090909090907" y2="148.37844756269126" stroke="#000"/>
<line x1="276.45454545454544" y1="166.62811849744782" x2="302.09090909090907" y2="166.62811849744782" stroke="#000"/>
<line x1="289.2727272727273" y1="148.37844756269126" x2="289.2727272727273" y2="166.62811849744782" stroke="#000"/>
<line x1="289.2727272727273" y1="498.0" x2="289.2727272727273" y2="502.79999999999995" stroke="#000"/>
<text x="289.2727272727273" y="512.4" fill="#111" font-size="small" font-family="monospace" font-weight="bold" text-anchor="end" transform="rotate(-60, 289.2727272727273, 512.4)">
hexapdf
</text>
<rect x="327.72727272727275" y="280.5994542446694" width="25.636363636363637" height="217.40054575533057" fill="#7070f8" data-tooltip="1.00x baseline speed (No JIT)"/>
<line x1="327.72727272727275" y1="277.6885762827606" x2="353.3636363636364" y2="277.6885762827606" stroke="#000"/>
<line x1="327.72727272727275" y1="283.51033220657814" x2="353.3636363636364" y2="283.51033220657814" stroke="#000"/>
<line x1="340.5454545454546" y1="277.6885762827606" x2="340.5454545454546" y2="283.51033220657814" stroke="#000"/>
<rect x="353.3636363636364" y="200.7328305630732" width="25.636363636363637" height="297.2671694369267" fill="orange" data-tooltip="1.37x baseline speed (YJIT)"/>
<line x1="353.3636363636364" y1="193.29385787773688" x2="379.0" y2="193.29385787773688" stroke="#000"/>
<line x1="353.3636363636364" y1="208.1718032484095" x2="379.0" y2="208.1718032484095" stroke="#000"/>
<line x1="366.18181818181824" y1="193.29385787773688" x2="366.18181818181824" y2="208.1718032484095" stroke="#000"/>
<line x1="366.18181818181824" y1="498.0" x2="366.18181818181824" y2="502.79999999999995" stroke="#000"/>
<text x="366.18181818181824" y="512.4" fill="#111" font-size="small" font-family="monospace" font-weight="bold" text-anchor="end" transform="rotate(-60, 366.18181818181824, 512.4)">
liquid-c
</text>
<rect x="404.6363636363637" y="280.5994542446694" width="25.636363636363637" height="217.40054575533057" fill="#7070f8" data-tooltip="1.00x baseline speed (No JIT)"/>
<line x1="404.6363636363637" y1="274.1231745231493" x2="430.2727272727273" y2="274.1231745231493" stroke="#000"/>
<line x1="404.6363636363637" y1="287.07573396618943" x2="430.2727272727273" y2="287.07573396618943" stroke="#000"/>
<line x1="417.4545454545455" y1="274.1231745231493" x2="417.4545454545455" y2="287.07573396618943" stroke="#000"/>
<rect x="430.2727272727273" y="204.1077588322214" width="25.636363636363637" height="293.89224116777854" fill="orange" data-tooltip="1.35x baseline speed (YJIT)"/>
<line x1="430.2727272727273" y1="186.87471625541528" x2="455.90909090909093" y2="186.87471625541528" stroke="#000"/>
<line x1="430.2727272727273" y1="221.34080140902753" x2="455.90909090909093" y2="221.34080140902753" stroke="#000"/>
<line x1="443.0909090909091" y1="186.87471625541528" x2="443.0909090909091" y2="221.34080140902753" stroke="#000"/>
<line x1="443.0909090909091" y1="498.0" x2="443.0909090909091" y2="502.79999999999995" stroke="#000"/>
<text x="443.0909090909091" y="512.4" fill="#111" font-size="small" font-family="monospace" font-weight="bold" text-anchor="end" transform="rotate(-60, 443.0909090909091, 512.4)">
liquid-compile
</text>
<rect x="481.5454545454546" y="280.5994542446694" width="25.636363636363637" height="217.40054575533057" fill="#7070f8" data-tooltip="1.00x baseline speed (No JIT)"/>
<line x1="481.5454545454546" y1="277.81674348282223" x2="507.1818181818183" y2="277.81674348282223" stroke="#000"/>
<line x1="481.5454545454546" y1="283.3821650065165" x2="507.1818181818183" y2="283.3821650065165" stroke="#000"/>
<line x1="494.36363636363643" y1="277.81674348282223" x2="494.36363636363643" y2="283.3821650065165" stroke="#000"/>
<rect x="507.1818181818183" y="100.19999999999999" width="25.636363636363637" height="397.79999999999995" fill="orange" data-tooltip="1.83x baseline speed (YJIT)"/>
<line x1="507.1818181818183" y1="88.67446770396474" x2="532.818181818182" y2="88.67446770396474" stroke="#000"/>
<line x1="507.1818181818183" y1="111.72553229603524" x2="532.818181818182" y2="111.72553229603524" stroke="#000"/>
<line x1="520.0000000000001" y1="88.67446770396474" x2="520.0000000000001" y2="111.72553229603524" stroke="#000"/>
<line x1="520.0" y1="498.0" x2="520.0" y2="502.79999999999995" stroke="#000"/>
<text x="520.0" y="512.4" fill="#111" font-size="small" font-family="monospace" font-weight="bold" text-anchor="end" transform="rotate(-60, 520.0, 512.4)">
liquid-render
</text>
<rect x="558.4545454545454" y="280.5994542446694" width="25.636363636363637" height="217.40054575533057" fill="#7070f8" data-tooltip="1.00x baseline speed (No JIT)"/>
<line x1="558.4545454545454" y1="280.31647000155687" x2="584.0909090909091" y2="280.31647000155687" stroke="#000"/>
<line x1="558.4545454545454" y1="280.8824384877819" x2="584.0909090909091" y2="280.8824384877819" stroke="#000"/>
<line x1="571.2727272727273" y1="280.31647000155687" x2="571.2727272727273" y2="280.8824384877819" stroke="#000"/>
<rect x="584.0909090909091" y="211.18843460558676" width="25.636363636363637" height="286.8115653944132" fill="orange" data-tooltip="1.32x baseline speed (YJIT)"/>
<line x1="584.0909090909091" y1="210.0728567401389" x2="609.7272727272727" y2="210.0728567401389" stroke="#000"/>
<line x1="584.0909090909091" y1="212.30401247103464" x2="609.7272727272727" y2="212.30401247103464" stroke="#000"/>
<line x1="596.909090909091" y1="210.0728567401389" x2="596.909090909091" y2="212.30401247103464" stroke="#000"/>
<line x1="596.9090909090909" y1="498.0" x2="596.9090909090909" y2="502.79999999999995" stroke="#000"/>
<text x="596.9090909090909" y="512.4" fill="#111" font-size="small" font-family="monospace" font-weight="bold" text-anchor="end" transform="rotate(-60, 596.9090909090909, 512.4)">
mail
</text>
<rect x="635.3636363636364" y="280.5994542446694" width="25.636363636363637" height="217.40054575533057" fill="#7070f8" data-tooltip="1.00x baseline speed (No JIT)"/>
<line x1="635.3636363636364" y1="280.2493962491464" x2="661.0" y2="280.2493962491464" stroke="#000"/>
<line x1="635.3636363636364" y1="280.94951224019235" x2="661.0" y2="280.94951224019235" stroke="#000"/>
<line x1="648.1818181818182" y1="280.2493962491464" x2="648.1818181818182" y2="280.94951224019235" stroke="#000"/>
<rect x="661.0" y="188.70511421488618" width="25.636363636363637" height="309.2948857851138" fill="orange" data-tooltip="1.42x baseline speed (YJIT)"/>
<line x1="661.0" y1="188.0924785063117" x2="686.6363636363637" y2="188.0924785063117" stroke="#000"/>
<line x1="661.0" y1="189.31774992346067" x2="686.6363636363637" y2="189.31774992346067" stroke="#000"/>
<line x1="673.8181818181819" y1="188.0924785063117" x2="673.8181818181819" y2="189.31774992346067" stroke="#000"/>
<line x1="673.8181818181818" y1="498.0" x2="673.8181818181818" y2="502.79999999999995" stroke="#000"/>
<text x="673.8181818181818" y="512.4" fill="#111" font-size="small" font-family="monospace" font-weight="bold" text-anchor="end" transform="rotate(-60, 673.8181818181818, 512.4)">
psych-load
</text>
<rect x="712.2727272727273" y="280.5994542446694" width="25.636363636363637" height="217.40054575533057" fill="#7070f8" data-tooltip="1.00x baseline speed (No JIT)"/>
<line x1="712.2727272727273" y1="279.0743769683087" x2="737.909090909091" y2="279.0743769683087" stroke="#000"/>
<line x1="712.2727272727273" y1="282.12453152103006" x2="737.909090909091" y2="282.12453152103006" stroke="#000"/>
<line x1="725.0909090909091" y1="279.0743769683087" x2="725.0909090909091" y2="282.12453152103006" stroke="#000"/>
<rect x="737.909090909091" y="167.79116625036113" width="25.636363636363637" height="330.20883374963887" fill="orange" data-tooltip="1.52x baseline speed (YJIT)"/>
<line x1="737.909090909091" y1="163.36126069893558" x2="763.5454545454546" y2="163.36126069893558" stroke="#000"/>
<line x1="737.909090909091" y1="172.22107180178668" x2="763.5454545454546" y2="172.22107180178668" stroke="#000"/>
<line x1="750.7272727272727" y1="163.36126069893558" x2="750.7272727272727" y2="172.22107180178668" stroke="#000"/>
<line x1="750.7272727272726" y1="498.0" x2="750.7272727272726" y2="502.79999999999995" stroke="#000"/>
<text x="750.7272727272726" y="512.4" fill="#111" font-size="small" font-family="monospace" font-weight="bold" text-anchor="end" transform="rotate(-60, 750.7272727272726, 512.4)">
railsbench
</text>
<rect x="789.1818181818182" y="280.5994542446694" width="25.636363636363637" height="217.40054575533057" fill="#7070f8" data-tooltip="1.00x baseline speed (No JIT)"/>
<line x1="789.1818181818182" y1="261.9234436844059" x2="814.8181818181819" y2="261.9234436844059" stroke="#000"/>
<line x1="789.1818181818182" y1="299.2754648049328" x2="814.8181818181819" y2="299.2754648049328" stroke="#000"/>
<line x1="802.0" y1="261.9234436844059" x2="802.0" y2="299.2754648049328" stroke="#000"/>
<rect x="814.8181818181819" y="193.03513596248624" width="25.636363636363637" height="304.9648640375137" fill="orange" data-tooltip="1.40x baseline speed (YJIT)"/>
<line x1="814.8181818181819" y1="127.01472278652699" x2="840.4545454545456" y2="127.01472278652699" stroke="#000"/>
<line x1="814.8181818181819" y1="259.0555491384455" x2="840.4545454545456" y2="259.0555491384455" stroke="#000"/>
<line x1="827.6363636363637" y1="127.01472278652699" x2="827.6363636363637" y2="259.0555491384455" stroke="#000"/>
<line x1="827.6363636363636" y1="498.0" x2="827.6363636363636" y2="502.79999999999995" stroke="#000"/>
<text x="827.6363636363636" y="512.4" fill="#111" font-size="small" font-family="monospace" font-weight="bold" text-anchor="end" transform="rotate(-60, 827.6363636363636, 512.4)">
ruby-lsp
</text>
<rect x="866.0909090909091" y="280.5994542446694" width="25.636363636363637" height="217.40054575533057" fill="#7070f8" data-tooltip="1.00x baseline speed (No JIT)"/>
<line x1="866.0909090909091" y1="279.5425663620475" x2="891.7272727272729" y2="279.5425663620475" stroke="#000"/>
<line x1="866.0909090909091" y1="281.6563421272913" x2="891.7272727272729" y2="281.6563421272913" stroke="#000"/>
<line x1="878.909090909091" y1="279.5425663620475" x2="878.909090909091" y2="281.6563421272913" stroke="#000"/>
<rect x="891.7272727272729" y="220.61499710692593" width="25.636363636363637" height="277.385002893074" fill="orange" data-tooltip="1.28x baseline speed (YJIT)"/>
<line x1="891.7272727272729" y1="218.9245664853014" x2="917.3636363636365" y2="218.9245664853014" stroke="#000"/>
<line x1="891.7272727272729" y1="222.30542772855048" x2="917.3636363636365" y2="222.30542772855048" stroke="#000"/>
<line x1="904.5454545454546" y1="218.9245664853014" x2="904.5454545454546" y2="222.30542772855048" stroke="#000"/>
<line x1="904.5454545454545" y1="498.0" x2="904.5454545454545" y2="502.79999999999995" stroke="#000"/>
<text x="904.5454545454545" y="512.4" fill="#111" font-size="small" font-family="monospace" font-weight="bold" text-anchor="end" transform="rotate(-60, 904.5454545454545, 512.4)">
sequel
</text>
</svg>