<svg viewBox="0 0 1000 600" xmlns="http://www.w3.org/2000/svg" xmlns:xlink="http://www.w3.org/1999/xlink" width="100%" height="100%">

<rect x="50.0" y="30.0" width="940.0" height="467.99999999999994" stroke="#000" fill="#EEE"/>
<line x1="42.0" y1="497.9999999999999" x2="50.0" y2="497.9999999999999" stroke="#000"/>
<text x="26.000000000000004" y="497.9999999999999" text-anchor="end" font-weight="bold" font-size="small" fill="#111">
0.0
</text>
<line x1="42.0" y1="445.31847822279815" x2="50.0" y2="445.31847822279815" stroke="#000"/>
<text x="26.000000000000004" y="445.31847822279815" text-anchor="end" font-weight="bold" font-size="small" fill="#111">
0.2
</text>
<line x1="42.0" y1="392.6369564455963" x2="50.0" y2="392.6369564455963" stroke="#000"/>
<text x="26.000000000000004" y="392.6369564455963" text-anchor="end" font-weight="bold" font-size="small" fill="#111">
0.4
</text>
<line x1="42.0" y1="339.95543466839445" x2="50.0" y2="339.95543466839445" stroke="#000"/>
<text x="26.000000000000004" y="339.95543466839445" text-anchor="end" font-weight="bold" font-size="small" fill="#111">
0.6
</text>
<line x1="42.0" y1="287.27391289119265" x2="50.0" y2="287.27391289119265" stroke="#000"/>
<text x="26.000000000000004" y="287.27391289119265" text-anchor="end" font-weight="bold" font-size="small" fill="#111">
0.8
</text>
<line x1="42.0" y1="234.59239111399086" x2="50.0" y2="234.59239111399086" stroke="#000"/>
<text x="26.000000000000004" y="234.59239111399086" text-anchor="end" font-weight="bold" font-size="small" fill="#111">
1.0
</text>
<line x1="42.0" y1="181.91086933678903" x2="50.0" y2="181.91086933678903" stroke="#000"/>
<text x="26.000000000000004" y="181.91086933678903" text-anchor="end" font-weight="bold" font-size="small" fill="#111">
1.2
</text>
<line x1="42.0" y1="129.22934755958724" x2="50.0" y2="129.22934755958724" stroke="#000"/>
<text x="26.000000000000004" y="129.22934755958724" text-anchor="end" font-weight="bold" font-size="small" fill="#111">
1.4
</text>
<rect x="268.5" y="36.00000000000001" width="80.0" height="18.0" fill="#7070f8" stroke="#888"/>
<text x="308.5" y="52.50000000000001" font-size="small" text-anchor="middle" font-weight="bold" fill="#EEE">
No JIT
</text>
<rect x="691.4999999999999" y="36.00000000000001" width="80.0" height="18.0" fill="orange" stroke="#888"/>
<text x="731.4999999999999" y="52.50000000000001" font-size="small" text-anchor="middle" font-weight="bold" fill="#EEE">
YJIT
</text>
<rect x="97.0" y="234.59239111399086" width="31.333333333333332" height="263.4076088860091" fill="#7070f8" data-tooltip="1.00x baseline speed (No JIT)"/>
<line x1="97.0" y1="234.02754858223994" x2="128.33333333333331" y2="234.02754858223994" stroke="#000"/>
<line x1="97.0" y1="235.15723364574174" x2="128.33333333333331" y2="235.15723364574174" stroke="#000"/>
<line x1="112.66666666666667" y1="234.02754858223994" x2="112.66666666666667" y2="235.15723364574174" stroke="#000"/>
<rect x="128.33333333333331" y="158.92688696580257" width="31.333333333333332" height="339.0731130341974" fill="orange" data-tooltip="1.29x baseline speed (YJIT)"/>
<line x1="128.33333333333331" y1="157.91042640174834" x2="159.66666666666666" y2="157.91042640174834" stroke="#000"/>
<line x1="128.33333333333331" y1="159.9433475298568" x2="159.66666666666666" y2="159.9433475298568" stroke="#000"/>
<line x1="144.0" y1="157.91042640174834" x2="144.0" y2="159.9433475298568" stroke="#000"/>
<line x1="144.00000000000003" y1="498.0" x2="144.00000000000003" y2="502.79999999999995" stroke="#000"/>
<text x="144.00000000000003" y="512.4" fill="#111" font-size="small" font-family="monospace" font-weight="bold" text-anchor="end" transform="rotate(-60, 144.00000000000003, 512.4)">
activerecord
</text>
<rect x="191.0" y="234.59239111399086" width="31.333333333333332" height="263.4076088860091" fill="#7070f8" data-tooltip="1.00x baseline speed (No JIT)"/>
<line x1="191.0" y1="233.15677807821922" x2="222.33333333333331" y2="233.15677807821922" stroke="#000"/>
<line x1="191.0" y1="236.02800414976247" x2="222.33333333333331" y2="236.02800414976247" stroke="#000"/>
<line x1="206.66666666666666" y1="233.15677807821922" x2="206.66666666666666" y2="236.02800414976247" stroke="#000"/>
<rect x="222.33333333333331" y="159.88924849635495" width="31.333333333333332" height="338.11075150364496" fill="orange" data-tooltip="1.28x baseline speed (YJIT)"/>
<line x1="222.33333333333331" y1="152.5615954415033" x2="253.66666666666666" y2="152.5615954415033" stroke="#000"/>
<line x1="222.33333333333331" y1="167.21690155120663" x2="253.66666666666666" y2="167.21690155120663" stroke="#000"/>
<line x1="238.0" y1="152.5615954415033" x2="238.0" y2="167.21690155120663" stroke="#000"/>
<line x1="238.0" y1="498.0" x2="238.0" y2="502.79999999999995" stroke="#000"/>
<text x="238.0" y="512.4" fill="#111" font-size="small" font-family="monospace" font-weight="bold" text-anchor="end" transform="rotate(-60, 238.0, 512.4)">
hexapdf
</text>
<rect x="285.00000000000006" y="234.59239111399086" width="31.333333333333332" height="263.4076088860091" fill="#7070f8" data-tooltip="1.00x baseline speed (No JIT)"/>
<line x1="285.00000000000006" y1="231.1775794087534" x2="316.33333333333337" y2="231.1775794087534" stroke="#000"/>
<line x1="285.00000000000006" y1="238.00720281922833" x2="316.33333333333337" y2="238.00720281922833" stroke="#000"/>
<line x1="300.6666666666667" y1="231.1775794087534" x2="300.6666666666667" y2="238.00720281922833" stroke="#000"/>
<rect x="316.33333333333337" y="181.28609207951928" width="31.333333333333332" height="316.7139079204807" fill="orange" data-tooltip="1.20x baseline speed (YJIT)"/>
<line x1="316.33333333333337" y1="174.39122304443455" x2="347.6666666666667" y2="174.39122304443455" stroke="#000"/>
<line x1="316.33333333333337" y1="188.180961114604" x2="347.6666666666667" y2="188.180961114604" stroke="#000"/>
<line x1="332.0" y1="174.39122304443455" x2="332.0" y2="188.180961114604" stroke="#000"/>
<line x1="332.0" y1="498.0" x2="332.0" y2="502.79999999999995" stroke="#000"/>
<text x="332.0" y="512.4" fill="#111" font-size="small" font-family="monospace" font-weight="bold" text-anchor="end" transform="rotate(-60, 332.0, 512.4)">
liquid-c
</text>
<rect x="379.0" y="234.59239111399086" width="31.333333333333332" height="263.4076088860091" fill="#7070f8" data-tooltip="1.00x baseline speed (No JIT)"/>
<line x1="379.0" y1="231.26854762512906" x2="410.3333333333333" y2="231.26854762512906" stroke="#000"/>
<line x1="379.0" y1="237.91623460285263" x2="410.3333333333333" y2="237.91623460285263" stroke="#000"/>
<line x1="394.6666666666667" y1="231.26854762512906" x2="394.6666666666667" y2="237.91623460285263" stroke="#000"/>
<rect x="410.3333333333333" y="100.19999999999999" width="31.333333333333332" height="397.79999999999995" fill="orange" data-tooltip="1.51x baseline speed (YJIT)"/>
<line x1="410.3333333333333" y1="90.31523116317038" x2="441.66666666666663" y2="90.31523116317038" stroke="#000"/>
<line x1="410.3333333333333" y1="110.0847688368296" x2="441.66666666666663" y2="110.0847688368296" stroke="#000"/>
<line x1="426.0" y1="90.31523116317038" x2="426.0" y2="110.0847688368296" stroke="#000"/>
<line x1="426.0" y1="498.0" x2="426.0" y2="502.79999999999995" stroke="#000"/>
<text x="426.0" y="512.4" fill="#111" font-size="small" font-family="monospace" font-weight="bold" text-anchor="end" transform="rotate(-60, 426.0, 512.4)">
liquid-render
</text>
<rect x="473.0" y="234.59239111399086" width="31.333333333333332" height="263.4076088860091" fill="#7070f8" data-tooltip="1.00x baseline speed (No JIT)"/>
<line x1="473.0" y1="234.29282397181353" x2="504.3333333333333" y2="234.29282397181353" stroke="#000"/>
<line x1="473.0" y1="234.89195825616815" x2="504.3333333333333" y2="234.89195825616815" stroke="#000"/>
<line x1="488.66666666666663" y1="234.29282397181353" x2="488.66666666666663" y2="234.89195825616815" stroke="#000"/>
<rect x="504.3333333333333" y="180.35590775201916" width="31.333333333333332" height="317.6440922479808" fill="orange" data-tooltip="1.21x baseline speed (YJIT)"/>
<line x1="504.3333333333333" y1="179.54870210271997" x2="535.6666666666666" y2="179.54870210271997" stroke="#000"/>
<line x1="504.3333333333333" y1="181.16311340131838" x2="535.6666666666666" y2="181.16311340131838" stroke="#000"/>
<line x1="520.0" y1="179.54870210271997" x2="520.0" y2="181.16311340131838" stroke="#000"/>
<line x1="520.0" y1="498.0" x2="520.0" y2="502.79999999999995" stroke="#000"/>
<text x="520.0" y="512.4" fill="#111" font-size="small" font-family="monospace" font-weight="bold" text-anchor="end" transform="rotate(-60, 520.0, 512.4)">
mail
</text>
<rect x="567.0" y="234.59239111399086" width="31.333333333333332" height="263.4076088860091" fill="#7070f8" data-tooltip="1.00x baseline speed (No JIT)"/>
<line x1="567.0" y1="234.27365282626027" x2="598.3333333333333" y2="234.27365282626027" stroke="#000"/>
<line x1="567.0" y1="234.9111294017214" x2="598.3333333333333" y2="234.9111294017214" stroke="#000"/>
<line x1="582.6666666666666" y1="234.27365282626027" x2="582.6666666666666" y2="234.9111294017214" stroke="#000"/>
<rect x="598.3333333333333" y="148.8211040838689" width="31.333333333333332" height="349.17889591613107" fill="orange" data-tooltip="1.33x baseline speed (YJIT)"/>
<line x1="598.3333333333333" y1="148.3351603260516" x2="629.6666666666666" y2="148.3351603260516" stroke="#000"/>
<line x1="598.3333333333333" y1="149.30704784168617" x2="629.6666666666666" y2="149.30704784168617" stroke="#000"/>
<line x1="614.0" y1="148.3351603260516" x2="614.0" y2="149.30704784168617" stroke="#000"/>
<line x1="614.0" y1="498.0" x2="614.0" y2="502.79999999999995" stroke="#000"/>
<text x="614.0" y="512.4" fill="#111" font-size="small" font-family="monospace" font-weight="bold" text-anchor="end" transform="rotate(-60, 614.0, 512.4)">
psych-load
</text>
<rect x="661.0" y="234.59239111399086" width="31.333333333333332" height="263.4076088860091" fill="#7070f8" data-tooltip="1.00x baseline speed (No JIT)"/>
<line x1="661.0" y1="233.22143587731088" x2="692.3333333333334" y2="233.22143587731088" stroke="#000"/>
<line x1="661.0" y1="235.96334635067083" x2="692.3333333333334" y2="235.96334635067083" stroke="#000"/>
<line x1="676.6666666666667" y1="233.22143587731088" x2="676.6666666666667" y2="235.96334635067083" stroke="#000"/>
<rect x="692.3333333333334" y="149.75002018884118" width="31.333333333333332" height="348.24997981115877" fill="orange" data-tooltip="1.32x baseline speed (YJIT)"/>
<line x1="692.3333333333334" y1="146.65391491716474" x2="723.6666666666666" y2="146.65391491716474" stroke="#000"/>
<line x1="692.3333333333334" y1="152.8461254605176" x2="723.6666666666666" y2="152.8461254605176" stroke="#000"/>
<line x1="708.0000000000001" y1="146.65391491716474" x2="708.0000000000001" y2="152.8461254605176" stroke="#000"/>
<line x1="708.0000000000001" y1="498.0" x2="708.0000000000001" y2="502.79999999999995" stroke="#000"/>
<text x="708.0000000000001" y="512.4" fill="#111" font-size="small" font-family="monospace" font-weight="bold" text-anchor="end" transform="rotate(-60, 708.0000000000001, 512.4)">
railsbench
</text>
<rect x="755.0" y="234.59239111399086" width="31.333333333333332" height="263.4076088860091" fill="#7070f8" data-tooltip="1.00x baseline speed (No JIT)"/>
<line x1="755.0" y1="217.33001789884986" x2="786.3333333333334" y2="217.33001789884986" stroke="#000"/>
<line x1="755.0" y1="251.85476432913185" x2="786.3333333333334" y2="251.85476432913185" stroke="#000"/>
<line x1="770.6666666666667" y1="217.33001789884986" x2="770.6666666666667" y2="251.85476432913185" stroke="#000"/>
<rect x="786.3333333333334" y="194.17084586356194" width="31.333333333333332" height="303.82915413643804" fill="orange" data-tooltip="1.15x baseline speed (YJIT)"/>
<line x1="786.3333333333334" y1="152.72714826484855" x2="817.6666666666666" y2="152.72714826484855" stroke="#000"/>
<line x1="786.3333333333334" y1="235.6145434622753" x2="817.6666666666666" y2="235.6145434622753" stroke="#000"/>
<line x1="802.0" y1="152.72714826484855" x2="802.0" y2="235.6145434622753" stroke="#000"/>
<line x1="802.0" y1="498.0" x2="802.0" y2="502.79999999999995" stroke="#000"/>
<text x="802.0" y="512.4" fill="#111" font-size="small" font-family="monospace" font-weight="bold" text-anchor="end" transform="rotate(-60, 802.0, 512.4)">
ruby-lsp
</text>
<rect x="849.0" y="234.59239111399086" width="31.333333333333332" height="263.4076088860091" fill="#7070f8" data-tooltip="1.00x baseline speed (No JIT)"/>
<line x1="849.0" y1="231.01440475077254" x2="880.3333333333333" y2="231.01440475077254" stroke="#000"/>
<line x1="849.0" y1="238.17037747720917" x2="880.3333333333333" y2="238.17037747720917" stroke="#000"/>
<line x1="864.6666666666667" y1="231.01440475077254" x2="864.6666666666667" y2="238.17037747720917" stroke="#000"/>
<rect x="880.3333333333333" y="264.37676833277806" width="31.333333333333332" height="233.62323166722192" fill="orange" data-tooltip="0.89x baseline speed (YJIT)"/>
<line x1="880.3333333333333" y1="257.79832875046856" x2="911.6666666666666" y2="257.79832875046856" stroke="#000"/>
<line x1="880.3333333333333" y1="270.9552079150875" x2="911.6666666666666" y2="270.9552079150875" stroke="#000"/>
<line x1="896.0" y1="257.79832875046856" x2="896.0" y2="270.9552079150875" stroke="#000"/>
<line x1="896.0" y1="498.0" x2="896.0" y2="502.79999999999995" stroke="#000"/>
<text x="896.0" y="512.4" fill="#111" font-size="small" font-family="monospace" font-weight="bold" text-anchor="end" transform="rotate(-60, 896.0, 512.4)">
sequel
</text>
</svg>