<svg viewBox="0 0 1000 600" xmlns="http://www.w3.org/2000/svg" xmlns:xlink="http://www.w3.org/1999/xlink" width="100%" height="100%">

<rect x="50.0" y="30.0" width="940.0" height="467.99999999999994" stroke="#000" fill="#EEE"/>
<line x1="42.0" y1="497.9999999999999" x2="50.0" y2="497.9999999999999" stroke="#000"/>
<text x="26.000000000000004" y="497.9999999999999" text-anchor="end" font-weight="bold" font-size="small" fill="#111">
0.0
</text>
<line x1="42.0" y1="413.6609053296442" x2="50.0" y2="413.6609053296442" stroke="#000"/>
<text x="26.000000000000004" y="413.6609053296442" text-anchor="end" font-weight="bold" font-size="small" fill="#111">
0.5
</text>
<line x1="42.0" y1="329.32181065928836" x2="50.0" y2="329.32181065928836" stroke="#000"/>
<text x="26.000000000000004" y="329.32181065928836" text-anchor="end" font-weight="bold" font-size="small" fill="#111">
1.0
</text>
<line x1="42.0" y1="244.98271598893265" x2="50.0" y2="244.98271598893265" stroke="#000"/>
<text x="26.000000000000004" y="244.98271598893265" text-anchor="end" font-weight="bold" font-size="small" fill="#111">
1.5
</text>
<line x1="42.0" y1="160.64362131857686" x2="50.0" y2="160.64362131857686" stroke="#000"/>
<text x="26.000000000000004" y="160.64362131857686" text-anchor="end" font-weight="bold" font-size="small" fill="#111">
2.0
</text>
<rect x="197.99999999999997" y="36.00000000000001" width="80.0" height="18.0" fill="#7070f8" stroke="#888"/>
<text x="238.0" y="52.50000000000001" font-size="small" text-anchor="middle" font-weight="bold" fill="#EEE">
No JIT
</text>
<rect x="479.99999999999994" y="36.00000000000001" width="80.0" height="18.0" fill="orange" stroke="#888"/>
<text x="519.9999999999999" y="52.50000000000001" font-size="small" text-anchor="middle" font-weight="bold" fill="#EEE">
MJIT
</text>
<rect x="761.9999999999999" y="36.00000000000001" width="80.0" height="18.0" fill="green" stroke="#888"/>
<text x="801.9999999999999" y="52.50000000000001" font-size="small" text-anchor="middle" font-weight="bold" fill="#EEE">
YJIT
</text>
<rect x="97.0" y="329.32181065928836" width="23.5" height="168.67818934071153" fill="#7070f8" data-tooltip="1.00x baseline speed (No JIT)"/>
<line x1="97.0" y1="329.24770073366966" x2="120.5" y2="329.24770073366966" stroke="#000"/>
<line x1="97.0" y1="329.395920584907" x2="120.5" y2="329.395920584907" stroke="#000"/>
<line x1="108.75" y1="329.24770073366966" x2="108.75" y2="329.395920584907" stroke="#000"/>
<rect x="120.5" y="241.48861383836484" width="23.5" height="256.51138616163513" fill="orange" data-tooltip="1.52x baseline speed (MJIT)"/>
<line x1="120.5" y1="240.65552762084602" x2="144.0" y2="240.65552762084602" stroke="#000"/>
<line x1="120.5" y1="242.32170005588367" x2="144.0" y2="242.32170005588367" stroke="#000"/>
<line x1="132.25" y1="240.65552762084602" x2="132.25" y2="242.32170005588367" stroke="#000"/>
<rect x="144.00000000000003" y="276.04544696095854" width="23.5" height="221.9545530390414" fill="green" data-tooltip="1.32x baseline speed (YJIT)"/>
<line x1="144.00000000000003" y1="275.90939135308463" x2="167.5" y2="275.90939135308463" stroke="#000"/>
<line x1="144.00000000000003" y1="276.18150256883246" x2="167.5" y2="276.18150256883246" stroke="#000"/>
<line x1="155.75000000000003" y1="275.90939135308463" x2="155.75000000000003" y2="276.18150256883246" stroke="#000"/>
<line x1="144.00000000000003" y1="498.0" x2="144.00000000000003" y2="502.79999999999995" stroke="#000"/>
<text x="144.00000000000003" y="512.4" fill="#111" font-size="small" font-family="monospace" font-weight="bold" text-anchor="end" transform="rotate(-60, 144.00000000000003, 512.4)">
binarytrees
</text>
<rect x="191.0" y="329.32181065928836" width="23.5" height="168.67818934071153" fill="#7070f8" data-tooltip="1.00x baseline speed (No JIT)"/>
<line x1="191.0" y1="329.2634964466322" x2="214.5" y2="329.2634964466322" stroke="#000"/>
<line x1="191.0" y1="329.3801248719445" x2="214.5" y2="329.3801248719445" stroke="#000"/>
<line x1="202.75" y1="329.2634964466322" x2="202.75" y2="329.3801248719445" stroke="#000"/>
<rect x="214.5" y="288.6524381680101" width="23.5" height="209.34756183198985" fill="orange" data-tooltip="1.24x baseline speed (MJIT)"/>
<line x1="214.5" y1="288.52987993559026" x2="238.0" y2="288.52987993559026" stroke="#000"/>
<line x1="214.5" y1="288.7749964004299" x2="238.0" y2="288.7749964004299" stroke="#000"/>
<line x1="226.25" y1="288.52987993559026" x2="226.25" y2="288.7749964004299" stroke="#000"/>
<rect x="238.0" y="250.52858777932732" width="23.5" height="247.47141222067262" fill="green" data-tooltip="1.47x baseline speed (YJIT)"/>
<line x1="238.0" y1="250.35773013914462" x2="261.5" y2="250.35773013914462" stroke="#000"/>
<line x1="238.0" y1="250.69944541951" x2="261.5" y2="250.69944541951" stroke="#000"/>
<line x1="249.75" y1="250.35773013914462" x2="249.75" y2="250.69944541951" stroke="#000"/>
<line x1="238.0" y1="498.0" x2="238.0" y2="502.79999999999995" stroke="#000"/>
<text x="238.0" y="512.4" fill="#111" font-size="small" font-family="monospace" font-weight="bold" text-anchor="end" transform="rotate(-60, 238.0, 512.4)">
chunky_png
</text>
<rect x="285.00000000000006" y="329.32181065928836" width="23.5" height="168.67818934071153" fill="#7070f8" data-tooltip="1.00x baseline speed (No JIT)"/>
<line x1="285.00000000000006" y1="327.4901529669895" x2="308.50000000000006" y2="327.4901529669895" stroke="#000"/>
<line x1="285.00000000000006" y1="331.15346835158715" x2="308.50000000000006" y2="331.15346835158715" stroke="#000"/>
<line x1="296.75" y1="327.4901529669895" x2="296.75" y2="331.15346835158715" stroke="#000"/>
<rect x="308.50000000000006" y="309.62070497691474" width="23.5" height="188.3792950230853" fill="orange" data-tooltip="1.12x baseline speed (MJIT)"/>
<line x1="308.50000000000006" y1="307.37829664418007" x2="332.00000000000006" y2="307.37829664418007" stroke="#000"/>
<line x1="308.50000000000006" y1="311.86311330964935" x2="332.00000000000006" y2="311.86311330964935" stroke="#000"/>
<line x1="320.25000000000006" y1="307.37829664418007" x2="320.25000000000006" y2="311.86311330964935" stroke="#000"/>
<rect x="332.0" y="285.83925847474984" width="23.5" height="212.16074152525013" fill="green" data-tooltip="1.26x baseline speed (YJIT)"/>
<line x1="332.0" y1="283.08901790706113" x2="355.50000000000006" y2="283.08901790706113" stroke="#000"/>
<line x1="332.0" y1="288.5894990424385" x2="355.50000000000006" y2="288.5894990424385" stroke="#000"/>
<line x1="343.75" y1="283.08901790706113" x2="343.75" y2="288.5894990424385" stroke="#000"/>
<line x1="332.0" y1="498.0" x2="332.0" y2="502.79999999999995" stroke="#000"/>
<text x="332.0" y="512.4" fill="#111" font-size="small" font-family="monospace" font-weight="bold" text-anchor="end" transform="rotate(-60, 332.0, 512.4)">
erubi
</text>
<rect x="379.0" y="329.32181065928836" width="23.5" height="168.67818934071153" fill="#7070f8" data-tooltip="1.00x baseline speed (No JIT)"/>
<line x1="379.0" y1="325.19706060638373" x2="402.5" y2="325.19706060638373" stroke="#000"/>
<line x1="379.0" y1="333.446560712193" x2="402.5" y2="333.446560712193" stroke="#000"/>
<line x1="390.75" y1="325.19706060638373" x2="390.75" y2="333.446560712193" stroke="#000"/>
<rect x="402.5" y="330.4814645382332" width="23.5" height="167.51853546176676" fill="orange" data-tooltip="0.99x baseline speed (MJIT)"/>
<line x1="402.5" y1="324.83340915930967" x2="426.00000000000006" y2="324.83340915930967" stroke="#000"/>
<line x1="402.5" y1="336.12951991715676" x2="426.00000000000006" y2="336.12951991715676" stroke="#000"/>
<line x1="414.25" y1="324.83340915930967" x2="414.25" y2="336.12951991715676" stroke="#000"/>
<rect x="426.0" y="270.0319311067913" width="23.5" height="227.96806889320862" fill="green" data-tooltip="1.35x baseline speed (YJIT)"/>
<line x1="426.0" y1="260.60810435615963" x2="449.5" y2="260.60810435615963" stroke="#000"/>
<line x1="426.0" y1="279.455757857423" x2="449.5" y2="279.455757857423" stroke="#000"/>
<line x1="437.75" y1="260.60810435615963" x2="437.75" y2="279.455757857423" stroke="#000"/>
<line x1="426.0" y1="498.0" x2="426.0" y2="502.79999999999995" stroke="#000"/>
<text x="426.0" y="512.4" fill="#111" font-size="small" font-family="monospace" font-weight="bold" text-anchor="end" transform="rotate(-60, 426.0, 512.4)">
erubi_rails
</text>
<rect x="473.0" y="329.32181065928836" width="23.5" height="168.67818934071153" fill="#7070f8" data-tooltip="1.00x baseline speed (No JIT)"/>
<line x1="473.0" y1="328.8742016568141" x2="496.5" y2="328.8742016568141" stroke="#000"/>
<line x1="473.0" y1="329.7694196617626" x2="496.5" y2="329.7694196617626" stroke="#000"/>
<line x1="484.74999999999994" y1="328.8742016568141" x2="484.74999999999994" y2="329.7694196617626" stroke="#000"/>
<rect x="496.5" y="234.43180815678505" width="23.5" height="263.5681918432149" fill="orange" data-tooltip="1.56x baseline speed (MJIT)"/>
<line x1="496.5" y1="233.36926946952477" x2="520.0" y2="233.36926946952477" stroke="#000"/>
<line x1="496.5" y1="235.49434684404537" x2="520.0" y2="235.49434684404537" stroke="#000"/>
<line x1="508.25" y1="233.36926946952477" x2="508.25" y2="235.49434684404537" stroke="#000"/>
<rect x="520.0" y="332.46540091452584" width="23.5" height="165.5345990854741" fill="green" data-tooltip="0.98x baseline speed (YJIT)"/>
<line x1="520.0" y1="332.00953262911077" x2="543.5" y2="332.00953262911077" stroke="#000"/>
<line x1="520.0" y1="332.9212691999409" x2="543.5" y2="332.9212691999409" stroke="#000"/>
<line x1="531.75" y1="332.00953262911077" x2="531.75" y2="332.9212691999409" stroke="#000"/>
<line x1="520.0" y1="498.0" x2="520.0" y2="502.79999999999995" stroke="#000"/>
<text x="520.0" y="512.4" fill="#111" font-size="small" font-family="monospace" font-weight="bold" text-anchor="end" transform="rotate(-60, 520.0, 512.4)">
fannkuchredux
</text>
<rect x="567.0" y="329.32181065928836" width="23.5" height="168.67818934071153" fill="#7070f8" data-tooltip="1.00x baseline speed (No JIT)"/>
<line x1="567.0" y1="328.6339153438174" x2="590.4999999999999" y2="328.6339153438174" stroke="#000"/>
<line x1="567.0" y1="330.0097059747593" x2="590.4999999999999" y2="330.0097059747593" stroke="#000"/>
<line x1="578.75" y1="328.6339153438174" x2="578.75" y2="330.0097059747593" stroke="#000"/>
<rect x="590.4999999999999" y="291.6493398487366" width="23.5" height="206.35066015126338" fill="orange" data-tooltip="1.22x baseline speed (MJIT)"/>
<line x1="590.4999999999999" y1="290.51732872780525" x2="613.9999999999999" y2="290.51732872780525" stroke="#000"/>
<line x1="590.4999999999999" y1="292.78135096966787" x2="613.9999999999999" y2="292.78135096966787" stroke="#000"/>
<line x1="602.25" y1="290.51732872780525" x2="602.25" y2="292.78135096966787" stroke="#000"/>
<rect x="614.0" y="268.21746186141974" width="23.5" height="229.78253813858018" fill="green" data-tooltip="1.36x baseline speed (YJIT)"/>
<line x1="614.0" y1="265.3270271675536" x2="637.5" y2="265.3270271675536" stroke="#000"/>
<line x1="614.0" y1="271.1078965552859" x2="637.5" y2="271.1078965552859" stroke="#000"/>
<line x1="625.75" y1="265.3270271675536" x2="625.75" y2="271.1078965552859" stroke="#000"/>
<line x1="614.0" y1="498.0" x2="614.0" y2="502.79999999999995" stroke="#000"/>
<text x="614.0" y="512.4" fill="#111" font-size="small" font-family="monospace" font-weight="bold" text-anchor="end" transform="rotate(-60, 614.0, 512.4)">
lee
</text>
<rect x="661.0" y="329.32181065928836" width="23.5" height="168.67818934071153" fill="#7070f8" data-tooltip="1.00x baseline speed (No JIT)"/>
<line x1="661.0" y1="329.2198318574124" x2="684.5" y2="329.2198318574124" stroke="#000"/>
<line x1="661.0" y1="329.4237894611643" x2="684.5" y2="329.4237894611643" stroke="#000"/>
<line x1="672.7500000000001" y1="329.2198318574124" x2="672.7500000000001" y2="329.4237894611643" stroke="#000"/>
<rect x="684.5" y="222.5397244305289" width="23.5" height="275.46027556947104" fill="orange" data-tooltip="1.63x baseline speed (MJIT)"/>
<line x1="684.5" y1="221.8394564152716" x2="708.0" y2="221.8394564152716" stroke="#000"/>
<line x1="684.5" y1="223.2399924457862" x2="708.0" y2="223.2399924457862" stroke="#000"/>
<line x1="696.25" y1="221.8394564152716" x2="696.25" y2="223.2399924457862" stroke="#000"/>
<rect x="708.0000000000001" y="266.99830052817566" width="23.5" height="231.00169947182428" fill="green" data-tooltip="1.37x baseline speed (YJIT)"/>
<line x1="708.0000000000001" y1="266.79465936345457" x2="731.5" y2="266.79465936345457" stroke="#000"/>
<line x1="708.0000000000001" y1="267.2019416928968" x2="731.5" y2="267.2019416928968" stroke="#000"/>
<line x1="719.7500000000001" y1="266.79465936345457" x2="719.7500000000001" y2="267.2019416928968" stroke="#000"/>
<line x1="708.0000000000001" y1="498.0" x2="708.0000000000001" y2="502.79999999999995" stroke="#000"/>
<text x="708.0000000000001" y="512.4" fill="#111" font-size="small" font-family="monospace" font-weight="bold" text-anchor="end" transform="rotate(-60, 708.0000000000001, 512.4)">
nbody
</text>
<rect x="755.0" y="329.32181065928836" width="23.5" height="168.67818934071153" fill="#7070f8" data-tooltip="1.00x baseline speed (No JIT)"/>
<line x1="755.0" y1="328.59545674669675" x2="778.5" y2="328.59545674669675" stroke="#000"/>
<line x1="755.0" y1="330.0481645718799" x2="778.5" y2="330.0481645718799" stroke="#000"/>
<line x1="766.75" y1="328.59545674669675" x2="766.75" y2="330.0481645718799" stroke="#000"/>
<rect x="778.5" y="100.19999999999999" width="23.5" height="397.79999999999995" fill="orange" data-tooltip="2.36x baseline speed (MJIT)"/>
<line x1="778.5" y1="97.23831780905702" x2="801.9999999999999" y2="97.23831780905702" stroke="#000"/>
<line x1="778.5" y1="103.16168219094295" x2="801.9999999999999" y2="103.16168219094295" stroke="#000"/>
<line x1="790.25" y1="97.23831780905702" x2="790.25" y2="103.16168219094295" stroke="#000"/>
<rect x="802.0" y="207.8946712404345" width="23.5" height="290.10532875956545" fill="green" data-tooltip="1.72x baseline speed (YJIT)"/>
<line x1="802.0" y1="205.8024581766314" x2="825.5" y2="205.8024581766314" stroke="#000"/>
<line x1="802.0" y1="209.98688430423758" x2="825.5" y2="209.98688430423758" stroke="#000"/>
<line x1="813.7500000000001" y1="205.8024581766314" x2="813.7500000000001" y2="209.98688430423758" stroke="#000"/>
<line x1="802.0" y1="498.0" x2="802.0" y2="502.79999999999995" stroke="#000"/>
<text x="802.0" y="512.4" fill="#111" font-size="small" font-family="monospace" font-weight="bold" text-anchor="end" transform="rotate(-60, 802.0, 512.4)">
optcarrot
</text>
<rect x="849.0" y="329.32181065928836" width="23.5" height="168.67818934071153" fill="#7070f8" data-tooltip="1.00x baseline speed (No JIT)"/>
<line x1="849.0" y1="325.7137036725971" x2="872.4999999999999" y2="325.7137036725971" stroke="#000"/>
<line x1="849.0" y1="332.9299176459796" x2="872.4999999999999" y2="332.9299176459796" stroke="#000"/>
<line x1="860.75" y1="325.7137036725971" x2="860.75" y2="332.9299176459796" stroke="#000"/>
<rect x="872.4999999999999" y="247.1468007359417" width="23.5" height="250.8531992640583" fill="orange" data-tooltip="1.49x baseline speed (MJIT)"/>
<line x1="872.4999999999999" y1="236.25890728224778" x2="895.9999999999999" y2="236.25890728224778" stroke="#000"/>
<line x1="872.4999999999999" y1="258.0346941896356" x2="895.9999999999999" y2="258.0346941896356" stroke="#000"/>
<line x1="884.25" y1="236.25890728224778" x2="884.25" y2="258.0346941896356" stroke="#000"/>
<rect x="896.0" y="211.78373489832256" width="23.5" height="286.2162651016774" fill="green" data-tooltip="1.70x baseline speed (YJIT)"/>
<line x1="896.0" y1="198.6695058477333" x2="919.5" y2="198.6695058477333" stroke="#000"/>
<line x1="896.0" y1="224.89796394891184" x2="919.5" y2="224.89796394891184" stroke="#000"/>
<line x1="907.75" y1="198.6695058477333" x2="907.75" y2="224.89796394891184" stroke="#000"/>
<line x1="896.0" y1="498.0" x2="896.0" y2="502.79999999999995" stroke="#000"/>
<text x="896.0" y="512.4" fill="#111" font-size="small" font-family="monospace" font-weight="bold" text-anchor="end" transform="rotate(-60, 896.0, 512.4)">
rubykon
</text>
</svg>