<svg viewBox="0 0 1000 600" xmlns="http://www.w3.org/2000/svg" xmlns:xlink="http://www.w3.org/1999/xlink" width="100%" height="100%">

<rect x="50.0" y="30.0" width="940.0" height="467.99999999999994" stroke="#000" fill="#EEE"/>
<line x1="42.0" y1="497.9999999999999" x2="50.0" y2="497.9999999999999" stroke="#000"/>
<text x="26.000000000000004" y="497.9999999999999" text-anchor="end" font-weight="bold" font-size="small" fill="#111">
0.0
</text>
<line x1="42.0" y1="446.7707692486653" x2="50.0" y2="446.7707692486653" stroke="#000"/>
<text x="26.000000000000004" y="446.7707692486653" text-anchor="end" font-weight="bold" font-size="small" fill="#111">
0.2
</text>
<line x1="42.0" y1="395.54153849733075" x2="50.0" y2="395.54153849733075" stroke="#000"/>
<text x="26.000000000000004" y="395.54153849733075" text-anchor="end" font-weight="bold" font-size="small" fill="#111">
0.4
</text>
<line x1="42.0" y1="344.3123077459963" x2="50.0" y2="344.3123077459963" stroke="#000"/>
<text x="26.000000000000004" y="344.3123077459963" text-anchor="end" font-weight="bold" font-size="small" fill="#111">
0.6
</text>
<line x1="42.0" y1="293.08307699466167" x2="50.0" y2="293.08307699466167" stroke="#000"/>
<text x="26.000000000000004" y="293.08307699466167" text-anchor="end" font-weight="bold" font-size="small" fill="#111">
0.8
</text>
<line x1="42.0" y1="241.8538462433271" x2="50.0" y2="241.8538462433271" stroke="#000"/>
<text x="26.000000000000004" y="241.8538462433271" text-anchor="end" font-weight="bold" font-size="small" fill="#111">
1.0
</text>
<line x1="42.0" y1="190.62461549199253" x2="50.0" y2="190.62461549199253" stroke="#000"/>
<text x="26.000000000000004" y="190.62461549199253" text-anchor="end" font-weight="bold" font-size="small" fill="#111">
1.2
</text>
<line x1="42.0" y1="139.395384740658" x2="50.0" y2="139.395384740658" stroke="#000"/>
<text x="26.000000000000004" y="139.395384740658" text-anchor="end" font-weight="bold" font-size="small" fill="#111">
1.4
</text>
<rect x="197.99999999999997" y="36.00000000000001" width="80.0" height="18.0" fill="#7070f8" stroke="#888"/>
<text x="238.0" y="52.50000000000001" font-size="small" text-anchor="middle" font-weight="bold" fill="#EEE">
No JIT
</text>
<rect x="479.99999999999994" y="36.00000000000001" width="80.0" height="18.0" fill="orange" stroke="#888"/>
<text x="519.9999999999999" y="52.50000000000001" font-size="small" text-anchor="middle" font-weight="bold" fill="#EEE">
MJIT
</text>
<rect x="761.9999999999999" y="36.00000000000001" width="80.0" height="18.0" fill="green" stroke="#888"/>
<text x="801.9999999999999" y="52.50000000000001" font-size="small" text-anchor="middle" font-weight="bold" fill="#EEE">
YJIT
</text>
<rect x="97.0" y="241.8538462433271" width="35.25" height="256.14615375667285" fill="#7070f8" data-tooltip="1.00x baseline speed (No JIT)"/>
<line x1="97.0" y1="240.83897733027467" x2="132.25" y2="240.83897733027467" stroke="#000"/>
<line x1="97.0" y1="242.86871515637952" x2="132.25" y2="242.86871515637952" stroke="#000"/>
<line x1="114.625" y1="240.83897733027467" x2="114.625" y2="242.86871515637952" stroke="#000"/>
<rect x="132.25" y="240.9835829947937" width="35.25" height="257.0164170052062" fill="orange" data-tooltip="1.00x baseline speed (MJIT)"/>
<line x1="132.25" y1="239.59521852260343" x2="167.5" y2="239.59521852260343" stroke="#000"/>
<line x1="132.25" y1="242.37194746698395" x2="167.5" y2="242.37194746698395" stroke="#000"/>
<line x1="149.875" y1="239.59521852260343" x2="149.875" y2="242.37194746698395" stroke="#000"/>
<rect x="167.49999999999997" y="117.98689337660014" width="35.25" height="380.0131066233998" fill="green" data-tooltip="1.48x baseline speed (YJIT)"/>
<line x1="167.49999999999997" y1="115.36743066951212" x2="202.75" y2="115.36743066951212" stroke="#000"/>
<line x1="167.49999999999997" y1="120.60635608368815" x2="202.75" y2="120.60635608368815" stroke="#000"/>
<line x1="185.12499999999997" y1="115.36743066951212" x2="185.12499999999997" y2="120.60635608368815" stroke="#000"/>
<line x1="167.49999999999997" y1="498.0" x2="167.49999999999997" y2="502.79999999999995" stroke="#000"/>
<text x="167.49999999999997" y="512.4" fill="#111" font-size="small" font-family="monospace" font-weight="bold" text-anchor="end" transform="rotate(-60, 167.49999999999997, 512.4)">
activerecord
</text>
<rect x="238.0" y="241.8538462433271" width="35.25" height="256.14615375667285" fill="#7070f8" data-tooltip="1.00x baseline speed (No JIT)"/>
<line x1="238.0" y1="238.64102978124123" x2="273.25" y2="238.64102978124123" stroke="#000"/>
<line x1="238.0" y1="245.06666270541297" x2="273.25" y2="245.06666270541297" stroke="#000"/>
<line x1="255.625" y1="238.64102978124123" x2="255.625" y2="245.06666270541297" stroke="#000"/>
<rect x="308.5" y="159.8933627245869" width="35.25" height="338.106637275413" fill="green" data-tooltip="1.32x baseline speed (YJIT)"/>
<line x1="308.5" y1="154.52836329911875" x2="343.75" y2="154.52836329911875" stroke="#000"/>
<line x1="308.5" y1="165.25836215005506" x2="343.75" y2="165.25836215005506" stroke="#000"/>
<line x1="326.125" y1="154.52836329911875" x2="326.125" y2="165.25836215005506" stroke="#000"/>
<line x1="308.5" y1="498.0" x2="308.5" y2="502.79999999999995" stroke="#000"/>
<text x="308.5" y="512.4" fill="#111" font-size="small" font-family="monospace" font-weight="bold" text-anchor="end" transform="rotate(-60, 308.5, 512.4)">
hexapdf
</text>
<rect x="379.0" y="241.8538462433271" width="35.25" height="256.14615375667285" fill="#7070f8" data-tooltip="1.00x baseline speed (No JIT)"/>
<line x1="379.0" y1="239.35788313817838" x2="414.25" y2="239.35788313817838" stroke="#000"/>
<line x1="379.0" y1="244.34980934847584" x2="414.25" y2="244.34980934847584" stroke="#000"/>
<line x1="396.625" y1="239.35788313817838" x2="396.625" y2="244.34980934847584" stroke="#000"/>
<rect x="414.25" y="206.05482331654227" width="35.25" height="291.9451766834577" fill="orange" data-tooltip="1.14x baseline speed (MJIT)"/>
<line x1="414.25" y1="200.54121339506838" x2="449.5" y2="200.54121339506838" stroke="#000"/>
<line x1="414.25" y1="211.56843323801613" x2="449.5" y2="211.56843323801613" stroke="#000"/>
<line x1="431.875" y1="200.54121339506838" x2="431.875" y2="211.56843323801613" stroke="#000"/>
<rect x="449.5" y="100.19999999999999" width="35.25" height="397.79999999999995" fill="green" data-tooltip="1.55x baseline speed (YJIT)"/>
<line x1="449.5" y1="92.228246711599" x2="484.75" y2="92.228246711599" stroke="#000"/>
<line x1="449.5" y1="108.17175328840098" x2="484.75" y2="108.17175328840098" stroke="#000"/>
<line x1="467.125" y1="92.228246711599" x2="467.125" y2="108.17175328840098" stroke="#000"/>
<line x1="449.5" y1="498.0" x2="449.5" y2="502.79999999999995" stroke="#000"/>
<text x="449.5" y="512.4" fill="#111" font-size="small" font-family="monospace" font-weight="bold" text-anchor="end" transform="rotate(-60, 449.5, 512.4)">
liquid-render
</text>
<rect x="519.9999999999999" y="241.8538462433271" width="35.25" height="256.14615375667285" fill="#7070f8" data-tooltip="1.00x baseline speed (No JIT)"/>
<line x1="519.9999999999999" y1="241.39045370856053" x2="555.2499999999999" y2="241.39045370856053" stroke="#000"/>
<line x1="519.9999999999999" y1="242.3172387780937" x2="555.2499999999999" y2="242.3172387780937" stroke="#000"/>
<line x1="537.6249999999999" y1="241.39045370856053" x2="537.6249999999999" y2="242.3172387780937" stroke="#000"/>
<rect x="555.2499999999999" y="236.68541984046274" width="35.25" height="261.3145801595372" fill="orange" data-tooltip="1.02x baseline speed (MJIT)"/>
<line x1="555.2499999999999" y1="231.95852400227608" x2="590.4999999999999" y2="231.95852400227608" stroke="#000"/>
<line x1="555.2499999999999" y1="241.41231567864938" x2="590.4999999999999" y2="241.41231567864938" stroke="#000"/>
<line x1="572.8749999999999" y1="231.95852400227608" x2="572.8749999999999" y2="241.41231567864938" stroke="#000"/>
<rect x="590.4999999999999" y="208.86771813979985" width="35.25" height="289.13228186020007" fill="green" data-tooltip="1.13x baseline speed (YJIT)"/>
<line x1="590.4999999999999" y1="208.16740547642783" x2="625.7499999999999" y2="208.16740547642783" stroke="#000"/>
<line x1="590.4999999999999" y1="209.56803080317187" x2="625.7499999999999" y2="209.56803080317187" stroke="#000"/>
<line x1="608.1249999999999" y1="208.16740547642783" x2="608.1249999999999" y2="209.56803080317187" stroke="#000"/>
<line x1="590.4999999999999" y1="498.0" x2="590.4999999999999" y2="502.79999999999995" stroke="#000"/>
<text x="590.4999999999999" y="512.4" fill="#111" font-size="small" font-family="monospace" font-weight="bold" text-anchor="end" transform="rotate(-60, 590.4999999999999, 512.4)">
mail
</text>
<rect x="660.9999999999999" y="241.8538462433271" width="35.25" height="256.14615375667285" fill="#7070f8" data-tooltip="1.00x baseline speed (No JIT)"/>
<line x1="660.9999999999999" y1="241.79883235306903" x2="696.2499999999999" y2="241.79883235306903" stroke="#000"/>
<line x1="660.9999999999999" y1="241.9088601335852" x2="696.2499999999999" y2="241.9088601335852" stroke="#000"/>
<line x1="678.6249999999999" y1="241.79883235306903" x2="678.6249999999999" y2="241.9088601335852" stroke="#000"/>
<rect x="696.2499999999999" y="200.7614265189027" width="35.25" height="297.23857348109726" fill="orange" data-tooltip="1.16x baseline speed (MJIT)"/>
<line x1="696.2499999999999" y1="200.64397510161825" x2="731.4999999999999" y2="200.64397510161825" stroke="#000"/>
<line x1="696.2499999999999" y1="200.87887793618717" x2="731.4999999999999" y2="200.87887793618717" stroke="#000"/>
<line x1="713.8749999999999" y1="200.64397510161825" x2="713.8749999999999" y2="200.87887793618717" stroke="#000"/>
<rect x="731.4999999999999" y="169.2429234363041" width="35.25" height="328.7570765636959" fill="green" data-tooltip="1.28x baseline speed (YJIT)"/>
<line x1="731.4999999999999" y1="169.1166055260701" x2="766.7499999999999" y2="169.1166055260701" stroke="#000"/>
<line x1="731.4999999999999" y1="169.36924134653808" x2="766.7499999999999" y2="169.36924134653808" stroke="#000"/>
<line x1="749.1249999999999" y1="169.1166055260701" x2="749.1249999999999" y2="169.36924134653808" stroke="#000"/>
<line x1="731.4999999999999" y1="498.0" x2="731.4999999999999" y2="502.79999999999995" stroke="#000"/>
<text x="731.4999999999999" y="512.4" fill="#111" font-size="small" font-family="monospace" font-weight="bold" text-anchor="end" transform="rotate(-60, 731.4999999999999, 512.4)">
psych-load
</text>
<rect x="801.9999999999999" y="241.8538462433271" width="35.25" height="256.14615375667285" fill="#7070f8" data-tooltip="1.00x baseline speed (No JIT)"/>
<line x1="801.9999999999999" y1="240.19138154401458" x2="837.2499999999999" y2="240.19138154401458" stroke="#000"/>
<line x1="801.9999999999999" y1="243.51631094263965" x2="837.2499999999999" y2="243.51631094263965" stroke="#000"/>
<line x1="819.6249999999999" y1="240.19138154401458" x2="819.6249999999999" y2="243.51631094263965" stroke="#000"/>
<rect x="837.2499999999999" y="245.82234256102038" width="35.25" height="252.17765743897957" fill="orange" data-tooltip="0.98x baseline speed (MJIT)"/>
<line x1="837.2499999999999" y1="243.7661862501394" x2="872.4999999999999" y2="243.7661862501394" stroke="#000"/>
<line x1="837.2499999999999" y1="247.87849887190131" x2="872.4999999999999" y2="247.87849887190131" stroke="#000"/>
<line x1="854.8749999999999" y1="243.7661862501394" x2="854.8749999999999" y2="247.87849887190131" stroke="#000"/>
<rect x="872.4999999999999" y="157.46466711277577" width="35.25" height="340.5353328872242" fill="green" data-tooltip="1.33x baseline speed (YJIT)"/>
<line x1="872.4999999999999" y1="153.65414813953245" x2="907.75" y2="153.65414813953245" stroke="#000"/>
<line x1="872.4999999999999" y1="161.27518608601906" x2="907.75" y2="161.27518608601906" stroke="#000"/>
<line x1="890.125" y1="153.65414813953245" x2="890.125" y2="161.27518608601906" stroke="#000"/>
<line x1="872.4999999999999" y1="498.0" x2="872.4999999999999" y2="502.79999999999995" stroke="#000"/>
<text x="872.4999999999999" y="512.4" fill="#111" font-size="small" font-family="monospace" font-weight="bold" text-anchor="end" transform="rotate(-60, 872.4999999999999, 512.4)">
railsbench
</text>
</svg>