<svg viewBox="0 0 1000 600" xmlns="http://www.w3.org/2000/svg" xmlns:xlink="http://www.w3.org/1999/xlink" width="100%" height="100%">

<rect x="50.0" y="30.0" width="940.0" height="467.99999999999994" stroke="#000" fill="#EEE"/>
<line x1="42.0" y1="497.9999999999999" x2="50.0" y2="497.9999999999999" stroke="#000"/>
<text x="26.000000000000004" y="497.9999999999999" text-anchor="end" font-weight="bold" font-size="small" fill="#111">
0.0
</text>
<line x1="42.0" y1="446.03283483115473" x2="50.0" y2="446.03283483115473" stroke="#000"/>
<text x="26.000000000000004" y="446.03283483115473" text-anchor="end" font-weight="bold" font-size="small" fill="#111">
1.0
</text>
<line x1="42.0" y1="394.0656696623097" x2="50.0" y2="394.0656696623097" stroke="#000"/>
<text x="26.000000000000004" y="394.0656696623097" text-anchor="end" font-weight="bold" font-size="small" fill="#111">
2.0
</text>
<line x1="42.0" y1="342.0985044934645" x2="50.0" y2="342.0985044934645" stroke="#000"/>
<text x="26.000000000000004" y="342.0985044934645" text-anchor="end" font-weight="bold" font-size="small" fill="#111">
3.0
</text>
<line x1="42.0" y1="290.1313393246194" x2="50.0" y2="290.1313393246194" stroke="#000"/>
<text x="26.000000000000004" y="290.1313393246194" text-anchor="end" font-weight="bold" font-size="small" fill="#111">
4.0
</text>
<line x1="42.0" y1="238.16417415577422" x2="50.0" y2="238.16417415577422" stroke="#000"/>
<text x="26.000000000000004" y="238.16417415577422" text-anchor="end" font-weight="bold" font-size="small" fill="#111">
5.0
</text>
<line x1="42.0" y1="186.19700898692906" x2="50.0" y2="186.19700898692906" stroke="#000"/>
<text x="26.000000000000004" y="186.19700898692906" text-anchor="end" font-weight="bold" font-size="small" fill="#111">
6.0
</text>
<line x1="42.0" y1="134.2298438180839" x2="50.0" y2="134.2298438180839" stroke="#000"/>
<text x="26.000000000000004" y="134.2298438180839" text-anchor="end" font-weight="bold" font-size="small" fill="#111">
7.0
</text>
<rect x="197.99999999999997" y="36.00000000000001" width="80.0" height="18.0" fill="#7070f8" stroke="#888"/>
<text x="238.0" y="52.50000000000001" font-size="small" text-anchor="middle" font-weight="bold" fill="#EEE">
No JIT
</text>
<rect x="479.99999999999994" y="36.00000000000001" width="80.0" height="18.0" fill="orange" stroke="#888"/>
<text x="519.9999999999999" y="52.50000000000001" font-size="small" text-anchor="middle" font-weight="bold" fill="#EEE">
MJIT
</text>
<rect x="761.9999999999999" y="36.00000000000001" width="80.0" height="18.0" fill="green" stroke="#888"/>
<text x="801.9999999999999" y="52.50000000000001" font-size="small" text-anchor="middle" font-weight="bold" fill="#EEE">
YJIT
</text>
<rect x="97.0" y="446.03283483115473" width="26.4375" height="51.96716516884514" fill="#7070f8" data-tooltip="1.00x baseline speed (No JIT)"/>
<line x1="97.0" y1="446.0280229393004" x2="123.4375" y2="446.0280229393004" stroke="#000"/>
<line x1="97.0" y1="446.037646723009" x2="123.4375" y2="446.037646723009" stroke="#000"/>
<line x1="110.21875" y1="446.0280229393004" x2="110.21875" y2="446.037646723009" stroke="#000"/>
<rect x="123.4375" y="463.9561459298809" width="26.4375" height="34.04385407011898" fill="orange" data-tooltip="0.66x baseline speed (MJIT)"/>
<line x1="123.4375" y1="462.67660851184627" x2="149.875" y2="462.67660851184627" stroke="#000"/>
<line x1="123.4375" y1="465.2356833479155" x2="149.875" y2="465.2356833479155" stroke="#000"/>
<line x1="136.65625" y1="462.67660851184627" x2="136.65625" y2="465.2356833479155" stroke="#000"/>
<rect x="149.875" y="158.7877152964173" width="26.4375" height="339.21228470358267" fill="green" data-tooltip="6.53x baseline speed (YJIT)"/>
<line x1="149.875" y1="158.1291933256311" x2="176.3125" y2="158.1291933256311" stroke="#000"/>
<line x1="149.875" y1="159.44623726720351" x2="176.3125" y2="159.44623726720351" stroke="#000"/>
<line x1="163.09375" y1="158.1291933256311" x2="163.09375" y2="159.44623726720351" stroke="#000"/>
<line x1="149.875" y1="498.0" x2="149.875" y2="502.79999999999995" stroke="#000"/>
<text x="149.875" y="512.4" fill="#111" font-size="small" font-family="monospace" font-weight="bold" text-anchor="end" transform="rotate(-60, 149.875, 512.4)">
30k_ifelse
</text>
<rect x="202.75" y="446.03283483115473" width="26.4375" height="51.96716516884514" fill="#7070f8" data-tooltip="1.00x baseline speed (No JIT)"/>
<line x1="202.75" y1="446.0293977361406" x2="229.1875" y2="446.0293977361406" stroke="#000"/>
<line x1="202.75" y1="446.03627192616887" x2="229.1875" y2="446.03627192616887" stroke="#000"/>
<line x1="215.96875" y1="446.0293977361406" x2="215.96875" y2="446.03627192616887" stroke="#000"/>
<rect x="229.1875" y="464.1105511285854" width="26.4375" height="33.88944887141448" fill="orange" data-tooltip="0.65x baseline speed (MJIT)"/>
<line x1="229.1875" y1="458.4779985607379" x2="255.625" y2="458.4779985607379" stroke="#000"/>
<line x1="229.1875" y1="469.74310369643297" x2="255.625" y2="469.74310369643297" stroke="#000"/>
<line x1="242.40625" y1="458.4779985607379" x2="242.40625" y2="469.74310369643297" stroke="#000"/>
<rect x="255.625" y="103.91970432193912" width="26.4375" height="394.0802956780608" fill="green" data-tooltip="7.58x baseline speed (YJIT)"/>
<line x1="255.625" y1="103.70794661092675" x2="282.0625" y2="103.70794661092675" stroke="#000"/>
<line x1="255.625" y1="104.13146203295149" x2="282.0625" y2="104.13146203295149" stroke="#000"/>
<line x1="268.84375" y1="103.70794661092675" x2="268.84375" y2="104.13146203295149" stroke="#000"/>
<line x1="255.625" y1="498.0" x2="255.625" y2="502.79999999999995" stroke="#000"/>
<text x="255.625" y="512.4" fill="#111" font-size="small" font-family="monospace" font-weight="bold" text-anchor="end" transform="rotate(-60, 255.625, 512.4)">
30k_methods
</text>
<rect x="308.5" y="446.03283483115473" width="26.4375" height="51.96716516884514" fill="#7070f8" data-tooltip="1.00x baseline speed (No JIT)"/>
<line x1="308.5" y1="445.93060334798776" x2="334.9375" y2="445.93060334798776" stroke="#000"/>
<line x1="308.5" y1="446.1350663143217" x2="334.9375" y2="446.1350663143217" stroke="#000"/>
<line x1="321.71875" y1="445.93060334798776" x2="321.71875" y2="446.1350663143217" stroke="#000"/>
<rect x="334.9375" y="419.4221071076356" width="26.4375" height="78.57789289236436" fill="orange" data-tooltip="1.51x baseline speed (MJIT)"/>
<line x1="334.9375" y1="419.23696621002756" x2="361.375" y2="419.23696621002756" stroke="#000"/>
<line x1="334.9375" y1="419.60724800524366" x2="361.375" y2="419.60724800524366" stroke="#000"/>
<line x1="348.15625" y1="419.23696621002756" x2="348.15625" y2="419.60724800524366" stroke="#000"/>
<rect x="361.375" y="378.4839669491531" width="26.4375" height="119.51603305084684" fill="green" data-tooltip="2.30x baseline speed (YJIT)"/>
<line x1="361.375" y1="377.4551149885173" x2="387.8125" y2="377.4551149885173" stroke="#000"/>
<line x1="361.375" y1="379.5128189097889" x2="387.8125" y2="379.5128189097889" stroke="#000"/>
<line x1="374.59375" y1="377.4551149885173" x2="374.59375" y2="379.5128189097889" stroke="#000"/>
<line x1="361.375" y1="498.0" x2="361.375" y2="502.79999999999995" stroke="#000"/>
<text x="361.375" y="512.4" fill="#111" font-size="small" font-family="monospace" font-weight="bold" text-anchor="end" transform="rotate(-60, 361.375, 512.4)">
cfunc_itself
</text>
<rect x="414.25" y="446.03283483115473" width="26.4375" height="51.96716516884514" fill="#7070f8" data-tooltip="1.00x baseline speed (No JIT)"/>
<line x1="414.25" y1="445.6554759236448" x2="440.6875" y2="445.6554759236448" stroke="#000"/>
<line x1="414.25" y1="446.41019373866465" x2="440.6875" y2="446.41019373866465" stroke="#000"/>
<line x1="427.46875" y1="445.6554759236448" x2="427.46875" y2="446.41019373866465" stroke="#000"/>
<rect x="440.6875" y="352.2566092981633" width="26.4375" height="145.74339070183663" fill="orange" data-tooltip="2.80x baseline speed (MJIT)"/>
<line x1="440.6875" y1="351.1977307461331" x2="467.125" y2="351.1977307461331" stroke="#000"/>
<line x1="440.6875" y1="353.3154878501935" x2="467.125" y2="353.3154878501935" stroke="#000"/>
<line x1="453.90625" y1="351.1977307461331" x2="453.90625" y2="353.3154878501935" stroke="#000"/>
<rect x="467.125" y="301.308340668108" width="26.4375" height="196.69165933189194" fill="green" data-tooltip="3.78x baseline speed (YJIT)"/>
<line x1="467.125" y1="299.4961951559197" x2="493.5625" y2="299.4961951559197" stroke="#000"/>
<line x1="467.125" y1="303.1204861802962" x2="493.5625" y2="303.1204861802962" stroke="#000"/>
<line x1="480.34375" y1="299.4961951559197" x2="480.34375" y2="303.1204861802962" stroke="#000"/>
<line x1="467.125" y1="498.0" x2="467.125" y2="502.79999999999995" stroke="#000"/>
<text x="467.125" y="512.4" fill="#111" font-size="small" font-family="monospace" font-weight="bold" text-anchor="end" transform="rotate(-60, 467.125, 512.4)">
fib
</text>
<rect x="520.0" y="446.03283483115473" width="26.4375" height="51.96716516884514" fill="#7070f8" data-tooltip="1.00x baseline speed (No JIT)"/>
<line x1="520.0" y1="446.0030812028656" x2="546.4375" y2="446.0030812028656" stroke="#000"/>
<line x1="520.0" y1="446.0625884594439" x2="546.4375" y2="446.0625884594439" stroke="#000"/>
<line x1="533.21875" y1="446.0030812028656" x2="533.21875" y2="446.0625884594439" stroke="#000"/>
<rect x="546.4375" y="234.82939404745485" width="26.4375" height="263.1706059525451" fill="orange" data-tooltip="5.06x baseline speed (MJIT)"/>
<line x1="546.4375" y1="68.5820844684733" x2="572.875" y2="68.5820844684733" stroke="#000"/>
<line x1="546.4375" y1="401.07670362643637" x2="572.875" y2="401.07670362643637" stroke="#000"/>
<line x1="559.65625" y1="68.5820844684733" x2="559.65625" y2="401.07670362643637" stroke="#000"/>
<rect x="572.875" y="344.75073584553536" width="26.4375" height="153.24926415446464" fill="green" data-tooltip="2.95x baseline speed (YJIT)"/>
<line x1="572.875" y1="343.720053347511" x2="599.3125" y2="343.720053347511" stroke="#000"/>
<line x1="572.875" y1="345.7814183435598" x2="599.3125" y2="345.7814183435598" stroke="#000"/>
<line x1="586.09375" y1="343.720053347511" x2="586.09375" y2="345.7814183435598" stroke="#000"/>
<line x1="572.875" y1="498.0" x2="572.875" y2="502.79999999999995" stroke="#000"/>
<text x="572.875" y="512.4" fill="#111" font-size="small" font-family="monospace" font-weight="bold" text-anchor="end" transform="rotate(-60, 572.875, 512.4)">
getivar
</text>
<rect x="625.7499999999999" y="446.03283483115473" width="26.4375" height="51.96716516884514" fill="#7070f8" data-tooltip="1.00x baseline speed (No JIT)"/>
<line x1="625.7499999999999" y1="445.97917571487295" x2="652.1874999999999" y2="445.97917571487295" stroke="#000"/>
<line x1="625.7499999999999" y1="446.0864939474365" x2="652.1874999999999" y2="446.0864939474365" stroke="#000"/>
<line x1="638.9687499999999" y1="445.97917571487295" x2="638.9687499999999" y2="446.0864939474365" stroke="#000"/>
<rect x="652.1874999999999" y="429.00494940110036" width="26.4375" height="68.99505059889964" fill="orange" data-tooltip="1.33x baseline speed (MJIT)"/>
<line x1="652.1874999999999" y1="428.90261437303747" x2="678.6249999999999" y2="428.90261437303747" stroke="#000"/>
<line x1="652.1874999999999" y1="429.10728442916326" x2="678.6249999999999" y2="429.10728442916326" stroke="#000"/>
<line x1="665.4062499999999" y1="428.90261437303747" x2="665.4062499999999" y2="429.10728442916326" stroke="#000"/>
<rect x="678.6249999999999" y="211.56558995428247" width="26.4375" height="286.43441004571747" fill="green" data-tooltip="5.51x baseline speed (YJIT)"/>
<line x1="678.6249999999999" y1="209.51829664553316" x2="705.0624999999999" y2="209.51829664553316" stroke="#000"/>
<line x1="678.6249999999999" y1="213.6128832630318" x2="705.0624999999999" y2="213.6128832630318" stroke="#000"/>
<line x1="691.8437499999999" y1="209.51829664553316" x2="691.8437499999999" y2="213.6128832630318" stroke="#000"/>
<line x1="678.6249999999999" y1="498.0" x2="678.6249999999999" y2="502.79999999999995" stroke="#000"/>
<text x="678.6249999999999" y="512.4" fill="#111" font-size="small" font-family="monospace" font-weight="bold" text-anchor="end" transform="rotate(-60, 678.6249999999999, 512.4)">
keyword_args
</text>
<rect x="731.4999999999999" y="446.03283483115473" width="26.4375" height="51.96716516884514" fill="#7070f8" data-tooltip="1.00x baseline speed (No JIT)"/>
<line x1="731.4999999999999" y1="445.9679160057002" x2="757.9374999999999" y2="445.9679160057002" stroke="#000"/>
<line x1="731.4999999999999" y1="446.09775365660926" x2="757.9374999999999" y2="446.09775365660926" stroke="#000"/>
<line x1="744.7187499999999" y1="445.9679160057002" x2="744.7187499999999" y2="446.09775365660926" stroke="#000"/>
<rect x="757.9374999999999" y="438.8839493863477" width="26.4375" height="59.11605061365216" fill="orange" data-tooltip="1.14x baseline speed (MJIT)"/>
<line x1="757.9374999999999" y1="438.72269815133376" x2="784.3749999999999" y2="438.72269815133376" stroke="#000"/>
<line x1="757.9374999999999" y1="439.0452006213617" x2="784.3749999999999" y2="439.0452006213617" stroke="#000"/>
<line x1="771.1562499999999" y1="438.72269815133376" x2="771.1562499999999" y2="439.0452006213617" stroke="#000"/>
<rect x="784.3749999999999" y="424.1933237083084" width="26.4375" height="73.8066762916915" fill="green" data-tooltip="1.42x baseline speed (YJIT)"/>
<line x1="784.3749999999999" y1="423.9594816076053" x2="810.8124999999999" y2="423.9594816076053" stroke="#000"/>
<line x1="784.3749999999999" y1="424.4271658090115" x2="810.8124999999999" y2="424.4271658090115" stroke="#000"/>
<line x1="797.5937499999999" y1="423.9594816076053" x2="797.5937499999999" y2="424.4271658090115" stroke="#000"/>
<line x1="784.3749999999999" y1="498.0" x2="784.3749999999999" y2="502.79999999999995" stroke="#000"/>
<text x="784.3749999999999" y="512.4" fill="#111" font-size="small" font-family="monospace" font-weight="bold" text-anchor="end" transform="rotate(-60, 784.3749999999999, 512.4)">
respond_to
</text>
<rect x="837.2499999999999" y="446.03283483115473" width="26.4375" height="51.96716516884514" fill="#7070f8" data-tooltip="1.00x baseline speed (No JIT)"/>
<line x1="837.2499999999999" y1="445.80870839501176" x2="863.6874999999999" y2="445.80870839501176" stroke="#000"/>
<line x1="837.2499999999999" y1="446.2569612672977" x2="863.6874999999999" y2="446.2569612672977" stroke="#000"/>
<line x1="850.4687499999999" y1="445.80870839501176" x2="850.4687499999999" y2="446.2569612672977" stroke="#000"/>
<rect x="863.6874999999999" y="100.19999999999999" width="26.4375" height="397.79999999999995" fill="orange" data-tooltip="7.65x baseline speed (MJIT)"/>
<line x1="863.6874999999999" y1="-331.34651850457465" x2="890.125" y2="-331.34651850457465" stroke="#000"/>
<line x1="863.6874999999999" y1="531.7465185045747" x2="890.125" y2="531.7465185045747" stroke="#000"/>
<line x1="876.9062499999999" y1="-331.34651850457465" x2="876.9062499999999" y2="531.7465185045747" stroke="#000"/>
<rect x="890.125" y="415.1014013026287" width="26.4375" height="82.89859869737124" fill="green" data-tooltip="1.60x baseline speed (YJIT)"/>
<line x1="890.125" y1="414.5187461711707" x2="916.5625" y2="414.5187461711707" stroke="#000"/>
<line x1="890.125" y1="415.68405643408676" x2="916.5625" y2="415.68405643408676" stroke="#000"/>
<line x1="903.3437499999999" y1="414.5187461711707" x2="903.3437499999999" y2="415.68405643408676" stroke="#000"/>
<line x1="890.125" y1="498.0" x2="890.125" y2="502.79999999999995" stroke="#000"/>
<text x="890.125" y="512.4" fill="#111" font-size="small" font-family="monospace" font-weight="bold" text-anchor="end" transform="rotate(-60, 890.125, 512.4)">
setivar
</text>
</svg>