<svg viewBox="0 0 1000 600" xmlns="http://www.w3.org/2000/svg" xmlns:xlink="http://www.w3.org/1999/xlink" width="100%" height="100%">

<rect x="50.0" y="30.0" width="940.0" height="467.99999999999994" stroke="#000" fill="#EEE"/>
<line x1="42.0" y1="497.9999999999999" x2="50.0" y2="497.9999999999999" stroke="#000"/>
<text x="26.000000000000004" y="497.9999999999999" text-anchor="end" font-weight="bold" font-size="small" fill="#111">
0.0
</text>
<line x1="42.0" y1="402.98822648612617" x2="50.0" y2="402.98822648612617" stroke="#000"/>
<text x="26.000000000000004" y="402.98822648612617" text-anchor="end" font-weight="bold" font-size="small" fill="#111">
0.5
</text>
<line x1="42.0" y1="307.9764529722524" x2="50.0" y2="307.9764529722524" stroke="#000"/>
<text x="26.000000000000004" y="307.9764529722524" text-anchor="end" font-weight="bold" font-size="small" fill="#111">
1.0
</text>
<line x1="42.0" y1="212.96467945837864" x2="50.0" y2="212.96467945837864" stroke="#000"/>
<text x="26.000000000000004" y="212.96467945837864" text-anchor="end" font-weight="bold" font-size="small" fill="#111">
1.5
</text>
<line x1="42.0" y1="117.9529059445049" x2="50.0" y2="117.9529059445049" stroke="#000"/>
<text x="26.000000000000004" y="117.9529059445049" text-anchor="end" font-weight="bold" font-size="small" fill="#111">
2.0
</text>
<rect x="268.5" y="36.00000000000001" width="80.0" height="18.0" fill="#7070f8" stroke="#888"/>
<text x="308.5" y="52.50000000000001" font-size="small" text-anchor="middle" font-weight="bold" fill="#EEE">
No JIT
</text>
<rect x="691.4999999999999" y="36.00000000000001" width="80.0" height="18.0" fill="orange" stroke="#888"/>
<text x="731.4999999999999" y="52.50000000000001" font-size="small" text-anchor="middle" font-weight="bold" fill="#EEE">
YJIT
</text>
<rect x="97.0" y="307.9764529722524" width="28.2" height="190.0235470277475" fill="#7070f8" data-tooltip="1.00x baseline speed (No JIT)"/>
<line x1="97.0" y1="307.7881187007667" x2="125.2" y2="307.7881187007667" stroke="#000"/>
<line x1="97.0" y1="308.16478724373815" x2="125.2" y2="308.16478724373815" stroke="#000"/>
<line x1="111.10000000000001" y1="307.7881187007667" x2="111.10000000000001" y2="308.16478724373815" stroke="#000"/>
<rect x="125.2" y="162.60569486679827" width="28.2" height="335.39430513320167" fill="orange" data-tooltip="1.77x baseline speed (YJIT)"/>
<line x1="125.2" y1="161.77218565918554" x2="153.4" y2="161.77218565918554" stroke="#000"/>
<line x1="125.2" y1="163.439204074411" x2="153.4" y2="163.439204074411" stroke="#000"/>
<line x1="139.3" y1="161.77218565918554" x2="139.3" y2="163.439204074411" stroke="#000"/>
<line x1="139.3" y1="498.0" x2="139.3" y2="502.79999999999995" stroke="#000"/>
<text x="139.3" y="512.4" fill="#111" font-size="small" font-family="monospace" font-weight="bold" text-anchor="end" transform="rotate(-60, 139.3, 512.4)">
binarytrees
</text>
<rect x="181.6" y="307.9764529722524" width="28.2" height="190.0235470277475" fill="#7070f8" data-tooltip="1.00x baseline speed (No JIT)"/>
<line x1="181.6" y1="307.77706745164664" x2="209.79999999999998" y2="307.77706745164664" stroke="#000"/>
<line x1="181.6" y1="308.17583849285813" x2="209.79999999999998" y2="308.17583849285813" stroke="#000"/>
<line x1="195.7" y1="307.77706745164664" x2="195.7" y2="308.17583849285813" stroke="#000"/>
<rect x="209.79999999999998" y="209.89457291709726" width="28.2" height="288.1054270829027" fill="orange" data-tooltip="1.52x baseline speed (YJIT)"/>
<line x1="209.79999999999998" y1="209.51636727659178" x2="238.0" y2="209.51636727659178" stroke="#000"/>
<line x1="209.79999999999998" y1="210.27277855760272" x2="238.0" y2="210.27277855760272" stroke="#000"/>
<line x1="223.89999999999998" y1="209.51636727659178" x2="223.89999999999998" y2="210.27277855760272" stroke="#000"/>
<line x1="223.89999999999998" y1="498.0" x2="223.89999999999998" y2="502.79999999999995" stroke="#000"/>
<text x="223.89999999999998" y="512.4" fill="#111" font-size="small" font-family="monospace" font-weight="bold" text-anchor="end" transform="rotate(-60, 223.89999999999998, 512.4)">
chunky_png
</text>
<rect x="266.2" y="307.9764529722524" width="28.2" height="190.0235470277475" fill="#7070f8" data-tooltip="1.00x baseline speed (No JIT)"/>
<line x1="266.2" y1="306.3082743530276" x2="294.4" y2="306.3082743530276" stroke="#000"/>
<line x1="266.2" y1="309.64463159147715" x2="294.4" y2="309.64463159147715" stroke="#000"/>
<line x1="280.3" y1="306.3082743530276" x2="280.3" y2="309.64463159147715" stroke="#000"/>
<rect x="294.4" y="282.40139094230193" width="28.2" height="215.59860905769798" fill="orange" data-tooltip="1.13x baseline speed (YJIT)"/>
<line x1="294.4" y1="278.8135142205447" x2="322.6" y2="278.8135142205447" stroke="#000"/>
<line x1="294.4" y1="285.9892676640592" x2="322.6" y2="285.9892676640592" stroke="#000"/>
<line x1="308.5" y1="278.8135142205447" x2="308.5" y2="285.9892676640592" stroke="#000"/>
<line x1="308.5" y1="498.0" x2="308.5" y2="502.79999999999995" stroke="#000"/>
<text x="308.5" y="512.4" fill="#111" font-size="small" font-family="monospace" font-weight="bold" text-anchor="end" transform="rotate(-60, 308.5, 512.4)">
erubi
</text>
<rect x="350.8" y="307.9764529722524" width="28.2" height="190.0235470277475" fill="#7070f8" data-tooltip="1.00x baseline speed (No JIT)"/>
<line x1="350.8" y1="303.86562666448424" x2="379.0" y2="303.86562666448424" stroke="#000"/>
<line x1="350.8" y1="312.08727928002054" x2="379.0" y2="312.08727928002054" stroke="#000"/>
<line x1="364.9" y1="303.86562666448424" x2="364.9" y2="312.08727928002054" stroke="#000"/>
<rect x="379.0" y="268.5960389667834" width="28.2" height="229.40396103321655" fill="orange" data-tooltip="1.21x baseline speed (YJIT)"/>
<line x1="379.0" y1="261.29544157227764" x2="407.2" y2="261.29544157227764" stroke="#000"/>
<line x1="379.0" y1="275.89663636128915" x2="407.2" y2="275.89663636128915" stroke="#000"/>
<line x1="393.1" y1="261.29544157227764" x2="393.1" y2="275.89663636128915" stroke="#000"/>
<line x1="393.1" y1="498.0" x2="393.1" y2="502.79999999999995" stroke="#000"/>
<text x="393.1" y="512.4" fill="#111" font-size="small" font-family="monospace" font-weight="bold" text-anchor="end" transform="rotate(-60, 393.1, 512.4)">
erubi_rails
</text>
<rect x="435.40000000000003" y="307.9764529722524" width="28.2" height="190.0235470277475" fill="#7070f8" data-tooltip="1.00x baseline speed (No JIT)"/>
<line x1="435.40000000000003" y1="306.1607833182268" x2="463.6" y2="306.1607833182268" stroke="#000"/>
<line x1="435.40000000000003" y1="309.792122626278" x2="463.6" y2="309.792122626278" stroke="#000"/>
<line x1="449.5" y1="306.1607833182268" x2="449.5" y2="309.792122626278" stroke="#000"/>
<rect x="463.6" y="305.67666861459486" width="28.2" height="192.32333138540514" fill="orange" data-tooltip="1.01x baseline speed (YJIT)"/>
<line x1="463.6" y1="303.54013183987325" x2="491.8" y2="303.54013183987325" stroke="#000"/>
<line x1="463.6" y1="307.81320538931647" x2="491.8" y2="307.81320538931647" stroke="#000"/>
<line x1="477.7" y1="303.54013183987325" x2="477.7" y2="307.81320538931647" stroke="#000"/>
<line x1="477.7" y1="498.0" x2="477.7" y2="502.79999999999995" stroke="#000"/>
<text x="477.7" y="512.4" fill="#111" font-size="small" font-family="monospace" font-weight="bold" text-anchor="end" transform="rotate(-60, 477.7, 512.4)">
etanni
</text>
<rect x="520.0" y="307.9764529722524" width="28.2" height="190.0235470277475" fill="#7070f8" data-tooltip="1.00x baseline speed (No JIT)"/>
<line x1="520.0" y1="307.357312024677" x2="548.2" y2="307.357312024677" stroke="#000"/>
<line x1="520.0" y1="308.5955939198278" x2="548.2" y2="308.5955939198278" stroke="#000"/>
<line x1="534.1" y1="307.357312024677" x2="534.1" y2="308.5955939198278" stroke="#000"/>
<rect x="548.2" y="100.19999999999999" width="28.2" height="397.79999999999995" fill="orange" data-tooltip="2.09x baseline speed (YJIT)"/>
<line x1="548.2" y1="98.86557672375774" x2="576.4" y2="98.86557672375774" stroke="#000"/>
<line x1="548.2" y1="101.53442327624224" x2="576.4" y2="101.53442327624224" stroke="#000"/>
<line x1="562.3000000000001" y1="98.86557672375774" x2="562.3000000000001" y2="101.53442327624224" stroke="#000"/>
<line x1="562.3000000000001" y1="498.0" x2="562.3000000000001" y2="502.79999999999995" stroke="#000"/>
<text x="562.3000000000001" y="512.4" fill="#111" font-size="small" font-family="monospace" font-weight="bold" text-anchor="end" transform="rotate(-60, 562.3000000000001, 512.4)">
fannkuchredux
</text>
<rect x="604.5999999999999" y="307.9764529722524" width="28.2" height="190.0235470277475" fill="#7070f8" data-tooltip="1.00x baseline speed (No JIT)"/>
<line x1="604.5999999999999" y1="306.6582051493252" x2="632.8" y2="306.6582051493252" stroke="#000"/>
<line x1="604.5999999999999" y1="309.29470079517955" x2="632.8" y2="309.29470079517955" stroke="#000"/>
<line x1="618.6999999999999" y1="306.6582051493252" x2="618.6999999999999" y2="309.29470079517955" stroke="#000"/>
<rect x="632.8" y="245.2587401091337" width="28.2" height="252.74125989086625" fill="orange" data-tooltip="1.33x baseline speed (YJIT)"/>
<line x1="632.8" y1="242.48599571654742" x2="660.9999999999999" y2="242.48599571654742" stroke="#000"/>
<line x1="632.8" y1="248.03148450171997" x2="660.9999999999999" y2="248.03148450171997" stroke="#000"/>
<line x1="646.8999999999999" y1="242.48599571654742" x2="646.8999999999999" y2="248.03148450171997" stroke="#000"/>
<line x1="646.8999999999999" y1="498.0" x2="646.8999999999999" y2="502.79999999999995" stroke="#000"/>
<text x="646.8999999999999" y="512.4" fill="#111" font-size="small" font-family="monospace" font-weight="bold" text-anchor="end" transform="rotate(-60, 646.8999999999999, 512.4)">
lee
</text>
<rect x="689.1999999999999" y="307.9764529722524" width="28.2" height="190.0235470277475" fill="#7070f8" data-tooltip="1.00x baseline speed (No JIT)"/>
<line x1="689.1999999999999" y1="305.39496306549853" x2="717.4" y2="305.39496306549853" stroke="#000"/>
<line x1="689.1999999999999" y1="310.5579428790063" x2="717.4" y2="310.5579428790063" stroke="#000"/>
<line x1="703.3" y1="305.39496306549853" x2="703.3" y2="310.5579428790063" stroke="#000"/>
<rect x="717.4" y="249.02395917651975" width="28.2" height="248.9760408234802" fill="orange" data-tooltip="1.31x baseline speed (YJIT)"/>
<line x1="717.4" y1="245.61926913004288" x2="745.5999999999999" y2="245.61926913004288" stroke="#000"/>
<line x1="717.4" y1="252.42864922299663" x2="745.5999999999999" y2="252.42864922299663" stroke="#000"/>
<line x1="731.4999999999999" y1="245.61926913004288" x2="731.4999999999999" y2="252.42864922299663" stroke="#000"/>
<line x1="731.4999999999999" y1="498.0" x2="731.4999999999999" y2="502.79999999999995" stroke="#000"/>
<text x="731.4999999999999" y="512.4" fill="#111" font-size="small" font-family="monospace" font-weight="bold" text-anchor="end" transform="rotate(-60, 731.4999999999999, 512.4)">
nbody
</text>
<rect x="773.8" y="307.9764529722524" width="28.2" height="190.0235470277475" fill="#7070f8" data-tooltip="1.00x baseline speed (No JIT)"/>
<line x1="773.8" y1="306.9287324749621" x2="801.9999999999999" y2="306.9287324749621" stroke="#000"/>
<line x1="773.8" y1="309.0241734695427" x2="801.9999999999999" y2="309.0241734695427" stroke="#000"/>
<line x1="787.9" y1="306.9287324749621" x2="787.9" y2="309.0241734695427" stroke="#000"/>
<rect x="801.9999999999999" y="260.4338715386572" width="28.2" height="237.56612846134277" fill="orange" data-tooltip="1.25x baseline speed (YJIT)"/>
<line x1="801.9999999999999" y1="258.77094231074994" x2="830.1999999999999" y2="258.77094231074994" stroke="#000"/>
<line x1="801.9999999999999" y1="262.0968007665644" x2="830.1999999999999" y2="262.0968007665644" stroke="#000"/>
<line x1="816.0999999999999" y1="258.77094231074994" x2="816.0999999999999" y2="262.0968007665644" stroke="#000"/>
<line x1="816.0999999999999" y1="498.0" x2="816.0999999999999" y2="502.79999999999995" stroke="#000"/>
<text x="816.0999999999999" y="512.4" fill="#111" font-size="small" font-family="monospace" font-weight="bold" text-anchor="end" transform="rotate(-60, 816.0999999999999, 512.4)">
optcarrot
</text>
<rect x="858.4" y="307.9764529722524" width="28.2" height="190.0235470277475" fill="#7070f8" data-tooltip="1.00x baseline speed (No JIT)"/>
<line x1="858.4" y1="307.28878436495245" x2="886.5999999999999" y2="307.28878436495245" stroke="#000"/>
<line x1="858.4" y1="308.6641215795524" x2="886.5999999999999" y2="308.6641215795524" stroke="#000"/>
<line x1="872.4999999999999" y1="307.28878436495245" x2="872.4999999999999" y2="308.6641215795524" stroke="#000"/>
<rect x="886.5999999999999" y="243.3757456164186" width="28.2" height="254.62425438358136" fill="orange" data-tooltip="1.34x baseline speed (YJIT)"/>
<line x1="886.5999999999999" y1="242.06259471173135" x2="914.8" y2="242.06259471173135" stroke="#000"/>
<line x1="886.5999999999999" y1="244.68889652110587" x2="914.8" y2="244.68889652110587" stroke="#000"/>
<line x1="900.6999999999999" y1="242.06259471173135" x2="900.6999999999999" y2="244.68889652110587" stroke="#000"/>
<line x1="900.6999999999999" y1="498.0" x2="900.6999999999999" y2="502.79999999999995" stroke="#000"/>
<text x="900.6999999999999" y="512.4" fill="#111" font-size="small" font-family="monospace" font-weight="bold" text-anchor="end" transform="rotate(-60, 900.6999999999999, 512.4)">
rubykon
</text>
</svg>