<svg viewBox="0 0 1000 600" xmlns="http://www.w3.org/2000/svg" xmlns:xlink="http://www.w3.org/1999/xlink" width="100%" height="100%">

<rect x="50.0" y="30.0" width="940.0" height="467.99999999999994" stroke="#000" fill="#EEE"/>
<line x1="42.0" y1="497.9999999999999" x2="50.0" y2="497.9999999999999" stroke="#000"/>
<text x="26.000000000000004" y="497.9999999999999" text-anchor="end" font-weight="bold" font-size="small" fill="#111">
0.0
</text>
<line x1="42.0" y1="401.9508031322156" x2="50.0" y2="401.9508031322156" stroke="#000"/>
<text x="26.000000000000004" y="401.9508031322156" text-anchor="end" font-weight="bold" font-size="small" fill="#111">
0.5
</text>
<line x1="42.0" y1="305.90160626443105" x2="50.0" y2="305.90160626443105" stroke="#000"/>
<text x="26.000000000000004" y="305.90160626443105" text-anchor="end" font-weight="bold" font-size="small" fill="#111">
1.0
</text>
<line x1="42.0" y1="209.8524093966466" x2="50.0" y2="209.8524093966466" stroke="#000"/>
<text x="26.000000000000004" y="209.8524093966466" text-anchor="end" font-weight="bold" font-size="small" fill="#111">
1.5
</text>
<line x1="42.0" y1="113.80321252886218" x2="50.0" y2="113.80321252886218" stroke="#000"/>
<text x="26.000000000000004" y="113.80321252886218" text-anchor="end" font-weight="bold" font-size="small" fill="#111">
2.0
</text>
<rect x="268.5" y="36.00000000000001" width="80.0" height="18.0" fill="#7070f8" stroke="#888"/>
<text x="308.5" y="52.50000000000001" font-size="small" text-anchor="middle" font-weight="bold" fill="#EEE">
No JIT
</text>
<rect x="691.4999999999999" y="36.00000000000001" width="80.0" height="18.0" fill="orange" stroke="#888"/>
<text x="731.4999999999999" y="52.50000000000001" font-size="small" text-anchor="middle" font-weight="bold" fill="#EEE">
YJIT
</text>
<rect x="97.0" y="305.90160626443105" width="28.2" height="192.0983937355689" fill="#7070f8" data-tooltip="1.00x baseline speed (No JIT)"/>
<line x1="97.0" y1="304.0397037015096" x2="125.2" y2="304.0397037015096" stroke="#000"/>
<line x1="97.0" y1="307.76350882735255" x2="125.2" y2="307.76350882735255" stroke="#000"/>
<line x1="111.10000000000001" y1="304.0397037015096" x2="111.10000000000001" y2="307.76350882735255" stroke="#000"/>
<rect x="125.2" y="134.5503114216406" width="28.2" height="363.4496885783593" fill="orange" data-tooltip="1.89x baseline speed (YJIT)"/>
<line x1="125.2" y1="121.47827349366102" x2="153.4" y2="121.47827349366102" stroke="#000"/>
<line x1="125.2" y1="147.6223493496202" x2="153.4" y2="147.6223493496202" stroke="#000"/>
<line x1="139.3" y1="121.47827349366102" x2="139.3" y2="147.6223493496202" stroke="#000"/>
<line x1="139.3" y1="498.0" x2="139.3" y2="502.79999999999995" stroke="#000"/>
<text x="139.3" y="512.4" fill="#111" font-size="small" font-family="monospace" font-weight="bold" text-anchor="end" transform="rotate(-60, 139.3, 512.4)">
binarytrees
</text>
<rect x="181.6" y="305.90160626443105" width="28.2" height="192.0983937355689" fill="#7070f8" data-tooltip="1.00x baseline speed (No JIT)"/>
<line x1="181.6" y1="304.1272293701535" x2="209.79999999999998" y2="304.1272293701535" stroke="#000"/>
<line x1="181.6" y1="307.6759831587087" x2="209.79999999999998" y2="307.6759831587087" stroke="#000"/>
<line x1="195.7" y1="304.1272293701535" x2="195.7" y2="307.6759831587087" stroke="#000"/>
<rect x="209.79999999999998" y="218.24950571087726" width="28.2" height="279.7504942891227" fill="orange" data-tooltip="1.46x baseline speed (YJIT)"/>
<line x1="209.79999999999998" y1="215.6283449486249" x2="238.0" y2="215.6283449486249" stroke="#000"/>
<line x1="209.79999999999998" y1="220.87066647312957" x2="238.0" y2="220.87066647312957" stroke="#000"/>
<line x1="223.89999999999998" y1="215.6283449486249" x2="223.89999999999998" y2="220.87066647312957" stroke="#000"/>
<line x1="223.89999999999998" y1="498.0" x2="223.89999999999998" y2="502.79999999999995" stroke="#000"/>
<text x="223.89999999999998" y="512.4" fill="#111" font-size="small" font-family="monospace" font-weight="bold" text-anchor="end" transform="rotate(-60, 223.89999999999998, 512.4)">
chunky_png
</text>
<rect x="266.2" y="305.90160626443105" width="28.2" height="192.0983937355689" fill="#7070f8" data-tooltip="1.00x baseline speed (No JIT)"/>
<line x1="266.2" y1="303.43305287707904" x2="294.4" y2="303.43305287707904" stroke="#000"/>
<line x1="266.2" y1="308.3701596517831" x2="294.4" y2="308.3701596517831" stroke="#000"/>
<line x1="280.3" y1="303.43305287707904" x2="280.3" y2="308.3701596517831" stroke="#000"/>
<rect x="294.4" y="296.59657042306844" width="28.2" height="201.4034295769315" fill="orange" data-tooltip="1.05x baseline speed (YJIT)"/>
<line x1="294.4" y1="293.4255542634302" x2="322.6" y2="293.4255542634302" stroke="#000"/>
<line x1="294.4" y1="299.7675865827067" x2="322.6" y2="299.7675865827067" stroke="#000"/>
<line x1="308.5" y1="293.4255542634302" x2="308.5" y2="299.7675865827067" stroke="#000"/>
<line x1="308.5" y1="498.0" x2="308.5" y2="502.79999999999995" stroke="#000"/>
<text x="308.5" y="512.4" fill="#111" font-size="small" font-family="monospace" font-weight="bold" text-anchor="end" transform="rotate(-60, 308.5, 512.4)">
erubi
</text>
<rect x="350.8" y="305.90160626443105" width="28.2" height="192.0983937355689" fill="#7070f8" data-tooltip="1.00x baseline speed (No JIT)"/>
<line x1="350.8" y1="301.89322209671076" x2="379.0" y2="301.89322209671076" stroke="#000"/>
<line x1="350.8" y1="309.9099904321514" x2="379.0" y2="309.9099904321514" stroke="#000"/>
<line x1="364.9" y1="301.89322209671076" x2="364.9" y2="309.9099904321514" stroke="#000"/>
<rect x="379.0" y="276.7396028456776" width="28.2" height="221.2603971543223" fill="orange" data-tooltip="1.15x baseline speed (YJIT)"/>
<line x1="379.0" y1="269.58742111132733" x2="407.2" y2="269.58742111132733" stroke="#000"/>
<line x1="379.0" y1="283.89178458002795" x2="407.2" y2="283.89178458002795" stroke="#000"/>
<line x1="393.1" y1="269.58742111132733" x2="393.1" y2="283.89178458002795" stroke="#000"/>
<line x1="393.1" y1="498.0" x2="393.1" y2="502.79999999999995" stroke="#000"/>
<text x="393.1" y="512.4" fill="#111" font-size="small" font-family="monospace" font-weight="bold" text-anchor="end" transform="rotate(-60, 393.1, 512.4)">
erubi_rails
</text>
<rect x="435.40000000000003" y="305.90160626443105" width="28.2" height="192.0983937355689" fill="#7070f8" data-tooltip="1.00x baseline speed (No JIT)"/>
<line x1="435.40000000000003" y1="302.49907315394523" x2="463.6" y2="302.49907315394523" stroke="#000"/>
<line x1="435.40000000000003" y1="309.30413937491693" x2="463.6" y2="309.30413937491693" stroke="#000"/>
<line x1="449.5" y1="302.49907315394523" x2="449.5" y2="309.30413937491693" stroke="#000"/>
<rect x="463.6" y="308.3787045054881" width="28.2" height="189.62129549451183" fill="orange" data-tooltip="0.99x baseline speed (YJIT)"/>
<line x1="463.6" y1="304.3480438463657" x2="491.8" y2="304.3480438463657" stroke="#000"/>
<line x1="463.6" y1="312.40936516461045" x2="491.8" y2="312.40936516461045" stroke="#000"/>
<line x1="477.7" y1="304.3480438463657" x2="477.7" y2="312.40936516461045" stroke="#000"/>
<line x1="477.7" y1="498.0" x2="477.7" y2="502.79999999999995" stroke="#000"/>
<text x="477.7" y="512.4" fill="#111" font-size="small" font-family="monospace" font-weight="bold" text-anchor="end" transform="rotate(-60, 477.7, 512.4)">
etanni
</text>
<rect x="520.0" y="305.90160626443105" width="28.2" height="192.0983937355689" fill="#7070f8" data-tooltip="1.00x baseline speed (No JIT)"/>
<line x1="520.0" y1="303.9499234347853" x2="548.2" y2="303.9499234347853" stroke="#000"/>
<line x1="520.0" y1="307.85328909407684" x2="548.2" y2="307.85328909407684" stroke="#000"/>
<line x1="534.1" y1="303.9499234347853" x2="534.1" y2="307.85328909407684" stroke="#000"/>
<rect x="548.2" y="100.19999999999999" width="28.2" height="397.79999999999995" fill="orange" data-tooltip="2.07x baseline speed (YJIT)"/>
<line x1="548.2" y1="96.13426373388835" x2="576.4" y2="96.13426373388835" stroke="#000"/>
<line x1="548.2" y1="104.26573626611163" x2="576.4" y2="104.26573626611163" stroke="#000"/>
<line x1="562.3000000000001" y1="96.13426373388835" x2="562.3000000000001" y2="104.26573626611163" stroke="#000"/>
<line x1="562.3000000000001" y1="498.0" x2="562.3000000000001" y2="502.79999999999995" stroke="#000"/>
<text x="562.3000000000001" y="512.4" fill="#111" font-size="small" font-family="monospace" font-weight="bold" text-anchor="end" transform="rotate(-60, 562.3000000000001, 512.4)">
fannkuchredux
</text>
<rect x="604.5999999999999" y="305.90160626443105" width="28.2" height="192.0983937355689" fill="#7070f8" data-tooltip="1.00x baseline speed (No JIT)"/>
<line x1="604.5999999999999" y1="305.4311404825333" x2="632.8" y2="305.4311404825333" stroke="#000"/>
<line x1="604.5999999999999" y1="306.37207204632887" x2="632.8" y2="306.37207204632887" stroke="#000"/>
<line x1="618.6999999999999" y1="305.4311404825333" x2="618.6999999999999" y2="306.37207204632887" stroke="#000"/>
<rect x="632.8" y="245.34689826154698" width="28.2" height="252.65310173845296" fill="orange" data-tooltip="1.32x baseline speed (YJIT)"/>
<line x1="632.8" y1="240.78132010006345" x2="660.9999999999999" y2="240.78132010006345" stroke="#000"/>
<line x1="632.8" y1="249.91247642303048" x2="660.9999999999999" y2="249.91247642303048" stroke="#000"/>
<line x1="646.8999999999999" y1="240.78132010006345" x2="646.8999999999999" y2="249.91247642303048" stroke="#000"/>
<line x1="646.8999999999999" y1="498.0" x2="646.8999999999999" y2="502.79999999999995" stroke="#000"/>
<text x="646.8999999999999" y="512.4" fill="#111" font-size="small" font-family="monospace" font-weight="bold" text-anchor="end" transform="rotate(-60, 646.8999999999999, 512.4)">
lee
</text>
<rect x="689.1999999999999" y="305.90160626443105" width="28.2" height="192.0983937355689" fill="#7070f8" data-tooltip="1.00x baseline speed (No JIT)"/>
<line x1="689.1999999999999" y1="302.9534212162226" x2="717.4" y2="302.9534212162226" stroke="#000"/>
<line x1="689.1999999999999" y1="308.8497913126396" x2="717.4" y2="308.8497913126396" stroke="#000"/>
<line x1="703.3" y1="302.9534212162226" x2="703.3" y2="308.8497913126396" stroke="#000"/>
<rect x="717.4" y="244.97649914688253" width="28.2" height="253.02350085311738" fill="orange" data-tooltip="1.32x baseline speed (YJIT)"/>
<line x1="717.4" y1="241.08734442909915" x2="745.5999999999999" y2="241.08734442909915" stroke="#000"/>
<line x1="717.4" y1="248.86565386466592" x2="745.5999999999999" y2="248.86565386466592" stroke="#000"/>
<line x1="731.4999999999999" y1="241.08734442909915" x2="731.4999999999999" y2="248.86565386466592" stroke="#000"/>
<line x1="731.4999999999999" y1="498.0" x2="731.4999999999999" y2="502.79999999999995" stroke="#000"/>
<text x="731.4999999999999" y="512.4" fill="#111" font-size="small" font-family="monospace" font-weight="bold" text-anchor="end" transform="rotate(-60, 731.4999999999999, 512.4)">
nbody
</text>
<rect x="773.8" y="305.90160626443105" width="28.2" height="192.0983937355689" fill="#7070f8" data-tooltip="1.00x baseline speed (No JIT)"/>
<line x1="773.8" y1="304.9155741348342" x2="801.9999999999999" y2="304.9155741348342" stroke="#000"/>
<line x1="773.8" y1="306.887638394028" x2="801.9999999999999" y2="306.887638394028" stroke="#000"/>
<line x1="787.9" y1="304.9155741348342" x2="787.9" y2="306.887638394028" stroke="#000"/>
<rect x="801.9999999999999" y="282.84956950507427" width="28.2" height="215.15043049492567" fill="orange" data-tooltip="1.12x baseline speed (YJIT)"/>
<line x1="801.9999999999999" y1="281.4447274752543" x2="830.1999999999999" y2="281.4447274752543" stroke="#000"/>
<line x1="801.9999999999999" y1="284.25441153489425" x2="830.1999999999999" y2="284.25441153489425" stroke="#000"/>
<line x1="816.0999999999999" y1="281.4447274752543" x2="816.0999999999999" y2="284.25441153489425" stroke="#000"/>
<line x1="816.0999999999999" y1="498.0" x2="816.0999999999999" y2="502.79999999999995" stroke="#000"/>
<text x="816.0999999999999" y="512.4" fill="#111" font-size="small" font-family="monospace" font-weight="bold" text-anchor="end" transform="rotate(-60, 816.0999999999999, 512.4)">
optcarrot
</text>
<rect x="858.4" y="305.90160626443105" width="28.2" height="192.0983937355689" fill="#7070f8" data-tooltip="1.00x baseline speed (No JIT)"/>
<line x1="858.4" y1="305.3719973531225" x2="886.5999999999999" y2="305.3719973531225" stroke="#000"/>
<line x1="858.4" y1="306.4312151757397" x2="886.5999999999999" y2="306.4312151757397" stroke="#000"/>
<line x1="872.4999999999999" y1="305.3719973531225" x2="872.4999999999999" y2="306.4312151757397" stroke="#000"/>
<rect x="886.5999999999999" y="244.90010919955577" width="28.2" height="253.09989080044417" fill="orange" data-tooltip="1.32x baseline speed (YJIT)"/>
<line x1="886.5999999999999" y1="243.35096675340694" x2="914.8" y2="243.35096675340694" stroke="#000"/>
<line x1="886.5999999999999" y1="246.4492516457046" x2="914.8" y2="246.4492516457046" stroke="#000"/>
<line x1="900.6999999999999" y1="243.35096675340694" x2="900.6999999999999" y2="246.4492516457046" stroke="#000"/>
<line x1="900.6999999999999" y1="498.0" x2="900.6999999999999" y2="502.79999999999995" stroke="#000"/>
<text x="900.6999999999999" y="512.4" fill="#111" font-size="small" font-family="monospace" font-weight="bold" text-anchor="end" transform="rotate(-60, 900.6999999999999, 512.4)">
rubykon
</text>
</svg>