<svg viewBox="0 0 1000 600" xmlns="http://www.w3.org/2000/svg" xmlns:xlink="http://www.w3.org/1999/xlink" width="100%" height="100%">

<rect x="50.0" y="30.0" width="940.0" height="467.99999999999994" stroke="#000" fill="#EEE"/>
<line x1="42.0" y1="497.9999999999999" x2="50.0" y2="497.9999999999999" stroke="#000"/>
<text x="26.000000000000004" y="497.9999999999999" text-anchor="end" font-weight="bold" font-size="small" fill="#111">
0.0
</text>
<line x1="42.0" y1="408.7796329620132" x2="50.0" y2="408.7796329620132" stroke="#000"/>
<text x="26.000000000000004" y="408.7796329620132" text-anchor="end" font-weight="bold" font-size="small" fill="#111">
0.5
</text>
<line x1="42.0" y1="319.55926592402665" x2="50.0" y2="319.55926592402665" stroke="#000"/>
<text x="26.000000000000004" y="319.55926592402665" text-anchor="end" font-weight="bold" font-size="small" fill="#111">
1.0
</text>
<line x1="42.0" y1="230.33889888603994" x2="50.0" y2="230.33889888603994" stroke="#000"/>
<text x="26.000000000000004" y="230.33889888603994" text-anchor="end" font-weight="bold" font-size="small" fill="#111">
1.5
</text>
<line x1="42.0" y1="141.11853184805327" x2="50.0" y2="141.11853184805327" stroke="#000"/>
<text x="26.000000000000004" y="141.11853184805327" text-anchor="end" font-weight="bold" font-size="small" fill="#111">
2.0
</text>
<rect x="197.99999999999997" y="36.00000000000001" width="80.0" height="18.0" fill="#7070f8" stroke="#888"/>
<text x="238.0" y="52.50000000000001" font-size="small" text-anchor="middle" font-weight="bold" fill="#EEE">
No JIT
</text>
<rect x="479.99999999999994" y="36.00000000000001" width="80.0" height="18.0" fill="orange" stroke="#888"/>
<text x="519.9999999999999" y="52.50000000000001" font-size="small" text-anchor="middle" font-weight="bold" fill="#EEE">
MJIT
</text>
<rect x="761.9999999999999" y="36.00000000000001" width="80.0" height="18.0" fill="green" stroke="#888"/>
<text x="801.9999999999999" y="52.50000000000001" font-size="small" text-anchor="middle" font-weight="bold" fill="#EEE">
YJIT
</text>
<rect x="97.0" y="319.55926592402665" width="23.5" height="178.44073407597335" fill="#7070f8" data-tooltip="1.00x baseline speed (No JIT)"/>
<line x1="97.0" y1="319.26002242605875" x2="120.5" y2="319.26002242605875" stroke="#000"/>
<line x1="97.0" y1="319.85850942199454" x2="120.5" y2="319.85850942199454" stroke="#000"/>
<line x1="108.75" y1="319.26002242605875" x2="108.75" y2="319.85850942199454" stroke="#000"/>
<rect x="120.5" y="228.0230856972621" width="23.5" height="269.9769143027378" fill="orange" data-tooltip="1.51x baseline speed (MJIT)"/>
<line x1="120.5" y1="222.415939875247" x2="144.0" y2="222.415939875247" stroke="#000"/>
<line x1="120.5" y1="233.6302315192772" x2="144.0" y2="233.6302315192772" stroke="#000"/>
<line x1="132.25" y1="222.415939875247" x2="132.25" y2="233.6302315192772" stroke="#000"/>
<rect x="144.00000000000003" y="271.7607730505684" width="23.5" height="226.23922694943158" fill="green" data-tooltip="1.27x baseline speed (YJIT)"/>
<line x1="144.00000000000003" y1="271.3368443337531" x2="167.5" y2="271.3368443337531" stroke="#000"/>
<line x1="144.00000000000003" y1="272.1847017673837" x2="167.5" y2="272.1847017673837" stroke="#000"/>
<line x1="155.75000000000003" y1="271.3368443337531" x2="155.75000000000003" y2="272.1847017673837" stroke="#000"/>
<line x1="144.00000000000003" y1="498.0" x2="144.00000000000003" y2="502.79999999999995" stroke="#000"/>
<text x="144.00000000000003" y="512.4" fill="#111" font-size="small" font-family="monospace" font-weight="bold" text-anchor="end" transform="rotate(-60, 144.00000000000003, 512.4)">
binarytrees
</text>
<rect x="191.0" y="319.55926592402665" width="23.5" height="178.44073407597335" fill="#7070f8" data-tooltip="1.00x baseline speed (No JIT)"/>
<line x1="191.0" y1="319.5109621499998" x2="214.5" y2="319.5109621499998" stroke="#000"/>
<line x1="191.0" y1="319.6075696980535" x2="214.5" y2="319.6075696980535" stroke="#000"/>
<line x1="202.75" y1="319.5109621499998" x2="202.75" y2="319.6075696980535" stroke="#000"/>
<rect x="214.5" y="276.16330769502986" width="23.5" height="221.83669230497011" fill="orange" data-tooltip="1.24x baseline speed (MJIT)"/>
<line x1="214.5" y1="275.9387533497817" x2="238.0" y2="275.9387533497817" stroke="#000"/>
<line x1="214.5" y1="276.387862040278" x2="238.0" y2="276.387862040278" stroke="#000"/>
<line x1="226.25" y1="275.9387533497817" x2="226.25" y2="276.387862040278" stroke="#000"/>
<rect x="238.0" y="237.34089268571668" width="23.5" height="260.65910731428323" fill="green" data-tooltip="1.46x baseline speed (YJIT)"/>
<line x1="238.0" y1="236.9891304180194" x2="261.5" y2="236.9891304180194" stroke="#000"/>
<line x1="238.0" y1="237.69265495341395" x2="261.5" y2="237.69265495341395" stroke="#000"/>
<line x1="249.75" y1="236.9891304180194" x2="249.75" y2="237.69265495341395" stroke="#000"/>
<line x1="238.0" y1="498.0" x2="238.0" y2="502.79999999999995" stroke="#000"/>
<text x="238.0" y="512.4" fill="#111" font-size="small" font-family="monospace" font-weight="bold" text-anchor="end" transform="rotate(-60, 238.0, 512.4)">
chunky_png
</text>
<rect x="285.00000000000006" y="319.55926592402665" width="23.5" height="178.44073407597335" fill="#7070f8" data-tooltip="1.00x baseline speed (No JIT)"/>
<line x1="285.00000000000006" y1="313.03490661382756" x2="308.50000000000006" y2="313.03490661382756" stroke="#000"/>
<line x1="285.00000000000006" y1="326.08362523422574" x2="308.50000000000006" y2="326.08362523422574" stroke="#000"/>
<line x1="296.75" y1="313.03490661382756" x2="296.75" y2="326.08362523422574" stroke="#000"/>
<rect x="308.50000000000006" y="311.6536755438637" width="23.5" height="186.34632445613622" fill="orange" data-tooltip="1.04x baseline speed (MJIT)"/>
<line x1="308.50000000000006" y1="303.30123814143656" x2="332.00000000000006" y2="303.30123814143656" stroke="#000"/>
<line x1="308.50000000000006" y1="320.0061129462909" x2="332.00000000000006" y2="320.0061129462909" stroke="#000"/>
<line x1="320.25000000000006" y1="303.30123814143656" x2="320.25000000000006" y2="320.0061129462909" stroke="#000"/>
<rect x="332.0" y="288.48736707096833" width="23.5" height="209.5126329290316" fill="green" data-tooltip="1.17x baseline speed (YJIT)"/>
<line x1="332.0" y1="280.69912230661424" x2="355.50000000000006" y2="280.69912230661424" stroke="#000"/>
<line x1="332.0" y1="296.2756118353224" x2="355.50000000000006" y2="296.2756118353224" stroke="#000"/>
<line x1="343.75" y1="280.69912230661424" x2="343.75" y2="296.2756118353224" stroke="#000"/>
<line x1="332.0" y1="498.0" x2="332.0" y2="502.79999999999995" stroke="#000"/>
<text x="332.0" y="512.4" fill="#111" font-size="small" font-family="monospace" font-weight="bold" text-anchor="end" transform="rotate(-60, 332.0, 512.4)">
erubi
</text>
<rect x="379.0" y="319.55926592402665" width="23.5" height="178.44073407597335" fill="#7070f8" data-tooltip="1.00x baseline speed (No JIT)"/>
<line x1="379.0" y1="314.9250502088156" x2="402.5" y2="314.9250502088156" stroke="#000"/>
<line x1="379.0" y1="324.19348163923763" x2="402.5" y2="324.19348163923763" stroke="#000"/>
<line x1="390.75" y1="314.9250502088156" x2="390.75" y2="324.19348163923763" stroke="#000"/>
<rect x="402.5" y="322.38827598605866" width="23.5" height="175.61172401394126" fill="orange" data-tooltip="0.98x baseline speed (MJIT)"/>
<line x1="402.5" y1="316.6030581980077" x2="426.00000000000006" y2="316.6030581980077" stroke="#000"/>
<line x1="402.5" y1="328.1734937741096" x2="426.00000000000006" y2="328.1734937741096" stroke="#000"/>
<line x1="414.25" y1="316.6030581980077" x2="414.25" y2="328.1734937741096" stroke="#000"/>
<rect x="426.0" y="248.9143962383243" width="23.5" height="249.08560376167563" fill="green" data-tooltip="1.40x baseline speed (YJIT)"/>
<line x1="426.0" y1="237.64083946913783" x2="449.5" y2="237.64083946913783" stroke="#000"/>
<line x1="426.0" y1="260.1879530075107" x2="449.5" y2="260.1879530075107" stroke="#000"/>
<line x1="437.75" y1="237.64083946913783" x2="437.75" y2="260.1879530075107" stroke="#000"/>
<line x1="426.0" y1="498.0" x2="426.0" y2="502.79999999999995" stroke="#000"/>
<text x="426.0" y="512.4" fill="#111" font-size="small" font-family="monospace" font-weight="bold" text-anchor="end" transform="rotate(-60, 426.0, 512.4)">
erubi_rails
</text>
<rect x="473.0" y="319.55926592402665" width="23.5" height="178.44073407597335" fill="#7070f8" data-tooltip="1.00x baseline speed (No JIT)"/>
<line x1="473.0" y1="319.3516021179831" x2="496.5" y2="319.3516021179831" stroke="#000"/>
<line x1="473.0" y1="319.7669297300702" x2="496.5" y2="319.7669297300702" stroke="#000"/>
<line x1="484.74999999999994" y1="319.3516021179831" x2="484.74999999999994" y2="319.7669297300702" stroke="#000"/>
<rect x="496.5" y="122.43134672131049" width="23.5" height="375.56865327868945" fill="orange" data-tooltip="2.10x baseline speed (MJIT)"/>
<line x1="496.5" y1="121.98349661326824" x2="520.0" y2="121.98349661326824" stroke="#000"/>
<line x1="496.5" y1="122.87919682935274" x2="520.0" y2="122.87919682935274" stroke="#000"/>
<line x1="508.25" y1="121.98349661326824" x2="508.25" y2="122.87919682935274" stroke="#000"/>
<rect x="520.0" y="100.19999999999999" width="23.5" height="397.79999999999995" fill="green" data-tooltip="2.23x baseline speed (YJIT)"/>
<line x1="520.0" y1="99.64235359878168" x2="543.5" y2="99.64235359878168" stroke="#000"/>
<line x1="520.0" y1="100.7576464012183" x2="543.5" y2="100.7576464012183" stroke="#000"/>
<line x1="531.75" y1="99.64235359878168" x2="531.75" y2="100.7576464012183" stroke="#000"/>
<line x1="520.0" y1="498.0" x2="520.0" y2="502.79999999999995" stroke="#000"/>
<text x="520.0" y="512.4" fill="#111" font-size="small" font-family="monospace" font-weight="bold" text-anchor="end" transform="rotate(-60, 520.0, 512.4)">
fannkuchredux
</text>
<rect x="567.0" y="319.55926592402665" width="23.5" height="178.44073407597335" fill="#7070f8" data-tooltip="1.00x baseline speed (No JIT)"/>
<line x1="567.0" y1="317.2911587728404" x2="590.4999999999999" y2="317.2911587728404" stroke="#000"/>
<line x1="567.0" y1="321.8273730752129" x2="590.4999999999999" y2="321.8273730752129" stroke="#000"/>
<line x1="578.75" y1="317.2911587728404" x2="578.75" y2="321.8273730752129" stroke="#000"/>
<rect x="590.4999999999999" y="284.68440952313915" width="23.5" height="213.3155904768608" fill="orange" data-tooltip="1.20x baseline speed (MJIT)"/>
<line x1="590.4999999999999" y1="280.3439047730027" x2="613.9999999999999" y2="280.3439047730027" stroke="#000"/>
<line x1="590.4999999999999" y1="289.0249142732756" x2="613.9999999999999" y2="289.0249142732756" stroke="#000"/>
<line x1="602.25" y1="280.3439047730027" x2="602.25" y2="289.0249142732756" stroke="#000"/>
<rect x="614.0" y="262.93186390877713" width="23.5" height="235.06813609122284" fill="green" data-tooltip="1.32x baseline speed (YJIT)"/>
<line x1="614.0" y1="258.0476692749207" x2="637.5" y2="258.0476692749207" stroke="#000"/>
<line x1="614.0" y1="267.8160585426335" x2="637.5" y2="267.8160585426335" stroke="#000"/>
<line x1="625.75" y1="258.0476692749207" x2="625.75" y2="267.8160585426335" stroke="#000"/>
<line x1="614.0" y1="498.0" x2="614.0" y2="502.79999999999995" stroke="#000"/>
<text x="614.0" y="512.4" fill="#111" font-size="small" font-family="monospace" font-weight="bold" text-anchor="end" transform="rotate(-60, 614.0, 512.4)">
lee
</text>
<rect x="661.0" y="319.55926592402665" width="23.5" height="178.44073407597335" fill="#7070f8" data-tooltip="1.00x baseline speed (No JIT)"/>
<line x1="661.0" y1="319.3937392363377" x2="684.5" y2="319.3937392363377" stroke="#000"/>
<line x1="661.0" y1="319.7247926117156" x2="684.5" y2="319.7247926117156" stroke="#000"/>
<line x1="672.7500000000001" y1="319.3937392363377" x2="672.7500000000001" y2="319.7247926117156" stroke="#000"/>
<rect x="684.5" y="190.91540942921833" width="23.5" height="307.08459057078164" fill="orange" data-tooltip="1.72x baseline speed (MJIT)"/>
<line x1="684.5" y1="188.9229782077674" x2="708.0" y2="188.9229782077674" stroke="#000"/>
<line x1="684.5" y1="192.90784065066927" x2="708.0" y2="192.90784065066927" stroke="#000"/>
<line x1="696.25" y1="188.9229782077674" x2="696.25" y2="192.90784065066927" stroke="#000"/>
<rect x="708.0000000000001" y="250.1373703525506" width="23.5" height="247.86262964744935" fill="green" data-tooltip="1.39x baseline speed (YJIT)"/>
<line x1="708.0000000000001" y1="249.74707148503" x2="731.5" y2="249.74707148503" stroke="#000"/>
<line x1="708.0000000000001" y1="250.5276692200712" x2="731.5" y2="250.5276692200712" stroke="#000"/>
<line x1="719.7500000000001" y1="249.74707148503" x2="719.7500000000001" y2="250.5276692200712" stroke="#000"/>
<line x1="708.0000000000001" y1="498.0" x2="708.0000000000001" y2="502.79999999999995" stroke="#000"/>
<text x="708.0000000000001" y="512.4" fill="#111" font-size="small" font-family="monospace" font-weight="bold" text-anchor="end" transform="rotate(-60, 708.0000000000001, 512.4)">
nbody
</text>
<rect x="755.0" y="319.55926592402665" width="23.5" height="178.44073407597335" fill="#7070f8" data-tooltip="1.00x baseline speed (No JIT)"/>
<line x1="755.0" y1="318.79441108019216" x2="778.5" y2="318.79441108019216" stroke="#000"/>
<line x1="755.0" y1="320.3241207678611" x2="778.5" y2="320.3241207678611" stroke="#000"/>
<line x1="766.75" y1="318.79441108019216" x2="766.75" y2="320.3241207678611" stroke="#000"/>
<rect x="778.5" y="101.53523092005686" width="23.5" height="396.46476907994304" fill="orange" data-tooltip="2.22x baseline speed (MJIT)"/>
<line x1="778.5" y1="98.57942171914462" x2="801.9999999999999" y2="98.57942171914462" stroke="#000"/>
<line x1="778.5" y1="104.49104012096912" x2="801.9999999999999" y2="104.49104012096912" stroke="#000"/>
<line x1="790.25" y1="98.57942171914462" x2="790.25" y2="104.49104012096912" stroke="#000"/>
<rect x="802.0" y="180.5062861991386" width="23.5" height="317.49371380086137" fill="green" data-tooltip="1.78x baseline speed (YJIT)"/>
<line x1="802.0" y1="178.17892986985638" x2="825.5" y2="178.17892986985638" stroke="#000"/>
<line x1="802.0" y1="182.83364252842082" x2="825.5" y2="182.83364252842082" stroke="#000"/>
<line x1="813.7500000000001" y1="178.17892986985638" x2="813.7500000000001" y2="182.83364252842082" stroke="#000"/>
<line x1="802.0" y1="498.0" x2="802.0" y2="502.79999999999995" stroke="#000"/>
<text x="802.0" y="512.4" fill="#111" font-size="small" font-family="monospace" font-weight="bold" text-anchor="end" transform="rotate(-60, 802.0, 512.4)">
optcarrot
</text>
<rect x="849.0" y="319.55926592402665" width="23.5" height="178.44073407597335" fill="#7070f8" data-tooltip="1.00x baseline speed (No JIT)"/>
<line x1="849.0" y1="318.5558444536441" x2="872.4999999999999" y2="318.5558444536441" stroke="#000"/>
<line x1="849.0" y1="320.5626873944091" x2="872.4999999999999" y2="320.5626873944091" stroke="#000"/>
<line x1="860.75" y1="318.5558444536441" x2="860.75" y2="320.5626873944091" stroke="#000"/>
<rect x="872.4999999999999" y="227.53682370422925" width="23.5" height="270.4631762957707" fill="orange" data-tooltip="1.52x baseline speed (MJIT)"/>
<line x1="872.4999999999999" y1="225.6408885654531" x2="895.9999999999999" y2="225.6408885654531" stroke="#000"/>
<line x1="872.4999999999999" y1="229.4327588430054" x2="895.9999999999999" y2="229.4327588430054" stroke="#000"/>
<line x1="884.25" y1="225.6408885654531" x2="884.25" y2="229.4327588430054" stroke="#000"/>
<rect x="896.0" y="176.4834237605738" width="23.5" height="321.5165762394261" fill="green" data-tooltip="1.80x baseline speed (YJIT)"/>
<line x1="896.0" y1="167.88799102703015" x2="919.5" y2="167.88799102703015" stroke="#000"/>
<line x1="896.0" y1="185.07885649411745" x2="919.5" y2="185.07885649411745" stroke="#000"/>
<line x1="907.75" y1="167.88799102703015" x2="907.75" y2="185.07885649411745" stroke="#000"/>
<line x1="896.0" y1="498.0" x2="896.0" y2="502.79999999999995" stroke="#000"/>
<text x="896.0" y="512.4" fill="#111" font-size="small" font-family="monospace" font-weight="bold" text-anchor="end" transform="rotate(-60, 896.0, 512.4)">
rubykon
</text>
</svg>