<svg viewBox="0 0 1000 600" xmlns="http://www.w3.org/2000/svg" xmlns:xlink="http://www.w3.org/1999/xlink" width="100%" height="100%">

<rect x="50.0" y="30.0" width="940.0" height="467.99999999999994" stroke="#000" fill="#EEE"/>
<line x1="42.0" y1="497.9999999999999" x2="50.0" y2="497.9999999999999" stroke="#000"/>
<text x="26.000000000000004" y="497.9999999999999" text-anchor="end" font-weight="bold" font-size="small" fill="#111">
0.0
</text>
<line x1="42.0" y1="433.79850445411626" x2="50.0" y2="433.79850445411626" stroke="#000"/>
<text x="26.000000000000004" y="433.79850445411626" text-anchor="end" font-weight="bold" font-size="small" fill="#111">
1.0
</text>
<line x1="42.0" y1="369.59700890823245" x2="50.0" y2="369.59700890823245" stroke="#000"/>
<text x="26.000000000000004" y="369.59700890823245" text-anchor="end" font-weight="bold" font-size="small" fill="#111">
2.0
</text>
<line x1="42.0" y1="305.39551336234865" x2="50.0" y2="305.39551336234865" stroke="#000"/>
<text x="26.000000000000004" y="305.39551336234865" text-anchor="end" font-weight="bold" font-size="small" fill="#111">
3.0
</text>
<line x1="42.0" y1="241.19401781646494" x2="50.0" y2="241.19401781646494" stroke="#000"/>
<text x="26.000000000000004" y="241.19401781646494" text-anchor="end" font-weight="bold" font-size="small" fill="#111">
4.0
</text>
<line x1="42.0" y1="176.99252227058116" x2="50.0" y2="176.99252227058116" stroke="#000"/>
<text x="26.000000000000004" y="176.99252227058116" text-anchor="end" font-weight="bold" font-size="small" fill="#111">
5.0
</text>
<line x1="42.0" y1="112.79102672469743" x2="50.0" y2="112.79102672469743" stroke="#000"/>
<text x="26.000000000000004" y="112.79102672469743" text-anchor="end" font-weight="bold" font-size="small" fill="#111">
6.0
</text>
<rect x="268.5" y="36.00000000000001" width="80.0" height="18.0" fill="#7070f8" stroke="#888"/>
<text x="308.5" y="52.50000000000001" font-size="small" text-anchor="middle" font-weight="bold" fill="#EEE">
No JIT
</text>
<rect x="691.4999999999999" y="36.00000000000001" width="80.0" height="18.0" fill="orange" stroke="#888"/>
<text x="731.4999999999999" y="52.50000000000001" font-size="small" text-anchor="middle" font-weight="bold" fill="#EEE">
YJIT
</text>
<rect x="97.0" y="433.79850445411626" width="31.333333333333332" height="64.20149554588376" fill="#7070f8" data-tooltip="1.00x baseline speed (No JIT)"/>
<line x1="97.0" y1="433.7263859788882" x2="128.33333333333331" y2="433.7263859788882" stroke="#000"/>
<line x1="97.0" y1="433.87062292934434" x2="128.33333333333331" y2="433.87062292934434" stroke="#000"/>
<line x1="112.66666666666667" y1="433.7263859788882" x2="112.66666666666667" y2="433.87062292934434" stroke="#000"/>
<rect x="128.33333333333331" y="314.1532187840203" width="31.333333333333332" height="183.8467812159796" fill="orange" data-tooltip="2.86x baseline speed (YJIT)"/>
<line x1="128.33333333333331" y1="313.90412888759556" x2="159.66666666666666" y2="313.90412888759556" stroke="#000"/>
<line x1="128.33333333333331" y1="314.402308680445" x2="159.66666666666666" y2="314.402308680445" stroke="#000"/>
<line x1="144.0" y1="313.90412888759556" x2="144.0" y2="314.402308680445" stroke="#000"/>
<line x1="144.00000000000003" y1="498.0" x2="144.00000000000003" y2="502.79999999999995" stroke="#000"/>
<text x="144.00000000000003" y="512.4" fill="#111" font-size="small" font-family="monospace" font-weight="bold" text-anchor="end" transform="rotate(-60, 144.00000000000003, 512.4)">
30k_ifelse
</text>
<rect x="191.0" y="433.79850445411626" width="31.333333333333332" height="64.20149554588376" fill="#7070f8" data-tooltip="1.00x baseline speed (No JIT)"/>
<line x1="191.0" y1="433.3246353347177" x2="222.33333333333331" y2="433.3246353347177" stroke="#000"/>
<line x1="191.0" y1="434.2723735735148" x2="222.33333333333331" y2="434.2723735735148" stroke="#000"/>
<line x1="206.66666666666666" y1="433.3246353347177" x2="206.66666666666666" y2="434.2723735735148" stroke="#000"/>
<rect x="222.33333333333331" y="291.56100390425314" width="31.333333333333332" height="206.43899609574677" fill="orange" data-tooltip="3.22x baseline speed (YJIT)"/>
<line x1="222.33333333333331" y1="290.0215275682267" x2="253.66666666666666" y2="290.0215275682267" stroke="#000"/>
<line x1="222.33333333333331" y1="293.1004802402796" x2="253.66666666666666" y2="293.1004802402796" stroke="#000"/>
<line x1="238.0" y1="290.0215275682267" x2="238.0" y2="293.1004802402796" stroke="#000"/>
<line x1="238.0" y1="498.0" x2="238.0" y2="502.79999999999995" stroke="#000"/>
<text x="238.0" y="512.4" fill="#111" font-size="small" font-family="monospace" font-weight="bold" text-anchor="end" transform="rotate(-60, 238.0, 512.4)">
30k_methods
</text>
<rect x="285.00000000000006" y="433.79850445411626" width="31.333333333333332" height="64.20149554588376" fill="#7070f8" data-tooltip="1.00x baseline speed (No JIT)"/>
<line x1="285.00000000000006" y1="433.6900681696973" x2="316.33333333333337" y2="433.6900681696973" stroke="#000"/>
<line x1="285.00000000000006" y1="433.9069407385351" x2="316.33333333333337" y2="433.9069407385351" stroke="#000"/>
<line x1="300.6666666666667" y1="433.6900681696973" x2="300.6666666666667" y2="433.9069407385351" stroke="#000"/>
<rect x="316.33333333333337" y="344.22785595376644" width="31.333333333333332" height="153.7721440462335" fill="orange" data-tooltip="2.40x baseline speed (YJIT)"/>
<line x1="316.33333333333337" y1="343.922328701449" x2="347.6666666666667" y2="343.922328701449" stroke="#000"/>
<line x1="316.33333333333337" y1="344.5333832060839" x2="347.6666666666667" y2="344.5333832060839" stroke="#000"/>
<line x1="332.0" y1="343.922328701449" x2="332.0" y2="344.5333832060839" stroke="#000"/>
<line x1="332.0" y1="498.0" x2="332.0" y2="502.79999999999995" stroke="#000"/>
<text x="332.0" y="512.4" fill="#111" font-size="small" font-family="monospace" font-weight="bold" text-anchor="end" transform="rotate(-60, 332.0, 512.4)">
cfunc_itself
</text>
<rect x="379.0" y="433.79850445411626" width="31.333333333333332" height="64.20149554588376" fill="#7070f8" data-tooltip="1.00x baseline speed (No JIT)"/>
<line x1="379.0" y1="433.007767158078" x2="410.3333333333333" y2="433.007767158078" stroke="#000"/>
<line x1="379.0" y1="434.58924175015443" x2="410.3333333333333" y2="434.58924175015443" stroke="#000"/>
<line x1="394.6666666666667" y1="433.007767158078" x2="394.6666666666667" y2="434.58924175015443" stroke="#000"/>
<rect x="410.3333333333333" y="325.0051660821825" width="31.333333333333332" height="172.99483391781746" fill="orange" data-tooltip="2.69x baseline speed (YJIT)"/>
<line x1="410.3333333333333" y1="322.874426535532" x2="441.66666666666663" y2="322.874426535532" stroke="#000"/>
<line x1="410.3333333333333" y1="327.135905628833" x2="441.66666666666663" y2="327.135905628833" stroke="#000"/>
<line x1="426.0" y1="322.874426535532" x2="426.0" y2="327.135905628833" stroke="#000"/>
<line x1="426.0" y1="498.0" x2="426.0" y2="502.79999999999995" stroke="#000"/>
<text x="426.0" y="512.4" fill="#111" font-size="small" font-family="monospace" font-weight="bold" text-anchor="end" transform="rotate(-60, 426.0, 512.4)">
fib
</text>
<rect x="473.0" y="433.79850445411626" width="31.333333333333332" height="64.20149554588376" fill="#7070f8" data-tooltip="1.00x baseline speed (No JIT)"/>
<line x1="473.0" y1="433.0986493379372" x2="504.3333333333333" y2="433.0986493379372" stroke="#000"/>
<line x1="473.0" y1="434.4983595702953" x2="504.3333333333333" y2="434.4983595702953" stroke="#000"/>
<line x1="488.66666666666663" y1="433.0986493379372" x2="488.66666666666663" y2="434.4983595702953" stroke="#000"/>
<rect x="504.3333333333333" y="368.6545483110402" width="31.333333333333332" height="129.34545168895977" fill="orange" data-tooltip="2.01x baseline speed (YJIT)"/>
<line x1="504.3333333333333" y1="367.24454229018784" x2="535.6666666666666" y2="367.24454229018784" stroke="#000"/>
<line x1="504.3333333333333" y1="370.0645543318925" x2="535.6666666666666" y2="370.0645543318925" stroke="#000"/>
<line x1="520.0" y1="367.24454229018784" x2="520.0" y2="370.0645543318925" stroke="#000"/>
<line x1="520.0" y1="498.0" x2="520.0" y2="502.79999999999995" stroke="#000"/>
<text x="520.0" y="512.4" fill="#111" font-size="small" font-family="monospace" font-weight="bold" text-anchor="end" transform="rotate(-60, 520.0, 512.4)">
getivar
</text>
<rect x="567.0" y="433.79850445411626" width="31.333333333333332" height="64.20149554588376" fill="#7070f8" data-tooltip="1.00x baseline speed (No JIT)"/>
<line x1="567.0" y1="433.64073815646253" x2="598.3333333333333" y2="433.64073815646253" stroke="#000"/>
<line x1="567.0" y1="433.9562707517699" x2="598.3333333333333" y2="433.9562707517699" stroke="#000"/>
<line x1="582.6666666666666" y1="433.64073815646253" x2="582.6666666666666" y2="433.9562707517699" stroke="#000"/>
<rect x="598.3333333333333" y="176.86235569848273" width="31.333333333333332" height="321.1376443015172" fill="orange" data-tooltip="5.00x baseline speed (YJIT)"/>
<line x1="598.3333333333333" y1="176.06933235011792" x2="629.6666666666666" y2="176.06933235011792" stroke="#000"/>
<line x1="598.3333333333333" y1="177.65537904684751" x2="629.6666666666666" y2="177.65537904684751" stroke="#000"/>
<line x1="614.0" y1="176.06933235011792" x2="614.0" y2="177.65537904684751" stroke="#000"/>
<line x1="614.0" y1="498.0" x2="614.0" y2="502.79999999999995" stroke="#000"/>
<text x="614.0" y="512.4" fill="#111" font-size="small" font-family="monospace" font-weight="bold" text-anchor="end" transform="rotate(-60, 614.0, 512.4)">
keyword_args
</text>
<rect x="661.0" y="433.79850445411626" width="31.333333333333332" height="64.20149554588376" fill="#7070f8" data-tooltip="1.00x baseline speed (No JIT)"/>
<line x1="661.0" y1="432.7908710317847" x2="692.3333333333334" y2="432.7908710317847" stroke="#000"/>
<line x1="661.0" y1="434.8061378764478" x2="692.3333333333334" y2="434.8061378764478" stroke="#000"/>
<line x1="676.6666666666667" y1="432.7908710317847" x2="676.6666666666667" y2="434.8061378764478" stroke="#000"/>
<rect x="692.3333333333334" y="100.19999999999999" width="31.333333333333332" height="397.79999999999995" fill="orange" data-tooltip="6.20x baseline speed (YJIT)"/>
<line x1="692.3333333333334" y1="91.79196252533353" x2="723.6666666666666" y2="91.79196252533353" stroke="#000"/>
<line x1="692.3333333333334" y1="108.60803747466645" x2="723.6666666666666" y2="108.60803747466645" stroke="#000"/>
<line x1="708.0000000000001" y1="91.79196252533353" x2="708.0000000000001" y2="108.60803747466645" stroke="#000"/>
<line x1="708.0000000000001" y1="498.0" x2="708.0000000000001" y2="502.79999999999995" stroke="#000"/>
<text x="708.0000000000001" y="512.4" fill="#111" font-size="small" font-family="monospace" font-weight="bold" text-anchor="end" transform="rotate(-60, 708.0000000000001, 512.4)">
respond_to
</text>
<rect x="755.0" y="433.79850445411626" width="31.333333333333332" height="64.20149554588376" fill="#7070f8" data-tooltip="1.00x baseline speed (No JIT)"/>
<line x1="755.0" y1="433.7338974612609" x2="786.3333333333334" y2="433.7338974612609" stroke="#000"/>
<line x1="755.0" y1="433.86311144697163" x2="786.3333333333334" y2="433.86311144697163" stroke="#000"/>
<line x1="770.6666666666667" y1="433.7338974612609" x2="770.6666666666667" y2="433.86311144697163" stroke="#000"/>
<rect x="786.3333333333334" y="396.65595658097004" width="31.333333333333332" height="101.34404341902987" fill="orange" data-tooltip="1.58x baseline speed (YJIT)"/>
<line x1="786.3333333333334" y1="396.5538043125414" x2="817.6666666666666" y2="396.5538043125414" stroke="#000"/>
<line x1="786.3333333333334" y1="396.75810884939864" x2="817.6666666666666" y2="396.75810884939864" stroke="#000"/>
<line x1="802.0" y1="396.5538043125414" x2="802.0" y2="396.75810884939864" stroke="#000"/>
<line x1="802.0" y1="498.0" x2="802.0" y2="502.79999999999995" stroke="#000"/>
<text x="802.0" y="512.4" fill="#111" font-size="small" font-family="monospace" font-weight="bold" text-anchor="end" transform="rotate(-60, 802.0, 512.4)">
setivar
</text>
<rect x="849.0" y="433.79850445411626" width="31.333333333333332" height="64.20149554588376" fill="#7070f8" data-tooltip="1.00x baseline speed (No JIT)"/>
<line x1="849.0" y1="433.3935423574427" x2="880.3333333333333" y2="433.3935423574427" stroke="#000"/>
<line x1="849.0" y1="434.2034665507898" x2="880.3333333333333" y2="434.2034665507898" stroke="#000"/>
<line x1="864.6666666666667" y1="433.3935423574427" x2="864.6666666666667" y2="434.2034665507898" stroke="#000"/>
<rect x="880.3333333333333" y="405.6137938475812" width="31.333333333333332" height="92.38620615241878" fill="orange" data-tooltip="1.44x baseline speed (YJIT)"/>
<line x1="880.3333333333333" y1="404.6044735859388" x2="911.6666666666666" y2="404.6044735859388" stroke="#000"/>
<line x1="880.3333333333333" y1="406.62311410922354" x2="911.6666666666666" y2="406.62311410922354" stroke="#000"/>
<line x1="896.0" y1="404.6044735859388" x2="896.0" y2="406.62311410922354" stroke="#000"/>
<line x1="896.0" y1="498.0" x2="896.0" y2="502.79999999999995" stroke="#000"/>
<text x="896.0" y="512.4" fill="#111" font-size="small" font-family="monospace" font-weight="bold" text-anchor="end" transform="rotate(-60, 896.0, 512.4)">
str_concat
</text>
</svg>