<svg viewBox="0 0 1000 600" xmlns="http://www.w3.org/2000/svg" xmlns:xlink="http://www.w3.org/1999/xlink" width="100%" height="100%">

<rect x="50.0" y="30.0" width="940.0" height="467.99999999999994" stroke="#000" fill="#EEE"/>
<line x1="42.0" y1="497.9999999999999" x2="50.0" y2="497.9999999999999" stroke="#000"/>
<text x="26.000000000000004" y="497.9999999999999" text-anchor="end" font-weight="bold" font-size="small" fill="#111">
0.0
</text>
<line x1="42.0" y1="442.33645756996196" x2="50.0" y2="442.33645756996196" stroke="#000"/>
<text x="26.000000000000004" y="442.33645756996196" text-anchor="end" font-weight="bold" font-size="small" fill="#111">
1.0
</text>
<line x1="42.0" y1="386.672915139924" x2="50.0" y2="386.672915139924" stroke="#000"/>
<text x="26.000000000000004" y="386.672915139924" text-anchor="end" font-weight="bold" font-size="small" fill="#111">
2.0
</text>
<line x1="42.0" y1="331.009372709886" x2="50.0" y2="331.009372709886" stroke="#000"/>
<text x="26.000000000000004" y="331.009372709886" text-anchor="end" font-weight="bold" font-size="small" fill="#111">
3.0
</text>
<line x1="42.0" y1="275.345830279848" x2="50.0" y2="275.345830279848" stroke="#000"/>
<text x="26.000000000000004" y="275.345830279848" text-anchor="end" font-weight="bold" font-size="small" fill="#111">
4.0
</text>
<line x1="42.0" y1="219.68228784981" x2="50.0" y2="219.68228784981" stroke="#000"/>
<text x="26.000000000000004" y="219.68228784981" text-anchor="end" font-weight="bold" font-size="small" fill="#111">
5.0
</text>
<line x1="42.0" y1="164.01874541977202" x2="50.0" y2="164.01874541977202" stroke="#000"/>
<text x="26.000000000000004" y="164.01874541977202" text-anchor="end" font-weight="bold" font-size="small" fill="#111">
6.0
</text>
<line x1="42.0" y1="108.35520298973402" x2="50.0" y2="108.35520298973402" stroke="#000"/>
<text x="26.000000000000004" y="108.35520298973402" text-anchor="end" font-weight="bold" font-size="small" fill="#111">
7.0
</text>
<rect x="162.74999999999997" y="36.00000000000001" width="80.0" height="18.0" fill="#7070f8" stroke="#888"/>
<text x="202.75" y="52.50000000000001" font-size="small" text-anchor="middle" font-weight="bold" fill="#EEE">
No JIT
</text>
<rect x="374.25" y="36.00000000000001" width="80.0" height="18.0" fill="orange" stroke="#888"/>
<text x="414.25" y="52.50000000000001" font-size="small" text-anchor="middle" font-weight="bold" fill="#EEE">
MJIT3.0
</text>
<rect x="585.7499999999999" y="36.00000000000001" width="80.0" height="18.0" fill="green" stroke="#888"/>
<text x="625.7499999999999" y="52.50000000000001" font-size="small" text-anchor="middle" font-weight="bold" fill="#EEE">
MJIT
</text>
<rect x="797.2499999999999" y="36.00000000000001" width="80.0" height="18.0" fill="#4F3A7A" stroke="#888"/>
<text x="837.2499999999999" y="52.50000000000001" font-size="small" text-anchor="middle" font-weight="bold" fill="#EEE">
YJIT
</text>
<rect x="97.0" y="442.33645756996196" width="21.15" height="55.663542430038" fill="#7070f8" data-tooltip="1.00x baseline speed (No JIT)"/>
<line x1="97.0" y1="442.33199640593324" x2="118.15" y2="442.33199640593324" stroke="#000"/>
<line x1="97.0" y1="442.34091873399063" x2="118.15" y2="442.34091873399063" stroke="#000"/>
<line x1="107.575" y1="442.33199640593324" x2="107.575" y2="442.34091873399063" stroke="#000"/>
<rect x="118.15" y="455.0078748716446" width="21.15" height="42.992125128355354" fill="orange" data-tooltip="0.77x baseline speed (MJIT3.0)"/>
<line x1="118.15" y1="452.40944699095206" x2="139.3" y2="452.40944699095206" stroke="#000"/>
<line x1="118.15" y1="457.6063027523372" x2="139.3" y2="457.6063027523372" stroke="#000"/>
<line x1="128.725" y1="452.40944699095206" x2="128.725" y2="457.6063027523372" stroke="#000"/>
<rect x="139.3" y="461.24217580541045" width="21.15" height="36.75782419458951" fill="green" data-tooltip="0.66x baseline speed (MJIT)"/>
<line x1="139.3" y1="459.83960426373085" x2="160.45000000000002" y2="459.83960426373085" stroke="#000"/>
<line x1="139.3" y1="462.6447473470901" x2="160.45000000000002" y2="462.6447473470901" stroke="#000"/>
<line x1="149.875" y1="459.83960426373085" x2="149.875" y2="462.6447473470901" stroke="#000"/>
<rect x="160.45" y="146.17872759922466" width="21.15" height="351.8212724007753" fill="#4F3A7A" data-tooltip="6.32x baseline speed (YJIT)"/>
<line x1="160.45" y1="145.62362583419832" x2="181.6" y2="145.62362583419832" stroke="#000"/>
<line x1="160.45" y1="146.73382936425097" x2="181.6" y2="146.73382936425097" stroke="#000"/>
<line x1="171.02499999999998" y1="145.62362583419832" x2="171.02499999999998" y2="146.73382936425097" stroke="#000"/>
<line x1="149.875" y1="498.0" x2="149.875" y2="502.79999999999995" stroke="#000"/>
<text x="149.875" y="512.4" fill="#111" font-size="small" font-family="monospace" font-weight="bold" text-anchor="end" transform="rotate(-60, 149.875, 512.4)">
30k_ifelse
</text>
<rect x="202.75" y="442.33645756996196" width="21.15" height="55.663542430038" fill="#7070f8" data-tooltip="1.00x baseline speed (No JIT)"/>
<line x1="202.75" y1="442.33278360421144" x2="223.89999999999998" y2="442.33278360421144" stroke="#000"/>
<line x1="202.75" y1="442.34013153571243" x2="223.89999999999998" y2="442.34013153571243" stroke="#000"/>
<line x1="213.325" y1="442.33278360421144" x2="213.325" y2="442.34013153571243" stroke="#000"/>
<rect x="223.89999999999998" y="462.76796730841255" width="21.15" height="35.23203269158742" fill="orange" data-tooltip="0.63x baseline speed (MJIT3.0)"/>
<line x1="223.89999999999998" y1="462.2713581506312" x2="245.04999999999998" y2="462.2713581506312" stroke="#000"/>
<line x1="223.89999999999998" y1="463.2645764661939" x2="245.04999999999998" y2="463.2645764661939" stroke="#000"/>
<line x1="234.475" y1="462.2713581506312" x2="234.475" y2="463.2645764661939" stroke="#000"/>
<rect x="245.04999999999998" y="462.0100269629198" width="21.15" height="35.98997303708016" fill="green" data-tooltip="0.65x baseline speed (MJIT)"/>
<line x1="245.04999999999998" y1="456.3004499906905" x2="266.2" y2="456.3004499906905" stroke="#000"/>
<line x1="245.04999999999998" y1="467.7196039351492" x2="266.2" y2="467.7196039351492" stroke="#000"/>
<line x1="255.625" y1="456.3004499906905" x2="255.625" y2="467.7196039351492" stroke="#000"/>
<rect x="266.2" y="100.19999999999999" width="21.15" height="397.79999999999995" fill="#4F3A7A" data-tooltip="7.15x baseline speed (YJIT)"/>
<line x1="266.2" y1="99.95038368618344" x2="287.35" y2="99.95038368618344" stroke="#000"/>
<line x1="266.2" y1="100.44961631381653" x2="287.35" y2="100.44961631381653" stroke="#000"/>
<line x1="276.775" y1="99.95038368618344" x2="276.775" y2="100.44961631381653" stroke="#000"/>
<line x1="255.625" y1="498.0" x2="255.625" y2="502.79999999999995" stroke="#000"/>
<text x="255.625" y="512.4" fill="#111" font-size="small" font-family="monospace" font-weight="bold" text-anchor="end" transform="rotate(-60, 255.625, 512.4)">
30k_methods
</text>
<rect x="308.5" y="442.33645756996196" width="21.15" height="55.663542430038" fill="#7070f8" data-tooltip="1.00x baseline speed (No JIT)"/>
<line x1="308.5" y1="442.19016396537415" x2="329.65" y2="442.19016396537415" stroke="#000"/>
<line x1="308.5" y1="442.4827511745497" x2="329.65" y2="442.4827511745497" stroke="#000"/>
<line x1="319.075" y1="442.19016396537415" x2="319.075" y2="442.4827511745497" stroke="#000"/>
<rect x="329.65" y="412.5204746330932" width="21.15" height="85.4795253669067" fill="orange" data-tooltip="1.54x baseline speed (MJIT3.0)"/>
<line x1="329.65" y1="411.98476294618894" x2="350.8" y2="411.98476294618894" stroke="#000"/>
<line x1="329.65" y1="413.05618631999755" x2="350.8" y2="413.05618631999755" stroke="#000"/>
<line x1="340.225" y1="411.98476294618894" x2="340.225" y2="413.05618631999755" stroke="#000"/>
<rect x="350.8" y="411.3732051615834" width="21.15" height="86.62679483841656" fill="green" data-tooltip="1.56x baseline speed (MJIT)"/>
<line x1="350.8" y1="410.55512722244447" x2="371.95" y2="410.55512722244447" stroke="#000"/>
<line x1="350.8" y1="412.19128310072233" x2="371.95" y2="412.19128310072233" stroke="#000"/>
<line x1="361.375" y1="410.55512722244447" x2="361.375" y2="412.19128310072233" stroke="#000"/>
<rect x="371.95" y="375.9643257916621" width="21.15" height="122.03567420833784" fill="#4F3A7A" data-tooltip="2.19x baseline speed (YJIT)"/>
<line x1="371.95" y1="374.89728032295073" x2="393.1" y2="374.89728032295073" stroke="#000"/>
<line x1="371.95" y1="377.0313712603735" x2="393.1" y2="377.0313712603735" stroke="#000"/>
<line x1="382.525" y1="374.89728032295073" x2="382.525" y2="377.0313712603735" stroke="#000"/>
<line x1="361.375" y1="498.0" x2="361.375" y2="502.79999999999995" stroke="#000"/>
<text x="361.375" y="512.4" fill="#111" font-size="small" font-family="monospace" font-weight="bold" text-anchor="end" transform="rotate(-60, 361.375, 512.4)">
cfunc_itself
</text>
<rect x="414.25" y="442.33645756996196" width="21.15" height="55.663542430038" fill="#7070f8" data-tooltip="1.00x baseline speed (No JIT)"/>
<line x1="414.25" y1="442.303464178369" x2="435.40000000000003" y2="442.303464178369" stroke="#000"/>
<line x1="414.25" y1="442.3694509615549" x2="435.40000000000003" y2="442.3694509615549" stroke="#000"/>
<line x1="424.825" y1="442.303464178369" x2="424.825" y2="442.3694509615549" stroke="#000"/>
<rect x="435.40000000000003" y="323.4753464473863" width="21.15" height="174.52465355261361" fill="orange" data-tooltip="3.14x baseline speed (MJIT3.0)"/>
<line x1="435.40000000000003" y1="322.8976832947806" x2="456.55" y2="322.8976832947806" stroke="#000"/>
<line x1="435.40000000000003" y1="324.053009599992" x2="456.55" y2="324.053009599992" stroke="#000"/>
<line x1="445.975" y1="322.8976832947806" x2="445.975" y2="324.053009599992" stroke="#000"/>
<rect x="456.55" y="320.29102974690676" width="21.15" height="177.70897025309316" fill="green" data-tooltip="3.19x baseline speed (MJIT)"/>
<line x1="456.55" y1="319.84154200881926" x2="477.7" y2="319.84154200881926" stroke="#000"/>
<line x1="456.55" y1="320.7405174849943" x2="477.7" y2="320.7405174849943" stroke="#000"/>
<line x1="467.125" y1="319.84154200881926" x2="467.125" y2="320.7405174849943" stroke="#000"/>
<rect x="477.7" y="282.18742514988145" width="21.15" height="215.81257485011847" fill="#4F3A7A" data-tooltip="3.88x baseline speed (YJIT)"/>
<line x1="477.7" y1="280.9636261304177" x2="498.85" y2="280.9636261304177" stroke="#000"/>
<line x1="477.7" y1="283.41122416934525" x2="498.85" y2="283.41122416934525" stroke="#000"/>
<line x1="488.27500000000003" y1="280.9636261304177" x2="488.27500000000003" y2="283.41122416934525" stroke="#000"/>
<line x1="467.125" y1="498.0" x2="467.125" y2="502.79999999999995" stroke="#000"/>
<text x="467.125" y="512.4" fill="#111" font-size="small" font-family="monospace" font-weight="bold" text-anchor="end" transform="rotate(-60, 467.125, 512.4)">
fib
</text>
<rect x="520.0" y="442.33645756996196" width="21.15" height="55.663542430038" fill="#7070f8" data-tooltip="1.00x baseline speed (No JIT)"/>
<line x1="520.0" y1="442.12720881363236" x2="541.15" y2="442.12720881363236" stroke="#000"/>
<line x1="520.0" y1="442.5457063262915" x2="541.15" y2="442.5457063262915" stroke="#000"/>
<line x1="530.575" y1="442.12720881363236" x2="530.575" y2="442.5457063262915" stroke="#000"/>
<rect x="541.15" y="320.6596514988179" width="21.15" height="177.34034850118206" fill="orange" data-tooltip="3.19x baseline speed (MJIT3.0)"/>
<line x1="541.15" y1="169.68453990311642" x2="562.3000000000001" y2="169.68453990311642" stroke="#000"/>
<line x1="541.15" y1="471.63476309451937" x2="562.3000000000001" y2="471.63476309451937" stroke="#000"/>
<line x1="551.725" y1="169.68453990311642" x2="551.725" y2="471.63476309451937" stroke="#000"/>
<rect x="562.3000000000001" y="277.1912016200685" width="21.15" height="220.80879837993146" fill="green" data-tooltip="3.97x baseline speed (MJIT)"/>
<line x1="562.3000000000001" y1="137.86164196341636" x2="583.45" y2="137.86164196341636" stroke="#000"/>
<line x1="562.3000000000001" y1="416.52076127672063" x2="583.45" y2="416.52076127672063" stroke="#000"/>
<line x1="572.875" y1="137.86164196341636" x2="572.875" y2="416.52076127672063" stroke="#000"/>
<rect x="583.45" y="363.5495739831911" width="21.15" height="134.45042601680882" fill="#4F3A7A" data-tooltip="2.42x baseline speed (YJIT)"/>
<line x1="583.45" y1="362.52240226236114" x2="604.6" y2="362.52240226236114" stroke="#000"/>
<line x1="583.45" y1="364.57674570402105" x2="604.6" y2="364.57674570402105" stroke="#000"/>
<line x1="594.025" y1="362.52240226236114" x2="594.025" y2="364.57674570402105" stroke="#000"/>
<line x1="572.875" y1="498.0" x2="572.875" y2="502.79999999999995" stroke="#000"/>
<text x="572.875" y="512.4" fill="#111" font-size="small" font-family="monospace" font-weight="bold" text-anchor="end" transform="rotate(-60, 572.875, 512.4)">
getivar
</text>
<rect x="625.7499999999999" y="442.33645756996196" width="21.15" height="55.663542430038" fill="#7070f8" data-tooltip="1.00x baseline speed (No JIT)"/>
<line x1="625.7499999999999" y1="442.2867869210465" x2="646.8999999999999" y2="442.2867869210465" stroke="#000"/>
<line x1="625.7499999999999" y1="442.3861282188774" x2="646.8999999999999" y2="442.3861282188774" stroke="#000"/>
<line x1="636.3249999999999" y1="442.2867869210465" x2="636.3249999999999" y2="442.3861282188774" stroke="#000"/>
<rect x="646.8999999999999" y="429.29208650401154" width="21.15" height="68.70791349598842" fill="orange" data-tooltip="1.23x baseline speed (MJIT3.0)"/>
<line x1="646.8999999999999" y1="428.88263093987433" x2="668.05" y2="428.88263093987433" stroke="#000"/>
<line x1="646.8999999999999" y1="429.7015420681487" x2="668.05" y2="429.7015420681487" stroke="#000"/>
<line x1="657.4749999999999" y1="428.88263093987433" x2="657.4749999999999" y2="429.7015420681487" stroke="#000"/>
<rect x="668.05" y="426.9348060834645" width="21.15" height="71.06519391653549" fill="green" data-tooltip="1.28x baseline speed (MJIT)"/>
<line x1="668.05" y1="426.77317251749474" x2="689.1999999999999" y2="426.77317251749474" stroke="#000"/>
<line x1="668.05" y1="427.0964396494342" x2="689.1999999999999" y2="427.0964396494342" stroke="#000"/>
<line x1="678.6249999999999" y1="426.77317251749474" x2="678.6249999999999" y2="427.0964396494342" stroke="#000"/>
<rect x="689.1999999999999" y="206.6728906851631" width="21.15" height="291.32710931483683" fill="#4F3A7A" data-tooltip="5.23x baseline speed (YJIT)"/>
<line x1="689.1999999999999" y1="204.40957884642594" x2="710.3499999999999" y2="204.40957884642594" stroke="#000"/>
<line x1="689.1999999999999" y1="208.9362025239003" x2="710.3499999999999" y2="208.9362025239003" stroke="#000"/>
<line x1="699.775" y1="204.40957884642594" x2="699.775" y2="208.9362025239003" stroke="#000"/>
<line x1="678.6249999999999" y1="498.0" x2="678.6249999999999" y2="502.79999999999995" stroke="#000"/>
<text x="678.6249999999999" y="512.4" fill="#111" font-size="small" font-family="monospace" font-weight="bold" text-anchor="end" transform="rotate(-60, 678.6249999999999, 512.4)">
keyword_args
</text>
<rect x="731.4999999999999" y="442.33645756996196" width="21.15" height="55.663542430038" fill="#7070f8" data-tooltip="1.00x baseline speed (No JIT)"/>
<line x1="731.4999999999999" y1="442.27561955487283" x2="752.65" y2="442.27561955487283" stroke="#000"/>
<line x1="731.4999999999999" y1="442.39729558505104" x2="752.65" y2="442.39729558505104" stroke="#000"/>
<line x1="742.0749999999999" y1="442.27561955487283" x2="742.0749999999999" y2="442.39729558505104" stroke="#000"/>
<rect x="752.65" y="433.44683492101683" width="21.15" height="64.55316507898316" fill="orange" data-tooltip="1.16x baseline speed (MJIT3.0)"/>
<line x1="752.65" y1="432.5611164109554" x2="773.8" y2="432.5611164109554" stroke="#000"/>
<line x1="752.65" y1="434.3325534310783" x2="773.8" y2="434.3325534310783" stroke="#000"/>
<line x1="763.2249999999999" y1="432.5611164109554" x2="763.2249999999999" y2="434.3325534310783" stroke="#000"/>
<rect x="773.8" y="430.0152468602709" width="21.15" height="67.98475313972908" fill="green" data-tooltip="1.22x baseline speed (MJIT)"/>
<line x1="773.8" y1="429.42825995370526" x2="794.9499999999999" y2="429.42825995370526" stroke="#000"/>
<line x1="773.8" y1="430.60223376683655" x2="794.9499999999999" y2="430.60223376683655" stroke="#000"/>
<line x1="784.3749999999999" y1="429.42825995370526" x2="784.3749999999999" y2="430.60223376683655" stroke="#000"/>
<rect x="794.9499999999999" y="417.36852268577445" width="21.15" height="80.63147731422555" fill="#4F3A7A" data-tooltip="1.45x baseline speed (YJIT)"/>
<line x1="794.9499999999999" y1="417.09121129583247" x2="816.0999999999999" y2="417.09121129583247" stroke="#000"/>
<line x1="794.9499999999999" y1="417.64583407571644" x2="816.0999999999999" y2="417.64583407571644" stroke="#000"/>
<line x1="805.525" y1="417.09121129583247" x2="805.525" y2="417.64583407571644" stroke="#000"/>
<line x1="784.3749999999999" y1="498.0" x2="784.3749999999999" y2="502.79999999999995" stroke="#000"/>
<text x="784.3749999999999" y="512.4" fill="#111" font-size="small" font-family="monospace" font-weight="bold" text-anchor="end" transform="rotate(-60, 784.3749999999999, 512.4)">
respond_to
</text>
<rect x="837.2499999999999" y="442.33645756996196" width="21.15" height="55.663542430038" fill="#7070f8" data-tooltip="1.00x baseline speed (No JIT)"/>
<line x1="837.2499999999999" y1="442.08929521574487" x2="858.4" y2="442.08929521574487" stroke="#000"/>
<line x1="837.2499999999999" y1="442.583619924179" x2="858.4" y2="442.583619924179" stroke="#000"/>
<line x1="847.8249999999999" y1="442.08929521574487" x2="847.8249999999999" y2="442.583619924179" stroke="#000"/>
<rect x="858.4" y="192.65155001344374" width="21.15" height="305.3484499865562" fill="orange" data-tooltip="5.49x baseline speed (MJIT3.0)"/>
<line x1="858.4" y1="-176.12909833306156" x2="879.55" y2="-176.12909833306156" stroke="#000"/>
<line x1="858.4" y1="561.4321983599491" x2="879.55" y2="561.4321983599491" stroke="#000"/>
<line x1="868.9749999999999" y1="-176.12909833306156" x2="868.9749999999999" y2="561.4321983599491" stroke="#000"/>
<rect x="879.55" y="125.88190689153606" width="21.15" height="372.1180931084638" fill="green" data-tooltip="6.69x baseline speed (MJIT)"/>
<line x1="879.55" y1="-206.13939680855748" x2="900.6999999999999" y2="-206.13939680855748" stroke="#000"/>
<line x1="879.55" y1="457.9032105916296" x2="900.6999999999999" y2="457.9032105916296" stroke="#000"/>
<line x1="890.125" y1="-206.13939680855748" x2="890.125" y2="457.9032105916296" stroke="#000"/>
<rect x="900.6999999999999" y="413.65812605392745" width="21.15" height="84.34187394607251" fill="#4F3A7A" data-tooltip="1.52x baseline speed (YJIT)"/>
<line x1="900.6999999999999" y1="412.9217508431472" x2="921.8499999999999" y2="412.9217508431472" stroke="#000"/>
<line x1="900.6999999999999" y1="414.3945012647076" x2="921.8499999999999" y2="414.3945012647076" stroke="#000"/>
<line x1="911.275" y1="412.9217508431472" x2="911.275" y2="414.3945012647076" stroke="#000"/>
<line x1="890.125" y1="498.0" x2="890.125" y2="502.79999999999995" stroke="#000"/>
<text x="890.125" y="512.4" fill="#111" font-size="small" font-family="monospace" font-weight="bold" text-anchor="end" transform="rotate(-60, 890.125, 512.4)">
setivar
</text>
</svg>