<svg viewBox="0 0 1000 600" xmlns="http://www.w3.org/2000/svg" xmlns:xlink="http://www.w3.org/1999/xlink" width="100%" height="100%">

<rect x="50.0" y="30.0" width="940.0" height="467.99999999999994" stroke="#000" fill="#EEE"/>
<line x1="42.0" y1="497.9999999999999" x2="50.0" y2="497.9999999999999" stroke="#000"/>
<text x="26.000000000000004" y="497.9999999999999" text-anchor="end" font-weight="bold" font-size="small" fill="#111">
0.0
</text>
<line x1="42.0" y1="424.3024776565256" x2="50.0" y2="424.3024776565256" stroke="#000"/>
<text x="26.000000000000004" y="424.3024776565256" text-anchor="end" font-weight="bold" font-size="small" fill="#111">
2.0
</text>
<line x1="42.0" y1="350.6049553130512" x2="50.0" y2="350.6049553130512" stroke="#000"/>
<text x="26.000000000000004" y="350.6049553130512" text-anchor="end" font-weight="bold" font-size="small" fill="#111">
4.0
</text>
<line x1="42.0" y1="276.907432969577" x2="50.0" y2="276.907432969577" stroke="#000"/>
<text x="26.000000000000004" y="276.907432969577" text-anchor="end" font-weight="bold" font-size="small" fill="#111">
6.0
</text>
<line x1="42.0" y1="203.20991062610264" x2="50.0" y2="203.20991062610264" stroke="#000"/>
<text x="26.000000000000004" y="203.20991062610264" text-anchor="end" font-weight="bold" font-size="small" fill="#111">
8.0
</text>
<line x1="42.0" y1="129.5123882826283" x2="50.0" y2="129.5123882826283" stroke="#000"/>
<text x="26.000000000000004" y="129.5123882826283" text-anchor="end" font-weight="bold" font-size="small" fill="#111">
10.0
</text>
<rect x="268.5" y="36.00000000000001" width="80.0" height="18.0" fill="#7070f8" stroke="#888"/>
<text x="308.5" y="52.50000000000001" font-size="small" text-anchor="middle" font-weight="bold" fill="#EEE">
No JIT
</text>
<rect x="691.4999999999999" y="36.00000000000001" width="80.0" height="18.0" fill="orange" stroke="#888"/>
<text x="731.4999999999999" y="52.50000000000001" font-size="small" text-anchor="middle" font-weight="bold" fill="#EEE">
YJIT
</text>
<rect x="97.0" y="461.1512388282628" width="8.545454545454545" height="36.848761171737166" fill="#7070f8" data-tooltip="1.00x baseline speed (No JIT)"/>
<line x1="97.0" y1="460.9753756259018" x2="105.54545454545455" y2="460.9753756259018" stroke="#000"/>
<line x1="97.0" y1="461.3271020306238" x2="105.54545454545455" y2="461.3271020306238" stroke="#000"/>
<line x1="101.27272727272728" y1="460.9753756259018" x2="101.27272727272728" y2="461.3271020306238" stroke="#000"/>
<rect x="105.54545454545455" y="429.0912391321193" width="8.545454545454545" height="68.90876086788069" fill="orange" data-tooltip="1.87x baseline speed (YJIT)"/>
<line x1="105.54545454545455" y1="428.40269866863395" x2="114.09090909090911" y2="428.40269866863395" stroke="#000"/>
<line x1="105.54545454545455" y1="429.7797795956046" x2="114.09090909090911" y2="429.7797795956046" stroke="#000"/>
<line x1="109.81818181818183" y1="428.40269866863395" x2="109.81818181818183" y2="429.7797795956046" stroke="#000"/>
<line x1="109.81818181818181" y1="498.0" x2="109.81818181818181" y2="502.79999999999995" stroke="#000"/>
<text x="109.81818181818181" y="512.4" fill="#111" font-size="small" font-family="monospace" font-weight="bold" text-anchor="end" transform="rotate(-60, 109.81818181818181, 512.4)">
activerecord
</text>
<rect x="122.63636363636364" y="461.1512388282628" width="8.545454545454545" height="36.848761171737166" fill="#7070f8" data-tooltip="1.00x baseline speed (No JIT)"/>
<line x1="122.63636363636364" y1="460.22432033615877" x2="131.1818181818182" y2="460.22432033615877" stroke="#000"/>
<line x1="122.63636363636364" y1="462.07815732036687" x2="131.1818181818182" y2="462.07815732036687" stroke="#000"/>
<line x1="126.90909090909092" y1="460.22432033615877" x2="126.90909090909092" y2="462.07815732036687" stroke="#000"/>
<rect x="131.1818181818182" y="435.54958503701437" width="8.545454545454545" height="62.450414962985505" fill="orange" data-tooltip="1.69x baseline speed (YJIT)"/>
<line x1="131.1818181818182" y1="432.83598194646714" x2="139.72727272727272" y2="432.83598194646714" stroke="#000"/>
<line x1="131.1818181818182" y1="438.2631881275616" x2="139.72727272727272" y2="438.2631881275616" stroke="#000"/>
<line x1="135.45454545454544" y1="432.83598194646714" x2="135.45454545454544" y2="438.2631881275616" stroke="#000"/>
<line x1="135.45454545454547" y1="498.0" x2="135.45454545454547" y2="502.79999999999995" stroke="#000"/>
<text x="135.45454545454547" y="512.4" fill="#111" font-size="small" font-family="monospace" font-weight="bold" text-anchor="end" transform="rotate(-60, 135.45454545454547, 512.4)">
erubi_rails
</text>
<rect x="148.27272727272728" y="461.1512388282628" width="8.545454545454545" height="36.848761171737166" fill="#7070f8" data-tooltip="1.00x baseline speed (No JIT)"/>
<line x1="148.27272727272728" y1="460.8472100834493" x2="156.81818181818184" y2="460.8472100834493" stroke="#000"/>
<line x1="148.27272727272728" y1="461.45526757307636" x2="156.81818181818184" y2="461.45526757307636" stroke="#000"/>
<line x1="152.54545454545453" y1="460.8472100834493" x2="152.54545454545453" y2="461.45526757307636" stroke="#000"/>
<rect x="156.81818181818184" y="439.4912508513741" width="8.545454545454545" height="58.50874914862576" fill="orange" data-tooltip="1.59x baseline speed (YJIT)"/>
<line x1="156.81818181818184" y1="438.1580568200237" x2="165.36363636363637" y2="438.1580568200237" stroke="#000"/>
<line x1="156.81818181818184" y1="440.8244448827245" x2="165.36363636363637" y2="440.8244448827245" stroke="#000"/>
<line x1="161.0909090909091" y1="438.1580568200237" x2="161.0909090909091" y2="440.8244448827245" stroke="#000"/>
<line x1="161.0909090909091" y1="498.0" x2="161.0909090909091" y2="502.79999999999995" stroke="#000"/>
<text x="161.0909090909091" y="512.4" fill="#111" font-size="small" font-family="monospace" font-weight="bold" text-anchor="end" transform="rotate(-60, 161.0909090909091, 512.4)">
hexapdf
</text>
<rect x="173.9090909090909" y="461.1512388282628" width="8.545454545454545" height="36.848761171737166" fill="#7070f8" data-tooltip="1.00x baseline speed (No JIT)"/>
<line x1="173.9090909090909" y1="460.67298357513545" x2="182.45454545454544" y2="460.67298357513545" stroke="#000"/>
<line x1="173.9090909090909" y1="461.6294940813902" x2="182.45454545454544" y2="461.6294940813902" stroke="#000"/>
<line x1="178.18181818181816" y1="460.67298357513545" x2="178.18181818181816" y2="461.6294940813902" stroke="#000"/>
<rect x="182.45454545454544" y="447.4200352151603" width="8.545454545454545" height="50.5799647848396" fill="orange" data-tooltip="1.37x baseline speed (YJIT)"/>
<line x1="182.45454545454544" y1="446.2195174343098" x2="191.0" y2="446.2195174343098" stroke="#000"/>
<line x1="182.45454545454544" y1="448.62055299601076" x2="191.0" y2="448.62055299601076" stroke="#000"/>
<line x1="186.72727272727272" y1="446.2195174343098" x2="186.72727272727272" y2="448.62055299601076" stroke="#000"/>
<line x1="186.72727272727272" y1="498.0" x2="186.72727272727272" y2="502.79999999999995" stroke="#000"/>
<text x="186.72727272727272" y="512.4" fill="#111" font-size="small" font-family="monospace" font-weight="bold" text-anchor="end" transform="rotate(-60, 186.72727272727272, 512.4)">
liquid-c
</text>
<rect x="199.54545454545453" y="461.1512388282628" width="8.545454545454545" height="36.848761171737166" fill="#7070f8" data-tooltip="1.00x baseline speed (No JIT)"/>
<line x1="199.54545454545453" y1="460.1214994421227" x2="208.09090909090907" y2="460.1214994421227" stroke="#000"/>
<line x1="199.54545454545453" y1="462.18097821440296" x2="208.09090909090907" y2="462.18097821440296" stroke="#000"/>
<line x1="203.81818181818178" y1="460.1214994421227" x2="203.81818181818178" y2="462.18097821440296" stroke="#000"/>
<rect x="208.09090909090907" y="447.9991875312975" width="8.545454545454545" height="50.00081246870243" fill="orange" data-tooltip="1.36x baseline speed (YJIT)"/>
<line x1="208.09090909090907" y1="446.57788220254616" x2="216.63636363636363" y2="446.57788220254616" stroke="#000"/>
<line x1="208.09090909090907" y1="449.42049286004885" x2="216.63636363636363" y2="449.42049286004885" stroke="#000"/>
<line x1="212.36363636363635" y1="446.57788220254616" x2="212.36363636363635" y2="449.42049286004885" stroke="#000"/>
<line x1="212.36363636363635" y1="498.0" x2="212.36363636363635" y2="502.79999999999995" stroke="#000"/>
<text x="212.36363636363635" y="512.4" fill="#111" font-size="small" font-family="monospace" font-weight="bold" text-anchor="end" transform="rotate(-60, 212.36363636363635, 512.4)">
liquid-compile
</text>
<rect x="225.1818181818182" y="461.1512388282628" width="8.545454545454545" height="36.848761171737166" fill="#7070f8" data-tooltip="1.00x baseline speed (No JIT)"/>
<line x1="225.1818181818182" y1="460.6255422727089" x2="233.72727272727272" y2="460.6255422727089" stroke="#000"/>
<line x1="225.1818181818182" y1="461.67693538381667" x2="233.72727272727272" y2="461.67693538381667" stroke="#000"/>
<line x1="229.45454545454544" y1="460.6255422727089" x2="229.45454545454544" y2="461.67693538381667" stroke="#000"/>
<rect x="233.72727272727272" y="426.26400734512754" width="8.545454545454545" height="71.7359926548724" fill="orange" data-tooltip="1.95x baseline speed (YJIT)"/>
<line x1="233.72727272727272" y1="423.9913598126343" x2="242.27272727272728" y2="423.9913598126343" stroke="#000"/>
<line x1="233.72727272727272" y1="428.5366548776208" x2="242.27272727272728" y2="428.5366548776208" stroke="#000"/>
<line x1="238.0" y1="423.9913598126343" x2="238.0" y2="428.5366548776208" stroke="#000"/>
<line x1="238.0" y1="498.0" x2="238.0" y2="502.79999999999995" stroke="#000"/>
<text x="238.0" y="512.4" fill="#111" font-size="small" font-family="monospace" font-weight="bold" text-anchor="end" transform="rotate(-60, 238.0, 512.4)">
liquid-render
</text>
<rect x="250.81818181818184" y="461.1512388282628" width="8.545454545454545" height="36.848761171737166" fill="#7070f8" data-tooltip="1.00x baseline speed (No JIT)"/>
<line x1="250.81818181818184" y1="460.57248449794076" x2="259.3636363636364" y2="460.57248449794076" stroke="#000"/>
<line x1="250.81818181818184" y1="461.7299931585849" x2="259.3636363636364" y2="461.7299931585849" stroke="#000"/>
<line x1="255.0909090909091" y1="460.57248449794076" x2="255.0909090909091" y2="461.7299931585849" stroke="#000"/>
<rect x="259.3636363636364" y="449.65437832390165" width="8.545454545454545" height="48.34562167609821" fill="orange" data-tooltip="1.31x baseline speed (YJIT)"/>
<line x1="259.3636363636364" y1="448.88620177285196" x2="267.9090909090909" y2="448.88620177285196" stroke="#000"/>
<line x1="259.3636363636364" y1="450.42255487495135" x2="267.9090909090909" y2="450.42255487495135" stroke="#000"/>
<line x1="263.6363636363636" y1="448.88620177285196" x2="263.6363636363636" y2="450.42255487495135" stroke="#000"/>
<line x1="263.6363636363637" y1="498.0" x2="263.6363636363637" y2="502.79999999999995" stroke="#000"/>
<text x="263.6363636363637" y="512.4" fill="#111" font-size="small" font-family="monospace" font-weight="bold" text-anchor="end" transform="rotate(-60, 263.6363636363637, 512.4)">
mail
</text>
<rect x="276.45454545454544" y="461.1512388282628" width="8.545454545454545" height="36.848761171737166" fill="#7070f8" data-tooltip="1.00x baseline speed (No JIT)"/>
<line x1="276.45454545454544" y1="461.1307524926246" x2="285.0" y2="461.1307524926246" stroke="#000"/>
<line x1="276.45454545454544" y1="461.17172516390104" x2="285.0" y2="461.17172516390104" stroke="#000"/>
<line x1="280.7272727272727" y1="461.1307524926246" x2="280.7272727272727" y2="461.17172516390104" stroke="#000"/>
<rect x="285.0" y="448.66705907724713" width="8.545454545454545" height="49.33294092275283" fill="orange" data-tooltip="1.34x baseline speed (YJIT)"/>
<line x1="285.0" y1="448.6181804309904" x2="293.5454545454545" y2="448.6181804309904" stroke="#000"/>
<line x1="285.0" y1="448.71593772350394" x2="293.5454545454545" y2="448.71593772350394" stroke="#000"/>
<line x1="289.27272727272725" y1="448.6181804309904" x2="289.27272727272725" y2="448.71593772350394" stroke="#000"/>
<line x1="289.2727272727273" y1="498.0" x2="289.2727272727273" y2="502.79999999999995" stroke="#000"/>
<text x="289.2727272727273" y="512.4" fill="#111" font-size="small" font-family="monospace" font-weight="bold" text-anchor="end" transform="rotate(-60, 289.2727272727273, 512.4)">
psych-load
</text>
<rect x="302.09090909090907" y="461.1512388282628" width="8.545454545454545" height="36.848761171737166" fill="#7070f8" data-tooltip="1.00x baseline speed (No JIT)"/>
<line x1="302.09090909090907" y1="460.87962393347044" x2="310.6363636363636" y2="460.87962393347044" stroke="#000"/>
<line x1="302.09090909090907" y1="461.4228537230552" x2="310.6363636363636" y2="461.4228537230552" stroke="#000"/>
<line x1="306.3636363636363" y1="460.87962393347044" x2="306.3636363636363" y2="461.4228537230552" stroke="#000"/>
<rect x="310.6363636363636" y="442.1719266071538" width="8.545454545454545" height="55.82807339284613" fill="orange" data-tooltip="1.52x baseline speed (YJIT)"/>
<line x1="310.6363636363636" y1="441.40954142638435" x2="319.18181818181813" y2="441.40954142638435" stroke="#000"/>
<line x1="310.6363636363636" y1="442.93431178792326" x2="319.18181818181813" y2="442.93431178792326" stroke="#000"/>
<line x1="314.9090909090909" y1="441.40954142638435" x2="314.9090909090909" y2="442.93431178792326" stroke="#000"/>
<line x1="314.90909090909093" y1="498.0" x2="314.90909090909093" y2="502.79999999999995" stroke="#000"/>
<text x="314.90909090909093" y="512.4" fill="#111" font-size="small" font-family="monospace" font-weight="bold" text-anchor="end" transform="rotate(-60, 314.90909090909093, 512.4)">
railsbench
</text>
<rect x="327.7272727272727" y="461.1512388282628" width="8.545454545454545" height="36.848761171737166" fill="#7070f8" data-tooltip="1.00x baseline speed (No JIT)"/>
<line x1="327.7272727272727" y1="458.09666562552394" x2="336.2727272727272" y2="458.09666562552394" stroke="#000"/>
<line x1="327.7272727272727" y1="464.2058120310017" x2="336.2727272727272" y2="464.2058120310017" stroke="#000"/>
<line x1="331.99999999999994" y1="458.09666562552394" x2="331.99999999999994" y2="464.2058120310017" stroke="#000"/>
<rect x="336.2727272727272" y="445.8042154367026" width="8.545454545454545" height="52.195784563297416" fill="orange" data-tooltip="1.42x baseline speed (YJIT)"/>
<line x1="336.2727272727272" y1="434.1560176934952" x2="344.81818181818176" y2="434.1560176934952" stroke="#000"/>
<line x1="336.2727272727272" y1="457.45241317990997" x2="344.81818181818176" y2="457.45241317990997" stroke="#000"/>
<line x1="340.5454545454545" y1="434.1560176934952" x2="340.5454545454545" y2="457.45241317990997" stroke="#000"/>
<line x1="340.54545454545456" y1="498.0" x2="340.54545454545456" y2="502.79999999999995" stroke="#000"/>
<text x="340.54545454545456" y="512.4" fill="#111" font-size="small" font-family="monospace" font-weight="bold" text-anchor="end" transform="rotate(-60, 340.54545454545456, 512.4)">
ruby-lsp
</text>
<rect x="353.3636363636363" y="461.1512388282628" width="8.545454545454545" height="36.848761171737166" fill="#7070f8" data-tooltip="1.00x baseline speed (No JIT)"/>
<line x1="353.3636363636363" y1="461.0950087369695" x2="361.9090909090908" y2="461.0950087369695" stroke="#000"/>
<line x1="353.3636363636363" y1="461.2074689195561" x2="361.9090909090908" y2="461.2074689195561" stroke="#000"/>
<line x1="357.63636363636357" y1="461.0950087369695" x2="357.63636363636357" y2="461.2074689195561" stroke="#000"/>
<rect x="361.9090909090908" y="451.2968064408635" width="8.545454545454545" height="46.70319355913643" fill="orange" data-tooltip="1.27x baseline speed (YJIT)"/>
<line x1="361.9090909090908" y1="451.1309948664828" x2="370.4545454545454" y2="451.1309948664828" stroke="#000"/>
<line x1="361.9090909090908" y1="451.46261801524423" x2="370.4545454545454" y2="451.46261801524423" stroke="#000"/>
<line x1="366.18181818181813" y1="451.1309948664828" x2="366.18181818181813" y2="451.46261801524423" stroke="#000"/>
<line x1="366.1818181818182" y1="498.0" x2="366.1818181818182" y2="502.79999999999995" stroke="#000"/>
<text x="366.1818181818182" y="512.4" fill="#111" font-size="small" font-family="monospace" font-weight="bold" text-anchor="end" transform="rotate(-60, 366.1818181818182, 512.4)">
sequel
</text>
<rect x="379.0" y="461.1512388282628" width="8.545454545454545" height="36.848761171737166" fill="#7070f8" data-tooltip="1.00x baseline speed (No JIT)"/>
<line x1="379.0" y1="461.1048621524663" x2="387.5454545454545" y2="461.1048621524663" stroke="#000"/>
<line x1="379.0" y1="461.19761550405934" x2="387.5454545454545" y2="461.19761550405934" stroke="#000"/>
<line x1="383.27272727272725" y1="461.1048621524663" x2="383.27272727272725" y2="461.19761550405934" stroke="#000"/>
<rect x="387.5454545454545" y="422.6775804057227" width="8.545454545454545" height="75.32241959427718" fill="orange" data-tooltip="2.04x baseline speed (YJIT)"/>
<line x1="387.5454545454545" y1="422.55593776312816" x2="396.09090909090907" y2="422.55593776312816" stroke="#000"/>
<line x1="387.5454545454545" y1="422.79922304831734" x2="396.09090909090907" y2="422.79922304831734" stroke="#000"/>
<line x1="391.8181818181818" y1="422.55593776312816" x2="391.8181818181818" y2="422.79922304831734" stroke="#000"/>
<line x1="391.81818181818187" y1="498.0" x2="391.81818181818187" y2="502.79999999999995" stroke="#000"/>
<text x="391.81818181818187" y="512.4" fill="#111" font-size="small" font-family="monospace" font-weight="bold" text-anchor="end" transform="rotate(-60, 391.81818181818187, 512.4)">
binarytrees
</text>
<rect x="404.63636363636357" y="461.1512388282628" width="8.545454545454545" height="36.848761171737166" fill="#7070f8" data-tooltip="1.00x baseline speed (No JIT)"/>
<line x1="404.63636363636357" y1="461.1354532502081" x2="413.1818181818181" y2="461.1354532502081" stroke="#000"/>
<line x1="404.63636363636357" y1="461.1670244063175" x2="413.1818181818181" y2="461.1670244063175" stroke="#000"/>
<line x1="408.9090909090908" y1="461.1354532502081" x2="408.9090909090908" y2="461.1670244063175" stroke="#000"/>
<rect x="413.1818181818181" y="439.36512625216034" width="8.545454545454545" height="58.63487374783959" fill="orange" data-tooltip="1.59x baseline speed (YJIT)"/>
<line x1="413.1818181818181" y1="439.32094590626656" x2="421.72727272727263" y2="439.32094590626656" stroke="#000"/>
<line x1="413.1818181818181" y1="439.4093065980541" x2="421.72727272727263" y2="439.4093065980541" stroke="#000"/>
<line x1="417.4545454545454" y1="439.32094590626656" x2="417.4545454545454" y2="439.4093065980541" stroke="#000"/>
<line x1="417.45454545454544" y1="498.0" x2="417.45454545454544" y2="502.79999999999995" stroke="#000"/>
<text x="417.45454545454544" y="512.4" fill="#111" font-size="small" font-family="monospace" font-weight="bold" text-anchor="end" transform="rotate(-60, 417.45454545454544, 512.4)">
chunky_png
</text>
<rect x="430.27272727272725" y="461.1512388282628" width="8.545454545454545" height="36.848761171737166" fill="#7070f8" data-tooltip="1.00x baseline speed (No JIT)"/>
<line x1="430.27272727272725" y1="460.90377758725174" x2="438.81818181818176" y2="460.90377758725174" stroke="#000"/>
<line x1="430.27272727272725" y1="461.3987000692739" x2="438.81818181818176" y2="461.3987000692739" stroke="#000"/>
<line x1="434.5454545454545" y1="460.90377758725174" x2="434.5454545454545" y2="461.3987000692739" stroke="#000"/>
<rect x="438.81818181818176" y="453.44090736629744" width="8.545454545454545" height="44.559092633702434" fill="orange" data-tooltip="1.21x baseline speed (YJIT)"/>
<line x1="438.81818181818176" y1="452.9244201404436" x2="447.3636363636363" y2="452.9244201404436" stroke="#000"/>
<line x1="438.81818181818176" y1="453.9573945921513" x2="447.3636363636363" y2="453.9573945921513" stroke="#000"/>
<line x1="443.090909090909" y1="452.9244201404436" x2="443.090909090909" y2="453.9573945921513" stroke="#000"/>
<line x1="443.09090909090907" y1="498.0" x2="443.09090909090907" y2="502.79999999999995" stroke="#000"/>
<text x="443.09090909090907" y="512.4" fill="#111" font-size="small" font-family="monospace" font-weight="bold" text-anchor="end" transform="rotate(-60, 443.09090909090907, 512.4)">
erubi
</text>
<rect x="455.90909090909093" y="461.1512388282628" width="8.545454545454545" height="36.848761171737166" fill="#7070f8" data-tooltip="1.00x baseline speed (No JIT)"/>
<line x1="455.90909090909093" y1="460.9807897051626" x2="464.45454545454544" y2="460.9807897051626" stroke="#000"/>
<line x1="455.90909090909093" y1="461.32168795136306" x2="464.45454545454544" y2="461.32168795136306" stroke="#000"/>
<line x1="460.1818181818182" y1="460.9807897051626" x2="460.1818181818182" y2="461.32168795136306" stroke="#000"/>
<rect x="464.45454545454544" y="461.1248324746633" width="8.545454545454545" height="36.87516752533666" fill="orange" data-tooltip="1.00x baseline speed (YJIT)"/>
<line x1="464.45454545454544" y1="460.8866863020588" x2="473.0" y2="460.8866863020588" stroke="#000"/>
<line x1="464.45454545454544" y1="461.3629786472678" x2="473.0" y2="461.3629786472678" stroke="#000"/>
<line x1="468.7272727272727" y1="460.8866863020588" x2="468.7272727272727" y2="461.3629786472678" stroke="#000"/>
<line x1="468.72727272727275" y1="498.0" x2="468.72727272727275" y2="502.79999999999995" stroke="#000"/>
<text x="468.72727272727275" y="512.4" fill="#111" font-size="small" font-family="monospace" font-weight="bold" text-anchor="end" transform="rotate(-60, 468.72727272727275, 512.4)">
etanni
</text>
<rect x="481.5454545454545" y="461.1512388282628" width="8.545454545454545" height="36.848761171737166" fill="#7070f8" data-tooltip="1.00x baseline speed (No JIT)"/>
<line x1="481.5454545454545" y1="461.11154313187035" x2="490.090909090909" y2="461.11154313187035" stroke="#000"/>
<line x1="481.5454545454545" y1="461.1909345246553" x2="490.090909090909" y2="461.1909345246553" stroke="#000"/>
<line x1="485.81818181818176" y1="461.11154313187035" x2="485.81818181818176" y2="461.1909345246553" stroke="#000"/>
<rect x="490.090909090909" y="394.5661736244074" width="8.545454545454545" height="103.43382637559249" fill="orange" data-tooltip="2.81x baseline speed (YJIT)"/>
<line x1="490.090909090909" y1="394.44358659728977" x2="498.63636363636357" y2="394.44358659728977" stroke="#000"/>
<line x1="490.090909090909" y1="394.68876065152506" x2="498.63636363636357" y2="394.68876065152506" stroke="#000"/>
<line x1="494.36363636363626" y1="394.44358659728977" x2="494.36363636363626" y2="394.68876065152506" stroke="#000"/>
<line x1="494.3636363636363" y1="498.0" x2="494.3636363636363" y2="502.79999999999995" stroke="#000"/>
<text x="494.3636363636363" y="512.4" fill="#111" font-size="small" font-family="monospace" font-weight="bold" text-anchor="end" transform="rotate(-60, 494.3636363636363, 512.4)">
fannkuchredux
</text>
<rect x="507.1818181818182" y="461.1512388282628" width="8.545454545454545" height="36.848761171737166" fill="#7070f8" data-tooltip="1.00x baseline speed (No JIT)"/>
<line x1="507.1818181818182" y1="461.0549041917276" x2="515.7272727272727" y2="461.0549041917276" stroke="#000"/>
<line x1="507.1818181818182" y1="461.24757346479805" x2="515.7272727272727" y2="461.24757346479805" stroke="#000"/>
<line x1="511.4545454545455" y1="461.0549041917276" x2="511.4545454545455" y2="461.24757346479805" stroke="#000"/>
<rect x="515.7272727272727" y="446.6311840528126" width="8.545454545454545" height="51.36881594718732" fill="orange" data-tooltip="1.39x baseline speed (YJIT)"/>
<line x1="515.7272727272727" y1="446.4025426708645" x2="524.2727272727273" y2="446.4025426708645" stroke="#000"/>
<line x1="515.7272727272727" y1="446.8598254347608" x2="524.2727272727273" y2="446.8598254347608" stroke="#000"/>
<line x1="520.0" y1="446.4025426708645" x2="520.0" y2="446.8598254347608" stroke="#000"/>
<line x1="520.0" y1="498.0" x2="520.0" y2="502.79999999999995" stroke="#000"/>
<text x="520.0" y="512.4" fill="#111" font-size="small" font-family="monospace" font-weight="bold" text-anchor="end" transform="rotate(-60, 520.0, 512.4)">
lee
</text>
<rect x="532.8181818181818" y="461.1512388282628" width="8.545454545454545" height="36.848761171737166" fill="#7070f8" data-tooltip="1.00x baseline speed (No JIT)"/>
<line x1="532.8181818181818" y1="461.12203732720906" x2="541.3636363636363" y2="461.12203732720906" stroke="#000"/>
<line x1="532.8181818181818" y1="461.1804403293166" x2="541.3636363636363" y2="461.1804403293166" stroke="#000"/>
<line x1="537.090909090909" y1="461.12203732720906" x2="537.090909090909" y2="461.1804403293166" stroke="#000"/>
<rect x="541.3636363636363" y="427.95828707086" width="8.545454545454545" height="70.04171292913986" fill="orange" data-tooltip="1.90x baseline speed (YJIT)"/>
<line x1="541.3636363636363" y1="427.8739101415433" x2="549.9090909090908" y2="427.8739101415433" stroke="#000"/>
<line x1="541.3636363636363" y1="428.0426640001767" x2="549.9090909090908" y2="428.0426640001767" stroke="#000"/>
<line x1="545.6363636363636" y1="427.8739101415433" x2="545.6363636363636" y2="428.0426640001767" stroke="#000"/>
<line x1="545.6363636363636" y1="498.0" x2="545.6363636363636" y2="502.79999999999995" stroke="#000"/>
<text x="545.6363636363636" y="512.4" fill="#111" font-size="small" font-family="monospace" font-weight="bold" text-anchor="end" transform="rotate(-60, 545.6363636363636, 512.4)">
nbody
</text>
<rect x="558.4545454545454" y="461.1512388282628" width="8.545454545454545" height="36.848761171737166" fill="#7070f8" data-tooltip="1.00x baseline speed (No JIT)"/>
<line x1="558.4545454545454" y1="460.914256083759" x2="567.0" y2="460.914256083759" stroke="#000"/>
<line x1="558.4545454545454" y1="461.3882215727666" x2="567.0" y2="461.3882215727666" stroke="#000"/>
<line x1="562.7272727272727" y1="460.914256083759" x2="562.7272727272727" y2="461.3882215727666" stroke="#000"/>
<rect x="567.0" y="399.4336233094022" width="8.545454545454545" height="98.56637669059772" fill="orange" data-tooltip="2.67x baseline speed (YJIT)"/>
<line x1="567.0" y1="398.5451549438304" x2="575.5454545454545" y2="398.5451549438304" stroke="#000"/>
<line x1="567.0" y1="400.32209167497405" x2="575.5454545454545" y2="400.32209167497405" stroke="#000"/>
<line x1="571.2727272727273" y1="398.5451549438304" x2="571.2727272727273" y2="400.32209167497405" stroke="#000"/>
<line x1="571.2727272727273" y1="498.0" x2="571.2727272727273" y2="502.79999999999995" stroke="#000"/>
<text x="571.2727272727273" y="512.4" fill="#111" font-size="small" font-family="monospace" font-weight="bold" text-anchor="end" transform="rotate(-60, 571.2727272727273, 512.4)">
optcarrot
</text>
<rect x="584.0909090909091" y="461.1512388282628" width="8.545454545454545" height="36.848761171737166" fill="#7070f8" data-tooltip="1.00x baseline speed (No JIT)"/>
<line x1="584.0909090909091" y1="461.08635079180254" x2="592.6363636363636" y2="461.08635079180254" stroke="#000"/>
<line x1="584.0909090909091" y1="461.21612686472304" x2="592.6363636363636" y2="461.21612686472304" stroke="#000"/>
<line x1="588.3636363636364" y1="461.08635079180254" x2="588.3636363636364" y2="461.21612686472304" stroke="#000"/>
<rect x="592.6363636363636" y="455.21015277056824" width="8.545454545454545" height="42.789847229431714" fill="orange" data-tooltip="1.16x baseline speed (YJIT)"/>
<line x1="592.6363636363636" y1="455.1243425149268" x2="601.1818181818181" y2="455.1243425149268" stroke="#000"/>
<line x1="592.6363636363636" y1="455.2959630262096" x2="601.1818181818181" y2="455.2959630262096" stroke="#000"/>
<line x1="596.909090909091" y1="455.1243425149268" x2="596.909090909091" y2="455.2959630262096" stroke="#000"/>
<line x1="596.909090909091" y1="498.0" x2="596.909090909091" y2="502.79999999999995" stroke="#000"/>
<text x="596.909090909091" y="512.4" fill="#111" font-size="small" font-family="monospace" font-weight="bold" text-anchor="end" transform="rotate(-60, 596.909090909091, 512.4)">
ruby-json
</text>
<rect x="609.7272727272726" y="461.1512388282628" width="8.545454545454545" height="36.848761171737166" fill="#7070f8" data-tooltip="1.00x baseline speed (No JIT)"/>
<line x1="609.7272727272726" y1="461.01026675472787" x2="618.2727272727273" y2="461.01026675472787" stroke="#000"/>
<line x1="609.7272727272726" y1="461.2922109017977" x2="618.2727272727273" y2="461.2922109017977" stroke="#000"/>
<line x1="614.0" y1="461.01026675472787" x2="614.0" y2="461.2922109017977" stroke="#000"/>
<rect x="618.2727272727273" y="426.95254012872385" width="8.545454545454545" height="71.04745987127615" fill="orange" data-tooltip="1.93x baseline speed (YJIT)"/>
<line x1="618.2727272727273" y1="426.5777383118975" x2="626.8181818181818" y2="426.5777383118975" stroke="#000"/>
<line x1="618.2727272727273" y1="427.32734194555013" x2="626.8181818181818" y2="427.32734194555013" stroke="#000"/>
<line x1="622.5454545454545" y1="426.5777383118975" x2="622.5454545454545" y2="427.32734194555013" stroke="#000"/>
<line x1="622.5454545454545" y1="498.0" x2="622.5454545454545" y2="502.79999999999995" stroke="#000"/>
<text x="622.5454545454545" y="512.4" fill="#111" font-size="small" font-family="monospace" font-weight="bold" text-anchor="end" transform="rotate(-60, 622.5454545454545, 512.4)">
rubykon
</text>
<rect x="635.3636363636363" y="461.1512388282628" width="8.545454545454545" height="36.848761171737166" fill="#7070f8" data-tooltip="1.00x baseline speed (No JIT)"/>
<line x1="635.3636363636363" y1="461.14660752868406" x2="643.9090909090908" y2="461.14660752868406" stroke="#000"/>
<line x1="635.3636363636363" y1="461.1558701278416" x2="643.9090909090908" y2="461.1558701278416" stroke="#000"/>
<line x1="639.6363636363635" y1="461.14660752868406" x2="639.6363636363635" y2="461.1558701278416" stroke="#000"/>
<rect x="643.9090909090908" y="261.9287023588156" width="8.545454545454545" height="236.07129764118432" fill="orange" data-tooltip="6.41x baseline speed (YJIT)"/>
<line x1="643.9090909090908" y1="261.78747592261595" x2="652.4545454545453" y2="261.78747592261595" stroke="#000"/>
<line x1="643.9090909090908" y1="262.0699287950153" x2="652.4545454545453" y2="262.0699287950153" stroke="#000"/>
<line x1="648.1818181818181" y1="261.78747592261595" x2="648.1818181818181" y2="262.0699287950153" stroke="#000"/>
<line x1="648.1818181818181" y1="498.0" x2="648.1818181818181" y2="502.79999999999995" stroke="#000"/>
<text x="648.1818181818181" y="512.4" fill="#111" font-size="small" font-family="monospace" font-weight="bold" text-anchor="end" transform="rotate(-60, 648.1818181818181, 512.4)">
30k_ifelse
</text>
<rect x="660.9999999999999" y="461.1512388282628" width="8.545454545454545" height="36.848761171737166" fill="#7070f8" data-tooltip="1.00x baseline speed (No JIT)"/>
<line x1="660.9999999999999" y1="461.1424977099141" x2="669.5454545454544" y2="461.1424977099141" stroke="#000"/>
<line x1="660.9999999999999" y1="461.15997994661154" x2="669.5454545454544" y2="461.15997994661154" stroke="#000"/>
<line x1="665.2727272727273" y1="461.1424977099141" x2="665.2727272727273" y2="461.15997994661154" stroke="#000"/>
<rect x="669.5454545454544" y="194.93427104452556" width="8.545454545454545" height="303.0657289554744" fill="orange" data-tooltip="8.22x baseline speed (YJIT)"/>
<line x1="669.5454545454544" y1="194.82459713885058" x2="678.090909090909" y2="194.82459713885058" stroke="#000"/>
<line x1="669.5454545454544" y1="195.04394495020054" x2="678.090909090909" y2="195.04394495020054" stroke="#000"/>
<line x1="673.8181818181818" y1="194.82459713885058" x2="673.8181818181818" y2="195.04394495020054" stroke="#000"/>
<line x1="673.8181818181818" y1="498.0" x2="673.8181818181818" y2="502.79999999999995" stroke="#000"/>
<text x="673.8181818181818" y="512.4" fill="#111" font-size="small" font-family="monospace" font-weight="bold" text-anchor="end" transform="rotate(-60, 673.8181818181818, 512.4)">
30k_methods
</text>
<rect x="686.6363636363636" y="461.1512388282628" width="8.545454545454545" height="36.848761171737166" fill="#7070f8" data-tooltip="1.00x baseline speed (No JIT)"/>
<line x1="686.6363636363636" y1="461.07516939784705" x2="695.1818181818181" y2="461.07516939784705" stroke="#000"/>
<line x1="686.6363636363636" y1="461.2273082586786" x2="695.1818181818181" y2="461.2273082586786" stroke="#000"/>
<line x1="690.9090909090909" y1="461.07516939784705" x2="690.9090909090909" y2="461.2273082586786" stroke="#000"/>
<rect x="695.1818181818181" y="398.2566098581798" width="8.545454545454545" height="99.74339014182021" fill="orange" data-tooltip="2.71x baseline speed (YJIT)"/>
<line x1="695.1818181818181" y1="397.93641624547456" x2="703.7272727272726" y2="397.93641624547456" stroke="#000"/>
<line x1="695.1818181818181" y1="398.576803470885" x2="703.7272727272726" y2="398.576803470885" stroke="#000"/>
<line x1="699.4545454545455" y1="397.93641624547456" x2="699.4545454545455" y2="398.576803470885" stroke="#000"/>
<line x1="699.4545454545455" y1="498.0" x2="699.4545454545455" y2="502.79999999999995" stroke="#000"/>
<text x="699.4545454545455" y="512.4" fill="#111" font-size="small" font-family="monospace" font-weight="bold" text-anchor="end" transform="rotate(-60, 699.4545454545455, 512.4)">
cfunc_itself
</text>
<rect x="712.2727272727271" y="461.1512388282628" width="8.545454545454545" height="36.848761171737166" fill="#7070f8" data-tooltip="1.00x baseline speed (No JIT)"/>
<line x1="712.2727272727271" y1="461.12986431175125" x2="720.8181818181816" y2="461.12986431175125" stroke="#000"/>
<line x1="712.2727272727271" y1="461.17261334477433" x2="720.8181818181816" y2="461.17261334477433" stroke="#000"/>
<line x1="716.5454545454545" y1="461.12986431175125" x2="716.5454545454545" y2="461.17261334477433" stroke="#000"/>
<rect x="720.8181818181816" y="290.6342278576482" width="8.545454545454545" height="207.36577214235174" fill="orange" data-tooltip="5.63x baseline speed (YJIT)"/>
<line x1="720.8181818181816" y1="290.35824419573134" x2="729.3636363636363" y2="290.35824419573134" stroke="#000"/>
<line x1="720.8181818181816" y1="290.91021151956505" x2="729.3636363636363" y2="290.91021151956505" stroke="#000"/>
<line x1="725.090909090909" y1="290.35824419573134" x2="725.090909090909" y2="290.91021151956505" stroke="#000"/>
<line x1="725.090909090909" y1="498.0" x2="725.090909090909" y2="502.79999999999995" stroke="#000"/>
<text x="725.090909090909" y="512.4" fill="#111" font-size="small" font-family="monospace" font-weight="bold" text-anchor="end" transform="rotate(-60, 725.090909090909, 512.4)">
fib
</text>
<rect x="737.9090909090909" y="461.1512388282628" width="8.545454545454545" height="36.848761171737166" fill="#7070f8" data-tooltip="1.00x baseline speed (No JIT)"/>
<line x1="737.9090909090909" y1="461.0513430734879" x2="746.4545454545454" y2="461.0513430734879" stroke="#000"/>
<line x1="737.9090909090909" y1="461.25113458303775" x2="746.4545454545454" y2="461.25113458303775" stroke="#000"/>
<line x1="742.1818181818181" y1="461.0513430734879" x2="742.1818181818181" y2="461.25113458303775" stroke="#000"/>
<rect x="746.4545454545454" y="325.3656536875339" width="8.545454545454545" height="172.63434631246605" fill="orange" data-tooltip="4.68x baseline speed (YJIT)"/>
<line x1="746.4545454545454" y1="324.83572436959975" x2="754.9999999999999" y2="324.83572436959975" stroke="#000"/>
<line x1="746.4545454545454" y1="325.89558300546804" x2="754.9999999999999" y2="325.89558300546804" stroke="#000"/>
<line x1="750.7272727272726" y1="324.83572436959975" x2="750.7272727272726" y2="325.89558300546804" stroke="#000"/>
<line x1="750.7272727272726" y1="498.0" x2="750.7272727272726" y2="502.79999999999995" stroke="#000"/>
<text x="750.7272727272726" y="512.4" fill="#111" font-size="small" font-family="monospace" font-weight="bold" text-anchor="end" transform="rotate(-60, 750.7272727272726, 512.4)">
getivar
</text>
<rect x="763.5454545454544" y="461.1512388282628" width="8.545454545454545" height="36.848761171737166" fill="#7070f8" data-tooltip="1.00x baseline speed (No JIT)"/>
<line x1="763.5454545454544" y1="461.11421174818287" x2="772.0909090909089" y2="461.11421174818287" stroke="#000"/>
<line x1="763.5454545454544" y1="461.18826590834277" x2="772.0909090909089" y2="461.18826590834277" stroke="#000"/>
<line x1="767.8181818181818" y1="461.11421174818287" x2="767.8181818181818" y2="461.18826590834277" stroke="#000"/>
<rect x="772.0909090909089" y="280.12332869126743" width="8.545454545454545" height="217.87667130873248" fill="orange" data-tooltip="5.91x baseline speed (YJIT)"/>
<line x1="772.0909090909089" y1="279.7909002372297" x2="780.6363636363635" y2="279.7909002372297" stroke="#000"/>
<line x1="772.0909090909089" y1="280.4557571453052" x2="780.6363636363635" y2="280.4557571453052" stroke="#000"/>
<line x1="776.3636363636363" y1="279.7909002372297" x2="776.3636363636363" y2="280.4557571453052" stroke="#000"/>
<line x1="776.3636363636363" y1="498.0" x2="776.3636363636363" y2="502.79999999999995" stroke="#000"/>
<text x="776.3636363636363" y="512.4" fill="#111" font-size="small" font-family="monospace" font-weight="bold" text-anchor="end" transform="rotate(-60, 776.3636363636363, 512.4)">
keyword_args
</text>
<rect x="789.1818181818181" y="461.1512388282628" width="8.545454545454545" height="36.848761171737166" fill="#7070f8" data-tooltip="1.00x baseline speed (No JIT)"/>
<line x1="789.1818181818181" y1="460.9911943686492" x2="797.7272727272726" y2="460.9911943686492" stroke="#000"/>
<line x1="789.1818181818181" y1="461.31128328787645" x2="797.7272727272726" y2="461.31128328787645" stroke="#000"/>
<line x1="793.4545454545454" y1="460.9911943686492" x2="793.4545454545454" y2="461.31128328787645" stroke="#000"/>
<rect x="797.7272727272726" y="100.19999999999999" width="8.545454545454545" height="397.79999999999995" fill="orange" data-tooltip="10.80x baseline speed (YJIT)"/>
<line x1="797.7272727272726" y1="96.95471845125167" x2="806.2727272727271" y2="96.95471845125167" stroke="#000"/>
<line x1="797.7272727272726" y1="103.44528154874831" x2="806.2727272727271" y2="103.44528154874831" stroke="#000"/>
<line x1="801.9999999999999" y1="96.95471845125167" x2="801.9999999999999" y2="103.44528154874831" stroke="#000"/>
<line x1="801.9999999999999" y1="498.0" x2="801.9999999999999" y2="502.79999999999995" stroke="#000"/>
<text x="801.9999999999999" y="512.4" fill="#111" font-size="small" font-family="monospace" font-weight="bold" text-anchor="end" transform="rotate(-60, 801.9999999999999, 512.4)">
respond_to
</text>
<rect x="814.8181818181818" y="461.1512388282628" width="8.545454545454545" height="36.848761171737166" fill="#7070f8" data-tooltip="1.00x baseline speed (No JIT)"/>
<line x1="814.8181818181818" y1="461.06366957343334" x2="823.3636363636363" y2="461.06366957343334" stroke="#000"/>
<line x1="814.8181818181818" y1="461.23880808309224" x2="823.3636363636363" y2="461.23880808309224" stroke="#000"/>
<line x1="819.0909090909091" y1="461.06366957343334" x2="819.0909090909091" y2="461.23880808309224" stroke="#000"/>
<rect x="823.3636363636363" y="293.06658515520706" width="8.545454545454545" height="204.93341484479288" fill="orange" data-tooltip="5.56x baseline speed (YJIT)"/>
<line x1="823.3636363636363" y1="292.5505379260347" x2="831.9090909090908" y2="292.5505379260347" stroke="#000"/>
<line x1="823.3636363636363" y1="293.5826323843794" x2="831.9090909090908" y2="293.5826323843794" stroke="#000"/>
<line x1="827.6363636363636" y1="292.5505379260347" x2="827.6363636363636" y2="293.5826323843794" stroke="#000"/>
<line x1="827.6363636363636" y1="498.0" x2="827.6363636363636" y2="502.79999999999995" stroke="#000"/>
<text x="827.6363636363636" y="512.4" fill="#111" font-size="small" font-family="monospace" font-weight="bold" text-anchor="end" transform="rotate(-60, 827.6363636363636, 512.4)">
setivar
</text>
<rect x="840.4545454545454" y="461.1512388282628" width="8.545454545454545" height="36.848761171737166" fill="#7070f8" data-tooltip="1.00x baseline speed (No JIT)"/>
<line x1="840.4545454545454" y1="460.58899842601903" x2="848.9999999999999" y2="460.58899842601903" stroke="#000"/>
<line x1="840.4545454545454" y1="461.7134792305066" x2="848.9999999999999" y2="461.7134792305066" stroke="#000"/>
<line x1="844.7272727272726" y1="460.58899842601903" x2="844.7272727272726" y2="461.7134792305066" stroke="#000"/>
<rect x="848.9999999999999" y="416.6323314512627" width="8.545454545454545" height="81.3676685487372" fill="orange" data-tooltip="2.21x baseline speed (YJIT)"/>
<line x1="848.9999999999999" y1="412.88376946572737" x2="857.5454545454544" y2="412.88376946572737" stroke="#000"/>
<line x1="848.9999999999999" y1="420.3808934367981" x2="857.5454545454544" y2="420.3808934367981" stroke="#000"/>
<line x1="853.2727272727271" y1="412.88376946572737" x2="853.2727272727271" y2="420.3808934367981" stroke="#000"/>
<line x1="853.2727272727271" y1="498.0" x2="853.2727272727271" y2="502.79999999999995" stroke="#000"/>
<text x="853.2727272727271" y="512.4" fill="#111" font-size="small" font-family="monospace" font-weight="bold" text-anchor="end" transform="rotate(-60, 853.2727272727271, 512.4)">
setivar_object
</text>
<rect x="866.090909090909" y="461.1512388282628" width="8.545454545454545" height="36.848761171737166" fill="#7070f8" data-tooltip="1.00x baseline speed (No JIT)"/>
<line x1="866.090909090909" y1="460.9885748065663" x2="874.6363636363635" y2="460.9885748065663" stroke="#000"/>
<line x1="866.090909090909" y1="461.3139028499593" x2="874.6363636363635" y2="461.3139028499593" stroke="#000"/>
<line x1="870.3636363636364" y1="460.9885748065663" x2="870.3636363636364" y2="461.3139028499593" stroke="#000"/>
<rect x="874.6363636363635" y="414.5268418579096" width="8.545454545454545" height="83.4731581420904" fill="orange" data-tooltip="2.27x baseline speed (YJIT)"/>
<line x1="874.6363636363635" y1="412.7430016301782" x2="883.181818181818" y2="412.7430016301782" stroke="#000"/>
<line x1="874.6363636363635" y1="416.310682085641" x2="883.181818181818" y2="416.310682085641" stroke="#000"/>
<line x1="878.9090909090909" y1="412.7430016301782" x2="878.9090909090909" y2="416.310682085641" stroke="#000"/>
<line x1="878.9090909090909" y1="498.0" x2="878.9090909090909" y2="502.79999999999995" stroke="#000"/>
<text x="878.9090909090909" y="512.4" fill="#111" font-size="small" font-family="monospace" font-weight="bold" text-anchor="end" transform="rotate(-60, 878.9090909090909, 512.4)">
setivar_young
</text>
<rect x="891.7272727272726" y="461.1512388282628" width="8.545454545454545" height="36.848761171737166" fill="#7070f8" data-tooltip="1.00x baseline speed (No JIT)"/>
<line x1="891.7272727272726" y1="460.897218472723" x2="900.2727272727271" y2="460.897218472723" stroke="#000"/>
<line x1="891.7272727272726" y1="461.40525918380257" x2="900.2727272727271" y2="461.40525918380257" stroke="#000"/>
<line x1="895.9999999999999" y1="460.897218472723" x2="895.9999999999999" y2="461.40525918380257" stroke="#000"/>
<rect x="900.2727272727271" y="427.2706570664964" width="8.545454545454545" height="70.72934293350353" fill="orange" data-tooltip="1.92x baseline speed (YJIT)"/>
<line x1="900.2727272727271" y1="426.1049913102564" x2="908.8181818181816" y2="426.1049913102564" stroke="#000"/>
<line x1="900.2727272727271" y1="428.4363228227365" x2="908.8181818181816" y2="428.4363228227365" stroke="#000"/>
<line x1="904.5454545454544" y1="426.1049913102564" x2="904.5454545454544" y2="428.4363228227365" stroke="#000"/>
<line x1="904.5454545454544" y1="498.0" x2="904.5454545454544" y2="502.79999999999995" stroke="#000"/>
<text x="904.5454545454544" y="512.4" fill="#111" font-size="small" font-family="monospace" font-weight="bold" text-anchor="end" transform="rotate(-60, 904.5454545454544, 512.4)">
str_concat
</text>
<rect x="917.3636363636363" y="461.1512388282628" width="8.545454545454545" height="36.848761171737166" fill="#7070f8" data-tooltip="1.00x baseline speed (No JIT)"/>
<line x1="917.3636363636363" y1="461.089728662721" x2="925.9090909090908" y2="461.089728662721" stroke="#000"/>
<line x1="917.3636363636363" y1="461.2127489938046" x2="925.9090909090908" y2="461.2127489938046" stroke="#000"/>
<line x1="921.6363636363636" y1="461.089728662721" x2="921.6363636363636" y2="461.2127489938046" stroke="#000"/>
<rect x="925.9090909090908" y="450.6406335597137" width="8.545454545454545" height="47.35936644028624" fill="orange" data-tooltip="1.29x baseline speed (YJIT)"/>
<line x1="925.9090909090908" y1="450.50084482038903" x2="934.4545454545453" y2="450.50084482038903" stroke="#000"/>
<line x1="925.9090909090908" y1="450.7804222990383" x2="934.4545454545453" y2="450.7804222990383" stroke="#000"/>
<line x1="930.1818181818181" y1="450.50084482038903" x2="930.1818181818181" y2="450.7804222990383" stroke="#000"/>
<line x1="930.1818181818181" y1="498.0" x2="930.1818181818181" y2="502.79999999999995" stroke="#000"/>
<text x="930.1818181818181" y="512.4" fill="#111" font-size="small" font-family="monospace" font-weight="bold" text-anchor="end" transform="rotate(-60, 930.1818181818181, 512.4)">
throw
</text>
</svg>