<svg viewBox="0 0 1000 600" xmlns="http://www.w3.org/2000/svg" xmlns:xlink="http://www.w3.org/1999/xlink" width="100%" height="100%">

<rect x="50.0" y="30.0" width="940.0" height="467.99999999999994" stroke="#000" fill="#EEE"/>
<line x1="42.0" y1="497.9999999999999" x2="50.0" y2="497.9999999999999" stroke="#000"/>
<text x="26.000000000000004" y="497.9999999999999" text-anchor="end" font-weight="bold" font-size="small" fill="#111">
0.0
</text>
<line x1="42.0" y1="412.87727823253334" x2="50.0" y2="412.87727823253334" stroke="#000"/>
<text x="26.000000000000004" y="412.87727823253334" text-anchor="end" font-weight="bold" font-size="small" fill="#111">
0.5
</text>
<line x1="42.0" y1="327.7545564650668" x2="50.0" y2="327.7545564650668" stroke="#000"/>
<text x="26.000000000000004" y="327.7545564650668" text-anchor="end" font-weight="bold" font-size="small" fill="#111">
1.0
</text>
<line x1="42.0" y1="242.63183469760023" x2="50.0" y2="242.63183469760023" stroke="#000"/>
<text x="26.000000000000004" y="242.63183469760023" text-anchor="end" font-weight="bold" font-size="small" fill="#111">
1.5
</text>
<line x1="42.0" y1="157.50911293013365" x2="50.0" y2="157.50911293013365" stroke="#000"/>
<text x="26.000000000000004" y="157.50911293013365" text-anchor="end" font-weight="bold" font-size="small" fill="#111">
2.0
</text>
<rect x="268.5" y="36.00000000000001" width="80.0" height="18.0" fill="#7070f8" stroke="#888"/>
<text x="308.5" y="52.50000000000001" font-size="small" text-anchor="middle" font-weight="bold" fill="#EEE">
No JIT
</text>
<rect x="691.4999999999999" y="36.00000000000001" width="80.0" height="18.0" fill="orange" stroke="#888"/>
<text x="731.4999999999999" y="52.50000000000001" font-size="small" text-anchor="middle" font-weight="bold" fill="#EEE">
YJIT
</text>
<rect x="97.0" y="327.7545564650668" width="28.2" height="170.24544353493314" fill="#7070f8" data-tooltip="1.00x baseline speed (No JIT)"/>
<line x1="97.0" y1="327.40113412036254" x2="125.2" y2="327.40113412036254" stroke="#000"/>
<line x1="97.0" y1="328.10797880977105" x2="125.2" y2="328.10797880977105" stroke="#000"/>
<line x1="111.10000000000001" y1="327.40113412036254" x2="111.10000000000001" y2="328.10797880977105" stroke="#000"/>
<rect x="125.2" y="169.88600209353896" width="28.2" height="328.113997906461" fill="orange" data-tooltip="1.93x baseline speed (YJIT)"/>
<line x1="125.2" y1="169.14509567955977" x2="153.4" y2="169.14509567955977" stroke="#000"/>
<line x1="125.2" y1="170.62690850751815" x2="153.4" y2="170.62690850751815" stroke="#000"/>
<line x1="139.3" y1="169.14509567955977" x2="139.3" y2="170.62690850751815" stroke="#000"/>
<line x1="139.3" y1="498.0" x2="139.3" y2="502.79999999999995" stroke="#000"/>
<text x="139.3" y="512.4" fill="#111" font-size="small" font-family="monospace" font-weight="bold" text-anchor="end" transform="rotate(-60, 139.3, 512.4)">
binarytrees
</text>
<rect x="181.6" y="327.7545564650668" width="28.2" height="170.24544353493314" fill="#7070f8" data-tooltip="1.00x baseline speed (No JIT)"/>
<line x1="181.6" y1="326.47874849851576" x2="209.79999999999998" y2="326.47874849851576" stroke="#000"/>
<line x1="181.6" y1="329.03036443161784" x2="209.79999999999998" y2="329.03036443161784" stroke="#000"/>
<line x1="195.7" y1="326.47874849851576" x2="195.7" y2="329.03036443161784" stroke="#000"/>
<rect x="209.79999999999998" y="238.21963265042376" width="28.2" height="259.7803673495762" fill="orange" data-tooltip="1.53x baseline speed (YJIT)"/>
<line x1="209.79999999999998" y1="236.26850254223305" x2="238.0" y2="236.26850254223305" stroke="#000"/>
<line x1="209.79999999999998" y1="240.17076275861447" x2="238.0" y2="240.17076275861447" stroke="#000"/>
<line x1="223.89999999999998" y1="236.26850254223305" x2="223.89999999999998" y2="240.17076275861447" stroke="#000"/>
<line x1="223.89999999999998" y1="498.0" x2="223.89999999999998" y2="502.79999999999995" stroke="#000"/>
<text x="223.89999999999998" y="512.4" fill="#111" font-size="small" font-family="monospace" font-weight="bold" text-anchor="end" transform="rotate(-60, 223.89999999999998, 512.4)">
chunky_png
</text>
<rect x="266.2" y="327.7545564650668" width="28.2" height="170.24544353493314" fill="#7070f8" data-tooltip="1.00x baseline speed (No JIT)"/>
<line x1="266.2" y1="326.6414915347404" x2="294.4" y2="326.6414915347404" stroke="#000"/>
<line x1="266.2" y1="328.8676213953932" x2="294.4" y2="328.8676213953932" stroke="#000"/>
<line x1="280.3" y1="326.6414915347404" x2="280.3" y2="328.8676213953932" stroke="#000"/>
<rect x="294.4" y="305.2069616944026" width="28.2" height="192.79303830559738" fill="orange" data-tooltip="1.13x baseline speed (YJIT)"/>
<line x1="294.4" y1="303.02648452047544" x2="322.6" y2="303.02648452047544" stroke="#000"/>
<line x1="294.4" y1="307.3874388683297" x2="322.6" y2="307.3874388683297" stroke="#000"/>
<line x1="308.5" y1="303.02648452047544" x2="308.5" y2="307.3874388683297" stroke="#000"/>
<line x1="308.5" y1="498.0" x2="308.5" y2="502.79999999999995" stroke="#000"/>
<text x="308.5" y="512.4" fill="#111" font-size="small" font-family="monospace" font-weight="bold" text-anchor="end" transform="rotate(-60, 308.5, 512.4)">
erubi
</text>
<rect x="350.8" y="327.7545564650668" width="28.2" height="170.24544353493314" fill="#7070f8" data-tooltip="1.00x baseline speed (No JIT)"/>
<line x1="350.8" y1="322.99731079076156" x2="379.0" y2="322.99731079076156" stroke="#000"/>
<line x1="350.8" y1="332.51180213937204" x2="379.0" y2="332.51180213937204" stroke="#000"/>
<line x1="364.9" y1="322.99731079076156" x2="364.9" y2="332.51180213937204" stroke="#000"/>
<rect x="379.0" y="252.03515142584706" width="28.2" height="245.96484857415288" fill="orange" data-tooltip="1.44x baseline speed (YJIT)"/>
<line x1="379.0" y1="240.09488327132993" x2="407.2" y2="240.09488327132993" stroke="#000"/>
<line x1="379.0" y1="263.97541958036413" x2="407.2" y2="263.97541958036413" stroke="#000"/>
<line x1="393.1" y1="240.09488327132993" x2="393.1" y2="263.97541958036413" stroke="#000"/>
<line x1="393.1" y1="498.0" x2="393.1" y2="502.79999999999995" stroke="#000"/>
<text x="393.1" y="512.4" fill="#111" font-size="small" font-family="monospace" font-weight="bold" text-anchor="end" transform="rotate(-60, 393.1, 512.4)">
erubi_rails
</text>
<rect x="435.40000000000003" y="327.7545564650668" width="28.2" height="170.24544353493314" fill="#7070f8" data-tooltip="1.00x baseline speed (No JIT)"/>
<line x1="435.40000000000003" y1="326.88490257847695" x2="463.6" y2="326.88490257847695" stroke="#000"/>
<line x1="435.40000000000003" y1="328.62421035165664" x2="463.6" y2="328.62421035165664" stroke="#000"/>
<line x1="449.5" y1="326.88490257847695" x2="449.5" y2="328.62421035165664" stroke="#000"/>
<rect x="463.6" y="332.08218671670016" width="28.2" height="165.91781328329972" fill="orange" data-tooltip="0.97x baseline speed (YJIT)"/>
<line x1="463.6" y1="330.9776418184432" x2="491.8" y2="330.9776418184432" stroke="#000"/>
<line x1="463.6" y1="333.1867316149571" x2="491.8" y2="333.1867316149571" stroke="#000"/>
<line x1="477.7" y1="330.9776418184432" x2="477.7" y2="333.1867316149571" stroke="#000"/>
<line x1="477.7" y1="498.0" x2="477.7" y2="502.79999999999995" stroke="#000"/>
<text x="477.7" y="512.4" fill="#111" font-size="small" font-family="monospace" font-weight="bold" text-anchor="end" transform="rotate(-60, 477.7, 512.4)">
etanni
</text>
<rect x="520.0" y="327.7545564650668" width="28.2" height="170.24544353493314" fill="#7070f8" data-tooltip="1.00x baseline speed (No JIT)"/>
<line x1="520.0" y1="327.6242426263456" x2="548.2" y2="327.6242426263456" stroke="#000"/>
<line x1="520.0" y1="327.884870303788" x2="548.2" y2="327.884870303788" stroke="#000"/>
<line x1="534.1" y1="327.6242426263456" x2="534.1" y2="327.884870303788" stroke="#000"/>
<rect x="548.2" y="100.19999999999999" width="28.2" height="397.79999999999995" fill="orange" data-tooltip="2.34x baseline speed (YJIT)"/>
<line x1="548.2" y1="99.51000405778139" x2="576.4" y2="99.51000405778139" stroke="#000"/>
<line x1="548.2" y1="100.88999594221859" x2="576.4" y2="100.88999594221859" stroke="#000"/>
<line x1="562.3000000000001" y1="99.51000405778139" x2="562.3000000000001" y2="100.88999594221859" stroke="#000"/>
<line x1="562.3000000000001" y1="498.0" x2="562.3000000000001" y2="502.79999999999995" stroke="#000"/>
<text x="562.3000000000001" y="512.4" fill="#111" font-size="small" font-family="monospace" font-weight="bold" text-anchor="end" transform="rotate(-60, 562.3000000000001, 512.4)">
fannkuchredux
</text>
<rect x="604.5999999999999" y="327.7545564650668" width="28.2" height="170.24544353493314" fill="#7070f8" data-tooltip="1.00x baseline speed (No JIT)"/>
<line x1="604.5999999999999" y1="325.3435583740754" x2="632.8" y2="325.3435583740754" stroke="#000"/>
<line x1="604.5999999999999" y1="330.16555455605817" x2="632.8" y2="330.16555455605817" stroke="#000"/>
<line x1="618.6999999999999" y1="325.3435583740754" x2="618.6999999999999" y2="330.16555455605817" stroke="#000"/>
<rect x="632.8" y="266.376852747529" width="28.2" height="231.62314725247091" fill="orange" data-tooltip="1.36x baseline speed (YJIT)"/>
<line x1="632.8" y1="261.02524055350875" x2="660.9999999999999" y2="261.02524055350875" stroke="#000"/>
<line x1="632.8" y1="271.7284649415493" x2="660.9999999999999" y2="271.7284649415493" stroke="#000"/>
<line x1="646.8999999999999" y1="261.02524055350875" x2="646.8999999999999" y2="271.7284649415493" stroke="#000"/>
<line x1="646.8999999999999" y1="498.0" x2="646.8999999999999" y2="502.79999999999995" stroke="#000"/>
<text x="646.8999999999999" y="512.4" fill="#111" font-size="small" font-family="monospace" font-weight="bold" text-anchor="end" transform="rotate(-60, 646.8999999999999, 512.4)">
lee
</text>
<rect x="689.1999999999999" y="327.7545564650668" width="28.2" height="170.24544353493314" fill="#7070f8" data-tooltip="1.00x baseline speed (No JIT)"/>
<line x1="689.1999999999999" y1="327.5996339931813" x2="717.4" y2="327.5996339931813" stroke="#000"/>
<line x1="689.1999999999999" y1="327.90947893695227" x2="717.4" y2="327.90947893695227" stroke="#000"/>
<line x1="703.3" y1="327.5996339931813" x2="703.3" y2="327.90947893695227" stroke="#000"/>
<rect x="717.4" y="251.47530899721366" width="28.2" height="246.52469100278628" fill="orange" data-tooltip="1.45x baseline speed (YJIT)"/>
<line x1="717.4" y1="251.1682967448193" x2="745.5999999999999" y2="251.1682967448193" stroke="#000"/>
<line x1="717.4" y1="251.78232124960803" x2="745.5999999999999" y2="251.78232124960803" stroke="#000"/>
<line x1="731.4999999999999" y1="251.1682967448193" x2="731.4999999999999" y2="251.78232124960803" stroke="#000"/>
<line x1="731.4999999999999" y1="498.0" x2="731.4999999999999" y2="502.79999999999995" stroke="#000"/>
<text x="731.4999999999999" y="512.4" fill="#111" font-size="small" font-family="monospace" font-weight="bold" text-anchor="end" transform="rotate(-60, 731.4999999999999, 512.4)">
nbody
</text>
<rect x="773.8" y="327.7545564650668" width="28.2" height="170.24544353493314" fill="#7070f8" data-tooltip="1.00x baseline speed (No JIT)"/>
<line x1="773.8" y1="326.83951817829893" x2="801.9999999999999" y2="326.83951817829893" stroke="#000"/>
<line x1="773.8" y1="328.66959475183467" x2="801.9999999999999" y2="328.66959475183467" stroke="#000"/>
<line x1="787.9" y1="326.83951817829893" x2="787.9" y2="328.66959475183467" stroke="#000"/>
<rect x="801.9999999999999" y="168.9129915326199" width="28.2" height="329.08700846738003" fill="orange" data-tooltip="1.93x baseline speed (YJIT)"/>
<line x1="801.9999999999999" y1="166.68558265637108" x2="830.1999999999999" y2="166.68558265637108" stroke="#000"/>
<line x1="801.9999999999999" y1="171.14040040886874" x2="830.1999999999999" y2="171.14040040886874" stroke="#000"/>
<line x1="816.0999999999999" y1="166.68558265637108" x2="816.0999999999999" y2="171.14040040886874" stroke="#000"/>
<line x1="816.0999999999999" y1="498.0" x2="816.0999999999999" y2="502.79999999999995" stroke="#000"/>
<text x="816.0999999999999" y="512.4" fill="#111" font-size="small" font-family="monospace" font-weight="bold" text-anchor="end" transform="rotate(-60, 816.0999999999999, 512.4)">
optcarrot
</text>
<rect x="858.4" y="327.7545564650668" width="28.2" height="170.24544353493314" fill="#7070f8" data-tooltip="1.00x baseline speed (No JIT)"/>
<line x1="858.4" y1="327.1819464051584" x2="886.5999999999999" y2="327.1819464051584" stroke="#000"/>
<line x1="858.4" y1="328.3271665249752" x2="886.5999999999999" y2="328.3271665249752" stroke="#000"/>
<line x1="872.4999999999999" y1="327.1819464051584" x2="872.4999999999999" y2="328.3271665249752" stroke="#000"/>
<rect x="886.5999999999999" y="186.3766216366785" width="28.2" height="311.6233783633215" fill="orange" data-tooltip="1.83x baseline speed (YJIT)"/>
<line x1="886.5999999999999" y1="184.9857469508277" x2="914.8" y2="184.9857469508277" stroke="#000"/>
<line x1="886.5999999999999" y1="187.7674963225293" x2="914.8" y2="187.7674963225293" stroke="#000"/>
<line x1="900.6999999999999" y1="184.9857469508277" x2="900.6999999999999" y2="187.7674963225293" stroke="#000"/>
<line x1="900.6999999999999" y1="498.0" x2="900.6999999999999" y2="502.79999999999995" stroke="#000"/>
<text x="900.6999999999999" y="512.4" fill="#111" font-size="small" font-family="monospace" font-weight="bold" text-anchor="end" transform="rotate(-60, 900.6999999999999, 512.4)">
rubykon
</text>
</svg>