<svg viewBox="0 0 1000 600" xmlns="http://www.w3.org/2000/svg" xmlns:xlink="http://www.w3.org/1999/xlink" width="100%" height="100%">

<rect x="50.0" y="30.0" width="940.0" height="467.99999999999994" stroke="#000" fill="#EEE"/>
<line x1="42.0" y1="497.9999999999999" x2="50.0" y2="497.9999999999999" stroke="#000"/>
<text x="26.000000000000004" y="497.9999999999999" text-anchor="end" font-weight="bold" font-size="small" fill="#111">
0.0
</text>
<line x1="42.0" y1="455.1883608824249" x2="50.0" y2="455.1883608824249" stroke="#000"/>
<text x="26.000000000000004" y="455.1883608824249" text-anchor="end" font-weight="bold" font-size="small" fill="#111">
0.2
</text>
<line x1="42.0" y1="412.3767217648497" x2="50.0" y2="412.3767217648497" stroke="#000"/>
<text x="26.000000000000004" y="412.3767217648497" text-anchor="end" font-weight="bold" font-size="small" fill="#111">
0.4
</text>
<line x1="42.0" y1="369.5650826472747" x2="50.0" y2="369.5650826472747" stroke="#000"/>
<text x="26.000000000000004" y="369.5650826472747" text-anchor="end" font-weight="bold" font-size="small" fill="#111">
0.6
</text>
<line x1="42.0" y1="326.75344352969967" x2="50.0" y2="326.75344352969967" stroke="#000"/>
<text x="26.000000000000004" y="326.75344352969967" text-anchor="end" font-weight="bold" font-size="small" fill="#111">
0.8
</text>
<line x1="42.0" y1="283.9418044121246" x2="50.0" y2="283.9418044121246" stroke="#000"/>
<text x="26.000000000000004" y="283.9418044121246" text-anchor="end" font-weight="bold" font-size="small" fill="#111">
1.0
</text>
<line x1="42.0" y1="241.13016529454953" x2="50.0" y2="241.13016529454953" stroke="#000"/>
<text x="26.000000000000004" y="241.13016529454953" text-anchor="end" font-weight="bold" font-size="small" fill="#111">
1.2
</text>
<line x1="42.0" y1="198.31852617697453" x2="50.0" y2="198.31852617697453" stroke="#000"/>
<text x="26.000000000000004" y="198.31852617697453" text-anchor="end" font-weight="bold" font-size="small" fill="#111">
1.4
</text>
<line x1="42.0" y1="155.50688705939945" x2="50.0" y2="155.50688705939945" stroke="#000"/>
<text x="26.000000000000004" y="155.50688705939945" text-anchor="end" font-weight="bold" font-size="small" fill="#111">
1.6
</text>
<line x1="42.0" y1="112.69524794182435" x2="50.0" y2="112.69524794182435" stroke="#000"/>
<text x="26.000000000000004" y="112.69524794182435" text-anchor="end" font-weight="bold" font-size="small" fill="#111">
1.8
</text>
<rect x="268.5" y="36.00000000000001" width="80.0" height="18.0" fill="#7070f8" stroke="#888"/>
<text x="308.5" y="52.50000000000001" font-size="small" text-anchor="middle" font-weight="bold" fill="#EEE">
No JIT
</text>
<rect x="691.4999999999999" y="36.00000000000001" width="80.0" height="18.0" fill="orange" stroke="#888"/>
<text x="731.4999999999999" y="52.50000000000001" font-size="small" text-anchor="middle" font-weight="bold" fill="#EEE">
YJIT
</text>
<rect x="97.0" y="283.9418044121246" width="25.636363636363637" height="214.05819558787536" fill="#7070f8" data-tooltip="1.00x baseline speed (No JIT)"/>
<line x1="97.0" y1="282.21062414114016" x2="122.63636363636364" y2="282.21062414114016" stroke="#000"/>
<line x1="97.0" y1="285.67298468310906" x2="122.63636363636364" y2="285.67298468310906" stroke="#000"/>
<line x1="109.81818181818181" y1="282.21062414114016" x2="109.81818181818181" y2="285.67298468310906" stroke="#000"/>
<rect x="122.63636363636364" y="100.19999999999999" width="25.636363636363637" height="397.79999999999995" fill="orange" data-tooltip="1.86x baseline speed (YJIT)"/>
<line x1="122.63636363636364" y1="95.51096259194556" x2="148.27272727272728" y2="95.51096259194556" stroke="#000"/>
<line x1="122.63636363636364" y1="104.88903740805442" x2="148.27272727272728" y2="104.88903740805442" stroke="#000"/>
<line x1="135.45454545454547" y1="95.51096259194556" x2="135.45454545454547" y2="104.88903740805442" stroke="#000"/>
<line x1="135.45454545454547" y1="498.0" x2="135.45454545454547" y2="502.79999999999995" stroke="#000"/>
<text x="135.45454545454547" y="512.4" fill="#111" font-size="small" font-family="monospace" font-weight="bold" text-anchor="end" transform="rotate(-60, 135.45454545454547, 512.4)">
activerecord
</text>
<rect x="173.9090909090909" y="283.9418044121246" width="25.636363636363637" height="214.05819558787536" fill="#7070f8" data-tooltip="1.00x baseline speed (No JIT)"/>
<line x1="173.9090909090909" y1="273.0371382153537" x2="199.54545454545453" y2="273.0371382153537" stroke="#000"/>
<line x1="173.9090909090909" y1="294.8464706088955" x2="199.54545454545453" y2="294.8464706088955" stroke="#000"/>
<line x1="186.72727272727272" y1="273.0371382153537" x2="186.72727272727272" y2="294.8464706088955" stroke="#000"/>
<rect x="199.54545454545453" y="128.36033447740652" width="25.636363636363637" height="369.6396655225934" fill="orange" data-tooltip="1.73x baseline speed (YJIT)"/>
<line x1="199.54545454545453" y1="105.48839646127976" x2="225.18181818181816" y2="105.48839646127976" stroke="#000"/>
<line x1="199.54545454545453" y1="151.2322724935333" x2="225.18181818181816" y2="151.2322724935333" stroke="#000"/>
<line x1="212.36363636363635" y1="105.48839646127976" x2="212.36363636363635" y2="151.2322724935333" stroke="#000"/>
<line x1="212.36363636363637" y1="498.0" x2="212.36363636363637" y2="502.79999999999995" stroke="#000"/>
<text x="212.36363636363637" y="512.4" fill="#111" font-size="small" font-family="monospace" font-weight="bold" text-anchor="end" transform="rotate(-60, 212.36363636363637, 512.4)">
erubi_rails
</text>
<rect x="250.81818181818184" y="283.9418044121246" width="25.636363636363637" height="214.05819558787536" fill="#7070f8" data-tooltip="1.00x baseline speed (No JIT)"/>
<line x1="250.81818181818184" y1="282.3028176669324" x2="276.45454545454544" y2="282.3028176669324" stroke="#000"/>
<line x1="250.81818181818184" y1="285.5807911573168" x2="276.45454545454544" y2="285.5807911573168" stroke="#000"/>
<line x1="263.6363636363637" y1="282.3028176669324" x2="263.6363636363637" y2="285.5807911573168" stroke="#000"/>
<rect x="276.45454545454544" y="164.15741950288592" width="25.636363636363637" height="333.842580497114" fill="orange" data-tooltip="1.56x baseline speed (YJIT)"/>
<line x1="276.45454545454544" y1="156.34029745575867" x2="302.09090909090907" y2="156.34029745575867" stroke="#000"/>
<line x1="276.45454545454544" y1="171.97454155001316" x2="302.09090909090907" y2="171.97454155001316" stroke="#000"/>
<line x1="289.2727272727273" y1="156.34029745575867" x2="289.2727272727273" y2="171.97454155001316" stroke="#000"/>
<line x1="289.2727272727273" y1="498.0" x2="289.2727272727273" y2="502.79999999999995" stroke="#000"/>
<text x="289.2727272727273" y="512.4" fill="#111" font-size="small" font-family="monospace" font-weight="bold" text-anchor="end" transform="rotate(-60, 289.2727272727273, 512.4)">
hexapdf
</text>
<rect x="327.72727272727275" y="283.9418044121246" width="25.636363636363637" height="214.05819558787536" fill="#7070f8" data-tooltip="1.00x baseline speed (No JIT)"/>
<line x1="327.72727272727275" y1="281.08480316008183" x2="353.3636363636364" y2="281.08480316008183" stroke="#000"/>
<line x1="327.72727272727275" y1="286.79880566416733" x2="353.3636363636364" y2="286.79880566416733" stroke="#000"/>
<line x1="340.5454545454546" y1="281.08480316008183" x2="340.5454545454546" y2="286.79880566416733" stroke="#000"/>
<rect x="353.3636363636364" y="205.74149834488261" width="25.636363636363637" height="292.2585016551173" fill="orange" data-tooltip="1.37x baseline speed (YJIT)"/>
<line x1="353.3636363636364" y1="198.45659683129952" x2="379.0" y2="198.45659683129952" stroke="#000"/>
<line x1="353.3636363636364" y1="213.02639985846574" x2="379.0" y2="213.02639985846574" stroke="#000"/>
<line x1="366.18181818181824" y1="198.45659683129952" x2="366.18181818181824" y2="213.02639985846574" stroke="#000"/>
<line x1="366.18181818181824" y1="498.0" x2="366.18181818181824" y2="502.79999999999995" stroke="#000"/>
<text x="366.18181818181824" y="512.4" fill="#111" font-size="small" font-family="monospace" font-weight="bold" text-anchor="end" transform="rotate(-60, 366.18181818181824, 512.4)">
liquid-c
</text>
<rect x="404.6363636363637" y="283.9418044121246" width="25.636363636363637" height="214.05819558787536" fill="#7070f8" data-tooltip="1.00x baseline speed (No JIT)"/>
<line x1="404.6363636363637" y1="277.07156095605035" x2="430.2727272727273" y2="277.07156095605035" stroke="#000"/>
<line x1="404.6363636363637" y1="290.8120478681988" x2="430.2727272727273" y2="290.8120478681988" stroke="#000"/>
<line x1="417.4545454545455" y1="277.07156095605035" x2="417.4545454545455" y2="290.8120478681988" stroke="#000"/>
<rect x="430.2727272727273" y="201.48979982162018" width="25.636363636363637" height="296.51020017837976" fill="orange" data-tooltip="1.39x baseline speed (YJIT)"/>
<line x1="430.2727272727273" y1="184.26477038547492" x2="455.90909090909093" y2="184.26477038547492" stroke="#000"/>
<line x1="430.2727272727273" y1="218.71482925776544" x2="455.90909090909093" y2="218.71482925776544" stroke="#000"/>
<line x1="443.0909090909091" y1="184.26477038547492" x2="443.0909090909091" y2="218.71482925776544" stroke="#000"/>
<line x1="443.0909090909091" y1="498.0" x2="443.0909090909091" y2="502.79999999999995" stroke="#000"/>
<text x="443.0909090909091" y="512.4" fill="#111" font-size="small" font-family="monospace" font-weight="bold" text-anchor="end" transform="rotate(-60, 443.0909090909091, 512.4)">
liquid-compile
</text>
<rect x="481.5454545454546" y="283.9418044121246" width="25.636363636363637" height="214.05819558787536" fill="#7070f8" data-tooltip="1.00x baseline speed (No JIT)"/>
<line x1="481.5454545454546" y1="281.25370971522364" x2="507.1818181818183" y2="281.25370971522364" stroke="#000"/>
<line x1="481.5454545454546" y1="286.6298991090256" x2="507.1818181818183" y2="286.6298991090256" stroke="#000"/>
<line x1="494.36363636363643" y1="281.25370971522364" x2="494.36363636363643" y2="286.6298991090256" stroke="#000"/>
<rect x="507.1818181818183" y="101.6431060208968" width="25.636363636363637" height="396.3568939791032" fill="orange" data-tooltip="1.85x baseline speed (YJIT)"/>
<line x1="507.1818181818183" y1="90.47179855258487" x2="532.818181818182" y2="90.47179855258487" stroke="#000"/>
<line x1="507.1818181818183" y1="112.81441348920872" x2="532.818181818182" y2="112.81441348920872" stroke="#000"/>
<line x1="520.0000000000001" y1="90.47179855258487" x2="520.0000000000001" y2="112.81441348920872" stroke="#000"/>
<line x1="520.0" y1="498.0" x2="520.0" y2="502.79999999999995" stroke="#000"/>
<text x="520.0" y="512.4" fill="#111" font-size="small" font-family="monospace" font-weight="bold" text-anchor="end" transform="rotate(-60, 520.0, 512.4)">
liquid-render
</text>
<rect x="558.4545454545454" y="283.9418044121246" width="25.636363636363637" height="214.05819558787536" fill="#7070f8" data-tooltip="1.00x baseline speed (No JIT)"/>
<line x1="558.4545454545454" y1="283.5961254445733" x2="584.0909090909091" y2="283.5961254445733" stroke="#000"/>
<line x1="558.4545454545454" y1="284.28748337967585" x2="584.0909090909091" y2="284.28748337967585" stroke="#000"/>
<line x1="571.2727272727273" y1="283.5961254445733" x2="571.2727272727273" y2="284.28748337967585" stroke="#000"/>
<rect x="584.0909090909091" y="216.55908838538994" width="25.636363636363637" height="281.44091161461" fill="orange" data-tooltip="1.31x baseline speed (YJIT)"/>
<line x1="584.0909090909091" y1="215.79529446963616" x2="609.7272727272727" y2="215.79529446963616" stroke="#000"/>
<line x1="584.0909090909091" y1="217.3228823011437" x2="609.7272727272727" y2="217.3228823011437" stroke="#000"/>
<line x1="596.909090909091" y1="215.79529446963616" x2="596.909090909091" y2="217.3228823011437" stroke="#000"/>
<line x1="596.9090909090909" y1="498.0" x2="596.9090909090909" y2="502.79999999999995" stroke="#000"/>
<text x="596.9090909090909" y="512.4" fill="#111" font-size="small" font-family="monospace" font-weight="bold" text-anchor="end" transform="rotate(-60, 596.9090909090909, 512.4)">
mail
</text>
<rect x="635.3636363636364" y="283.9418044121246" width="25.636363636363637" height="214.05819558787536" fill="#7070f8" data-tooltip="1.00x baseline speed (No JIT)"/>
<line x1="635.3636363636364" y1="283.70850136898514" x2="661.0" y2="283.70850136898514" stroke="#000"/>
<line x1="635.3636363636364" y1="284.175107455264" x2="661.0" y2="284.175107455264" stroke="#000"/>
<line x1="648.1818181818182" y1="283.70850136898514" x2="648.1818181818182" y2="284.175107455264" stroke="#000"/>
<rect x="661.0" y="195.13424183484608" width="25.636363636363637" height="302.8657581651539" fill="orange" data-tooltip="1.41x baseline speed (YJIT)"/>
<line x1="661.0" y1="194.73681027091072" x2="686.6363636363637" y2="194.73681027091072" stroke="#000"/>
<line x1="661.0" y1="195.53167339878144" x2="686.6363636363637" y2="195.53167339878144" stroke="#000"/>
<line x1="673.8181818181819" y1="194.73681027091072" x2="673.8181818181819" y2="195.53167339878144" stroke="#000"/>
<line x1="673.8181818181818" y1="498.0" x2="673.8181818181818" y2="502.79999999999995" stroke="#000"/>
<text x="673.8181818181818" y="512.4" fill="#111" font-size="small" font-family="monospace" font-weight="bold" text-anchor="end" transform="rotate(-60, 673.8181818181818, 512.4)">
psych-load
</text>
<rect x="712.2727272727273" y="283.9418044121246" width="25.636363636363637" height="214.05819558787536" fill="#7070f8" data-tooltip="1.00x baseline speed (No JIT)"/>
<line x1="712.2727272727273" y1="282.5801417010602" x2="737.909090909091" y2="282.5801417010602" stroke="#000"/>
<line x1="712.2727272727273" y1="285.30346712318897" x2="737.909090909091" y2="285.30346712318897" stroke="#000"/>
<line x1="725.0909090909091" y1="282.5801417010602" x2="725.0909090909091" y2="285.30346712318897" stroke="#000"/>
<rect x="737.909090909091" y="173.8469907453945" width="25.636363636363637" height="324.1530092546054" fill="orange" data-tooltip="1.51x baseline speed (YJIT)"/>
<line x1="737.909090909091" y1="169.4096862327914" x2="763.5454545454546" y2="169.4096862327914" stroke="#000"/>
<line x1="737.909090909091" y1="178.28429525799763" x2="763.5454545454546" y2="178.28429525799763" stroke="#000"/>
<line x1="750.7272727272727" y1="169.4096862327914" x2="750.7272727272727" y2="178.28429525799763" stroke="#000"/>
<line x1="750.7272727272726" y1="498.0" x2="750.7272727272726" y2="502.79999999999995" stroke="#000"/>
<text x="750.7272727272726" y="512.4" fill="#111" font-size="small" font-family="monospace" font-weight="bold" text-anchor="end" transform="rotate(-60, 750.7272727272726, 512.4)">
railsbench
</text>
<rect x="789.1818181818182" y="283.9418044121246" width="25.636363636363637" height="214.05819558787536" fill="#7070f8" data-tooltip="1.00x baseline speed (No JIT)"/>
<line x1="789.1818181818182" y1="264.7669370664861" x2="814.8181818181819" y2="264.7669370664861" stroke="#000"/>
<line x1="789.1818181818182" y1="303.1166717577631" x2="814.8181818181819" y2="303.1166717577631" stroke="#000"/>
<line x1="802.0" y1="264.7669370664861" x2="802.0" y2="303.1166717577631" stroke="#000"/>
<rect x="814.8181818181819" y="199.90301201965872" width="25.636363636363637" height="298.0969879803412" fill="orange" data-tooltip="1.39x baseline speed (YJIT)"/>
<line x1="814.8181818181819" y1="134.91927150678072" x2="840.4545454545456" y2="134.91927150678072" stroke="#000"/>
<line x1="814.8181818181819" y1="264.8867525325367" x2="840.4545454545456" y2="264.8867525325367" stroke="#000"/>
<line x1="827.6363636363637" y1="134.91927150678072" x2="827.6363636363637" y2="264.8867525325367" stroke="#000"/>
<line x1="827.6363636363636" y1="498.0" x2="827.6363636363636" y2="502.79999999999995" stroke="#000"/>
<text x="827.6363636363636" y="512.4" fill="#111" font-size="small" font-family="monospace" font-weight="bold" text-anchor="end" transform="rotate(-60, 827.6363636363636, 512.4)">
ruby-lsp
</text>
<rect x="866.0909090909091" y="283.9418044121246" width="25.636363636363637" height="214.05819558787536" fill="#7070f8" data-tooltip="1.00x baseline speed (No JIT)"/>
<line x1="866.0909090909091" y1="283.41457788409076" x2="891.7272727272729" y2="283.41457788409076" stroke="#000"/>
<line x1="866.0909090909091" y1="284.4690309401584" x2="891.7272727272729" y2="284.4690309401584" stroke="#000"/>
<line x1="878.909090909091" y1="283.41457788409076" x2="878.909090909091" y2="284.4690309401584" stroke="#000"/>
<rect x="891.7272727272729" y="224.48827591077534" width="25.636363636363637" height="273.51172408922463" fill="orange" data-tooltip="1.28x baseline speed (YJIT)"/>
<line x1="891.7272727272729" y1="222.27349629728712" x2="917.3636363636365" y2="222.27349629728712" stroke="#000"/>
<line x1="891.7272727272729" y1="226.70305552426356" x2="917.3636363636365" y2="226.70305552426356" stroke="#000"/>
<line x1="904.5454545454546" y1="222.27349629728712" x2="904.5454545454546" y2="226.70305552426356" stroke="#000"/>
<line x1="904.5454545454545" y1="498.0" x2="904.5454545454545" y2="502.79999999999995" stroke="#000"/>
<text x="904.5454545454545" y="512.4" fill="#111" font-size="small" font-family="monospace" font-weight="bold" text-anchor="end" transform="rotate(-60, 904.5454545454545, 512.4)">
sequel
</text>
</svg>