<svg viewBox="0 0 1000 600" xmlns="http://www.w3.org/2000/svg" xmlns:xlink="http://www.w3.org/1999/xlink" width="100%" height="100%">

<rect x="50.0" y="30.0" width="940.0" height="467.99999999999994" stroke="#000" fill="#EEE"/>
<line x1="42.0" y1="497.9999999999999" x2="50.0" y2="497.9999999999999" stroke="#000"/>
<text x="26.000000000000004" y="497.9999999999999" text-anchor="end" font-weight="bold" font-size="small" fill="#111">
0.0
</text>
<line x1="42.0" y1="439.26417107308475" x2="50.0" y2="439.26417107308475" stroke="#000"/>
<text x="26.000000000000004" y="439.26417107308475" text-anchor="end" font-weight="bold" font-size="small" fill="#111">
0.2
</text>
<line x1="42.0" y1="380.5283421461695" x2="50.0" y2="380.5283421461695" stroke="#000"/>
<text x="26.000000000000004" y="380.5283421461695" text-anchor="end" font-weight="bold" font-size="small" fill="#111">
0.4
</text>
<line x1="42.0" y1="321.7925132192543" x2="50.0" y2="321.7925132192543" stroke="#000"/>
<text x="26.000000000000004" y="321.7925132192543" text-anchor="end" font-weight="bold" font-size="small" fill="#111">
0.6
</text>
<line x1="42.0" y1="263.05668429233907" x2="50.0" y2="263.05668429233907" stroke="#000"/>
<text x="26.000000000000004" y="263.05668429233907" text-anchor="end" font-weight="bold" font-size="small" fill="#111">
0.8
</text>
<line x1="42.0" y1="204.3208553654239" x2="50.0" y2="204.3208553654239" stroke="#000"/>
<text x="26.000000000000004" y="204.3208553654239" text-anchor="end" font-weight="bold" font-size="small" fill="#111">
1.0
</text>
<line x1="42.0" y1="145.58502643850866" x2="50.0" y2="145.58502643850866" stroke="#000"/>
<text x="26.000000000000004" y="145.58502643850866" text-anchor="end" font-weight="bold" font-size="small" fill="#111">
1.2
</text>
<rect x="268.5" y="36.00000000000001" width="80.0" height="18.0" fill="#7070f8" stroke="#888"/>
<text x="308.5" y="52.50000000000001" font-size="small" text-anchor="middle" font-weight="bold" fill="#EEE">
No JIT
</text>
<rect x="691.4999999999999" y="36.00000000000001" width="80.0" height="18.0" fill="orange" stroke="#888"/>
<text x="731.4999999999999" y="52.50000000000001" font-size="small" text-anchor="middle" font-weight="bold" fill="#EEE">
YJIT
</text>
<rect x="97.0" y="204.3208553654239" width="35.25" height="293.67914463457606" fill="#7070f8" data-tooltip="1.00x baseline speed (No JIT)"/>
<line x1="97.0" y1="203.2847468429738" x2="132.25" y2="203.2847468429738" stroke="#000"/>
<line x1="97.0" y1="205.35696388787403" x2="132.25" y2="205.35696388787403" stroke="#000"/>
<line x1="114.625" y1="203.2847468429738" x2="114.625" y2="205.35696388787403" stroke="#000"/>
<rect x="132.25" y="147.6923567787396" width="35.25" height="350.3076432212604" fill="orange" data-tooltip="1.19x baseline speed (YJIT)"/>
<line x1="132.25" y1="144.63908055576238" x2="167.5" y2="144.63908055576238" stroke="#000"/>
<line x1="132.25" y1="150.74563300171678" x2="167.5" y2="150.74563300171678" stroke="#000"/>
<line x1="149.875" y1="144.63908055576238" x2="149.875" y2="150.74563300171678" stroke="#000"/>
<line x1="149.875" y1="498.0" x2="149.875" y2="502.79999999999995" stroke="#000"/>
<text x="149.875" y="512.4" fill="#111" font-size="small" font-family="monospace" font-weight="bold" text-anchor="end" transform="rotate(-60, 149.875, 512.4)">
activerecord
</text>
<rect x="202.75" y="204.3208553654239" width="35.25" height="293.67914463457606" fill="#7070f8" data-tooltip="1.00x baseline speed (No JIT)"/>
<line x1="202.75" y1="202.1255914039863" x2="238.0" y2="202.1255914039863" stroke="#000"/>
<line x1="202.75" y1="206.5161193268615" x2="238.0" y2="206.5161193268615" stroke="#000"/>
<line x1="220.375" y1="202.1255914039863" x2="220.375" y2="206.5161193268615" stroke="#000"/>
<rect x="238.0" y="150.44708103874837" width="35.25" height="347.5529189612516" fill="orange" data-tooltip="1.18x baseline speed (YJIT)"/>
<line x1="238.0" y1="144.59976812431768" x2="273.25" y2="144.59976812431768" stroke="#000"/>
<line x1="238.0" y1="156.29439395317908" x2="273.25" y2="156.29439395317908" stroke="#000"/>
<line x1="255.625" y1="144.59976812431768" x2="255.625" y2="156.29439395317908" stroke="#000"/>
<line x1="255.625" y1="498.0" x2="255.625" y2="502.79999999999995" stroke="#000"/>
<text x="255.625" y="512.4" fill="#111" font-size="small" font-family="monospace" font-weight="bold" text-anchor="end" transform="rotate(-60, 255.625, 512.4)">
hexapdf
</text>
<rect x="308.5" y="204.3208553654239" width="35.25" height="293.67914463457606" fill="#7070f8" data-tooltip="1.00x baseline speed (No JIT)"/>
<line x1="308.5" y1="201.63411038033462" x2="343.75" y2="201.63411038033462" stroke="#000"/>
<line x1="308.5" y1="207.0076003505132" x2="343.75" y2="207.0076003505132" stroke="#000"/>
<line x1="326.125" y1="201.63411038033462" x2="326.125" y2="207.0076003505132" stroke="#000"/>
<rect x="343.75" y="100.19999999999999" width="35.25" height="397.79999999999995" fill="orange" data-tooltip="1.35x baseline speed (YJIT)"/>
<line x1="343.75" y1="92.95729217812327" x2="379.0" y2="92.95729217812327" stroke="#000"/>
<line x1="343.75" y1="107.44270782187671" x2="379.0" y2="107.44270782187671" stroke="#000"/>
<line x1="361.375" y1="92.95729217812327" x2="361.375" y2="107.44270782187671" stroke="#000"/>
<line x1="361.375" y1="498.0" x2="361.375" y2="502.79999999999995" stroke="#000"/>
<text x="361.375" y="512.4" fill="#111" font-size="small" font-family="monospace" font-weight="bold" text-anchor="end" transform="rotate(-60, 361.375, 512.4)">
liquid-render
</text>
<rect x="414.25" y="204.3208553654239" width="35.25" height="293.67914463457606" fill="#7070f8" data-tooltip="1.00x baseline speed (No JIT)"/>
<line x1="414.25" y1="203.96089827850673" x2="449.5" y2="203.96089827850673" stroke="#000"/>
<line x1="414.25" y1="204.6808124523411" x2="449.5" y2="204.6808124523411" stroke="#000"/>
<line x1="431.875" y1="203.96089827850673" x2="431.875" y2="204.6808124523411" stroke="#000"/>
<rect x="449.5" y="172.59276090397665" width="35.25" height="325.4072390960233" fill="orange" data-tooltip="1.11x baseline speed (YJIT)"/>
<line x1="449.5" y1="172.00732148562537" x2="484.75" y2="172.00732148562537" stroke="#000"/>
<line x1="449.5" y1="173.1782003223279" x2="484.75" y2="173.1782003223279" stroke="#000"/>
<line x1="467.125" y1="172.00732148562537" x2="467.125" y2="173.1782003223279" stroke="#000"/>
<line x1="467.125" y1="498.0" x2="467.125" y2="502.79999999999995" stroke="#000"/>
<text x="467.125" y="512.4" fill="#111" font-size="small" font-family="monospace" font-weight="bold" text-anchor="end" transform="rotate(-60, 467.125, 512.4)">
mail
</text>
<rect x="520.0" y="204.3208553654239" width="35.25" height="293.67914463457606" fill="#7070f8" data-tooltip="1.00x baseline speed (No JIT)"/>
<line x1="520.0" y1="203.81575714699508" x2="555.25" y2="203.81575714699508" stroke="#000"/>
<line x1="520.0" y1="204.82595358385274" x2="555.25" y2="204.82595358385274" stroke="#000"/>
<line x1="537.625" y1="203.81575714699508" x2="537.625" y2="204.82595358385274" stroke="#000"/>
<rect x="555.25" y="114.52350393180485" width="35.25" height="383.4764960681951" fill="orange" data-tooltip="1.31x baseline speed (YJIT)"/>
<line x1="555.25" y1="113.8032157292054" x2="590.5" y2="113.8032157292054" stroke="#000"/>
<line x1="555.25" y1="115.24379213440429" x2="590.5" y2="115.24379213440429" stroke="#000"/>
<line x1="572.875" y1="113.8032157292054" x2="572.875" y2="115.24379213440429" stroke="#000"/>
<line x1="572.875" y1="498.0" x2="572.875" y2="502.79999999999995" stroke="#000"/>
<text x="572.875" y="512.4" fill="#111" font-size="small" font-family="monospace" font-weight="bold" text-anchor="end" transform="rotate(-60, 572.875, 512.4)">
psych-load
</text>
<rect x="625.7499999999999" y="204.3208553654239" width="35.25" height="293.67914463457606" fill="#7070f8" data-tooltip="1.00x baseline speed (No JIT)"/>
<line x1="625.7499999999999" y1="203.1258219723598" x2="660.9999999999999" y2="203.1258219723598" stroke="#000"/>
<line x1="625.7499999999999" y1="205.51588875848802" x2="660.9999999999999" y2="205.51588875848802" stroke="#000"/>
<line x1="643.3749999999999" y1="203.1258219723598" x2="643.3749999999999" y2="205.51588875848802" stroke="#000"/>
<rect x="660.9999999999999" y="135.0149625315422" width="35.25" height="362.98503746845773" fill="orange" data-tooltip="1.24x baseline speed (YJIT)"/>
<line x1="660.9999999999999" y1="131.5888350529398" x2="696.2499999999999" y2="131.5888350529398" stroke="#000"/>
<line x1="660.9999999999999" y1="138.4410900101446" x2="696.2499999999999" y2="138.4410900101446" stroke="#000"/>
<line x1="678.6249999999999" y1="131.5888350529398" x2="678.6249999999999" y2="138.4410900101446" stroke="#000"/>
<line x1="678.6249999999999" y1="498.0" x2="678.6249999999999" y2="502.79999999999995" stroke="#000"/>
<text x="678.6249999999999" y="512.4" fill="#111" font-size="small" font-family="monospace" font-weight="bold" text-anchor="end" transform="rotate(-60, 678.6249999999999, 512.4)">
railsbench
</text>
<rect x="731.4999999999999" y="204.3208553654239" width="35.25" height="293.67914463457606" fill="#7070f8" data-tooltip="1.00x baseline speed (No JIT)"/>
<line x1="731.4999999999999" y1="183.7190689182156" x2="766.7499999999999" y2="183.7190689182156" stroke="#000"/>
<line x1="731.4999999999999" y1="224.9226418126322" x2="766.7499999999999" y2="224.9226418126322" stroke="#000"/>
<line x1="749.1249999999999" y1="183.7190689182156" x2="749.1249999999999" y2="224.9226418126322" stroke="#000"/>
<rect x="766.7499999999999" y="188.55928240759465" width="35.25" height="309.44071759240535" fill="orange" data-tooltip="1.05x baseline speed (YJIT)"/>
<line x1="766.7499999999999" y1="151.27256469349103" x2="801.9999999999999" y2="151.27256469349103" stroke="#000"/>
<line x1="766.7499999999999" y1="225.84600012169827" x2="801.9999999999999" y2="225.84600012169827" stroke="#000"/>
<line x1="784.3749999999999" y1="151.27256469349103" x2="784.3749999999999" y2="225.84600012169827" stroke="#000"/>
<line x1="784.3749999999999" y1="498.0" x2="784.3749999999999" y2="502.79999999999995" stroke="#000"/>
<text x="784.3749999999999" y="512.4" fill="#111" font-size="small" font-family="monospace" font-weight="bold" text-anchor="end" transform="rotate(-60, 784.3749999999999, 512.4)">
ruby-lsp
</text>
<rect x="837.2499999999999" y="204.3208553654239" width="35.25" height="293.67914463457606" fill="#7070f8" data-tooltip="1.00x baseline speed (No JIT)"/>
<line x1="837.2499999999999" y1="200.2323092705743" x2="872.4999999999999" y2="200.2323092705743" stroke="#000"/>
<line x1="837.2499999999999" y1="208.4094014602735" x2="872.4999999999999" y2="208.4094014602735" stroke="#000"/>
<line x1="854.8749999999999" y1="200.2323092705743" x2="854.8749999999999" y2="208.4094014602735" stroke="#000"/>
<rect x="872.4999999999999" y="201.48176851453994" width="35.25" height="296.51823148546003" fill="orange" data-tooltip="1.01x baseline speed (YJIT)"/>
<line x1="872.4999999999999" y1="193.6119622778717" x2="907.75" y2="193.6119622778717" stroke="#000"/>
<line x1="872.4999999999999" y1="209.3515747512082" x2="907.75" y2="209.3515747512082" stroke="#000"/>
<line x1="890.125" y1="193.6119622778717" x2="890.125" y2="209.3515747512082" stroke="#000"/>
<line x1="890.125" y1="498.0" x2="890.125" y2="502.79999999999995" stroke="#000"/>
<text x="890.125" y="512.4" fill="#111" font-size="small" font-family="monospace" font-weight="bold" text-anchor="end" transform="rotate(-60, 890.125, 512.4)">
sequel
</text>
</svg>