<svg viewBox="0 0 1000 600" xmlns="http://www.w3.org/2000/svg" xmlns:xlink="http://www.w3.org/1999/xlink" width="100%" height="100%">

<rect x="50.0" y="30.0" width="940.0" height="467.99999999999994" stroke="#000" fill="#EEE"/>
<line x1="42.0" y1="497.9999999999999" x2="50.0" y2="497.9999999999999" stroke="#000"/>
<text x="26.000000000000004" y="497.9999999999999" text-anchor="end" font-weight="bold" font-size="small" fill="#EEE">
0.0
</text>
<line x1="42.0" y1="456.0890612035339" x2="50.0" y2="456.0890612035339" stroke="#000"/>
<text x="26.000000000000004" y="456.0890612035339" text-anchor="end" font-weight="bold" font-size="small" fill="#EEE">
0.2
</text>
<line x1="42.0" y1="414.17812240706786" x2="50.0" y2="414.17812240706786" stroke="#000"/>
<text x="26.000000000000004" y="414.17812240706786" text-anchor="end" font-weight="bold" font-size="small" fill="#EEE">
0.4
</text>
<line x1="42.0" y1="372.2671836106019" x2="50.0" y2="372.2671836106019" stroke="#000"/>
<text x="26.000000000000004" y="372.2671836106019" text-anchor="end" font-weight="bold" font-size="small" fill="#EEE">
0.6
</text>
<line x1="42.0" y1="330.35624481413583" x2="50.0" y2="330.35624481413583" stroke="#000"/>
<text x="26.000000000000004" y="330.35624481413583" text-anchor="end" font-weight="bold" font-size="small" fill="#EEE">
0.8
</text>
<line x1="42.0" y1="288.44530601766985" x2="50.0" y2="288.44530601766985" stroke="#000"/>
<text x="26.000000000000004" y="288.44530601766985" text-anchor="end" font-weight="bold" font-size="small" fill="#EEE">
1.0
</text>
<line x1="42.0" y1="246.53436722120387" x2="50.0" y2="246.53436722120387" stroke="#000"/>
<text x="26.000000000000004" y="246.53436722120387" text-anchor="end" font-weight="bold" font-size="small" fill="#EEE">
1.2
</text>
<line x1="42.0" y1="204.62342842473785" x2="50.0" y2="204.62342842473785" stroke="#000"/>
<text x="26.000000000000004" y="204.62342842473785" text-anchor="end" font-weight="bold" font-size="small" fill="#EEE">
1.4
</text>
<line x1="42.0" y1="162.71248962827187" x2="50.0" y2="162.71248962827187" stroke="#000"/>
<text x="26.000000000000004" y="162.71248962827187" text-anchor="end" font-weight="bold" font-size="small" fill="#EEE">
1.6
</text>
<line x1="42.0" y1="120.80155083180587" x2="50.0" y2="120.80155083180587" stroke="#000"/>
<text x="26.000000000000004" y="120.80155083180587" text-anchor="end" font-weight="bold" font-size="small" fill="#EEE">
1.8
</text>
<rect x="197.99999999999997" y="36.00000000000001" width="80.0" height="18.0" fill="#7070f8" stroke="#888"/>
<text x="238.0" y="52.50000000000001" font-size="small" text-anchor="middle" font-weight="bold" fill="#111">
No JIT
</text>
<rect x="479.99999999999994" y="36.00000000000001" width="80.0" height="18.0" fill="orange" stroke="#888"/>
<text x="519.9999999999999" y="52.50000000000001" font-size="small" text-anchor="middle" font-weight="bold" fill="#111">
MJIT3.0
</text>
<rect x="761.9999999999999" y="36.00000000000001" width="80.0" height="18.0" fill="green" stroke="#888"/>
<text x="801.9999999999999" y="52.50000000000001" font-size="small" text-anchor="middle" font-weight="bold" fill="#111">
YJIT
</text>
<rect x="97.0" y="288.44530601766985" width="35.25" height="209.55469398233006" fill="#7070f8" data-tooltip="1.00x baseline speed (No JIT)"/>
<line x1="97.0" y1="284.1738079766318" x2="132.25" y2="284.1738079766318" stroke="#000"/>
<line x1="97.0" y1="292.71680405870796" x2="132.25" y2="292.71680405870796" stroke="#000"/>
<line x1="114.625" y1="284.1738079766318" x2="114.625" y2="292.71680405870796" stroke="#000"/>
<rect x="132.25" y="198.15370627489722" width="35.25" height="299.84629372510267" fill="orange" data-tooltip="1.43x baseline speed (MJIT3.0)"/>
<line x1="132.25" y1="191.9911366510967" x2="167.5" y2="191.9911366510967" stroke="#000"/>
<line x1="132.25" y1="204.31627589869774" x2="167.5" y2="204.31627589869774" stroke="#000"/>
<line x1="149.875" y1="191.9911366510967" x2="149.875" y2="204.31627589869774" stroke="#000"/>
<rect x="167.49999999999997" y="226.1444057016756" width="35.25" height="271.8555942983244" fill="green" data-tooltip="1.30x baseline speed (YJIT)"/>
<line x1="167.49999999999997" y1="217.19604093742052" x2="202.75" y2="217.19604093742052" stroke="#000"/>
<line x1="167.49999999999997" y1="235.09277046593067" x2="202.75" y2="235.09277046593067" stroke="#000"/>
<line x1="185.12499999999997" y1="217.19604093742052" x2="185.12499999999997" y2="235.09277046593067" stroke="#000"/>
<line x1="167.49999999999997" y1="498.0" x2="167.49999999999997" y2="502.79999999999995" stroke="#000"/>
<text x="167.49999999999997" y="512.4" fill="#111" font-size="small" font-family="monospace" font-weight="bold" text-anchor="end" transform="rotate(-60, 167.49999999999997, 512.4)">
binarytrees
</text>
<rect x="238.0" y="288.44530601766985" width="35.25" height="209.55469398233006" fill="#7070f8" data-tooltip="1.00x baseline speed (No JIT)"/>
<line x1="238.0" y1="286.9949400499747" x2="273.25" y2="286.9949400499747" stroke="#000"/>
<line x1="238.0" y1="289.8956719853651" x2="273.25" y2="289.8956719853651" stroke="#000"/>
<line x1="255.625" y1="286.9949400499747" x2="255.625" y2="289.8956719853651" stroke="#000"/>
<rect x="273.25" y="198.09583138297486" width="35.25" height="299.90416861702505" fill="orange" data-tooltip="1.43x baseline speed (MJIT3.0)"/>
<line x1="273.25" y1="196.00983602177214" x2="308.5" y2="196.00983602177214" stroke="#000"/>
<line x1="273.25" y1="200.18182674417758" x2="308.5" y2="200.18182674417758" stroke="#000"/>
<line x1="290.875" y1="196.00983602177214" x2="290.875" y2="200.18182674417758" stroke="#000"/>
<rect x="308.5" y="287.30330029751815" width="35.25" height="210.69669970248177" fill="green" data-tooltip="1.01x baseline speed (YJIT)"/>
<line x1="308.5" y1="285.80647308421146" x2="343.75" y2="285.80647308421146" stroke="#000"/>
<line x1="308.5" y1="288.8001275108249" x2="343.75" y2="288.8001275108249" stroke="#000"/>
<line x1="326.125" y1="285.80647308421146" x2="326.125" y2="288.8001275108249" stroke="#000"/>
<line x1="308.5" y1="498.0" x2="308.5" y2="502.79999999999995" stroke="#000"/>
<text x="308.5" y="512.4" fill="#111" font-size="small" font-family="monospace" font-weight="bold" text-anchor="end" transform="rotate(-60, 308.5, 512.4)">
fannkuchredux
</text>
<rect x="379.0" y="288.44530601766985" width="35.25" height="209.55469398233006" fill="#7070f8" data-tooltip="1.00x baseline speed (No JIT)"/>
<line x1="379.0" y1="285.9733002231359" x2="414.25" y2="285.9733002231359" stroke="#000"/>
<line x1="379.0" y1="290.9173118122039" x2="414.25" y2="290.9173118122039" stroke="#000"/>
<line x1="396.625" y1="285.9733002231359" x2="396.625" y2="290.9173118122039" stroke="#000"/>
<rect x="414.25" y="221.77219237123757" width="35.25" height="276.2278076287623" fill="orange" data-tooltip="1.32x baseline speed (MJIT3.0)"/>
<line x1="414.25" y1="209.37730662810108" x2="449.5" y2="209.37730662810108" stroke="#000"/>
<line x1="414.25" y1="234.16707811437408" x2="449.5" y2="234.16707811437408" stroke="#000"/>
<line x1="431.875" y1="209.37730662810108" x2="431.875" y2="234.16707811437408" stroke="#000"/>
<rect x="449.5" y="209.28992271048668" width="35.25" height="288.71007728951326" fill="green" data-tooltip="1.38x baseline speed (YJIT)"/>
<line x1="449.5" y1="204.14997960072736" x2="484.75" y2="204.14997960072736" stroke="#000"/>
<line x1="449.5" y1="214.429865820246" x2="484.75" y2="214.429865820246" stroke="#000"/>
<line x1="467.125" y1="204.14997960072736" x2="467.125" y2="214.429865820246" stroke="#000"/>
<line x1="449.5" y1="498.0" x2="449.5" y2="502.79999999999995" stroke="#000"/>
<text x="449.5" y="512.4" fill="#111" font-size="small" font-family="monospace" font-weight="bold" text-anchor="end" transform="rotate(-60, 449.5, 512.4)">
lee
</text>
<rect x="519.9999999999999" y="288.44530601766985" width="35.25" height="209.55469398233006" fill="#7070f8" data-tooltip="1.00x baseline speed (No JIT)"/>
<line x1="519.9999999999999" y1="288.29432331642727" x2="555.2499999999999" y2="288.29432331642727" stroke="#000"/>
<line x1="519.9999999999999" y1="288.5962887189125" x2="555.2499999999999" y2="288.5962887189125" stroke="#000"/>
<line x1="537.6249999999999" y1="288.29432331642727" x2="537.6249999999999" y2="288.5962887189125" stroke="#000"/>
<rect x="555.2499999999999" y="100.19999999999999" width="35.25" height="397.79999999999995" fill="orange" data-tooltip="1.90x baseline speed (MJIT3.0)"/>
<line x1="555.2499999999999" y1="95.60458471256158" x2="590.4999999999999" y2="95.60458471256158" stroke="#000"/>
<line x1="555.2499999999999" y1="104.7954152874384" x2="590.4999999999999" y2="104.7954152874384" stroke="#000"/>
<line x1="572.8749999999999" y1="95.60458471256158" x2="572.8749999999999" y2="104.7954152874384" stroke="#000"/>
<rect x="590.4999999999999" y="183.48996994519467" width="35.25" height="314.51003005480527" fill="green" data-tooltip="1.50x baseline speed (YJIT)"/>
<line x1="590.4999999999999" y1="183.219719889161" x2="625.7499999999999" y2="183.219719889161" stroke="#000"/>
<line x1="590.4999999999999" y1="183.7602200012283" x2="625.7499999999999" y2="183.7602200012283" stroke="#000"/>
<line x1="608.1249999999999" y1="183.219719889161" x2="608.1249999999999" y2="183.7602200012283" stroke="#000"/>
<line x1="590.4999999999999" y1="498.0" x2="590.4999999999999" y2="502.79999999999995" stroke="#000"/>
<text x="590.4999999999999" y="512.4" fill="#111" font-size="small" font-family="monospace" font-weight="bold" text-anchor="end" transform="rotate(-60, 590.4999999999999, 512.4)">
nbody
</text>
<rect x="660.9999999999999" y="288.44530601766985" width="35.25" height="209.55469398233006" fill="#7070f8" data-tooltip="1.00x baseline speed (No JIT)"/>
<line x1="660.9999999999999" y1="287.2785631920746" x2="696.2499999999999" y2="287.2785631920746" stroke="#000"/>
<line x1="660.9999999999999" y1="289.61204884326514" x2="696.2499999999999" y2="289.61204884326514" stroke="#000"/>
<line x1="678.6249999999999" y1="287.2785631920746" x2="678.6249999999999" y2="289.61204884326514" stroke="#000"/>
<rect x="696.2499999999999" y="256.84372566196896" width="35.25" height="241.15627433803098" fill="orange" data-tooltip="1.15x baseline speed (MJIT3.0)"/>
<line x1="696.2499999999999" y1="254.07098418588433" x2="731.4999999999999" y2="254.07098418588433" stroke="#000"/>
<line x1="696.2499999999999" y1="259.6164671380536" x2="731.4999999999999" y2="259.6164671380536" stroke="#000"/>
<line x1="713.8749999999999" y1="254.07098418588433" x2="713.8749999999999" y2="259.6164671380536" stroke="#000"/>
<rect x="731.4999999999999" y="184.91208839621845" width="35.25" height="313.08791160378155" fill="green" data-tooltip="1.49x baseline speed (YJIT)"/>
<line x1="731.4999999999999" y1="182.65268383250367" x2="766.7499999999999" y2="182.65268383250367" stroke="#000"/>
<line x1="731.4999999999999" y1="187.1714929599332" x2="766.7499999999999" y2="187.1714929599332" stroke="#000"/>
<line x1="749.1249999999999" y1="182.65268383250367" x2="749.1249999999999" y2="187.1714929599332" stroke="#000"/>
<line x1="731.4999999999999" y1="498.0" x2="731.4999999999999" y2="502.79999999999995" stroke="#000"/>
<text x="731.4999999999999" y="512.4" fill="#111" font-size="small" font-family="monospace" font-weight="bold" text-anchor="end" transform="rotate(-60, 731.4999999999999, 512.4)">
optcarrot
</text>
<rect x="801.9999999999999" y="288.44530601766985" width="35.25" height="209.55469398233006" fill="#7070f8" data-tooltip="1.00x baseline speed (No JIT)"/>
<line x1="801.9999999999999" y1="287.27625227406895" x2="837.2499999999999" y2="287.27625227406895" stroke="#000"/>
<line x1="801.9999999999999" y1="289.6143597612708" x2="837.2499999999999" y2="289.6143597612708" stroke="#000"/>
<line x1="819.6249999999999" y1="287.27625227406895" x2="819.6249999999999" y2="289.6143597612708" stroke="#000"/>
<rect x="837.2499999999999" y="219.40542159924098" width="35.25" height="278.59457840075896" fill="orange" data-tooltip="1.33x baseline speed (MJIT3.0)"/>
<line x1="837.2499999999999" y1="217.3527577499815" x2="872.4999999999999" y2="217.3527577499815" stroke="#000"/>
<line x1="837.2499999999999" y1="221.45808544850044" x2="872.4999999999999" y2="221.45808544850044" stroke="#000"/>
<line x1="854.8749999999999" y1="217.3527577499815" x2="854.8749999999999" y2="221.45808544850044" stroke="#000"/>
<rect x="872.4999999999999" y="108.90665330514598" width="35.25" height="389.09334669485395" fill="green" data-tooltip="1.86x baseline speed (YJIT)"/>
<line x1="872.4999999999999" y1="106.39892517348218" x2="907.75" y2="106.39892517348218" stroke="#000"/>
<line x1="872.4999999999999" y1="111.41438143680979" x2="907.75" y2="111.41438143680979" stroke="#000"/>
<line x1="890.125" y1="106.39892517348218" x2="890.125" y2="111.41438143680979" stroke="#000"/>
<line x1="872.4999999999999" y1="498.0" x2="872.4999999999999" y2="502.79999999999995" stroke="#000"/>
<text x="872.4999999999999" y="512.4" fill="#111" font-size="small" font-family="monospace" font-weight="bold" text-anchor="end" transform="rotate(-60, 872.4999999999999, 512.4)">
rubykon
</text>
</svg>