<svg viewBox="0 0 1000 600" xmlns="http://www.w3.org/2000/svg" xmlns:xlink="http://www.w3.org/1999/xlink" width="100%" height="100%">

<rect x="50.0" y="30.0" width="940.0" height="467.99999999999994" stroke="#000" fill="#EEE"/>
<line x1="42.0" y1="497.9999999999999" x2="50.0" y2="497.9999999999999" stroke="#000"/>
<text x="26.000000000000004" y="497.9999999999999" text-anchor="end" font-weight="bold" font-size="small" fill="#111">
0.0
</text>
<line x1="42.0" y1="418.1342324297263" x2="50.0" y2="418.1342324297263" stroke="#000"/>
<text x="26.000000000000004" y="418.1342324297263" text-anchor="end" font-weight="bold" font-size="small" fill="#111">
0.5
</text>
<line x1="42.0" y1="338.2684648594525" x2="50.0" y2="338.2684648594525" stroke="#000"/>
<text x="26.000000000000004" y="338.2684648594525" text-anchor="end" font-weight="bold" font-size="small" fill="#111">
1.0
</text>
<line x1="42.0" y1="258.4026972891788" x2="50.0" y2="258.4026972891788" stroke="#000"/>
<text x="26.000000000000004" y="258.4026972891788" text-anchor="end" font-weight="bold" font-size="small" fill="#111">
1.5
</text>
<line x1="42.0" y1="178.5369297189051" x2="50.0" y2="178.5369297189051" stroke="#000"/>
<text x="26.000000000000004" y="178.5369297189051" text-anchor="end" font-weight="bold" font-size="small" fill="#111">
2.0
</text>
<rect x="268.5" y="36.00000000000001" width="80.0" height="18.0" fill="#7070f8" stroke="#888"/>
<text x="308.5" y="52.50000000000001" font-size="small" text-anchor="middle" font-weight="bold" fill="#EEE">
No JIT
</text>
<rect x="691.4999999999999" y="36.00000000000001" width="80.0" height="18.0" fill="orange" stroke="#888"/>
<text x="731.4999999999999" y="52.50000000000001" font-size="small" text-anchor="middle" font-weight="bold" fill="#EEE">
YJIT
</text>
<rect x="97.0" y="338.2684648594525" width="28.2" height="159.73153514054744" fill="#7070f8" data-tooltip="1.00x baseline speed (No JIT)"/>
<line x1="97.0" y1="338.18969016386865" x2="125.2" y2="338.18969016386865" stroke="#000"/>
<line x1="97.0" y1="338.34723955503637" x2="125.2" y2="338.34723955503637" stroke="#000"/>
<line x1="111.10000000000001" y1="338.18969016386865" x2="111.10000000000001" y2="338.34723955503637" stroke="#000"/>
<rect x="125.2" y="179.35967594616565" width="28.2" height="318.64032405383426" fill="orange" data-tooltip="1.99x baseline speed (YJIT)"/>
<line x1="125.2" y1="179.11357132039115" x2="153.4" y2="179.11357132039115" stroke="#000"/>
<line x1="125.2" y1="179.6057805719402" x2="153.4" y2="179.6057805719402" stroke="#000"/>
<line x1="139.3" y1="179.11357132039115" x2="139.3" y2="179.6057805719402" stroke="#000"/>
<line x1="139.3" y1="498.0" x2="139.3" y2="502.79999999999995" stroke="#000"/>
<text x="139.3" y="512.4" fill="#111" font-size="small" font-family="monospace" font-weight="bold" text-anchor="end" transform="rotate(-60, 139.3, 512.4)">
binarytrees
</text>
<rect x="181.6" y="338.2684648594525" width="28.2" height="159.73153514054744" fill="#7070f8" data-tooltip="1.00x baseline speed (No JIT)"/>
<line x1="181.6" y1="338.21363496822266" x2="209.79999999999998" y2="338.21363496822266" stroke="#000"/>
<line x1="181.6" y1="338.32329475068235" x2="209.79999999999998" y2="338.32329475068235" stroke="#000"/>
<line x1="195.7" y1="338.21363496822266" x2="195.7" y2="338.32329475068235" stroke="#000"/>
<rect x="209.79999999999998" y="250.31524943237207" width="28.2" height="247.68475056762787" fill="orange" data-tooltip="1.55x baseline speed (YJIT)"/>
<line x1="209.79999999999998" y1="250.14983993943557" x2="238.0" y2="250.14983993943557" stroke="#000"/>
<line x1="209.79999999999998" y1="250.48065892530857" x2="238.0" y2="250.48065892530857" stroke="#000"/>
<line x1="223.89999999999998" y1="250.14983993943557" x2="223.89999999999998" y2="250.48065892530857" stroke="#000"/>
<line x1="223.89999999999998" y1="498.0" x2="223.89999999999998" y2="502.79999999999995" stroke="#000"/>
<text x="223.89999999999998" y="512.4" fill="#111" font-size="small" font-family="monospace" font-weight="bold" text-anchor="end" transform="rotate(-60, 223.89999999999998, 512.4)">
chunky_png
</text>
<rect x="266.2" y="338.2684648594525" width="28.2" height="159.73153514054744" fill="#7070f8" data-tooltip="1.00x baseline speed (No JIT)"/>
<line x1="266.2" y1="336.97680985586504" x2="294.4" y2="336.97680985586504" stroke="#000"/>
<line x1="266.2" y1="339.5601198630399" x2="294.4" y2="339.5601198630399" stroke="#000"/>
<line x1="280.3" y1="336.97680985586504" x2="280.3" y2="339.5601198630399" stroke="#000"/>
<rect x="294.4" y="309.9330368599538" width="28.2" height="188.06696314004614" fill="orange" data-tooltip="1.18x baseline speed (YJIT)"/>
<line x1="294.4" y1="307.51862650770215" x2="322.6" y2="307.51862650770215" stroke="#000"/>
<line x1="294.4" y1="312.3474472122055" x2="322.6" y2="312.3474472122055" stroke="#000"/>
<line x1="308.5" y1="307.51862650770215" x2="308.5" y2="312.3474472122055" stroke="#000"/>
<line x1="308.5" y1="498.0" x2="308.5" y2="502.79999999999995" stroke="#000"/>
<text x="308.5" y="512.4" fill="#111" font-size="small" font-family="monospace" font-weight="bold" text-anchor="end" transform="rotate(-60, 308.5, 512.4)">
erubi
</text>
<rect x="350.8" y="338.2684648594525" width="28.2" height="159.73153514054744" fill="#7070f8" data-tooltip="1.00x baseline speed (No JIT)"/>
<line x1="350.8" y1="334.71563049011934" x2="379.0" y2="334.71563049011934" stroke="#000"/>
<line x1="350.8" y1="341.8212992287857" x2="379.0" y2="341.8212992287857" stroke="#000"/>
<line x1="364.9" y1="334.71563049011934" x2="364.9" y2="341.8212992287857" stroke="#000"/>
<rect x="379.0" y="237.91059919369417" width="28.2" height="260.0894008063058" fill="orange" data-tooltip="1.63x baseline speed (YJIT)"/>
<line x1="379.0" y1="225.3053387047087" x2="407.2" y2="225.3053387047087" stroke="#000"/>
<line x1="379.0" y1="250.51585968267963" x2="407.2" y2="250.51585968267963" stroke="#000"/>
<line x1="393.1" y1="225.3053387047087" x2="393.1" y2="250.51585968267963" stroke="#000"/>
<line x1="393.1" y1="498.0" x2="393.1" y2="502.79999999999995" stroke="#000"/>
<text x="393.1" y="512.4" fill="#111" font-size="small" font-family="monospace" font-weight="bold" text-anchor="end" transform="rotate(-60, 393.1, 512.4)">
erubi_rails
</text>
<rect x="435.40000000000003" y="338.2684648594525" width="28.2" height="159.73153514054744" fill="#7070f8" data-tooltip="1.00x baseline speed (No JIT)"/>
<line x1="435.40000000000003" y1="337.52201294334196" x2="463.6" y2="337.52201294334196" stroke="#000"/>
<line x1="435.40000000000003" y1="339.01491677556305" x2="463.6" y2="339.01491677556305" stroke="#000"/>
<line x1="449.5" y1="337.52201294334196" x2="449.5" y2="339.01491677556305" stroke="#000"/>
<rect x="463.6" y="337.4489986079829" width="28.2" height="160.55100139201707" fill="orange" data-tooltip="1.01x baseline speed (YJIT)"/>
<line x1="463.6" y1="336.38102286700615" x2="491.8" y2="336.38102286700615" stroke="#000"/>
<line x1="463.6" y1="338.51697434895965" x2="491.8" y2="338.51697434895965" stroke="#000"/>
<line x1="477.7" y1="336.38102286700615" x2="477.7" y2="338.51697434895965" stroke="#000"/>
<line x1="477.7" y1="498.0" x2="477.7" y2="502.79999999999995" stroke="#000"/>
<text x="477.7" y="512.4" fill="#111" font-size="small" font-family="monospace" font-weight="bold" text-anchor="end" transform="rotate(-60, 477.7, 512.4)">
etanni
</text>
<rect x="520.0" y="338.2684648594525" width="28.2" height="159.73153514054744" fill="#7070f8" data-tooltip="1.00x baseline speed (No JIT)"/>
<line x1="520.0" y1="337.89635240876004" x2="548.2" y2="337.89635240876004" stroke="#000"/>
<line x1="520.0" y1="338.640577310145" x2="548.2" y2="338.640577310145" stroke="#000"/>
<line x1="534.1" y1="337.89635240876004" x2="534.1" y2="338.640577310145" stroke="#000"/>
<rect x="548.2" y="100.19999999999999" width="28.2" height="397.79999999999995" fill="orange" data-tooltip="2.49x baseline speed (YJIT)"/>
<line x1="548.2" y1="99.23469470257359" x2="576.4" y2="99.23469470257359" stroke="#000"/>
<line x1="548.2" y1="101.16530529742639" x2="576.4" y2="101.16530529742639" stroke="#000"/>
<line x1="562.3000000000001" y1="99.23469470257359" x2="562.3000000000001" y2="101.16530529742639" stroke="#000"/>
<line x1="562.3000000000001" y1="498.0" x2="562.3000000000001" y2="502.79999999999995" stroke="#000"/>
<text x="562.3000000000001" y="512.4" fill="#111" font-size="small" font-family="monospace" font-weight="bold" text-anchor="end" transform="rotate(-60, 562.3000000000001, 512.4)">
fannkuchredux
</text>
<rect x="604.5999999999999" y="338.2684648594525" width="28.2" height="159.73153514054744" fill="#7070f8" data-tooltip="1.00x baseline speed (No JIT)"/>
<line x1="604.5999999999999" y1="337.9317160859749" x2="632.8" y2="337.9317160859749" stroke="#000"/>
<line x1="604.5999999999999" y1="338.60521363293003" x2="632.8" y2="338.60521363293003" stroke="#000"/>
<line x1="618.6999999999999" y1="337.9317160859749" x2="618.6999999999999" y2="338.60521363293003" stroke="#000"/>
<rect x="632.8" y="273.3715536404314" width="28.2" height="224.62844635956856" fill="orange" data-tooltip="1.41x baseline speed (YJIT)"/>
<line x1="632.8" y1="272.82944456587217" x2="660.9999999999999" y2="272.82944456587217" stroke="#000"/>
<line x1="632.8" y1="273.9136627149906" x2="660.9999999999999" y2="273.9136627149906" stroke="#000"/>
<line x1="646.8999999999999" y1="272.82944456587217" x2="646.8999999999999" y2="273.9136627149906" stroke="#000"/>
<line x1="646.8999999999999" y1="498.0" x2="646.8999999999999" y2="502.79999999999995" stroke="#000"/>
<text x="646.8999999999999" y="512.4" fill="#111" font-size="small" font-family="monospace" font-weight="bold" text-anchor="end" transform="rotate(-60, 646.8999999999999, 512.4)">
lee
</text>
<rect x="689.1999999999999" y="338.2684648594525" width="28.2" height="159.73153514054744" fill="#7070f8" data-tooltip="1.00x baseline speed (No JIT)"/>
<line x1="689.1999999999999" y1="338.1585340130833" x2="717.4" y2="338.1585340130833" stroke="#000"/>
<line x1="689.1999999999999" y1="338.37839570582173" x2="717.4" y2="338.37839570582173" stroke="#000"/>
<line x1="703.3" y1="338.1585340130833" x2="703.3" y2="338.37839570582173" stroke="#000"/>
<rect x="717.4" y="212.4381536950727" width="28.2" height="285.56184630492726" fill="orange" data-tooltip="1.79x baseline speed (YJIT)"/>
<line x1="717.4" y1="212.1690745060647" x2="745.5999999999999" y2="212.1690745060647" stroke="#000"/>
<line x1="717.4" y1="212.70723288408072" x2="745.5999999999999" y2="212.70723288408072" stroke="#000"/>
<line x1="731.4999999999999" y1="212.1690745060647" x2="731.4999999999999" y2="212.70723288408072" stroke="#000"/>
<line x1="731.4999999999999" y1="498.0" x2="731.4999999999999" y2="502.79999999999995" stroke="#000"/>
<text x="731.4999999999999" y="512.4" fill="#111" font-size="small" font-family="monospace" font-weight="bold" text-anchor="end" transform="rotate(-60, 731.4999999999999, 512.4)">
nbody
</text>
<rect x="773.8" y="338.2684648594525" width="28.2" height="159.73153514054744" fill="#7070f8" data-tooltip="1.00x baseline speed (No JIT)"/>
<line x1="773.8" y1="337.3769866470317" x2="801.9999999999999" y2="337.3769866470317" stroke="#000"/>
<line x1="773.8" y1="339.15994307187333" x2="801.9999999999999" y2="339.15994307187333" stroke="#000"/>
<line x1="787.9" y1="337.3769866470317" x2="787.9" y2="339.15994307187333" stroke="#000"/>
<rect x="801.9999999999999" y="268.64552108287756" width="28.2" height="229.35447891712238" fill="orange" data-tooltip="1.44x baseline speed (YJIT)"/>
<line x1="801.9999999999999" y1="267.21493424563187" x2="830.1999999999999" y2="267.21493424563187" stroke="#000"/>
<line x1="801.9999999999999" y1="270.07610792012326" x2="830.1999999999999" y2="270.07610792012326" stroke="#000"/>
<line x1="816.0999999999999" y1="267.21493424563187" x2="816.0999999999999" y2="270.07610792012326" stroke="#000"/>
<line x1="816.0999999999999" y1="498.0" x2="816.0999999999999" y2="502.79999999999995" stroke="#000"/>
<text x="816.0999999999999" y="512.4" fill="#111" font-size="small" font-family="monospace" font-weight="bold" text-anchor="end" transform="rotate(-60, 816.0999999999999, 512.4)">
optcarrot
</text>
<rect x="858.4" y="338.2684648594525" width="28.2" height="159.73153514054744" fill="#7070f8" data-tooltip="1.00x baseline speed (No JIT)"/>
<line x1="858.4" y1="337.5697741183959" x2="886.5999999999999" y2="337.5697741183959" stroke="#000"/>
<line x1="858.4" y1="338.9671556005091" x2="886.5999999999999" y2="338.9671556005091" stroke="#000"/>
<line x1="872.4999999999999" y1="337.5697741183959" x2="872.4999999999999" y2="338.9671556005091" stroke="#000"/>
<rect x="886.5999999999999" y="192.47901224381698" width="28.2" height="305.520987756183" fill="orange" data-tooltip="1.91x baseline speed (YJIT)"/>
<line x1="886.5999999999999" y1="190.56292549579967" x2="914.8" y2="190.56292549579967" stroke="#000"/>
<line x1="886.5999999999999" y1="194.39509899183426" x2="914.8" y2="194.39509899183426" stroke="#000"/>
<line x1="900.6999999999999" y1="190.56292549579967" x2="900.6999999999999" y2="194.39509899183426" stroke="#000"/>
<line x1="900.6999999999999" y1="498.0" x2="900.6999999999999" y2="502.79999999999995" stroke="#000"/>
<text x="900.6999999999999" y="512.4" fill="#111" font-size="small" font-family="monospace" font-weight="bold" text-anchor="end" transform="rotate(-60, 900.6999999999999, 512.4)">
rubykon
</text>
</svg>