<svg viewBox="0 0 1000 600" xmlns="http://www.w3.org/2000/svg" xmlns:xlink="http://www.w3.org/1999/xlink" width="100%" height="100%">

<rect x="50.0" y="30.0" width="940.0" height="467.99999999999994" stroke="#000" fill="#EEE"/>
<line x1="42.0" y1="497.9999999999999" x2="50.0" y2="497.9999999999999" stroke="#000"/>
<text x="26.000000000000004" y="497.9999999999999" text-anchor="end" font-weight="bold" font-size="small" fill="#111">
0.0
</text>
<line x1="42.0" y1="439.6719545229832" x2="50.0" y2="439.6719545229832" stroke="#000"/>
<text x="26.000000000000004" y="439.6719545229832" text-anchor="end" font-weight="bold" font-size="small" fill="#111">
1.0
</text>
<line x1="42.0" y1="381.3439090459664" x2="50.0" y2="381.3439090459664" stroke="#000"/>
<text x="26.000000000000004" y="381.3439090459664" text-anchor="end" font-weight="bold" font-size="small" fill="#111">
2.0
</text>
<line x1="42.0" y1="323.01586356894967" x2="50.0" y2="323.01586356894967" stroke="#000"/>
<text x="26.000000000000004" y="323.01586356894967" text-anchor="end" font-weight="bold" font-size="small" fill="#111">
3.0
</text>
<line x1="42.0" y1="264.6878180919329" x2="50.0" y2="264.6878180919329" stroke="#000"/>
<text x="26.000000000000004" y="264.6878180919329" text-anchor="end" font-weight="bold" font-size="small" fill="#111">
4.0
</text>
<line x1="42.0" y1="206.35977261491615" x2="50.0" y2="206.35977261491615" stroke="#000"/>
<text x="26.000000000000004" y="206.35977261491615" text-anchor="end" font-weight="bold" font-size="small" fill="#111">
5.0
</text>
<line x1="42.0" y1="148.0317271378994" x2="50.0" y2="148.0317271378994" stroke="#000"/>
<text x="26.000000000000004" y="148.0317271378994" text-anchor="end" font-weight="bold" font-size="small" fill="#111">
6.0
</text>
<rect x="268.5" y="36.00000000000001" width="80.0" height="18.0" fill="#7070f8" stroke="#888"/>
<text x="308.5" y="52.50000000000001" font-size="small" text-anchor="middle" font-weight="bold" fill="#EEE">
No JIT
</text>
<rect x="691.4999999999999" y="36.00000000000001" width="80.0" height="18.0" fill="orange" stroke="#888"/>
<text x="731.4999999999999" y="52.50000000000001" font-size="small" text-anchor="middle" font-weight="bold" fill="#EEE">
YJIT
</text>
<rect x="97.0" y="439.6719545229832" width="28.2" height="58.32804547701676" fill="#7070f8" data-tooltip="1.00x baseline speed (No JIT)"/>
<line x1="97.0" y1="439.57082340980094" x2="125.2" y2="439.57082340980094" stroke="#000"/>
<line x1="97.0" y1="439.77308563616543" x2="125.2" y2="439.77308563616543" stroke="#000"/>
<line x1="111.10000000000001" y1="439.57082340980094" x2="111.10000000000001" y2="439.77308563616543" stroke="#000"/>
<rect x="125.2" y="302.9567691673024" width="28.2" height="195.04323083269747" fill="orange" data-tooltip="3.34x baseline speed (YJIT)"/>
<line x1="125.2" y1="302.6113765628606" x2="153.4" y2="302.6113765628606" stroke="#000"/>
<line x1="125.2" y1="303.30216177174424" x2="153.4" y2="303.30216177174424" stroke="#000"/>
<line x1="139.3" y1="302.6113765628606" x2="139.3" y2="303.30216177174424" stroke="#000"/>
<line x1="139.3" y1="498.0" x2="139.3" y2="502.79999999999995" stroke="#000"/>
<text x="139.3" y="512.4" fill="#111" font-size="small" font-family="monospace" font-weight="bold" text-anchor="end" transform="rotate(-60, 139.3, 512.4)">
30k_ifelse
</text>
<rect x="181.6" y="439.6719545229832" width="28.2" height="58.32804547701676" fill="#7070f8" data-tooltip="1.00x baseline speed (No JIT)"/>
<line x1="181.6" y1="439.5775890354611" x2="209.79999999999998" y2="439.5775890354611" stroke="#000"/>
<line x1="181.6" y1="439.76632001050535" x2="209.79999999999998" y2="439.76632001050535" stroke="#000"/>
<line x1="195.7" y1="439.5775890354611" x2="195.7" y2="439.76632001050535" stroke="#000"/>
<rect x="209.79999999999998" y="236.32260134716074" width="28.2" height="261.6773986528392" fill="orange" data-tooltip="4.49x baseline speed (YJIT)"/>
<line x1="209.79999999999998" y1="235.8686891108494" x2="238.0" y2="235.8686891108494" stroke="#000"/>
<line x1="209.79999999999998" y1="236.77651358347205" x2="238.0" y2="236.77651358347205" stroke="#000"/>
<line x1="223.89999999999998" y1="235.8686891108494" x2="223.89999999999998" y2="236.77651358347205" stroke="#000"/>
<line x1="223.89999999999998" y1="498.0" x2="223.89999999999998" y2="502.79999999999995" stroke="#000"/>
<text x="223.89999999999998" y="512.4" fill="#111" font-size="small" font-family="monospace" font-weight="bold" text-anchor="end" transform="rotate(-60, 223.89999999999998, 512.4)">
30k_methods
</text>
<rect x="266.2" y="439.6719545229832" width="28.2" height="58.32804547701676" fill="#7070f8" data-tooltip="1.00x baseline speed (No JIT)"/>
<line x1="266.2" y1="439.6225935298392" x2="294.4" y2="439.6225935298392" stroke="#000"/>
<line x1="266.2" y1="439.72131551612716" x2="294.4" y2="439.72131551612716" stroke="#000"/>
<line x1="280.3" y1="439.6225935298392" x2="280.3" y2="439.72131551612716" stroke="#000"/>
<rect x="294.4" y="347.1996263179831" width="28.2" height="150.80037368201684" fill="orange" data-tooltip="2.59x baseline speed (YJIT)"/>
<line x1="294.4" y1="347.0714379251849" x2="322.6" y2="347.0714379251849" stroke="#000"/>
<line x1="294.4" y1="347.3278147107812" x2="322.6" y2="347.3278147107812" stroke="#000"/>
<line x1="308.5" y1="347.0714379251849" x2="308.5" y2="347.3278147107812" stroke="#000"/>
<line x1="308.5" y1="498.0" x2="308.5" y2="502.79999999999995" stroke="#000"/>
<text x="308.5" y="512.4" fill="#111" font-size="small" font-family="monospace" font-weight="bold" text-anchor="end" transform="rotate(-60, 308.5, 512.4)">
cfunc_itself
</text>
<rect x="350.8" y="439.6719545229832" width="28.2" height="58.32804547701676" fill="#7070f8" data-tooltip="1.00x baseline speed (No JIT)"/>
<line x1="350.8" y1="438.911782428139" x2="379.0" y2="438.911782428139" stroke="#000"/>
<line x1="350.8" y1="440.43212661782735" x2="379.0" y2="440.43212661782735" stroke="#000"/>
<line x1="364.9" y1="438.911782428139" x2="364.9" y2="440.43212661782735" stroke="#000"/>
<rect x="379.0" y="320.1507148104913" width="28.2" height="177.84928518950858" fill="orange" data-tooltip="3.05x baseline speed (YJIT)"/>
<line x1="379.0" y1="317.8328362035617" x2="407.2" y2="317.8328362035617" stroke="#000"/>
<line x1="379.0" y1="322.4685934174209" x2="407.2" y2="322.4685934174209" stroke="#000"/>
<line x1="393.1" y1="317.8328362035617" x2="393.1" y2="322.4685934174209" stroke="#000"/>
<line x1="393.1" y1="498.0" x2="393.1" y2="502.79999999999995" stroke="#000"/>
<text x="393.1" y="512.4" fill="#111" font-size="small" font-family="monospace" font-weight="bold" text-anchor="end" transform="rotate(-60, 393.1, 512.4)">
fib
</text>
<rect x="435.40000000000003" y="439.6719545229832" width="28.2" height="58.32804547701676" fill="#7070f8" data-tooltip="1.00x baseline speed (No JIT)"/>
<line x1="435.40000000000003" y1="439.2379830274861" x2="463.6" y2="439.2379830274861" stroke="#000"/>
<line x1="435.40000000000003" y1="440.10592601848026" x2="463.6" y2="440.10592601848026" stroke="#000"/>
<line x1="449.5" y1="439.2379830274861" x2="449.5" y2="440.10592601848026" stroke="#000"/>
<rect x="463.6" y="376.60014509589365" width="28.2" height="121.39985490410629" fill="orange" data-tooltip="2.08x baseline speed (YJIT)"/>
<line x1="463.6" y1="375.69685932214566" x2="491.8" y2="375.69685932214566" stroke="#000"/>
<line x1="463.6" y1="377.50343086964165" x2="491.8" y2="377.50343086964165" stroke="#000"/>
<line x1="477.7" y1="375.69685932214566" x2="477.7" y2="377.50343086964165" stroke="#000"/>
<line x1="477.7" y1="498.0" x2="477.7" y2="502.79999999999995" stroke="#000"/>
<text x="477.7" y="512.4" fill="#111" font-size="small" font-family="monospace" font-weight="bold" text-anchor="end" transform="rotate(-60, 477.7, 512.4)">
getivar
</text>
<rect x="520.0" y="439.6719545229832" width="28.2" height="58.32804547701676" fill="#7070f8" data-tooltip="1.00x baseline speed (No JIT)"/>
<line x1="520.0" y1="439.40083769830915" x2="548.2" y2="439.40083769830915" stroke="#000"/>
<line x1="520.0" y1="439.9430713476572" x2="548.2" y2="439.9430713476572" stroke="#000"/>
<line x1="534.1" y1="439.40083769830915" x2="534.1" y2="439.9430713476572" stroke="#000"/>
<rect x="548.2" y="286.566743440699" width="28.2" height="211.43325655930096" fill="orange" data-tooltip="3.62x baseline speed (YJIT)"/>
<line x1="548.2" y1="285.5835964602208" x2="576.4" y2="285.5835964602208" stroke="#000"/>
<line x1="548.2" y1="287.54989042117717" x2="576.4" y2="287.54989042117717" stroke="#000"/>
<line x1="562.3000000000001" y1="285.5835964602208" x2="562.3000000000001" y2="287.54989042117717" stroke="#000"/>
<line x1="562.3000000000001" y1="498.0" x2="562.3000000000001" y2="502.79999999999995" stroke="#000"/>
<text x="562.3000000000001" y="512.4" fill="#111" font-size="small" font-family="monospace" font-weight="bold" text-anchor="end" transform="rotate(-60, 562.3000000000001, 512.4)">
keyword_args
</text>
<rect x="604.5999999999999" y="439.6719545229832" width="28.2" height="58.32804547701676" fill="#7070f8" data-tooltip="1.00x baseline speed (No JIT)"/>
<line x1="604.5999999999999" y1="439.03002697215373" x2="632.8" y2="439.03002697215373" stroke="#000"/>
<line x1="604.5999999999999" y1="440.3138820738127" x2="632.8" y2="440.3138820738127" stroke="#000"/>
<line x1="618.6999999999999" y1="439.03002697215373" x2="618.6999999999999" y2="440.3138820738127" stroke="#000"/>
<rect x="632.8" y="100.19999999999999" width="28.2" height="397.79999999999995" fill="orange" data-tooltip="6.82x baseline speed (YJIT)"/>
<line x1="632.8" y1="95.0363609932897" x2="660.9999999999999" y2="95.0363609932897" stroke="#000"/>
<line x1="632.8" y1="105.36363900671027" x2="660.9999999999999" y2="105.36363900671027" stroke="#000"/>
<line x1="646.8999999999999" y1="95.0363609932897" x2="646.8999999999999" y2="105.36363900671027" stroke="#000"/>
<line x1="646.8999999999999" y1="498.0" x2="646.8999999999999" y2="502.79999999999995" stroke="#000"/>
<text x="646.8999999999999" y="512.4" fill="#111" font-size="small" font-family="monospace" font-weight="bold" text-anchor="end" transform="rotate(-60, 646.8999999999999, 512.4)">
respond_to
</text>
<rect x="689.1999999999999" y="439.6719545229832" width="28.2" height="58.32804547701676" fill="#7070f8" data-tooltip="1.00x baseline speed (No JIT)"/>
<line x1="689.1999999999999" y1="439.64953026572374" x2="717.4" y2="439.64953026572374" stroke="#000"/>
<line x1="689.1999999999999" y1="439.6943787802427" x2="717.4" y2="439.6943787802427" stroke="#000"/>
<line x1="703.3" y1="439.64953026572374" x2="703.3" y2="439.6943787802427" stroke="#000"/>
<rect x="717.4" y="286.00704073943973" width="28.2" height="211.9929592605602" fill="orange" data-tooltip="3.63x baseline speed (YJIT)"/>
<line x1="717.4" y1="285.9219933919974" x2="745.5999999999999" y2="285.9219933919974" stroke="#000"/>
<line x1="717.4" y1="286.09208808688214" x2="745.5999999999999" y2="286.09208808688214" stroke="#000"/>
<line x1="731.4999999999999" y1="285.9219933919974" x2="731.4999999999999" y2="286.09208808688214" stroke="#000"/>
<line x1="731.4999999999999" y1="498.0" x2="731.4999999999999" y2="502.79999999999995" stroke="#000"/>
<text x="731.4999999999999" y="512.4" fill="#111" font-size="small" font-family="monospace" font-weight="bold" text-anchor="end" transform="rotate(-60, 731.4999999999999, 512.4)">
setivar
</text>
<rect x="773.8" y="439.6719545229832" width="28.2" height="58.32804547701676" fill="#7070f8" data-tooltip="1.00x baseline speed (No JIT)"/>
<line x1="773.8" y1="439.3978406723087" x2="801.9999999999999" y2="439.3978406723087" stroke="#000"/>
<line x1="773.8" y1="439.9460683736577" x2="801.9999999999999" y2="439.9460683736577" stroke="#000"/>
<line x1="787.9" y1="439.3978406723087" x2="787.9" y2="439.9460683736577" stroke="#000"/>
<rect x="801.9999999999999" y="365.0327921369781" width="28.2" height="132.9672078630218" fill="orange" data-tooltip="2.28x baseline speed (YJIT)"/>
<line x1="801.9999999999999" y1="363.63055992664226" x2="830.1999999999999" y2="363.63055992664226" stroke="#000"/>
<line x1="801.9999999999999" y1="366.435024347314" x2="830.1999999999999" y2="366.435024347314" stroke="#000"/>
<line x1="816.0999999999999" y1="363.63055992664226" x2="816.0999999999999" y2="366.435024347314" stroke="#000"/>
<line x1="816.0999999999999" y1="498.0" x2="816.0999999999999" y2="502.79999999999995" stroke="#000"/>
<text x="816.0999999999999" y="512.4" fill="#111" font-size="small" font-family="monospace" font-weight="bold" text-anchor="end" transform="rotate(-60, 816.0999999999999, 512.4)">
setivar_object
</text>
<rect x="858.4" y="439.6719545229832" width="28.2" height="58.32804547701676" fill="#7070f8" data-tooltip="1.00x baseline speed (No JIT)"/>
<line x1="858.4" y1="439.37349932160237" x2="886.5999999999999" y2="439.37349932160237" stroke="#000"/>
<line x1="858.4" y1="439.970409724364" x2="886.5999999999999" y2="439.970409724364" stroke="#000"/>
<line x1="872.4999999999999" y1="439.37349932160237" x2="872.4999999999999" y2="439.970409724364" stroke="#000"/>
<rect x="886.5999999999999" y="407.4189937135549" width="28.2" height="90.58100628644509" fill="orange" data-tooltip="1.55x baseline speed (YJIT)"/>
<line x1="886.5999999999999" y1="406.6170144024319" x2="914.8" y2="406.6170144024319" stroke="#000"/>
<line x1="886.5999999999999" y1="408.22097302467796" x2="914.8" y2="408.22097302467796" stroke="#000"/>
<line x1="900.6999999999999" y1="406.6170144024319" x2="900.6999999999999" y2="408.22097302467796" stroke="#000"/>
<line x1="900.6999999999999" y1="498.0" x2="900.6999999999999" y2="502.79999999999995" stroke="#000"/>
<text x="900.6999999999999" y="512.4" fill="#111" font-size="small" font-family="monospace" font-weight="bold" text-anchor="end" transform="rotate(-60, 900.6999999999999, 512.4)">
str_concat
</text>
</svg>