<svg viewBox="0 0 1000 600" xmlns="http://www.w3.org/2000/svg" xmlns:xlink="http://www.w3.org/1999/xlink" width="100%" height="100%">

<rect x="50.0" y="30.0" width="940.0" height="467.99999999999994" stroke="#000" fill="#EEE"/>
<line x1="42.0" y1="497.9999999999999" x2="50.0" y2="497.9999999999999" stroke="#000"/>
<text x="26.000000000000004" y="497.9999999999999" text-anchor="end" font-weight="bold" font-size="small" fill="#111">
0.0
</text>
<line x1="42.0" y1="417.6920601041256" x2="50.0" y2="417.6920601041256" stroke="#000"/>
<text x="26.000000000000004" y="417.6920601041256" text-anchor="end" font-weight="bold" font-size="small" fill="#111">
2.0
</text>
<line x1="42.0" y1="337.38412020825115" x2="50.0" y2="337.38412020825115" stroke="#000"/>
<text x="26.000000000000004" y="337.38412020825115" text-anchor="end" font-weight="bold" font-size="small" fill="#111">
4.0
</text>
<line x1="42.0" y1="257.0761803123768" x2="50.0" y2="257.0761803123768" stroke="#000"/>
<text x="26.000000000000004" y="257.0761803123768" text-anchor="end" font-weight="bold" font-size="small" fill="#111">
6.0
</text>
<line x1="42.0" y1="176.7682404165024" x2="50.0" y2="176.7682404165024" stroke="#000"/>
<text x="26.000000000000004" y="176.7682404165024" text-anchor="end" font-weight="bold" font-size="small" fill="#111">
8.0
</text>
<rect x="268.5" y="36.00000000000001" width="80.0" height="18.0" fill="#7070f8" stroke="#888"/>
<text x="308.5" y="52.50000000000001" font-size="small" text-anchor="middle" font-weight="bold" fill="#EEE">
No JIT
</text>
<rect x="691.4999999999999" y="36.00000000000001" width="80.0" height="18.0" fill="orange" stroke="#888"/>
<text x="731.4999999999999" y="52.50000000000001" font-size="small" text-anchor="middle" font-weight="bold" fill="#EEE">
YJIT
</text>
<rect x="97.0" y="457.8460300520628" width="10.071428571428571" height="40.1539699479372" fill="#7070f8" data-tooltip="1.00x baseline speed (No JIT)"/>
<line x1="97.0" y1="457.6973851724553" x2="107.07142857142857" y2="457.6973851724553" stroke="#000"/>
<line x1="97.0" y1="457.9946749316703" x2="107.07142857142857" y2="457.9946749316703" stroke="#000"/>
<line x1="102.03571428571429" y1="457.6973851724553" x2="102.03571428571429" y2="457.9946749316703" stroke="#000"/>
<rect x="107.07142857142857" y="433.40629048863116" width="10.071428571428571" height="64.5937095113688" fill="orange" data-tooltip="1.61x baseline speed (YJIT)"/>
<line x1="107.07142857142857" y1="432.957745734116" x2="117.14285714285714" y2="432.957745734116" stroke="#000"/>
<line x1="107.07142857142857" y1="433.85483524314634" x2="117.14285714285714" y2="433.85483524314634" stroke="#000"/>
<line x1="112.10714285714285" y1="432.957745734116" x2="112.10714285714285" y2="433.85483524314634" stroke="#000"/>
<line x1="112.10714285714286" y1="498.0" x2="112.10714285714286" y2="502.79999999999995" stroke="#000"/>
<text x="112.10714285714286" y="512.4" fill="#111" font-size="small" font-family="monospace" font-weight="bold" text-anchor="end" transform="rotate(-60, 112.10714285714286, 512.4)">
activerecord
</text>
<rect x="127.21428571428572" y="457.8460300520628" width="10.071428571428571" height="40.1539699479372" fill="#7070f8" data-tooltip="1.00x baseline speed (No JIT)"/>
<line x1="127.21428571428572" y1="457.42921525848675" x2="137.28571428571428" y2="457.42921525848675" stroke="#000"/>
<line x1="127.21428571428572" y1="458.2628448456389" x2="137.28571428571428" y2="458.2628448456389" stroke="#000"/>
<line x1="132.25" y1="457.42921525848675" x2="132.25" y2="458.2628448456389" stroke="#000"/>
<rect x="137.28571428571428" y="436.9594577527651" width="10.071428571428571" height="61.04054224723484" fill="orange" data-tooltip="1.52x baseline speed (YJIT)"/>
<line x1="137.28571428571428" y1="435.52879544559715" x2="147.35714285714286" y2="435.52879544559715" stroke="#000"/>
<line x1="137.28571428571428" y1="438.39012005993305" x2="147.35714285714286" y2="438.39012005993305" stroke="#000"/>
<line x1="142.32142857142858" y1="435.52879544559715" x2="142.32142857142858" y2="438.39012005993305" stroke="#000"/>
<line x1="142.32142857142858" y1="498.0" x2="142.32142857142858" y2="502.79999999999995" stroke="#000"/>
<text x="142.32142857142858" y="512.4" fill="#111" font-size="small" font-family="monospace" font-weight="bold" text-anchor="end" transform="rotate(-60, 142.32142857142858, 512.4)">
hexapdf
</text>
<rect x="157.42857142857142" y="457.8460300520628" width="10.071428571428571" height="40.1539699479372" fill="#7070f8" data-tooltip="1.00x baseline speed (No JIT)"/>
<line x1="157.42857142857142" y1="457.4605341966019" x2="167.49999999999997" y2="457.4605341966019" stroke="#000"/>
<line x1="157.42857142857142" y1="458.23152590752375" x2="167.49999999999997" y2="458.23152590752375" stroke="#000"/>
<line x1="162.4642857142857" y1="457.4605341966019" x2="162.4642857142857" y2="458.23152590752375" stroke="#000"/>
<rect x="167.49999999999997" y="426.3909404016668" width="10.071428571428571" height="71.60905959833312" fill="orange" data-tooltip="1.78x baseline speed (YJIT)"/>
<line x1="167.49999999999997" y1="424.8306606597555" x2="177.57142857142856" y2="424.8306606597555" stroke="#000"/>
<line x1="167.49999999999997" y1="427.95122014357815" x2="177.57142857142856" y2="427.95122014357815" stroke="#000"/>
<line x1="172.53571428571428" y1="424.8306606597555" x2="172.53571428571428" y2="427.95122014357815" stroke="#000"/>
<line x1="172.53571428571428" y1="498.0" x2="172.53571428571428" y2="502.79999999999995" stroke="#000"/>
<text x="172.53571428571428" y="512.4" fill="#111" font-size="small" font-family="monospace" font-weight="bold" text-anchor="end" transform="rotate(-60, 172.53571428571428, 512.4)">
liquid-render
</text>
<rect x="187.64285714285714" y="457.8460300520628" width="10.071428571428571" height="40.1539699479372" fill="#7070f8" data-tooltip="1.00x baseline speed (No JIT)"/>
<line x1="187.64285714285714" y1="457.6927236511261" x2="197.7142857142857" y2="457.6927236511261" stroke="#000"/>
<line x1="187.64285714285714" y1="457.99933645299956" x2="197.7142857142857" y2="457.99933645299956" stroke="#000"/>
<line x1="192.67857142857142" y1="457.6927236511261" x2="192.67857142857142" y2="457.99933645299956" stroke="#000"/>
<rect x="197.7142857142857" y="450.25464159033663" width="10.071428571428571" height="47.74535840966335" fill="orange" data-tooltip="1.19x baseline speed (YJIT)"/>
<line x1="197.7142857142857" y1="450.04657882151247" x2="207.78571428571428" y2="450.04657882151247" stroke="#000"/>
<line x1="197.7142857142857" y1="450.46270435916085" x2="207.78571428571428" y2="450.46270435916085" stroke="#000"/>
<line x1="202.75" y1="450.04657882151247" x2="202.75" y2="450.46270435916085" stroke="#000"/>
<line x1="202.75" y1="498.0" x2="202.75" y2="502.79999999999995" stroke="#000"/>
<text x="202.75" y="512.4" fill="#111" font-size="small" font-family="monospace" font-weight="bold" text-anchor="end" transform="rotate(-60, 202.75, 512.4)">
mail
</text>
<rect x="217.85714285714286" y="457.8460300520628" width="10.071428571428571" height="40.1539699479372" fill="#7070f8" data-tooltip="1.00x baseline speed (No JIT)"/>
<line x1="217.85714285714286" y1="457.29779209036866" x2="227.92857142857142" y2="457.29779209036866" stroke="#000"/>
<line x1="217.85714285714286" y1="458.39426801375697" x2="227.92857142857142" y2="458.39426801375697" stroke="#000"/>
<line x1="222.89285714285714" y1="457.29779209036866" x2="222.89285714285714" y2="458.39426801375697" stroke="#000"/>
<rect x="227.92857142857142" y="439.98936821606816" width="10.071428571428571" height="58.01063178393183" fill="orange" data-tooltip="1.44x baseline speed (YJIT)"/>
<line x1="227.92857142857142" y1="439.1953511615536" x2="238.0" y2="439.1953511615536" stroke="#000"/>
<line x1="227.92857142857142" y1="440.7833852705827" x2="238.0" y2="440.7833852705827" stroke="#000"/>
<line x1="232.9642857142857" y1="439.1953511615536" x2="232.9642857142857" y2="440.7833852705827" stroke="#000"/>
<line x1="232.9642857142857" y1="498.0" x2="232.9642857142857" y2="502.79999999999995" stroke="#000"/>
<text x="232.9642857142857" y="512.4" fill="#111" font-size="small" font-family="monospace" font-weight="bold" text-anchor="end" transform="rotate(-60, 232.9642857142857, 512.4)">
psych-load
</text>
<rect x="248.07142857142858" y="457.8460300520628" width="10.071428571428571" height="40.1539699479372" fill="#7070f8" data-tooltip="1.00x baseline speed (No JIT)"/>
<line x1="248.07142857142858" y1="457.487665478991" x2="258.14285714285717" y2="457.487665478991" stroke="#000"/>
<line x1="248.07142857142858" y1="458.2043946251346" x2="258.14285714285717" y2="458.2043946251346" stroke="#000"/>
<line x1="253.10714285714286" y1="457.487665478991" x2="253.10714285714286" y2="458.2043946251346" stroke="#000"/>
<rect x="258.14285714285717" y="441.8755974286112" width="10.071428571428571" height="56.124402571388785" fill="orange" data-tooltip="1.40x baseline speed (YJIT)"/>
<line x1="258.14285714285717" y1="440.87695613676686" x2="268.2142857142857" y2="440.87695613676686" stroke="#000"/>
<line x1="258.14285714285717" y1="442.8742387204555" x2="268.2142857142857" y2="442.8742387204555" stroke="#000"/>
<line x1="263.1785714285715" y1="440.87695613676686" x2="263.1785714285715" y2="442.8742387204555" stroke="#000"/>
<line x1="263.17857142857144" y1="498.0" x2="263.17857142857144" y2="502.79999999999995" stroke="#000"/>
<text x="263.17857142857144" y="512.4" fill="#111" font-size="small" font-family="monospace" font-weight="bold" text-anchor="end" transform="rotate(-60, 263.17857142857144, 512.4)">
railsbench
</text>
<rect x="278.2857142857142" y="457.8460300520628" width="10.071428571428571" height="40.1539699479372" fill="#7070f8" data-tooltip="1.00x baseline speed (No JIT)"/>
<line x1="278.2857142857142" y1="454.28321952313587" x2="288.35714285714283" y2="454.28321952313587" stroke="#000"/>
<line x1="278.2857142857142" y1="461.40884058098976" x2="288.35714285714283" y2="461.40884058098976" stroke="#000"/>
<line x1="283.32142857142856" y1="454.28321952313587" x2="283.32142857142856" y2="461.40884058098976" stroke="#000"/>
<rect x="288.35714285714283" y="451.762546366879" width="10.071428571428571" height="46.23745363312093" fill="orange" data-tooltip="1.15x baseline speed (YJIT)"/>
<line x1="288.35714285714283" y1="442.31673165575455" x2="298.4285714285714" y2="442.31673165575455" stroke="#000"/>
<line x1="288.35714285714283" y1="461.2083610780035" x2="298.4285714285714" y2="461.2083610780035" stroke="#000"/>
<line x1="293.3928571428571" y1="442.31673165575455" x2="293.3928571428571" y2="461.2083610780035" stroke="#000"/>
<line x1="293.3928571428571" y1="498.0" x2="293.3928571428571" y2="502.79999999999995" stroke="#000"/>
<text x="293.3928571428571" y="512.4" fill="#111" font-size="small" font-family="monospace" font-weight="bold" text-anchor="end" transform="rotate(-60, 293.3928571428571, 512.4)">
ruby-lsp
</text>
<rect x="308.5" y="457.8460300520628" width="10.071428571428571" height="40.1539699479372" fill="#7070f8" data-tooltip="1.00x baseline speed (No JIT)"/>
<line x1="308.5" y1="457.265580857516" x2="318.57142857142856" y2="457.265580857516" stroke="#000"/>
<line x1="308.5" y1="458.42647924660963" x2="318.57142857142856" y2="458.42647924660963" stroke="#000"/>
<line x1="313.53571428571433" y1="457.265580857516" x2="313.53571428571433" y2="458.42647924660963" stroke="#000"/>
<rect x="318.57142857142856" y="453.42086167009984" width="10.071428571428571" height="44.57913832990013" fill="orange" data-tooltip="1.11x baseline speed (YJIT)"/>
<line x1="318.57142857142856" y1="452.1938543806897" x2="328.6428571428571" y2="452.1938543806897" stroke="#000"/>
<line x1="318.57142857142856" y1="454.64786895950994" x2="328.6428571428571" y2="454.64786895950994" stroke="#000"/>
<line x1="323.6071428571429" y1="452.1938543806897" x2="323.6071428571429" y2="454.64786895950994" stroke="#000"/>
<line x1="323.6071428571429" y1="498.0" x2="323.6071428571429" y2="502.79999999999995" stroke="#000"/>
<text x="323.6071428571429" y="512.4" fill="#111" font-size="small" font-family="monospace" font-weight="bold" text-anchor="end" transform="rotate(-60, 323.6071428571429, 512.4)">
sequel
</text>
<rect x="338.7142857142857" y="457.8460300520628" width="10.071428571428571" height="40.1539699479372" fill="#7070f8" data-tooltip="1.00x baseline speed (No JIT)"/>
<line x1="338.7142857142857" y1="457.82441907870265" x2="348.78571428571433" y2="457.82441907870265" stroke="#000"/>
<line x1="338.7142857142857" y1="457.867641025423" x2="348.78571428571433" y2="457.867641025423" stroke="#000"/>
<line x1="343.75000000000006" y1="457.82441907870265" x2="343.75000000000006" y2="457.867641025423" stroke="#000"/>
<rect x="348.78571428571433" y="418.753161870808" width="10.071428571428571" height="79.24683812919196" fill="orange" data-tooltip="1.97x baseline speed (YJIT)"/>
<line x1="348.78571428571433" y1="418.6946809049048" x2="358.8571428571429" y2="418.6946809049048" stroke="#000"/>
<line x1="348.78571428571433" y1="418.81164283671126" x2="358.8571428571429" y2="418.81164283671126" stroke="#000"/>
<line x1="353.8214285714286" y1="418.6946809049048" x2="353.8214285714286" y2="418.81164283671126" stroke="#000"/>
<line x1="353.8214285714286" y1="498.0" x2="353.8214285714286" y2="502.79999999999995" stroke="#000"/>
<text x="353.8214285714286" y="512.4" fill="#111" font-size="small" font-family="monospace" font-weight="bold" text-anchor="end" transform="rotate(-60, 353.8214285714286, 512.4)">
binarytrees
</text>
<rect x="368.9285714285714" y="457.8460300520628" width="10.071428571428571" height="40.1539699479372" fill="#7070f8" data-tooltip="1.00x baseline speed (No JIT)"/>
<line x1="368.9285714285714" y1="457.83381006608664" x2="378.99999999999994" y2="457.83381006608664" stroke="#000"/>
<line x1="368.9285714285714" y1="457.858250038039" x2="378.99999999999994" y2="457.858250038039" stroke="#000"/>
<line x1="373.96428571428567" y1="457.83381006608664" x2="373.96428571428567" y2="457.858250038039" stroke="#000"/>
<rect x="378.99999999999994" y="438.00109696269243" width="10.071428571428571" height="59.99890303730757" fill="orange" data-tooltip="1.49x baseline speed (YJIT)"/>
<line x1="378.99999999999994" y1="437.96145490755055" x2="389.0714285714285" y2="437.96145490755055" stroke="#000"/>
<line x1="378.99999999999994" y1="438.04073901783426" x2="389.0714285714285" y2="438.04073901783426" stroke="#000"/>
<line x1="384.0357142857143" y1="437.96145490755055" x2="384.0357142857143" y2="438.04073901783426" stroke="#000"/>
<line x1="384.0357142857143" y1="498.0" x2="384.0357142857143" y2="502.79999999999995" stroke="#000"/>
<text x="384.0357142857143" y="512.4" fill="#111" font-size="small" font-family="monospace" font-weight="bold" text-anchor="end" transform="rotate(-60, 384.0357142857143, 512.4)">
chunky_png
</text>
<rect x="399.1428571428571" y="457.8460300520628" width="10.071428571428571" height="40.1539699479372" fill="#7070f8" data-tooltip="1.00x baseline speed (No JIT)"/>
<line x1="399.1428571428571" y1="457.52615678627313" x2="409.2142857142857" y2="457.52615678627313" stroke="#000"/>
<line x1="399.1428571428571" y1="458.1659033178525" x2="409.2142857142857" y2="458.1659033178525" stroke="#000"/>
<line x1="404.17857142857144" y1="457.52615678627313" x2="404.17857142857144" y2="458.1659033178525" stroke="#000"/>
<rect x="409.2142857142857" y="449.9124781953984" width="10.071428571428571" height="48.08752180460152" fill="orange" data-tooltip="1.20x baseline speed (YJIT)"/>
<line x1="409.2142857142857" y1="449.2505400844144" x2="419.2857142857143" y2="449.2505400844144" stroke="#000"/>
<line x1="409.2142857142857" y1="450.5744163063825" x2="419.2857142857143" y2="450.5744163063825" stroke="#000"/>
<line x1="414.25" y1="449.2505400844144" x2="414.25" y2="450.5744163063825" stroke="#000"/>
<line x1="414.25" y1="498.0" x2="414.25" y2="502.79999999999995" stroke="#000"/>
<text x="414.25" y="512.4" fill="#111" font-size="small" font-family="monospace" font-weight="bold" text-anchor="end" transform="rotate(-60, 414.25, 512.4)">
erubi
</text>
<rect x="429.3571428571429" y="457.8460300520628" width="10.071428571428571" height="40.1539699479372" fill="#7070f8" data-tooltip="1.00x baseline speed (No JIT)"/>
<line x1="429.3571428571429" y1="456.92205579622464" x2="439.42857142857144" y2="456.92205579622464" stroke="#000"/>
<line x1="429.3571428571429" y1="458.770004307901" x2="439.42857142857144" y2="458.770004307901" stroke="#000"/>
<line x1="434.39285714285717" y1="456.92205579622464" x2="434.39285714285717" y2="458.770004307901" stroke="#000"/>
<rect x="439.42857142857144" y="438.1403549787524" width="10.071428571428571" height="59.85964502124751" fill="orange" data-tooltip="1.49x baseline speed (YJIT)"/>
<line x1="439.42857142857144" y1="435.73068102027895" x2="449.5" y2="435.73068102027895" stroke="#000"/>
<line x1="439.42857142857144" y1="440.5500289372258" x2="449.5" y2="440.5500289372258" stroke="#000"/>
<line x1="444.4642857142858" y1="435.73068102027895" x2="444.4642857142858" y2="440.5500289372258" stroke="#000"/>
<line x1="444.4642857142858" y1="498.0" x2="444.4642857142858" y2="502.79999999999995" stroke="#000"/>
<text x="444.4642857142858" y="512.4" fill="#111" font-size="small" font-family="monospace" font-weight="bold" text-anchor="end" transform="rotate(-60, 444.4642857142858, 512.4)">
erubi_rails
</text>
<rect x="459.5714285714285" y="457.8460300520628" width="10.071428571428571" height="40.1539699479372" fill="#7070f8" data-tooltip="1.00x baseline speed (No JIT)"/>
<line x1="459.5714285714285" y1="457.633385344156" x2="469.6428571428571" y2="457.633385344156" stroke="#000"/>
<line x1="459.5714285714285" y1="458.0586747599696" x2="469.6428571428571" y2="458.0586747599696" stroke="#000"/>
<line x1="464.60714285714283" y1="457.633385344156" x2="464.60714285714283" y2="458.0586747599696" stroke="#000"/>
<rect x="469.6428571428571" y="457.4260789598989" width="10.071428571428571" height="40.57392104010103" fill="orange" data-tooltip="1.01x baseline speed (YJIT)"/>
<line x1="469.6428571428571" y1="457.1128724485484" x2="479.71428571428567" y2="457.1128724485484" stroke="#000"/>
<line x1="469.6428571428571" y1="457.73928547124945" x2="479.71428571428567" y2="457.73928547124945" stroke="#000"/>
<line x1="474.6785714285714" y1="457.1128724485484" x2="474.6785714285714" y2="457.73928547124945" stroke="#000"/>
<line x1="474.6785714285714" y1="498.0" x2="474.6785714285714" y2="502.79999999999995" stroke="#000"/>
<text x="474.6785714285714" y="512.4" fill="#111" font-size="small" font-family="monospace" font-weight="bold" text-anchor="end" transform="rotate(-60, 474.6785714285714, 512.4)">
etanni
</text>
<rect x="489.7857142857143" y="457.8460300520628" width="10.071428571428571" height="40.1539699479372" fill="#7070f8" data-tooltip="1.00x baseline speed (No JIT)"/>
<line x1="489.7857142857143" y1="457.74518141112486" x2="499.85714285714283" y2="457.74518141112486" stroke="#000"/>
<line x1="489.7857142857143" y1="457.94687869300077" x2="499.85714285714283" y2="457.94687869300077" stroke="#000"/>
<line x1="494.82142857142856" y1="457.74518141112486" x2="494.82142857142856" y2="457.94687869300077" stroke="#000"/>
<rect x="499.85714285714283" y="403.2817679650776" width="10.071428571428571" height="94.71823203492234" fill="orange" data-tooltip="2.36x baseline speed (YJIT)"/>
<line x1="499.85714285714283" y1="403.0257577691165" x2="509.9285714285714" y2="403.0257577691165" stroke="#000"/>
<line x1="499.85714285714283" y1="403.5377781610387" x2="509.9285714285714" y2="403.5377781610387" stroke="#000"/>
<line x1="504.89285714285717" y1="403.0257577691165" x2="504.89285714285717" y2="403.5377781610387" stroke="#000"/>
<line x1="504.89285714285717" y1="498.0" x2="504.89285714285717" y2="502.79999999999995" stroke="#000"/>
<text x="504.89285714285717" y="512.4" fill="#111" font-size="small" font-family="monospace" font-weight="bold" text-anchor="end" transform="rotate(-60, 504.89285714285717, 512.4)">
fannkuchredux
</text>
<rect x="520.0" y="457.8460300520628" width="10.071428571428571" height="40.1539699479372" fill="#7070f8" data-tooltip="1.00x baseline speed (No JIT)"/>
<line x1="520.0" y1="457.7328866913281" x2="530.0714285714287" y2="457.7328866913281" stroke="#000"/>
<line x1="520.0" y1="457.95917341279755" x2="530.0714285714287" y2="457.95917341279755" stroke="#000"/>
<line x1="525.0357142857142" y1="457.7328866913281" x2="525.0357142857142" y2="457.95917341279755" stroke="#000"/>
<rect x="530.0714285714287" y="443.25940542866056" width="10.071428571428571" height="54.74059457133936" fill="orange" data-tooltip="1.36x baseline speed (YJIT)"/>
<line x1="530.0714285714287" y1="443.0591044584498" x2="540.1428571428572" y2="443.0591044584498" stroke="#000"/>
<line x1="530.0714285714287" y1="443.4597063988714" x2="540.1428571428572" y2="443.4597063988714" stroke="#000"/>
<line x1="535.1071428571429" y1="443.0591044584498" x2="535.1071428571429" y2="443.4597063988714" stroke="#000"/>
<line x1="535.1071428571429" y1="498.0" x2="535.1071428571429" y2="502.79999999999995" stroke="#000"/>
<text x="535.1071428571429" y="512.4" fill="#111" font-size="small" font-family="monospace" font-weight="bold" text-anchor="end" transform="rotate(-60, 535.1071428571429, 512.4)">
lee
</text>
<rect x="550.2142857142858" y="457.8460300520628" width="10.071428571428571" height="40.1539699479372" fill="#7070f8" data-tooltip="1.00x baseline speed (No JIT)"/>
<line x1="550.2142857142858" y1="457.75474265464464" x2="560.2857142857143" y2="457.75474265464464" stroke="#000"/>
<line x1="550.2142857142858" y1="457.937317449481" x2="560.2857142857143" y2="457.937317449481" stroke="#000"/>
<line x1="555.25" y1="457.75474265464464" x2="555.25" y2="457.937317449481" stroke="#000"/>
<rect x="560.2857142857143" y="425.41707331191924" width="10.071428571428571" height="72.58292668808073" fill="orange" data-tooltip="1.81x baseline speed (YJIT)"/>
<line x1="560.2857142857143" y1="425.2481476370429" x2="570.357142857143" y2="425.2481476370429" stroke="#000"/>
<line x1="560.2857142857143" y1="425.5859989867955" x2="570.357142857143" y2="425.5859989867955" stroke="#000"/>
<line x1="565.3214285714287" y1="425.2481476370429" x2="565.3214285714287" y2="425.5859989867955" stroke="#000"/>
<line x1="565.3214285714287" y1="498.0" x2="565.3214285714287" y2="502.79999999999995" stroke="#000"/>
<text x="565.3214285714287" y="512.4" fill="#111" font-size="small" font-family="monospace" font-weight="bold" text-anchor="end" transform="rotate(-60, 565.3214285714287, 512.4)">
nbody
</text>
<rect x="580.4285714285714" y="457.8460300520628" width="10.071428571428571" height="40.1539699479372" fill="#7070f8" data-tooltip="1.00x baseline speed (No JIT)"/>
<line x1="580.4285714285714" y1="457.66993104491087" x2="590.5" y2="457.66993104491087" stroke="#000"/>
<line x1="580.4285714285714" y1="458.02212905921476" x2="590.5" y2="458.02212905921476" stroke="#000"/>
<line x1="585.4642857142857" y1="457.66993104491087" x2="585.4642857142857" y2="458.02212905921476" stroke="#000"/>
<rect x="590.5" y="403.90998567536514" width="10.071428571428571" height="94.09001432463478" fill="orange" data-tooltip="2.34x baseline speed (YJIT)"/>
<line x1="590.5" y1="403.337315897625" x2="600.5714285714287" y2="403.337315897625" stroke="#000"/>
<line x1="590.5" y1="404.4826554531053" x2="600.5714285714287" y2="404.4826554531053" stroke="#000"/>
<line x1="595.5357142857143" y1="403.337315897625" x2="595.5357142857143" y2="404.4826554531053" stroke="#000"/>
<line x1="595.5357142857143" y1="498.0" x2="595.5357142857143" y2="502.79999999999995" stroke="#000"/>
<text x="595.5357142857143" y="512.4" fill="#111" font-size="small" font-family="monospace" font-weight="bold" text-anchor="end" transform="rotate(-60, 595.5357142857143, 512.4)">
optcarrot
</text>
<rect x="610.6428571428571" y="457.8460300520628" width="10.071428571428571" height="40.1539699479372" fill="#7070f8" data-tooltip="1.00x baseline speed (No JIT)"/>
<line x1="610.6428571428571" y1="457.66456632865277" x2="620.7142857142858" y2="457.66456632865277" stroke="#000"/>
<line x1="610.6428571428571" y1="458.02749377547286" x2="620.7142857142858" y2="458.02749377547286" stroke="#000"/>
<line x1="615.6785714285714" y1="457.66456632865277" x2="615.6785714285714" y2="458.02749377547286" stroke="#000"/>
<rect x="620.7142857142858" y="421.6882611889294" width="10.071428571428571" height="76.31173881107055" fill="orange" data-tooltip="1.90x baseline speed (YJIT)"/>
<line x1="620.7142857142858" y1="420.2519649944524" x2="630.7857142857144" y2="420.2519649944524" stroke="#000"/>
<line x1="620.7142857142858" y1="423.12455738340634" x2="630.7857142857144" y2="423.12455738340634" stroke="#000"/>
<line x1="625.75" y1="420.2519649944524" x2="625.75" y2="423.12455738340634" stroke="#000"/>
<line x1="625.75" y1="498.0" x2="625.75" y2="502.79999999999995" stroke="#000"/>
<text x="625.75" y="512.4" fill="#111" font-size="small" font-family="monospace" font-weight="bold" text-anchor="end" transform="rotate(-60, 625.75, 512.4)">
rubykon
</text>
<rect x="640.8571428571428" y="457.8460300520628" width="10.071428571428571" height="40.1539699479372" fill="#7070f8" data-tooltip="1.00x baseline speed (No JIT)"/>
<line x1="640.8571428571428" y1="457.83986289260804" x2="650.9285714285714" y2="457.83986289260804" stroke="#000"/>
<line x1="640.8571428571428" y1="457.8521972115176" x2="650.9285714285714" y2="457.8521972115176" stroke="#000"/>
<line x1="645.892857142857" y1="457.83986289260804" x2="645.892857142857" y2="457.8521972115176" stroke="#000"/>
<rect x="650.9285714285714" y="271.1746870627162" width="10.071428571428571" height="226.82531293728374" fill="orange" data-tooltip="5.65x baseline speed (YJIT)"/>
<line x1="650.9285714285714" y1="270.8244981735999" x2="661.0" y2="270.8244981735999" stroke="#000"/>
<line x1="650.9285714285714" y1="271.5248759518324" x2="661.0" y2="271.5248759518324" stroke="#000"/>
<line x1="655.9642857142857" y1="270.8244981735999" x2="655.9642857142857" y2="271.5248759518324" stroke="#000"/>
<line x1="655.9642857142857" y1="498.0" x2="655.9642857142857" y2="502.79999999999995" stroke="#000"/>
<text x="655.9642857142857" y="512.4" fill="#111" font-size="small" font-family="monospace" font-weight="bold" text-anchor="end" transform="rotate(-60, 655.9642857142857, 512.4)">
30k_ifelse
</text>
<rect x="671.0714285714286" y="457.8460300520628" width="10.071428571428571" height="40.1539699479372" fill="#7070f8" data-tooltip="1.00x baseline speed (No JIT)"/>
<line x1="671.0714285714286" y1="457.8435298057272" x2="681.1428571428571" y2="457.8435298057272" stroke="#000"/>
<line x1="671.0714285714286" y1="457.84853029839843" x2="681.1428571428571" y2="457.84853029839843" stroke="#000"/>
<line x1="676.1071428571428" y1="457.8435298057272" x2="676.1071428571428" y2="457.84853029839843" stroke="#000"/>
<rect x="681.1428571428571" y="239.57444728791066" width="10.071428571428571" height="258.42555271208926" fill="orange" data-tooltip="6.44x baseline speed (YJIT)"/>
<line x1="681.1428571428571" y1="239.50312063134973" x2="691.2142857142858" y2="239.50312063134973" stroke="#000"/>
<line x1="681.1428571428571" y1="239.64577394447159" x2="691.2142857142858" y2="239.64577394447159" stroke="#000"/>
<line x1="686.1785714285714" y1="239.50312063134973" x2="686.1785714285714" y2="239.64577394447159" stroke="#000"/>
<line x1="686.1785714285714" y1="498.0" x2="686.1785714285714" y2="502.79999999999995" stroke="#000"/>
<text x="686.1785714285714" y="512.4" fill="#111" font-size="small" font-family="monospace" font-weight="bold" text-anchor="end" transform="rotate(-60, 686.1785714285714, 512.4)">
30k_methods
</text>
<rect x="701.2857142857143" y="457.8460300520628" width="10.071428571428571" height="40.1539699479372" fill="#7070f8" data-tooltip="1.00x baseline speed (No JIT)"/>
<line x1="701.2857142857143" y1="457.80637758815175" x2="711.3571428571429" y2="457.80637758815175" stroke="#000"/>
<line x1="701.2857142857143" y1="457.8856825159739" x2="711.3571428571429" y2="457.8856825159739" stroke="#000"/>
<line x1="706.3214285714286" y1="457.80637758815175" x2="706.3214285714286" y2="457.8856825159739" stroke="#000"/>
<rect x="711.3571428571429" y="397.59980140176594" width="10.071428571428571" height="100.40019859823403" fill="orange" data-tooltip="2.50x baseline speed (YJIT)"/>
<line x1="711.3571428571429" y1="397.43372437317925" x2="721.4285714285716" y2="397.43372437317925" stroke="#000"/>
<line x1="711.3571428571429" y1="397.7658784303526" x2="721.4285714285716" y2="397.7658784303526" stroke="#000"/>
<line x1="716.3928571428571" y1="397.43372437317925" x2="716.3928571428571" y2="397.7658784303526" stroke="#000"/>
<line x1="716.3928571428571" y1="498.0" x2="716.3928571428571" y2="502.79999999999995" stroke="#000"/>
<text x="716.3928571428571" y="512.4" fill="#111" font-size="small" font-family="monospace" font-weight="bold" text-anchor="end" transform="rotate(-60, 716.3928571428571, 512.4)">
cfunc_itself
</text>
<rect x="731.4999999999999" y="457.8460300520628" width="10.071428571428571" height="40.1539699479372" fill="#7070f8" data-tooltip="1.00x baseline speed (No JIT)"/>
<line x1="731.4999999999999" y1="457.80306108138427" x2="741.5714285714286" y2="457.80306108138427" stroke="#000"/>
<line x1="731.4999999999999" y1="457.88899902274136" x2="741.5714285714286" y2="457.88899902274136" stroke="#000"/>
<line x1="736.5357142857142" y1="457.80306108138427" x2="736.5357142857142" y2="457.88899902274136" stroke="#000"/>
<rect x="741.5714285714286" y="332.1423864027713" width="10.071428571428571" height="165.85761359722864" fill="orange" data-tooltip="4.13x baseline speed (YJIT)"/>
<line x1="741.5714285714286" y1="331.94322652851946" x2="751.6428571428572" y2="331.94322652851946" stroke="#000"/>
<line x1="741.5714285714286" y1="332.3415462770232" x2="751.6428571428572" y2="332.3415462770232" stroke="#000"/>
<line x1="746.6071428571428" y1="331.94322652851946" x2="746.6071428571428" y2="332.3415462770232" stroke="#000"/>
<line x1="746.6071428571428" y1="498.0" x2="746.6071428571428" y2="502.79999999999995" stroke="#000"/>
<text x="746.6071428571428" y="512.4" fill="#111" font-size="small" font-family="monospace" font-weight="bold" text-anchor="end" transform="rotate(-60, 746.6071428571428, 512.4)">
fib
</text>
<rect x="761.7142857142857" y="457.8460300520628" width="10.071428571428571" height="40.1539699479372" fill="#7070f8" data-tooltip="1.00x baseline speed (No JIT)"/>
<line x1="761.7142857142857" y1="457.7717603698368" x2="771.7857142857143" y2="457.7717603698368" stroke="#000"/>
<line x1="761.7142857142857" y1="457.92029973428885" x2="771.7857142857143" y2="457.92029973428885" stroke="#000"/>
<line x1="766.7499999999999" y1="457.7717603698368" x2="766.7499999999999" y2="457.92029973428885" stroke="#000"/>
<rect x="771.7857142857143" y="390.87196299020735" width="10.071428571428571" height="107.12803700979259" fill="orange" data-tooltip="2.67x baseline speed (YJIT)"/>
<line x1="771.7857142857143" y1="390.5756481719425" x2="781.8571428571429" y2="390.5756481719425" stroke="#000"/>
<line x1="771.7857142857143" y1="391.1682778084722" x2="781.8571428571429" y2="391.1682778084722" stroke="#000"/>
<line x1="776.8214285714286" y1="390.5756481719425" x2="776.8214285714286" y2="391.1682778084722" stroke="#000"/>
<line x1="776.8214285714286" y1="498.0" x2="776.8214285714286" y2="502.79999999999995" stroke="#000"/>
<text x="776.8214285714286" y="512.4" fill="#111" font-size="small" font-family="monospace" font-weight="bold" text-anchor="end" transform="rotate(-60, 776.8214285714286, 512.4)">
getivar
</text>
<rect x="791.9285714285714" y="457.8460300520628" width="10.071428571428571" height="40.1539699479372" fill="#7070f8" data-tooltip="1.00x baseline speed (No JIT)"/>
<line x1="791.9285714285714" y1="457.82327872868274" x2="802.0" y2="457.82327872868274" stroke="#000"/>
<line x1="791.9285714285714" y1="457.8687813754429" x2="802.0" y2="457.8687813754429" stroke="#000"/>
<line x1="796.9642857142857" y1="457.82327872868274" x2="796.9642857142857" y2="457.8687813754429" stroke="#000"/>
<rect x="802.0" y="276.5379262305662" width="10.071428571428571" height="221.46207376943374" fill="orange" data-tooltip="5.52x baseline speed (YJIT)"/>
<line x1="802.0" y1="276.16609564715407" x2="812.0714285714287" y2="276.16609564715407" stroke="#000"/>
<line x1="802.0" y1="276.90975681397833" x2="812.0714285714287" y2="276.90975681397833" stroke="#000"/>
<line x1="807.0357142857143" y1="276.16609564715407" x2="807.0357142857143" y2="276.90975681397833" stroke="#000"/>
<line x1="807.0357142857143" y1="498.0" x2="807.0357142857143" y2="502.79999999999995" stroke="#000"/>
<text x="807.0357142857143" y="512.4" fill="#111" font-size="small" font-family="monospace" font-weight="bold" text-anchor="end" transform="rotate(-60, 807.0357142857143, 512.4)">
keyword_args
</text>
<rect x="822.1428571428571" y="457.8460300520628" width="10.071428571428571" height="40.1539699479372" fill="#7070f8" data-tooltip="1.00x baseline speed (No JIT)"/>
<line x1="822.1428571428571" y1="457.1830332366141" x2="832.2142857142857" y2="457.1830332366141" stroke="#000"/>
<line x1="822.1428571428571" y1="458.5090268675115" x2="832.2142857142857" y2="458.5090268675115" stroke="#000"/>
<line x1="827.1785714285713" y1="457.1830332366141" x2="827.1785714285713" y2="458.5090268675115" stroke="#000"/>
<rect x="832.2142857142857" y="100.19999999999999" width="10.071428571428571" height="397.79999999999995" fill="orange" data-tooltip="9.91x baseline speed (YJIT)"/>
<line x1="832.2142857142857" y1="93.47409097895414" x2="842.2857142857143" y2="93.47409097895414" stroke="#000"/>
<line x1="832.2142857142857" y1="106.92590902104584" x2="842.2857142857143" y2="106.92590902104584" stroke="#000"/>
<line x1="837.2499999999999" y1="93.47409097895414" x2="837.2499999999999" y2="106.92590902104584" stroke="#000"/>
<line x1="837.2499999999999" y1="498.0" x2="837.2499999999999" y2="502.79999999999995" stroke="#000"/>
<text x="837.2499999999999" y="512.4" fill="#111" font-size="small" font-family="monospace" font-weight="bold" text-anchor="end" transform="rotate(-60, 837.2499999999999, 512.4)">
respond_to
</text>
<rect x="852.3571428571428" y="457.8460300520628" width="10.071428571428571" height="40.1539699479372" fill="#7070f8" data-tooltip="1.00x baseline speed (No JIT)"/>
<line x1="852.3571428571428" y1="457.6827227445856" x2="862.4285714285714" y2="457.6827227445856" stroke="#000"/>
<line x1="852.3571428571428" y1="458.00933735954004" x2="862.4285714285714" y2="458.00933735954004" stroke="#000"/>
<line x1="857.3928571428571" y1="457.6827227445856" x2="857.3928571428571" y2="458.00933735954004" stroke="#000"/>
<rect x="862.4285714285714" y="321.37905065159134" width="10.071428571428571" height="176.62094934840863" fill="orange" data-tooltip="4.40x baseline speed (YJIT)"/>
<line x1="862.4285714285714" y1="320.4688614896646" x2="872.5" y2="320.4688614896646" stroke="#000"/>
<line x1="862.4285714285714" y1="322.2892398135181" x2="872.5" y2="322.2892398135181" stroke="#000"/>
<line x1="867.4642857142857" y1="320.4688614896646" x2="867.4642857142857" y2="322.2892398135181" stroke="#000"/>
<line x1="867.4642857142857" y1="498.0" x2="867.4642857142857" y2="502.79999999999995" stroke="#000"/>
<text x="867.4642857142857" y="512.4" fill="#111" font-size="small" font-family="monospace" font-weight="bold" text-anchor="end" transform="rotate(-60, 867.4642857142857, 512.4)">
setivar
</text>
<rect x="882.5714285714286" y="457.8460300520628" width="10.071428571428571" height="40.1539699479372" fill="#7070f8" data-tooltip="1.00x baseline speed (No JIT)"/>
<line x1="882.5714285714286" y1="457.1818716414582" x2="892.6428571428572" y2="457.1818716414582" stroke="#000"/>
<line x1="882.5714285714286" y1="458.51018846266743" x2="892.6428571428572" y2="458.51018846266743" stroke="#000"/>
<line x1="887.6071428571428" y1="457.1818716414582" x2="887.6071428571428" y2="458.51018846266743" stroke="#000"/>
<rect x="892.6428571428572" y="412.45485501538496" width="10.071428571428571" height="85.54514498461491" fill="orange" data-tooltip="2.13x baseline speed (YJIT)"/>
<line x1="892.6428571428572" y1="410.4242032030464" x2="902.7142857142858" y2="410.4242032030464" stroke="#000"/>
<line x1="892.6428571428572" y1="414.4855068277236" x2="902.7142857142858" y2="414.4855068277236" stroke="#000"/>
<line x1="897.6785714285714" y1="410.4242032030464" x2="897.6785714285714" y2="414.4855068277236" stroke="#000"/>
<line x1="897.6785714285714" y1="498.0" x2="897.6785714285714" y2="502.79999999999995" stroke="#000"/>
<text x="897.6785714285714" y="512.4" fill="#111" font-size="small" font-family="monospace" font-weight="bold" text-anchor="end" transform="rotate(-60, 897.6785714285714, 512.4)">
setivar_object
</text>
<rect x="912.7857142857143" y="457.8460300520628" width="10.071428571428571" height="40.1539699479372" fill="#7070f8" data-tooltip="1.00x baseline speed (No JIT)"/>
<line x1="912.7857142857143" y1="457.4928739763287" x2="922.8571428571429" y2="457.4928739763287" stroke="#000"/>
<line x1="912.7857142857143" y1="458.1991861277969" x2="922.8571428571429" y2="458.1991861277969" stroke="#000"/>
<line x1="917.8214285714286" y1="457.4928739763287" x2="917.8214285714286" y2="458.1991861277969" stroke="#000"/>
<rect x="922.8571428571429" y="428.9433770961676" width="10.071428571428571" height="69.05662290383236" fill="orange" data-tooltip="1.72x baseline speed (YJIT)"/>
<line x1="922.8571428571429" y1="427.7981719395354" x2="932.9285714285716" y2="427.7981719395354" stroke="#000"/>
<line x1="922.8571428571429" y1="430.08858225279977" x2="932.9285714285716" y2="430.08858225279977" stroke="#000"/>
<line x1="927.8928571428572" y1="427.7981719395354" x2="927.8928571428572" y2="430.08858225279977" stroke="#000"/>
<line x1="927.8928571428572" y1="498.0" x2="927.8928571428572" y2="502.79999999999995" stroke="#000"/>
<text x="927.8928571428572" y="512.4" fill="#111" font-size="small" font-family="monospace" font-weight="bold" text-anchor="end" transform="rotate(-60, 927.8928571428572, 512.4)">
str_concat
</text>
</svg>