<svg viewBox="0 0 1000 600" xmlns="http://www.w3.org/2000/svg" xmlns:xlink="http://www.w3.org/1999/xlink" width="100%" height="100%">

<rect x="50.0" y="30.0" width="940.0" height="467.99999999999994" stroke="#000" fill="#EEE"/>
<line x1="42.0" y1="497.9999999999999" x2="50.0" y2="497.9999999999999" stroke="#000"/>
<text x="26.000000000000004" y="497.9999999999999" text-anchor="end" font-weight="bold" font-size="small" fill="#111">
0.0
</text>
<line x1="42.0" y1="444.350085653991" x2="50.0" y2="444.350085653991" stroke="#000"/>
<text x="26.000000000000004" y="444.350085653991" text-anchor="end" font-weight="bold" font-size="small" fill="#111">
1.0
</text>
<line x1="42.0" y1="390.7001713079821" x2="50.0" y2="390.7001713079821" stroke="#000"/>
<text x="26.000000000000004" y="390.7001713079821" text-anchor="end" font-weight="bold" font-size="small" fill="#111">
2.0
</text>
<line x1="42.0" y1="337.05025696197316" x2="50.0" y2="337.05025696197316" stroke="#000"/>
<text x="26.000000000000004" y="337.05025696197316" text-anchor="end" font-weight="bold" font-size="small" fill="#111">
3.0
</text>
<line x1="42.0" y1="283.40034261596423" x2="50.0" y2="283.40034261596423" stroke="#000"/>
<text x="26.000000000000004" y="283.40034261596423" text-anchor="end" font-weight="bold" font-size="small" fill="#111">
4.0
</text>
<line x1="42.0" y1="229.75042826995536" x2="50.0" y2="229.75042826995536" stroke="#000"/>
<text x="26.000000000000004" y="229.75042826995536" text-anchor="end" font-weight="bold" font-size="small" fill="#111">
5.0
</text>
<line x1="42.0" y1="176.10051392394647" x2="50.0" y2="176.10051392394647" stroke="#000"/>
<text x="26.000000000000004" y="176.10051392394647" text-anchor="end" font-weight="bold" font-size="small" fill="#111">
6.0
</text>
<line x1="42.0" y1="122.45059957793754" x2="50.0" y2="122.45059957793754" stroke="#000"/>
<text x="26.000000000000004" y="122.45059957793754" text-anchor="end" font-weight="bold" font-size="small" fill="#111">
7.0
</text>
<rect x="197.99999999999997" y="36.00000000000001" width="80.0" height="18.0" fill="#7070f8" stroke="#888"/>
<text x="238.0" y="52.50000000000001" font-size="small" text-anchor="middle" font-weight="bold" fill="#EEE">
No JIT
</text>
<rect x="479.99999999999994" y="36.00000000000001" width="80.0" height="18.0" fill="orange" stroke="#888"/>
<text x="519.9999999999999" y="52.50000000000001" font-size="small" text-anchor="middle" font-weight="bold" fill="#EEE">
MJIT
</text>
<rect x="761.9999999999999" y="36.00000000000001" width="80.0" height="18.0" fill="green" stroke="#888"/>
<text x="801.9999999999999" y="52.50000000000001" font-size="small" text-anchor="middle" font-weight="bold" fill="#EEE">
YJIT
</text>
<rect x="97.0" y="444.350085653991" width="8.8125" height="53.64991434600892" fill="#7070f8" data-tooltip="1.00x baseline speed (No JIT)"/>
<line x1="97.0" y1="444.1673638200576" x2="105.8125" y2="444.1673638200576" stroke="#000"/>
<line x1="97.0" y1="444.5328074879244" x2="105.8125" y2="444.5328074879244" stroke="#000"/>
<line x1="101.40625" y1="444.1673638200576" x2="101.40625" y2="444.5328074879244" stroke="#000"/>
<rect x="105.8125" y="444.3332320527577" width="8.8125" height="53.66676794724218" fill="orange" data-tooltip="1.00x baseline speed (MJIT)"/>
<line x1="105.8125" y1="444.0741536050565" x2="114.625" y2="444.0741536050565" stroke="#000"/>
<line x1="105.8125" y1="444.59231050045895" x2="114.625" y2="444.59231050045895" stroke="#000"/>
<line x1="110.21875" y1="444.0741536050565" x2="110.21875" y2="444.59231050045895" stroke="#000"/>
<rect x="114.625" y="419.4630875309513" width="8.8125" height="78.53691246904853" fill="green" data-tooltip="1.46x baseline speed (YJIT)"/>
<line x1="114.625" y1="418.99956918666163" x2="123.4375" y2="418.99956918666163" stroke="#000"/>
<line x1="114.625" y1="419.9266058752411" x2="123.4375" y2="419.9266058752411" stroke="#000"/>
<line x1="119.03125" y1="418.99956918666163" x2="119.03125" y2="419.9266058752411" stroke="#000"/>
<line x1="114.625" y1="498.0" x2="114.625" y2="502.79999999999995" stroke="#000"/>
<text x="114.625" y="512.4" fill="#111" font-size="small" font-family="monospace" font-weight="bold" text-anchor="end" transform="rotate(-60, 114.625, 512.4)">
activerecord
</text>
<rect x="132.25" y="444.350085653991" width="8.8125" height="53.64991434600892" fill="#7070f8" data-tooltip="1.00x baseline speed (No JIT)"/>
<line x1="132.25" y1="443.92145326109926" x2="141.0625" y2="443.92145326109926" stroke="#000"/>
<line x1="132.25" y1="444.7787180468827" x2="141.0625" y2="444.7787180468827" stroke="#000"/>
<line x1="136.65625" y1="443.92145326109926" x2="136.65625" y2="444.7787180468827" stroke="#000"/>
<rect x="149.875" y="424.959684321889" width="8.8125" height="73.04031567811091" fill="green" data-tooltip="1.36x baseline speed (YJIT)"/>
<line x1="149.875" y1="423.7178241815337" x2="158.6875" y2="423.7178241815337" stroke="#000"/>
<line x1="149.875" y1="426.20154446224427" x2="158.6875" y2="426.20154446224427" stroke="#000"/>
<line x1="154.28125" y1="423.7178241815337" x2="154.28125" y2="426.20154446224427" stroke="#000"/>
<line x1="149.875" y1="498.0" x2="149.875" y2="502.79999999999995" stroke="#000"/>
<text x="149.875" y="512.4" fill="#111" font-size="small" font-family="monospace" font-weight="bold" text-anchor="end" transform="rotate(-60, 149.875, 512.4)">
hexapdf
</text>
<rect x="167.49999999999997" y="444.350085653991" width="8.8125" height="53.64991434600892" fill="#7070f8" data-tooltip="1.00x baseline speed (No JIT)"/>
<line x1="167.49999999999997" y1="443.85115518853365" x2="176.31249999999997" y2="443.85115518853365" stroke="#000"/>
<line x1="167.49999999999997" y1="444.8490161194483" x2="176.31249999999997" y2="444.8490161194483" stroke="#000"/>
<line x1="171.90624999999997" y1="443.85115518853365" x2="171.90624999999997" y2="444.8490161194483" stroke="#000"/>
<rect x="176.31249999999997" y="435.8894249614474" width="8.8125" height="62.110575038552504" fill="orange" data-tooltip="1.16x baseline speed (MJIT)"/>
<line x1="176.31249999999997" y1="434.756272479383" x2="185.12499999999997" y2="434.756272479383" stroke="#000"/>
<line x1="176.31249999999997" y1="437.0225774435118" x2="185.12499999999997" y2="437.0225774435118" stroke="#000"/>
<line x1="180.71874999999997" y1="434.756272479383" x2="180.71874999999997" y2="437.0225774435118" stroke="#000"/>
<rect x="185.12499999999997" y="413.88574888959715" width="8.8125" height="84.11425111040278" fill="green" data-tooltip="1.57x baseline speed (YJIT)"/>
<line x1="185.12499999999997" y1="412.34029436327404" x2="193.93749999999997" y2="412.34029436327404" stroke="#000"/>
<line x1="185.12499999999997" y1="415.43120341592027" x2="193.93749999999997" y2="415.43120341592027" stroke="#000"/>
<line x1="189.53124999999997" y1="412.34029436327404" x2="189.53124999999997" y2="415.43120341592027" stroke="#000"/>
<line x1="185.12499999999997" y1="498.0" x2="185.12499999999997" y2="502.79999999999995" stroke="#000"/>
<text x="185.12499999999997" y="512.4" fill="#111" font-size="small" font-family="monospace" font-weight="bold" text-anchor="end" transform="rotate(-60, 185.12499999999997, 512.4)">
liquid-render
</text>
<rect x="202.75" y="444.350085653991" width="8.8125" height="53.64991434600892" fill="#7070f8" data-tooltip="1.00x baseline speed (No JIT)"/>
<line x1="202.75" y1="444.2121539118237" x2="211.5625" y2="444.2121539118237" stroke="#000"/>
<line x1="202.75" y1="444.4880173961583" x2="211.5625" y2="444.4880173961583" stroke="#000"/>
<line x1="207.15625" y1="444.2121539118237" x2="207.15625" y2="444.4880173961583" stroke="#000"/>
<rect x="211.5625" y="443.83115527065667" width="8.8125" height="54.168844729343235" fill="orange" data-tooltip="1.01x baseline speed (MJIT)"/>
<line x1="211.5625" y1="442.82658424615704" x2="220.375" y2="442.82658424615704" stroke="#000"/>
<line x1="211.5625" y1="444.83572629515635" x2="220.375" y2="444.83572629515635" stroke="#000"/>
<line x1="215.96875" y1="442.82658424615704" x2="215.96875" y2="444.83572629515635" stroke="#000"/>
<rect x="220.375" y="437.51596588617997" width="8.8125" height="60.48403411381994" fill="green" data-tooltip="1.13x baseline speed (YJIT)"/>
<line x1="220.375" y1="437.3216661818344" x2="229.1875" y2="437.3216661818344" stroke="#000"/>
<line x1="220.375" y1="437.7102655905255" x2="229.1875" y2="437.7102655905255" stroke="#000"/>
<line x1="224.78125" y1="437.3216661818344" x2="224.78125" y2="437.7102655905255" stroke="#000"/>
<line x1="220.375" y1="498.0" x2="220.375" y2="502.79999999999995" stroke="#000"/>
<text x="220.375" y="512.4" fill="#111" font-size="small" font-family="monospace" font-weight="bold" text-anchor="end" transform="rotate(-60, 220.375, 512.4)">
mail
</text>
<rect x="238.0" y="444.350085653991" width="8.8125" height="53.64991434600892" fill="#7070f8" data-tooltip="1.00x baseline speed (No JIT)"/>
<line x1="238.0" y1="444.3293480675172" x2="246.8125" y2="444.3293480675172" stroke="#000"/>
<line x1="238.0" y1="444.3708232404648" x2="246.8125" y2="444.3708232404648" stroke="#000"/>
<line x1="242.40625" y1="444.3293480675172" x2="242.40625" y2="444.3708232404648" stroke="#000"/>
<rect x="246.8125" y="435.9861434046387" width="8.8125" height="62.01385659536126" fill="orange" data-tooltip="1.16x baseline speed (MJIT)"/>
<line x1="246.8125" y1="435.95380372208285" x2="255.625" y2="435.95380372208285" stroke="#000"/>
<line x1="246.8125" y1="436.0184830871945" x2="255.625" y2="436.0184830871945" stroke="#000"/>
<line x1="251.21875" y1="435.95380372208285" x2="251.21875" y2="436.0184830871945" stroke="#000"/>
<rect x="255.625" y="429.2523107061328" width="8.8125" height="68.7476892938671" fill="green" data-tooltip="1.28x baseline speed (YJIT)"/>
<line x1="255.625" y1="429.2214851013328" x2="264.4375" y2="429.2214851013328" stroke="#000"/>
<line x1="255.625" y1="429.2831363109328" x2="264.4375" y2="429.2831363109328" stroke="#000"/>
<line x1="260.03125" y1="429.2214851013328" x2="260.03125" y2="429.2831363109328" stroke="#000"/>
<line x1="255.625" y1="498.0" x2="255.625" y2="502.79999999999995" stroke="#000"/>
<text x="255.625" y="512.4" fill="#111" font-size="small" font-family="monospace" font-weight="bold" text-anchor="end" transform="rotate(-60, 255.625, 512.4)">
psych-load
</text>
<rect x="273.25" y="444.350085653991" width="8.8125" height="53.64991434600892" fill="#7070f8" data-tooltip="1.00x baseline speed (No JIT)"/>
<line x1="273.25" y1="444.1156862510148" x2="282.0625" y2="444.1156862510148" stroke="#000"/>
<line x1="273.25" y1="444.5844850569672" x2="282.0625" y2="444.5844850569672" stroke="#000"/>
<line x1="277.65625" y1="444.1156862510148" x2="277.65625" y2="444.5844850569672" stroke="#000"/>
<rect x="282.0625" y="444.44367095366954" width="8.8125" height="53.55632904633037" fill="orange" data-tooltip="1.00x baseline speed (MJIT)"/>
<line x1="282.0625" y1="444.04013730873316" x2="290.875" y2="444.04013730873316" stroke="#000"/>
<line x1="282.0625" y1="444.84720459860586" x2="290.875" y2="444.84720459860586" stroke="#000"/>
<line x1="286.46875" y1="444.04013730873316" x2="286.46875" y2="444.84720459860586" stroke="#000"/>
<rect x="290.875" y="425.8384239010244" width="8.8125" height="72.16157609897562" fill="green" data-tooltip="1.35x baseline speed (YJIT)"/>
<line x1="290.875" y1="424.8592225470103" x2="299.6875" y2="424.8592225470103" stroke="#000"/>
<line x1="290.875" y1="426.8176252550385" x2="299.6875" y2="426.8176252550385" stroke="#000"/>
<line x1="295.28125" y1="424.8592225470103" x2="295.28125" y2="426.8176252550385" stroke="#000"/>
<line x1="290.875" y1="498.0" x2="290.875" y2="502.79999999999995" stroke="#000"/>
<text x="290.875" y="512.4" fill="#111" font-size="small" font-family="monospace" font-weight="bold" text-anchor="end" transform="rotate(-60, 290.875, 512.4)">
railsbench
</text>
<rect x="308.5" y="444.350085653991" width="8.8125" height="53.64991434600892" fill="#7070f8" data-tooltip="1.00x baseline speed (No JIT)"/>
<line x1="308.5" y1="444.3284673213216" x2="317.3125" y2="444.3284673213216" stroke="#000"/>
<line x1="308.5" y1="444.37170398666035" x2="317.3125" y2="444.37170398666035" stroke="#000"/>
<line x1="312.90625" y1="444.3284673213216" x2="312.90625" y2="444.37170398666035" stroke="#000"/>
<rect x="317.3125" y="415.03394869613" width="8.8125" height="82.96605130386995" fill="orange" data-tooltip="1.55x baseline speed (MJIT)"/>
<line x1="317.3125" y1="414.5279923443057" x2="326.125" y2="414.5279923443057" stroke="#000"/>
<line x1="317.3125" y1="415.5399050479543" x2="326.125" y2="415.5399050479543" stroke="#000"/>
<line x1="321.71875" y1="414.5279923443057" x2="321.71875" y2="415.5399050479543" stroke="#000"/>
<rect x="326.125" y="428.498137956214" width="8.8125" height="69.5018620437859" fill="green" data-tooltip="1.30x baseline speed (YJIT)"/>
<line x1="326.125" y1="428.4450780281812" x2="334.9375" y2="428.4450780281812" stroke="#000"/>
<line x1="326.125" y1="428.55119788424685" x2="334.9375" y2="428.55119788424685" stroke="#000"/>
<line x1="330.53125" y1="428.4450780281812" x2="330.53125" y2="428.55119788424685" stroke="#000"/>
<line x1="326.125" y1="498.0" x2="326.125" y2="502.79999999999995" stroke="#000"/>
<text x="326.125" y="512.4" fill="#111" font-size="small" font-family="monospace" font-weight="bold" text-anchor="end" transform="rotate(-60, 326.125, 512.4)">
binarytrees
</text>
<rect x="343.75" y="444.350085653991" width="8.8125" height="53.64991434600892" fill="#7070f8" data-tooltip="1.00x baseline speed (No JIT)"/>
<line x1="343.75" y1="444.3278645873796" x2="352.5625" y2="444.3278645873796" stroke="#000"/>
<line x1="343.75" y1="444.37230672060235" x2="352.5625" y2="444.37230672060235" stroke="#000"/>
<line x1="348.15625" y1="444.3278645873796" x2="348.15625" y2="444.37230672060235" stroke="#000"/>
<rect x="352.5625" y="430.77544996195684" width="8.8125" height="67.22455003804312" fill="orange" data-tooltip="1.25x baseline speed (MJIT)"/>
<line x1="352.5625" y1="430.7392273621636" x2="361.375" y2="430.7392273621636" stroke="#000"/>
<line x1="352.5625" y1="430.8116725617501" x2="361.375" y2="430.8116725617501" stroke="#000"/>
<line x1="356.96875" y1="430.7392273621636" x2="356.96875" y2="430.8116725617501" stroke="#000"/>
<rect x="361.375" y="416.98299378824083" width="8.8125" height="81.01700621175905" fill="green" data-tooltip="1.51x baseline speed (YJIT)"/>
<line x1="361.375" y1="416.93024864606963" x2="370.1875" y2="416.93024864606963" stroke="#000"/>
<line x1="361.375" y1="417.035738930412" x2="370.1875" y2="417.035738930412" stroke="#000"/>
<line x1="365.78125" y1="416.93024864606963" x2="365.78125" y2="417.035738930412" stroke="#000"/>
<line x1="361.375" y1="498.0" x2="361.375" y2="502.79999999999995" stroke="#000"/>
<text x="361.375" y="512.4" fill="#111" font-size="small" font-family="monospace" font-weight="bold" text-anchor="end" transform="rotate(-60, 361.375, 512.4)">
chunky_png
</text>
<rect x="379.0" y="444.350085653991" width="8.8125" height="53.64991434600892" fill="#7070f8" data-tooltip="1.00x baseline speed (No JIT)"/>
<line x1="379.0" y1="444.0454008285461" x2="387.8125" y2="444.0454008285461" stroke="#000"/>
<line x1="379.0" y1="444.65477047943585" x2="387.8125" y2="444.65477047943585" stroke="#000"/>
<line x1="383.40625" y1="444.0454008285461" x2="383.40625" y2="444.65477047943585" stroke="#000"/>
<rect x="387.8125" y="440.47600704772265" width="8.8125" height="57.52399295227733" fill="orange" data-tooltip="1.07x baseline speed (MJIT)"/>
<line x1="387.8125" y1="439.9413897017487" x2="396.625" y2="439.9413897017487" stroke="#000"/>
<line x1="387.8125" y1="441.0106243936966" x2="396.625" y2="441.0106243936966" stroke="#000"/>
<line x1="392.21875" y1="439.9413897017487" x2="392.21875" y2="441.0106243936966" stroke="#000"/>
<rect x="396.625" y="436.7963640021577" width="8.8125" height="61.203635997842234" fill="green" data-tooltip="1.14x baseline speed (YJIT)"/>
<line x1="396.625" y1="436.3123242269605" x2="405.4375" y2="436.3123242269605" stroke="#000"/>
<line x1="396.625" y1="437.2804037773549" x2="405.4375" y2="437.2804037773549" stroke="#000"/>
<line x1="401.03125" y1="436.3123242269605" x2="401.03125" y2="437.2804037773549" stroke="#000"/>
<line x1="396.625" y1="498.0" x2="396.625" y2="502.79999999999995" stroke="#000"/>
<text x="396.625" y="512.4" fill="#111" font-size="small" font-family="monospace" font-weight="bold" text-anchor="end" transform="rotate(-60, 396.625, 512.4)">
erubi
</text>
<rect x="414.25" y="444.350085653991" width="8.8125" height="53.64991434600892" fill="#7070f8" data-tooltip="1.00x baseline speed (No JIT)"/>
<line x1="414.25" y1="442.9064615349354" x2="423.0625" y2="442.9064615349354" stroke="#000"/>
<line x1="414.25" y1="445.7937097730466" x2="423.0625" y2="445.7937097730466" stroke="#000"/>
<line x1="418.65625" y1="442.9064615349354" x2="418.65625" y2="445.7937097730466" stroke="#000"/>
<rect x="423.0625" y="445.95671358979365" width="8.8125" height="52.0432864102063" fill="orange" data-tooltip="0.97x baseline speed (MJIT)"/>
<line x1="423.0625" y1="444.07983676856816" x2="431.875" y2="444.07983676856816" stroke="#000"/>
<line x1="423.0625" y1="447.8335904110192" x2="431.875" y2="447.8335904110192" stroke="#000"/>
<line x1="427.46875" y1="444.07983676856816" x2="427.46875" y2="447.8335904110192" stroke="#000"/>
<rect x="431.875" y="424.84465509603064" width="8.8125" height="73.15534490396934" fill="green" data-tooltip="1.36x baseline speed (YJIT)"/>
<line x1="431.875" y1="421.63086361668115" x2="440.6875" y2="421.63086361668115" stroke="#000"/>
<line x1="431.875" y1="428.05844657538006" x2="440.6875" y2="428.05844657538006" stroke="#000"/>
<line x1="436.28125" y1="421.63086361668115" x2="436.28125" y2="428.05844657538006" stroke="#000"/>
<line x1="431.875" y1="498.0" x2="431.875" y2="502.79999999999995" stroke="#000"/>
<text x="431.875" y="512.4" fill="#111" font-size="small" font-family="monospace" font-weight="bold" text-anchor="end" transform="rotate(-60, 431.875, 512.4)">
erubi_rails
</text>
<rect x="449.5" y="444.350085653991" width="8.8125" height="53.64991434600892" fill="#7070f8" data-tooltip="1.00x baseline speed (No JIT)"/>
<line x1="449.5" y1="444.28485154110086" x2="458.3125" y2="444.28485154110086" stroke="#000"/>
<line x1="449.5" y1="444.4153197668811" x2="458.3125" y2="444.4153197668811" stroke="#000"/>
<line x1="453.90625" y1="444.28485154110086" x2="453.90625" y2="444.4153197668811" stroke="#000"/>
<rect x="458.3125" y="404.1514018406989" width="8.8125" height="93.84859815930106" fill="orange" data-tooltip="1.75x baseline speed (MJIT)"/>
<line x1="458.3125" y1="404.03234918945475" x2="467.125" y2="404.03234918945475" stroke="#000"/>
<line x1="458.3125" y1="404.27045449194304" x2="467.125" y2="404.27045449194304" stroke="#000"/>
<line x1="462.71875" y1="404.03234918945475" x2="462.71875" y2="404.27045449194304" stroke="#000"/>
<rect x="467.125" y="444.3957005776341" width="8.8125" height="53.60429942236591" fill="green" data-tooltip="1.00x baseline speed (YJIT)"/>
<line x1="467.125" y1="444.3051717166226" x2="475.9375" y2="444.3051717166226" stroke="#000"/>
<line x1="467.125" y1="444.4862294386455" x2="475.9375" y2="444.4862294386455" stroke="#000"/>
<line x1="471.53125" y1="444.3051717166226" x2="471.53125" y2="444.4862294386455" stroke="#000"/>
<line x1="467.125" y1="498.0" x2="467.125" y2="502.79999999999995" stroke="#000"/>
<text x="467.125" y="512.4" fill="#111" font-size="small" font-family="monospace" font-weight="bold" text-anchor="end" transform="rotate(-60, 467.125, 512.4)">
fannkuchredux
</text>
<rect x="484.75" y="444.350085653991" width="8.8125" height="53.64991434600892" fill="#7070f8" data-tooltip="1.00x baseline speed (No JIT)"/>
<line x1="484.75" y1="444.0538894103408" x2="493.5625" y2="444.0538894103408" stroke="#000"/>
<line x1="484.75" y1="444.6462818976412" x2="493.5625" y2="444.6462818976412" stroke="#000"/>
<line x1="489.15625" y1="444.0538894103408" x2="489.15625" y2="444.6462818976412" stroke="#000"/>
<rect x="493.5625" y="433.0249360575908" width="8.8125" height="64.9750639424092" fill="orange" data-tooltip="1.21x baseline speed (MJIT)"/>
<line x1="493.5625" y1="432.23898886022937" x2="502.375" y2="432.23898886022937" stroke="#000"/>
<line x1="493.5625" y1="433.8108832549522" x2="502.375" y2="433.8108832549522" stroke="#000"/>
<line x1="497.96875" y1="432.23898886022937" x2="497.96875" y2="433.8108832549522" stroke="#000"/>
<rect x="502.375" y="424.8207460621154" width="8.8125" height="73.17925393788452" fill="green" data-tooltip="1.36x baseline speed (YJIT)"/>
<line x1="502.375" y1="424.10997026542606" x2="511.1875" y2="424.10997026542606" stroke="#000"/>
<line x1="502.375" y1="425.53152185880475" x2="511.1875" y2="425.53152185880475" stroke="#000"/>
<line x1="506.78124999999994" y1="424.10997026542606" x2="506.78124999999994" y2="425.53152185880475" stroke="#000"/>
<line x1="502.375" y1="498.0" x2="502.375" y2="502.79999999999995" stroke="#000"/>
<text x="502.375" y="512.4" fill="#111" font-size="small" font-family="monospace" font-weight="bold" text-anchor="end" transform="rotate(-60, 502.375, 512.4)">
lee
</text>
<rect x="519.9999999999999" y="444.350085653991" width="8.8125" height="53.64991434600892" fill="#7070f8" data-tooltip="1.00x baseline speed (No JIT)"/>
<line x1="519.9999999999999" y1="444.3190641497843" x2="528.8124999999999" y2="444.3190641497843" stroke="#000"/>
<line x1="519.9999999999999" y1="444.38110715819766" x2="528.8124999999999" y2="444.38110715819766" stroke="#000"/>
<line x1="524.4062499999999" y1="444.3190641497843" x2="524.4062499999999" y2="444.38110715819766" stroke="#000"/>
<rect x="528.8124999999999" y="412.4851485590631" width="8.8125" height="85.51485144093685" fill="orange" data-tooltip="1.59x baseline speed (MJIT)"/>
<line x1="528.8124999999999" y1="412.2948865310369" x2="537.6249999999999" y2="412.2948865310369" stroke="#000"/>
<line x1="528.8124999999999" y1="412.6754105870893" x2="537.6249999999999" y2="412.6754105870893" stroke="#000"/>
<line x1="533.2187499999999" y1="412.2948865310369" x2="533.2187499999999" y2="412.6754105870893" stroke="#000"/>
<rect x="537.6249999999999" y="430.33741177827375" width="8.8125" height="67.66258822172624" fill="green" data-tooltip="1.26x baseline speed (YJIT)"/>
<line x1="537.6249999999999" y1="430.2522387127428" x2="546.4374999999999" y2="430.2522387127428" stroke="#000"/>
<line x1="537.6249999999999" y1="430.42258484380477" x2="546.4374999999999" y2="430.42258484380477" stroke="#000"/>
<line x1="542.0312499999999" y1="430.2522387127428" x2="542.0312499999999" y2="430.42258484380477" stroke="#000"/>
<line x1="537.6249999999999" y1="498.0" x2="537.6249999999999" y2="502.79999999999995" stroke="#000"/>
<text x="537.6249999999999" y="512.4" fill="#111" font-size="small" font-family="monospace" font-weight="bold" text-anchor="end" transform="rotate(-60, 537.6249999999999, 512.4)">
nbody
</text>
<rect x="555.2499999999999" y="444.350085653991" width="8.8125" height="53.64991434600892" fill="#7070f8" data-tooltip="1.00x baseline speed (No JIT)"/>
<line x1="555.2499999999999" y1="444.1206536967021" x2="564.0624999999999" y2="444.1206536967021" stroke="#000"/>
<line x1="555.2499999999999" y1="444.57951761127987" x2="564.0624999999999" y2="444.57951761127987" stroke="#000"/>
<line x1="559.6562499999999" y1="444.1206536967021" x2="559.6562499999999" y2="444.57951761127987" stroke="#000"/>
<rect x="564.0624999999999" y="378.36546204349753" width="8.8125" height="119.63453795650241" fill="orange" data-tooltip="2.23x baseline speed (MJIT)"/>
<line x1="564.0624999999999" y1="377.4494380761337" x2="572.8749999999999" y2="377.4494380761337" stroke="#000"/>
<line x1="564.0624999999999" y1="379.2814860108614" x2="572.8749999999999" y2="379.2814860108614" stroke="#000"/>
<line x1="568.4687499999999" y1="377.4494380761337" x2="568.4687499999999" y2="379.2814860108614" stroke="#000"/>
<rect x="572.8749999999999" y="401.7945978767606" width="8.8125" height="96.20540212323945" fill="green" data-tooltip="1.79x baseline speed (YJIT)"/>
<line x1="572.8749999999999" y1="401.0981994581364" x2="581.6874999999999" y2="401.0981994581364" stroke="#000"/>
<line x1="572.8749999999999" y1="402.4909962953848" x2="581.6874999999999" y2="402.4909962953848" stroke="#000"/>
<line x1="577.2812499999999" y1="401.0981994581364" x2="577.2812499999999" y2="402.4909962953848" stroke="#000"/>
<line x1="572.8749999999999" y1="498.0" x2="572.8749999999999" y2="502.79999999999995" stroke="#000"/>
<text x="572.8749999999999" y="512.4" fill="#111" font-size="small" font-family="monospace" font-weight="bold" text-anchor="end" transform="rotate(-60, 572.8749999999999, 512.4)">
optcarrot
</text>
<rect x="590.4999999999999" y="444.350085653991" width="8.8125" height="53.64991434600892" fill="#7070f8" data-tooltip="1.00x baseline speed (No JIT)"/>
<line x1="590.4999999999999" y1="444.1391924286299" x2="599.3124999999999" y2="444.1391924286299" stroke="#000"/>
<line x1="590.4999999999999" y1="444.5609788793521" x2="599.3124999999999" y2="444.5609788793521" stroke="#000"/>
<line x1="594.9062499999999" y1="444.1391924286299" x2="594.9062499999999" y2="444.5609788793521" stroke="#000"/>
<rect x="599.3124999999999" y="414.11313969973156" width="8.8125" height="83.88686030026832" fill="orange" data-tooltip="1.56x baseline speed (MJIT)"/>
<line x1="599.3124999999999" y1="413.5271614368832" x2="608.1249999999999" y2="413.5271614368832" stroke="#000"/>
<line x1="599.3124999999999" y1="414.6991179625799" x2="608.1249999999999" y2="414.6991179625799" stroke="#000"/>
<line x1="603.7187499999999" y1="413.5271614368832" x2="603.7187499999999" y2="414.6991179625799" stroke="#000"/>
<rect x="608.1249999999999" y="396.8066200994121" width="8.8125" height="101.19337990058777" fill="green" data-tooltip="1.89x baseline speed (YJIT)"/>
<line x1="608.1249999999999" y1="395.9479599508085" x2="616.9374999999999" y2="395.9479599508085" stroke="#000"/>
<line x1="608.1249999999999" y1="397.66528024801573" x2="616.9374999999999" y2="397.66528024801573" stroke="#000"/>
<line x1="612.5312499999999" y1="395.9479599508085" x2="612.5312499999999" y2="397.66528024801573" stroke="#000"/>
<line x1="608.1249999999999" y1="498.0" x2="608.1249999999999" y2="502.79999999999995" stroke="#000"/>
<text x="608.1249999999999" y="512.4" fill="#111" font-size="small" font-family="monospace" font-weight="bold" text-anchor="end" transform="rotate(-60, 608.1249999999999, 512.4)">
rubykon
</text>
<rect x="625.7499999999999" y="444.350085653991" width="8.8125" height="53.64991434600892" fill="#7070f8" data-tooltip="1.00x baseline speed (No JIT)"/>
<line x1="625.7499999999999" y1="444.34580433518323" x2="634.5624999999999" y2="444.34580433518323" stroke="#000"/>
<line x1="625.7499999999999" y1="444.35436697279874" x2="634.5624999999999" y2="444.35436697279874" stroke="#000"/>
<line x1="630.1562499999999" y1="444.34580433518323" x2="630.1562499999999" y2="444.35436697279874" stroke="#000"/>
<rect x="634.5624999999999" y="465.82819563142294" width="8.8125" height="32.171804368577035" fill="orange" data-tooltip="0.60x baseline speed (MJIT)"/>
<line x1="634.5624999999999" y1="464.492130346112" x2="643.3749999999999" y2="464.492130346112" stroke="#000"/>
<line x1="634.5624999999999" y1="467.16426091673395" x2="643.3749999999999" y2="467.16426091673395" stroke="#000"/>
<line x1="638.9687499999999" y1="464.492130346112" x2="638.9687499999999" y2="467.16426091673395" stroke="#000"/>
<rect x="643.3749999999999" y="155.46925016155265" width="8.8125" height="342.53074983844726" fill="green" data-tooltip="6.38x baseline speed (YJIT)"/>
<line x1="643.3749999999999" y1="155.1476508502111" x2="652.1874999999999" y2="155.1476508502111" stroke="#000"/>
<line x1="643.3749999999999" y1="155.79084947289422" x2="652.1874999999999" y2="155.79084947289422" stroke="#000"/>
<line x1="647.7812499999999" y1="155.1476508502111" x2="647.7812499999999" y2="155.79084947289422" stroke="#000"/>
<line x1="643.3749999999999" y1="498.0" x2="643.3749999999999" y2="502.79999999999995" stroke="#000"/>
<text x="643.3749999999999" y="512.4" fill="#111" font-size="small" font-family="monospace" font-weight="bold" text-anchor="end" transform="rotate(-60, 643.3749999999999, 512.4)">
30k_ifelse
</text>
<rect x="660.9999999999999" y="444.350085653991" width="8.8125" height="53.64991434600892" fill="#7070f8" data-tooltip="1.00x baseline speed (No JIT)"/>
<line x1="660.9999999999999" y1="444.34659375989884" x2="669.8124999999999" y2="444.34659375989884" stroke="#000"/>
<line x1="660.9999999999999" y1="444.35357754808314" x2="669.8124999999999" y2="444.35357754808314" stroke="#000"/>
<line x1="665.4062499999999" y1="444.34659375989884" x2="665.4062499999999" y2="444.35357754808314" stroke="#000"/>
<rect x="669.8124999999999" y="462.9198767130748" width="8.8125" height="35.08012328692518" fill="orange" data-tooltip="0.65x baseline speed (MJIT)"/>
<line x1="669.8124999999999" y1="456.2739447916267" x2="678.6249999999999" y2="456.2739447916267" stroke="#000"/>
<line x1="669.8124999999999" y1="469.56580863452297" x2="678.6249999999999" y2="469.56580863452297" stroke="#000"/>
<line x1="674.2187499999999" y1="456.2739447916267" x2="674.2187499999999" y2="469.56580863452297" stroke="#000"/>
<rect x="678.6249999999999" y="100.19999999999999" width="8.8125" height="397.79999999999995" fill="green" data-tooltip="7.41x baseline speed (YJIT)"/>
<line x1="678.6249999999999" y1="100.1079330444625" x2="687.4374999999999" y2="100.1079330444625" stroke="#000"/>
<line x1="678.6249999999999" y1="100.29206695553748" x2="687.4374999999999" y2="100.29206695553748" stroke="#000"/>
<line x1="683.0312499999999" y1="100.1079330444625" x2="683.0312499999999" y2="100.29206695553748" stroke="#000"/>
<line x1="678.6249999999999" y1="498.0" x2="678.6249999999999" y2="502.79999999999995" stroke="#000"/>
<text x="678.6249999999999" y="512.4" fill="#111" font-size="small" font-family="monospace" font-weight="bold" text-anchor="end" transform="rotate(-60, 678.6249999999999, 512.4)">
30k_methods
</text>
<rect x="696.2499999999999" y="444.350085653991" width="8.8125" height="53.64991434600892" fill="#7070f8" data-tooltip="1.00x baseline speed (No JIT)"/>
<line x1="696.2499999999999" y1="444.2819957283765" x2="705.0624999999999" y2="444.2819957283765" stroke="#000"/>
<line x1="696.2499999999999" y1="444.4181755796055" x2="705.0624999999999" y2="444.4181755796055" stroke="#000"/>
<line x1="700.6562499999999" y1="444.2819957283765" x2="700.6562499999999" y2="444.4181755796055" stroke="#000"/>
<rect x="705.0624999999999" y="413.1930914243039" width="8.8125" height="84.806908575696" fill="orange" data-tooltip="1.58x baseline speed (MJIT)"/>
<line x1="705.0624999999999" y1="412.5911572991771" x2="713.8749999999999" y2="412.5911572991771" stroke="#000"/>
<line x1="705.0624999999999" y1="413.79502554943065" x2="713.8749999999999" y2="413.79502554943065" stroke="#000"/>
<line x1="709.4687499999999" y1="412.5911572991771" x2="709.4687499999999" y2="413.79502554943065" stroke="#000"/>
<rect x="713.8749999999999" y="370.9703522729589" width="8.8125" height="127.02964772704098" fill="green" data-tooltip="2.37x baseline speed (YJIT)"/>
<line x1="713.8749999999999" y1="369.9807465148542" x2="722.6874999999999" y2="369.9807465148542" stroke="#000"/>
<line x1="713.8749999999999" y1="371.9599580310636" x2="722.6874999999999" y2="371.9599580310636" stroke="#000"/>
<line x1="718.2812499999999" y1="369.9807465148542" x2="718.2812499999999" y2="371.9599580310636" stroke="#000"/>
<line x1="713.8749999999999" y1="498.0" x2="713.8749999999999" y2="502.79999999999995" stroke="#000"/>
<text x="713.8749999999999" y="512.4" fill="#111" font-size="small" font-family="monospace" font-weight="bold" text-anchor="end" transform="rotate(-60, 713.8749999999999, 512.4)">
cfunc_itself
</text>
<rect x="731.4999999999999" y="444.350085653991" width="8.8125" height="53.64991434600892" fill="#7070f8" data-tooltip="1.00x baseline speed (No JIT)"/>
<line x1="731.4999999999999" y1="444.2533858054867" x2="740.3124999999999" y2="444.2533858054867" stroke="#000"/>
<line x1="731.4999999999999" y1="444.4467855024953" x2="740.3124999999999" y2="444.4467855024953" stroke="#000"/>
<line x1="735.9062499999999" y1="444.2533858054867" x2="735.9062499999999" y2="444.4467855024953" stroke="#000"/>
<rect x="740.3124999999999" y="329.56455421517757" width="8.8125" height="168.43544578482238" fill="orange" data-tooltip="3.14x baseline speed (MJIT)"/>
<line x1="740.3124999999999" y1="329.08808022041893" x2="749.1249999999999" y2="329.08808022041893" stroke="#000"/>
<line x1="740.3124999999999" y1="330.0410282099362" x2="749.1249999999999" y2="330.0410282099362" stroke="#000"/>
<line x1="744.7187499999999" y1="329.08808022041893" x2="744.7187499999999" y2="330.0410282099362" stroke="#000"/>
<rect x="749.1249999999999" y="268.5987878363537" width="8.8125" height="229.40121216364625" fill="green" data-tooltip="4.28x baseline speed (YJIT)"/>
<line x1="749.1249999999999" y1="268.17527090737747" x2="757.9374999999999" y2="268.17527090737747" stroke="#000"/>
<line x1="749.1249999999999" y1="269.02230476533" x2="757.9374999999999" y2="269.02230476533" stroke="#000"/>
<line x1="753.5312499999999" y1="268.17527090737747" x2="753.5312499999999" y2="269.02230476533" stroke="#000"/>
<line x1="749.1249999999999" y1="498.0" x2="749.1249999999999" y2="502.79999999999995" stroke="#000"/>
<text x="749.1249999999999" y="512.4" fill="#111" font-size="small" font-family="monospace" font-weight="bold" text-anchor="end" transform="rotate(-60, 749.1249999999999, 512.4)">
fib
</text>
<rect x="766.7499999999999" y="444.350085653991" width="8.8125" height="53.64991434600892" fill="#7070f8" data-tooltip="1.00x baseline speed (No JIT)"/>
<line x1="766.7499999999999" y1="444.06995775042833" x2="775.5624999999999" y2="444.06995775042833" stroke="#000"/>
<line x1="766.7499999999999" y1="444.63021355755365" x2="775.5624999999999" y2="444.63021355755365" stroke="#000"/>
<line x1="771.1562499999999" y1="444.06995775042833" x2="771.1562499999999" y2="444.63021355755365" stroke="#000"/>
<rect x="775.5624999999999" y="312.08062891153173" width="8.8125" height="185.9193710884682" fill="orange" data-tooltip="3.47x baseline speed (MJIT)"/>
<line x1="775.5624999999999" y1="205.58074444097494" x2="784.3749999999999" y2="205.58074444097494" stroke="#000"/>
<line x1="775.5624999999999" y1="418.5805133820885" x2="784.3749999999999" y2="418.5805133820885" stroke="#000"/>
<line x1="779.9687499999999" y1="205.58074444097494" x2="779.9687499999999" y2="418.5805133820885" stroke="#000"/>
<rect x="784.3749999999999" y="361.1345457521845" width="8.8125" height="136.86545424781545" fill="green" data-tooltip="2.55x baseline speed (YJIT)"/>
<line x1="784.3749999999999" y1="360.401458746423" x2="793.1874999999999" y2="360.401458746423" stroke="#000"/>
<line x1="784.3749999999999" y1="361.86763275794607" x2="793.1874999999999" y2="361.86763275794607" stroke="#000"/>
<line x1="788.7812499999999" y1="360.401458746423" x2="788.7812499999999" y2="361.86763275794607" stroke="#000"/>
<line x1="784.3749999999999" y1="498.0" x2="784.3749999999999" y2="502.79999999999995" stroke="#000"/>
<text x="784.3749999999999" y="512.4" fill="#111" font-size="small" font-family="monospace" font-weight="bold" text-anchor="end" transform="rotate(-60, 784.3749999999999, 512.4)">
getivar
</text>
<rect x="801.9999999999999" y="444.350085653991" width="8.8125" height="53.64991434600892" fill="#7070f8" data-tooltip="1.00x baseline speed (No JIT)"/>
<line x1="801.9999999999999" y1="444.3034203447062" x2="810.8124999999999" y2="444.3034203447062" stroke="#000"/>
<line x1="801.9999999999999" y1="444.39675096327585" x2="810.8124999999999" y2="444.39675096327585" stroke="#000"/>
<line x1="806.4062499999999" y1="444.3034203447062" x2="806.4062499999999" y2="444.39675096327585" stroke="#000"/>
<rect x="810.8124999999999" y="430.61324391849536" width="8.8125" height="67.38675608150461" fill="orange" data-tooltip="1.26x baseline speed (MJIT)"/>
<line x1="810.8124999999999" y1="429.7000051157307" x2="819.6249999999999" y2="429.7000051157307" stroke="#000"/>
<line x1="810.8124999999999" y1="431.52648272126004" x2="819.6249999999999" y2="431.52648272126004" stroke="#000"/>
<line x1="815.2187499999999" y1="429.7000051157307" x2="815.2187499999999" y2="431.52648272126004" stroke="#000"/>
<rect x="819.6249999999999" y="209.1849684774984" width="8.8125" height="288.81503152250156" fill="green" data-tooltip="5.38x baseline speed (YJIT)"/>
<line x1="819.6249999999999" y1="208.66436352108687" x2="828.4374999999999" y2="208.66436352108687" stroke="#000"/>
<line x1="819.6249999999999" y1="209.70557343390993" x2="828.4374999999999" y2="209.70557343390993" stroke="#000"/>
<line x1="824.0312499999999" y1="208.66436352108687" x2="824.0312499999999" y2="209.70557343390993" stroke="#000"/>
<line x1="819.6249999999999" y1="498.0" x2="819.6249999999999" y2="502.79999999999995" stroke="#000"/>
<text x="819.6249999999999" y="512.4" fill="#111" font-size="small" font-family="monospace" font-weight="bold" text-anchor="end" transform="rotate(-60, 819.6249999999999, 512.4)">
keyword_args
</text>
<rect x="837.2499999999999" y="444.350085653991" width="8.8125" height="53.64991434600892" fill="#7070f8" data-tooltip="1.00x baseline speed (No JIT)"/>
<line x1="837.2499999999999" y1="444.30187942035917" x2="846.0624999999999" y2="444.30187942035917" stroke="#000"/>
<line x1="837.2499999999999" y1="444.3982918876228" x2="846.0624999999999" y2="444.3982918876228" stroke="#000"/>
<line x1="841.6562499999999" y1="444.30187942035917" x2="841.6562499999999" y2="444.3982918876228" stroke="#000"/>
<rect x="846.0624999999999" y="434.6200341820546" width="8.8125" height="63.37996581794537" fill="orange" data-tooltip="1.18x baseline speed (MJIT)"/>
<line x1="846.0624999999999" y1="434.04132131613295" x2="854.8749999999999" y2="434.04132131613295" stroke="#000"/>
<line x1="846.0624999999999" y1="435.1987470479763" x2="854.8749999999999" y2="435.1987470479763" stroke="#000"/>
<line x1="850.4687499999999" y1="434.04132131613295" x2="850.4687499999999" y2="435.1987470479763" stroke="#000"/>
<rect x="854.8749999999999" y="418.99167459171827" width="8.8125" height="79.00832540828173" fill="green" data-tooltip="1.47x baseline speed (YJIT)"/>
<line x1="854.8749999999999" y1="418.8677026461912" x2="863.6874999999999" y2="418.8677026461912" stroke="#000"/>
<line x1="854.8749999999999" y1="419.11564653724525" x2="863.6874999999999" y2="419.11564653724525" stroke="#000"/>
<line x1="859.2812499999999" y1="418.8677026461912" x2="859.2812499999999" y2="419.11564653724525" stroke="#000"/>
<line x1="854.8749999999999" y1="498.0" x2="854.8749999999999" y2="502.79999999999995" stroke="#000"/>
<text x="854.8749999999999" y="512.4" fill="#111" font-size="small" font-family="monospace" font-weight="bold" text-anchor="end" transform="rotate(-60, 854.8749999999999, 512.4)">
respond_to
</text>
<rect x="872.4999999999999" y="444.350085653991" width="8.8125" height="53.64991434600892" fill="#7070f8" data-tooltip="1.00x baseline speed (No JIT)"/>
<line x1="872.4999999999999" y1="444.09954573300183" x2="881.3125" y2="444.09954573300183" stroke="#000"/>
<line x1="872.4999999999999" y1="444.60062557498014" x2="881.3125" y2="444.60062557498014" stroke="#000"/>
<line x1="876.9062499999999" y1="444.09954573300183" x2="876.9062499999999" y2="444.60062557498014" stroke="#000"/>
<rect x="881.3125" y="301.84404744959915" width="8.8125" height="196.15595255040077" fill="orange" data-tooltip="3.66x baseline speed (MJIT)"/>
<line x1="881.3125" y1="177.86008274317834" x2="890.125" y2="177.86008274317834" stroke="#000"/>
<line x1="881.3125" y1="425.82801215601995" x2="890.125" y2="425.82801215601995" stroke="#000"/>
<line x1="885.7187499999999" y1="177.86008274317834" x2="885.7187499999999" y2="425.82801215601995" stroke="#000"/>
<rect x="890.125" y="399.12235310631786" width="8.8125" height="98.87764689368207" fill="green" data-tooltip="1.84x baseline speed (YJIT)"/>
<line x1="890.125" y1="398.4508146427579" x2="898.9375" y2="398.4508146427579" stroke="#000"/>
<line x1="890.125" y1="399.7938915698778" x2="898.9375" y2="399.7938915698778" stroke="#000"/>
<line x1="894.5312499999999" y1="398.4508146427579" x2="894.5312499999999" y2="399.7938915698778" stroke="#000"/>
<line x1="890.125" y1="498.0" x2="890.125" y2="502.79999999999995" stroke="#000"/>
<text x="890.125" y="512.4" fill="#111" font-size="small" font-family="monospace" font-weight="bold" text-anchor="end" transform="rotate(-60, 890.125, 512.4)">
setivar
</text>
<rect x="907.75" y="444.350085653991" width="8.8125" height="53.64991434600892" fill="#7070f8" data-tooltip="1.00x baseline speed (No JIT)"/>
<line x1="907.75" y1="443.93415467780505" x2="916.5625" y2="443.93415467780505" stroke="#000"/>
<line x1="907.75" y1="444.7660166301769" x2="916.5625" y2="444.7660166301769" stroke="#000"/>
<line x1="912.1562499999999" y1="443.93415467780505" x2="912.1562499999999" y2="444.7660166301769" stroke="#000"/>
<rect x="916.5625" y="423.03142029822766" width="8.8125" height="74.96857970177226" fill="orange" data-tooltip="1.40x baseline speed (MJIT)"/>
<line x1="916.5625" y1="422.1555243737134" x2="925.375" y2="422.1555243737134" stroke="#000"/>
<line x1="916.5625" y1="423.907316222742" x2="925.375" y2="423.907316222742" stroke="#000"/>
<line x1="920.9687499999999" y1="422.1555243737134" x2="920.9687499999999" y2="423.907316222742" stroke="#000"/>
<rect x="925.375" y="354.7639108275412" width="8.8125" height="143.23608917245875" fill="green" data-tooltip="2.67x baseline speed (YJIT)"/>
<line x1="925.375" y1="352.01744064041753" x2="934.1875" y2="352.01744064041753" stroke="#000"/>
<line x1="925.375" y1="357.510381014665" x2="934.1875" y2="357.510381014665" stroke="#000"/>
<line x1="929.7812499999999" y1="352.01744064041753" x2="929.7812499999999" y2="357.510381014665" stroke="#000"/>
<line x1="925.375" y1="498.0" x2="925.375" y2="502.79999999999995" stroke="#000"/>
<text x="925.375" y="512.4" fill="#111" font-size="small" font-family="monospace" font-weight="bold" text-anchor="end" transform="rotate(-60, 925.375, 512.4)">
str_concat
</text>
</svg>