<svg viewBox="0 0 1000 600" xmlns="http://www.w3.org/2000/svg" xmlns:xlink="http://www.w3.org/1999/xlink" width="100%" height="100%">

<rect x="50.0" y="30.0" width="940.0" height="467.99999999999994" stroke="#000" fill="#EEE"/>
<line x1="42.0" y1="497.9999999999999" x2="50.0" y2="497.9999999999999" stroke="#000"/>
<text x="26.000000000000004" y="497.9999999999999" text-anchor="end" font-weight="bold" font-size="small" fill="#111">
0.0
</text>
<line x1="42.0" y1="443.5781398932098" x2="50.0" y2="443.5781398932098" stroke="#000"/>
<text x="26.000000000000004" y="443.5781398932098" text-anchor="end" font-weight="bold" font-size="small" fill="#111">
0.2
</text>
<line x1="42.0" y1="389.15627978641976" x2="50.0" y2="389.15627978641976" stroke="#000"/>
<text x="26.000000000000004" y="389.15627978641976" text-anchor="end" font-weight="bold" font-size="small" fill="#111">
0.4
</text>
<line x1="42.0" y1="334.7344196796297" x2="50.0" y2="334.7344196796297" stroke="#000"/>
<text x="26.000000000000004" y="334.7344196796297" text-anchor="end" font-weight="bold" font-size="small" fill="#111">
0.6
</text>
<line x1="42.0" y1="280.31255957283963" x2="50.0" y2="280.31255957283963" stroke="#000"/>
<text x="26.000000000000004" y="280.31255957283963" text-anchor="end" font-weight="bold" font-size="small" fill="#111">
0.8
</text>
<line x1="42.0" y1="225.89069946604957" x2="50.0" y2="225.89069946604957" stroke="#000"/>
<text x="26.000000000000004" y="225.89069946604957" text-anchor="end" font-weight="bold" font-size="small" fill="#111">
1.0
</text>
<line x1="42.0" y1="171.4688393592596" x2="50.0" y2="171.4688393592596" stroke="#000"/>
<text x="26.000000000000004" y="171.4688393592596" text-anchor="end" font-weight="bold" font-size="small" fill="#111">
1.2
</text>
<line x1="42.0" y1="117.04697925246951" x2="50.0" y2="117.04697925246951" stroke="#000"/>
<text x="26.000000000000004" y="117.04697925246951" text-anchor="end" font-weight="bold" font-size="small" fill="#111">
1.4
</text>
<rect x="162.74999999999997" y="36.00000000000001" width="80.0" height="18.0" fill="#7070f8" stroke="#888"/>
<text x="202.75" y="52.50000000000001" font-size="small" text-anchor="middle" font-weight="bold" fill="#EEE">
No JIT
</text>
<rect x="374.25" y="36.00000000000001" width="80.0" height="18.0" fill="orange" stroke="#888"/>
<text x="414.25" y="52.50000000000001" font-size="small" text-anchor="middle" font-weight="bold" fill="#EEE">
MJIT3.0
</text>
<rect x="585.7499999999999" y="36.00000000000001" width="80.0" height="18.0" fill="green" stroke="#888"/>
<text x="625.7499999999999" y="52.50000000000001" font-size="small" text-anchor="middle" font-weight="bold" fill="#EEE">
MJIT
</text>
<rect x="797.2499999999999" y="36.00000000000001" width="80.0" height="18.0" fill="#4F3A7A" stroke="#888"/>
<text x="837.2499999999999" y="52.50000000000001" font-size="small" text-anchor="middle" font-weight="bold" fill="#EEE">
YJIT
</text>
<rect x="97.0" y="225.89069946604957" width="24.171428571428574" height="272.1093005339503" fill="#7070f8" data-tooltip="1.00x baseline speed (No JIT)"/>
<line x1="97.0" y1="223.97154198210376" x2="121.17142857142856" y2="223.97154198210376" stroke="#000"/>
<line x1="97.0" y1="227.8098569499954" x2="121.17142857142856" y2="227.8098569499954" stroke="#000"/>
<line x1="109.08571428571429" y1="223.97154198210376" x2="109.08571428571429" y2="227.8098569499954" stroke="#000"/>
<rect x="121.17142857142856" y="246.88361939932088" width="24.171428571428574" height="251.11638060067907" fill="orange" data-tooltip="0.92x baseline speed (MJIT3.0)"/>
<line x1="121.17142857142856" y1="244.53108095654898" x2="145.34285714285713" y2="244.53108095654898" stroke="#000"/>
<line x1="121.17142857142856" y1="249.23615784209275" x2="145.34285714285713" y2="249.23615784209275" stroke="#000"/>
<line x1="133.25714285714284" y1="244.53108095654898" x2="133.25714285714284" y2="249.23615784209275" stroke="#000"/>
<rect x="145.34285714285716" y="254.3315944423161" width="24.171428571428574" height="243.66840555768385" fill="green" data-tooltip="0.90x baseline speed (MJIT)"/>
<line x1="145.34285714285716" y1="252.0043206751698" x2="169.51428571428573" y2="252.0043206751698" stroke="#000"/>
<line x1="145.34285714285716" y1="256.65886820946236" x2="169.51428571428573" y2="256.65886820946236" stroke="#000"/>
<line x1="157.42857142857144" y1="252.0043206751698" x2="157.42857142857144" y2="256.65886820946236" stroke="#000"/>
<rect x="169.51428571428573" y="133.031758952951" width="24.171428571428574" height="364.96824104704893" fill="#4F3A7A" data-tooltip="1.34x baseline speed (YJIT)"/>
<line x1="169.51428571428573" y1="125.78350073605479" x2="193.68571428571428" y2="125.78350073605479" stroke="#000"/>
<line x1="169.51428571428573" y1="140.28001716984724" x2="193.68571428571428" y2="140.28001716984724" stroke="#000"/>
<line x1="181.60000000000002" y1="125.78350073605479" x2="181.60000000000002" y2="140.28001716984724" stroke="#000"/>
<line x1="157.42857142857142" y1="498.0" x2="157.42857142857142" y2="502.79999999999995" stroke="#000"/>
<text x="157.42857142857142" y="512.4" fill="#111" font-size="small" font-family="monospace" font-weight="bold" text-anchor="end" transform="rotate(-60, 157.42857142857142, 512.4)">
activerecord
</text>
<rect x="217.85714285714286" y="225.89069946604957" width="24.171428571428574" height="272.1093005339503" fill="#7070f8" data-tooltip="1.00x baseline speed (No JIT)"/>
<line x1="217.85714285714286" y1="223.98005108462064" x2="242.02857142857144" y2="223.98005108462064" stroke="#000"/>
<line x1="217.85714285714286" y1="227.80134784747852" x2="242.02857142857144" y2="227.80134784747852" stroke="#000"/>
<line x1="229.94285714285715" y1="223.98005108462064" x2="229.94285714285715" y2="227.80134784747852" stroke="#000"/>
<rect x="242.02857142857144" y="200.7168879926022" width="24.171428571428574" height="297.28311200739773" fill="orange" data-tooltip="1.09x baseline speed (MJIT3.0)"/>
<line x1="242.02857142857144" y1="195.9600345283612" x2="266.2" y2="195.9600345283612" stroke="#000"/>
<line x1="242.02857142857144" y1="205.4737414568432" x2="266.2" y2="205.4737414568432" stroke="#000"/>
<line x1="254.11428571428573" y1="195.9600345283612" x2="254.11428571428573" y2="205.4737414568432" stroke="#000"/>
<rect x="290.3714285714286" y="148.14935882543614" width="24.171428571428574" height="349.8506411745638" fill="#4F3A7A" data-tooltip="1.29x baseline speed (YJIT)"/>
<line x1="290.3714285714286" y1="143.10948289830392" x2="314.5428571428572" y2="143.10948289830392" stroke="#000"/>
<line x1="290.3714285714286" y1="153.18923475256835" x2="314.5428571428572" y2="153.18923475256835" stroke="#000"/>
<line x1="302.4571428571429" y1="143.10948289830392" x2="302.4571428571429" y2="153.18923475256835" stroke="#000"/>
<line x1="278.2857142857143" y1="498.0" x2="278.2857142857143" y2="502.79999999999995" stroke="#000"/>
<text x="278.2857142857143" y="512.4" fill="#111" font-size="small" font-family="monospace" font-weight="bold" text-anchor="end" transform="rotate(-60, 278.2857142857143, 512.4)">
hexapdf
</text>
<rect x="338.7142857142857" y="225.89069946604957" width="24.171428571428574" height="272.1093005339503" fill="#7070f8" data-tooltip="1.00x baseline speed (No JIT)"/>
<line x1="338.7142857142857" y1="222.5093018169057" x2="362.8857142857143" y2="222.5093018169057" stroke="#000"/>
<line x1="338.7142857142857" y1="229.27209711519347" x2="362.8857142857143" y2="229.27209711519347" stroke="#000"/>
<line x1="350.80000000000007" y1="222.5093018169057" x2="350.80000000000007" y2="229.27209711519347" stroke="#000"/>
<rect x="362.8857142857143" y="215.6293454738834" width="24.171428571428574" height="282.37065452611654" fill="orange" data-tooltip="1.04x baseline speed (MJIT3.0)"/>
<line x1="362.8857142857143" y1="207.44332305945414" x2="387.0571428571429" y2="207.44332305945414" stroke="#000"/>
<line x1="362.8857142857143" y1="223.81536788831264" x2="387.0571428571429" y2="223.81536788831264" stroke="#000"/>
<line x1="374.97142857142865" y1="207.44332305945414" x2="374.97142857142865" y2="223.81536788831264" stroke="#000"/>
<rect x="387.0571428571429" y="226.6720676247509" width="24.171428571428574" height="271.327932375249" fill="green" data-tooltip="1.00x baseline speed (MJIT)"/>
<line x1="387.0571428571429" y1="215.56945872157658" x2="411.22857142857146" y2="215.56945872157658" stroke="#000"/>
<line x1="387.0571428571429" y1="237.7746765279252" x2="411.22857142857146" y2="237.7746765279252" stroke="#000"/>
<line x1="399.14285714285717" y1="215.56945872157658" x2="399.14285714285717" y2="237.7746765279252" stroke="#000"/>
<rect x="411.2285714285715" y="193.17774142246822" width="24.171428571428574" height="304.8222585775317" fill="#4F3A7A" data-tooltip="1.12x baseline speed (YJIT)"/>
<line x1="411.2285714285715" y1="182.8858643503803" x2="435.4000000000001" y2="182.8858643503803" stroke="#000"/>
<line x1="411.2285714285715" y1="203.4696184945561" x2="435.4000000000001" y2="203.4696184945561" stroke="#000"/>
<line x1="423.3142857142858" y1="182.8858643503803" x2="423.3142857142858" y2="203.4696184945561" stroke="#000"/>
<line x1="399.14285714285717" y1="498.0" x2="399.14285714285717" y2="502.79999999999995" stroke="#000"/>
<text x="399.14285714285717" y="512.4" fill="#111" font-size="small" font-family="monospace" font-weight="bold" text-anchor="end" transform="rotate(-60, 399.14285714285717, 512.4)">
jekyll
</text>
<rect x="459.5714285714285" y="225.89069946604957" width="24.171428571428574" height="272.1093005339503" fill="#7070f8" data-tooltip="1.00x baseline speed (No JIT)"/>
<line x1="459.5714285714285" y1="222.46115616474225" x2="483.7428571428571" y2="222.46115616474225" stroke="#000"/>
<line x1="459.5714285714285" y1="229.32024276735692" x2="483.7428571428571" y2="229.32024276735692" stroke="#000"/>
<line x1="471.65714285714284" y1="222.46115616474225" x2="471.65714285714284" y2="229.32024276735692" stroke="#000"/>
<rect x="483.7428571428571" y="221.62907399370206" width="24.171428571428574" height="276.37092600629785" fill="orange" data-tooltip="1.02x baseline speed (MJIT3.0)"/>
<line x1="483.7428571428571" y1="215.03857927708913" x2="507.91428571428565" y2="215.03857927708913" stroke="#000"/>
<line x1="483.7428571428571" y1="228.219568710315" x2="507.91428571428565" y2="228.219568710315" stroke="#000"/>
<line x1="495.8285714285714" y1="215.03857927708913" x2="495.8285714285714" y2="228.219568710315" stroke="#000"/>
<rect x="507.91428571428565" y="225.49245567166236" width="24.171428571428574" height="272.5075443283376" fill="green" data-tooltip="1.00x baseline speed (MJIT)"/>
<line x1="507.91428571428565" y1="219.75698405371026" x2="532.0857142857143" y2="219.75698405371026" stroke="#000"/>
<line x1="507.91428571428565" y1="231.22792728961446" x2="532.0857142857143" y2="231.22792728961446" stroke="#000"/>
<line x1="519.9999999999999" y1="219.75698405371026" x2="519.9999999999999" y2="231.22792728961446" stroke="#000"/>
<rect x="532.0857142857143" y="100.19999999999999" width="24.171428571428574" height="397.79999999999995" fill="#4F3A7A" data-tooltip="1.46x baseline speed (YJIT)"/>
<line x1="532.0857142857143" y1="88.63160897543315" x2="556.2571428571429" y2="88.63160897543315" stroke="#000"/>
<line x1="532.0857142857143" y1="111.76839102456682" x2="556.2571428571429" y2="111.76839102456682" stroke="#000"/>
<line x1="544.1714285714286" y1="88.63160897543315" x2="544.1714285714286" y2="111.76839102456682" stroke="#000"/>
<line x1="519.9999999999999" y1="498.0" x2="519.9999999999999" y2="502.79999999999995" stroke="#000"/>
<text x="519.9999999999999" y="512.4" fill="#111" font-size="small" font-family="monospace" font-weight="bold" text-anchor="end" transform="rotate(-60, 519.9999999999999, 512.4)">
liquid-render
</text>
<rect x="580.4285714285714" y="225.89069946604957" width="24.171428571428574" height="272.1093005339503" fill="#7070f8" data-tooltip="1.00x baseline speed (No JIT)"/>
<line x1="580.4285714285714" y1="222.56252575023638" x2="604.6" y2="222.56252575023638" stroke="#000"/>
<line x1="580.4285714285714" y1="229.2188731818628" x2="604.6" y2="229.2188731818628" stroke="#000"/>
<line x1="592.5142857142856" y1="222.56252575023638" x2="592.5142857142856" y2="229.2188731818628" stroke="#000"/>
<rect x="604.6" y="203.324260416051" width="24.171428571428574" height="294.67573958394894" fill="orange" data-tooltip="1.08x baseline speed (MJIT3.0)"/>
<line x1="604.6" y1="199.49096163320138" x2="628.7714285714286" y2="199.49096163320138" stroke="#000"/>
<line x1="604.6" y1="207.15755919890063" x2="628.7714285714286" y2="207.15755919890063" stroke="#000"/>
<line x1="616.6857142857143" y1="199.49096163320138" x2="616.6857142857143" y2="207.15755919890063" stroke="#000"/>
<rect x="628.7714285714285" y="227.6430389897901" width="24.171428571428574" height="270.3569610102098" fill="green" data-tooltip="0.99x baseline speed (MJIT)"/>
<line x1="628.7714285714285" y1="224.19650709402413" x2="652.9428571428572" y2="224.19650709402413" stroke="#000"/>
<line x1="628.7714285714285" y1="231.08957088555613" x2="652.9428571428572" y2="231.08957088555613" stroke="#000"/>
<line x1="640.8571428571428" y1="224.19650709402413" x2="640.8571428571428" y2="231.08957088555613" stroke="#000"/>
<rect x="652.9428571428572" y="210.07560072998564" width="24.171428571428574" height="287.92439927001436" fill="#4F3A7A" data-tooltip="1.06x baseline speed (YJIT)"/>
<line x1="652.9428571428572" y1="204.85743786401022" x2="677.1142857142858" y2="204.85743786401022" stroke="#000"/>
<line x1="652.9428571428572" y1="215.29376359596105" x2="677.1142857142858" y2="215.29376359596105" stroke="#000"/>
<line x1="665.0285714285715" y1="204.85743786401022" x2="665.0285714285715" y2="215.29376359596105" stroke="#000"/>
<line x1="640.8571428571428" y1="498.0" x2="640.8571428571428" y2="502.79999999999995" stroke="#000"/>
<text x="640.8571428571428" y="512.4" fill="#111" font-size="small" font-family="monospace" font-weight="bold" text-anchor="end" transform="rotate(-60, 640.8571428571428, 512.4)">
mail
</text>
<rect x="701.2857142857143" y="225.89069946604957" width="24.171428571428574" height="272.1093005339503" fill="#7070f8" data-tooltip="1.00x baseline speed (No JIT)"/>
<line x1="701.2857142857143" y1="224.5369822762432" x2="725.4571428571429" y2="224.5369822762432" stroke="#000"/>
<line x1="701.2857142857143" y1="227.24441665585596" x2="725.4571428571429" y2="227.24441665585596" stroke="#000"/>
<line x1="713.3714285714285" y1="224.5369822762432" x2="713.3714285714285" y2="227.24441665585596" stroke="#000"/>
<rect x="725.4571428571429" y="201.93231189947093" width="24.171428571428574" height="296.067688100529" fill="orange" data-tooltip="1.09x baseline speed (MJIT3.0)"/>
<line x1="725.4571428571429" y1="198.90785910867433" x2="749.6285714285715" y2="198.90785910867433" stroke="#000"/>
<line x1="725.4571428571429" y1="204.95676469026756" x2="749.6285714285715" y2="204.95676469026756" stroke="#000"/>
<line x1="737.5428571428572" y1="198.90785910867433" x2="737.5428571428572" y2="204.95676469026756" stroke="#000"/>
<rect x="749.6285714285714" y="209.34367932895438" width="24.171428571428574" height="288.6563206710456" fill="green" data-tooltip="1.06x baseline speed (MJIT)"/>
<line x1="749.6285714285714" y1="204.71552667830986" x2="773.8000000000001" y2="204.71552667830986" stroke="#000"/>
<line x1="749.6285714285714" y1="213.97183197959887" x2="773.8000000000001" y2="213.97183197959887" stroke="#000"/>
<line x1="761.7142857142857" y1="204.71552667830986" x2="761.7142857142857" y2="213.97183197959887" stroke="#000"/>
<rect x="773.8000000000001" y="151.5371837667255" width="24.171428571428574" height="346.46281623327445" fill="#4F3A7A" data-tooltip="1.27x baseline speed (YJIT)"/>
<line x1="773.8000000000001" y1="149.25660618455439" x2="797.9714285714286" y2="149.25660618455439" stroke="#000"/>
<line x1="773.8000000000001" y1="153.81776134889657" x2="797.9714285714286" y2="153.81776134889657" stroke="#000"/>
<line x1="785.8857142857142" y1="149.25660618455439" x2="785.8857142857142" y2="153.81776134889657" stroke="#000"/>
<line x1="761.7142857142857" y1="498.0" x2="761.7142857142857" y2="502.79999999999995" stroke="#000"/>
<text x="761.7142857142857" y="512.4" fill="#111" font-size="small" font-family="monospace" font-weight="bold" text-anchor="end" transform="rotate(-60, 761.7142857142857, 512.4)">
psych-load
</text>
<rect x="822.1428571428571" y="225.89069946604957" width="24.171428571428574" height="272.1093005339503" fill="#7070f8" data-tooltip="1.00x baseline speed (No JIT)"/>
<line x1="822.1428571428571" y1="222.8242784338738" x2="846.3142857142857" y2="222.8242784338738" stroke="#000"/>
<line x1="822.1428571428571" y1="228.95712049822538" x2="846.3142857142857" y2="228.95712049822538" stroke="#000"/>
<line x1="834.2285714285713" y1="222.8242784338738" x2="834.2285714285713" y2="228.95712049822538" stroke="#000"/>
<rect x="846.3142857142857" y="227.488864580854" width="24.171428571428574" height="270.51113541914594" fill="orange" data-tooltip="0.99x baseline speed (MJIT3.0)"/>
<line x1="846.3142857142857" y1="223.34243321971869" x2="870.4857142857143" y2="223.34243321971869" stroke="#000"/>
<line x1="846.3142857142857" y1="231.63529594198928" x2="870.4857142857143" y2="231.63529594198928" stroke="#000"/>
<line x1="858.4" y1="223.34243321971869" x2="858.4" y2="231.63529594198928" stroke="#000"/>
<rect x="870.4857142857142" y="257.5345962578666" width="24.171428571428574" height="240.46540374213336" fill="green" data-tooltip="0.88x baseline speed (MJIT)"/>
<line x1="870.4857142857142" y1="254.15357859390815" x2="894.6571428571428" y2="254.15357859390815" stroke="#000"/>
<line x1="870.4857142857142" y1="260.915613921825" x2="894.6571428571428" y2="260.915613921825" stroke="#000"/>
<line x1="882.5714285714284" y1="254.15357859390815" x2="882.5714285714284" y2="260.915613921825" stroke="#000"/>
<rect x="894.6571428571428" y="183.29871112526718" width="24.171428571428574" height="314.70128887473277" fill="#4F3A7A" data-tooltip="1.16x baseline speed (YJIT)"/>
<line x1="894.6571428571428" y1="177.39496061398725" x2="918.8285714285714" y2="177.39496061398725" stroke="#000"/>
<line x1="894.6571428571428" y1="189.20246163654713" x2="918.8285714285714" y2="189.20246163654713" stroke="#000"/>
<line x1="906.742857142857" y1="177.39496061398725" x2="906.742857142857" y2="189.20246163654713" stroke="#000"/>
<line x1="882.5714285714284" y1="498.0" x2="882.5714285714284" y2="502.79999999999995" stroke="#000"/>
<text x="882.5714285714284" y="512.4" fill="#111" font-size="small" font-family="monospace" font-weight="bold" text-anchor="end" transform="rotate(-60, 882.5714285714284, 512.4)">
railsbench
</text>
</svg>