<svg viewBox="0 0 1000 600" xmlns="http://www.w3.org/2000/svg" xmlns:xlink="http://www.w3.org/1999/xlink" width="100%" height="100%">

<rect x="50.0" y="30.0" width="940.0" height="467.99999999999994" stroke="#000" fill="#EEE"/>
<line x1="42.0" y1="497.9999999999999" x2="50.0" y2="497.9999999999999" stroke="#000"/>
<text x="26.000000000000004" y="497.9999999999999" text-anchor="end" font-weight="bold" font-size="small" fill="#111">
0.0
</text>
<line x1="42.0" y1="439.9857069440101" x2="50.0" y2="439.9857069440101" stroke="#000"/>
<text x="26.000000000000004" y="439.9857069440101" text-anchor="end" font-weight="bold" font-size="small" fill="#111">
0.2
</text>
<line x1="42.0" y1="381.9714138880201" x2="50.0" y2="381.9714138880201" stroke="#000"/>
<text x="26.000000000000004" y="381.9714138880201" text-anchor="end" font-weight="bold" font-size="small" fill="#111">
0.4
</text>
<line x1="42.0" y1="323.9571208320301" x2="50.0" y2="323.9571208320301" stroke="#000"/>
<text x="26.000000000000004" y="323.9571208320301" text-anchor="end" font-weight="bold" font-size="small" fill="#111">
0.6
</text>
<line x1="42.0" y1="265.94282777604025" x2="50.0" y2="265.94282777604025" stroke="#000"/>
<text x="26.000000000000004" y="265.94282777604025" text-anchor="end" font-weight="bold" font-size="small" fill="#111">
0.8
</text>
<line x1="42.0" y1="207.92853472005038" x2="50.0" y2="207.92853472005038" stroke="#000"/>
<text x="26.000000000000004" y="207.92853472005038" text-anchor="end" font-weight="bold" font-size="small" fill="#111">
1.0
</text>
<line x1="42.0" y1="149.91424166406043" x2="50.0" y2="149.91424166406043" stroke="#000"/>
<text x="26.000000000000004" y="149.91424166406043" text-anchor="end" font-weight="bold" font-size="small" fill="#111">
1.2
</text>
<rect x="197.99999999999997" y="36.00000000000001" width="80.0" height="18.0" fill="#7070f8" stroke="#888"/>
<text x="238.0" y="52.50000000000001" font-size="small" text-anchor="middle" font-weight="bold" fill="#EEE">
No JIT
</text>
<rect x="479.99999999999994" y="36.00000000000001" width="80.0" height="18.0" fill="orange" stroke="#888"/>
<text x="519.9999999999999" y="52.50000000000001" font-size="small" text-anchor="middle" font-weight="bold" fill="#EEE">
MJIT3.0
</text>
<rect x="761.9999999999999" y="36.00000000000001" width="80.0" height="18.0" fill="green" stroke="#888"/>
<text x="801.9999999999999" y="52.50000000000001" font-size="small" text-anchor="middle" font-weight="bold" fill="#EEE">
YJIT
</text>
<rect x="97.0" y="207.92853472005038" width="35.25" height="290.07146527994956" fill="#7070f8" data-tooltip="1.00x baseline speed (No JIT)"/>
<line x1="97.0" y1="205.63888282966687" x2="132.25" y2="205.63888282966687" stroke="#000"/>
<line x1="97.0" y1="210.2181866104339" x2="132.25" y2="210.2181866104339" stroke="#000"/>
<line x1="114.625" y1="205.63888282966687" x2="114.625" y2="210.2181866104339" stroke="#000"/>
<rect x="132.25" y="217.57756948396352" width="35.25" height="280.4224305160364" fill="orange" data-tooltip="0.97x baseline speed (MJIT3.0)"/>
<line x1="132.25" y1="214.21558298709186" x2="167.5" y2="214.21558298709186" stroke="#000"/>
<line x1="132.25" y1="220.93955598083517" x2="167.5" y2="220.93955598083517" stroke="#000"/>
<line x1="149.875" y1="214.21558298709186" x2="149.875" y2="220.93955598083517" stroke="#000"/>
<rect x="167.49999999999997" y="100.19999999999999" width="35.25" height="397.79999999999995" fill="green" data-tooltip="1.37x baseline speed (YJIT)"/>
<line x1="167.49999999999997" y1="92.77761188091935" x2="202.75" y2="92.77761188091935" stroke="#000"/>
<line x1="167.49999999999997" y1="107.62238811908063" x2="202.75" y2="107.62238811908063" stroke="#000"/>
<line x1="185.12499999999997" y1="92.77761188091935" x2="185.12499999999997" y2="107.62238811908063" stroke="#000"/>
<line x1="167.49999999999997" y1="498.0" x2="167.49999999999997" y2="502.79999999999995" stroke="#000"/>
<text x="167.49999999999997" y="512.4" fill="#111" font-size="small" font-family="monospace" font-weight="bold" text-anchor="end" transform="rotate(-60, 167.49999999999997, 512.4)">
activerecord
</text>
<rect x="238.0" y="207.92853472005038" width="35.25" height="290.07146527994956" fill="#7070f8" data-tooltip="1.00x baseline speed (No JIT)"/>
<line x1="238.0" y1="201.0470036483133" x2="273.25" y2="201.0470036483133" stroke="#000"/>
<line x1="238.0" y1="214.81006579178745" x2="273.25" y2="214.81006579178745" stroke="#000"/>
<line x1="255.625" y1="201.0470036483133" x2="255.625" y2="214.81006579178745" stroke="#000"/>
<rect x="273.25" y="206.97498089807203" width="35.25" height="291.0250191019279" fill="orange" data-tooltip="1.00x baseline speed (MJIT3.0)"/>
<line x1="273.25" y1="198.49240220384226" x2="308.5" y2="198.49240220384226" stroke="#000"/>
<line x1="273.25" y1="215.45755959230183" x2="308.5" y2="215.45755959230183" stroke="#000"/>
<line x1="290.875" y1="198.49240220384226" x2="290.875" y2="215.45755959230183" stroke="#000"/>
<rect x="308.5" y="171.96619262279856" width="35.25" height="326.03380737720136" fill="green" data-tooltip="1.12x baseline speed (YJIT)"/>
<line x1="308.5" y1="160.19980122685863" x2="343.75" y2="160.19980122685863" stroke="#000"/>
<line x1="308.5" y1="183.7325840187385" x2="343.75" y2="183.7325840187385" stroke="#000"/>
<line x1="326.125" y1="160.19980122685863" x2="326.125" y2="183.7325840187385" stroke="#000"/>
<line x1="308.5" y1="498.0" x2="308.5" y2="502.79999999999995" stroke="#000"/>
<text x="308.5" y="512.4" fill="#111" font-size="small" font-family="monospace" font-weight="bold" text-anchor="end" transform="rotate(-60, 308.5, 512.4)">
jekyll
</text>
<rect x="379.0" y="207.92853472005038" width="35.25" height="290.07146527994956" fill="#7070f8" data-tooltip="1.00x baseline speed (No JIT)"/>
<line x1="379.0" y1="203.23468663403006" x2="414.25" y2="203.23468663403006" stroke="#000"/>
<line x1="379.0" y1="212.62238280607068" x2="414.25" y2="212.62238280607068" stroke="#000"/>
<line x1="396.625" y1="203.23468663403006" x2="396.625" y2="212.62238280607068" stroke="#000"/>
<rect x="414.25" y="176.4856706169053" width="35.25" height="321.5143293830946" fill="orange" data-tooltip="1.11x baseline speed (MJIT3.0)"/>
<line x1="414.25" y1="165.91464147446828" x2="449.5" y2="165.91464147446828" stroke="#000"/>
<line x1="414.25" y1="187.05669975934237" x2="449.5" y2="187.05669975934237" stroke="#000"/>
<line x1="431.875" y1="165.91464147446828" x2="431.875" y2="187.05669975934237" stroke="#000"/>
<rect x="449.5" y="129.99763099889353" width="35.25" height="368.0023690011064" fill="green" data-tooltip="1.27x baseline speed (YJIT)"/>
<line x1="449.5" y1="118.73700490618583" x2="484.75" y2="118.73700490618583" stroke="#000"/>
<line x1="449.5" y1="141.25825709160125" x2="484.75" y2="141.25825709160125" stroke="#000"/>
<line x1="467.125" y1="118.73700490618583" x2="467.125" y2="141.25825709160125" stroke="#000"/>
<line x1="449.5" y1="498.0" x2="449.5" y2="502.79999999999995" stroke="#000"/>
<text x="449.5" y="512.4" fill="#111" font-size="small" font-family="monospace" font-weight="bold" text-anchor="end" transform="rotate(-60, 449.5, 512.4)">
liquid-render
</text>
<rect x="519.9999999999999" y="207.92853472005038" width="35.25" height="290.07146527994956" fill="#7070f8" data-tooltip="1.00x baseline speed (No JIT)"/>
<line x1="519.9999999999999" y1="204.0629036169504" x2="555.2499999999999" y2="204.0629036169504" stroke="#000"/>
<line x1="519.9999999999999" y1="211.79416582315037" x2="555.2499999999999" y2="211.79416582315037" stroke="#000"/>
<line x1="537.6249999999999" y1="204.0629036169504" x2="537.6249999999999" y2="211.79416582315037" stroke="#000"/>
<rect x="555.2499999999999" y="209.79894836081004" width="35.25" height="288.20105163918987" fill="orange" data-tooltip="0.99x baseline speed (MJIT3.0)"/>
<line x1="555.2499999999999" y1="203.20567455323695" x2="590.4999999999999" y2="203.20567455323695" stroke="#000"/>
<line x1="555.2499999999999" y1="216.39222216838314" x2="590.4999999999999" y2="216.39222216838314" stroke="#000"/>
<line x1="572.8749999999999" y1="203.20567455323695" x2="572.8749999999999" y2="216.39222216838314" stroke="#000"/>
<rect x="590.4999999999999" y="181.98902708726496" width="35.25" height="316.010972912735" fill="green" data-tooltip="1.09x baseline speed (YJIT)"/>
<line x1="590.4999999999999" y1="173.6631610520886" x2="625.7499999999999" y2="173.6631610520886" stroke="#000"/>
<line x1="590.4999999999999" y1="190.31489312244133" x2="625.7499999999999" y2="190.31489312244133" stroke="#000"/>
<line x1="608.1249999999999" y1="173.6631610520886" x2="608.1249999999999" y2="190.31489312244133" stroke="#000"/>
<line x1="590.4999999999999" y1="498.0" x2="590.4999999999999" y2="502.79999999999995" stroke="#000"/>
<text x="590.4999999999999" y="512.4" fill="#111" font-size="small" font-family="monospace" font-weight="bold" text-anchor="end" transform="rotate(-60, 590.4999999999999, 512.4)">
mail
</text>
<rect x="660.9999999999999" y="207.92853472005038" width="35.25" height="290.07146527994956" fill="#7070f8" data-tooltip="1.00x baseline speed (No JIT)"/>
<line x1="660.9999999999999" y1="206.24593123694495" x2="696.2499999999999" y2="206.24593123694495" stroke="#000"/>
<line x1="660.9999999999999" y1="209.61113820315578" x2="696.2499999999999" y2="209.61113820315578" stroke="#000"/>
<line x1="678.6249999999999" y1="206.24593123694495" x2="678.6249999999999" y2="209.61113820315578" stroke="#000"/>
<rect x="696.2499999999999" y="173.04842608456582" width="35.25" height="324.9515739154341" fill="orange" data-tooltip="1.12x baseline speed (MJIT3.0)"/>
<line x1="696.2499999999999" y1="167.64917751420444" x2="731.4999999999999" y2="167.64917751420444" stroke="#000"/>
<line x1="696.2499999999999" y1="178.44767465492717" x2="731.4999999999999" y2="178.44767465492717" stroke="#000"/>
<line x1="713.8749999999999" y1="167.64917751420444" x2="713.8749999999999" y2="178.44767465492717" stroke="#000"/>
<rect x="731.4999999999999" y="124.53964686541964" width="35.25" height="373.46035313458026" fill="green" data-tooltip="1.29x baseline speed (YJIT)"/>
<line x1="731.4999999999999" y1="120.89839791352055" x2="766.7499999999999" y2="120.89839791352055" stroke="#000"/>
<line x1="731.4999999999999" y1="128.18089581731874" x2="766.7499999999999" y2="128.18089581731874" stroke="#000"/>
<line x1="749.1249999999999" y1="120.89839791352055" x2="749.1249999999999" y2="128.18089581731874" stroke="#000"/>
<line x1="731.4999999999999" y1="498.0" x2="731.4999999999999" y2="502.79999999999995" stroke="#000"/>
<text x="731.4999999999999" y="512.4" fill="#111" font-size="small" font-family="monospace" font-weight="bold" text-anchor="end" transform="rotate(-60, 731.4999999999999, 512.4)">
psych-load
</text>
<rect x="801.9999999999999" y="207.92853472005038" width="35.25" height="290.07146527994956" fill="#7070f8" data-tooltip="1.00x baseline speed (No JIT)"/>
<line x1="801.9999999999999" y1="205.0966708369181" x2="837.2499999999999" y2="205.0966708369181" stroke="#000"/>
<line x1="801.9999999999999" y1="210.76039860318267" x2="837.2499999999999" y2="210.76039860318267" stroke="#000"/>
<line x1="819.6249999999999" y1="205.0966708369181" x2="819.6249999999999" y2="210.76039860318267" stroke="#000"/>
<rect x="837.2499999999999" y="222.20331222613154" width="35.25" height="275.79668777386837" fill="orange" data-tooltip="0.95x baseline speed (MJIT3.0)"/>
<line x1="837.2499999999999" y1="217.82337433078058" x2="872.4999999999999" y2="217.82337433078058" stroke="#000"/>
<line x1="837.2499999999999" y1="226.5832501214825" x2="872.4999999999999" y2="226.5832501214825" stroke="#000"/>
<line x1="854.8749999999999" y1="217.82337433078058" x2="854.8749999999999" y2="226.5832501214825" stroke="#000"/>
<rect x="872.4999999999999" y="161.12430014924692" width="35.25" height="336.87569985075305" fill="green" data-tooltip="1.16x baseline speed (YJIT)"/>
<line x1="872.4999999999999" y1="156.0673284312227" x2="907.75" y2="156.0673284312227" stroke="#000"/>
<line x1="872.4999999999999" y1="166.18127186727116" x2="907.75" y2="166.18127186727116" stroke="#000"/>
<line x1="890.125" y1="156.0673284312227" x2="890.125" y2="166.18127186727116" stroke="#000"/>
<line x1="872.4999999999999" y1="498.0" x2="872.4999999999999" y2="502.79999999999995" stroke="#000"/>
<text x="872.4999999999999" y="512.4" fill="#111" font-size="small" font-family="monospace" font-weight="bold" text-anchor="end" transform="rotate(-60, 872.4999999999999, 512.4)">
railsbench
</text>
</svg>