<svg viewBox="0 0 1000 600" xmlns="http://www.w3.org/2000/svg" xmlns:xlink="http://www.w3.org/1999/xlink" width="100%" height="100%">

<rect x="50.0" y="30.0" width="940.0" height="467.99999999999994" stroke="#000" fill="#EEE"/>
<line x1="42.0" y1="497.9999999999999" x2="50.0" y2="497.9999999999999" stroke="#000"/>
<text x="26.000000000000004" y="497.9999999999999" text-anchor="end" font-weight="bold" font-size="small" fill="#111">
0.0
</text>
<line x1="42.0" y1="410.20852936631" x2="50.0" y2="410.20852936631" stroke="#000"/>
<text x="26.000000000000004" y="410.20852936631" text-anchor="end" font-weight="bold" font-size="small" fill="#111">
2.0
</text>
<line x1="42.0" y1="322.41705873262026" x2="50.0" y2="322.41705873262026" stroke="#000"/>
<text x="26.000000000000004" y="322.41705873262026" text-anchor="end" font-weight="bold" font-size="small" fill="#111">
4.0
</text>
<line x1="42.0" y1="234.62558809893042" x2="50.0" y2="234.62558809893042" stroke="#000"/>
<text x="26.000000000000004" y="234.62558809893042" text-anchor="end" font-weight="bold" font-size="small" fill="#111">
6.0
</text>
<line x1="42.0" y1="146.83411746524058" x2="50.0" y2="146.83411746524058" stroke="#000"/>
<text x="26.000000000000004" y="146.83411746524058" text-anchor="end" font-weight="bold" font-size="small" fill="#111">
8.0
</text>
<rect x="197.99999999999997" y="36.00000000000001" width="80.0" height="18.0" fill="#7070f8" stroke="#888"/>
<text x="238.0" y="52.50000000000001" font-size="small" text-anchor="middle" font-weight="bold" fill="#EEE">
No JIT
</text>
<rect x="479.99999999999994" y="36.00000000000001" width="80.0" height="18.0" fill="orange" stroke="#888"/>
<text x="519.9999999999999" y="52.50000000000001" font-size="small" text-anchor="middle" font-weight="bold" fill="#EEE">
MJIT
</text>
<rect x="761.9999999999999" y="36.00000000000001" width="80.0" height="18.0" fill="green" stroke="#888"/>
<text x="801.9999999999999" y="52.50000000000001" font-size="small" text-anchor="middle" font-weight="bold" fill="#EEE">
YJIT
</text>
<rect x="97.0" y="454.1042646831551" width="23.5" height="43.89573531684491" fill="#7070f8" data-tooltip="1.00x baseline speed (No JIT)"/>
<line x1="97.0" y1="454.100527320976" x2="120.5" y2="454.100527320976" stroke="#000"/>
<line x1="97.0" y1="454.10800204533416" x2="120.5" y2="454.10800204533416" stroke="#000"/>
<line x1="108.75" y1="454.100527320976" x2="108.75" y2="454.10800204533416" stroke="#000"/>
<rect x="120.5" y="474.2132049403077" width="23.5" height="23.786795059692217" fill="orange" data-tooltip="0.54x baseline speed (MJIT)"/>
<line x1="120.5" y1="473.48820359519823" x2="144.0" y2="473.48820359519823" stroke="#000"/>
<line x1="120.5" y1="474.93820628541727" x2="144.0" y2="474.93820628541727" stroke="#000"/>
<line x1="132.25" y1="473.48820359519823" x2="132.25" y2="474.93820628541727" stroke="#000"/>
<rect x="144.00000000000003" y="213.78442824134885" width="23.5" height="284.21557175865104" fill="green" data-tooltip="6.47x baseline speed (YJIT)"/>
<line x1="144.00000000000003" y1="213.53326507479323" x2="167.5" y2="213.53326507479323" stroke="#000"/>
<line x1="144.00000000000003" y1="214.03559140790446" x2="167.5" y2="214.03559140790446" stroke="#000"/>
<line x1="155.75000000000003" y1="213.53326507479323" x2="155.75000000000003" y2="214.03559140790446" stroke="#000"/>
<line x1="144.00000000000003" y1="498.0" x2="144.00000000000003" y2="502.79999999999995" stroke="#000"/>
<text x="144.00000000000003" y="512.4" fill="#111" font-size="small" font-family="monospace" font-weight="bold" text-anchor="end" transform="rotate(-60, 144.00000000000003, 512.4)">
30k_ifelse
</text>
<rect x="191.0" y="454.1042646831551" width="23.5" height="43.89573531684491" fill="#7070f8" data-tooltip="1.00x baseline speed (No JIT)"/>
<line x1="191.0" y1="454.0980585019255" x2="214.5" y2="454.0980585019255" stroke="#000"/>
<line x1="191.0" y1="454.1104708643847" x2="214.5" y2="454.1104708643847" stroke="#000"/>
<line x1="202.75" y1="454.0980585019255" x2="202.75" y2="454.1104708643847" stroke="#000"/>
<rect x="214.5" y="477.231862073611" width="23.5" height="20.768137926388892" fill="orange" data-tooltip="0.47x baseline speed (MJIT)"/>
<line x1="214.5" y1="476.4376045982707" x2="238.0" y2="476.4376045982707" stroke="#000"/>
<line x1="214.5" y1="478.0261195489513" x2="238.0" y2="478.0261195489513" stroke="#000"/>
<line x1="226.25" y1="476.4376045982707" x2="226.25" y2="478.0261195489513" stroke="#000"/>
<rect x="238.0" y="148.93825425455785" width="23.5" height="349.0617457454421" fill="green" data-tooltip="7.95x baseline speed (YJIT)"/>
<line x1="238.0" y1="148.8403599438421" x2="261.5" y2="148.8403599438421" stroke="#000"/>
<line x1="238.0" y1="149.0361485652736" x2="261.5" y2="149.0361485652736" stroke="#000"/>
<line x1="249.75" y1="148.8403599438421" x2="249.75" y2="149.0361485652736" stroke="#000"/>
<line x1="238.0" y1="498.0" x2="238.0" y2="502.79999999999995" stroke="#000"/>
<text x="238.0" y="512.4" fill="#111" font-size="small" font-family="monospace" font-weight="bold" text-anchor="end" transform="rotate(-60, 238.0, 512.4)">
30k_methods
</text>
<rect x="285.00000000000006" y="454.1042646831551" width="23.5" height="43.89573531684491" fill="#7070f8" data-tooltip="1.00x baseline speed (No JIT)"/>
<line x1="285.00000000000006" y1="454.0396700593708" x2="308.50000000000006" y2="454.0396700593708" stroke="#000"/>
<line x1="285.00000000000006" y1="454.1688593069394" x2="308.50000000000006" y2="454.1688593069394" stroke="#000"/>
<line x1="296.75" y1="454.0396700593708" x2="296.75" y2="454.1688593069394" stroke="#000"/>
<rect x="308.50000000000006" y="450.0620795301438" width="23.5" height="47.93792046985613" fill="orange" data-tooltip="1.09x baseline speed (MJIT)"/>
<line x1="308.50000000000006" y1="449.9584022878173" x2="332.00000000000006" y2="449.9584022878173" stroke="#000"/>
<line x1="308.50000000000006" y1="450.16575677247033" x2="332.00000000000006" y2="450.16575677247033" stroke="#000"/>
<line x1="320.25000000000006" y1="449.9584022878173" x2="320.25000000000006" y2="450.16575677247033" stroke="#000"/>
<rect x="332.0" y="397.50912501478564" width="23.5" height="100.49087498521428" fill="green" data-tooltip="2.29x baseline speed (YJIT)"/>
<line x1="332.0" y1="396.86816845864917" x2="355.50000000000006" y2="396.86816845864917" stroke="#000"/>
<line x1="332.0" y1="398.1500815709221" x2="355.50000000000006" y2="398.1500815709221" stroke="#000"/>
<line x1="343.75" y1="396.86816845864917" x2="343.75" y2="398.1500815709221" stroke="#000"/>
<line x1="332.0" y1="498.0" x2="332.0" y2="502.79999999999995" stroke="#000"/>
<text x="332.0" y="512.4" fill="#111" font-size="small" font-family="monospace" font-weight="bold" text-anchor="end" transform="rotate(-60, 332.0, 512.4)">
cfunc_itself
</text>
<rect x="379.0" y="454.1042646831551" width="23.5" height="43.89573531684491" fill="#7070f8" data-tooltip="1.00x baseline speed (No JIT)"/>
<line x1="379.0" y1="454.0853152862617" x2="402.5" y2="454.0853152862617" stroke="#000"/>
<line x1="379.0" y1="454.1232140800485" x2="402.5" y2="454.1232140800485" stroke="#000"/>
<line x1="390.75" y1="454.0853152862617" x2="390.75" y2="454.1232140800485" stroke="#000"/>
<rect x="402.5" y="366.16777659576445" width="23.5" height="131.8322234042355" fill="orange" data-tooltip="3.00x baseline speed (MJIT)"/>
<line x1="402.5" y1="366.0953506816035" x2="426.00000000000006" y2="366.0953506816035" stroke="#000"/>
<line x1="402.5" y1="366.2402025099254" x2="426.00000000000006" y2="366.2402025099254" stroke="#000"/>
<line x1="414.25" y1="366.0953506816035" x2="414.25" y2="366.2402025099254" stroke="#000"/>
<rect x="426.0" y="330.5305547522905" width="23.5" height="167.46944524770933" fill="green" data-tooltip="3.82x baseline speed (YJIT)"/>
<line x1="426.0" y1="330.4321231557255" x2="449.5" y2="330.4321231557255" stroke="#000"/>
<line x1="426.0" y1="330.6289863488556" x2="449.5" y2="330.6289863488556" stroke="#000"/>
<line x1="437.75" y1="330.4321231557255" x2="437.75" y2="330.6289863488556" stroke="#000"/>
<line x1="426.0" y1="498.0" x2="426.0" y2="502.79999999999995" stroke="#000"/>
<text x="426.0" y="512.4" fill="#111" font-size="small" font-family="monospace" font-weight="bold" text-anchor="end" transform="rotate(-60, 426.0, 512.4)">
fib
</text>
<rect x="473.0" y="454.1042646831551" width="23.5" height="43.89573531684491" fill="#7070f8" data-tooltip="1.00x baseline speed (No JIT)"/>
<line x1="473.0" y1="454.0797057333114" x2="496.5" y2="454.0797057333114" stroke="#000"/>
<line x1="473.0" y1="454.1288236329988" x2="496.5" y2="454.1288236329988" stroke="#000"/>
<line x1="484.74999999999994" y1="454.0797057333114" x2="484.74999999999994" y2="454.1288236329988" stroke="#000"/>
<rect x="496.5" y="455.12693869812205" width="23.5" height="42.873061301877954" fill="orange" data-tooltip="0.98x baseline speed (MJIT)"/>
<line x1="496.5" y1="455.07242580889016" x2="520.0" y2="455.07242580889016" stroke="#000"/>
<line x1="496.5" y1="455.18145158735393" x2="520.0" y2="455.18145158735393" stroke="#000"/>
<line x1="508.25" y1="455.07242580889016" x2="508.25" y2="455.18145158735393" stroke="#000"/>
<rect x="520.0" y="379.51330482162035" width="23.5" height="118.48669517837962" fill="green" data-tooltip="2.70x baseline speed (YJIT)"/>
<line x1="520.0" y1="379.4262019062187" x2="543.5" y2="379.4262019062187" stroke="#000"/>
<line x1="520.0" y1="379.60040773702195" x2="543.5" y2="379.60040773702195" stroke="#000"/>
<line x1="531.75" y1="379.4262019062187" x2="531.75" y2="379.60040773702195" stroke="#000"/>
<line x1="520.0" y1="498.0" x2="520.0" y2="502.79999999999995" stroke="#000"/>
<text x="520.0" y="512.4" fill="#111" font-size="small" font-family="monospace" font-weight="bold" text-anchor="end" transform="rotate(-60, 520.0, 512.4)">
getivar
</text>
<rect x="567.0" y="454.1042646831551" width="23.5" height="43.89573531684491" fill="#7070f8" data-tooltip="1.00x baseline speed (No JIT)"/>
<line x1="567.0" y1="454.0705120877667" x2="590.4999999999999" y2="454.0705120877667" stroke="#000"/>
<line x1="567.0" y1="454.13801727854354" x2="590.4999999999999" y2="454.13801727854354" stroke="#000"/>
<line x1="578.75" y1="454.0705120877667" x2="578.75" y2="454.13801727854354" stroke="#000"/>
<rect x="590.4999999999999" y="441.28584368185926" width="23.5" height="56.71415631814068" fill="orange" data-tooltip="1.29x baseline speed (MJIT)"/>
<line x1="590.4999999999999" y1="441.2155901431695" x2="613.9999999999999" y2="441.2155901431695" stroke="#000"/>
<line x1="590.4999999999999" y1="441.35609722054903" x2="613.9999999999999" y2="441.35609722054903" stroke="#000"/>
<line x1="602.25" y1="441.2155901431695" x2="602.25" y2="441.35609722054903" stroke="#000"/>
<rect x="614.0" y="262.6101327857131" width="23.5" height="235.3898672142868" fill="green" data-tooltip="5.36x baseline speed (YJIT)"/>
<line x1="614.0" y1="262.2172446530394" x2="637.5" y2="262.2172446530394" stroke="#000"/>
<line x1="614.0" y1="263.0030209183869" x2="637.5" y2="263.0030209183869" stroke="#000"/>
<line x1="625.75" y1="262.2172446530394" x2="625.75" y2="263.0030209183869" stroke="#000"/>
<line x1="614.0" y1="498.0" x2="614.0" y2="502.79999999999995" stroke="#000"/>
<text x="614.0" y="512.4" fill="#111" font-size="small" font-family="monospace" font-weight="bold" text-anchor="end" transform="rotate(-60, 614.0, 512.4)">
keyword_args
</text>
<rect x="661.0" y="454.1042646831551" width="23.5" height="43.89573531684491" fill="#7070f8" data-tooltip="1.00x baseline speed (No JIT)"/>
<line x1="661.0" y1="454.0040183659739" x2="684.5" y2="454.0040183659739" stroke="#000"/>
<line x1="661.0" y1="454.20451100033637" x2="684.5" y2="454.20451100033637" stroke="#000"/>
<line x1="672.7500000000001" y1="454.0040183659739" x2="672.7500000000001" y2="454.20451100033637" stroke="#000"/>
<rect x="684.5" y="460.9629905819459" width="23.5" height="37.03700941805397" fill="orange" data-tooltip="0.84x baseline speed (MJIT)"/>
<line x1="684.5" y1="460.8478978673251" x2="708.0" y2="460.8478978673251" stroke="#000"/>
<line x1="684.5" y1="461.0780832965667" x2="708.0" y2="461.0780832965667" stroke="#000"/>
<line x1="696.25" y1="460.8478978673251" x2="696.25" y2="461.0780832965667" stroke="#000"/>
<rect x="708.0000000000001" y="100.19999999999999" width="23.5" height="397.79999999999995" fill="green" data-tooltip="9.06x baseline speed (YJIT)"/>
<line x1="708.0000000000001" y1="98.23767110713408" x2="731.5" y2="98.23767110713408" stroke="#000"/>
<line x1="708.0000000000001" y1="102.1623288928659" x2="731.5" y2="102.1623288928659" stroke="#000"/>
<line x1="719.7500000000001" y1="98.23767110713408" x2="719.7500000000001" y2="102.1623288928659" stroke="#000"/>
<line x1="708.0000000000001" y1="498.0" x2="708.0000000000001" y2="502.79999999999995" stroke="#000"/>
<text x="708.0000000000001" y="512.4" fill="#111" font-size="small" font-family="monospace" font-weight="bold" text-anchor="end" transform="rotate(-60, 708.0000000000001, 512.4)">
respond_to
</text>
<rect x="755.0" y="454.1042646831551" width="23.5" height="43.89573531684491" fill="#7070f8" data-tooltip="1.00x baseline speed (No JIT)"/>
<line x1="755.0" y1="453.99055575070474" x2="778.5" y2="453.99055575070474" stroke="#000"/>
<line x1="755.0" y1="454.21797361560544" x2="778.5" y2="454.21797361560544" stroke="#000"/>
<line x1="766.75" y1="453.99055575070474" x2="766.75" y2="454.21797361560544" stroke="#000"/>
<rect x="778.5" y="454.06278713765073" width="23.5" height="43.93721286234919" fill="orange" data-tooltip="1.00x baseline speed (MJIT)"/>
<line x1="778.5" y1="453.91785549140906" x2="801.9999999999999" y2="453.91785549140906" stroke="#000"/>
<line x1="778.5" y1="454.20771878389246" x2="801.9999999999999" y2="454.20771878389246" stroke="#000"/>
<line x1="790.25" y1="453.91785549140906" x2="790.25" y2="454.20771878389246" stroke="#000"/>
<rect x="802.0" y="415.2602203878084" width="23.5" height="82.73977961219154" fill="green" data-tooltip="1.88x baseline speed (YJIT)"/>
<line x1="802.0" y1="414.71212379216445" x2="825.5" y2="414.71212379216445" stroke="#000"/>
<line x1="802.0" y1="415.8083169834523" x2="825.5" y2="415.8083169834523" stroke="#000"/>
<line x1="813.7500000000001" y1="414.71212379216445" x2="813.7500000000001" y2="415.8083169834523" stroke="#000"/>
<line x1="802.0" y1="498.0" x2="802.0" y2="502.79999999999995" stroke="#000"/>
<text x="802.0" y="512.4" fill="#111" font-size="small" font-family="monospace" font-weight="bold" text-anchor="end" transform="rotate(-60, 802.0, 512.4)">
setivar
</text>
<rect x="849.0" y="454.1042646831551" width="23.5" height="43.89573531684491" fill="#7070f8" data-tooltip="1.00x baseline speed (No JIT)"/>
<line x1="849.0" y1="453.71092708792037" x2="872.4999999999999" y2="453.71092708792037" stroke="#000"/>
<line x1="849.0" y1="454.4976022783898" x2="872.4999999999999" y2="454.4976022783898" stroke="#000"/>
<line x1="860.75" y1="453.71092708792037" x2="860.75" y2="454.4976022783898" stroke="#000"/>
<rect x="872.4999999999999" y="428.26309884192744" width="23.5" height="69.73690115807246" fill="orange" data-tooltip="1.59x baseline speed (MJIT)"/>
<line x1="872.4999999999999" y1="423.8643328375491" x2="895.9999999999999" y2="423.8643328375491" stroke="#000"/>
<line x1="872.4999999999999" y1="432.66186484630583" x2="895.9999999999999" y2="432.66186484630583" stroke="#000"/>
<line x1="884.25" y1="423.8643328375491" x2="884.25" y2="432.66186484630583" stroke="#000"/>
<rect x="896.0" y="406.5035347058779" width="23.5" height="91.49646529412203" fill="green" data-tooltip="2.08x baseline speed (YJIT)"/>
<line x1="896.0" y1="404.6934504941071" x2="919.5" y2="404.6934504941071" stroke="#000"/>
<line x1="896.0" y1="408.3136189176486" x2="919.5" y2="408.3136189176486" stroke="#000"/>
<line x1="907.75" y1="404.6934504941071" x2="907.75" y2="408.3136189176486" stroke="#000"/>
<line x1="896.0" y1="498.0" x2="896.0" y2="502.79999999999995" stroke="#000"/>
<text x="896.0" y="512.4" fill="#111" font-size="small" font-family="monospace" font-weight="bold" text-anchor="end" transform="rotate(-60, 896.0, 512.4)">
str_concat
</text>
</svg>