<svg viewBox="0 0 1000 600" xmlns="http://www.w3.org/2000/svg" xmlns:xlink="http://www.w3.org/1999/xlink" width="100%" height="100%">

<rect x="50.0" y="30.0" width="940.0" height="467.99999999999994" stroke="#000" fill="#EEE"/>
<line x1="42.0" y1="497.9999999999999" x2="50.0" y2="497.9999999999999" stroke="#000"/>
<text x="26.000000000000004" y="497.9999999999999" text-anchor="end" font-weight="bold" font-size="small" fill="#111">
0.0
</text>
<line x1="42.0" y1="418.76895826063077" x2="50.0" y2="418.76895826063077" stroke="#000"/>
<text x="26.000000000000004" y="418.76895826063077" text-anchor="end" font-weight="bold" font-size="small" fill="#111">
0.5
</text>
<line x1="42.0" y1="339.53791652126165" x2="50.0" y2="339.53791652126165" stroke="#000"/>
<text x="26.000000000000004" y="339.53791652126165" text-anchor="end" font-weight="bold" font-size="small" fill="#111">
1.0
</text>
<line x1="42.0" y1="260.30687478189253" x2="50.0" y2="260.30687478189253" stroke="#000"/>
<text x="26.000000000000004" y="260.30687478189253" text-anchor="end" font-weight="bold" font-size="small" fill="#111">
1.5
</text>
<line x1="42.0" y1="181.07583304252336" x2="50.0" y2="181.07583304252336" stroke="#000"/>
<text x="26.000000000000004" y="181.07583304252336" text-anchor="end" font-weight="bold" font-size="small" fill="#111">
2.0
</text>
<line x1="42.0" y1="101.84479130315421" x2="50.0" y2="101.84479130315421" stroke="#000"/>
<text x="26.000000000000004" y="101.84479130315421" text-anchor="end" font-weight="bold" font-size="small" fill="#111">
2.5
</text>
<rect x="268.5" y="36.00000000000001" width="80.0" height="18.0" fill="#7070f8" stroke="#888"/>
<text x="308.5" y="52.50000000000001" font-size="small" text-anchor="middle" font-weight="bold" fill="#EEE">
No JIT
</text>
<rect x="691.4999999999999" y="36.00000000000001" width="80.0" height="18.0" fill="orange" stroke="#888"/>
<text x="731.4999999999999" y="52.50000000000001" font-size="small" text-anchor="middle" font-weight="bold" fill="#EEE">
YJIT
</text>
<rect x="97.0" y="339.53791652126165" width="28.2" height="158.4620834787383" fill="#7070f8" data-tooltip="1.00x baseline speed (No JIT)"/>
<line x1="97.0" y1="339.47475277841716" x2="125.2" y2="339.47475277841716" stroke="#000"/>
<line x1="97.0" y1="339.60108026410614" x2="125.2" y2="339.60108026410614" stroke="#000"/>
<line x1="111.10000000000001" y1="339.47475277841716" x2="111.10000000000001" y2="339.60108026410614" stroke="#000"/>
<rect x="125.2" y="183.73326064403952" width="28.2" height="314.2667393559604" fill="orange" data-tooltip="1.98x baseline speed (YJIT)"/>
<line x1="125.2" y1="183.49484709888415" x2="153.4" y2="183.49484709888415" stroke="#000"/>
<line x1="125.2" y1="183.9716741891949" x2="153.4" y2="183.9716741891949" stroke="#000"/>
<line x1="139.3" y1="183.49484709888415" x2="139.3" y2="183.9716741891949" stroke="#000"/>
<line x1="139.3" y1="498.0" x2="139.3" y2="502.79999999999995" stroke="#000"/>
<text x="139.3" y="512.4" fill="#111" font-size="small" font-family="monospace" font-weight="bold" text-anchor="end" transform="rotate(-60, 139.3, 512.4)">
binarytrees
</text>
<rect x="181.6" y="339.53791652126165" width="28.2" height="158.4620834787383" fill="#7070f8" data-tooltip="1.00x baseline speed (No JIT)"/>
<line x1="181.6" y1="339.45580981450195" x2="209.79999999999998" y2="339.45580981450195" stroke="#000"/>
<line x1="181.6" y1="339.62002322802135" x2="209.79999999999998" y2="339.62002322802135" stroke="#000"/>
<line x1="195.7" y1="339.45580981450195" x2="195.7" y2="339.62002322802135" stroke="#000"/>
<rect x="209.79999999999998" y="257.38387246425896" width="28.2" height="240.616127535741" fill="orange" data-tooltip="1.52x baseline speed (YJIT)"/>
<line x1="209.79999999999998" y1="257.186004986704" x2="238.0" y2="257.186004986704" stroke="#000"/>
<line x1="209.79999999999998" y1="257.5817399418139" x2="238.0" y2="257.5817399418139" stroke="#000"/>
<line x1="223.89999999999998" y1="257.186004986704" x2="223.89999999999998" y2="257.5817399418139" stroke="#000"/>
<line x1="223.89999999999998" y1="498.0" x2="223.89999999999998" y2="502.79999999999995" stroke="#000"/>
<text x="223.89999999999998" y="512.4" fill="#111" font-size="small" font-family="monospace" font-weight="bold" text-anchor="end" transform="rotate(-60, 223.89999999999998, 512.4)">
chunky_png
</text>
<rect x="266.2" y="339.53791652126165" width="28.2" height="158.4620834787383" fill="#7070f8" data-tooltip="1.00x baseline speed (No JIT)"/>
<line x1="266.2" y1="338.0692616612984" x2="294.4" y2="338.0692616612984" stroke="#000"/>
<line x1="266.2" y1="341.00657138122483" x2="294.4" y2="341.00657138122483" stroke="#000"/>
<line x1="280.3" y1="338.0692616612984" x2="280.3" y2="341.00657138122483" stroke="#000"/>
<rect x="294.4" y="311.34565001622775" width="28.2" height="186.65434998377214" fill="orange" data-tooltip="1.18x baseline speed (YJIT)"/>
<line x1="294.4" y1="308.8144457388418" x2="322.6" y2="308.8144457388418" stroke="#000"/>
<line x1="294.4" y1="313.8768542936137" x2="322.6" y2="313.8768542936137" stroke="#000"/>
<line x1="308.5" y1="308.8144457388418" x2="308.5" y2="313.8768542936137" stroke="#000"/>
<line x1="308.5" y1="498.0" x2="308.5" y2="502.79999999999995" stroke="#000"/>
<text x="308.5" y="512.4" fill="#111" font-size="small" font-family="monospace" font-weight="bold" text-anchor="end" transform="rotate(-60, 308.5, 512.4)">
erubi
</text>
<rect x="350.8" y="339.53791652126165" width="28.2" height="158.4620834787383" fill="#7070f8" data-tooltip="1.00x baseline speed (No JIT)"/>
<line x1="350.8" y1="335.7034996812526" x2="379.0" y2="335.7034996812526" stroke="#000"/>
<line x1="350.8" y1="343.3723333612707" x2="379.0" y2="343.3723333612707" stroke="#000"/>
<line x1="364.9" y1="335.7034996812526" x2="364.9" y2="343.3723333612707" stroke="#000"/>
<rect x="379.0" y="235.16944715509672" width="28.2" height="262.8305528449032" fill="orange" data-tooltip="1.66x baseline speed (YJIT)"/>
<line x1="379.0" y1="223.91306982836144" x2="407.2" y2="223.91306982836144" stroke="#000"/>
<line x1="379.0" y1="246.42582448183202" x2="407.2" y2="246.42582448183202" stroke="#000"/>
<line x1="393.1" y1="223.91306982836144" x2="393.1" y2="246.42582448183202" stroke="#000"/>
<line x1="393.1" y1="498.0" x2="393.1" y2="502.79999999999995" stroke="#000"/>
<text x="393.1" y="512.4" fill="#111" font-size="small" font-family="monospace" font-weight="bold" text-anchor="end" transform="rotate(-60, 393.1, 512.4)">
erubi_rails
</text>
<rect x="435.40000000000003" y="339.53791652126165" width="28.2" height="158.4620834787383" fill="#7070f8" data-tooltip="1.00x baseline speed (No JIT)"/>
<line x1="435.40000000000003" y1="338.8640856827989" x2="463.6" y2="338.8640856827989" stroke="#000"/>
<line x1="435.40000000000003" y1="340.2117473597244" x2="463.6" y2="340.2117473597244" stroke="#000"/>
<line x1="449.5" y1="338.8640856827989" x2="449.5" y2="340.2117473597244" stroke="#000"/>
<rect x="463.6" y="337.77477155369354" width="28.2" height="160.22522844630643" fill="orange" data-tooltip="1.01x baseline speed (YJIT)"/>
<line x1="463.6" y1="336.7755434376154" x2="491.8" y2="336.7755434376154" stroke="#000"/>
<line x1="463.6" y1="338.7739996697716" x2="491.8" y2="338.7739996697716" stroke="#000"/>
<line x1="477.7" y1="336.7755434376154" x2="477.7" y2="338.7739996697716" stroke="#000"/>
<line x1="477.7" y1="498.0" x2="477.7" y2="502.79999999999995" stroke="#000"/>
<text x="477.7" y="512.4" fill="#111" font-size="small" font-family="monospace" font-weight="bold" text-anchor="end" transform="rotate(-60, 477.7, 512.4)">
etanni
</text>
<rect x="520.0" y="339.53791652126165" width="28.2" height="158.4620834787383" fill="#7070f8" data-tooltip="1.00x baseline speed (No JIT)"/>
<line x1="520.0" y1="338.7798178477257" x2="548.2" y2="338.7798178477257" stroke="#000"/>
<line x1="520.0" y1="340.2960151947976" x2="548.2" y2="340.2960151947976" stroke="#000"/>
<line x1="534.1" y1="338.7798178477257" x2="534.1" y2="340.2960151947976" stroke="#000"/>
<rect x="548.2" y="100.19999999999999" width="28.2" height="397.79999999999995" fill="orange" data-tooltip="2.51x baseline speed (YJIT)"/>
<line x1="548.2" y1="98.27756304980028" x2="576.4" y2="98.27756304980028" stroke="#000"/>
<line x1="548.2" y1="102.1224369501997" x2="576.4" y2="102.1224369501997" stroke="#000"/>
<line x1="562.3000000000001" y1="98.27756304980028" x2="562.3000000000001" y2="102.1224369501997" stroke="#000"/>
<line x1="562.3000000000001" y1="498.0" x2="562.3000000000001" y2="502.79999999999995" stroke="#000"/>
<text x="562.3000000000001" y="512.4" fill="#111" font-size="small" font-family="monospace" font-weight="bold" text-anchor="end" transform="rotate(-60, 562.3000000000001, 512.4)">
fannkuchredux
</text>
<rect x="604.5999999999999" y="339.53791652126165" width="28.2" height="158.4620834787383" fill="#7070f8" data-tooltip="1.00x baseline speed (No JIT)"/>
<line x1="604.5999999999999" y1="339.34961375474506" x2="632.8" y2="339.34961375474506" stroke="#000"/>
<line x1="604.5999999999999" y1="339.7262192877782" x2="632.8" y2="339.7262192877782" stroke="#000"/>
<line x1="618.6999999999999" y1="339.34961375474506" x2="618.6999999999999" y2="339.7262192877782" stroke="#000"/>
<rect x="632.8" y="276.3945487084152" width="28.2" height="221.60545129158476" fill="orange" data-tooltip="1.40x baseline speed (YJIT)"/>
<line x1="632.8" y1="276.0406332947449" x2="660.9999999999999" y2="276.0406332947449" stroke="#000"/>
<line x1="632.8" y1="276.74846412208547" x2="660.9999999999999" y2="276.74846412208547" stroke="#000"/>
<line x1="646.8999999999999" y1="276.0406332947449" x2="646.8999999999999" y2="276.74846412208547" stroke="#000"/>
<line x1="646.8999999999999" y1="498.0" x2="646.8999999999999" y2="502.79999999999995" stroke="#000"/>
<text x="646.8999999999999" y="512.4" fill="#111" font-size="small" font-family="monospace" font-weight="bold" text-anchor="end" transform="rotate(-60, 646.8999999999999, 512.4)">
lee
</text>
<rect x="689.1999999999999" y="339.53791652126165" width="28.2" height="158.4620834787383" fill="#7070f8" data-tooltip="1.00x baseline speed (No JIT)"/>
<line x1="689.1999999999999" y1="339.4032049747946" x2="717.4" y2="339.4032049747946" stroke="#000"/>
<line x1="689.1999999999999" y1="339.6726280677287" x2="717.4" y2="339.6726280677287" stroke="#000"/>
<line x1="703.3" y1="339.4032049747946" x2="703.3" y2="339.6726280677287" stroke="#000"/>
<rect x="717.4" y="214.97549742757286" width="28.2" height="283.024502572427" fill="orange" data-tooltip="1.79x baseline speed (YJIT)"/>
<line x1="717.4" y1="214.6797847727983" x2="745.5999999999999" y2="214.6797847727983" stroke="#000"/>
<line x1="717.4" y1="215.27121008234744" x2="745.5999999999999" y2="215.27121008234744" stroke="#000"/>
<line x1="731.4999999999999" y1="214.6797847727983" x2="731.4999999999999" y2="215.27121008234744" stroke="#000"/>
<line x1="731.4999999999999" y1="498.0" x2="731.4999999999999" y2="502.79999999999995" stroke="#000"/>
<text x="731.4999999999999" y="512.4" fill="#111" font-size="small" font-family="monospace" font-weight="bold" text-anchor="end" transform="rotate(-60, 731.4999999999999, 512.4)">
nbody
</text>
<rect x="773.8" y="339.53791652126165" width="28.2" height="158.4620834787383" fill="#7070f8" data-tooltip="1.00x baseline speed (No JIT)"/>
<line x1="773.8" y1="338.66507162668074" x2="801.9999999999999" y2="338.66507162668074" stroke="#000"/>
<line x1="773.8" y1="340.4107614158425" x2="801.9999999999999" y2="340.4107614158425" stroke="#000"/>
<line x1="787.9" y1="338.66507162668074" x2="787.9" y2="340.4107614158425" stroke="#000"/>
<rect x="801.9999999999999" y="271.1952482664701" width="28.2" height="226.80475173352986" fill="orange" data-tooltip="1.43x baseline speed (YJIT)"/>
<line x1="801.9999999999999" y1="269.7711823095826" x2="830.1999999999999" y2="269.7711823095826" stroke="#000"/>
<line x1="801.9999999999999" y1="272.6193142233576" x2="830.1999999999999" y2="272.6193142233576" stroke="#000"/>
<line x1="816.0999999999999" y1="269.7711823095826" x2="816.0999999999999" y2="272.6193142233576" stroke="#000"/>
<line x1="816.0999999999999" y1="498.0" x2="816.0999999999999" y2="502.79999999999995" stroke="#000"/>
<text x="816.0999999999999" y="512.4" fill="#111" font-size="small" font-family="monospace" font-weight="bold" text-anchor="end" transform="rotate(-60, 816.0999999999999, 512.4)">
optcarrot
</text>
<rect x="858.4" y="339.53791652126165" width="28.2" height="158.4620834787383" fill="#7070f8" data-tooltip="1.00x baseline speed (No JIT)"/>
<line x1="858.4" y1="338.90073974591303" x2="886.5999999999999" y2="338.90073974591303" stroke="#000"/>
<line x1="858.4" y1="340.17509329661027" x2="886.5999999999999" y2="340.17509329661027" stroke="#000"/>
<line x1="872.4999999999999" y1="338.90073974591303" x2="872.4999999999999" y2="340.17509329661027" stroke="#000"/>
<rect x="886.5999999999999" y="199.35001889143592" width="28.2" height="298.649981108564" fill="orange" data-tooltip="1.88x baseline speed (YJIT)"/>
<line x1="886.5999999999999" y1="197.76548188619824" x2="914.8" y2="197.76548188619824" stroke="#000"/>
<line x1="886.5999999999999" y1="200.93455589667357" x2="914.8" y2="200.93455589667357" stroke="#000"/>
<line x1="900.6999999999999" y1="197.76548188619824" x2="900.6999999999999" y2="200.93455589667357" stroke="#000"/>
<line x1="900.6999999999999" y1="498.0" x2="900.6999999999999" y2="502.79999999999995" stroke="#000"/>
<text x="900.6999999999999" y="512.4" fill="#111" font-size="small" font-family="monospace" font-weight="bold" text-anchor="end" transform="rotate(-60, 900.6999999999999, 512.4)">
rubykon
</text>
</svg>