<svg viewBox="0 0 1000 600" xmlns="http://www.w3.org/2000/svg" xmlns:xlink="http://www.w3.org/1999/xlink" width="100%" height="100%">

<rect x="50.0" y="30.0" width="940.0" height="467.99999999999994" stroke="#000" fill="#EEE"/>
<line x1="42.0" y1="497.9999999999999" x2="50.0" y2="497.9999999999999" stroke="#000"/>
<text x="26.000000000000004" y="497.9999999999999" text-anchor="end" font-weight="bold" font-size="small" fill="#111">
0.0
</text>
<line x1="42.0" y1="413.56857487866955" x2="50.0" y2="413.56857487866955" stroke="#000"/>
<text x="26.000000000000004" y="413.56857487866955" text-anchor="end" font-weight="bold" font-size="small" fill="#111">
0.5
</text>
<line x1="42.0" y1="329.13714975733905" x2="50.0" y2="329.13714975733905" stroke="#000"/>
<text x="26.000000000000004" y="329.13714975733905" text-anchor="end" font-weight="bold" font-size="small" fill="#111">
1.0
</text>
<line x1="42.0" y1="244.70572463600854" x2="50.0" y2="244.70572463600854" stroke="#000"/>
<text x="26.000000000000004" y="244.70572463600854" text-anchor="end" font-weight="bold" font-size="small" fill="#111">
1.5
</text>
<line x1="42.0" y1="160.27429951467806" x2="50.0" y2="160.27429951467806" stroke="#000"/>
<text x="26.000000000000004" y="160.27429951467806" text-anchor="end" font-weight="bold" font-size="small" fill="#111">
2.0
</text>
<rect x="268.5" y="36.00000000000001" width="80.0" height="18.0" fill="#7070f8" stroke="#888"/>
<text x="308.5" y="52.50000000000001" font-size="small" text-anchor="middle" font-weight="bold" fill="#EEE">
No JIT
</text>
<rect x="691.4999999999999" y="36.00000000000001" width="80.0" height="18.0" fill="orange" stroke="#888"/>
<text x="731.4999999999999" y="52.50000000000001" font-size="small" text-anchor="middle" font-weight="bold" fill="#EEE">
YJIT
</text>
<rect x="97.0" y="329.13714975733905" width="28.2" height="168.86285024266095" fill="#7070f8" data-tooltip="1.00x baseline speed (No JIT)"/>
<line x1="97.0" y1="328.9702004941855" x2="125.2" y2="328.9702004941855" stroke="#000"/>
<line x1="97.0" y1="329.3040990204925" x2="125.2" y2="329.3040990204925" stroke="#000"/>
<line x1="111.10000000000001" y1="328.9702004941855" x2="111.10000000000001" y2="329.3040990204925" stroke="#000"/>
<rect x="125.2" y="185.010509082417" width="28.2" height="312.98949091758294" fill="orange" data-tooltip="1.85x baseline speed (YJIT)"/>
<line x1="125.2" y1="184.4010519908293" x2="153.4" y2="184.4010519908293" stroke="#000"/>
<line x1="125.2" y1="185.6199661740047" x2="153.4" y2="185.6199661740047" stroke="#000"/>
<line x1="139.3" y1="184.4010519908293" x2="139.3" y2="185.6199661740047" stroke="#000"/>
<line x1="139.3" y1="498.0" x2="139.3" y2="502.79999999999995" stroke="#000"/>
<text x="139.3" y="512.4" fill="#111" font-size="small" font-family="monospace" font-weight="bold" text-anchor="end" transform="rotate(-60, 139.3, 512.4)">
binarytrees
</text>
<rect x="181.6" y="329.13714975733905" width="28.2" height="168.86285024266095" fill="#7070f8" data-tooltip="1.00x baseline speed (No JIT)"/>
<line x1="181.6" y1="328.65871133966994" x2="209.79999999999998" y2="328.65871133966994" stroke="#000"/>
<line x1="181.6" y1="329.61558817500816" x2="209.79999999999998" y2="329.61558817500816" stroke="#000"/>
<line x1="195.7" y1="328.65871133966994" x2="195.7" y2="329.61558817500816" stroke="#000"/>
<rect x="209.79999999999998" y="254.50386959815296" width="28.2" height="243.49613040184698" fill="orange" data-tooltip="1.44x baseline speed (YJIT)"/>
<line x1="209.79999999999998" y1="253.80270162096417" x2="238.0" y2="253.80270162096417" stroke="#000"/>
<line x1="209.79999999999998" y1="255.20503757534175" x2="238.0" y2="255.20503757534175" stroke="#000"/>
<line x1="223.89999999999998" y1="253.80270162096417" x2="223.89999999999998" y2="255.20503757534175" stroke="#000"/>
<line x1="223.89999999999998" y1="498.0" x2="223.89999999999998" y2="502.79999999999995" stroke="#000"/>
<text x="223.89999999999998" y="512.4" fill="#111" font-size="small" font-family="monospace" font-weight="bold" text-anchor="end" transform="rotate(-60, 223.89999999999998, 512.4)">
chunky_png
</text>
<rect x="266.2" y="329.13714975733905" width="28.2" height="168.86285024266095" fill="#7070f8" data-tooltip="1.00x baseline speed (No JIT)"/>
<line x1="266.2" y1="327.65566819118067" x2="294.4" y2="327.65566819118067" stroke="#000"/>
<line x1="266.2" y1="330.6186313234974" x2="294.4" y2="330.6186313234974" stroke="#000"/>
<line x1="280.3" y1="327.65566819118067" x2="280.3" y2="330.6186313234974" stroke="#000"/>
<rect x="294.4" y="309.6779928179403" width="28.2" height="188.32200718205965" fill="orange" data-tooltip="1.12x baseline speed (YJIT)"/>
<line x1="294.4" y1="307.33253106792466" x2="322.6" y2="307.33253106792466" stroke="#000"/>
<line x1="294.4" y1="312.023454567956" x2="322.6" y2="312.023454567956" stroke="#000"/>
<line x1="308.5" y1="307.33253106792466" x2="308.5" y2="312.023454567956" stroke="#000"/>
<line x1="308.5" y1="498.0" x2="308.5" y2="502.79999999999995" stroke="#000"/>
<text x="308.5" y="512.4" fill="#111" font-size="small" font-family="monospace" font-weight="bold" text-anchor="end" transform="rotate(-60, 308.5, 512.4)">
erubi
</text>
<rect x="350.8" y="329.13714975733905" width="28.2" height="168.86285024266095" fill="#7070f8" data-tooltip="1.00x baseline speed (No JIT)"/>
<line x1="350.8" y1="325.25813960481446" x2="379.0" y2="325.25813960481446" stroke="#000"/>
<line x1="350.8" y1="333.01615990986363" x2="379.0" y2="333.01615990986363" stroke="#000"/>
<line x1="364.9" y1="325.25813960481446" x2="364.9" y2="333.01615990986363" stroke="#000"/>
<rect x="379.0" y="286.6213476999216" width="28.2" height="211.37865230007833" fill="orange" data-tooltip="1.25x baseline speed (YJIT)"/>
<line x1="379.0" y1="279.5371337071356" x2="407.2" y2="279.5371337071356" stroke="#000"/>
<line x1="379.0" y1="293.7055616927076" x2="407.2" y2="293.7055616927076" stroke="#000"/>
<line x1="393.1" y1="279.5371337071356" x2="393.1" y2="293.7055616927076" stroke="#000"/>
<line x1="393.1" y1="498.0" x2="393.1" y2="502.79999999999995" stroke="#000"/>
<text x="393.1" y="512.4" fill="#111" font-size="small" font-family="monospace" font-weight="bold" text-anchor="end" transform="rotate(-60, 393.1, 512.4)">
erubi_rails
</text>
<rect x="435.40000000000003" y="329.13714975733905" width="28.2" height="168.86285024266095" fill="#7070f8" data-tooltip="1.00x baseline speed (No JIT)"/>
<line x1="435.40000000000003" y1="328.15600481019555" x2="463.6" y2="328.15600481019555" stroke="#000"/>
<line x1="435.40000000000003" y1="330.1182947044825" x2="463.6" y2="330.1182947044825" stroke="#000"/>
<line x1="449.5" y1="328.15600481019555" x2="449.5" y2="330.1182947044825" stroke="#000"/>
<rect x="463.6" y="326.3671410096167" width="28.2" height="171.63285899038323" fill="orange" data-tooltip="1.02x baseline speed (YJIT)"/>
<line x1="463.6" y1="324.8082190654203" x2="491.8" y2="324.8082190654203" stroke="#000"/>
<line x1="463.6" y1="327.92606295381313" x2="491.8" y2="327.92606295381313" stroke="#000"/>
<line x1="477.7" y1="324.8082190654203" x2="477.7" y2="327.92606295381313" stroke="#000"/>
<line x1="477.7" y1="498.0" x2="477.7" y2="502.79999999999995" stroke="#000"/>
<text x="477.7" y="512.4" fill="#111" font-size="small" font-family="monospace" font-weight="bold" text-anchor="end" transform="rotate(-60, 477.7, 512.4)">
etanni
</text>
<rect x="520.0" y="329.13714975733905" width="28.2" height="168.86285024266095" fill="#7070f8" data-tooltip="1.00x baseline speed (No JIT)"/>
<line x1="520.0" y1="328.15883777461454" x2="548.2" y2="328.15883777461454" stroke="#000"/>
<line x1="520.0" y1="330.1154617400635" x2="548.2" y2="330.1154617400635" stroke="#000"/>
<line x1="534.1" y1="328.15883777461454" x2="534.1" y2="330.1154617400635" stroke="#000"/>
<rect x="548.2" y="100.19999999999999" width="28.2" height="397.79999999999995" fill="orange" data-tooltip="2.36x baseline speed (YJIT)"/>
<line x1="548.2" y1="92.91862782518724" x2="576.4" y2="92.91862782518724" stroke="#000"/>
<line x1="548.2" y1="107.48137217481273" x2="576.4" y2="107.48137217481273" stroke="#000"/>
<line x1="562.3000000000001" y1="92.91862782518724" x2="562.3000000000001" y2="107.48137217481273" stroke="#000"/>
<line x1="562.3000000000001" y1="498.0" x2="562.3000000000001" y2="502.79999999999995" stroke="#000"/>
<text x="562.3000000000001" y="512.4" fill="#111" font-size="small" font-family="monospace" font-weight="bold" text-anchor="end" transform="rotate(-60, 562.3000000000001, 512.4)">
fannkuchredux
</text>
<rect x="604.5999999999999" y="329.13714975733905" width="28.2" height="168.86285024266095" fill="#7070f8" data-tooltip="1.00x baseline speed (No JIT)"/>
<line x1="604.5999999999999" y1="328.69948473811934" x2="632.8" y2="328.69948473811934" stroke="#000"/>
<line x1="604.5999999999999" y1="329.5748147765587" x2="632.8" y2="329.5748147765587" stroke="#000"/>
<line x1="618.6999999999999" y1="328.69948473811934" x2="618.6999999999999" y2="329.5748147765587" stroke="#000"/>
<rect x="632.8" y="278.38280732073594" width="28.2" height="219.617192679264" fill="orange" data-tooltip="1.30x baseline speed (YJIT)"/>
<line x1="632.8" y1="277.45142371331525" x2="660.9999999999999" y2="277.45142371331525" stroke="#000"/>
<line x1="632.8" y1="279.3141909281566" x2="660.9999999999999" y2="279.3141909281566" stroke="#000"/>
<line x1="646.8999999999999" y1="277.45142371331525" x2="646.8999999999999" y2="279.3141909281566" stroke="#000"/>
<line x1="646.8999999999999" y1="498.0" x2="646.8999999999999" y2="502.79999999999995" stroke="#000"/>
<text x="646.8999999999999" y="512.4" fill="#111" font-size="small" font-family="monospace" font-weight="bold" text-anchor="end" transform="rotate(-60, 646.8999999999999, 512.4)">
lee
</text>
<rect x="689.1999999999999" y="329.13714975733905" width="28.2" height="168.86285024266095" fill="#7070f8" data-tooltip="1.00x baseline speed (No JIT)"/>
<line x1="689.1999999999999" y1="326.4479667983357" x2="717.4" y2="326.4479667983357" stroke="#000"/>
<line x1="689.1999999999999" y1="331.82633271634234" x2="717.4" y2="331.82633271634234" stroke="#000"/>
<line x1="703.3" y1="326.4479667983357" x2="703.3" y2="331.82633271634234" stroke="#000"/>
<rect x="717.4" y="239.68290182246636" width="28.2" height="258.3170981775336" fill="orange" data-tooltip="1.53x baseline speed (YJIT)"/>
<line x1="717.4" y1="235.56586121267162" x2="745.5999999999999" y2="235.56586121267162" stroke="#000"/>
<line x1="717.4" y1="243.7999424322611" x2="745.5999999999999" y2="243.7999424322611" stroke="#000"/>
<line x1="731.4999999999999" y1="235.56586121267162" x2="731.4999999999999" y2="243.7999424322611" stroke="#000"/>
<line x1="731.4999999999999" y1="498.0" x2="731.4999999999999" y2="502.79999999999995" stroke="#000"/>
<text x="731.4999999999999" y="512.4" fill="#111" font-size="small" font-family="monospace" font-weight="bold" text-anchor="end" transform="rotate(-60, 731.4999999999999, 512.4)">
nbody
</text>
<rect x="773.8" y="329.13714975733905" width="28.2" height="168.86285024266095" fill="#7070f8" data-tooltip="1.00x baseline speed (No JIT)"/>
<line x1="773.8" y1="328.3727806170984" x2="801.9999999999999" y2="328.3727806170984" stroke="#000"/>
<line x1="773.8" y1="329.9015188975797" x2="801.9999999999999" y2="329.9015188975797" stroke="#000"/>
<line x1="787.9" y1="328.3727806170984" x2="787.9" y2="329.9015188975797" stroke="#000"/>
<rect x="801.9999999999999" y="249.27699436794134" width="28.2" height="248.72300563205863" fill="orange" data-tooltip="1.47x baseline speed (YJIT)"/>
<line x1="801.9999999999999" y1="247.76470583227697" x2="830.1999999999999" y2="247.76470583227697" stroke="#000"/>
<line x1="801.9999999999999" y1="250.78928290360574" x2="830.1999999999999" y2="250.78928290360574" stroke="#000"/>
<line x1="816.0999999999999" y1="247.76470583227697" x2="816.0999999999999" y2="250.78928290360574" stroke="#000"/>
<line x1="816.0999999999999" y1="498.0" x2="816.0999999999999" y2="502.79999999999995" stroke="#000"/>
<text x="816.0999999999999" y="512.4" fill="#111" font-size="small" font-family="monospace" font-weight="bold" text-anchor="end" transform="rotate(-60, 816.0999999999999, 512.4)">
optcarrot
</text>
<rect x="858.4" y="329.13714975733905" width="28.2" height="168.86285024266095" fill="#7070f8" data-tooltip="1.00x baseline speed (No JIT)"/>
<line x1="858.4" y1="328.5964035595042" x2="886.5999999999999" y2="328.5964035595042" stroke="#000"/>
<line x1="858.4" y1="329.6778959551738" x2="886.5999999999999" y2="329.6778959551738" stroke="#000"/>
<line x1="872.4999999999999" y1="328.5964035595042" x2="872.4999999999999" y2="329.6778959551738" stroke="#000"/>
<rect x="886.5999999999999" y="249.17711505439655" width="28.2" height="248.8228849456034" fill="orange" data-tooltip="1.47x baseline speed (YJIT)"/>
<line x1="886.5999999999999" y1="247.66741370871424" x2="914.8" y2="247.66741370871424" stroke="#000"/>
<line x1="886.5999999999999" y1="250.6868164000789" x2="914.8" y2="250.6868164000789" stroke="#000"/>
<line x1="900.6999999999999" y1="247.66741370871424" x2="900.6999999999999" y2="250.6868164000789" stroke="#000"/>
<line x1="900.6999999999999" y1="498.0" x2="900.6999999999999" y2="502.79999999999995" stroke="#000"/>
<text x="900.6999999999999" y="512.4" fill="#111" font-size="small" font-family="monospace" font-weight="bold" text-anchor="end" transform="rotate(-60, 900.6999999999999, 512.4)">
rubykon
</text>
</svg>