<svg viewBox="0 0 1000 600" xmlns="http://www.w3.org/2000/svg" xmlns:xlink="http://www.w3.org/1999/xlink" width="100%" height="100%">

<rect x="50.0" y="30.0" width="940.0" height="467.99999999999994" stroke="#000" fill="#EEE"/>
<line x1="42.0" y1="497.9999999999999" x2="50.0" y2="497.9999999999999" stroke="#000"/>
<text x="26.000000000000004" y="497.9999999999999" text-anchor="end" font-weight="bold" font-size="small" fill="#111">
0.0
</text>
<line x1="42.0" y1="443.1598431838029" x2="50.0" y2="443.1598431838029" stroke="#000"/>
<text x="26.000000000000004" y="443.1598431838029" text-anchor="end" font-weight="bold" font-size="small" fill="#111">
1.0
</text>
<line x1="42.0" y1="388.3196863676058" x2="50.0" y2="388.3196863676058" stroke="#000"/>
<text x="26.000000000000004" y="388.3196863676058" text-anchor="end" font-weight="bold" font-size="small" fill="#111">
2.0
</text>
<line x1="42.0" y1="333.47952955140875" x2="50.0" y2="333.47952955140875" stroke="#000"/>
<text x="26.000000000000004" y="333.47952955140875" text-anchor="end" font-weight="bold" font-size="small" fill="#111">
3.0
</text>
<line x1="42.0" y1="278.63937273521174" x2="50.0" y2="278.63937273521174" stroke="#000"/>
<text x="26.000000000000004" y="278.63937273521174" text-anchor="end" font-weight="bold" font-size="small" fill="#111">
4.0
</text>
<line x1="42.0" y1="223.7992159190146" x2="50.0" y2="223.7992159190146" stroke="#000"/>
<text x="26.000000000000004" y="223.7992159190146" text-anchor="end" font-weight="bold" font-size="small" fill="#111">
5.0
</text>
<line x1="42.0" y1="168.95905910281758" x2="50.0" y2="168.95905910281758" stroke="#000"/>
<text x="26.000000000000004" y="168.95905910281758" text-anchor="end" font-weight="bold" font-size="small" fill="#111">
6.0
</text>
<line x1="42.0" y1="114.11890228662051" x2="50.0" y2="114.11890228662051" stroke="#000"/>
<text x="26.000000000000004" y="114.11890228662051" text-anchor="end" font-weight="bold" font-size="small" fill="#111">
7.0
</text>
<rect x="197.99999999999997" y="36.00000000000001" width="80.0" height="18.0" fill="#7070f8" stroke="#888"/>
<text x="238.0" y="52.50000000000001" font-size="small" text-anchor="middle" font-weight="bold" fill="#EEE">
No JIT
</text>
<rect x="479.99999999999994" y="36.00000000000001" width="80.0" height="18.0" fill="orange" stroke="#888"/>
<text x="519.9999999999999" y="52.50000000000001" font-size="small" text-anchor="middle" font-weight="bold" fill="#EEE">
MJIT
</text>
<rect x="761.9999999999999" y="36.00000000000001" width="80.0" height="18.0" fill="green" stroke="#888"/>
<text x="801.9999999999999" y="52.50000000000001" font-size="small" text-anchor="middle" font-weight="bold" fill="#EEE">
YJIT
</text>
<rect x="97.0" y="443.1598431838029" width="8.8125" height="54.84015681619706" fill="#7070f8" data-tooltip="1.00x baseline speed (No JIT)"/>
<line x1="97.0" y1="442.7027345828899" x2="105.8125" y2="442.7027345828899" stroke="#000"/>
<line x1="97.0" y1="443.61695178471587" x2="105.8125" y2="443.61695178471587" stroke="#000"/>
<line x1="101.40625" y1="442.7027345828899" x2="101.40625" y2="443.61695178471587" stroke="#000"/>
<rect x="105.8125" y="444.3141780106026" width="8.8125" height="53.68582198939731" fill="orange" data-tooltip="0.98x baseline speed (MJIT)"/>
<line x1="105.8125" y1="443.5649772747718" x2="114.625" y2="443.5649772747718" stroke="#000"/>
<line x1="105.8125" y1="445.06337874643333" x2="114.625" y2="445.06337874643333" stroke="#000"/>
<line x1="110.21875" y1="443.5649772747718" x2="110.21875" y2="445.06337874643333" stroke="#000"/>
<rect x="114.625" y="417.49052153010126" width="8.8125" height="80.50947846989864" fill="green" data-tooltip="1.47x baseline speed (YJIT)"/>
<line x1="114.625" y1="416.6792738747584" x2="123.4375" y2="416.6792738747584" stroke="#000"/>
<line x1="114.625" y1="418.3017691854442" x2="123.4375" y2="418.3017691854442" stroke="#000"/>
<line x1="119.03125" y1="416.6792738747584" x2="119.03125" y2="418.3017691854442" stroke="#000"/>
<line x1="114.625" y1="498.0" x2="114.625" y2="502.79999999999995" stroke="#000"/>
<text x="114.625" y="512.4" fill="#111" font-size="small" font-family="monospace" font-weight="bold" text-anchor="end" transform="rotate(-60, 114.625, 512.4)">
activerecord
</text>
<rect x="132.25" y="443.1598431838029" width="8.8125" height="54.84015681619706" fill="#7070f8" data-tooltip="1.00x baseline speed (No JIT)"/>
<line x1="132.25" y1="442.80419233318713" x2="141.0625" y2="442.80419233318713" stroke="#000"/>
<line x1="132.25" y1="443.51549403441857" x2="141.0625" y2="443.51549403441857" stroke="#000"/>
<line x1="136.65625" y1="442.80419233318713" x2="136.65625" y2="443.51549403441857" stroke="#000"/>
<rect x="149.875" y="421.99209764128074" width="8.8125" height="76.00790235871922" fill="green" data-tooltip="1.39x baseline speed (YJIT)"/>
<line x1="149.875" y1="420.32169281018776" x2="158.6875" y2="420.32169281018776" stroke="#000"/>
<line x1="149.875" y1="423.6625024723738" x2="158.6875" y2="423.6625024723738" stroke="#000"/>
<line x1="154.28125" y1="420.32169281018776" x2="154.28125" y2="423.6625024723738" stroke="#000"/>
<line x1="149.875" y1="498.0" x2="149.875" y2="502.79999999999995" stroke="#000"/>
<text x="149.875" y="512.4" fill="#111" font-size="small" font-family="monospace" font-weight="bold" text-anchor="end" transform="rotate(-60, 149.875, 512.4)">
hexapdf
</text>
<rect x="167.49999999999997" y="443.1598431838029" width="8.8125" height="54.84015681619706" fill="#7070f8" data-tooltip="1.00x baseline speed (No JIT)"/>
<line x1="167.49999999999997" y1="442.62361874526204" x2="176.31249999999997" y2="442.62361874526204" stroke="#000"/>
<line x1="167.49999999999997" y1="443.69606762234366" x2="176.31249999999997" y2="443.69606762234366" stroke="#000"/>
<line x1="171.90624999999997" y1="442.62361874526204" x2="171.90624999999997" y2="443.69606762234366" stroke="#000"/>
<rect x="176.31249999999997" y="434.8189696859067" width="8.8125" height="63.18103031409324" fill="orange" data-tooltip="1.15x baseline speed (MJIT)"/>
<line x1="176.31249999999997" y1="433.62582133905966" x2="185.12499999999997" y2="433.62582133905966" stroke="#000"/>
<line x1="176.31249999999997" y1="436.01211803275373" x2="185.12499999999997" y2="436.01211803275373" stroke="#000"/>
<line x1="180.71874999999997" y1="433.62582133905966" x2="180.71874999999997" y2="436.01211803275373" stroke="#000"/>
<rect x="185.12499999999997" y="412.29178496473014" width="8.8125" height="85.70821503526982" fill="green" data-tooltip="1.56x baseline speed (YJIT)"/>
<line x1="185.12499999999997" y1="410.64929422368215" x2="193.93749999999997" y2="410.64929422368215" stroke="#000"/>
<line x1="185.12499999999997" y1="413.9342757057781" x2="193.93749999999997" y2="413.9342757057781" stroke="#000"/>
<line x1="189.53124999999997" y1="410.64929422368215" x2="189.53124999999997" y2="413.9342757057781" stroke="#000"/>
<line x1="185.12499999999997" y1="498.0" x2="185.12499999999997" y2="502.79999999999995" stroke="#000"/>
<text x="185.12499999999997" y="512.4" fill="#111" font-size="small" font-family="monospace" font-weight="bold" text-anchor="end" transform="rotate(-60, 185.12499999999997, 512.4)">
liquid-render
</text>
<rect x="202.75" y="443.1598431838029" width="8.8125" height="54.84015681619706" fill="#7070f8" data-tooltip="1.00x baseline speed (No JIT)"/>
<line x1="202.75" y1="443.0896771734684" x2="211.5625" y2="443.0896771734684" stroke="#000"/>
<line x1="202.75" y1="443.2300091941373" x2="211.5625" y2="443.2300091941373" stroke="#000"/>
<line x1="207.15625" y1="443.0896771734684" x2="207.15625" y2="443.2300091941373" stroke="#000"/>
<rect x="211.5625" y="442.1915236336799" width="8.8125" height="55.808476366320065" fill="orange" data-tooltip="1.02x baseline speed (MJIT)"/>
<line x1="211.5625" y1="441.0206797653771" x2="220.375" y2="441.0206797653771" stroke="#000"/>
<line x1="211.5625" y1="443.36236750198265" x2="220.375" y2="443.36236750198265" stroke="#000"/>
<line x1="215.96875" y1="441.0206797653771" x2="215.96875" y2="443.36236750198265" stroke="#000"/>
<rect x="220.375" y="435.2064877803955" width="8.8125" height="62.793512219604395" fill="green" data-tooltip="1.15x baseline speed (YJIT)"/>
<line x1="220.375" y1="435.08399146077534" x2="229.1875" y2="435.08399146077534" stroke="#000"/>
<line x1="220.375" y1="435.3289841000156" x2="229.1875" y2="435.3289841000156" stroke="#000"/>
<line x1="224.78125" y1="435.08399146077534" x2="224.78125" y2="435.3289841000156" stroke="#000"/>
<line x1="220.375" y1="498.0" x2="220.375" y2="502.79999999999995" stroke="#000"/>
<text x="220.375" y="512.4" fill="#111" font-size="small" font-family="monospace" font-weight="bold" text-anchor="end" transform="rotate(-60, 220.375, 512.4)">
mail
</text>
<rect x="238.0" y="443.1598431838029" width="8.8125" height="54.84015681619706" fill="#7070f8" data-tooltip="1.00x baseline speed (No JIT)"/>
<line x1="238.0" y1="443.13292523658583" x2="246.8125" y2="443.13292523658583" stroke="#000"/>
<line x1="238.0" y1="443.18676113101986" x2="246.8125" y2="443.18676113101986" stroke="#000"/>
<line x1="242.40625" y1="443.13292523658583" x2="242.40625" y2="443.18676113101986" stroke="#000"/>
<rect x="246.8125" y="434.2213542037832" width="8.8125" height="63.77864579621675" fill="orange" data-tooltip="1.16x baseline speed (MJIT)"/>
<line x1="246.8125" y1="434.17851854272703" x2="255.625" y2="434.17851854272703" stroke="#000"/>
<line x1="246.8125" y1="434.26418986483947" x2="255.625" y2="434.26418986483947" stroke="#000"/>
<line x1="251.21875" y1="434.17851854272703" x2="251.21875" y2="434.26418986483947" stroke="#000"/>
<rect x="255.625" y="425.46411437576796" width="8.8125" height="72.53588562423191" fill="green" data-tooltip="1.32x baseline speed (YJIT)"/>
<line x1="255.625" y1="425.42474302159235" x2="264.4375" y2="425.42474302159235" stroke="#000"/>
<line x1="255.625" y1="425.50348572994363" x2="264.4375" y2="425.50348572994363" stroke="#000"/>
<line x1="260.03125" y1="425.42474302159235" x2="260.03125" y2="425.50348572994363" stroke="#000"/>
<line x1="255.625" y1="498.0" x2="255.625" y2="502.79999999999995" stroke="#000"/>
<text x="255.625" y="512.4" fill="#111" font-size="small" font-family="monospace" font-weight="bold" text-anchor="end" transform="rotate(-60, 255.625, 512.4)">
psych-load
</text>
<rect x="273.25" y="443.1598431838029" width="8.8125" height="54.84015681619706" fill="#7070f8" data-tooltip="1.00x baseline speed (No JIT)"/>
<line x1="273.25" y1="442.75359526213765" x2="282.0625" y2="442.75359526213765" stroke="#000"/>
<line x1="273.25" y1="443.56609110546805" x2="282.0625" y2="443.56609110546805" stroke="#000"/>
<line x1="277.65625" y1="442.75359526213765" x2="277.65625" y2="443.56609110546805" stroke="#000"/>
<rect x="282.0625" y="443.6563861765265" width="8.8125" height="54.34361382347342" fill="orange" data-tooltip="0.99x baseline speed (MJIT)"/>
<line x1="282.0625" y1="443.12626515556894" x2="290.875" y2="443.12626515556894" stroke="#000"/>
<line x1="282.0625" y1="444.18650719748405" x2="290.875" y2="444.18650719748405" stroke="#000"/>
<line x1="286.46875" y1="443.12626515556894" x2="286.46875" y2="444.18650719748405" stroke="#000"/>
<rect x="290.875" y="425.06134965879374" width="8.8125" height="72.93865034120614" fill="green" data-tooltip="1.33x baseline speed (YJIT)"/>
<line x1="290.875" y1="424.14947121017263" x2="299.6875" y2="424.14947121017263" stroke="#000"/>
<line x1="290.875" y1="425.9732281074148" x2="299.6875" y2="425.9732281074148" stroke="#000"/>
<line x1="295.28125" y1="424.14947121017263" x2="295.28125" y2="425.9732281074148" stroke="#000"/>
<line x1="290.875" y1="498.0" x2="290.875" y2="502.79999999999995" stroke="#000"/>
<text x="290.875" y="512.4" fill="#111" font-size="small" font-family="monospace" font-weight="bold" text-anchor="end" transform="rotate(-60, 290.875, 512.4)">
railsbench
</text>
<rect x="308.5" y="443.1598431838029" width="8.8125" height="54.84015681619706" fill="#7070f8" data-tooltip="1.00x baseline speed (No JIT)"/>
<line x1="308.5" y1="443.132871170338" x2="317.3125" y2="443.132871170338" stroke="#000"/>
<line x1="308.5" y1="443.1868151972677" x2="317.3125" y2="443.1868151972677" stroke="#000"/>
<line x1="312.90625" y1="443.132871170338" x2="312.90625" y2="443.1868151972677" stroke="#000"/>
<rect x="317.3125" y="414.4338828911094" width="8.8125" height="83.5661171088906" fill="orange" data-tooltip="1.52x baseline speed (MJIT)"/>
<line x1="317.3125" y1="414.15559367108074" x2="326.125" y2="414.15559367108074" stroke="#000"/>
<line x1="317.3125" y1="414.7121721111381" x2="326.125" y2="414.7121721111381" stroke="#000"/>
<line x1="321.71875" y1="414.15559367108074" x2="321.71875" y2="414.7121721111381" stroke="#000"/>
<rect x="326.125" y="426.58030499423177" width="8.8125" height="71.41969500576818" fill="green" data-tooltip="1.30x baseline speed (YJIT)"/>
<line x1="326.125" y1="426.5299798395669" x2="334.9375" y2="426.5299798395669" stroke="#000"/>
<line x1="326.125" y1="426.6306301488966" x2="334.9375" y2="426.6306301488966" stroke="#000"/>
<line x1="330.53125" y1="426.5299798395669" x2="330.53125" y2="426.6306301488966" stroke="#000"/>
<line x1="326.125" y1="498.0" x2="326.125" y2="502.79999999999995" stroke="#000"/>
<text x="326.125" y="512.4" fill="#111" font-size="small" font-family="monospace" font-weight="bold" text-anchor="end" transform="rotate(-60, 326.125, 512.4)">
binarytrees
</text>
<rect x="343.75" y="443.1598431838029" width="8.8125" height="54.84015681619706" fill="#7070f8" data-tooltip="1.00x baseline speed (No JIT)"/>
<line x1="343.75" y1="443.126357089451" x2="352.5625" y2="443.126357089451" stroke="#000"/>
<line x1="343.75" y1="443.1933292781547" x2="352.5625" y2="443.1933292781547" stroke="#000"/>
<line x1="348.15625" y1="443.126357089451" x2="348.15625" y2="443.1933292781547" stroke="#000"/>
<rect x="352.5625" y="428.7050419456889" width="8.8125" height="69.29495805431104" fill="orange" data-tooltip="1.26x baseline speed (MJIT)"/>
<line x1="352.5625" y1="428.65549517048726" x2="361.375" y2="428.65549517048726" stroke="#000"/>
<line x1="352.5625" y1="428.7545887208905" x2="361.375" y2="428.7545887208905" stroke="#000"/>
<line x1="356.96875" y1="428.65549517048726" x2="356.96875" y2="428.7545887208905" stroke="#000"/>
<rect x="361.375" y="416.03263663534653" width="8.8125" height="81.96736336465347" fill="green" data-tooltip="1.49x baseline speed (YJIT)"/>
<line x1="361.375" y1="415.9203630293432" x2="370.1875" y2="415.9203630293432" stroke="#000"/>
<line x1="361.375" y1="416.14491024134986" x2="370.1875" y2="416.14491024134986" stroke="#000"/>
<line x1="365.78125" y1="415.9203630293432" x2="365.78125" y2="416.14491024134986" stroke="#000"/>
<line x1="361.375" y1="498.0" x2="361.375" y2="502.79999999999995" stroke="#000"/>
<text x="361.375" y="512.4" fill="#111" font-size="small" font-family="monospace" font-weight="bold" text-anchor="end" transform="rotate(-60, 361.375, 512.4)">
chunky_png
</text>
<rect x="379.0" y="443.1598431838029" width="8.8125" height="54.84015681619706" fill="#7070f8" data-tooltip="1.00x baseline speed (No JIT)"/>
<line x1="379.0" y1="442.85547728510227" x2="387.8125" y2="442.85547728510227" stroke="#000"/>
<line x1="379.0" y1="443.46420908250343" x2="387.8125" y2="443.46420908250343" stroke="#000"/>
<line x1="383.40625" y1="442.85547728510227" x2="383.40625" y2="443.46420908250343" stroke="#000"/>
<rect x="387.8125" y="437.44237025953925" width="8.8125" height="60.55762974046068" fill="orange" data-tooltip="1.10x baseline speed (MJIT)"/>
<line x1="387.8125" y1="436.906299668322" x2="396.625" y2="436.906299668322" stroke="#000"/>
<line x1="387.8125" y1="437.9784408507565" x2="396.625" y2="437.9784408507565" stroke="#000"/>
<line x1="392.21875" y1="436.906299668322" x2="392.21875" y2="437.9784408507565" stroke="#000"/>
<rect x="396.625" y="429.9739436679895" width="8.8125" height="68.02605633201038" fill="green" data-tooltip="1.24x baseline speed (YJIT)"/>
<line x1="396.625" y1="429.392865368999" x2="405.4375" y2="429.392865368999" stroke="#000"/>
<line x1="396.625" y1="430.55502196698" x2="405.4375" y2="430.55502196698" stroke="#000"/>
<line x1="401.03125" y1="429.392865368999" x2="401.03125" y2="430.55502196698" stroke="#000"/>
<line x1="396.625" y1="498.0" x2="396.625" y2="502.79999999999995" stroke="#000"/>
<text x="396.625" y="512.4" fill="#111" font-size="small" font-family="monospace" font-weight="bold" text-anchor="end" transform="rotate(-60, 396.625, 512.4)">
erubi
</text>
<rect x="414.25" y="443.1598431838029" width="8.8125" height="54.84015681619706" fill="#7070f8" data-tooltip="1.00x baseline speed (No JIT)"/>
<line x1="414.25" y1="441.90858729338794" x2="423.0625" y2="441.90858729338794" stroke="#000"/>
<line x1="414.25" y1="444.41109907421776" x2="423.0625" y2="444.41109907421776" stroke="#000"/>
<line x1="418.65625" y1="441.90858729338794" x2="418.65625" y2="444.41109907421776" stroke="#000"/>
<rect x="423.0625" y="442.5074175173522" width="8.8125" height="55.49258248264773" fill="orange" data-tooltip="1.01x baseline speed (MJIT)"/>
<line x1="423.0625" y1="440.77760873014836" x2="431.875" y2="440.77760873014836" stroke="#000"/>
<line x1="423.0625" y1="444.2372263045561" x2="431.875" y2="444.2372263045561" stroke="#000"/>
<line x1="427.46875" y1="440.77760873014836" x2="427.46875" y2="444.2372263045561" stroke="#000"/>
<rect x="431.875" y="421.5004475923967" width="8.8125" height="76.49955240760326" fill="green" data-tooltip="1.39x baseline speed (YJIT)"/>
<line x1="431.875" y1="418.5481167248461" x2="440.6875" y2="418.5481167248461" stroke="#000"/>
<line x1="431.875" y1="424.45277845994724" x2="440.6875" y2="424.45277845994724" stroke="#000"/>
<line x1="436.28125" y1="418.5481167248461" x2="436.28125" y2="424.45277845994724" stroke="#000"/>
<line x1="431.875" y1="498.0" x2="431.875" y2="502.79999999999995" stroke="#000"/>
<text x="431.875" y="512.4" fill="#111" font-size="small" font-family="monospace" font-weight="bold" text-anchor="end" transform="rotate(-60, 431.875, 512.4)">
erubi_rails
</text>
<rect x="449.5" y="443.1598431838029" width="8.8125" height="54.84015681619706" fill="#7070f8" data-tooltip="1.00x baseline speed (No JIT)"/>
<line x1="449.5" y1="443.0871231651009" x2="458.3125" y2="443.0871231651009" stroke="#000"/>
<line x1="449.5" y1="443.2325632025049" x2="458.3125" y2="443.2325632025049" stroke="#000"/>
<line x1="453.90625" y1="443.0871231651009" x2="453.90625" y2="443.2325632025049" stroke="#000"/>
<rect x="458.3125" y="413.04146596655596" width="8.8125" height="84.95853403344401" fill="orange" data-tooltip="1.55x baseline speed (MJIT)"/>
<line x1="458.3125" y1="412.8837528632" x2="467.125" y2="412.8837528632" stroke="#000"/>
<line x1="458.3125" y1="413.1991790699119" x2="467.125" y2="413.1991790699119" stroke="#000"/>
<line x1="462.71875" y1="412.8837528632" x2="462.71875" y2="413.1991790699119" stroke="#000"/>
<rect x="467.125" y="444.9555918080645" width="8.8125" height="53.04440819193535" fill="green" data-tooltip="0.97x baseline speed (YJIT)"/>
<line x1="467.125" y1="444.8296154406038" x2="475.9375" y2="444.8296154406038" stroke="#000"/>
<line x1="467.125" y1="445.0815681755253" x2="475.9375" y2="445.0815681755253" stroke="#000"/>
<line x1="471.53125" y1="444.8296154406038" x2="471.53125" y2="445.0815681755253" stroke="#000"/>
<line x1="467.125" y1="498.0" x2="467.125" y2="502.79999999999995" stroke="#000"/>
<text x="467.125" y="512.4" fill="#111" font-size="small" font-family="monospace" font-weight="bold" text-anchor="end" transform="rotate(-60, 467.125, 512.4)">
fannkuchredux
</text>
<rect x="484.75" y="443.1598431838029" width="8.8125" height="54.84015681619706" fill="#7070f8" data-tooltip="1.00x baseline speed (No JIT)"/>
<line x1="484.75" y1="442.9368231562923" x2="493.5625" y2="442.9368231562923" stroke="#000"/>
<line x1="484.75" y1="443.38286321131346" x2="493.5625" y2="443.38286321131346" stroke="#000"/>
<line x1="489.15625" y1="442.9368231562923" x2="489.15625" y2="443.38286321131346" stroke="#000"/>
<rect x="493.5625" y="430.89792373156985" width="8.8125" height="67.10207626843008" fill="orange" data-tooltip="1.22x baseline speed (MJIT)"/>
<line x1="493.5625" y1="430.3727691715818" x2="502.375" y2="430.3727691715818" stroke="#000"/>
<line x1="493.5625" y1="431.4230782915579" x2="502.375" y2="431.4230782915579" stroke="#000"/>
<line x1="497.96875" y1="430.3727691715818" x2="497.96875" y2="431.4230782915579" stroke="#000"/>
<rect x="502.375" y="422.85638778022235" width="8.8125" height="75.1436122197775" fill="green" data-tooltip="1.37x baseline speed (YJIT)"/>
<line x1="502.375" y1="422.32907234708586" x2="511.1875" y2="422.32907234708586" stroke="#000"/>
<line x1="502.375" y1="423.3837032133589" x2="511.1875" y2="423.3837032133589" stroke="#000"/>
<line x1="506.78124999999994" y1="422.32907234708586" x2="506.78124999999994" y2="423.3837032133589" stroke="#000"/>
<line x1="502.375" y1="498.0" x2="502.375" y2="502.79999999999995" stroke="#000"/>
<text x="502.375" y="512.4" fill="#111" font-size="small" font-family="monospace" font-weight="bold" text-anchor="end" transform="rotate(-60, 502.375, 512.4)">
lee
</text>
<rect x="519.9999999999999" y="443.1598431838029" width="8.8125" height="54.84015681619706" fill="#7070f8" data-tooltip="1.00x baseline speed (No JIT)"/>
<line x1="519.9999999999999" y1="443.1160031610352" x2="528.8124999999999" y2="443.1160031610352" stroke="#000"/>
<line x1="519.9999999999999" y1="443.2036832065705" x2="528.8124999999999" y2="443.2036832065705" stroke="#000"/>
<line x1="524.4062499999999" y1="443.1160031610352" x2="524.4062499999999" y2="443.2036832065705" stroke="#000"/>
<rect x="528.8124999999999" y="403.58515620079186" width="8.8125" height="94.41484379920813" fill="orange" data-tooltip="1.72x baseline speed (MJIT)"/>
<line x1="528.8124999999999" y1="403.2958561999345" x2="537.6249999999999" y2="403.2958561999345" stroke="#000"/>
<line x1="528.8124999999999" y1="403.8744562016492" x2="537.6249999999999" y2="403.8744562016492" stroke="#000"/>
<line x1="533.2187499999999" y1="403.2958561999345" x2="533.2187499999999" y2="403.8744562016492" stroke="#000"/>
<rect x="537.6249999999999" y="422.2978278483533" width="8.8125" height="75.70217215164658" fill="green" data-tooltip="1.38x baseline speed (YJIT)"/>
<line x1="537.6249999999999" y1="422.21596089657675" x2="546.4374999999999" y2="422.21596089657675" stroke="#000"/>
<line x1="537.6249999999999" y1="422.37969480012987" x2="546.4374999999999" y2="422.37969480012987" stroke="#000"/>
<line x1="542.0312499999999" y1="422.21596089657675" x2="542.0312499999999" y2="422.37969480012987" stroke="#000"/>
<line x1="537.6249999999999" y1="498.0" x2="537.6249999999999" y2="502.79999999999995" stroke="#000"/>
<text x="537.6249999999999" y="512.4" fill="#111" font-size="small" font-family="monospace" font-weight="bold" text-anchor="end" transform="rotate(-60, 537.6249999999999, 512.4)">
nbody
</text>
<rect x="555.2499999999999" y="443.1598431838029" width="8.8125" height="54.84015681619706" fill="#7070f8" data-tooltip="1.00x baseline speed (No JIT)"/>
<line x1="555.2499999999999" y1="442.92574191630814" x2="564.0624999999999" y2="442.92574191630814" stroke="#000"/>
<line x1="555.2499999999999" y1="443.39394445129756" x2="564.0624999999999" y2="443.39394445129756" stroke="#000"/>
<line x1="559.6562499999999" y1="442.92574191630814" x2="559.6562499999999" y2="443.39394445129756" stroke="#000"/>
<rect x="564.0624999999999" y="365.1394573755595" width="8.8125" height="132.86054262444048" fill="orange" data-tooltip="2.42x baseline speed (MJIT)"/>
<line x1="564.0624999999999" y1="364.14560108724714" x2="572.8749999999999" y2="364.14560108724714" stroke="#000"/>
<line x1="564.0624999999999" y1="366.1333136638719" x2="572.8749999999999" y2="366.1333136638719" stroke="#000"/>
<line x1="568.4687499999999" y1="364.14560108724714" x2="568.4687499999999" y2="366.1333136638719" stroke="#000"/>
<rect x="572.8749999999999" y="397.6778324054855" width="8.8125" height="100.32216759451444" fill="green" data-tooltip="1.83x baseline speed (YJIT)"/>
<line x1="572.8749999999999" y1="396.89682832249775" x2="581.6874999999999" y2="396.89682832249775" stroke="#000"/>
<line x1="572.8749999999999" y1="398.4588364884732" x2="581.6874999999999" y2="398.4588364884732" stroke="#000"/>
<line x1="577.2812499999999" y1="396.89682832249775" x2="577.2812499999999" y2="398.4588364884732" stroke="#000"/>
<line x1="572.8749999999999" y1="498.0" x2="572.8749999999999" y2="502.79999999999995" stroke="#000"/>
<text x="572.8749999999999" y="512.4" fill="#111" font-size="small" font-family="monospace" font-weight="bold" text-anchor="end" transform="rotate(-60, 572.8749999999999, 512.4)">
optcarrot
</text>
<rect x="590.4999999999999" y="443.1598431838029" width="8.8125" height="54.84015681619706" fill="#7070f8" data-tooltip="1.00x baseline speed (No JIT)"/>
<line x1="590.4999999999999" y1="441.8693925124298" x2="599.3124999999999" y2="441.8693925124298" stroke="#000"/>
<line x1="590.4999999999999" y1="444.4502938551759" x2="599.3124999999999" y2="444.4502938551759" stroke="#000"/>
<line x1="594.9062499999999" y1="441.8693925124298" x2="594.9062499999999" y2="444.4502938551759" stroke="#000"/>
<rect x="599.3124999999999" y="411.20630088815165" width="8.8125" height="86.79369911184833" fill="orange" data-tooltip="1.58x baseline speed (MJIT)"/>
<line x1="599.3124999999999" y1="407.7677667139862" x2="608.1249999999999" y2="407.7677667139862" stroke="#000"/>
<line x1="599.3124999999999" y1="414.6448350623171" x2="608.1249999999999" y2="414.6448350623171" stroke="#000"/>
<line x1="603.7187499999999" y1="407.7677667139862" x2="603.7187499999999" y2="414.6448350623171" stroke="#000"/>
<rect x="608.1249999999999" y="398.4169567657827" width="8.8125" height="99.58304323421733" fill="green" data-tooltip="1.82x baseline speed (YJIT)"/>
<line x1="608.1249999999999" y1="394.838333283128" x2="616.9374999999999" y2="394.838333283128" stroke="#000"/>
<line x1="608.1249999999999" y1="401.9955802484373" x2="616.9374999999999" y2="401.9955802484373" stroke="#000"/>
<line x1="612.5312499999999" y1="394.838333283128" x2="612.5312499999999" y2="401.9955802484373" stroke="#000"/>
<line x1="608.1249999999999" y1="498.0" x2="608.1249999999999" y2="502.79999999999995" stroke="#000"/>
<text x="608.1249999999999" y="512.4" fill="#111" font-size="small" font-family="monospace" font-weight="bold" text-anchor="end" transform="rotate(-60, 608.1249999999999, 512.4)">
rubykon
</text>
<rect x="625.7499999999999" y="443.1598431838029" width="8.8125" height="54.84015681619706" fill="#7070f8" data-tooltip="1.00x baseline speed (No JIT)"/>
<line x1="625.7499999999999" y1="443.11915314607" x2="634.5624999999999" y2="443.11915314607" stroke="#000"/>
<line x1="625.7499999999999" y1="443.20053322153575" x2="634.5624999999999" y2="443.20053322153575" stroke="#000"/>
<line x1="630.1562499999999" y1="443.11915314607" x2="630.1562499999999" y2="443.20053322153575" stroke="#000"/>
<rect x="634.5624999999999" y="463.26102448425917" width="8.8125" height="34.738975515740705" fill="orange" data-tooltip="0.63x baseline speed (MJIT)"/>
<line x1="634.5624999999999" y1="461.9105305552036" x2="643.3749999999999" y2="461.9105305552036" stroke="#000"/>
<line x1="634.5624999999999" y1="464.61151841331474" x2="643.3749999999999" y2="464.61151841331474" stroke="#000"/>
<line x1="638.9687499999999" y1="461.9105305552036" x2="638.9687499999999" y2="464.61151841331474" stroke="#000"/>
<rect x="643.3749999999999" y="148.35722371305118" width="8.8125" height="349.64277628694873" fill="green" data-tooltip="6.38x baseline speed (YJIT)"/>
<line x1="643.3749999999999" y1="147.93168852431356" x2="652.1874999999999" y2="147.93168852431356" stroke="#000"/>
<line x1="643.3749999999999" y1="148.78275890178878" x2="652.1874999999999" y2="148.78275890178878" stroke="#000"/>
<line x1="647.7812499999999" y1="147.93168852431356" x2="647.7812499999999" y2="148.78275890178878" stroke="#000"/>
<line x1="643.3749999999999" y1="498.0" x2="643.3749999999999" y2="502.79999999999995" stroke="#000"/>
<text x="643.3749999999999" y="512.4" fill="#111" font-size="small" font-family="monospace" font-weight="bold" text-anchor="end" transform="rotate(-60, 643.3749999999999, 512.4)">
30k_ifelse
</text>
<rect x="660.9999999999999" y="443.1598431838029" width="8.8125" height="54.84015681619706" fill="#7070f8" data-tooltip="1.00x baseline speed (No JIT)"/>
<line x1="660.9999999999999" y1="443.15154782271964" x2="669.8124999999999" y2="443.15154782271964" stroke="#000"/>
<line x1="660.9999999999999" y1="443.1681385448861" x2="669.8124999999999" y2="443.1681385448861" stroke="#000"/>
<line x1="665.4062499999999" y1="443.15154782271964" x2="665.4062499999999" y2="443.1681385448861" stroke="#000"/>
<rect x="669.8124999999999" y="464.12310627884074" width="8.8125" height="33.87689372115918" fill="orange" data-tooltip="0.62x baseline speed (MJIT)"/>
<line x1="669.8124999999999" y1="458.7438597777677" x2="678.6249999999999" y2="458.7438597777677" stroke="#000"/>
<line x1="669.8124999999999" y1="469.50235277991374" x2="678.6249999999999" y2="469.50235277991374" stroke="#000"/>
<line x1="674.2187499999999" y1="458.7438597777677" x2="674.2187499999999" y2="469.50235277991374" stroke="#000"/>
<rect x="678.6249999999999" y="105.65770789780515" width="8.8125" height="392.3422921021948" fill="green" data-tooltip="7.15x baseline speed (YJIT)"/>
<line x1="678.6249999999999" y1="105.56740668410232" x2="687.4374999999999" y2="105.56740668410232" stroke="#000"/>
<line x1="678.6249999999999" y1="105.748009111508" x2="687.4374999999999" y2="105.748009111508" stroke="#000"/>
<line x1="683.0312499999999" y1="105.56740668410232" x2="683.0312499999999" y2="105.748009111508" stroke="#000"/>
<line x1="678.6249999999999" y1="498.0" x2="678.6249999999999" y2="502.79999999999995" stroke="#000"/>
<text x="678.6249999999999" y="512.4" fill="#111" font-size="small" font-family="monospace" font-weight="bold" text-anchor="end" transform="rotate(-60, 678.6249999999999, 512.4)">
30k_methods
</text>
<rect x="696.2499999999999" y="443.1598431838029" width="8.8125" height="54.84015681619706" fill="#7070f8" data-tooltip="1.00x baseline speed (No JIT)"/>
<line x1="696.2499999999999" y1="443.1022116887355" x2="705.0624999999999" y2="443.1022116887355" stroke="#000"/>
<line x1="696.2499999999999" y1="443.2174746788702" x2="705.0624999999999" y2="443.2174746788702" stroke="#000"/>
<line x1="700.6562499999999" y1="443.1022116887355" x2="700.6562499999999" y2="443.2174746788702" stroke="#000"/>
<rect x="705.0624999999999" y="410.74180647179196" width="8.8125" height="87.25819352820794" fill="orange" data-tooltip="1.59x baseline speed (MJIT)"/>
<line x1="705.0624999999999" y1="410.45877529423973" x2="713.8749999999999" y2="410.45877529423973" stroke="#000"/>
<line x1="705.0624999999999" y1="411.02483764934414" x2="713.8749999999999" y2="411.02483764934414" stroke="#000"/>
<line x1="709.4687499999999" y1="410.45877529423973" x2="709.4687499999999" y2="411.02483764934414" stroke="#000"/>
<rect x="713.8749999999999" y="365.66109205397737" width="8.8125" height="132.3389079460226" fill="green" data-tooltip="2.41x baseline speed (YJIT)"/>
<line x1="713.8749999999999" y1="364.8624081294742" x2="722.6874999999999" y2="364.8624081294742" stroke="#000"/>
<line x1="713.8749999999999" y1="366.4597759784805" x2="722.6874999999999" y2="366.4597759784805" stroke="#000"/>
<line x1="718.2812499999999" y1="364.8624081294742" x2="718.2812499999999" y2="366.4597759784805" stroke="#000"/>
<line x1="713.8749999999999" y1="498.0" x2="713.8749999999999" y2="502.79999999999995" stroke="#000"/>
<text x="713.8749999999999" y="512.4" fill="#111" font-size="small" font-family="monospace" font-weight="bold" text-anchor="end" transform="rotate(-60, 713.8749999999999, 512.4)">
cfunc_itself
</text>
<rect x="731.4999999999999" y="443.1598431838029" width="8.8125" height="54.84015681619706" fill="#7070f8" data-tooltip="1.00x baseline speed (No JIT)"/>
<line x1="731.4999999999999" y1="443.11675575674343" x2="740.3124999999999" y2="443.11675575674343" stroke="#000"/>
<line x1="731.4999999999999" y1="443.20293061086227" x2="740.3124999999999" y2="443.20293061086227" stroke="#000"/>
<line x1="735.9062499999999" y1="443.11675575674343" x2="735.9062499999999" y2="443.20293061086227" stroke="#000"/>
<rect x="740.3124999999999" y="341.0045337205582" width="8.8125" height="156.99546627944176" fill="orange" data-tooltip="2.86x baseline speed (MJIT)"/>
<line x1="740.3124999999999" y1="340.5865260985806" x2="749.1249999999999" y2="340.5865260985806" stroke="#000"/>
<line x1="740.3124999999999" y1="341.4225413425358" x2="749.1249999999999" y2="341.4225413425358" stroke="#000"/>
<line x1="744.7187499999999" y1="340.5865260985806" x2="744.7187499999999" y2="341.4225413425358" stroke="#000"/>
<rect x="749.1249999999999" y="285.00404957467833" width="8.8125" height="212.9959504253216" fill="green" data-tooltip="3.88x baseline speed (YJIT)"/>
<line x1="749.1249999999999" y1="284.6483147143711" x2="757.9374999999999" y2="284.6483147143711" stroke="#000"/>
<line x1="749.1249999999999" y1="285.35978443498556" x2="757.9374999999999" y2="285.35978443498556" stroke="#000"/>
<line x1="753.5312499999999" y1="284.6483147143711" x2="753.5312499999999" y2="285.35978443498556" stroke="#000"/>
<line x1="749.1249999999999" y1="498.0" x2="749.1249999999999" y2="502.79999999999995" stroke="#000"/>
<text x="749.1249999999999" y="512.4" fill="#111" font-size="small" font-family="monospace" font-weight="bold" text-anchor="end" transform="rotate(-60, 749.1249999999999, 512.4)">
fib
</text>
<rect x="766.7499999999999" y="443.1598431838029" width="8.8125" height="54.84015681619706" fill="#7070f8" data-tooltip="1.00x baseline speed (No JIT)"/>
<line x1="766.7499999999999" y1="442.9308228257698" x2="775.5624999999999" y2="442.9308228257698" stroke="#000"/>
<line x1="766.7499999999999" y1="443.388863541836" x2="775.5624999999999" y2="443.388863541836" stroke="#000"/>
<line x1="771.1562499999999" y1="442.9308228257698" x2="771.1562499999999" y2="443.388863541836" stroke="#000"/>
<rect x="775.5624999999999" y="244.4571426819324" width="8.8125" height="253.54285731806755" fill="orange" data-tooltip="4.62x baseline speed (MJIT)"/>
<line x1="775.5624999999999" y1="67.87697439039016" x2="784.3749999999999" y2="67.87697439039016" stroke="#000"/>
<line x1="775.5624999999999" y1="421.0373109734747" x2="784.3749999999999" y2="421.0373109734747" stroke="#000"/>
<line x1="779.9687499999999" y1="67.87697439039016" x2="779.9687499999999" y2="421.0373109734747" stroke="#000"/>
<rect x="784.3749999999999" y="342.82547874507225" width="8.8125" height="155.17452125492775" fill="green" data-tooltip="2.83x baseline speed (YJIT)"/>
<line x1="784.3749999999999" y1="342.1705049864692" x2="793.1874999999999" y2="342.1705049864692" stroke="#000"/>
<line x1="784.3749999999999" y1="343.4804525036753" x2="793.1874999999999" y2="343.4804525036753" stroke="#000"/>
<line x1="788.7812499999999" y1="342.1705049864692" x2="788.7812499999999" y2="343.4804525036753" stroke="#000"/>
<line x1="784.3749999999999" y1="498.0" x2="784.3749999999999" y2="502.79999999999995" stroke="#000"/>
<text x="784.3749999999999" y="512.4" fill="#111" font-size="small" font-family="monospace" font-weight="bold" text-anchor="end" transform="rotate(-60, 784.3749999999999, 512.4)">
getivar
</text>
<rect x="801.9999999999999" y="443.1598431838029" width="8.8125" height="54.84015681619706" fill="#7070f8" data-tooltip="1.00x baseline speed (No JIT)"/>
<line x1="801.9999999999999" y1="443.1051052420544" x2="810.8124999999999" y2="443.1051052420544" stroke="#000"/>
<line x1="801.9999999999999" y1="443.2145811255513" x2="810.8124999999999" y2="443.2145811255513" stroke="#000"/>
<line x1="806.4062499999999" y1="443.1051052420544" x2="806.4062499999999" y2="443.2145811255513" stroke="#000"/>
<rect x="810.8124999999999" y="425.9081372078743" width="8.8125" height="72.09186279212571" fill="orange" data-tooltip="1.31x baseline speed (MJIT)"/>
<line x1="810.8124999999999" y1="425.5946829167404" x2="819.6249999999999" y2="425.5946829167404" stroke="#000"/>
<line x1="810.8124999999999" y1="426.2215914990082" x2="819.6249999999999" y2="426.2215914990082" stroke="#000"/>
<line x1="815.2187499999999" y1="425.5946829167404" x2="815.2187499999999" y2="426.2215914990082" stroke="#000"/>
<rect x="819.6249999999999" y="200.51062213276288" width="8.8125" height="297.489377867237" fill="green" data-tooltip="5.42x baseline speed (YJIT)"/>
<line x1="819.6249999999999" y1="199.87542477215325" x2="828.4374999999999" y2="199.87542477215325" stroke="#000"/>
<line x1="819.6249999999999" y1="201.1458194933725" x2="828.4374999999999" y2="201.1458194933725" stroke="#000"/>
<line x1="824.0312499999999" y1="199.87542477215325" x2="824.0312499999999" y2="201.1458194933725" stroke="#000"/>
<line x1="819.6249999999999" y1="498.0" x2="819.6249999999999" y2="502.79999999999995" stroke="#000"/>
<text x="819.6249999999999" y="512.4" fill="#111" font-size="small" font-family="monospace" font-weight="bold" text-anchor="end" transform="rotate(-60, 819.6249999999999, 512.4)">
keyword_args
</text>
<rect x="837.2499999999999" y="443.1598431838029" width="8.8125" height="54.84015681619706" fill="#7070f8" data-tooltip="1.00x baseline speed (No JIT)"/>
<line x1="837.2499999999999" y1="443.0077549756207" x2="846.0624999999999" y2="443.0077549756207" stroke="#000"/>
<line x1="837.2499999999999" y1="443.311931391985" x2="846.0624999999999" y2="443.311931391985" stroke="#000"/>
<line x1="841.6562499999999" y1="443.0077549756207" x2="841.6562499999999" y2="443.311931391985" stroke="#000"/>
<rect x="846.0624999999999" y="433.33012112249725" width="8.8125" height="64.66987887750265" fill="orange" data-tooltip="1.18x baseline speed (MJIT)"/>
<line x1="846.0624999999999" y1="431.839163450483" x2="854.8749999999999" y2="431.839163450483" stroke="#000"/>
<line x1="846.0624999999999" y1="434.82107879451155" x2="854.8749999999999" y2="434.82107879451155" stroke="#000"/>
<line x1="850.4687499999999" y1="431.839163450483" x2="850.4687499999999" y2="434.82107879451155" stroke="#000"/>
<rect x="854.8749999999999" y="417.57794268022025" width="8.8125" height="80.42205731977974" fill="green" data-tooltip="1.47x baseline speed (YJIT)"/>
<line x1="854.8749999999999" y1="417.2371974754233" x2="863.6874999999999" y2="417.2371974754233" stroke="#000"/>
<line x1="854.8749999999999" y1="417.9186878850172" x2="863.6874999999999" y2="417.9186878850172" stroke="#000"/>
<line x1="859.2812499999999" y1="417.2371974754233" x2="859.2812499999999" y2="417.9186878850172" stroke="#000"/>
<line x1="854.8749999999999" y1="498.0" x2="854.8749999999999" y2="502.79999999999995" stroke="#000"/>
<text x="854.8749999999999" y="512.4" fill="#111" font-size="small" font-family="monospace" font-weight="bold" text-anchor="end" transform="rotate(-60, 854.8749999999999, 512.4)">
respond_to
</text>
<rect x="872.4999999999999" y="443.1598431838029" width="8.8125" height="54.84015681619706" fill="#7070f8" data-tooltip="1.00x baseline speed (No JIT)"/>
<line x1="872.4999999999999" y1="442.9914899885676" x2="881.3125" y2="442.9914899885676" stroke="#000"/>
<line x1="872.4999999999999" y1="443.32819637903816" x2="881.3125" y2="443.32819637903816" stroke="#000"/>
<line x1="876.9062499999999" y1="442.9914899885676" x2="876.9062499999999" y2="443.32819637903816" stroke="#000"/>
<rect x="881.3125" y="100.19999999999999" width="8.8125" height="397.79999999999995" fill="orange" data-tooltip="7.25x baseline speed (MJIT)"/>
<line x1="881.3125" y1="-303.84121995376387" x2="890.125" y2="-303.84121995376387" stroke="#000"/>
<line x1="881.3125" y1="504.2412199537638" x2="890.125" y2="504.2412199537638" stroke="#000"/>
<line x1="885.7187499999999" y1="-303.84121995376387" x2="885.7187499999999" y2="504.2412199537638" stroke="#000"/>
<rect x="890.125" y="418.23854575362884" width="8.8125" height="79.76145424637109" fill="green" data-tooltip="1.45x baseline speed (YJIT)"/>
<line x1="890.125" y1="417.96070611195535" x2="898.9375" y2="417.96070611195535" stroke="#000"/>
<line x1="890.125" y1="418.51638539530234" x2="898.9375" y2="418.51638539530234" stroke="#000"/>
<line x1="894.5312499999999" y1="417.96070611195535" x2="894.5312499999999" y2="418.51638539530234" stroke="#000"/>
<line x1="890.125" y1="498.0" x2="890.125" y2="502.79999999999995" stroke="#000"/>
<text x="890.125" y="512.4" fill="#111" font-size="small" font-family="monospace" font-weight="bold" text-anchor="end" transform="rotate(-60, 890.125, 512.4)">
setivar
</text>
<rect x="907.75" y="443.1598431838029" width="8.8125" height="54.84015681619706" fill="#7070f8" data-tooltip="1.00x baseline speed (No JIT)"/>
<line x1="907.75" y1="442.7390873641976" x2="916.5625" y2="442.7390873641976" stroke="#000"/>
<line x1="907.75" y1="443.5805990034081" x2="916.5625" y2="443.5805990034081" stroke="#000"/>
<line x1="912.1562499999999" y1="442.7390873641976" x2="912.1562499999999" y2="443.5805990034081" stroke="#000"/>
<rect x="916.5625" y="427.15345386778864" width="8.8125" height="70.84654613221133" fill="orange" data-tooltip="1.29x baseline speed (MJIT)"/>
<line x1="916.5625" y1="426.3455574167109" x2="925.375" y2="426.3455574167109" stroke="#000"/>
<line x1="916.5625" y1="427.9613503188664" x2="925.375" y2="427.9613503188664" stroke="#000"/>
<line x1="920.9687499999999" y1="426.3455574167109" x2="920.9687499999999" y2="427.9613503188664" stroke="#000"/>
<rect x="925.375" y="365.5269199443399" width="8.8125" height="132.47308005566006" fill="green" data-tooltip="2.42x baseline speed (YJIT)"/>
<line x1="925.375" y1="363.47960761950816" x2="934.1875" y2="363.47960761950816" stroke="#000"/>
<line x1="925.375" y1="367.57423226917166" x2="934.1875" y2="367.57423226917166" stroke="#000"/>
<line x1="929.7812499999999" y1="363.47960761950816" x2="929.7812499999999" y2="367.57423226917166" stroke="#000"/>
<line x1="925.375" y1="498.0" x2="925.375" y2="502.79999999999995" stroke="#000"/>
<text x="925.375" y="512.4" fill="#111" font-size="small" font-family="monospace" font-weight="bold" text-anchor="end" transform="rotate(-60, 925.375, 512.4)">
str_concat
</text>
</svg>