<svg viewBox="0 0 1000 600" xmlns="http://www.w3.org/2000/svg" xmlns:xlink="http://www.w3.org/1999/xlink" width="100%" height="100%">

<rect x="50.0" y="30.0" width="940.0" height="467.99999999999994" stroke="#000" fill="#EEE"/>
<line x1="42.0" y1="497.9999999999999" x2="50.0" y2="497.9999999999999" stroke="#000"/>
<text x="26.000000000000004" y="497.9999999999999" text-anchor="end" font-weight="bold" font-size="small" fill="#111">
0.0
</text>
<line x1="42.0" y1="437.7702514852945" x2="50.0" y2="437.7702514852945" stroke="#000"/>
<text x="26.000000000000004" y="437.7702514852945" text-anchor="end" font-weight="bold" font-size="small" fill="#111">
0.2
</text>
<line x1="42.0" y1="377.5405029705891" x2="50.0" y2="377.5405029705891" stroke="#000"/>
<text x="26.000000000000004" y="377.5405029705891" text-anchor="end" font-weight="bold" font-size="small" fill="#111">
0.4
</text>
<line x1="42.0" y1="317.3107544558837" x2="50.0" y2="317.3107544558837" stroke="#000"/>
<text x="26.000000000000004" y="317.3107544558837" text-anchor="end" font-weight="bold" font-size="small" fill="#111">
0.6
</text>
<line x1="42.0" y1="257.08100594117826" x2="50.0" y2="257.08100594117826" stroke="#000"/>
<text x="26.000000000000004" y="257.08100594117826" text-anchor="end" font-weight="bold" font-size="small" fill="#111">
0.8
</text>
<line x1="42.0" y1="196.85125742647284" x2="50.0" y2="196.85125742647284" stroke="#000"/>
<text x="26.000000000000004" y="196.85125742647284" text-anchor="end" font-weight="bold" font-size="small" fill="#111">
1.0
</text>
<line x1="42.0" y1="136.62150891176748" x2="50.0" y2="136.62150891176748" stroke="#000"/>
<text x="26.000000000000004" y="136.62150891176748" text-anchor="end" font-weight="bold" font-size="small" fill="#111">
1.2
</text>
<rect x="268.5" y="36.00000000000001" width="80.0" height="18.0" fill="#7070f8" stroke="#888"/>
<text x="308.5" y="52.50000000000001" font-size="small" text-anchor="middle" font-weight="bold" fill="#EEE">
No JIT
</text>
<rect x="691.4999999999999" y="36.00000000000001" width="80.0" height="18.0" fill="orange" stroke="#888"/>
<text x="731.4999999999999" y="52.50000000000001" font-size="small" text-anchor="middle" font-weight="bold" fill="#EEE">
YJIT
</text>
<rect x="97.0" y="196.85125742647284" width="40.285714285714285" height="301.14874257352704" fill="#7070f8" data-tooltip="1.00x baseline speed (No JIT)"/>
<line x1="97.0" y1="195.70096854607243" x2="137.28571428571428" y2="195.70096854607243" stroke="#000"/>
<line x1="97.0" y1="198.00154630687325" x2="137.28571428571428" y2="198.00154630687325" stroke="#000"/>
<line x1="117.14285714285714" y1="195.70096854607243" x2="117.14285714285714" y2="198.00154630687325" stroke="#000"/>
<rect x="137.28571428571428" y="136.28000970698116" width="40.285714285714285" height="361.7199902930188" fill="orange" data-tooltip="1.20x baseline speed (YJIT)"/>
<line x1="137.28571428571428" y1="134.8307971602477" x2="177.57142857142858" y2="134.8307971602477" stroke="#000"/>
<line x1="137.28571428571428" y1="137.72922225371462" x2="177.57142857142858" y2="137.72922225371462" stroke="#000"/>
<line x1="157.42857142857142" y1="134.8307971602477" x2="157.42857142857142" y2="137.72922225371462" stroke="#000"/>
<line x1="157.42857142857142" y1="498.0" x2="157.42857142857142" y2="502.79999999999995" stroke="#000"/>
<text x="157.42857142857142" y="512.4" fill="#111" font-size="small" font-family="monospace" font-weight="bold" text-anchor="end" transform="rotate(-60, 157.42857142857142, 512.4)">
activerecord
</text>
<rect x="217.85714285714286" y="196.85125742647284" width="40.285714285714285" height="301.14874257352704" fill="#7070f8" data-tooltip="1.00x baseline speed (No JIT)"/>
<line x1="217.85714285714286" y1="194.60623830003829" x2="258.1428571428571" y2="194.60623830003829" stroke="#000"/>
<line x1="217.85714285714286" y1="199.0962765529074" x2="258.1428571428571" y2="199.0962765529074" stroke="#000"/>
<line x1="238.0" y1="194.60623830003829" x2="238.0" y2="199.0962765529074" stroke="#000"/>
<rect x="258.1428571428571" y="149.4529344438637" width="40.285714285714285" height="348.5470655561362" fill="orange" data-tooltip="1.16x baseline speed (YJIT)"/>
<line x1="258.1428571428571" y1="143.5785309252638" x2="298.4285714285714" y2="143.5785309252638" stroke="#000"/>
<line x1="258.1428571428571" y1="155.32733796246362" x2="298.4285714285714" y2="155.32733796246362" stroke="#000"/>
<line x1="278.2857142857142" y1="143.5785309252638" x2="278.2857142857142" y2="155.32733796246362" stroke="#000"/>
<line x1="278.2857142857143" y1="498.0" x2="278.2857142857143" y2="502.79999999999995" stroke="#000"/>
<text x="278.2857142857143" y="512.4" fill="#111" font-size="small" font-family="monospace" font-weight="bold" text-anchor="end" transform="rotate(-60, 278.2857142857143, 512.4)">
hexapdf
</text>
<rect x="338.7142857142857" y="196.85125742647284" width="40.285714285714285" height="301.14874257352704" fill="#7070f8" data-tooltip="1.00x baseline speed (No JIT)"/>
<line x1="338.7142857142857" y1="194.06075382286144" x2="379.0" y2="194.06075382286144" stroke="#000"/>
<line x1="338.7142857142857" y1="199.64176103008424" x2="379.0" y2="199.64176103008424" stroke="#000"/>
<line x1="358.8571428571429" y1="194.06075382286144" x2="358.8571428571429" y2="199.64176103008424" stroke="#000"/>
<rect x="379.0" y="113.79476240661369" width="40.285714285714285" height="384.20523759338624" fill="orange" data-tooltip="1.28x baseline speed (YJIT)"/>
<line x1="379.0" y1="107.07254454047256" x2="419.2857142857143" y2="107.07254454047256" stroke="#000"/>
<line x1="379.0" y1="120.51698027275482" x2="419.2857142857143" y2="120.51698027275482" stroke="#000"/>
<line x1="399.1428571428571" y1="107.07254454047256" x2="399.1428571428571" y2="120.51698027275482" stroke="#000"/>
<line x1="399.14285714285717" y1="498.0" x2="399.14285714285717" y2="502.79999999999995" stroke="#000"/>
<text x="399.14285714285717" y="512.4" fill="#111" font-size="small" font-family="monospace" font-weight="bold" text-anchor="end" transform="rotate(-60, 399.14285714285717, 512.4)">
liquid-render
</text>
<rect x="459.5714285714285" y="196.85125742647284" width="40.285714285714285" height="301.14874257352704" fill="#7070f8" data-tooltip="1.00x baseline speed (No JIT)"/>
<line x1="459.5714285714285" y1="196.59728356483606" x2="499.8571428571428" y2="196.59728356483606" stroke="#000"/>
<line x1="459.5714285714285" y1="197.10523128810965" x2="499.8571428571428" y2="197.10523128810965" stroke="#000"/>
<line x1="479.71428571428567" y1="196.59728356483606" x2="479.71428571428567" y2="197.10523128810965" stroke="#000"/>
<rect x="499.8571428571428" y="163.9135092943378" width="40.285714285714285" height="334.08649070566213" fill="orange" data-tooltip="1.11x baseline speed (YJIT)"/>
<line x1="499.8571428571428" y1="163.39969652703928" x2="540.142857142857" y2="163.39969652703928" stroke="#000"/>
<line x1="499.8571428571428" y1="164.42732206163635" x2="540.142857142857" y2="164.42732206163635" stroke="#000"/>
<line x1="519.9999999999999" y1="163.39969652703928" x2="519.9999999999999" y2="164.42732206163635" stroke="#000"/>
<line x1="519.9999999999999" y1="498.0" x2="519.9999999999999" y2="502.79999999999995" stroke="#000"/>
<text x="519.9999999999999" y="512.4" fill="#111" font-size="small" font-family="monospace" font-weight="bold" text-anchor="end" transform="rotate(-60, 519.9999999999999, 512.4)">
mail
</text>
<rect x="580.4285714285714" y="196.85125742647284" width="40.285714285714285" height="301.14874257352704" fill="#7070f8" data-tooltip="1.00x baseline speed (No JIT)"/>
<line x1="580.4285714285714" y1="196.56191476307768" x2="620.7142857142857" y2="196.56191476307768" stroke="#000"/>
<line x1="580.4285714285714" y1="197.140600089868" x2="620.7142857142857" y2="197.140600089868" stroke="#000"/>
<line x1="600.5714285714286" y1="196.56191476307768" x2="600.5714285714286" y2="197.140600089868" stroke="#000"/>
<rect x="620.7142857142857" y="100.19999999999999" width="40.285714285714285" height="397.79999999999995" fill="orange" data-tooltip="1.32x baseline speed (YJIT)"/>
<line x1="620.7142857142857" y1="99.60066396607424" x2="660.9999999999999" y2="99.60066396607424" stroke="#000"/>
<line x1="620.7142857142857" y1="100.79933603392574" x2="660.9999999999999" y2="100.79933603392574" stroke="#000"/>
<line x1="640.8571428571428" y1="99.60066396607424" x2="640.8571428571428" y2="100.79933603392574" stroke="#000"/>
<line x1="640.8571428571428" y1="498.0" x2="640.8571428571428" y2="502.79999999999995" stroke="#000"/>
<text x="640.8571428571428" y="512.4" fill="#111" font-size="small" font-family="monospace" font-weight="bold" text-anchor="end" transform="rotate(-60, 640.8571428571428, 512.4)">
psych-load
</text>
<rect x="701.2857142857143" y="196.85125742647284" width="40.285714285714285" height="301.14874257352704" fill="#7070f8" data-tooltip="1.00x baseline speed (No JIT)"/>
<line x1="701.2857142857143" y1="195.45446582216582" x2="741.5714285714286" y2="195.45446582216582" stroke="#000"/>
<line x1="701.2857142857143" y1="198.24804903077987" x2="741.5714285714286" y2="198.24804903077987" stroke="#000"/>
<line x1="721.4285714285714" y1="195.45446582216582" x2="721.4285714285714" y2="198.24804903077987" stroke="#000"/>
<rect x="741.5714285714286" y="128.4795706483801" width="40.285714285714285" height="369.5204293516198" fill="orange" data-tooltip="1.23x baseline speed (YJIT)"/>
<line x1="741.5714285714286" y1="125.39460319859286" x2="781.8571428571428" y2="125.39460319859286" stroke="#000"/>
<line x1="741.5714285714286" y1="131.56453809816736" x2="781.8571428571428" y2="131.56453809816736" stroke="#000"/>
<line x1="761.7142857142857" y1="125.39460319859286" x2="761.7142857142857" y2="131.56453809816736" stroke="#000"/>
<line x1="761.7142857142857" y1="498.0" x2="761.7142857142857" y2="502.79999999999995" stroke="#000"/>
<text x="761.7142857142857" y="512.4" fill="#111" font-size="small" font-family="monospace" font-weight="bold" text-anchor="end" transform="rotate(-60, 761.7142857142857, 512.4)">
railsbench
</text>
<rect x="822.1428571428571" y="196.85125742647284" width="40.285714285714285" height="301.14874257352704" fill="#7070f8" data-tooltip="1.00x baseline speed (No JIT)"/>
<line x1="822.1428571428571" y1="176.71222475564332" x2="862.4285714285713" y2="176.71222475564332" stroke="#000"/>
<line x1="822.1428571428571" y1="216.99029009730236" x2="862.4285714285713" y2="216.99029009730236" stroke="#000"/>
<line x1="842.2857142857142" y1="176.71222475564332" x2="842.2857142857142" y2="216.99029009730236" stroke="#000"/>
<rect x="862.4285714285713" y="177.43597269606164" width="40.285714285714285" height="320.56402730393836" fill="orange" data-tooltip="1.06x baseline speed (YJIT)"/>
<line x1="862.4285714285713" y1="137.86649558586402" x2="902.7142857142856" y2="137.86649558586402" stroke="#000"/>
<line x1="862.4285714285713" y1="217.00544980625926" x2="902.7142857142856" y2="217.00544980625926" stroke="#000"/>
<line x1="882.5714285714284" y1="137.86649558586402" x2="882.5714285714284" y2="217.00544980625926" stroke="#000"/>
<line x1="882.5714285714284" y1="498.0" x2="882.5714285714284" y2="502.79999999999995" stroke="#000"/>
<text x="882.5714285714284" y="512.4" fill="#111" font-size="small" font-family="monospace" font-weight="bold" text-anchor="end" transform="rotate(-60, 882.5714285714284, 512.4)">
ruby-lsp
</text>
</svg>