<svg viewBox="0 0 1000 600" xmlns="http://www.w3.org/2000/svg" xmlns:xlink="http://www.w3.org/1999/xlink" width="100%" height="100%">

<rect x="50.0" y="30.0" width="940.0" height="467.99999999999994" stroke="#000" fill="#EEE"/>
<line x1="42.0" y1="497.9999999999999" x2="50.0" y2="497.9999999999999" stroke="#000"/>
<text x="26.000000000000004" y="497.9999999999999" text-anchor="end" font-weight="bold" font-size="small" fill="#111">
0.0
</text>
<line x1="42.0" y1="411.9638000786262" x2="50.0" y2="411.9638000786262" stroke="#000"/>
<text x="26.000000000000004" y="411.9638000786262" text-anchor="end" font-weight="bold" font-size="small" fill="#111">
2.0
</text>
<line x1="42.0" y1="325.9276001572524" x2="50.0" y2="325.9276001572524" stroke="#000"/>
<text x="26.000000000000004" y="325.9276001572524" text-anchor="end" font-weight="bold" font-size="small" fill="#111">
4.0
</text>
<line x1="42.0" y1="239.89140023587865" x2="50.0" y2="239.89140023587865" stroke="#000"/>
<text x="26.000000000000004" y="239.89140023587865" text-anchor="end" font-weight="bold" font-size="small" fill="#111">
6.0
</text>
<line x1="42.0" y1="153.85520031450483" x2="50.0" y2="153.85520031450483" stroke="#000"/>
<text x="26.000000000000004" y="153.85520031450483" text-anchor="end" font-weight="bold" font-size="small" fill="#111">
8.0
</text>
<rect x="268.5" y="36.00000000000001" width="80.0" height="18.0" fill="#7070f8" stroke="#888"/>
<text x="308.5" y="52.50000000000001" font-size="small" text-anchor="middle" font-weight="bold" fill="#EEE">
No JIT
</text>
<rect x="691.4999999999999" y="36.00000000000001" width="80.0" height="18.0" fill="orange" stroke="#888"/>
<text x="731.4999999999999" y="52.50000000000001" font-size="small" text-anchor="middle" font-weight="bold" fill="#EEE">
YJIT
</text>
<rect x="97.0" y="454.9819000393131" width="28.2" height="43.01809996068689" fill="#7070f8" data-tooltip="1.00x baseline speed (No JIT)"/>
<line x1="97.0" y1="454.9779545327567" x2="125.2" y2="454.9779545327567" stroke="#000"/>
<line x1="97.0" y1="454.9858455458694" x2="125.2" y2="454.9858455458694" stroke="#000"/>
<line x1="111.10000000000001" y1="454.9779545327567" x2="111.10000000000001" y2="454.9858455458694" stroke="#000"/>
<rect x="125.2" y="241.13517111348887" width="28.2" height="256.8648288865111" fill="orange" data-tooltip="5.97x baseline speed (YJIT)"/>
<line x1="125.2" y1="240.65180115141646" x2="153.4" y2="240.65180115141646" stroke="#000"/>
<line x1="125.2" y1="241.61854107556127" x2="153.4" y2="241.61854107556127" stroke="#000"/>
<line x1="139.3" y1="240.65180115141646" x2="139.3" y2="241.61854107556127" stroke="#000"/>
<line x1="139.3" y1="498.0" x2="139.3" y2="502.79999999999995" stroke="#000"/>
<text x="139.3" y="512.4" fill="#111" font-size="small" font-family="monospace" font-weight="bold" text-anchor="end" transform="rotate(-60, 139.3, 512.4)">
30k_ifelse
</text>
<rect x="181.6" y="454.9819000393131" width="28.2" height="43.01809996068689" fill="#7070f8" data-tooltip="1.00x baseline speed (No JIT)"/>
<line x1="181.6" y1="454.9794140691084" x2="209.79999999999998" y2="454.9794140691084" stroke="#000"/>
<line x1="181.6" y1="454.9843860095178" x2="209.79999999999998" y2="454.9843860095178" stroke="#000"/>
<line x1="195.7" y1="454.9794140691084" x2="195.7" y2="454.9843860095178" stroke="#000"/>
<rect x="209.79999999999998" y="213.8025348538007" width="28.2" height="284.1974651461992" fill="orange" data-tooltip="6.61x baseline speed (YJIT)"/>
<line x1="209.79999999999998" y1="213.72201425566" x2="238.0" y2="213.72201425566" stroke="#000"/>
<line x1="209.79999999999998" y1="213.88305545194137" x2="238.0" y2="213.88305545194137" stroke="#000"/>
<line x1="223.89999999999998" y1="213.72201425566" x2="223.89999999999998" y2="213.88305545194137" stroke="#000"/>
<line x1="223.89999999999998" y1="498.0" x2="223.89999999999998" y2="502.79999999999995" stroke="#000"/>
<text x="223.89999999999998" y="512.4" fill="#111" font-size="small" font-family="monospace" font-weight="bold" text-anchor="end" transform="rotate(-60, 223.89999999999998, 512.4)">
30k_methods
</text>
<rect x="266.2" y="454.9819000393131" width="28.2" height="43.01809996068689" fill="#7070f8" data-tooltip="1.00x baseline speed (No JIT)"/>
<line x1="266.2" y1="454.8973506987089" x2="294.4" y2="454.8973506987089" stroke="#000"/>
<line x1="266.2" y1="455.06644937991723" x2="294.4" y2="455.06644937991723" stroke="#000"/>
<line x1="280.3" y1="454.8973506987089" x2="280.3" y2="455.06644937991723" stroke="#000"/>
<rect x="294.4" y="394.1707833829705" width="28.2" height="103.82921661702946" fill="orange" data-tooltip="2.41x baseline speed (YJIT)"/>
<line x1="294.4" y1="393.8159358188758" x2="322.6" y2="393.8159358188758" stroke="#000"/>
<line x1="294.4" y1="394.5256309470652" x2="322.6" y2="394.5256309470652" stroke="#000"/>
<line x1="308.5" y1="393.8159358188758" x2="308.5" y2="394.5256309470652" stroke="#000"/>
<line x1="308.5" y1="498.0" x2="308.5" y2="502.79999999999995" stroke="#000"/>
<text x="308.5" y="512.4" fill="#111" font-size="small" font-family="monospace" font-weight="bold" text-anchor="end" transform="rotate(-60, 308.5, 512.4)">
cfunc_itself
</text>
<rect x="350.8" y="454.9819000393131" width="28.2" height="43.01809996068689" fill="#7070f8" data-tooltip="1.00x baseline speed (No JIT)"/>
<line x1="350.8" y1="454.97382425516537" x2="379.0" y2="454.97382425516537" stroke="#000"/>
<line x1="350.8" y1="454.9899758234607" x2="379.0" y2="454.9899758234607" stroke="#000"/>
<line x1="364.9" y1="454.97382425516537" x2="364.9" y2="454.9899758234607" stroke="#000"/>
<rect x="379.0" y="324.5806212962973" width="28.2" height="173.41937870370265" fill="orange" data-tooltip="4.03x baseline speed (YJIT)"/>
<line x1="379.0" y1="324.49341861981645" x2="407.2" y2="324.49341861981645" stroke="#000"/>
<line x1="379.0" y1="324.66782397277814" x2="407.2" y2="324.66782397277814" stroke="#000"/>
<line x1="393.1" y1="324.49341861981645" x2="393.1" y2="324.66782397277814" stroke="#000"/>
<line x1="393.1" y1="498.0" x2="393.1" y2="502.79999999999995" stroke="#000"/>
<text x="393.1" y="512.4" fill="#111" font-size="small" font-family="monospace" font-weight="bold" text-anchor="end" transform="rotate(-60, 393.1, 512.4)">
fib
</text>
<rect x="435.40000000000003" y="454.9819000393131" width="28.2" height="43.01809996068689" fill="#7070f8" data-tooltip="1.00x baseline speed (No JIT)"/>
<line x1="435.40000000000003" y1="454.9380878097588" x2="463.6" y2="454.9380878097588" stroke="#000"/>
<line x1="435.40000000000003" y1="455.0257122688673" x2="463.6" y2="455.0257122688673" stroke="#000"/>
<line x1="449.5" y1="454.9380878097588" x2="449.5" y2="455.0257122688673" stroke="#000"/>
<rect x="463.6" y="387.5656517480375" width="28.2" height="110.43434825196248" fill="orange" data-tooltip="2.57x baseline speed (YJIT)"/>
<line x1="463.6" y1="387.35096579949635" x2="491.8" y2="387.35096579949635" stroke="#000"/>
<line x1="463.6" y1="387.78033769657867" x2="491.8" y2="387.78033769657867" stroke="#000"/>
<line x1="477.7" y1="387.35096579949635" x2="477.7" y2="387.78033769657867" stroke="#000"/>
<line x1="477.7" y1="498.0" x2="477.7" y2="502.79999999999995" stroke="#000"/>
<text x="477.7" y="512.4" fill="#111" font-size="small" font-family="monospace" font-weight="bold" text-anchor="end" transform="rotate(-60, 477.7, 512.4)">
getivar
</text>
<rect x="520.0" y="454.9819000393131" width="28.2" height="43.01809996068689" fill="#7070f8" data-tooltip="1.00x baseline speed (No JIT)"/>
<line x1="520.0" y1="454.9529048454626" x2="548.2" y2="454.9529048454626" stroke="#000"/>
<line x1="520.0" y1="455.0108952331635" x2="548.2" y2="455.0108952331635" stroke="#000"/>
<line x1="534.1" y1="454.9529048454626" x2="534.1" y2="455.0108952331635" stroke="#000"/>
<rect x="548.2" y="264.1324913131644" width="28.2" height="233.86750868683552" fill="orange" data-tooltip="5.44x baseline speed (YJIT)"/>
<line x1="548.2" y1="263.8985768693217" x2="576.4" y2="263.8985768693217" stroke="#000"/>
<line x1="548.2" y1="264.36640575700716" x2="576.4" y2="264.36640575700716" stroke="#000"/>
<line x1="562.3000000000001" y1="263.8985768693217" x2="562.3000000000001" y2="264.36640575700716" stroke="#000"/>
<line x1="562.3000000000001" y1="498.0" x2="562.3000000000001" y2="502.79999999999995" stroke="#000"/>
<text x="562.3000000000001" y="512.4" fill="#111" font-size="small" font-family="monospace" font-weight="bold" text-anchor="end" transform="rotate(-60, 562.3000000000001, 512.4)">
keyword_args
</text>
<rect x="604.5999999999999" y="454.9819000393131" width="28.2" height="43.01809996068689" fill="#7070f8" data-tooltip="1.00x baseline speed (No JIT)"/>
<line x1="604.5999999999999" y1="454.8599710958992" x2="632.8" y2="454.8599710958992" stroke="#000"/>
<line x1="604.5999999999999" y1="455.1038289827269" x2="632.8" y2="455.1038289827269" stroke="#000"/>
<line x1="618.6999999999999" y1="454.8599710958992" x2="618.6999999999999" y2="455.1038289827269" stroke="#000"/>
<rect x="632.8" y="100.19999999999999" width="28.2" height="397.79999999999995" fill="orange" data-tooltip="9.25x baseline speed (YJIT)"/>
<line x1="632.8" y1="98.48425386012035" x2="660.9999999999999" y2="98.48425386012035" stroke="#000"/>
<line x1="632.8" y1="101.91574613987963" x2="660.9999999999999" y2="101.91574613987963" stroke="#000"/>
<line x1="646.8999999999999" y1="98.48425386012035" x2="646.8999999999999" y2="101.91574613987963" stroke="#000"/>
<line x1="646.8999999999999" y1="498.0" x2="646.8999999999999" y2="502.79999999999995" stroke="#000"/>
<text x="646.8999999999999" y="512.4" fill="#111" font-size="small" font-family="monospace" font-weight="bold" text-anchor="end" transform="rotate(-60, 646.8999999999999, 512.4)">
respond_to
</text>
<rect x="689.1999999999999" y="454.9819000393131" width="28.2" height="43.01809996068689" fill="#7070f8" data-tooltip="1.00x baseline speed (No JIT)"/>
<line x1="689.1999999999999" y1="454.9171104291031" x2="717.4" y2="454.9171104291031" stroke="#000"/>
<line x1="689.1999999999999" y1="455.04668964952305" x2="717.4" y2="455.04668964952305" stroke="#000"/>
<line x1="703.3" y1="454.9171104291031" x2="703.3" y2="455.04668964952305" stroke="#000"/>
<rect x="717.4" y="301.3072570930887" width="28.2" height="196.69274290691123" fill="orange" data-tooltip="4.57x baseline speed (YJIT)"/>
<line x1="717.4" y1="300.9594394992963" x2="745.5999999999999" y2="300.9594394992963" stroke="#000"/>
<line x1="717.4" y1="301.6550746868811" x2="745.5999999999999" y2="301.6550746868811" stroke="#000"/>
<line x1="731.4999999999999" y1="300.9594394992963" x2="731.4999999999999" y2="301.6550746868811" stroke="#000"/>
<line x1="731.4999999999999" y1="498.0" x2="731.4999999999999" y2="502.79999999999995" stroke="#000"/>
<text x="731.4999999999999" y="512.4" fill="#111" font-size="small" font-family="monospace" font-weight="bold" text-anchor="end" transform="rotate(-60, 731.4999999999999, 512.4)">
setivar
</text>
<rect x="773.8" y="454.9819000393131" width="28.2" height="43.01809996068689" fill="#7070f8" data-tooltip="1.00x baseline speed (No JIT)"/>
<line x1="773.8" y1="453.95017500524966" x2="801.9999999999999" y2="453.95017500524966" stroke="#000"/>
<line x1="773.8" y1="456.0136250733765" x2="801.9999999999999" y2="456.0136250733765" stroke="#000"/>
<line x1="787.9" y1="453.95017500524966" x2="787.9" y2="456.0136250733765" stroke="#000"/>
<rect x="801.9999999999999" y="400.8812430321406" width="28.2" height="97.11875696785934" fill="orange" data-tooltip="2.26x baseline speed (YJIT)"/>
<line x1="801.9999999999999" y1="398.19211773212123" x2="830.1999999999999" y2="398.19211773212123" stroke="#000"/>
<line x1="801.9999999999999" y1="403.57036833216" x2="830.1999999999999" y2="403.57036833216" stroke="#000"/>
<line x1="816.0999999999999" y1="398.19211773212123" x2="816.0999999999999" y2="403.57036833216" stroke="#000"/>
<line x1="816.0999999999999" y1="498.0" x2="816.0999999999999" y2="502.79999999999995" stroke="#000"/>
<text x="816.0999999999999" y="512.4" fill="#111" font-size="small" font-family="monospace" font-weight="bold" text-anchor="end" transform="rotate(-60, 816.0999999999999, 512.4)">
setivar_object
</text>
<rect x="858.4" y="454.9819000393131" width="28.2" height="43.01809996068689" fill="#7070f8" data-tooltip="1.00x baseline speed (No JIT)"/>
<line x1="858.4" y1="454.59109488539656" x2="886.5999999999999" y2="454.59109488539656" stroke="#000"/>
<line x1="858.4" y1="455.3727051932296" x2="886.5999999999999" y2="455.3727051932296" stroke="#000"/>
<line x1="872.4999999999999" y1="454.59109488539656" x2="872.4999999999999" y2="455.3727051932296" stroke="#000"/>
<rect x="886.5999999999999" y="420.0438050900535" width="28.2" height="77.95619490994643" fill="orange" data-tooltip="1.81x baseline speed (YJIT)"/>
<line x1="886.5999999999999" y1="418.7680379991993" x2="914.8" y2="418.7680379991993" stroke="#000"/>
<line x1="886.5999999999999" y1="421.3195721809078" x2="914.8" y2="421.3195721809078" stroke="#000"/>
<line x1="900.6999999999999" y1="418.7680379991993" x2="900.6999999999999" y2="421.3195721809078" stroke="#000"/>
<line x1="900.6999999999999" y1="498.0" x2="900.6999999999999" y2="502.79999999999995" stroke="#000"/>
<text x="900.6999999999999" y="512.4" fill="#111" font-size="small" font-family="monospace" font-weight="bold" text-anchor="end" transform="rotate(-60, 900.6999999999999, 512.4)">
str_concat
</text>
</svg>