<svg viewBox="0 0 1000 600" xmlns="http://www.w3.org/2000/svg" xmlns:xlink="http://www.w3.org/1999/xlink" width="100%" height="100%">

<rect x="50.0" y="30.0" width="940.0" height="467.99999999999994" stroke="#000" fill="#EEE"/>
<line x1="42.0" y1="497.9999999999999" x2="50.0" y2="497.9999999999999" stroke="#000"/>
<text x="26.000000000000004" y="497.9999999999999" text-anchor="end" font-weight="bold" font-size="small" fill="#111">
0.0
</text>
<line x1="42.0" y1="410.6420096351032" x2="50.0" y2="410.6420096351032" stroke="#000"/>
<text x="26.000000000000004" y="410.6420096351032" text-anchor="end" font-weight="bold" font-size="small" fill="#111">
0.5
</text>
<line x1="42.0" y1="323.2840192702064" x2="50.0" y2="323.2840192702064" stroke="#000"/>
<text x="26.000000000000004" y="323.2840192702064" text-anchor="end" font-weight="bold" font-size="small" fill="#111">
1.0
</text>
<line x1="42.0" y1="235.9260289053097" x2="50.0" y2="235.9260289053097" stroke="#000"/>
<text x="26.000000000000004" y="235.9260289053097" text-anchor="end" font-weight="bold" font-size="small" fill="#111">
1.5
</text>
<line x1="42.0" y1="148.5680385404129" x2="50.0" y2="148.5680385404129" stroke="#000"/>
<text x="26.000000000000004" y="148.5680385404129" text-anchor="end" font-weight="bold" font-size="small" fill="#111">
2.0
</text>
<rect x="197.99999999999997" y="36.00000000000001" width="80.0" height="18.0" fill="#7070f8" stroke="#888"/>
<text x="238.0" y="52.50000000000001" font-size="small" text-anchor="middle" font-weight="bold" fill="#EEE">
No JIT
</text>
<rect x="479.99999999999994" y="36.00000000000001" width="80.0" height="18.0" fill="orange" stroke="#888"/>
<text x="519.9999999999999" y="52.50000000000001" font-size="small" text-anchor="middle" font-weight="bold" fill="#EEE">
MJIT
</text>
<rect x="761.9999999999999" y="36.00000000000001" width="80.0" height="18.0" fill="green" stroke="#888"/>
<text x="801.9999999999999" y="52.50000000000001" font-size="small" text-anchor="middle" font-weight="bold" fill="#EEE">
YJIT
</text>
<rect x="97.0" y="323.2840192702064" width="23.5" height="174.71598072979353" fill="#7070f8" data-tooltip="1.00x baseline speed (No JIT)"/>
<line x1="97.0" y1="323.21499668471716" x2="120.5" y2="323.21499668471716" stroke="#000"/>
<line x1="97.0" y1="323.35304185569555" x2="120.5" y2="323.35304185569555" stroke="#000"/>
<line x1="108.75" y1="323.21499668471716" x2="108.75" y2="323.35304185569555" stroke="#000"/>
<rect x="120.5" y="219.3193716853647" width="23.5" height="278.6806283146352" fill="orange" data-tooltip="1.60x baseline speed (MJIT)"/>
<line x1="120.5" y1="216.29563834444176" x2="144.0" y2="216.29563834444176" stroke="#000"/>
<line x1="120.5" y1="222.34310502628765" x2="144.0" y2="222.34310502628765" stroke="#000"/>
<line x1="132.25" y1="216.29563834444176" x2="132.25" y2="222.34310502628765" stroke="#000"/>
<rect x="144.00000000000003" y="261.7010655271711" width="23.5" height="236.2989344728288" fill="green" data-tooltip="1.35x baseline speed (YJIT)"/>
<line x1="144.00000000000003" y1="261.5512932860302" x2="167.5" y2="261.5512932860302" stroke="#000"/>
<line x1="144.00000000000003" y1="261.8508377683121" x2="167.5" y2="261.8508377683121" stroke="#000"/>
<line x1="155.75000000000003" y1="261.5512932860302" x2="155.75000000000003" y2="261.8508377683121" stroke="#000"/>
<line x1="144.00000000000003" y1="498.0" x2="144.00000000000003" y2="502.79999999999995" stroke="#000"/>
<text x="144.00000000000003" y="512.4" fill="#111" font-size="small" font-family="monospace" font-weight="bold" text-anchor="end" transform="rotate(-60, 144.00000000000003, 512.4)">
binarytrees
</text>
<rect x="191.0" y="323.2840192702064" width="23.5" height="174.71598072979353" fill="#7070f8" data-tooltip="1.00x baseline speed (No JIT)"/>
<line x1="191.0" y1="323.05567818485065" x2="214.5" y2="323.05567818485065" stroke="#000"/>
<line x1="191.0" y1="323.51236035556207" x2="214.5" y2="323.51236035556207" stroke="#000"/>
<line x1="202.75" y1="323.05567818485065" x2="202.75" y2="323.51236035556207" stroke="#000"/>
<rect x="214.5" y="278.51729160617606" width="23.5" height="219.48270839382386" fill="orange" data-tooltip="1.26x baseline speed (MJIT)"/>
<line x1="214.5" y1="278.2167915610708" x2="238.0" y2="278.2167915610708" stroke="#000"/>
<line x1="214.5" y1="278.81779165128137" x2="238.0" y2="278.81779165128137" stroke="#000"/>
<line x1="226.25" y1="278.2167915610708" x2="226.25" y2="278.81779165128137" stroke="#000"/>
<rect x="238.0" y="241.0590989698999" width="23.5" height="256.9409010301" fill="green" data-tooltip="1.47x baseline speed (YJIT)"/>
<line x1="238.0" y1="240.70021886323536" x2="261.5" y2="240.70021886323536" stroke="#000"/>
<line x1="238.0" y1="241.41797907656442" x2="261.5" y2="241.41797907656442" stroke="#000"/>
<line x1="249.75" y1="240.70021886323536" x2="249.75" y2="241.41797907656442" stroke="#000"/>
<line x1="238.0" y1="498.0" x2="238.0" y2="502.79999999999995" stroke="#000"/>
<text x="238.0" y="512.4" fill="#111" font-size="small" font-family="monospace" font-weight="bold" text-anchor="end" transform="rotate(-60, 238.0, 512.4)">
chunky_png
</text>
<rect x="285.00000000000006" y="323.2840192702064" width="23.5" height="174.71598072979353" fill="#7070f8" data-tooltip="1.00x baseline speed (No JIT)"/>
<line x1="285.00000000000006" y1="322.3599374897896" x2="308.50000000000006" y2="322.3599374897896" stroke="#000"/>
<line x1="285.00000000000006" y1="324.2081010506231" x2="308.50000000000006" y2="324.2081010506231" stroke="#000"/>
<line x1="296.75" y1="322.3599374897896" x2="296.75" y2="324.2081010506231" stroke="#000"/>
<rect x="308.50000000000006" y="307.3446893570386" width="23.5" height="190.65531064296135" fill="orange" data-tooltip="1.09x baseline speed (MJIT)"/>
<line x1="308.50000000000006" y1="305.98421440663094" x2="332.00000000000006" y2="305.98421440663094" stroke="#000"/>
<line x1="308.50000000000006" y1="308.70516430744624" x2="332.00000000000006" y2="308.70516430744624" stroke="#000"/>
<line x1="320.25000000000006" y1="305.98421440663094" x2="320.25000000000006" y2="308.70516430744624" stroke="#000"/>
<rect x="332.0" y="295.61264164405327" width="23.5" height="202.3873583559467" fill="green" data-tooltip="1.16x baseline speed (YJIT)"/>
<line x1="332.0" y1="293.9423215079016" x2="355.50000000000006" y2="293.9423215079016" stroke="#000"/>
<line x1="332.0" y1="297.28296178020486" x2="355.50000000000006" y2="297.28296178020486" stroke="#000"/>
<line x1="343.75" y1="293.9423215079016" x2="343.75" y2="297.28296178020486" stroke="#000"/>
<line x1="332.0" y1="498.0" x2="332.0" y2="502.79999999999995" stroke="#000"/>
<text x="332.0" y="512.4" fill="#111" font-size="small" font-family="monospace" font-weight="bold" text-anchor="end" transform="rotate(-60, 332.0, 512.4)">
erubi
</text>
<rect x="379.0" y="323.2840192702064" width="23.5" height="174.71598072979353" fill="#7070f8" data-tooltip="1.00x baseline speed (No JIT)"/>
<line x1="379.0" y1="318.6738699824637" x2="402.5" y2="318.6738699824637" stroke="#000"/>
<line x1="379.0" y1="327.894168557949" x2="402.5" y2="327.894168557949" stroke="#000"/>
<line x1="390.75" y1="318.6738699824637" x2="390.75" y2="327.894168557949" stroke="#000"/>
<rect x="402.5" y="325.1439269821119" width="23.5" height="172.85607301788804" fill="orange" data-tooltip="0.99x baseline speed (MJIT)"/>
<line x1="402.5" y1="318.82378533790023" x2="426.00000000000006" y2="318.82378533790023" stroke="#000"/>
<line x1="402.5" y1="331.4640686263236" x2="426.00000000000006" y2="331.4640686263236" stroke="#000"/>
<line x1="414.25" y1="318.82378533790023" x2="414.25" y2="331.4640686263236" stroke="#000"/>
<rect x="426.0" y="257.4095373650106" width="23.5" height="240.59046263498936" fill="green" data-tooltip="1.38x baseline speed (YJIT)"/>
<line x1="426.0" y1="247.0179305962909" x2="449.5" y2="247.0179305962909" stroke="#000"/>
<line x1="426.0" y1="267.80114413373025" x2="449.5" y2="267.80114413373025" stroke="#000"/>
<line x1="437.75" y1="247.0179305962909" x2="437.75" y2="267.80114413373025" stroke="#000"/>
<line x1="426.0" y1="498.0" x2="426.0" y2="502.79999999999995" stroke="#000"/>
<text x="426.0" y="512.4" fill="#111" font-size="small" font-family="monospace" font-weight="bold" text-anchor="end" transform="rotate(-60, 426.0, 512.4)">
erubi_rails
</text>
<rect x="473.0" y="323.2840192702064" width="23.5" height="174.71598072979353" fill="#7070f8" data-tooltip="1.00x baseline speed (No JIT)"/>
<line x1="473.0" y1="323.1460181080772" x2="496.5" y2="323.1460181080772" stroke="#000"/>
<line x1="473.0" y1="323.4220204323355" x2="496.5" y2="323.4220204323355" stroke="#000"/>
<line x1="484.74999999999994" y1="323.1460181080772" x2="484.74999999999994" y2="323.4220204323355" stroke="#000"/>
<rect x="496.5" y="327.3848492464294" width="23.5" height="170.6151507535706" fill="orange" data-tooltip="0.98x baseline speed (MJIT)"/>
<line x1="496.5" y1="326.4140362959871" x2="520.0" y2="326.4140362959871" stroke="#000"/>
<line x1="496.5" y1="328.35566219687166" x2="520.0" y2="328.35566219687166" stroke="#000"/>
<line x1="508.25" y1="326.4140362959871" x2="508.25" y2="328.35566219687166" stroke="#000"/>
<rect x="520.0" y="100.19999999999999" width="23.5" height="397.79999999999995" fill="green" data-tooltip="2.28x baseline speed (YJIT)"/>
<line x1="520.0" y1="99.50949899355558" x2="543.5" y2="99.50949899355558" stroke="#000"/>
<line x1="520.0" y1="100.8905010064444" x2="543.5" y2="100.8905010064444" stroke="#000"/>
<line x1="531.75" y1="99.50949899355558" x2="531.75" y2="100.8905010064444" stroke="#000"/>
<line x1="520.0" y1="498.0" x2="520.0" y2="502.79999999999995" stroke="#000"/>
<text x="520.0" y="512.4" fill="#111" font-size="small" font-family="monospace" font-weight="bold" text-anchor="end" transform="rotate(-60, 520.0, 512.4)">
fannkuchredux
</text>
<rect x="567.0" y="323.2840192702064" width="23.5" height="174.71598072979353" fill="#7070f8" data-tooltip="1.00x baseline speed (No JIT)"/>
<line x1="567.0" y1="322.07950506190224" x2="590.4999999999999" y2="322.07950506190224" stroke="#000"/>
<line x1="567.0" y1="324.4885334785105" x2="590.4999999999999" y2="324.4885334785105" stroke="#000"/>
<line x1="578.75" y1="322.07950506190224" x2="578.75" y2="324.4885334785105" stroke="#000"/>
<rect x="590.4999999999999" y="293.74001035302297" width="23.5" height="204.25998964697698" fill="orange" data-tooltip="1.17x baseline speed (MJIT)"/>
<line x1="590.4999999999999" y1="292.2761502931709" x2="613.9999999999999" y2="292.2761502931709" stroke="#000"/>
<line x1="590.4999999999999" y1="295.20387041287506" x2="613.9999999999999" y2="295.20387041287506" stroke="#000"/>
<line x1="602.25" y1="292.2761502931709" x2="602.25" y2="295.20387041287506" stroke="#000"/>
<rect x="614.0" y="271.071953145817" width="23.5" height="226.92804685418295" fill="green" data-tooltip="1.30x baseline speed (YJIT)"/>
<line x1="614.0" y1="268.44186089376734" x2="637.5" y2="268.44186089376734" stroke="#000"/>
<line x1="614.0" y1="273.7020453978667" x2="637.5" y2="273.7020453978667" stroke="#000"/>
<line x1="625.75" y1="268.44186089376734" x2="625.75" y2="273.7020453978667" stroke="#000"/>
<line x1="614.0" y1="498.0" x2="614.0" y2="502.79999999999995" stroke="#000"/>
<text x="614.0" y="512.4" fill="#111" font-size="small" font-family="monospace" font-weight="bold" text-anchor="end" transform="rotate(-60, 614.0, 512.4)">
lee
</text>
<rect x="661.0" y="323.2840192702064" width="23.5" height="174.71598072979353" fill="#7070f8" data-tooltip="1.00x baseline speed (No JIT)"/>
<line x1="661.0" y1="323.1639371181867" x2="684.5" y2="323.1639371181867" stroke="#000"/>
<line x1="661.0" y1="323.404101422226" x2="684.5" y2="323.404101422226" stroke="#000"/>
<line x1="672.7500000000001" y1="323.1639371181867" x2="672.7500000000001" y2="323.404101422226" stroke="#000"/>
<rect x="684.5" y="210.63231192720735" width="23.5" height="287.3676880727926" fill="orange" data-tooltip="1.64x baseline speed (MJIT)"/>
<line x1="684.5" y1="210.2285535321218" x2="708.0" y2="210.2285535321218" stroke="#000"/>
<line x1="684.5" y1="211.03607032229294" x2="708.0" y2="211.03607032229294" stroke="#000"/>
<line x1="696.25" y1="210.2285535321218" x2="696.25" y2="211.03607032229294" stroke="#000"/>
<rect x="708.0000000000001" y="259.1510579976697" width="23.5" height="238.84894200233023" fill="green" data-tooltip="1.37x baseline speed (YJIT)"/>
<line x1="708.0000000000001" y1="258.9178309985128" x2="731.5" y2="258.9178309985128" stroke="#000"/>
<line x1="708.0000000000001" y1="259.38428499682664" x2="731.5" y2="259.38428499682664" stroke="#000"/>
<line x1="719.7500000000001" y1="258.9178309985128" x2="719.7500000000001" y2="259.38428499682664" stroke="#000"/>
<line x1="708.0000000000001" y1="498.0" x2="708.0000000000001" y2="502.79999999999995" stroke="#000"/>
<text x="708.0000000000001" y="512.4" fill="#111" font-size="small" font-family="monospace" font-weight="bold" text-anchor="end" transform="rotate(-60, 708.0000000000001, 512.4)">
nbody
</text>
<rect x="755.0" y="323.2840192702064" width="23.5" height="174.71598072979353" fill="#7070f8" data-tooltip="1.00x baseline speed (No JIT)"/>
<line x1="755.0" y1="322.5332842566095" x2="778.5" y2="322.5332842566095" stroke="#000"/>
<line x1="755.0" y1="324.03475428380324" x2="778.5" y2="324.03475428380324" stroke="#000"/>
<line x1="766.75" y1="322.5332842566095" x2="766.75" y2="324.03475428380324" stroke="#000"/>
<rect x="778.5" y="111.67010696478543" width="23.5" height="386.3298930352145" fill="orange" data-tooltip="2.21x baseline speed (MJIT)"/>
<line x1="778.5" y1="108.83374378115151" x2="801.9999999999999" y2="108.83374378115151" stroke="#000"/>
<line x1="778.5" y1="114.50647014841937" x2="801.9999999999999" y2="114.50647014841937" stroke="#000"/>
<line x1="790.25" y1="108.83374378115151" x2="790.25" y2="114.50647014841937" stroke="#000"/>
<rect x="802.0" y="188.21526444712774" width="23.5" height="309.7847355528722" fill="green" data-tooltip="1.77x baseline speed (YJIT)"/>
<line x1="802.0" y1="185.8847923386674" x2="825.5" y2="185.8847923386674" stroke="#000"/>
<line x1="802.0" y1="190.5457365555881" x2="825.5" y2="190.5457365555881" stroke="#000"/>
<line x1="813.7500000000001" y1="185.8847923386674" x2="813.7500000000001" y2="190.5457365555881" stroke="#000"/>
<line x1="802.0" y1="498.0" x2="802.0" y2="502.79999999999995" stroke="#000"/>
<text x="802.0" y="512.4" fill="#111" font-size="small" font-family="monospace" font-weight="bold" text-anchor="end" transform="rotate(-60, 802.0, 512.4)">
optcarrot
</text>
<rect x="849.0" y="323.2840192702064" width="23.5" height="174.71598072979353" fill="#7070f8" data-tooltip="1.00x baseline speed (No JIT)"/>
<line x1="849.0" y1="322.4112226216093" x2="872.4999999999999" y2="322.4112226216093" stroke="#000"/>
<line x1="849.0" y1="324.15681591880343" x2="872.4999999999999" y2="324.15681591880343" stroke="#000"/>
<line x1="860.75" y1="322.4112226216093" x2="860.75" y2="324.15681591880343" stroke="#000"/>
<rect x="872.4999999999999" y="252.34877751747993" width="23.5" height="245.65122248252" fill="orange" data-tooltip="1.41x baseline speed (MJIT)"/>
<line x1="872.4999999999999" y1="249.62545282451774" x2="895.9999999999999" y2="249.62545282451774" stroke="#000"/>
<line x1="872.4999999999999" y1="255.07210221044215" x2="895.9999999999999" y2="255.07210221044215" stroke="#000"/>
<line x1="884.25" y1="249.62545282451774" x2="884.25" y2="255.07210221044215" stroke="#000"/>
<rect x="896.0" y="179.01888030587284" width="23.5" height="318.9811196941271" fill="green" data-tooltip="1.83x baseline speed (YJIT)"/>
<line x1="896.0" y1="176.52603890692694" x2="919.5" y2="176.52603890692694" stroke="#000"/>
<line x1="896.0" y1="181.51172170481877" x2="919.5" y2="181.51172170481877" stroke="#000"/>
<line x1="907.75" y1="176.52603890692694" x2="907.75" y2="181.51172170481877" stroke="#000"/>
<line x1="896.0" y1="498.0" x2="896.0" y2="502.79999999999995" stroke="#000"/>
<text x="896.0" y="512.4" fill="#111" font-size="small" font-family="monospace" font-weight="bold" text-anchor="end" transform="rotate(-60, 896.0, 512.4)">
rubykon
</text>
</svg>