<svg viewBox="0 0 1000 600" xmlns="http://www.w3.org/2000/svg" xmlns:xlink="http://www.w3.org/1999/xlink" width="100%" height="100%">

<rect x="50.0" y="30.0" width="940.0" height="467.99999999999994" stroke="#000" fill="#EEE"/>
<line x1="42.0" y1="497.9999999999999" x2="50.0" y2="497.9999999999999" stroke="#000"/>
<text x="26.000000000000004" y="497.9999999999999" text-anchor="end" font-weight="bold" font-size="small" fill="#111">
0.0
</text>
<line x1="42.0" y1="417.72747149533956" x2="50.0" y2="417.72747149533956" stroke="#000"/>
<text x="26.000000000000004" y="417.72747149533956" text-anchor="end" font-weight="bold" font-size="small" fill="#111">
0.5
</text>
<line x1="42.0" y1="337.4549429906792" x2="50.0" y2="337.4549429906792" stroke="#000"/>
<text x="26.000000000000004" y="337.4549429906792" text-anchor="end" font-weight="bold" font-size="small" fill="#111">
1.0
</text>
<line x1="42.0" y1="257.1824144860189" x2="50.0" y2="257.1824144860189" stroke="#000"/>
<text x="26.000000000000004" y="257.1824144860189" text-anchor="end" font-weight="bold" font-size="small" fill="#111">
1.5
</text>
<line x1="42.0" y1="176.9098859813585" x2="50.0" y2="176.9098859813585" stroke="#000"/>
<text x="26.000000000000004" y="176.9098859813585" text-anchor="end" font-weight="bold" font-size="small" fill="#111">
2.0
</text>
<rect x="162.74999999999997" y="36.00000000000001" width="80.0" height="18.0" fill="#7070f8" stroke="#888"/>
<text x="202.75" y="52.50000000000001" font-size="small" text-anchor="middle" font-weight="bold" fill="#EEE">
No JIT
</text>
<rect x="374.25" y="36.00000000000001" width="80.0" height="18.0" fill="orange" stroke="#888"/>
<text x="414.25" y="52.50000000000001" font-size="small" text-anchor="middle" font-weight="bold" fill="#EEE">
MJIT3.0
</text>
<rect x="585.7499999999999" y="36.00000000000001" width="80.0" height="18.0" fill="green" stroke="#888"/>
<text x="625.7499999999999" y="52.50000000000001" font-size="small" text-anchor="middle" font-weight="bold" fill="#EEE">
MJIT
</text>
<rect x="797.2499999999999" y="36.00000000000001" width="80.0" height="18.0" fill="#4F3A7A" stroke="#888"/>
<text x="837.2499999999999" y="52.50000000000001" font-size="small" text-anchor="middle" font-weight="bold" fill="#EEE">
YJIT
</text>
<rect x="97.0" y="337.4549429906792" width="21.15" height="160.54505700932071" fill="#7070f8" data-tooltip="1.00x baseline speed (No JIT)"/>
<line x1="97.0" y1="334.29334974454537" x2="118.15" y2="334.29334974454537" stroke="#000"/>
<line x1="97.0" y1="340.6165362368131" x2="118.15" y2="340.6165362368131" stroke="#000"/>
<line x1="107.575" y1="334.29334974454537" x2="107.575" y2="340.6165362368131" stroke="#000"/>
<rect x="118.15" y="246.54185582250582" width="21.15" height="251.45814417749412" fill="orange" data-tooltip="1.57x baseline speed (MJIT3.0)"/>
<line x1="118.15" y1="241.57956249891512" x2="139.3" y2="241.57956249891512" stroke="#000"/>
<line x1="118.15" y1="251.50414914609655" x2="139.3" y2="251.50414914609655" stroke="#000"/>
<line x1="128.725" y1="241.57956249891512" x2="128.725" y2="251.50414914609655" stroke="#000"/>
<rect x="139.3" y="252.32473994854118" width="21.15" height="245.67526005145876" fill="green" data-tooltip="1.53x baseline speed (MJIT)"/>
<line x1="139.3" y1="247.38252896134733" x2="160.45000000000002" y2="247.38252896134733" stroke="#000"/>
<line x1="139.3" y1="257.26695093573505" x2="160.45000000000002" y2="257.26695093573505" stroke="#000"/>
<line x1="149.875" y1="247.38252896134733" x2="149.875" y2="257.26695093573505" stroke="#000"/>
<rect x="160.45" y="289.5270939611986" width="21.15" height="208.4729060388013" fill="#4F3A7A" data-tooltip="1.30x baseline speed (YJIT)"/>
<line x1="160.45" y1="282.65558682132263" x2="181.6" y2="282.65558682132263" stroke="#000"/>
<line x1="160.45" y1="296.3986011010746" x2="181.6" y2="296.3986011010746" stroke="#000"/>
<line x1="171.02499999999998" y1="282.65558682132263" x2="171.02499999999998" y2="296.3986011010746" stroke="#000"/>
<line x1="149.875" y1="498.0" x2="149.875" y2="502.79999999999995" stroke="#000"/>
<text x="149.875" y="512.4" fill="#111" font-size="small" font-family="monospace" font-weight="bold" text-anchor="end" transform="rotate(-60, 149.875, 512.4)">
binarytrees
</text>
<rect x="202.75" y="337.4549429906792" width="21.15" height="160.54505700932071" fill="#7070f8" data-tooltip="1.00x baseline speed (No JIT)"/>
<line x1="202.75" y1="334.79776370665365" x2="223.89999999999998" y2="334.79776370665365" stroke="#000"/>
<line x1="202.75" y1="340.1121222747048" x2="223.89999999999998" y2="340.1121222747048" stroke="#000"/>
<line x1="213.325" y1="334.79776370665365" x2="213.325" y2="340.1121222747048" stroke="#000"/>
<rect x="223.89999999999998" y="331.2782383235569" width="21.15" height="166.72176167644304" fill="orange" data-tooltip="1.04x baseline speed (MJIT3.0)"/>
<line x1="223.89999999999998" y1="327.72925235574775" x2="245.04999999999998" y2="327.72925235574775" stroke="#000"/>
<line x1="223.89999999999998" y1="334.827224291366" x2="245.04999999999998" y2="334.827224291366" stroke="#000"/>
<line x1="234.475" y1="327.72925235574775" x2="234.475" y2="334.827224291366" stroke="#000"/>
<rect x="245.04999999999998" y="320.0292068810183" width="21.15" height="177.97079311898162" fill="green" data-tooltip="1.11x baseline speed (MJIT)"/>
<line x1="245.04999999999998" y1="316.6505039339117" x2="266.2" y2="316.6505039339117" stroke="#000"/>
<line x1="245.04999999999998" y1="323.4079098281249" x2="266.2" y2="323.4079098281249" stroke="#000"/>
<line x1="255.625" y1="316.6505039339117" x2="255.625" y2="323.4079098281249" stroke="#000"/>
<rect x="266.2" y="343.39354370030514" width="21.15" height="154.60645629969483" fill="#4F3A7A" data-tooltip="0.96x baseline speed (YJIT)"/>
<line x1="266.2" y1="340.1917902518702" x2="287.35" y2="340.1917902518702" stroke="#000"/>
<line x1="266.2" y1="346.5952971487401" x2="287.35" y2="346.5952971487401" stroke="#000"/>
<line x1="276.775" y1="340.1917902518702" x2="276.775" y2="346.5952971487401" stroke="#000"/>
<line x1="255.625" y1="498.0" x2="255.625" y2="502.79999999999995" stroke="#000"/>
<text x="255.625" y="512.4" fill="#111" font-size="small" font-family="monospace" font-weight="bold" text-anchor="end" transform="rotate(-60, 255.625, 512.4)">
erubi
</text>
<rect x="308.5" y="337.4549429906792" width="21.15" height="160.54505700932071" fill="#7070f8" data-tooltip="1.00x baseline speed (No JIT)"/>
<line x1="308.5" y1="332.52586695796765" x2="329.65" y2="332.52586695796765" stroke="#000"/>
<line x1="308.5" y1="342.3840190233908" x2="329.65" y2="342.3840190233908" stroke="#000"/>
<line x1="319.075" y1="332.52586695796765" x2="319.075" y2="342.3840190233908" stroke="#000"/>
<rect x="329.65" y="367.07485111154415" width="21.15" height="130.9251488884558" fill="orange" data-tooltip="0.82x baseline speed (MJIT3.0)"/>
<line x1="329.65" y1="360.2780001201124" x2="350.8" y2="360.2780001201124" stroke="#000"/>
<line x1="329.65" y1="373.8717021029759" x2="350.8" y2="373.8717021029759" stroke="#000"/>
<line x1="340.225" y1="360.2780001201124" x2="340.225" y2="373.8717021029759" stroke="#000"/>
<rect x="350.8" y="354.6479819328207" width="21.15" height="143.35201806717927" fill="green" data-tooltip="0.89x baseline speed (MJIT)"/>
<line x1="350.8" y1="343.2489522768628" x2="371.95" y2="343.2489522768628" stroke="#000"/>
<line x1="350.8" y1="366.04701158877856" x2="371.95" y2="366.04701158877856" stroke="#000"/>
<line x1="361.375" y1="343.2489522768628" x2="361.375" y2="366.04701158877856" stroke="#000"/>
<rect x="371.95" y="310.26157202057846" width="21.15" height="187.7384279794215" fill="#4F3A7A" data-tooltip="1.17x baseline speed (YJIT)"/>
<line x1="371.95" y1="299.4576194759112" x2="393.1" y2="299.4576194759112" stroke="#000"/>
<line x1="371.95" y1="321.0655245652457" x2="393.1" y2="321.0655245652457" stroke="#000"/>
<line x1="382.525" y1="299.4576194759112" x2="382.525" y2="321.0655245652457" stroke="#000"/>
<line x1="361.375" y1="498.0" x2="361.375" y2="502.79999999999995" stroke="#000"/>
<text x="361.375" y="512.4" fill="#111" font-size="small" font-family="monospace" font-weight="bold" text-anchor="end" transform="rotate(-60, 361.375, 512.4)">
erubi_rails
</text>
<rect x="414.25" y="337.4549429906792" width="21.15" height="160.54505700932071" fill="#7070f8" data-tooltip="1.00x baseline speed (No JIT)"/>
<line x1="414.25" y1="337.3075984673062" x2="435.40000000000003" y2="337.3075984673062" stroke="#000"/>
<line x1="414.25" y1="337.6022875140523" x2="435.40000000000003" y2="337.6022875140523" stroke="#000"/>
<line x1="424.825" y1="337.3075984673062" x2="424.825" y2="337.6022875140523" stroke="#000"/>
<rect x="435.40000000000003" y="280.5815850049432" width="21.15" height="217.41841499505674" fill="orange" data-tooltip="1.35x baseline speed (MJIT3.0)"/>
<line x1="435.40000000000003" y1="279.9849072306813" x2="456.55" y2="279.9849072306813" stroke="#000"/>
<line x1="435.40000000000003" y1="281.1782627792051" x2="456.55" y2="281.1782627792051" stroke="#000"/>
<line x1="445.975" y1="279.9849072306813" x2="445.975" y2="281.1782627792051" stroke="#000"/>
<rect x="456.55" y="340.5738766244167" width="21.15" height="157.42612337558324" fill="green" data-tooltip="0.98x baseline speed (MJIT)"/>
<line x1="456.55" y1="340.40716361651147" x2="477.7" y2="340.40716361651147" stroke="#000"/>
<line x1="456.55" y1="340.74058963232187" x2="477.7" y2="340.74058963232187" stroke="#000"/>
<line x1="467.125" y1="340.40716361651147" x2="467.125" y2="340.74058963232187" stroke="#000"/>
<rect x="477.7" y="338.15930002871943" width="21.15" height="159.8406999712805" fill="#4F3A7A" data-tooltip="1.00x baseline speed (YJIT)"/>
<line x1="477.7" y1="337.9403614082253" x2="498.85" y2="337.9403614082253" stroke="#000"/>
<line x1="477.7" y1="338.3782386492136" x2="498.85" y2="338.3782386492136" stroke="#000"/>
<line x1="488.27500000000003" y1="337.9403614082253" x2="488.27500000000003" y2="338.3782386492136" stroke="#000"/>
<line x1="467.125" y1="498.0" x2="467.125" y2="502.79999999999995" stroke="#000"/>
<text x="467.125" y="512.4" fill="#111" font-size="small" font-family="monospace" font-weight="bold" text-anchor="end" transform="rotate(-60, 467.125, 512.4)">
fannkuchredux
</text>
<rect x="520.0" y="337.4549429906792" width="21.15" height="160.54505700932071" fill="#7070f8" data-tooltip="1.00x baseline speed (No JIT)"/>
<line x1="520.0" y1="335.91610427646447" x2="541.15" y2="335.91610427646447" stroke="#000"/>
<line x1="520.0" y1="338.993781704894" x2="541.15" y2="338.993781704894" stroke="#000"/>
<line x1="530.575" y1="335.91610427646447" x2="530.575" y2="338.993781704894" stroke="#000"/>
<rect x="541.15" y="316.05269341367546" width="21.15" height="181.94730658632452" fill="orange" data-tooltip="1.13x baseline speed (MJIT3.0)"/>
<line x1="541.15" y1="313.6798355344299" x2="562.3000000000001" y2="313.6798355344299" stroke="#000"/>
<line x1="541.15" y1="318.425551292921" x2="562.3000000000001" y2="318.425551292921" stroke="#000"/>
<line x1="551.725" y1="313.6798355344299" x2="551.725" y2="318.425551292921" stroke="#000"/>
<rect x="562.3000000000001" y="301.4076586901612" width="21.15" height="196.5923413098387" fill="green" data-tooltip="1.22x baseline speed (MJIT)"/>
<line x1="562.3000000000001" y1="298.2845929036198" x2="583.45" y2="298.2845929036198" stroke="#000"/>
<line x1="562.3000000000001" y1="304.5307244767027" x2="583.45" y2="304.5307244767027" stroke="#000"/>
<line x1="572.875" y1="298.2845929036198" x2="572.875" y2="304.5307244767027" stroke="#000"/>
<rect x="583.45" y="278.29383995039746" width="21.15" height="219.7061600496025" fill="#4F3A7A" data-tooltip="1.37x baseline speed (YJIT)"/>
<line x1="583.45" y1="274.5365766921191" x2="604.6" y2="274.5365766921191" stroke="#000"/>
<line x1="583.45" y1="282.0511032086758" x2="604.6" y2="282.0511032086758" stroke="#000"/>
<line x1="594.025" y1="274.5365766921191" x2="594.025" y2="282.0511032086758" stroke="#000"/>
<line x1="572.875" y1="498.0" x2="572.875" y2="502.79999999999995" stroke="#000"/>
<text x="572.875" y="512.4" fill="#111" font-size="small" font-family="monospace" font-weight="bold" text-anchor="end" transform="rotate(-60, 572.875, 512.4)">
lee
</text>
<rect x="625.7499999999999" y="337.4549429906792" width="21.15" height="160.54505700932071" fill="#7070f8" data-tooltip="1.00x baseline speed (No JIT)"/>
<line x1="625.7499999999999" y1="337.38495058016804" x2="646.8999999999999" y2="337.38495058016804" stroke="#000"/>
<line x1="625.7499999999999" y1="337.5249354011905" x2="646.8999999999999" y2="337.5249354011905" stroke="#000"/>
<line x1="636.3249999999999" y1="337.38495058016804" x2="636.3249999999999" y2="337.5249354011905" stroke="#000"/>
<rect x="646.8999999999999" y="226.9407244398801" width="21.15" height="271.05927556011983" fill="orange" data-tooltip="1.69x baseline speed (MJIT3.0)"/>
<line x1="646.8999999999999" y1="225.24381643416345" x2="668.05" y2="225.24381643416345" stroke="#000"/>
<line x1="646.8999999999999" y1="228.63763244559678" x2="668.05" y2="228.63763244559678" stroke="#000"/>
<line x1="657.4749999999999" y1="225.24381643416345" x2="657.4749999999999" y2="228.63763244559678" stroke="#000"/>
<rect x="668.05" y="217.1163885728053" width="21.15" height="280.88361142719464" fill="green" data-tooltip="1.75x baseline speed (MJIT)"/>
<line x1="668.05" y1="216.92990656991077" x2="689.1999999999999" y2="216.92990656991077" stroke="#000"/>
<line x1="668.05" y1="217.30287057569987" x2="689.1999999999999" y2="217.30287057569987" stroke="#000"/>
<line x1="678.6249999999999" y1="216.92990656991077" x2="678.6249999999999" y2="217.30287057569987" stroke="#000"/>
<rect x="689.1999999999999" y="275.2812227584118" width="21.15" height="222.71877724158813" fill="#4F3A7A" data-tooltip="1.39x baseline speed (YJIT)"/>
<line x1="689.1999999999999" y1="275.0964549049919" x2="710.3499999999999" y2="275.0964549049919" stroke="#000"/>
<line x1="689.1999999999999" y1="275.4659906118317" x2="710.3499999999999" y2="275.4659906118317" stroke="#000"/>
<line x1="699.775" y1="275.0964549049919" x2="699.775" y2="275.4659906118317" stroke="#000"/>
<line x1="678.6249999999999" y1="498.0" x2="678.6249999999999" y2="502.79999999999995" stroke="#000"/>
<text x="678.6249999999999" y="512.4" fill="#111" font-size="small" font-family="monospace" font-weight="bold" text-anchor="end" transform="rotate(-60, 678.6249999999999, 512.4)">
nbody
</text>
<rect x="731.4999999999999" y="337.4549429906792" width="21.15" height="160.54505700932071" fill="#7070f8" data-tooltip="1.00x baseline speed (No JIT)"/>
<line x1="731.4999999999999" y1="336.5904453626856" x2="752.65" y2="336.5904453626856" stroke="#000"/>
<line x1="731.4999999999999" y1="338.31944061867284" x2="752.65" y2="338.31944061867284" stroke="#000"/>
<line x1="742.0749999999999" y1="336.5904453626856" x2="742.0749999999999" y2="338.31944061867284" stroke="#000"/>
<rect x="752.65" y="114.35985499394178" width="21.15" height="383.64014500605816" fill="orange" data-tooltip="2.39x baseline speed (MJIT3.0)"/>
<line x1="752.65" y1="110.56470738009861" x2="773.8" y2="110.56470738009861" stroke="#000"/>
<line x1="752.65" y1="118.15500260778497" x2="773.8" y2="118.15500260778497" stroke="#000"/>
<line x1="763.2249999999999" y1="110.56470738009861" x2="763.2249999999999" y2="118.15500260778497" stroke="#000"/>
<rect x="773.8" y="100.19999999999999" width="21.15" height="397.79999999999995" fill="green" data-tooltip="2.48x baseline speed (MJIT)"/>
<line x1="773.8" y1="96.18831381456397" x2="794.9499999999999" y2="96.18831381456397" stroke="#000"/>
<line x1="773.8" y1="104.21168618543601" x2="794.9499999999999" y2="104.21168618543601" stroke="#000"/>
<line x1="784.3749999999999" y1="96.18831381456397" x2="784.3749999999999" y2="104.21168618543601" stroke="#000"/>
<rect x="794.9499999999999" y="237.58644985271533" width="21.15" height="260.4135501472846" fill="#4F3A7A" data-tooltip="1.62x baseline speed (YJIT)"/>
<line x1="794.9499999999999" y1="234.8896336869936" x2="816.0999999999999" y2="234.8896336869936" stroke="#000"/>
<line x1="794.9499999999999" y1="240.28326601843708" x2="816.0999999999999" y2="240.28326601843708" stroke="#000"/>
<line x1="805.525" y1="234.8896336869936" x2="805.525" y2="240.28326601843708" stroke="#000"/>
<line x1="784.3749999999999" y1="498.0" x2="784.3749999999999" y2="502.79999999999995" stroke="#000"/>
<text x="784.3749999999999" y="512.4" fill="#111" font-size="small" font-family="monospace" font-weight="bold" text-anchor="end" transform="rotate(-60, 784.3749999999999, 512.4)">
optcarrot
</text>
<rect x="837.2499999999999" y="337.4549429906792" width="21.15" height="160.54505700932071" fill="#7070f8" data-tooltip="1.00x baseline speed (No JIT)"/>
<line x1="837.2499999999999" y1="336.84722853644047" x2="858.4" y2="336.84722853644047" stroke="#000"/>
<line x1="837.2499999999999" y1="338.062657444918" x2="858.4" y2="338.062657444918" stroke="#000"/>
<line x1="847.8249999999999" y1="336.84722853644047" x2="847.8249999999999" y2="338.062657444918" stroke="#000"/>
<rect x="858.4" y="236.51323046199445" width="21.15" height="261.4867695380055" fill="orange" data-tooltip="1.63x baseline speed (MJIT3.0)"/>
<line x1="858.4" y1="235.2194314878227" x2="879.55" y2="235.2194314878227" stroke="#000"/>
<line x1="858.4" y1="237.80702943616618" x2="879.55" y2="237.80702943616618" stroke="#000"/>
<line x1="868.9749999999999" y1="235.2194314878227" x2="868.9749999999999" y2="237.80702943616618" stroke="#000"/>
<rect x="879.55" y="247.5569038451596" width="21.15" height="250.44309615484033" fill="green" data-tooltip="1.56x baseline speed (MJIT)"/>
<line x1="879.55" y1="245.79814122161554" x2="900.6999999999999" y2="245.79814122161554" stroke="#000"/>
<line x1="879.55" y1="249.31566646870368" x2="900.6999999999999" y2="249.31566646870368" stroke="#000"/>
<line x1="890.125" y1="245.79814122161554" x2="890.125" y2="249.31566646870368" stroke="#000"/>
<rect x="900.6999999999999" y="206.17037264602743" width="21.15" height="291.8296273539725" fill="#4F3A7A" data-tooltip="1.82x baseline speed (YJIT)"/>
<line x1="900.6999999999999" y1="204.5923542776531" x2="921.8499999999999" y2="204.5923542776531" stroke="#000"/>
<line x1="900.6999999999999" y1="207.7483910144018" x2="921.8499999999999" y2="207.7483910144018" stroke="#000"/>
<line x1="911.275" y1="204.5923542776531" x2="911.275" y2="207.7483910144018" stroke="#000"/>
<line x1="890.125" y1="498.0" x2="890.125" y2="502.79999999999995" stroke="#000"/>
<text x="890.125" y="512.4" fill="#111" font-size="small" font-family="monospace" font-weight="bold" text-anchor="end" transform="rotate(-60, 890.125, 512.4)">
rubykon
</text>
</svg>