<svg viewBox="0 0 1000 600" xmlns="http://www.w3.org/2000/svg" xmlns:xlink="http://www.w3.org/1999/xlink" width="100%" height="100%">

<rect x="50.0" y="30.0" width="940.0" height="467.99999999999994" stroke="#000" fill="#EEE"/>
<line x1="42.0" y1="497.9999999999999" x2="50.0" y2="497.9999999999999" stroke="#000"/>
<text x="26.000000000000004" y="497.9999999999999" text-anchor="end" font-weight="bold" font-size="small" fill="#111">
0.0
</text>
<line x1="42.0" y1="445.8727901584082" x2="50.0" y2="445.8727901584082" stroke="#000"/>
<text x="26.000000000000004" y="445.8727901584082" text-anchor="end" font-weight="bold" font-size="small" fill="#111">
1.0
</text>
<line x1="42.0" y1="393.74558031681653" x2="50.0" y2="393.74558031681653" stroke="#000"/>
<text x="26.000000000000004" y="393.74558031681653" text-anchor="end" font-weight="bold" font-size="small" fill="#111">
2.0
</text>
<line x1="42.0" y1="341.6183704752248" x2="50.0" y2="341.6183704752248" stroke="#000"/>
<text x="26.000000000000004" y="341.6183704752248" text-anchor="end" font-weight="bold" font-size="small" fill="#111">
3.0
</text>
<line x1="42.0" y1="289.49116063363306" x2="50.0" y2="289.49116063363306" stroke="#000"/>
<text x="26.000000000000004" y="289.49116063363306" text-anchor="end" font-weight="bold" font-size="small" fill="#111">
4.0
</text>
<line x1="42.0" y1="237.3639507920413" x2="50.0" y2="237.3639507920413" stroke="#000"/>
<text x="26.000000000000004" y="237.3639507920413" text-anchor="end" font-weight="bold" font-size="small" fill="#111">
5.0
</text>
<line x1="42.0" y1="185.23674095044962" x2="50.0" y2="185.23674095044962" stroke="#000"/>
<text x="26.000000000000004" y="185.23674095044962" text-anchor="end" font-weight="bold" font-size="small" fill="#111">
6.0
</text>
<line x1="42.0" y1="133.10953110885785" x2="50.0" y2="133.10953110885785" stroke="#000"/>
<text x="26.000000000000004" y="133.10953110885785" text-anchor="end" font-weight="bold" font-size="small" fill="#111">
7.0
</text>
<rect x="197.99999999999997" y="36.00000000000001" width="80.0" height="18.0" fill="#7070f8" stroke="#888"/>
<text x="238.0" y="52.50000000000001" font-size="small" text-anchor="middle" font-weight="bold" fill="#EEE">
No JIT
</text>
<rect x="479.99999999999994" y="36.00000000000001" width="80.0" height="18.0" fill="orange" stroke="#888"/>
<text x="519.9999999999999" y="52.50000000000001" font-size="small" text-anchor="middle" font-weight="bold" fill="#EEE">
MJIT
</text>
<rect x="761.9999999999999" y="36.00000000000001" width="80.0" height="18.0" fill="green" stroke="#888"/>
<text x="801.9999999999999" y="52.50000000000001" font-size="small" text-anchor="middle" font-weight="bold" fill="#EEE">
YJIT
</text>
<rect x="97.0" y="445.8727901584082" width="23.5" height="52.12720984159172" fill="#7070f8" data-tooltip="1.00x baseline speed (No JIT)"/>
<line x1="97.0" y1="445.8689540984146" x2="120.5" y2="445.8689540984146" stroke="#000"/>
<line x1="97.0" y1="445.8766262184018" x2="120.5" y2="445.8766262184018" stroke="#000"/>
<line x1="108.75" y1="445.8689540984146" x2="108.75" y2="445.8766262184018" stroke="#000"/>
<rect x="120.5" y="472.28939938324686" width="23.5" height="25.710600616753062" fill="orange" data-tooltip="0.49x baseline speed (MJIT)"/>
<line x1="120.5" y1="471.6673061518282" x2="144.0" y2="471.6673061518282" stroke="#000"/>
<line x1="120.5" y1="472.9114926146655" x2="144.0" y2="472.9114926146655" stroke="#000"/>
<line x1="132.25" y1="471.6673061518282" x2="132.25" y2="472.9114926146655" stroke="#000"/>
<rect x="144.00000000000003" y="159.55572214496468" width="23.5" height="338.4442778550353" fill="green" data-tooltip="6.49x baseline speed (YJIT)"/>
<line x1="144.00000000000003" y1="159.26631714385493" x2="167.5" y2="159.26631714385493" stroke="#000"/>
<line x1="144.00000000000003" y1="159.84512714607442" x2="167.5" y2="159.84512714607442" stroke="#000"/>
<line x1="155.75000000000003" y1="159.26631714385493" x2="155.75000000000003" y2="159.84512714607442" stroke="#000"/>
<line x1="144.00000000000003" y1="498.0" x2="144.00000000000003" y2="502.79999999999995" stroke="#000"/>
<text x="144.00000000000003" y="512.4" fill="#111" font-size="small" font-family="monospace" font-weight="bold" text-anchor="end" transform="rotate(-60, 144.00000000000003, 512.4)">
30k_ifelse
</text>
<rect x="191.0" y="445.8727901584082" width="23.5" height="52.12720984159172" fill="#7070f8" data-tooltip="1.00x baseline speed (No JIT)"/>
<line x1="191.0" y1="445.86970380178695" x2="214.5" y2="445.86970380178695" stroke="#000"/>
<line x1="191.0" y1="445.8758765150294" x2="214.5" y2="445.8758765150294" stroke="#000"/>
<line x1="202.75" y1="445.86970380178695" x2="202.75" y2="445.8758765150294" stroke="#000"/>
<rect x="214.5" y="472.1949457859773" width="23.5" height="25.80505421402269" fill="orange" data-tooltip="0.50x baseline speed (MJIT)"/>
<line x1="214.5" y1="471.12052772154954" x2="238.0" y2="471.12052772154954" stroke="#000"/>
<line x1="214.5" y1="473.2693638504051" x2="238.0" y2="473.2693638504051" stroke="#000"/>
<line x1="226.25" y1="471.12052772154954" x2="226.25" y2="473.2693638504051" stroke="#000"/>
<rect x="238.0" y="100.19999999999999" width="23.5" height="397.79999999999995" fill="green" data-tooltip="7.63x baseline speed (YJIT)"/>
<line x1="238.0" y1="100.11690734631286" x2="261.5" y2="100.11690734631286" stroke="#000"/>
<line x1="238.0" y1="100.28309265368712" x2="261.5" y2="100.28309265368712" stroke="#000"/>
<line x1="249.75" y1="100.11690734631286" x2="249.75" y2="100.28309265368712" stroke="#000"/>
<line x1="238.0" y1="498.0" x2="238.0" y2="502.79999999999995" stroke="#000"/>
<text x="238.0" y="512.4" fill="#111" font-size="small" font-family="monospace" font-weight="bold" text-anchor="end" transform="rotate(-60, 238.0, 512.4)">
30k_methods
</text>
<rect x="285.00000000000006" y="445.8727901584082" width="23.5" height="52.12720984159172" fill="#7070f8" data-tooltip="1.00x baseline speed (No JIT)"/>
<line x1="285.00000000000006" y1="445.75984608731056" x2="308.50000000000006" y2="445.75984608731056" stroke="#000"/>
<line x1="285.00000000000006" y1="445.9857342295058" x2="308.50000000000006" y2="445.9857342295058" stroke="#000"/>
<line x1="296.75" y1="445.75984608731056" x2="296.75" y2="445.9857342295058" stroke="#000"/>
<rect x="308.50000000000006" y="417.75112905999566" width="23.5" height="80.24887094000424" fill="orange" data-tooltip="1.54x baseline speed (MJIT)"/>
<line x1="308.50000000000006" y1="417.1181235374113" x2="332.00000000000006" y2="417.1181235374113" stroke="#000"/>
<line x1="308.50000000000006" y1="418.38413458258" x2="332.00000000000006" y2="418.38413458258" stroke="#000"/>
<line x1="320.25000000000006" y1="417.1181235374113" x2="320.25000000000006" y2="418.38413458258" stroke="#000"/>
<rect x="332.0" y="378.59677993866865" width="23.5" height="119.40322006133135" fill="green" data-tooltip="2.29x baseline speed (YJIT)"/>
<line x1="332.0" y1="377.738907228437" x2="355.50000000000006" y2="377.738907228437" stroke="#000"/>
<line x1="332.0" y1="379.45465264890026" x2="355.50000000000006" y2="379.45465264890026" stroke="#000"/>
<line x1="343.75" y1="377.738907228437" x2="343.75" y2="379.45465264890026" stroke="#000"/>
<line x1="332.0" y1="498.0" x2="332.0" y2="502.79999999999995" stroke="#000"/>
<text x="332.0" y="512.4" fill="#111" font-size="small" font-family="monospace" font-weight="bold" text-anchor="end" transform="rotate(-60, 332.0, 512.4)">
cfunc_itself
</text>
<rect x="379.0" y="445.8727901584082" width="23.5" height="52.12720984159172" fill="#7070f8" data-tooltip="1.00x baseline speed (No JIT)"/>
<line x1="379.0" y1="445.83051543093944" x2="402.5" y2="445.83051543093944" stroke="#000"/>
<line x1="379.0" y1="445.9150648858769" x2="402.5" y2="445.9150648858769" stroke="#000"/>
<line x1="390.75" y1="445.83051543093944" x2="390.75" y2="445.9150648858769" stroke="#000"/>
<rect x="402.5" y="348.6300471020883" width="23.5" height="149.36995289791165" fill="orange" data-tooltip="2.87x baseline speed (MJIT)"/>
<line x1="402.5" y1="347.6576693330038" x2="426.00000000000006" y2="347.6576693330038" stroke="#000"/>
<line x1="402.5" y1="349.60242487117284" x2="426.00000000000006" y2="349.60242487117284" stroke="#000"/>
<line x1="414.25" y1="347.6576693330038" x2="414.25" y2="349.60242487117284" stroke="#000"/>
<rect x="426.0" y="293.3872879726822" width="23.5" height="204.61271202731774" fill="green" data-tooltip="3.93x baseline speed (YJIT)"/>
<line x1="426.0" y1="293.20226834872665" x2="449.5" y2="293.20226834872665" stroke="#000"/>
<line x1="426.0" y1="293.57230759663776" x2="449.5" y2="293.57230759663776" stroke="#000"/>
<line x1="437.75" y1="293.20226834872665" x2="437.75" y2="293.57230759663776" stroke="#000"/>
<line x1="426.0" y1="498.0" x2="426.0" y2="502.79999999999995" stroke="#000"/>
<text x="426.0" y="512.4" fill="#111" font-size="small" font-family="monospace" font-weight="bold" text-anchor="end" transform="rotate(-60, 426.0, 512.4)">
fib
</text>
<rect x="473.0" y="445.8727901584082" width="23.5" height="52.12720984159172" fill="#7070f8" data-tooltip="1.00x baseline speed (No JIT)"/>
<line x1="473.0" y1="445.56253853688463" x2="496.5" y2="445.56253853688463" stroke="#000"/>
<line x1="473.0" y1="446.18304177993167" x2="496.5" y2="446.18304177993167" stroke="#000"/>
<line x1="484.74999999999994" y1="445.56253853688463" x2="484.74999999999994" y2="446.18304177993167" stroke="#000"/>
<rect x="496.5" y="324.57658673797573" width="23.5" height="173.42341326202424" fill="orange" data-tooltip="3.33x baseline speed (MJIT)"/>
<line x1="496.5" y1="229.81848433983197" x2="520.0" y2="229.81848433983197" stroke="#000"/>
<line x1="496.5" y1="419.3346891361195" x2="520.0" y2="419.3346891361195" stroke="#000"/>
<line x1="508.25" y1="229.81848433983197" x2="508.25" y2="419.3346891361195" stroke="#000"/>
<rect x="520.0" y="370.5356785020061" width="23.5" height="127.46432149799381" fill="green" data-tooltip="2.45x baseline speed (YJIT)"/>
<line x1="520.0" y1="369.77025369179705" x2="543.5" y2="369.77025369179705" stroke="#000"/>
<line x1="520.0" y1="371.3011033122151" x2="543.5" y2="371.3011033122151" stroke="#000"/>
<line x1="531.75" y1="369.77025369179705" x2="531.75" y2="371.3011033122151" stroke="#000"/>
<line x1="520.0" y1="498.0" x2="520.0" y2="502.79999999999995" stroke="#000"/>
<text x="520.0" y="512.4" fill="#111" font-size="small" font-family="monospace" font-weight="bold" text-anchor="end" transform="rotate(-60, 520.0, 512.4)">
getivar
</text>
<rect x="567.0" y="445.8727901584082" width="23.5" height="52.12720984159172" fill="#7070f8" data-tooltip="1.00x baseline speed (No JIT)"/>
<line x1="567.0" y1="445.81484856795413" x2="590.4999999999999" y2="445.81484856795413" stroke="#000"/>
<line x1="567.0" y1="445.93073174886223" x2="590.4999999999999" y2="445.93073174886223" stroke="#000"/>
<line x1="578.75" y1="445.81484856795413" x2="578.75" y2="445.93073174886223" stroke="#000"/>
<rect x="590.4999999999999" y="433.4961200397766" width="23.5" height="64.50387996022337" fill="orange" data-tooltip="1.24x baseline speed (MJIT)"/>
<line x1="590.4999999999999" y1="433.1275240786892" x2="613.9999999999999" y2="433.1275240786892" stroke="#000"/>
<line x1="590.4999999999999" y1="433.86471600086395" x2="613.9999999999999" y2="433.86471600086395" stroke="#000"/>
<line x1="602.25" y1="433.1275240786892" x2="602.25" y2="433.86471600086395" stroke="#000"/>
<rect x="614.0" y="231.27210859879773" width="23.5" height="266.7278914012022" fill="green" data-tooltip="5.12x baseline speed (YJIT)"/>
<line x1="614.0" y1="230.62437361017" x2="637.5" y2="230.62437361017" stroke="#000"/>
<line x1="614.0" y1="231.91984358742548" x2="637.5" y2="231.91984358742548" stroke="#000"/>
<line x1="625.75" y1="230.62437361017" x2="625.75" y2="231.91984358742548" stroke="#000"/>
<line x1="614.0" y1="498.0" x2="614.0" y2="502.79999999999995" stroke="#000"/>
<text x="614.0" y="512.4" fill="#111" font-size="small" font-family="monospace" font-weight="bold" text-anchor="end" transform="rotate(-60, 614.0, 512.4)">
keyword_args
</text>
<rect x="661.0" y="445.8727901584082" width="23.5" height="52.12720984159172" fill="#7070f8" data-tooltip="1.00x baseline speed (No JIT)"/>
<line x1="661.0" y1="445.80413353859825" x2="684.5" y2="445.80413353859825" stroke="#000"/>
<line x1="661.0" y1="445.94144677821805" x2="684.5" y2="445.94144677821805" stroke="#000"/>
<line x1="672.7500000000001" y1="445.80413353859825" x2="672.7500000000001" y2="445.94144677821805" stroke="#000"/>
<rect x="684.5" y="436.60133234832915" width="23.5" height="61.39866765167083" fill="orange" data-tooltip="1.18x baseline speed (MJIT)"/>
<line x1="684.5" y1="435.3832936093995" x2="708.0" y2="435.3832936093995" stroke="#000"/>
<line x1="684.5" y1="437.8193710872588" x2="708.0" y2="437.8193710872588" stroke="#000"/>
<line x1="696.25" y1="435.3832936093995" x2="696.25" y2="437.8193710872588" stroke="#000"/>
<rect x="708.0000000000001" y="422.30936702778126" width="23.5" height="75.69063297221865" fill="green" data-tooltip="1.45x baseline speed (YJIT)"/>
<line x1="708.0000000000001" y1="422.03006444834523" x2="731.5" y2="422.03006444834523" stroke="#000"/>
<line x1="708.0000000000001" y1="422.58866960721735" x2="731.5" y2="422.58866960721735" stroke="#000"/>
<line x1="719.7500000000001" y1="422.03006444834523" x2="719.7500000000001" y2="422.58866960721735" stroke="#000"/>
<line x1="708.0000000000001" y1="498.0" x2="708.0000000000001" y2="502.79999999999995" stroke="#000"/>
<text x="708.0000000000001" y="512.4" fill="#111" font-size="small" font-family="monospace" font-weight="bold" text-anchor="end" transform="rotate(-60, 708.0000000000001, 512.4)">
respond_to
</text>
<rect x="755.0" y="445.8727901584082" width="23.5" height="52.12720984159172" fill="#7070f8" data-tooltip="1.00x baseline speed (No JIT)"/>
<line x1="755.0" y1="445.8152047983774" x2="778.5" y2="445.8152047983774" stroke="#000"/>
<line x1="755.0" y1="445.93037551843895" x2="778.5" y2="445.93037551843895" stroke="#000"/>
<line x1="766.75" y1="445.8152047983774" x2="766.75" y2="445.93037551843895" stroke="#000"/>
<rect x="778.5" y="288.9145144501315" width="23.5" height="209.08548554986842" fill="orange" data-tooltip="4.01x baseline speed (MJIT)"/>
<line x1="778.5" y1="160.32119737125421" x2="801.9999999999999" y2="160.32119737125421" stroke="#000"/>
<line x1="778.5" y1="417.5078315290088" x2="801.9999999999999" y2="417.5078315290088" stroke="#000"/>
<line x1="790.25" y1="160.32119737125421" x2="790.25" y2="417.5078315290088" stroke="#000"/>
<rect x="802.0" y="412.2031440606063" width="23.5" height="85.7968559393936" fill="green" data-tooltip="1.65x baseline speed (YJIT)"/>
<line x1="802.0" y1="412.06625447012607" x2="825.5" y2="412.06625447012607" stroke="#000"/>
<line x1="802.0" y1="412.3400336510865" x2="825.5" y2="412.3400336510865" stroke="#000"/>
<line x1="813.7500000000001" y1="412.06625447012607" x2="813.7500000000001" y2="412.3400336510865" stroke="#000"/>
<line x1="802.0" y1="498.0" x2="802.0" y2="502.79999999999995" stroke="#000"/>
<text x="802.0" y="512.4" fill="#111" font-size="small" font-family="monospace" font-weight="bold" text-anchor="end" transform="rotate(-60, 802.0, 512.4)">
setivar
</text>
<rect x="849.0" y="445.8727901584082" width="23.5" height="52.12720984159172" fill="#7070f8" data-tooltip="1.00x baseline speed (No JIT)"/>
<line x1="849.0" y1="445.3277177474186" x2="872.4999999999999" y2="445.3277177474186" stroke="#000"/>
<line x1="849.0" y1="446.41786256939776" x2="872.4999999999999" y2="446.41786256939776" stroke="#000"/>
<line x1="860.75" y1="445.3277177474186" x2="860.75" y2="446.41786256939776" stroke="#000"/>
<rect x="872.4999999999999" y="420.4438578291072" width="23.5" height="77.55614217089277" fill="orange" data-tooltip="1.49x baseline speed (MJIT)"/>
<line x1="872.4999999999999" y1="413.013832759071" x2="895.9999999999999" y2="413.013832759071" stroke="#000"/>
<line x1="872.4999999999999" y1="427.8738828991433" x2="895.9999999999999" y2="427.8738828991433" stroke="#000"/>
<line x1="884.25" y1="413.013832759071" x2="884.25" y2="427.8738828991433" stroke="#000"/>
<rect x="896.0" y="403.91959582750843" width="23.5" height="94.08040417249151" fill="green" data-tooltip="1.80x baseline speed (YJIT)"/>
<line x1="896.0" y1="402.35245145647394" x2="919.5" y2="402.35245145647394" stroke="#000"/>
<line x1="896.0" y1="405.48674019854286" x2="919.5" y2="405.48674019854286" stroke="#000"/>
<line x1="907.75" y1="402.35245145647394" x2="907.75" y2="405.48674019854286" stroke="#000"/>
<line x1="896.0" y1="498.0" x2="896.0" y2="502.79999999999995" stroke="#000"/>
<text x="896.0" y="512.4" fill="#111" font-size="small" font-family="monospace" font-weight="bold" text-anchor="end" transform="rotate(-60, 896.0, 512.4)">
str_concat
</text>
</svg>