<svg viewBox="0 0 1000 600" xmlns="http://www.w3.org/2000/svg" xmlns:xlink="http://www.w3.org/1999/xlink" width="100%" height="100%">

<rect x="50.0" y="30.0" width="940.0" height="467.99999999999994" stroke="#000" fill="#EEE"/>
<line x1="42.0" y1="497.9999999999999" x2="50.0" y2="497.9999999999999" stroke="#000"/>
<text x="26.000000000000004" y="497.9999999999999" text-anchor="end" font-weight="bold" font-size="small" fill="#111">
0.0
</text>
<line x1="42.0" y1="442.49294253279163" x2="50.0" y2="442.49294253279163" stroke="#000"/>
<text x="26.000000000000004" y="442.49294253279163" text-anchor="end" font-weight="bold" font-size="small" fill="#111">
1.0
</text>
<line x1="42.0" y1="386.9858850655834" x2="50.0" y2="386.9858850655834" stroke="#000"/>
<text x="26.000000000000004" y="386.9858850655834" text-anchor="end" font-weight="bold" font-size="small" fill="#111">
2.0
</text>
<line x1="42.0" y1="331.4788275983751" x2="50.0" y2="331.4788275983751" stroke="#000"/>
<text x="26.000000000000004" y="331.4788275983751" text-anchor="end" font-weight="bold" font-size="small" fill="#111">
3.0
</text>
<line x1="42.0" y1="275.9717701311669" x2="50.0" y2="275.9717701311669" stroke="#000"/>
<text x="26.000000000000004" y="275.9717701311669" text-anchor="end" font-weight="bold" font-size="small" fill="#111">
4.0
</text>
<line x1="42.0" y1="220.4647126639586" x2="50.0" y2="220.4647126639586" stroke="#000"/>
<text x="26.000000000000004" y="220.4647126639586" text-anchor="end" font-weight="bold" font-size="small" fill="#111">
5.0
</text>
<line x1="42.0" y1="164.95765519675038" x2="50.0" y2="164.95765519675038" stroke="#000"/>
<text x="26.000000000000004" y="164.95765519675038" text-anchor="end" font-weight="bold" font-size="small" fill="#111">
6.0
</text>
<line x1="42.0" y1="109.4505977295421" x2="50.0" y2="109.4505977295421" stroke="#000"/>
<text x="26.000000000000004" y="109.4505977295421" text-anchor="end" font-weight="bold" font-size="small" fill="#111">
7.0
</text>
<rect x="197.99999999999997" y="36.00000000000001" width="80.0" height="18.0" fill="#7070f8" stroke="#888"/>
<text x="238.0" y="52.50000000000001" font-size="small" text-anchor="middle" font-weight="bold" fill="#EEE">
No JIT
</text>
<rect x="479.99999999999994" y="36.00000000000001" width="80.0" height="18.0" fill="orange" stroke="#888"/>
<text x="519.9999999999999" y="52.50000000000001" font-size="small" text-anchor="middle" font-weight="bold" fill="#EEE">
MJIT
</text>
<rect x="761.9999999999999" y="36.00000000000001" width="80.0" height="18.0" fill="green" stroke="#888"/>
<text x="801.9999999999999" y="52.50000000000001" font-size="small" text-anchor="middle" font-weight="bold" fill="#EEE">
YJIT
</text>
<rect x="97.0" y="442.49294253279163" width="8.46" height="55.50705746720826" fill="#7070f8" data-tooltip="1.00x baseline speed (No JIT)"/>
<line x1="97.0" y1="442.2870235382852" x2="105.46" y2="442.2870235382852" stroke="#000"/>
<line x1="97.0" y1="442.6988615272981" x2="105.46" y2="442.6988615272981" stroke="#000"/>
<line x1="101.23" y1="442.2870235382852" x2="101.23" y2="442.6988615272981" stroke="#000"/>
<rect x="105.46" y="449.0244598509247" width="8.46" height="48.97554014907529" fill="orange" data-tooltip="0.88x baseline speed (MJIT)"/>
<line x1="105.46" y1="447.3815260303552" x2="113.91999999999999" y2="447.3815260303552" stroke="#000"/>
<line x1="105.46" y1="450.66739367149415" x2="113.91999999999999" y2="450.66739367149415" stroke="#000"/>
<line x1="109.69" y1="447.3815260303552" x2="109.69" y2="450.66739367149415" stroke="#000"/>
<rect x="113.92" y="415.5328099438508" width="8.46" height="82.46719005614912" fill="green" data-tooltip="1.49x baseline speed (YJIT)"/>
<line x1="113.92" y1="414.9940228604418" x2="122.38000000000001" y2="414.9940228604418" stroke="#000"/>
<line x1="113.92" y1="416.07159702725977" x2="122.38000000000001" y2="416.07159702725977" stroke="#000"/>
<line x1="118.15" y1="414.9940228604418" x2="118.15" y2="416.07159702725977" stroke="#000"/>
<line x1="113.92" y1="498.0" x2="113.92" y2="502.79999999999995" stroke="#000"/>
<text x="113.92" y="512.4" fill="#111" font-size="small" font-family="monospace" font-weight="bold" text-anchor="end" transform="rotate(-60, 113.92, 512.4)">
activerecord
</text>
<rect x="130.84" y="442.49294253279163" width="8.46" height="55.50705746720826" fill="#7070f8" data-tooltip="1.00x baseline speed (No JIT)"/>
<line x1="130.84" y1="441.8772244408641" x2="139.3" y2="441.8772244408641" stroke="#000"/>
<line x1="130.84" y1="443.1086606247192" x2="139.3" y2="443.1086606247192" stroke="#000"/>
<line x1="135.07000000000002" y1="441.8772244408641" x2="135.07000000000002" y2="443.1086606247192" stroke="#000"/>
<rect x="147.76" y="422.0023624528579" width="8.46" height="75.99763754714203" fill="green" data-tooltip="1.37x baseline speed (YJIT)"/>
<line x1="147.76" y1="420.2929315479001" x2="156.22" y2="420.2929315479001" stroke="#000"/>
<line x1="147.76" y1="423.7117933578157" x2="156.22" y2="423.7117933578157" stroke="#000"/>
<line x1="151.99" y1="420.2929315479001" x2="151.99" y2="423.7117933578157" stroke="#000"/>
<line x1="147.76" y1="498.0" x2="147.76" y2="502.79999999999995" stroke="#000"/>
<text x="147.76" y="512.4" fill="#111" font-size="small" font-family="monospace" font-weight="bold" text-anchor="end" transform="rotate(-60, 147.76, 512.4)">
hexapdf
</text>
<rect x="164.68" y="442.49294253279163" width="8.46" height="55.50705746720826" fill="#7070f8" data-tooltip="1.00x baseline speed (No JIT)"/>
<line x1="164.68" y1="441.8144273282202" x2="173.14" y2="441.8144273282202" stroke="#000"/>
<line x1="164.68" y1="443.1714577373631" x2="173.14" y2="443.1714577373631" stroke="#000"/>
<line x1="168.91" y1="441.8144273282202" x2="168.91" y2="443.1714577373631" stroke="#000"/>
<rect x="173.14" y="439.2222795689063" width="8.46" height="58.77772043109373" fill="orange" data-tooltip="1.06x baseline speed (MJIT)"/>
<line x1="173.14" y1="437.98369687927385" x2="181.6" y2="437.98369687927385" stroke="#000"/>
<line x1="173.14" y1="440.4608622585388" x2="181.6" y2="440.4608622585388" stroke="#000"/>
<line x1="177.37" y1="437.98369687927385" x2="177.37" y2="440.4608622585388" stroke="#000"/>
<rect x="181.6" y="412.5122314217654" width="8.46" height="85.48776857823455" fill="green" data-tooltip="1.54x baseline speed (YJIT)"/>
<line x1="181.6" y1="410.36628246458093" x2="190.05999999999997" y2="410.36628246458093" stroke="#000"/>
<line x1="181.6" y1="414.6581803789499" x2="190.05999999999997" y2="414.6581803789499" stroke="#000"/>
<line x1="185.82999999999998" y1="410.36628246458093" x2="185.82999999999998" y2="414.6581803789499" stroke="#000"/>
<line x1="181.6" y1="498.0" x2="181.6" y2="502.79999999999995" stroke="#000"/>
<text x="181.6" y="512.4" fill="#111" font-size="small" font-family="monospace" font-weight="bold" text-anchor="end" transform="rotate(-60, 181.6, 512.4)">
liquid-render
</text>
<rect x="198.52" y="442.49294253279163" width="8.46" height="55.50705746720826" fill="#7070f8" data-tooltip="1.00x baseline speed (No JIT)"/>
<line x1="198.52" y1="442.4089978885215" x2="206.98" y2="442.4089978885215" stroke="#000"/>
<line x1="198.52" y1="442.5768871770618" x2="206.98" y2="442.5768871770618" stroke="#000"/>
<line x1="202.75" y1="442.4089978885215" x2="202.75" y2="442.5768871770618" stroke="#000"/>
<rect x="206.98" y="442.14869718634503" width="8.46" height="55.85130281365484" fill="orange" data-tooltip="1.01x baseline speed (MJIT)"/>
<line x1="206.98" y1="441.2867662452246" x2="215.44" y2="441.2867662452246" stroke="#000"/>
<line x1="206.98" y1="443.01062812746545" x2="215.44" y2="443.01062812746545" stroke="#000"/>
<line x1="211.21" y1="441.2867662452246" x2="211.21" y2="443.01062812746545" stroke="#000"/>
<rect x="215.44" y="435.41132454918267" width="8.46" height="62.58867545081729" fill="green" data-tooltip="1.13x baseline speed (YJIT)"/>
<line x1="215.44" y1="435.1549042297344" x2="223.89999999999998" y2="435.1549042297344" stroke="#000"/>
<line x1="215.44" y1="435.66774486863096" x2="223.89999999999998" y2="435.66774486863096" stroke="#000"/>
<line x1="219.67000000000002" y1="435.1549042297344" x2="219.67000000000002" y2="435.66774486863096" stroke="#000"/>
<line x1="215.44" y1="498.0" x2="215.44" y2="502.79999999999995" stroke="#000"/>
<text x="215.44" y="512.4" fill="#111" font-size="small" font-family="monospace" font-weight="bold" text-anchor="end" transform="rotate(-60, 215.44, 512.4)">
mail
</text>
<rect x="232.36" y="442.49294253279163" width="8.46" height="55.50705746720826" fill="#7070f8" data-tooltip="1.00x baseline speed (No JIT)"/>
<line x1="232.36" y1="442.4214498021718" x2="240.82" y2="442.4214498021718" stroke="#000"/>
<line x1="232.36" y1="442.5644352634115" x2="240.82" y2="442.5644352634115" stroke="#000"/>
<line x1="236.59000000000003" y1="442.4214498021718" x2="236.59000000000003" y2="442.5644352634115" stroke="#000"/>
<rect x="240.82" y="438.2265176793438" width="8.46" height="59.77348232065609" fill="orange" data-tooltip="1.08x baseline speed (MJIT)"/>
<line x1="240.82" y1="438.1420191881334" x2="249.28" y2="438.1420191881334" stroke="#000"/>
<line x1="240.82" y1="438.3110161705542" x2="249.28" y2="438.3110161705542" stroke="#000"/>
<line x1="245.05" y1="438.1420191881334" x2="245.05" y2="438.3110161705542" stroke="#000"/>
<rect x="249.28" y="428.94785184417384" width="8.46" height="69.05214815582617" fill="green" data-tooltip="1.24x baseline speed (YJIT)"/>
<line x1="249.28" y1="428.85046256294214" x2="257.74" y2="428.85046256294214" stroke="#000"/>
<line x1="249.28" y1="429.04524112540554" x2="257.74" y2="429.04524112540554" stroke="#000"/>
<line x1="253.51000000000002" y1="428.85046256294214" x2="253.51000000000002" y2="429.04524112540554" stroke="#000"/>
<line x1="249.28" y1="498.0" x2="249.28" y2="502.79999999999995" stroke="#000"/>
<text x="249.28" y="512.4" fill="#111" font-size="small" font-family="monospace" font-weight="bold" text-anchor="end" transform="rotate(-60, 249.28, 512.4)">
psych-load
</text>
<rect x="266.2" y="442.49294253279163" width="8.46" height="55.50705746720826" fill="#7070f8" data-tooltip="1.00x baseline speed (No JIT)"/>
<line x1="266.2" y1="442.078331714043" x2="274.66" y2="442.078331714043" stroke="#000"/>
<line x1="266.2" y1="442.90755335154034" x2="274.66" y2="442.90755335154034" stroke="#000"/>
<line x1="270.43" y1="442.078331714043" x2="270.43" y2="442.90755335154034" stroke="#000"/>
<rect x="274.66" y="447.23475603228223" width="8.46" height="50.76524396771768" fill="orange" data-tooltip="0.91x baseline speed (MJIT)"/>
<line x1="274.66" y1="446.4905899321022" x2="283.12000000000006" y2="446.4905899321022" stroke="#000"/>
<line x1="274.66" y1="447.97892213246234" x2="283.12000000000006" y2="447.97892213246234" stroke="#000"/>
<line x1="278.89000000000004" y1="446.4905899321022" x2="278.89000000000004" y2="447.97892213246234" stroke="#000"/>
<rect x="283.12" y="423.0672840049011" width="8.46" height="74.9327159950988" fill="green" data-tooltip="1.35x baseline speed (YJIT)"/>
<line x1="283.12" y1="421.8197416173538" x2="291.58" y2="421.8197416173538" stroke="#000"/>
<line x1="283.12" y1="424.3148263924485" x2="291.58" y2="424.3148263924485" stroke="#000"/>
<line x1="287.35" y1="421.8197416173538" x2="287.35" y2="424.3148263924485" stroke="#000"/>
<line x1="283.12" y1="498.0" x2="283.12" y2="502.79999999999995" stroke="#000"/>
<text x="283.12" y="512.4" fill="#111" font-size="small" font-family="monospace" font-weight="bold" text-anchor="end" transform="rotate(-60, 283.12, 512.4)">
railsbench
</text>
<rect x="300.03999999999996" y="442.49294253279163" width="8.46" height="55.50705746720826" fill="#7070f8" data-tooltip="1.00x baseline speed (No JIT)"/>
<line x1="300.03999999999996" y1="442.45904806210734" x2="308.5" y2="442.45904806210734" stroke="#000"/>
<line x1="300.03999999999996" y1="442.526837003476" x2="308.5" y2="442.526837003476" stroke="#000"/>
<line x1="304.27" y1="442.45904806210734" x2="304.27" y2="442.526837003476" stroke="#000"/>
<rect x="308.5" y="413.55537042490926" width="8.46" height="84.44462957509072" fill="orange" data-tooltip="1.52x baseline speed (MJIT)"/>
<line x1="308.5" y1="413.2897670866191" x2="316.96000000000004" y2="413.2897670866191" stroke="#000"/>
<line x1="308.5" y1="413.8209737631994" x2="316.96000000000004" y2="413.8209737631994" stroke="#000"/>
<line x1="312.73" y1="413.2897670866191" x2="312.73" y2="413.8209737631994" stroke="#000"/>
<rect x="316.96" y="425.37091521526247" width="8.46" height="72.62908478473742" fill="green" data-tooltip="1.31x baseline speed (YJIT)"/>
<line x1="316.96" y1="425.24363694769994" x2="325.41999999999996" y2="425.24363694769994" stroke="#000"/>
<line x1="316.96" y1="425.49819348282506" x2="325.41999999999996" y2="425.49819348282506" stroke="#000"/>
<line x1="321.19" y1="425.24363694769994" x2="321.19" y2="425.49819348282506" stroke="#000"/>
<line x1="316.96" y1="498.0" x2="316.96" y2="502.79999999999995" stroke="#000"/>
<text x="316.96" y="512.4" fill="#111" font-size="small" font-family="monospace" font-weight="bold" text-anchor="end" transform="rotate(-60, 316.96, 512.4)">
binarytrees
</text>
<rect x="333.88" y="442.49294253279163" width="8.46" height="55.50705746720826" fill="#7070f8" data-tooltip="1.00x baseline speed (No JIT)"/>
<line x1="333.88" y1="442.4628550588322" x2="342.34000000000003" y2="442.4628550588322" stroke="#000"/>
<line x1="333.88" y1="442.5230300067511" x2="342.34000000000003" y2="442.5230300067511" stroke="#000"/>
<line x1="338.11" y1="442.4628550588322" x2="338.11" y2="442.5230300067511" stroke="#000"/>
<rect x="342.34000000000003" y="430.8366254015481" width="8.46" height="67.1633745984518" fill="orange" data-tooltip="1.21x baseline speed (MJIT)"/>
<line x1="342.34000000000003" y1="430.6420432194473" x2="350.80000000000007" y2="430.6420432194473" stroke="#000"/>
<line x1="342.34000000000003" y1="431.0312075836489" x2="350.80000000000007" y2="431.0312075836489" stroke="#000"/>
<line x1="346.57000000000005" y1="430.6420432194473" x2="346.57000000000005" y2="431.0312075836489" stroke="#000"/>
<rect x="350.8" y="416.511377289529" width="8.46" height="81.48862271047089" fill="green" data-tooltip="1.47x baseline speed (YJIT)"/>
<line x1="350.8" y1="416.4031502522432" x2="359.26000000000005" y2="416.4031502522432" stroke="#000"/>
<line x1="350.8" y1="416.61960432681474" x2="359.26000000000005" y2="416.61960432681474" stroke="#000"/>
<line x1="355.03000000000003" y1="416.4031502522432" x2="355.03000000000003" y2="416.61960432681474" stroke="#000"/>
<line x1="350.8" y1="498.0" x2="350.8" y2="502.79999999999995" stroke="#000"/>
<text x="350.8" y="512.4" fill="#111" font-size="small" font-family="monospace" font-weight="bold" text-anchor="end" transform="rotate(-60, 350.8, 512.4)">
chunky_png
</text>
<rect x="367.72" y="442.49294253279163" width="8.46" height="55.50705746720826" fill="#7070f8" data-tooltip="1.00x baseline speed (No JIT)"/>
<line x1="367.72" y1="441.71489749661185" x2="376.18000000000006" y2="441.71489749661185" stroke="#000"/>
<line x1="367.72" y1="443.27098756897146" x2="376.18000000000006" y2="443.27098756897146" stroke="#000"/>
<line x1="371.95000000000005" y1="441.71489749661185" x2="371.95000000000005" y2="443.27098756897146" stroke="#000"/>
<rect x="376.18000000000006" y="446.6323187658496" width="8.46" height="51.36768123415028" fill="orange" data-tooltip="0.93x baseline speed (MJIT)"/>
<line x1="376.18000000000006" y1="445.1400972722916" x2="384.6400000000001" y2="445.1400972722916" stroke="#000"/>
<line x1="376.18000000000006" y1="448.12454025940764" x2="384.6400000000001" y2="448.12454025940764" stroke="#000"/>
<line x1="380.4100000000001" y1="445.1400972722916" x2="380.4100000000001" y2="448.12454025940764" stroke="#000"/>
<rect x="384.64000000000004" y="434.88158660902917" width="8.46" height="63.118413390970716" fill="green" data-tooltip="1.14x baseline speed (YJIT)"/>
<line x1="384.64000000000004" y1="433.3234393268902" x2="393.1000000000001" y2="433.3234393268902" stroke="#000"/>
<line x1="384.64000000000004" y1="436.43973389116815" x2="393.1000000000001" y2="436.43973389116815" stroke="#000"/>
<line x1="388.87000000000006" y1="433.3234393268902" x2="388.87000000000006" y2="436.43973389116815" stroke="#000"/>
<line x1="384.64000000000004" y1="498.0" x2="384.64000000000004" y2="502.79999999999995" stroke="#000"/>
<text x="384.64000000000004" y="512.4" fill="#111" font-size="small" font-family="monospace" font-weight="bold" text-anchor="end" transform="rotate(-60, 384.64000000000004, 512.4)">
discourse
</text>
<rect x="401.56" y="442.49294253279163" width="8.46" height="55.50705746720826" fill="#7070f8" data-tooltip="1.00x baseline speed (No JIT)"/>
<line x1="401.56" y1="442.21037621712674" x2="410.02000000000004" y2="442.21037621712674" stroke="#000"/>
<line x1="401.56" y1="442.7755088484566" x2="410.02000000000004" y2="442.7755088484566" stroke="#000"/>
<line x1="405.79" y1="442.21037621712674" x2="405.79" y2="442.7755088484566" stroke="#000"/>
<rect x="410.02000000000004" y="437.85268684889627" width="8.46" height="60.147313151103674" fill="orange" data-tooltip="1.08x baseline speed (MJIT)"/>
<line x1="410.02000000000004" y1="437.33564091166403" x2="418.4800000000001" y2="437.33564091166403" stroke="#000"/>
<line x1="410.02000000000004" y1="438.36973278612845" x2="418.4800000000001" y2="438.36973278612845" stroke="#000"/>
<line x1="414.25000000000006" y1="437.33564091166403" x2="414.25000000000006" y2="438.36973278612845" stroke="#000"/>
<rect x="418.48" y="432.64369228288643" width="8.46" height="65.35630771711358" fill="green" data-tooltip="1.18x baseline speed (YJIT)"/>
<line x1="418.48" y1="432.05835968438555" x2="426.94000000000005" y2="432.05835968438555" stroke="#000"/>
<line x1="418.48" y1="433.22902488138726" x2="426.94000000000005" y2="433.22902488138726" stroke="#000"/>
<line x1="422.71000000000004" y1="432.05835968438555" x2="422.71000000000004" y2="433.22902488138726" stroke="#000"/>
<line x1="418.48" y1="498.0" x2="418.48" y2="502.79999999999995" stroke="#000"/>
<text x="418.48" y="512.4" fill="#111" font-size="small" font-family="monospace" font-weight="bold" text-anchor="end" transform="rotate(-60, 418.48, 512.4)">
erubi
</text>
<rect x="435.40000000000003" y="442.49294253279163" width="8.46" height="55.50705746720826" fill="#7070f8" data-tooltip="1.00x baseline speed (No JIT)"/>
<line x1="435.40000000000003" y1="441.0653762514739" x2="443.86" y2="441.0653762514739" stroke="#000"/>
<line x1="435.40000000000003" y1="443.92050881410944" x2="443.86" y2="443.92050881410944" stroke="#000"/>
<line x1="439.63" y1="441.0653762514739" x2="439.63" y2="443.92050881410944" stroke="#000"/>
<rect x="443.86" y="445.68371122519335" width="8.46" height="52.31628877480654" fill="orange" data-tooltip="0.94x baseline speed (MJIT)"/>
<line x1="443.86" y1="443.22052520812616" x2="452.32000000000005" y2="443.22052520812616" stroke="#000"/>
<line x1="443.86" y1="448.1468972422606" x2="452.32000000000005" y2="448.1468972422606" stroke="#000"/>
<line x1="448.09000000000003" y1="443.22052520812616" x2="448.09000000000003" y2="448.1468972422606" stroke="#000"/>
<rect x="452.32" y="419.4308100884528" width="8.46" height="78.56918991154706" fill="green" data-tooltip="1.42x baseline speed (YJIT)"/>
<line x1="452.32" y1="415.8661870577955" x2="460.78000000000003" y2="415.8661870577955" stroke="#000"/>
<line x1="452.32" y1="422.99543311911015" x2="460.78000000000003" y2="422.99543311911015" stroke="#000"/>
<line x1="456.55" y1="415.8661870577955" x2="456.55" y2="422.99543311911015" stroke="#000"/>
<line x1="452.32" y1="498.0" x2="452.32" y2="502.79999999999995" stroke="#000"/>
<text x="452.32" y="512.4" fill="#111" font-size="small" font-family="monospace" font-weight="bold" text-anchor="end" transform="rotate(-60, 452.32, 512.4)">
erubi_rails
</text>
<rect x="469.24" y="442.49294253279163" width="8.46" height="55.50705746720826" fill="#7070f8" data-tooltip="1.00x baseline speed (No JIT)"/>
<line x1="469.24" y1="442.3967251607141" x2="477.7" y2="442.3967251607141" stroke="#000"/>
<line x1="469.24" y1="442.58915990486923" x2="477.7" y2="442.58915990486923" stroke="#000"/>
<line x1="473.47" y1="442.3967251607141" x2="473.47" y2="442.58915990486923" stroke="#000"/>
<rect x="477.7" y="414.02020394582354" width="8.46" height="83.97979605417645" fill="orange" data-tooltip="1.51x baseline speed (MJIT)"/>
<line x1="477.7" y1="413.76243579326115" x2="486.16" y2="413.76243579326115" stroke="#000"/>
<line x1="477.7" y1="414.27797209838593" x2="486.16" y2="414.27797209838593" stroke="#000"/>
<line x1="481.93" y1="413.76243579326115" x2="481.93" y2="414.27797209838593" stroke="#000"/>
<rect x="486.15999999999997" y="443.7783498584378" width="8.46" height="54.221650141562094" fill="green" data-tooltip="0.98x baseline speed (YJIT)"/>
<line x1="486.15999999999997" y1="443.6494204490071" x2="494.62" y2="443.6494204490071" stroke="#000"/>
<line x1="486.15999999999997" y1="443.90727926786855" x2="494.62" y2="443.90727926786855" stroke="#000"/>
<line x1="490.39" y1="443.6494204490071" x2="490.39" y2="443.90727926786855" stroke="#000"/>
<line x1="486.15999999999997" y1="498.0" x2="486.15999999999997" y2="502.79999999999995" stroke="#000"/>
<text x="486.15999999999997" y="512.4" fill="#111" font-size="small" font-family="monospace" font-weight="bold" text-anchor="end" transform="rotate(-60, 486.15999999999997, 512.4)">
fannkuchredux
</text>
<rect x="503.08" y="442.49294253279163" width="8.46" height="55.50705746720826" fill="#7070f8" data-tooltip="1.00x baseline speed (No JIT)"/>
<line x1="503.08" y1="442.419597977793" x2="511.54" y2="442.419597977793" stroke="#000"/>
<line x1="503.08" y1="442.56628708779033" x2="511.54" y2="442.56628708779033" stroke="#000"/>
<line x1="507.30999999999995" y1="442.419597977793" x2="507.30999999999995" y2="442.56628708779033" stroke="#000"/>
<rect x="511.54" y="433.49841902733385" width="8.46" height="64.50158097266613" fill="orange" data-tooltip="1.16x baseline speed (MJIT)"/>
<line x1="511.54" y1="431.72207208683784" x2="520.0" y2="431.72207208683784" stroke="#000"/>
<line x1="511.54" y1="435.2747659678298" x2="520.0" y2="435.2747659678298" stroke="#000"/>
<line x1="515.77" y1="431.72207208683784" x2="515.77" y2="435.2747659678298" stroke="#000"/>
<rect x="520.0" y="423.82146525537365" width="8.46" height="74.17853474462625" fill="green" data-tooltip="1.34x baseline speed (YJIT)"/>
<line x1="520.0" y1="423.71401678176085" x2="528.46" y2="423.71401678176085" stroke="#000"/>
<line x1="520.0" y1="423.92891372898646" x2="528.46" y2="423.92891372898646" stroke="#000"/>
<line x1="524.23" y1="423.71401678176085" x2="524.23" y2="423.92891372898646" stroke="#000"/>
<line x1="520.0" y1="498.0" x2="520.0" y2="502.79999999999995" stroke="#000"/>
<text x="520.0" y="512.4" fill="#111" font-size="small" font-family="monospace" font-weight="bold" text-anchor="end" transform="rotate(-60, 520.0, 512.4)">
lee
</text>
<rect x="536.9200000000001" y="442.49294253279163" width="8.46" height="55.50705746720826" fill="#7070f8" data-tooltip="1.00x baseline speed (No JIT)"/>
<line x1="536.9200000000001" y1="442.46561704613447" x2="545.3800000000001" y2="442.46561704613447" stroke="#000"/>
<line x1="536.9200000000001" y1="442.52026801944885" x2="545.3800000000001" y2="442.52026801944885" stroke="#000"/>
<line x1="541.15" y1="442.46561704613447" x2="541.15" y2="442.52026801944885" stroke="#000"/>
<rect x="545.3800000000001" y="407.06459809209287" width="8.46" height="90.93540190790705" fill="orange" data-tooltip="1.64x baseline speed (MJIT)"/>
<line x1="545.3800000000001" y1="406.9423128648093" x2="553.8400000000001" y2="406.9423128648093" stroke="#000"/>
<line x1="545.3800000000001" y1="407.1868833193765" x2="553.8400000000001" y2="407.1868833193765" stroke="#000"/>
<line x1="549.61" y1="406.9423128648093" x2="549.61" y2="407.1868833193765" stroke="#000"/>
<rect x="553.8400000000001" y="425.1934021676825" width="8.46" height="72.80659783231745" fill="green" data-tooltip="1.31x baseline speed (YJIT)"/>
<line x1="553.8400000000001" y1="424.83706327750724" x2="562.3000000000002" y2="424.83706327750724" stroke="#000"/>
<line x1="553.8400000000001" y1="425.5497410578578" x2="562.3000000000002" y2="425.5497410578578" stroke="#000"/>
<line x1="558.07" y1="424.83706327750724" x2="558.07" y2="425.5497410578578" stroke="#000"/>
<line x1="553.8400000000001" y1="498.0" x2="553.8400000000001" y2="502.79999999999995" stroke="#000"/>
<text x="553.8400000000001" y="512.4" fill="#111" font-size="small" font-family="monospace" font-weight="bold" text-anchor="end" transform="rotate(-60, 553.8400000000001, 512.4)">
nbody
</text>
<rect x="570.76" y="442.49294253279163" width="8.46" height="55.50705746720826" fill="#7070f8" data-tooltip="1.00x baseline speed (No JIT)"/>
<line x1="570.76" y1="442.2624917058202" x2="579.22" y2="442.2624917058202" stroke="#000"/>
<line x1="570.76" y1="442.7233933597631" x2="579.22" y2="442.7233933597631" stroke="#000"/>
<line x1="574.99" y1="442.2624917058202" x2="574.99" y2="442.7233933597631" stroke="#000"/>
<rect x="579.22" y="362.6632481914506" width="8.46" height="135.33675180854937" fill="orange" data-tooltip="2.44x baseline speed (MJIT)"/>
<line x1="579.22" y1="361.66814166663596" x2="587.6800000000001" y2="361.66814166663596" stroke="#000"/>
<line x1="579.22" y1="363.6583547162652" x2="587.6800000000001" y2="363.6583547162652" stroke="#000"/>
<line x1="583.45" y1="361.66814166663596" x2="583.45" y2="363.6583547162652" stroke="#000"/>
<rect x="587.6800000000001" y="396.7667284408641" width="8.46" height="101.23327155913583" fill="green" data-tooltip="1.82x baseline speed (YJIT)"/>
<line x1="587.6800000000001" y1="396.0261198116527" x2="596.1400000000001" y2="396.0261198116527" stroke="#000"/>
<line x1="587.6800000000001" y1="397.5073370700755" x2="596.1400000000001" y2="397.5073370700755" stroke="#000"/>
<line x1="591.9100000000001" y1="396.0261198116527" x2="591.9100000000001" y2="397.5073370700755" stroke="#000"/>
<line x1="587.6800000000001" y1="498.0" x2="587.6800000000001" y2="502.79999999999995" stroke="#000"/>
<text x="587.6800000000001" y="512.4" fill="#111" font-size="small" font-family="monospace" font-weight="bold" text-anchor="end" transform="rotate(-60, 587.6800000000001, 512.4)">
optcarrot
</text>
<rect x="604.6" y="442.49294253279163" width="8.46" height="55.50705746720826" fill="#7070f8" data-tooltip="1.00x baseline speed (No JIT)"/>
<line x1="604.6" y1="441.15905266016927" x2="613.0600000000001" y2="441.15905266016927" stroke="#000"/>
<line x1="604.6" y1="443.82683240541405" x2="613.0600000000001" y2="443.82683240541405" stroke="#000"/>
<line x1="608.8299999999999" y1="441.15905266016927" x2="608.8299999999999" y2="443.82683240541405" stroke="#000"/>
<rect x="613.0600000000001" y="415.0947225026266" width="8.46" height="82.90527749737332" fill="orange" data-tooltip="1.49x baseline speed (MJIT)"/>
<line x1="613.0600000000001" y1="411.39064993079137" x2="621.5200000000001" y2="411.39064993079137" stroke="#000"/>
<line x1="613.0600000000001" y1="418.79879507446185" x2="621.5200000000001" y2="418.79879507446185" stroke="#000"/>
<line x1="617.29" y1="411.39064993079137" x2="617.29" y2="418.79879507446185" stroke="#000"/>
<rect x="621.5200000000001" y="401.49671573068713" width="8.46" height="96.50328426931287" fill="green" data-tooltip="1.74x baseline speed (YJIT)"/>
<line x1="621.5200000000001" y1="397.63214187771916" x2="629.9800000000001" y2="397.63214187771916" stroke="#000"/>
<line x1="621.5200000000001" y1="405.36128958365504" x2="629.9800000000001" y2="405.36128958365504" stroke="#000"/>
<line x1="625.75" y1="397.63214187771916" x2="625.75" y2="405.36128958365504" stroke="#000"/>
<line x1="621.5200000000001" y1="498.0" x2="621.5200000000001" y2="502.79999999999995" stroke="#000"/>
<text x="621.5200000000001" y="512.4" fill="#111" font-size="small" font-family="monospace" font-weight="bold" text-anchor="end" transform="rotate(-60, 621.5200000000001, 512.4)">
rubykon
</text>
<rect x="638.44" y="442.49294253279163" width="8.46" height="55.50705746720826" fill="#7070f8" data-tooltip="1.00x baseline speed (No JIT)"/>
<line x1="638.44" y1="442.48592238474765" x2="646.9" y2="442.48592238474765" stroke="#000"/>
<line x1="638.44" y1="442.49996268083567" x2="646.9" y2="442.49996268083567" stroke="#000"/>
<line x1="642.67" y1="442.48592238474765" x2="642.67" y2="442.49996268083567" stroke="#000"/>
<rect x="646.9" y="459.7485292112165" width="8.46" height="38.25147078878348" fill="orange" data-tooltip="0.69x baseline speed (MJIT)"/>
<line x1="646.9" y1="458.28233797094475" x2="655.36" y2="458.28233797094475" stroke="#000"/>
<line x1="646.9" y1="461.21472045148823" x2="655.36" y2="461.21472045148823" stroke="#000"/>
<line x1="651.13" y1="458.28233797094475" x2="651.13" y2="461.21472045148823" stroke="#000"/>
<rect x="655.36" y="131.36404153152628" width="8.46" height="366.6359584684737" fill="green" data-tooltip="6.61x baseline speed (YJIT)"/>
<line x1="655.36" y1="130.6746472434657" x2="663.82" y2="130.6746472434657" stroke="#000"/>
<line x1="655.36" y1="132.05343581958684" x2="663.82" y2="132.05343581958684" stroke="#000"/>
<line x1="659.59" y1="130.6746472434657" x2="659.59" y2="132.05343581958684" stroke="#000"/>
<line x1="655.36" y1="498.0" x2="655.36" y2="502.79999999999995" stroke="#000"/>
<text x="655.36" y="512.4" fill="#111" font-size="small" font-family="monospace" font-weight="bold" text-anchor="end" transform="rotate(-60, 655.36, 512.4)">
30k_ifelse
</text>
<rect x="672.28" y="442.49294253279163" width="8.46" height="55.50705746720826" fill="#7070f8" data-tooltip="1.00x baseline speed (No JIT)"/>
<line x1="672.28" y1="442.4276522222423" x2="680.74" y2="442.4276522222423" stroke="#000"/>
<line x1="672.28" y1="442.558232843341" x2="680.74" y2="442.558232843341" stroke="#000"/>
<line x1="676.51" y1="442.4276522222423" x2="676.51" y2="442.558232843341" stroke="#000"/>
<rect x="680.74" y="463.4467032780502" width="8.46" height="34.55329672194973" fill="orange" data-tooltip="0.62x baseline speed (MJIT)"/>
<line x1="680.74" y1="458.1593774026574" x2="689.2" y2="458.1593774026574" stroke="#000"/>
<line x1="680.74" y1="468.73402915344303" x2="689.2" y2="468.73402915344303" stroke="#000"/>
<line x1="684.9699999999999" y1="458.1593774026574" x2="684.9699999999999" y2="468.73402915344303" stroke="#000"/>
<rect x="689.2" y="100.19999999999999" width="8.46" height="397.79999999999995" fill="green" data-tooltip="7.17x baseline speed (YJIT)"/>
<line x1="689.2" y1="99.66584755865972" x2="697.6600000000001" y2="99.66584755865972" stroke="#000"/>
<line x1="689.2" y1="100.73415244134026" x2="697.6600000000001" y2="100.73415244134026" stroke="#000"/>
<line x1="693.43" y1="99.66584755865972" x2="693.43" y2="100.73415244134026" stroke="#000"/>
<line x1="689.2" y1="498.0" x2="689.2" y2="502.79999999999995" stroke="#000"/>
<text x="689.2" y="512.4" fill="#111" font-size="small" font-family="monospace" font-weight="bold" text-anchor="end" transform="rotate(-60, 689.2, 512.4)">
30k_methods
</text>
<rect x="706.12" y="442.49294253279163" width="8.46" height="55.50705746720826" fill="#7070f8" data-tooltip="1.00x baseline speed (No JIT)"/>
<line x1="706.12" y1="442.40633827153835" x2="714.58" y2="442.40633827153835" stroke="#000"/>
<line x1="706.12" y1="442.579546794045" x2="714.58" y2="442.579546794045" stroke="#000"/>
<line x1="710.3499999999999" y1="442.40633827153835" x2="710.3499999999999" y2="442.579546794045" stroke="#000"/>
<rect x="714.58" y="416.5813554948342" width="8.46" height="81.4186445051657" fill="orange" data-tooltip="1.47x baseline speed (MJIT)"/>
<line x1="714.58" y1="416.0991977102469" x2="723.04" y2="416.0991977102469" stroke="#000"/>
<line x1="714.58" y1="417.0635132794215" x2="723.04" y2="417.0635132794215" stroke="#000"/>
<line x1="718.81" y1="416.0991977102469" x2="718.81" y2="417.0635132794215" stroke="#000"/>
<rect x="723.04" y="380.74785963512534" width="8.46" height="117.25214036487456" fill="green" data-tooltip="2.11x baseline speed (YJIT)"/>
<line x1="723.04" y1="379.5609918065588" x2="731.5" y2="379.5609918065588" stroke="#000"/>
<line x1="723.04" y1="381.93472746369196" x2="731.5" y2="381.93472746369196" stroke="#000"/>
<line x1="727.27" y1="379.5609918065588" x2="727.27" y2="381.93472746369196" stroke="#000"/>
<line x1="723.04" y1="498.0" x2="723.04" y2="502.79999999999995" stroke="#000"/>
<text x="723.04" y="512.4" fill="#111" font-size="small" font-family="monospace" font-weight="bold" text-anchor="end" transform="rotate(-60, 723.04, 512.4)">
cfunc_itself
</text>
<rect x="739.96" y="442.49294253279163" width="8.46" height="55.50705746720826" fill="#7070f8" data-tooltip="1.00x baseline speed (No JIT)"/>
<line x1="739.96" y1="442.47303354639934" x2="748.4200000000001" y2="442.47303354639934" stroke="#000"/>
<line x1="739.96" y1="442.512851519184" x2="748.4200000000001" y2="442.512851519184" stroke="#000"/>
<line x1="744.19" y1="442.47303354639934" x2="744.19" y2="442.512851519184" stroke="#000"/>
<rect x="748.4200000000001" y="337.16544902084166" width="8.46" height="160.8345509791583" fill="orange" data-tooltip="2.90x baseline speed (MJIT)"/>
<line x1="748.4200000000001" y1="337.0594841323731" x2="756.8800000000001" y2="337.0594841323731" stroke="#000"/>
<line x1="748.4200000000001" y1="337.2714139093102" x2="756.8800000000001" y2="337.2714139093102" stroke="#000"/>
<line x1="752.6500000000001" y1="337.0594841323731" x2="752.6500000000001" y2="337.2714139093102" stroke="#000"/>
<rect x="756.8800000000001" y="276.4196131975273" width="8.46" height="221.5803868024726" fill="green" data-tooltip="3.99x baseline speed (YJIT)"/>
<line x1="756.8800000000001" y1="275.086057486367" x2="765.3400000000001" y2="275.086057486367" stroke="#000"/>
<line x1="756.8800000000001" y1="277.75316890868766" x2="765.3400000000001" y2="277.75316890868766" stroke="#000"/>
<line x1="761.11" y1="275.086057486367" x2="761.11" y2="277.75316890868766" stroke="#000"/>
<line x1="756.8800000000001" y1="498.0" x2="756.8800000000001" y2="502.79999999999995" stroke="#000"/>
<text x="756.8800000000001" y="512.4" fill="#111" font-size="small" font-family="monospace" font-weight="bold" text-anchor="end" transform="rotate(-60, 756.8800000000001, 512.4)">
fib
</text>
<rect x="773.8000000000001" y="442.49294253279163" width="8.46" height="55.50705746720826" fill="#7070f8" data-tooltip="1.00x baseline speed (No JIT)"/>
<line x1="773.8000000000001" y1="442.2981263345639" x2="782.2600000000001" y2="442.2981263345639" stroke="#000"/>
<line x1="773.8000000000001" y1="442.6877587310194" x2="782.2600000000001" y2="442.6877587310194" stroke="#000"/>
<line x1="778.03" y1="442.2981263345639" x2="778.03" y2="442.6877587310194" stroke="#000"/>
<rect x="782.2600000000001" y="261.3177597016418" width="8.46" height="236.6822402983581" fill="orange" data-tooltip="4.26x baseline speed (MJIT)"/>
<line x1="782.2600000000001" y1="97.39891247497886" x2="790.7200000000001" y2="97.39891247497886" stroke="#000"/>
<line x1="782.2600000000001" y1="425.23660692830487" x2="790.7200000000001" y2="425.23660692830487" stroke="#000"/>
<line x1="786.49" y1="97.39891247497886" x2="786.49" y2="425.23660692830487" stroke="#000"/>
<rect x="790.7200000000001" y="352.42705352719327" width="8.46" height="145.57294647280668" fill="green" data-tooltip="2.62x baseline speed (YJIT)"/>
<line x1="790.7200000000001" y1="351.2768870539385" x2="799.1800000000001" y2="351.2768870539385" stroke="#000"/>
<line x1="790.7200000000001" y1="353.57722000044805" x2="799.1800000000001" y2="353.57722000044805" stroke="#000"/>
<line x1="794.95" y1="351.2768870539385" x2="794.95" y2="353.57722000044805" stroke="#000"/>
<line x1="790.7200000000001" y1="498.0" x2="790.7200000000001" y2="502.79999999999995" stroke="#000"/>
<text x="790.7200000000001" y="512.4" fill="#111" font-size="small" font-family="monospace" font-weight="bold" text-anchor="end" transform="rotate(-60, 790.7200000000001, 512.4)">
getivar
</text>
<rect x="807.64" y="442.49294253279163" width="8.46" height="55.50705746720826" fill="#7070f8" data-tooltip="1.00x baseline speed (No JIT)"/>
<line x1="807.64" y1="442.3940378964909" x2="816.1" y2="442.3940378964909" stroke="#000"/>
<line x1="807.64" y1="442.59184716909243" x2="816.1" y2="442.59184716909243" stroke="#000"/>
<line x1="811.87" y1="442.3940378964909" x2="811.87" y2="442.59184716909243" stroke="#000"/>
<rect x="816.1" y="427.2904667326899" width="8.46" height="70.70953326731002" fill="orange" data-tooltip="1.27x baseline speed (MJIT)"/>
<line x1="816.1" y1="426.9226551137213" x2="824.5600000000001" y2="426.9226551137213" stroke="#000"/>
<line x1="816.1" y1="427.65827835165845" x2="824.5600000000001" y2="427.65827835165845" stroke="#000"/>
<line x1="820.33" y1="426.9226551137213" x2="820.33" y2="427.65827835165845" stroke="#000"/>
<rect x="824.5600000000001" y="195.08410006852193" width="8.46" height="302.91589993147807" fill="green" data-tooltip="5.46x baseline speed (YJIT)"/>
<line x1="824.5600000000001" y1="192.80246537690007" x2="833.0200000000001" y2="192.80246537690007" stroke="#000"/>
<line x1="824.5600000000001" y1="197.36573476014377" x2="833.0200000000001" y2="197.36573476014377" stroke="#000"/>
<line x1="828.7900000000001" y1="192.80246537690007" x2="828.7900000000001" y2="197.36573476014377" stroke="#000"/>
<line x1="824.5600000000001" y1="498.0" x2="824.5600000000001" y2="502.79999999999995" stroke="#000"/>
<text x="824.5600000000001" y="512.4" fill="#111" font-size="small" font-family="monospace" font-weight="bold" text-anchor="end" transform="rotate(-60, 824.5600000000001, 512.4)">
keyword_args
</text>
<rect x="841.48" y="442.49294253279163" width="8.46" height="55.50705746720826" fill="#7070f8" data-tooltip="1.00x baseline speed (No JIT)"/>
<line x1="841.48" y1="442.4238502076124" x2="849.94" y2="442.4238502076124" stroke="#000"/>
<line x1="841.48" y1="442.5620348579709" x2="849.94" y2="442.5620348579709" stroke="#000"/>
<line x1="845.7099999999999" y1="442.4238502076124" x2="845.7099999999999" y2="442.5620348579709" stroke="#000"/>
<rect x="849.94" y="431.44011556567096" width="8.46" height="66.55988443432902" fill="orange" data-tooltip="1.20x baseline speed (MJIT)"/>
<line x1="849.94" y1="431.0709906739762" x2="858.4000000000001" y2="431.0709906739762" stroke="#000"/>
<line x1="849.94" y1="431.80924045736566" x2="858.4000000000001" y2="431.80924045736566" stroke="#000"/>
<line x1="854.17" y1="431.0709906739762" x2="854.17" y2="431.80924045736566" stroke="#000"/>
<rect x="858.4000000000001" y="416.95994795502156" width="8.46" height="81.04005204497841" fill="green" data-tooltip="1.46x baseline speed (YJIT)"/>
<line x1="858.4000000000001" y1="416.66888445301976" x2="866.8600000000001" y2="416.66888445301976" stroke="#000"/>
<line x1="858.4000000000001" y1="417.2510114570234" x2="866.8600000000001" y2="417.2510114570234" stroke="#000"/>
<line x1="862.63" y1="416.66888445301976" x2="862.63" y2="417.2510114570234" stroke="#000"/>
<line x1="858.4000000000001" y1="498.0" x2="858.4000000000001" y2="502.79999999999995" stroke="#000"/>
<text x="858.4000000000001" y="512.4" fill="#111" font-size="small" font-family="monospace" font-weight="bold" text-anchor="end" transform="rotate(-60, 858.4000000000001, 512.4)">
respond_to
</text>
<rect x="875.3199999999999" y="442.49294253279163" width="8.46" height="55.50705746720826" fill="#7070f8" data-tooltip="1.00x baseline speed (No JIT)"/>
<line x1="875.3199999999999" y1="442.4031664770681" x2="883.78" y2="442.4031664770681" stroke="#000"/>
<line x1="875.3199999999999" y1="442.5827185885152" x2="883.78" y2="442.5827185885152" stroke="#000"/>
<line x1="879.55" y1="442.4031664770681" x2="879.55" y2="442.5827185885152" stroke="#000"/>
<rect x="883.78" y="116.84236643901154" width="8.46" height="381.15763356098836" fill="orange" data-tooltip="6.87x baseline speed (MJIT)"/>
<line x1="883.78" y1="-268.02088624072474" x2="892.24" y2="-268.02088624072474" stroke="#000"/>
<line x1="883.78" y1="501.7056191187478" x2="892.24" y2="501.7056191187478" stroke="#000"/>
<line x1="888.01" y1="-268.02088624072474" x2="888.01" y2="501.7056191187478" stroke="#000"/>
<rect x="892.24" y="420.987178436481" width="8.46" height="77.01282156351894" fill="green" data-tooltip="1.39x baseline speed (YJIT)"/>
<line x1="892.24" y1="420.5037089654929" x2="900.7" y2="420.5037089654929" stroke="#000"/>
<line x1="892.24" y1="421.4706479074691" x2="900.7" y2="421.4706479074691" stroke="#000"/>
<line x1="896.47" y1="420.5037089654929" x2="896.47" y2="421.4706479074691" stroke="#000"/>
<line x1="892.24" y1="498.0" x2="892.24" y2="502.79999999999995" stroke="#000"/>
<text x="892.24" y="512.4" fill="#111" font-size="small" font-family="monospace" font-weight="bold" text-anchor="end" transform="rotate(-60, 892.24, 512.4)">
setivar
</text>
<rect x="909.16" y="442.49294253279163" width="8.46" height="55.50705746720826" fill="#7070f8" data-tooltip="1.00x baseline speed (No JIT)"/>
<line x1="909.16" y1="441.9505046668785" x2="917.62" y2="441.9505046668785" stroke="#000"/>
<line x1="909.16" y1="443.03538039870483" x2="917.62" y2="443.03538039870483" stroke="#000"/>
<line x1="913.3899999999999" y1="441.9505046668785" x2="913.3899999999999" y2="443.03538039870483" stroke="#000"/>
<rect x="917.62" y="425.8851565832459" width="8.46" height="72.11484341675414" fill="orange" data-tooltip="1.30x baseline speed (MJIT)"/>
<line x1="917.62" y1="424.6622572298401" x2="926.08" y2="424.6622572298401" stroke="#000"/>
<line x1="917.62" y1="427.1080559366516" x2="926.08" y2="427.1080559366516" stroke="#000"/>
<line x1="921.8499999999999" y1="424.6622572298401" x2="921.8499999999999" y2="427.1080559366516" stroke="#000"/>
<rect x="926.08" y="431.31596353890603" width="8.46" height="66.6840364610939" fill="green" data-tooltip="1.20x baseline speed (YJIT)"/>
<line x1="926.08" y1="430.06235903016255" x2="934.5400000000001" y2="430.06235903016255" stroke="#000"/>
<line x1="926.08" y1="432.5695680476495" x2="934.5400000000001" y2="432.5695680476495" stroke="#000"/>
<line x1="930.31" y1="430.06235903016255" x2="930.31" y2="432.5695680476495" stroke="#000"/>
<line x1="926.08" y1="498.0" x2="926.08" y2="502.79999999999995" stroke="#000"/>
<text x="926.08" y="512.4" fill="#111" font-size="small" font-family="monospace" font-weight="bold" text-anchor="end" transform="rotate(-60, 926.08, 512.4)">
str_concat
</text>
</svg>