<svg viewBox="0 0 1000 600" xmlns="http://www.w3.org/2000/svg" xmlns:xlink="http://www.w3.org/1999/xlink" width="100%" height="100%">

<rect x="50.0" y="30.0" width="940.0" height="467.99999999999994" stroke="#000" fill="#EEE"/>
<line x1="42.0" y1="497.9999999999999" x2="50.0" y2="497.9999999999999" stroke="#000"/>
<text x="26.000000000000004" y="497.9999999999999" text-anchor="end" font-weight="bold" font-size="small" fill="#111">
0.0
</text>
<line x1="42.0" y1="434.73933858717464" x2="50.0" y2="434.73933858717464" stroke="#000"/>
<text x="26.000000000000004" y="434.73933858717464" text-anchor="end" font-weight="bold" font-size="small" fill="#111">
1.0
</text>
<line x1="42.0" y1="371.4786771743493" x2="50.0" y2="371.4786771743493" stroke="#000"/>
<text x="26.000000000000004" y="371.4786771743493" text-anchor="end" font-weight="bold" font-size="small" fill="#111">
2.0
</text>
<line x1="42.0" y1="308.218015761524" x2="50.0" y2="308.218015761524" stroke="#000"/>
<text x="26.000000000000004" y="308.218015761524" text-anchor="end" font-weight="bold" font-size="small" fill="#111">
3.0
</text>
<line x1="42.0" y1="244.9573543486987" x2="50.0" y2="244.9573543486987" stroke="#000"/>
<text x="26.000000000000004" y="244.9573543486987" text-anchor="end" font-weight="bold" font-size="small" fill="#111">
4.0
</text>
<line x1="42.0" y1="181.69669293587336" x2="50.0" y2="181.69669293587336" stroke="#000"/>
<text x="26.000000000000004" y="181.69669293587336" text-anchor="end" font-weight="bold" font-size="small" fill="#111">
5.0
</text>
<line x1="42.0" y1="118.43603152304804" x2="50.0" y2="118.43603152304804" stroke="#000"/>
<text x="26.000000000000004" y="118.43603152304804" text-anchor="end" font-weight="bold" font-size="small" fill="#111">
6.0
</text>
<rect x="268.5" y="36.00000000000001" width="80.0" height="18.0" fill="#7070f8" stroke="#888"/>
<text x="308.5" y="52.50000000000001" font-size="small" text-anchor="middle" font-weight="bold" fill="#EEE">
No JIT
</text>
<rect x="691.4999999999999" y="36.00000000000001" width="80.0" height="18.0" fill="orange" stroke="#888"/>
<text x="731.4999999999999" y="52.50000000000001" font-size="small" text-anchor="middle" font-weight="bold" fill="#EEE">
YJIT
</text>
<rect x="97.0" y="434.73933858717464" width="11.28" height="63.26066141282532" fill="#7070f8" data-tooltip="1.00x baseline speed (No JIT)"/>
<line x1="97.0" y1="434.5997093927601" x2="108.28" y2="434.5997093927601" stroke="#000"/>
<line x1="97.0" y1="434.8789677815892" x2="108.28" y2="434.8789677815892" stroke="#000"/>
<line x1="102.64000000000001" y1="434.5997093927601" x2="102.64000000000001" y2="434.8789677815892" stroke="#000"/>
<rect x="108.28" y="428.12733709619675" width="11.28" height="69.87266290380316" fill="orange" data-tooltip="1.10x baseline speed (YJIT)"/>
<line x1="108.28" y1="427.88962094017194" x2="119.56" y2="427.88962094017194" stroke="#000"/>
<line x1="108.28" y1="428.36505325222157" x2="119.56" y2="428.36505325222157" stroke="#000"/>
<line x1="113.92" y1="427.88962094017194" x2="113.92" y2="428.36505325222157" stroke="#000"/>
<line x1="113.92" y1="498.0" x2="113.92" y2="502.79999999999995" stroke="#000"/>
<text x="113.92" y="512.4" fill="#111" font-size="small" font-family="monospace" font-weight="bold" text-anchor="end" transform="rotate(-60, 113.92, 512.4)">
activerecord
</text>
<rect x="130.84" y="434.73933858717464" width="11.28" height="63.26066141282532" fill="#7070f8" data-tooltip="1.00x baseline speed (No JIT)"/>
<line x1="130.84" y1="434.30188189647777" x2="142.12000000000003" y2="434.30188189647777" stroke="#000"/>
<line x1="130.84" y1="435.1767952778715" x2="142.12000000000003" y2="435.1767952778715" stroke="#000"/>
<line x1="136.48000000000002" y1="434.30188189647777" x2="136.48000000000002" y2="435.1767952778715" stroke="#000"/>
<rect x="142.12000000000003" y="430.74051278035654" width="11.28" height="67.25948721964335" fill="orange" data-tooltip="1.06x baseline speed (YJIT)"/>
<line x1="142.12000000000003" y1="429.6906196045182" x2="153.40000000000003" y2="429.6906196045182" stroke="#000"/>
<line x1="142.12000000000003" y1="431.79040595619495" x2="153.40000000000003" y2="431.79040595619495" stroke="#000"/>
<line x1="147.76000000000002" y1="429.6906196045182" x2="147.76000000000002" y2="431.79040595619495" stroke="#000"/>
<line x1="147.76" y1="498.0" x2="147.76" y2="502.79999999999995" stroke="#000"/>
<text x="147.76" y="512.4" fill="#111" font-size="small" font-family="monospace" font-weight="bold" text-anchor="end" transform="rotate(-60, 147.76, 512.4)">
hexapdf
</text>
<rect x="164.68" y="434.73933858717464" width="11.28" height="63.26066141282532" fill="#7070f8" data-tooltip="1.00x baseline speed (No JIT)"/>
<line x1="164.68" y1="434.15869479565987" x2="175.96" y2="434.15869479565987" stroke="#000"/>
<line x1="164.68" y1="435.3199823786894" x2="175.96" y2="435.3199823786894" stroke="#000"/>
<line x1="170.32" y1="434.15869479565987" x2="170.32" y2="435.3199823786894" stroke="#000"/>
<rect x="175.96" y="420.86575229345823" width="11.28" height="77.13424770654176" fill="orange" data-tooltip="1.22x baseline speed (YJIT)"/>
<line x1="175.96" y1="419.60689111773644" x2="187.24" y2="419.60689111773644" stroke="#000"/>
<line x1="175.96" y1="422.12461346918" x2="187.24" y2="422.12461346918" stroke="#000"/>
<line x1="181.60000000000002" y1="419.60689111773644" x2="181.60000000000002" y2="422.12461346918" stroke="#000"/>
<line x1="181.6" y1="498.0" x2="181.6" y2="502.79999999999995" stroke="#000"/>
<text x="181.6" y="512.4" fill="#111" font-size="small" font-family="monospace" font-weight="bold" text-anchor="end" transform="rotate(-60, 181.6, 512.4)">
liquid-render
</text>
<rect x="198.52" y="434.73933858717464" width="11.28" height="63.26066141282532" fill="#7070f8" data-tooltip="1.00x baseline speed (No JIT)"/>
<line x1="198.52" y1="434.67475532943325" x2="209.8" y2="434.67475532943325" stroke="#000"/>
<line x1="198.52" y1="434.80392184491603" x2="209.8" y2="434.80392184491603" stroke="#000"/>
<line x1="204.16" y1="434.67475532943325" x2="204.16" y2="434.80392184491603" stroke="#000"/>
<rect x="209.8" y="444.8557445237312" width="11.28" height="53.1442554762688" fill="orange" data-tooltip="0.84x baseline speed (YJIT)"/>
<line x1="209.8" y1="444.6652472662444" x2="221.08" y2="444.6652472662444" stroke="#000"/>
<line x1="209.8" y1="445.046241781218" x2="221.08" y2="445.046241781218" stroke="#000"/>
<line x1="215.44000000000003" y1="444.6652472662444" x2="215.44000000000003" y2="445.046241781218" stroke="#000"/>
<line x1="215.44" y1="498.0" x2="215.44" y2="502.79999999999995" stroke="#000"/>
<text x="215.44" y="512.4" fill="#111" font-size="small" font-family="monospace" font-weight="bold" text-anchor="end" transform="rotate(-60, 215.44, 512.4)">
mail
</text>
<rect x="232.36" y="434.73933858717464" width="11.28" height="63.26066141282532" fill="#7070f8" data-tooltip="1.00x baseline speed (No JIT)"/>
<line x1="232.36" y1="434.6996573116122" x2="243.64000000000001" y2="434.6996573116122" stroke="#000"/>
<line x1="232.36" y1="434.7790198627371" x2="243.64000000000001" y2="434.7790198627371" stroke="#000"/>
<line x1="238.00000000000003" y1="434.6996573116122" x2="238.00000000000003" y2="434.7790198627371" stroke="#000"/>
<rect x="243.64000000000001" y="428.0901672573234" width="11.28" height="69.90983274267654" fill="orange" data-tooltip="1.11x baseline speed (YJIT)"/>
<line x1="243.64000000000001" y1="428.043221795898" x2="254.92000000000004" y2="428.043221795898" stroke="#000"/>
<line x1="243.64000000000001" y1="428.1371127187489" x2="254.92000000000004" y2="428.1371127187489" stroke="#000"/>
<line x1="249.28000000000003" y1="428.043221795898" x2="249.28000000000003" y2="428.1371127187489" stroke="#000"/>
<line x1="249.28" y1="498.0" x2="249.28" y2="502.79999999999995" stroke="#000"/>
<text x="249.28" y="512.4" fill="#111" font-size="small" font-family="monospace" font-weight="bold" text-anchor="end" transform="rotate(-60, 249.28, 512.4)">
psych-load
</text>
<rect x="266.2" y="434.73933858717464" width="11.28" height="63.26066141282532" fill="#7070f8" data-tooltip="1.00x baseline speed (No JIT)"/>
<line x1="266.2" y1="434.4489627436911" x2="277.48" y2="434.4489627436911" stroke="#000"/>
<line x1="266.2" y1="435.0297144306582" x2="277.48" y2="435.0297144306582" stroke="#000"/>
<line x1="271.84" y1="434.4489627436911" x2="271.84" y2="435.0297144306582" stroke="#000"/>
<rect x="277.48" y="426.6814262691701" width="11.28" height="71.31857373082974" fill="orange" data-tooltip="1.13x baseline speed (YJIT)"/>
<line x1="277.48" y1="426.066879537083" x2="288.76" y2="426.066879537083" stroke="#000"/>
<line x1="277.48" y1="427.2959730012572" x2="288.76" y2="427.2959730012572" stroke="#000"/>
<line x1="283.12" y1="426.066879537083" x2="283.12" y2="427.2959730012572" stroke="#000"/>
<line x1="283.12" y1="498.0" x2="283.12" y2="502.79999999999995" stroke="#000"/>
<text x="283.12" y="512.4" fill="#111" font-size="small" font-family="monospace" font-weight="bold" text-anchor="end" transform="rotate(-60, 283.12, 512.4)">
railsbench
</text>
<rect x="300.03999999999996" y="434.73933858717464" width="11.28" height="63.26066141282532" fill="#7070f8" data-tooltip="1.00x baseline speed (No JIT)"/>
<line x1="300.03999999999996" y1="434.68876818445807" x2="311.32" y2="434.68876818445807" stroke="#000"/>
<line x1="300.03999999999996" y1="434.7899089898912" x2="311.32" y2="434.7899089898912" stroke="#000"/>
<line x1="305.67999999999995" y1="434.68876818445807" x2="305.67999999999995" y2="434.7899089898912" stroke="#000"/>
<rect x="311.32" y="384.2653206773075" width="11.28" height="113.73467932269244" fill="orange" data-tooltip="1.80x baseline speed (YJIT)"/>
<line x1="311.32" y1="380.24743261002607" x2="322.6" y2="380.24743261002607" stroke="#000"/>
<line x1="311.32" y1="388.283208744589" x2="322.6" y2="388.283208744589" stroke="#000"/>
<line x1="316.96" y1="380.24743261002607" x2="316.96" y2="388.283208744589" stroke="#000"/>
<line x1="316.96" y1="498.0" x2="316.96" y2="502.79999999999995" stroke="#000"/>
<text x="316.96" y="512.4" fill="#111" font-size="small" font-family="monospace" font-weight="bold" text-anchor="end" transform="rotate(-60, 316.96, 512.4)">
binarytrees
</text>
<rect x="333.88" y="434.73933858717464" width="11.28" height="63.26066141282532" fill="#7070f8" data-tooltip="1.00x baseline speed (No JIT)"/>
<line x1="333.88" y1="434.31363161506073" x2="345.16" y2="434.31363161506073" stroke="#000"/>
<line x1="333.88" y1="435.16504555928856" x2="345.16" y2="435.16504555928856" stroke="#000"/>
<line x1="339.52" y1="434.31363161506073" x2="339.52" y2="435.16504555928856" stroke="#000"/>
<rect x="345.16" y="405.9605454328556" width="11.28" height="92.03945456714435" fill="orange" data-tooltip="1.45x baseline speed (YJIT)"/>
<line x1="345.16" y1="405.33281375028025" x2="356.44000000000005" y2="405.33281375028025" stroke="#000"/>
<line x1="345.16" y1="406.58827711543097" x2="356.44000000000005" y2="406.58827711543097" stroke="#000"/>
<line x1="350.8" y1="405.33281375028025" x2="350.8" y2="406.58827711543097" stroke="#000"/>
<line x1="350.8" y1="498.0" x2="350.8" y2="502.79999999999995" stroke="#000"/>
<text x="350.8" y="512.4" fill="#111" font-size="small" font-family="monospace" font-weight="bold" text-anchor="end" transform="rotate(-60, 350.8, 512.4)">
chunky_png
</text>
<rect x="367.72" y="434.73933858717464" width="11.28" height="63.26066141282532" fill="#7070f8" data-tooltip="1.00x baseline speed (No JIT)"/>
<line x1="367.72" y1="434.0562680214391" x2="379.00000000000006" y2="434.0562680214391" stroke="#000"/>
<line x1="367.72" y1="435.4224091529102" x2="379.00000000000006" y2="435.4224091529102" stroke="#000"/>
<line x1="373.36" y1="434.0562680214391" x2="373.36" y2="435.4224091529102" stroke="#000"/>
<rect x="379.00000000000006" y="430.9957223658793" width="11.28" height="67.00427763412065" fill="orange" data-tooltip="1.06x baseline speed (YJIT)"/>
<line x1="379.00000000000006" y1="429.7627384834547" x2="390.2800000000001" y2="429.7627384834547" stroke="#000"/>
<line x1="379.00000000000006" y1="432.2287062483039" x2="390.2800000000001" y2="432.2287062483039" stroke="#000"/>
<line x1="384.64000000000004" y1="429.7627384834547" x2="384.64000000000004" y2="432.2287062483039" stroke="#000"/>
<line x1="384.64000000000004" y1="498.0" x2="384.64000000000004" y2="502.79999999999995" stroke="#000"/>
<text x="384.64000000000004" y="512.4" fill="#111" font-size="small" font-family="monospace" font-weight="bold" text-anchor="end" transform="rotate(-60, 384.64000000000004, 512.4)">
erubi
</text>
<rect x="401.56" y="434.73933858717464" width="11.28" height="63.26066141282532" fill="#7070f8" data-tooltip="1.00x baseline speed (No JIT)"/>
<line x1="401.56" y1="433.42489527948607" x2="412.84000000000003" y2="433.42489527948607" stroke="#000"/>
<line x1="401.56" y1="436.0537818948632" x2="412.84000000000003" y2="436.0537818948632" stroke="#000"/>
<line x1="407.2" y1="433.42489527948607" x2="407.2" y2="436.0537818948632" stroke="#000"/>
<rect x="412.84000000000003" y="424.93199664599535" width="11.28" height="73.06800335400462" fill="orange" data-tooltip="1.16x baseline speed (YJIT)"/>
<line x1="412.84000000000003" y1="422.5216613070066" x2="424.12000000000006" y2="422.5216613070066" stroke="#000"/>
<line x1="412.84000000000003" y1="427.3423319849841" x2="424.12000000000006" y2="427.3423319849841" stroke="#000"/>
<line x1="418.48" y1="422.5216613070066" x2="418.48" y2="427.3423319849841" stroke="#000"/>
<line x1="418.48" y1="498.0" x2="418.48" y2="502.79999999999995" stroke="#000"/>
<text x="418.48" y="512.4" fill="#111" font-size="small" font-family="monospace" font-weight="bold" text-anchor="end" transform="rotate(-60, 418.48, 512.4)">
erubi_rails
</text>
<rect x="435.40000000000003" y="434.73933858717464" width="11.28" height="63.26066141282532" fill="#7070f8" data-tooltip="1.00x baseline speed (No JIT)"/>
<line x1="435.40000000000003" y1="434.02683623197726" x2="446.68" y2="434.02683623197726" stroke="#000"/>
<line x1="435.40000000000003" y1="435.45184094237203" x2="446.68" y2="435.45184094237203" stroke="#000"/>
<line x1="441.03999999999996" y1="434.02683623197726" x2="441.03999999999996" y2="435.45184094237203" stroke="#000"/>
<rect x="446.68" y="435.8940990567254" width="11.28" height="62.10590094327459" fill="orange" data-tooltip="0.98x baseline speed (YJIT)"/>
<line x1="446.68" y1="435.0066712771629" x2="457.96000000000004" y2="435.0066712771629" stroke="#000"/>
<line x1="446.68" y1="436.78152683628787" x2="457.96000000000004" y2="436.78152683628787" stroke="#000"/>
<line x1="452.32" y1="435.0066712771629" x2="452.32" y2="436.78152683628787" stroke="#000"/>
<line x1="452.32" y1="498.0" x2="452.32" y2="502.79999999999995" stroke="#000"/>
<text x="452.32" y="512.4" fill="#111" font-size="small" font-family="monospace" font-weight="bold" text-anchor="end" transform="rotate(-60, 452.32, 512.4)">
etanni
</text>
<rect x="469.24" y="434.73933858717464" width="11.28" height="63.26066141282532" fill="#7070f8" data-tooltip="1.00x baseline speed (No JIT)"/>
<line x1="469.24" y1="434.42791204293235" x2="480.52" y2="434.42791204293235" stroke="#000"/>
<line x1="469.24" y1="435.05076513141694" x2="480.52" y2="435.05076513141694" stroke="#000"/>
<line x1="474.88" y1="434.42791204293235" x2="474.88" y2="435.05076513141694" stroke="#000"/>
<rect x="480.52" y="362.8938459062027" width="11.28" height="135.10615409379724" fill="orange" data-tooltip="2.14x baseline speed (YJIT)"/>
<line x1="480.52" y1="362.20437896845766" x2="491.8" y2="362.20437896845766" stroke="#000"/>
<line x1="480.52" y1="363.58331284394774" x2="491.8" y2="363.58331284394774" stroke="#000"/>
<line x1="486.15999999999997" y1="362.20437896845766" x2="486.15999999999997" y2="363.58331284394774" stroke="#000"/>
<line x1="486.15999999999997" y1="498.0" x2="486.15999999999997" y2="502.79999999999995" stroke="#000"/>
<text x="486.15999999999997" y="512.4" fill="#111" font-size="small" font-family="monospace" font-weight="bold" text-anchor="end" transform="rotate(-60, 486.15999999999997, 512.4)">
fannkuchredux
</text>
<rect x="503.08" y="434.73933858717464" width="11.28" height="63.26066141282532" fill="#7070f8" data-tooltip="1.00x baseline speed (No JIT)"/>
<line x1="503.08" y1="434.5982877372542" x2="514.3599999999999" y2="434.5982877372542" stroke="#000"/>
<line x1="503.08" y1="434.88038943709506" x2="514.3599999999999" y2="434.88038943709506" stroke="#000"/>
<line x1="508.71999999999997" y1="434.5982877372542" x2="508.71999999999997" y2="434.88038943709506" stroke="#000"/>
<rect x="514.3599999999999" y="418.49046632630365" width="11.28" height="79.50953367369627" fill="orange" data-tooltip="1.26x baseline speed (YJIT)"/>
<line x1="514.3599999999999" y1="418.2815015768888" x2="525.6399999999999" y2="418.2815015768888" stroke="#000"/>
<line x1="514.3599999999999" y1="418.6994310757185" x2="525.6399999999999" y2="418.6994310757185" stroke="#000"/>
<line x1="519.9999999999999" y1="418.2815015768888" x2="519.9999999999999" y2="418.6994310757185" stroke="#000"/>
<line x1="520.0" y1="498.0" x2="520.0" y2="502.79999999999995" stroke="#000"/>
<text x="520.0" y="512.4" fill="#111" font-size="small" font-family="monospace" font-weight="bold" text-anchor="end" transform="rotate(-60, 520.0, 512.4)">
lee
</text>
<rect x="536.9200000000001" y="434.73933858717464" width="11.28" height="63.26066141282532" fill="#7070f8" data-tooltip="1.00x baseline speed (No JIT)"/>
<line x1="536.9200000000001" y1="434.17435324045704" x2="548.2" y2="434.17435324045704" stroke="#000"/>
<line x1="536.9200000000001" y1="435.30432393389225" x2="548.2" y2="435.30432393389225" stroke="#000"/>
<line x1="542.5600000000001" y1="434.17435324045704" x2="542.5600000000001" y2="435.30432393389225" stroke="#000"/>
<rect x="548.2" y="414.6724200939962" width="11.28" height="83.32757990600366" fill="orange" data-tooltip="1.32x baseline speed (YJIT)"/>
<line x1="548.2" y1="413.9177157150638" x2="559.48" y2="413.9177157150638" stroke="#000"/>
<line x1="548.2" y1="415.4271244729286" x2="559.48" y2="415.4271244729286" stroke="#000"/>
<line x1="553.84" y1="413.9177157150638" x2="553.84" y2="415.4271244729286" stroke="#000"/>
<line x1="553.8400000000001" y1="498.0" x2="553.8400000000001" y2="502.79999999999995" stroke="#000"/>
<text x="553.8400000000001" y="512.4" fill="#111" font-size="small" font-family="monospace" font-weight="bold" text-anchor="end" transform="rotate(-60, 553.8400000000001, 512.4)">
nbody
</text>
<rect x="570.76" y="434.73933858717464" width="11.28" height="63.26066141282532" fill="#7070f8" data-tooltip="1.00x baseline speed (No JIT)"/>
<line x1="570.76" y1="434.4845217060743" x2="582.04" y2="434.4845217060743" stroke="#000"/>
<line x1="570.76" y1="434.994155468275" x2="582.04" y2="434.994155468275" stroke="#000"/>
<line x1="576.4" y1="434.4845217060743" x2="576.4" y2="434.994155468275" stroke="#000"/>
<rect x="582.04" y="429.67122524442317" width="11.28" height="68.32877475557684" fill="orange" data-tooltip="1.08x baseline speed (YJIT)"/>
<line x1="582.04" y1="429.2771099001805" x2="593.3199999999999" y2="429.2771099001805" stroke="#000"/>
<line x1="582.04" y1="430.06534058866583" x2="593.3199999999999" y2="430.06534058866583" stroke="#000"/>
<line x1="587.68" y1="429.2771099001805" x2="587.68" y2="430.06534058866583" stroke="#000"/>
<line x1="587.6800000000001" y1="498.0" x2="587.6800000000001" y2="502.79999999999995" stroke="#000"/>
<text x="587.6800000000001" y="512.4" fill="#111" font-size="small" font-family="monospace" font-weight="bold" text-anchor="end" transform="rotate(-60, 587.6800000000001, 512.4)">
optcarrot
</text>
<rect x="604.6" y="434.73933858717464" width="11.28" height="63.26066141282532" fill="#7070f8" data-tooltip="1.00x baseline speed (No JIT)"/>
<line x1="604.6" y1="434.39218701354065" x2="615.88" y2="434.39218701354065" stroke="#000"/>
<line x1="604.6" y1="435.08649016080864" x2="615.88" y2="435.08649016080864" stroke="#000"/>
<line x1="610.24" y1="434.39218701354065" x2="610.24" y2="435.08649016080864" stroke="#000"/>
<rect x="615.88" y="411.3477570743955" width="11.28" height="86.65224292560451" fill="orange" data-tooltip="1.37x baseline speed (YJIT)"/>
<line x1="615.88" y1="410.76412249344787" x2="627.16" y2="410.76412249344787" stroke="#000"/>
<line x1="615.88" y1="411.9313916553431" x2="627.16" y2="411.9313916553431" stroke="#000"/>
<line x1="621.52" y1="410.76412249344787" x2="621.52" y2="411.9313916553431" stroke="#000"/>
<line x1="621.5200000000001" y1="498.0" x2="621.5200000000001" y2="502.79999999999995" stroke="#000"/>
<text x="621.5200000000001" y="512.4" fill="#111" font-size="small" font-family="monospace" font-weight="bold" text-anchor="end" transform="rotate(-60, 621.5200000000001, 512.4)">
rubykon
</text>
<rect x="638.44" y="434.73933858717464" width="11.28" height="63.26066141282532" fill="#7070f8" data-tooltip="1.00x baseline speed (No JIT)"/>
<line x1="638.44" y1="434.2834650290913" x2="649.7199999999999" y2="434.2834650290913" stroke="#000"/>
<line x1="638.44" y1="435.195212145258" x2="649.7199999999999" y2="435.195212145258" stroke="#000"/>
<line x1="644.08" y1="434.2834650290913" x2="644.08" y2="435.195212145258" stroke="#000"/>
<rect x="649.7199999999999" y="321.2271409868198" width="11.28" height="176.77285901318015" fill="orange" data-tooltip="2.79x baseline speed (YJIT)"/>
<line x1="649.7199999999999" y1="319.94991474914934" x2="660.9999999999999" y2="319.94991474914934" stroke="#000"/>
<line x1="649.7199999999999" y1="322.50436722449024" x2="660.9999999999999" y2="322.50436722449024" stroke="#000"/>
<line x1="655.3599999999999" y1="319.94991474914934" x2="655.3599999999999" y2="322.50436722449024" stroke="#000"/>
<line x1="655.36" y1="498.0" x2="655.36" y2="502.79999999999995" stroke="#000"/>
<text x="655.36" y="512.4" fill="#111" font-size="small" font-family="monospace" font-weight="bold" text-anchor="end" transform="rotate(-60, 655.36, 512.4)">
30k_ifelse
</text>
<rect x="672.28" y="434.73933858717464" width="11.28" height="63.26066141282532" fill="#7070f8" data-tooltip="1.00x baseline speed (No JIT)"/>
<line x1="672.28" y1="434.6164087644327" x2="683.56" y2="434.6164087644327" stroke="#000"/>
<line x1="672.28" y1="434.86226840991657" x2="683.56" y2="434.86226840991657" stroke="#000"/>
<line x1="677.92" y1="434.6164087644327" x2="677.92" y2="434.86226840991657" stroke="#000"/>
<rect x="683.56" y="289.54578224434414" width="11.28" height="208.45421775565583" fill="orange" data-tooltip="3.30x baseline speed (YJIT)"/>
<line x1="683.56" y1="284.40616261729633" x2="694.8399999999999" y2="284.40616261729633" stroke="#000"/>
<line x1="683.56" y1="294.6854018713919" x2="694.8399999999999" y2="294.6854018713919" stroke="#000"/>
<line x1="689.1999999999999" y1="284.40616261729633" x2="689.1999999999999" y2="294.6854018713919" stroke="#000"/>
<line x1="689.2" y1="498.0" x2="689.2" y2="502.79999999999995" stroke="#000"/>
<text x="689.2" y="512.4" fill="#111" font-size="small" font-family="monospace" font-weight="bold" text-anchor="end" transform="rotate(-60, 689.2, 512.4)">
30k_methods
</text>
<rect x="706.12" y="434.73933858717464" width="11.28" height="63.26066141282532" fill="#7070f8" data-tooltip="1.00x baseline speed (No JIT)"/>
<line x1="706.12" y1="434.7031836366434" x2="717.4" y2="434.7031836366434" stroke="#000"/>
<line x1="706.12" y1="434.77549353770587" x2="717.4" y2="434.77549353770587" stroke="#000"/>
<line x1="711.76" y1="434.7031836366434" x2="711.76" y2="434.77549353770587" stroke="#000"/>
<rect x="717.4" y="351.72036723229485" width="11.28" height="146.27963276770507" fill="orange" data-tooltip="2.31x baseline speed (YJIT)"/>
<line x1="717.4" y1="351.63495822961374" x2="728.6799999999998" y2="351.63495822961374" stroke="#000"/>
<line x1="717.4" y1="351.805776234976" x2="728.6799999999998" y2="351.805776234976" stroke="#000"/>
<line x1="723.0399999999998" y1="351.63495822961374" x2="723.0399999999998" y2="351.805776234976" stroke="#000"/>
<line x1="723.04" y1="498.0" x2="723.04" y2="502.79999999999995" stroke="#000"/>
<text x="723.04" y="512.4" fill="#111" font-size="small" font-family="monospace" font-weight="bold" text-anchor="end" transform="rotate(-60, 723.04, 512.4)">
cfunc_itself
</text>
<rect x="739.96" y="434.73933858717464" width="11.28" height="63.26066141282532" fill="#7070f8" data-tooltip="1.00x baseline speed (No JIT)"/>
<line x1="739.96" y1="433.5784877000461" x2="751.24" y2="433.5784877000461" stroke="#000"/>
<line x1="739.96" y1="435.9001894743032" x2="751.24" y2="435.9001894743032" stroke="#000"/>
<line x1="745.6" y1="433.5784877000461" x2="745.6" y2="435.9001894743032" stroke="#000"/>
<rect x="751.24" y="325.08810833348616" width="11.28" height="172.91189166651384" fill="orange" data-tooltip="2.73x baseline speed (YJIT)"/>
<line x1="751.24" y1="321.91511525818197" x2="762.52" y2="321.91511525818197" stroke="#000"/>
<line x1="751.24" y1="328.2611014087903" x2="762.52" y2="328.2611014087903" stroke="#000"/>
<line x1="756.88" y1="321.91511525818197" x2="756.88" y2="328.2611014087903" stroke="#000"/>
<line x1="756.8800000000001" y1="498.0" x2="756.8800000000001" y2="502.79999999999995" stroke="#000"/>
<text x="756.8800000000001" y="512.4" fill="#111" font-size="small" font-family="monospace" font-weight="bold" text-anchor="end" transform="rotate(-60, 756.8800000000001, 512.4)">
fib
</text>
<rect x="773.8000000000001" y="434.73933858717464" width="11.28" height="63.26066141282532" fill="#7070f8" data-tooltip="1.00x baseline speed (No JIT)"/>
<line x1="773.8000000000001" y1="434.2146422163015" x2="785.08" y2="434.2146422163015" stroke="#000"/>
<line x1="773.8000000000001" y1="435.2640349580478" x2="785.08" y2="435.2640349580478" stroke="#000"/>
<line x1="779.44" y1="434.2146422163015" x2="779.44" y2="435.2640349580478" stroke="#000"/>
<rect x="785.08" y="368.7095931460375" width="11.28" height="129.2904068539624" fill="orange" data-tooltip="2.04x baseline speed (YJIT)"/>
<line x1="785.08" y1="367.63603902480315" x2="796.3599999999999" y2="367.63603902480315" stroke="#000"/>
<line x1="785.08" y1="369.78314726727183" x2="796.3599999999999" y2="369.78314726727183" stroke="#000"/>
<line x1="790.72" y1="367.63603902480315" x2="790.72" y2="369.78314726727183" stroke="#000"/>
<line x1="790.7200000000001" y1="498.0" x2="790.7200000000001" y2="502.79999999999995" stroke="#000"/>
<text x="790.7200000000001" y="512.4" fill="#111" font-size="small" font-family="monospace" font-weight="bold" text-anchor="end" transform="rotate(-60, 790.7200000000001, 512.4)">
getivar
</text>
<rect x="807.64" y="434.73933858717464" width="11.28" height="63.26066141282532" fill="#7070f8" data-tooltip="1.00x baseline speed (No JIT)"/>
<line x1="807.64" y1="434.40672042878185" x2="818.92" y2="434.40672042878185" stroke="#000"/>
<line x1="807.64" y1="435.07195674556743" x2="818.92" y2="435.07195674556743" stroke="#000"/>
<line x1="813.28" y1="434.40672042878185" x2="813.28" y2="435.07195674556743" stroke="#000"/>
<rect x="818.92" y="205.20501066737026" width="11.28" height="292.79498933262965" fill="orange" data-tooltip="4.63x baseline speed (YJIT)"/>
<line x1="818.92" y1="203.6653950203923" x2="830.1999999999999" y2="203.6653950203923" stroke="#000"/>
<line x1="818.92" y1="206.7446263143482" x2="830.1999999999999" y2="206.7446263143482" stroke="#000"/>
<line x1="824.56" y1="203.6653950203923" x2="824.56" y2="206.7446263143482" stroke="#000"/>
<line x1="824.5600000000001" y1="498.0" x2="824.5600000000001" y2="502.79999999999995" stroke="#000"/>
<text x="824.5600000000001" y="512.4" fill="#111" font-size="small" font-family="monospace" font-weight="bold" text-anchor="end" transform="rotate(-60, 824.5600000000001, 512.4)">
keyword_args
</text>
<rect x="841.48" y="434.73933858717464" width="11.28" height="63.26066141282532" fill="#7070f8" data-tooltip="1.00x baseline speed (No JIT)"/>
<line x1="841.48" y1="434.3848043360428" x2="852.76" y2="434.3848043360428" stroke="#000"/>
<line x1="841.48" y1="435.0938728383065" x2="852.76" y2="435.0938728383065" stroke="#000"/>
<line x1="847.12" y1="434.3848043360428" x2="847.12" y2="435.0938728383065" stroke="#000"/>
<rect x="852.76" y="100.19999999999999" width="11.28" height="397.79999999999995" fill="orange" data-tooltip="6.29x baseline speed (YJIT)"/>
<line x1="852.76" y1="97.137753014648" x2="864.04" y2="97.137753014648" stroke="#000"/>
<line x1="852.76" y1="103.26224698535198" x2="864.04" y2="103.26224698535198" stroke="#000"/>
<line x1="858.4" y1="97.137753014648" x2="858.4" y2="103.26224698535198" stroke="#000"/>
<line x1="858.4000000000001" y1="498.0" x2="858.4000000000001" y2="502.79999999999995" stroke="#000"/>
<text x="858.4000000000001" y="512.4" fill="#111" font-size="small" font-family="monospace" font-weight="bold" text-anchor="end" transform="rotate(-60, 858.4000000000001, 512.4)">
respond_to
</text>
<rect x="875.3199999999999" y="434.73933858717464" width="11.28" height="63.26066141282532" fill="#7070f8" data-tooltip="1.00x baseline speed (No JIT)"/>
<line x1="875.3199999999999" y1="434.60221387143395" x2="886.5999999999999" y2="434.60221387143395" stroke="#000"/>
<line x1="875.3199999999999" y1="434.87646330291534" x2="886.5999999999999" y2="434.87646330291534" stroke="#000"/>
<line x1="880.9599999999999" y1="434.60221387143395" x2="880.9599999999999" y2="434.87646330291534" stroke="#000"/>
<rect x="886.5999999999999" y="397.77732860244583" width="11.28" height="100.22267139755411" fill="orange" data-tooltip="1.58x baseline speed (YJIT)"/>
<line x1="886.5999999999999" y1="397.5597002258347" x2="897.8799999999999" y2="397.5597002258347" stroke="#000"/>
<line x1="886.5999999999999" y1="397.994956979057" x2="897.8799999999999" y2="397.994956979057" stroke="#000"/>
<line x1="892.2399999999999" y1="397.5597002258347" x2="892.2399999999999" y2="397.994956979057" stroke="#000"/>
<line x1="892.24" y1="498.0" x2="892.24" y2="502.79999999999995" stroke="#000"/>
<text x="892.24" y="512.4" fill="#111" font-size="small" font-family="monospace" font-weight="bold" text-anchor="end" transform="rotate(-60, 892.24, 512.4)">
setivar
</text>
<rect x="909.16" y="434.73933858717464" width="11.28" height="63.26066141282532" fill="#7070f8" data-tooltip="1.00x baseline speed (No JIT)"/>
<line x1="909.16" y1="434.3473524323539" x2="920.4399999999999" y2="434.3473524323539" stroke="#000"/>
<line x1="909.16" y1="435.1313247419954" x2="920.4399999999999" y2="435.1313247419954" stroke="#000"/>
<line x1="914.8" y1="434.3473524323539" x2="914.8" y2="435.1313247419954" stroke="#000"/>
<rect x="920.4399999999999" y="406.81673371857585" width="11.28" height="91.18326628142417" fill="orange" data-tooltip="1.44x baseline speed (YJIT)"/>
<line x1="920.4399999999999" y1="405.8822656470189" x2="931.7199999999999" y2="405.8822656470189" stroke="#000"/>
<line x1="920.4399999999999" y1="407.7512017901327" x2="931.7199999999999" y2="407.7512017901327" stroke="#000"/>
<line x1="926.0799999999999" y1="405.8822656470189" x2="926.0799999999999" y2="407.7512017901327" stroke="#000"/>
<line x1="926.08" y1="498.0" x2="926.08" y2="502.79999999999995" stroke="#000"/>
<text x="926.08" y="512.4" fill="#111" font-size="small" font-family="monospace" font-weight="bold" text-anchor="end" transform="rotate(-60, 926.08, 512.4)">
str_concat
</text>
</svg>