<svg viewBox="0 0 1000 600" xmlns="http://www.w3.org/2000/svg" xmlns:xlink="http://www.w3.org/1999/xlink" width="100%" height="100%">

<rect x="50.0" y="30.0" width="940.0" height="467.99999999999994" stroke="#000" fill="#EEE"/>
<line x1="42.0" y1="497.9999999999999" x2="50.0" y2="497.9999999999999" stroke="#000"/>
<text x="26.000000000000004" y="497.9999999999999" text-anchor="end" font-weight="bold" font-size="small" fill="#111">
0.0
</text>
<line x1="42.0" y1="447.75514349934474" x2="50.0" y2="447.75514349934474" stroke="#000"/>
<text x="26.000000000000004" y="447.75514349934474" text-anchor="end" font-weight="bold" font-size="small" fill="#111">
1.0
</text>
<line x1="42.0" y1="397.51028699868965" x2="50.0" y2="397.51028699868965" stroke="#000"/>
<text x="26.000000000000004" y="397.51028699868965" text-anchor="end" font-weight="bold" font-size="small" fill="#111">
2.0
</text>
<line x1="42.0" y1="347.26543049803456" x2="50.0" y2="347.26543049803456" stroke="#000"/>
<text x="26.000000000000004" y="347.26543049803456" text-anchor="end" font-weight="bold" font-size="small" fill="#111">
3.0
</text>
<line x1="42.0" y1="297.0205739973794" x2="50.0" y2="297.0205739973794" stroke="#000"/>
<text x="26.000000000000004" y="297.0205739973794" text-anchor="end" font-weight="bold" font-size="small" fill="#111">
4.0
</text>
<line x1="42.0" y1="246.77571749672427" x2="50.0" y2="246.77571749672427" stroke="#000"/>
<text x="26.000000000000004" y="246.77571749672427" text-anchor="end" font-weight="bold" font-size="small" fill="#111">
5.0
</text>
<line x1="42.0" y1="196.53086099606915" x2="50.0" y2="196.53086099606915" stroke="#000"/>
<text x="26.000000000000004" y="196.53086099606915" text-anchor="end" font-weight="bold" font-size="small" fill="#111">
6.0
</text>
<line x1="42.0" y1="146.286004495414" x2="50.0" y2="146.286004495414" stroke="#000"/>
<text x="26.000000000000004" y="146.286004495414" text-anchor="end" font-weight="bold" font-size="small" fill="#111">
7.0
</text>
<rect x="197.99999999999997" y="36.00000000000001" width="80.0" height="18.0" fill="#7070f8" stroke="#888"/>
<text x="238.0" y="52.50000000000001" font-size="small" text-anchor="middle" font-weight="bold" fill="#EEE">
No JIT
</text>
<rect x="479.99999999999994" y="36.00000000000001" width="80.0" height="18.0" fill="orange" stroke="#888"/>
<text x="519.9999999999999" y="52.50000000000001" font-size="small" text-anchor="middle" font-weight="bold" fill="#EEE">
MJIT3.0
</text>
<rect x="761.9999999999999" y="36.00000000000001" width="80.0" height="18.0" fill="green" stroke="#888"/>
<text x="801.9999999999999" y="52.50000000000001" font-size="small" text-anchor="middle" font-weight="bold" fill="#EEE">
YJIT
</text>
<rect x="97.0" y="447.75514349934474" width="26.4375" height="50.24485650065513" fill="#7070f8" data-tooltip="1.00x baseline speed (No JIT)"/>
<line x1="97.0" y1="447.731106731475" x2="123.4375" y2="447.731106731475" stroke="#000"/>
<line x1="97.0" y1="447.77918026721454" x2="123.4375" y2="447.77918026721454" stroke="#000"/>
<line x1="110.21875" y1="447.731106731475" x2="110.21875" y2="447.77918026721454" stroke="#000"/>
<rect x="123.4375" y="447.7940150290294" width="26.4375" height="50.205984970970555" fill="orange" data-tooltip="1.00x baseline speed (MJIT3.0)"/>
<line x1="123.4375" y1="447.5432380346257" x2="149.875" y2="447.5432380346257" stroke="#000"/>
<line x1="123.4375" y1="448.04479202343316" x2="149.875" y2="448.04479202343316" stroke="#000"/>
<line x1="136.65625" y1="447.5432380346257" x2="136.65625" y2="448.04479202343316" stroke="#000"/>
<rect x="149.875" y="154.41428705526528" width="26.4375" height="343.58571294473467" fill="green" data-tooltip="6.84x baseline speed (YJIT)"/>
<line x1="149.875" y1="153.78679104942944" x2="176.3125" y2="153.78679104942944" stroke="#000"/>
<line x1="149.875" y1="155.04178306110109" x2="176.3125" y2="155.04178306110109" stroke="#000"/>
<line x1="163.09375" y1="153.78679104942944" x2="163.09375" y2="155.04178306110109" stroke="#000"/>
<line x1="149.875" y1="498.0" x2="149.875" y2="502.79999999999995" stroke="#000"/>
<text x="149.875" y="512.4" fill="#111" font-size="small" font-family="monospace" font-weight="bold" text-anchor="end" transform="rotate(-60, 149.875, 512.4)">
30k_ifelse
</text>
<rect x="202.75" y="447.75514349934474" width="26.4375" height="50.24485650065513" fill="#7070f8" data-tooltip="1.00x baseline speed (No JIT)"/>
<line x1="202.75" y1="447.7417747110764" x2="229.1875" y2="447.7417747110764" stroke="#000"/>
<line x1="202.75" y1="447.7685122876131" x2="229.1875" y2="447.7685122876131" stroke="#000"/>
<line x1="215.96875" y1="447.7417747110764" x2="215.96875" y2="447.7685122876131" stroke="#000"/>
<rect x="229.1875" y="447.5640646121735" width="26.4375" height="50.435935387826454" fill="orange" data-tooltip="1.00x baseline speed (MJIT3.0)"/>
<line x1="229.1875" y1="447.44249900233314" x2="255.625" y2="447.44249900233314" stroke="#000"/>
<line x1="229.1875" y1="447.68563022201386" x2="255.625" y2="447.68563022201386" stroke="#000"/>
<line x1="242.40625" y1="447.44249900233314" x2="242.40625" y2="447.68563022201386" stroke="#000"/>
<rect x="255.625" y="100.19999999999999" width="26.4375" height="397.79999999999995" fill="green" data-tooltip="7.92x baseline speed (YJIT)"/>
<line x1="255.625" y1="100.03445321767656" x2="282.0625" y2="100.03445321767656" stroke="#000"/>
<line x1="255.625" y1="100.36554678232342" x2="282.0625" y2="100.36554678232342" stroke="#000"/>
<line x1="268.84375" y1="100.03445321767656" x2="268.84375" y2="100.36554678232342" stroke="#000"/>
<line x1="255.625" y1="498.0" x2="255.625" y2="502.79999999999995" stroke="#000"/>
<text x="255.625" y="512.4" fill="#111" font-size="small" font-family="monospace" font-weight="bold" text-anchor="end" transform="rotate(-60, 255.625, 512.4)">
30k_methods
</text>
<rect x="308.5" y="447.75514349934474" width="26.4375" height="50.24485650065513" fill="#7070f8" data-tooltip="1.00x baseline speed (No JIT)"/>
<line x1="308.5" y1="447.7252656323888" x2="334.9375" y2="447.7252656323888" stroke="#000"/>
<line x1="308.5" y1="447.78502136630067" x2="334.9375" y2="447.78502136630067" stroke="#000"/>
<line x1="321.71875" y1="447.7252656323888" x2="321.71875" y2="447.78502136630067" stroke="#000"/>
<rect x="334.9375" y="416.4610176449757" width="26.4375" height="81.53898235502417" fill="orange" data-tooltip="1.62x baseline speed (MJIT3.0)"/>
<line x1="334.9375" y1="416.29808886184185" x2="361.375" y2="416.29808886184185" stroke="#000"/>
<line x1="334.9375" y1="416.6239464281096" x2="361.375" y2="416.6239464281096" stroke="#000"/>
<line x1="348.15625" y1="416.29808886184185" x2="348.15625" y2="416.6239464281096" stroke="#000"/>
<rect x="361.375" y="380.88679149584607" width="26.4375" height="117.11320850415389" fill="green" data-tooltip="2.33x baseline speed (YJIT)"/>
<line x1="361.375" y1="380.6351326316617" x2="387.8125" y2="380.6351326316617" stroke="#000"/>
<line x1="361.375" y1="381.13845036003045" x2="387.8125" y2="381.13845036003045" stroke="#000"/>
<line x1="374.59375" y1="380.6351326316617" x2="374.59375" y2="381.13845036003045" stroke="#000"/>
<line x1="361.375" y1="498.0" x2="361.375" y2="502.79999999999995" stroke="#000"/>
<text x="361.375" y="512.4" fill="#111" font-size="small" font-family="monospace" font-weight="bold" text-anchor="end" transform="rotate(-60, 361.375, 512.4)">
cfunc_itself
</text>
<rect x="414.25" y="447.75514349934474" width="26.4375" height="50.24485650065513" fill="#7070f8" data-tooltip="1.00x baseline speed (No JIT)"/>
<line x1="414.25" y1="447.7133664615342" x2="440.6875" y2="447.7133664615342" stroke="#000"/>
<line x1="414.25" y1="447.7969205371553" x2="440.6875" y2="447.7969205371553" stroke="#000"/>
<line x1="427.46875" y1="447.7133664615342" x2="427.46875" y2="447.7969205371553" stroke="#000"/>
<rect x="440.6875" y="334.0945388252035" width="26.4375" height="163.90546117479647" fill="orange" data-tooltip="3.26x baseline speed (MJIT3.0)"/>
<line x1="440.6875" y1="333.9487174276875" x2="467.125" y2="333.9487174276875" stroke="#000"/>
<line x1="440.6875" y1="334.2403602227194" x2="467.125" y2="334.2403602227194" stroke="#000"/>
<line x1="453.90625" y1="333.9487174276875" x2="453.90625" y2="334.2403602227194" stroke="#000"/>
<rect x="467.125" y="301.30035400013674" width="26.4375" height="196.6996459998632" fill="green" data-tooltip="3.91x baseline speed (YJIT)"/>
<line x1="467.125" y1="301.0994957791487" x2="493.5625" y2="301.0994957791487" stroke="#000"/>
<line x1="467.125" y1="301.5012122211248" x2="493.5625" y2="301.5012122211248" stroke="#000"/>
<line x1="480.34375" y1="301.0994957791487" x2="480.34375" y2="301.5012122211248" stroke="#000"/>
<line x1="467.125" y1="498.0" x2="467.125" y2="502.79999999999995" stroke="#000"/>
<text x="467.125" y="512.4" fill="#111" font-size="small" font-family="monospace" font-weight="bold" text-anchor="end" transform="rotate(-60, 467.125, 512.4)">
fib
</text>
<rect x="520.0" y="447.75514349934474" width="26.4375" height="50.24485650065513" fill="#7070f8" data-tooltip="1.00x baseline speed (No JIT)"/>
<line x1="520.0" y1="447.6934804585816" x2="546.4375" y2="447.6934804585816" stroke="#000"/>
<line x1="520.0" y1="447.8168065401079" x2="546.4375" y2="447.8168065401079" stroke="#000"/>
<line x1="533.21875" y1="447.6934804585816" x2="533.21875" y2="447.8168065401079" stroke="#000"/>
<rect x="546.4375" y="446.69505616376625" width="26.4375" height="51.30494383623377" fill="orange" data-tooltip="1.02x baseline speed (MJIT3.0)"/>
<line x1="546.4375" y1="446.571696042568" x2="572.875" y2="446.571696042568" stroke="#000"/>
<line x1="546.4375" y1="446.8184162849644" x2="572.875" y2="446.8184162849644" stroke="#000"/>
<line x1="559.65625" y1="446.571696042568" x2="559.65625" y2="446.8184162849644" stroke="#000"/>
<rect x="572.875" y="369.1905958237957" width="26.4375" height="128.80940417620417" fill="green" data-tooltip="2.56x baseline speed (YJIT)"/>
<line x1="572.875" y1="369.0164142216631" x2="599.3125" y2="369.0164142216631" stroke="#000"/>
<line x1="572.875" y1="369.36477742592837" x2="599.3125" y2="369.36477742592837" stroke="#000"/>
<line x1="586.09375" y1="369.0164142216631" x2="586.09375" y2="369.36477742592837" stroke="#000"/>
<line x1="572.875" y1="498.0" x2="572.875" y2="502.79999999999995" stroke="#000"/>
<text x="572.875" y="512.4" fill="#111" font-size="small" font-family="monospace" font-weight="bold" text-anchor="end" transform="rotate(-60, 572.875, 512.4)">
getivar
</text>
<rect x="625.7499999999999" y="447.75514349934474" width="26.4375" height="50.24485650065513" fill="#7070f8" data-tooltip="1.00x baseline speed (No JIT)"/>
<line x1="625.7499999999999" y1="447.7192655746734" x2="652.1874999999999" y2="447.7192655746734" stroke="#000"/>
<line x1="625.7499999999999" y1="447.79102142401615" x2="652.1874999999999" y2="447.79102142401615" stroke="#000"/>
<line x1="638.9687499999999" y1="447.7192655746734" x2="638.9687499999999" y2="447.79102142401615" stroke="#000"/>
<rect x="652.1874999999999" y="434.582623911991" width="26.4375" height="63.417376088008986" fill="orange" data-tooltip="1.26x baseline speed (MJIT3.0)"/>
<line x1="652.1874999999999" y1="434.50973229323773" x2="678.6249999999999" y2="434.50973229323773" stroke="#000"/>
<line x1="652.1874999999999" y1="434.6555155307442" x2="678.6249999999999" y2="434.6555155307442" stroke="#000"/>
<line x1="665.4062499999999" y1="434.50973229323773" x2="665.4062499999999" y2="434.6555155307442" stroke="#000"/>
<rect x="678.6249999999999" y="449.1460978480854" width="26.4375" height="48.85390215191454" fill="green" data-tooltip="0.97x baseline speed (YJIT)"/>
<line x1="678.6249999999999" y1="449.0861860757784" x2="705.0624999999999" y2="449.0861860757784" stroke="#000"/>
<line x1="678.6249999999999" y1="449.20600962039236" x2="705.0624999999999" y2="449.20600962039236" stroke="#000"/>
<line x1="691.8437499999999" y1="449.0861860757784" x2="691.8437499999999" y2="449.20600962039236" stroke="#000"/>
<line x1="678.6249999999999" y1="498.0" x2="678.6249999999999" y2="502.79999999999995" stroke="#000"/>
<text x="678.6249999999999" y="512.4" fill="#111" font-size="small" font-family="monospace" font-weight="bold" text-anchor="end" transform="rotate(-60, 678.6249999999999, 512.4)">
keyword_args
</text>
<rect x="731.4999999999999" y="447.75514349934474" width="26.4375" height="50.24485650065513" fill="#7070f8" data-tooltip="1.00x baseline speed (No JIT)"/>
<line x1="731.4999999999999" y1="447.64648670950186" x2="757.9374999999999" y2="447.64648670950186" stroke="#000"/>
<line x1="731.4999999999999" y1="447.8638002891876" x2="757.9374999999999" y2="447.8638002891876" stroke="#000"/>
<line x1="744.7187499999999" y1="447.64648670950186" x2="744.7187499999999" y2="447.8638002891876" stroke="#000"/>
<rect x="757.9374999999999" y="439.51227950420315" width="26.4375" height="58.48772049579676" fill="orange" data-tooltip="1.16x baseline speed (MJIT3.0)"/>
<line x1="757.9374999999999" y1="439.3268247091876" x2="784.3749999999999" y2="439.3268247091876" stroke="#000"/>
<line x1="757.9374999999999" y1="439.6977342992187" x2="784.3749999999999" y2="439.6977342992187" stroke="#000"/>
<line x1="771.1562499999999" y1="439.3268247091876" x2="771.1562499999999" y2="439.6977342992187" stroke="#000"/>
<rect x="784.3749999999999" y="427.18103812385164" width="26.4375" height="70.81896187614825" fill="green" data-tooltip="1.41x baseline speed (YJIT)"/>
<line x1="784.3749999999999" y1="426.8419505609714" x2="810.8124999999999" y2="426.8419505609714" stroke="#000"/>
<line x1="784.3749999999999" y1="427.52012568673194" x2="810.8124999999999" y2="427.52012568673194" stroke="#000"/>
<line x1="797.5937499999999" y1="426.8419505609714" x2="797.5937499999999" y2="427.52012568673194" stroke="#000"/>
<line x1="784.3749999999999" y1="498.0" x2="784.3749999999999" y2="502.79999999999995" stroke="#000"/>
<text x="784.3749999999999" y="512.4" fill="#111" font-size="small" font-family="monospace" font-weight="bold" text-anchor="end" transform="rotate(-60, 784.3749999999999, 512.4)">
respond_to
</text>
<rect x="837.2499999999999" y="447.75514349934474" width="26.4375" height="50.24485650065513" fill="#7070f8" data-tooltip="1.00x baseline speed (No JIT)"/>
<line x1="837.2499999999999" y1="447.72931845374256" x2="863.6874999999999" y2="447.72931845374256" stroke="#000"/>
<line x1="837.2499999999999" y1="447.780968544947" x2="863.6874999999999" y2="447.780968544947" stroke="#000"/>
<line x1="850.4687499999999" y1="447.72931845374256" x2="850.4687499999999" y2="447.780968544947" stroke="#000"/>
<rect x="863.6874999999999" y="450.2748586170719" width="26.4375" height="47.72514138292808" fill="orange" data-tooltip="0.95x baseline speed (MJIT3.0)"/>
<line x1="863.6874999999999" y1="450.22821433509364" x2="890.125" y2="450.22821433509364" stroke="#000"/>
<line x1="863.6874999999999" y1="450.3215028990502" x2="890.125" y2="450.3215028990502" stroke="#000"/>
<line x1="876.9062499999999" y1="450.22821433509364" x2="876.9062499999999" y2="450.3215028990502" stroke="#000"/>
<rect x="890.125" y="415.6610334034899" width="26.4375" height="82.33896659651003" fill="green" data-tooltip="1.64x baseline speed (YJIT)"/>
<line x1="890.125" y1="415.2597609749532" x2="916.5625" y2="415.2597609749532" stroke="#000"/>
<line x1="890.125" y1="416.0623058320266" x2="916.5625" y2="416.0623058320266" stroke="#000"/>
<line x1="903.3437499999999" y1="415.2597609749532" x2="903.3437499999999" y2="416.0623058320266" stroke="#000"/>
<line x1="890.125" y1="498.0" x2="890.125" y2="502.79999999999995" stroke="#000"/>
<text x="890.125" y="512.4" fill="#111" font-size="small" font-family="monospace" font-weight="bold" text-anchor="end" transform="rotate(-60, 890.125, 512.4)">
setivar
</text>
</svg>